<svg width="1000" height="1000" xmlns="http://www.w3.org/2000/svg" xmlns:xlink="http://www.w3.org/1999/xlink" version="1.1" baseProfile="full" viewBox="0 0 1000 1000">
<rect width="1000" height="1000" x="0" y="0" fill="rgb(252,252,252)" fill-opacity="0"></rect>
<path d="M128.5 60L128.5 748.3" fill="transparent" stroke="#eeeeee" class="zr1-cls-2"></path>
<path d="M282.5 60L282.5 748.3" fill="transparent" stroke="#eeeeee" class="zr1-cls-2"></path>
<path d="M437.5 60L437.5 748.3" fill="transparent" stroke="#eeeeee" class="zr1-cls-2"></path>
<path d="M591.5 60L591.5 748.3" fill="transparent" stroke="#eeeeee" class="zr1-cls-2"></path>
<path d="M745.5 60L745.5 748.3" fill="transparent" stroke="#eeeeee" class="zr1-cls-2"></path>
<path d="M900.5 60L900.5 748.3" fill="transparent" stroke="#eeeeee" class="zr1-cls-2"></path>
<path d="M128.5 748.3L128.5 60" fill="transparent" stroke="#cccccc" stroke-linecap="round" class="zr1-cls-2"></path>
<text dominant-baseline="central" text-anchor="middle" style="font-size:12px;font-family:sans-serif;" y="-6" transform="translate(128.16 45)" fill="#cccccc">UPS</text>
<path d="M128.2 748.5L900 748.5" fill="transparent" stroke="#cccccc" stroke-linecap="round" class="zr1-cls-2"></path>
<text dominant-baseline="central" text-anchor="end" style="font-size:12px;font-family:sans-serif;" transform="translate(120.16 748.3126)" fill="#999999">251</text>
<text dominant-baseline="central" text-anchor="end" style="font-size:12px;font-family:sans-serif;" transform="translate(120.16 610.6501)" fill="#999999">301</text>
<text dominant-baseline="central" text-anchor="end" style="font-size:12px;font-family:sans-serif;" transform="translate(120.16 472.9876)" fill="#999999">351</text>
<text dominant-baseline="central" text-anchor="end" style="font-size:12px;font-family:sans-serif;" transform="translate(120.16 335.325)" fill="#999999">401</text>
<text dominant-baseline="central" text-anchor="end" style="font-size:12px;font-family:sans-serif;" transform="translate(120.16 197.6625)" fill="#999999">451</text>
<text dominant-baseline="central" text-anchor="end" style="font-size:12px;font-family:sans-serif;" transform="translate(120.16 60)" fill="#999999">501</text>
<text dominant-baseline="central" text-anchor="end" style="font-size:12px;font-family:sans-serif;" transform="matrix(0.707,-0.707,0.707,0.707,205.344,756.3126)" fill="#999999">labs_bot_speed_no_clock_stack_16</text>
<text dominant-baseline="central" text-anchor="end" style="font-size:12px;font-family:sans-serif;" transform="matrix(0.707,-0.707,0.707,0.707,359.712,756.3126)" fill="#999999">labs_bot_speed_clocked_bulk</text>
<text dominant-baseline="central" text-anchor="end" style="font-size:12px;font-family:sans-serif;" transform="matrix(0.707,-0.707,0.707,0.707,514.08,756.3126)" fill="#999999">labs_bot_speed_lead_follow_stack_16</text>
<text dominant-baseline="central" text-anchor="end" style="font-size:12px;font-family:sans-serif;" transform="matrix(0.707,-0.707,0.707,0.707,668.448,756.3126)" fill="#999999">labs_bot_speed_lead_follow_stack_16_v2</text>
<text dominant-baseline="central" text-anchor="end" style="font-size:12px;font-family:sans-serif;" transform="matrix(0.707,-0.707,0.707,0.707,822.816,756.3126)" fill="#999999">labs_bot_speed_lead_follow_bulk_v2</text>
<path d="M180.3 708.5L230.3 708.5L230.3 696.8L180.3 696.8ZM205.3 710.1L205.3 708.5M205.3 682.6L205.3 696.8M180.3 710.1L230.3 710.1M180.3 682.6L230.3 682.6M180.3 699.3L230.3 699.3" fill="#fff" stroke="#3FB1E3" ecmeta_series_index="0" ecmeta_data_index="0" ecmeta_ssr_type="chart" class="zr1-cls-3"></path>
<path d="M334.7 348.6L384.7 348.6L384.7 331.1L334.7 331.1ZM359.7 363.5L359.7 348.6M359.7 316.6L359.7 331.1M334.7 363.5L384.7 363.5M334.7 316.6L384.7 316.6M334.7 343.3L384.7 343.3" fill="#fff" stroke="#3FB1E3" ecmeta_series_index="0" ecmeta_data_index="1" ecmeta_ssr_type="chart" class="zr1-cls-3"></path>
<path d="M489.1 335.9L539.1 335.9L539.1 318.4L489.1 318.4ZM514.1 356.2L514.1 335.9M514.1 318.4M489.1 356.2L539.1 356.2M489.1 318.4L539.1 318.4M489.1 324.2L539.1 324.2" fill="#fff" stroke="#3FB1E3" ecmeta_series_index="0" ecmeta_data_index="2" ecmeta_ssr_type="chart" class="zr1-cls-3"></path>
<path d="M643.4 320.9L693.4 320.9L693.4 274.4L643.4 274.4ZM668.4 325L668.4 320.9M668.4 254L668.4 274.4M643.4 325L693.4 325M643.4 254L693.4 254M643.4 315.9L693.4 315.9" fill="#fff" stroke="#3FB1E3" ecmeta_series_index="0" ecmeta_data_index="3" ecmeta_ssr_type="chart" class="zr1-cls-3"></path>
<path d="M797.8 152.3L847.8 152.3L847.8 131.8L797.8 131.8ZM822.8 154.1L822.8 152.3M822.8 126L822.8 131.8M797.8 154.1L847.8 154.1M797.8 126L847.8 126M797.8 139L847.8 139" fill="#fff" stroke="#3FB1E3" ecmeta_series_index="0" ecmeta_data_index="4" ecmeta_ssr_type="chart" class="zr1-cls-3"></path>
<path d="M1 0A1 1 0 1 1 1 -0.1A1 1 0 0 1 1 0" transform="matrix(5,0,0,5,514.08,288.6976)" fill="#3fb1e3" fill-opacity="0.8" stroke="#ccc" stroke-width="0" stroke-opacity="0.8" ecmeta_series_index="1" ecmeta_data_index="0" ecmeta_ssr_type="chart" class="zr1-cls-4"></path>
<path d="M-194.5 -5l389.1 0l0 28l-389.1 0Z" transform="translate(500 5)" fill="rgb(0,0,0)" fill-opacity="0" stroke="#ccc" stroke-width="0" class="zr1-cls-2"></path>
<text dominant-baseline="central" text-anchor="middle" style="font-size:18px;font-family:sans-serif;font-weight:bold;" xml:space="preserve" y="9" transform="translate(500 5)" fill="#666666">Benchmark Results - Effective UPS Distribution</text>
<style ><![CDATA[
.zr1-cls-2:hover {
pointer-events:none;
}
.zr1-cls-3:hover {
cursor:pointer;
fill:rgba(255,255,255,1);
stroke-width:2;
}
.zr1-cls-4:hover {
cursor:pointer;
fill:rgba(69,194,249,1);
}

]]>

</style>
</svg>