<svg width="1000" height="1000" xmlns="http://www.w3.org/2000/svg" xmlns:xlink="http://www.w3.org/1999/xlink" version="1.1" baseProfile="full" viewBox="0 0 1000 1000">
<rect width="1000" height="1000" x="0" y="0" fill="rgb(252,252,252)" fill-opacity="0"></rect>
<path d="M128.5 60L128.5 748.3" fill="transparent" stroke="#eeeeee" class="zr1-cls-2"></path>
<path d="M282.5 60L282.5 748.3" fill="transparent" stroke="#eeeeee" class="zr1-cls-2"></path>
<path d="M437.5 60L437.5 748.3" fill="transparent" stroke="#eeeeee" class="zr1-cls-2"></path>
<path d="M591.5 60L591.5 748.3" fill="transparent" stroke="#eeeeee" class="zr1-cls-2"></path>
<path d="M745.5 60L745.5 748.3" fill="transparent" stroke="#eeeeee" class="zr1-cls-2"></path>
<path d="M900.5 60L900.5 748.3" fill="transparent" stroke="#eeeeee" class="zr1-cls-2"></path>
<path d="M128.5 748.3L128.5 60" fill="transparent" stroke="#cccccc" stroke-linecap="round" class="zr1-cls-2"></path>
<text dominant-baseline="central" text-anchor="middle" style="font-size:12px;font-family:sans-serif;" y="-6" transform="translate(128.16 45)" fill="#cccccc">UPS</text>
<path d="M128.2 748.5L900 748.5" fill="transparent" stroke="#cccccc" stroke-linecap="round" class="zr1-cls-2"></path>
<text dominant-baseline="central" text-anchor="end" style="font-size:12px;font-family:sans-serif;" transform="translate(120.16 748.3126)" fill="#999999">262</text>
<text dominant-baseline="central" text-anchor="end" style="font-size:12px;font-family:sans-serif;" transform="translate(120.16 610.6501)" fill="#999999">311</text>
<text dominant-baseline="central" text-anchor="end" style="font-size:12px;font-family:sans-serif;" transform="translate(120.16 472.9876)" fill="#999999">360</text>
<text dominant-baseline="central" text-anchor="end" style="font-size:12px;font-family:sans-serif;" transform="translate(120.16 335.325)" fill="#999999">409</text>
<text dominant-baseline="central" text-anchor="end" style="font-size:12px;font-family:sans-serif;" transform="translate(120.16 197.6625)" fill="#999999">458</text>
<text dominant-baseline="central" text-anchor="end" style="font-size:12px;font-family:sans-serif;" transform="translate(120.16 60)" fill="#999999">507</text>
<text dominant-baseline="central" text-anchor="end" style="font-size:12px;font-family:sans-serif;" transform="matrix(0.707,-0.707,0.707,0.707,205.344,756.3126)" fill="#999999">labs_bot_speed_no_clock_stack_16</text>
<text dominant-baseline="central" text-anchor="end" style="font-size:12px;font-family:sans-serif;" transform="matrix(0.707,-0.707,0.707,0.707,359.712,756.3126)" fill="#999999">labs_bot_speed_lead_follow_stack_16</text>
<text dominant-baseline="central" text-anchor="end" style="font-size:12px;font-family:sans-serif;" transform="matrix(0.707,-0.707,0.707,0.707,514.08,756.3126)" fill="#999999">labs_bot_speed_clocked_bulk</text>
<text dominant-baseline="central" text-anchor="end" style="font-size:12px;font-family:sans-serif;" transform="matrix(0.707,-0.707,0.707,0.707,668.448,756.3126)" fill="#999999">labs_bot_speed_lead_follow_stack_16_v2</text>
<text dominant-baseline="central" text-anchor="end" style="font-size:12px;font-family:sans-serif;" transform="matrix(0.707,-0.707,0.707,0.707,822.816,756.3126)" fill="#999999">labs_bot_speed_lead_follow_bulk_v2</text>
<path d="M180.3 708.9L230.3 708.9L230.3 703.7L180.3 703.7ZM205.3 708.9M205.3 703.7M180.3 708.9L230.3 708.9M180.3 703.7L230.3 703.7M180.3 703.7L230.3 703.7" fill="#fff" stroke="#3FB1E3" ecmeta_series_index="0" ecmeta_data_index="0" ecmeta_ssr_type="chart" class="zr1-cls-3"></path>
<path d="M334.7 421.8L384.7 421.8L384.7 339.3L334.7 339.3ZM359.7 421.8M359.7 339.3M334.7 421.8L384.7 421.8M334.7 339.3L384.7 339.3M334.7 339.3L384.7 339.3" fill="#fff" stroke="#3FB1E3" ecmeta_series_index="0" ecmeta_data_index="1" ecmeta_ssr_type="chart" class="zr1-cls-3"></path>
<path d="M489.1 361.2L539.1 361.2L539.1 351.1L489.1 351.1ZM514.1 361.2M514.1 351.1M489.1 361.2L539.1 361.2M489.1 351.1L539.1 351.1M489.1 351.1L539.1 351.1" fill="#fff" stroke="#3FB1E3" ecmeta_series_index="0" ecmeta_data_index="2" ecmeta_ssr_type="chart" class="zr1-cls-3"></path>
<path d="M643.4 325.1L693.4 325.1L693.4 302.1L643.4 302.1ZM668.4 325.1M668.4 302.1M643.4 325.1L693.4 325.1M643.4 302.1L693.4 302.1M643.4 302.1L693.4 302.1" fill="#fff" stroke="#3FB1E3" ecmeta_series_index="0" ecmeta_data_index="3" ecmeta_ssr_type="chart" class="zr1-cls-3"></path>
<path d="M797.8 230.3L847.8 230.3L847.8 128.3L797.8 128.3ZM822.8 230.3M822.8 128.3M797.8 230.3L847.8 230.3M797.8 128.3L847.8 128.3M797.8 128.3L847.8 128.3" fill="#fff" stroke="#3FB1E3" ecmeta_series_index="0" ecmeta_data_index="4" ecmeta_ssr_type="chart" class="zr1-cls-3"></path>
<path d="M-194.5 -5l389.1 0l0 28l-389.1 0Z" transform="translate(500 5)" fill="rgb(0,0,0)" fill-opacity="0" stroke="#ccc" stroke-width="0" class="zr1-cls-2"></path>
<text dominant-baseline="central" text-anchor="middle" style="font-size:18px;font-family:sans-serif;font-weight:bold;" xml:space="preserve" y="9" transform="translate(500 5)" fill="#666666">Benchmark Results - Effective UPS Distribution</text>
<style ><![CDATA[
.zr1-cls-2:hover {
pointer-events:none;
}
.zr1-cls-3:hover {
cursor:pointer;
fill:rgba(255,255,255,1);
stroke-width:2;
}

]]>

</style>
</svg>