<svg width="1000" height="1000" xmlns="http://www.w3.org/2000/svg" xmlns:xlink="http://www.w3.org/1999/xlink" version="1.1" baseProfile="full" viewBox="0 0 1000 1000">
<rect width="1000" height="1000" x="0" y="0" fill="rgb(252,252,252)" fill-opacity="0"></rect>
<path d="M138.5 60L138.5 798" fill="transparent" stroke="#eeeeee" class="zr1-cls-2"></path>
<path d="M290.5 60L290.5 798" fill="transparent" stroke="#eeeeee" class="zr1-cls-2"></path>
<path d="M443.5 60L443.5 798" fill="transparent" stroke="#eeeeee" class="zr1-cls-2"></path>
<path d="M595.5 60L595.5 798" fill="transparent" stroke="#eeeeee" class="zr1-cls-2"></path>
<path d="M747.5 60L747.5 798" fill="transparent" stroke="#eeeeee" class="zr1-cls-2"></path>
<path d="M900.5 60L900.5 798" fill="transparent" stroke="#eeeeee" class="zr1-cls-2"></path>
<path d="M138.5 798L138.5 60" fill="transparent" stroke="#cccccc" stroke-linecap="round" class="zr1-cls-2"></path>
<text dominant-baseline="central" text-anchor="middle" style="font-size:12px;font-family:sans-serif;" y="-6" transform="translate(138.24 45)" fill="#cccccc">UPS</text>
<path d="M138.2 798.5L900 798.5" fill="transparent" stroke="#cccccc" stroke-linecap="round" class="zr1-cls-2"></path>
<text dominant-baseline="central" text-anchor="end" style="font-size:12px;font-family:sans-serif;" transform="translate(130.24 798.0364)" fill="#999999">257</text>
<text dominant-baseline="central" text-anchor="end" style="font-size:12px;font-family:sans-serif;" transform="translate(130.24 650.4291)" fill="#999999">350.8</text>
<text dominant-baseline="central" text-anchor="end" style="font-size:12px;font-family:sans-serif;" transform="translate(130.24 502.8218)" fill="#999999">444.6</text>
<text dominant-baseline="central" text-anchor="end" style="font-size:12px;font-family:sans-serif;" transform="translate(130.24 355.2145)" fill="#999999">538.4</text>
<text dominant-baseline="central" text-anchor="end" style="font-size:12px;font-family:sans-serif;" transform="translate(130.24 207.6073)" fill="#999999">632.2</text>
<text dominant-baseline="central" text-anchor="end" style="font-size:12px;font-family:sans-serif;" transform="translate(130.24 60)" fill="#999999">726</text>
<text dominant-baseline="central" text-anchor="end" style="font-size:12px;font-family:sans-serif;" transform="matrix(0.707,-0.707,0.707,0.707,214.416,806.0364)" fill="#999999">q1_stack_wake_bot_speed</text>
<text dominant-baseline="central" text-anchor="end" style="font-size:12px;font-family:sans-serif;" transform="matrix(0.707,-0.707,0.707,0.707,366.768,806.0364)" fill="#999999">q1_bulk_bot_speed</text>
<text dominant-baseline="central" text-anchor="end" style="font-size:12px;font-family:sans-serif;" transform="matrix(0.707,-0.707,0.707,0.707,519.12,806.0364)" fill="#999999">q1_stack_sync_bot_speed</text>
<text dominant-baseline="central" text-anchor="end" style="font-size:12px;font-family:sans-serif;" transform="matrix(0.707,-0.707,0.707,0.707,671.472,806.0364)" fill="#999999">q1_stack_desync_bot_speed</text>
<text dominant-baseline="central" text-anchor="end" style="font-size:12px;font-family:sans-serif;" transform="matrix(0.707,-0.707,0.707,0.707,823.824,806.0364)" fill="#999999">q2_stack_desync_bot_speed</text>
<path d="M189.4 775.1L239.4 775.1L239.4 768.7L189.4 768.7ZM214.4 776.3L214.4 775.1M214.4 765.9L214.4 768.7M189.4 776.3L239.4 776.3M189.4 765.9L239.4 765.9M189.4 771L239.4 771" fill="#fff" stroke="#3FB1E3" ecmeta_series_index="0" ecmeta_data_index="0" ecmeta_ssr_type="chart" class="zr1-cls-3"></path>
<path d="M341.8 546.2L391.8 546.2L391.8 541.2L341.8 541.2ZM366.8 549L366.8 546.2M366.8 538.9L366.8 541.2M341.8 549L391.8 549M341.8 538.9L391.8 538.9M341.8 544.6L391.8 544.6" fill="#fff" stroke="#3FB1E3" ecmeta_series_index="0" ecmeta_data_index="1" ecmeta_ssr_type="chart" class="zr1-cls-3"></path>
<path d="M494.1 543.6L544.1 543.6L544.1 527L494.1 527ZM519.1 549.3L519.1 543.6M519.1 523.7L519.1 527M494.1 549.3L544.1 549.3M494.1 523.7L544.1 523.7M494.1 530.7L544.1 530.7" fill="#fff" stroke="#3FB1E3" ecmeta_series_index="0" ecmeta_data_index="2" ecmeta_ssr_type="chart" class="zr1-cls-3"></path>
<path d="M646.5 493.1L696.5 493.1L696.5 463.1L646.5 463.1ZM671.5 515.3L671.5 493.1M671.5 457L671.5 463.1M646.5 515.3L696.5 515.3M646.5 457L696.5 457M646.5 477.7L696.5 477.7" fill="#fff" stroke="#3FB1E3" ecmeta_series_index="0" ecmeta_data_index="3" ecmeta_ssr_type="chart" class="zr1-cls-3"></path>
<path d="M798.8 140.6L848.8 140.6L848.8 121.7L798.8 121.7ZM823.8 165.1L823.8 140.6M823.8 115.7L823.8 121.7M798.8 165.1L848.8 165.1M798.8 115.7L848.8 115.7M798.8 125.5L848.8 125.5" fill="#fff" stroke="#3FB1E3" ecmeta_series_index="0" ecmeta_data_index="4" ecmeta_ssr_type="chart" class="zr1-cls-3"></path>
<path d="M1 0A1 1 0 1 1 1 -0.1A1 1 0 0 1 1 0" transform="matrix(5,0,0,5,366.768,557.0896)" fill="#3fb1e3" fill-opacity="0.8" stroke="#ccc" stroke-width="0" stroke-opacity="0.8" ecmeta_series_index="1" ecmeta_data_index="0" ecmeta_ssr_type="chart" class="zr1-cls-4"></path>
<path d="M-194.5 -5l389.1 0l0 28l-389.1 0Z" transform="translate(500 5)" fill="rgb(0,0,0)" fill-opacity="0" stroke="#ccc" stroke-width="0" class="zr1-cls-2"></path>
<text dominant-baseline="central" text-anchor="middle" style="font-size:18px;font-family:sans-serif;font-weight:bold;" xml:space="preserve" y="9" transform="translate(500 5)" fill="#666666">Benchmark Results - Effective UPS Distribution</text>
<style ><![CDATA[
.zr1-cls-2:hover {
pointer-events:none;
}
.zr1-cls-3:hover {
cursor:pointer;
fill:rgba(255,255,255,1);
stroke-width:2;
}
.zr1-cls-4:hover {
cursor:pointer;
fill:rgba(69,194,249,1);
}

]]>

</style>
</svg>