<svg width="1000" height="1000" xmlns="http://www.w3.org/2000/svg" xmlns:xlink="http://www.w3.org/1999/xlink" version="1.1" baseProfile="full" viewBox="0 0 1000 1000">
<rect width="1000" height="1000" x="0" y="0" fill="rgb(252,252,252)" fill-opacity="0"></rect>
<path d="M138.5 60L138.5 799.7" fill="transparent" stroke="#eeeeee" class="zr1-cls-2"></path>
<path d="M265.5 60L265.5 799.7" fill="transparent" stroke="#eeeeee" class="zr1-cls-2"></path>
<path d="M392.5 60L392.5 799.7" fill="transparent" stroke="#eeeeee" class="zr1-cls-2"></path>
<path d="M519.5 60L519.5 799.7" fill="transparent" stroke="#eeeeee" class="zr1-cls-2"></path>
<path d="M646.5 60L646.5 799.7" fill="transparent" stroke="#eeeeee" class="zr1-cls-2"></path>
<path d="M773.5 60L773.5 799.7" fill="transparent" stroke="#eeeeee" class="zr1-cls-2"></path>
<path d="M900.5 60L900.5 799.7" fill="transparent" stroke="#eeeeee" class="zr1-cls-2"></path>
<path d="M138.5 799.7L138.5 60" fill="transparent" stroke="#cccccc" stroke-linecap="round" class="zr1-cls-2"></path>
<text dominant-baseline="central" text-anchor="middle" style="font-size:12px;font-family:sans-serif;" y="-6" transform="translate(138.24 45)" fill="#cccccc">UPS</text>
<path d="M138.2 799.5L900 799.5" fill="transparent" stroke="#cccccc" stroke-linecap="round" class="zr1-cls-2"></path>
<text dominant-baseline="central" text-anchor="end" style="font-size:12px;font-family:sans-serif;" transform="translate(130.24 799.7334)" fill="#999999">351</text>
<text dominant-baseline="central" text-anchor="end" style="font-size:12px;font-family:sans-serif;" transform="translate(130.24 651.7867)" fill="#999999">384.6</text>
<text dominant-baseline="central" text-anchor="end" style="font-size:12px;font-family:sans-serif;" transform="translate(130.24 503.84)" fill="#999999">418.2</text>
<text dominant-baseline="central" text-anchor="end" style="font-size:12px;font-family:sans-serif;" transform="translate(130.24 355.8934)" fill="#999999">451.8</text>
<text dominant-baseline="central" text-anchor="end" style="font-size:12px;font-family:sans-serif;" transform="translate(130.24 207.9467)" fill="#999999">485.4</text>
<text dominant-baseline="central" text-anchor="end" style="font-size:12px;font-family:sans-serif;" transform="translate(130.24 60)" fill="#999999">519</text>
<text dominant-baseline="central" text-anchor="end" style="font-size:12px;font-family:sans-serif;" transform="matrix(0.707,-0.707,0.707,0.707,201.72,807.7334)" fill="#999999">bm_filter_clocked</text>
<text dominant-baseline="central" text-anchor="end" style="font-size:12px;font-family:sans-serif;" transform="matrix(0.707,-0.707,0.707,0.707,328.68,807.7334)" fill="#999999">bm_enable_clocked</text>
<text dominant-baseline="central" text-anchor="end" style="font-size:12px;font-family:sans-serif;" transform="matrix(0.707,-0.707,0.707,0.707,455.64,807.7334)" fill="#999999">bm_wake_list</text>
<text dominant-baseline="central" text-anchor="end" style="font-size:12px;font-family:sans-serif;" transform="matrix(0.707,-0.707,0.707,0.707,582.6,807.7334)" fill="#999999">bm_threshold</text>
<text dominant-baseline="central" text-anchor="end" style="font-size:12px;font-family:sans-serif;" transform="matrix(0.707,-0.707,0.707,0.707,709.56,807.7334)" fill="#999999">bm_lead_follow_multi_signal</text>
<text dominant-baseline="central" text-anchor="end" style="font-size:12px;font-family:sans-serif;" transform="matrix(0.707,-0.707,0.707,0.707,836.52,807.7334)" fill="#999999">bm_lead_follow</text>
<path d="M176.7 635.6L226.7 635.6L226.7 511.8L176.7 511.8ZM201.7 718L201.7 635.6M201.7 485.3L201.7 511.8M176.7 718L226.7 718M176.7 485.3L226.7 485.3M176.7 531.9L226.7 531.9" fill="#fff" stroke="#3FB1E3" ecmeta_series_index="0" ecmeta_data_index="0" ecmeta_ssr_type="chart" class="zr1-cls-3"></path>
<path d="M303.7 530.6L353.7 530.6L353.7 482.5L303.7 482.5ZM328.7 568.8L328.7 530.6M328.7 444.8L328.7 482.5M303.7 568.8L353.7 568.8M303.7 444.8L353.7 444.8M303.7 508L353.7 508" fill="#fff" stroke="#3FB1E3" ecmeta_series_index="0" ecmeta_data_index="1" ecmeta_ssr_type="chart" class="zr1-cls-3"></path>
<path d="M430.6 477.1L480.6 477.1L480.6 457.6L430.6 457.6ZM455.6 494.5L455.6 477.1M455.6 453.2L455.6 457.6M430.6 494.5L480.6 494.5M430.6 453.2L480.6 453.2M430.6 459.6L480.6 459.6" fill="#fff" stroke="#3FB1E3" ecmeta_series_index="0" ecmeta_data_index="2" ecmeta_ssr_type="chart" class="zr1-cls-3"></path>
<path d="M557.6 390.5L607.6 390.5L607.6 346.3L557.6 346.3ZM582.6 428L582.6 390.5M582.6 341.5L582.6 346.3M557.6 428L607.6 428M557.6 341.5L607.6 341.5M557.6 348.6L607.6 348.6" fill="#fff" stroke="#3FB1E3" ecmeta_series_index="0" ecmeta_data_index="3" ecmeta_ssr_type="chart" class="zr1-cls-3"></path>
<path d="M684.6 253.5L734.6 253.5L734.6 201.6L684.6 201.6ZM709.6 310.2L709.6 253.5M709.6 175.1L709.6 201.6M684.6 310.2L734.6 310.2M684.6 175.1L734.6 175.1M684.6 226.4L734.6 226.4" fill="#fff" stroke="#3FB1E3" ecmeta_series_index="0" ecmeta_data_index="4" ecmeta_ssr_type="chart" class="zr1-cls-3"></path>
<path d="M811.5 193L861.5 193L861.5 189.1L811.5 189.1ZM836.5 193M836.5 189.1M811.5 193L861.5 193M811.5 189.1L861.5 189.1M811.5 190.8L861.5 190.8" fill="#fff" stroke="#3FB1E3" ecmeta_series_index="0" ecmeta_data_index="5" ecmeta_ssr_type="chart" class="zr1-cls-3"></path>
<path d="M1 0A1 1 0 1 1 1 -0.1A1 1 0 0 1 1 0" transform="matrix(5,0,0,5,836.52,221.5522)" fill="#3fb1e3" fill-opacity="0.8" stroke="#ccc" stroke-width="0" stroke-opacity="0.8" ecmeta_series_index="1" ecmeta_data_index="0" ecmeta_ssr_type="chart" class="zr1-cls-4"></path>
<path d="M1 0A1 1 0 1 1 1 -0.1A1 1 0 0 1 1 0" transform="matrix(5,0,0,5,836.52,171.551)" fill="#3fb1e3" fill-opacity="0.8" stroke="#ccc" stroke-width="0" stroke-opacity="0.8" ecmeta_series_index="1" ecmeta_data_index="1" ecmeta_ssr_type="chart" class="zr1-cls-4"></path>
<path d="M-194.5 -5l389.1 0l0 28l-389.1 0Z" transform="translate(500 5)" fill="rgb(0,0,0)" fill-opacity="0" stroke="#ccc" stroke-width="0" class="zr1-cls-2"></path>
<text dominant-baseline="central" text-anchor="middle" style="font-size:18px;font-family:sans-serif;font-weight:bold;" xml:space="preserve" y="9" transform="translate(500 5)" fill="#666666">Benchmark Results - Effective UPS Distribution</text>
<style ><![CDATA[
.zr1-cls-2:hover {
pointer-events:none;
}
.zr1-cls-3:hover {
cursor:pointer;
fill:rgba(255,255,255,1);
stroke-width:2;
}
.zr1-cls-4:hover {
cursor:pointer;
fill:rgba(69,194,249,1);
}

]]>

</style>
</svg>