<svg width="1000" height="1000" xmlns="http://www.w3.org/2000/svg" xmlns:xlink="http://www.w3.org/1999/xlink" version="1.1" baseProfile="full" viewBox="0 0 1000 1000">
<rect width="1000" height="1000" x="0" y="0" fill="rgb(252,252,252)" fill-opacity="0"></rect>
<path d="M138.5 60L138.5 816.2" fill="transparent" stroke="#eeeeee" class="zr1-cls-2"></path>
<path d="M163.5 60L163.5 816.2" fill="transparent" stroke="#eeeeee" class="zr1-cls-2"></path>
<path d="M189.5 60L189.5 816.2" fill="transparent" stroke="#eeeeee" class="zr1-cls-2"></path>
<path d="M214.5 60L214.5 816.2" fill="transparent" stroke="#eeeeee" class="zr1-cls-2"></path>
<path d="M240.5 60L240.5 816.2" fill="transparent" stroke="#eeeeee" class="zr1-cls-2"></path>
<path d="M265.5 60L265.5 816.2" fill="transparent" stroke="#eeeeee" class="zr1-cls-2"></path>
<path d="M290.5 60L290.5 816.2" fill="transparent" stroke="#eeeeee" class="zr1-cls-2"></path>
<path d="M316.5 60L316.5 816.2" fill="transparent" stroke="#eeeeee" class="zr1-cls-2"></path>
<path d="M341.5 60L341.5 816.2" fill="transparent" stroke="#eeeeee" class="zr1-cls-2"></path>
<path d="M367.5 60L367.5 816.2" fill="transparent" stroke="#eeeeee" class="zr1-cls-2"></path>
<path d="M392.5 60L392.5 816.2" fill="transparent" stroke="#eeeeee" class="zr1-cls-2"></path>
<path d="M417.5 60L417.5 816.2" fill="transparent" stroke="#eeeeee" class="zr1-cls-2"></path>
<path d="M443.5 60L443.5 816.2" fill="transparent" stroke="#eeeeee" class="zr1-cls-2"></path>
<path d="M468.5 60L468.5 816.2" fill="transparent" stroke="#eeeeee" class="zr1-cls-2"></path>
<path d="M493.5 60L493.5 816.2" fill="transparent" stroke="#eeeeee" class="zr1-cls-2"></path>
<path d="M519.5 60L519.5 816.2" fill="transparent" stroke="#eeeeee" class="zr1-cls-2"></path>
<path d="M544.5 60L544.5 816.2" fill="transparent" stroke="#eeeeee" class="zr1-cls-2"></path>
<path d="M570.5 60L570.5 816.2" fill="transparent" stroke="#eeeeee" class="zr1-cls-2"></path>
<path d="M595.5 60L595.5 816.2" fill="transparent" stroke="#eeeeee" class="zr1-cls-2"></path>
<path d="M620.5 60L620.5 816.2" fill="transparent" stroke="#eeeeee" class="zr1-cls-2"></path>
<path d="M646.5 60L646.5 816.2" fill="transparent" stroke="#eeeeee" class="zr1-cls-2"></path>
<path d="M671.5 60L671.5 816.2" fill="transparent" stroke="#eeeeee" class="zr1-cls-2"></path>
<path d="M697.5 60L697.5 816.2" fill="transparent" stroke="#eeeeee" class="zr1-cls-2"></path>
<path d="M722.5 60L722.5 816.2" fill="transparent" stroke="#eeeeee" class="zr1-cls-2"></path>
<path d="M747.5 60L747.5 816.2" fill="transparent" stroke="#eeeeee" class="zr1-cls-2"></path>
<path d="M773.5 60L773.5 816.2" fill="transparent" stroke="#eeeeee" class="zr1-cls-2"></path>
<path d="M798.5 60L798.5 816.2" fill="transparent" stroke="#eeeeee" class="zr1-cls-2"></path>
<path d="M824.5 60L824.5 816.2" fill="transparent" stroke="#eeeeee" class="zr1-cls-2"></path>
<path d="M849.5 60L849.5 816.2" fill="transparent" stroke="#eeeeee" class="zr1-cls-2"></path>
<path d="M874.5 60L874.5 816.2" fill="transparent" stroke="#eeeeee" class="zr1-cls-2"></path>
<path d="M900.5 60L900.5 816.2" fill="transparent" stroke="#eeeeee" class="zr1-cls-2"></path>
<path d="M138.5 816.2L138.5 60" fill="transparent" stroke="#cccccc" stroke-linecap="round" class="zr1-cls-2"></path>
<text dominant-baseline="central" text-anchor="middle" style="font-size:12px;font-family:sans-serif;" y="-6" transform="translate(138.24 45)" fill="#cccccc">UPS</text>
<path d="M138.2 816.5L900 816.5" fill="transparent" stroke="#cccccc" stroke-linecap="round" class="zr1-cls-2"></path>
<text dominant-baseline="central" text-anchor="end" style="font-size:12px;font-family:sans-serif;" transform="translate(130.24 816.1949)" fill="#999999">253</text>
<text dominant-baseline="central" text-anchor="end" style="font-size:12px;font-family:sans-serif;" transform="translate(130.24 664.9559)" fill="#999999">371.8</text>
<text dominant-baseline="central" text-anchor="end" style="font-size:12px;font-family:sans-serif;" transform="translate(130.24 513.7169)" fill="#999999">490.6</text>
<text dominant-baseline="central" text-anchor="end" style="font-size:12px;font-family:sans-serif;" transform="translate(130.24 362.4779)" fill="#999999">609.4</text>
<text dominant-baseline="central" text-anchor="end" style="font-size:12px;font-family:sans-serif;" transform="translate(130.24 211.239)" fill="#999999">728.2</text>
<text dominant-baseline="central" text-anchor="end" style="font-size:12px;font-family:sans-serif;" transform="translate(130.24 60)" fill="#999999">847</text>
<text dominant-baseline="central" text-anchor="end" style="font-size:12px;font-family:sans-serif;" transform="matrix(0.707,-0.707,0.707,0.707,150.936,824.1949)" fill="#999999">03_swiftdeath007</text>
<text dominant-baseline="central" text-anchor="end" style="font-size:12px;font-family:sans-serif;" transform="matrix(0.707,-0.707,0.707,0.707,176.328,824.1949)" fill="#999999">31_minebuilder</text>
<text dominant-baseline="central" text-anchor="end" style="font-size:12px;font-family:sans-serif;" transform="matrix(0.707,-0.707,0.707,0.707,201.72,824.1949)" fill="#999999">16_yuu_with_ships</text>
<text dominant-baseline="central" text-anchor="end" style="font-size:12px;font-family:sans-serif;" transform="matrix(0.707,-0.707,0.707,0.707,227.112,824.1949)" fill="#999999">15_yuu</text>
<text dominant-baseline="central" text-anchor="end" style="font-size:12px;font-family:sans-serif;" transform="matrix(0.707,-0.707,0.707,0.707,252.504,824.1949)" fill="#999999">19_werezwolf</text>
<text dominant-baseline="central" text-anchor="end" style="font-size:12px;font-family:sans-serif;" transform="matrix(0.707,-0.707,0.707,0.707,277.896,824.1949)" fill="#999999">20_toda1</text>
<text dominant-baseline="central" text-anchor="end" style="font-size:12px;font-family:sans-serif;" transform="matrix(0.707,-0.707,0.707,0.707,303.288,824.1949)" fill="#999999">04_swiftdeath007</text>
<text dominant-baseline="central" text-anchor="end" style="font-size:12px;font-family:sans-serif;" transform="matrix(0.707,-0.707,0.707,0.707,328.68,824.1949)" fill="#999999">11_theflyingcurryfish154</text>
<text dominant-baseline="central" text-anchor="end" style="font-size:12px;font-family:sans-serif;" transform="matrix(0.707,-0.707,0.707,0.707,354.072,824.1949)" fill="#999999">00_baseline_with_ships</text>
<text dominant-baseline="central" text-anchor="end" style="font-size:12px;font-family:sans-serif;" transform="matrix(0.707,-0.707,0.707,0.707,379.464,824.1949)" fill="#999999">00_baseline</text>
<text dominant-baseline="central" text-anchor="end" style="font-size:12px;font-family:sans-serif;" transform="matrix(0.707,-0.707,0.707,0.707,404.856,824.1949)" fill="#999999">34_osboz</text>
<text dominant-baseline="central" text-anchor="end" style="font-size:12px;font-family:sans-serif;" transform="matrix(0.707,-0.707,0.707,0.707,430.248,824.1949)" fill="#999999">22_mcmayhem57</text>
<text dominant-baseline="central" text-anchor="end" style="font-size:12px;font-family:sans-serif;" transform="matrix(0.707,-0.707,0.707,0.707,455.64,824.1949)" fill="#999999">16_yuu</text>
<text dominant-baseline="central" text-anchor="end" style="font-size:12px;font-family:sans-serif;" transform="matrix(0.707,-0.707,0.707,0.707,481.032,824.1949)" fill="#999999">05_derantrix</text>
<text dominant-baseline="central" text-anchor="end" style="font-size:12px;font-family:sans-serif;" transform="matrix(0.707,-0.707,0.707,0.707,506.424,824.1949)" fill="#999999">29_geist</text>
<text dominant-baseline="central" text-anchor="end" style="font-size:12px;font-family:sans-serif;" transform="matrix(0.707,-0.707,0.707,0.707,531.816,824.1949)" fill="#999999">23_mcmayhem57</text>
<text dominant-baseline="central" text-anchor="end" style="font-size:12px;font-family:sans-serif;" transform="matrix(0.707,-0.707,0.707,0.707,557.208,824.1949)" fill="#999999">06_imp</text>
<text dominant-baseline="central" text-anchor="end" style="font-size:12px;font-family:sans-serif;" transform="matrix(0.707,-0.707,0.707,0.707,582.6,824.1949)" fill="#999999">30_reja</text>
<text dominant-baseline="central" text-anchor="end" style="font-size:12px;font-family:sans-serif;" transform="matrix(0.707,-0.707,0.707,0.707,607.992,824.1949)" fill="#999999">32_reja</text>
<text dominant-baseline="central" text-anchor="end" style="font-size:12px;font-family:sans-serif;" transform="matrix(0.707,-0.707,0.707,0.707,633.384,824.1949)" fill="#999999">26_mrcooki4</text>
<text dominant-baseline="central" text-anchor="end" style="font-size:12px;font-family:sans-serif;" transform="matrix(0.707,-0.707,0.707,0.707,658.776,824.1949)" fill="#999999">09_jobo</text>
<text dominant-baseline="central" text-anchor="end" style="font-size:12px;font-family:sans-serif;" transform="matrix(0.707,-0.707,0.707,0.707,684.168,824.1949)" fill="#999999">28_geist</text>
<text dominant-baseline="central" text-anchor="end" style="font-size:12px;font-family:sans-serif;" transform="matrix(0.707,-0.707,0.707,0.707,709.56,824.1949)" fill="#999999">13_phlap</text>
<text dominant-baseline="central" text-anchor="end" style="font-size:12px;font-family:sans-serif;" transform="matrix(0.707,-0.707,0.707,0.707,734.952,824.1949)" fill="#999999">35_henryjk</text>
<text dominant-baseline="central" text-anchor="end" style="font-size:12px;font-family:sans-serif;" transform="matrix(0.707,-0.707,0.707,0.707,760.344,824.1949)" fill="#999999">27_geist</text>
<text dominant-baseline="central" text-anchor="end" style="font-size:12px;font-family:sans-serif;" transform="matrix(0.707,-0.707,0.707,0.707,785.736,824.1949)" fill="#999999">01_undertow</text>
<text dominant-baseline="central" text-anchor="end" style="font-size:12px;font-family:sans-serif;" transform="matrix(0.707,-0.707,0.707,0.707,811.128,824.1949)" fill="#999999">14_abucnasty</text>
<text dominant-baseline="central" text-anchor="end" style="font-size:12px;font-family:sans-serif;" transform="matrix(0.707,-0.707,0.707,0.707,836.52,824.1949)" fill="#999999">08_lady_meyneth</text>
<text dominant-baseline="central" text-anchor="end" style="font-size:12px;font-family:sans-serif;" transform="matrix(0.707,-0.707,0.707,0.707,861.912,824.1949)" fill="#999999">18_lady_meyneth</text>
<text dominant-baseline="central" text-anchor="end" style="font-size:12px;font-family:sans-serif;" transform="matrix(0.707,-0.707,0.707,0.707,887.304,824.1949)" fill="#999999">12_phlap</text>
<path d="M141.8 796.7L160.1 796.7L160.1 793L141.8 793ZM150.9 798.3L150.9 796.7M150.9 793M141.8 798.3L160.1 798.3M141.8 793L160.1 793M141.8 795.7L160.1 795.7" fill="#fff" stroke="#3FB1E3" ecmeta_series_index="0" ecmeta_data_index="0" ecmeta_ssr_type="chart" class="zr1-cls-3"></path>
<path d="M167.2 697L185.5 697L185.5 678.7L167.2 678.7ZM176.3 701.1L176.3 697M176.3 666.7L176.3 678.7M167.2 701.1L185.5 701.1M167.2 666.7L185.5 666.7M167.2 687L185.5 687" fill="#fff" stroke="#3FB1E3" ecmeta_series_index="0" ecmeta_data_index="1" ecmeta_ssr_type="chart" class="zr1-cls-3"></path>
<path d="M192.6 608.2L210.9 608.2L210.9 603.5L192.6 603.5ZM201.7 611.5L201.7 608.2M201.7 602.5L201.7 603.5M192.6 611.5L210.9 611.5M192.6 602.5L210.9 602.5M192.6 604.8L210.9 604.8" fill="#fff" stroke="#3FB1E3" ecmeta_series_index="0" ecmeta_data_index="2" ecmeta_ssr_type="chart" class="zr1-cls-3"></path>
<path d="M218 591.9L236.3 591.9L236.3 585.7L218 585.7ZM227.1 597.3L227.1 591.9M227.1 582.5L227.1 585.7M218 597.3L236.3 597.3M218 582.5L236.3 582.5M218 587.6L236.3 587.6" fill="#fff" stroke="#3FB1E3" ecmeta_series_index="0" ecmeta_data_index="3" ecmeta_ssr_type="chart" class="zr1-cls-3"></path>
<path d="M243.3 577.7L261.7 577.7L261.7 574.5L243.3 574.5ZM252.5 577.7M252.5 574.5M243.3 577.7L261.7 577.7M243.3 574.5L261.7 574.5M243.3 577.5L261.7 577.5" fill="#fff" stroke="#3FB1E3" ecmeta_series_index="0" ecmeta_data_index="4" ecmeta_ssr_type="chart" class="zr1-cls-3"></path>
<path d="M268.7 523.6L287.1 523.6L287.1 520.9L268.7 520.9ZM277.9 525.6L277.9 523.6M277.9 520.9M268.7 525.6L287.1 525.6M268.7 520.9L287.1 520.9M268.7 521.2L287.1 521.2" fill="#fff" stroke="#3FB1E3" ecmeta_series_index="0" ecmeta_data_index="5" ecmeta_ssr_type="chart" class="zr1-cls-3"></path>
<path d="M294.1 498.3L312.4 498.3L312.4 475.6L294.1 475.6ZM303.3 499.8L303.3 498.3M303.3 473.8L303.3 475.6M294.1 499.8L312.4 499.8M294.1 473.8L312.4 473.8M294.1 488.3L312.4 488.3" fill="#fff" stroke="#3FB1E3" ecmeta_series_index="0" ecmeta_data_index="6" ecmeta_ssr_type="chart" class="zr1-cls-3"></path>
<path d="M319.5 445L337.8 445L337.8 442.3L319.5 442.3ZM328.7 445M328.7 442.3M319.5 445L337.8 445M319.5 442.3L337.8 442.3M319.5 443.8L337.8 443.8" fill="#fff" stroke="#3FB1E3" ecmeta_series_index="0" ecmeta_data_index="7" ecmeta_ssr_type="chart" class="zr1-cls-3"></path>
<path d="M344.9 416.3L363.2 416.3L363.2 409.4L344.9 409.4ZM354.1 416.3M354.1 402.8L354.1 409.4M344.9 416.3L363.2 416.3M344.9 402.8L363.2 402.8M344.9 410.6L363.2 410.6" fill="#fff" stroke="#3FB1E3" ecmeta_series_index="0" ecmeta_data_index="8" ecmeta_ssr_type="chart" class="zr1-cls-3"></path>
<path d="M370.3 416.6L388.6 416.6L388.6 400.6L370.3 400.6ZM379.5 424.1L379.5 416.6M379.5 395.8L379.5 400.6M370.3 424.1L388.6 424.1M370.3 395.8L388.6 395.8M370.3 408L388.6 408" fill="#fff" stroke="#3FB1E3" ecmeta_series_index="0" ecmeta_data_index="9" ecmeta_ssr_type="chart" class="zr1-cls-3"></path>
<path d="M395.7 418.9L414 418.9L414 405.9L395.7 405.9ZM404.9 418.9L404.9 418.9M404.9 405.9M395.7 418.9L414 418.9M395.7 405.9L414 405.9M395.7 412.5L414 412.5" fill="#fff" stroke="#3FB1E3" ecmeta_series_index="0" ecmeta_data_index="10" ecmeta_ssr_type="chart" class="zr1-cls-3"></path>
<path d="M421.1 360.1L439.4 360.1L439.4 351.5L421.1 351.5ZM430.2 360.1M430.2 349.1L430.2 351.5M421.1 360.1L439.4 360.1M421.1 349.1L439.4 349.1M421.1 354.6L439.4 354.6" fill="#fff" stroke="#3FB1E3" ecmeta_series_index="0" ecmeta_data_index="11" ecmeta_ssr_type="chart" class="zr1-cls-3"></path>
<path d="M446.5 360L464.8 360L464.8 338.2L446.5 338.2ZM455.6 375.1L455.6 360M455.6 337.3L455.6 338.2M446.5 375.1L464.8 375.1M446.5 337.3L464.8 337.3M446.5 353.8L464.8 353.8" fill="#fff" stroke="#3FB1E3" ecmeta_series_index="0" ecmeta_data_index="12" ecmeta_ssr_type="chart" class="zr1-cls-3"></path>
<path d="M471.9 356.4L490.2 356.4L490.2 331.1L471.9 331.1ZM481 367.1L481 356.4M481 327.6L481 331.1M471.9 367.1L490.2 367.1M471.9 327.6L490.2 327.6M471.9 339.3L490.2 339.3" fill="#fff" stroke="#3FB1E3" ecmeta_series_index="0" ecmeta_data_index="13" ecmeta_ssr_type="chart" class="zr1-cls-3"></path>
<path d="M497.3 334.7L515.6 334.7L515.6 329.4L497.3 329.4ZM506.4 337.4L506.4 334.7M506.4 329.4M497.3 337.4L515.6 337.4M497.3 329.4L515.6 329.4M497.3 330.1L515.6 330.1" fill="#fff" stroke="#3FB1E3" ecmeta_series_index="0" ecmeta_data_index="14" ecmeta_ssr_type="chart" class="zr1-cls-3"></path>
<path d="M522.7 327.6L541 327.6L541 321.6L522.7 321.6ZM531.8 327.6M531.8 321.6M522.7 327.6L541 327.6M522.7 321.6L541 321.6M522.7 325.5L541 325.5" fill="#fff" stroke="#3FB1E3" ecmeta_series_index="0" ecmeta_data_index="15" ecmeta_ssr_type="chart" class="zr1-cls-3"></path>
<path d="M548.1 279.7L566.4 279.7L566.4 270.6L548.1 270.6ZM557.2 281.3L557.2 279.7M557.2 264.8L557.2 270.6M548.1 281.3L566.4 281.3M548.1 264.8L566.4 264.8M548.1 276L566.4 276" fill="#fff" stroke="#3FB1E3" ecmeta_series_index="0" ecmeta_data_index="16" ecmeta_ssr_type="chart" class="zr1-cls-3"></path>
<path d="M573.4 274.5L591.8 274.5L591.8 266.9L573.4 266.9ZM582.6 274.5M582.6 266.9M573.4 274.5L591.8 274.5M573.4 266.9L591.8 266.9M573.4 272.2L591.8 272.2" fill="#fff" stroke="#3FB1E3" ecmeta_series_index="0" ecmeta_data_index="17" ecmeta_ssr_type="chart" class="zr1-cls-3"></path>
<path d="M598.8 268.7L617.1 268.7L617.1 267L598.8 267ZM608 268.7M608 267M598.8 268.7L617.1 268.7M598.8 267L617.1 267M598.8 268.6L617.1 268.6" fill="#fff" stroke="#3FB1E3" ecmeta_series_index="0" ecmeta_data_index="18" ecmeta_ssr_type="chart" class="zr1-cls-3"></path>
<path d="M624.2 241.5L642.5 241.5L642.5 233.5L624.2 233.5ZM633.4 243.5L633.4 241.5M633.4 233.5M624.2 243.5L642.5 243.5M624.2 233.5L642.5 233.5M624.2 241.1L642.5 241.1" fill="#fff" stroke="#3FB1E3" ecmeta_series_index="0" ecmeta_data_index="19" ecmeta_ssr_type="chart" class="zr1-cls-3"></path>
<path d="M649.6 219.3L667.9 219.3L667.9 211.7L649.6 211.7ZM658.8 222.3L658.8 219.3M658.8 200.9L658.8 211.7M649.6 222.3L667.9 222.3M649.6 200.9L667.9 200.9M649.6 215.4L667.9 215.4" fill="#fff" stroke="#3FB1E3" ecmeta_series_index="0" ecmeta_data_index="20" ecmeta_ssr_type="chart" class="zr1-cls-3"></path>
<path d="M675 210L693.3 210L693.3 192.9L675 192.9ZM684.2 214.2L684.2 210M684.2 180.7L684.2 192.9M675 214.2L693.3 214.2M675 180.7L693.3 180.7M675 194.8L693.3 194.8" fill="#fff" stroke="#3FB1E3" ecmeta_series_index="0" ecmeta_data_index="21" ecmeta_ssr_type="chart" class="zr1-cls-3"></path>
<path d="M700.4 202.2L718.7 202.2L718.7 189L700.4 189ZM709.6 215.5L709.6 202.2M709.6 182.6L709.6 189M700.4 215.5L718.7 215.5M700.4 182.6L718.7 182.6M700.4 200.1L718.7 200.1" fill="#fff" stroke="#3FB1E3" ecmeta_series_index="0" ecmeta_data_index="22" ecmeta_ssr_type="chart" class="zr1-cls-3"></path>
<path d="M725.8 219.4L744.1 219.4L744.1 175L725.8 175ZM735 223.2L735 219.4M735 171.7L735 175M725.8 223.2L744.1 223.2M725.8 171.7L744.1 171.7M725.8 176.4L744.1 176.4" fill="#fff" stroke="#3FB1E3" ecmeta_series_index="0" ecmeta_data_index="23" ecmeta_ssr_type="chart" class="zr1-cls-3"></path>
<path d="M751.2 192.9L769.5 192.9L769.5 177.8L751.2 177.8ZM760.3 192.9M760.3 176L760.3 177.8M751.2 192.9L769.5 192.9M751.2 176L769.5 176M751.2 184.4L769.5 184.4" fill="#fff" stroke="#3FB1E3" ecmeta_series_index="0" ecmeta_data_index="24" ecmeta_ssr_type="chart" class="zr1-cls-3"></path>
<path d="M776.6 173.7L794.9 173.7L794.9 167.7L776.6 167.7ZM785.7 173.7M785.7 160.5L785.7 167.7M776.6 173.7L794.9 173.7M776.6 160.5L794.9 160.5M776.6 167.8L794.9 167.8" fill="#fff" stroke="#3FB1E3" ecmeta_series_index="0" ecmeta_data_index="25" ecmeta_ssr_type="chart" class="zr1-cls-3"></path>
<path d="M802 159.2L820.3 159.2L820.3 153.9L802 153.9ZM811.1 159.2M811.1 153.9M802 159.2L820.3 159.2M802 153.9L820.3 153.9M802 155.7L820.3 155.7" fill="#fff" stroke="#3FB1E3" ecmeta_series_index="0" ecmeta_data_index="26" ecmeta_ssr_type="chart" class="zr1-cls-3"></path>
<path d="M827.4 139.8L845.7 139.8L845.7 122.3L827.4 122.3ZM836.5 146.4L836.5 139.8M836.5 116.5L836.5 122.3M827.4 146.4L845.7 146.4M827.4 116.5L845.7 116.5M827.4 123.4L845.7 123.4" fill="#fff" stroke="#3FB1E3" ecmeta_series_index="0" ecmeta_data_index="27" ecmeta_ssr_type="chart" class="zr1-cls-3"></path>
<path d="M852.8 128.3L871.1 128.3L871.1 118L852.8 118ZM861.9 140L861.9 128.3M861.9 115.8L861.9 118M852.8 140L871.1 140M852.8 115.8L871.1 115.8M852.8 123.9L871.1 123.9" fill="#fff" stroke="#3FB1E3" ecmeta_series_index="0" ecmeta_data_index="28" ecmeta_ssr_type="chart" class="zr1-cls-3"></path>
<path d="M878.1 129.3L896.5 129.3L896.5 119.5L878.1 119.5ZM887.3 132.2L887.3 129.3M887.3 111.4L887.3 119.5M878.1 132.2L896.5 132.2M878.1 111.4L896.5 111.4M878.1 126.2L896.5 126.2" fill="#fff" stroke="#3FB1E3" ecmeta_series_index="0" ecmeta_data_index="29" ecmeta_ssr_type="chart" class="zr1-cls-3"></path>
<path d="M1 0A1 1 0 1 1 1 -0.1A1 1 0 0 1 1 0" transform="matrix(5,0,0,5,150.936,780.8176)" fill="#3fb1e3" fill-opacity="0.8" stroke="#ccc" stroke-width="0" stroke-opacity="0.8" ecmeta_series_index="1" ecmeta_data_index="0" ecmeta_ssr_type="chart" class="zr1-cls-4"></path>
<path d="M1 0A1 1 0 1 1 1 -0.1A1 1 0 0 1 1 0" transform="matrix(5,0,0,5,252.504,597.6788)" fill="#3fb1e3" fill-opacity="0.8" stroke="#ccc" stroke-width="0" stroke-opacity="0.8" ecmeta_series_index="1" ecmeta_data_index="1" ecmeta_ssr_type="chart" class="zr1-cls-4"></path>
<path d="M1 0A1 1 0 1 1 1 -0.1A1 1 0 0 1 1 0" transform="matrix(5,0,0,5,252.504,569.3569)" fill="#3fb1e3" fill-opacity="0.8" stroke="#ccc" stroke-width="0" stroke-opacity="0.8" ecmeta_series_index="1" ecmeta_data_index="2" ecmeta_ssr_type="chart" class="zr1-cls-4"></path>
<path d="M1 0A1 1 0 1 1 1 -0.1A1 1 0 0 1 1 0" transform="matrix(5,0,0,5,277.896,516.6888)" fill="#3fb1e3" fill-opacity="0.8" stroke="#ccc" stroke-width="0" stroke-opacity="0.8" ecmeta_series_index="1" ecmeta_data_index="3" ecmeta_ssr_type="chart" class="zr1-cls-4"></path>
<path d="M1 0A1 1 0 1 1 1 -0.1A1 1 0 0 1 1 0" transform="matrix(5,0,0,5,328.68,462.5402)" fill="#3fb1e3" fill-opacity="0.8" stroke="#ccc" stroke-width="0" stroke-opacity="0.8" ecmeta_series_index="1" ecmeta_data_index="4" ecmeta_ssr_type="chart" class="zr1-cls-4"></path>
<path d="M1 0A1 1 0 1 1 1 -0.1A1 1 0 0 1 1 0" transform="matrix(5,0,0,5,328.68,433.0316)" fill="#3fb1e3" fill-opacity="0.8" stroke="#ccc" stroke-width="0" stroke-opacity="0.8" ecmeta_series_index="1" ecmeta_data_index="5" ecmeta_ssr_type="chart" class="zr1-cls-4"></path>
<path d="M1 0A1 1 0 1 1 1 -0.1A1 1 0 0 1 1 0" transform="matrix(5,0,0,5,354.072,432.7634)" fill="#3fb1e3" fill-opacity="0.8" stroke="#ccc" stroke-width="0" stroke-opacity="0.8" ecmeta_series_index="1" ecmeta_data_index="6" ecmeta_ssr_type="chart" class="zr1-cls-4"></path>
<path d="M1 0A1 1 0 1 1 1 -0.1A1 1 0 0 1 1 0" transform="matrix(5,0,0,5,404.856,367.5532)" fill="#3fb1e3" fill-opacity="0.8" stroke="#ccc" stroke-width="0" stroke-opacity="0.8" ecmeta_series_index="1" ecmeta_data_index="7" ecmeta_ssr_type="chart" class="zr1-cls-4"></path>
<path d="M1 0A1 1 0 1 1 1 -0.1A1 1 0 0 1 1 0" transform="matrix(5,0,0,5,430.248,399.7749)" fill="#3fb1e3" fill-opacity="0.8" stroke="#ccc" stroke-width="0" stroke-opacity="0.8" ecmeta_series_index="1" ecmeta_data_index="8" ecmeta_ssr_type="chart" class="zr1-cls-4"></path>
<path d="M1 0A1 1 0 1 1 1 -0.1A1 1 0 0 1 1 0" transform="matrix(5,0,0,5,506.424,318.8838)" fill="#3fb1e3" fill-opacity="0.8" stroke="#ccc" stroke-width="0" stroke-opacity="0.8" ecmeta_series_index="1" ecmeta_data_index="9" ecmeta_ssr_type="chart" class="zr1-cls-4"></path>
<path d="M1 0A1 1 0 1 1 1 -0.1A1 1 0 0 1 1 0" transform="matrix(5,0,0,5,531.816,344.0955)" fill="#3fb1e3" fill-opacity="0.8" stroke="#ccc" stroke-width="0" stroke-opacity="0.8" ecmeta_series_index="1" ecmeta_data_index="10" ecmeta_ssr_type="chart" class="zr1-cls-4"></path>
<path d="M1 0A1 1 0 1 1 1 -0.1A1 1 0 0 1 1 0" transform="matrix(5,0,0,5,531.816,307.4336)" fill="#3fb1e3" fill-opacity="0.8" stroke="#ccc" stroke-width="0" stroke-opacity="0.8" ecmeta_series_index="1" ecmeta_data_index="11" ecmeta_ssr_type="chart" class="zr1-cls-4"></path>
<path d="M1 0A1 1 0 1 1 1 -0.1A1 1 0 0 1 1 0" transform="matrix(5,0,0,5,582.6,288.0721)" fill="#3fb1e3" fill-opacity="0.8" stroke="#ccc" stroke-width="0" stroke-opacity="0.8" ecmeta_series_index="1" ecmeta_data_index="12" ecmeta_ssr_type="chart" class="zr1-cls-4"></path>
<path d="M1 0A1 1 0 1 1 1 -0.1A1 1 0 0 1 1 0" transform="matrix(5,0,0,5,582.6,255.4039)" fill="#3fb1e3" fill-opacity="0.8" stroke="#ccc" stroke-width="0" stroke-opacity="0.8" ecmeta_series_index="1" ecmeta_data_index="13" ecmeta_ssr_type="chart" class="zr1-cls-4"></path>
<path d="M1 0A1 1 0 1 1 1 -0.1A1 1 0 0 1 1 0" transform="matrix(5,0,0,5,607.992,272.201)" fill="#3fb1e3" fill-opacity="0.8" stroke="#ccc" stroke-width="0" stroke-opacity="0.8" ecmeta_series_index="1" ecmeta_data_index="14" ecmeta_ssr_type="chart" class="zr1-cls-4"></path>
<path d="M1 0A1 1 0 1 1 1 -0.1A1 1 0 0 1 1 0" transform="matrix(5,0,0,5,607.992,256.1724)" fill="#3fb1e3" fill-opacity="0.8" stroke="#ccc" stroke-width="0" stroke-opacity="0.8" ecmeta_series_index="1" ecmeta_data_index="15" ecmeta_ssr_type="chart" class="zr1-cls-4"></path>
<path d="M1 0A1 1 0 1 1 1 -0.1A1 1 0 0 1 1 0" transform="matrix(5,0,0,5,633.384,218.1296)" fill="#3fb1e3" fill-opacity="0.8" stroke="#ccc" stroke-width="0" stroke-opacity="0.8" ecmeta_series_index="1" ecmeta_data_index="16" ecmeta_ssr_type="chart" class="zr1-cls-4"></path>
<path d="M1 0A1 1 0 1 1 1 -0.1A1 1 0 0 1 1 0" transform="matrix(5,0,0,5,760.344,216.4804)" fill="#3fb1e3" fill-opacity="0.8" stroke="#ccc" stroke-width="0" stroke-opacity="0.8" ecmeta_series_index="1" ecmeta_data_index="17" ecmeta_ssr_type="chart" class="zr1-cls-4"></path>
<path d="M1 0A1 1 0 1 1 1 -0.1A1 1 0 0 1 1 0" transform="matrix(5,0,0,5,785.736,185.2177)" fill="#3fb1e3" fill-opacity="0.8" stroke="#ccc" stroke-width="0" stroke-opacity="0.8" ecmeta_series_index="1" ecmeta_data_index="18" ecmeta_ssr_type="chart" class="zr1-cls-4"></path>
<path d="M1 0A1 1 0 1 1 1 -0.1A1 1 0 0 1 1 0" transform="matrix(5,0,0,5,811.128,175.9945)" fill="#3fb1e3" fill-opacity="0.8" stroke="#ccc" stroke-width="0" stroke-opacity="0.8" ecmeta_series_index="1" ecmeta_data_index="19" ecmeta_ssr_type="chart" class="zr1-cls-4"></path>
<path d="M1 0A1 1 0 1 1 1 -0.1A1 1 0 0 1 1 0" transform="matrix(5,0,0,5,811.128,135.9305)" fill="#3fb1e3" fill-opacity="0.8" stroke="#ccc" stroke-width="0" stroke-opacity="0.8" ecmeta_series_index="1" ecmeta_data_index="20" ecmeta_ssr_type="chart" class="zr1-cls-4"></path>
<path d="M-194.5 -5l389.1 0l0 28l-389.1 0Z" transform="translate(500 5)" fill="rgb(0,0,0)" fill-opacity="0" stroke="#ccc" stroke-width="0" class="zr1-cls-2"></path>
<text dominant-baseline="central" text-anchor="middle" style="font-size:18px;font-family:sans-serif;font-weight:bold;" xml:space="preserve" y="9" transform="translate(500 5)" fill="#666666">Benchmark Results - Effective UPS Distribution</text>
<style ><![CDATA[
.zr1-cls-2:hover {
pointer-events:none;
}
.zr1-cls-3:hover {
cursor:pointer;
fill:rgba(255,255,255,1);
stroke-width:2;
}
.zr1-cls-4:hover {
cursor:pointer;
fill:rgba(69,194,249,1);
}

]]>

</style>
</svg>