<svg width="1000" height="1000" xmlns="http://www.w3.org/2000/svg" xmlns:xlink="http://www.w3.org/1999/xlink" version="1.1" baseProfile="full" viewBox="0 0 1000 1000">
<rect width="1000" height="1000" x="0" y="0" fill="rgb(252,252,252)" fill-opacity="0"></rect>
<path d="M168.6 950.5L960 950.5" fill="transparent" stroke="#eeeeee" class="zr2-cls-5"></path>
<path d="M168.6 920.5L960 920.5" fill="transparent" stroke="#eeeeee" class="zr2-cls-5"></path>
<path d="M168.6 890.5L960 890.5" fill="transparent" stroke="#eeeeee" class="zr2-cls-5"></path>
<path d="M168.6 861.5L960 861.5" fill="transparent" stroke="#eeeeee" class="zr2-cls-5"></path>
<path d="M168.6 831.5L960 831.5" fill="transparent" stroke="#eeeeee" class="zr2-cls-5"></path>
<path d="M168.6 801.5L960 801.5" fill="transparent" stroke="#eeeeee" class="zr2-cls-5"></path>
<path d="M168.6 772.5L960 772.5" fill="transparent" stroke="#eeeeee" class="zr2-cls-5"></path>
<path d="M168.6 742.5L960 742.5" fill="transparent" stroke="#eeeeee" class="zr2-cls-5"></path>
<path d="M168.6 712.5L960 712.5" fill="transparent" stroke="#eeeeee" class="zr2-cls-5"></path>
<path d="M168.6 683.5L960 683.5" fill="transparent" stroke="#eeeeee" class="zr2-cls-5"></path>
<path d="M168.6 653.5L960 653.5" fill="transparent" stroke="#eeeeee" class="zr2-cls-5"></path>
<path d="M168.6 623.5L960 623.5" fill="transparent" stroke="#eeeeee" class="zr2-cls-5"></path>
<path d="M168.6 594.5L960 594.5" fill="transparent" stroke="#eeeeee" class="zr2-cls-5"></path>
<path d="M168.6 564.5L960 564.5" fill="transparent" stroke="#eeeeee" class="zr2-cls-5"></path>
<path d="M168.6 534.5L960 534.5" fill="transparent" stroke="#eeeeee" class="zr2-cls-5"></path>
<path d="M168.6 505.5L960 505.5" fill="transparent" stroke="#eeeeee" class="zr2-cls-5"></path>
<path d="M168.6 475.5L960 475.5" fill="transparent" stroke="#eeeeee" class="zr2-cls-5"></path>
<path d="M168.6 445.5L960 445.5" fill="transparent" stroke="#eeeeee" class="zr2-cls-5"></path>
<path d="M168.6 416.5L960 416.5" fill="transparent" stroke="#eeeeee" class="zr2-cls-5"></path>
<path d="M168.6 386.5L960 386.5" fill="transparent" stroke="#eeeeee" class="zr2-cls-5"></path>
<path d="M168.6 356.5L960 356.5" fill="transparent" stroke="#eeeeee" class="zr2-cls-5"></path>
<path d="M168.6 327.5L960 327.5" fill="transparent" stroke="#eeeeee" class="zr2-cls-5"></path>
<path d="M168.6 297.5L960 297.5" fill="transparent" stroke="#eeeeee" class="zr2-cls-5"></path>
<path d="M168.6 267.5L960 267.5" fill="transparent" stroke="#eeeeee" class="zr2-cls-5"></path>
<path d="M168.6 238.5L960 238.5" fill="transparent" stroke="#eeeeee" class="zr2-cls-5"></path>
<path d="M168.6 208.5L960 208.5" fill="transparent" stroke="#eeeeee" class="zr2-cls-5"></path>
<path d="M168.6 178.5L960 178.5" fill="transparent" stroke="#eeeeee" class="zr2-cls-5"></path>
<path d="M168.6 149.5L960 149.5" fill="transparent" stroke="#eeeeee" class="zr2-cls-5"></path>
<path d="M168.6 119.5L960 119.5" fill="transparent" stroke="#eeeeee" class="zr2-cls-5"></path>
<path d="M168.6 89.5L960 89.5" fill="transparent" stroke="#eeeeee" class="zr2-cls-5"></path>
<path d="M168.6 60.5L960 60.5" fill="transparent" stroke="#eeeeee" class="zr2-cls-5"></path>
<path d="M168.5 950L168.5 60" fill="transparent" stroke="#cccccc" stroke-linecap="round" class="zr2-cls-5"></path>
<path d="M168.6 950.5L960 950.5" fill="transparent" stroke="#cccccc" stroke-linecap="round" class="zr2-cls-5"></path>
<text dominant-baseline="central" text-anchor="end" style="font-size:12px;font-family:sans-serif;" transform="translate(160.56 935.1667)" fill="#999999">03_swiftdeath007</text>
<text dominant-baseline="central" text-anchor="end" style="font-size:12px;font-family:sans-serif;" transform="translate(160.56 905.5)" fill="#999999">31_minebuilder</text>
<text dominant-baseline="central" text-anchor="end" style="font-size:12px;font-family:sans-serif;" transform="translate(160.56 875.8333)" fill="#999999">16_yuu_with_ships</text>
<text dominant-baseline="central" text-anchor="end" style="font-size:12px;font-family:sans-serif;" transform="translate(160.56 846.1667)" fill="#999999">15_yuu</text>
<text dominant-baseline="central" text-anchor="end" style="font-size:12px;font-family:sans-serif;" transform="translate(160.56 816.5)" fill="#999999">19_werezwolf</text>
<text dominant-baseline="central" text-anchor="end" style="font-size:12px;font-family:sans-serif;" transform="translate(160.56 786.8333)" fill="#999999">20_toda1</text>
<text dominant-baseline="central" text-anchor="end" style="font-size:12px;font-family:sans-serif;" transform="translate(160.56 757.1667)" fill="#999999">04_swiftdeath007</text>
<text dominant-baseline="central" text-anchor="end" style="font-size:12px;font-family:sans-serif;" transform="translate(160.56 727.5)" fill="#999999">11_theflyingcurryfish154</text>
<text dominant-baseline="central" text-anchor="end" style="font-size:12px;font-family:sans-serif;" transform="translate(160.56 697.8333)" fill="#999999">00_baseline_with_ships</text>
<text dominant-baseline="central" text-anchor="end" style="font-size:12px;font-family:sans-serif;" transform="translate(160.56 668.1667)" fill="#999999">00_baseline</text>
<text dominant-baseline="central" text-anchor="end" style="font-size:12px;font-family:sans-serif;" transform="translate(160.56 638.5)" fill="#999999">34_osboz</text>
<text dominant-baseline="central" text-anchor="end" style="font-size:12px;font-family:sans-serif;" transform="translate(160.56 608.8333)" fill="#999999">22_mcmayhem57</text>
<text dominant-baseline="central" text-anchor="end" style="font-size:12px;font-family:sans-serif;" transform="translate(160.56 579.1667)" fill="#999999">16_yuu</text>
<text dominant-baseline="central" text-anchor="end" style="font-size:12px;font-family:sans-serif;" transform="translate(160.56 549.5)" fill="#999999">05_derantrix</text>
<text dominant-baseline="central" text-anchor="end" style="font-size:12px;font-family:sans-serif;" transform="translate(160.56 519.8333)" fill="#999999">29_geist</text>
<text dominant-baseline="central" text-anchor="end" style="font-size:12px;font-family:sans-serif;" transform="translate(160.56 490.1667)" fill="#999999">23_mcmayhem57</text>
<text dominant-baseline="central" text-anchor="end" style="font-size:12px;font-family:sans-serif;" transform="translate(160.56 460.5)" fill="#999999">06_imp</text>
<text dominant-baseline="central" text-anchor="end" style="font-size:12px;font-family:sans-serif;" transform="translate(160.56 430.8333)" fill="#999999">30_reja</text>
<text dominant-baseline="central" text-anchor="end" style="font-size:12px;font-family:sans-serif;" transform="translate(160.56 401.1667)" fill="#999999">32_reja</text>
<text dominant-baseline="central" text-anchor="end" style="font-size:12px;font-family:sans-serif;" transform="translate(160.56 371.5)" fill="#999999">26_mrcooki4</text>
<text dominant-baseline="central" text-anchor="end" style="font-size:12px;font-family:sans-serif;" transform="translate(160.56 341.8333)" fill="#999999">09_jobo</text>
<text dominant-baseline="central" text-anchor="end" style="font-size:12px;font-family:sans-serif;" transform="translate(160.56 312.1667)" fill="#999999">28_geist</text>
<text dominant-baseline="central" text-anchor="end" style="font-size:12px;font-family:sans-serif;" transform="translate(160.56 282.5)" fill="#999999">13_phlap</text>
<text dominant-baseline="central" text-anchor="end" style="font-size:12px;font-family:sans-serif;" transform="translate(160.56 252.8333)" fill="#999999">35_henryjk</text>
<text dominant-baseline="central" text-anchor="end" style="font-size:12px;font-family:sans-serif;" transform="translate(160.56 223.1667)" fill="#999999">27_geist</text>
<text dominant-baseline="central" text-anchor="end" style="font-size:12px;font-family:sans-serif;" transform="translate(160.56 193.5)" fill="#999999">01_undertow</text>
<text dominant-baseline="central" text-anchor="end" style="font-size:12px;font-family:sans-serif;" transform="translate(160.56 163.8333)" fill="#999999">14_abucnasty</text>
<text dominant-baseline="central" text-anchor="end" style="font-size:12px;font-family:sans-serif;" transform="translate(160.56 134.1667)" fill="#999999">08_lady_meyneth</text>
<text dominant-baseline="central" text-anchor="end" style="font-size:12px;font-family:sans-serif;" transform="translate(160.56 104.5)" fill="#999999">18_lady_meyneth</text>
<text dominant-baseline="central" text-anchor="end" style="font-size:12px;font-family:sans-serif;" transform="translate(160.56 74.8333)" fill="#999999">12_phlap</text>
<text dominant-baseline="central" text-anchor="middle" style="font-size:12px;font-family:sans-serif;" y="6" transform="translate(168.56 958)" fill="#999999">0</text>
<text dominant-baseline="central" text-anchor="middle" style="font-size:12px;font-family:sans-serif;" y="6" transform="translate(281.6229 958)" fill="#999999">30</text>
<text dominant-baseline="central" text-anchor="middle" style="font-size:12px;font-family:sans-serif;" y="6" transform="translate(394.6857 958)" fill="#999999">60</text>
<text dominant-baseline="central" text-anchor="middle" style="font-size:12px;font-family:sans-serif;" y="6" transform="translate(507.7486 958)" fill="#999999">90</text>
<text dominant-baseline="central" text-anchor="middle" style="font-size:12px;font-family:sans-serif;" y="6" transform="translate(620.8114 958)" fill="#999999">120</text>
<text dominant-baseline="central" text-anchor="middle" style="font-size:12px;font-family:sans-serif;" y="6" transform="translate(733.8743 958)" fill="#999999">150</text>
<text dominant-baseline="central" text-anchor="middle" style="font-size:12px;font-family:sans-serif;" y="6" transform="translate(846.9371 958)" fill="#999999">180</text>
<text dominant-baseline="central" text-anchor="middle" style="font-size:12px;font-family:sans-serif;" y="6" transform="translate(960 958)" fill="#999999">210</text>
<path d="M168.6 924.9l0 0l0 20.5l0 0Z" fill="#3fb1e3" ecmeta_series_index="0" ecmeta_data_index="0" ecmeta_ssr_type="chart" class="zr2-cls-6"></path>
<path d="M168.6 895.3l116.5 0l0 20.5l-116.5 0Z" fill="#3fb1e3" ecmeta_series_index="0" ecmeta_data_index="1" ecmeta_ssr_type="chart" class="zr2-cls-6"></path>
<path d="M168.6 865.6l203.8 0l0 20.5l-203.8 0Z" fill="#3fb1e3" ecmeta_series_index="0" ecmeta_data_index="2" ecmeta_ssr_type="chart" class="zr2-cls-6"></path>
<path d="M168.6 835.9l222.5 0l0 20.5l-222.5 0Z" fill="#3fb1e3" ecmeta_series_index="0" ecmeta_data_index="3" ecmeta_ssr_type="chart" class="zr2-cls-6"></path>
<path d="M168.6 806.3l233 0l0 20.5l-233 0Z" fill="#3fb1e3" ecmeta_series_index="0" ecmeta_data_index="4" ecmeta_ssr_type="chart" class="zr2-cls-6"></path>
<path d="M168.6 776.6l296 0l0 20.5l-296 0Z" fill="#3fb1e3" ecmeta_series_index="0" ecmeta_data_index="5" ecmeta_ssr_type="chart" class="zr2-cls-6"></path>
<path d="M168.6 746.9l333.6 0l0 20.5l-333.6 0Z" fill="#3fb1e3" ecmeta_series_index="0" ecmeta_data_index="6" ecmeta_ssr_type="chart" class="zr2-cls-6"></path>
<path d="M168.6 717.3l379.3 0l0 20.5l-379.3 0Z" fill="#3fb1e3" ecmeta_series_index="0" ecmeta_data_index="7" ecmeta_ssr_type="chart" class="zr2-cls-6"></path>
<path d="M168.6 687.6l413 0l0 20.5l-413 0Z" fill="#3fb1e3" ecmeta_series_index="0" ecmeta_data_index="8" ecmeta_ssr_type="chart" class="zr2-cls-6"></path>
<path d="M168.6 657.9l418.9 0l0 20.5l-418.9 0Z" fill="#3fb1e3" ecmeta_series_index="0" ecmeta_data_index="9" ecmeta_ssr_type="chart" class="zr2-cls-6"></path>
<path d="M168.6 628.3l423.5 0l0 20.5l-423.5 0Z" fill="#3fb1e3" ecmeta_series_index="0" ecmeta_data_index="10" ecmeta_ssr_type="chart" class="zr2-cls-6"></path>
<path d="M168.6 598.6l469.1 0l0 20.5l-469.1 0Z" fill="#3fb1e3" ecmeta_series_index="0" ecmeta_data_index="11" ecmeta_ssr_type="chart" class="zr2-cls-6"></path>
<path d="M168.6 568.9l480.1 0l0 20.5l-480.1 0Z" fill="#3fb1e3" ecmeta_series_index="0" ecmeta_data_index="12" ecmeta_ssr_type="chart" class="zr2-cls-6"></path>
<path d="M168.6 539.3l489.5 0l0 20.5l-489.5 0Z" fill="#3fb1e3" ecmeta_series_index="0" ecmeta_data_index="13" ecmeta_ssr_type="chart" class="zr2-cls-6"></path>
<path d="M168.6 509.6l505 0l0 20.5l-505 0Z" fill="#3fb1e3" ecmeta_series_index="0" ecmeta_data_index="14" ecmeta_ssr_type="chart" class="zr2-cls-6"></path>
<path d="M168.6 479.9l510.3 0l0 20.5l-510.3 0Z" fill="#3fb1e3" ecmeta_series_index="0" ecmeta_data_index="15" ecmeta_ssr_type="chart" class="zr2-cls-6"></path>
<path d="M168.6 450.3l565.7 0l0 20.5l-565.7 0Z" fill="#3fb1e3" ecmeta_series_index="0" ecmeta_data_index="16" ecmeta_ssr_type="chart" class="zr2-cls-6"></path>
<path d="M168.6 420.6l569 0l0 20.5l-569 0Z" fill="#3fb1e3" ecmeta_series_index="0" ecmeta_data_index="17" ecmeta_ssr_type="chart" class="zr2-cls-6"></path>
<path d="M168.6 390.9l574.4 0l0 20.5l-574.4 0Z" fill="#3fb1e3" ecmeta_series_index="0" ecmeta_data_index="18" ecmeta_ssr_type="chart" class="zr2-cls-6"></path>
<path d="M168.6 361.3l608.2 0l0 20.5l-608.2 0Z" fill="#3fb1e3" ecmeta_series_index="0" ecmeta_data_index="19" ecmeta_ssr_type="chart" class="zr2-cls-6"></path>
<path d="M168.6 331.6l631.8 0l0 20.5l-631.8 0Z" fill="#3fb1e3" ecmeta_series_index="0" ecmeta_data_index="20" ecmeta_ssr_type="chart" class="zr2-cls-6"></path>
<path d="M168.6 301.9l648.6 0l0 20.5l-648.6 0Z" fill="#3fb1e3" ecmeta_series_index="0" ecmeta_data_index="21" ecmeta_ssr_type="chart" class="zr2-cls-6"></path>
<path d="M168.6 272.3l649.3 0l0 20.5l-649.3 0Z" fill="#3fb1e3" ecmeta_series_index="0" ecmeta_data_index="22" ecmeta_ssr_type="chart" class="zr2-cls-6"></path>
<path d="M168.6 242.6l654.4 0l0 20.5l-654.4 0Z" fill="#3fb1e3" ecmeta_series_index="0" ecmeta_data_index="23" ecmeta_ssr_type="chart" class="zr2-cls-6"></path>
<path d="M168.6 212.9l658.4 0l0 20.5l-658.4 0Z" fill="#3fb1e3" ecmeta_series_index="0" ecmeta_data_index="24" ecmeta_ssr_type="chart" class="zr2-cls-6"></path>
<path d="M168.6 183.3l678.6 0l0 20.5l-678.6 0Z" fill="#3fb1e3" ecmeta_series_index="0" ecmeta_data_index="25" ecmeta_ssr_type="chart" class="zr2-cls-6"></path>
<path d="M168.6 153.6l694.8 0l0 20.5l-694.8 0Z" fill="#3fb1e3" ecmeta_series_index="0" ecmeta_data_index="26" ecmeta_ssr_type="chart" class="zr2-cls-6"></path>
<path d="M168.6 123.9l723.7 0l0 20.5l-723.7 0Z" fill="#3fb1e3" ecmeta_series_index="0" ecmeta_data_index="27" ecmeta_ssr_type="chart" class="zr2-cls-6"></path>
<path d="M168.6 94.3l728.6 0l0 20.5l-728.6 0Z" fill="#3fb1e3" ecmeta_series_index="0" ecmeta_data_index="28" ecmeta_ssr_type="chart" class="zr2-cls-6"></path>
<path d="M168.6 64.6l730.2 0l0 20.5l-730.2 0Z" fill="#3fb1e3" ecmeta_series_index="0" ecmeta_data_index="29" ecmeta_ssr_type="chart" class="zr2-cls-6"></path>
<text dominant-baseline="central" text-anchor="middle" style="font-size:12px;font-family:sans-serif;" transform="translate(168.56 935.1667)" fill="#333">0</text>
<text dominant-baseline="central" text-anchor="middle" style="font-size:12px;font-family:sans-serif;" transform="translate(226.8251 905.5)" fill="#333">30.92</text>
<text dominant-baseline="central" text-anchor="middle" style="font-size:12px;font-family:sans-serif;" transform="translate(270.4673 875.8333)" fill="#333">54.08</text>
<text dominant-baseline="central" text-anchor="middle" style="font-size:12px;font-family:sans-serif;" transform="translate(279.795 846.1667)" fill="#333">59.03</text>
<text dominant-baseline="central" text-anchor="middle" style="font-size:12px;font-family:sans-serif;" transform="translate(285.0713 816.5)" fill="#333">61.83</text>
<text dominant-baseline="central" text-anchor="middle" style="font-size:12px;font-family:sans-serif;" transform="translate(316.5593 786.8333)" fill="#333">78.54</text>
<text dominant-baseline="central" text-anchor="middle" style="font-size:12px;font-family:sans-serif;" transform="translate(335.3466 757.1667)" fill="#333">88.51</text>
<text dominant-baseline="central" text-anchor="middle" style="font-size:12px;font-family:sans-serif;" transform="translate(358.1853 727.5)" fill="#333">100.63</text>
<text dominant-baseline="central" text-anchor="middle" style="font-size:12px;font-family:sans-serif;" transform="translate(375.0693 697.8333)" fill="#333">109.59</text>
<text dominant-baseline="central" text-anchor="middle" style="font-size:12px;font-family:sans-serif;" transform="translate(377.9901 668.1667)" fill="#333">111.14</text>
<text dominant-baseline="central" text-anchor="middle" style="font-size:12px;font-family:sans-serif;" transform="translate(380.3079 638.5)" fill="#333">112.37</text>
<text dominant-baseline="central" text-anchor="middle" style="font-size:12px;font-family:sans-serif;" transform="translate(403.0901 608.8333)" fill="#333">124.46</text>
<text dominant-baseline="central" text-anchor="middle" style="font-size:12px;font-family:sans-serif;" transform="translate(408.6113 579.1667)" fill="#333">127.39</text>
<text dominant-baseline="central" text-anchor="middle" style="font-size:12px;font-family:sans-serif;" transform="translate(413.3034 549.5)" fill="#333">129.88</text>
<text dominant-baseline="central" text-anchor="middle" style="font-size:12px;font-family:sans-serif;" transform="translate(421.0482 519.8333)" fill="#333">133.99</text>
<text dominant-baseline="central" text-anchor="middle" style="font-size:12px;font-family:sans-serif;" transform="translate(423.7052 490.1667)" fill="#333">135.4</text>
<text dominant-baseline="central" text-anchor="middle" style="font-size:12px;font-family:sans-serif;" transform="translate(451.4056 460.5)" fill="#333">150.1</text>
<text dominant-baseline="central" text-anchor="middle" style="font-size:12px;font-family:sans-serif;" transform="translate(453.0638 430.8333)" fill="#333">150.98</text>
<text dominant-baseline="central" text-anchor="middle" style="font-size:12px;font-family:sans-serif;" transform="translate(455.7397 401.1667)" fill="#333">152.4</text>
<text dominant-baseline="central" text-anchor="middle" style="font-size:12px;font-family:sans-serif;" transform="translate(472.6426 371.5)" fill="#333">161.37</text>
<text dominant-baseline="central" text-anchor="middle" style="font-size:12px;font-family:sans-serif;" transform="translate(484.4388 341.8333)" fill="#333">167.63</text>
<text dominant-baseline="central" text-anchor="middle" style="font-size:12px;font-family:sans-serif;" transform="translate(492.8431 312.1667)" fill="#333">172.09</text>
<text dominant-baseline="central" text-anchor="middle" style="font-size:12px;font-family:sans-serif;" transform="translate(493.2012 282.5)" fill="#333">172.28</text>
<text dominant-baseline="central" text-anchor="middle" style="font-size:12px;font-family:sans-serif;" transform="translate(495.7639 252.8333)" fill="#333">173.64</text>
<text dominant-baseline="central" text-anchor="middle" style="font-size:12px;font-family:sans-serif;" transform="translate(497.7425 223.1667)" fill="#333">174.69</text>
<text dominant-baseline="central" text-anchor="middle" style="font-size:12px;font-family:sans-serif;" transform="translate(507.8616 193.5)" fill="#333">180.06</text>
<text dominant-baseline="central" text-anchor="middle" style="font-size:12px;font-family:sans-serif;" transform="translate(515.9645 163.8333)" fill="#333">184.36</text>
<text dominant-baseline="central" text-anchor="middle" style="font-size:12px;font-family:sans-serif;" transform="translate(530.3988 134.1667)" fill="#333">192.02</text>
<text dominant-baseline="central" text-anchor="middle" style="font-size:12px;font-family:sans-serif;" transform="translate(532.8485 104.5)" fill="#333">193.32</text>
<text dominant-baseline="central" text-anchor="middle" style="font-size:12px;font-family:sans-serif;" transform="translate(533.6588 74.8333)" fill="#333">193.75</text>
<path d="M-192.6 -5l385.3 0l0 28l-385.3 0Z" transform="translate(500 5)" fill="rgb(0,0,0)" fill-opacity="0" stroke="#ccc" stroke-width="0" class="zr2-cls-5"></path>
<text dominant-baseline="central" text-anchor="middle" style="font-size:18px;font-family:sans-serif;font-weight:bold;" xml:space="preserve" y="9" transform="translate(500 5)" fill="#666666">Benchmark Results - Percentage Improvement</text>
<style ><![CDATA[
.zr2-cls-5:hover {
pointer-events:none;
}
.zr2-cls-6:hover {
cursor:pointer;
fill:rgba(69,194,249,1);
}

]]>

</style>
</svg>