<svg width="1000" height="1000" xmlns="http://www.w3.org/2000/svg" xmlns:xlink="http://www.w3.org/1999/xlink" version="1.1" baseProfile="full" viewBox="0 0 1000 1000">
<rect width="1000" height="1000" x="0" y="0" fill="rgb(252,252,252)" fill-opacity="0"></rect>
<path d="M103 950.5L960 950.5" fill="transparent" stroke="#eeeeee" class="zr0-cls-0"></path>
<path d="M103 897.5L960 897.5" fill="transparent" stroke="#eeeeee" class="zr0-cls-0"></path>
<path d="M103 845.5L960 845.5" fill="transparent" stroke="#eeeeee" class="zr0-cls-0"></path>
<path d="M103 793.5L960 793.5" fill="transparent" stroke="#eeeeee" class="zr0-cls-0"></path>
<path d="M103 740.5L960 740.5" fill="transparent" stroke="#eeeeee" class="zr0-cls-0"></path>
<path d="M103 688.5L960 688.5" fill="transparent" stroke="#eeeeee" class="zr0-cls-0"></path>
<path d="M103 636.5L960 636.5" fill="transparent" stroke="#eeeeee" class="zr0-cls-0"></path>
<path d="M103 583.5L960 583.5" fill="transparent" stroke="#eeeeee" class="zr0-cls-0"></path>
<path d="M103 531.5L960 531.5" fill="transparent" stroke="#eeeeee" class="zr0-cls-0"></path>
<path d="M103 479.5L960 479.5" fill="transparent" stroke="#eeeeee" class="zr0-cls-0"></path>
<path d="M103 426.5L960 426.5" fill="transparent" stroke="#eeeeee" class="zr0-cls-0"></path>
<path d="M103 374.5L960 374.5" fill="transparent" stroke="#eeeeee" class="zr0-cls-0"></path>
<path d="M103 322.5L960 322.5" fill="transparent" stroke="#eeeeee" class="zr0-cls-0"></path>
<path d="M103 269.5L960 269.5" fill="transparent" stroke="#eeeeee" class="zr0-cls-0"></path>
<path d="M103 217.5L960 217.5" fill="transparent" stroke="#eeeeee" class="zr0-cls-0"></path>
<path d="M103 164.5L960 164.5" fill="transparent" stroke="#eeeeee" class="zr0-cls-0"></path>
<path d="M103 112.5L960 112.5" fill="transparent" stroke="#eeeeee" class="zr0-cls-0"></path>
<path d="M103 60.5L960 60.5" fill="transparent" stroke="#eeeeee" class="zr0-cls-0"></path>
<path d="M103.5 950L103.5 60" fill="transparent" stroke="#cccccc" stroke-linecap="round" class="zr0-cls-0"></path>
<path d="M103 950.5L960 950.5" fill="transparent" stroke="#cccccc" stroke-linecap="round" class="zr0-cls-0"></path>
<text dominant-baseline="central" text-anchor="end" style="font-size:12px;font-family:sans-serif;" transform="translate(95.04 923.8235)" fill="#999999">14</text>
<text dominant-baseline="central" text-anchor="end" style="font-size:12px;font-family:sans-serif;" transform="translate(95.04 871.4706)" fill="#999999">02</text>
<text dominant-baseline="central" text-anchor="end" style="font-size:12px;font-family:sans-serif;" transform="translate(95.04 819.1176)" fill="#999999">00_baseline</text>
<text dominant-baseline="central" text-anchor="end" style="font-size:12px;font-family:sans-serif;" transform="translate(95.04 766.7647)" fill="#999999">05</text>
<text dominant-baseline="central" text-anchor="end" style="font-size:12px;font-family:sans-serif;" transform="translate(95.04 714.4118)" fill="#999999">06</text>
<text dominant-baseline="central" text-anchor="end" style="font-size:12px;font-family:sans-serif;" transform="translate(95.04 662.0588)" fill="#999999">07</text>
<text dominant-baseline="central" text-anchor="end" style="font-size:12px;font-family:sans-serif;" transform="translate(95.04 609.7059)" fill="#999999">09</text>
<text dominant-baseline="central" text-anchor="end" style="font-size:12px;font-family:sans-serif;" transform="translate(95.04 557.3529)" fill="#999999">15</text>
<text dominant-baseline="central" text-anchor="end" style="font-size:12px;font-family:sans-serif;" transform="translate(95.04 505)" fill="#999999">03</text>
<text dominant-baseline="central" text-anchor="end" style="font-size:12px;font-family:sans-serif;" transform="translate(95.04 452.6471)" fill="#999999">08</text>
<text dominant-baseline="central" text-anchor="end" style="font-size:12px;font-family:sans-serif;" transform="translate(95.04 400.2941)" fill="#999999">11</text>
<text dominant-baseline="central" text-anchor="end" style="font-size:12px;font-family:sans-serif;" transform="translate(95.04 347.9412)" fill="#999999">01</text>
<text dominant-baseline="central" text-anchor="end" style="font-size:12px;font-family:sans-serif;" transform="translate(95.04 295.5882)" fill="#999999">13</text>
<text dominant-baseline="central" text-anchor="end" style="font-size:12px;font-family:sans-serif;" transform="translate(95.04 243.2353)" fill="#999999">04</text>
<text dominant-baseline="central" text-anchor="end" style="font-size:12px;font-family:sans-serif;" transform="translate(95.04 190.8824)" fill="#999999">10</text>
<text dominant-baseline="central" text-anchor="end" style="font-size:12px;font-family:sans-serif;" transform="translate(95.04 138.5294)" fill="#999999">16</text>
<text dominant-baseline="central" text-anchor="end" style="font-size:12px;font-family:sans-serif;" transform="translate(95.04 86.1765)" fill="#999999">12</text>
<text dominant-baseline="central" text-anchor="middle" style="font-size:12px;font-family:sans-serif;" y="6" transform="translate(103.04 958)" fill="#999999">0</text>
<text dominant-baseline="central" text-anchor="middle" style="font-size:12px;font-family:sans-serif;" y="6" transform="translate(317.28 958)" fill="#999999">200</text>
<text dominant-baseline="central" text-anchor="middle" style="font-size:12px;font-family:sans-serif;" y="6" transform="translate(531.52 958)" fill="#999999">400</text>
<text dominant-baseline="central" text-anchor="middle" style="font-size:12px;font-family:sans-serif;" y="6" transform="translate(745.76 958)" fill="#999999">600</text>
<text dominant-baseline="central" text-anchor="middle" style="font-size:12px;font-family:sans-serif;" y="6" transform="translate(960 958)" fill="#999999">800</text>
<path d="M103 905.8l396.3 0l0 36.1l-396.3 0Z" fill="#3fb1e3" ecmeta_series_index="0" ecmeta_data_index="0" ecmeta_ssr_type="chart" class="zr0-cls-1"></path>
<path d="M103 853.4l448.8 0l0 36.1l-448.8 0Z" fill="#3fb1e3" ecmeta_series_index="0" ecmeta_data_index="1" ecmeta_ssr_type="chart" class="zr0-cls-1"></path>
<path d="M103 801.1l500.3 0l0 36.1l-500.3 0Z" fill="#3fb1e3" ecmeta_series_index="0" ecmeta_data_index="2" ecmeta_ssr_type="chart" class="zr0-cls-1"></path>
<path d="M103 748.7l515.2 0l0 36.1l-515.2 0Z" fill="#3fb1e3" ecmeta_series_index="0" ecmeta_data_index="3" ecmeta_ssr_type="chart" class="zr0-cls-1"></path>
<path d="M103 696.3l549.5 0l0 36.1l-549.5 0Z" fill="#3fb1e3" ecmeta_series_index="0" ecmeta_data_index="4" ecmeta_ssr_type="chart" class="zr0-cls-1"></path>
<path d="M103 644l551.7 0l0 36.1l-551.7 0Z" fill="#3fb1e3" ecmeta_series_index="0" ecmeta_data_index="5" ecmeta_ssr_type="chart" class="zr0-cls-1"></path>
<path d="M103 591.6l597.7 0l0 36.1l-597.7 0Z" fill="#3fb1e3" ecmeta_series_index="0" ecmeta_data_index="6" ecmeta_ssr_type="chart" class="zr0-cls-1"></path>
<path d="M103 539.3l604.2 0l0 36.1l-604.2 0Z" fill="#3fb1e3" ecmeta_series_index="0" ecmeta_data_index="7" ecmeta_ssr_type="chart" class="zr0-cls-1"></path>
<path d="M103 486.9l626.7 0l0 36.1l-626.7 0Z" fill="#3fb1e3" ecmeta_series_index="0" ecmeta_data_index="8" ecmeta_ssr_type="chart" class="zr0-cls-1"></path>
<path d="M103 434.6l652.4 0l0 36.1l-652.4 0Z" fill="#3fb1e3" ecmeta_series_index="0" ecmeta_data_index="9" ecmeta_ssr_type="chart" class="zr0-cls-1"></path>
<path d="M103 382.2l672.7 0l0 36.1l-672.7 0Z" fill="#3fb1e3" ecmeta_series_index="0" ecmeta_data_index="10" ecmeta_ssr_type="chart" class="zr0-cls-1"></path>
<path d="M103 329.9l680.2 0l0 36.1l-680.2 0Z" fill="#3fb1e3" ecmeta_series_index="0" ecmeta_data_index="11" ecmeta_ssr_type="chart" class="zr0-cls-1"></path>
<path d="M103 277.5l746.6 0l0 36.1l-746.6 0Z" fill="#3fb1e3" ecmeta_series_index="0" ecmeta_data_index="12" ecmeta_ssr_type="chart" class="zr0-cls-1"></path>
<path d="M103 225.2l750.9 0l0 36.1l-750.9 0Z" fill="#3fb1e3" ecmeta_series_index="0" ecmeta_data_index="13" ecmeta_ssr_type="chart" class="zr0-cls-1"></path>
<path d="M103 172.8l759.5 0l0 36.1l-759.5 0Z" fill="#3fb1e3" ecmeta_series_index="0" ecmeta_data_index="14" ecmeta_ssr_type="chart" class="zr0-cls-1"></path>
<path d="M103 120.5l806.6 0l0 36.1l-806.6 0Z" fill="#3fb1e3" ecmeta_series_index="0" ecmeta_data_index="15" ecmeta_ssr_type="chart" class="zr0-cls-1"></path>
<path d="M103 68.1l842 0l0 36.1l-842 0Z" fill="#3fb1e3" ecmeta_series_index="0" ecmeta_data_index="16" ecmeta_ssr_type="chart" class="zr0-cls-1"></path>
<text dominant-baseline="central" text-anchor="middle" style="font-size:12px;font-family:sans-serif;" transform="translate(301.212 923.8235)" fill="#333">370</text>
<text dominant-baseline="central" text-anchor="middle" style="font-size:12px;font-family:sans-serif;" transform="translate(327.4564 871.4706)" fill="#333">419</text>
<text dominant-baseline="central" text-anchor="middle" style="font-size:12px;font-family:sans-serif;" transform="translate(353.1652 819.1176)" fill="#333">467</text>
<text dominant-baseline="central" text-anchor="middle" style="font-size:12px;font-family:sans-serif;" transform="translate(360.6636 766.7647)" fill="#333">481</text>
<text dominant-baseline="central" text-anchor="middle" style="font-size:12px;font-family:sans-serif;" transform="translate(377.8028 714.4118)" fill="#333">513</text>
<text dominant-baseline="central" text-anchor="middle" style="font-size:12px;font-family:sans-serif;" transform="translate(378.874 662.0588)" fill="#333">515</text>
<text dominant-baseline="central" text-anchor="middle" style="font-size:12px;font-family:sans-serif;" transform="translate(401.9048 609.7059)" fill="#333">558</text>
<text dominant-baseline="central" text-anchor="middle" style="font-size:12px;font-family:sans-serif;" transform="translate(405.1184 557.3529)" fill="#333">564</text>
<text dominant-baseline="central" text-anchor="middle" style="font-size:12px;font-family:sans-serif;" transform="translate(416.366 505)" fill="#333">585</text>
<text dominant-baseline="central" text-anchor="middle" style="font-size:12px;font-family:sans-serif;" transform="translate(429.2204 452.6471)" fill="#333">609</text>
<text dominant-baseline="central" text-anchor="middle" style="font-size:12px;font-family:sans-serif;" transform="translate(439.3968 400.2941)" fill="#333">628</text>
<text dominant-baseline="central" text-anchor="middle" style="font-size:12px;font-family:sans-serif;" transform="translate(443.146 347.9412)" fill="#333">635</text>
<text dominant-baseline="central" text-anchor="middle" style="font-size:12px;font-family:sans-serif;" transform="translate(476.3532 295.5882)" fill="#333">697</text>
<text dominant-baseline="central" text-anchor="middle" style="font-size:12px;font-family:sans-serif;" transform="translate(478.4956 243.2353)" fill="#333">701</text>
<text dominant-baseline="central" text-anchor="middle" style="font-size:12px;font-family:sans-serif;" transform="translate(482.7804 190.8824)" fill="#333">709</text>
<text dominant-baseline="central" text-anchor="middle" style="font-size:12px;font-family:sans-serif;" transform="translate(506.3468 138.5294)" fill="#333">753</text>
<text dominant-baseline="central" text-anchor="middle" style="font-size:12px;font-family:sans-serif;" transform="translate(524.0216 86.1765)" fill="#333">786</text>
<path d="M-183.1 -5l366.2 0l0 28l-366.2 0Z" transform="translate(500 5)" fill="rgb(0,0,0)" fill-opacity="0" stroke="#ccc" stroke-width="0" class="zr0-cls-0"></path>
<text dominant-baseline="central" text-anchor="middle" style="font-size:18px;font-family:sans-serif;font-weight:bold;" xml:space="preserve" y="9" transform="translate(500 5)" fill="#666666">Benchmark Results - Average Effective UPS</text>
<style ><![CDATA[
.zr0-cls-0:hover {
pointer-events:none;
}
.zr0-cls-1:hover {
cursor:pointer;
fill:rgba(69,194,249,1);
}

]]>

</style>
</svg>