<svg width="1000" height="1000" xmlns="http://www.w3.org/2000/svg" xmlns:xlink="http://www.w3.org/1999/xlink" version="1.1" baseProfile="full" viewBox="0 0 1000 1000">
<rect width="1000" height="1000" x="0" y="0" fill="rgb(252,252,252)" fill-opacity="0"></rect>
<path d="M138.5 60L138.5 862.5" fill="transparent" stroke="#eeeeee" class="zr1-cls-2"></path>
<path d="M183.5 60L183.5 862.5" fill="transparent" stroke="#eeeeee" class="zr1-cls-2"></path>
<path d="M228.5 60L228.5 862.5" fill="transparent" stroke="#eeeeee" class="zr1-cls-2"></path>
<path d="M272.5 60L272.5 862.5" fill="transparent" stroke="#eeeeee" class="zr1-cls-2"></path>
<path d="M317.5 60L317.5 862.5" fill="transparent" stroke="#eeeeee" class="zr1-cls-2"></path>
<path d="M362.5 60L362.5 862.5" fill="transparent" stroke="#eeeeee" class="zr1-cls-2"></path>
<path d="M407.5 60L407.5 862.5" fill="transparent" stroke="#eeeeee" class="zr1-cls-2"></path>
<path d="M452.5 60L452.5 862.5" fill="transparent" stroke="#eeeeee" class="zr1-cls-2"></path>
<path d="M496.5 60L496.5 862.5" fill="transparent" stroke="#eeeeee" class="zr1-cls-2"></path>
<path d="M541.5 60L541.5 862.5" fill="transparent" stroke="#eeeeee" class="zr1-cls-2"></path>
<path d="M586.5 60L586.5 862.5" fill="transparent" stroke="#eeeeee" class="zr1-cls-2"></path>
<path d="M631.5 60L631.5 862.5" fill="transparent" stroke="#eeeeee" class="zr1-cls-2"></path>
<path d="M676.5 60L676.5 862.5" fill="transparent" stroke="#eeeeee" class="zr1-cls-2"></path>
<path d="M721.5 60L721.5 862.5" fill="transparent" stroke="#eeeeee" class="zr1-cls-2"></path>
<path d="M765.5 60L765.5 862.5" fill="transparent" stroke="#eeeeee" class="zr1-cls-2"></path>
<path d="M810.5 60L810.5 862.5" fill="transparent" stroke="#eeeeee" class="zr1-cls-2"></path>
<path d="M855.5 60L855.5 862.5" fill="transparent" stroke="#eeeeee" class="zr1-cls-2"></path>
<path d="M900.5 60L900.5 862.5" fill="transparent" stroke="#eeeeee" class="zr1-cls-2"></path>
<path d="M138.5 862.5L138.5 60" fill="transparent" stroke="#cccccc" stroke-linecap="round" class="zr1-cls-2"></path>
<text dominant-baseline="central" text-anchor="middle" style="font-size:12px;font-family:sans-serif;" y="-6" transform="translate(138.24 45)" fill="#cccccc">UPS</text>
<path d="M138.2 862.5L900 862.5" fill="transparent" stroke="#cccccc" stroke-linecap="round" class="zr1-cls-2"></path>
<text dominant-baseline="central" text-anchor="end" style="font-size:12px;font-family:sans-serif;" transform="translate(130.24 862.5245)" fill="#999999">348</text>
<text dominant-baseline="central" text-anchor="end" style="font-size:12px;font-family:sans-serif;" transform="translate(130.24 702.0196)" fill="#999999">444.2</text>
<text dominant-baseline="central" text-anchor="end" style="font-size:12px;font-family:sans-serif;" transform="translate(130.24 541.5147)" fill="#999999">540.4</text>
<text dominant-baseline="central" text-anchor="end" style="font-size:12px;font-family:sans-serif;" transform="translate(130.24 381.0098)" fill="#999999">636.6</text>
<text dominant-baseline="central" text-anchor="end" style="font-size:12px;font-family:sans-serif;" transform="translate(130.24 220.5049)" fill="#999999">732.8</text>
<text dominant-baseline="central" text-anchor="end" style="font-size:12px;font-family:sans-serif;" transform="translate(130.24 60)" fill="#999999">829</text>
<text dominant-baseline="central" text-anchor="end" style="font-size:12px;font-family:sans-serif;" transform="matrix(0.707,-0.707,0.707,0.707,160.6447,870.5245)" fill="#999999">14</text>
<text dominant-baseline="central" text-anchor="end" style="font-size:12px;font-family:sans-serif;" transform="matrix(0.707,-0.707,0.707,0.707,205.4541,870.5245)" fill="#999999">02</text>
<text dominant-baseline="central" text-anchor="end" style="font-size:12px;font-family:sans-serif;" transform="matrix(0.707,-0.707,0.707,0.707,250.2635,870.5245)" fill="#999999">00_baseline</text>
<text dominant-baseline="central" text-anchor="end" style="font-size:12px;font-family:sans-serif;" transform="matrix(0.707,-0.707,0.707,0.707,295.0729,870.5245)" fill="#999999">05</text>
<text dominant-baseline="central" text-anchor="end" style="font-size:12px;font-family:sans-serif;" transform="matrix(0.707,-0.707,0.707,0.707,339.8824,870.5245)" fill="#999999">06</text>
<text dominant-baseline="central" text-anchor="end" style="font-size:12px;font-family:sans-serif;" transform="matrix(0.707,-0.707,0.707,0.707,384.6918,870.5245)" fill="#999999">07</text>
<text dominant-baseline="central" text-anchor="end" style="font-size:12px;font-family:sans-serif;" transform="matrix(0.707,-0.707,0.707,0.707,429.5012,870.5245)" fill="#999999">09</text>
<text dominant-baseline="central" text-anchor="end" style="font-size:12px;font-family:sans-serif;" transform="matrix(0.707,-0.707,0.707,0.707,474.3106,870.5245)" fill="#999999">15</text>
<text dominant-baseline="central" text-anchor="end" style="font-size:12px;font-family:sans-serif;" transform="matrix(0.707,-0.707,0.707,0.707,519.12,870.5245)" fill="#999999">03</text>
<text dominant-baseline="central" text-anchor="end" style="font-size:12px;font-family:sans-serif;" transform="matrix(0.707,-0.707,0.707,0.707,563.9294,870.5245)" fill="#999999">08</text>
<text dominant-baseline="central" text-anchor="end" style="font-size:12px;font-family:sans-serif;" transform="matrix(0.707,-0.707,0.707,0.707,608.7388,870.5245)" fill="#999999">11</text>
<text dominant-baseline="central" text-anchor="end" style="font-size:12px;font-family:sans-serif;" transform="matrix(0.707,-0.707,0.707,0.707,653.5482,870.5245)" fill="#999999">01</text>
<text dominant-baseline="central" text-anchor="end" style="font-size:12px;font-family:sans-serif;" transform="matrix(0.707,-0.707,0.707,0.707,698.3576,870.5245)" fill="#999999">13</text>
<text dominant-baseline="central" text-anchor="end" style="font-size:12px;font-family:sans-serif;" transform="matrix(0.707,-0.707,0.707,0.707,743.1671,870.5245)" fill="#999999">04</text>
<text dominant-baseline="central" text-anchor="end" style="font-size:12px;font-family:sans-serif;" transform="matrix(0.707,-0.707,0.707,0.707,787.9765,870.5245)" fill="#999999">10</text>
<text dominant-baseline="central" text-anchor="end" style="font-size:12px;font-family:sans-serif;" transform="matrix(0.707,-0.707,0.707,0.707,832.7859,870.5245)" fill="#999999">16</text>
<text dominant-baseline="central" text-anchor="end" style="font-size:12px;font-family:sans-serif;" transform="matrix(0.707,-0.707,0.707,0.707,877.5953,870.5245)" fill="#999999">12</text>
<path d="M143.7 831.4L177.6 831.4L177.6 823.3L143.7 823.3ZM160.6 831.4M160.6 823.3M143.7 831.4L177.6 831.4M143.7 823.3L177.6 823.3M143.7 824.7L177.6 824.7" fill="#fff" stroke="#3FB1E3" ecmeta_series_index="0" ecmeta_data_index="0" ecmeta_ssr_type="chart" class="zr1-cls-3"></path>
<path d="M188.5 757.3L222.4 757.3L222.4 729.8L188.5 729.8ZM205.5 757.3M205.5 729.8M188.5 757.3L222.4 757.3M188.5 729.8L222.4 729.8M188.5 742.9L222.4 742.9" fill="#fff" stroke="#3FB1E3" ecmeta_series_index="0" ecmeta_data_index="1" ecmeta_ssr_type="chart" class="zr1-cls-3"></path>
<path d="M233.3 696.1L267.2 696.1L267.2 643.9L233.3 643.9ZM250.3 696.1M250.3 643.9M233.3 696.1L267.2 696.1M233.3 643.9L267.2 643.9M233.3 653.4L267.2 653.4" fill="#fff" stroke="#3FB1E3" ecmeta_series_index="0" ecmeta_data_index="2" ecmeta_ssr_type="chart" class="zr1-cls-3"></path>
<path d="M278.1 653.4L312 653.4L312 631.1L278.1 631.1ZM295.1 653.4M295.1 631.1M278.1 653.4L312 653.4M278.1 631.1L312 631.1M278.1 635.3L312 635.3" fill="#fff" stroke="#3FB1E3" ecmeta_series_index="0" ecmeta_data_index="3" ecmeta_ssr_type="chart" class="zr1-cls-3"></path>
<path d="M323 595.9L356.8 595.9L356.8 579.6L323 579.6ZM339.9 595.9M339.9 579.6M323 595.9L356.8 595.9M323 579.6L356.8 579.6M323 584.4L356.8 584.4" fill="#fff" stroke="#3FB1E3" ecmeta_series_index="0" ecmeta_data_index="4" ecmeta_ssr_type="chart" class="zr1-cls-3"></path>
<path d="M367.8 588.7L401.6 588.7L401.6 577.3L367.8 577.3ZM384.7 588.7M384.7 577.3M367.8 588.7L401.6 588.7M367.8 577.3L401.6 577.3M367.8 584.6L401.6 584.6" fill="#fff" stroke="#3FB1E3" ecmeta_series_index="0" ecmeta_data_index="5" ecmeta_ssr_type="chart" class="zr1-cls-3"></path>
<path d="M412.6 515L446.4 515L446.4 509.3L412.6 509.3ZM429.5 515M429.5 509.3M412.6 515L446.4 515M412.6 509.3L446.4 509.3M412.6 510.9L446.4 510.9" fill="#fff" stroke="#3FB1E3" ecmeta_series_index="0" ecmeta_data_index="6" ecmeta_ssr_type="chart" class="zr1-cls-3"></path>
<path d="M457.4 507.7L491.2 507.7L491.2 499.4L457.4 499.4ZM474.3 507.7M474.3 499.4M457.4 507.7L491.2 507.7M457.4 499.4L491.2 499.4M457.4 500.4L491.2 500.4" fill="#fff" stroke="#3FB1E3" ecmeta_series_index="0" ecmeta_data_index="7" ecmeta_ssr_type="chart" class="zr1-cls-3"></path>
<path d="M502.2 484.2L536 484.2L536 436.6L502.2 436.6ZM519.1 484.2M519.1 436.6M502.2 484.2L536 484.2M502.2 436.6L536 436.6M502.2 478.3L536 478.3" fill="#fff" stroke="#3FB1E3" ecmeta_series_index="0" ecmeta_data_index="8" ecmeta_ssr_type="chart" class="zr1-cls-3"></path>
<path d="M547 436.5L580.9 436.5L580.9 416.2L547 416.2ZM563.9 436.5M563.9 416.2M547 436.5L580.9 436.5M547 416.2L580.9 416.2M547 430.5L580.9 430.5" fill="#fff" stroke="#3FB1E3" ecmeta_series_index="0" ecmeta_data_index="9" ecmeta_ssr_type="chart" class="zr1-cls-3"></path>
<path d="M591.8 403.8L625.7 403.8L625.7 382.5L591.8 382.5ZM608.7 403.8M608.7 382.5M591.8 403.8L625.7 403.8M591.8 382.5L625.7 382.5M591.8 400.5L625.7 400.5" fill="#fff" stroke="#3FB1E3" ecmeta_series_index="0" ecmeta_data_index="10" ecmeta_ssr_type="chart" class="zr1-cls-3"></path>
<path d="M636.6 394.2L670.5 394.2L670.5 374.9L636.6 374.9ZM653.5 394.2M653.5 374.9M636.6 394.2L670.5 394.2M636.6 374.9L670.5 374.9M636.6 383.9L670.5 383.9" fill="#fff" stroke="#3FB1E3" ecmeta_series_index="0" ecmeta_data_index="11" ecmeta_ssr_type="chart" class="zr1-cls-3"></path>
<path d="M681.4 284.7L715.3 284.7L715.3 277.7L681.4 277.7ZM698.4 284.7M698.4 277.7M681.4 284.7L715.3 284.7M681.4 277.7L715.3 277.7M681.4 279.1L715.3 279.1" fill="#fff" stroke="#3FB1E3" ecmeta_series_index="0" ecmeta_data_index="12" ecmeta_ssr_type="chart" class="zr1-cls-3"></path>
<path d="M726.2 303.2L760.1 303.2L760.1 229.1L726.2 229.1ZM743.2 303.2M743.2 229.1M726.2 303.2L760.1 303.2M726.2 229.1L760.1 229.1M726.2 286.7L760.1 286.7" fill="#fff" stroke="#3FB1E3" ecmeta_series_index="0" ecmeta_data_index="13" ecmeta_ssr_type="chart" class="zr1-cls-3"></path>
<path d="M771.1 272.3L804.9 272.3L804.9 250.1L771.1 250.1ZM788 272.3M788 250.1M771.1 272.3L804.9 272.3M771.1 250.1L804.9 250.1M771.1 258.6L804.9 258.6" fill="#fff" stroke="#3FB1E3" ecmeta_series_index="0" ecmeta_data_index="14" ecmeta_ssr_type="chart" class="zr1-cls-3"></path>
<path d="M815.9 193.6L849.7 193.6L849.7 173.6L815.9 173.6ZM832.8 193.6M832.8 173.6M815.9 193.6L849.7 193.6M815.9 173.6L849.7 173.6M815.9 191.5L849.7 191.5" fill="#fff" stroke="#3FB1E3" ecmeta_series_index="0" ecmeta_data_index="15" ecmeta_ssr_type="chart" class="zr1-cls-3"></path>
<path d="M860.7 137.6L894.5 137.6L894.5 126.5L860.7 126.5ZM877.6 137.6M877.6 126.5M860.7 137.6L894.5 137.6M860.7 126.5L894.5 126.5M860.7 132L894.5 132" fill="#fff" stroke="#3FB1E3" ecmeta_series_index="0" ecmeta_data_index="16" ecmeta_ssr_type="chart" class="zr1-cls-3"></path>
<path d="M-194.5 -5l389.1 0l0 28l-389.1 0Z" transform="translate(500 5)" fill="rgb(0,0,0)" fill-opacity="0" stroke="#ccc" stroke-width="0" class="zr1-cls-2"></path>
<text dominant-baseline="central" text-anchor="middle" style="font-size:18px;font-family:sans-serif;font-weight:bold;" xml:space="preserve" y="9" transform="translate(500 5)" fill="#666666">Benchmark Results - Effective UPS Distribution</text>
<style ><![CDATA[
.zr1-cls-2:hover {
pointer-events:none;
}
.zr1-cls-3:hover {
cursor:pointer;
fill:rgba(255,255,255,1);
stroke-width:2;
}

]]>

</style>
</svg>