<svg width="1000" height="1000" xmlns="http://www.w3.org/2000/svg" xmlns:xlink="http://www.w3.org/1999/xlink" version="1.1" baseProfile="full" viewBox="0 0 1000 1000">
<rect width="1000" height="1000" x="0" y="0" fill="rgb(252,252,252)" fill-opacity="0"></rect>
<path d="M138.5 60L138.5 737.5" fill="transparent" stroke="#eeeeee" class="zr1-cls-2"></path>
<path d="M247.5 60L247.5 737.5" fill="transparent" stroke="#eeeeee" class="zr1-cls-2"></path>
<path d="M356.5 60L356.5 737.5" fill="transparent" stroke="#eeeeee" class="zr1-cls-2"></path>
<path d="M464.5 60L464.5 737.5" fill="transparent" stroke="#eeeeee" class="zr1-cls-2"></path>
<path d="M573.5 60L573.5 737.5" fill="transparent" stroke="#eeeeee" class="zr1-cls-2"></path>
<path d="M682.5 60L682.5 737.5" fill="transparent" stroke="#eeeeee" class="zr1-cls-2"></path>
<path d="M791.5 60L791.5 737.5" fill="transparent" stroke="#eeeeee" class="zr1-cls-2"></path>
<path d="M900.5 60L900.5 737.5" fill="transparent" stroke="#eeeeee" class="zr1-cls-2"></path>
<path d="M138.5 737.5L138.5 60" fill="transparent" stroke="#cccccc" stroke-linecap="round" class="zr1-cls-2"></path>
<text dominant-baseline="central" text-anchor="middle" style="font-size:12px;font-family:sans-serif;" y="-6" transform="translate(138.24 45)" fill="#cccccc">UPS</text>
<path d="M138.2 737.5L900 737.5" fill="transparent" stroke="#cccccc" stroke-linecap="round" class="zr1-cls-2"></path>
<text dominant-baseline="central" text-anchor="end" style="font-size:12px;font-family:sans-serif;" transform="translate(130.24 737.5363)" fill="#999999">271</text>
<text dominant-baseline="central" text-anchor="end" style="font-size:12px;font-family:sans-serif;" transform="translate(130.24 602.029)" fill="#999999">297.6</text>
<text dominant-baseline="central" text-anchor="end" style="font-size:12px;font-family:sans-serif;" transform="translate(130.24 466.5218)" fill="#999999">324.2</text>
<text dominant-baseline="central" text-anchor="end" style="font-size:12px;font-family:sans-serif;" transform="translate(130.24 331.0145)" fill="#999999">350.8</text>
<text dominant-baseline="central" text-anchor="end" style="font-size:12px;font-family:sans-serif;" transform="translate(130.24 195.5073)" fill="#999999">377.4</text>
<text dominant-baseline="central" text-anchor="end" style="font-size:12px;font-family:sans-serif;" transform="translate(130.24 60)" fill="#999999">404</text>
<text dominant-baseline="central" text-anchor="end" style="font-size:12px;font-family:sans-serif;" transform="matrix(0.707,-0.707,0.707,0.707,192.6514,745.5363)" fill="#999999">labs_research_prod_no_clock_stack_16</text>
<text dominant-baseline="central" text-anchor="end" style="font-size:12px;font-family:sans-serif;" transform="matrix(0.707,-0.707,0.707,0.707,301.4743,745.5363)" fill="#999999">labs_research_prod_lead_follow_multinet</text>
<text dominant-baseline="central" text-anchor="end" style="font-size:12px;font-family:sans-serif;" transform="matrix(0.707,-0.707,0.707,0.707,410.2971,745.5363)" fill="#999999">labs_research_prod_lead_follow_stack_4_12</text>
<text dominant-baseline="central" text-anchor="end" style="font-size:12px;font-family:sans-serif;" transform="matrix(0.707,-0.707,0.707,0.707,519.12,745.5363)" fill="#999999">labs_research_prod_lead_follow_stack_4_8</text>
<text dominant-baseline="central" text-anchor="end" style="font-size:12px;font-family:sans-serif;" transform="matrix(0.707,-0.707,0.707,0.707,627.9429,745.5363)" fill="#999999">labs_research_prod_clocked_bulk</text>
<text dominant-baseline="central" text-anchor="end" style="font-size:12px;font-family:sans-serif;" transform="matrix(0.707,-0.707,0.707,0.707,736.7657,745.5363)" fill="#999999">labs_research_prod_lead_follow_stack_auto</text>
<text dominant-baseline="central" text-anchor="end" style="font-size:12px;font-family:sans-serif;" transform="matrix(0.707,-0.707,0.707,0.707,845.5886,745.5363)" fill="#999999">labs_research_prod_lead_follow_bulk</text>
<path d="M167.7 641.6L217.7 641.6L217.7 634L167.7 634ZM192.7 641.6M192.7 634M167.7 641.6L217.7 641.6M167.7 634L217.7 634M167.7 637.1L217.7 637.1" fill="#fff" stroke="#3FB1E3" ecmeta_series_index="0" ecmeta_data_index="0" ecmeta_ssr_type="chart" class="zr1-cls-3"></path>
<path d="M276.5 633.7L326.5 633.7L326.5 615L276.5 615ZM301.5 639.8L301.5 633.7M301.5 605.5L301.5 615M276.5 639.8L326.5 639.8M276.5 605.5L326.5 605.5M276.5 620L326.5 620" fill="#fff" stroke="#3FB1E3" ecmeta_series_index="0" ecmeta_data_index="1" ecmeta_ssr_type="chart" class="zr1-cls-3"></path>
<path d="M385.3 422.6L435.3 422.6L435.3 378.3L385.3 378.3ZM410.3 426.3L410.3 422.6M410.3 371.5L410.3 378.3M385.3 426.3L435.3 426.3M385.3 371.5L435.3 371.5M385.3 405.3L435.3 405.3" fill="#fff" stroke="#3FB1E3" ecmeta_series_index="0" ecmeta_data_index="2" ecmeta_ssr_type="chart" class="zr1-cls-3"></path>
<path d="M494.1 373.4L544.1 373.4L544.1 349.6L494.1 349.6ZM519.1 373.4M519.1 343.5L519.1 349.6M494.1 373.4L544.1 373.4M494.1 343.5L544.1 343.5M494.1 355.8L544.1 355.8" fill="#fff" stroke="#3FB1E3" ecmeta_series_index="0" ecmeta_data_index="3" ecmeta_ssr_type="chart" class="zr1-cls-3"></path>
<path d="M602.9 308.8L652.9 308.8L652.9 299.1L602.9 299.1ZM627.9 323.2L627.9 308.8M627.9 297L627.9 299.1M602.9 323.2L652.9 323.2M602.9 297L652.9 297M602.9 304.8L652.9 304.8" fill="#fff" stroke="#3FB1E3" ecmeta_series_index="0" ecmeta_data_index="4" ecmeta_ssr_type="chart" class="zr1-cls-3"></path>
<path d="M711.8 282.1L761.8 282.1L761.8 273.3L711.8 273.3ZM736.8 282.1M736.8 271.6L736.8 273.3M711.8 282.1L761.8 282.1M711.8 271.6L761.8 271.6M711.8 273.9L761.8 273.9" fill="#fff" stroke="#3FB1E3" ecmeta_series_index="0" ecmeta_data_index="5" ecmeta_ssr_type="chart" class="zr1-cls-3"></path>
<path d="M820.6 175.1L870.6 175.1L870.6 165.1L820.6 165.1ZM845.6 187.8L845.6 175.1M845.6 159.9L845.6 165.1M820.6 187.8L870.6 187.8M820.6 159.9L870.6 159.9M820.6 168.5L870.6 168.5" fill="#fff" stroke="#3FB1E3" ecmeta_series_index="0" ecmeta_data_index="6" ecmeta_ssr_type="chart" class="zr1-cls-3"></path>
<path d="M1 0A1 1 0 1 1 1 -0.1A1 1 0 0 1 1 0" transform="matrix(5,0,0,5,192.6514,663.5309)" fill="#3fb1e3" fill-opacity="0.8" stroke="#ccc" stroke-width="0" stroke-opacity="0.8" ecmeta_series_index="1" ecmeta_data_index="0" ecmeta_ssr_type="chart" class="zr1-cls-4"></path>
<path d="M1 0A1 1 0 1 1 1 -0.1A1 1 0 0 1 1 0" transform="matrix(5,0,0,5,192.6514,619.4235)" fill="#3fb1e3" fill-opacity="0.8" stroke="#ccc" stroke-width="0" stroke-opacity="0.8" ecmeta_series_index="1" ecmeta_data_index="1" ecmeta_ssr_type="chart" class="zr1-cls-4"></path>
<path d="M1 0A1 1 0 1 1 1 -0.1A1 1 0 0 1 1 0" transform="matrix(5,0,0,5,519.12,435.6733)" fill="#3fb1e3" fill-opacity="0.8" stroke="#ccc" stroke-width="0" stroke-opacity="0.8" ecmeta_series_index="1" ecmeta_data_index="2" ecmeta_ssr_type="chart" class="zr1-cls-4"></path>
<path d="M1 0A1 1 0 1 1 1 -0.1A1 1 0 0 1 1 0" transform="matrix(5,0,0,5,736.7657,310.278)" fill="#3fb1e3" fill-opacity="0.8" stroke="#ccc" stroke-width="0" stroke-opacity="0.8" ecmeta_series_index="1" ecmeta_data_index="3" ecmeta_ssr_type="chart" class="zr1-cls-4"></path>
<path d="M-194.5 -5l389.1 0l0 28l-389.1 0Z" transform="translate(500 5)" fill="rgb(0,0,0)" fill-opacity="0" stroke="#ccc" stroke-width="0" class="zr1-cls-2"></path>
<text dominant-baseline="central" text-anchor="middle" style="font-size:18px;font-family:sans-serif;font-weight:bold;" xml:space="preserve" y="9" transform="translate(500 5)" fill="#666666">Benchmark Results - Effective UPS Distribution</text>
<style ><![CDATA[
.zr1-cls-2:hover {
pointer-events:none;
}
.zr1-cls-3:hover {
cursor:pointer;
fill:rgba(255,255,255,1);
stroke-width:2;
}
.zr1-cls-4:hover {
cursor:pointer;
fill:rgba(69,194,249,1);
}

]]>

</style>
</svg>