<svg width="1000" height="1000" xmlns="http://www.w3.org/2000/svg" xmlns:xlink="http://www.w3.org/1999/xlink" version="1.1" baseProfile="full" viewBox="0 0 1000 1000">
<rect width="1000" height="1000" x="0" y="0" fill="rgb(252,252,252)" fill-opacity="0"></rect>
<path d="M138.5 60L138.5 786.7" fill="transparent" stroke="#eeeeee" class="zr7-cls-20"></path>
<path d="M392.5 60L392.5 786.7" fill="transparent" stroke="#eeeeee" class="zr7-cls-20"></path>
<path d="M646.5 60L646.5 786.7" fill="transparent" stroke="#eeeeee" class="zr7-cls-20"></path>
<path d="M900.5 60L900.5 786.7" fill="transparent" stroke="#eeeeee" class="zr7-cls-20"></path>
<path d="M138.5 786.7L138.5 60" fill="transparent" stroke="#cccccc" stroke-linecap="round" class="zr7-cls-20"></path>
<text dominant-baseline="central" text-anchor="middle" style="font-size:12px;font-family:sans-serif;" y="-6" transform="translate(138.24 45)" fill="#cccccc">UPS</text>
<path d="M138.2 786.5L900 786.5" fill="transparent" stroke="#cccccc" stroke-linecap="round" class="zr7-cls-20"></path>
<text dominant-baseline="central" text-anchor="end" style="font-size:12px;font-family:sans-serif;" transform="translate(130.24 786.6661)" fill="#999999">1,996</text>
<text dominant-baseline="central" text-anchor="end" style="font-size:12px;font-family:sans-serif;" transform="translate(130.24 641.3329)" fill="#999999">3,297</text>
<text dominant-baseline="central" text-anchor="end" style="font-size:12px;font-family:sans-serif;" transform="translate(130.24 495.9996)" fill="#999999">4,598</text>
<text dominant-baseline="central" text-anchor="end" style="font-size:12px;font-family:sans-serif;" transform="translate(130.24 350.6664)" fill="#999999">5,899</text>
<text dominant-baseline="central" text-anchor="end" style="font-size:12px;font-family:sans-serif;" transform="translate(130.24 205.3332)" fill="#999999">7,200</text>
<text dominant-baseline="central" text-anchor="end" style="font-size:12px;font-family:sans-serif;" transform="translate(130.24 60)" fill="#999999">8,501</text>
<text dominant-baseline="central" text-anchor="end" style="font-size:12px;font-family:sans-serif;" transform="matrix(0.707,-0.707,0.707,0.707,265.2,794.6661)" fill="#999999">pollution_no_entity</text>
<text dominant-baseline="central" text-anchor="end" style="font-size:12px;font-family:sans-serif;" transform="matrix(0.707,-0.707,0.707,0.707,519.12,794.6661)" fill="#999999">pollution_no_entity_no_gleba</text>
<text dominant-baseline="central" text-anchor="end" style="font-size:12px;font-family:sans-serif;" transform="matrix(0.707,-0.707,0.707,0.707,773.04,794.6661)" fill="#999999">pollution_no_entity_no_pollution</text>
<path d="M240.2 774.9L290.2 774.9L290.2 771.9L240.2 771.9ZM265.2 774.9M265.2 771.9M240.2 774.9L290.2 774.9M240.2 771.9L290.2 771.9M240.2 771.9L290.2 771.9" fill="#fff" stroke="#3FB1E3" ecmeta_series_index="0" ecmeta_data_index="0" ecmeta_ssr_type="chart" class="zr7-cls-21"></path>
<path d="M494.1 723.2L544.1 723.2L544.1 721.6L494.1 721.6ZM519.1 723.2M519.1 721.6M494.1 723.2L544.1 723.2M494.1 721.6L544.1 721.6M494.1 721.6L544.1 721.6" fill="#fff" stroke="#3FB1E3" ecmeta_series_index="0" ecmeta_data_index="1" ecmeta_ssr_type="chart" class="zr7-cls-21"></path>
<path d="M748 114.6L798 114.6L798 105.3L748 105.3ZM773 114.6M773 105.3M748 114.6L798 114.6M748 105.3L798 105.3M748 105.3L798 105.3" fill="#fff" stroke="#3FB1E3" ecmeta_series_index="0" ecmeta_data_index="2" ecmeta_ssr_type="chart" class="zr7-cls-21"></path>
<path d="M-194.5 -5l389.1 0l0 28l-389.1 0Z" transform="translate(500 5)" fill="rgb(0,0,0)" fill-opacity="0" stroke="#ccc" stroke-width="0" class="zr7-cls-20"></path>
<text dominant-baseline="central" text-anchor="middle" style="font-size:18px;font-family:sans-serif;font-weight:bold;" xml:space="preserve" y="9" transform="translate(500 5)" fill="#666666">Benchmark Results - Effective UPS Distribution</text>
<style ><![CDATA[
.zr7-cls-20:hover {
pointer-events:none;
}
.zr7-cls-21:hover {
cursor:pointer;
fill:rgba(255,255,255,1);
stroke-width:2;
}

]]>

</style>
</svg>