<svg width="1000" height="1000" xmlns="http://www.w3.org/2000/svg" xmlns:xlink="http://www.w3.org/1999/xlink" version="1.1" baseProfile="full" viewBox="0 0 1000 1000">
<rect width="1000" height="1000" x="0" y="0" fill="rgb(252,252,252)" fill-opacity="0"></rect>
<path d="M138.5 60L138.5 880.5" fill="transparent" stroke="#eeeeee" class="zr1-cls-2"></path>
<path d="M328.5 60L328.5 880.5" fill="transparent" stroke="#eeeeee" class="zr1-cls-2"></path>
<path d="M519.5 60L519.5 880.5" fill="transparent" stroke="#eeeeee" class="zr1-cls-2"></path>
<path d="M709.5 60L709.5 880.5" fill="transparent" stroke="#eeeeee" class="zr1-cls-2"></path>
<path d="M900.5 60L900.5 880.5" fill="transparent" stroke="#eeeeee" class="zr1-cls-2"></path>
<path d="M138.5 880.5L138.5 60" fill="transparent" stroke="#cccccc" stroke-linecap="round" class="zr1-cls-2"></path>
<text dominant-baseline="central" text-anchor="middle" style="font-size:12px;font-family:sans-serif;" y="-6" transform="translate(138.24 45)" fill="#cccccc">UPS</text>
<path d="M138.2 880.5L900 880.5" fill="transparent" stroke="#cccccc" stroke-linecap="round" class="zr1-cls-2"></path>
<text dominant-baseline="central" text-anchor="end" style="font-size:12px;font-family:sans-serif;" transform="translate(130.24 880.5133)" fill="#999999">644</text>
<text dominant-baseline="central" text-anchor="end" style="font-size:12px;font-family:sans-serif;" transform="translate(130.24 716.4106)" fill="#999999">693.4</text>
<text dominant-baseline="central" text-anchor="end" style="font-size:12px;font-family:sans-serif;" transform="translate(130.24 552.308)" fill="#999999">742.8</text>
<text dominant-baseline="central" text-anchor="end" style="font-size:12px;font-family:sans-serif;" transform="translate(130.24 388.2053)" fill="#999999">792.2</text>
<text dominant-baseline="central" text-anchor="end" style="font-size:12px;font-family:sans-serif;" transform="translate(130.24 224.1027)" fill="#999999">841.6</text>
<text dominant-baseline="central" text-anchor="end" style="font-size:12px;font-family:sans-serif;" transform="translate(130.24 60)" fill="#999999">891</text>
<text dominant-baseline="central" text-anchor="end" style="font-size:12px;font-family:sans-serif;" transform="matrix(0.707,-0.707,0.707,0.707,233.46,888.5133)" fill="#999999">test_01</text>
<text dominant-baseline="central" text-anchor="end" style="font-size:12px;font-family:sans-serif;" transform="matrix(0.707,-0.707,0.707,0.707,423.9,888.5133)" fill="#999999">test_02</text>
<text dominant-baseline="central" text-anchor="end" style="font-size:12px;font-family:sans-serif;" transform="matrix(0.707,-0.707,0.707,0.707,614.34,888.5133)" fill="#999999">test_04</text>
<text dominant-baseline="central" text-anchor="end" style="font-size:12px;font-family:sans-serif;" transform="matrix(0.707,-0.707,0.707,0.707,804.78,888.5133)" fill="#999999">test_03</text>
<path d="M208.5 759L258.5 759L258.5 660.6L208.5 660.6ZM233.5 766.7L233.5 759M233.5 659.4L233.5 660.6M208.5 766.7L258.5 766.7M208.5 659.4L258.5 659.4M208.5 756.5L258.5 756.5" fill="#fff" stroke="#3FB1E3" ecmeta_series_index="0" ecmeta_data_index="0" ecmeta_ssr_type="chart" class="zr1-cls-3"></path>
<path d="M398.9 440.7L448.9 440.7L448.9 359.7L398.9 359.7ZM423.9 467.6L423.9 440.7M423.9 359.1L423.9 359.7M398.9 467.6L448.9 467.6M398.9 359.1L448.9 359.1M398.9 437.6L448.9 437.6" fill="#fff" stroke="#3FB1E3" ecmeta_series_index="0" ecmeta_data_index="1" ecmeta_ssr_type="chart" class="zr1-cls-3"></path>
<path d="M589.3 407.5L639.3 407.5L639.3 300.4L589.3 300.4ZM614.3 411.4L614.3 407.5M614.3 289.1L614.3 300.4M589.3 411.4L639.3 411.4M589.3 289.1L639.3 289.1M589.3 385.9L639.3 385.9" fill="#fff" stroke="#3FB1E3" ecmeta_series_index="0" ecmeta_data_index="2" ecmeta_ssr_type="chart" class="zr1-cls-3"></path>
<path d="M779.8 322.1L829.8 322.1L829.8 204.9L779.8 204.9ZM804.8 337.3L804.8 322.1M804.8 203.6L804.8 204.9M779.8 337.3L829.8 337.3M779.8 203.6L829.8 203.6M779.8 313L829.8 313" fill="#fff" stroke="#3FB1E3" ecmeta_series_index="0" ecmeta_data_index="3" ecmeta_ssr_type="chart" class="zr1-cls-3"></path>
<path d="M-194.5 -5l389.1 0l0 28l-389.1 0Z" transform="translate(500 5)" fill="rgb(0,0,0)" fill-opacity="0" stroke="#ccc" stroke-width="0" class="zr1-cls-2"></path>
<text dominant-baseline="central" text-anchor="middle" style="font-size:18px;font-family:sans-serif;font-weight:bold;" xml:space="preserve" y="9" transform="translate(500 5)" fill="#666666">Benchmark Results - Effective UPS Distribution</text>
<style ><![CDATA[
.zr1-cls-2:hover {
pointer-events:none;
}
.zr1-cls-3:hover {
cursor:pointer;
fill:rgba(255,255,255,1);
stroke-width:2;
}

]]>

</style>
</svg>