<svg width="1000" height="1000" xmlns="http://www.w3.org/2000/svg" xmlns:xlink="http://www.w3.org/1999/xlink" version="1.1" baseProfile="full" viewBox="0 0 1000 1000">
<rect width="1000" height="1000" x="0" y="0" fill="rgb(252,252,252)" fill-opacity="0"></rect>
<path d="M138.5 60L138.5 798.1" fill="transparent" stroke="#eeeeee" class="zr1-cls-2"></path>
<path d="M290.5 60L290.5 798.1" fill="transparent" stroke="#eeeeee" class="zr1-cls-2"></path>
<path d="M443.5 60L443.5 798.1" fill="transparent" stroke="#eeeeee" class="zr1-cls-2"></path>
<path d="M595.5 60L595.5 798.1" fill="transparent" stroke="#eeeeee" class="zr1-cls-2"></path>
<path d="M747.5 60L747.5 798.1" fill="transparent" stroke="#eeeeee" class="zr1-cls-2"></path>
<path d="M900.5 60L900.5 798.1" fill="transparent" stroke="#eeeeee" class="zr1-cls-2"></path>
<path d="M138.5 798.1L138.5 60" fill="transparent" stroke="#cccccc" stroke-linecap="round" class="zr1-cls-2"></path>
<text dominant-baseline="central" text-anchor="middle" style="font-size:12px;font-family:sans-serif;" y="-6" transform="translate(138.24 45)" fill="#cccccc">UPS</text>
<path d="M138.2 798.5L900 798.5" fill="transparent" stroke="#cccccc" stroke-linecap="round" class="zr1-cls-2"></path>
<text dominant-baseline="central" text-anchor="end" style="font-size:12px;font-family:sans-serif;" transform="translate(130.24 798.1212)" fill="#999999">455</text>
<text dominant-baseline="central" text-anchor="end" style="font-size:12px;font-family:sans-serif;" transform="translate(130.24 650.497)" fill="#999999">580</text>
<text dominant-baseline="central" text-anchor="end" style="font-size:12px;font-family:sans-serif;" transform="translate(130.24 502.8727)" fill="#999999">705</text>
<text dominant-baseline="central" text-anchor="end" style="font-size:12px;font-family:sans-serif;" transform="translate(130.24 355.2485)" fill="#999999">830</text>
<text dominant-baseline="central" text-anchor="end" style="font-size:12px;font-family:sans-serif;" transform="translate(130.24 207.6242)" fill="#999999">955</text>
<text dominant-baseline="central" text-anchor="end" style="font-size:12px;font-family:sans-serif;" transform="translate(130.24 60)" fill="#999999">1,080</text>
<text dominant-baseline="central" text-anchor="end" style="font-size:12px;font-family:sans-serif;" transform="matrix(0.707,-0.707,0.707,0.707,214.416,806.1212)" fill="#999999">q1_stack_wake_steel_prod</text>
<text dominant-baseline="central" text-anchor="end" style="font-size:12px;font-family:sans-serif;" transform="matrix(0.707,-0.707,0.707,0.707,366.768,806.1212)" fill="#999999">q1_bulk_steel_prod</text>
<text dominant-baseline="central" text-anchor="end" style="font-size:12px;font-family:sans-serif;" transform="matrix(0.707,-0.707,0.707,0.707,519.12,806.1212)" fill="#999999">q1_stack_sync_steel_prod</text>
<text dominant-baseline="central" text-anchor="end" style="font-size:12px;font-family:sans-serif;" transform="matrix(0.707,-0.707,0.707,0.707,671.472,806.1212)" fill="#999999">q1_stack_desync_steel_prod</text>
<text dominant-baseline="central" text-anchor="end" style="font-size:12px;font-family:sans-serif;" transform="matrix(0.707,-0.707,0.707,0.707,823.824,806.1212)" fill="#999999">q2_stack_desync_steel_prod</text>
<path d="M189.4 769.5L239.4 769.5L239.4 767.5L189.4 767.5ZM214.4 769.5M214.4 767.5M189.4 769.5L239.4 769.5M189.4 767.5L239.4 767.5M189.4 768.1L239.4 768.1" fill="#fff" stroke="#3FB1E3" ecmeta_series_index="0" ecmeta_data_index="0" ecmeta_ssr_type="chart" class="zr1-cls-3"></path>
<path d="M341.8 663.8L391.8 663.8L391.8 645L341.8 645ZM366.8 663.8M366.8 645M341.8 663.8L391.8 663.8M341.8 645L391.8 645M341.8 659.4L391.8 659.4" fill="#fff" stroke="#3FB1E3" ecmeta_series_index="0" ecmeta_data_index="1" ecmeta_ssr_type="chart" class="zr1-cls-3"></path>
<path d="M494.1 429.8L544.1 429.8L544.1 370.2L494.1 370.2ZM519.1 429.8M519.1 370.2M494.1 429.8L544.1 429.8M494.1 370.2L544.1 370.2M494.1 399.9L544.1 399.9" fill="#fff" stroke="#3FB1E3" ecmeta_series_index="0" ecmeta_data_index="2" ecmeta_ssr_type="chart" class="zr1-cls-3"></path>
<path d="M646.5 413.2L696.5 413.2L696.5 374.5L646.5 374.5ZM671.5 413.2M671.5 374.5M646.5 413.2L696.5 413.2M646.5 374.5L696.5 374.5M646.5 403.2L696.5 403.2" fill="#fff" stroke="#3FB1E3" ecmeta_series_index="0" ecmeta_data_index="3" ecmeta_ssr_type="chart" class="zr1-cls-3"></path>
<path d="M798.8 124.8L848.8 124.8L848.8 121.6L798.8 121.6ZM823.8 124.8M823.8 121.6M798.8 124.8L848.8 124.8M798.8 121.6L848.8 121.6M798.8 122.8L848.8 122.8" fill="#fff" stroke="#3FB1E3" ecmeta_series_index="0" ecmeta_data_index="4" ecmeta_ssr_type="chart" class="zr1-cls-3"></path>
<path d="M-194.5 -5l389.1 0l0 28l-389.1 0Z" transform="translate(500 5)" fill="rgb(0,0,0)" fill-opacity="0" stroke="#ccc" stroke-width="0" class="zr1-cls-2"></path>
<text dominant-baseline="central" text-anchor="middle" style="font-size:18px;font-family:sans-serif;font-weight:bold;" xml:space="preserve" y="9" transform="translate(500 5)" fill="#666666">Benchmark Results - Effective UPS Distribution</text>
<style ><![CDATA[
.zr1-cls-2:hover {
pointer-events:none;
}
.zr1-cls-3:hover {
cursor:pointer;
fill:rgba(255,255,255,1);
stroke-width:2;
}

]]>

</style>
</svg>