<svg width="1000" height="1000" xmlns="http://www.w3.org/2000/svg" xmlns:xlink="http://www.w3.org/1999/xlink" version="1.1" baseProfile="full" viewBox="0 0 1000 1000">
<rect width="1000" height="1000" x="0" y="0" fill="rgb(252,252,252)" fill-opacity="0"></rect>
<path d="M148.5 60L148.5 774.9" fill="transparent" stroke="#eeeeee" class="zr1-cls-2"></path>
<path d="M255.5 60L255.5 774.9" fill="transparent" stroke="#eeeeee" class="zr1-cls-2"></path>
<path d="M363.5 60L363.5 774.9" fill="transparent" stroke="#eeeeee" class="zr1-cls-2"></path>
<path d="M470.5 60L470.5 774.9" fill="transparent" stroke="#eeeeee" class="zr1-cls-2"></path>
<path d="M578.5 60L578.5 774.9" fill="transparent" stroke="#eeeeee" class="zr1-cls-2"></path>
<path d="M685.5 60L685.5 774.9" fill="transparent" stroke="#eeeeee" class="zr1-cls-2"></path>
<path d="M792.5 60L792.5 774.9" fill="transparent" stroke="#eeeeee" class="zr1-cls-2"></path>
<path d="M900.5 60L900.5 774.9" fill="transparent" stroke="#eeeeee" class="zr1-cls-2"></path>
<path d="M148.5 774.9L148.5 60" fill="transparent" stroke="#cccccc" stroke-linecap="round" class="zr1-cls-2"></path>
<text dominant-baseline="central" text-anchor="middle" style="font-size:12px;font-family:sans-serif;" y="-6" transform="translate(148.32 45)" fill="#cccccc">UPS</text>
<path d="M148.3 775.5L900 775.5" fill="transparent" stroke="#cccccc" stroke-linecap="round" class="zr1-cls-2"></path>
<text dominant-baseline="central" text-anchor="end" style="font-size:12px;font-family:sans-serif;" transform="translate(140.32 774.8715)" fill="#999999">499</text>
<text dominant-baseline="central" text-anchor="end" style="font-size:12px;font-family:sans-serif;" transform="translate(140.32 631.8972)" fill="#999999">627.2</text>
<text dominant-baseline="central" text-anchor="end" style="font-size:12px;font-family:sans-serif;" transform="translate(140.32 488.9229)" fill="#999999">755.4</text>
<text dominant-baseline="central" text-anchor="end" style="font-size:12px;font-family:sans-serif;" transform="translate(140.32 345.9486)" fill="#999999">883.6</text>
<text dominant-baseline="central" text-anchor="end" style="font-size:12px;font-family:sans-serif;" transform="translate(140.32 202.9743)" fill="#999999">1,011.8</text>
<text dominant-baseline="central" text-anchor="end" style="font-size:12px;font-family:sans-serif;" transform="translate(140.32 60)" fill="#999999">1,140</text>
<text dominant-baseline="central" text-anchor="end" style="font-size:12px;font-family:sans-serif;" transform="matrix(0.707,-0.707,0.707,0.707,202.0114,782.8715)" fill="#999999">q1_stack_wake_steel_prod</text>
<text dominant-baseline="central" text-anchor="end" style="font-size:12px;font-family:sans-serif;" transform="matrix(0.707,-0.707,0.707,0.707,309.3943,782.8715)" fill="#999999">q1_bulk_steel_prod</text>
<text dominant-baseline="central" text-anchor="end" style="font-size:12px;font-family:sans-serif;" transform="matrix(0.707,-0.707,0.707,0.707,416.7771,782.8715)" fill="#999999">q1_stack_desync_steel_prod</text>
<text dominant-baseline="central" text-anchor="end" style="font-size:12px;font-family:sans-serif;" transform="matrix(0.707,-0.707,0.707,0.707,524.16,782.8715)" fill="#999999">q1_stack_desync_v1_9_steel_prod</text>
<text dominant-baseline="central" text-anchor="end" style="font-size:12px;font-family:sans-serif;" transform="matrix(0.707,-0.707,0.707,0.707,631.5429,782.8715)" fill="#999999">q1_stack_sync_steel_prod</text>
<text dominant-baseline="central" text-anchor="end" style="font-size:12px;font-family:sans-serif;" transform="matrix(0.707,-0.707,0.707,0.707,738.9257,782.8715)" fill="#999999">q2_stack_desync_v1_9_steel_prod</text>
<text dominant-baseline="central" text-anchor="end" style="font-size:12px;font-family:sans-serif;" transform="matrix(0.707,-0.707,0.707,0.707,846.3086,782.8715)" fill="#999999">q2_stack_desync_steel_prod</text>
<path d="M177 744.9L227 744.9L227 741.9L177 741.9ZM202 744.9M202 741.9M177 744.9L227 744.9M177 741.9L227 741.9M177 742.3L227 742.3" fill="#fff" stroke="#3FB1E3" ecmeta_series_index="0" ecmeta_data_index="0" ecmeta_ssr_type="chart" class="zr1-cls-3"></path>
<path d="M284.4 651.7L334.4 651.7L334.4 651.5L284.4 651.5ZM309.4 651.7M309.4 651.5M284.4 651.7L334.4 651.7M284.4 651.5L334.4 651.5M284.4 651.7L334.4 651.7" fill="#fff" stroke="#3FB1E3" ecmeta_series_index="0" ecmeta_data_index="1" ecmeta_ssr_type="chart" class="zr1-cls-3"></path>
<path d="M391.8 435.9L441.8 435.9L441.8 395.8L391.8 395.8ZM416.8 435.9M416.8 395.8M391.8 435.9L441.8 435.9M391.8 395.8L441.8 395.8M391.8 410.5L441.8 410.5" fill="#fff" stroke="#3FB1E3" ecmeta_series_index="0" ecmeta_data_index="2" ecmeta_ssr_type="chart" class="zr1-cls-3"></path>
<path d="M499.2 410.5L549.2 410.5L549.2 410.2L499.2 410.2ZM524.2 410.5M524.2 410.2M499.2 410.5L549.2 410.5M499.2 410.2L549.2 410.2M499.2 410.3L549.2 410.3" fill="#fff" stroke="#3FB1E3" ecmeta_series_index="0" ecmeta_data_index="3" ecmeta_ssr_type="chart" class="zr1-cls-3"></path>
<path d="M606.5 398.5L656.5 398.5L656.5 394.7L606.5 394.7ZM631.5 398.5M631.5 394.7M606.5 398.5L656.5 398.5M606.5 394.7L656.5 394.7M606.5 396.2L656.5 396.2" fill="#fff" stroke="#3FB1E3" ecmeta_series_index="0" ecmeta_data_index="4" ecmeta_ssr_type="chart" class="zr1-cls-3"></path>
<path d="M713.9 166.6L763.9 166.6L763.9 163.8L713.9 163.8ZM738.9 166.6M738.9 163.8M713.9 166.6L763.9 166.6M713.9 163.8L763.9 163.8M713.9 166.3L763.9 166.3" fill="#fff" stroke="#3FB1E3" ecmeta_series_index="0" ecmeta_data_index="5" ecmeta_ssr_type="chart" class="zr1-cls-3"></path>
<path d="M821.3 132.5L871.3 132.5L871.3 120.9L821.3 120.9ZM846.3 132.5M846.3 120.9M821.3 132.5L871.3 132.5M821.3 120.9L871.3 120.9M821.3 125.4L871.3 125.4" fill="#fff" stroke="#3FB1E3" ecmeta_series_index="0" ecmeta_data_index="6" ecmeta_ssr_type="chart" class="zr1-cls-3"></path>
<path d="M-194.5 -5l389.1 0l0 28l-389.1 0Z" transform="translate(500 5)" fill="rgb(0,0,0)" fill-opacity="0" stroke="#ccc" stroke-width="0" class="zr1-cls-2"></path>
<text dominant-baseline="central" text-anchor="middle" style="font-size:18px;font-family:sans-serif;font-weight:bold;" xml:space="preserve" y="9" transform="translate(500 5)" fill="#666666">Benchmark Results - Effective UPS Distribution</text>
<style ><![CDATA[
.zr1-cls-2:hover {
pointer-events:none;
}
.zr1-cls-3:hover {
cursor:pointer;
fill:rgba(255,255,255,1);
stroke-width:2;
}

]]>

</style>
</svg>