<svg width="1000" height="1000" xmlns="http://www.w3.org/2000/svg" xmlns:xlink="http://www.w3.org/1999/xlink" version="1.1" baseProfile="full" viewBox="0 0 1000 1000">
<rect width="1000" height="1000" x="0" y="0" fill="rgb(252,252,252)" fill-opacity="0"></rect>
<path d="M231.4 950.5L960 950.5" fill="transparent" stroke="#eeeeee" class="zr0-cls-0"></path>
<path d="M231.4 772.5L960 772.5" fill="transparent" stroke="#eeeeee" class="zr0-cls-0"></path>
<path d="M231.4 594.5L960 594.5" fill="transparent" stroke="#eeeeee" class="zr0-cls-0"></path>
<path d="M231.4 416.5L960 416.5" fill="transparent" stroke="#eeeeee" class="zr0-cls-0"></path>
<path d="M231.4 238.5L960 238.5" fill="transparent" stroke="#eeeeee" class="zr0-cls-0"></path>
<path d="M231.4 60.5L960 60.5" fill="transparent" stroke="#eeeeee" class="zr0-cls-0"></path>
<path d="M231.5 950L231.5 60" fill="transparent" stroke="#cccccc" stroke-linecap="round" class="zr0-cls-0"></path>
<path d="M231.4 950.5L960 950.5" fill="transparent" stroke="#cccccc" stroke-linecap="round" class="zr0-cls-0"></path>
<text dominant-baseline="central" text-anchor="end" style="font-size:12px;font-family:sans-serif;" transform="translate(223.44 861)" fill="#999999">bm_uncommon_purple_v1</text>
<text dominant-baseline="central" text-anchor="end" style="font-size:12px;font-family:sans-serif;" transform="translate(223.44 683)" fill="#999999">bm_uncommon_purple_v2.1</text>
<text dominant-baseline="central" text-anchor="end" style="font-size:12px;font-family:sans-serif;" transform="translate(223.44 505)" fill="#999999">bm_uncommon_purple_v2.3</text>
<text dominant-baseline="central" text-anchor="end" style="font-size:12px;font-family:sans-serif;" transform="translate(223.44 327)" fill="#999999">bm_uncommon_purple_v2.3_landfill</text>
<text dominant-baseline="central" text-anchor="end" style="font-size:12px;font-family:sans-serif;" transform="translate(223.44 149)" fill="#999999">bm_uncommon_purple_v2.5_landfill</text>
<text dominant-baseline="central" text-anchor="middle" style="font-size:12px;font-family:sans-serif;" y="6" transform="translate(231.44 958)" fill="#999999">0</text>
<text dominant-baseline="central" text-anchor="middle" style="font-size:12px;font-family:sans-serif;" y="6" transform="translate(413.58 958)" fill="#999999">100</text>
<text dominant-baseline="central" text-anchor="middle" style="font-size:12px;font-family:sans-serif;" y="6" transform="translate(595.72 958)" fill="#999999">200</text>
<text dominant-baseline="central" text-anchor="middle" style="font-size:12px;font-family:sans-serif;" y="6" transform="translate(777.86 958)" fill="#999999">300</text>
<text dominant-baseline="central" text-anchor="middle" style="font-size:12px;font-family:sans-serif;" y="6" transform="translate(960 958)" fill="#999999">400</text>
<path d="M231.4 799.6l490 0l0 122.8l-490 0Z" fill="#3fb1e3" ecmeta_series_index="0" ecmeta_data_index="0" ecmeta_ssr_type="chart" class="zr0-cls-1"></path>
<path d="M231.4 621.6l573.7 0l0 122.8l-573.7 0Z" fill="#3fb1e3" ecmeta_series_index="0" ecmeta_data_index="1" ecmeta_ssr_type="chart" class="zr0-cls-1"></path>
<path d="M231.4 443.6l573.7 0l0 122.8l-573.7 0Z" fill="#3fb1e3" ecmeta_series_index="0" ecmeta_data_index="2" ecmeta_ssr_type="chart" class="zr0-cls-1"></path>
<path d="M231.4 265.6l635.7 0l0 122.8l-635.7 0Z" fill="#3fb1e3" ecmeta_series_index="0" ecmeta_data_index="3" ecmeta_ssr_type="chart" class="zr0-cls-1"></path>
<path d="M231.4 87.6l661.2 0l0 122.8l-661.2 0Z" fill="#3fb1e3" ecmeta_series_index="0" ecmeta_data_index="4" ecmeta_ssr_type="chart" class="zr0-cls-1"></path>
<text dominant-baseline="central" text-anchor="middle" style="font-size:12px;font-family:sans-serif;" transform="translate(476.4183 861)" fill="#333">269</text>
<text dominant-baseline="central" text-anchor="middle" style="font-size:12px;font-family:sans-serif;" transform="translate(518.3105 683)" fill="#333">315</text>
<text dominant-baseline="central" text-anchor="middle" style="font-size:12px;font-family:sans-serif;" transform="translate(518.3105 505)" fill="#333">315</text>
<text dominant-baseline="central" text-anchor="middle" style="font-size:12px;font-family:sans-serif;" transform="translate(549.2743 327)" fill="#333">349</text>
<text dominant-baseline="central" text-anchor="middle" style="font-size:12px;font-family:sans-serif;" transform="translate(562.0241 149)" fill="#333">363</text>
<path d="M-183.1 -5l366.2 0l0 28l-366.2 0Z" transform="translate(500 5)" fill="rgb(0,0,0)" fill-opacity="0" stroke="#ccc" stroke-width="0" class="zr0-cls-0"></path>
<text dominant-baseline="central" text-anchor="middle" style="font-size:18px;font-family:sans-serif;font-weight:bold;" xml:space="preserve" y="9" transform="translate(500 5)" fill="#666666">Benchmark Results - Average Effective UPS</text>
<style ><![CDATA[
.zr0-cls-0:hover {
pointer-events:none;
}
.zr0-cls-1:hover {
cursor:pointer;
fill:rgba(69,194,249,1);
}

]]>

</style>
</svg>