<svg width="1000" height="1000" xmlns="http://www.w3.org/2000/svg" xmlns:xlink="http://www.w3.org/1999/xlink" version="1.1" baseProfile="full" viewBox="0 0 1000 1000">
<rect width="1000" height="1000" x="0" y="0" fill="rgb(252,252,252)" fill-opacity="0"></rect>
<path d="M128.5 60L128.5 759.8" fill="transparent" stroke="#eeeeee" class="zr1-cls-2"></path>
<path d="M238.5 60L238.5 759.8" fill="transparent" stroke="#eeeeee" class="zr1-cls-2"></path>
<path d="M348.5 60L348.5 759.8" fill="transparent" stroke="#eeeeee" class="zr1-cls-2"></path>
<path d="M459.5 60L459.5 759.8" fill="transparent" stroke="#eeeeee" class="zr1-cls-2"></path>
<path d="M569.5 60L569.5 759.8" fill="transparent" stroke="#eeeeee" class="zr1-cls-2"></path>
<path d="M679.5 60L679.5 759.8" fill="transparent" stroke="#eeeeee" class="zr1-cls-2"></path>
<path d="M789.5 60L789.5 759.8" fill="transparent" stroke="#eeeeee" class="zr1-cls-2"></path>
<path d="M900.5 60L900.5 759.8" fill="transparent" stroke="#eeeeee" class="zr1-cls-2"></path>
<path d="M128.5 759.8L128.5 60" fill="transparent" stroke="#cccccc" stroke-linecap="round" class="zr1-cls-2"></path>
<text dominant-baseline="central" text-anchor="middle" style="font-size:12px;font-family:sans-serif;" y="-6" transform="translate(128.16 45)" fill="#cccccc">UPS</text>
<path d="M128.2 760.5L900 760.5" fill="transparent" stroke="#cccccc" stroke-linecap="round" class="zr1-cls-2"></path>
<text dominant-baseline="central" text-anchor="end" style="font-size:12px;font-family:sans-serif;" transform="translate(120.16 759.7677)" fill="#999999">257</text>
<text dominant-baseline="central" text-anchor="end" style="font-size:12px;font-family:sans-serif;" transform="translate(120.16 619.8142)" fill="#999999">318</text>
<text dominant-baseline="central" text-anchor="end" style="font-size:12px;font-family:sans-serif;" transform="translate(120.16 479.8606)" fill="#999999">379</text>
<text dominant-baseline="central" text-anchor="end" style="font-size:12px;font-family:sans-serif;" transform="translate(120.16 339.9071)" fill="#999999">440</text>
<text dominant-baseline="central" text-anchor="end" style="font-size:12px;font-family:sans-serif;" transform="translate(120.16 199.9535)" fill="#999999">501</text>
<text dominant-baseline="central" text-anchor="end" style="font-size:12px;font-family:sans-serif;" transform="translate(120.16 60)" fill="#999999">562</text>
<text dominant-baseline="central" text-anchor="end" style="font-size:12px;font-family:sans-serif;" transform="matrix(0.707,-0.707,0.707,0.707,183.2914,767.7677)" fill="#999999">q1_stack_wake_research_prod</text>
<text dominant-baseline="central" text-anchor="end" style="font-size:12px;font-family:sans-serif;" transform="matrix(0.707,-0.707,0.707,0.707,293.5543,767.7677)" fill="#999999">q1_bulk_research_prod</text>
<text dominant-baseline="central" text-anchor="end" style="font-size:12px;font-family:sans-serif;" transform="matrix(0.707,-0.707,0.707,0.707,403.8171,767.7677)" fill="#999999">q1_stack_sync_research_prod</text>
<text dominant-baseline="central" text-anchor="end" style="font-size:12px;font-family:sans-serif;" transform="matrix(0.707,-0.707,0.707,0.707,514.08,767.7677)" fill="#999999">q1_stack_desync_research_prod</text>
<text dominant-baseline="central" text-anchor="end" style="font-size:12px;font-family:sans-serif;" transform="matrix(0.707,-0.707,0.707,0.707,624.3429,767.7677)" fill="#999999">q1_stack_desync_v1_9_research_prod</text>
<text dominant-baseline="central" text-anchor="end" style="font-size:12px;font-family:sans-serif;" transform="matrix(0.707,-0.707,0.707,0.707,734.6057,767.7677)" fill="#999999">q2_stack_desync_research_prod</text>
<text dominant-baseline="central" text-anchor="end" style="font-size:12px;font-family:sans-serif;" transform="matrix(0.707,-0.707,0.707,0.707,844.8686,767.7677)" fill="#999999">q2_stack_desync_v1_9_research_prod</text>
<path d="M158.3 728.5L208.3 728.5L208.3 724.6L158.3 724.6ZM183.3 728.5M183.3 724.6M158.3 728.5L208.3 728.5M158.3 724.6L208.3 724.6M158.3 728.2L208.3 728.2" fill="#fff" stroke="#3FB1E3" ecmeta_series_index="0" ecmeta_data_index="0" ecmeta_ssr_type="chart" class="zr1-cls-3"></path>
<path d="M268.6 484.1L318.6 484.1L318.6 475.1L268.6 475.1ZM293.6 484.1M293.6 475.1M268.6 484.1L318.6 484.1M268.6 475.1L318.6 475.1M268.6 483.7L318.6 483.7" fill="#fff" stroke="#3FB1E3" ecmeta_series_index="0" ecmeta_data_index="1" ecmeta_ssr_type="chart" class="zr1-cls-3"></path>
<path d="M378.8 409.7L428.8 409.7L428.8 399.5L378.8 399.5ZM403.8 409.7M403.8 399.5M378.8 409.7L428.8 409.7M378.8 399.5L428.8 399.5M378.8 399.9L428.8 399.9" fill="#fff" stroke="#3FB1E3" ecmeta_series_index="0" ecmeta_data_index="2" ecmeta_ssr_type="chart" class="zr1-cls-3"></path>
<path d="M489.1 365.7L539.1 365.7L539.1 360.1L489.1 360.1ZM514.1 365.7M514.1 360.1M489.1 365.7L539.1 365.7M489.1 360.1L539.1 360.1M489.1 361.1L539.1 361.1" fill="#fff" stroke="#3FB1E3" ecmeta_series_index="0" ecmeta_data_index="3" ecmeta_ssr_type="chart" class="zr1-cls-3"></path>
<path d="M599.3 362.9L649.3 362.9L649.3 359.9L599.3 359.9ZM624.3 362.9M624.3 359.9M599.3 362.9L649.3 362.9M599.3 359.9L649.3 359.9M599.3 360.8L649.3 360.8" fill="#fff" stroke="#3FB1E3" ecmeta_series_index="0" ecmeta_data_index="4" ecmeta_ssr_type="chart" class="zr1-cls-3"></path>
<path d="M709.6 142.8L759.6 142.8L759.6 130L709.6 130ZM734.6 142.8M734.6 130M709.6 142.8L759.6 142.8M709.6 130L759.6 130M709.6 134.8L759.6 134.8" fill="#fff" stroke="#3FB1E3" ecmeta_series_index="0" ecmeta_data_index="5" ecmeta_ssr_type="chart" class="zr1-cls-3"></path>
<path d="M819.9 145.4L869.9 145.4L869.9 121.8L819.9 121.8ZM844.9 145.4M844.9 121.8M819.9 145.4L869.9 145.4M819.9 121.8L869.9 121.8M819.9 129.2L869.9 129.2" fill="#fff" stroke="#3FB1E3" ecmeta_series_index="0" ecmeta_data_index="6" ecmeta_ssr_type="chart" class="zr1-cls-3"></path>
<path d="M-194.5 -5l389.1 0l0 28l-389.1 0Z" transform="translate(500 5)" fill="rgb(0,0,0)" fill-opacity="0" stroke="#ccc" stroke-width="0" class="zr1-cls-2"></path>
<text dominant-baseline="central" text-anchor="middle" style="font-size:18px;font-family:sans-serif;font-weight:bold;" xml:space="preserve" y="9" transform="translate(500 5)" fill="#666666">Benchmark Results - Effective UPS Distribution</text>
<style ><![CDATA[
.zr1-cls-2:hover {
pointer-events:none;
}
.zr1-cls-3:hover {
cursor:pointer;
fill:rgba(255,255,255,1);
stroke-width:2;
}

]]>

</style>
</svg>