<svg width="1000" height="1000" xmlns="http://www.w3.org/2000/svg" xmlns:xlink="http://www.w3.org/1999/xlink" version="1.1" baseProfile="full" viewBox="0 0 1000 1000">
<rect width="1000" height="1000" x="0" y="0" fill="rgb(252,252,252)" fill-opacity="0"></rect>
<path d="M128.5 60L128.5 862.5" fill="transparent" stroke="#eeeeee" class="zr1-cls-2"></path>
<path d="M224.5 60L224.5 862.5" fill="transparent" stroke="#eeeeee" class="zr1-cls-2"></path>
<path d="M321.5 60L321.5 862.5" fill="transparent" stroke="#eeeeee" class="zr1-cls-2"></path>
<path d="M417.5 60L417.5 862.5" fill="transparent" stroke="#eeeeee" class="zr1-cls-2"></path>
<path d="M514.5 60L514.5 862.5" fill="transparent" stroke="#eeeeee" class="zr1-cls-2"></path>
<path d="M610.5 60L610.5 862.5" fill="transparent" stroke="#eeeeee" class="zr1-cls-2"></path>
<path d="M707.5 60L707.5 862.5" fill="transparent" stroke="#eeeeee" class="zr1-cls-2"></path>
<path d="M803.5 60L803.5 862.5" fill="transparent" stroke="#eeeeee" class="zr1-cls-2"></path>
<path d="M900.5 60L900.5 862.5" fill="transparent" stroke="#eeeeee" class="zr1-cls-2"></path>
<path d="M128.5 862.5L128.5 60" fill="transparent" stroke="#cccccc" stroke-linecap="round" class="zr1-cls-2"></path>
<text dominant-baseline="central" text-anchor="middle" style="font-size:12px;font-family:sans-serif;" y="-6" transform="translate(128.16 45)" fill="#cccccc">UPS</text>
<path d="M128.2 862.5L900 862.5" fill="transparent" stroke="#cccccc" stroke-linecap="round" class="zr1-cls-2"></path>
<text dominant-baseline="central" text-anchor="end" style="font-size:12px;font-family:sans-serif;" transform="translate(120.16 862.5245)" fill="#999999">438</text>
<text dominant-baseline="central" text-anchor="end" style="font-size:12px;font-family:sans-serif;" transform="translate(120.16 702.0196)" fill="#999999">515</text>
<text dominant-baseline="central" text-anchor="end" style="font-size:12px;font-family:sans-serif;" transform="translate(120.16 541.5147)" fill="#999999">592</text>
<text dominant-baseline="central" text-anchor="end" style="font-size:12px;font-family:sans-serif;" transform="translate(120.16 381.0098)" fill="#999999">669</text>
<text dominant-baseline="central" text-anchor="end" style="font-size:12px;font-family:sans-serif;" transform="translate(120.16 220.5049)" fill="#999999">746</text>
<text dominant-baseline="central" text-anchor="end" style="font-size:12px;font-family:sans-serif;" transform="translate(120.16 60)" fill="#999999">823</text>
<text dominant-baseline="central" text-anchor="end" style="font-size:12px;font-family:sans-serif;" transform="matrix(0.707,-0.707,0.707,0.707,176.4,870.5245)" fill="#999999">00_baseline</text>
<text dominant-baseline="central" text-anchor="end" style="font-size:12px;font-family:sans-serif;" transform="matrix(0.707,-0.707,0.707,0.707,272.88,870.5245)" fill="#999999">04</text>
<text dominant-baseline="central" text-anchor="end" style="font-size:12px;font-family:sans-serif;" transform="matrix(0.707,-0.707,0.707,0.707,369.36,870.5245)" fill="#999999">13</text>
<text dominant-baseline="central" text-anchor="end" style="font-size:12px;font-family:sans-serif;" transform="matrix(0.707,-0.707,0.707,0.707,465.84,870.5245)" fill="#999999">10</text>
<text dominant-baseline="central" text-anchor="end" style="font-size:12px;font-family:sans-serif;" transform="matrix(0.707,-0.707,0.707,0.707,562.32,870.5245)" fill="#999999">13_V2</text>
<text dominant-baseline="central" text-anchor="end" style="font-size:12px;font-family:sans-serif;" transform="matrix(0.707,-0.707,0.707,0.707,658.8,870.5245)" fill="#999999">16</text>
<text dominant-baseline="central" text-anchor="end" style="font-size:12px;font-family:sans-serif;" transform="matrix(0.707,-0.707,0.707,0.707,755.28,870.5245)" fill="#999999">12</text>
<text dominant-baseline="central" text-anchor="end" style="font-size:12px;font-family:sans-serif;" transform="matrix(0.707,-0.707,0.707,0.707,851.76,870.5245)" fill="#999999">16_sync</text>
<path d="M151.4 812.4L201.4 812.4L201.4 802.4L151.4 802.4ZM176.4 812.4M176.4 802.4M151.4 812.4L201.4 812.4M151.4 802.4L201.4 802.4M151.4 807L201.4 807" fill="#fff" stroke="#3FB1E3" ecmeta_series_index="0" ecmeta_data_index="0" ecmeta_ssr_type="chart" class="zr1-cls-3"></path>
<path d="M247.9 372.2L297.9 372.2L297.9 347.3L247.9 347.3ZM272.9 372.2M272.9 347.3M247.9 372.2L297.9 372.2M247.9 347.3L297.9 347.3M247.9 354.5L297.9 354.5" fill="#fff" stroke="#3FB1E3" ecmeta_series_index="0" ecmeta_data_index="1" ecmeta_ssr_type="chart" class="zr1-cls-3"></path>
<path d="M344.4 346L394.4 346L394.4 293.4L344.4 293.4ZM369.4 346M369.4 293.4M344.4 346L394.4 346M344.4 293.4L394.4 293.4M344.4 336.8L394.4 336.8" fill="#fff" stroke="#3FB1E3" ecmeta_series_index="0" ecmeta_data_index="2" ecmeta_ssr_type="chart" class="zr1-cls-3"></path>
<path d="M440.8 402.1L490.8 402.1L490.8 223.1L440.8 223.1ZM465.8 402.1M465.8 223.1M440.8 402.1L490.8 402.1M440.8 223.1L490.8 223.1M440.8 300.4L490.8 300.4" fill="#fff" stroke="#3FB1E3" ecmeta_series_index="0" ecmeta_data_index="3" ecmeta_ssr_type="chart" class="zr1-cls-3"></path>
<path d="M537.3 279L587.3 279L587.3 265.8L537.3 265.8ZM562.3 279M562.3 265.8M537.3 279L587.3 279M537.3 265.8L587.3 265.8M537.3 278.2L587.3 278.2" fill="#fff" stroke="#3FB1E3" ecmeta_series_index="0" ecmeta_data_index="4" ecmeta_ssr_type="chart" class="zr1-cls-3"></path>
<path d="M633.8 221.9L683.8 221.9L683.8 196.2L633.8 196.2ZM658.8 221.9M658.8 196.2M633.8 221.9L683.8 221.9M633.8 196.2L683.8 196.2M633.8 215.6L683.8 215.6" fill="#fff" stroke="#3FB1E3" ecmeta_series_index="0" ecmeta_data_index="5" ecmeta_ssr_type="chart" class="zr1-cls-3"></path>
<path d="M730.3 185.3L780.3 185.3L780.3 143.2L730.3 143.2ZM755.3 185.3M755.3 143.2M730.3 185.3L780.3 185.3M730.3 143.2L780.3 143.2M730.3 164.1L780.3 164.1" fill="#fff" stroke="#3FB1E3" ecmeta_series_index="0" ecmeta_data_index="6" ecmeta_ssr_type="chart" class="zr1-cls-3"></path>
<path d="M826.8 159.7L876.8 159.7L876.8 144.7L826.8 144.7ZM851.8 159.7M851.8 144.7M826.8 159.7L876.8 159.7M826.8 144.7L876.8 144.7M826.8 152L876.8 152" fill="#fff" stroke="#3FB1E3" ecmeta_series_index="0" ecmeta_data_index="7" ecmeta_ssr_type="chart" class="zr1-cls-3"></path>
<path d="M-194.5 -5l389.1 0l0 28l-389.1 0Z" transform="translate(500 5)" fill="rgb(0,0,0)" fill-opacity="0" stroke="#ccc" stroke-width="0" class="zr1-cls-2"></path>
<text dominant-baseline="central" text-anchor="middle" style="font-size:18px;font-family:sans-serif;font-weight:bold;" xml:space="preserve" y="9" transform="translate(500 5)" fill="#666666">Benchmark Results - Effective UPS Distribution</text>
<style ><![CDATA[
.zr1-cls-2:hover {
pointer-events:none;
}
.zr1-cls-3:hover {
cursor:pointer;
fill:rgba(255,255,255,1);
stroke-width:2;
}

]]>

</style>
</svg>