<svg width="1000" height="1000" xmlns="http://www.w3.org/2000/svg" xmlns:xlink="http://www.w3.org/1999/xlink" version="1.1" baseProfile="full" viewBox="0 0 1000 1000">
<rect width="1000" height="1000" x="0" y="0" fill="rgb(252,252,252)" fill-opacity="0"></rect>
<path d="M103 950.5L960 950.5" fill="transparent" stroke="#eeeeee" class="zr2-cls-4"></path>
<path d="M103 839.5L960 839.5" fill="transparent" stroke="#eeeeee" class="zr2-cls-4"></path>
<path d="M103 727.5L960 727.5" fill="transparent" stroke="#eeeeee" class="zr2-cls-4"></path>
<path d="M103 616.5L960 616.5" fill="transparent" stroke="#eeeeee" class="zr2-cls-4"></path>
<path d="M103 505.5L960 505.5" fill="transparent" stroke="#eeeeee" class="zr2-cls-4"></path>
<path d="M103 394.5L960 394.5" fill="transparent" stroke="#eeeeee" class="zr2-cls-4"></path>
<path d="M103 282.5L960 282.5" fill="transparent" stroke="#eeeeee" class="zr2-cls-4"></path>
<path d="M103 171.5L960 171.5" fill="transparent" stroke="#eeeeee" class="zr2-cls-4"></path>
<path d="M103 60.5L960 60.5" fill="transparent" stroke="#eeeeee" class="zr2-cls-4"></path>
<path d="M103.5 950L103.5 60" fill="transparent" stroke="#cccccc" stroke-linecap="round" class="zr2-cls-4"></path>
<path d="M103 950.5L960 950.5" fill="transparent" stroke="#cccccc" stroke-linecap="round" class="zr2-cls-4"></path>
<text dominant-baseline="central" text-anchor="end" style="font-size:12px;font-family:sans-serif;" transform="translate(95.04 894.375)" fill="#999999">00_baseline</text>
<text dominant-baseline="central" text-anchor="end" style="font-size:12px;font-family:sans-serif;" transform="translate(95.04 783.125)" fill="#999999">04</text>
<text dominant-baseline="central" text-anchor="end" style="font-size:12px;font-family:sans-serif;" transform="translate(95.04 671.875)" fill="#999999">13</text>
<text dominant-baseline="central" text-anchor="end" style="font-size:12px;font-family:sans-serif;" transform="translate(95.04 560.625)" fill="#999999">10</text>
<text dominant-baseline="central" text-anchor="end" style="font-size:12px;font-family:sans-serif;" transform="translate(95.04 449.375)" fill="#999999">13_V2</text>
<text dominant-baseline="central" text-anchor="end" style="font-size:12px;font-family:sans-serif;" transform="translate(95.04 338.125)" fill="#999999">16</text>
<text dominant-baseline="central" text-anchor="end" style="font-size:12px;font-family:sans-serif;" transform="translate(95.04 226.875)" fill="#999999">12</text>
<text dominant-baseline="central" text-anchor="end" style="font-size:12px;font-family:sans-serif;" transform="translate(95.04 115.625)" fill="#999999">16_sync</text>
<text dominant-baseline="central" text-anchor="middle" style="font-size:12px;font-family:sans-serif;" y="6" transform="translate(103.04 958)" fill="#999999">0</text>
<text dominant-baseline="central" text-anchor="middle" style="font-size:12px;font-family:sans-serif;" y="6" transform="translate(225.4629 958)" fill="#999999">10</text>
<text dominant-baseline="central" text-anchor="middle" style="font-size:12px;font-family:sans-serif;" y="6" transform="translate(347.8857 958)" fill="#999999">20</text>
<text dominant-baseline="central" text-anchor="middle" style="font-size:12px;font-family:sans-serif;" y="6" transform="translate(470.3086 958)" fill="#999999">30</text>
<text dominant-baseline="central" text-anchor="middle" style="font-size:12px;font-family:sans-serif;" y="6" transform="translate(592.7314 958)" fill="#999999">40</text>
<text dominant-baseline="central" text-anchor="middle" style="font-size:12px;font-family:sans-serif;" y="6" transform="translate(715.1543 958)" fill="#999999">50</text>
<text dominant-baseline="central" text-anchor="middle" style="font-size:12px;font-family:sans-serif;" y="6" transform="translate(837.5771 958)" fill="#999999">60</text>
<text dominant-baseline="central" text-anchor="middle" style="font-size:12px;font-family:sans-serif;" y="6" transform="translate(960 958)" fill="#999999">70</text>
<path d="M103 856l0 0l0 76.8l0 0Z" fill="#3fb1e3" ecmeta_series_index="0" ecmeta_data_index="0" ecmeta_ssr_type="chart" class="zr2-cls-5"></path>
<path d="M103 744.7l568 0l0 76.8l-568 0Z" fill="#3fb1e3" ecmeta_series_index="0" ecmeta_data_index="1" ecmeta_ssr_type="chart" class="zr2-cls-5"></path>
<path d="M103 633.5l609.2 0l0 76.8l-609.2 0Z" fill="#3fb1e3" ecmeta_series_index="0" ecmeta_data_index="2" ecmeta_ssr_type="chart" class="zr2-cls-5"></path>
<path d="M103 522.2l630.5 0l0 76.8l-630.5 0Z" fill="#3fb1e3" ecmeta_series_index="0" ecmeta_data_index="3" ecmeta_ssr_type="chart" class="zr2-cls-5"></path>
<path d="M103 411l673.8 0l0 76.8l-673.8 0Z" fill="#3fb1e3" ecmeta_series_index="0" ecmeta_data_index="4" ecmeta_ssr_type="chart" class="zr2-cls-5"></path>
<path d="M103 299.7l753.5 0l0 76.8l-753.5 0Z" fill="#3fb1e3" ecmeta_series_index="0" ecmeta_data_index="5" ecmeta_ssr_type="chart" class="zr2-cls-5"></path>
<path d="M103 188.5l813 0l0 76.8l-813 0Z" fill="#3fb1e3" ecmeta_series_index="0" ecmeta_data_index="6" ecmeta_ssr_type="chart" class="zr2-cls-5"></path>
<path d="M103 77.2l828.3 0l0 76.8l-828.3 0Z" fill="#3fb1e3" ecmeta_series_index="0" ecmeta_data_index="7" ecmeta_ssr_type="chart" class="zr2-cls-5"></path>
<text dominant-baseline="central" text-anchor="middle" style="font-size:12px;font-family:sans-serif;" transform="translate(103.04 894.375)" fill="#333">0</text>
<text dominant-baseline="central" text-anchor="middle" style="font-size:12px;font-family:sans-serif;" transform="translate(387.061 783.125)" fill="#333">46.4</text>
<text dominant-baseline="central" text-anchor="middle" style="font-size:12px;font-family:sans-serif;" transform="translate(407.6281 671.875)" fill="#333">49.76</text>
<text dominant-baseline="central" text-anchor="middle" style="font-size:12px;font-family:sans-serif;" transform="translate(418.2789 560.625)" fill="#333">51.5</text>
<text dominant-baseline="central" text-anchor="middle" style="font-size:12px;font-family:sans-serif;" transform="translate(439.9477 449.375)" fill="#333">55.04</text>
<text dominant-baseline="central" text-anchor="middle" style="font-size:12px;font-family:sans-serif;" transform="translate(479.7963 338.125)" fill="#333">61.55</text>
<text dominant-baseline="central" text-anchor="middle" style="font-size:12px;font-family:sans-serif;" transform="translate(509.5451 226.875)" fill="#333">66.41</text>
<text dominant-baseline="central" text-anchor="middle" style="font-size:12px;font-family:sans-serif;" transform="translate(517.1965 115.625)" fill="#333">67.66</text>
<path d="M-192.6 -5l385.3 0l0 28l-385.3 0Z" transform="translate(500 5)" fill="rgb(0,0,0)" fill-opacity="0" stroke="#ccc" stroke-width="0" class="zr2-cls-4"></path>
<text dominant-baseline="central" text-anchor="middle" style="font-size:18px;font-family:sans-serif;font-weight:bold;" xml:space="preserve" y="9" transform="translate(500 5)" fill="#666666">Benchmark Results - Percentage Improvement</text>
<style ><![CDATA[
.zr2-cls-4:hover {
pointer-events:none;
}
.zr2-cls-5:hover {
cursor:pointer;
fill:rgba(69,194,249,1);
}

]]>

</style>
</svg>