<svg width="1000" height="1000" xmlns="http://www.w3.org/2000/svg" xmlns:xlink="http://www.w3.org/1999/xlink" version="1.1" baseProfile="full" viewBox="0 0 1000 1000">
<rect width="1000" height="1000" x="0" y="0" fill="rgb(252,252,252)" fill-opacity="0"></rect>
<path d="M103 950.5L960 950.5" fill="transparent" stroke="#eeeeee" class="zr2-cls-4"></path>
<path d="M103 772.5L960 772.5" fill="transparent" stroke="#eeeeee" class="zr2-cls-4"></path>
<path d="M103 594.5L960 594.5" fill="transparent" stroke="#eeeeee" class="zr2-cls-4"></path>
<path d="M103 416.5L960 416.5" fill="transparent" stroke="#eeeeee" class="zr2-cls-4"></path>
<path d="M103 238.5L960 238.5" fill="transparent" stroke="#eeeeee" class="zr2-cls-4"></path>
<path d="M103 60.5L960 60.5" fill="transparent" stroke="#eeeeee" class="zr2-cls-4"></path>
<path d="M103.5 950L103.5 60" fill="transparent" stroke="#cccccc" stroke-linecap="round" class="zr2-cls-4"></path>
<path d="M103 950.5L960 950.5" fill="transparent" stroke="#cccccc" stroke-linecap="round" class="zr2-cls-4"></path>
<text dominant-baseline="central" text-anchor="end" style="font-size:12px;font-family:sans-serif;" transform="translate(95.04 861)" fill="#999999">00_baseline</text>
<text dominant-baseline="central" text-anchor="end" style="font-size:12px;font-family:sans-serif;" transform="translate(95.04 683)" fill="#999999">17</text>
<text dominant-baseline="central" text-anchor="end" style="font-size:12px;font-family:sans-serif;" transform="translate(95.04 505)" fill="#999999">18</text>
<text dominant-baseline="central" text-anchor="end" style="font-size:12px;font-family:sans-serif;" transform="translate(95.04 327)" fill="#999999">16_sync</text>
<text dominant-baseline="central" text-anchor="end" style="font-size:12px;font-family:sans-serif;" transform="translate(95.04 149)" fill="#999999">12</text>
<text dominant-baseline="central" text-anchor="middle" style="font-size:12px;font-family:sans-serif;" y="6" transform="translate(103.04 958)" fill="#999999">0</text>
<text dominant-baseline="central" text-anchor="middle" style="font-size:12px;font-family:sans-serif;" y="6" transform="translate(225.4629 958)" fill="#999999">10</text>
<text dominant-baseline="central" text-anchor="middle" style="font-size:12px;font-family:sans-serif;" y="6" transform="translate(347.8857 958)" fill="#999999">20</text>
<text dominant-baseline="central" text-anchor="middle" style="font-size:12px;font-family:sans-serif;" y="6" transform="translate(470.3086 958)" fill="#999999">30</text>
<text dominant-baseline="central" text-anchor="middle" style="font-size:12px;font-family:sans-serif;" y="6" transform="translate(592.7314 958)" fill="#999999">40</text>
<text dominant-baseline="central" text-anchor="middle" style="font-size:12px;font-family:sans-serif;" y="6" transform="translate(715.1543 958)" fill="#999999">50</text>
<text dominant-baseline="central" text-anchor="middle" style="font-size:12px;font-family:sans-serif;" y="6" transform="translate(837.5771 958)" fill="#999999">60</text>
<text dominant-baseline="central" text-anchor="middle" style="font-size:12px;font-family:sans-serif;" y="6" transform="translate(960 958)" fill="#999999">70</text>
<path d="M103 799.6l0 0l0 122.8l0 0Z" fill="#3fb1e3" ecmeta_series_index="0" ecmeta_data_index="0" ecmeta_ssr_type="chart" class="zr2-cls-5"></path>
<path d="M103 621.6l746.3 0l0 122.8l-746.3 0Z" fill="#3fb1e3" ecmeta_series_index="0" ecmeta_data_index="1" ecmeta_ssr_type="chart" class="zr2-cls-5"></path>
<path d="M103 443.6l747.3 0l0 122.8l-747.3 0Z" fill="#3fb1e3" ecmeta_series_index="0" ecmeta_data_index="2" ecmeta_ssr_type="chart" class="zr2-cls-5"></path>
<path d="M103 265.6l790.7 0l0 122.8l-790.7 0Z" fill="#3fb1e3" ecmeta_series_index="0" ecmeta_data_index="3" ecmeta_ssr_type="chart" class="zr2-cls-5"></path>
<path d="M103 87.6l807.3 0l0 122.8l-807.3 0Z" fill="#3fb1e3" ecmeta_series_index="0" ecmeta_data_index="4" ecmeta_ssr_type="chart" class="zr2-cls-5"></path>
<text dominant-baseline="central" text-anchor="middle" style="font-size:12px;font-family:sans-serif;" transform="translate(103.04 861)" fill="#333">0</text>
<text dominant-baseline="central" text-anchor="middle" style="font-size:12px;font-family:sans-serif;" transform="translate(476.1849 683)" fill="#333">60.96</text>
<text dominant-baseline="central" text-anchor="middle" style="font-size:12px;font-family:sans-serif;" transform="translate(476.6746 505)" fill="#333">61.04</text>
<text dominant-baseline="central" text-anchor="middle" style="font-size:12px;font-family:sans-serif;" transform="translate(498.4046 327)" fill="#333">64.59</text>
<text dominant-baseline="central" text-anchor="middle" style="font-size:12px;font-family:sans-serif;" transform="translate(506.6682 149)" fill="#333">65.94</text>
<path d="M-192.6 -5l385.3 0l0 28l-385.3 0Z" transform="translate(500 5)" fill="rgb(0,0,0)" fill-opacity="0" stroke="#ccc" stroke-width="0" class="zr2-cls-4"></path>
<text dominant-baseline="central" text-anchor="middle" style="font-size:18px;font-family:sans-serif;font-weight:bold;" xml:space="preserve" y="9" transform="translate(500 5)" fill="#666666">Benchmark Results - Percentage Improvement</text>
<style ><![CDATA[
.zr2-cls-4:hover {
pointer-events:none;
}
.zr2-cls-5:hover {
cursor:pointer;
fill:rgba(69,194,249,1);
}

]]>

</style>
</svg>