<svg width="1000" height="1000" xmlns="http://www.w3.org/2000/svg" xmlns:xlink="http://www.w3.org/1999/xlink" version="1.1" baseProfile="full" viewBox="0 0 1000 1000">
<rect width="1000" height="1000" x="0" y="0" fill="rgb(252,252,252)" fill-opacity="0"></rect>
<path d="M138.5 60L138.5 745.6" fill="transparent" stroke="#eeeeee" class="zr1-cls-2"></path>
<path d="M247.5 60L247.5 745.6" fill="transparent" stroke="#eeeeee" class="zr1-cls-2"></path>
<path d="M356.5 60L356.5 745.6" fill="transparent" stroke="#eeeeee" class="zr1-cls-2"></path>
<path d="M464.5 60L464.5 745.6" fill="transparent" stroke="#eeeeee" class="zr1-cls-2"></path>
<path d="M573.5 60L573.5 745.6" fill="transparent" stroke="#eeeeee" class="zr1-cls-2"></path>
<path d="M682.5 60L682.5 745.6" fill="transparent" stroke="#eeeeee" class="zr1-cls-2"></path>
<path d="M791.5 60L791.5 745.6" fill="transparent" stroke="#eeeeee" class="zr1-cls-2"></path>
<path d="M900.5 60L900.5 745.6" fill="transparent" stroke="#eeeeee" class="zr1-cls-2"></path>
<path d="M138.5 745.6L138.5 60" fill="transparent" stroke="#cccccc" stroke-linecap="round" class="zr1-cls-2"></path>
<text dominant-baseline="central" text-anchor="middle" style="font-size:12px;font-family:sans-serif;" y="-6" transform="translate(138.24 45)" fill="#cccccc">UPS</text>
<path d="M138.2 745.5L900 745.5" fill="transparent" stroke="#cccccc" stroke-linecap="round" class="zr1-cls-2"></path>
<text dominant-baseline="central" text-anchor="end" style="font-size:12px;font-family:sans-serif;" transform="translate(130.24 745.5973)" fill="#999999">476</text>
<text dominant-baseline="central" text-anchor="end" style="font-size:12px;font-family:sans-serif;" transform="translate(130.24 608.4779)" fill="#999999">535.8</text>
<text dominant-baseline="central" text-anchor="end" style="font-size:12px;font-family:sans-serif;" transform="translate(130.24 471.3584)" fill="#999999">595.6</text>
<text dominant-baseline="central" text-anchor="end" style="font-size:12px;font-family:sans-serif;" transform="translate(130.24 334.2389)" fill="#999999">655.4</text>
<text dominant-baseline="central" text-anchor="end" style="font-size:12px;font-family:sans-serif;" transform="translate(130.24 197.1195)" fill="#999999">715.2</text>
<text dominant-baseline="central" text-anchor="end" style="font-size:12px;font-family:sans-serif;" transform="translate(130.24 60)" fill="#999999">775</text>
<text dominant-baseline="central" text-anchor="end" style="font-size:12px;font-family:sans-serif;" transform="matrix(0.707,-0.707,0.707,0.707,192.6514,753.5973)" fill="#999999">labs_mining_prod_no_clock_stack_16</text>
<text dominant-baseline="central" text-anchor="end" style="font-size:12px;font-family:sans-serif;" transform="matrix(0.707,-0.707,0.707,0.707,301.4743,753.5973)" fill="#999999">labs_mining_prod_clocked_bulk</text>
<text dominant-baseline="central" text-anchor="end" style="font-size:12px;font-family:sans-serif;" transform="matrix(0.707,-0.707,0.707,0.707,410.2971,753.5973)" fill="#999999">labs_mining_prod_lead_follow_multinet</text>
<text dominant-baseline="central" text-anchor="end" style="font-size:12px;font-family:sans-serif;" transform="matrix(0.707,-0.707,0.707,0.707,519.12,753.5973)" fill="#999999">labs_mining_prod_lead_follow_stack_4_12</text>
<text dominant-baseline="central" text-anchor="end" style="font-size:12px;font-family:sans-serif;" transform="matrix(0.707,-0.707,0.707,0.707,627.9429,753.5973)" fill="#999999">labs_mining_prod_lead_follow_bulk</text>
<text dominant-baseline="central" text-anchor="end" style="font-size:12px;font-family:sans-serif;" transform="matrix(0.707,-0.707,0.707,0.707,736.7657,753.5973)" fill="#999999">labs_mining_prod_lead_follow_stack_auto</text>
<text dominant-baseline="central" text-anchor="end" style="font-size:12px;font-family:sans-serif;" transform="matrix(0.707,-0.707,0.707,0.707,845.5886,753.5973)" fill="#999999">labs_mining_prod_lead_follow_stack_4_8</text>
<path d="M167.7 632.4L217.7 632.4L217.7 603.9L167.7 603.9ZM192.7 632.4M192.7 578.7L192.7 603.9M167.7 632.4L217.7 632.4M167.7 578.7L217.7 578.7M167.7 619.9L217.7 619.9" fill="#fff" stroke="#3FB1E3" ecmeta_series_index="0" ecmeta_data_index="0" ecmeta_ssr_type="chart" class="zr1-cls-3"></path>
<path d="M276.5 594.7L326.5 594.7L326.5 570.2L276.5 570.2ZM301.5 594.7M301.5 560.1L301.5 570.2M276.5 594.7L326.5 594.7M276.5 560.1L326.5 560.1M276.5 587.9L326.5 587.9" fill="#fff" stroke="#3FB1E3" ecmeta_series_index="0" ecmeta_data_index="1" ecmeta_ssr_type="chart" class="zr1-cls-3"></path>
<path d="M385.3 413.2L435.3 413.2L435.3 379.6L385.3 379.6ZM410.3 439.8L410.3 413.2M410.3 363.5L410.3 379.6M385.3 439.8L435.3 439.8M385.3 363.5L435.3 363.5M385.3 406.6L435.3 406.6" fill="#fff" stroke="#3FB1E3" ecmeta_series_index="0" ecmeta_data_index="2" ecmeta_ssr_type="chart" class="zr1-cls-3"></path>
<path d="M494.1 216.9L544.1 216.9L544.1 191.3L494.1 191.3ZM519.1 216.9M519.1 174.7L519.1 191.3M494.1 216.9L544.1 216.9M494.1 174.7L544.1 174.7M494.1 211L544.1 211" fill="#fff" stroke="#3FB1E3" ecmeta_series_index="0" ecmeta_data_index="3" ecmeta_ssr_type="chart" class="zr1-cls-3"></path>
<path d="M602.9 213.5L652.9 213.5L652.9 198.5L602.9 198.5ZM627.9 213.5M627.9 187.9L627.9 198.5M602.9 213.5L652.9 213.5M602.9 187.9L652.9 187.9M602.9 213.2L652.9 213.2" fill="#fff" stroke="#3FB1E3" ecmeta_series_index="0" ecmeta_data_index="4" ecmeta_ssr_type="chart" class="zr1-cls-3"></path>
<path d="M711.8 208.7L761.8 208.7L761.8 183.6L711.8 183.6ZM736.8 237.1L736.8 208.7M736.8 164.6L736.8 183.6M711.8 237.1L761.8 237.1M711.8 164.6L761.8 164.6M711.8 199.6L761.8 199.6" fill="#fff" stroke="#3FB1E3" ecmeta_series_index="0" ecmeta_data_index="5" ecmeta_ssr_type="chart" class="zr1-cls-3"></path>
<path d="M820.6 178.7L870.6 178.7L870.6 167.4L820.6 167.4ZM845.6 186.8L845.6 178.7M845.6 167.4M820.6 186.8L870.6 186.8M820.6 167.4L870.6 167.4M820.6 173.9L870.6 173.9" fill="#fff" stroke="#3FB1E3" ecmeta_series_index="0" ecmeta_data_index="6" ecmeta_ssr_type="chart" class="zr1-cls-3"></path>
<path d="M1 0A1 1 0 1 1 1 -0.1A1 1 0 0 1 1 0" transform="matrix(5,0,0,5,192.6514,686.5932)" fill="#3fb1e3" fill-opacity="0.8" stroke="#ccc" stroke-width="0" stroke-opacity="0.8" ecmeta_series_index="1" ecmeta_data_index="0" ecmeta_ssr_type="chart" class="zr1-cls-4"></path>
<path d="M1 0A1 1 0 1 1 1 -0.1A1 1 0 0 1 1 0" transform="matrix(5,0,0,5,301.4743,657.8758)" fill="#3fb1e3" fill-opacity="0.8" stroke="#ccc" stroke-width="0" stroke-opacity="0.8" ecmeta_series_index="1" ecmeta_data_index="1" ecmeta_ssr_type="chart" class="zr1-cls-4"></path>
<path d="M1 0A1 1 0 1 1 1 -0.1A1 1 0 0 1 1 0" transform="matrix(5,0,0,5,519.12,265.5309)" fill="#3fb1e3" fill-opacity="0.8" stroke="#ccc" stroke-width="0" stroke-opacity="0.8" ecmeta_series_index="1" ecmeta_data_index="2" ecmeta_ssr_type="chart" class="zr1-cls-4"></path>
<path d="M1 0A1 1 0 1 1 1 -0.1A1 1 0 0 1 1 0" transform="matrix(5,0,0,5,627.9429,243.8354)" fill="#3fb1e3" fill-opacity="0.8" stroke="#ccc" stroke-width="0" stroke-opacity="0.8" ecmeta_series_index="1" ecmeta_data_index="3" ecmeta_ssr_type="chart" class="zr1-cls-4"></path>
<path d="M1 0A1 1 0 1 1 1 -0.1A1 1 0 0 1 1 0" transform="matrix(5,0,0,5,845.5886,144.9755)" fill="#3fb1e3" fill-opacity="0.8" stroke="#ccc" stroke-width="0" stroke-opacity="0.8" ecmeta_series_index="1" ecmeta_data_index="4" ecmeta_ssr_type="chart" class="zr1-cls-4"></path>
<path d="M-194.5 -5l389.1 0l0 28l-389.1 0Z" transform="translate(500 5)" fill="rgb(0,0,0)" fill-opacity="0" stroke="#ccc" stroke-width="0" class="zr1-cls-2"></path>
<text dominant-baseline="central" text-anchor="middle" style="font-size:18px;font-family:sans-serif;font-weight:bold;" xml:space="preserve" y="9" transform="translate(500 5)" fill="#666666">Benchmark Results - Effective UPS Distribution</text>
<style ><![CDATA[
.zr1-cls-2:hover {
pointer-events:none;
}
.zr1-cls-3:hover {
cursor:pointer;
fill:rgba(255,255,255,1);
stroke-width:2;
}
.zr1-cls-4:hover {
cursor:pointer;
fill:rgba(69,194,249,1);
}

]]>

</style>
</svg>