<svg width="1000" height="1000" xmlns="http://www.w3.org/2000/svg" xmlns:xlink="http://www.w3.org/1999/xlink" version="1.1" baseProfile="full" viewBox="0 0 1000 1000">
<rect width="1000" height="1000" x="0" y="0" fill="rgb(252,252,252)" fill-opacity="0"></rect>
<path d="M128.5 60L128.5 880.5" fill="transparent" stroke="#eeeeee" class="zr1-cls-2"></path>
<path d="M321.5 60L321.5 880.5" fill="transparent" stroke="#eeeeee" class="zr1-cls-2"></path>
<path d="M514.5 60L514.5 880.5" fill="transparent" stroke="#eeeeee" class="zr1-cls-2"></path>
<path d="M707.5 60L707.5 880.5" fill="transparent" stroke="#eeeeee" class="zr1-cls-2"></path>
<path d="M900.5 60L900.5 880.5" fill="transparent" stroke="#eeeeee" class="zr1-cls-2"></path>
<path d="M128.5 880.5L128.5 60" fill="transparent" stroke="#cccccc" stroke-linecap="round" class="zr1-cls-2"></path>
<text dominant-baseline="central" text-anchor="middle" style="font-size:12px;font-family:sans-serif;" y="-6" transform="translate(128.16 45)" fill="#cccccc">UPS</text>
<path d="M128.2 880.5L900 880.5" fill="transparent" stroke="#cccccc" stroke-linecap="round" class="zr1-cls-2"></path>
<text dominant-baseline="central" text-anchor="end" style="font-size:12px;font-family:sans-serif;" transform="translate(120.16 880.5133)" fill="#999999">689</text>
<text dominant-baseline="central" text-anchor="end" style="font-size:12px;font-family:sans-serif;" transform="translate(120.16 716.4106)" fill="#999999">742</text>
<text dominant-baseline="central" text-anchor="end" style="font-size:12px;font-family:sans-serif;" transform="translate(120.16 552.308)" fill="#999999">795</text>
<text dominant-baseline="central" text-anchor="end" style="font-size:12px;font-family:sans-serif;" transform="translate(120.16 388.2053)" fill="#999999">848</text>
<text dominant-baseline="central" text-anchor="end" style="font-size:12px;font-family:sans-serif;" transform="translate(120.16 224.1027)" fill="#999999">901</text>
<text dominant-baseline="central" text-anchor="end" style="font-size:12px;font-family:sans-serif;" transform="translate(120.16 60)" fill="#999999">954</text>
<text dominant-baseline="central" text-anchor="end" style="font-size:12px;font-family:sans-serif;" transform="matrix(0.707,-0.707,0.707,0.707,224.64,888.5133)" fill="#999999">test_01</text>
<text dominant-baseline="central" text-anchor="end" style="font-size:12px;font-family:sans-serif;" transform="matrix(0.707,-0.707,0.707,0.707,417.6,888.5133)" fill="#999999">test_02</text>
<text dominant-baseline="central" text-anchor="end" style="font-size:12px;font-family:sans-serif;" transform="matrix(0.707,-0.707,0.707,0.707,610.56,888.5133)" fill="#999999">test_04</text>
<text dominant-baseline="central" text-anchor="end" style="font-size:12px;font-family:sans-serif;" transform="matrix(0.707,-0.707,0.707,0.707,803.52,888.5133)" fill="#999999">test_03</text>
<path d="M199.6 755.6L249.6 755.6L249.6 732.9L199.6 732.9ZM224.6 768.1L224.6 755.6M224.6 732.9M199.6 768.1L249.6 768.1M199.6 732.9L249.6 732.9M199.6 744.8L249.6 744.8" fill="#fff" stroke="#3FB1E3" ecmeta_series_index="0" ecmeta_data_index="0" ecmeta_ssr_type="chart" class="zr1-cls-3"></path>
<path d="M392.6 463.8L442.6 463.8L442.6 411L392.6 411ZM417.6 481.4L417.6 463.8M417.6 411M392.6 481.4L442.6 481.4M392.6 411L442.6 411M392.6 460.3L442.6 460.3" fill="#fff" stroke="#3FB1E3" ecmeta_series_index="0" ecmeta_data_index="1" ecmeta_ssr_type="chart" class="zr1-cls-3"></path>
<path d="M585.6 432.9L635.6 432.9L635.6 412.8L585.6 412.8ZM610.6 442L610.6 432.9M610.6 412.8M585.6 442L635.6 442M585.6 412.8L635.6 412.8M585.6 419.6L635.6 419.6" fill="#fff" stroke="#3FB1E3" ecmeta_series_index="0" ecmeta_data_index="2" ecmeta_ssr_type="chart" class="zr1-cls-3"></path>
<path d="M778.5 339.2L828.5 339.2L828.5 309.1L778.5 309.1ZM803.5 363.2L803.5 339.2M803.5 309.1M778.5 363.2L828.5 363.2M778.5 309.1L828.5 309.1M778.5 312L828.5 312" fill="#fff" stroke="#3FB1E3" ecmeta_series_index="0" ecmeta_data_index="3" ecmeta_ssr_type="chart" class="zr1-cls-3"></path>
<path d="M1 0A1 1 0 1 1 1 -0.1A1 1 0 0 1 1 0" transform="matrix(5,0,0,5,224.64,616.3376)" fill="#3fb1e3" fill-opacity="0.8" stroke="#ccc" stroke-width="0" stroke-opacity="0.8" ecmeta_series_index="1" ecmeta_data_index="0" ecmeta_ssr_type="chart" class="zr1-cls-4"></path>
<path d="M1 0A1 1 0 1 1 1 -0.1A1 1 0 0 1 1 0" transform="matrix(5,0,0,5,417.6,324.5936)" fill="#3fb1e3" fill-opacity="0.8" stroke="#ccc" stroke-width="0" stroke-opacity="0.8" ecmeta_series_index="1" ecmeta_data_index="1" ecmeta_ssr_type="chart" class="zr1-cls-4"></path>
<path d="M1 0A1 1 0 1 1 1 -0.1A1 1 0 0 1 1 0" transform="matrix(5,0,0,5,610.56,304.5211)" fill="#3fb1e3" fill-opacity="0.8" stroke="#ccc" stroke-width="0" stroke-opacity="0.8" ecmeta_series_index="1" ecmeta_data_index="2" ecmeta_ssr_type="chart" class="zr1-cls-4"></path>
<path d="M1 0A1 1 0 1 1 1 -0.1A1 1 0 0 1 1 0" transform="matrix(5,0,0,5,803.52,201.925)" fill="#3fb1e3" fill-opacity="0.8" stroke="#ccc" stroke-width="0" stroke-opacity="0.8" ecmeta_series_index="1" ecmeta_data_index="3" ecmeta_ssr_type="chart" class="zr1-cls-4"></path>
<path d="M-194.5 -5l389.1 0l0 28l-389.1 0Z" transform="translate(500 5)" fill="rgb(0,0,0)" fill-opacity="0" stroke="#ccc" stroke-width="0" class="zr1-cls-2"></path>
<text dominant-baseline="central" text-anchor="middle" style="font-size:18px;font-family:sans-serif;font-weight:bold;" xml:space="preserve" y="9" transform="translate(500 5)" fill="#666666">Benchmark Results - Effective UPS Distribution</text>
<style ><![CDATA[
.zr1-cls-2:hover {
pointer-events:none;
}
.zr1-cls-3:hover {
cursor:pointer;
fill:rgba(255,255,255,1);
stroke-width:2;
}
.zr1-cls-4:hover {
cursor:pointer;
fill:rgba(69,194,249,1);
}

]]>

</style>
</svg>