<svg width="1000" height="1000" xmlns="http://www.w3.org/2000/svg" xmlns:xlink="http://www.w3.org/1999/xlink" version="1.1" baseProfile="full" viewBox="0 0 1000 1000">
<rect width="1000" height="1000" x="0" y="0" fill="rgb(252,252,252)" fill-opacity="0"></rect>
<path d="M138.5 60L138.5 816.2" fill="transparent" stroke="#eeeeee" class="zr1-cls-2"></path>
<path d="M163.5 60L163.5 816.2" fill="transparent" stroke="#eeeeee" class="zr1-cls-2"></path>
<path d="M189.5 60L189.5 816.2" fill="transparent" stroke="#eeeeee" class="zr1-cls-2"></path>
<path d="M214.5 60L214.5 816.2" fill="transparent" stroke="#eeeeee" class="zr1-cls-2"></path>
<path d="M240.5 60L240.5 816.2" fill="transparent" stroke="#eeeeee" class="zr1-cls-2"></path>
<path d="M265.5 60L265.5 816.2" fill="transparent" stroke="#eeeeee" class="zr1-cls-2"></path>
<path d="M290.5 60L290.5 816.2" fill="transparent" stroke="#eeeeee" class="zr1-cls-2"></path>
<path d="M316.5 60L316.5 816.2" fill="transparent" stroke="#eeeeee" class="zr1-cls-2"></path>
<path d="M341.5 60L341.5 816.2" fill="transparent" stroke="#eeeeee" class="zr1-cls-2"></path>
<path d="M367.5 60L367.5 816.2" fill="transparent" stroke="#eeeeee" class="zr1-cls-2"></path>
<path d="M392.5 60L392.5 816.2" fill="transparent" stroke="#eeeeee" class="zr1-cls-2"></path>
<path d="M417.5 60L417.5 816.2" fill="transparent" stroke="#eeeeee" class="zr1-cls-2"></path>
<path d="M443.5 60L443.5 816.2" fill="transparent" stroke="#eeeeee" class="zr1-cls-2"></path>
<path d="M468.5 60L468.5 816.2" fill="transparent" stroke="#eeeeee" class="zr1-cls-2"></path>
<path d="M493.5 60L493.5 816.2" fill="transparent" stroke="#eeeeee" class="zr1-cls-2"></path>
<path d="M519.5 60L519.5 816.2" fill="transparent" stroke="#eeeeee" class="zr1-cls-2"></path>
<path d="M544.5 60L544.5 816.2" fill="transparent" stroke="#eeeeee" class="zr1-cls-2"></path>
<path d="M570.5 60L570.5 816.2" fill="transparent" stroke="#eeeeee" class="zr1-cls-2"></path>
<path d="M595.5 60L595.5 816.2" fill="transparent" stroke="#eeeeee" class="zr1-cls-2"></path>
<path d="M620.5 60L620.5 816.2" fill="transparent" stroke="#eeeeee" class="zr1-cls-2"></path>
<path d="M646.5 60L646.5 816.2" fill="transparent" stroke="#eeeeee" class="zr1-cls-2"></path>
<path d="M671.5 60L671.5 816.2" fill="transparent" stroke="#eeeeee" class="zr1-cls-2"></path>
<path d="M697.5 60L697.5 816.2" fill="transparent" stroke="#eeeeee" class="zr1-cls-2"></path>
<path d="M722.5 60L722.5 816.2" fill="transparent" stroke="#eeeeee" class="zr1-cls-2"></path>
<path d="M747.5 60L747.5 816.2" fill="transparent" stroke="#eeeeee" class="zr1-cls-2"></path>
<path d="M773.5 60L773.5 816.2" fill="transparent" stroke="#eeeeee" class="zr1-cls-2"></path>
<path d="M798.5 60L798.5 816.2" fill="transparent" stroke="#eeeeee" class="zr1-cls-2"></path>
<path d="M824.5 60L824.5 816.2" fill="transparent" stroke="#eeeeee" class="zr1-cls-2"></path>
<path d="M849.5 60L849.5 816.2" fill="transparent" stroke="#eeeeee" class="zr1-cls-2"></path>
<path d="M874.5 60L874.5 816.2" fill="transparent" stroke="#eeeeee" class="zr1-cls-2"></path>
<path d="M900.5 60L900.5 816.2" fill="transparent" stroke="#eeeeee" class="zr1-cls-2"></path>
<path d="M138.5 816.2L138.5 60" fill="transparent" stroke="#cccccc" stroke-linecap="round" class="zr1-cls-2"></path>
<text dominant-baseline="central" text-anchor="middle" style="font-size:12px;font-family:sans-serif;" y="-6" transform="translate(138.24 45)" fill="#cccccc">UPS</text>
<path d="M138.2 816.5L900 816.5" fill="transparent" stroke="#cccccc" stroke-linecap="round" class="zr1-cls-2"></path>
<text dominant-baseline="central" text-anchor="end" style="font-size:12px;font-family:sans-serif;" transform="translate(130.24 816.1949)" fill="#999999">181</text>
<text dominant-baseline="central" text-anchor="end" style="font-size:12px;font-family:sans-serif;" transform="translate(130.24 664.9559)" fill="#999999">275.4</text>
<text dominant-baseline="central" text-anchor="end" style="font-size:12px;font-family:sans-serif;" transform="translate(130.24 513.7169)" fill="#999999">369.8</text>
<text dominant-baseline="central" text-anchor="end" style="font-size:12px;font-family:sans-serif;" transform="translate(130.24 362.4779)" fill="#999999">464.2</text>
<text dominant-baseline="central" text-anchor="end" style="font-size:12px;font-family:sans-serif;" transform="translate(130.24 211.239)" fill="#999999">558.6</text>
<text dominant-baseline="central" text-anchor="end" style="font-size:12px;font-family:sans-serif;" transform="translate(130.24 60)" fill="#999999">653</text>
<text dominant-baseline="central" text-anchor="end" style="font-size:12px;font-family:sans-serif;" transform="matrix(0.707,-0.707,0.707,0.707,150.936,824.1949)" fill="#999999">03_swiftdeath007</text>
<text dominant-baseline="central" text-anchor="end" style="font-size:12px;font-family:sans-serif;" transform="matrix(0.707,-0.707,0.707,0.707,176.328,824.1949)" fill="#999999">19_werezwolf</text>
<text dominant-baseline="central" text-anchor="end" style="font-size:12px;font-family:sans-serif;" transform="matrix(0.707,-0.707,0.707,0.707,201.72,824.1949)" fill="#999999">31_minebuilder</text>
<text dominant-baseline="central" text-anchor="end" style="font-size:12px;font-family:sans-serif;" transform="matrix(0.707,-0.707,0.707,0.707,227.112,824.1949)" fill="#999999">04_swiftdeath007</text>
<text dominant-baseline="central" text-anchor="end" style="font-size:12px;font-family:sans-serif;" transform="matrix(0.707,-0.707,0.707,0.707,252.504,824.1949)" fill="#999999">11_theflyingcurryfish154</text>
<text dominant-baseline="central" text-anchor="end" style="font-size:12px;font-family:sans-serif;" transform="matrix(0.707,-0.707,0.707,0.707,277.896,824.1949)" fill="#999999">20_toda1</text>
<text dominant-baseline="central" text-anchor="end" style="font-size:12px;font-family:sans-serif;" transform="matrix(0.707,-0.707,0.707,0.707,303.288,824.1949)" fill="#999999">16_yuu_with_ships</text>
<text dominant-baseline="central" text-anchor="end" style="font-size:12px;font-family:sans-serif;" transform="matrix(0.707,-0.707,0.707,0.707,328.68,824.1949)" fill="#999999">15_yuu</text>
<text dominant-baseline="central" text-anchor="end" style="font-size:12px;font-family:sans-serif;" transform="matrix(0.707,-0.707,0.707,0.707,354.072,824.1949)" fill="#999999">29_geist</text>
<text dominant-baseline="central" text-anchor="end" style="font-size:12px;font-family:sans-serif;" transform="matrix(0.707,-0.707,0.707,0.707,379.464,824.1949)" fill="#999999">34_osboz</text>
<text dominant-baseline="central" text-anchor="end" style="font-size:12px;font-family:sans-serif;" transform="matrix(0.707,-0.707,0.707,0.707,404.856,824.1949)" fill="#999999">22_mcmayhem57</text>
<text dominant-baseline="central" text-anchor="end" style="font-size:12px;font-family:sans-serif;" transform="matrix(0.707,-0.707,0.707,0.707,430.248,824.1949)" fill="#999999">05_derantrix</text>
<text dominant-baseline="central" text-anchor="end" style="font-size:12px;font-family:sans-serif;" transform="matrix(0.707,-0.707,0.707,0.707,455.64,824.1949)" fill="#999999">23_mcmayhem57</text>
<text dominant-baseline="central" text-anchor="end" style="font-size:12px;font-family:sans-serif;" transform="matrix(0.707,-0.707,0.707,0.707,481.032,824.1949)" fill="#999999">00_baseline_with_ships</text>
<text dominant-baseline="central" text-anchor="end" style="font-size:12px;font-family:sans-serif;" transform="matrix(0.707,-0.707,0.707,0.707,506.424,824.1949)" fill="#999999">00_baseline</text>
<text dominant-baseline="central" text-anchor="end" style="font-size:12px;font-family:sans-serif;" transform="matrix(0.707,-0.707,0.707,0.707,531.816,824.1949)" fill="#999999">26_mrcooki4</text>
<text dominant-baseline="central" text-anchor="end" style="font-size:12px;font-family:sans-serif;" transform="matrix(0.707,-0.707,0.707,0.707,557.208,824.1949)" fill="#999999">27_geist</text>
<text dominant-baseline="central" text-anchor="end" style="font-size:12px;font-family:sans-serif;" transform="matrix(0.707,-0.707,0.707,0.707,582.6,824.1949)" fill="#999999">28_geist</text>
<text dominant-baseline="central" text-anchor="end" style="font-size:12px;font-family:sans-serif;" transform="matrix(0.707,-0.707,0.707,0.707,607.992,824.1949)" fill="#999999">30_reja</text>
<text dominant-baseline="central" text-anchor="end" style="font-size:12px;font-family:sans-serif;" transform="matrix(0.707,-0.707,0.707,0.707,633.384,824.1949)" fill="#999999">09_jobo</text>
<text dominant-baseline="central" text-anchor="end" style="font-size:12px;font-family:sans-serif;" transform="matrix(0.707,-0.707,0.707,0.707,658.776,824.1949)" fill="#999999">32_reja</text>
<text dominant-baseline="central" text-anchor="end" style="font-size:12px;font-family:sans-serif;" transform="matrix(0.707,-0.707,0.707,0.707,684.168,824.1949)" fill="#999999">35_henryjk</text>
<text dominant-baseline="central" text-anchor="end" style="font-size:12px;font-family:sans-serif;" transform="matrix(0.707,-0.707,0.707,0.707,709.56,824.1949)" fill="#999999">16_yuu</text>
<text dominant-baseline="central" text-anchor="end" style="font-size:12px;font-family:sans-serif;" transform="matrix(0.707,-0.707,0.707,0.707,734.952,824.1949)" fill="#999999">13_phlap</text>
<text dominant-baseline="central" text-anchor="end" style="font-size:12px;font-family:sans-serif;" transform="matrix(0.707,-0.707,0.707,0.707,760.344,824.1949)" fill="#999999">14_abucnasty</text>
<text dominant-baseline="central" text-anchor="end" style="font-size:12px;font-family:sans-serif;" transform="matrix(0.707,-0.707,0.707,0.707,785.736,824.1949)" fill="#999999">18_lady_meyneth</text>
<text dominant-baseline="central" text-anchor="end" style="font-size:12px;font-family:sans-serif;" transform="matrix(0.707,-0.707,0.707,0.707,811.128,824.1949)" fill="#999999">06_imp</text>
<text dominant-baseline="central" text-anchor="end" style="font-size:12px;font-family:sans-serif;" transform="matrix(0.707,-0.707,0.707,0.707,836.52,824.1949)" fill="#999999">08_lady_meyneth</text>
<text dominant-baseline="central" text-anchor="end" style="font-size:12px;font-family:sans-serif;" transform="matrix(0.707,-0.707,0.707,0.707,861.912,824.1949)" fill="#999999">12_phlap</text>
<text dominant-baseline="central" text-anchor="end" style="font-size:12px;font-family:sans-serif;" transform="matrix(0.707,-0.707,0.707,0.707,887.304,824.1949)" fill="#999999">01_undertow</text>
<path d="M141.8 800.3L160.1 800.3L160.1 798.2L141.8 798.2ZM150.9 800.7L150.9 800.3M150.9 798L150.9 798.2M141.8 800.7L160.1 800.7M141.8 798L160.1 798M141.8 798.2L160.1 798.2" fill="#fff" stroke="#3FB1E3" ecmeta_series_index="0" ecmeta_data_index="0" ecmeta_ssr_type="chart" class="zr1-cls-3"></path>
<path d="M167.2 671.5L185.5 671.5L185.5 662.3L167.2 662.3ZM176.3 679L176.3 671.5M176.3 660.4L176.3 662.3M167.2 679L185.5 679M167.2 660.4L185.5 660.4M167.2 666.6L185.5 666.6" fill="#fff" stroke="#3FB1E3" ecmeta_series_index="0" ecmeta_data_index="1" ecmeta_ssr_type="chart" class="zr1-cls-3"></path>
<path d="M192.6 612.7L210.9 612.7L210.9 610.9L192.6 610.9ZM201.7 612.7M201.7 609.9L201.7 610.9M192.6 612.7L210.9 612.7M192.6 609.9L210.9 609.9M192.6 612.4L210.9 612.4" fill="#fff" stroke="#3FB1E3" ecmeta_series_index="0" ecmeta_data_index="2" ecmeta_ssr_type="chart" class="zr1-cls-3"></path>
<path d="M218 590.3L236.3 590.3L236.3 581.2L218 581.2ZM227.1 592.2L227.1 590.3M227.1 576.4L227.1 581.2M218 592.2L236.3 592.2M218 576.4L236.3 576.4M218 587L236.3 587" fill="#fff" stroke="#3FB1E3" ecmeta_series_index="0" ecmeta_data_index="3" ecmeta_ssr_type="chart" class="zr1-cls-3"></path>
<path d="M243.3 563.3L261.7 563.3L261.7 557.3L243.3 557.3ZM252.5 570.8L252.5 563.3M252.5 555.8L252.5 557.3M243.3 570.8L261.7 570.8M243.3 555.8L261.7 555.8M243.3 561.1L261.7 561.1" fill="#fff" stroke="#3FB1E3" ecmeta_series_index="0" ecmeta_data_index="4" ecmeta_ssr_type="chart" class="zr1-cls-3"></path>
<path d="M268.7 530.5L287.1 530.5L287.1 520.7L268.7 520.7ZM277.9 537L277.9 530.5M277.9 507L277.9 520.7M268.7 537L287.1 537M268.7 507L287.1 507M268.7 526.4L287.1 526.4" fill="#fff" stroke="#3FB1E3" ecmeta_series_index="0" ecmeta_data_index="5" ecmeta_ssr_type="chart" class="zr1-cls-3"></path>
<path d="M294.1 510.2L312.4 510.2L312.4 505L294.1 505ZM303.3 516.1L303.3 510.2M303.3 502.4L303.3 505M294.1 516.1L312.4 516.1M294.1 502.4L312.4 502.4M294.1 508.5L312.4 508.5" fill="#fff" stroke="#3FB1E3" ecmeta_series_index="0" ecmeta_data_index="6" ecmeta_ssr_type="chart" class="zr1-cls-3"></path>
<path d="M319.5 488.9L337.8 488.9L337.8 478.2L319.5 478.2ZM328.7 500.9L328.7 488.9M328.7 477.9L328.7 478.2M319.5 500.9L337.8 500.9M319.5 477.9L337.8 477.9M319.5 480.1L337.8 480.1" fill="#fff" stroke="#3FB1E3" ecmeta_series_index="0" ecmeta_data_index="7" ecmeta_ssr_type="chart" class="zr1-cls-3"></path>
<path d="M344.9 476.8L363.2 476.8L363.2 471.5L344.9 471.5ZM354.1 476.8M354.1 471.5M344.9 476.8L363.2 476.8M344.9 471.5L363.2 471.5M344.9 475.6L363.2 475.6" fill="#fff" stroke="#3FB1E3" ecmeta_series_index="0" ecmeta_data_index="8" ecmeta_ssr_type="chart" class="zr1-cls-3"></path>
<path d="M370.3 445.6L388.6 445.6L388.6 441.5L370.3 441.5ZM379.5 448L379.5 445.6M379.5 441.5M370.3 448L388.6 448M370.3 441.5L388.6 441.5M370.3 443.2L388.6 443.2" fill="#fff" stroke="#3FB1E3" ecmeta_series_index="0" ecmeta_data_index="9" ecmeta_ssr_type="chart" class="zr1-cls-3"></path>
<path d="M395.7 412.3L414 412.3L414 399.8L395.7 399.8ZM404.9 423L404.9 412.3M404.9 397.3L404.9 399.8M395.7 423L414 423M395.7 397.3L414 397.3M395.7 409L414 409" fill="#fff" stroke="#3FB1E3" ecmeta_series_index="0" ecmeta_data_index="10" ecmeta_ssr_type="chart" class="zr1-cls-3"></path>
<path d="M421.1 387.6L439.4 387.6L439.4 383.1L421.1 383.1ZM430.2 387.6M430.2 383.1M421.1 387.6L439.4 387.6M421.1 383.1L439.4 383.1M421.1 387L439.4 387" fill="#fff" stroke="#3FB1E3" ecmeta_series_index="0" ecmeta_data_index="11" ecmeta_ssr_type="chart" class="zr1-cls-3"></path>
<path d="M446.5 370.1L464.8 370.1L464.8 360.1L446.5 360.1ZM455.6 372.4L455.6 370.1M455.6 354.7L455.6 360.1M446.5 372.4L464.8 372.4M446.5 354.7L464.8 354.7M446.5 361.8L464.8 361.8" fill="#fff" stroke="#3FB1E3" ecmeta_series_index="0" ecmeta_data_index="12" ecmeta_ssr_type="chart" class="zr1-cls-3"></path>
<path d="M471.9 364.3L490.2 364.3L490.2 360.1L471.9 360.1ZM481 365.5L481 364.3M481 358L481 360.1M471.9 365.5L490.2 365.5M471.9 358L490.2 358M471.9 362.2L490.2 362.2" fill="#fff" stroke="#3FB1E3" ecmeta_series_index="0" ecmeta_data_index="13" ecmeta_ssr_type="chart" class="zr1-cls-3"></path>
<path d="M497.3 357L515.6 357L515.6 347.7L497.3 347.7ZM506.4 362.1L506.4 357M506.4 347.7M497.3 362.1L515.6 362.1M497.3 347.7L515.6 347.7M497.3 355.5L515.6 355.5" fill="#fff" stroke="#3FB1E3" ecmeta_series_index="0" ecmeta_data_index="14" ecmeta_ssr_type="chart" class="zr1-cls-3"></path>
<path d="M522.7 349.6L541 349.6L541 346.5L522.7 346.5ZM531.8 349.6M531.8 343.9L531.8 346.5M522.7 349.6L541 349.6M522.7 343.9L541 343.9M522.7 348.1L541 348.1" fill="#fff" stroke="#3FB1E3" ecmeta_series_index="0" ecmeta_data_index="15" ecmeta_ssr_type="chart" class="zr1-cls-3"></path>
<path d="M548.1 316.6L566.4 316.6L566.4 305.5L548.1 305.5ZM557.2 319.6L557.2 316.6M557.2 305.5M548.1 319.6L566.4 319.6M548.1 305.5L566.4 305.5M548.1 312.9L566.4 312.9" fill="#fff" stroke="#3FB1E3" ecmeta_series_index="0" ecmeta_data_index="16" ecmeta_ssr_type="chart" class="zr1-cls-3"></path>
<path d="M573.4 318L591.8 318L591.8 292.1L573.4 292.1ZM582.6 321.8L582.6 318M582.6 290.3L582.6 292.1M573.4 321.8L591.8 321.8M573.4 290.3L591.8 290.3M573.4 314.2L591.8 314.2" fill="#fff" stroke="#3FB1E3" ecmeta_series_index="0" ecmeta_data_index="17" ecmeta_ssr_type="chart" class="zr1-cls-3"></path>
<path d="M598.8 298.9L617.1 298.9L617.1 293.5L598.8 293.5ZM608 299L608 298.9M608 292.9L608 293.5M598.8 299L617.1 299M598.8 292.9L617.1 292.9M598.8 294.5L617.1 294.5" fill="#fff" stroke="#3FB1E3" ecmeta_series_index="0" ecmeta_data_index="18" ecmeta_ssr_type="chart" class="zr1-cls-3"></path>
<path d="M624.2 295.7L642.5 295.7L642.5 294L624.2 294ZM633.4 296.4L633.4 295.7M633.4 294M624.2 296.4L642.5 296.4M624.2 294L642.5 294M624.2 294.2L642.5 294.2" fill="#fff" stroke="#3FB1E3" ecmeta_series_index="0" ecmeta_data_index="19" ecmeta_ssr_type="chart" class="zr1-cls-3"></path>
<path d="M649.6 291.2L667.9 291.2L667.9 285.4L649.6 285.4ZM658.8 293.5L658.8 291.2M658.8 285.4M649.6 293.5L667.9 293.5M649.6 285.4L667.9 285.4M649.6 288.8L667.9 288.8" fill="#fff" stroke="#3FB1E3" ecmeta_series_index="0" ecmeta_data_index="20" ecmeta_ssr_type="chart" class="zr1-cls-3"></path>
<path d="M675 284.3L693.3 284.3L693.3 279.8L675 279.8ZM684.2 284.3M684.2 279.3L684.2 279.8M675 284.3L693.3 284.3M675 279.3L693.3 279.3M675 283.1L693.3 283.1" fill="#fff" stroke="#3FB1E3" ecmeta_series_index="0" ecmeta_data_index="21" ecmeta_ssr_type="chart" class="zr1-cls-3"></path>
<path d="M700.4 281.5L718.7 281.5L718.7 276.8L700.4 276.8ZM709.6 282.5L709.6 281.5M709.6 274.1L709.6 276.8M700.4 282.5L718.7 282.5M700.4 274.1L718.7 274.1M700.4 280.5L718.7 280.5" fill="#fff" stroke="#3FB1E3" ecmeta_series_index="0" ecmeta_data_index="22" ecmeta_ssr_type="chart" class="zr1-cls-3"></path>
<path d="M725.8 258.7L744.1 258.7L744.1 257.6L725.8 257.6ZM735 260.2L735 258.7M735 257.6M725.8 260.2L744.1 260.2M725.8 257.6L744.1 257.6M725.8 258.5L744.1 258.5" fill="#fff" stroke="#3FB1E3" ecmeta_series_index="0" ecmeta_data_index="23" ecmeta_ssr_type="chart" class="zr1-cls-3"></path>
<path d="M751.2 219.3L769.5 219.3L769.5 211.4L751.2 211.4ZM760.3 220.5L760.3 219.3M760.3 204L760.3 211.4M751.2 220.5L769.5 220.5M751.2 204L769.5 204M751.2 212.8L769.5 212.8" fill="#fff" stroke="#3FB1E3" ecmeta_series_index="0" ecmeta_data_index="24" ecmeta_ssr_type="chart" class="zr1-cls-3"></path>
<path d="M776.6 202.5L794.9 202.5L794.9 201.5L776.6 201.5ZM785.7 202.5M785.7 201.4L785.7 201.5M776.6 202.5L794.9 202.5M776.6 201.4L794.9 201.4M776.6 201.8L794.9 201.8" fill="#fff" stroke="#3FB1E3" ecmeta_series_index="0" ecmeta_data_index="25" ecmeta_ssr_type="chart" class="zr1-cls-3"></path>
<path d="M802 200.1L820.3 200.1L820.3 193.7L802 193.7ZM811.1 201.2L811.1 200.1M811.1 185.5L811.1 193.7M802 201.2L820.3 201.2M802 185.5L820.3 185.5M802 196.2L820.3 196.2" fill="#fff" stroke="#3FB1E3" ecmeta_series_index="0" ecmeta_data_index="26" ecmeta_ssr_type="chart" class="zr1-cls-3"></path>
<path d="M827.4 199.6L845.7 199.6L845.7 192.2L827.4 192.2ZM836.5 200.6L836.5 199.6M836.5 192.2M827.4 200.6L845.7 200.6M827.4 192.2L845.7 192.2M827.4 193.7L845.7 193.7" fill="#fff" stroke="#3FB1E3" ecmeta_series_index="0" ecmeta_data_index="27" ecmeta_ssr_type="chart" class="zr1-cls-3"></path>
<path d="M852.8 195.7L871.1 195.7L871.1 167.2L852.8 167.2ZM861.9 199.6L861.9 195.7M861.9 164.7L861.9 167.2M852.8 199.6L871.1 199.6M852.8 164.7L871.1 164.7M852.8 180.9L871.1 180.9" fill="#fff" stroke="#3FB1E3" ecmeta_series_index="0" ecmeta_data_index="28" ecmeta_ssr_type="chart" class="zr1-cls-3"></path>
<path d="M878.1 152.3L896.5 152.3L896.5 114.3L878.1 114.3ZM887.3 159.9L887.3 152.3M887.3 110.9L887.3 114.3M878.1 159.9L896.5 159.9M878.1 110.9L896.5 110.9M878.1 146.9L896.5 146.9" fill="#fff" stroke="#3FB1E3" ecmeta_series_index="0" ecmeta_data_index="29" ecmeta_ssr_type="chart" class="zr1-cls-3"></path>
<path d="M1 0A1 1 0 1 1 1 -0.1A1 1 0 0 1 1 0" transform="matrix(5,0,0,5,201.72,619.9489)" fill="#3fb1e3" fill-opacity="0.8" stroke="#ccc" stroke-width="0" stroke-opacity="0.8" ecmeta_series_index="1" ecmeta_data_index="0" ecmeta_ssr_type="chart" class="zr1-cls-4"></path>
<path d="M1 0A1 1 0 1 1 1 -0.1A1 1 0 0 1 1 0" transform="matrix(5,0,0,5,354.072,486.6097)" fill="#3fb1e3" fill-opacity="0.8" stroke="#ccc" stroke-width="0" stroke-opacity="0.8" ecmeta_series_index="1" ecmeta_data_index="1" ecmeta_ssr_type="chart" class="zr1-cls-4"></path>
<path d="M1 0A1 1 0 1 1 1 -0.1A1 1 0 0 1 1 0" transform="matrix(5,0,0,5,354.072,449.2082)" fill="#3fb1e3" fill-opacity="0.8" stroke="#ccc" stroke-width="0" stroke-opacity="0.8" ecmeta_series_index="1" ecmeta_data_index="2" ecmeta_ssr_type="chart" class="zr1-cls-4"></path>
<path d="M1 0A1 1 0 1 1 1 -0.1A1 1 0 0 1 1 0" transform="matrix(5,0,0,5,379.464,417.1114)" fill="#3fb1e3" fill-opacity="0.8" stroke="#ccc" stroke-width="0" stroke-opacity="0.8" ecmeta_series_index="1" ecmeta_data_index="3" ecmeta_ssr_type="chart" class="zr1-cls-4"></path>
<path d="M1 0A1 1 0 1 1 1 -0.1A1 1 0 0 1 1 0" transform="matrix(5,0,0,5,430.248,399.7593)" fill="#3fb1e3" fill-opacity="0.8" stroke="#ccc" stroke-width="0" stroke-opacity="0.8" ecmeta_series_index="1" ecmeta_data_index="4" ecmeta_ssr_type="chart" class="zr1-cls-4"></path>
<path d="M1 0A1 1 0 1 1 1 -0.1A1 1 0 0 1 1 0" transform="matrix(5,0,0,5,430.248,375.0666)" fill="#3fb1e3" fill-opacity="0.8" stroke="#ccc" stroke-width="0" stroke-opacity="0.8" ecmeta_series_index="1" ecmeta_data_index="5" ecmeta_ssr_type="chart" class="zr1-cls-4"></path>
<path d="M1 0A1 1 0 1 1 1 -0.1A1 1 0 0 1 1 0" transform="matrix(5,0,0,5,506.424,333.2795)" fill="#3fb1e3" fill-opacity="0.8" stroke="#ccc" stroke-width="0" stroke-opacity="0.8" ecmeta_series_index="1" ecmeta_data_index="6" ecmeta_ssr_type="chart" class="zr1-cls-4"></path>
<path d="M1 0A1 1 0 1 1 1 -0.1A1 1 0 0 1 1 0" transform="matrix(5,0,0,5,531.816,356.9641)" fill="#3fb1e3" fill-opacity="0.8" stroke="#ccc" stroke-width="0" stroke-opacity="0.8" ecmeta_series_index="1" ecmeta_data_index="7" ecmeta_ssr_type="chart" class="zr1-cls-4"></path>
<path d="M1 0A1 1 0 1 1 1 -0.1A1 1 0 0 1 1 0" transform="matrix(5,0,0,5,557.208,282.4674)" fill="#3fb1e3" fill-opacity="0.8" stroke="#ccc" stroke-width="0" stroke-opacity="0.8" ecmeta_series_index="1" ecmeta_data_index="8" ecmeta_ssr_type="chart" class="zr1-cls-4"></path>
<path d="M1 0A1 1 0 1 1 1 -0.1A1 1 0 0 1 1 0" transform="matrix(5,0,0,5,633.384,282.4541)" fill="#3fb1e3" fill-opacity="0.8" stroke="#ccc" stroke-width="0" stroke-opacity="0.8" ecmeta_series_index="1" ecmeta_data_index="9" ecmeta_ssr_type="chart" class="zr1-cls-4"></path>
<path d="M1 0A1 1 0 1 1 1 -0.1A1 1 0 0 1 1 0" transform="matrix(5,0,0,5,658.776,274.9387)" fill="#3fb1e3" fill-opacity="0.8" stroke="#ccc" stroke-width="0" stroke-opacity="0.8" ecmeta_series_index="1" ecmeta_data_index="10" ecmeta_ssr_type="chart" class="zr1-cls-4"></path>
<path d="M1 0A1 1 0 1 1 1 -0.1A1 1 0 0 1 1 0" transform="matrix(5,0,0,5,684.168,294.9887)" fill="#3fb1e3" fill-opacity="0.8" stroke="#ccc" stroke-width="0" stroke-opacity="0.8" ecmeta_series_index="1" ecmeta_data_index="11" ecmeta_ssr_type="chart" class="zr1-cls-4"></path>
<path d="M1 0A1 1 0 1 1 1 -0.1A1 1 0 0 1 1 0" transform="matrix(5,0,0,5,734.952,253.0316)" fill="#3fb1e3" fill-opacity="0.8" stroke="#ccc" stroke-width="0" stroke-opacity="0.8" ecmeta_series_index="1" ecmeta_data_index="12" ecmeta_ssr_type="chart" class="zr1-cls-4"></path>
<path d="M1 0A1 1 0 1 1 1 -0.1A1 1 0 0 1 1 0" transform="matrix(5,0,0,5,785.736,205.01)" fill="#3fb1e3" fill-opacity="0.8" stroke="#ccc" stroke-width="0" stroke-opacity="0.8" ecmeta_series_index="1" ecmeta_data_index="13" ecmeta_ssr_type="chart" class="zr1-cls-4"></path>
<path d="M1 0A1 1 0 1 1 1 -0.1A1 1 0 0 1 1 0" transform="matrix(5,0,0,5,836.52,170.8548)" fill="#3fb1e3" fill-opacity="0.8" stroke="#ccc" stroke-width="0" stroke-opacity="0.8" ecmeta_series_index="1" ecmeta_data_index="14" ecmeta_ssr_type="chart" class="zr1-cls-4"></path>
<path d="M-194.5 -5l389.1 0l0 28l-389.1 0Z" transform="translate(500 5)" fill="rgb(0,0,0)" fill-opacity="0" stroke="#ccc" stroke-width="0" class="zr1-cls-2"></path>
<text dominant-baseline="central" text-anchor="middle" style="font-size:18px;font-family:sans-serif;font-weight:bold;" xml:space="preserve" y="9" transform="translate(500 5)" fill="#666666">Benchmark Results - Effective UPS Distribution</text>
<style ><![CDATA[
.zr1-cls-2:hover {
pointer-events:none;
}
.zr1-cls-3:hover {
cursor:pointer;
fill:rgba(255,255,255,1);
stroke-width:2;
}
.zr1-cls-4:hover {
cursor:pointer;
fill:rgba(69,194,249,1);
}

]]>

</style>
</svg>