<svg width="1000" height="1000" xmlns="http://www.w3.org/2000/svg" xmlns:xlink="http://www.w3.org/1999/xlink" version="1.1" baseProfile="full" viewBox="0 0 1000 1000">
<rect width="1000" height="1000" x="0" y="0" fill="rgb(252,252,252)" fill-opacity="0"></rect>
<path d="M168.6 950.5L960 950.5" fill="transparent" stroke="#eeeeee" class="zr0-cls-0"></path>
<path d="M168.6 920.5L960 920.5" fill="transparent" stroke="#eeeeee" class="zr0-cls-0"></path>
<path d="M168.6 890.5L960 890.5" fill="transparent" stroke="#eeeeee" class="zr0-cls-0"></path>
<path d="M168.6 861.5L960 861.5" fill="transparent" stroke="#eeeeee" class="zr0-cls-0"></path>
<path d="M168.6 831.5L960 831.5" fill="transparent" stroke="#eeeeee" class="zr0-cls-0"></path>
<path d="M168.6 801.5L960 801.5" fill="transparent" stroke="#eeeeee" class="zr0-cls-0"></path>
<path d="M168.6 772.5L960 772.5" fill="transparent" stroke="#eeeeee" class="zr0-cls-0"></path>
<path d="M168.6 742.5L960 742.5" fill="transparent" stroke="#eeeeee" class="zr0-cls-0"></path>
<path d="M168.6 712.5L960 712.5" fill="transparent" stroke="#eeeeee" class="zr0-cls-0"></path>
<path d="M168.6 683.5L960 683.5" fill="transparent" stroke="#eeeeee" class="zr0-cls-0"></path>
<path d="M168.6 653.5L960 653.5" fill="transparent" stroke="#eeeeee" class="zr0-cls-0"></path>
<path d="M168.6 623.5L960 623.5" fill="transparent" stroke="#eeeeee" class="zr0-cls-0"></path>
<path d="M168.6 594.5L960 594.5" fill="transparent" stroke="#eeeeee" class="zr0-cls-0"></path>
<path d="M168.6 564.5L960 564.5" fill="transparent" stroke="#eeeeee" class="zr0-cls-0"></path>
<path d="M168.6 534.5L960 534.5" fill="transparent" stroke="#eeeeee" class="zr0-cls-0"></path>
<path d="M168.6 505.5L960 505.5" fill="transparent" stroke="#eeeeee" class="zr0-cls-0"></path>
<path d="M168.6 475.5L960 475.5" fill="transparent" stroke="#eeeeee" class="zr0-cls-0"></path>
<path d="M168.6 445.5L960 445.5" fill="transparent" stroke="#eeeeee" class="zr0-cls-0"></path>
<path d="M168.6 416.5L960 416.5" fill="transparent" stroke="#eeeeee" class="zr0-cls-0"></path>
<path d="M168.6 386.5L960 386.5" fill="transparent" stroke="#eeeeee" class="zr0-cls-0"></path>
<path d="M168.6 356.5L960 356.5" fill="transparent" stroke="#eeeeee" class="zr0-cls-0"></path>
<path d="M168.6 327.5L960 327.5" fill="transparent" stroke="#eeeeee" class="zr0-cls-0"></path>
<path d="M168.6 297.5L960 297.5" fill="transparent" stroke="#eeeeee" class="zr0-cls-0"></path>
<path d="M168.6 267.5L960 267.5" fill="transparent" stroke="#eeeeee" class="zr0-cls-0"></path>
<path d="M168.6 238.5L960 238.5" fill="transparent" stroke="#eeeeee" class="zr0-cls-0"></path>
<path d="M168.6 208.5L960 208.5" fill="transparent" stroke="#eeeeee" class="zr0-cls-0"></path>
<path d="M168.6 178.5L960 178.5" fill="transparent" stroke="#eeeeee" class="zr0-cls-0"></path>
<path d="M168.6 149.5L960 149.5" fill="transparent" stroke="#eeeeee" class="zr0-cls-0"></path>
<path d="M168.6 119.5L960 119.5" fill="transparent" stroke="#eeeeee" class="zr0-cls-0"></path>
<path d="M168.6 89.5L960 89.5" fill="transparent" stroke="#eeeeee" class="zr0-cls-0"></path>
<path d="M168.6 60.5L960 60.5" fill="transparent" stroke="#eeeeee" class="zr0-cls-0"></path>
<path d="M168.5 950L168.5 60" fill="transparent" stroke="#cccccc" stroke-linecap="round" class="zr0-cls-0"></path>
<path d="M168.6 950.5L960 950.5" fill="transparent" stroke="#cccccc" stroke-linecap="round" class="zr0-cls-0"></path>
<text dominant-baseline="central" text-anchor="end" style="font-size:12px;font-family:sans-serif;" transform="translate(160.56 935.1667)" fill="#999999">03_swiftdeath007</text>
<text dominant-baseline="central" text-anchor="end" style="font-size:12px;font-family:sans-serif;" transform="translate(160.56 905.5)" fill="#999999">19_werezwolf</text>
<text dominant-baseline="central" text-anchor="end" style="font-size:12px;font-family:sans-serif;" transform="translate(160.56 875.8333)" fill="#999999">31_minebuilder</text>
<text dominant-baseline="central" text-anchor="end" style="font-size:12px;font-family:sans-serif;" transform="translate(160.56 846.1667)" fill="#999999">04_swiftdeath007</text>
<text dominant-baseline="central" text-anchor="end" style="font-size:12px;font-family:sans-serif;" transform="translate(160.56 816.5)" fill="#999999">11_theflyingcurryfish154</text>
<text dominant-baseline="central" text-anchor="end" style="font-size:12px;font-family:sans-serif;" transform="translate(160.56 786.8333)" fill="#999999">20_toda1</text>
<text dominant-baseline="central" text-anchor="end" style="font-size:12px;font-family:sans-serif;" transform="translate(160.56 757.1667)" fill="#999999">16_yuu_with_ships</text>
<text dominant-baseline="central" text-anchor="end" style="font-size:12px;font-family:sans-serif;" transform="translate(160.56 727.5)" fill="#999999">15_yuu</text>
<text dominant-baseline="central" text-anchor="end" style="font-size:12px;font-family:sans-serif;" transform="translate(160.56 697.8333)" fill="#999999">29_geist</text>
<text dominant-baseline="central" text-anchor="end" style="font-size:12px;font-family:sans-serif;" transform="translate(160.56 668.1667)" fill="#999999">34_osboz</text>
<text dominant-baseline="central" text-anchor="end" style="font-size:12px;font-family:sans-serif;" transform="translate(160.56 638.5)" fill="#999999">22_mcmayhem57</text>
<text dominant-baseline="central" text-anchor="end" style="font-size:12px;font-family:sans-serif;" transform="translate(160.56 608.8333)" fill="#999999">05_derantrix</text>
<text dominant-baseline="central" text-anchor="end" style="font-size:12px;font-family:sans-serif;" transform="translate(160.56 579.1667)" fill="#999999">23_mcmayhem57</text>
<text dominant-baseline="central" text-anchor="end" style="font-size:12px;font-family:sans-serif;" transform="translate(160.56 549.5)" fill="#999999">00_baseline_with_ships</text>
<text dominant-baseline="central" text-anchor="end" style="font-size:12px;font-family:sans-serif;" transform="translate(160.56 519.8333)" fill="#999999">00_baseline</text>
<text dominant-baseline="central" text-anchor="end" style="font-size:12px;font-family:sans-serif;" transform="translate(160.56 490.1667)" fill="#999999">26_mrcooki4</text>
<text dominant-baseline="central" text-anchor="end" style="font-size:12px;font-family:sans-serif;" transform="translate(160.56 460.5)" fill="#999999">27_geist</text>
<text dominant-baseline="central" text-anchor="end" style="font-size:12px;font-family:sans-serif;" transform="translate(160.56 430.8333)" fill="#999999">28_geist</text>
<text dominant-baseline="central" text-anchor="end" style="font-size:12px;font-family:sans-serif;" transform="translate(160.56 401.1667)" fill="#999999">30_reja</text>
<text dominant-baseline="central" text-anchor="end" style="font-size:12px;font-family:sans-serif;" transform="translate(160.56 371.5)" fill="#999999">09_jobo</text>
<text dominant-baseline="central" text-anchor="end" style="font-size:12px;font-family:sans-serif;" transform="translate(160.56 341.8333)" fill="#999999">32_reja</text>
<text dominant-baseline="central" text-anchor="end" style="font-size:12px;font-family:sans-serif;" transform="translate(160.56 312.1667)" fill="#999999">35_henryjk</text>
<text dominant-baseline="central" text-anchor="end" style="font-size:12px;font-family:sans-serif;" transform="translate(160.56 282.5)" fill="#999999">16_yuu</text>
<text dominant-baseline="central" text-anchor="end" style="font-size:12px;font-family:sans-serif;" transform="translate(160.56 252.8333)" fill="#999999">13_phlap</text>
<text dominant-baseline="central" text-anchor="end" style="font-size:12px;font-family:sans-serif;" transform="translate(160.56 223.1667)" fill="#999999">14_abucnasty</text>
<text dominant-baseline="central" text-anchor="end" style="font-size:12px;font-family:sans-serif;" transform="translate(160.56 193.5)" fill="#999999">18_lady_meyneth</text>
<text dominant-baseline="central" text-anchor="end" style="font-size:12px;font-family:sans-serif;" transform="translate(160.56 163.8333)" fill="#999999">06_imp</text>
<text dominant-baseline="central" text-anchor="end" style="font-size:12px;font-family:sans-serif;" transform="translate(160.56 134.1667)" fill="#999999">08_lady_meyneth</text>
<text dominant-baseline="central" text-anchor="end" style="font-size:12px;font-family:sans-serif;" transform="translate(160.56 104.5)" fill="#999999">12_phlap</text>
<text dominant-baseline="central" text-anchor="end" style="font-size:12px;font-family:sans-serif;" transform="translate(160.56 74.8333)" fill="#999999">01_undertow</text>
<text dominant-baseline="central" text-anchor="middle" style="font-size:12px;font-family:sans-serif;" y="6" transform="translate(168.56 958)" fill="#999999">0</text>
<text dominant-baseline="central" text-anchor="middle" style="font-size:12px;font-family:sans-serif;" y="6" transform="translate(281.6229 958)" fill="#999999">100</text>
<text dominant-baseline="central" text-anchor="middle" style="font-size:12px;font-family:sans-serif;" y="6" transform="translate(394.6857 958)" fill="#999999">200</text>
<text dominant-baseline="central" text-anchor="middle" style="font-size:12px;font-family:sans-serif;" y="6" transform="translate(507.7486 958)" fill="#999999">300</text>
<text dominant-baseline="central" text-anchor="middle" style="font-size:12px;font-family:sans-serif;" y="6" transform="translate(620.8114 958)" fill="#999999">400</text>
<text dominant-baseline="central" text-anchor="middle" style="font-size:12px;font-family:sans-serif;" y="6" transform="translate(733.8743 958)" fill="#999999">500</text>
<text dominant-baseline="central" text-anchor="middle" style="font-size:12px;font-family:sans-serif;" y="6" transform="translate(846.9371 958)" fill="#999999">600</text>
<text dominant-baseline="central" text-anchor="middle" style="font-size:12px;font-family:sans-serif;" y="6" transform="translate(960 958)" fill="#999999">700</text>
<path d="M168.6 924.9l217.1 0l0 20.5l-217.1 0Z" fill="#3fb1e3" ecmeta_series_index="0" ecmeta_data_index="0" ecmeta_ssr_type="chart" class="zr0-cls-1"></path>
<path d="M168.6 895.3l309.8 0l0 20.5l-309.8 0Z" fill="#3fb1e3" ecmeta_series_index="0" ecmeta_data_index="1" ecmeta_ssr_type="chart" class="zr0-cls-1"></path>
<path d="M168.6 865.6l348.2 0l0 20.5l-348.2 0Z" fill="#3fb1e3" ecmeta_series_index="0" ecmeta_data_index="2" ecmeta_ssr_type="chart" class="zr0-cls-1"></path>
<path d="M168.6 835.9l367.5 0l0 20.5l-367.5 0Z" fill="#3fb1e3" ecmeta_series_index="0" ecmeta_data_index="3" ecmeta_ssr_type="chart" class="zr0-cls-1"></path>
<path d="M168.6 806.3l384.4 0l0 20.5l-384.4 0Z" fill="#3fb1e3" ecmeta_series_index="0" ecmeta_data_index="4" ecmeta_ssr_type="chart" class="zr0-cls-1"></path>
<path d="M168.6 776.6l410.4 0l0 20.5l-410.4 0Z" fill="#3fb1e3" ecmeta_series_index="0" ecmeta_data_index="5" ecmeta_ssr_type="chart" class="zr0-cls-1"></path>
<path d="M168.6 746.9l421.7 0l0 20.5l-421.7 0Z" fill="#3fb1e3" ecmeta_series_index="0" ecmeta_data_index="6" ecmeta_ssr_type="chart" class="zr0-cls-1"></path>
<path d="M168.6 717.3l438.7 0l0 20.5l-438.7 0Z" fill="#3fb1e3" ecmeta_series_index="0" ecmeta_data_index="7" ecmeta_ssr_type="chart" class="zr0-cls-1"></path>
<path d="M168.6 687.6l447.7 0l0 20.5l-447.7 0Z" fill="#3fb1e3" ecmeta_series_index="0" ecmeta_data_index="8" ecmeta_ssr_type="chart" class="zr0-cls-1"></path>
<path d="M168.6 657.9l470.3 0l0 20.5l-470.3 0Z" fill="#3fb1e3" ecmeta_series_index="0" ecmeta_data_index="9" ecmeta_ssr_type="chart" class="zr0-cls-1"></path>
<path d="M168.6 628.3l493 0l0 20.5l-493 0Z" fill="#3fb1e3" ecmeta_series_index="0" ecmeta_data_index="10" ecmeta_ssr_type="chart" class="zr0-cls-1"></path>
<path d="M168.6 598.6l507.7 0l0 20.5l-507.7 0Z" fill="#3fb1e3" ecmeta_series_index="0" ecmeta_data_index="11" ecmeta_ssr_type="chart" class="zr0-cls-1"></path>
<path d="M168.6 568.9l523.5 0l0 20.5l-523.5 0Z" fill="#3fb1e3" ecmeta_series_index="0" ecmeta_data_index="12" ecmeta_ssr_type="chart" class="zr0-cls-1"></path>
<path d="M168.6 539.3l524.6 0l0 20.5l-524.6 0Z" fill="#3fb1e3" ecmeta_series_index="0" ecmeta_data_index="13" ecmeta_ssr_type="chart" class="zr0-cls-1"></path>
<path d="M168.6 509.6l532.5 0l0 20.5l-532.5 0Z" fill="#3fb1e3" ecmeta_series_index="0" ecmeta_data_index="14" ecmeta_ssr_type="chart" class="zr0-cls-1"></path>
<path d="M168.6 479.9l534.8 0l0 20.5l-534.8 0Z" fill="#3fb1e3" ecmeta_series_index="0" ecmeta_data_index="15" ecmeta_ssr_type="chart" class="zr0-cls-1"></path>
<path d="M168.6 450.3l564.2 0l0 20.5l-564.2 0Z" fill="#3fb1e3" ecmeta_series_index="0" ecmeta_data_index="16" ecmeta_ssr_type="chart" class="zr0-cls-1"></path>
<path d="M168.6 420.6l564.2 0l0 20.5l-564.2 0Z" fill="#3fb1e3" ecmeta_series_index="0" ecmeta_data_index="17" ecmeta_ssr_type="chart" class="zr0-cls-1"></path>
<path d="M168.6 390.9l572.1 0l0 20.5l-572.1 0Z" fill="#3fb1e3" ecmeta_series_index="0" ecmeta_data_index="18" ecmeta_ssr_type="chart" class="zr0-cls-1"></path>
<path d="M168.6 361.3l574.4 0l0 20.5l-574.4 0Z" fill="#3fb1e3" ecmeta_series_index="0" ecmeta_data_index="19" ecmeta_ssr_type="chart" class="zr0-cls-1"></path>
<path d="M168.6 331.6l577.8 0l0 20.5l-577.8 0Z" fill="#3fb1e3" ecmeta_series_index="0" ecmeta_data_index="20" ecmeta_ssr_type="chart" class="zr0-cls-1"></path>
<path d="M168.6 301.9l580 0l0 20.5l-580 0Z" fill="#3fb1e3" ecmeta_series_index="0" ecmeta_data_index="21" ecmeta_ssr_type="chart" class="zr0-cls-1"></path>
<path d="M168.6 272.3l583.4 0l0 20.5l-583.4 0Z" fill="#3fb1e3" ecmeta_series_index="0" ecmeta_data_index="22" ecmeta_ssr_type="chart" class="zr0-cls-1"></path>
<path d="M168.6 242.6l599.2 0l0 20.5l-599.2 0Z" fill="#3fb1e3" ecmeta_series_index="0" ecmeta_data_index="23" ecmeta_ssr_type="chart" class="zr0-cls-1"></path>
<path d="M168.6 212.9l629.8 0l0 20.5l-629.8 0Z" fill="#3fb1e3" ecmeta_series_index="0" ecmeta_data_index="24" ecmeta_ssr_type="chart" class="zr0-cls-1"></path>
<path d="M168.6 183.3l637.7 0l0 20.5l-637.7 0Z" fill="#3fb1e3" ecmeta_series_index="0" ecmeta_data_index="25" ecmeta_ssr_type="chart" class="zr0-cls-1"></path>
<path d="M168.6 153.6l643.3 0l0 20.5l-643.3 0Z" fill="#3fb1e3" ecmeta_series_index="0" ecmeta_data_index="26" ecmeta_ssr_type="chart" class="zr0-cls-1"></path>
<path d="M168.6 123.9l645.6 0l0 20.5l-645.6 0Z" fill="#3fb1e3" ecmeta_series_index="0" ecmeta_data_index="27" ecmeta_ssr_type="chart" class="zr0-cls-1"></path>
<path d="M168.6 94.3l652.4 0l0 20.5l-652.4 0Z" fill="#3fb1e3" ecmeta_series_index="0" ecmeta_data_index="28" ecmeta_ssr_type="chart" class="zr0-cls-1"></path>
<path d="M168.6 64.6l684 0l0 20.5l-684 0Z" fill="#3fb1e3" ecmeta_series_index="0" ecmeta_data_index="29" ecmeta_ssr_type="chart" class="zr0-cls-1"></path>
<text dominant-baseline="central" text-anchor="middle" style="font-size:12px;font-family:sans-serif;" transform="translate(277.1003 935.1667)" fill="#333">192</text>
<text dominant-baseline="central" text-anchor="middle" style="font-size:12px;font-family:sans-serif;" transform="translate(323.4561 905.5)" fill="#333">274</text>
<text dominant-baseline="central" text-anchor="middle" style="font-size:12px;font-family:sans-serif;" transform="translate(342.6768 875.8333)" fill="#333">308</text>
<text dominant-baseline="central" text-anchor="middle" style="font-size:12px;font-family:sans-serif;" transform="translate(352.2871 846.1667)" fill="#333">325</text>
<text dominant-baseline="central" text-anchor="middle" style="font-size:12px;font-family:sans-serif;" transform="translate(360.7669 816.5)" fill="#333">340</text>
<text dominant-baseline="central" text-anchor="middle" style="font-size:12px;font-family:sans-serif;" transform="translate(373.7691 786.8333)" fill="#333">363</text>
<text dominant-baseline="central" text-anchor="middle" style="font-size:12px;font-family:sans-serif;" transform="translate(379.4222 757.1667)" fill="#333">373</text>
<text dominant-baseline="central" text-anchor="middle" style="font-size:12px;font-family:sans-serif;" transform="translate(387.9019 727.5)" fill="#333">388</text>
<text dominant-baseline="central" text-anchor="middle" style="font-size:12px;font-family:sans-serif;" transform="translate(392.4245 697.8333)" fill="#333">396</text>
<text dominant-baseline="central" text-anchor="middle" style="font-size:12px;font-family:sans-serif;" transform="translate(403.7307 668.1667)" fill="#333">416</text>
<text dominant-baseline="central" text-anchor="middle" style="font-size:12px;font-family:sans-serif;" transform="translate(415.037 638.5)" fill="#333">436</text>
<text dominant-baseline="central" text-anchor="middle" style="font-size:12px;font-family:sans-serif;" transform="translate(422.3861 608.8333)" fill="#333">449</text>
<text dominant-baseline="central" text-anchor="middle" style="font-size:12px;font-family:sans-serif;" transform="translate(430.3005 579.1667)" fill="#333">463</text>
<text dominant-baseline="central" text-anchor="middle" style="font-size:12px;font-family:sans-serif;" transform="translate(430.8658 549.5)" fill="#333">464</text>
<text dominant-baseline="central" text-anchor="middle" style="font-size:12px;font-family:sans-serif;" transform="translate(434.823 519.8333)" fill="#333">471</text>
<text dominant-baseline="central" text-anchor="middle" style="font-size:12px;font-family:sans-serif;" transform="translate(435.9537 490.1667)" fill="#333">473</text>
<text dominant-baseline="central" text-anchor="middle" style="font-size:12px;font-family:sans-serif;" transform="translate(450.6518 460.5)" fill="#333">499</text>
<text dominant-baseline="central" text-anchor="middle" style="font-size:12px;font-family:sans-serif;" transform="translate(450.6518 430.8333)" fill="#333">499</text>
<text dominant-baseline="central" text-anchor="middle" style="font-size:12px;font-family:sans-serif;" transform="translate(454.609 401.1667)" fill="#333">506</text>
<text dominant-baseline="central" text-anchor="middle" style="font-size:12px;font-family:sans-serif;" transform="translate(455.7397 371.5)" fill="#333">508</text>
<text dominant-baseline="central" text-anchor="middle" style="font-size:12px;font-family:sans-serif;" transform="translate(457.4356 341.8333)" fill="#333">511</text>
<text dominant-baseline="central" text-anchor="middle" style="font-size:12px;font-family:sans-serif;" transform="translate(458.5662 312.1667)" fill="#333">513</text>
<text dominant-baseline="central" text-anchor="middle" style="font-size:12px;font-family:sans-serif;" transform="translate(460.2622 282.5)" fill="#333">516</text>
<text dominant-baseline="central" text-anchor="middle" style="font-size:12px;font-family:sans-serif;" transform="translate(468.1766 252.8333)" fill="#333">530</text>
<text dominant-baseline="central" text-anchor="middle" style="font-size:12px;font-family:sans-serif;" transform="translate(483.4401 223.1667)" fill="#333">557</text>
<text dominant-baseline="central" text-anchor="middle" style="font-size:12px;font-family:sans-serif;" transform="translate(487.3973 193.5)" fill="#333">564</text>
<text dominant-baseline="central" text-anchor="middle" style="font-size:12px;font-family:sans-serif;" transform="translate(490.2238 163.8333)" fill="#333">569</text>
<text dominant-baseline="central" text-anchor="middle" style="font-size:12px;font-family:sans-serif;" transform="translate(491.3545 134.1667)" fill="#333">571</text>
<text dominant-baseline="central" text-anchor="middle" style="font-size:12px;font-family:sans-serif;" transform="translate(494.7463 104.5)" fill="#333">577</text>
<text dominant-baseline="central" text-anchor="middle" style="font-size:12px;font-family:sans-serif;" transform="translate(510.5751 74.8333)" fill="#333">605</text>
<path d="M-183.1 -5l366.2 0l0 28l-366.2 0Z" transform="translate(500 5)" fill="rgb(0,0,0)" fill-opacity="0" stroke="#ccc" stroke-width="0" class="zr0-cls-0"></path>
<text dominant-baseline="central" text-anchor="middle" style="font-size:18px;font-family:sans-serif;font-weight:bold;" xml:space="preserve" y="9" transform="translate(500 5)" fill="#666666">Benchmark Results - Average Effective UPS</text>
<style ><![CDATA[
.zr0-cls-0:hover {
pointer-events:none;
}
.zr0-cls-1:hover {
cursor:pointer;
fill:rgba(69,194,249,1);
}

]]>

</style>
</svg>