<svg width="1000" height="1000" xmlns="http://www.w3.org/2000/svg" xmlns:xlink="http://www.w3.org/1999/xlink" version="1.1" baseProfile="full" viewBox="0 0 1000 1000">
<rect width="1000" height="1000" x="0" y="0" fill="rgb(252,252,252)" fill-opacity="0"></rect>
<path d="M128.5 60L128.5 783" fill="transparent" stroke="#eeeeee" class="zr1-cls-2"></path>
<path d="M224.5 60L224.5 783" fill="transparent" stroke="#eeeeee" class="zr1-cls-2"></path>
<path d="M321.5 60L321.5 783" fill="transparent" stroke="#eeeeee" class="zr1-cls-2"></path>
<path d="M417.5 60L417.5 783" fill="transparent" stroke="#eeeeee" class="zr1-cls-2"></path>
<path d="M514.5 60L514.5 783" fill="transparent" stroke="#eeeeee" class="zr1-cls-2"></path>
<path d="M610.5 60L610.5 783" fill="transparent" stroke="#eeeeee" class="zr1-cls-2"></path>
<path d="M707.5 60L707.5 783" fill="transparent" stroke="#eeeeee" class="zr1-cls-2"></path>
<path d="M803.5 60L803.5 783" fill="transparent" stroke="#eeeeee" class="zr1-cls-2"></path>
<path d="M900.5 60L900.5 783" fill="transparent" stroke="#eeeeee" class="zr1-cls-2"></path>
<path d="M128.5 783L128.5 60" fill="transparent" stroke="#cccccc" stroke-linecap="round" class="zr1-cls-2"></path>
<text dominant-baseline="central" text-anchor="middle" style="font-size:12px;font-family:sans-serif;" y="-6" transform="translate(128.16 45)" fill="#cccccc">UPS</text>
<path d="M128.2 783.5L900 783.5" fill="transparent" stroke="#cccccc" stroke-linecap="round" class="zr1-cls-2"></path>
<text dominant-baseline="central" text-anchor="end" style="font-size:12px;font-family:sans-serif;" transform="translate(120.16 783.0174)" fill="#999999">326</text>
<text dominant-baseline="central" text-anchor="end" style="font-size:12px;font-family:sans-serif;" transform="translate(120.16 638.4139)" fill="#999999">440</text>
<text dominant-baseline="central" text-anchor="end" style="font-size:12px;font-family:sans-serif;" transform="translate(120.16 493.8104)" fill="#999999">554</text>
<text dominant-baseline="central" text-anchor="end" style="font-size:12px;font-family:sans-serif;" transform="translate(120.16 349.207)" fill="#999999">668</text>
<text dominant-baseline="central" text-anchor="end" style="font-size:12px;font-family:sans-serif;" transform="translate(120.16 204.6035)" fill="#999999">782</text>
<text dominant-baseline="central" text-anchor="end" style="font-size:12px;font-family:sans-serif;" transform="translate(120.16 60)" fill="#999999">896</text>
<text dominant-baseline="central" text-anchor="end" style="font-size:12px;font-family:sans-serif;" transform="matrix(0.707,-0.707,0.707,0.707,176.4,791.0174)" fill="#999999">q1_stack_sync_explosives</text>
<text dominant-baseline="central" text-anchor="end" style="font-size:12px;font-family:sans-serif;" transform="matrix(0.707,-0.707,0.707,0.707,272.88,791.0174)" fill="#999999">q1_stack_desync_explosives</text>
<text dominant-baseline="central" text-anchor="end" style="font-size:12px;font-family:sans-serif;" transform="matrix(0.707,-0.707,0.707,0.707,369.36,791.0174)" fill="#999999">q1_stack_sync_research_prod</text>
<text dominant-baseline="central" text-anchor="end" style="font-size:12px;font-family:sans-serif;" transform="matrix(0.707,-0.707,0.707,0.707,465.84,791.0174)" fill="#999999">q1_stack_sync_bot_speed</text>
<text dominant-baseline="central" text-anchor="end" style="font-size:12px;font-family:sans-serif;" transform="matrix(0.707,-0.707,0.707,0.707,562.32,791.0174)" fill="#999999">q1_stack_desync_research_prod</text>
<text dominant-baseline="central" text-anchor="end" style="font-size:12px;font-family:sans-serif;" transform="matrix(0.707,-0.707,0.707,0.707,658.8,791.0174)" fill="#999999">q1_stack_desync_bot_speed</text>
<text dominant-baseline="central" text-anchor="end" style="font-size:12px;font-family:sans-serif;" transform="matrix(0.707,-0.707,0.707,0.707,755.28,791.0174)" fill="#999999">q1_stack_desync_steel_prod</text>
<text dominant-baseline="central" text-anchor="end" style="font-size:12px;font-family:sans-serif;" transform="matrix(0.707,-0.707,0.707,0.707,851.76,791.0174)" fill="#999999">q1_stack_sync_steel_prod</text>
<path d="M151.4 758.2L201.4 758.2L201.4 737.1L151.4 737.1ZM176.4 760.8L176.4 758.2M176.4 723.3L176.4 737.1M151.4 760.8L201.4 760.8M151.4 723.3L201.4 723.3M151.4 751.5L201.4 751.5" fill="#fff" stroke="#3FB1E3" ecmeta_series_index="0" ecmeta_data_index="0" ecmeta_ssr_type="chart" class="zr1-cls-3"></path>
<path d="M247.9 726.4L297.9 726.4L297.9 693L247.9 693ZM272.9 732.9L272.9 726.4M272.9 679.7L272.9 693M247.9 732.9L297.9 732.9M247.9 679.7L297.9 679.7M247.9 712L297.9 712" fill="#fff" stroke="#3FB1E3" ecmeta_series_index="0" ecmeta_data_index="1" ecmeta_ssr_type="chart" class="zr1-cls-3"></path>
<path d="M344.4 700.2L394.4 700.2L394.4 677.3L344.4 677.3ZM369.4 713.8L369.4 700.2M369.4 668.6L369.4 677.3M344.4 713.8L394.4 713.8M344.4 668.6L394.4 668.6M344.4 692.7L394.4 692.7" fill="#fff" stroke="#3FB1E3" ecmeta_series_index="0" ecmeta_data_index="2" ecmeta_ssr_type="chart" class="zr1-cls-3"></path>
<path d="M440.8 666.7L490.8 666.7L490.8 653.5L440.8 653.5ZM465.8 683.7L465.8 666.7M465.8 652.3L465.8 653.5M440.8 683.7L490.8 683.7M440.8 652.3L490.8 652.3M440.8 660.3L490.8 660.3" fill="#fff" stroke="#3FB1E3" ecmeta_series_index="0" ecmeta_data_index="3" ecmeta_ssr_type="chart" class="zr1-cls-3"></path>
<path d="M537.3 672.5L587.3 672.5L587.3 648.6L537.3 648.6ZM562.3 682.3L562.3 672.5M562.3 634L562.3 648.6M537.3 682.3L587.3 682.3M537.3 634L587.3 634M537.3 660.1L587.3 660.1" fill="#fff" stroke="#3FB1E3" ecmeta_series_index="0" ecmeta_data_index="4" ecmeta_ssr_type="chart" class="zr1-cls-3"></path>
<path d="M633.8 626.2L683.8 626.2L683.8 610L633.8 610ZM658.8 635.8L658.8 626.2M658.8 585.7L658.8 610M633.8 635.8L683.8 635.8M633.8 585.7L683.8 585.7M633.8 618.4L683.8 618.4" fill="#fff" stroke="#3FB1E3" ecmeta_series_index="0" ecmeta_data_index="5" ecmeta_ssr_type="chart" class="zr1-cls-3"></path>
<path d="M730.3 210.4L780.3 210.4L780.3 176.5L730.3 176.5ZM755.3 228.8L755.3 210.4M755.3 162.7L755.3 176.5M730.3 228.8L780.3 228.8M730.3 162.7L780.3 162.7M730.3 179.5L780.3 179.5" fill="#fff" stroke="#3FB1E3" ecmeta_series_index="0" ecmeta_data_index="6" ecmeta_ssr_type="chart" class="zr1-cls-3"></path>
<path d="M826.8 192.2L876.8 192.2L876.8 179.6L826.8 179.6ZM851.8 201.7L851.8 192.2M851.8 179.6M826.8 201.7L876.8 201.7M826.8 179.6L876.8 179.6M826.8 183.1L876.8 183.1" fill="#fff" stroke="#3FB1E3" ecmeta_series_index="0" ecmeta_data_index="7" ecmeta_ssr_type="chart" class="zr1-cls-3"></path>
<path d="M1 0A1 1 0 1 1 1 -0.1A1 1 0 0 1 1 0" transform="matrix(5,0,0,5,755.28,118.0162)" fill="#3fb1e3" fill-opacity="0.8" stroke="#ccc" stroke-width="0" stroke-opacity="0.8" ecmeta_series_index="1" ecmeta_data_index="0" ecmeta_ssr_type="chart" class="zr1-cls-4"></path>
<path d="M1 0A1 1 0 1 1 1 -0.1A1 1 0 0 1 1 0" transform="matrix(5,0,0,5,851.76,229.7574)" fill="#3fb1e3" fill-opacity="0.8" stroke="#ccc" stroke-width="0" stroke-opacity="0.8" ecmeta_series_index="1" ecmeta_data_index="1" ecmeta_ssr_type="chart" class="zr1-cls-4"></path>
<path d="M1 0A1 1 0 1 1 1 -0.1A1 1 0 0 1 1 0" transform="matrix(5,0,0,5,851.76,152.6765)" fill="#3fb1e3" fill-opacity="0.8" stroke="#ccc" stroke-width="0" stroke-opacity="0.8" ecmeta_series_index="1" ecmeta_data_index="2" ecmeta_ssr_type="chart" class="zr1-cls-4"></path>
<path d="M1 0A1 1 0 1 1 1 -0.1A1 1 0 0 1 1 0" transform="matrix(5,0,0,5,851.76,114.4743)" fill="#3fb1e3" fill-opacity="0.8" stroke="#ccc" stroke-width="0" stroke-opacity="0.8" ecmeta_series_index="1" ecmeta_data_index="3" ecmeta_ssr_type="chart" class="zr1-cls-4"></path>
<path d="M-194.5 -5l389.1 0l0 28l-389.1 0Z" transform="translate(500 5)" fill="rgb(0,0,0)" fill-opacity="0" stroke="#ccc" stroke-width="0" class="zr1-cls-2"></path>
<text dominant-baseline="central" text-anchor="middle" style="font-size:18px;font-family:sans-serif;font-weight:bold;" xml:space="preserve" y="9" transform="translate(500 5)" fill="#666666">Benchmark Results - Effective UPS Distribution</text>
<style ><![CDATA[
.zr1-cls-2:hover {
pointer-events:none;
}
.zr1-cls-3:hover {
cursor:pointer;
fill:rgba(255,255,255,1);
stroke-width:2;
}
.zr1-cls-4:hover {
cursor:pointer;
fill:rgba(69,194,249,1);
}

]]>

</style>
</svg>