<svg width="1000" height="1000" xmlns="http://www.w3.org/2000/svg" xmlns:xlink="http://www.w3.org/1999/xlink" version="1.1" baseProfile="full" viewBox="0 0 1000 1000">
<rect width="1000" height="1000" x="0" y="0" fill="rgb(252,252,252)" fill-opacity="0"></rect>
<path d="M215.5 950.5L960 950.5" fill="transparent" stroke="#eeeeee" class="zr2-cls-5"></path>
<path d="M215.5 839.5L960 839.5" fill="transparent" stroke="#eeeeee" class="zr2-cls-5"></path>
<path d="M215.5 727.5L960 727.5" fill="transparent" stroke="#eeeeee" class="zr2-cls-5"></path>
<path d="M215.5 616.5L960 616.5" fill="transparent" stroke="#eeeeee" class="zr2-cls-5"></path>
<path d="M215.5 505.5L960 505.5" fill="transparent" stroke="#eeeeee" class="zr2-cls-5"></path>
<path d="M215.5 394.5L960 394.5" fill="transparent" stroke="#eeeeee" class="zr2-cls-5"></path>
<path d="M215.5 282.5L960 282.5" fill="transparent" stroke="#eeeeee" class="zr2-cls-5"></path>
<path d="M215.5 171.5L960 171.5" fill="transparent" stroke="#eeeeee" class="zr2-cls-5"></path>
<path d="M215.5 60.5L960 60.5" fill="transparent" stroke="#eeeeee" class="zr2-cls-5"></path>
<path d="M215.5 950L215.5 60" fill="transparent" stroke="#cccccc" stroke-linecap="round" class="zr2-cls-5"></path>
<path d="M215.5 950.5L960 950.5" fill="transparent" stroke="#cccccc" stroke-linecap="round" class="zr2-cls-5"></path>
<text dominant-baseline="central" text-anchor="end" style="font-size:12px;font-family:sans-serif;" transform="translate(207.48 894.375)" fill="#999999">q1_stack_sync_explosives</text>
<text dominant-baseline="central" text-anchor="end" style="font-size:12px;font-family:sans-serif;" transform="translate(207.48 783.125)" fill="#999999">q1_stack_desync_explosives</text>
<text dominant-baseline="central" text-anchor="end" style="font-size:12px;font-family:sans-serif;" transform="translate(207.48 671.875)" fill="#999999">q1_stack_sync_research_prod</text>
<text dominant-baseline="central" text-anchor="end" style="font-size:12px;font-family:sans-serif;" transform="translate(207.48 560.625)" fill="#999999">q1_stack_sync_bot_speed</text>
<text dominant-baseline="central" text-anchor="end" style="font-size:12px;font-family:sans-serif;" transform="translate(207.48 449.375)" fill="#999999">q1_stack_desync_research_prod</text>
<text dominant-baseline="central" text-anchor="end" style="font-size:12px;font-family:sans-serif;" transform="translate(207.48 338.125)" fill="#999999">q1_stack_desync_bot_speed</text>
<text dominant-baseline="central" text-anchor="end" style="font-size:12px;font-family:sans-serif;" transform="translate(207.48 226.875)" fill="#999999">q1_stack_desync_steel_prod</text>
<text dominant-baseline="central" text-anchor="end" style="font-size:12px;font-family:sans-serif;" transform="translate(207.48 115.625)" fill="#999999">q1_stack_sync_steel_prod</text>
<text dominant-baseline="central" text-anchor="middle" style="font-size:12px;font-family:sans-serif;" y="6" transform="translate(215.48 958)" fill="#999999">0</text>
<text dominant-baseline="central" text-anchor="middle" style="font-size:12px;font-family:sans-serif;" y="6" transform="translate(364.384 958)" fill="#999999">30</text>
<text dominant-baseline="central" text-anchor="middle" style="font-size:12px;font-family:sans-serif;" y="6" transform="translate(513.288 958)" fill="#999999">60</text>
<text dominant-baseline="central" text-anchor="middle" style="font-size:12px;font-family:sans-serif;" y="6" transform="translate(662.192 958)" fill="#999999">90</text>
<text dominant-baseline="central" text-anchor="middle" style="font-size:12px;font-family:sans-serif;" y="6" transform="translate(811.096 958)" fill="#999999">120</text>
<text dominant-baseline="central" text-anchor="middle" style="font-size:12px;font-family:sans-serif;" y="6" transform="translate(960 958)" fill="#999999">150</text>
<path d="M215.5 856l0 0l0 76.8l0 0Z" fill="#3fb1e3" ecmeta_series_index="0" ecmeta_data_index="0" ecmeta_ssr_type="chart" class="zr2-cls-6"></path>
<path d="M215.5 744.7l42 0l0 76.8l-42 0Z" fill="#3fb1e3" ecmeta_series_index="0" ecmeta_data_index="1" ecmeta_ssr_type="chart" class="zr2-cls-6"></path>
<path d="M215.5 633.5l61.7 0l0 76.8l-61.7 0Z" fill="#3fb1e3" ecmeta_series_index="0" ecmeta_data_index="2" ecmeta_ssr_type="chart" class="zr2-cls-6"></path>
<path d="M215.5 522.2l94.1 0l0 76.8l-94.1 0Z" fill="#3fb1e3" ecmeta_series_index="0" ecmeta_data_index="3" ecmeta_ssr_type="chart" class="zr2-cls-6"></path>
<path d="M215.5 411l97.9 0l0 76.8l-97.9 0Z" fill="#3fb1e3" ecmeta_series_index="0" ecmeta_data_index="4" ecmeta_ssr_type="chart" class="zr2-cls-6"></path>
<path d="M215.5 299.7l145.2 0l0 76.8l-145.2 0Z" fill="#3fb1e3" ecmeta_series_index="0" ecmeta_data_index="5" ecmeta_ssr_type="chart" class="zr2-cls-6"></path>
<path d="M215.5 188.5l619.4 0l0 76.8l-619.4 0Z" fill="#3fb1e3" ecmeta_series_index="0" ecmeta_data_index="6" ecmeta_ssr_type="chart" class="zr2-cls-6"></path>
<path d="M215.5 77.2l626.3 0l0 76.8l-626.3 0Z" fill="#3fb1e3" ecmeta_series_index="0" ecmeta_data_index="7" ecmeta_ssr_type="chart" class="zr2-cls-6"></path>
<text dominant-baseline="central" text-anchor="middle" style="font-size:12px;font-family:sans-serif;" transform="translate(215.48 894.375)" fill="#333">0</text>
<text dominant-baseline="central" text-anchor="middle" style="font-size:12px;font-family:sans-serif;" transform="translate(236.5003 783.125)" fill="#333">8.47</text>
<text dominant-baseline="central" text-anchor="middle" style="font-size:12px;font-family:sans-serif;" transform="translate(246.3528 671.875)" fill="#333">12.44</text>
<text dominant-baseline="central" text-anchor="middle" style="font-size:12px;font-family:sans-serif;" transform="translate(262.5088 560.625)" fill="#333">18.95</text>
<text dominant-baseline="central" text-anchor="middle" style="font-size:12px;font-family:sans-serif;" transform="translate(264.4446 449.375)" fill="#333">19.73</text>
<text dominant-baseline="central" text-anchor="middle" style="font-size:12px;font-family:sans-serif;" transform="translate(288.0707 338.125)" fill="#333">29.25</text>
<text dominant-baseline="central" text-anchor="middle" style="font-size:12px;font-family:sans-serif;" transform="translate(525.2003 226.875)" fill="#333">124.8</text>
<text dominant-baseline="central" text-anchor="middle" style="font-size:12px;font-family:sans-serif;" transform="translate(528.6251 115.625)" fill="#333">126.18</text>
<path d="M-192.6 -5l385.3 0l0 28l-385.3 0Z" transform="translate(500 5)" fill="rgb(0,0,0)" fill-opacity="0" stroke="#ccc" stroke-width="0" class="zr2-cls-5"></path>
<text dominant-baseline="central" text-anchor="middle" style="font-size:18px;font-family:sans-serif;font-weight:bold;" xml:space="preserve" y="9" transform="translate(500 5)" fill="#666666">Benchmark Results - Percentage Improvement</text>
<style ><![CDATA[
.zr2-cls-5:hover {
pointer-events:none;
}
.zr2-cls-6:hover {
cursor:pointer;
fill:rgba(69,194,249,1);
}

]]>

</style>
</svg>