<svg width="1000" height="1000" xmlns="http://www.w3.org/2000/svg" xmlns:xlink="http://www.w3.org/1999/xlink" version="1.1" baseProfile="full" viewBox="0 0 1000 1000">
<rect width="1000" height="1000" x="0" y="0" fill="rgb(252,252,252)" fill-opacity="0"></rect>
<path d="M215.5 950.5L960 950.5" fill="transparent" stroke="#eeeeee" class="zr0-cls-0"></path>
<path d="M215.5 839.5L960 839.5" fill="transparent" stroke="#eeeeee" class="zr0-cls-0"></path>
<path d="M215.5 727.5L960 727.5" fill="transparent" stroke="#eeeeee" class="zr0-cls-0"></path>
<path d="M215.5 616.5L960 616.5" fill="transparent" stroke="#eeeeee" class="zr0-cls-0"></path>
<path d="M215.5 505.5L960 505.5" fill="transparent" stroke="#eeeeee" class="zr0-cls-0"></path>
<path d="M215.5 394.5L960 394.5" fill="transparent" stroke="#eeeeee" class="zr0-cls-0"></path>
<path d="M215.5 282.5L960 282.5" fill="transparent" stroke="#eeeeee" class="zr0-cls-0"></path>
<path d="M215.5 171.5L960 171.5" fill="transparent" stroke="#eeeeee" class="zr0-cls-0"></path>
<path d="M215.5 60.5L960 60.5" fill="transparent" stroke="#eeeeee" class="zr0-cls-0"></path>
<path d="M215.5 950L215.5 60" fill="transparent" stroke="#cccccc" stroke-linecap="round" class="zr0-cls-0"></path>
<path d="M215.5 950.5L960 950.5" fill="transparent" stroke="#cccccc" stroke-linecap="round" class="zr0-cls-0"></path>
<text dominant-baseline="central" text-anchor="end" style="font-size:12px;font-family:sans-serif;" transform="translate(207.48 894.375)" fill="#999999">q1_stack_sync_explosives</text>
<text dominant-baseline="central" text-anchor="end" style="font-size:12px;font-family:sans-serif;" transform="translate(207.48 783.125)" fill="#999999">q1_stack_desync_explosives</text>
<text dominant-baseline="central" text-anchor="end" style="font-size:12px;font-family:sans-serif;" transform="translate(207.48 671.875)" fill="#999999">q1_stack_sync_research_prod</text>
<text dominant-baseline="central" text-anchor="end" style="font-size:12px;font-family:sans-serif;" transform="translate(207.48 560.625)" fill="#999999">q1_stack_sync_bot_speed</text>
<text dominant-baseline="central" text-anchor="end" style="font-size:12px;font-family:sans-serif;" transform="translate(207.48 449.375)" fill="#999999">q1_stack_desync_research_prod</text>
<text dominant-baseline="central" text-anchor="end" style="font-size:12px;font-family:sans-serif;" transform="translate(207.48 338.125)" fill="#999999">q1_stack_desync_bot_speed</text>
<text dominant-baseline="central" text-anchor="end" style="font-size:12px;font-family:sans-serif;" transform="translate(207.48 226.875)" fill="#999999">q1_stack_desync_steel_prod</text>
<text dominant-baseline="central" text-anchor="end" style="font-size:12px;font-family:sans-serif;" transform="translate(207.48 115.625)" fill="#999999">q1_stack_sync_steel_prod</text>
<text dominant-baseline="central" text-anchor="middle" style="font-size:12px;font-family:sans-serif;" y="6" transform="translate(215.48 958)" fill="#999999">0</text>
<text dominant-baseline="central" text-anchor="middle" style="font-size:12px;font-family:sans-serif;" y="6" transform="translate(364.384 958)" fill="#999999">200</text>
<text dominant-baseline="central" text-anchor="middle" style="font-size:12px;font-family:sans-serif;" y="6" transform="translate(513.288 958)" fill="#999999">400</text>
<text dominant-baseline="central" text-anchor="middle" style="font-size:12px;font-family:sans-serif;" y="6" transform="translate(662.192 958)" fill="#999999">600</text>
<text dominant-baseline="central" text-anchor="middle" style="font-size:12px;font-family:sans-serif;" y="6" transform="translate(811.096 958)" fill="#999999">800</text>
<text dominant-baseline="central" text-anchor="middle" style="font-size:12px;font-family:sans-serif;" y="6" transform="translate(960 958)" fill="#999999">1,000</text>
<path d="M215.5 856l263.6 0l0 76.8l-263.6 0Z" fill="#3fb1e3" ecmeta_series_index="0" ecmeta_data_index="0" ecmeta_ssr_type="chart" class="zr0-cls-1"></path>
<path d="M215.5 744.7l285.9 0l0 76.8l-285.9 0Z" fill="#3fb1e3" ecmeta_series_index="0" ecmeta_data_index="1" ecmeta_ssr_type="chart" class="zr0-cls-1"></path>
<path d="M215.5 633.5l296.3 0l0 76.8l-296.3 0Z" fill="#3fb1e3" ecmeta_series_index="0" ecmeta_data_index="2" ecmeta_ssr_type="chart" class="zr0-cls-1"></path>
<path d="M215.5 522.2l313.4 0l0 76.8l-313.4 0Z" fill="#3fb1e3" ecmeta_series_index="0" ecmeta_data_index="3" ecmeta_ssr_type="chart" class="zr0-cls-1"></path>
<path d="M215.5 411l315.7 0l0 76.8l-315.7 0Z" fill="#3fb1e3" ecmeta_series_index="0" ecmeta_data_index="4" ecmeta_ssr_type="chart" class="zr0-cls-1"></path>
<path d="M215.5 299.7l341 0l0 76.8l-341 0Z" fill="#3fb1e3" ecmeta_series_index="0" ecmeta_data_index="5" ecmeta_ssr_type="chart" class="zr0-cls-1"></path>
<path d="M215.5 188.5l592.6 0l0 76.8l-592.6 0Z" fill="#3fb1e3" ecmeta_series_index="0" ecmeta_data_index="6" ecmeta_ssr_type="chart" class="zr0-cls-1"></path>
<path d="M215.5 77.2l596.4 0l0 76.8l-596.4 0Z" fill="#3fb1e3" ecmeta_series_index="0" ecmeta_data_index="7" ecmeta_ssr_type="chart" class="zr0-cls-1"></path>
<text dominant-baseline="central" text-anchor="middle" style="font-size:12px;font-family:sans-serif;" transform="translate(347.26 894.375)" fill="#333">354</text>
<text dominant-baseline="central" text-anchor="middle" style="font-size:12px;font-family:sans-serif;" transform="translate(358.4278 783.125)" fill="#333">384</text>
<text dominant-baseline="central" text-anchor="middle" style="font-size:12px;font-family:sans-serif;" transform="translate(363.6395 671.875)" fill="#333">398</text>
<text dominant-baseline="central" text-anchor="middle" style="font-size:12px;font-family:sans-serif;" transform="translate(372.2015 560.625)" fill="#333">421</text>
<text dominant-baseline="central" text-anchor="middle" style="font-size:12px;font-family:sans-serif;" transform="translate(373.3182 449.375)" fill="#333">424</text>
<text dominant-baseline="central" text-anchor="middle" style="font-size:12px;font-family:sans-serif;" transform="translate(385.9751 338.125)" fill="#333">458</text>
<text dominant-baseline="central" text-anchor="middle" style="font-size:12px;font-family:sans-serif;" transform="translate(511.799 226.875)" fill="#333">796</text>
<text dominant-baseline="central" text-anchor="middle" style="font-size:12px;font-family:sans-serif;" transform="translate(513.6603 115.625)" fill="#333">801</text>
<path d="M-183.1 -5l366.2 0l0 28l-366.2 0Z" transform="translate(500 5)" fill="rgb(0,0,0)" fill-opacity="0" stroke="#ccc" stroke-width="0" class="zr0-cls-0"></path>
<text dominant-baseline="central" text-anchor="middle" style="font-size:18px;font-family:sans-serif;font-weight:bold;" xml:space="preserve" y="9" transform="translate(500 5)" fill="#666666">Benchmark Results - Average Effective UPS</text>
<style ><![CDATA[
.zr0-cls-0:hover {
pointer-events:none;
}
.zr0-cls-1:hover {
cursor:pointer;
fill:rgba(69,194,249,1);
}

]]>

</style>
</svg>