<svg width="1000" height="1000" xmlns="http://www.w3.org/2000/svg" xmlns:xlink="http://www.w3.org/1999/xlink" version="1.1" baseProfile="full" viewBox="0 0 1000 1000">
<rect width="1000" height="1000" x="0" y="0" fill="rgb(252,252,252)" fill-opacity="0"></rect>
<path d="M128.5 60L128.5 783.4" fill="transparent" stroke="#eeeeee" class="zr1-cls-2"></path>
<path d="M257.5 60L257.5 783.4" fill="transparent" stroke="#eeeeee" class="zr1-cls-2"></path>
<path d="M385.5 60L385.5 783.4" fill="transparent" stroke="#eeeeee" class="zr1-cls-2"></path>
<path d="M514.5 60L514.5 783.4" fill="transparent" stroke="#eeeeee" class="zr1-cls-2"></path>
<path d="M642.5 60L642.5 783.4" fill="transparent" stroke="#eeeeee" class="zr1-cls-2"></path>
<path d="M771.5 60L771.5 783.4" fill="transparent" stroke="#eeeeee" class="zr1-cls-2"></path>
<path d="M900.5 60L900.5 783.4" fill="transparent" stroke="#eeeeee" class="zr1-cls-2"></path>
<path d="M128.5 783.4L128.5 60" fill="transparent" stroke="#cccccc" stroke-linecap="round" class="zr1-cls-2"></path>
<text dominant-baseline="central" text-anchor="middle" style="font-size:12px;font-family:sans-serif;" y="-6" transform="translate(128.16 45)" fill="#cccccc">UPS</text>
<path d="M128.2 783.5L900 783.5" fill="transparent" stroke="#cccccc" stroke-linecap="round" class="zr1-cls-2"></path>
<text dominant-baseline="central" text-anchor="end" style="font-size:12px;font-family:sans-serif;" transform="translate(120.16 783.4417)" fill="#999999">401</text>
<text dominant-baseline="central" text-anchor="end" style="font-size:12px;font-family:sans-serif;" transform="translate(120.16 638.7533)" fill="#999999">491</text>
<text dominant-baseline="central" text-anchor="end" style="font-size:12px;font-family:sans-serif;" transform="translate(120.16 494.065)" fill="#999999">581</text>
<text dominant-baseline="central" text-anchor="end" style="font-size:12px;font-family:sans-serif;" transform="translate(120.16 349.3767)" fill="#999999">671</text>
<text dominant-baseline="central" text-anchor="end" style="font-size:12px;font-family:sans-serif;" transform="translate(120.16 204.6883)" fill="#999999">761</text>
<text dominant-baseline="central" text-anchor="end" style="font-size:12px;font-family:sans-serif;" transform="translate(120.16 60)" fill="#999999">851</text>
<text dominant-baseline="central" text-anchor="end" style="font-size:12px;font-family:sans-serif;" transform="matrix(0.707,-0.707,0.707,0.707,192.48,791.4417)" fill="#999999">1_every_60_staggered_reverse</text>
<text dominant-baseline="central" text-anchor="end" style="font-size:12px;font-family:sans-serif;" transform="matrix(0.707,-0.707,0.707,0.707,321.12,791.4417)" fill="#999999">4_every_240_staggered_reverse</text>
<text dominant-baseline="central" text-anchor="end" style="font-size:12px;font-family:sans-serif;" transform="matrix(0.707,-0.707,0.707,0.707,449.76,791.4417)" fill="#999999">1_every_60_staggered</text>
<text dominant-baseline="central" text-anchor="end" style="font-size:12px;font-family:sans-serif;" transform="matrix(0.707,-0.707,0.707,0.707,578.4,791.4417)" fill="#999999">1_every_60</text>
<text dominant-baseline="central" text-anchor="end" style="font-size:12px;font-family:sans-serif;" transform="matrix(0.707,-0.707,0.707,0.707,707.04,791.4417)" fill="#999999">4_every_240_staggered</text>
<text dominant-baseline="central" text-anchor="end" style="font-size:12px;font-family:sans-serif;" transform="matrix(0.707,-0.707,0.707,0.707,835.68,791.4417)" fill="#999999">4_every_240</text>
<path d="M167.5 741L217.5 741L217.5 705.9L167.5 705.9ZM192.5 748.4L192.5 741M192.5 689.6L192.5 705.9M167.5 748.4L217.5 748.4M167.5 689.6L217.5 689.6M167.5 706.6L217.5 706.6" fill="#fff" stroke="#3FB1E3" ecmeta_series_index="0" ecmeta_data_index="0" ecmeta_ssr_type="chart" class="zr1-cls-3"></path>
<path d="M296.1 556.1L346.1 556.1L346.1 530.5L296.1 530.5ZM321.1 581L321.1 556.1M321.1 528L321.1 530.5M296.1 581L346.1 581M296.1 528L346.1 528M296.1 534.9L346.1 534.9" fill="#fff" stroke="#3FB1E3" ecmeta_series_index="0" ecmeta_data_index="1" ecmeta_ssr_type="chart" class="zr1-cls-3"></path>
<path d="M424.8 419.7L474.8 419.7L474.8 394.8L424.8 394.8ZM449.8 420.6L449.8 419.7M449.8 388.1L449.8 394.8M424.8 420.6L474.8 420.6M424.8 388.1L474.8 388.1M424.8 396.5L474.8 396.5" fill="#fff" stroke="#3FB1E3" ecmeta_series_index="0" ecmeta_data_index="2" ecmeta_ssr_type="chart" class="zr1-cls-3"></path>
<path d="M553.4 395.9L603.4 395.9L603.4 370.5L553.4 370.5ZM578.4 395.9M578.4 337.8L578.4 370.5M553.4 395.9L603.4 395.9M553.4 337.8L603.4 337.8M553.4 379.2L603.4 379.2" fill="#fff" stroke="#3FB1E3" ecmeta_series_index="0" ecmeta_data_index="3" ecmeta_ssr_type="chart" class="zr1-cls-3"></path>
<path d="M682 214.6L732 214.6L732 188.2L682 188.2ZM707 219.3L707 214.6M707 188.2M682 219.3L732 219.3M682 188.2L732 188.2M682 193.3L732 193.3" fill="#fff" stroke="#3FB1E3" ecmeta_series_index="0" ecmeta_data_index="4" ecmeta_ssr_type="chart" class="zr1-cls-3"></path>
<path d="M810.7 186.2L860.7 186.2L860.7 166.2L810.7 166.2ZM835.7 186.2M835.7 158.3L835.7 166.2M810.7 186.2L860.7 186.2M810.7 158.3L860.7 158.3M810.7 173.6L860.7 173.6" fill="#fff" stroke="#3FB1E3" ecmeta_series_index="0" ecmeta_data_index="5" ecmeta_ssr_type="chart" class="zr1-cls-3"></path>
<path d="M1 0A1 1 0 1 1 1 -0.1A1 1 0 0 1 1 0" transform="matrix(5,0,0,5,578.4,439.9003)" fill="#3fb1e3" fill-opacity="0.8" stroke="#ccc" stroke-width="0" stroke-opacity="0.8" ecmeta_series_index="1" ecmeta_data_index="0" ecmeta_ssr_type="chart" class="zr1-cls-4"></path>
<path d="M1 0A1 1 0 1 1 1 -0.1A1 1 0 0 1 1 0" transform="matrix(5,0,0,5,707.04,126.3486)" fill="#3fb1e3" fill-opacity="0.8" stroke="#ccc" stroke-width="0" stroke-opacity="0.8" ecmeta_series_index="1" ecmeta_data_index="1" ecmeta_ssr_type="chart" class="zr1-cls-4"></path>
<path d="M1 0A1 1 0 1 1 1 -0.1A1 1 0 0 1 1 0" transform="matrix(5,0,0,5,835.68,270.9491)" fill="#3fb1e3" fill-opacity="0.8" stroke="#ccc" stroke-width="0" stroke-opacity="0.8" ecmeta_series_index="1" ecmeta_data_index="2" ecmeta_ssr_type="chart" class="zr1-cls-4"></path>
<path d="M-194.5 -5l389.1 0l0 28l-389.1 0Z" transform="translate(500 5)" fill="rgb(0,0,0)" fill-opacity="0" stroke="#ccc" stroke-width="0" class="zr1-cls-2"></path>
<text dominant-baseline="central" text-anchor="middle" style="font-size:18px;font-family:sans-serif;font-weight:bold;" xml:space="preserve" y="9" transform="translate(500 5)" fill="#666666">Benchmark Results - Effective UPS Distribution</text>
<style ><![CDATA[
.zr1-cls-2:hover {
pointer-events:none;
}
.zr1-cls-3:hover {
cursor:pointer;
fill:rgba(255,255,255,1);
stroke-width:2;
}
.zr1-cls-4:hover {
cursor:pointer;
fill:rgba(69,194,249,1);
}

]]>

</style>
</svg>