<svg width="1000" height="1000" xmlns="http://www.w3.org/2000/svg" xmlns:xlink="http://www.w3.org/1999/xlink" version="1.1" baseProfile="full" viewBox="0 0 1000 1000">
<rect width="1000" height="1000" x="0" y="0" fill="rgb(252,252,252)" fill-opacity="0"></rect>
<path d="M214.9 950.5L960 950.5" fill="transparent" stroke="#eeeeee" class="zr2-cls-5"></path>
<path d="M214.9 801.5L960 801.5" fill="transparent" stroke="#eeeeee" class="zr2-cls-5"></path>
<path d="M214.9 653.5L960 653.5" fill="transparent" stroke="#eeeeee" class="zr2-cls-5"></path>
<path d="M214.9 505.5L960 505.5" fill="transparent" stroke="#eeeeee" class="zr2-cls-5"></path>
<path d="M214.9 356.5L960 356.5" fill="transparent" stroke="#eeeeee" class="zr2-cls-5"></path>
<path d="M214.9 208.5L960 208.5" fill="transparent" stroke="#eeeeee" class="zr2-cls-5"></path>
<path d="M214.9 60.5L960 60.5" fill="transparent" stroke="#eeeeee" class="zr2-cls-5"></path>
<path d="M215.5 950L215.5 60" fill="transparent" stroke="#cccccc" stroke-linecap="round" class="zr2-cls-5"></path>
<path d="M214.9 950.5L960 950.5" fill="transparent" stroke="#cccccc" stroke-linecap="round" class="zr2-cls-5"></path>
<text dominant-baseline="central" text-anchor="end" style="font-size:12px;font-family:sans-serif;" transform="translate(206.88 875.8333)" fill="#999999">1_every_60_staggered_reverse</text>
<text dominant-baseline="central" text-anchor="end" style="font-size:12px;font-family:sans-serif;" transform="translate(206.88 727.5)" fill="#999999">4_every_240_staggered_reverse</text>
<text dominant-baseline="central" text-anchor="end" style="font-size:12px;font-family:sans-serif;" transform="translate(206.88 579.1667)" fill="#999999">1_every_60_staggered</text>
<text dominant-baseline="central" text-anchor="end" style="font-size:12px;font-family:sans-serif;" transform="translate(206.88 430.8333)" fill="#999999">1_every_60</text>
<text dominant-baseline="central" text-anchor="end" style="font-size:12px;font-family:sans-serif;" transform="translate(206.88 282.5)" fill="#999999">4_every_240_staggered</text>
<text dominant-baseline="central" text-anchor="end" style="font-size:12px;font-family:sans-serif;" transform="translate(206.88 134.1667)" fill="#999999">4_every_240</text>
<text dominant-baseline="central" text-anchor="middle" style="font-size:12px;font-family:sans-serif;" y="6" transform="translate(214.88 958)" fill="#999999">0</text>
<text dominant-baseline="central" text-anchor="middle" style="font-size:12px;font-family:sans-serif;" y="6" transform="translate(401.16 958)" fill="#999999">20</text>
<text dominant-baseline="central" text-anchor="middle" style="font-size:12px;font-family:sans-serif;" y="6" transform="translate(587.44 958)" fill="#999999">40</text>
<text dominant-baseline="central" text-anchor="middle" style="font-size:12px;font-family:sans-serif;" y="6" transform="translate(773.72 958)" fill="#999999">60</text>
<text dominant-baseline="central" text-anchor="middle" style="font-size:12px;font-family:sans-serif;" y="6" transform="translate(960 958)" fill="#999999">80</text>
<path d="M214.9 824.7l0 0l0 102.4l0 0Z" fill="#3fb1e3" ecmeta_series_index="0" ecmeta_data_index="0" ecmeta_ssr_type="chart" class="zr2-cls-6"></path>
<path d="M214.9 676.3l230.4 0l0 102.4l-230.4 0Z" fill="#3fb1e3" ecmeta_series_index="0" ecmeta_data_index="1" ecmeta_ssr_type="chart" class="zr2-cls-6"></path>
<path d="M214.9 528l416 0l0 102.4l-416 0Z" fill="#3fb1e3" ecmeta_series_index="0" ecmeta_data_index="2" ecmeta_ssr_type="chart" class="zr2-cls-6"></path>
<path d="M214.9 379.7l440.9 0l0 102.4l-440.9 0Z" fill="#3fb1e3" ecmeta_series_index="0" ecmeta_data_index="3" ecmeta_ssr_type="chart" class="zr2-cls-6"></path>
<path d="M214.9 231.3l696.7 0l0 102.4l-696.7 0Z" fill="#3fb1e3" ecmeta_series_index="0" ecmeta_data_index="4" ecmeta_ssr_type="chart" class="zr2-cls-6"></path>
<path d="M214.9 83l699.8 0l0 102.4l-699.8 0Z" fill="#3fb1e3" ecmeta_series_index="0" ecmeta_data_index="5" ecmeta_ssr_type="chart" class="zr2-cls-6"></path>
<text dominant-baseline="central" text-anchor="middle" style="font-size:12px;font-family:sans-serif;" transform="translate(214.88 875.8333)" fill="#333">0</text>
<text dominant-baseline="central" text-anchor="middle" style="font-size:12px;font-family:sans-serif;" transform="translate(330.0942 727.5)" fill="#333">24.74</text>
<text dominant-baseline="central" text-anchor="middle" style="font-size:12px;font-family:sans-serif;" transform="translate(422.8616 579.1667)" fill="#333">44.66</text>
<text dominant-baseline="central" text-anchor="middle" style="font-size:12px;font-family:sans-serif;" transform="translate(435.3424 430.8333)" fill="#333">47.34</text>
<text dominant-baseline="central" text-anchor="middle" style="font-size:12px;font-family:sans-serif;" transform="translate(563.2236 282.5)" fill="#333">74.8</text>
<text dominant-baseline="central" text-anchor="middle" style="font-size:12px;font-family:sans-serif;" transform="translate(564.7604 134.1667)" fill="#333">75.13</text>
<path d="M-192.6 -5l385.3 0l0 28l-385.3 0Z" transform="translate(500 5)" fill="rgb(0,0,0)" fill-opacity="0" stroke="#ccc" stroke-width="0" class="zr2-cls-5"></path>
<text dominant-baseline="central" text-anchor="middle" style="font-size:18px;font-family:sans-serif;font-weight:bold;" xml:space="preserve" y="9" transform="translate(500 5)" fill="#666666">Benchmark Results - Percentage Improvement</text>
<style ><![CDATA[
.zr2-cls-5:hover {
pointer-events:none;
}
.zr2-cls-6:hover {
cursor:pointer;
fill:rgba(69,194,249,1);
}

]]>

</style>
</svg>