<svg width="1000" height="1000" xmlns="http://www.w3.org/2000/svg" xmlns:xlink="http://www.w3.org/1999/xlink" version="1.1" baseProfile="full" viewBox="0 0 1000 1000">
<rect width="1000" height="1000" x="0" y="0" fill="rgb(252,252,252)" fill-opacity="0"></rect>
<path d="M138.5 60L138.5 845.4" fill="transparent" stroke="#eeeeee" class="zr1-cls-2"></path>
<path d="M328.5 60L328.5 845.4" fill="transparent" stroke="#eeeeee" class="zr1-cls-2"></path>
<path d="M519.5 60L519.5 845.4" fill="transparent" stroke="#eeeeee" class="zr1-cls-2"></path>
<path d="M709.5 60L709.5 845.4" fill="transparent" stroke="#eeeeee" class="zr1-cls-2"></path>
<path d="M900.5 60L900.5 845.4" fill="transparent" stroke="#eeeeee" class="zr1-cls-2"></path>
<path d="M138.5 845.4L138.5 60" fill="transparent" stroke="#cccccc" stroke-linecap="round" class="zr1-cls-2"></path>
<text dominant-baseline="central" text-anchor="middle" style="font-size:12px;font-family:sans-serif;" y="-6" transform="translate(138.24 45)" fill="#cccccc">UPS</text>
<path d="M138.2 845.5L900 845.5" fill="transparent" stroke="#cccccc" stroke-linecap="round" class="zr1-cls-2"></path>
<text dominant-baseline="central" text-anchor="end" style="font-size:12px;font-family:sans-serif;" transform="translate(130.24 845.3842)" fill="#999999">645</text>
<text dominant-baseline="central" text-anchor="end" style="font-size:12px;font-family:sans-serif;" transform="translate(130.24 688.3074)" fill="#999999">694.2</text>
<text dominant-baseline="central" text-anchor="end" style="font-size:12px;font-family:sans-serif;" transform="translate(130.24 531.2305)" fill="#999999">743.4</text>
<text dominant-baseline="central" text-anchor="end" style="font-size:12px;font-family:sans-serif;" transform="translate(130.24 374.1537)" fill="#999999">792.6</text>
<text dominant-baseline="central" text-anchor="end" style="font-size:12px;font-family:sans-serif;" transform="translate(130.24 217.0768)" fill="#999999">841.8</text>
<text dominant-baseline="central" text-anchor="end" style="font-size:12px;font-family:sans-serif;" transform="translate(130.24 60)" fill="#999999">891</text>
<text dominant-baseline="central" text-anchor="end" style="font-size:12px;font-family:sans-serif;" transform="matrix(0.707,-0.707,0.707,0.707,233.46,853.3842)" fill="#999999">04_blue_test_01</text>
<text dominant-baseline="central" text-anchor="end" style="font-size:12px;font-family:sans-serif;" transform="matrix(0.707,-0.707,0.707,0.707,423.9,853.3842)" fill="#999999">03_blue_test_02</text>
<text dominant-baseline="central" text-anchor="end" style="font-size:12px;font-family:sans-serif;" transform="matrix(0.707,-0.707,0.707,0.707,614.34,853.3842)" fill="#999999">01_blue_test_04</text>
<text dominant-baseline="central" text-anchor="end" style="font-size:12px;font-family:sans-serif;" transform="matrix(0.707,-0.707,0.707,0.707,804.78,853.3842)" fill="#999999">02_blue_test_03</text>
<path d="M208.5 726L258.5 726L258.5 642.4L208.5 642.4ZM233.5 734.7L233.5 726M233.5 626.9L233.5 642.4M208.5 734.7L258.5 734.7M208.5 626.9L258.5 626.9M208.5 714L258.5 714" fill="#fff" stroke="#3FB1E3" ecmeta_series_index="0" ecmeta_data_index="0" ecmeta_ssr_type="chart" class="zr1-cls-3"></path>
<path d="M398.9 437.3L448.9 437.3L448.9 343.9L398.9 343.9ZM423.9 452.9L423.9 437.3M423.9 336.6L423.9 343.9M398.9 452.9L448.9 452.9M398.9 336.6L448.9 336.6M398.9 419.1L448.9 419.1" fill="#fff" stroke="#3FB1E3" ecmeta_series_index="0" ecmeta_data_index="1" ecmeta_ssr_type="chart" class="zr1-cls-3"></path>
<path d="M589.3 395.5L639.3 395.5L639.3 295.7L589.3 295.7ZM614.3 411.7L614.3 395.5M614.3 275.7L614.3 295.7M589.3 411.7L639.3 411.7M589.3 275.7L639.3 275.7M589.3 379.3L639.3 379.3" fill="#fff" stroke="#3FB1E3" ecmeta_series_index="0" ecmeta_data_index="2" ecmeta_ssr_type="chart" class="zr1-cls-3"></path>
<path d="M779.8 297.3L829.8 297.3L829.8 199.4L779.8 199.4ZM804.8 316L804.8 297.3M804.8 197.1L804.8 199.4M779.8 316L829.8 316M779.8 197.1L829.8 197.1M779.8 288.8L829.8 288.8" fill="#fff" stroke="#3FB1E3" ecmeta_series_index="0" ecmeta_data_index="3" ecmeta_ssr_type="chart" class="zr1-cls-3"></path>
<path d="M-194.5 -5l389.1 0l0 28l-389.1 0Z" transform="translate(500 5)" fill="rgb(0,0,0)" fill-opacity="0" stroke="#ccc" stroke-width="0" class="zr1-cls-2"></path>
<text dominant-baseline="central" text-anchor="middle" style="font-size:18px;font-family:sans-serif;font-weight:bold;" xml:space="preserve" y="9" transform="translate(500 5)" fill="#666666">Benchmark Results - Effective UPS Distribution</text>
<style ><![CDATA[
.zr1-cls-2:hover {
pointer-events:none;
}
.zr1-cls-3:hover {
cursor:pointer;
fill:rgba(255,255,255,1);
stroke-width:2;
}

]]>

</style>
</svg>