<svg width="1000" height="1000" xmlns="http://www.w3.org/2000/svg" xmlns:xlink="http://www.w3.org/1999/xlink" version="1.1" baseProfile="full" viewBox="0 0 1000 1000">
<rect width="1000" height="1000" x="0" y="0" fill="rgb(252,252,252)" fill-opacity="0"></rect>
<path d="M194 950.5L960 950.5" fill="transparent" stroke="#eeeeee" class="zr2-cls-4"></path>
<path d="M194 772.5L960 772.5" fill="transparent" stroke="#eeeeee" class="zr2-cls-4"></path>
<path d="M194 594.5L960 594.5" fill="transparent" stroke="#eeeeee" class="zr2-cls-4"></path>
<path d="M194 416.5L960 416.5" fill="transparent" stroke="#eeeeee" class="zr2-cls-4"></path>
<path d="M194 238.5L960 238.5" fill="transparent" stroke="#eeeeee" class="zr2-cls-4"></path>
<path d="M194 60.5L960 60.5" fill="transparent" stroke="#eeeeee" class="zr2-cls-4"></path>
<path d="M194.5 950L194.5 60" fill="transparent" stroke="#cccccc" stroke-linecap="round" class="zr2-cls-4"></path>
<path d="M194 950.5L960 950.5" fill="transparent" stroke="#cccccc" stroke-linecap="round" class="zr2-cls-4"></path>
<text dominant-baseline="central" text-anchor="end" style="font-size:12px;font-family:sans-serif;" transform="translate(186 861)" fill="#999999">q1_stack_wake_explosives</text>
<text dominant-baseline="central" text-anchor="end" style="font-size:12px;font-family:sans-serif;" transform="translate(186 683)" fill="#999999">q1_stack_sync_explosives</text>
<text dominant-baseline="central" text-anchor="end" style="font-size:12px;font-family:sans-serif;" transform="translate(186 505)" fill="#999999">q1_bulk_explosives</text>
<text dominant-baseline="central" text-anchor="end" style="font-size:12px;font-family:sans-serif;" transform="translate(186 327)" fill="#999999">q1_stack_desync_explosives</text>
<text dominant-baseline="central" text-anchor="end" style="font-size:12px;font-family:sans-serif;" transform="translate(186 149)" fill="#999999">q2_stack_desync_explosives</text>
<text dominant-baseline="central" text-anchor="middle" style="font-size:12px;font-family:sans-serif;" y="6" transform="translate(194 958)" fill="#999999">0</text>
<text dominant-baseline="central" text-anchor="middle" style="font-size:12px;font-family:sans-serif;" y="6" transform="translate(347.2 958)" fill="#999999">30</text>
<text dominant-baseline="central" text-anchor="middle" style="font-size:12px;font-family:sans-serif;" y="6" transform="translate(500.4 958)" fill="#999999">60</text>
<text dominant-baseline="central" text-anchor="middle" style="font-size:12px;font-family:sans-serif;" y="6" transform="translate(653.6 958)" fill="#999999">90</text>
<text dominant-baseline="central" text-anchor="middle" style="font-size:12px;font-family:sans-serif;" y="6" transform="translate(806.8 958)" fill="#999999">120</text>
<text dominant-baseline="central" text-anchor="middle" style="font-size:12px;font-family:sans-serif;" y="6" transform="translate(960 958)" fill="#999999">150</text>
<path d="M194 799.6l0 0l0 122.8l0 0Z" fill="#3fb1e3" ecmeta_series_index="0" ecmeta_data_index="0" ecmeta_ssr_type="chart" class="zr2-cls-5"></path>
<path d="M194 621.6l271.5 0l0 122.8l-271.5 0Z" fill="#3fb1e3" ecmeta_series_index="0" ecmeta_data_index="1" ecmeta_ssr_type="chart" class="zr2-cls-5"></path>
<path d="M194 443.6l290.1 0l0 122.8l-290.1 0Z" fill="#3fb1e3" ecmeta_series_index="0" ecmeta_data_index="2" ecmeta_ssr_type="chart" class="zr2-cls-5"></path>
<path d="M194 265.6l341 0l0 122.8l-341 0Z" fill="#3fb1e3" ecmeta_series_index="0" ecmeta_data_index="3" ecmeta_ssr_type="chart" class="zr2-cls-5"></path>
<path d="M194 87.6l658.9 0l0 122.8l-658.9 0Z" fill="#3fb1e3" ecmeta_series_index="0" ecmeta_data_index="4" ecmeta_ssr_type="chart" class="zr2-cls-5"></path>
<text dominant-baseline="central" text-anchor="middle" style="font-size:12px;font-family:sans-serif;" transform="translate(194 861)" fill="#333">0</text>
<text dominant-baseline="central" text-anchor="middle" style="font-size:12px;font-family:sans-serif;" transform="translate(329.7352 683)" fill="#333">53.16</text>
<text dominant-baseline="central" text-anchor="middle" style="font-size:12px;font-family:sans-serif;" transform="translate(339.0549 505)" fill="#333">56.81</text>
<text dominant-baseline="central" text-anchor="middle" style="font-size:12px;font-family:sans-serif;" transform="translate(364.5116 327)" fill="#333">66.78</text>
<text dominant-baseline="central" text-anchor="middle" style="font-size:12px;font-family:sans-serif;" transform="translate(523.4311 149)" fill="#333">129.02</text>
<path d="M-192.6 -5l385.3 0l0 28l-385.3 0Z" transform="translate(500 5)" fill="rgb(0,0,0)" fill-opacity="0" stroke="#ccc" stroke-width="0" class="zr2-cls-4"></path>
<text dominant-baseline="central" text-anchor="middle" style="font-size:18px;font-family:sans-serif;font-weight:bold;" xml:space="preserve" y="9" transform="translate(500 5)" fill="#666666">Benchmark Results - Percentage Improvement</text>
<style ><![CDATA[
.zr2-cls-4:hover {
pointer-events:none;
}
.zr2-cls-5:hover {
cursor:pointer;
fill:rgba(69,194,249,1);
}

]]>

</style>
</svg>