<svg width="1000" height="1000" xmlns="http://www.w3.org/2000/svg" xmlns:xlink="http://www.w3.org/1999/xlink" version="1.1" baseProfile="full" viewBox="0 0 1000 1000">
<rect width="1000" height="1000" x="0" y="0" fill="rgb(252,252,252)" fill-opacity="0"></rect>
<path d="M128.5 60L128.5 798.2" fill="transparent" stroke="#eeeeee" class="zr1-cls-2"></path>
<path d="M282.5 60L282.5 798.2" fill="transparent" stroke="#eeeeee" class="zr1-cls-2"></path>
<path d="M437.5 60L437.5 798.2" fill="transparent" stroke="#eeeeee" class="zr1-cls-2"></path>
<path d="M591.5 60L591.5 798.2" fill="transparent" stroke="#eeeeee" class="zr1-cls-2"></path>
<path d="M745.5 60L745.5 798.2" fill="transparent" stroke="#eeeeee" class="zr1-cls-2"></path>
<path d="M900.5 60L900.5 798.2" fill="transparent" stroke="#eeeeee" class="zr1-cls-2"></path>
<path d="M128.5 798.2L128.5 60" fill="transparent" stroke="#cccccc" stroke-linecap="round" class="zr1-cls-2"></path>
<text dominant-baseline="central" text-anchor="middle" style="font-size:12px;font-family:sans-serif;" y="-6" transform="translate(128.16 45)" fill="#cccccc">UPS</text>
<path d="M128.2 798.5L900 798.5" fill="transparent" stroke="#cccccc" stroke-linecap="round" class="zr1-cls-2"></path>
<text dominant-baseline="central" text-anchor="end" style="font-size:12px;font-family:sans-serif;" transform="translate(120.16 798.2061)" fill="#999999">204</text>
<text dominant-baseline="central" text-anchor="end" style="font-size:12px;font-family:sans-serif;" transform="translate(120.16 650.5648)" fill="#999999">275</text>
<text dominant-baseline="central" text-anchor="end" style="font-size:12px;font-family:sans-serif;" transform="translate(120.16 502.9236)" fill="#999999">346</text>
<text dominant-baseline="central" text-anchor="end" style="font-size:12px;font-family:sans-serif;" transform="translate(120.16 355.2824)" fill="#999999">417</text>
<text dominant-baseline="central" text-anchor="end" style="font-size:12px;font-family:sans-serif;" transform="translate(120.16 207.6412)" fill="#999999">488</text>
<text dominant-baseline="central" text-anchor="end" style="font-size:12px;font-family:sans-serif;" transform="translate(120.16 60)" fill="#999999">559</text>
<text dominant-baseline="central" text-anchor="end" style="font-size:12px;font-family:sans-serif;" transform="matrix(0.707,-0.707,0.707,0.707,205.344,806.2061)" fill="#999999">q1_stack_wake_explosives</text>
<text dominant-baseline="central" text-anchor="end" style="font-size:12px;font-family:sans-serif;" transform="matrix(0.707,-0.707,0.707,0.707,359.712,806.2061)" fill="#999999">q1_stack_sync_explosives</text>
<text dominant-baseline="central" text-anchor="end" style="font-size:12px;font-family:sans-serif;" transform="matrix(0.707,-0.707,0.707,0.707,514.08,806.2061)" fill="#999999">q1_bulk_explosives</text>
<text dominant-baseline="central" text-anchor="end" style="font-size:12px;font-family:sans-serif;" transform="matrix(0.707,-0.707,0.707,0.707,668.448,806.2061)" fill="#999999">q1_stack_desync_explosives</text>
<text dominant-baseline="central" text-anchor="end" style="font-size:12px;font-family:sans-serif;" transform="matrix(0.707,-0.707,0.707,0.707,822.816,806.2061)" fill="#999999">q2_stack_desync_explosives</text>
<path d="M180.3 775.3L230.3 775.3L230.3 719.3L180.3 719.3ZM205.3 775.3M205.3 719.3M180.3 775.3L230.3 775.3M180.3 719.3L230.3 719.3M180.3 760.2L230.3 760.2" fill="#fff" stroke="#3FB1E3" ecmeta_series_index="0" ecmeta_data_index="0" ecmeta_ssr_type="chart" class="zr1-cls-3"></path>
<path d="M334.7 502.5L384.7 502.5L384.7 499.3L334.7 499.3ZM359.7 502.5M359.7 499.3M334.7 502.5L384.7 502.5M334.7 499.3L384.7 499.3M334.7 502L384.7 502" fill="#fff" stroke="#3FB1E3" ecmeta_series_index="0" ecmeta_data_index="1" ecmeta_ssr_type="chart" class="zr1-cls-3"></path>
<path d="M489.1 499.1L539.1 499.1L539.1 475.3L489.1 475.3ZM514.1 499.1M514.1 475.3M489.1 499.1L539.1 499.1M489.1 475.3L539.1 475.3M489.1 478L539.1 478" fill="#fff" stroke="#3FB1E3" ecmeta_series_index="0" ecmeta_data_index="2" ecmeta_ssr_type="chart" class="zr1-cls-3"></path>
<path d="M643.4 467.1L693.4 467.1L693.4 420.6L643.4 420.6ZM668.4 467.1M668.4 420.6M643.4 467.1L693.4 467.1M643.4 420.6L693.4 420.6M643.4 423.8L693.4 423.8" fill="#fff" stroke="#3FB1E3" ecmeta_series_index="0" ecmeta_data_index="3" ecmeta_ssr_type="chart" class="zr1-cls-3"></path>
<path d="M797.8 160.4L847.8 160.4L847.8 115.6L797.8 115.6ZM822.8 160.4M822.8 115.6M797.8 160.4L847.8 160.4M797.8 115.6L847.8 115.6M797.8 156.4L847.8 156.4" fill="#fff" stroke="#3FB1E3" ecmeta_series_index="0" ecmeta_data_index="4" ecmeta_ssr_type="chart" class="zr1-cls-3"></path>
<path d="M-194.5 -5l389.1 0l0 28l-389.1 0Z" transform="translate(500 5)" fill="rgb(0,0,0)" fill-opacity="0" stroke="#ccc" stroke-width="0" class="zr1-cls-2"></path>
<text dominant-baseline="central" text-anchor="middle" style="font-size:18px;font-family:sans-serif;font-weight:bold;" xml:space="preserve" y="9" transform="translate(500 5)" fill="#666666">Benchmark Results - Effective UPS Distribution</text>
<style ><![CDATA[
.zr1-cls-2:hover {
pointer-events:none;
}
.zr1-cls-3:hover {
cursor:pointer;
fill:rgba(255,255,255,1);
stroke-width:2;
}

]]>

</style>
</svg>