<svg width="1000" height="1000" xmlns="http://www.w3.org/2000/svg" xmlns:xlink="http://www.w3.org/1999/xlink" version="1.1" baseProfile="full" viewBox="0 0 1000 1000">
<rect width="1000" height="1000" x="0" y="0" fill="rgb(252,252,252)" fill-opacity="0"></rect>
<path d="M138.5 60L138.5 862.5" fill="transparent" stroke="#eeeeee" class="zr1-cls-2"></path>
<path d="M173.5 60L173.5 862.5" fill="transparent" stroke="#eeeeee" class="zr1-cls-2"></path>
<path d="M207.5 60L207.5 862.5" fill="transparent" stroke="#eeeeee" class="zr1-cls-2"></path>
<path d="M242.5 60L242.5 862.5" fill="transparent" stroke="#eeeeee" class="zr1-cls-2"></path>
<path d="M276.5 60L276.5 862.5" fill="transparent" stroke="#eeeeee" class="zr1-cls-2"></path>
<path d="M311.5 60L311.5 862.5" fill="transparent" stroke="#eeeeee" class="zr1-cls-2"></path>
<path d="M346.5 60L346.5 862.5" fill="transparent" stroke="#eeeeee" class="zr1-cls-2"></path>
<path d="M380.5 60L380.5 862.5" fill="transparent" stroke="#eeeeee" class="zr1-cls-2"></path>
<path d="M415.5 60L415.5 862.5" fill="transparent" stroke="#eeeeee" class="zr1-cls-2"></path>
<path d="M450.5 60L450.5 862.5" fill="transparent" stroke="#eeeeee" class="zr1-cls-2"></path>
<path d="M484.5 60L484.5 862.5" fill="transparent" stroke="#eeeeee" class="zr1-cls-2"></path>
<path d="M519.5 60L519.5 862.5" fill="transparent" stroke="#eeeeee" class="zr1-cls-2"></path>
<path d="M553.5 60L553.5 862.5" fill="transparent" stroke="#eeeeee" class="zr1-cls-2"></path>
<path d="M588.5 60L588.5 862.5" fill="transparent" stroke="#eeeeee" class="zr1-cls-2"></path>
<path d="M623.5 60L623.5 862.5" fill="transparent" stroke="#eeeeee" class="zr1-cls-2"></path>
<path d="M657.5 60L657.5 862.5" fill="transparent" stroke="#eeeeee" class="zr1-cls-2"></path>
<path d="M692.5 60L692.5 862.5" fill="transparent" stroke="#eeeeee" class="zr1-cls-2"></path>
<path d="M727.5 60L727.5 862.5" fill="transparent" stroke="#eeeeee" class="zr1-cls-2"></path>
<path d="M761.5 60L761.5 862.5" fill="transparent" stroke="#eeeeee" class="zr1-cls-2"></path>
<path d="M796.5 60L796.5 862.5" fill="transparent" stroke="#eeeeee" class="zr1-cls-2"></path>
<path d="M830.5 60L830.5 862.5" fill="transparent" stroke="#eeeeee" class="zr1-cls-2"></path>
<path d="M865.5 60L865.5 862.5" fill="transparent" stroke="#eeeeee" class="zr1-cls-2"></path>
<path d="M900.5 60L900.5 862.5" fill="transparent" stroke="#eeeeee" class="zr1-cls-2"></path>
<path d="M138.5 862.5L138.5 60" fill="transparent" stroke="#cccccc" stroke-linecap="round" class="zr1-cls-2"></path>
<text dominant-baseline="central" text-anchor="middle" style="font-size:12px;font-family:sans-serif;" y="-6" transform="translate(138.24 45)" fill="#cccccc">UPS</text>
<path d="M138.2 862.5L900 862.5" fill="transparent" stroke="#cccccc" stroke-linecap="round" class="zr1-cls-2"></path>
<text dominant-baseline="central" text-anchor="end" style="font-size:12px;font-family:sans-serif;" transform="translate(130.24 862.5245)" fill="#999999">362</text>
<text dominant-baseline="central" text-anchor="end" style="font-size:12px;font-family:sans-serif;" transform="translate(130.24 702.0196)" fill="#999999">473.6</text>
<text dominant-baseline="central" text-anchor="end" style="font-size:12px;font-family:sans-serif;" transform="translate(130.24 541.5147)" fill="#999999">585.2</text>
<text dominant-baseline="central" text-anchor="end" style="font-size:12px;font-family:sans-serif;" transform="translate(130.24 381.0098)" fill="#999999">696.8</text>
<text dominant-baseline="central" text-anchor="end" style="font-size:12px;font-family:sans-serif;" transform="translate(130.24 220.5049)" fill="#999999">808.4</text>
<text dominant-baseline="central" text-anchor="end" style="font-size:12px;font-family:sans-serif;" transform="translate(130.24 60)" fill="#999999">920</text>
<text dominant-baseline="central" text-anchor="end" style="font-size:12px;font-family:sans-serif;" transform="matrix(0.707,-0.707,0.707,0.707,155.5527,870.5245)" fill="#999999">14</text>
<text dominant-baseline="central" text-anchor="end" style="font-size:12px;font-family:sans-serif;" transform="matrix(0.707,-0.707,0.707,0.707,190.1782,870.5245)" fill="#999999">13</text>
<text dominant-baseline="central" text-anchor="end" style="font-size:12px;font-family:sans-serif;" transform="matrix(0.707,-0.707,0.707,0.707,224.8036,870.5245)" fill="#999999">03</text>
<text dominant-baseline="central" text-anchor="end" style="font-size:12px;font-family:sans-serif;" transform="matrix(0.707,-0.707,0.707,0.707,259.4291,870.5245)" fill="#999999">20</text>
<text dominant-baseline="central" text-anchor="end" style="font-size:12px;font-family:sans-serif;" transform="matrix(0.707,-0.707,0.707,0.707,294.0545,870.5245)" fill="#999999">00_baseline</text>
<text dominant-baseline="central" text-anchor="end" style="font-size:12px;font-family:sans-serif;" transform="matrix(0.707,-0.707,0.707,0.707,328.68,870.5245)" fill="#999999">18</text>
<text dominant-baseline="central" text-anchor="end" style="font-size:12px;font-family:sans-serif;" transform="matrix(0.707,-0.707,0.707,0.707,363.3055,870.5245)" fill="#999999">11</text>
<text dominant-baseline="central" text-anchor="end" style="font-size:12px;font-family:sans-serif;" transform="matrix(0.707,-0.707,0.707,0.707,397.9309,870.5245)" fill="#999999">17</text>
<text dominant-baseline="central" text-anchor="end" style="font-size:12px;font-family:sans-serif;" transform="matrix(0.707,-0.707,0.707,0.707,432.5564,870.5245)" fill="#999999">21</text>
<text dominant-baseline="central" text-anchor="end" style="font-size:12px;font-family:sans-serif;" transform="matrix(0.707,-0.707,0.707,0.707,467.1818,870.5245)" fill="#999999">12</text>
<text dominant-baseline="central" text-anchor="end" style="font-size:12px;font-family:sans-serif;" transform="matrix(0.707,-0.707,0.707,0.707,501.8073,870.5245)" fill="#999999">07</text>
<text dominant-baseline="central" text-anchor="end" style="font-size:12px;font-family:sans-serif;" transform="matrix(0.707,-0.707,0.707,0.707,536.4327,870.5245)" fill="#999999">19</text>
<text dominant-baseline="central" text-anchor="end" style="font-size:12px;font-family:sans-serif;" transform="matrix(0.707,-0.707,0.707,0.707,571.0582,870.5245)" fill="#999999">08</text>
<text dominant-baseline="central" text-anchor="end" style="font-size:12px;font-family:sans-serif;" transform="matrix(0.707,-0.707,0.707,0.707,605.6836,870.5245)" fill="#999999">02</text>
<text dominant-baseline="central" text-anchor="end" style="font-size:12px;font-family:sans-serif;" transform="matrix(0.707,-0.707,0.707,0.707,640.3091,870.5245)" fill="#999999">06</text>
<text dominant-baseline="central" text-anchor="end" style="font-size:12px;font-family:sans-serif;" transform="matrix(0.707,-0.707,0.707,0.707,674.9345,870.5245)" fill="#999999">09</text>
<text dominant-baseline="central" text-anchor="end" style="font-size:12px;font-family:sans-serif;" transform="matrix(0.707,-0.707,0.707,0.707,709.56,870.5245)" fill="#999999">01</text>
<text dominant-baseline="central" text-anchor="end" style="font-size:12px;font-family:sans-serif;" transform="matrix(0.707,-0.707,0.707,0.707,744.1855,870.5245)" fill="#999999">05</text>
<text dominant-baseline="central" text-anchor="end" style="font-size:12px;font-family:sans-serif;" transform="matrix(0.707,-0.707,0.707,0.707,778.8109,870.5245)" fill="#999999">10</text>
<text dominant-baseline="central" text-anchor="end" style="font-size:12px;font-family:sans-serif;" transform="matrix(0.707,-0.707,0.707,0.707,813.4364,870.5245)" fill="#999999">04</text>
<text dominant-baseline="central" text-anchor="end" style="font-size:12px;font-family:sans-serif;" transform="matrix(0.707,-0.707,0.707,0.707,848.0618,870.5245)" fill="#999999">15</text>
<text dominant-baseline="central" text-anchor="end" style="font-size:12px;font-family:sans-serif;" transform="matrix(0.707,-0.707,0.707,0.707,882.6873,870.5245)" fill="#999999">16</text>
<path d="M142.7 818.8L168.4 818.8L168.4 809.5L142.7 809.5ZM155.6 831L155.6 818.8M155.6 808.1L155.6 809.5M142.7 831L168.4 831M142.7 808.1L168.4 808.1M142.7 812.8L168.4 812.8" fill="#fff" stroke="#3FB1E3" ecmeta_series_index="0" ecmeta_data_index="0" ecmeta_ssr_type="chart" class="zr1-cls-3"></path>
<path d="M177.3 712.5L203 712.5L203 699.7L177.3 699.7ZM190.2 713.9L190.2 712.5M190.2 697.8L190.2 699.7M177.3 713.9L203 713.9M177.3 697.8L203 697.8M177.3 709.4L203 709.4" fill="#fff" stroke="#3FB1E3" ecmeta_series_index="0" ecmeta_data_index="1" ecmeta_ssr_type="chart" class="zr1-cls-3"></path>
<path d="M212 647.2L237.7 647.2L237.7 642.6L212 642.6ZM224.8 649.4L224.8 647.2M224.8 638.6L224.8 642.6M212 649.4L237.7 649.4M212 638.6L237.7 638.6M212 646.2L237.7 646.2" fill="#fff" stroke="#3FB1E3" ecmeta_series_index="0" ecmeta_data_index="2" ecmeta_ssr_type="chart" class="zr1-cls-3"></path>
<path d="M246.6 523.2L272.3 523.2L272.3 510.3L246.6 510.3ZM259.4 533.6L259.4 523.2M259.4 504.9L259.4 510.3M246.6 533.6L272.3 533.6M246.6 504.9L272.3 504.9M246.6 516.6L272.3 516.6" fill="#fff" stroke="#3FB1E3" ecmeta_series_index="0" ecmeta_data_index="3" ecmeta_ssr_type="chart" class="zr1-cls-3"></path>
<path d="M281.2 506.1L306.9 506.1L306.9 502.7L281.2 502.7ZM294.1 509.3L294.1 506.1M294.1 498.2L294.1 502.7M281.2 509.3L306.9 509.3M281.2 498.2L306.9 498.2M281.2 503.7L306.9 503.7" fill="#fff" stroke="#3FB1E3" ecmeta_series_index="0" ecmeta_data_index="4" ecmeta_ssr_type="chart" class="zr1-cls-3"></path>
<path d="M315.8 438L341.5 438L341.5 432.1L315.8 432.1ZM328.7 438.3L328.7 438M328.7 424.4L328.7 432.1M315.8 438.3L341.5 438.3M315.8 424.4L341.5 424.4M315.8 434.4L341.5 434.4" fill="#fff" stroke="#3FB1E3" ecmeta_series_index="0" ecmeta_data_index="5" ecmeta_ssr_type="chart" class="zr1-cls-3"></path>
<path d="M350.5 409.8L376.2 409.8L376.2 403.1L350.5 403.1ZM363.3 417.4L363.3 409.8M363.3 397.3L363.3 403.1M350.5 417.4L376.2 417.4M350.5 397.3L376.2 397.3M350.5 407.2L376.2 407.2" fill="#fff" stroke="#3FB1E3" ecmeta_series_index="0" ecmeta_data_index="6" ecmeta_ssr_type="chart" class="zr1-cls-3"></path>
<path d="M385.1 389.8L410.8 389.8L410.8 380.9L385.1 380.9ZM397.9 401.9L397.9 389.8M397.9 376.7L397.9 380.9M385.1 401.9L410.8 401.9M385.1 376.7L410.8 376.7M385.1 385.6L410.8 385.6" fill="#fff" stroke="#3FB1E3" ecmeta_series_index="0" ecmeta_data_index="7" ecmeta_ssr_type="chart" class="zr1-cls-3"></path>
<path d="M419.7 359.4L445.4 359.4L445.4 354.7L419.7 354.7ZM432.6 362.4L432.6 359.4M432.6 349.7L432.6 354.7M419.7 362.4L445.4 362.4M419.7 349.7L445.4 349.7M419.7 357L445.4 357" fill="#fff" stroke="#3FB1E3" ecmeta_series_index="0" ecmeta_data_index="8" ecmeta_ssr_type="chart" class="zr1-cls-3"></path>
<path d="M454.3 344.2L480 344.2L480 339.3L454.3 339.3ZM467.2 346.1L467.2 344.2M467.2 333.7L467.2 339.3M454.3 346.1L480 346.1M454.3 333.7L480 333.7M454.3 339.9L480 339.9" fill="#fff" stroke="#3FB1E3" ecmeta_series_index="0" ecmeta_data_index="9" ecmeta_ssr_type="chart" class="zr1-cls-3"></path>
<path d="M489 313.3L514.7 313.3L514.7 308.6L489 308.6ZM501.8 318.8L501.8 313.3M501.8 307.7L501.8 308.6M489 318.8L514.7 318.8M489 307.7L514.7 307.7M489 311.5L514.7 311.5" fill="#fff" stroke="#3FB1E3" ecmeta_series_index="0" ecmeta_data_index="10" ecmeta_ssr_type="chart" class="zr1-cls-3"></path>
<path d="M523.6 321L549.3 321L549.3 311.9L523.6 311.9ZM536.4 325.7L536.4 321M536.4 307L536.4 311.9M523.6 325.7L549.3 325.7M523.6 307L549.3 307M523.6 316.3L549.3 316.3" fill="#fff" stroke="#3FB1E3" ecmeta_series_index="0" ecmeta_data_index="11" ecmeta_ssr_type="chart" class="zr1-cls-3"></path>
<path d="M558.2 309.2L583.9 309.2L583.9 298.2L558.2 298.2ZM571.1 309.4L571.1 309.2M571.1 287.2L571.1 298.2M558.2 309.4L583.9 309.4M558.2 287.2L583.9 287.2M558.2 308.1L583.9 308.1" fill="#fff" stroke="#3FB1E3" ecmeta_series_index="0" ecmeta_data_index="12" ecmeta_ssr_type="chart" class="zr1-cls-3"></path>
<path d="M592.8 302.1L618.5 302.1L618.5 276.9L592.8 276.9ZM605.7 309.3L605.7 302.1M605.7 276.4L605.7 276.9M592.8 309.3L618.5 309.3M592.8 276.4L618.5 276.4M592.8 278.8L618.5 278.8" fill="#fff" stroke="#3FB1E3" ecmeta_series_index="0" ecmeta_data_index="13" ecmeta_ssr_type="chart" class="zr1-cls-3"></path>
<path d="M627.5 281.7L653.2 281.7L653.2 266.8L627.5 266.8ZM640.3 291.1L640.3 281.7M640.3 258.1L640.3 266.8M627.5 291.1L653.2 291.1M627.5 258.1L653.2 258.1M627.5 273.3L653.2 273.3" fill="#fff" stroke="#3FB1E3" ecmeta_series_index="0" ecmeta_data_index="14" ecmeta_ssr_type="chart" class="zr1-cls-3"></path>
<path d="M662.1 282.8L687.8 282.8L687.8 262L662.1 262ZM674.9 300.5L674.9 282.8M674.9 255.7L674.9 262M662.1 300.5L687.8 300.5M662.1 255.7L687.8 255.7M662.1 265.8L687.8 265.8" fill="#fff" stroke="#3FB1E3" ecmeta_series_index="0" ecmeta_data_index="15" ecmeta_ssr_type="chart" class="zr1-cls-3"></path>
<path d="M696.7 268.3L722.4 268.3L722.4 265.9L696.7 265.9ZM709.6 268.5L709.6 268.3M709.6 265.9M696.7 268.5L722.4 268.5M696.7 265.9L722.4 265.9M696.7 266.7L722.4 266.7" fill="#fff" stroke="#3FB1E3" ecmeta_series_index="0" ecmeta_data_index="16" ecmeta_ssr_type="chart" class="zr1-cls-3"></path>
<path d="M731.3 269L757 269L757 262.7L731.3 262.7ZM744.2 274.8L744.2 269M744.2 262.6L744.2 262.7M731.3 274.8L757 274.8M731.3 262.6L757 262.6M731.3 264.4L757 264.4" fill="#fff" stroke="#3FB1E3" ecmeta_series_index="0" ecmeta_data_index="17" ecmeta_ssr_type="chart" class="zr1-cls-3"></path>
<path d="M766 256.4L791.7 256.4L791.7 249.7L766 249.7ZM778.8 256.4M778.8 242.9L778.8 249.7M766 256.4L791.7 256.4M766 242.9L791.7 242.9M766 252.7L791.7 252.7" fill="#fff" stroke="#3FB1E3" ecmeta_series_index="0" ecmeta_data_index="18" ecmeta_ssr_type="chart" class="zr1-cls-3"></path>
<path d="M800.6 250.2L826.3 250.2L826.3 244.5L800.6 244.5ZM813.4 250.2M813.4 240.5L813.4 244.5M800.6 250.2L826.3 250.2M800.6 240.5L826.3 240.5M800.6 246.6L826.3 246.6" fill="#fff" stroke="#3FB1E3" ecmeta_series_index="0" ecmeta_data_index="19" ecmeta_ssr_type="chart" class="zr1-cls-3"></path>
<path d="M835.2 251.8L860.9 251.8L860.9 244.7L835.2 244.7ZM848.1 254L848.1 251.8M848.1 244.7L848.1 244.7M835.2 254L860.9 254M835.2 244.7L860.9 244.7M835.2 246.4L860.9 246.4" fill="#fff" stroke="#3FB1E3" ecmeta_series_index="0" ecmeta_data_index="20" ecmeta_ssr_type="chart" class="zr1-cls-3"></path>
<path d="M869.8 185.6L895.5 185.6L895.5 143.8L869.8 143.8ZM882.7 219.3L882.7 185.6M882.7 124.1L882.7 143.8M869.8 219.3L895.5 219.3M869.8 124.1L895.5 124.1M869.8 177.3L895.5 177.3" fill="#fff" stroke="#3FB1E3" ecmeta_series_index="0" ecmeta_data_index="21" ecmeta_ssr_type="chart" class="zr1-cls-3"></path>
<path d="M1 0A1 1 0 1 1 1 -0.1A1 1 0 0 1 1 0" transform="matrix(5,0,0,5,155.5527,834.8792)" fill="#3fb1e3" fill-opacity="0.8" stroke="#ccc" stroke-width="0" stroke-opacity="0.8" ecmeta_series_index="1" ecmeta_data_index="0" ecmeta_ssr_type="chart" class="zr1-cls-4"></path>
<path d="M1 0A1 1 0 1 1 1 -0.1A1 1 0 0 1 1 0" transform="matrix(5,0,0,5,155.5527,794.5445)" fill="#3fb1e3" fill-opacity="0.8" stroke="#ccc" stroke-width="0" stroke-opacity="0.8" ecmeta_series_index="1" ecmeta_data_index="1" ecmeta_ssr_type="chart" class="zr1-cls-4"></path>
<path d="M1 0A1 1 0 1 1 1 -0.1A1 1 0 0 1 1 0" transform="matrix(5,0,0,5,190.1782,735.5097)" fill="#3fb1e3" fill-opacity="0.8" stroke="#ccc" stroke-width="0" stroke-opacity="0.8" ecmeta_series_index="1" ecmeta_data_index="2" ecmeta_ssr_type="chart" class="zr1-cls-4"></path>
<path d="M1 0A1 1 0 1 1 1 -0.1A1 1 0 0 1 1 0" transform="matrix(5,0,0,5,190.1782,678.6195)" fill="#3fb1e3" fill-opacity="0.8" stroke="#ccc" stroke-width="0" stroke-opacity="0.8" ecmeta_series_index="1" ecmeta_data_index="3" ecmeta_ssr_type="chart" class="zr1-cls-4"></path>
<path d="M1 0A1 1 0 1 1 1 -0.1A1 1 0 0 1 1 0" transform="matrix(5,0,0,5,224.8036,624.7867)" fill="#3fb1e3" fill-opacity="0.8" stroke="#ccc" stroke-width="0" stroke-opacity="0.8" ecmeta_series_index="1" ecmeta_data_index="4" ecmeta_ssr_type="chart" class="zr1-cls-4"></path>
<path d="M1 0A1 1 0 1 1 1 -0.1A1 1 0 0 1 1 0" transform="matrix(5,0,0,5,328.68,451.6433)" fill="#3fb1e3" fill-opacity="0.8" stroke="#ccc" stroke-width="0" stroke-opacity="0.8" ecmeta_series_index="1" ecmeta_data_index="5" ecmeta_ssr_type="chart" class="zr1-cls-4"></path>
<path d="M1 0A1 1 0 1 1 1 -0.1A1 1 0 0 1 1 0" transform="matrix(5,0,0,5,363.3055,368.4616)" fill="#3fb1e3" fill-opacity="0.8" stroke="#ccc" stroke-width="0" stroke-opacity="0.8" ecmeta_series_index="1" ecmeta_data_index="6" ecmeta_ssr_type="chart" class="zr1-cls-4"></path>
<path d="M1 0A1 1 0 1 1 1 -0.1A1 1 0 0 1 1 0" transform="matrix(5,0,0,5,397.9309,414.0804)" fill="#3fb1e3" fill-opacity="0.8" stroke="#ccc" stroke-width="0" stroke-opacity="0.8" ecmeta_series_index="1" ecmeta_data_index="7" ecmeta_ssr_type="chart" class="zr1-cls-4"></path>
<path d="M1 0A1 1 0 1 1 1 -0.1A1 1 0 0 1 1 0" transform="matrix(5,0,0,5,467.1818,358.6477)" fill="#3fb1e3" fill-opacity="0.8" stroke="#ccc" stroke-width="0" stroke-opacity="0.8" ecmeta_series_index="1" ecmeta_data_index="8" ecmeta_ssr_type="chart" class="zr1-cls-4"></path>
<path d="M1 0A1 1 0 1 1 1 -0.1A1 1 0 0 1 1 0" transform="matrix(5,0,0,5,501.8073,349.5473)" fill="#3fb1e3" fill-opacity="0.8" stroke="#ccc" stroke-width="0" stroke-opacity="0.8" ecmeta_series_index="1" ecmeta_data_index="9" ecmeta_ssr_type="chart" class="zr1-cls-4"></path>
<path d="M1 0A1 1 0 1 1 1 -0.1A1 1 0 0 1 1 0" transform="matrix(5,0,0,5,536.4327,271.031)" fill="#3fb1e3" fill-opacity="0.8" stroke="#ccc" stroke-width="0" stroke-opacity="0.8" ecmeta_series_index="1" ecmeta_data_index="10" ecmeta_ssr_type="chart" class="zr1-cls-4"></path>
<path d="M1 0A1 1 0 1 1 1 -0.1A1 1 0 0 1 1 0" transform="matrix(5,0,0,5,571.0582,327.2682)" fill="#3fb1e3" fill-opacity="0.8" stroke="#ccc" stroke-width="0" stroke-opacity="0.8" ecmeta_series_index="1" ecmeta_data_index="11" ecmeta_ssr_type="chart" class="zr1-cls-4"></path>
<path d="M1 0A1 1 0 1 1 1 -0.1A1 1 0 0 1 1 0" transform="matrix(5,0,0,5,571.0582,245.5639)" fill="#3fb1e3" fill-opacity="0.8" stroke="#ccc" stroke-width="0" stroke-opacity="0.8" ecmeta_series_index="1" ecmeta_data_index="12" ecmeta_ssr_type="chart" class="zr1-cls-4"></path>
<path d="M1 0A1 1 0 1 1 1 -0.1A1 1 0 0 1 1 0" transform="matrix(5,0,0,5,605.6836,392.709)" fill="#3fb1e3" fill-opacity="0.8" stroke="#ccc" stroke-width="0" stroke-opacity="0.8" ecmeta_series_index="1" ecmeta_data_index="13" ecmeta_ssr_type="chart" class="zr1-cls-4"></path>
<path d="M1 0A1 1 0 1 1 1 -0.1A1 1 0 0 1 1 0" transform="matrix(5,0,0,5,640.3091,336.7051)" fill="#3fb1e3" fill-opacity="0.8" stroke="#ccc" stroke-width="0" stroke-opacity="0.8" ecmeta_series_index="1" ecmeta_data_index="14" ecmeta_ssr_type="chart" class="zr1-cls-4"></path>
<path d="M1 0A1 1 0 1 1 1 -0.1A1 1 0 0 1 1 0" transform="matrix(5,0,0,5,640.3091,235.4542)" fill="#3fb1e3" fill-opacity="0.8" stroke="#ccc" stroke-width="0" stroke-opacity="0.8" ecmeta_series_index="1" ecmeta_data_index="15" ecmeta_ssr_type="chart" class="zr1-cls-4"></path>
<path d="M1 0A1 1 0 1 1 1 -0.1A1 1 0 0 1 1 0" transform="matrix(5,0,0,5,709.56,294.2744)" fill="#3fb1e3" fill-opacity="0.8" stroke="#ccc" stroke-width="0" stroke-opacity="0.8" ecmeta_series_index="1" ecmeta_data_index="16" ecmeta_ssr_type="chart" class="zr1-cls-4"></path>
<path d="M1 0A1 1 0 1 1 1 -0.1A1 1 0 0 1 1 0" transform="matrix(5,0,0,5,709.56,259.101)" fill="#3fb1e3" fill-opacity="0.8" stroke="#ccc" stroke-width="0" stroke-opacity="0.8" ecmeta_series_index="1" ecmeta_data_index="17" ecmeta_ssr_type="chart" class="zr1-cls-4"></path>
<path d="M1 0A1 1 0 1 1 1 -0.1A1 1 0 0 1 1 0" transform="matrix(5,0,0,5,709.56,257.4201)" fill="#3fb1e3" fill-opacity="0.8" stroke="#ccc" stroke-width="0" stroke-opacity="0.8" ecmeta_series_index="1" ecmeta_data_index="18" ecmeta_ssr_type="chart" class="zr1-cls-4"></path>
<path d="M1 0A1 1 0 1 1 1 -0.1A1 1 0 0 1 1 0" transform="matrix(5,0,0,5,744.1855,235.1665)" fill="#3fb1e3" fill-opacity="0.8" stroke="#ccc" stroke-width="0" stroke-opacity="0.8" ecmeta_series_index="1" ecmeta_data_index="19" ecmeta_ssr_type="chart" class="zr1-cls-4"></path>
<path d="M1 0A1 1 0 1 1 1 -0.1A1 1 0 0 1 1 0" transform="matrix(5,0,0,5,778.8109,331.2004)" fill="#3fb1e3" fill-opacity="0.8" stroke="#ccc" stroke-width="0" stroke-opacity="0.8" ecmeta_series_index="1" ecmeta_data_index="20" ecmeta_ssr_type="chart" class="zr1-cls-4"></path>
<path d="M1 0A1 1 0 1 1 1 -0.1A1 1 0 0 1 1 0" transform="matrix(5,0,0,5,778.8109,266.8596)" fill="#3fb1e3" fill-opacity="0.8" stroke="#ccc" stroke-width="0" stroke-opacity="0.8" ecmeta_series_index="1" ecmeta_data_index="21" ecmeta_ssr_type="chart" class="zr1-cls-4"></path>
<path d="M1 0A1 1 0 1 1 1 -0.1A1 1 0 0 1 1 0" transform="matrix(5,0,0,5,813.4364,273.7929)" fill="#3fb1e3" fill-opacity="0.8" stroke="#ccc" stroke-width="0" stroke-opacity="0.8" ecmeta_series_index="1" ecmeta_data_index="22" ecmeta_ssr_type="chart" class="zr1-cls-4"></path>
<path d="M1 0A1 1 0 1 1 1 -0.1A1 1 0 0 1 1 0" transform="matrix(5,0,0,5,813.4364,266.7798)" fill="#3fb1e3" fill-opacity="0.8" stroke="#ccc" stroke-width="0" stroke-opacity="0.8" ecmeta_series_index="1" ecmeta_data_index="23" ecmeta_ssr_type="chart" class="zr1-cls-4"></path>
<path d="M1 0A1 1 0 1 1 1 -0.1A1 1 0 0 1 1 0" transform="matrix(5,0,0,5,848.0618,269.8751)" fill="#3fb1e3" fill-opacity="0.8" stroke="#ccc" stroke-width="0" stroke-opacity="0.8" ecmeta_series_index="1" ecmeta_data_index="24" ecmeta_ssr_type="chart" class="zr1-cls-4"></path>
<path d="M1 0A1 1 0 1 1 1 -0.1A1 1 0 0 1 1 0" transform="matrix(5,0,0,5,848.0618,213.4544)" fill="#3fb1e3" fill-opacity="0.8" stroke="#ccc" stroke-width="0" stroke-opacity="0.8" ecmeta_series_index="1" ecmeta_data_index="25" ecmeta_ssr_type="chart" class="zr1-cls-4"></path>
<path d="M-194.5 -5l389.1 0l0 28l-389.1 0Z" transform="translate(500 5)" fill="rgb(0,0,0)" fill-opacity="0" stroke="#ccc" stroke-width="0" class="zr1-cls-2"></path>
<text dominant-baseline="central" text-anchor="middle" style="font-size:18px;font-family:sans-serif;font-weight:bold;" xml:space="preserve" y="9" transform="translate(500 5)" fill="#666666">Benchmark Results - Effective UPS Distribution</text>
<style ><![CDATA[
.zr1-cls-2:hover {
pointer-events:none;
}
.zr1-cls-3:hover {
cursor:pointer;
fill:rgba(255,255,255,1);
stroke-width:2;
}
.zr1-cls-4:hover {
cursor:pointer;
fill:rgba(69,194,249,1);
}

]]>

</style>
</svg>