<svg width="1000" height="1000" xmlns="http://www.w3.org/2000/svg" xmlns:xlink="http://www.w3.org/1999/xlink" version="1.1" baseProfile="full" viewBox="0 0 1000 1000">
<rect width="1000" height="1000" x="0" y="0" fill="rgb(252,252,252)" fill-opacity="0"></rect>
<path d="M103 950.5L960 950.5" fill="transparent" stroke="#eeeeee" class="zr2-cls-5"></path>
<path d="M103 909.5L960 909.5" fill="transparent" stroke="#eeeeee" class="zr2-cls-5"></path>
<path d="M103 869.5L960 869.5" fill="transparent" stroke="#eeeeee" class="zr2-cls-5"></path>
<path d="M103 828.5L960 828.5" fill="transparent" stroke="#eeeeee" class="zr2-cls-5"></path>
<path d="M103 788.5L960 788.5" fill="transparent" stroke="#eeeeee" class="zr2-cls-5"></path>
<path d="M103 747.5L960 747.5" fill="transparent" stroke="#eeeeee" class="zr2-cls-5"></path>
<path d="M103 707.5L960 707.5" fill="transparent" stroke="#eeeeee" class="zr2-cls-5"></path>
<path d="M103 667.5L960 667.5" fill="transparent" stroke="#eeeeee" class="zr2-cls-5"></path>
<path d="M103 626.5L960 626.5" fill="transparent" stroke="#eeeeee" class="zr2-cls-5"></path>
<path d="M103 586.5L960 586.5" fill="transparent" stroke="#eeeeee" class="zr2-cls-5"></path>
<path d="M103 545.5L960 545.5" fill="transparent" stroke="#eeeeee" class="zr2-cls-5"></path>
<path d="M103 505.5L960 505.5" fill="transparent" stroke="#eeeeee" class="zr2-cls-5"></path>
<path d="M103 464.5L960 464.5" fill="transparent" stroke="#eeeeee" class="zr2-cls-5"></path>
<path d="M103 424.5L960 424.5" fill="transparent" stroke="#eeeeee" class="zr2-cls-5"></path>
<path d="M103 383.5L960 383.5" fill="transparent" stroke="#eeeeee" class="zr2-cls-5"></path>
<path d="M103 343.5L960 343.5" fill="transparent" stroke="#eeeeee" class="zr2-cls-5"></path>
<path d="M103 302.5L960 302.5" fill="transparent" stroke="#eeeeee" class="zr2-cls-5"></path>
<path d="M103 262.5L960 262.5" fill="transparent" stroke="#eeeeee" class="zr2-cls-5"></path>
<path d="M103 222.5L960 222.5" fill="transparent" stroke="#eeeeee" class="zr2-cls-5"></path>
<path d="M103 181.5L960 181.5" fill="transparent" stroke="#eeeeee" class="zr2-cls-5"></path>
<path d="M103 141.5L960 141.5" fill="transparent" stroke="#eeeeee" class="zr2-cls-5"></path>
<path d="M103 100.5L960 100.5" fill="transparent" stroke="#eeeeee" class="zr2-cls-5"></path>
<path d="M103 60.5L960 60.5" fill="transparent" stroke="#eeeeee" class="zr2-cls-5"></path>
<path d="M103.5 950L103.5 60" fill="transparent" stroke="#cccccc" stroke-linecap="round" class="zr2-cls-5"></path>
<path d="M103 950.5L960 950.5" fill="transparent" stroke="#cccccc" stroke-linecap="round" class="zr2-cls-5"></path>
<text dominant-baseline="central" text-anchor="end" style="font-size:12px;font-family:sans-serif;" transform="translate(95.04 929.7727)" fill="#999999">14</text>
<text dominant-baseline="central" text-anchor="end" style="font-size:12px;font-family:sans-serif;" transform="translate(95.04 889.3182)" fill="#999999">13</text>
<text dominant-baseline="central" text-anchor="end" style="font-size:12px;font-family:sans-serif;" transform="translate(95.04 848.8636)" fill="#999999">03</text>
<text dominant-baseline="central" text-anchor="end" style="font-size:12px;font-family:sans-serif;" transform="translate(95.04 808.4091)" fill="#999999">20</text>
<text dominant-baseline="central" text-anchor="end" style="font-size:12px;font-family:sans-serif;" transform="translate(95.04 767.9545)" fill="#999999">00_baseline</text>
<text dominant-baseline="central" text-anchor="end" style="font-size:12px;font-family:sans-serif;" transform="translate(95.04 727.5)" fill="#999999">18</text>
<text dominant-baseline="central" text-anchor="end" style="font-size:12px;font-family:sans-serif;" transform="translate(95.04 687.0455)" fill="#999999">11</text>
<text dominant-baseline="central" text-anchor="end" style="font-size:12px;font-family:sans-serif;" transform="translate(95.04 646.5909)" fill="#999999">17</text>
<text dominant-baseline="central" text-anchor="end" style="font-size:12px;font-family:sans-serif;" transform="translate(95.04 606.1364)" fill="#999999">21</text>
<text dominant-baseline="central" text-anchor="end" style="font-size:12px;font-family:sans-serif;" transform="translate(95.04 565.6818)" fill="#999999">12</text>
<text dominant-baseline="central" text-anchor="end" style="font-size:12px;font-family:sans-serif;" transform="translate(95.04 525.2273)" fill="#999999">07</text>
<text dominant-baseline="central" text-anchor="end" style="font-size:12px;font-family:sans-serif;" transform="translate(95.04 484.7727)" fill="#999999">19</text>
<text dominant-baseline="central" text-anchor="end" style="font-size:12px;font-family:sans-serif;" transform="translate(95.04 444.3182)" fill="#999999">08</text>
<text dominant-baseline="central" text-anchor="end" style="font-size:12px;font-family:sans-serif;" transform="translate(95.04 403.8636)" fill="#999999">02</text>
<text dominant-baseline="central" text-anchor="end" style="font-size:12px;font-family:sans-serif;" transform="translate(95.04 363.4091)" fill="#999999">06</text>
<text dominant-baseline="central" text-anchor="end" style="font-size:12px;font-family:sans-serif;" transform="translate(95.04 322.9545)" fill="#999999">09</text>
<text dominant-baseline="central" text-anchor="end" style="font-size:12px;font-family:sans-serif;" transform="translate(95.04 282.5)" fill="#999999">01</text>
<text dominant-baseline="central" text-anchor="end" style="font-size:12px;font-family:sans-serif;" transform="translate(95.04 242.0455)" fill="#999999">05</text>
<text dominant-baseline="central" text-anchor="end" style="font-size:12px;font-family:sans-serif;" transform="translate(95.04 201.5909)" fill="#999999">10</text>
<text dominant-baseline="central" text-anchor="end" style="font-size:12px;font-family:sans-serif;" transform="translate(95.04 161.1364)" fill="#999999">04</text>
<text dominant-baseline="central" text-anchor="end" style="font-size:12px;font-family:sans-serif;" transform="translate(95.04 120.6818)" fill="#999999">15</text>
<text dominant-baseline="central" text-anchor="end" style="font-size:12px;font-family:sans-serif;" transform="translate(95.04 80.2273)" fill="#999999">16</text>
<text dominant-baseline="central" text-anchor="middle" style="font-size:12px;font-family:sans-serif;" y="6" transform="translate(103.04 958)" fill="#999999">0</text>
<text dominant-baseline="central" text-anchor="middle" style="font-size:12px;font-family:sans-serif;" y="6" transform="translate(245.8667 958)" fill="#999999">20</text>
<text dominant-baseline="central" text-anchor="middle" style="font-size:12px;font-family:sans-serif;" y="6" transform="translate(388.6933 958)" fill="#999999">40</text>
<text dominant-baseline="central" text-anchor="middle" style="font-size:12px;font-family:sans-serif;" y="6" transform="translate(531.52 958)" fill="#999999">60</text>
<text dominant-baseline="central" text-anchor="middle" style="font-size:12px;font-family:sans-serif;" y="6" transform="translate(674.3467 958)" fill="#999999">80</text>
<text dominant-baseline="central" text-anchor="middle" style="font-size:12px;font-family:sans-serif;" y="6" transform="translate(817.1733 958)" fill="#999999">100</text>
<text dominant-baseline="central" text-anchor="middle" style="font-size:12px;font-family:sans-serif;" y="6" transform="translate(960 958)" fill="#999999">120</text>
<path d="M103 915.8l0 0l0 27.9l0 0Z" fill="#3fb1e3" ecmeta_series_index="0" ecmeta_data_index="0" ecmeta_ssr_type="chart" class="zr2-cls-6"></path>
<path d="M103 875.4l135.4 0l0 27.9l-135.4 0Z" fill="#3fb1e3" ecmeta_series_index="0" ecmeta_data_index="1" ecmeta_ssr_type="chart" class="zr2-cls-6"></path>
<path d="M103 834.9l215.7 0l0 27.9l-215.7 0Z" fill="#3fb1e3" ecmeta_series_index="0" ecmeta_data_index="2" ecmeta_ssr_type="chart" class="zr2-cls-6"></path>
<path d="M103 794.5l374.5 0l0 27.9l-374.5 0Z" fill="#3fb1e3" ecmeta_series_index="0" ecmeta_data_index="3" ecmeta_ssr_type="chart" class="zr2-cls-6"></path>
<path d="M103 754l390.9 0l0 27.9l-390.9 0Z" fill="#3fb1e3" ecmeta_series_index="0" ecmeta_data_index="4" ecmeta_ssr_type="chart" class="zr2-cls-6"></path>
<path d="M103 713.5l477.5 0l0 27.9l-477.5 0Z" fill="#3fb1e3" ecmeta_series_index="0" ecmeta_data_index="5" ecmeta_ssr_type="chart" class="zr2-cls-6"></path>
<path d="M103 673.1l516.7 0l0 27.9l-516.7 0Z" fill="#3fb1e3" ecmeta_series_index="0" ecmeta_data_index="6" ecmeta_ssr_type="chart" class="zr2-cls-6"></path>
<path d="M103 632.6l536.5 0l0 27.9l-536.5 0Z" fill="#3fb1e3" ecmeta_series_index="0" ecmeta_data_index="7" ecmeta_ssr_type="chart" class="zr2-cls-6"></path>
<path d="M103 592.2l575.7 0l0 27.9l-575.7 0Z" fill="#3fb1e3" ecmeta_series_index="0" ecmeta_data_index="8" ecmeta_ssr_type="chart" class="zr2-cls-6"></path>
<path d="M103 551.7l594.7 0l0 27.9l-594.7 0Z" fill="#3fb1e3" ecmeta_series_index="0" ecmeta_data_index="9" ecmeta_ssr_type="chart" class="zr2-cls-6"></path>
<path d="M103 511.3l628.2 0l0 27.9l-628.2 0Z" fill="#3fb1e3" ecmeta_series_index="0" ecmeta_data_index="10" ecmeta_ssr_type="chart" class="zr2-cls-6"></path>
<path d="M103 470.8l631.8 0l0 27.9l-631.8 0Z" fill="#3fb1e3" ecmeta_series_index="0" ecmeta_data_index="11" ecmeta_ssr_type="chart" class="zr2-cls-6"></path>
<path d="M103 430.4l646.4 0l0 27.9l-646.4 0Z" fill="#3fb1e3" ecmeta_series_index="0" ecmeta_data_index="12" ecmeta_ssr_type="chart" class="zr2-cls-6"></path>
<path d="M103 389.9l653 0l0 27.9l-653 0Z" fill="#3fb1e3" ecmeta_series_index="0" ecmeta_data_index="13" ecmeta_ssr_type="chart" class="zr2-cls-6"></path>
<path d="M103 349.5l676.6 0l0 27.9l-676.6 0Z" fill="#3fb1e3" ecmeta_series_index="0" ecmeta_data_index="14" ecmeta_ssr_type="chart" class="zr2-cls-6"></path>
<path d="M103 309l682.3 0l0 27.9l-682.3 0Z" fill="#3fb1e3" ecmeta_series_index="0" ecmeta_data_index="15" ecmeta_ssr_type="chart" class="zr2-cls-6"></path>
<path d="M103 268.5l687.7 0l0 27.9l-687.7 0Z" fill="#3fb1e3" ecmeta_series_index="0" ecmeta_data_index="16" ecmeta_ssr_type="chart" class="zr2-cls-6"></path>
<path d="M103 228.1l693.1 0l0 27.9l-693.1 0Z" fill="#3fb1e3" ecmeta_series_index="0" ecmeta_data_index="17" ecmeta_ssr_type="chart" class="zr2-cls-6"></path>
<path d="M103 187.6l697.3 0l0 27.9l-697.3 0Z" fill="#3fb1e3" ecmeta_series_index="0" ecmeta_data_index="18" ecmeta_ssr_type="chart" class="zr2-cls-6"></path>
<path d="M103 147.2l709.4 0l0 27.9l-709.4 0Z" fill="#3fb1e3" ecmeta_series_index="0" ecmeta_data_index="19" ecmeta_ssr_type="chart" class="zr2-cls-6"></path>
<path d="M103 106.7l714.8 0l0 27.9l-714.8 0Z" fill="#3fb1e3" ecmeta_series_index="0" ecmeta_data_index="20" ecmeta_ssr_type="chart" class="zr2-cls-6"></path>
<path d="M103 66.3l808.3 0l0 27.9l-808.3 0Z" fill="#3fb1e3" ecmeta_series_index="0" ecmeta_data_index="21" ecmeta_ssr_type="chart" class="zr2-cls-6"></path>
<text dominant-baseline="central" text-anchor="middle" style="font-size:12px;font-family:sans-serif;" transform="translate(103.04 929.7727)" fill="#333">0</text>
<text dominant-baseline="central" text-anchor="middle" style="font-size:12px;font-family:sans-serif;" transform="translate(170.7398 889.3182)" fill="#333">18.96</text>
<text dominant-baseline="central" text-anchor="middle" style="font-size:12px;font-family:sans-serif;" transform="translate(210.8741 848.8636)" fill="#333">30.2</text>
<text dominant-baseline="central" text-anchor="middle" style="font-size:12px;font-family:sans-serif;" transform="translate(290.2858 808.4091)" fill="#333">52.44</text>
<text dominant-baseline="central" text-anchor="middle" style="font-size:12px;font-family:sans-serif;" transform="translate(298.4983 767.9545)" fill="#333">54.74</text>
<text dominant-baseline="central" text-anchor="middle" style="font-size:12px;font-family:sans-serif;" transform="translate(341.8105 727.5)" fill="#333">66.87</text>
<text dominant-baseline="central" text-anchor="middle" style="font-size:12px;font-family:sans-serif;" transform="translate(361.4134 687.0455)" fill="#333">72.36</text>
<text dominant-baseline="central" text-anchor="middle" style="font-size:12px;font-family:sans-serif;" transform="translate(371.2685 646.5909)" fill="#333">75.12</text>
<text dominant-baseline="central" text-anchor="middle" style="font-size:12px;font-family:sans-serif;" transform="translate(390.8714 606.1364)" fill="#333">80.61</text>
<text dominant-baseline="central" text-anchor="middle" style="font-size:12px;font-family:sans-serif;" transform="translate(400.3694 565.6818)" fill="#333">83.27</text>
<text dominant-baseline="central" text-anchor="middle" style="font-size:12px;font-family:sans-serif;" transform="translate(417.1158 525.2273)" fill="#333">87.96</text>
<text dominant-baseline="central" text-anchor="middle" style="font-size:12px;font-family:sans-serif;" transform="translate(418.9369 484.7727)" fill="#333">88.47</text>
<text dominant-baseline="central" text-anchor="middle" style="font-size:12px;font-family:sans-serif;" transform="translate(426.2567 444.3182)" fill="#333">90.52</text>
<text dominant-baseline="central" text-anchor="middle" style="font-size:12px;font-family:sans-serif;" transform="translate(429.5418 403.8636)" fill="#333">91.44</text>
<text dominant-baseline="central" text-anchor="middle" style="font-size:12px;font-family:sans-serif;" transform="translate(441.3607 363.4091)" fill="#333">94.75</text>
<text dominant-baseline="central" text-anchor="middle" style="font-size:12px;font-family:sans-serif;" transform="translate(444.1815 322.9545)" fill="#333">95.54</text>
<text dominant-baseline="central" text-anchor="middle" style="font-size:12px;font-family:sans-serif;" transform="translate(446.8952 282.5)" fill="#333">96.3</text>
<text dominant-baseline="central" text-anchor="middle" style="font-size:12px;font-family:sans-serif;" transform="translate(449.5732 242.0455)" fill="#333">97.05</text>
<text dominant-baseline="central" text-anchor="middle" style="font-size:12px;font-family:sans-serif;" transform="translate(451.6799 201.5909)" fill="#333">97.64</text>
<text dominant-baseline="central" text-anchor="middle" style="font-size:12px;font-family:sans-serif;" transform="translate(457.75 161.1364)" fill="#333">99.34</text>
<text dominant-baseline="central" text-anchor="middle" style="font-size:12px;font-family:sans-serif;" transform="translate(460.428 120.6818)" fill="#333">100.09</text>
<text dominant-baseline="central" text-anchor="middle" style="font-size:12px;font-family:sans-serif;" transform="translate(507.2038 80.2273)" fill="#333">113.19</text>
<path d="M-192.6 -5l385.3 0l0 28l-385.3 0Z" transform="translate(500 5)" fill="rgb(0,0,0)" fill-opacity="0" stroke="#ccc" stroke-width="0" class="zr2-cls-5"></path>
<text dominant-baseline="central" text-anchor="middle" style="font-size:18px;font-family:sans-serif;font-weight:bold;" xml:space="preserve" y="9" transform="translate(500 5)" fill="#666666">Benchmark Results - Percentage Improvement</text>
<style ><![CDATA[
.zr2-cls-5:hover {
pointer-events:none;
}
.zr2-cls-6:hover {
cursor:pointer;
fill:rgba(69,194,249,1);
}

]]>

</style>
</svg>