<svg width="1000" height="1000" xmlns="http://www.w3.org/2000/svg" xmlns:xlink="http://www.w3.org/1999/xlink" version="1.1" baseProfile="full" viewBox="0 0 1000 1000">
<rect width="1000" height="1000" x="0" y="0" fill="rgb(252,252,252)" fill-opacity="0"></rect>
<path d="M103 950.5L960 950.5" fill="transparent" stroke="#eeeeee" class="zr0-cls-0"></path>
<path d="M103 909.5L960 909.5" fill="transparent" stroke="#eeeeee" class="zr0-cls-0"></path>
<path d="M103 869.5L960 869.5" fill="transparent" stroke="#eeeeee" class="zr0-cls-0"></path>
<path d="M103 828.5L960 828.5" fill="transparent" stroke="#eeeeee" class="zr0-cls-0"></path>
<path d="M103 788.5L960 788.5" fill="transparent" stroke="#eeeeee" class="zr0-cls-0"></path>
<path d="M103 747.5L960 747.5" fill="transparent" stroke="#eeeeee" class="zr0-cls-0"></path>
<path d="M103 707.5L960 707.5" fill="transparent" stroke="#eeeeee" class="zr0-cls-0"></path>
<path d="M103 667.5L960 667.5" fill="transparent" stroke="#eeeeee" class="zr0-cls-0"></path>
<path d="M103 626.5L960 626.5" fill="transparent" stroke="#eeeeee" class="zr0-cls-0"></path>
<path d="M103 586.5L960 586.5" fill="transparent" stroke="#eeeeee" class="zr0-cls-0"></path>
<path d="M103 545.5L960 545.5" fill="transparent" stroke="#eeeeee" class="zr0-cls-0"></path>
<path d="M103 505.5L960 505.5" fill="transparent" stroke="#eeeeee" class="zr0-cls-0"></path>
<path d="M103 464.5L960 464.5" fill="transparent" stroke="#eeeeee" class="zr0-cls-0"></path>
<path d="M103 424.5L960 424.5" fill="transparent" stroke="#eeeeee" class="zr0-cls-0"></path>
<path d="M103 383.5L960 383.5" fill="transparent" stroke="#eeeeee" class="zr0-cls-0"></path>
<path d="M103 343.5L960 343.5" fill="transparent" stroke="#eeeeee" class="zr0-cls-0"></path>
<path d="M103 302.5L960 302.5" fill="transparent" stroke="#eeeeee" class="zr0-cls-0"></path>
<path d="M103 262.5L960 262.5" fill="transparent" stroke="#eeeeee" class="zr0-cls-0"></path>
<path d="M103 222.5L960 222.5" fill="transparent" stroke="#eeeeee" class="zr0-cls-0"></path>
<path d="M103 181.5L960 181.5" fill="transparent" stroke="#eeeeee" class="zr0-cls-0"></path>
<path d="M103 141.5L960 141.5" fill="transparent" stroke="#eeeeee" class="zr0-cls-0"></path>
<path d="M103 100.5L960 100.5" fill="transparent" stroke="#eeeeee" class="zr0-cls-0"></path>
<path d="M103 60.5L960 60.5" fill="transparent" stroke="#eeeeee" class="zr0-cls-0"></path>
<path d="M103.5 950L103.5 60" fill="transparent" stroke="#cccccc" stroke-linecap="round" class="zr0-cls-0"></path>
<path d="M103 950.5L960 950.5" fill="transparent" stroke="#cccccc" stroke-linecap="round" class="zr0-cls-0"></path>
<text dominant-baseline="central" text-anchor="end" style="font-size:12px;font-family:sans-serif;" transform="translate(95.04 929.7727)" fill="#999999">14</text>
<text dominant-baseline="central" text-anchor="end" style="font-size:12px;font-family:sans-serif;" transform="translate(95.04 889.3182)" fill="#999999">13</text>
<text dominant-baseline="central" text-anchor="end" style="font-size:12px;font-family:sans-serif;" transform="translate(95.04 848.8636)" fill="#999999">03</text>
<text dominant-baseline="central" text-anchor="end" style="font-size:12px;font-family:sans-serif;" transform="translate(95.04 808.4091)" fill="#999999">20</text>
<text dominant-baseline="central" text-anchor="end" style="font-size:12px;font-family:sans-serif;" transform="translate(95.04 767.9545)" fill="#999999">00_baseline</text>
<text dominant-baseline="central" text-anchor="end" style="font-size:12px;font-family:sans-serif;" transform="translate(95.04 727.5)" fill="#999999">18</text>
<text dominant-baseline="central" text-anchor="end" style="font-size:12px;font-family:sans-serif;" transform="translate(95.04 687.0455)" fill="#999999">11</text>
<text dominant-baseline="central" text-anchor="end" style="font-size:12px;font-family:sans-serif;" transform="translate(95.04 646.5909)" fill="#999999">17</text>
<text dominant-baseline="central" text-anchor="end" style="font-size:12px;font-family:sans-serif;" transform="translate(95.04 606.1364)" fill="#999999">21</text>
<text dominant-baseline="central" text-anchor="end" style="font-size:12px;font-family:sans-serif;" transform="translate(95.04 565.6818)" fill="#999999">12</text>
<text dominant-baseline="central" text-anchor="end" style="font-size:12px;font-family:sans-serif;" transform="translate(95.04 525.2273)" fill="#999999">07</text>
<text dominant-baseline="central" text-anchor="end" style="font-size:12px;font-family:sans-serif;" transform="translate(95.04 484.7727)" fill="#999999">19</text>
<text dominant-baseline="central" text-anchor="end" style="font-size:12px;font-family:sans-serif;" transform="translate(95.04 444.3182)" fill="#999999">08</text>
<text dominant-baseline="central" text-anchor="end" style="font-size:12px;font-family:sans-serif;" transform="translate(95.04 403.8636)" fill="#999999">02</text>
<text dominant-baseline="central" text-anchor="end" style="font-size:12px;font-family:sans-serif;" transform="translate(95.04 363.4091)" fill="#999999">06</text>
<text dominant-baseline="central" text-anchor="end" style="font-size:12px;font-family:sans-serif;" transform="translate(95.04 322.9545)" fill="#999999">09</text>
<text dominant-baseline="central" text-anchor="end" style="font-size:12px;font-family:sans-serif;" transform="translate(95.04 282.5)" fill="#999999">01</text>
<text dominant-baseline="central" text-anchor="end" style="font-size:12px;font-family:sans-serif;" transform="translate(95.04 242.0455)" fill="#999999">05</text>
<text dominant-baseline="central" text-anchor="end" style="font-size:12px;font-family:sans-serif;" transform="translate(95.04 201.5909)" fill="#999999">10</text>
<text dominant-baseline="central" text-anchor="end" style="font-size:12px;font-family:sans-serif;" transform="translate(95.04 161.1364)" fill="#999999">04</text>
<text dominant-baseline="central" text-anchor="end" style="font-size:12px;font-family:sans-serif;" transform="translate(95.04 120.6818)" fill="#999999">15</text>
<text dominant-baseline="central" text-anchor="end" style="font-size:12px;font-family:sans-serif;" transform="translate(95.04 80.2273)" fill="#999999">16</text>
<text dominant-baseline="central" text-anchor="middle" style="font-size:12px;font-family:sans-serif;" y="6" transform="translate(103.04 958)" fill="#999999">0</text>
<text dominant-baseline="central" text-anchor="middle" style="font-size:12px;font-family:sans-serif;" y="6" transform="translate(274.432 958)" fill="#999999">200</text>
<text dominant-baseline="central" text-anchor="middle" style="font-size:12px;font-family:sans-serif;" y="6" transform="translate(445.824 958)" fill="#999999">400</text>
<text dominant-baseline="central" text-anchor="middle" style="font-size:12px;font-family:sans-serif;" y="6" transform="translate(617.216 958)" fill="#999999">600</text>
<text dominant-baseline="central" text-anchor="middle" style="font-size:12px;font-family:sans-serif;" y="6" transform="translate(788.608 958)" fill="#999999">800</text>
<text dominant-baseline="central" text-anchor="middle" style="font-size:12px;font-family:sans-serif;" y="6" transform="translate(960 958)" fill="#999999">1,000</text>
<path d="M103 915.8l338.5 0l0 27.9l-338.5 0Z" fill="#3fb1e3" ecmeta_series_index="0" ecmeta_data_index="0" ecmeta_ssr_type="chart" class="zr0-cls-1"></path>
<path d="M103 875.4l402.8 0l0 27.9l-402.8 0Z" fill="#3fb1e3" ecmeta_series_index="0" ecmeta_data_index="1" ecmeta_ssr_type="chart" class="zr0-cls-1"></path>
<path d="M103 834.9l440.5 0l0 27.9l-440.5 0Z" fill="#3fb1e3" ecmeta_series_index="0" ecmeta_data_index="2" ecmeta_ssr_type="chart" class="zr0-cls-1"></path>
<path d="M103 794.5l515.9 0l0 27.9l-515.9 0Z" fill="#3fb1e3" ecmeta_series_index="0" ecmeta_data_index="3" ecmeta_ssr_type="chart" class="zr0-cls-1"></path>
<path d="M103 754l523.6 0l0 27.9l-523.6 0Z" fill="#3fb1e3" ecmeta_series_index="0" ecmeta_data_index="4" ecmeta_ssr_type="chart" class="zr0-cls-1"></path>
<path d="M103 713.5l564.7 0l0 27.9l-564.7 0Z" fill="#3fb1e3" ecmeta_series_index="0" ecmeta_data_index="5" ecmeta_ssr_type="chart" class="zr0-cls-1"></path>
<path d="M103 673.1l583.6 0l0 27.9l-583.6 0Z" fill="#3fb1e3" ecmeta_series_index="0" ecmeta_data_index="6" ecmeta_ssr_type="chart" class="zr0-cls-1"></path>
<path d="M103 632.6l593 0l0 27.9l-593 0Z" fill="#3fb1e3" ecmeta_series_index="0" ecmeta_data_index="7" ecmeta_ssr_type="chart" class="zr0-cls-1"></path>
<path d="M103 592.2l611 0l0 27.9l-611 0Z" fill="#3fb1e3" ecmeta_series_index="0" ecmeta_data_index="8" ecmeta_ssr_type="chart" class="zr0-cls-1"></path>
<path d="M103 551.7l620.4 0l0 27.9l-620.4 0Z" fill="#3fb1e3" ecmeta_series_index="0" ecmeta_data_index="9" ecmeta_ssr_type="chart" class="zr0-cls-1"></path>
<path d="M103 511.3l635.9 0l0 27.9l-635.9 0Z" fill="#3fb1e3" ecmeta_series_index="0" ecmeta_data_index="10" ecmeta_ssr_type="chart" class="zr0-cls-1"></path>
<path d="M103 470.8l637.6 0l0 27.9l-637.6 0Z" fill="#3fb1e3" ecmeta_series_index="0" ecmeta_data_index="11" ecmeta_ssr_type="chart" class="zr0-cls-1"></path>
<path d="M103 430.4l645.3 0l0 27.9l-645.3 0Z" fill="#3fb1e3" ecmeta_series_index="0" ecmeta_data_index="12" ecmeta_ssr_type="chart" class="zr0-cls-1"></path>
<path d="M103 389.9l647.9 0l0 27.9l-647.9 0Z" fill="#3fb1e3" ecmeta_series_index="0" ecmeta_data_index="13" ecmeta_ssr_type="chart" class="zr0-cls-1"></path>
<path d="M103 349.5l659 0l0 27.9l-659 0Z" fill="#3fb1e3" ecmeta_series_index="0" ecmeta_data_index="14" ecmeta_ssr_type="chart" class="zr0-cls-1"></path>
<path d="M103 309l661.6 0l0 27.9l-661.6 0Z" fill="#3fb1e3" ecmeta_series_index="0" ecmeta_data_index="15" ecmeta_ssr_type="chart" class="zr0-cls-1"></path>
<path d="M103 268.5l664.1 0l0 27.9l-664.1 0Z" fill="#3fb1e3" ecmeta_series_index="0" ecmeta_data_index="16" ecmeta_ssr_type="chart" class="zr0-cls-1"></path>
<path d="M103 228.1l666.7 0l0 27.9l-666.7 0Z" fill="#3fb1e3" ecmeta_series_index="0" ecmeta_data_index="17" ecmeta_ssr_type="chart" class="zr0-cls-1"></path>
<path d="M103 187.6l669.3 0l0 27.9l-669.3 0Z" fill="#3fb1e3" ecmeta_series_index="0" ecmeta_data_index="18" ecmeta_ssr_type="chart" class="zr0-cls-1"></path>
<path d="M103 147.2l674.4 0l0 27.9l-674.4 0Z" fill="#3fb1e3" ecmeta_series_index="0" ecmeta_data_index="19" ecmeta_ssr_type="chart" class="zr0-cls-1"></path>
<path d="M103 106.7l677 0l0 27.9l-677 0Z" fill="#3fb1e3" ecmeta_series_index="0" ecmeta_data_index="20" ecmeta_ssr_type="chart" class="zr0-cls-1"></path>
<path d="M103 66.3l721.6 0l0 27.9l-721.6 0Z" fill="#3fb1e3" ecmeta_series_index="0" ecmeta_data_index="21" ecmeta_ssr_type="chart" class="zr0-cls-1"></path>
<text dominant-baseline="central" text-anchor="middle" style="font-size:12px;font-family:sans-serif;" transform="translate(272.2896 929.7727)" fill="#333">395</text>
<text dominant-baseline="central" text-anchor="middle" style="font-size:12px;font-family:sans-serif;" transform="translate(304.4256 889.3182)" fill="#333">470</text>
<text dominant-baseline="central" text-anchor="middle" style="font-size:12px;font-family:sans-serif;" transform="translate(323.2787 848.8636)" fill="#333">514</text>
<text dominant-baseline="central" text-anchor="middle" style="font-size:12px;font-family:sans-serif;" transform="translate(360.985 808.4091)" fill="#333">602</text>
<text dominant-baseline="central" text-anchor="middle" style="font-size:12px;font-family:sans-serif;" transform="translate(364.8413 767.9545)" fill="#333">611</text>
<text dominant-baseline="central" text-anchor="middle" style="font-size:12px;font-family:sans-serif;" transform="translate(385.4083 727.5)" fill="#333">659</text>
<text dominant-baseline="central" text-anchor="middle" style="font-size:12px;font-family:sans-serif;" transform="translate(394.8349 687.0455)" fill="#333">681</text>
<text dominant-baseline="central" text-anchor="middle" style="font-size:12px;font-family:sans-serif;" transform="translate(399.5482 646.5909)" fill="#333">692</text>
<text dominant-baseline="central" text-anchor="middle" style="font-size:12px;font-family:sans-serif;" transform="translate(408.5462 606.1364)" fill="#333">713</text>
<text dominant-baseline="central" text-anchor="middle" style="font-size:12px;font-family:sans-serif;" transform="translate(413.2595 565.6818)" fill="#333">724</text>
<text dominant-baseline="central" text-anchor="middle" style="font-size:12px;font-family:sans-serif;" transform="translate(420.9722 525.2273)" fill="#333">742</text>
<text dominant-baseline="central" text-anchor="middle" style="font-size:12px;font-family:sans-serif;" transform="translate(421.8291 484.7727)" fill="#333">744</text>
<text dominant-baseline="central" text-anchor="middle" style="font-size:12px;font-family:sans-serif;" transform="translate(425.6854 444.3182)" fill="#333">753</text>
<text dominant-baseline="central" text-anchor="middle" style="font-size:12px;font-family:sans-serif;" transform="translate(426.9709 403.8636)" fill="#333">756</text>
<text dominant-baseline="central" text-anchor="middle" style="font-size:12px;font-family:sans-serif;" transform="translate(432.5411 363.4091)" fill="#333">769</text>
<text dominant-baseline="central" text-anchor="middle" style="font-size:12px;font-family:sans-serif;" transform="translate(433.8266 322.9545)" fill="#333">772</text>
<text dominant-baseline="central" text-anchor="middle" style="font-size:12px;font-family:sans-serif;" transform="translate(435.112 282.5)" fill="#333">775</text>
<text dominant-baseline="central" text-anchor="middle" style="font-size:12px;font-family:sans-serif;" transform="translate(436.3974 242.0455)" fill="#333">778</text>
<text dominant-baseline="central" text-anchor="middle" style="font-size:12px;font-family:sans-serif;" transform="translate(437.6829 201.5909)" fill="#333">781</text>
<text dominant-baseline="central" text-anchor="middle" style="font-size:12px;font-family:sans-serif;" transform="translate(440.2538 161.1364)" fill="#333">787</text>
<text dominant-baseline="central" text-anchor="middle" style="font-size:12px;font-family:sans-serif;" transform="translate(441.5392 120.6818)" fill="#333">790</text>
<text dominant-baseline="central" text-anchor="middle" style="font-size:12px;font-family:sans-serif;" transform="translate(463.8202 80.2273)" fill="#333">842</text>
<path d="M-183.1 -5l366.2 0l0 28l-366.2 0Z" transform="translate(500 5)" fill="rgb(0,0,0)" fill-opacity="0" stroke="#ccc" stroke-width="0" class="zr0-cls-0"></path>
<text dominant-baseline="central" text-anchor="middle" style="font-size:18px;font-family:sans-serif;font-weight:bold;" xml:space="preserve" y="9" transform="translate(500 5)" fill="#666666">Benchmark Results - Average Effective UPS</text>
<style ><![CDATA[
.zr0-cls-0:hover {
pointer-events:none;
}
.zr0-cls-1:hover {
cursor:pointer;
fill:rgba(69,194,249,1);
}

]]>

</style>
</svg>