<svg width="1000" height="1000" xmlns="http://www.w3.org/2000/svg" xmlns:xlink="http://www.w3.org/1999/xlink" version="1.1" baseProfile="full" viewBox="0 0 1000 1000">
<rect width="1000" height="1000" x="0" y="0" fill="rgb(252,252,252)" fill-opacity="0"></rect>
<path d="M138.5 60L138.5 784.3" fill="transparent" stroke="#eeeeee" class="zr1-cls-2"></path>
<path d="M265.5 60L265.5 784.3" fill="transparent" stroke="#eeeeee" class="zr1-cls-2"></path>
<path d="M392.5 60L392.5 784.3" fill="transparent" stroke="#eeeeee" class="zr1-cls-2"></path>
<path d="M519.5 60L519.5 784.3" fill="transparent" stroke="#eeeeee" class="zr1-cls-2"></path>
<path d="M646.5 60L646.5 784.3" fill="transparent" stroke="#eeeeee" class="zr1-cls-2"></path>
<path d="M773.5 60L773.5 784.3" fill="transparent" stroke="#eeeeee" class="zr1-cls-2"></path>
<path d="M900.5 60L900.5 784.3" fill="transparent" stroke="#eeeeee" class="zr1-cls-2"></path>
<path d="M138.5 784.3L138.5 60" fill="transparent" stroke="#cccccc" stroke-linecap="round" class="zr1-cls-2"></path>
<text dominant-baseline="central" text-anchor="middle" style="font-size:12px;font-family:sans-serif;" y="-6" transform="translate(138.24 45)" fill="#cccccc">UPS</text>
<path d="M138.2 784.5L900 784.5" fill="transparent" stroke="#cccccc" stroke-linecap="round" class="zr1-cls-2"></path>
<text dominant-baseline="central" text-anchor="end" style="font-size:12px;font-family:sans-serif;" transform="translate(130.24 784.2902)" fill="#999999">488</text>
<text dominant-baseline="central" text-anchor="end" style="font-size:12px;font-family:sans-serif;" transform="translate(130.24 639.4322)" fill="#999999">511.2</text>
<text dominant-baseline="central" text-anchor="end" style="font-size:12px;font-family:sans-serif;" transform="translate(130.24 494.5741)" fill="#999999">534.4</text>
<text dominant-baseline="central" text-anchor="end" style="font-size:12px;font-family:sans-serif;" transform="translate(130.24 349.7161)" fill="#999999">557.6</text>
<text dominant-baseline="central" text-anchor="end" style="font-size:12px;font-family:sans-serif;" transform="translate(130.24 204.858)" fill="#999999">580.8</text>
<text dominant-baseline="central" text-anchor="end" style="font-size:12px;font-family:sans-serif;" transform="translate(130.24 60)" fill="#999999">604</text>
<text dominant-baseline="central" text-anchor="end" style="font-size:12px;font-family:sans-serif;" transform="matrix(0.707,-0.707,0.707,0.707,201.72,792.2902)" fill="#999999">bench_44k_16_clock</text>
<text dominant-baseline="central" text-anchor="end" style="font-size:12px;font-family:sans-serif;" transform="matrix(0.707,-0.707,0.707,0.707,328.68,792.2902)" fill="#999999">bench_44k_92_clock</text>
<text dominant-baseline="central" text-anchor="end" style="font-size:12px;font-family:sans-serif;" transform="matrix(0.707,-0.707,0.707,0.707,455.64,792.2902)" fill="#999999">bench_44k_01_clock</text>
<text dominant-baseline="central" text-anchor="end" style="font-size:12px;font-family:sans-serif;" transform="matrix(0.707,-0.707,0.707,0.707,582.6,792.2902)" fill="#999999">bench_44k_92_clock_16_offset</text>
<text dominant-baseline="central" text-anchor="end" style="font-size:12px;font-family:sans-serif;" transform="matrix(0.707,-0.707,0.707,0.707,709.56,792.2902)" fill="#999999">bench_44k_01_clock_16_offset</text>
<text dominant-baseline="central" text-anchor="end" style="font-size:12px;font-family:sans-serif;" transform="matrix(0.707,-0.707,0.707,0.707,836.52,792.2902)" fill="#999999">bench_44k_16_clock_92_offsets</text>
<path d="M176.7 573.1L226.7 573.1L226.7 490.7L176.7 490.7ZM201.7 620.6L201.7 573.1M201.7 462.3L201.7 490.7M176.7 620.6L226.7 620.6M176.7 462.3L226.7 462.3M176.7 547.1L226.7 547.1" fill="#fff" stroke="#3FB1E3" ecmeta_series_index="0" ecmeta_data_index="0" ecmeta_ssr_type="chart" class="zr1-cls-3"></path>
<path d="M303.7 558.4L353.7 558.4L353.7 472L303.7 472ZM328.7 562.7L328.7 558.4M328.7 459.9L328.7 472M303.7 562.7L353.7 562.7M303.7 459.9L353.7 459.9M303.7 539.2L353.7 539.2" fill="#fff" stroke="#3FB1E3" ecmeta_series_index="0" ecmeta_data_index="1" ecmeta_ssr_type="chart" class="zr1-cls-3"></path>
<path d="M430.6 537.8L480.6 537.8L480.6 433.2L430.6 433.2ZM455.6 560L455.6 537.8M455.6 394.7L455.6 433.2M430.6 560L480.6 560M430.6 394.7L480.6 394.7M430.6 503.5L480.6 503.5" fill="#fff" stroke="#3FB1E3" ecmeta_series_index="0" ecmeta_data_index="2" ecmeta_ssr_type="chart" class="zr1-cls-3"></path>
<path d="M557.6 488.5L607.6 488.5L607.6 420.3L557.6 420.3ZM582.6 493.3L582.6 488.5M582.6 370.2L582.6 420.3M557.6 493.3L607.6 493.3M557.6 370.2L607.6 370.2M557.6 470.9L607.6 470.9" fill="#fff" stroke="#3FB1E3" ecmeta_series_index="0" ecmeta_data_index="3" ecmeta_ssr_type="chart" class="zr1-cls-3"></path>
<path d="M684.6 439.6L734.6 439.6L734.6 305.3L684.6 305.3ZM709.6 463.7L709.6 439.6M709.6 284.1L709.6 305.3M684.6 463.7L734.6 463.7M684.6 284.1L734.6 284.1M684.6 388.5L734.6 388.5" fill="#fff" stroke="#3FB1E3" ecmeta_series_index="0" ecmeta_data_index="4" ecmeta_ssr_type="chart" class="zr1-cls-3"></path>
<path d="M811.5 374.1L861.5 374.1L861.5 264L811.5 264ZM836.5 528.5L836.5 374.1M836.5 243.2L836.5 264M811.5 528.5L861.5 528.5M811.5 243.2L861.5 243.2M811.5 333.1L861.5 333.1" fill="#fff" stroke="#3FB1E3" ecmeta_series_index="0" ecmeta_data_index="5" ecmeta_ssr_type="chart" class="zr1-cls-3"></path>
<path d="M1 0A1 1 0 1 1 1 -0.1A1 1 0 0 1 1 0" transform="matrix(5,0,0,5,582.6,601.0775)" fill="#3fb1e3" fill-opacity="0.8" stroke="#ccc" stroke-width="0" stroke-opacity="0.8" ecmeta_series_index="1" ecmeta_data_index="0" ecmeta_ssr_type="chart" class="zr1-cls-4"></path>
<path d="M-194.5 -5l389.1 0l0 28l-389.1 0Z" transform="translate(500 5)" fill="rgb(0,0,0)" fill-opacity="0" stroke="#ccc" stroke-width="0" class="zr1-cls-2"></path>
<text dominant-baseline="central" text-anchor="middle" style="font-size:18px;font-family:sans-serif;font-weight:bold;" xml:space="preserve" y="9" transform="translate(500 5)" fill="#666666">Benchmark Results - Effective UPS Distribution</text>
<style ><![CDATA[
.zr1-cls-2:hover {
pointer-events:none;
}
.zr1-cls-3:hover {
cursor:pointer;
fill:rgba(255,255,255,1);
stroke-width:2;
}
.zr1-cls-4:hover {
cursor:pointer;
fill:rgba(69,194,249,1);
}

]]>

</style>
</svg>