<svg width="1000" height="1000" xmlns="http://www.w3.org/2000/svg" xmlns:xlink="http://www.w3.org/1999/xlink" version="1.1" baseProfile="full" viewBox="0 0 1000 1000">
<rect width="1000" height="1000" x="0" y="0" fill="rgb(252,252,252)" fill-opacity="0"></rect>
<path d="M138.5 60L138.5 798" fill="transparent" stroke="#eeeeee" class="zr1-cls-2"></path>
<path d="M290.5 60L290.5 798" fill="transparent" stroke="#eeeeee" class="zr1-cls-2"></path>
<path d="M443.5 60L443.5 798" fill="transparent" stroke="#eeeeee" class="zr1-cls-2"></path>
<path d="M595.5 60L595.5 798" fill="transparent" stroke="#eeeeee" class="zr1-cls-2"></path>
<path d="M747.5 60L747.5 798" fill="transparent" stroke="#eeeeee" class="zr1-cls-2"></path>
<path d="M900.5 60L900.5 798" fill="transparent" stroke="#eeeeee" class="zr1-cls-2"></path>
<path d="M138.5 798L138.5 60" fill="transparent" stroke="#cccccc" stroke-linecap="round" class="zr1-cls-2"></path>
<text dominant-baseline="central" text-anchor="middle" style="font-size:12px;font-family:sans-serif;" y="-6" transform="translate(138.24 45)" fill="#cccccc">UPS</text>
<path d="M138.2 798.5L900 798.5" fill="transparent" stroke="#cccccc" stroke-linecap="round" class="zr1-cls-2"></path>
<text dominant-baseline="central" text-anchor="end" style="font-size:12px;font-family:sans-serif;" transform="translate(130.24 798.0364)" fill="#999999">240</text>
<text dominant-baseline="central" text-anchor="end" style="font-size:12px;font-family:sans-serif;" transform="translate(130.24 650.4291)" fill="#999999">331.6</text>
<text dominant-baseline="central" text-anchor="end" style="font-size:12px;font-family:sans-serif;" transform="translate(130.24 502.8218)" fill="#999999">423.2</text>
<text dominant-baseline="central" text-anchor="end" style="font-size:12px;font-family:sans-serif;" transform="translate(130.24 355.2145)" fill="#999999">514.8</text>
<text dominant-baseline="central" text-anchor="end" style="font-size:12px;font-family:sans-serif;" transform="translate(130.24 207.6073)" fill="#999999">606.4</text>
<text dominant-baseline="central" text-anchor="end" style="font-size:12px;font-family:sans-serif;" transform="translate(130.24 60)" fill="#999999">698</text>
<text dominant-baseline="central" text-anchor="end" style="font-size:12px;font-family:sans-serif;" transform="matrix(0.707,-0.707,0.707,0.707,214.416,806.0364)" fill="#999999">q1_stack_wake_bot_speed</text>
<text dominant-baseline="central" text-anchor="end" style="font-size:12px;font-family:sans-serif;" transform="matrix(0.707,-0.707,0.707,0.707,366.768,806.0364)" fill="#999999">q1_bulk_bot_speed</text>
<text dominant-baseline="central" text-anchor="end" style="font-size:12px;font-family:sans-serif;" transform="matrix(0.707,-0.707,0.707,0.707,519.12,806.0364)" fill="#999999">q1_stack_sync_bot_speed</text>
<text dominant-baseline="central" text-anchor="end" style="font-size:12px;font-family:sans-serif;" transform="matrix(0.707,-0.707,0.707,0.707,671.472,806.0364)" fill="#999999">q1_stack_desync_bot_speed</text>
<text dominant-baseline="central" text-anchor="end" style="font-size:12px;font-family:sans-serif;" transform="matrix(0.707,-0.707,0.707,0.707,823.824,806.0364)" fill="#999999">q2_stack_desync_bot_speed</text>
<path d="M189.4 776.6L239.4 776.6L239.4 772.6L189.4 772.6ZM214.4 776.6M214.4 772.6M189.4 776.6L239.4 776.6M189.4 772.6L239.4 772.6M189.4 774L239.4 774" fill="#fff" stroke="#3FB1E3" ecmeta_series_index="0" ecmeta_data_index="0" ecmeta_ssr_type="chart" class="zr1-cls-3"></path>
<path d="M341.8 541.1L391.8 541.1L391.8 532.2L341.8 532.2ZM366.8 541.1M366.8 532.2M341.8 541.1L391.8 541.1M341.8 532.2L391.8 532.2M341.8 538.4L391.8 538.4" fill="#fff" stroke="#3FB1E3" ecmeta_series_index="0" ecmeta_data_index="1" ecmeta_ssr_type="chart" class="zr1-cls-3"></path>
<path d="M494.1 527.3L544.1 527.3L544.1 515.8L494.1 515.8ZM519.1 527.3M519.1 515.8M494.1 527.3L544.1 527.3M494.1 515.8L544.1 515.8M494.1 518.6L544.1 518.6" fill="#fff" stroke="#3FB1E3" ecmeta_series_index="0" ecmeta_data_index="2" ecmeta_ssr_type="chart" class="zr1-cls-3"></path>
<path d="M646.5 490.6L696.5 490.6L696.5 471.6L646.5 471.6ZM671.5 490.6M671.5 471.6M646.5 490.6L696.5 490.6M646.5 471.6L696.5 471.6M646.5 480.3L696.5 480.3" fill="#fff" stroke="#3FB1E3" ecmeta_series_index="0" ecmeta_data_index="3" ecmeta_ssr_type="chart" class="zr1-cls-3"></path>
<path d="M798.8 140L848.8 140L848.8 113.8L798.8 113.8ZM823.8 140M823.8 113.8M798.8 140L848.8 140M798.8 113.8L848.8 113.8M798.8 133L848.8 133" fill="#fff" stroke="#3FB1E3" ecmeta_series_index="0" ecmeta_data_index="4" ecmeta_ssr_type="chart" class="zr1-cls-3"></path>
<path d="M-194.5 -5l389.1 0l0 28l-389.1 0Z" transform="translate(500 5)" fill="rgb(0,0,0)" fill-opacity="0" stroke="#ccc" stroke-width="0" class="zr1-cls-2"></path>
<text dominant-baseline="central" text-anchor="middle" style="font-size:18px;font-family:sans-serif;font-weight:bold;" xml:space="preserve" y="9" transform="translate(500 5)" fill="#666666">Benchmark Results - Effective UPS Distribution</text>
<style ><![CDATA[
.zr1-cls-2:hover {
pointer-events:none;
}
.zr1-cls-3:hover {
cursor:pointer;
fill:rgba(255,255,255,1);
stroke-width:2;
}

]]>

</style>
</svg>