<svg width="1000" height="1000" xmlns="http://www.w3.org/2000/svg" xmlns:xlink="http://www.w3.org/1999/xlink" version="1.1" baseProfile="full" viewBox="0 0 1000 1000">
<rect width="1000" height="1000" x="0" y="0" fill="rgb(252,252,252)" fill-opacity="0"></rect>
<path d="M148.5 60L148.5 783" fill="transparent" stroke="#eeeeee" class="zr1-cls-2"></path>
<path d="M242.5 60L242.5 783" fill="transparent" stroke="#eeeeee" class="zr1-cls-2"></path>
<path d="M336.5 60L336.5 783" fill="transparent" stroke="#eeeeee" class="zr1-cls-2"></path>
<path d="M430.5 60L430.5 783" fill="transparent" stroke="#eeeeee" class="zr1-cls-2"></path>
<path d="M524.5 60L524.5 783" fill="transparent" stroke="#eeeeee" class="zr1-cls-2"></path>
<path d="M618.5 60L618.5 783" fill="transparent" stroke="#eeeeee" class="zr1-cls-2"></path>
<path d="M712.5 60L712.5 783" fill="transparent" stroke="#eeeeee" class="zr1-cls-2"></path>
<path d="M806.5 60L806.5 783" fill="transparent" stroke="#eeeeee" class="zr1-cls-2"></path>
<path d="M900.5 60L900.5 783" fill="transparent" stroke="#eeeeee" class="zr1-cls-2"></path>
<path d="M148.5 783L148.5 60" fill="transparent" stroke="#cccccc" stroke-linecap="round" class="zr1-cls-2"></path>
<text dominant-baseline="central" text-anchor="middle" style="font-size:12px;font-family:sans-serif;" y="-6" transform="translate(148.32 45)" fill="#cccccc">UPS</text>
<path d="M148.3 783.5L900 783.5" fill="transparent" stroke="#cccccc" stroke-linecap="round" class="zr1-cls-2"></path>
<text dominant-baseline="central" text-anchor="end" style="font-size:12px;font-family:sans-serif;" transform="translate(140.32 783.0174)" fill="#999999">356</text>
<text dominant-baseline="central" text-anchor="end" style="font-size:12px;font-family:sans-serif;" transform="translate(140.32 638.4139)" fill="#999999">519.8</text>
<text dominant-baseline="central" text-anchor="end" style="font-size:12px;font-family:sans-serif;" transform="translate(140.32 493.8104)" fill="#999999">683.6</text>
<text dominant-baseline="central" text-anchor="end" style="font-size:12px;font-family:sans-serif;" transform="translate(140.32 349.207)" fill="#999999">847.4</text>
<text dominant-baseline="central" text-anchor="end" style="font-size:12px;font-family:sans-serif;" transform="translate(140.32 204.6035)" fill="#999999">1,011.2</text>
<text dominant-baseline="central" text-anchor="end" style="font-size:12px;font-family:sans-serif;" transform="translate(140.32 60)" fill="#999999">1,175</text>
<text dominant-baseline="central" text-anchor="end" style="font-size:12px;font-family:sans-serif;" transform="matrix(0.707,-0.707,0.707,0.707,195.3,791.0174)" fill="#999999">q1_stack_desync_explosives</text>
<text dominant-baseline="central" text-anchor="end" style="font-size:12px;font-family:sans-serif;" transform="matrix(0.707,-0.707,0.707,0.707,289.26,791.0174)" fill="#999999">q1_stack_desync_research_prod</text>
<text dominant-baseline="central" text-anchor="end" style="font-size:12px;font-family:sans-serif;" transform="matrix(0.707,-0.707,0.707,0.707,383.22,791.0174)" fill="#999999">q1_stack_desync_bot_speed</text>
<text dominant-baseline="central" text-anchor="end" style="font-size:12px;font-family:sans-serif;" transform="matrix(0.707,-0.707,0.707,0.707,477.18,791.0174)" fill="#999999">q2_stack_desync_explosives</text>
<text dominant-baseline="central" text-anchor="end" style="font-size:12px;font-family:sans-serif;" transform="matrix(0.707,-0.707,0.707,0.707,571.14,791.0174)" fill="#999999">q2_stack_desync_research_prod</text>
<text dominant-baseline="central" text-anchor="end" style="font-size:12px;font-family:sans-serif;" transform="matrix(0.707,-0.707,0.707,0.707,665.1,791.0174)" fill="#999999">q2_stack_desync_bot_speed</text>
<text dominant-baseline="central" text-anchor="end" style="font-size:12px;font-family:sans-serif;" transform="matrix(0.707,-0.707,0.707,0.707,759.06,791.0174)" fill="#999999">q1_stack_desync_steel_prod</text>
<text dominant-baseline="central" text-anchor="end" style="font-size:12px;font-family:sans-serif;" transform="matrix(0.707,-0.707,0.707,0.707,853.02,791.0174)" fill="#999999">q2_stack_desync_steel_prod</text>
<path d="M170.3 756.8L220.3 756.8L220.3 738.2L170.3 738.2ZM195.3 766.1L195.3 756.8M195.3 725.5L195.3 738.2M170.3 766.1L220.3 766.1M170.3 725.5L220.3 725.5M170.3 746L220.3 746" fill="#fff" stroke="#3FB1E3" ecmeta_series_index="0" ecmeta_data_index="0" ecmeta_ssr_type="chart" class="zr1-cls-3"></path>
<path d="M264.3 723.7L314.3 723.7L314.3 712.1L264.3 712.1ZM289.3 730.6L289.3 723.7M289.3 707.2L289.3 712.1M264.3 730.6L314.3 730.6M264.3 707.2L314.3 707.2M264.3 715.1L314.3 715.1" fill="#fff" stroke="#3FB1E3" ecmeta_series_index="0" ecmeta_data_index="1" ecmeta_ssr_type="chart" class="zr1-cls-3"></path>
<path d="M358.2 688.7L408.2 688.7L408.2 677.7L358.2 677.7ZM383.2 700.7L383.2 688.7M383.2 664.7L383.2 677.7M358.2 700.7L408.2 700.7M358.2 664.7L408.2 664.7M358.2 682.3L408.2 682.3" fill="#fff" stroke="#3FB1E3" ecmeta_series_index="0" ecmeta_data_index="2" ecmeta_ssr_type="chart" class="zr1-cls-3"></path>
<path d="M452.2 647.6L502.2 647.6L502.2 620.4L452.2 620.4ZM477.2 653.5L477.2 647.6M477.2 598L477.2 620.4M452.2 653.5L502.2 653.5M452.2 598L502.2 598M452.2 625.2L502.2 625.2" fill="#fff" stroke="#3FB1E3" ecmeta_series_index="0" ecmeta_data_index="3" ecmeta_ssr_type="chart" class="zr1-cls-3"></path>
<path d="M546.1 628.9L596.1 628.9L596.1 616.5L546.1 616.5ZM571.1 645.5L571.1 628.9M571.1 598.6L571.1 616.5M546.1 645.5L596.1 645.5M546.1 598.6L596.1 598.6M546.1 623.4L596.1 623.4" fill="#fff" stroke="#3FB1E3" ecmeta_series_index="0" ecmeta_data_index="4" ecmeta_ssr_type="chart" class="zr1-cls-3"></path>
<path d="M640.1 506.4L690.1 506.4L690.1 495.4L640.1 495.4ZM665.1 517.1L665.1 506.4M665.1 495.4M640.1 517.1L690.1 517.1M640.1 495.4L690.1 495.4M640.1 500.2L690.1 500.2" fill="#fff" stroke="#3FB1E3" ecmeta_series_index="0" ecmeta_data_index="5" ecmeta_ssr_type="chart" class="zr1-cls-3"></path>
<path d="M734.1 400L784.1 400L784.1 388.7L734.1 388.7ZM759.1 409.3L759.1 400M759.1 388.7M734.1 409.3L784.1 409.3M734.1 388.7L784.1 388.7M734.1 389.6L784.1 389.6" fill="#fff" stroke="#3FB1E3" ecmeta_series_index="0" ecmeta_data_index="6" ecmeta_ssr_type="chart" class="zr1-cls-3"></path>
<path d="M828 169.3L878 169.3L878 134.8L828 134.8ZM853 175.3L853 169.3M853 109.9L853 134.8M828 175.3L878 175.3M828 109.9L878 109.9M828 157.7L878 157.7" fill="#fff" stroke="#3FB1E3" ecmeta_series_index="0" ecmeta_data_index="7" ecmeta_ssr_type="chart" class="zr1-cls-3"></path>
<path d="M1 0A1 1 0 1 1 1 -0.1A1 1 0 0 1 1 0" transform="matrix(5,0,0,5,665.1,471.1633)" fill="#3fb1e3" fill-opacity="0.8" stroke="#ccc" stroke-width="0" stroke-opacity="0.8" ecmeta_series_index="1" ecmeta_data_index="0" ecmeta_ssr_type="chart" class="zr1-cls-4"></path>
<path d="M1 0A1 1 0 1 1 1 -0.1A1 1 0 0 1 1 0" transform="matrix(5,0,0,5,665.1,470.726)" fill="#3fb1e3" fill-opacity="0.8" stroke="#ccc" stroke-width="0" stroke-opacity="0.8" ecmeta_series_index="1" ecmeta_data_index="1" ecmeta_ssr_type="chart" class="zr1-cls-4"></path>
<path d="M1 0A1 1 0 1 1 1 -0.1A1 1 0 0 1 1 0" transform="matrix(5,0,0,5,759.06,366.7333)" fill="#3fb1e3" fill-opacity="0.8" stroke="#ccc" stroke-width="0" stroke-opacity="0.8" ecmeta_series_index="1" ecmeta_data_index="2" ecmeta_ssr_type="chart" class="zr1-cls-4"></path>
<path d="M1 0A1 1 0 1 1 1 -0.1A1 1 0 0 1 1 0" transform="matrix(5,0,0,5,759.06,362.3412)" fill="#3fb1e3" fill-opacity="0.8" stroke="#ccc" stroke-width="0" stroke-opacity="0.8" ecmeta_series_index="1" ecmeta_data_index="3" ecmeta_ssr_type="chart" class="zr1-cls-4"></path>
<path d="M-194.5 -5l389.1 0l0 28l-389.1 0Z" transform="translate(500 5)" fill="rgb(0,0,0)" fill-opacity="0" stroke="#ccc" stroke-width="0" class="zr1-cls-2"></path>
<text dominant-baseline="central" text-anchor="middle" style="font-size:18px;font-family:sans-serif;font-weight:bold;" xml:space="preserve" y="9" transform="translate(500 5)" fill="#666666">Benchmark Results - Effective UPS Distribution</text>
<style ><![CDATA[
.zr1-cls-2:hover {
pointer-events:none;
}
.zr1-cls-3:hover {
cursor:pointer;
fill:rgba(255,255,255,1);
stroke-width:2;
}
.zr1-cls-4:hover {
cursor:pointer;
fill:rgba(69,194,249,1);
}

]]>

</style>
</svg>