<svg width="1000" height="1000" xmlns="http://www.w3.org/2000/svg" xmlns:xlink="http://www.w3.org/1999/xlink" version="1.1" baseProfile="full" viewBox="0 0 1000 1000">
<rect width="1000" height="1000" x="0" y="0" fill="rgb(252,252,252)" fill-opacity="0"></rect>
<path d="M168.6 950.5L960 950.5" fill="transparent" stroke="#eeeeee" class="zr2-cls-5"></path>
<path d="M168.6 920.5L960 920.5" fill="transparent" stroke="#eeeeee" class="zr2-cls-5"></path>
<path d="M168.6 890.5L960 890.5" fill="transparent" stroke="#eeeeee" class="zr2-cls-5"></path>
<path d="M168.6 861.5L960 861.5" fill="transparent" stroke="#eeeeee" class="zr2-cls-5"></path>
<path d="M168.6 831.5L960 831.5" fill="transparent" stroke="#eeeeee" class="zr2-cls-5"></path>
<path d="M168.6 801.5L960 801.5" fill="transparent" stroke="#eeeeee" class="zr2-cls-5"></path>
<path d="M168.6 772.5L960 772.5" fill="transparent" stroke="#eeeeee" class="zr2-cls-5"></path>
<path d="M168.6 742.5L960 742.5" fill="transparent" stroke="#eeeeee" class="zr2-cls-5"></path>
<path d="M168.6 712.5L960 712.5" fill="transparent" stroke="#eeeeee" class="zr2-cls-5"></path>
<path d="M168.6 683.5L960 683.5" fill="transparent" stroke="#eeeeee" class="zr2-cls-5"></path>
<path d="M168.6 653.5L960 653.5" fill="transparent" stroke="#eeeeee" class="zr2-cls-5"></path>
<path d="M168.6 623.5L960 623.5" fill="transparent" stroke="#eeeeee" class="zr2-cls-5"></path>
<path d="M168.6 594.5L960 594.5" fill="transparent" stroke="#eeeeee" class="zr2-cls-5"></path>
<path d="M168.6 564.5L960 564.5" fill="transparent" stroke="#eeeeee" class="zr2-cls-5"></path>
<path d="M168.6 534.5L960 534.5" fill="transparent" stroke="#eeeeee" class="zr2-cls-5"></path>
<path d="M168.6 505.5L960 505.5" fill="transparent" stroke="#eeeeee" class="zr2-cls-5"></path>
<path d="M168.6 475.5L960 475.5" fill="transparent" stroke="#eeeeee" class="zr2-cls-5"></path>
<path d="M168.6 445.5L960 445.5" fill="transparent" stroke="#eeeeee" class="zr2-cls-5"></path>
<path d="M168.6 416.5L960 416.5" fill="transparent" stroke="#eeeeee" class="zr2-cls-5"></path>
<path d="M168.6 386.5L960 386.5" fill="transparent" stroke="#eeeeee" class="zr2-cls-5"></path>
<path d="M168.6 356.5L960 356.5" fill="transparent" stroke="#eeeeee" class="zr2-cls-5"></path>
<path d="M168.6 327.5L960 327.5" fill="transparent" stroke="#eeeeee" class="zr2-cls-5"></path>
<path d="M168.6 297.5L960 297.5" fill="transparent" stroke="#eeeeee" class="zr2-cls-5"></path>
<path d="M168.6 267.5L960 267.5" fill="transparent" stroke="#eeeeee" class="zr2-cls-5"></path>
<path d="M168.6 238.5L960 238.5" fill="transparent" stroke="#eeeeee" class="zr2-cls-5"></path>
<path d="M168.6 208.5L960 208.5" fill="transparent" stroke="#eeeeee" class="zr2-cls-5"></path>
<path d="M168.6 178.5L960 178.5" fill="transparent" stroke="#eeeeee" class="zr2-cls-5"></path>
<path d="M168.6 149.5L960 149.5" fill="transparent" stroke="#eeeeee" class="zr2-cls-5"></path>
<path d="M168.6 119.5L960 119.5" fill="transparent" stroke="#eeeeee" class="zr2-cls-5"></path>
<path d="M168.6 89.5L960 89.5" fill="transparent" stroke="#eeeeee" class="zr2-cls-5"></path>
<path d="M168.6 60.5L960 60.5" fill="transparent" stroke="#eeeeee" class="zr2-cls-5"></path>
<path d="M168.5 950L168.5 60" fill="transparent" stroke="#cccccc" stroke-linecap="round" class="zr2-cls-5"></path>
<path d="M168.6 950.5L960 950.5" fill="transparent" stroke="#cccccc" stroke-linecap="round" class="zr2-cls-5"></path>
<text dominant-baseline="central" text-anchor="end" style="font-size:12px;font-family:sans-serif;" transform="translate(160.56 935.1667)" fill="#999999">03_swiftdeath007</text>
<text dominant-baseline="central" text-anchor="end" style="font-size:12px;font-family:sans-serif;" transform="translate(160.56 905.5)" fill="#999999">31_minebuilder</text>
<text dominant-baseline="central" text-anchor="end" style="font-size:12px;font-family:sans-serif;" transform="translate(160.56 875.8333)" fill="#999999">16_yuu_with_ships</text>
<text dominant-baseline="central" text-anchor="end" style="font-size:12px;font-family:sans-serif;" transform="translate(160.56 846.1667)" fill="#999999">15_yuu</text>
<text dominant-baseline="central" text-anchor="end" style="font-size:12px;font-family:sans-serif;" transform="translate(160.56 816.5)" fill="#999999">19_werezwolf</text>
<text dominant-baseline="central" text-anchor="end" style="font-size:12px;font-family:sans-serif;" transform="translate(160.56 786.8333)" fill="#999999">20_toda1</text>
<text dominant-baseline="central" text-anchor="end" style="font-size:12px;font-family:sans-serif;" transform="translate(160.56 757.1667)" fill="#999999">04_swiftdeath007</text>
<text dominant-baseline="central" text-anchor="end" style="font-size:12px;font-family:sans-serif;" transform="translate(160.56 727.5)" fill="#999999">00_baseline_with_ships</text>
<text dominant-baseline="central" text-anchor="end" style="font-size:12px;font-family:sans-serif;" transform="translate(160.56 697.8333)" fill="#999999">00_baseline</text>
<text dominant-baseline="central" text-anchor="end" style="font-size:12px;font-family:sans-serif;" transform="translate(160.56 668.1667)" fill="#999999">34_osboz</text>
<text dominant-baseline="central" text-anchor="end" style="font-size:12px;font-family:sans-serif;" transform="translate(160.56 638.5)" fill="#999999">11_theflyingcurryfish154</text>
<text dominant-baseline="central" text-anchor="end" style="font-size:12px;font-family:sans-serif;" transform="translate(160.56 608.8333)" fill="#999999">16_yuu</text>
<text dominant-baseline="central" text-anchor="end" style="font-size:12px;font-family:sans-serif;" transform="translate(160.56 579.1667)" fill="#999999">22_mcmayhem57</text>
<text dominant-baseline="central" text-anchor="end" style="font-size:12px;font-family:sans-serif;" transform="translate(160.56 549.5)" fill="#999999">05_derantrix</text>
<text dominant-baseline="central" text-anchor="end" style="font-size:12px;font-family:sans-serif;" transform="translate(160.56 519.8333)" fill="#999999">23_mcmayhem57</text>
<text dominant-baseline="central" text-anchor="end" style="font-size:12px;font-family:sans-serif;" transform="translate(160.56 490.1667)" fill="#999999">06_imp</text>
<text dominant-baseline="central" text-anchor="end" style="font-size:12px;font-family:sans-serif;" transform="translate(160.56 460.5)" fill="#999999">29_geist</text>
<text dominant-baseline="central" text-anchor="end" style="font-size:12px;font-family:sans-serif;" transform="translate(160.56 430.8333)" fill="#999999">30_reja</text>
<text dominant-baseline="central" text-anchor="end" style="font-size:12px;font-family:sans-serif;" transform="translate(160.56 401.1667)" fill="#999999">32_reja</text>
<text dominant-baseline="central" text-anchor="end" style="font-size:12px;font-family:sans-serif;" transform="translate(160.56 371.5)" fill="#999999">26_mrcooki4</text>
<text dominant-baseline="central" text-anchor="end" style="font-size:12px;font-family:sans-serif;" transform="translate(160.56 341.8333)" fill="#999999">09_jobo</text>
<text dominant-baseline="central" text-anchor="end" style="font-size:12px;font-family:sans-serif;" transform="translate(160.56 312.1667)" fill="#999999">01_undertow</text>
<text dominant-baseline="central" text-anchor="end" style="font-size:12px;font-family:sans-serif;" transform="translate(160.56 282.5)" fill="#999999">13_phlap</text>
<text dominant-baseline="central" text-anchor="end" style="font-size:12px;font-family:sans-serif;" transform="translate(160.56 252.8333)" fill="#999999">27_geist</text>
<text dominant-baseline="central" text-anchor="end" style="font-size:12px;font-family:sans-serif;" transform="translate(160.56 223.1667)" fill="#999999">28_geist</text>
<text dominant-baseline="central" text-anchor="end" style="font-size:12px;font-family:sans-serif;" transform="translate(160.56 193.5)" fill="#999999">35_henryjk</text>
<text dominant-baseline="central" text-anchor="end" style="font-size:12px;font-family:sans-serif;" transform="translate(160.56 163.8333)" fill="#999999">08_lady_meyneth</text>
<text dominant-baseline="central" text-anchor="end" style="font-size:12px;font-family:sans-serif;" transform="translate(160.56 134.1667)" fill="#999999">14_abucnasty</text>
<text dominant-baseline="central" text-anchor="end" style="font-size:12px;font-family:sans-serif;" transform="translate(160.56 104.5)" fill="#999999">12_phlap</text>
<text dominant-baseline="central" text-anchor="end" style="font-size:12px;font-family:sans-serif;" transform="translate(160.56 74.8333)" fill="#999999">18_lady_meyneth</text>
<text dominant-baseline="central" text-anchor="middle" style="font-size:12px;font-family:sans-serif;" y="6" transform="translate(168.56 958)" fill="#999999">0</text>
<text dominant-baseline="central" text-anchor="middle" style="font-size:12px;font-family:sans-serif;" y="6" transform="translate(281.6229 958)" fill="#999999">30</text>
<text dominant-baseline="central" text-anchor="middle" style="font-size:12px;font-family:sans-serif;" y="6" transform="translate(394.6857 958)" fill="#999999">60</text>
<text dominant-baseline="central" text-anchor="middle" style="font-size:12px;font-family:sans-serif;" y="6" transform="translate(507.7486 958)" fill="#999999">90</text>
<text dominant-baseline="central" text-anchor="middle" style="font-size:12px;font-family:sans-serif;" y="6" transform="translate(620.8114 958)" fill="#999999">120</text>
<text dominant-baseline="central" text-anchor="middle" style="font-size:12px;font-family:sans-serif;" y="6" transform="translate(733.8743 958)" fill="#999999">150</text>
<text dominant-baseline="central" text-anchor="middle" style="font-size:12px;font-family:sans-serif;" y="6" transform="translate(846.9371 958)" fill="#999999">180</text>
<text dominant-baseline="central" text-anchor="middle" style="font-size:12px;font-family:sans-serif;" y="6" transform="translate(960 958)" fill="#999999">210</text>
<path d="M168.6 924.9l0 0l0 20.5l0 0Z" fill="#3fb1e3" ecmeta_series_index="0" ecmeta_data_index="0" ecmeta_ssr_type="chart" class="zr2-cls-6"></path>
<path d="M168.6 895.3l111.1 0l0 20.5l-111.1 0Z" fill="#3fb1e3" ecmeta_series_index="0" ecmeta_data_index="1" ecmeta_ssr_type="chart" class="zr2-cls-6"></path>
<path d="M168.6 865.6l163.8 0l0 20.5l-163.8 0Z" fill="#3fb1e3" ecmeta_series_index="0" ecmeta_data_index="2" ecmeta_ssr_type="chart" class="zr2-cls-6"></path>
<path d="M168.6 835.9l170 0l0 20.5l-170 0Z" fill="#3fb1e3" ecmeta_series_index="0" ecmeta_data_index="3" ecmeta_ssr_type="chart" class="zr2-cls-6"></path>
<path d="M168.6 806.3l230.2 0l0 20.5l-230.2 0Z" fill="#3fb1e3" ecmeta_series_index="0" ecmeta_data_index="4" ecmeta_ssr_type="chart" class="zr2-cls-6"></path>
<path d="M168.6 776.6l274.5 0l0 20.5l-274.5 0Z" fill="#3fb1e3" ecmeta_series_index="0" ecmeta_data_index="5" ecmeta_ssr_type="chart" class="zr2-cls-6"></path>
<path d="M168.6 746.9l334.3 0l0 20.5l-334.3 0Z" fill="#3fb1e3" ecmeta_series_index="0" ecmeta_data_index="6" ecmeta_ssr_type="chart" class="zr2-cls-6"></path>
<path d="M168.6 717.3l360.1 0l0 20.5l-360.1 0Z" fill="#3fb1e3" ecmeta_series_index="0" ecmeta_data_index="7" ecmeta_ssr_type="chart" class="zr2-cls-6"></path>
<path d="M168.6 687.6l366.8 0l0 20.5l-366.8 0Z" fill="#3fb1e3" ecmeta_series_index="0" ecmeta_data_index="8" ecmeta_ssr_type="chart" class="zr2-cls-6"></path>
<path d="M168.6 657.9l401.2 0l0 20.5l-401.2 0Z" fill="#3fb1e3" ecmeta_series_index="0" ecmeta_data_index="9" ecmeta_ssr_type="chart" class="zr2-cls-6"></path>
<path d="M168.6 628.3l405 0l0 20.5l-405 0Z" fill="#3fb1e3" ecmeta_series_index="0" ecmeta_data_index="10" ecmeta_ssr_type="chart" class="zr2-cls-6"></path>
<path d="M168.6 598.6l440.9 0l0 20.5l-440.9 0Z" fill="#3fb1e3" ecmeta_series_index="0" ecmeta_data_index="11" ecmeta_ssr_type="chart" class="zr2-cls-6"></path>
<path d="M168.6 568.9l464.3 0l0 20.5l-464.3 0Z" fill="#3fb1e3" ecmeta_series_index="0" ecmeta_data_index="12" ecmeta_ssr_type="chart" class="zr2-cls-6"></path>
<path d="M168.6 539.3l470.7 0l0 20.5l-470.7 0Z" fill="#3fb1e3" ecmeta_series_index="0" ecmeta_data_index="13" ecmeta_ssr_type="chart" class="zr2-cls-6"></path>
<path d="M168.6 509.6l472.8 0l0 20.5l-472.8 0Z" fill="#3fb1e3" ecmeta_series_index="0" ecmeta_data_index="14" ecmeta_ssr_type="chart" class="zr2-cls-6"></path>
<path d="M168.6 479.9l495.8 0l0 20.5l-495.8 0Z" fill="#3fb1e3" ecmeta_series_index="0" ecmeta_data_index="15" ecmeta_ssr_type="chart" class="zr2-cls-6"></path>
<path d="M168.6 450.3l520.8 0l0 20.5l-520.8 0Z" fill="#3fb1e3" ecmeta_series_index="0" ecmeta_data_index="16" ecmeta_ssr_type="chart" class="zr2-cls-6"></path>
<path d="M168.6 420.6l522.8 0l0 20.5l-522.8 0Z" fill="#3fb1e3" ecmeta_series_index="0" ecmeta_data_index="17" ecmeta_ssr_type="chart" class="zr2-cls-6"></path>
<path d="M168.6 390.9l544.8 0l0 20.5l-544.8 0Z" fill="#3fb1e3" ecmeta_series_index="0" ecmeta_data_index="18" ecmeta_ssr_type="chart" class="zr2-cls-6"></path>
<path d="M168.6 361.3l573.8 0l0 20.5l-573.8 0Z" fill="#3fb1e3" ecmeta_series_index="0" ecmeta_data_index="19" ecmeta_ssr_type="chart" class="zr2-cls-6"></path>
<path d="M168.6 331.6l594.4 0l0 20.5l-594.4 0Z" fill="#3fb1e3" ecmeta_series_index="0" ecmeta_data_index="20" ecmeta_ssr_type="chart" class="zr2-cls-6"></path>
<path d="M168.6 301.9l610.8 0l0 20.5l-610.8 0Z" fill="#3fb1e3" ecmeta_series_index="0" ecmeta_data_index="21" ecmeta_ssr_type="chart" class="zr2-cls-6"></path>
<path d="M168.6 272.3l613.7 0l0 20.5l-613.7 0Z" fill="#3fb1e3" ecmeta_series_index="0" ecmeta_data_index="22" ecmeta_ssr_type="chart" class="zr2-cls-6"></path>
<path d="M168.6 242.6l642.7 0l0 20.5l-642.7 0Z" fill="#3fb1e3" ecmeta_series_index="0" ecmeta_data_index="23" ecmeta_ssr_type="chart" class="zr2-cls-6"></path>
<path d="M168.6 212.9l652.9 0l0 20.5l-652.9 0Z" fill="#3fb1e3" ecmeta_series_index="0" ecmeta_data_index="24" ecmeta_ssr_type="chart" class="zr2-cls-6"></path>
<path d="M168.6 183.3l654.8 0l0 20.5l-654.8 0Z" fill="#3fb1e3" ecmeta_series_index="0" ecmeta_data_index="25" ecmeta_ssr_type="chart" class="zr2-cls-6"></path>
<path d="M168.6 153.6l666.7 0l0 20.5l-666.7 0Z" fill="#3fb1e3" ecmeta_series_index="0" ecmeta_data_index="26" ecmeta_ssr_type="chart" class="zr2-cls-6"></path>
<path d="M168.6 123.9l672.6 0l0 20.5l-672.6 0Z" fill="#3fb1e3" ecmeta_series_index="0" ecmeta_data_index="27" ecmeta_ssr_type="chart" class="zr2-cls-6"></path>
<path d="M168.6 94.3l682.2 0l0 20.5l-682.2 0Z" fill="#3fb1e3" ecmeta_series_index="0" ecmeta_data_index="28" ecmeta_ssr_type="chart" class="zr2-cls-6"></path>
<path d="M168.6 64.6l685.6 0l0 20.5l-685.6 0Z" fill="#3fb1e3" ecmeta_series_index="0" ecmeta_data_index="29" ecmeta_ssr_type="chart" class="zr2-cls-6"></path>
<text dominant-baseline="central" text-anchor="middle" style="font-size:12px;font-family:sans-serif;" transform="translate(168.56 935.1667)" fill="#333">0</text>
<text dominant-baseline="central" text-anchor="middle" style="font-size:12px;font-family:sans-serif;" transform="translate(224.0927 905.5)" fill="#333">29.47</text>
<text dominant-baseline="central" text-anchor="middle" style="font-size:12px;font-family:sans-serif;" transform="translate(250.4552 875.8333)" fill="#333">43.46</text>
<text dominant-baseline="central" text-anchor="middle" style="font-size:12px;font-family:sans-serif;" transform="translate(253.5833 846.1667)" fill="#333">45.12</text>
<text dominant-baseline="central" text-anchor="middle" style="font-size:12px;font-family:sans-serif;" transform="translate(283.6391 816.5)" fill="#333">61.07</text>
<text dominant-baseline="central" text-anchor="middle" style="font-size:12px;font-family:sans-serif;" transform="translate(305.8183 786.8333)" fill="#333">72.84</text>
<text dominant-baseline="central" text-anchor="middle" style="font-size:12px;font-family:sans-serif;" transform="translate(335.7234 757.1667)" fill="#333">88.71</text>
<text dominant-baseline="central" text-anchor="middle" style="font-size:12px;font-family:sans-serif;" transform="translate(348.6314 727.5)" fill="#333">95.56</text>
<text dominant-baseline="central" text-anchor="middle" style="font-size:12px;font-family:sans-serif;" transform="translate(351.948 697.8333)" fill="#333">97.32</text>
<text dominant-baseline="central" text-anchor="middle" style="font-size:12px;font-family:sans-serif;" transform="translate(369.1524 668.1667)" fill="#333">106.45</text>
<text dominant-baseline="central" text-anchor="middle" style="font-size:12px;font-family:sans-serif;" transform="translate(371.0744 638.5)" fill="#333">107.47</text>
<text dominant-baseline="central" text-anchor="middle" style="font-size:12px;font-family:sans-serif;" transform="translate(388.9949 608.8333)" fill="#333">116.98</text>
<text dominant-baseline="central" text-anchor="middle" style="font-size:12px;font-family:sans-serif;" transform="translate(400.7157 579.1667)" fill="#333">123.2</text>
<text dominant-baseline="central" text-anchor="middle" style="font-size:12px;font-family:sans-serif;" transform="translate(403.9003 549.5)" fill="#333">124.89</text>
<text dominant-baseline="central" text-anchor="middle" style="font-size:12px;font-family:sans-serif;" transform="translate(404.9556 519.8333)" fill="#333">125.45</text>
<text dominant-baseline="central" text-anchor="middle" style="font-size:12px;font-family:sans-serif;" transform="translate(416.4503 490.1667)" fill="#333">131.55</text>
<text dominant-baseline="central" text-anchor="middle" style="font-size:12px;font-family:sans-serif;" transform="translate(428.9626 460.5)" fill="#333">138.19</text>
<text dominant-baseline="central" text-anchor="middle" style="font-size:12px;font-family:sans-serif;" transform="translate(429.9425 430.8333)" fill="#333">138.71</text>
<text dominant-baseline="central" text-anchor="middle" style="font-size:12px;font-family:sans-serif;" transform="translate(440.9473 401.1667)" fill="#333">144.55</text>
<text dominant-baseline="central" text-anchor="middle" style="font-size:12px;font-family:sans-serif;" transform="translate(455.4382 371.5)" fill="#333">152.24</text>
<text dominant-baseline="central" text-anchor="middle" style="font-size:12px;font-family:sans-serif;" transform="translate(465.7646 341.8333)" fill="#333">157.72</text>
<text dominant-baseline="central" text-anchor="middle" style="font-size:12px;font-family:sans-serif;" transform="translate(473.9616 312.1667)" fill="#333">162.07</text>
<text dominant-baseline="central" text-anchor="middle" style="font-size:12px;font-family:sans-serif;" transform="translate(475.4126 282.5)" fill="#333">162.84</text>
<text dominant-baseline="central" text-anchor="middle" style="font-size:12px;font-family:sans-serif;" transform="translate(489.9223 252.8333)" fill="#333">170.54</text>
<text dominant-baseline="central" text-anchor="middle" style="font-size:12px;font-family:sans-serif;" transform="translate(495.0102 223.1667)" fill="#333">173.24</text>
<text dominant-baseline="central" text-anchor="middle" style="font-size:12px;font-family:sans-serif;" transform="translate(495.9523 193.5)" fill="#333">173.74</text>
<text dominant-baseline="central" text-anchor="middle" style="font-size:12px;font-family:sans-serif;" transform="translate(501.907 163.8333)" fill="#333">176.9</text>
<text dominant-baseline="central" text-anchor="middle" style="font-size:12px;font-family:sans-serif;" transform="translate(504.8466 134.1667)" fill="#333">178.46</text>
<text dominant-baseline="central" text-anchor="middle" style="font-size:12px;font-family:sans-serif;" transform="translate(509.6518 104.5)" fill="#333">181.01</text>
<text dominant-baseline="central" text-anchor="middle" style="font-size:12px;font-family:sans-serif;" transform="translate(511.3666 74.8333)" fill="#333">181.92</text>
<path d="M-192.6 -5l385.3 0l0 28l-385.3 0Z" transform="translate(500 5)" fill="rgb(0,0,0)" fill-opacity="0" stroke="#ccc" stroke-width="0" class="zr2-cls-5"></path>
<text dominant-baseline="central" text-anchor="middle" style="font-size:18px;font-family:sans-serif;font-weight:bold;" xml:space="preserve" y="9" transform="translate(500 5)" fill="#666666">Benchmark Results - Percentage Improvement</text>
<style ><![CDATA[
.zr2-cls-5:hover {
pointer-events:none;
}
.zr2-cls-6:hover {
cursor:pointer;
fill:rgba(69,194,249,1);
}

]]>

</style>
</svg>