<svg width="1000" height="1000" xmlns="http://www.w3.org/2000/svg" xmlns:xlink="http://www.w3.org/1999/xlink" version="1.1" baseProfile="full" viewBox="0 0 1000 1000">
<rect width="1000" height="1000" x="0" y="0" fill="rgb(252,252,252)" fill-opacity="0"></rect>
<path d="M138.5 60L138.5 816.2" fill="transparent" stroke="#eeeeee" class="zr1-cls-2"></path>
<path d="M163.5 60L163.5 816.2" fill="transparent" stroke="#eeeeee" class="zr1-cls-2"></path>
<path d="M189.5 60L189.5 816.2" fill="transparent" stroke="#eeeeee" class="zr1-cls-2"></path>
<path d="M214.5 60L214.5 816.2" fill="transparent" stroke="#eeeeee" class="zr1-cls-2"></path>
<path d="M240.5 60L240.5 816.2" fill="transparent" stroke="#eeeeee" class="zr1-cls-2"></path>
<path d="M265.5 60L265.5 816.2" fill="transparent" stroke="#eeeeee" class="zr1-cls-2"></path>
<path d="M290.5 60L290.5 816.2" fill="transparent" stroke="#eeeeee" class="zr1-cls-2"></path>
<path d="M316.5 60L316.5 816.2" fill="transparent" stroke="#eeeeee" class="zr1-cls-2"></path>
<path d="M341.5 60L341.5 816.2" fill="transparent" stroke="#eeeeee" class="zr1-cls-2"></path>
<path d="M367.5 60L367.5 816.2" fill="transparent" stroke="#eeeeee" class="zr1-cls-2"></path>
<path d="M392.5 60L392.5 816.2" fill="transparent" stroke="#eeeeee" class="zr1-cls-2"></path>
<path d="M417.5 60L417.5 816.2" fill="transparent" stroke="#eeeeee" class="zr1-cls-2"></path>
<path d="M443.5 60L443.5 816.2" fill="transparent" stroke="#eeeeee" class="zr1-cls-2"></path>
<path d="M468.5 60L468.5 816.2" fill="transparent" stroke="#eeeeee" class="zr1-cls-2"></path>
<path d="M493.5 60L493.5 816.2" fill="transparent" stroke="#eeeeee" class="zr1-cls-2"></path>
<path d="M519.5 60L519.5 816.2" fill="transparent" stroke="#eeeeee" class="zr1-cls-2"></path>
<path d="M544.5 60L544.5 816.2" fill="transparent" stroke="#eeeeee" class="zr1-cls-2"></path>
<path d="M570.5 60L570.5 816.2" fill="transparent" stroke="#eeeeee" class="zr1-cls-2"></path>
<path d="M595.5 60L595.5 816.2" fill="transparent" stroke="#eeeeee" class="zr1-cls-2"></path>
<path d="M620.5 60L620.5 816.2" fill="transparent" stroke="#eeeeee" class="zr1-cls-2"></path>
<path d="M646.5 60L646.5 816.2" fill="transparent" stroke="#eeeeee" class="zr1-cls-2"></path>
<path d="M671.5 60L671.5 816.2" fill="transparent" stroke="#eeeeee" class="zr1-cls-2"></path>
<path d="M697.5 60L697.5 816.2" fill="transparent" stroke="#eeeeee" class="zr1-cls-2"></path>
<path d="M722.5 60L722.5 816.2" fill="transparent" stroke="#eeeeee" class="zr1-cls-2"></path>
<path d="M747.5 60L747.5 816.2" fill="transparent" stroke="#eeeeee" class="zr1-cls-2"></path>
<path d="M773.5 60L773.5 816.2" fill="transparent" stroke="#eeeeee" class="zr1-cls-2"></path>
<path d="M798.5 60L798.5 816.2" fill="transparent" stroke="#eeeeee" class="zr1-cls-2"></path>
<path d="M824.5 60L824.5 816.2" fill="transparent" stroke="#eeeeee" class="zr1-cls-2"></path>
<path d="M849.5 60L849.5 816.2" fill="transparent" stroke="#eeeeee" class="zr1-cls-2"></path>
<path d="M874.5 60L874.5 816.2" fill="transparent" stroke="#eeeeee" class="zr1-cls-2"></path>
<path d="M900.5 60L900.5 816.2" fill="transparent" stroke="#eeeeee" class="zr1-cls-2"></path>
<path d="M138.5 816.2L138.5 60" fill="transparent" stroke="#cccccc" stroke-linecap="round" class="zr1-cls-2"></path>
<text dominant-baseline="central" text-anchor="middle" style="font-size:12px;font-family:sans-serif;" y="-6" transform="translate(138.24 45)" fill="#cccccc">UPS</text>
<path d="M138.2 816.5L900 816.5" fill="transparent" stroke="#cccccc" stroke-linecap="round" class="zr1-cls-2"></path>
<text dominant-baseline="central" text-anchor="end" style="font-size:12px;font-family:sans-serif;" transform="translate(130.24 816.1949)" fill="#999999">282</text>
<text dominant-baseline="central" text-anchor="end" style="font-size:12px;font-family:sans-serif;" transform="translate(130.24 664.9559)" fill="#999999">408.2</text>
<text dominant-baseline="central" text-anchor="end" style="font-size:12px;font-family:sans-serif;" transform="translate(130.24 513.7169)" fill="#999999">534.4</text>
<text dominant-baseline="central" text-anchor="end" style="font-size:12px;font-family:sans-serif;" transform="translate(130.24 362.4779)" fill="#999999">660.6</text>
<text dominant-baseline="central" text-anchor="end" style="font-size:12px;font-family:sans-serif;" transform="translate(130.24 211.239)" fill="#999999">786.8</text>
<text dominant-baseline="central" text-anchor="end" style="font-size:12px;font-family:sans-serif;" transform="translate(130.24 60)" fill="#999999">913</text>
<text dominant-baseline="central" text-anchor="end" style="font-size:12px;font-family:sans-serif;" transform="matrix(0.707,-0.707,0.707,0.707,150.936,824.1949)" fill="#999999">03_swiftdeath007</text>
<text dominant-baseline="central" text-anchor="end" style="font-size:12px;font-family:sans-serif;" transform="matrix(0.707,-0.707,0.707,0.707,176.328,824.1949)" fill="#999999">31_minebuilder</text>
<text dominant-baseline="central" text-anchor="end" style="font-size:12px;font-family:sans-serif;" transform="matrix(0.707,-0.707,0.707,0.707,201.72,824.1949)" fill="#999999">16_yuu_with_ships</text>
<text dominant-baseline="central" text-anchor="end" style="font-size:12px;font-family:sans-serif;" transform="matrix(0.707,-0.707,0.707,0.707,227.112,824.1949)" fill="#999999">15_yuu</text>
<text dominant-baseline="central" text-anchor="end" style="font-size:12px;font-family:sans-serif;" transform="matrix(0.707,-0.707,0.707,0.707,252.504,824.1949)" fill="#999999">19_werezwolf</text>
<text dominant-baseline="central" text-anchor="end" style="font-size:12px;font-family:sans-serif;" transform="matrix(0.707,-0.707,0.707,0.707,277.896,824.1949)" fill="#999999">20_toda1</text>
<text dominant-baseline="central" text-anchor="end" style="font-size:12px;font-family:sans-serif;" transform="matrix(0.707,-0.707,0.707,0.707,303.288,824.1949)" fill="#999999">04_swiftdeath007</text>
<text dominant-baseline="central" text-anchor="end" style="font-size:12px;font-family:sans-serif;" transform="matrix(0.707,-0.707,0.707,0.707,328.68,824.1949)" fill="#999999">00_baseline_with_ships</text>
<text dominant-baseline="central" text-anchor="end" style="font-size:12px;font-family:sans-serif;" transform="matrix(0.707,-0.707,0.707,0.707,354.072,824.1949)" fill="#999999">00_baseline</text>
<text dominant-baseline="central" text-anchor="end" style="font-size:12px;font-family:sans-serif;" transform="matrix(0.707,-0.707,0.707,0.707,379.464,824.1949)" fill="#999999">34_osboz</text>
<text dominant-baseline="central" text-anchor="end" style="font-size:12px;font-family:sans-serif;" transform="matrix(0.707,-0.707,0.707,0.707,404.856,824.1949)" fill="#999999">11_theflyingcurryfish154</text>
<text dominant-baseline="central" text-anchor="end" style="font-size:12px;font-family:sans-serif;" transform="matrix(0.707,-0.707,0.707,0.707,430.248,824.1949)" fill="#999999">16_yuu</text>
<text dominant-baseline="central" text-anchor="end" style="font-size:12px;font-family:sans-serif;" transform="matrix(0.707,-0.707,0.707,0.707,455.64,824.1949)" fill="#999999">22_mcmayhem57</text>
<text dominant-baseline="central" text-anchor="end" style="font-size:12px;font-family:sans-serif;" transform="matrix(0.707,-0.707,0.707,0.707,481.032,824.1949)" fill="#999999">05_derantrix</text>
<text dominant-baseline="central" text-anchor="end" style="font-size:12px;font-family:sans-serif;" transform="matrix(0.707,-0.707,0.707,0.707,506.424,824.1949)" fill="#999999">23_mcmayhem57</text>
<text dominant-baseline="central" text-anchor="end" style="font-size:12px;font-family:sans-serif;" transform="matrix(0.707,-0.707,0.707,0.707,531.816,824.1949)" fill="#999999">06_imp</text>
<text dominant-baseline="central" text-anchor="end" style="font-size:12px;font-family:sans-serif;" transform="matrix(0.707,-0.707,0.707,0.707,557.208,824.1949)" fill="#999999">29_geist</text>
<text dominant-baseline="central" text-anchor="end" style="font-size:12px;font-family:sans-serif;" transform="matrix(0.707,-0.707,0.707,0.707,582.6,824.1949)" fill="#999999">30_reja</text>
<text dominant-baseline="central" text-anchor="end" style="font-size:12px;font-family:sans-serif;" transform="matrix(0.707,-0.707,0.707,0.707,607.992,824.1949)" fill="#999999">32_reja</text>
<text dominant-baseline="central" text-anchor="end" style="font-size:12px;font-family:sans-serif;" transform="matrix(0.707,-0.707,0.707,0.707,633.384,824.1949)" fill="#999999">26_mrcooki4</text>
<text dominant-baseline="central" text-anchor="end" style="font-size:12px;font-family:sans-serif;" transform="matrix(0.707,-0.707,0.707,0.707,658.776,824.1949)" fill="#999999">09_jobo</text>
<text dominant-baseline="central" text-anchor="end" style="font-size:12px;font-family:sans-serif;" transform="matrix(0.707,-0.707,0.707,0.707,684.168,824.1949)" fill="#999999">01_undertow</text>
<text dominant-baseline="central" text-anchor="end" style="font-size:12px;font-family:sans-serif;" transform="matrix(0.707,-0.707,0.707,0.707,709.56,824.1949)" fill="#999999">13_phlap</text>
<text dominant-baseline="central" text-anchor="end" style="font-size:12px;font-family:sans-serif;" transform="matrix(0.707,-0.707,0.707,0.707,734.952,824.1949)" fill="#999999">27_geist</text>
<text dominant-baseline="central" text-anchor="end" style="font-size:12px;font-family:sans-serif;" transform="matrix(0.707,-0.707,0.707,0.707,760.344,824.1949)" fill="#999999">28_geist</text>
<text dominant-baseline="central" text-anchor="end" style="font-size:12px;font-family:sans-serif;" transform="matrix(0.707,-0.707,0.707,0.707,785.736,824.1949)" fill="#999999">35_henryjk</text>
<text dominant-baseline="central" text-anchor="end" style="font-size:12px;font-family:sans-serif;" transform="matrix(0.707,-0.707,0.707,0.707,811.128,824.1949)" fill="#999999">08_lady_meyneth</text>
<text dominant-baseline="central" text-anchor="end" style="font-size:12px;font-family:sans-serif;" transform="matrix(0.707,-0.707,0.707,0.707,836.52,824.1949)" fill="#999999">14_abucnasty</text>
<text dominant-baseline="central" text-anchor="end" style="font-size:12px;font-family:sans-serif;" transform="matrix(0.707,-0.707,0.707,0.707,861.912,824.1949)" fill="#999999">12_phlap</text>
<text dominant-baseline="central" text-anchor="end" style="font-size:12px;font-family:sans-serif;" transform="matrix(0.707,-0.707,0.707,0.707,887.304,824.1949)" fill="#999999">18_lady_meyneth</text>
<path d="M141.8 797.6L160.1 797.6L160.1 797L141.8 797ZM150.9 797.9L150.9 797.6M150.9 797M141.8 797.9L160.1 797.9M141.8 797L160.1 797M141.8 797.1L160.1 797.1" fill="#fff" stroke="#3FB1E3" ecmeta_series_index="0" ecmeta_data_index="0" ecmeta_ssr_type="chart" class="zr1-cls-3"></path>
<path d="M167.2 687.5L185.5 687.5L185.5 684.8L167.2 684.8ZM176.3 687.5M176.3 684.8M167.2 687.5L185.5 687.5M167.2 684.8L185.5 684.8M167.2 686.3L185.5 686.3" fill="#fff" stroke="#3FB1E3" ecmeta_series_index="0" ecmeta_data_index="1" ecmeta_ssr_type="chart" class="zr1-cls-3"></path>
<path d="M192.6 639.5L210.9 639.5L210.9 636.1L192.6 636.1ZM201.7 639.5M201.7 634.9L201.7 636.1M192.6 639.5L210.9 639.5M192.6 634.9L210.9 634.9M192.6 636.8L210.9 636.8" fill="#fff" stroke="#3FB1E3" ecmeta_series_index="0" ecmeta_data_index="2" ecmeta_ssr_type="chart" class="zr1-cls-3"></path>
<path d="M218 629.9L236.3 629.9L236.3 627.6L218 627.6ZM227.1 629.9M227.1 626L227.1 627.6M218 629.9L236.3 629.9M218 626L236.3 626M218 629.1L236.3 629.1" fill="#fff" stroke="#3FB1E3" ecmeta_series_index="0" ecmeta_data_index="3" ecmeta_ssr_type="chart" class="zr1-cls-3"></path>
<path d="M243.3 617.5L261.7 617.5L261.7 557.6L243.3 557.6ZM252.5 623.2L252.5 617.5M252.5 531.3L252.5 557.6M243.3 623.2L261.7 623.2M243.3 531.3L261.7 531.3M243.3 564.5L261.7 564.5" fill="#fff" stroke="#3FB1E3" ecmeta_series_index="0" ecmeta_data_index="4" ecmeta_ssr_type="chart" class="zr1-cls-3"></path>
<path d="M268.7 538.7L287.1 538.7L287.1 534.5L268.7 534.5ZM277.9 539.4L277.9 538.7M277.9 533.4L277.9 534.5M268.7 539.4L287.1 539.4M268.7 533.4L287.1 533.4M268.7 538L287.1 538" fill="#fff" stroke="#3FB1E3" ecmeta_series_index="0" ecmeta_data_index="5" ecmeta_ssr_type="chart" class="zr1-cls-3"></path>
<path d="M294.1 482.4L312.4 482.4L312.4 476.9L294.1 476.9ZM303.3 486.3L303.3 482.4M303.3 475.8L303.3 476.9M294.1 486.3L312.4 486.3M294.1 475.8L312.4 475.8M294.1 479.3L312.4 479.3" fill="#fff" stroke="#3FB1E3" ecmeta_series_index="0" ecmeta_data_index="6" ecmeta_ssr_type="chart" class="zr1-cls-3"></path>
<path d="M319.5 458.3L337.8 458.3L337.8 453.2L319.5 453.2ZM328.7 459.8L328.7 458.3M328.7 452.4L328.7 453.2M319.5 459.8L337.8 459.8M319.5 452.4L337.8 452.4M319.5 454.6L337.8 454.6" fill="#fff" stroke="#3FB1E3" ecmeta_series_index="0" ecmeta_data_index="7" ecmeta_ssr_type="chart" class="zr1-cls-3"></path>
<path d="M344.9 448.8L363.2 448.8L363.2 447.9L344.9 447.9ZM354.1 448.8M354.1 447.9M344.9 448.8L363.2 448.8M344.9 447.9L363.2 447.9M344.9 448.5L363.2 448.5" fill="#fff" stroke="#3FB1E3" ecmeta_series_index="0" ecmeta_data_index="8" ecmeta_ssr_type="chart" class="zr1-cls-3"></path>
<path d="M370.3 418.2L388.6 418.2L388.6 417L370.3 417ZM379.5 418.5L379.5 418.2M379.5 417M370.3 418.5L388.6 418.5M370.3 417L388.6 417M370.3 417.9L388.6 417.9" fill="#fff" stroke="#3FB1E3" ecmeta_series_index="0" ecmeta_data_index="9" ecmeta_ssr_type="chart" class="zr1-cls-3"></path>
<path d="M395.7 418L414 418L414 412.4L395.7 412.4ZM404.9 418.1L404.9 418M404.9 412.4M395.7 418.1L414 418.1M395.7 412.4L414 412.4M395.7 415.7L414 415.7" fill="#fff" stroke="#3FB1E3" ecmeta_series_index="0" ecmeta_data_index="10" ecmeta_ssr_type="chart" class="zr1-cls-3"></path>
<path d="M421.1 385.1L439.4 385.1L439.4 377L421.1 377ZM430.2 392.1L430.2 385.1M430.2 377M421.1 392.1L439.4 392.1M421.1 377L439.4 377M421.1 377.2L439.4 377.2" fill="#fff" stroke="#3FB1E3" ecmeta_series_index="0" ecmeta_data_index="11" ecmeta_ssr_type="chart" class="zr1-cls-3"></path>
<path d="M446.5 365.1L464.8 365.1L464.8 349.7L446.5 349.7ZM455.6 365.9L455.6 365.1M455.6 341.1L455.6 349.7M446.5 365.9L464.8 365.9M446.5 341.1L464.8 341.1M446.5 362.9L464.8 362.9" fill="#fff" stroke="#3FB1E3" ecmeta_series_index="0" ecmeta_data_index="12" ecmeta_ssr_type="chart" class="zr1-cls-3"></path>
<path d="M471.9 352.6L490.2 352.6L490.2 350.1L471.9 350.1ZM481 354.1L481 352.6M481 350.1M471.9 354.1L490.2 354.1M471.9 350.1L490.2 350.1M471.9 352.3L490.2 352.3" fill="#fff" stroke="#3FB1E3" ecmeta_series_index="0" ecmeta_data_index="13" ecmeta_ssr_type="chart" class="zr1-cls-3"></path>
<path d="M497.3 350.1L515.6 350.1L515.6 349.1L497.3 349.1ZM506.4 350.1M506.4 349.1M497.3 350.1L515.6 350.1M497.3 349.1L515.6 349.1M497.3 350.1L515.6 350.1" fill="#fff" stroke="#3FB1E3" ecmeta_series_index="0" ecmeta_data_index="14" ecmeta_ssr_type="chart" class="zr1-cls-3"></path>
<path d="M522.7 330.1L541 330.1L541 326.3L522.7 326.3ZM531.8 330.7L531.8 330.1M531.8 321.2L531.8 326.3M522.7 330.7L541 330.7M522.7 321.2L541 321.2M522.7 327.2L541 327.2" fill="#fff" stroke="#3FB1E3" ecmeta_series_index="0" ecmeta_data_index="15" ecmeta_ssr_type="chart" class="zr1-cls-3"></path>
<path d="M548.1 306.9L566.4 306.9L566.4 300.4L548.1 300.4ZM557.2 308.5L557.2 306.9M557.2 295.7L557.2 300.4M548.1 308.5L566.4 308.5M548.1 295.7L566.4 295.7M548.1 305.3L566.4 305.3" fill="#fff" stroke="#3FB1E3" ecmeta_series_index="0" ecmeta_data_index="16" ecmeta_ssr_type="chart" class="zr1-cls-3"></path>
<path d="M573.4 303.9L591.8 303.9L591.8 296.9L573.4 296.9ZM582.6 311.1L582.6 303.9M582.6 295.2L582.6 296.9M573.4 311.1L591.8 311.1M573.4 295.2L591.8 295.2M573.4 300.6L591.8 300.6" fill="#fff" stroke="#3FB1E3" ecmeta_series_index="0" ecmeta_data_index="17" ecmeta_ssr_type="chart" class="zr1-cls-3"></path>
<path d="M598.8 283.5L617.1 283.5L617.1 271.5L598.8 271.5ZM608 283.5M608 257L608 271.5M598.8 283.5L617.1 283.5M598.8 257L617.1 257M598.8 276.2L617.1 276.2" fill="#fff" stroke="#3FB1E3" ecmeta_series_index="0" ecmeta_data_index="18" ecmeta_ssr_type="chart" class="zr1-cls-3"></path>
<path d="M624.2 246.4L642.5 246.4L642.5 240.4L624.2 240.4ZM633.4 246.4M633.4 240.4M624.2 246.4L642.5 246.4M624.2 240.4L642.5 240.4M624.2 245.6L642.5 245.6" fill="#fff" stroke="#3FB1E3" ecmeta_series_index="0" ecmeta_data_index="19" ecmeta_ssr_type="chart" class="zr1-cls-3"></path>
<path d="M649.6 238L667.9 238L667.9 229.1L649.6 229.1ZM658.8 244.1L658.8 238M658.8 225.5L658.8 229.1M649.6 244.1L667.9 244.1M649.6 225.5L667.9 225.5M649.6 231.5L667.9 231.5" fill="#fff" stroke="#3FB1E3" ecmeta_series_index="0" ecmeta_data_index="20" ecmeta_ssr_type="chart" class="zr1-cls-3"></path>
<path d="M675 222.3L693.3 222.3L693.3 213.1L675 213.1ZM684.2 222.3M684.2 213.1M675 222.3L693.3 222.3M675 213.1L693.3 213.1M675 219.7L693.3 219.7" fill="#fff" stroke="#3FB1E3" ecmeta_series_index="0" ecmeta_data_index="21" ecmeta_ssr_type="chart" class="zr1-cls-3"></path>
<path d="M700.4 219L718.7 219L718.7 211.3L700.4 211.3ZM709.6 223.6L709.6 219M709.6 209.5L709.6 211.3M700.4 223.6L718.7 223.6M700.4 209.5L718.7 209.5M700.4 213.4L718.7 213.4" fill="#fff" stroke="#3FB1E3" ecmeta_series_index="0" ecmeta_data_index="22" ecmeta_ssr_type="chart" class="zr1-cls-3"></path>
<path d="M725.8 192.6L744.1 192.6L744.1 181L725.8 181ZM735 193.7L735 192.6M735 180.4L735 181M725.8 193.7L744.1 193.7M725.8 180.4L744.1 180.4M725.8 191.5L744.1 191.5" fill="#fff" stroke="#3FB1E3" ecmeta_series_index="0" ecmeta_data_index="23" ecmeta_ssr_type="chart" class="zr1-cls-3"></path>
<path d="M751.2 182.5L769.5 182.5L769.5 178L751.2 178ZM760.3 187.9L760.3 182.5M760.3 178M751.2 187.9L769.5 187.9M751.2 178L769.5 178M751.2 182.2L769.5 182.2" fill="#fff" stroke="#3FB1E3" ecmeta_series_index="0" ecmeta_data_index="24" ecmeta_ssr_type="chart" class="zr1-cls-3"></path>
<path d="M776.6 178L794.9 178L794.9 175.5L776.6 175.5ZM785.7 178.1L785.7 178M785.7 172.8L785.7 175.5M776.6 178.1L794.9 178.1M776.6 172.8L794.9 172.8M776.6 177.7L794.9 177.7" fill="#fff" stroke="#3FB1E3" ecmeta_series_index="0" ecmeta_data_index="25" ecmeta_ssr_type="chart" class="zr1-cls-3"></path>
<path d="M802 173.9L820.3 173.9L820.3 158L802 158ZM811.1 175.9L811.1 173.9M811.1 147.1L811.1 158M802 175.9L820.3 175.9M802 147.1L820.3 147.1M802 170.8L820.3 170.8" fill="#fff" stroke="#3FB1E3" ecmeta_series_index="0" ecmeta_data_index="26" ecmeta_ssr_type="chart" class="zr1-cls-3"></path>
<path d="M827.4 164.1L845.7 164.1L845.7 154.1L827.4 154.1ZM836.5 169.4L836.5 164.1M836.5 148.3L836.5 154.1M827.4 169.4L845.7 169.4M827.4 148.3L845.7 148.3M827.4 161.8L845.7 161.8" fill="#fff" stroke="#3FB1E3" ecmeta_series_index="0" ecmeta_data_index="27" ecmeta_ssr_type="chart" class="zr1-cls-3"></path>
<path d="M852.8 152.8L871.1 152.8L871.1 146.9L852.8 146.9ZM861.9 156L861.9 152.8M861.9 143.8L861.9 146.9M852.8 156L871.1 156M852.8 143.8L871.1 143.8M852.8 152.7L871.1 152.7" fill="#fff" stroke="#3FB1E3" ecmeta_series_index="0" ecmeta_data_index="28" ecmeta_ssr_type="chart" class="zr1-cls-3"></path>
<path d="M878.1 157.9L896.5 157.9L896.5 150.6L878.1 150.6ZM887.3 159L887.3 157.9M887.3 150.6M878.1 159L896.5 159M878.1 150.6L896.5 150.6M878.1 155.5L896.5 155.5" fill="#fff" stroke="#3FB1E3" ecmeta_series_index="0" ecmeta_data_index="29" ecmeta_ssr_type="chart" class="zr1-cls-3"></path>
<path d="M1 0A1 1 0 1 1 1 -0.1A1 1 0 0 1 1 0" transform="matrix(5,0,0,5,150.936,795.2809)" fill="#3fb1e3" fill-opacity="0.8" stroke="#ccc" stroke-width="0" stroke-opacity="0.8" ecmeta_series_index="1" ecmeta_data_index="0" ecmeta_ssr_type="chart" class="zr1-cls-4"></path>
<path d="M1 0A1 1 0 1 1 1 -0.1A1 1 0 0 1 1 0" transform="matrix(5,0,0,5,176.328,719.5341)" fill="#3fb1e3" fill-opacity="0.8" stroke="#ccc" stroke-width="0" stroke-opacity="0.8" ecmeta_series_index="1" ecmeta_data_index="1" ecmeta_ssr_type="chart" class="zr1-cls-4"></path>
<path d="M1 0A1 1 0 1 1 1 -0.1A1 1 0 0 1 1 0" transform="matrix(5,0,0,5,176.328,680.468)" fill="#3fb1e3" fill-opacity="0.8" stroke="#ccc" stroke-width="0" stroke-opacity="0.8" ecmeta_series_index="1" ecmeta_data_index="2" ecmeta_ssr_type="chart" class="zr1-cls-4"></path>
<path d="M1 0A1 1 0 1 1 1 -0.1A1 1 0 0 1 1 0" transform="matrix(5,0,0,5,201.72,661.5193)" fill="#3fb1e3" fill-opacity="0.8" stroke="#ccc" stroke-width="0" stroke-opacity="0.8" ecmeta_series_index="1" ecmeta_data_index="3" ecmeta_ssr_type="chart" class="zr1-cls-4"></path>
<path d="M1 0A1 1 0 1 1 1 -0.1A1 1 0 0 1 1 0" transform="matrix(5,0,0,5,227.112,666.4673)" fill="#3fb1e3" fill-opacity="0.8" stroke="#ccc" stroke-width="0" stroke-opacity="0.8" ecmeta_series_index="1" ecmeta_data_index="4" ecmeta_ssr_type="chart" class="zr1-cls-4"></path>
<path d="M1 0A1 1 0 1 1 1 -0.1A1 1 0 0 1 1 0" transform="matrix(5,0,0,5,354.072,455.5878)" fill="#3fb1e3" fill-opacity="0.8" stroke="#ccc" stroke-width="0" stroke-opacity="0.8" ecmeta_series_index="1" ecmeta_data_index="5" ecmeta_ssr_type="chart" class="zr1-cls-4"></path>
<path d="M1 0A1 1 0 1 1 1 -0.1A1 1 0 0 1 1 0" transform="matrix(5,0,0,5,354.072,446.155)" fill="#3fb1e3" fill-opacity="0.8" stroke="#ccc" stroke-width="0" stroke-opacity="0.8" ecmeta_series_index="1" ecmeta_data_index="6" ecmeta_ssr_type="chart" class="zr1-cls-4"></path>
<path d="M1 0A1 1 0 1 1 1 -0.1A1 1 0 0 1 1 0" transform="matrix(5,0,0,5,379.464,412.1922)" fill="#3fb1e3" fill-opacity="0.8" stroke="#ccc" stroke-width="0" stroke-opacity="0.8" ecmeta_series_index="1" ecmeta_data_index="7" ecmeta_ssr_type="chart" class="zr1-cls-4"></path>
<path d="M1 0A1 1 0 1 1 1 -0.1A1 1 0 0 1 1 0" transform="matrix(5,0,0,5,404.856,401.474)" fill="#3fb1e3" fill-opacity="0.8" stroke="#ccc" stroke-width="0" stroke-opacity="0.8" ecmeta_series_index="1" ecmeta_data_index="8" ecmeta_ssr_type="chart" class="zr1-cls-4"></path>
<path d="M1 0A1 1 0 1 1 1 -0.1A1 1 0 0 1 1 0" transform="matrix(5,0,0,5,430.248,364.2863)" fill="#3fb1e3" fill-opacity="0.8" stroke="#ccc" stroke-width="0" stroke-opacity="0.8" ecmeta_series_index="1" ecmeta_data_index="9" ecmeta_ssr_type="chart" class="zr1-cls-4"></path>
<path d="M1 0A1 1 0 1 1 1 -0.1A1 1 0 0 1 1 0" transform="matrix(5,0,0,5,481.032,345.3641)" fill="#3fb1e3" fill-opacity="0.8" stroke="#ccc" stroke-width="0" stroke-opacity="0.8" ecmeta_series_index="1" ecmeta_data_index="10" ecmeta_ssr_type="chart" class="zr1-cls-4"></path>
<path d="M1 0A1 1 0 1 1 1 -0.1A1 1 0 0 1 1 0" transform="matrix(5,0,0,5,506.424,353.2935)" fill="#3fb1e3" fill-opacity="0.8" stroke="#ccc" stroke-width="0" stroke-opacity="0.8" ecmeta_series_index="1" ecmeta_data_index="11" ecmeta_ssr_type="chart" class="zr1-cls-4"></path>
<path d="M1 0A1 1 0 1 1 1 -0.1A1 1 0 0 1 1 0" transform="matrix(5,0,0,5,506.424,341.918)" fill="#3fb1e3" fill-opacity="0.8" stroke="#ccc" stroke-width="0" stroke-opacity="0.8" ecmeta_series_index="1" ecmeta_data_index="12" ecmeta_ssr_type="chart" class="zr1-cls-4"></path>
<path d="M1 0A1 1 0 1 1 1 -0.1A1 1 0 0 1 1 0" transform="matrix(5,0,0,5,607.992,315.14)" fill="#3fb1e3" fill-opacity="0.8" stroke="#ccc" stroke-width="0" stroke-opacity="0.8" ecmeta_series_index="1" ecmeta_data_index="13" ecmeta_ssr_type="chart" class="zr1-cls-4"></path>
<path d="M1 0A1 1 0 1 1 1 -0.1A1 1 0 0 1 1 0" transform="matrix(5,0,0,5,633.384,314.7857)" fill="#3fb1e3" fill-opacity="0.8" stroke="#ccc" stroke-width="0" stroke-opacity="0.8" ecmeta_series_index="1" ecmeta_data_index="14" ecmeta_ssr_type="chart" class="zr1-cls-4"></path>
<path d="M1 0A1 1 0 1 1 1 -0.1A1 1 0 0 1 1 0" transform="matrix(5,0,0,5,633.384,218.9276)" fill="#3fb1e3" fill-opacity="0.8" stroke="#ccc" stroke-width="0" stroke-opacity="0.8" ecmeta_series_index="1" ecmeta_data_index="15" ecmeta_ssr_type="chart" class="zr1-cls-4"></path>
<path d="M1 0A1 1 0 1 1 1 -0.1A1 1 0 0 1 1 0" transform="matrix(5,0,0,5,684.168,246.9484)" fill="#3fb1e3" fill-opacity="0.8" stroke="#ccc" stroke-width="0" stroke-opacity="0.8" ecmeta_series_index="1" ecmeta_data_index="16" ecmeta_ssr_type="chart" class="zr1-cls-4"></path>
<path d="M1 0A1 1 0 1 1 1 -0.1A1 1 0 0 1 1 0" transform="matrix(5,0,0,5,684.168,188.4456)" fill="#3fb1e3" fill-opacity="0.8" stroke="#ccc" stroke-width="0" stroke-opacity="0.8" ecmeta_series_index="1" ecmeta_data_index="17" ecmeta_ssr_type="chart" class="zr1-cls-4"></path>
<path d="M1 0A1 1 0 1 1 1 -0.1A1 1 0 0 1 1 0" transform="matrix(5,0,0,5,760.344,160.5274)" fill="#3fb1e3" fill-opacity="0.8" stroke="#ccc" stroke-width="0" stroke-opacity="0.8" ecmeta_series_index="1" ecmeta_data_index="18" ecmeta_ssr_type="chart" class="zr1-cls-4"></path>
<path d="M1 0A1 1 0 1 1 1 -0.1A1 1 0 0 1 1 0" transform="matrix(5,0,0,5,887.304,112.8966)" fill="#3fb1e3" fill-opacity="0.8" stroke="#ccc" stroke-width="0" stroke-opacity="0.8" ecmeta_series_index="1" ecmeta_data_index="19" ecmeta_ssr_type="chart" class="zr1-cls-4"></path>
<path d="M-194.5 -5l389.1 0l0 28l-389.1 0Z" transform="translate(500 5)" fill="rgb(0,0,0)" fill-opacity="0" stroke="#ccc" stroke-width="0" class="zr1-cls-2"></path>
<text dominant-baseline="central" text-anchor="middle" style="font-size:18px;font-family:sans-serif;font-weight:bold;" xml:space="preserve" y="9" transform="translate(500 5)" fill="#666666">Benchmark Results - Effective UPS Distribution</text>
<style ><![CDATA[
.zr1-cls-2:hover {
pointer-events:none;
}
.zr1-cls-3:hover {
cursor:pointer;
fill:rgba(255,255,255,1);
stroke-width:2;
}
.zr1-cls-4:hover {
cursor:pointer;
fill:rgba(69,194,249,1);
}

]]>

</style>
</svg>