<svg width="1000" height="1000" xmlns="http://www.w3.org/2000/svg" xmlns:xlink="http://www.w3.org/1999/xlink" version="1.1" baseProfile="full" viewBox="0 0 1000 1000">
<rect width="1000" height="1000" x="0" y="0" fill="rgb(252,252,252)" fill-opacity="0"></rect>
<path d="M168.6 950.5L960 950.5" fill="transparent" stroke="#eeeeee" class="zr0-cls-0"></path>
<path d="M168.6 920.5L960 920.5" fill="transparent" stroke="#eeeeee" class="zr0-cls-0"></path>
<path d="M168.6 890.5L960 890.5" fill="transparent" stroke="#eeeeee" class="zr0-cls-0"></path>
<path d="M168.6 861.5L960 861.5" fill="transparent" stroke="#eeeeee" class="zr0-cls-0"></path>
<path d="M168.6 831.5L960 831.5" fill="transparent" stroke="#eeeeee" class="zr0-cls-0"></path>
<path d="M168.6 801.5L960 801.5" fill="transparent" stroke="#eeeeee" class="zr0-cls-0"></path>
<path d="M168.6 772.5L960 772.5" fill="transparent" stroke="#eeeeee" class="zr0-cls-0"></path>
<path d="M168.6 742.5L960 742.5" fill="transparent" stroke="#eeeeee" class="zr0-cls-0"></path>
<path d="M168.6 712.5L960 712.5" fill="transparent" stroke="#eeeeee" class="zr0-cls-0"></path>
<path d="M168.6 683.5L960 683.5" fill="transparent" stroke="#eeeeee" class="zr0-cls-0"></path>
<path d="M168.6 653.5L960 653.5" fill="transparent" stroke="#eeeeee" class="zr0-cls-0"></path>
<path d="M168.6 623.5L960 623.5" fill="transparent" stroke="#eeeeee" class="zr0-cls-0"></path>
<path d="M168.6 594.5L960 594.5" fill="transparent" stroke="#eeeeee" class="zr0-cls-0"></path>
<path d="M168.6 564.5L960 564.5" fill="transparent" stroke="#eeeeee" class="zr0-cls-0"></path>
<path d="M168.6 534.5L960 534.5" fill="transparent" stroke="#eeeeee" class="zr0-cls-0"></path>
<path d="M168.6 505.5L960 505.5" fill="transparent" stroke="#eeeeee" class="zr0-cls-0"></path>
<path d="M168.6 475.5L960 475.5" fill="transparent" stroke="#eeeeee" class="zr0-cls-0"></path>
<path d="M168.6 445.5L960 445.5" fill="transparent" stroke="#eeeeee" class="zr0-cls-0"></path>
<path d="M168.6 416.5L960 416.5" fill="transparent" stroke="#eeeeee" class="zr0-cls-0"></path>
<path d="M168.6 386.5L960 386.5" fill="transparent" stroke="#eeeeee" class="zr0-cls-0"></path>
<path d="M168.6 356.5L960 356.5" fill="transparent" stroke="#eeeeee" class="zr0-cls-0"></path>
<path d="M168.6 327.5L960 327.5" fill="transparent" stroke="#eeeeee" class="zr0-cls-0"></path>
<path d="M168.6 297.5L960 297.5" fill="transparent" stroke="#eeeeee" class="zr0-cls-0"></path>
<path d="M168.6 267.5L960 267.5" fill="transparent" stroke="#eeeeee" class="zr0-cls-0"></path>
<path d="M168.6 238.5L960 238.5" fill="transparent" stroke="#eeeeee" class="zr0-cls-0"></path>
<path d="M168.6 208.5L960 208.5" fill="transparent" stroke="#eeeeee" class="zr0-cls-0"></path>
<path d="M168.6 178.5L960 178.5" fill="transparent" stroke="#eeeeee" class="zr0-cls-0"></path>
<path d="M168.6 149.5L960 149.5" fill="transparent" stroke="#eeeeee" class="zr0-cls-0"></path>
<path d="M168.6 119.5L960 119.5" fill="transparent" stroke="#eeeeee" class="zr0-cls-0"></path>
<path d="M168.6 89.5L960 89.5" fill="transparent" stroke="#eeeeee" class="zr0-cls-0"></path>
<path d="M168.6 60.5L960 60.5" fill="transparent" stroke="#eeeeee" class="zr0-cls-0"></path>
<path d="M168.5 950L168.5 60" fill="transparent" stroke="#cccccc" stroke-linecap="round" class="zr0-cls-0"></path>
<path d="M168.6 950.5L960 950.5" fill="transparent" stroke="#cccccc" stroke-linecap="round" class="zr0-cls-0"></path>
<text dominant-baseline="central" text-anchor="end" style="font-size:12px;font-family:sans-serif;" transform="translate(160.56 935.1667)" fill="#999999">03_swiftdeath007</text>
<text dominant-baseline="central" text-anchor="end" style="font-size:12px;font-family:sans-serif;" transform="translate(160.56 905.5)" fill="#999999">31_minebuilder</text>
<text dominant-baseline="central" text-anchor="end" style="font-size:12px;font-family:sans-serif;" transform="translate(160.56 875.8333)" fill="#999999">16_yuu_with_ships</text>
<text dominant-baseline="central" text-anchor="end" style="font-size:12px;font-family:sans-serif;" transform="translate(160.56 846.1667)" fill="#999999">15_yuu</text>
<text dominant-baseline="central" text-anchor="end" style="font-size:12px;font-family:sans-serif;" transform="translate(160.56 816.5)" fill="#999999">19_werezwolf</text>
<text dominant-baseline="central" text-anchor="end" style="font-size:12px;font-family:sans-serif;" transform="translate(160.56 786.8333)" fill="#999999">20_toda1</text>
<text dominant-baseline="central" text-anchor="end" style="font-size:12px;font-family:sans-serif;" transform="translate(160.56 757.1667)" fill="#999999">04_swiftdeath007</text>
<text dominant-baseline="central" text-anchor="end" style="font-size:12px;font-family:sans-serif;" transform="translate(160.56 727.5)" fill="#999999">00_baseline_with_ships</text>
<text dominant-baseline="central" text-anchor="end" style="font-size:12px;font-family:sans-serif;" transform="translate(160.56 697.8333)" fill="#999999">00_baseline</text>
<text dominant-baseline="central" text-anchor="end" style="font-size:12px;font-family:sans-serif;" transform="translate(160.56 668.1667)" fill="#999999">34_osboz</text>
<text dominant-baseline="central" text-anchor="end" style="font-size:12px;font-family:sans-serif;" transform="translate(160.56 638.5)" fill="#999999">11_theflyingcurryfish154</text>
<text dominant-baseline="central" text-anchor="end" style="font-size:12px;font-family:sans-serif;" transform="translate(160.56 608.8333)" fill="#999999">16_yuu</text>
<text dominant-baseline="central" text-anchor="end" style="font-size:12px;font-family:sans-serif;" transform="translate(160.56 579.1667)" fill="#999999">22_mcmayhem57</text>
<text dominant-baseline="central" text-anchor="end" style="font-size:12px;font-family:sans-serif;" transform="translate(160.56 549.5)" fill="#999999">05_derantrix</text>
<text dominant-baseline="central" text-anchor="end" style="font-size:12px;font-family:sans-serif;" transform="translate(160.56 519.8333)" fill="#999999">23_mcmayhem57</text>
<text dominant-baseline="central" text-anchor="end" style="font-size:12px;font-family:sans-serif;" transform="translate(160.56 490.1667)" fill="#999999">06_imp</text>
<text dominant-baseline="central" text-anchor="end" style="font-size:12px;font-family:sans-serif;" transform="translate(160.56 460.5)" fill="#999999">29_geist</text>
<text dominant-baseline="central" text-anchor="end" style="font-size:12px;font-family:sans-serif;" transform="translate(160.56 430.8333)" fill="#999999">30_reja</text>
<text dominant-baseline="central" text-anchor="end" style="font-size:12px;font-family:sans-serif;" transform="translate(160.56 401.1667)" fill="#999999">32_reja</text>
<text dominant-baseline="central" text-anchor="end" style="font-size:12px;font-family:sans-serif;" transform="translate(160.56 371.5)" fill="#999999">26_mrcooki4</text>
<text dominant-baseline="central" text-anchor="end" style="font-size:12px;font-family:sans-serif;" transform="translate(160.56 341.8333)" fill="#999999">09_jobo</text>
<text dominant-baseline="central" text-anchor="end" style="font-size:12px;font-family:sans-serif;" transform="translate(160.56 312.1667)" fill="#999999">01_undertow</text>
<text dominant-baseline="central" text-anchor="end" style="font-size:12px;font-family:sans-serif;" transform="translate(160.56 282.5)" fill="#999999">13_phlap</text>
<text dominant-baseline="central" text-anchor="end" style="font-size:12px;font-family:sans-serif;" transform="translate(160.56 252.8333)" fill="#999999">27_geist</text>
<text dominant-baseline="central" text-anchor="end" style="font-size:12px;font-family:sans-serif;" transform="translate(160.56 223.1667)" fill="#999999">28_geist</text>
<text dominant-baseline="central" text-anchor="end" style="font-size:12px;font-family:sans-serif;" transform="translate(160.56 193.5)" fill="#999999">35_henryjk</text>
<text dominant-baseline="central" text-anchor="end" style="font-size:12px;font-family:sans-serif;" transform="translate(160.56 163.8333)" fill="#999999">08_lady_meyneth</text>
<text dominant-baseline="central" text-anchor="end" style="font-size:12px;font-family:sans-serif;" transform="translate(160.56 134.1667)" fill="#999999">14_abucnasty</text>
<text dominant-baseline="central" text-anchor="end" style="font-size:12px;font-family:sans-serif;" transform="translate(160.56 104.5)" fill="#999999">12_phlap</text>
<text dominant-baseline="central" text-anchor="end" style="font-size:12px;font-family:sans-serif;" transform="translate(160.56 74.8333)" fill="#999999">18_lady_meyneth</text>
<text dominant-baseline="central" text-anchor="middle" style="font-size:12px;font-family:sans-serif;" y="6" transform="translate(168.56 958)" fill="#999999">0</text>
<text dominant-baseline="central" text-anchor="middle" style="font-size:12px;font-family:sans-serif;" y="6" transform="translate(326.848 958)" fill="#999999">200</text>
<text dominant-baseline="central" text-anchor="middle" style="font-size:12px;font-family:sans-serif;" y="6" transform="translate(485.136 958)" fill="#999999">400</text>
<text dominant-baseline="central" text-anchor="middle" style="font-size:12px;font-family:sans-serif;" y="6" transform="translate(643.424 958)" fill="#999999">600</text>
<text dominant-baseline="central" text-anchor="middle" style="font-size:12px;font-family:sans-serif;" y="6" transform="translate(801.712 958)" fill="#999999">800</text>
<text dominant-baseline="central" text-anchor="middle" style="font-size:12px;font-family:sans-serif;" y="6" transform="translate(960 958)" fill="#999999">1,000</text>
<path d="M168.6 924.9l235.8 0l0 20.5l-235.8 0Z" fill="#3fb1e3" ecmeta_series_index="0" ecmeta_data_index="0" ecmeta_ssr_type="chart" class="zr0-cls-1"></path>
<path d="M168.6 895.3l305.5 0l0 20.5l-305.5 0Z" fill="#3fb1e3" ecmeta_series_index="0" ecmeta_data_index="1" ecmeta_ssr_type="chart" class="zr0-cls-1"></path>
<path d="M168.6 865.6l338.7 0l0 20.5l-338.7 0Z" fill="#3fb1e3" ecmeta_series_index="0" ecmeta_data_index="2" ecmeta_ssr_type="chart" class="zr0-cls-1"></path>
<path d="M168.6 835.9l342.7 0l0 20.5l-342.7 0Z" fill="#3fb1e3" ecmeta_series_index="0" ecmeta_data_index="3" ecmeta_ssr_type="chart" class="zr0-cls-1"></path>
<path d="M168.6 806.3l379.9 0l0 20.5l-379.9 0Z" fill="#3fb1e3" ecmeta_series_index="0" ecmeta_data_index="4" ecmeta_ssr_type="chart" class="zr0-cls-1"></path>
<path d="M168.6 776.6l407.6 0l0 20.5l-407.6 0Z" fill="#3fb1e3" ecmeta_series_index="0" ecmeta_data_index="5" ecmeta_ssr_type="chart" class="zr0-cls-1"></path>
<path d="M168.6 746.9l444.8 0l0 20.5l-444.8 0Z" fill="#3fb1e3" ecmeta_series_index="0" ecmeta_data_index="6" ecmeta_ssr_type="chart" class="zr0-cls-1"></path>
<path d="M168.6 717.3l461.4 0l0 20.5l-461.4 0Z" fill="#3fb1e3" ecmeta_series_index="0" ecmeta_data_index="7" ecmeta_ssr_type="chart" class="zr0-cls-1"></path>
<path d="M168.6 687.6l465.4 0l0 20.5l-465.4 0Z" fill="#3fb1e3" ecmeta_series_index="0" ecmeta_data_index="8" ecmeta_ssr_type="chart" class="zr0-cls-1"></path>
<path d="M168.6 657.9l486.7 0l0 20.5l-486.7 0Z" fill="#3fb1e3" ecmeta_series_index="0" ecmeta_data_index="9" ecmeta_ssr_type="chart" class="zr0-cls-1"></path>
<path d="M168.6 628.3l489.1 0l0 20.5l-489.1 0Z" fill="#3fb1e3" ecmeta_series_index="0" ecmeta_data_index="10" ecmeta_ssr_type="chart" class="zr0-cls-1"></path>
<path d="M168.6 598.6l512.1 0l0 20.5l-512.1 0Z" fill="#3fb1e3" ecmeta_series_index="0" ecmeta_data_index="11" ecmeta_ssr_type="chart" class="zr0-cls-1"></path>
<path d="M168.6 568.9l526.3 0l0 20.5l-526.3 0Z" fill="#3fb1e3" ecmeta_series_index="0" ecmeta_data_index="12" ecmeta_ssr_type="chart" class="zr0-cls-1"></path>
<path d="M168.6 539.3l530.3 0l0 20.5l-530.3 0Z" fill="#3fb1e3" ecmeta_series_index="0" ecmeta_data_index="13" ecmeta_ssr_type="chart" class="zr0-cls-1"></path>
<path d="M168.6 509.6l531.8 0l0 20.5l-531.8 0Z" fill="#3fb1e3" ecmeta_series_index="0" ecmeta_data_index="14" ecmeta_ssr_type="chart" class="zr0-cls-1"></path>
<path d="M168.6 479.9l546.1 0l0 20.5l-546.1 0Z" fill="#3fb1e3" ecmeta_series_index="0" ecmeta_data_index="15" ecmeta_ssr_type="chart" class="zr0-cls-1"></path>
<path d="M168.6 450.3l561.9 0l0 20.5l-561.9 0Z" fill="#3fb1e3" ecmeta_series_index="0" ecmeta_data_index="16" ecmeta_ssr_type="chart" class="zr0-cls-1"></path>
<path d="M168.6 420.6l562.7 0l0 20.5l-562.7 0Z" fill="#3fb1e3" ecmeta_series_index="0" ecmeta_data_index="17" ecmeta_ssr_type="chart" class="zr0-cls-1"></path>
<path d="M168.6 390.9l577 0l0 20.5l-577 0Z" fill="#3fb1e3" ecmeta_series_index="0" ecmeta_data_index="18" ecmeta_ssr_type="chart" class="zr0-cls-1"></path>
<path d="M168.6 361.3l595.2 0l0 20.5l-595.2 0Z" fill="#3fb1e3" ecmeta_series_index="0" ecmeta_data_index="19" ecmeta_ssr_type="chart" class="zr0-cls-1"></path>
<path d="M168.6 331.6l607.8 0l0 20.5l-607.8 0Z" fill="#3fb1e3" ecmeta_series_index="0" ecmeta_data_index="20" ecmeta_ssr_type="chart" class="zr0-cls-1"></path>
<path d="M168.6 301.9l618.1 0l0 20.5l-618.1 0Z" fill="#3fb1e3" ecmeta_series_index="0" ecmeta_data_index="21" ecmeta_ssr_type="chart" class="zr0-cls-1"></path>
<path d="M168.6 272.3l619.7 0l0 20.5l-619.7 0Z" fill="#3fb1e3" ecmeta_series_index="0" ecmeta_data_index="22" ecmeta_ssr_type="chart" class="zr0-cls-1"></path>
<path d="M168.6 242.6l637.9 0l0 20.5l-637.9 0Z" fill="#3fb1e3" ecmeta_series_index="0" ecmeta_data_index="23" ecmeta_ssr_type="chart" class="zr0-cls-1"></path>
<path d="M168.6 212.9l644.2 0l0 20.5l-644.2 0Z" fill="#3fb1e3" ecmeta_series_index="0" ecmeta_data_index="24" ecmeta_ssr_type="chart" class="zr0-cls-1"></path>
<path d="M168.6 183.3l645.8 0l0 20.5l-645.8 0Z" fill="#3fb1e3" ecmeta_series_index="0" ecmeta_data_index="25" ecmeta_ssr_type="chart" class="zr0-cls-1"></path>
<path d="M168.6 153.6l652.9 0l0 20.5l-652.9 0Z" fill="#3fb1e3" ecmeta_series_index="0" ecmeta_data_index="26" ecmeta_ssr_type="chart" class="zr0-cls-1"></path>
<path d="M168.6 123.9l656.9 0l0 20.5l-656.9 0Z" fill="#3fb1e3" ecmeta_series_index="0" ecmeta_data_index="27" ecmeta_ssr_type="chart" class="zr0-cls-1"></path>
<path d="M168.6 94.3l663.2 0l0 20.5l-663.2 0Z" fill="#3fb1e3" ecmeta_series_index="0" ecmeta_data_index="28" ecmeta_ssr_type="chart" class="zr0-cls-1"></path>
<path d="M168.6 64.6l664.8 0l0 20.5l-664.8 0Z" fill="#3fb1e3" ecmeta_series_index="0" ecmeta_data_index="29" ecmeta_ssr_type="chart" class="zr0-cls-1"></path>
<text dominant-baseline="central" text-anchor="middle" style="font-size:12px;font-family:sans-serif;" transform="translate(286.4846 935.1667)" fill="#333">298</text>
<text dominant-baseline="central" text-anchor="middle" style="font-size:12px;font-family:sans-serif;" transform="translate(321.3079 905.5)" fill="#333">386</text>
<text dominant-baseline="central" text-anchor="middle" style="font-size:12px;font-family:sans-serif;" transform="translate(337.9282 875.8333)" fill="#333">428</text>
<text dominant-baseline="central" text-anchor="middle" style="font-size:12px;font-family:sans-serif;" transform="translate(339.9068 846.1667)" fill="#333">433</text>
<text dominant-baseline="central" text-anchor="middle" style="font-size:12px;font-family:sans-serif;" transform="translate(358.5056 816.5)" fill="#333">480</text>
<text dominant-baseline="central" text-anchor="middle" style="font-size:12px;font-family:sans-serif;" transform="translate(372.3558 786.8333)" fill="#333">515</text>
<text dominant-baseline="central" text-anchor="middle" style="font-size:12px;font-family:sans-serif;" transform="translate(390.9546 757.1667)" fill="#333">562</text>
<text dominant-baseline="central" text-anchor="middle" style="font-size:12px;font-family:sans-serif;" transform="translate(399.2648 727.5)" fill="#333">583</text>
<text dominant-baseline="central" text-anchor="middle" style="font-size:12px;font-family:sans-serif;" transform="translate(401.2434 697.8333)" fill="#333">588</text>
<text dominant-baseline="central" text-anchor="middle" style="font-size:12px;font-family:sans-serif;" transform="translate(411.9278 668.1667)" fill="#333">615</text>
<text dominant-baseline="central" text-anchor="middle" style="font-size:12px;font-family:sans-serif;" transform="translate(413.115 638.5)" fill="#333">618</text>
<text dominant-baseline="central" text-anchor="middle" style="font-size:12px;font-family:sans-serif;" transform="translate(424.5908 608.8333)" fill="#333">647</text>
<text dominant-baseline="central" text-anchor="middle" style="font-size:12px;font-family:sans-serif;" transform="translate(431.7138 579.1667)" fill="#333">665</text>
<text dominant-baseline="central" text-anchor="middle" style="font-size:12px;font-family:sans-serif;" transform="translate(433.6924 549.5)" fill="#333">670</text>
<text dominant-baseline="central" text-anchor="middle" style="font-size:12px;font-family:sans-serif;" transform="translate(434.4838 519.8333)" fill="#333">672</text>
<text dominant-baseline="central" text-anchor="middle" style="font-size:12px;font-family:sans-serif;" transform="translate(441.6068 490.1667)" fill="#333">690</text>
<text dominant-baseline="central" text-anchor="middle" style="font-size:12px;font-family:sans-serif;" transform="translate(449.5212 460.5)" fill="#333">710</text>
<text dominant-baseline="central" text-anchor="middle" style="font-size:12px;font-family:sans-serif;" transform="translate(449.9169 430.8333)" fill="#333">711</text>
<text dominant-baseline="central" text-anchor="middle" style="font-size:12px;font-family:sans-serif;" transform="translate(457.0399 401.1667)" fill="#333">729</text>
<text dominant-baseline="central" text-anchor="middle" style="font-size:12px;font-family:sans-serif;" transform="translate(466.1414 371.5)" fill="#333">752</text>
<text dominant-baseline="central" text-anchor="middle" style="font-size:12px;font-family:sans-serif;" transform="translate(472.473 341.8333)" fill="#333">768</text>
<text dominant-baseline="central" text-anchor="middle" style="font-size:12px;font-family:sans-serif;" transform="translate(477.6173 312.1667)" fill="#333">781</text>
<text dominant-baseline="central" text-anchor="middle" style="font-size:12px;font-family:sans-serif;" transform="translate(478.4088 282.5)" fill="#333">783</text>
<text dominant-baseline="central" text-anchor="middle" style="font-size:12px;font-family:sans-serif;" transform="translate(487.5103 252.8333)" fill="#333">806</text>
<text dominant-baseline="central" text-anchor="middle" style="font-size:12px;font-family:sans-serif;" transform="translate(490.6761 223.1667)" fill="#333">814</text>
<text dominant-baseline="central" text-anchor="middle" style="font-size:12px;font-family:sans-serif;" transform="translate(491.4675 193.5)" fill="#333">816</text>
<text dominant-baseline="central" text-anchor="middle" style="font-size:12px;font-family:sans-serif;" transform="translate(495.029 163.8333)" fill="#333">825</text>
<text dominant-baseline="central" text-anchor="middle" style="font-size:12px;font-family:sans-serif;" transform="translate(497.0076 134.1667)" fill="#333">830</text>
<text dominant-baseline="central" text-anchor="middle" style="font-size:12px;font-family:sans-serif;" transform="translate(500.1734 104.5)" fill="#333">838</text>
<text dominant-baseline="central" text-anchor="middle" style="font-size:12px;font-family:sans-serif;" transform="translate(500.9648 74.8333)" fill="#333">840</text>
<path d="M-183.1 -5l366.2 0l0 28l-366.2 0Z" transform="translate(500 5)" fill="rgb(0,0,0)" fill-opacity="0" stroke="#ccc" stroke-width="0" class="zr0-cls-0"></path>
<text dominant-baseline="central" text-anchor="middle" style="font-size:18px;font-family:sans-serif;font-weight:bold;" xml:space="preserve" y="9" transform="translate(500 5)" fill="#666666">Benchmark Results - Average Effective UPS</text>
<style ><![CDATA[
.zr0-cls-0:hover {
pointer-events:none;
}
.zr0-cls-1:hover {
cursor:pointer;
fill:rgba(69,194,249,1);
}

]]>

</style>
</svg>