<svg width="1000" height="1000" xmlns="http://www.w3.org/2000/svg" xmlns:xlink="http://www.w3.org/1999/xlink" version="1.1" baseProfile="full" viewBox="0 0 1000 1000">
<rect width="1000" height="1000" x="0" y="0" fill="rgb(252,252,252)" fill-opacity="0"></rect>
<path d="M138.5 60L138.5 746.5" fill="transparent" stroke="#eeeeee" class="zr1-cls-2"></path>
<path d="M328.5 60L328.5 746.5" fill="transparent" stroke="#eeeeee" class="zr1-cls-2"></path>
<path d="M519.5 60L519.5 746.5" fill="transparent" stroke="#eeeeee" class="zr1-cls-2"></path>
<path d="M709.5 60L709.5 746.5" fill="transparent" stroke="#eeeeee" class="zr1-cls-2"></path>
<path d="M900.5 60L900.5 746.5" fill="transparent" stroke="#eeeeee" class="zr1-cls-2"></path>
<path d="M138.5 746.5L138.5 60" fill="transparent" stroke="#cccccc" stroke-linecap="round" class="zr1-cls-2"></path>
<text dominant-baseline="central" text-anchor="middle" style="font-size:12px;font-family:sans-serif;" y="-6" transform="translate(138.24 45)" fill="#cccccc">UPS</text>
<path d="M138.2 746.5L900 746.5" fill="transparent" stroke="#cccccc" stroke-linecap="round" class="zr1-cls-2"></path>
<text dominant-baseline="central" text-anchor="end" style="font-size:12px;font-family:sans-serif;" transform="translate(130.24 746.5307)" fill="#999999">304</text>
<text dominant-baseline="central" text-anchor="end" style="font-size:12px;font-family:sans-serif;" transform="translate(130.24 609.2246)" fill="#999999">354.4</text>
<text dominant-baseline="central" text-anchor="end" style="font-size:12px;font-family:sans-serif;" transform="translate(130.24 471.9184)" fill="#999999">404.8</text>
<text dominant-baseline="central" text-anchor="end" style="font-size:12px;font-family:sans-serif;" transform="translate(130.24 334.6123)" fill="#999999">455.2</text>
<text dominant-baseline="central" text-anchor="end" style="font-size:12px;font-family:sans-serif;" transform="translate(130.24 197.3061)" fill="#999999">505.6</text>
<text dominant-baseline="central" text-anchor="end" style="font-size:12px;font-family:sans-serif;" transform="translate(130.24 60)" fill="#999999">556</text>
<text dominant-baseline="central" text-anchor="end" style="font-size:12px;font-family:sans-serif;" transform="matrix(0.707,-0.707,0.707,0.707,233.46,754.5307)" fill="#999999">uncommon-recycler-480</text>
<text dominant-baseline="central" text-anchor="end" style="font-size:12px;font-family:sans-serif;" transform="matrix(0.707,-0.707,0.707,0.707,423.9,754.5307)" fill="#999999">uncommon-recycler-480-clocked</text>
<text dominant-baseline="central" text-anchor="end" style="font-size:12px;font-family:sans-serif;" transform="matrix(0.707,-0.707,0.707,0.707,614.34,754.5307)" fill="#999999">uncommon-landfill-miner</text>
<text dominant-baseline="central" text-anchor="end" style="font-size:12px;font-family:sans-serif;" transform="matrix(0.707,-0.707,0.707,0.707,804.78,754.5307)" fill="#999999">uncommon-landfill-miner-reduced-inserters</text>
<path d="M208.5 690.9L258.5 690.9L258.5 672.7L208.5 672.7ZM233.5 692.9L233.5 690.9M233.5 671.1L233.5 672.7M208.5 692.9L258.5 692.9M208.5 671.1L258.5 671.1M208.5 677.2L258.5 677.2" fill="#fff" stroke="#3FB1E3" ecmeta_series_index="0" ecmeta_data_index="0" ecmeta_ssr_type="chart" class="zr1-cls-3"></path>
<path d="M398.9 685.2L448.9 685.2L448.9 649L398.9 649ZM423.9 701.6L423.9 685.2M423.9 647L423.9 649M398.9 701.6L448.9 701.6M398.9 647L448.9 647M398.9 652.3L448.9 652.3" fill="#fff" stroke="#3FB1E3" ecmeta_series_index="0" ecmeta_data_index="1" ecmeta_ssr_type="chart" class="zr1-cls-3"></path>
<path d="M589.3 297.8L639.3 297.8L639.3 257.4L589.3 257.4ZM614.3 307.6L614.3 297.8M614.3 256L614.3 257.4M589.3 307.6L639.3 307.6M589.3 256L639.3 256M589.3 266.3L639.3 266.3" fill="#fff" stroke="#3FB1E3" ecmeta_series_index="0" ecmeta_data_index="2" ecmeta_ssr_type="chart" class="zr1-cls-3"></path>
<path d="M779.8 197.8L829.8 197.8L829.8 152.5L779.8 152.5ZM804.8 236.1L804.8 197.8M804.8 134.4L804.8 152.5M779.8 236.1L829.8 236.1M779.8 134.4L829.8 134.4M779.8 171.4L829.8 171.4" fill="#fff" stroke="#3FB1E3" ecmeta_series_index="0" ecmeta_data_index="3" ecmeta_ssr_type="chart" class="zr1-cls-3"></path>
<path d="M-194.5 -5l389.1 0l0 28l-389.1 0Z" transform="translate(500 5)" fill="rgb(0,0,0)" fill-opacity="0" stroke="#ccc" stroke-width="0" class="zr1-cls-2"></path>
<text dominant-baseline="central" text-anchor="middle" style="font-size:18px;font-family:sans-serif;font-weight:bold;" xml:space="preserve" y="9" transform="translate(500 5)" fill="#666666">Benchmark Results - Effective UPS Distribution</text>
<style ><![CDATA[
.zr1-cls-2:hover {
pointer-events:none;
}
.zr1-cls-3:hover {
cursor:pointer;
fill:rgba(255,255,255,1);
stroke-width:2;
}

]]>

</style>
</svg>