<svg width="2000" height="1000" xmlns="http://www.w3.org/2000/svg" xmlns:xlink="http://www.w3.org/1999/xlink" version="1.1" baseProfile="full" viewBox="0 0 2000 1000">
<rect width="2000" height="1000" x="0" y="0" fill="rgb(252,252,252)" fill-opacity="0"></rect>
<path d="M200 930.5L1800 930.5" fill="transparent" stroke="#eeeeee" class="zr8-cls-24"></path>
<path d="M200 772.5L1800 772.5" fill="transparent" stroke="#eeeeee" class="zr8-cls-24"></path>
<path d="M200 614.5L1800 614.5" fill="transparent" stroke="#eeeeee" class="zr8-cls-24"></path>
<path d="M200 457.5L1800 457.5" fill="transparent" stroke="#eeeeee" class="zr8-cls-24"></path>
<path d="M200 299.5L1800 299.5" fill="transparent" stroke="#eeeeee" class="zr8-cls-24"></path>
<path d="M200 141.5L1800 141.5" fill="transparent" stroke="#eeeeee" class="zr8-cls-24"></path>
<path d="M200 60.5L1800 60.5" fill="transparent" stroke="#eeeeee" class="zr8-cls-24"></path>
<path d="M200.5 930L200.5 60" fill="transparent" stroke="#cccccc" stroke-linecap="round" class="zr8-cls-24"></path>
<text dominant-baseline="central" text-anchor="middle" style="font-size:12px;font-family:sans-serif;" xml:space="preserve" y="-6" transform="translate(200 45)" fill="#cccccc">wholeUpdate Time (ms)</text>
<path d="M200 930.5L1800 930.5" fill="transparent" stroke="#cccccc" stroke-linecap="round" class="zr8-cls-24"></path>
<text dominant-baseline="central" text-anchor="end" style="font-size:12px;font-family:sans-serif;" transform="translate(192 930)" fill="#999999">0.000</text>
<text dominant-baseline="central" text-anchor="end" style="font-size:12px;font-family:sans-serif;" transform="translate(192 772.2886)" fill="#999999">1.000</text>
<text dominant-baseline="central" text-anchor="end" style="font-size:12px;font-family:sans-serif;" transform="translate(192 614.5773)" fill="#999999">2.000</text>
<text dominant-baseline="central" text-anchor="end" style="font-size:12px;font-family:sans-serif;" transform="translate(192 456.8659)" fill="#999999">3.000</text>
<text dominant-baseline="central" text-anchor="end" style="font-size:12px;font-family:sans-serif;" transform="translate(192 299.1546)" fill="#999999">4.000</text>
<text dominant-baseline="central" text-anchor="end" style="font-size:12px;font-family:sans-serif;" transform="translate(192 141.4432)" fill="#999999">5.000</text>
<text dominant-baseline="central" text-anchor="end" style="font-size:12px;font-family:sans-serif;" transform="translate(192 60)" fill="#999999">5.516</text>
<text dominant-baseline="central" text-anchor="middle" style="font-size:12px;font-family:sans-serif;" y="6" transform="translate(200.6667 938)" fill="#999999">0</text>
<text dominant-baseline="central" text-anchor="middle" style="font-size:12px;font-family:sans-serif;" y="6" transform="translate(236.6667 938)" fill="#999999">27</text>
<text dominant-baseline="central" text-anchor="middle" style="font-size:12px;font-family:sans-serif;" y="6" transform="translate(272.6667 938)" fill="#999999">54</text>
<text dominant-baseline="central" text-anchor="middle" style="font-size:12px;font-family:sans-serif;" y="6" transform="translate(308.6667 938)" fill="#999999">81</text>
<text dominant-baseline="central" text-anchor="middle" style="font-size:12px;font-family:sans-serif;" y="6" transform="translate(344.6667 938)" fill="#999999">108</text>
<text dominant-baseline="central" text-anchor="middle" style="font-size:12px;font-family:sans-serif;" y="6" transform="translate(380.6667 938)" fill="#999999">135</text>
<text dominant-baseline="central" text-anchor="middle" style="font-size:12px;font-family:sans-serif;" y="6" transform="translate(416.6667 938)" fill="#999999">162</text>
<text dominant-baseline="central" text-anchor="middle" style="font-size:12px;font-family:sans-serif;" y="6" transform="translate(452.6667 938)" fill="#999999">189</text>
<text dominant-baseline="central" text-anchor="middle" style="font-size:12px;font-family:sans-serif;" y="6" transform="translate(488.6667 938)" fill="#999999">216</text>
<text dominant-baseline="central" text-anchor="middle" style="font-size:12px;font-family:sans-serif;" y="6" transform="translate(524.6667 938)" fill="#999999">243</text>
<text dominant-baseline="central" text-anchor="middle" style="font-size:12px;font-family:sans-serif;" y="6" transform="translate(560.6667 938)" fill="#999999">270</text>
<text dominant-baseline="central" text-anchor="middle" style="font-size:12px;font-family:sans-serif;" y="6" transform="translate(596.6667 938)" fill="#999999">297</text>
<text dominant-baseline="central" text-anchor="middle" style="font-size:12px;font-family:sans-serif;" y="6" transform="translate(632.6667 938)" fill="#999999">324</text>
<text dominant-baseline="central" text-anchor="middle" style="font-size:12px;font-family:sans-serif;" y="6" transform="translate(668.6667 938)" fill="#999999">351</text>
<text dominant-baseline="central" text-anchor="middle" style="font-size:12px;font-family:sans-serif;" y="6" transform="translate(704.6667 938)" fill="#999999">378</text>
<text dominant-baseline="central" text-anchor="middle" style="font-size:12px;font-family:sans-serif;" y="6" transform="translate(740.6667 938)" fill="#999999">405</text>
<text dominant-baseline="central" text-anchor="middle" style="font-size:12px;font-family:sans-serif;" y="6" transform="translate(776.6667 938)" fill="#999999">432</text>
<text dominant-baseline="central" text-anchor="middle" style="font-size:12px;font-family:sans-serif;" y="6" transform="translate(812.6667 938)" fill="#999999">459</text>
<text dominant-baseline="central" text-anchor="middle" style="font-size:12px;font-family:sans-serif;" y="6" transform="translate(848.6667 938)" fill="#999999">486</text>
<text dominant-baseline="central" text-anchor="middle" style="font-size:12px;font-family:sans-serif;" y="6" transform="translate(884.6667 938)" fill="#999999">513</text>
<text dominant-baseline="central" text-anchor="middle" style="font-size:12px;font-family:sans-serif;" y="6" transform="translate(920.6667 938)" fill="#999999">540</text>
<text dominant-baseline="central" text-anchor="middle" style="font-size:12px;font-family:sans-serif;" y="6" transform="translate(956.6667 938)" fill="#999999">567</text>
<text dominant-baseline="central" text-anchor="middle" style="font-size:12px;font-family:sans-serif;" y="6" transform="translate(992.6667 938)" fill="#999999">594</text>
<text dominant-baseline="central" text-anchor="middle" style="font-size:12px;font-family:sans-serif;" y="6" transform="translate(1028.6667 938)" fill="#999999">621</text>
<text dominant-baseline="central" text-anchor="middle" style="font-size:12px;font-family:sans-serif;" y="6" transform="translate(1064.6667 938)" fill="#999999">648</text>
<text dominant-baseline="central" text-anchor="middle" style="font-size:12px;font-family:sans-serif;" y="6" transform="translate(1100.6667 938)" fill="#999999">675</text>
<text dominant-baseline="central" text-anchor="middle" style="font-size:12px;font-family:sans-serif;" y="6" transform="translate(1136.6667 938)" fill="#999999">702</text>
<text dominant-baseline="central" text-anchor="middle" style="font-size:12px;font-family:sans-serif;" y="6" transform="translate(1172.6667 938)" fill="#999999">729</text>
<text dominant-baseline="central" text-anchor="middle" style="font-size:12px;font-family:sans-serif;" y="6" transform="translate(1208.6667 938)" fill="#999999">756</text>
<text dominant-baseline="central" text-anchor="middle" style="font-size:12px;font-family:sans-serif;" y="6" transform="translate(1244.6667 938)" fill="#999999">783</text>
<text dominant-baseline="central" text-anchor="middle" style="font-size:12px;font-family:sans-serif;" y="6" transform="translate(1280.6667 938)" fill="#999999">810</text>
<text dominant-baseline="central" text-anchor="middle" style="font-size:12px;font-family:sans-serif;" y="6" transform="translate(1316.6667 938)" fill="#999999">837</text>
<text dominant-baseline="central" text-anchor="middle" style="font-size:12px;font-family:sans-serif;" y="6" transform="translate(1352.6667 938)" fill="#999999">864</text>
<text dominant-baseline="central" text-anchor="middle" style="font-size:12px;font-family:sans-serif;" y="6" transform="translate(1388.6667 938)" fill="#999999">891</text>
<text dominant-baseline="central" text-anchor="middle" style="font-size:12px;font-family:sans-serif;" y="6" transform="translate(1424.6667 938)" fill="#999999">918</text>
<text dominant-baseline="central" text-anchor="middle" style="font-size:12px;font-family:sans-serif;" y="6" transform="translate(1460.6667 938)" fill="#999999">945</text>
<text dominant-baseline="central" text-anchor="middle" style="font-size:12px;font-family:sans-serif;" y="6" transform="translate(1496.6667 938)" fill="#999999">972</text>
<text dominant-baseline="central" text-anchor="middle" style="font-size:12px;font-family:sans-serif;" y="6" transform="translate(1532.6667 938)" fill="#999999">999</text>
<text dominant-baseline="central" text-anchor="middle" style="font-size:12px;font-family:sans-serif;" y="6" transform="translate(1568.6667 938)" fill="#999999">1026</text>
<text dominant-baseline="central" text-anchor="middle" style="font-size:12px;font-family:sans-serif;" y="6" transform="translate(1604.6667 938)" fill="#999999">1053</text>
<text dominant-baseline="central" text-anchor="middle" style="font-size:12px;font-family:sans-serif;" y="6" transform="translate(1640.6667 938)" fill="#999999">1080</text>
<text dominant-baseline="central" text-anchor="middle" style="font-size:12px;font-family:sans-serif;" y="6" transform="translate(1676.6667 938)" fill="#999999">1107</text>
<text dominant-baseline="central" text-anchor="middle" style="font-size:12px;font-family:sans-serif;" y="6" transform="translate(1712.6667 938)" fill="#999999">1134</text>
<text dominant-baseline="central" text-anchor="middle" style="font-size:12px;font-family:sans-serif;" y="6" transform="translate(1748.6667 938)" fill="#999999">1161</text>
<text dominant-baseline="central" text-anchor="middle" style="font-size:12px;font-family:sans-serif;" y="6" transform="translate(1784.6667 938)" fill="#999999">1188</text>
<g clip-path="url(#zr8-c0)">
<path d="M200.7 306.8L202 681.4L203.3 689.9L204.7 502.1L206 611.7L207.3 570.6L208.7 684.9L210 609.9L211.3 776.2L212.7 705.3L214 782.5L215.3 508.1L216.7 598.4L218 635.3L219.3 668.4L220.7 593.3L222 789.2L223.3 749.7L224.7 786.4L226 510.5L227.3 603.8L228.7 618.2L230 667.6L231.3 637.9L232.7 778.7L234 743.6L235.3 788.9L236.7 503.2L238 590.6L239.3 626.6L240.7 680.2L242 660.2L243.3 781.3L244.7 724L246 741.4L247.3 492.9L248.7 601L250 663.3L251.3 705.5L252.7 647L254 770L255.3 750.2L256.7 792.4L258 520.4L259.3 547.1L260.7 627L262 672L263.3 603.4L264.7 753.4L266 694.5L267.3 781.6L268.7 534.8L270 582.3L271.3 625.2L272.7 684.5L274 643.4L275.3 772.1L276.7 724.2L278 767.2L279.3 457.8L280.7 575.1L282 552.9L283.3 688.7L284.7 618.1L286 773L287.3 726.9L288.7 787.3L290 533.1L291.3 556.6L292.7 665.9L294 688.9L295.3 676L296.7 761.8L298 751.1L299.3 788.7L300.7 528.5L302 616.1L303.3 636.5L304.7 675.6L306 646.4L307.3 791.8L308.7 754.2L310 793.1L311.3 490.7L312.7 525.8L314 680.6L315.3 620.2L316.7 629.9L318 705L319.3 744.9L320.7 731.6L322 525.2L323.3 481.1L324.7 604.5L326 601.5L327.3 609.8L328.7 700.3L330 711.3L331.3 702.6L332.7 502.6L334 528.1L335.3 586.3L336.7 630.9L338 660.1L339.3 727.3L340.7 722.5L342 688.9L343.3 513.5L344.7 533.4L346 610.6L347.3 568.1L348.7 600.1L350 727.4L351.3 730.9L352.7 719.6L354 488.9L355.3 507.7L356.7 650L358 557.7L359.3 649.9L360.7 702L362 759.4L363.3 712.9L364.7 485.8L366 481.8L367.3 636.3L368.7 605.8L370 562.6L371.3 699.5L372.7 756.3L374 725.3L375.3 497.6L376.7 508.4L378 645.6L379.3 652.8L380.7 629.3L382 714.5L383.3 755.1L384.7 734.1L386 536.2L387.3 512.2L388.7 620.8L390 605.7L391.3 638.7L392.7 674.3L394 727.6L395.3 715.3L396.7 510.1L398 522L399.3 608.8L400.7 617.1L402 666.4L403.3 740.9L404.7 758L406 698.9L407.3 521.1L408.7 523.2L410 639.3L411.3 592.9L412.7 639L414 708.4L415.3 762.4L416.7 730.2L418 501.1L419.3 518.3L420.7 670.9L422 631.1L423.3 642.6L424.7 708.5L426 754.8L427.3 729L428.7 527.2L430 495.6L431.3 639.4L432.7 601.2L434 670.5L435.3 689.1L436.7 769.8L438 732.6L439.3 525.9L440.7 514.5L442 582.7L443.3 584.5L444.7 675.2L446 712.7L447.3 750.8L448.7 679.6L450 523L451.3 519.7L452.7 597.5L454 581.5L455.3 673.9L456.7 740.8L458 780.7L459.3 729.9L460.7 513.6L462 528.5L463.3 678L464.7 629.1L466 667.6L467.3 709.2L468.7 765.5L470 700.9L471.3 518.8L472.7 413.2L474 644.7L475.3 617.7L476.7 659.7L478 699.8L479.3 760.1L480.7 707.2L482 548.8L483.3 518.7L484.7 665L486 593.9L487.3 671.2L488.7 718.4L490 773.4L491.3 716.7L492.7 536.2L494 547L495.3 644.7L496.7 599.1L498 657L499.3 704.9L500.7 770.1L502 709.4L503.3 539.1L504.7 524.6L506 655L507.3 653.3L508.7 641L510 723.1L511.3 774.2L512.7 711.6L514 563.4L515.3 477.4L516.7 663.9L518 614.1L519.3 608.9L520.7 621.5L522 746.7L523.3 708.9L524.7 536.6L526 610.9L527.3 567.2L528.7 671L530 653.5L531.3 784.3L532.7 696.3L534 765.7L535.3 495.4L536.7 613L538 599.9L539.3 660.8L540.7 608.1L542 766.1L543.3 736.1L544.7 791.2L546 493.9L547.3 576L548.7 640.6L550 714.9L551.3 635.2L552.7 762.4L554 736.5L555.3 797L556.7 520.3L558 596.6L559.3 586L560.7 685.6L562 650.7L563.3 789.1L564.7 742.1L566 766.8L567.3 443.2L568.7 587.9L570 659.3L571.3 723.3L572.7 630.9L574 788.2L575.3 735L576.7 775.2L578 508.9L579.3 594.2L580.7 601.7L582 684.9L583.3 656.7L584.7 778.5L586 715.8L587.3 768L588.7 522.7L590 576.8L591.3 638.1L592.7 674.3L594 633.9L595.3 763.5L596.7 743.1L598 762.7L599.3 497.8L600.7 579.4L602 614.9L603.3 725.6L604.7 622.8L606 776.5L607.3 738.2L608.7 789.3L610 518.7L611.3 621.9L612.7 647.7L614 680.4L615.3 653.1L616.7 765.7L618 713.4L619.3 801.2L620.7 493.1L622 601.5L623.3 631.2L624.7 706.9L626 673.1L627.3 781L628.7 740.1L630 786.7L631.3 539L632.7 556.1L634 661.3L635.3 564.4L636.7 614.8L638 707.5L639.3 731.6L640.7 715.3L642 536.4L643.3 528.3L644.7 593.4L646 597.9L647.3 619.4L648.7 711.9L650 737L651.3 706.8L652.7 467.1L654 507L655.3 626.6L656.7 565.9L658 632.9L659.3 708.2L660.7 759.8L662 704.1L663.3 483.3L664.7 505.4L666 617.8L667.3 579.6L668.7 618.7L670 723.3L671.3 750.8L672.7 700.9L674 473.9L675.3 486.7L676.7 607.9L678 584.5L679.3 608.7L680.7 695.5L682 744L683.3 733.6L684.7 510.3L686 478.4L687.3 624.1L688.7 587.7L690 619.7L691.3 691.7L692.7 739L694 708.7L695.3 507.8L696.7 451.9L698 636.7L699.3 601.5L700.7 636.5L702 710.1L703.3 755.2L704.7 727.2L706 494.7L707.3 514.1L708.7 613L710 598.5L711.3 621.6L712.7 706.4L714 735.9L715.3 696.3L716.7 525L718 512L719.3 652.8L720.7 630L722 660.1L723.3 739.7L724.7 772.4L726 718.1L727.3 472L728.7 500L730 617.2L731.3 596.9L732.7 636.6L734 707.2L735.3 757.5L736.7 742.9L738 514.9L739.3 519.2L740.7 630.3L742 599.3L743.3 639.3L744.7 705.6L746 774L747.3 732.9L748.7 548.6L750 474L751.3 601.5L752.7 625.1L754 672.5L755.3 682.1L756.7 754.8L758 728L759.3 536.6L760.7 539.9L762 631.4L763.3 621.4L764.7 687.5L766 733.8L767.3 765.4L768.7 732.5L770 527.4L771.3 537.4L772.7 624.4L774 588.1L775.3 633.8L776.7 734.1L778 784.9L779.3 744.6L780.7 523.4L782 532.3L783.3 671.1L784.7 633.1L786 667.2L787.3 692.5L788.7 762.3L790 699.8L791.3 552L792.7 522.3L794 637.1L795.3 629.3L796.7 660.6L798 725.1L799.3 723L800.7 700.4L802 527L803.3 544.7L804.7 697.1L806 629.7L807.3 666.5L808.7 736.4L810 778.6L811.3 719.2L812.7 537.8L814 528.4L815.3 674.6L816.7 608.4L818 599L819.3 703.8L820.7 777.8L822 730.9L823.3 555.3L824.7 519.3L826 682.6L827.3 631.5L828.7 689.1L830 712.1L831.3 729.3L832.7 712.1L834 536.7L835.3 545.3L836.7 638.2L838 589.7L839.3 625.6L840.7 647.9L842 717.9L843.3 680.9L844.7 522.3L846 636.7L847.3 555.5L848.7 666.2L850 615.5L851.3 785.4L852.7 741L854 781L855.3 436.2L856.7 579L858 612.5L859.3 700.9L860.7 618L862 777.4L863.3 734.7L864.7 788.7L866 501.8L867.3 600.2L868.7 637.8L870 685.1L871.3 620.1L872.7 786.9L874 740.3L875.3 777.4L876.7 520.7L878 591.6L879.3 635.3L880.7 652.4L882 630L883.3 771.5L884.7 748.5L886 772.7L887.3 516.1L888.7 588.1L890 611.8L891.3 680.7L892.7 626L894 756L895.3 708.6L896.7 778.8L898 540.3L899.3 571.6L900.7 595.4L902 692.6L903.3 603L904.7 765L906 754.5L907.3 788.3L908.7 489.7L910 575.8L911.3 622L912.7 654.5L914 656.8L915.3 790.6L916.7 727.2L918 789.1L919.3 486.8L920.7 598L922 643.1L923.3 679.7L924.7 664.6L926 790.7L927.3 719.7L928.7 780.9L930 517.9L931.3 625L932.7 640.7L934 679.5L935.3 636.6L936.7 767.8L938 744.4L939.3 768.7L940.7 499.2L942 574L943.3 632.4L944.7 706.1L946 649.1L947.3 747.3L948.7 743.5L950 774.3L951.3 540.6L952.7 526.1L954 616.1L955.3 587.4L956.7 621L958 694.2L959.3 725.4L960.7 695.8L962 489.6L963.3 496.8L964.7 584.1L966 554.4L967.3 615.9L968.7 722.5L970 752.9L971.3 712.8L972.7 469.8L974 510.5L975.3 607.6L976.7 535.7L978 621L979.3 697.4L980.7 747.2L982 689.7L983.3 450.5L984.7 506.8L986 613.3L987.3 600.9L988.7 617.1L990 692.1L991.3 745.6L992.7 724.5L994 433.8L995.3 513.8L996.7 642.1L998 627.1L999.3 623.5L1000.7 714.7L1002 757.4L1003.3 734.2L1004.7 462.4L1006 450.6L1007.3 633.8L1008.7 593.3L1010 609.7L1011.3 700.8L1012.7 713L1014 714.3L1015.3 473.6L1016.7 466.9L1018 626.6L1019.3 634.4L1020.7 638.7L1022 677.8L1023.3 737.9L1024.7 665.5L1026 505.6L1027.3 430.9L1028.7 608.4L1030 589.5L1031.3 580.5L1032.7 677.7L1034 746.9L1035.3 720.8L1036.7 525.1L1038 522.6L1039.3 606.6L1040.7 582.3L1042 659.8L1043.3 717.7L1044.7 748.5L1046 723.6L1047.3 505.6L1048.7 526.9L1050 594.4L1051.3 606.5L1052.7 668L1054 702.3L1055.3 763.1L1056.7 698.7L1058 507.7L1059.3 547.4L1060.7 649.9L1062 574.2L1063.3 652.3L1064.7 713.4L1066 716L1067.3 678L1068.7 468.7L1070 503.3L1071.3 646.5L1072.7 599.6L1074 646.3L1075.3 722L1076.7 757.2L1078 714.8L1079.3 494.8L1080.7 505.9L1082 639.8L1083.3 639.4L1084.7 661.8L1086 715.6L1087.3 768.2L1088.7 737.1L1090 538.3L1091.3 513.2L1092.7 646.9L1094 641.4L1095.3 665.3L1096.7 741.4L1098 751.2L1099.3 708.7L1100.7 532.1L1102 534.9L1103.3 619.9L1104.7 592.6L1106 659.1L1107.3 735.6L1108.7 786L1110 735.6L1111.3 489.9L1112.7 506.3L1114 629.9L1115.3 605.2L1116.7 647.5L1118 705L1119.3 765L1120.7 713.6L1122 535.7L1123.3 515.8L1124.7 650.7L1126 626.8L1127.3 676.4L1128.7 713.5L1130 779L1131.3 733.6L1132.7 541L1134 485.9L1135.3 621L1136.7 641.8L1138 688.8L1139.3 729.4L1140.7 757.9L1142 713.1L1143.3 518.1L1144.7 566.6L1146 709.5L1147.3 618L1148.7 653L1150 710.6L1151.3 780.2L1152.7 712.8L1154 528.8L1155.3 505.9L1156.7 654.1L1158 657.5L1159.3 616.4L1160.7 675.9L1162 736.9L1163.3 691.2L1164.7 527.3L1166 619.6L1167.3 578.5L1168.7 663.5L1170 597.6L1171.3 776.4L1172.7 661.9L1174 766.2L1175.3 501.3L1176.7 567.3L1178 537.8L1179.3 703.4L1180.7 622.3L1182 778.3L1183.3 723.1L1184.7 784.3L1186 484.4L1187.3 597.5L1188.7 625.7L1190 653.7L1191.3 603.8L1192.7 788.2L1194 726.8L1195.3 788.9L1196.7 517.9L1198 528.9L1199.3 602.7L1200.7 686.3L1202 642L1203.3 778.7L1204.7 727.2L1206 778.4L1207.3 507.1L1208.7 629.2L1210 633L1211.3 698.8L1212.7 659.2L1214 786.9L1215.3 749.5L1216.7 793.4L1218 481.4L1219.3 585.7L1220.7 638.8L1222 685.6L1223.3 648.9L1224.7 764.8L1226 747.8L1227.3 775.1L1228.7 515.7L1230 612.3L1231.3 638.7L1232.7 687L1234 632.7L1235.3 758.5L1236.7 713.7L1238 778L1239.3 518.7L1240.7 602.6L1242 604.8L1243.3 666L1244.7 626.4L1246 776.1L1247.3 746.8L1248.7 776L1250 533.7L1251.3 569.9L1252.7 643.5L1254 695.9L1255.3 634.3L1256.7 791.1L1258 698L1259.3 782.4L1260.7 522.4L1262 572.1L1263.3 634.5L1264.7 656.8L1266 634.9L1267.3 773.7L1268.7 721.7L1270 772.7L1271.3 505.4L1272.7 548.1L1274 673.7L1275.3 597.1L1276.7 598.3L1278 712.7L1279.3 741.4L1280.7 726.7L1282 528.2L1283.3 496.2L1284.7 624.3L1286 608.5L1287.3 573.1L1288.7 689.3L1290 715.5L1291.3 726L1292.7 507.7L1294 477.5L1295.3 598.7L1296.7 590.9L1298 655.8L1299.3 716.6L1300.7 743.7L1302 713.3L1303.3 509.3L1304.7 463.3L1306 592L1307.3 605.1L1308.7 658.1L1310 740.1L1311.3 704.6L1312.7 720L1314 476.8L1315.3 491.1L1316.7 598.5L1318 594.9L1319.3 668.2L1320.7 734.5L1322 757.6L1323.3 719.9L1324.7 487.9L1326 530.1L1327.3 618.6L1328.7 582.4L1330 628.9L1331.3 715.3L1332.7 767L1334 709.3L1335.3 468.3L1336.7 471.9L1338 629.9L1339.3 596L1340.7 629.7L1342 723.6L1343.3 761.3L1344.7 736.1L1346 482L1347.3 477.7L1348.7 597.8L1350 647.5L1351.3 622.5L1352.7 706.7L1354 762.3L1355.3 739.4L1356.7 511.8L1358 491.3L1359.3 654L1360.7 598.5L1362 661.2L1363.3 706L1364.7 745.7L1366 728.6L1367.3 518.1L1368.7 488.6L1370 629.7L1371.3 632.6L1372.7 662.6L1374 731.5L1375.3 773.9L1376.7 724.7L1378 516.7L1379.3 518.3L1380.7 637.4L1382 553.7L1383.3 648.5L1384.7 725.9L1386 753.8L1387.3 719L1388.7 521.9L1390 507.8L1391.3 629.6L1392.7 583.1L1394 644.4L1395.3 716.6L1396.7 757.1L1398 729.4L1399.3 536.3L1400.7 494.1L1402 619.8L1403.3 598.3L1404.7 659.5L1406 658.2L1407.3 758.2L1408.7 729.3L1410 513.5L1411.3 464.5L1412.7 589.6L1414 544.1L1415.3 648.1L1416.7 706.5L1418 764.4L1419.3 680.1L1420.7 519.4L1422 446.7L1423.3 580.6L1424.7 555.9L1426 594.2L1427.3 600L1428.7 695.9L1430 674.9L1431.3 454.3L1432.7 450.4L1434 596.2L1435.3 574.5L1436.7 620.6L1438 633.8L1439.3 742.3L1440.7 675.5L1442 382.8L1443.3 328.7L1444.7 672.6L1446 608L1447.3 622.5L1448.7 714L1450 772.7L1451.3 712.8L1452.7 511L1454 445.2L1455.3 650.7L1456.7 626.6L1458 654.3L1459.3 672L1460.7 740.1L1462 656L1463.3 447L1464.7 474.1L1466 646.6L1467.3 630.5L1468.7 689.3L1470 713L1471.3 773.2L1472.7 718.2L1474 512.2L1475.3 345.7L1476.7 652.9L1478 563.3L1479.3 586.1L1480.7 646.1L1482 704.8L1483.3 683.2L1484.7 517.6L1486 632.9L1487.3 579.8L1488.7 677.3L1490 582.5L1491.3 769L1492.7 718L1494 754.4L1495.3 440.1L1496.7 569.8L1498 601.8L1499.3 659L1500.7 588.3L1502 763.3L1503.3 727.2L1504.7 783.6L1506 397.9L1507.3 542L1508.7 630.9L1510 640.3L1511.3 628.3L1512.7 758.8L1514 696.9L1515.3 753.8L1516.7 241.6L1518 292.5L1519.3 346.2L1520.7 438.6L1522 374.4L1523.3 683.2L1524.7 627.5L1526 739.4L1527.3 448.6L1528.7 577.2L1530 451.3L1531.3 444.5L1532.7 555.7L1534 766.8L1535.3 726.6L1536.7 786.1L1538 488.9L1539.3 602.5L1540.7 626.2L1542 704L1543.3 647.1L1544.7 769.9L1546 744.7L1547.3 787.7L1548.7 469.2L1550 613.4L1551.3 653.3L1552.7 682.6L1554 565.4L1555.3 777.8L1556.7 747.9L1558 766L1559.3 487.2L1560.7 533.3L1562 613L1563.3 663.5L1564.7 655.2L1566 764.2L1567.3 686.3L1568.7 771.4L1570 437.4L1571.3 578.1L1572.7 641.6L1574 695.5L1575.3 636.1L1576.7 789.3L1578 730.2L1579.3 793.1L1580.7 506.5L1582 622.2L1583.3 643.9L1584.7 666.6L1586 653.9L1587.3 783L1588.7 745.1L1590 782.3L1591.3 532.6L1592.7 538.2L1594 659.1L1595.3 565.3L1596.7 627.2L1598 715.4L1599.3 702.7L1600.7 714.8L1602 501.2L1603.3 472.6L1604.7 528.7L1606 585.7L1607.3 614.8L1608.7 709.3L1610 701.9L1611.3 718.2L1612.7 450L1614 490.2L1615.3 570.3L1616.7 607.4L1618 655.1L1619.3 722.8L1620.7 705.3L1622 679.9L1623.3 453.6L1624.7 498L1626 515.6L1627.3 589.1L1628.7 601.2L1630 709.3L1631.3 707.9L1632.7 690.2L1634 494.1L1635.3 503.8L1636.7 607.4L1638 585.1L1639.3 643.4L1640.7 724.3L1642 753.4L1643.3 701.9L1644.7 507.2L1646 470.1L1647.3 589.7L1648.7 566.4L1650 629.4L1651.3 707.3L1652.7 751.4L1654 692.5L1655.3 485.3L1656.7 510.8L1658 639L1659.3 607L1660.7 631.5L1662 730.5L1663.3 736.8L1664.7 732.7L1666 454.1L1667.3 500.8L1668.7 625.3L1670 587L1671.3 586.7L1672.7 725.9L1674 755.6L1675.3 682.4L1676.7 432.4L1678 515.6L1679.3 629.8L1680.7 616.1L1682 611.9L1683.3 678.4L1684.7 728.6L1686 709L1687.3 510.5L1688.7 508L1690 618.8L1691.3 589.9L1692.7 634.8L1694 681.9L1695.3 745.9L1696.7 693.1L1698 517.3L1699.3 458L1700.7 641.2L1702 614.1L1703.3 657L1704.7 720L1706 749.6L1707.3 711.7L1708.7 506L1710 491.6L1711.3 630.6L1712.7 609.1L1714 650.9L1715.3 707.8L1716.7 714.5L1718 703.7L1719.3 513.5L1720.7 532.3L1722 623.9L1723.3 618.5L1724.7 646L1726 709.4L1727.3 782.2L1728.7 736.3L1730 481.1L1731.3 480.5L1732.7 643.6L1734 606.3L1735.3 629.8L1736.7 714.8L1738 734.2L1739.3 711.7L1740.7 513.8L1742 518.6L1743.3 668.8L1744.7 578.6L1746 630.9L1747.3 711.1L1748.7 760.1L1750 718.1L1751.3 538.1L1752.7 496.6L1754 616.6L1755.3 604L1756.7 664.2L1758 688.2L1759.3 745.8L1760.7 705.7L1762 535L1763.3 544.5L1764.7 679.5L1766 652L1767.3 705.8L1768.7 746.5L1770 792.8L1771.3 710.3L1772.7 523.2L1774 500.1L1775.3 673.1L1776.7 597L1778 647.6L1779.3 731.2L1780.7 785.1L1782 732L1783.3 529L1784.7 499.6L1786 660L1787.3 634.5L1788.7 691L1790 681.4L1791.3 772.4L1792.7 729.6L1794 517.3L1795.3 544.4L1796.7 633L1798 599.2L1799.3 603.5" fill="transparent" stroke="#3fb1e3" stroke-width="3" stroke-linejoin="bevel" class="zr8-cls-26"></path>
</g>
<g clip-path="url(#zr8-c1)">
<path d="M200.7 321.7L202 704.5L203.3 701.9L204.7 525L206 617.2L207.3 609.9L208.7 692.8L210 656.3L211.3 773.6L212.7 733.9L214 778.3L215.3 503.8L216.7 604.4L218 645.3L219.3 652L220.7 641.9L222 775.1L223.3 734.6L224.7 782.5L226 491.7L227.3 538L228.7 614.7L230 628.2L231.3 607.9L232.7 766.5L234 705.5L235.3 775.4L236.7 492.6L238 551.6L239.3 591.1L240.7 681.5L242 627.5L243.3 753.7L244.7 746.1L246 780.7L247.3 509.9L248.7 609.9L250 662L251.3 698.7L252.7 640.7L254 797.8L255.3 730.4L256.7 795.7L258 504.9L259.3 604L260.7 625.8L262 704.6L263.3 620.3L264.7 773.9L266 745.6L267.3 789.8L268.7 538.1L270 587.2L271.3 654.6L272.7 719.1L274 653.3L275.3 799.5L276.7 754.1L278 777.2L279.3 537.1L280.7 599.1L282 619.1L283.3 732.1L284.7 618.6L286 793.9L287.3 752.9L288.7 799.5L290 556.9L291.3 608.3L292.7 642.3L294 735L295.3 689.4L296.7 782.3L298 761.6L299.3 796.5L300.7 526.4L302 601.3L303.3 602.9L304.7 716L306 625.3L307.3 775.9L308.7 751.3L310 788.8L311.3 558L312.7 543.1L314 639.5L315.3 557.8L316.7 606.4L318 715.7L319.3 734.9L320.7 694.8L322 481.2L323.3 512.1L324.7 608.7L326 617.7L327.3 658.1L328.7 722.3L330 742L331.3 730.7L332.7 475.2L334 518.4L335.3 634.4L336.7 633.8L338 666.2L339.3 729.4L340.7 741L342 727.5L343.3 540.7L344.7 529.2L346 619.4L347.3 597.4L348.7 616.5L350 725.5L351.3 741.9L352.7 733.8L354 528.1L355.3 510.2L356.7 638.5L358 602.6L359.3 634.4L360.7 704.9L362 765.8L363.3 745.6L364.7 531.3L366 539.1L367.3 626.6L368.7 634.4L370 664.1L371.3 708.9L372.7 767.7L374 687.7L375.3 451.9L376.7 469.7L378 608.3L379.3 580.3L380.7 634.7L382 713.5L383.3 760L384.7 721.1L386 501.6L387.3 523.5L388.7 661L390 602L391.3 621L392.7 681.8L394 730.4L395.3 701.7L396.7 480L398 510.9L399.3 656.2L400.7 609.3L402 661.8L403.3 723.4L404.7 769L406 717.7L407.3 537.8L408.7 537.6L410 659.6L411.3 635.8L412.7 619.1L414 705.4L415.3 758.7L416.7 705.8L418 503.4L419.3 543.1L420.7 642.3L422 638.9L423.3 659.2L424.7 705L426 762.2L427.3 709.1L428.7 541.8L430 502L431.3 642.9L432.7 611.9L434 608.4L435.3 704.3L436.7 753L438 731.8L439.3 541L440.7 499.6L442 677.6L443.3 639.2L444.7 698.1L446 727.9L447.3 779.5L448.7 740.1L450 544.2L451.3 527.9L452.7 646.9L454 617.7L455.3 661.4L456.7 734.4L458 772.1L459.3 730.9L460.7 527.3L462 542.6L463.3 674.2L464.7 620.9L466 681.2L467.3 713.6L468.7 764.2L470 734.5L471.3 523.8L472.7 460.1L474 636.9L475.3 616.9L476.7 676.9L478 691.1L479.3 778.2L480.7 741.3L482 548.6L483.3 529.1L484.7 662.6L486 635.9L487.3 671.3L488.7 715.2L490 774L491.3 738.6L492.7 537.1L494 547.6L495.3 674.6L496.7 635.2L498 675.4L499.3 740.3L500.7 792.1L502 734.2L503.3 562.4L504.7 527.2L506 661L507.3 660.7L508.7 701.7L510 716.7L511.3 792.1L512.7 725.5L514 575.2L515.3 509.2L516.7 645.6L518 625.1L519.3 630.9L520.7 680.1L522 742.5L523.3 719.7L524.7 550.1L526 631.1L527.3 614L528.7 671.8L530 610.3L531.3 762.1L532.7 748.1L534 758.8L535.3 477.5L536.7 590.3L538 643.4L539.3 694.7L540.7 663.8L542 774.2L543.3 718.9L544.7 780.3L546 498.5L547.3 569.1L548.7 621.2L550 677.7L551.3 639.1L552.7 781.4L554 755.6L555.3 776L556.7 497.4L558 561L559.3 607L560.7 700.6L562 571L563.3 767.2L564.7 739.8L566 782.3L567.3 527.8L568.7 603L570 613.2L571.3 704.7L572.7 648.4L574 787L575.3 725.9L576.7 789L578 546.2L579.3 572.4L580.7 656.1L582 678.6L583.3 633.3L584.7 780.5L586 756.5L587.3 797.9L588.7 526.4L590 618.6L591.3 635.6L592.7 716.6L594 641.3L595.3 792.1L596.7 747.3L598 776.5L599.3 546.4L600.7 606.5L602 608.9L603.3 682.2L604.7 652.6L606 780.6L607.3 751.4L608.7 759.8L610 542.4L611.3 616.6L612.7 633.6L614 723.9L615.3 690.5L616.7 778.5L618 713.2L619.3 777L620.7 526.7L622 569.8L623.3 652.2L624.7 710.5L626 622.6L627.3 797.7L628.7 761.3L630 795.9L631.3 503.3L632.7 557L634 628.6L635.3 576.3L636.7 592.8L638 710.6L639.3 725.2L640.7 724.8L642 542.2L643.3 516.5L644.7 585.6L646 547.1L647.3 591.7L648.7 693.8L650 721.2L651.3 722.5L652.7 507.2L654 501L655.3 610.9L656.7 624.3L658 629.6L659.3 702.7L660.7 748.8L662 708.9L663.3 517.4L664.7 521.4L666 627.6L667.3 616.2L668.7 632.6L670 709.3L671.3 750.5L672.7 728.3L674 527.5L675.3 534.6L676.7 660.2L678 596.7L679.3 635.6L680.7 720.4L682 750L683.3 718.2L684.7 510.9L686 532.1L687.3 610L688.7 621L690 641.5L691.3 691.8L692.7 758.3L694 704.6L695.3 507.4L696.7 543.3L698 668.2L699.3 639.3L700.7 661.5L702 706.9L703.3 769.9L704.7 738.3L706 534.2L707.3 511.3L708.7 614.1L710 608.4L711.3 626.9L712.7 709.4L714 743.6L715.3 697L716.7 491.3L718 514.8L719.3 633.6L720.7 603L722 660.4L723.3 725.4L724.7 752.4L726 734.3L727.3 487.9L728.7 492.3L730 646L731.3 622.2L732.7 633.4L734 695.5L735.3 770.4L736.7 740L738 497.2L739.3 535.3L740.7 661.9L742 626.5L743.3 676.5L744.7 704.4L746 776.8L747.3 719L748.7 540.3L750 535.6L751.3 617.3L752.7 627.5L754 639.3L755.3 740.2L756.7 760.7L758 705.7L759.3 511L760.7 489.8L762 639.3L763.3 579.1L764.7 681.9L766 707L767.3 768L768.7 739.8L770 521.7L771.3 518.5L772.7 663.1L774 644.7L775.3 679.7L776.7 717.9L778 785.7L779.3 746.4L780.7 563.1L782 548L783.3 698.7L784.7 659.7L786 671.8L787.3 740.6L788.7 772.4L790 703.1L791.3 536.8L792.7 508.2L794 662.8L795.3 621.1L796.7 644.7L798 724.2L799.3 779.5L800.7 743L802 544.5L803.3 488.9L804.7 653.3L806 604.2L807.3 675.3L808.7 720.3L810 774.5L811.3 730.9L812.7 564.5L814 519L815.3 655.1L816.7 621.3L818 648.3L819.3 710.4L820.7 765.1L822 727.6L823.3 566.4L824.7 564.9L826 662.5L827.3 658.3L828.7 662.6L830 713.7L831.3 786.5L832.7 747.2L834 560L835.3 498.7L836.7 692L838 648.5L839.3 610.1L840.7 678.4L842 748.4L843.3 693.6L844.7 538.2L846 633.7L847.3 580.5L848.7 708L850 640.6L851.3 787.4L852.7 716.6L854 782L855.3 521.1L856.7 572L858 620.9L859.3 695.9L860.7 605.2L862 787.3L863.3 717.9L864.7 774.4L866 527.3L867.3 603L868.7 626.7L870 686.9L871.3 632.5L872.7 789.5L874 751.3L875.3 777.9L876.7 544.9L878 578.8L879.3 580.3L880.7 689.8L882 592L883.3 777L884.7 750.3L886 784.3L887.3 491.4L888.7 600.9L890 640.1L891.3 650.6L892.7 644.9L894 789.2L895.3 720.9L896.7 785.7L898 533.7L899.3 607.1L900.7 644.6L902 700.2L903.3 623.8L904.7 764.9L906 748.5L907.3 772.2L908.7 541.4L910 603.4L911.3 652.8L912.7 697.5L914 644.5L915.3 772.2L916.7 756.8L918 774.3L919.3 537.7L920.7 599.2L922 634.9L923.3 735.4L924.7 647.5L926 798.7L927.3 753.2L928.7 798.6L930 542.2L931.3 631.9L932.7 657.7L934 696L935.3 680.2L936.7 792.5L938 728.8L939.3 783.1L940.7 569.8L942 588.6L943.3 647.3L944.7 717.1L946 666.7L947.3 780L948.7 731.2L950 789.9L951.3 534.6L952.7 538.2L954 661.8L955.3 599.5L956.7 622.2L958 699.9L959.3 755.6L960.7 735.1L962 525.8L963.3 499.7L964.7 641.8L966 553.2L967.3 572L968.7 696.9L970 723.1L971.3 728.6L972.7 501.8L974 508.3L975.3 625.5L976.7 554.3L978 620.8L979.3 718.5L980.7 734.6L982 708.8L983.3 514.7L984.7 507.5L986 604L987.3 599.7L988.7 591.3L990 716.2L991.3 748.1L992.7 730.7L994 497.5L995.3 502.5L996.7 638.2L998 632.1L999.3 686.4L1000.7 743.2L1002 747.4L1003.3 709.3L1004.7 491.3L1006 496.6L1007.3 655L1008.7 641L1010 662.6L1011.3 730.8L1012.7 760.6L1014 699.3L1015.3 521.7L1016.7 532.9L1018 663.2L1019.3 595.3L1020.7 628.6L1022 715.8L1023.3 747.1L1024.7 726.1L1026 530L1027.3 509.3L1028.7 620.3L1030 596.4L1031.3 643.6L1032.7 729.9L1034 766.7L1035.3 724.3L1036.7 539.2L1038 511.6L1039.3 635.9L1040.7 639.3L1042 645L1043.3 702L1044.7 741.5L1046 701.1L1047.3 523.2L1048.7 525.9L1050 603.1L1051.3 605.5L1052.7 632L1054 693.1L1055.3 757.5L1056.7 694.6L1058 499.5L1059.3 527.6L1060.7 685.3L1062 641.3L1063.3 654.2L1064.7 716.6L1066 748.8L1067.3 740.8L1068.7 542L1070 487L1071.3 626.1L1072.7 664.4L1074 685.1L1075.3 711.9L1076.7 768.5L1078 712.6L1079.3 519.7L1080.7 512.8L1082 684.4L1083.3 636L1084.7 698.7L1086 740.2L1087.3 760.5L1088.7 734.4L1090 569.6L1091.3 560.5L1092.7 692.9L1094 651.4L1095.3 672.3L1096.7 742.4L1098 783.6L1099.3 741.8L1100.7 576L1102 525.5L1103.3 670.4L1104.7 619.5L1106 674.5L1107.3 717.4L1108.7 784.1L1110 739.8L1111.3 574.6L1112.7 506.6L1114 618L1115.3 639.8L1116.7 691.2L1118 715.8L1119.3 772.3L1120.7 745.1L1122 515.7L1123.3 534.1L1124.7 645.1L1126 617.4L1127.3 664.3L1128.7 731.1L1130 786.8L1131.3 722L1132.7 539.5L1134 463.8L1135.3 659.4L1136.7 622.4L1138 660.8L1139.3 705.6L1140.7 762L1142 695L1143.3 519.4L1144.7 531.1L1146 664.6L1147.3 625.4L1148.7 696.9L1150 733.4L1151.3 783.7L1152.7 728L1154 555.9L1155.3 550.2L1156.7 673.4L1158 636.8L1159.3 622.6L1160.7 691.5L1162 748.9L1163.3 727.7L1164.7 574.3L1166 632.7L1167.3 605.8L1168.7 680.5L1170 661.2L1171.3 769.3L1172.7 740.4L1174 782.4L1175.3 534.3L1176.7 556.4L1178 569.1L1179.3 683.4L1180.7 630.7L1182 763.9L1183.3 750.9L1184.7 790.5L1186 486.7L1187.3 572.1L1188.7 606.9L1190 669.8L1191.3 660.3L1192.7 778.1L1194 727.5L1195.3 797.7L1196.7 514.7L1198 584L1199.3 630.7L1200.7 679.9L1202 623.8L1203.3 789.7L1204.7 715L1206 782.5L1207.3 530.2L1208.7 610.4L1210 595L1211.3 679.8L1212.7 648.1L1214 784.8L1215.3 724.6L1216.7 776.4L1218 506.1L1219.3 574.2L1220.7 657.8L1222 673.9L1223.3 609.5L1224.7 748.5L1226 746.1L1227.3 794.4L1228.7 495.7L1230 585.6L1231.3 626.7L1232.7 692.7L1234 630.6L1235.3 764.7L1236.7 718.7L1238 740.3L1239.3 530L1240.7 571.4L1242 615.4L1243.3 676.8L1244.7 624.7L1246 787.5L1247.3 751.9L1248.7 771.4L1250 537.3L1251.3 617.8L1252.7 641.8L1254 713.2L1255.3 634.6L1256.7 797.2L1258 713.3L1259.3 790.5L1260.7 549.6L1262 582.6L1263.3 615.4L1264.7 692.7L1266 620.3L1267.3 763.9L1268.7 735.2L1270 785L1271.3 537.2L1272.7 540.7L1274 676.1L1275.3 604.4L1276.7 599.8L1278 705L1279.3 750.6L1280.7 732.3L1282 529.9L1283.3 482.4L1284.7 618.4L1286 608.8L1287.3 594.5L1288.7 709.5L1290 721L1291.3 699.6L1292.7 523.4L1294 501.5L1295.3 599.5L1296.7 591.6L1298 589.8L1299.3 721.7L1300.7 725.9L1302 697.4L1303.3 505L1304.7 499.9L1306 582.5L1307.3 600.5L1308.7 588.4L1310 702.8L1311.3 712.2L1312.7 705.9L1314 506.1L1315.3 516.7L1316.7 631L1318 599.3L1319.3 652.5L1320.7 731.6L1322 766.2L1323.3 713L1324.7 491.6L1326 507L1327.3 616.6L1328.7 611.7L1330 630.7L1331.3 704.4L1332.7 763.1L1334 716.9L1335.3 528.2L1336.7 490.9L1338 654.7L1339.3 649.7L1340.7 686.4L1342 732.4L1343.3 748.9L1344.7 715.9L1346 551.7L1347.3 542.6L1348.7 594.5L1350 602.9L1351.3 643.8L1352.7 712.2L1354 762.9L1355.3 739L1356.7 504.1L1358 547.2L1359.3 634.2L1360.7 607.6L1362 654.6L1363.3 727.6L1364.7 756.6L1366 709.3L1367.3 533.9L1368.7 512.1L1370 663.2L1371.3 597.6L1372.7 609.3L1374 698.1L1375.3 765.3L1376.7 728.4L1378 523.4L1379.3 495L1380.7 650.5L1382 602.1L1383.3 644.4L1384.7 708.3L1386 759.6L1387.3 734.8L1388.7 514.9L1390 515.5L1391.3 602.7L1392.7 601.7L1394 645.6L1395.3 709.1L1396.7 746.5L1398 713.8L1399.3 551.7L1400.7 540.6L1402 644.4L1403.3 600.6L1404.7 665.9L1406 731.1L1407.3 783.4L1408.7 707.3L1410 548.7L1411.3 554.4L1412.7 664.1L1414 593.2L1415.3 647.4L1416.7 717.2L1418 765.9L1419.3 739.7L1420.7 569.9L1422 527.4L1423.3 649.7L1424.7 641.9L1426 655.6L1427.3 717.3L1428.7 781.6L1430 731.5L1431.3 554.9L1432.7 549.2L1434 634.6L1435.3 628.9L1436.7 666.1L1438 740.7L1439.3 786.6L1440.7 739.9L1442 534.5L1443.3 549.7L1444.7 676.6L1446 612.4L1447.3 690.3L1448.7 710.7L1450 788L1451.3 740L1452.7 545.9L1454 480.7L1455.3 640L1456.7 609.3L1458 655L1459.3 727.1L1460.7 756.5L1462 693.7L1463.3 542.3L1464.7 528.8L1466 676.9L1467.3 650.2L1468.7 676.8L1470 712.6L1471.3 789.5L1472.7 736.1L1474 514.1L1475.3 516.4L1476.7 668.5L1478 599.5L1479.3 595.3L1480.7 665.5L1482 749.5L1483.3 688.9L1484.7 553L1486 639.5L1487.3 603.7L1488.7 685L1490 637.6L1491.3 762.4L1492.7 744.4L1494 785L1495.3 490.3L1496.7 589.5L1498 622L1499.3 678.3L1500.7 629.9L1502 786.4L1503.3 716.6L1504.7 789.9L1506 528.6L1507.3 582.4L1508.7 618.4L1510 665.9L1511.3 611.7L1512.7 715.5L1514 695.3L1515.3 766.1L1516.7 455.1L1518 556.2L1519.3 632.4L1520.7 687L1522 598.3L1523.3 760.3L1524.7 728.9L1526 795.6L1527.3 501.9L1528.7 599.3L1530 617.3L1531.3 682.4L1532.7 628.5L1534 766.6L1535.3 734.8L1536.7 759.4L1538 525.9L1539.3 577.4L1540.7 645.2L1542 672L1543.3 648.6L1544.7 784.8L1546 747.5L1547.3 786.8L1548.7 518.7L1550 596L1551.3 629.4L1552.7 692.6L1554 649.5L1555.3 795.9L1556.7 747.5L1558 788.6L1559.3 528.4L1560.7 571.1L1562 609.1L1563.3 657.1L1564.7 656.1L1566 778L1567.3 753.5L1568.7 780L1570 522.7L1571.3 601.3L1572.7 623.2L1574 682L1575.3 656.8L1576.7 796L1578 726.7L1579.3 798.6L1580.7 505.1L1582 584.1L1583.3 650.3L1584.7 697.2L1586 654.5L1587.3 797.3L1588.7 732.6L1590 794.9L1591.3 530.2L1592.7 563.7L1594 698.3L1595.3 614.2L1596.7 617.1L1598 724.1L1599.3 736.1L1600.7 727.1L1602 531.1L1603.3 503.7L1604.7 599.7L1606 619.2L1607.3 654.4L1608.7 699.9L1610 709L1611.3 699.9L1612.7 513.6L1614 531.2L1615.3 626.4L1616.7 589.5L1618 652.8L1619.3 716.3L1620.7 732.3L1622 698.3L1623.3 507.1L1624.7 482.8L1626 568.9L1627.3 591.9L1628.7 590.8L1630 693.4L1631.3 736.1L1632.7 702.6L1634 501.6L1635.3 494.6L1636.7 609.5L1638 570L1639.3 642.6L1640.7 701.1L1642 741.5L1643.3 710L1644.7 504.4L1646 508.6L1647.3 619.7L1648.7 629.4L1650 655.6L1651.3 728L1652.7 756.5L1654 722.7L1655.3 496.9L1656.7 529.9L1658 626.8L1659.3 602.7L1660.7 635.2L1662 707.8L1663.3 765.7L1664.7 706.4L1666 518.6L1667.3 526.8L1668.7 639.8L1670 629L1671.3 631.6L1672.7 715.6L1674 758.9L1675.3 725.1L1676.7 529.2L1678 529.7L1679.3 650.1L1680.7 629.6L1682 687.4L1683.3 710.4L1684.7 746.6L1686 703.6L1687.3 530.3L1688.7 532.3L1690 656.2L1691.3 631.6L1692.7 675.8L1694 725.3L1695.3 769.6L1696.7 739.7L1698 555.9L1699.3 506.5L1700.7 650.6L1702 617.7L1703.3 657L1704.7 718.3L1706 740.7L1707.3 729.8L1708.7 537.1L1710 473.4L1711.3 599.1L1712.7 591.5L1714 645.5L1715.3 710.4L1716.7 763.1L1718 705.1L1719.3 539.4L1720.7 544.6L1722 667.3L1723.3 600.9L1724.7 689.1L1726 735.3L1727.3 779.3L1728.7 716.2L1730 515.1L1731.3 526.4L1732.7 671.2L1734 646.3L1735.3 689.1L1736.7 707.1L1738 746.8L1739.3 737.2L1740.7 543.8L1742 567.6L1743.3 684.1L1744.7 650.5L1746 683.6L1747.3 731.9L1748.7 782.4L1750 728.4L1751.3 538.5L1752.7 537.5L1754 692.8L1755.3 652.1L1756.7 667.7L1758 722.8L1759.3 777.6L1760.7 746.3L1762 573.2L1763.3 560.4L1764.7 713.7L1766 642.1L1767.3 695.3L1768.7 740.5L1770 792.2L1771.3 748.1L1772.7 571.3L1774 540.5L1775.3 679.7L1776.7 661.2L1778 691.2L1779.3 719.3L1780.7 789.1L1782 720.2L1783.3 561.4L1784.7 500.7L1786 658.4L1787.3 643.5L1788.7 687.4L1790 706.4L1791.3 787.4L1792.7 740.4L1794 531.3L1795.3 517.5L1796.7 646.4L1798 620.8L1799.3 623" fill="transparent" stroke="#6be6c1" stroke-width="3" stroke-linejoin="bevel" class="zr8-cls-26"></path>
</g>
<g clip-path="url(#zr8-c2)">
<path d="M200.7 349.9L202 673L203.3 670.9L204.7 499.2L206 600.7L207.3 578.1L208.7 687.6L210 585.4L211.3 758.7L212.7 723.7L214 753.4L215.3 510L216.7 582L218 664.3L219.3 723.8L220.7 632.6L222 789.3L223.3 734.2L224.7 779.5L226 523.5L227.3 611.9L228.7 613.3L230 689.7L231.3 630.9L232.7 791.3L234 750.7L235.3 781.1L236.7 508.8L238 553L239.3 606.4L240.7 685.8L242 626.9L243.3 753L244.7 732L246 761.8L247.3 522.7L248.7 612.1L250 664.7L251.3 701.6L252.7 677.7L254 779.2L255.3 749.4L256.7 788L258 490.4L259.3 599.5L260.7 648.8L262 689.8L263.3 628.8L264.7 795.1L266 717.2L267.3 764.8L268.7 501.9L270 586.2L271.3 590.9L272.7 649.1L274 656.8L275.3 773L276.7 755.2L278 781.2L279.3 479.2L280.7 532.5L282 592.9L283.3 673.1L284.7 594.6L286 781L287.3 729.6L288.7 776.6L290 496.1L291.3 585L292.7 630.1L294 711.7L295.3 672.8L296.7 780L298 733.6L299.3 762.8L300.7 515.4L302 574.1L303.3 634.9L304.7 714.4L306 666.6L307.3 776.3L308.7 753.8L310 775L311.3 504.6L312.7 518.6L314 668.7L315.3 579.5L316.7 615.4L318 689.2L319.3 747.8L320.7 728.8L322 522.9L323.3 533.3L324.7 626.4L326 598.2L327.3 640.7L328.7 701.8L330 743.7L331.3 701.3L332.7 514.1L334 533.4L335.3 630.3L336.7 628.7L338 623.8L339.3 693.7L340.7 742.5L342 700.5L343.3 510.4L344.7 520.9L346 618.5L347.3 587.7L348.7 635.9L350 685.5L351.3 715.7L352.7 722.6L354 462.8L355.3 516L356.7 637.5L358 609.4L359.3 621.3L360.7 715.6L362 755.2L363.3 730.6L364.7 502.3L366 496.6L367.3 606.4L368.7 588.8L370 635.7L371.3 698.7L372.7 750.1L374 696.5L375.3 508.3L376.7 532.1L378 607.7L379.3 619.3L380.7 626.6L382 692.3L383.3 764.1L384.7 736.4L386 494.8L387.3 504L388.7 616.2L390 621.3L391.3 635.9L392.7 697.4L394 749.5L395.3 708.7L396.7 519.4L398 547.4L399.3 637.3L400.7 621.9L402 685.5L403.3 733.3L404.7 766.3L406 702.3L407.3 522L408.7 515.1L410 640.4L411.3 617.6L412.7 625.6L414 710.7L415.3 757.3L416.7 738.9L418 537.8L419.3 525.9L420.7 659.5L422 626.9L423.3 661.3L424.7 722.7L426 758.3L427.3 728.3L428.7 505.6L430 465.8L431.3 619L432.7 620L434 639.6L435.3 718.6L436.7 760.6L438 721.2L439.3 517L440.7 527.3L442 629.5L443.3 597.7L444.7 649.4L446 717.6L447.3 772.6L448.7 737L450 532.8L451.3 531.9L452.7 664.5L454 589.2L455.3 651L456.7 735.1L458 766.3L459.3 735.2L460.7 555.6L462 538.6L463.3 668L464.7 648.9L466 671.1L467.3 730.9L468.7 778.5L470 734.1L471.3 530.9L472.7 525.1L474 642.9L475.3 603.1L476.7 632.3L478 722.4L479.3 768.4L480.7 729.2L482 513.5L483.3 549.7L484.7 678.7L486 606.8L487.3 664.4L488.7 721.3L490 781.4L491.3 717.8L492.7 547.9L494 480.2L495.3 640.6L496.7 623.5L498 681.4L499.3 708.2L500.7 766.9L502 735.6L503.3 514.7L504.7 532.1L506 659.7L507.3 630.8L508.7 647.7L510 725.6L511.3 762.1L512.7 727.5L514 540L515.3 530.1L516.7 635.8L518 592.4L519.3 603.8L520.7 676.9L522 739.6L523.3 715.5L524.7 519.7L526 634L527.3 591L528.7 695.2L530 611.7L531.3 787L532.7 720.9L534 788.2L535.3 485.7L536.7 571.3L538 653.7L539.3 728.6L540.7 624.2L542 792.7L543.3 722.7L544.7 791.7L546 502.8L547.3 582.6L548.7 653.2L550 670.5L551.3 632.7L552.7 765.6L554 739.1L555.3 787.1L556.7 534.2L558 591L559.3 613L560.7 683.3L562 626.9L563.3 784L564.7 709.1L566 769.4L567.3 526.5L568.7 617.4L570 594.9L571.3 569.6L572.7 492.2L574 732.5L575.3 656.9L576.7 729.8L578 436.9L579.3 382.5L580.7 438.3L582 640.5L583.3 583.5L584.7 753.6L586 737L587.3 790.8L588.7 247.5L590 460.9L591.3 581.6L592.7 635.8L594 586L595.3 757.7L596.7 708L598 771.9L599.3 503.6L600.7 551.9L602 575L603.3 695.7L604.7 645L606 793.2L607.3 753.1L608.7 794.6L610 515.9L611.3 605L612.7 644.1L614 674.1L615.3 639.9L616.7 765.3L618 728.9L619.3 795.3L620.7 538.9L622 572.8L623.3 611.2L624.7 673.6L626 636.8L627.3 788L628.7 730.4L630 779.3L631.3 512.3L632.7 565.2L634 681.1L635.3 586.1L636.7 637.2L638 696.7L639.3 737.9L640.7 715L642 532L643.3 501.4L644.7 633.3L646 618.8L647.3 612.1L648.7 727L650 749.8L651.3 728.6L652.7 540.6L654 540.1L655.3 635.3L656.7 611.6L658 617.9L659.3 723.7L660.7 734.7L662 731.4L663.3 525.3L664.7 516.1L666 622.9L667.3 592.7L668.7 606.5L670 684.5L671.3 737.9L672.7 709.7L674 476.6L675.3 528.4L676.7 635L678 583.4L679.3 655.7L680.7 689.8L682 755L683.3 688L684.7 498.4L686 514.4L687.3 590.3L688.7 598L690 628.3L691.3 719.7L692.7 755.6L694 725.1L695.3 492.2L696.7 507.6L698 671L699.3 620.9L700.7 638L702 728.2L703.3 761.6L704.7 733.7L706 520.7L707.3 499.3L708.7 642.6L710 651L711.3 660.6L712.7 706.9L714 755.7L715.3 735.3L716.7 512.2L718 546.5L719.3 670.1L720.7 637.9L722 669L723.3 738.3L724.7 773.6L726 715.3L727.3 502.6L728.7 509.4L730 635.1L731.3 654.2L732.7 641.1L734 718.7L735.3 772L736.7 714.8L738 533.7L739.3 548.2L740.7 660.1L742 613.4L743.3 681.6L744.7 714.8L746 777.1L747.3 740.9L748.7 543.2L750 470.4L751.3 611L752.7 618.3L754 659.1L755.3 735.7L756.7 759.5L758 703.1L759.3 528.1L760.7 503.3L762 665.2L763.3 575.4L764.7 663.4L766 713.4L767.3 761.2L768.7 738.5L770 486.3L771.3 515.3L772.7 651.2L774 583.3L775.3 656L776.7 712.8L778 780.3L779.3 729.6L780.7 529.4L782 534.8L783.3 665.2L784.7 646.4L786 670L787.3 734.5L788.7 755.7L790 733.2L791.3 558.1L792.7 542.2L794 623L795.3 600.3L796.7 632.7L798 695.2L799.3 768.1L800.7 710.2L802 544.3L803.3 547.4L804.7 680.2L806 604L807.3 673.9L808.7 711L810 787.4L811.3 718.2L812.7 535L814 516.1L815.3 649.9L816.7 618.2L818 669.7L819.3 731.9L820.7 778.3L822 732.5L823.3 562.3L824.7 519.6L826 683.6L827.3 655.9L828.7 675.7L830 736.7L831.3 780.7L832.7 701.2L834 545.3L835.3 530.4L836.7 675.4L838 621.2L839.3 612.6L840.7 663.5L842 763.4L843.3 681.7L844.7 526.1L846 636.4L847.3 587.5L848.7 679.7L850 654.4L851.3 775.3L852.7 718.5L854 765.3L855.3 507.3L856.7 577.8L858 587.8L859.3 656.1L860.7 603.7L862 761L863.3 708.8L864.7 772L866 467.1L867.3 613.1L868.7 624.2L870 673.3L871.3 656.3L872.7 787.8L874 749.8L875.3 790.8L876.7 507.9L878 560.7L879.3 641.8L880.7 671.1L882 630.1L883.3 791L884.7 751.1L886 791.1L887.3 498.5L888.7 581.2L890 644.4L891.3 689L892.7 672L894 776.5L895.3 727.1L896.7 791.8L898 532.5L899.3 567.5L900.7 602L902 661.3L903.3 594.5L904.7 772.5L906 748.6L907.3 778.8L908.7 529.6L910 587.8L911.3 611.3L912.7 713.4L914 627.8L915.3 767.6L916.7 749L918 781.3L919.3 484.9L920.7 572.3L922 605.9L923.3 673.9L924.7 629L926 772L927.3 723.8L928.7 774.3L930 477.1L931.3 576.8L932.7 625L934 672.1L935.3 646.8L936.7 780.9L938 741.2L939.3 769.7L940.7 510L942 559.9L943.3 601.8L944.7 691.8L946 660.4L947.3 788.8L948.7 726.7L950 769.4L951.3 507.3L952.7 530.9L954 676L955.3 594.8L956.7 626.8L958 700.6L959.3 738.2L960.7 738.6L962 527.6L963.3 534.6L964.7 635.7L966 603.9L967.3 622.4L968.7 729.1L970 740.8L971.3 742.7L972.7 540.9L974 529.6L975.3 622.6L976.7 645L978 656.8L979.3 728.6L980.7 736.8L982 696.1L983.3 519.8L984.7 529.4L986 612.3L987.3 599.6L988.7 623.9L990 735.9L991.3 763.7L992.7 737.2L994 499.1L995.3 546.2L996.7 660.8L998 624.9L999.3 639.7L1000.7 733L1002 762.5L1003.3 721.3L1004.7 518.6L1006 484.9L1007.3 631.7L1008.7 616.9L1010 590.6L1011.3 710.6L1012.7 734.5L1014 721.7L1015.3 510.2L1016.7 491.8L1018 635.1L1019.3 588.7L1020.7 644.8L1022 730.2L1023.3 749L1024.7 728.1L1026 533.2L1027.3 513.3L1028.7 635.5L1030 589.2L1031.3 619.2L1032.7 687.9L1034 747.1L1035.3 708.9L1036.7 506.5L1038 550.9L1039.3 651.1L1040.7 618.7L1042 665.5L1043.3 699.6L1044.7 762.9L1046 702.9L1047.3 528L1048.7 515.4L1050 619.2L1051.3 613.9L1052.7 651L1054 724.3L1055.3 768.2L1056.7 732.2L1058 536.3L1059.3 498.2L1060.7 671L1062 590L1063.3 632.2L1064.7 697.2L1066 772.5L1067.3 742L1068.7 533L1070 538.3L1071.3 636.1L1072.7 623.8L1074 671.9L1075.3 708.2L1076.7 744.3L1078 710.3L1079.3 485.4L1080.7 534.3L1082 645.2L1083.3 593.9L1084.7 654L1086 731.9L1087.3 745.8L1088.7 685.7L1090 497.7L1091.3 520.7L1092.7 643L1094 595.4L1095.3 650.5L1096.7 730.3L1098 766L1099.3 736.6L1100.7 510.5L1102 526.1L1103.3 680.4L1104.7 602L1106 651.2L1107.3 699.2L1108.7 781.6L1110 734.3L1111.3 547.6L1112.7 527.2L1114 656.7L1115.3 627.2L1116.7 673.5L1118 729.6L1119.3 777.8L1120.7 715.4L1122 544.4L1123.3 515.5L1124.7 638.7L1126 634.3L1127.3 674.5L1128.7 726L1130 771.8L1131.3 712.3L1132.7 542.2L1134 513.7L1135.3 642.5L1136.7 630L1138 683.2L1139.3 712.8L1140.7 764.3L1142 720.5L1143.3 538L1144.7 506.1L1146 666.3L1147.3 602.7L1148.7 677.1L1150 714.7L1151.3 789.4L1152.7 740.2L1154 558.5L1155.3 535.4L1156.7 618.7L1158 595L1159.3 606L1160.7 655.9L1162 746.2L1163.3 688.9L1164.7 508.7L1166 621.6L1167.3 579L1168.7 664.2L1170 627.5L1171.3 779L1172.7 741.9L1174 785L1175.3 447.3L1176.7 537.4L1178 609.6L1179.3 676.3L1180.7 569.9L1182 769L1183.3 743.8L1184.7 773.9L1186 508.2L1187.3 587.4L1188.7 618.4L1190 682.1L1191.3 621.7L1192.7 767.5L1194 751.2L1195.3 773.9L1196.7 485.3L1198 570.9L1199.3 609L1200.7 697.5L1202 639L1203.3 775L1204.7 727.3L1206 771L1207.3 477.8L1208.7 585.3L1210 602.5L1211.3 679.6L1212.7 670L1214 774.6L1215.3 719.7L1216.7 791.7L1218 527.9L1219.3 575.1L1220.7 640.5L1222 697.8L1223.3 637.4L1224.7 793.8L1226 756.4L1227.3 780.4L1228.7 524.7L1230 597.6L1231.3 641.8L1232.7 713.2L1234 627L1235.3 791.1L1236.7 745L1238 774.5L1239.3 487.8L1240.7 564.9L1242 595.4L1243.3 673.3L1244.7 633.9L1246 752.1L1247.3 740.1L1248.7 787.8L1250 528.7L1251.3 612.7L1252.7 611.8L1254 654.3L1255.3 610.3L1256.7 769.7L1258 754.4L1259.3 795.4L1260.7 516.9L1262 581.6L1263.3 646.9L1264.7 690.6L1266 643.6L1267.3 785.8L1268.7 752.8L1270 791L1271.3 551.2L1272.7 532.6L1274 659.6L1275.3 580.1L1276.7 613L1278 689.1L1279.3 729.7L1280.7 723.4L1282 512.1L1283.3 502.9L1284.7 572.6L1286 579.5L1287.3 616.6L1288.7 684.4L1290 759.3L1291.3 738.9L1292.7 507.6L1294 508.9L1295.3 632.1L1296.7 618.7L1298 663.5L1299.3 735L1300.7 746.6L1302 737L1303.3 522.3L1304.7 525L1306 637.1L1307.3 636.4L1308.7 638.9L1310 697.3L1311.3 744.9L1312.7 739.5L1314 530.2L1315.3 525.3L1316.7 643.5L1318 606.9L1319.3 635.3L1320.7 717.7L1322 719.8L1323.3 717.6L1324.7 516.9L1326 488.2L1327.3 597.1L1328.7 583.6L1330 621.1L1331.3 719.4L1332.7 751.6L1334 710.7L1335.3 473.5L1336.7 510.6L1338 622.3L1339.3 624.2L1340.7 644.9L1342 715.2L1343.3 763.5L1344.7 740.1L1346 508.8L1347.3 526.8L1348.7 608.3L1350 584.3L1351.3 643.3L1352.7 724.5L1354 743.9L1355.3 733.7L1356.7 537L1358 519.3L1359.3 663.1L1360.7 641.6L1362 686.3L1363.3 712.7L1364.7 754.2L1366 726.2L1367.3 522.6L1368.7 496.5L1370 607.4L1371.3 634.1L1372.7 651.5L1374 690L1375.3 739.1L1376.7 680.6L1378 505.2L1379.3 517.7L1380.7 656.7L1382 613.7L1383.3 673.9L1384.7 712.2L1386 755.1L1387.3 747.4L1388.7 519.3L1390 516.1L1391.3 643.6L1392.7 632.8L1394 648.7L1395.3 706.4L1396.7 758.8L1398 710.8L1399.3 516.9L1400.7 475.9L1402 645.5L1403.3 596.2L1404.7 631.3L1406 716.6L1407.3 770.6L1408.7 738.2L1410 525.8L1411.3 488.9L1412.7 615.3L1414 584.1L1415.3 636.1L1416.7 716.4L1418 754L1419.3 715.6L1420.7 516.1L1422 497.3L1423.3 647.5L1424.7 627.8L1426 633.3L1427.3 731.9L1428.7 776.7L1430 700.9L1431.3 515.2L1432.7 511.5L1434 670.4L1435.3 666.1L1436.7 672.3L1438 743L1439.3 788.1L1440.7 717.8L1442 512.8L1443.3 532.5L1444.7 686.6L1446 618.6L1447.3 682.8L1448.7 743.5L1450 794.1L1451.3 741.7L1452.7 568.4L1454 521.8L1455.3 642.3L1456.7 626.8L1458 671.9L1459.3 716.7L1460.7 760.3L1462 734.1L1463.3 565.8L1464.7 553.7L1466 701.5L1467.3 673.7L1468.7 686.3L1470 716.6L1471.3 790.2L1472.7 721.5L1474 556.4L1475.3 547L1476.7 666.4L1478 616.5L1479.3 580.2L1480.7 676.3L1482 753L1483.3 684.7L1484.7 538.2L1486 604.7L1487.3 558.7L1488.7 660.8L1490 609.2L1491.3 785.3L1492.7 741L1494 772.1L1495.3 494.9L1496.7 587.8L1498 604.8L1499.3 724L1500.7 645.9L1502 776.7L1503.3 713.2L1504.7 787.7L1506 503.5L1507.3 592.5L1508.7 619.2L1510 698.5L1511.3 639.7L1512.7 765.2L1514 689.4L1515.3 774.4L1516.7 488L1518 570.9L1519.3 640.4L1520.7 696L1522 621.2L1523.3 773L1524.7 726.8L1526 788L1527.3 490.4L1528.7 571.5L1530 641.1L1531.3 699.8L1532.7 634.6L1534 793L1535.3 743.8L1536.7 777L1538 522.8L1539.3 579.1L1540.7 597.9L1542 692.3L1543.3 593.8L1544.7 753.6L1546 723.7L1547.3 756.9L1548.7 529.4L1550 605L1551.3 628.1L1552.7 711.9L1554 617.9L1555.3 788L1556.7 733L1558 776.6L1559.3 546.1L1560.7 621.2L1562 637.9L1563.3 729.8L1564.7 667.3L1566 774.4L1567.3 704L1568.7 765.2L1570 500.4L1571.3 577.2L1572.7 612.4L1574 654.4L1575.3 650.9L1576.7 797.1L1578 729L1579.3 771.6L1580.7 522.3L1582 597.1L1583.3 610.7L1584.7 679L1586 642L1587.3 784.4L1588.7 727.1L1590 773.4L1591.3 517.8L1592.7 542.7L1594 653.2L1595.3 570.2L1596.7 612.8L1598 720.3L1599.3 734.4L1600.7 726.6L1602 522.1L1603.3 512.6L1604.7 656.3L1606 622.6L1607.3 658.5L1608.7 710.9L1610 742.2L1611.3 711.6L1612.7 510.5L1614 505L1615.3 648.8L1616.7 612.5L1618 629.7L1619.3 707.4L1620.7 754.4L1622 699.6L1623.3 505.7L1624.7 440.7L1626 590.7L1627.3 550.3L1628.7 580.8L1630 691.7L1631.3 739.3L1632.7 735.1L1634 433.3L1635.3 501.5L1636.7 649.5L1638 615.1L1639.3 644.5L1640.7 713L1642 757.1L1643.3 734.9L1644.7 541.9L1646 480.3L1647.3 599L1648.7 563.9L1650 631.7L1651.3 690.9L1652.7 749.5L1654 699.9L1655.3 532.5L1656.7 516.8L1658 598.5L1659.3 587.5L1660.7 649.9L1662 705.1L1663.3 722.7L1664.7 711.2L1666 511.1L1667.3 502.3L1668.7 642.8L1670 583.4L1671.3 641.1L1672.7 715.2L1674 761.4L1675.3 729L1676.7 535.6L1678 503.2L1679.3 640.3L1680.7 620.5L1682 653.8L1683.3 716.3L1684.7 762.3L1686 727.9L1687.3 540.6L1688.7 537.9L1690 651.3L1691.3 633.8L1692.7 653.2L1694 723.3L1695.3 749.7L1696.7 716.4L1698 533L1699.3 530L1700.7 654.2L1702 607.2L1703.3 645.2L1704.7 741.2L1706 778L1707.3 737.9L1708.7 522L1710 503.4L1711.3 640.8L1712.7 615.4L1714 629.1L1715.3 704.8L1716.7 757.9L1718 728.6L1719.3 522L1720.7 527L1722 672.4L1723.3 595.3L1724.7 662.9L1726 714L1727.3 772.2L1728.7 734.1L1730 526.9L1731.3 499.3L1732.7 651.5L1734 601.8L1735.3 625.6L1736.7 667L1738 757.7L1739.3 714.7L1740.7 534.2L1742 479.8L1743.3 670L1744.7 636.3L1746 689.2L1747.3 733.7L1748.7 772.7L1750 722.2L1751.3 548.7L1752.7 498.8L1754 636.5L1755.3 631.7L1756.7 644.9L1758 705.1L1759.3 769.9L1760.7 740.6L1762 517.7L1763.3 538.2L1764.7 676L1766 631L1767.3 693.8L1768.7 726.4L1770 785.2L1771.3 714.2L1772.7 548.9L1774 533L1775.3 676L1776.7 607.7L1778 632.9L1779.3 734.8L1780.7 784.1L1782 732.6L1783.3 556.1L1784.7 555.4L1786 663.5L1787.3 603.4L1788.7 680.1L1790 720L1791.3 772.4L1792.7 739.8L1794 537.9L1795.3 524L1796.7 654L1798 624.5L1799.3 602.1" fill="transparent" stroke="#626c91" stroke-width="3" stroke-linejoin="bevel" class="zr8-cls-26"></path>
</g>
<path d="M-270.2 -5l540.5 0l0 28l-540.5 0Z" transform="translate(1000 5)" fill="rgb(0,0,0)" fill-opacity="0" stroke="#ccc" stroke-width="0" class="zr8-cls-24"></path>
<text dominant-baseline="central" text-anchor="middle" style="font-size:18px;font-family:sans-serif;font-weight:bold;" xml:space="preserve" y="9" transform="translate(1000 5)" fill="#666666">wholeUpdate per Tick for bench_4_every_240_staggered_reverse</text>
<defs >
<clipPath id="zr8-c0">
<path d="M198 58.5l16004 0l0 8703l-16004 0Z" fill="#000" class="zr8-cls-25"></path>
</clipPath>
<clipPath id="zr8-c1">
<path d="M198 58.5l16004 0l0 8703l-16004 0Z" fill="#000" class="zr8-cls-25"></path>
</clipPath>
<clipPath id="zr8-c2">
<path d="M198 58.5l16004 0l0 8703l-16004 0Z" fill="#000" class="zr8-cls-25"></path>
</clipPath>
</defs>
<style ><![CDATA[
.zr8-cls-24:hover {
pointer-events:none;
}
.zr8-cls-25:hover {
cursor:pointer;
fill:rgba(0,0,0,1);
}
.zr8-cls-26:hover {
cursor:pointer;
}

]]>

</style>
</svg>