<svg width="2000" height="1000" xmlns="http://www.w3.org/2000/svg" xmlns:xlink="http://www.w3.org/1999/xlink" version="1.1" baseProfile="full" viewBox="0 0 2000 1000">
<rect width="2000" height="1000" x="0" y="0" fill="rgb(252,252,252)" fill-opacity="0"></rect>
<path d="M200 930.5L1800 930.5" fill="transparent" stroke="#eeeeee" class="zr14-cls-42"></path>
<path d="M200 743.5L1800 743.5" fill="transparent" stroke="#eeeeee" class="zr14-cls-42"></path>
<path d="M200 556.5L1800 556.5" fill="transparent" stroke="#eeeeee" class="zr14-cls-42"></path>
<path d="M200 370.5L1800 370.5" fill="transparent" stroke="#eeeeee" class="zr14-cls-42"></path>
<path d="M200 183.5L1800 183.5" fill="transparent" stroke="#eeeeee" class="zr14-cls-42"></path>
<path d="M200 60.5L1800 60.5" fill="transparent" stroke="#eeeeee" class="zr14-cls-42"></path>
<path d="M200.5 930L200.5 60" fill="transparent" stroke="#cccccc" stroke-linecap="round" class="zr14-cls-42"></path>
<text dominant-baseline="central" text-anchor="middle" style="font-size:12px;font-family:sans-serif;" xml:space="preserve" y="-6" transform="translate(200 45)" fill="#cccccc">entityUpdate Time (ms)</text>
<path d="M200 930.5L1800 930.5" fill="transparent" stroke="#cccccc" stroke-linecap="round" class="zr14-cls-42"></path>
<text dominant-baseline="central" text-anchor="end" style="font-size:12px;font-family:sans-serif;" transform="translate(192 930)" fill="#999999">0.000</text>
<text dominant-baseline="central" text-anchor="end" style="font-size:12px;font-family:sans-serif;" transform="translate(192 743.2702)" fill="#999999">1.000</text>
<text dominant-baseline="central" text-anchor="end" style="font-size:12px;font-family:sans-serif;" transform="translate(192 556.5403)" fill="#999999">2.000</text>
<text dominant-baseline="central" text-anchor="end" style="font-size:12px;font-family:sans-serif;" transform="translate(192 369.8105)" fill="#999999">3.000</text>
<text dominant-baseline="central" text-anchor="end" style="font-size:12px;font-family:sans-serif;" transform="translate(192 183.0807)" fill="#999999">4.000</text>
<text dominant-baseline="central" text-anchor="end" style="font-size:12px;font-family:sans-serif;" transform="translate(192 60)" fill="#999999">4.659</text>
<text dominant-baseline="central" text-anchor="middle" style="font-size:12px;font-family:sans-serif;" y="6" transform="translate(200.6667 938)" fill="#999999">0</text>
<text dominant-baseline="central" text-anchor="middle" style="font-size:12px;font-family:sans-serif;" y="6" transform="translate(236.6667 938)" fill="#999999">27</text>
<text dominant-baseline="central" text-anchor="middle" style="font-size:12px;font-family:sans-serif;" y="6" transform="translate(272.6667 938)" fill="#999999">54</text>
<text dominant-baseline="central" text-anchor="middle" style="font-size:12px;font-family:sans-serif;" y="6" transform="translate(308.6667 938)" fill="#999999">81</text>
<text dominant-baseline="central" text-anchor="middle" style="font-size:12px;font-family:sans-serif;" y="6" transform="translate(344.6667 938)" fill="#999999">108</text>
<text dominant-baseline="central" text-anchor="middle" style="font-size:12px;font-family:sans-serif;" y="6" transform="translate(380.6667 938)" fill="#999999">135</text>
<text dominant-baseline="central" text-anchor="middle" style="font-size:12px;font-family:sans-serif;" y="6" transform="translate(416.6667 938)" fill="#999999">162</text>
<text dominant-baseline="central" text-anchor="middle" style="font-size:12px;font-family:sans-serif;" y="6" transform="translate(452.6667 938)" fill="#999999">189</text>
<text dominant-baseline="central" text-anchor="middle" style="font-size:12px;font-family:sans-serif;" y="6" transform="translate(488.6667 938)" fill="#999999">216</text>
<text dominant-baseline="central" text-anchor="middle" style="font-size:12px;font-family:sans-serif;" y="6" transform="translate(524.6667 938)" fill="#999999">243</text>
<text dominant-baseline="central" text-anchor="middle" style="font-size:12px;font-family:sans-serif;" y="6" transform="translate(560.6667 938)" fill="#999999">270</text>
<text dominant-baseline="central" text-anchor="middle" style="font-size:12px;font-family:sans-serif;" y="6" transform="translate(596.6667 938)" fill="#999999">297</text>
<text dominant-baseline="central" text-anchor="middle" style="font-size:12px;font-family:sans-serif;" y="6" transform="translate(632.6667 938)" fill="#999999">324</text>
<text dominant-baseline="central" text-anchor="middle" style="font-size:12px;font-family:sans-serif;" y="6" transform="translate(668.6667 938)" fill="#999999">351</text>
<text dominant-baseline="central" text-anchor="middle" style="font-size:12px;font-family:sans-serif;" y="6" transform="translate(704.6667 938)" fill="#999999">378</text>
<text dominant-baseline="central" text-anchor="middle" style="font-size:12px;font-family:sans-serif;" y="6" transform="translate(740.6667 938)" fill="#999999">405</text>
<text dominant-baseline="central" text-anchor="middle" style="font-size:12px;font-family:sans-serif;" y="6" transform="translate(776.6667 938)" fill="#999999">432</text>
<text dominant-baseline="central" text-anchor="middle" style="font-size:12px;font-family:sans-serif;" y="6" transform="translate(812.6667 938)" fill="#999999">459</text>
<text dominant-baseline="central" text-anchor="middle" style="font-size:12px;font-family:sans-serif;" y="6" transform="translate(848.6667 938)" fill="#999999">486</text>
<text dominant-baseline="central" text-anchor="middle" style="font-size:12px;font-family:sans-serif;" y="6" transform="translate(884.6667 938)" fill="#999999">513</text>
<text dominant-baseline="central" text-anchor="middle" style="font-size:12px;font-family:sans-serif;" y="6" transform="translate(920.6667 938)" fill="#999999">540</text>
<text dominant-baseline="central" text-anchor="middle" style="font-size:12px;font-family:sans-serif;" y="6" transform="translate(956.6667 938)" fill="#999999">567</text>
<text dominant-baseline="central" text-anchor="middle" style="font-size:12px;font-family:sans-serif;" y="6" transform="translate(992.6667 938)" fill="#999999">594</text>
<text dominant-baseline="central" text-anchor="middle" style="font-size:12px;font-family:sans-serif;" y="6" transform="translate(1028.6667 938)" fill="#999999">621</text>
<text dominant-baseline="central" text-anchor="middle" style="font-size:12px;font-family:sans-serif;" y="6" transform="translate(1064.6667 938)" fill="#999999">648</text>
<text dominant-baseline="central" text-anchor="middle" style="font-size:12px;font-family:sans-serif;" y="6" transform="translate(1100.6667 938)" fill="#999999">675</text>
<text dominant-baseline="central" text-anchor="middle" style="font-size:12px;font-family:sans-serif;" y="6" transform="translate(1136.6667 938)" fill="#999999">702</text>
<text dominant-baseline="central" text-anchor="middle" style="font-size:12px;font-family:sans-serif;" y="6" transform="translate(1172.6667 938)" fill="#999999">729</text>
<text dominant-baseline="central" text-anchor="middle" style="font-size:12px;font-family:sans-serif;" y="6" transform="translate(1208.6667 938)" fill="#999999">756</text>
<text dominant-baseline="central" text-anchor="middle" style="font-size:12px;font-family:sans-serif;" y="6" transform="translate(1244.6667 938)" fill="#999999">783</text>
<text dominant-baseline="central" text-anchor="middle" style="font-size:12px;font-family:sans-serif;" y="6" transform="translate(1280.6667 938)" fill="#999999">810</text>
<text dominant-baseline="central" text-anchor="middle" style="font-size:12px;font-family:sans-serif;" y="6" transform="translate(1316.6667 938)" fill="#999999">837</text>
<text dominant-baseline="central" text-anchor="middle" style="font-size:12px;font-family:sans-serif;" y="6" transform="translate(1352.6667 938)" fill="#999999">864</text>
<text dominant-baseline="central" text-anchor="middle" style="font-size:12px;font-family:sans-serif;" y="6" transform="translate(1388.6667 938)" fill="#999999">891</text>
<text dominant-baseline="central" text-anchor="middle" style="font-size:12px;font-family:sans-serif;" y="6" transform="translate(1424.6667 938)" fill="#999999">918</text>
<text dominant-baseline="central" text-anchor="middle" style="font-size:12px;font-family:sans-serif;" y="6" transform="translate(1460.6667 938)" fill="#999999">945</text>
<text dominant-baseline="central" text-anchor="middle" style="font-size:12px;font-family:sans-serif;" y="6" transform="translate(1496.6667 938)" fill="#999999">972</text>
<text dominant-baseline="central" text-anchor="middle" style="font-size:12px;font-family:sans-serif;" y="6" transform="translate(1532.6667 938)" fill="#999999">999</text>
<text dominant-baseline="central" text-anchor="middle" style="font-size:12px;font-family:sans-serif;" y="6" transform="translate(1568.6667 938)" fill="#999999">1026</text>
<text dominant-baseline="central" text-anchor="middle" style="font-size:12px;font-family:sans-serif;" y="6" transform="translate(1604.6667 938)" fill="#999999">1053</text>
<text dominant-baseline="central" text-anchor="middle" style="font-size:12px;font-family:sans-serif;" y="6" transform="translate(1640.6667 938)" fill="#999999">1080</text>
<text dominant-baseline="central" text-anchor="middle" style="font-size:12px;font-family:sans-serif;" y="6" transform="translate(1676.6667 938)" fill="#999999">1107</text>
<text dominant-baseline="central" text-anchor="middle" style="font-size:12px;font-family:sans-serif;" y="6" transform="translate(1712.6667 938)" fill="#999999">1134</text>
<text dominant-baseline="central" text-anchor="middle" style="font-size:12px;font-family:sans-serif;" y="6" transform="translate(1748.6667 938)" fill="#999999">1161</text>
<text dominant-baseline="central" text-anchor="middle" style="font-size:12px;font-family:sans-serif;" y="6" transform="translate(1784.6667 938)" fill="#999999">1188</text>
<g clip-path="url(#zr14-c0)">
<path d="M200.7 555.8L202 801.7L203.3 783.4L204.7 609.4L206 660.5L207.3 645.2L208.7 722.4L210 682.8L211.3 843.3L212.7 766L214 836.2L215.3 605.7L216.7 621.4L218 677.7L219.3 723.3L220.7 648.7L222 841.3L223.3 796.2L224.7 844.9L226 608.7L227.3 635.2L228.7 660.1L230 710.4L231.3 705.7L232.7 831.2L234 788.6L235.3 839.7L236.7 602.1L238 614.8L239.3 662.6L240.7 723.4L242 719.6L243.3 837.6L244.7 772.8L246 821.5L247.3 590.7L248.7 630.9L250 695.4L251.3 752.7L252.7 704.4L254 817.6L255.3 796.7L256.7 844L258 602.2L259.3 569.8L260.7 663.7L262 721.2L263.3 656.1L264.7 806.5L266 756.1L267.3 836.3L268.7 615.8L270 601.3L271.3 658.3L272.7 720.2L274 703.4L275.3 823.4L276.7 767.4L278 826L279.3 586.8L280.7 632.3L282 577.8L283.3 731.6L284.7 687.7L286 821.3L287.3 766.6L288.7 837.1L290 627.4L291.3 596.8L292.7 699.3L294 730.1L295.3 730.3L296.7 804.5L298 796.8L299.3 837.3L300.7 605.8L302 632.5L303.3 670.8L304.7 731L306 702.6L307.3 842.4L308.7 797.1L310 844.5L311.3 595.8L312.7 532.7L314 796.4L315.3 669.7L316.7 745L318 771.3L319.3 827.6L320.7 783.7L322 655.8L323.3 514.5L324.7 672.8L326 659.1L327.3 706.1L328.7 762.2L330 801L331.3 763.1L332.7 624.5L334 569.9L335.3 676L336.7 681.7L338 754.6L339.3 781.7L340.7 815.1L342 761.4L343.3 635.8L344.7 566.6L346 688L347.3 612L348.7 694L350 786.1L351.3 814.9L352.7 783.6L354 620.5L355.3 539.7L356.7 721.9L358 619.4L359.3 751.5L360.7 758.5L362 836.4L363.3 763L364.7 599.1L366 517.7L367.3 714.1L368.7 659.7L370 666.5L371.3 757.6L372.7 832.8L374 784.4L375.3 637.5L376.7 547.9L378 717.8L379.3 701.2L380.7 722.7L382 775.4L383.3 829.8L384.7 789.4L386 636.3L387.3 551.3L388.7 678.2L390 661.4L391.3 726.7L392.7 755.8L394 806.8L395.3 775.2L396.7 640.9L398 572.7L399.3 682.7L400.7 659.9L402 745.1L403.3 791.3L404.7 821.9L406 779.3L407.3 628.6L408.7 556.1L410 683.9L411.3 632.1L412.7 717.5L414 755.2L415.3 840.3L416.7 780.2L418 611.4L419.3 552.7L420.7 724.5L422 675.5L423.3 728.3L424.7 762.5L426 819L427.3 789.9L428.7 642L430 518.4L431.3 697.7L432.7 644.7L434 757.9L435.3 761.8L436.7 834.2L438 792.4L439.3 630.3L440.7 542.1L442 630L443.3 631.2L444.7 746.9L446 760.6L447.3 817.4L448.7 739.6L450 633L451.3 554.7L452.7 665.5L454 637.3L455.3 748.3L456.7 789.3L458 833.6L459.3 781L460.7 622.2L462 555.9L463.3 726.7L464.7 695.5L466 759.6L467.3 760.2L468.7 822.1L470 764.8L471.3 646.4L472.7 436.5L474 694.8L475.3 659.3L476.7 742L478 756.3L479.3 820.5L480.7 761.5L482 649.2L483.3 551.2L484.7 715.9L486 640.3L487.3 733.4L488.7 765.1L490 842.6L491.3 775.5L492.7 633.6L494 575L495.3 691.8L496.7 654.3L498 721L499.3 759.7L500.7 823.5L502 785.3L503.3 633.7L504.7 573.6L506 727.6L507.3 695.2L508.7 714.9L510 771.9L511.3 826L512.7 762L514 653L515.3 491.9L516.7 705.7L518 657.4L519.3 662.9L520.7 702.6L522 817.1L523.3 783.8L524.7 638.8L526 660.4L527.3 654.9L528.7 707.7L530 707.8L531.3 834.8L532.7 764.7L534 831.3L535.3 587.4L536.7 630.5L538 629.7L539.3 715.6L540.7 669.8L542 814.1L543.3 785.5L544.7 838.8L546 602.2L547.3 605.9L548.7 672.7L550 756.9L551.3 692.3L552.7 821.1L554 788.5L555.3 843.2L556.7 605.4L558 615.3L559.3 613L560.7 727.2L562 709.3L563.3 843.9L564.7 798.2L566 822.7L567.3 551.9L568.7 620.1L570 691.6L571.3 762L572.7 682.1L574 839.2L575.3 780.2L576.7 824.4L578 586.9L579.3 613.7L580.7 630L582 727.1L583.3 722.4L584.7 825.7L586 759.1L587.3 819.6L588.7 604.6L590 597.9L591.3 665L592.7 713.5L594 694.4L595.3 813.6L596.7 782.7L598 826.3L599.3 590.3L600.7 604.1L602 656.3L603.3 764.6L604.7 698.1L606 837.1L607.3 788.6L608.7 843.5L610 597.1L611.3 643.8L612.7 679.5L614 723.6L615.3 698.9L616.7 827L618 768.6L619.3 845.2L620.7 576.7L622 612.5L623.3 652.6L624.7 743L626 727L627.3 838.6L628.7 778.2L630 841.8L631.3 624.4L632.7 579.6L634 782.8L635.3 615.1L636.7 702.3L638 758.5L639.3 831.8L640.7 776.7L642 653.8L643.3 548L644.7 677.9L646 648L647.3 703.7L648.7 764.2L650 814.4L651.3 765.5L652.7 608.8L654 537.1L655.3 727L656.7 626.4L658 735.2L659.3 755.6L660.7 834.4L662 757.4L663.3 610.9L664.7 532.5L666 684.8L667.3 628.8L668.7 702.5L670 777.7L671.3 831.1L672.7 754.9L674 605.1L675.3 518.4L676.7 689.8L678 644.6L679.3 706.5L680.7 745.1L682 813.2L683.3 787.5L684.7 640.6L686 516.2L687.3 691.4L688.7 631.3L690 708.3L691.3 749L692.7 814.4L694 776.2L695.3 632.9L696.7 488.3L698 694.7L699.3 639.9L700.7 736.3L702 772L703.3 830.5L704.7 784.7L706 616.1L707.3 539.2L708.7 667.1L710 640.6L711.3 694.3L712.7 761.9L714 828.4L715.3 751.2L716.7 638.6L718 543.2L719.3 717L720.7 681.9L722 735L723.3 790.9L724.7 840.7L726 783.5L727.3 581.2L728.7 541.7L730 692.4L731.3 660.5L732.7 718.2L734 760L735.3 819.6L736.7 791.6L738 630L739.3 551.3L740.7 685.1L742 660.9L743.3 720.6L744.7 759L746 838.1L747.3 794.3L748.7 649.2L750 490.4L751.3 660.7L752.7 672.7L754 752.3L755.3 754.5L756.7 818L758 789.9L759.3 647L760.7 577L762 690.4L763.3 676.4L764.7 767.1L766 788.5L767.3 821.3L768.7 793.8L770 645L771.3 566.2L772.7 676.5L774 637.9L775.3 699.4L776.7 790.5L778 842.2L779.3 795.8L780.7 636.3L782 567.9L783.3 718.2L784.7 670.4L786 748.2L787.3 746.9L788.7 830.1L790 763.7L791.3 644L792.7 549.2L794 675.4L795.3 669.6L796.7 729.9L798 781.9L799.3 828L800.7 775.4L802 632.5L803.3 578.4L804.7 752.4L806 686.2L807.3 740.2L808.7 787.4L810 832.7L811.3 766.8L812.7 628.6L814 547.9L815.3 710.4L816.7 649.9L818 698L819.3 773.1L820.7 835.6L822 788.4L823.3 657.4L824.7 547.4L826 737.3L827.3 672.1L828.7 748.2L830 786.5L831.3 790.9L832.7 761L834 630.6L835.3 572.4L836.7 681.9L838 638.7L839.3 684.2L840.7 709.2L842 838.5L843.3 757.3L844.7 627.3L846 680.3L847.3 648.3L848.7 706.5L850 671.6L851.3 838.9L852.7 793.6L854 841L855.3 523L856.7 598.7L858 641.5L859.3 740.8L860.7 674L862 832.8L863.3 788.6L864.7 837.1L866 605.8L867.3 627.4L868.7 670.2L870 728.1L871.3 675.1L872.7 838.9L874 784.9L875.3 843.7L876.7 604.6L878 613.2L879.3 671.4L880.7 696.4L882 698.3L883.3 822.7L884.7 796.5L886 826.1L887.3 608.9L888.7 614L890 635.4L891.3 714.7L892.7 688.7L894 810.8L895.3 751.4L896.7 824.1L898 618.1L899.3 595.5L900.7 639L902 737.2L903.3 659.1L904.7 808.7L906 794.9L907.3 840.9L908.7 594.1L910 602.4L911.3 663.8L912.7 713.9L914 719.2L915.3 839.6L916.7 764.2L918 842.1L919.3 583.2L920.7 619L922 668L923.3 712L924.7 716.8L926 840.5L927.3 766.3L928.7 836.9L930 609.5L931.3 654.2L932.7 661.3L934 724.9L935.3 689.2L936.7 818.3L938 792.5L939.3 820.2L940.7 578.2L942 592.1L943.3 663.3L944.7 741.3L946 705.3L947.3 802.7L948.7 784.9L950 829.4L951.3 628.3L952.7 548.1L954 776.4L955.3 649.5L956.7 733.3L958 750.5L959.3 831.6L960.7 767L962 626.8L963.3 533L964.7 670.5L966 616.1L967.3 719.5L968.7 778.3L970 832.5L971.3 785.4L972.7 609.3L974 547.7L975.3 692.5L976.7 588.5L978 716.8L979.3 750.6L980.7 826.8L982 772.3L983.3 592L984.7 537.9L986 681.8L987.3 655.8L988.7 712.9L990 745.1L991.3 834.2L992.7 783.8L994 594L995.3 561.5L996.7 718.8L998 693.3L999.3 723.8L1000.7 776L1002 830.8L1003.3 789.7L1004.7 616.3L1006 492.7L1007.3 706.4L1008.7 636.3L1010 718.2L1011.3 767L1012.7 808.5L1014 784.6L1015.3 624.1L1016.7 517.7L1018 695.2L1019.3 686.4L1020.7 741.7L1022 746L1023.3 824.7L1024.7 744.4L1026 628.8L1027.3 491.1L1028.7 671.5L1030 640.7L1031.3 691.8L1032.7 736.6L1034 823.7L1035.3 779.9L1036.7 635.5L1038 564.5L1039.3 678.5L1040.7 631.9L1042 744.2L1043.3 788.6L1044.7 825.7L1046 787.2L1047.3 625.6L1048.7 576.8L1050 680.8L1051.3 658.2L1052.7 743.3L1054 755.7L1055.3 838.7L1056.7 775.9L1058 624.3L1059.3 583.6L1060.7 718.9L1062 640.9L1063.3 735.7L1064.7 778.9L1066 807.7L1067.3 750.8L1068.7 601.4L1070 525.2L1071.3 695.5L1072.7 648.3L1074 728.3L1075.3 771.8L1076.7 822.7L1078 789L1079.3 632.1L1080.7 535.4L1082 690.3L1083.3 688.4L1084.7 743.9L1086 773.3L1087.3 837.9L1088.7 794L1090 639.3L1091.3 546.5L1092.7 694.4L1094 690.1L1095.3 735.5L1096.7 793.6L1098 821.2L1099.3 774.7L1100.7 641.1L1102 572.7L1103.3 676.5L1104.7 639.6L1106 738.3L1107.3 791.1L1108.7 841.4L1110 792.1L1111.3 601.2L1112.7 526.6L1114 672.8L1115.3 657.2L1116.7 723.9L1118 757L1119.3 825.6L1120.7 761.6L1122 650.5L1123.3 558.7L1124.7 714L1126 679.7L1127.3 757.3L1128.7 777.6L1130 834.8L1131.3 786.6L1132.7 634L1134 510.8L1135.3 669.1L1136.7 690.7L1138 759.7L1139.3 789.9L1140.7 841.9L1142 782.1L1143.3 630.7L1144.7 596.3L1146 749.7L1147.3 682.9L1148.7 712.6L1150 760.5L1151.3 836.3L1152.7 762.2L1154 634.7L1155.3 527.6L1156.7 694.2L1158 711.5L1159.3 685L1160.7 734.6L1162 819.2L1163.3 766.3L1164.7 624.1L1166 674.2L1167.3 658.1L1168.7 701.3L1170 666.2L1171.3 838.7L1172.7 713.1L1174 833.8L1175.3 594.4L1176.7 600.3L1178 627.8L1179.3 745.2L1180.7 699.7L1182 831.1L1183.3 771.4L1184.7 841.6L1186 585.6L1187.3 629.2L1188.7 657.2L1190 701L1191.3 662.2L1192.7 837.5L1194 777.4L1195.3 839.3L1196.7 609.5L1198 558.7L1199.3 647.3L1200.7 720.7L1202 693L1203.3 841.1L1204.7 773.7L1206 837.5L1207.3 608.6L1208.7 651.9L1210 672.3L1211.3 736.6L1212.7 708.9L1214 837.3L1215.3 794.7L1216.7 842.9L1218 582.6L1219.3 607.9L1220.7 666.4L1222 719.1L1223.3 709.7L1224.7 813.6L1226 789.2L1227.3 825.2L1228.7 603.1L1230 641.5L1231.3 674.2L1232.7 721.4L1234 688.6L1235.3 809.1L1236.7 768L1238 844.3L1239.3 604.4L1240.7 623.8L1242 628.3L1243.3 710.9L1244.7 676.9L1246 833L1247.3 788.1L1248.7 825L1250 617.6L1251.3 598.3L1252.7 677.1L1254 741.1L1255.3 690.5L1256.7 842.6L1258 763.3L1259.3 831.1L1260.7 606.7L1262 583L1263.3 674.8L1264.7 696.9L1266 680.2L1267.3 825.5L1268.7 767.3L1270 825.4L1271.3 583L1272.7 565L1274 801.7L1275.3 646.9L1276.7 713.1L1278 772.6L1279.3 823.5L1280.7 782.4L1282 648.6L1283.3 525.9L1284.7 697.4L1286 669.5L1287.3 684.4L1288.7 769.5L1290 819.9L1291.3 784.3L1292.7 637.1L1294 515.3L1295.3 683.5L1296.7 640L1298 751.9L1299.3 772.9L1300.7 827.9L1302 779.5L1303.3 635L1304.7 499.5L1306 678.3L1307.3 645.8L1308.7 740.5L1310 790.6L1311.3 814.5L1312.7 779L1314 602.8L1315.3 529.6L1316.7 678.5L1318 648.2L1319.3 755.1L1320.7 783.8L1322 828.9L1323.3 789.4L1324.7 626.3L1326 563.2L1327.3 682.9L1328.7 632.6L1330 725L1331.3 770.9L1332.7 839.2L1334 763.4L1335.3 586.8L1336.7 510L1338 689.8L1339.3 651.4L1340.7 722.8L1342 776.7L1343.3 832.8L1344.7 792.2L1346 624.3L1347.3 525.3L1348.7 675.3L1350 703.6L1351.3 723.6L1352.7 762.9L1354 831.6L1355.3 792.1L1356.7 624.5L1358 536.3L1359.3 722.4L1360.7 637.9L1362 740.2L1363.3 761.4L1364.7 818.1L1366 790.8L1367.3 634.2L1368.7 513.5L1370 693.2L1371.3 674L1372.7 737.8L1374 786.1L1375.3 837.2L1376.7 786L1378 635.6L1379.3 546.8L1380.7 691.1L1382 623.1L1383.3 728.4L1384.7 774.4L1386 825L1387.3 764.8L1388.7 628.8L1390 541L1391.3 686.1L1392.7 639.8L1394 731.9L1395.3 767L1396.7 817.9L1398 788.8L1399.3 649.7L1400.7 548.2L1402 704.9L1403.3 656L1404.7 771.4L1406 717.9L1407.3 819.3L1408.7 793.8L1410 622.6L1411.3 509.7L1412.7 653.2L1414 596L1415.3 726.1L1416.7 782.4L1418 829.9L1419.3 727.7L1420.7 612.7L1422 499L1423.3 675.5L1424.7 624.6L1426 704.7L1427.3 690.5L1428.7 778.4L1430 761.3L1431.3 575.2L1432.7 497.8L1434 659L1435.3 646L1436.7 704.4L1438 703.8L1439.3 822.3L1440.7 754.4L1442 523.2L1443.3 373.1L1444.7 728.9L1446 668.3L1447.3 698.5L1448.7 773.5L1450 835.7L1451.3 776.2L1452.7 610.6L1454 486.8L1455.3 704.9L1456.7 688.7L1458 731.6L1459.3 744.2L1460.7 822.1L1462 755.4L1463.3 573L1464.7 528.9L1466 697L1467.3 694.4L1468.7 754L1470 778.1L1471.3 833L1472.7 790.8L1474 612.2L1475.3 368L1476.7 700.5L1478 627.3L1479.3 664.7L1480.7 714.6L1482 790.4L1483.3 753.3L1484.7 616.1L1486 682.4L1487.3 657.2L1488.7 734L1490 662.4L1491.3 829.5L1492.7 779.1L1494 828.5L1495.3 546.8L1496.7 606.9L1498 649.3L1499.3 707.3L1500.7 657.2L1502 833.5L1503.3 786.6L1504.7 840.2L1506 511.8L1507.3 577.8L1508.7 680.9L1510 700.1L1511.3 699.2L1512.7 832L1514 784L1515.3 799.4L1516.7 459L1518 367.6L1519.3 421.9L1520.7 532.1L1522 494.8L1523.3 779L1524.7 730.9L1526 824L1527.3 550.5L1528.7 609.2L1530 551.8L1531.3 538.3L1532.7 633.1L1534 826.8L1535.3 790.2L1536.7 839.3L1538 569L1539.3 626.7L1540.7 661.7L1542 748.3L1543.3 715.2L1544.7 821.6L1546 792.2L1547.3 842.3L1548.7 554.1L1550 640.7L1551.3 690.4L1552.7 729.1L1554 671.5L1555.3 831.3L1556.7 791L1558 824L1559.3 563.8L1560.7 542.8L1562 646.7L1563.3 694.8L1564.7 711.1L1566 823.4L1567.3 723.6L1568.7 821.9L1570 521.8L1571.3 605.8L1572.7 686.7L1574 744.7L1575.3 695.5L1576.7 839.5L1578 765.7L1579.3 843.9L1580.7 591.7L1582 643.4L1583.3 680.1L1584.7 728.7L1586 717.8L1587.3 837L1588.7 788.9L1590 842.5L1591.3 627L1592.7 546.2L1594 767.8L1595.3 618.8L1596.7 729.8L1598 777.2L1599.3 803.5L1600.7 775.1L1602 628.5L1603.3 505.7L1604.7 625.6L1606 648.5L1607.3 723.5L1608.7 770.3L1610 822.2L1611.3 775.9L1612.7 604.6L1614 545L1615.3 663.1L1616.7 666.9L1618 752.5L1619.3 780.3L1620.7 801.3L1622 756.1L1623.3 607.1L1624.7 548.2L1626 643.9L1627.3 646L1628.7 714.1L1630 775.7L1631.3 803.2L1632.7 758.2L1634 622.5L1635.3 531.4L1636.7 689.4L1638 635.6L1639.3 733.1L1640.7 780.1L1642 833.6L1643.3 774.4L1644.7 625.5L1646 493.1L1647.3 690L1648.7 621.1L1650 723L1651.3 762.8L1652.7 830.2L1654 780.8L1655.3 612.7L1656.7 541.2L1658 738.9L1659.3 665.6L1660.7 715.8L1662 787.1L1663.3 818.7L1664.7 785.7L1666 598.1L1667.3 534.8L1668.7 694.7L1670 649.4L1671.3 677.3L1672.7 779.3L1674 833.8L1675.3 738.8L1676.7 562.8L1678 557.5L1679.3 689.2L1680.7 671.9L1682 706.7L1683.3 736.7L1684.7 822.1L1686 774.7L1687.3 630L1688.7 537.9L1690 670.5L1691.3 627.9L1692.7 715.3L1694 747.6L1695.3 820.6L1696.7 751.7L1698 623L1699.3 534.8L1700.7 714.1L1702 671.9L1703.3 745.9L1704.7 782.1L1706 827.1L1707.3 768.7L1708.7 619.1L1710 529.8L1711.3 694.5L1712.7 660.1L1714 733.7L1715.3 758.5L1716.7 817.3L1718 774.9L1719.3 622.7L1720.7 571.1L1722 692.2L1723.3 667.1L1724.7 719.3L1726 759.6L1727.3 841.2L1728.7 795.2L1730 593.3L1731.3 508.5L1732.7 695.3L1734 665.6L1735.3 711.8L1736.7 777.9L1738 818.6L1739.3 761L1740.7 627.9L1742 551.5L1743.3 719.5L1744.7 620.8L1746 723.9L1747.3 764.8L1748.7 816.5L1750 782.6L1751.3 645.7L1752.7 517.5L1754 658.9L1755.3 636.2L1756.7 730.2L1758 752.7L1759.3 821L1760.7 766.8L1762 651L1763.3 578.9L1764.7 722.1L1766 702.7L1767.3 765.1L1768.7 794.9L1770 844.1L1771.3 768.2L1772.7 622.8L1774 524.3L1775.3 710L1776.7 640.1L1778 731.6L1779.3 782.2L1780.7 837.1L1782 792.1L1783.3 657.4L1784.7 542.7L1786 701.7L1787.3 687.4L1788.7 753.4L1790 734L1791.3 833.5L1792.7 786.3L1794 610.3L1795.3 581L1796.7 691.7L1798 643.7L1799.3 651.4" fill="transparent" stroke="#3fb1e3" stroke-width="3" stroke-linejoin="bevel" class="zr14-cls-44"></path>
</g>
<g clip-path="url(#zr14-c1)">
<path d="M200.7 552.2L202 806.3L203.3 790L204.7 627.9L206 660.9L207.3 678.4L208.7 730.3L210 729.5L211.3 835.8L212.7 785.5L214 838.7L215.3 603L216.7 629.7L218 678L219.3 694L220.7 709L222 824.6L223.3 786L224.7 842L226 599.4L227.3 570.2L228.7 662.5L230 697.8L231.3 664.9L232.7 817.4L234 764.5L235.3 836.1L236.7 600.1L238 576.7L239.3 627.1L240.7 721.4L242 683.6L243.3 826.6L244.7 794.9L246 846.1L247.3 622.9L248.7 638.8L250 691.5L251.3 738.2L252.7 694.2L254 845.4L255.3 771.2L256.7 845.6L258 589.3L259.3 619.1L260.7 650.4L262 748.6L263.3 667.4L264.7 822.9L266 795.8L267.3 844.6L268.7 627.2L270 633.7L271.3 689.3L272.7 760.9L274 699L275.3 845L276.7 795.5L278 827.1L279.3 632L280.7 637.9L282 650L283.3 770.1L284.7 672.3L286 841.4L287.3 796L288.7 845.8L290 638.6L291.3 632.4L292.7 679.5L294 774L295.3 740.9L296.7 827.1L298 799.9L299.3 846.3L300.7 599.2L302 621.7L303.3 642.8L304.7 752.6L306 671.7L307.3 823.4L308.7 795.7L310 843.3L311.3 638.5L312.7 550.5L314 781.8L315.3 619.5L316.7 700.8L318 774.4L319.3 829.3L320.7 764.6L322 615.8L323.3 535.8L324.7 672L326 671.6L327.3 746.4L328.7 776.3L330 819.4L331.3 787.2L332.7 604.2L334 546.4L335.3 698.9L336.7 682.3L338 758.7L339.3 787.2L340.7 829.3L342 790.7L343.3 658.2L344.7 558L346 685L347.3 637.3L348.7 702.7L350 778.9L351.3 818.9L352.7 789.1L354 643.2L355.3 533.1L356.7 705.9L358 653.3L359.3 725.5L360.7 755.1L362 835.6L363.3 791.8L364.7 647.1L366 566.7L367.3 696.2L368.7 685.4L370 748.6L371.3 761.1L372.7 839L374 770.6L375.3 588.7L376.7 506.9L378 699L379.3 642.3L380.7 730.1L382 767L383.3 830.7L384.7 775.8L386 620.3L387.3 562.4L388.7 722.7L390 661.5L391.3 717.9L392.7 744.2L394 831.2L395.3 756.6L396.7 630.4L398 549.2L399.3 718.5L400.7 648L402 741L403.3 777.3L404.7 833.6L406 774.8L407.3 634.9L408.7 564.1L410 708.9L411.3 681.7L412.7 693.6L414 765.1L415.3 837.1L416.7 759L418 620.4L419.3 578.5L420.7 693.7L422 685.1L423.3 727.2L424.7 756.8L426 820.8L427.3 763.3L428.7 645.1L430 519.8L431.3 691.7L432.7 656.2L434 699.8L435.3 756.4L436.7 815.9L438 792.2L439.3 654.5L440.7 525.8L442 725.1L443.3 681.4L444.7 772.7L446 783.2L447.3 841.6L448.7 790.8L450 640.9L451.3 561.6L452.7 703.2L454 668.5L455.3 732.8L456.7 781L458 826.4L459.3 791.4L460.7 637.2L462 576L463.3 724.1L464.7 681L466 756.3L467.3 763.5L468.7 824.2L470 791.7L471.3 633.2L472.7 484.3L474 686L475.3 662.9L476.7 755.8L478 750.8L479.3 835.8L480.7 794L482 655.4L483.3 559.4L484.7 709L486 688.2L487.3 733.2L488.7 766.9L490 836.4L491.3 791.1L492.7 635.9L494 578.6L495.3 717.8L496.7 676.7L498 740.2L499.3 792.8L500.7 842.1L502 793.1L503.3 667.2L504.7 566L506 724.8L507.3 702.2L508.7 774.5L510 765.3L511.3 842.6L512.7 777.4L514 661.1L515.3 529.9L516.7 690.5L518 665.1L519.3 687.7L520.7 737.6L522 817.3L523.3 787.8L524.7 654.3L526 669.7L527.3 688.4L528.7 704.4L530 673.9L531.3 810.5L532.7 795.1L534 821.3L535.3 570.8L536.7 608.2L538 670.3L539.3 733.3L540.7 719L542 825.3L543.3 764.9L544.7 827.2L546 600L547.3 593.8L548.7 657.1L550 723.6L551.3 694.3L552.7 833.5L554 797.7L555.3 826.9L556.7 591L558 579.4L559.3 638.3L560.7 737.2L562 646.2L563.3 822.1L564.7 794.9L566 844.2L567.3 618L568.7 631.4L570 640.1L571.3 744.8L572.7 694.4L574 840.7L575.3 770.6L576.7 843L578 632L579.3 591L580.7 688L582 723L583.3 689.5L584.7 824.2L586 798.6L587.3 844.8L588.7 621.7L590 643.7L591.3 659.1L592.7 756.8L594 691.9L595.3 844L596.7 797.9L598 843.3L599.3 634.3L600.7 630.6L602 647.9L603.3 726.1L604.7 701.9L606 826.9L607.3 798.2L608.7 817.9L610 632L611.3 644.8L612.7 665.2L614 768.9L615.3 740.5L616.7 845.1L618 769.4L619.3 825.3L620.7 630.8L622 589L623.3 679.6L624.7 749.8L626 674.5L627.3 842L628.7 798L630 845.5L631.3 596.2L632.7 573.1L634 757.6L635.3 628.6L636.7 695.4L638 772.6L639.3 817L640.7 784.3L642 661.9L643.3 547.1L644.7 665.8L646 601.9L647.3 701.1L648.7 760.9L650 803.8L651.3 775.7L652.7 623.9L654 527.2L655.3 680.9L656.7 665.9L658 723.2L659.3 755L660.7 825.4L662 759.9L663.3 628.7L664.7 546.4L666 691.7L667.3 656.2L668.7 715.3L670 758.8L671.3 824L672.7 784.9L674 648.7L675.3 573.4L676.7 740.4L678 658.7L679.3 727.1L680.7 770.9L682 821.9L683.3 763.1L684.7 620.6L686 559.1L687.3 676.4L688.7 686.2L690 731.2L691.3 742.2L692.7 835.6L694 764.6L695.3 647L696.7 574.9L698 731.8L699.3 683.5L700.7 747.1L702 756.1L703.3 837.8L704.7 789.3L706 647L707.3 543.5L708.7 674.1L710 668.7L711.3 715.7L712.7 770.1L714 828.3L715.3 772L716.7 611.5L718 552.1L719.3 698.2L720.7 660.9L722 738.8L723.3 783.7L724.7 822.7L726 792.9L727.3 598.4L728.7 528.5L730 729.5L731.3 673.3L732.7 727.6L734 754L735.3 837.2L736.7 794.1L738 619.7L739.3 569L740.7 718.2L742 675.2L743.3 776L744.7 758.4L746 840.2L747.3 768.7L748.7 652.9L750 563.4L751.3 677.3L752.7 669.5L754 708.5L755.3 788.8L756.7 821.8L758 761.1L759.3 611L760.7 520L762 690.6L763.3 626.1L764.7 764.3L766 760.2L767.3 825.5L768.7 794.6L770 632L771.3 546.4L772.7 707L774 704.2L775.3 758.8L776.7 764.6L778 844.4L779.3 796.7L780.7 669.3L782 582L783.3 747.7L784.7 710.2L786 736L787.3 795.5L788.7 845L790 764.4L791.3 641.7L792.7 525.8L794 721.8L795.3 671L796.7 711.8L798 782.6L799.3 838.9L800.7 791.7L802 648.5L803.3 518.7L804.7 700.2L806 648L807.3 757.5L808.7 771.5L810 828.9L811.3 789.7L812.7 662.6L814 544L815.3 694.7L816.7 673.5L818 719.1L819.3 772L820.7 822.2L822 790.6L823.3 664.2L824.7 598.3L826 710.8L827.3 703.6L828.7 725.1L830 765.3L831.3 843.2L832.7 795.8L834 650.7L835.3 513.9L836.7 731.5L838 688.8L839.3 668.4L840.7 740.8L842 842.1L843.3 769L844.7 634L846 681.6L847.3 654.1L848.7 752.8L850 695.5L851.3 842.3L852.7 766.6L854 840.3L855.3 614.6L856.7 592.9L858 651.9L859.3 740L860.7 661.2L862 843.3L863.3 769.1L864.7 827.4L866 618.2L867.3 629L868.7 656.3L870 729.3L871.3 701.1L872.7 842.3L874 798.4L875.3 827.8L876.7 635.6L878 599.8L879.3 611.6L880.7 724.2L882 648L883.3 824.2L884.7 798L886 845.8L887.3 575.6L888.7 618.5L890 673L891.3 719.7L892.7 703.4L894 836.8L895.3 764.5L896.7 834.8L898 621.6L899.3 632.3L900.7 687.7L902 741.8L903.3 678.3L904.7 809.3L906 795.1L907.3 823.7L908.7 626.3L910 622.6L911.3 684.5L912.7 735.2L914 694.5L915.3 823.8L916.7 797.8L918 827.7L919.3 632.2L920.7 618.1L922 654.6L923.3 769.2L924.7 690.9L926 844.3L927.3 793.7L928.7 845.3L930 636.4L931.3 660.9L932.7 685.6L934 739L935.3 732L936.7 843.1L938 769.7L939.3 826.8L940.7 644L942 606.3L943.3 670.3L944.7 757.3L946 717.4L947.3 825.2L948.7 769.3L950 844.9L951.3 620.5L952.7 562.5L954 792.1L955.3 654.5L956.7 723.3L958 757.6L959.3 835.4L960.7 787.5L962 637.9L963.3 522.1L964.7 709.6L966 627.3L967.3 684.6L968.7 757.7L970 806.3L971.3 779.6L972.7 629L974 544.6L975.3 715.2L976.7 607.9L978 719.4L979.3 771.4L980.7 814.4L982 778L983.3 638.8L984.7 537.8L986 669.2L987.3 652.4L988.7 692.5L990 772.3L991.3 828.4L992.7 787.4L994 623.9L995.3 531.1L996.7 701.1L998 684.1L999.3 769.1L1000.7 791.6L1002 818.7L1003.3 761.6L1004.7 617.7L1006 519.6L1007.3 721.9L1008.7 687.5L1010 751.6L1011.3 790.3L1012.7 840.5L1014 763.9L1015.3 630.2L1016.7 565.1L1018 723.8L1019.3 660L1020.7 714.1L1022 770.8L1023.3 816.2L1024.7 789.1L1026 656.2L1027.3 540.6L1028.7 677.4L1030 665.9L1031.3 743.7L1032.7 781.9L1034 836.3L1035.3 786L1036.7 653.1L1038 539.8L1039.3 688.2L1040.7 678.8L1042 720.9L1043.3 767.9L1044.7 825.3L1046 771.2L1047.3 637.9L1048.7 548.8L1050 667.9L1051.3 645.7L1052.7 718.9L1054 752.6L1055.3 824.6L1056.7 764.1L1058 621.8L1059.3 563.4L1060.7 747.5L1062 700.6L1063.3 730.3L1064.7 785.9L1066 841.8L1067.3 795.8L1068.7 660.6L1070 513.6L1071.3 676.4L1072.7 706.1L1074 758.9L1075.3 761.1L1076.7 839.2L1078 764.9L1079.3 639.2L1080.7 538L1082 732.4L1083.3 672L1084.7 771.2L1086 790.4L1087.3 827.3L1088.7 790.5L1090 669.3L1091.3 588.2L1092.7 746.2L1094 701.4L1095.3 738.6L1096.7 791.2L1098 842.2L1099.3 789.1L1100.7 671.5L1102 572.3L1103.3 720.2L1104.7 664L1106 752.3L1107.3 766.1L1108.7 841.8L1110 794.5L1111.3 668L1112.7 537.5L1114 660.8L1115.3 695.8L1116.7 760L1118 766.5L1119.3 825.6L1120.7 796.5L1122 621.8L1123.3 566.9L1124.7 702.1L1126 686.3L1127.3 732.2L1128.7 785L1130 842.2L1131.3 767.5L1132.7 634.4L1134 484.7L1135.3 701.6L1136.7 666.4L1138 727.4L1139.3 765.4L1140.7 822.7L1142 761.4L1143.3 631.4L1144.7 559.9L1146 708.5L1147.3 666.7L1148.7 772.1L1150 782.9L1151.3 834.9L1152.7 780.7L1154 646.3L1155.3 581.6L1156.7 712.5L1158 692.3L1159.3 678.8L1160.7 742.9L1162 829.1L1163.3 797.1L1164.7 669.3L1166 681.3L1167.3 684.3L1168.7 716.4L1170 726.6L1171.3 824.3L1172.7 794.2L1174 842.7L1175.3 623.5L1176.7 586.9L1178 621.2L1179.3 717.8L1180.7 697.4L1182 808.1L1183.3 796.1L1184.7 843.4L1186 583.1L1187.3 600.3L1188.7 645L1190 710.7L1191.3 725.5L1192.7 825.7L1194 767.9L1195.3 844.8L1196.7 602.6L1198 609.3L1199.3 668.5L1200.7 708.5L1202 674.6L1203.3 841.2L1204.7 761.6L1206 837.5L1207.3 618.4L1208.7 634.3L1210 628.6L1211.3 721.1L1212.7 705.9L1214 836.8L1215.3 762.6L1216.7 830.8L1218 596.1L1219.3 598.4L1220.7 695.1L1222 721.2L1223.3 662.7L1224.7 823.2L1226 789.5L1227.3 843.8L1228.7 580.6L1230 607L1231.3 658.2L1232.7 726.2L1234 682.6L1235.3 811.4L1236.7 767.1L1238 825.5L1239.3 620.9L1240.7 592.3L1242 637.2L1243.3 715.9L1244.7 669.7L1246 839.5L1247.3 795.9L1248.7 825.8L1250 630.2L1251.3 637.7L1252.7 666.3L1254 757L1255.3 688.7L1256.7 843.3L1258 749.5L1259.3 843.5L1260.7 633.3L1262 603.3L1263.3 640.8L1264.7 728.1L1266 665.5L1267.3 815.1L1268.7 769.4L1270 841.6L1271.3 641.6L1272.7 557.8L1274 793.6L1275.3 656.8L1276.7 717L1278 764.4L1279.3 834.6L1280.7 786.9L1282 657.2L1283.3 518.8L1284.7 693.4L1286 666.6L1287.3 690.1L1288.7 777.6L1290 826.6L1291.3 751.6L1292.7 645.4L1294 534.4L1295.3 682.5L1296.7 645.1L1298 697L1299.3 777.8L1300.7 812.2L1302 770.2L1303.3 629L1304.7 531.6L1306 654.9L1307.3 648.6L1308.7 682L1310 759.2L1311.3 812.8L1312.7 769.5L1314 630L1315.3 553.5L1316.7 698L1318 650.1L1319.3 740.5L1320.7 781.2L1322 840.2L1323.3 762.6L1324.7 632.7L1326 534.9L1327.3 672.4L1328.7 655.7L1330 719.9L1331.3 753.3L1332.7 834.7L1334 772.4L1335.3 636.9L1336.7 516.5L1338 713.3L1339.3 692.5L1340.7 770L1342 788.7L1343.3 823L1344.7 763.7L1346 660.6L1347.3 577.3L1348.7 665.1L1350 647.4L1351.3 718.6L1352.7 759.4L1354 837.8L1355.3 787.1L1356.7 626.1L1358 579.7L1359.3 696.2L1360.7 657.1L1362 732.7L1363.3 780.1L1364.7 823.1L1366 764.5L1367.3 642.4L1368.7 530L1370 710.1L1371.3 649.1L1372.7 698.2L1374 747.8L1375.3 832.6L1376.7 784.9L1378 631.5L1379.3 520.2L1380.7 704.4L1382 663.1L1383.3 741.9L1384.7 772.3L1386 837.8L1387.3 790.7L1388.7 622L1390 552.7L1391.3 656.3L1392.7 643.9L1394 716.6L1395.3 759.2L1396.7 817.4L1398 771.6L1399.3 653.1L1400.7 580.8L1402 719.1L1403.3 641.1L1404.7 752.5L1406 784L1407.3 842.4L1408.7 765.5L1410 645.9L1411.3 580.4L1412.7 707.6L1414 643.6L1415.3 727.1L1416.7 765.2L1418 821.8L1419.3 789.8L1420.7 668.4L1422 569.4L1423.3 704.1L1424.7 682.1L1426 725.3L1427.3 764.8L1428.7 841.5L1430 791.7L1431.3 658L1432.7 569.3L1434 675.6L1435.3 669.7L1436.7 725.2L1438 790L1439.3 842.8L1440.7 795.8L1442 647.7L1443.3 580.2L1444.7 716.4L1446 662.2L1447.3 758.8L1448.7 756.8L1450 840.2L1451.3 795L1452.7 646.8L1454 502.1L1455.3 675.4L1456.7 655.1L1458 712.5L1459.3 783.5L1460.7 820.3L1462 759.1L1463.3 645.3L1464.7 559.3L1466 720.1L1467.3 696.3L1468.7 734.4L1470 761.4L1471.3 842.1L1472.7 789.5L1474 614.8L1475.3 548.1L1476.7 705L1478 652.6L1479.3 659.8L1480.7 718.1L1482 819.7L1483.3 761.2L1484.7 649.1L1486 682.3L1487.3 665.8L1488.7 720.2L1490 705.3L1491.3 822.5L1492.7 794.3L1494 844.5L1495.3 582.1L1496.7 609.7L1498 671.8L1499.3 716.4L1500.7 687.3L1502 843.5L1503.3 762.2L1504.7 844.2L1506 620L1507.3 608.2L1508.7 658.8L1510 714.4L1511.3 671.1L1512.7 777.6L1514 764.3L1515.3 824.6L1516.7 569L1518 575.4L1519.3 669.8L1520.7 728.3L1522 673.5L1523.3 818L1524.7 771L1526 845L1527.3 591L1528.7 624L1530 650.1L1531.3 715.4L1532.7 692.7L1534 812.9L1535.3 784.1L1536.7 826.3L1538 604.7L1539.3 595.2L1540.7 674.3L1542 715.6L1543.3 702L1544.7 836L1546 797.6L1547.3 845.9L1548.7 597.1L1550 620.6L1551.3 655.8L1552.7 729.1L1554 710L1555.3 844L1556.7 791.2L1558 839.7L1559.3 611L1560.7 589.9L1562 635.7L1563.3 722.2L1564.7 709.1L1566 825.5L1567.3 798L1568.7 827.7L1570 636.9L1571.3 625.2L1572.7 656.8L1574 721.9L1575.3 704.5L1576.7 838.7L1578 764.7L1579.3 844.6L1580.7 581.8L1582 594.5L1583.3 674.6L1584.7 739.1L1586 706.8L1587.3 844.7L1588.7 770.3L1590 846.2L1591.3 611.6L1592.7 579.8L1594 810.6L1595.3 668.3L1596.7 710.5L1598 783.4L1599.3 820.6L1600.7 782L1602 655.4L1603.3 532.3L1604.7 671.4L1606 680.9L1607.3 746.6L1608.7 756.4L1610 807.2L1611.3 751.2L1612.7 638.7L1614 571.7L1615.3 701.3L1616.7 640.9L1618 747.8L1619.3 767.2L1620.7 814L1622 767.8L1623.3 626L1624.7 514.3L1626 660.4L1627.3 642.3L1628.7 687.7L1630 747.1L1631.3 813.3L1632.7 776.6L1634 625.9L1635.3 529.4L1636.7 682.3L1638 635.9L1639.3 727.3L1640.7 753.8L1642 816.2L1643.3 787.1L1644.7 622.4L1646 539.3L1647.3 692.5L1648.7 676.3L1650 741.4L1651.3 783.1L1652.7 835L1654 784.9L1655.3 621.3L1656.7 564.5L1658 691.6L1659.3 652.6L1660.7 718L1662 756.6L1663.3 836.1L1664.7 761L1666 647.1L1667.3 554.7L1668.7 696.6L1670 675.9L1671.3 706.9L1672.7 765.1L1674 828.6L1675.3 787.6L1676.7 641L1678 559.4L1679.3 708.7L1680.7 668.6L1682 765.1L1683.3 761.2L1684.7 820.4L1686 763.1L1687.3 632.7L1688.7 557.5L1690 708.2L1691.3 674.7L1692.7 752.7L1694 777.7L1695.3 837.9L1696.7 794.4L1698 658.8L1699.3 546L1700.7 710.1L1702 669.3L1703.3 739.3L1704.7 774.4L1706 814.6L1707.3 783L1708.7 653.3L1710 494.5L1711.3 659.3L1712.7 631.4L1714 723.1L1715.3 764L1716.7 830.3L1718 778.5L1719.3 644.7L1720.7 571.9L1722 735.1L1723.3 646L1724.7 761.4L1726 789.9L1727.3 840.4L1728.7 763.9L1730 618L1731.3 552.3L1732.7 729.7L1734 699L1735.3 763.8L1736.7 768.8L1738 825.8L1739.3 794.1L1740.7 657.9L1742 596.9L1743.3 727.5L1744.7 695.8L1746 754.8L1747.3 793.1L1748.7 844.4L1750 790.5L1751.3 638.2L1752.7 565.1L1754 737L1755.3 692.4L1756.7 727.6L1758 774.9L1759.3 842.2L1760.7 794.3L1762 668L1763.3 594.3L1764.7 760.1L1766 681.7L1767.3 757.8L1768.7 796.1L1770 843.8L1771.3 796.7L1772.7 660.8L1774 573.4L1775.3 722.4L1776.7 709.8L1778 766.1L1779.3 766.3L1780.7 844L1782 772L1783.3 654.1L1784.7 523.4L1786 693.5L1787.3 681.6L1788.7 755L1790 762.6L1791.3 840.9L1792.7 792.4L1794 626.6L1795.3 544.8L1796.7 701L1798 669.3L1799.3 683" fill="transparent" stroke="#6be6c1" stroke-width="3" stroke-linejoin="bevel" class="zr14-cls-44"></path>
</g>
<g clip-path="url(#zr14-c2)">
<path d="M200.7 588.7L202 783.3L203.3 756.8L204.7 599.4L206 647.4L207.3 652.2L208.7 729.2L210 668.5L211.3 834.2L212.7 788.9L214 815.3L215.3 598.2L216.7 601.5L218 698.2L219.3 764.9L220.7 685.6L222 838L223.3 784.7L224.7 845.2L226 616.9L227.3 645.3L228.7 660.5L230 732.6L231.3 684.4L232.7 841.2L234 796.9L235.3 835L236.7 586.8L238 580.5L239.3 648.3L240.7 726.6L242 685L243.3 804.4L244.7 779.2L246 825L247.3 617L248.7 639L250 695.2L251.3 741.3L252.7 732.7L254 830.7L255.3 792.8L256.7 842.9L258 577L259.3 617.4L260.7 679.7L262 733L263.3 681.5L264.7 844L266 768.6L267.3 824.8L268.7 598.7L270 608.5L271.3 642.4L272.7 688.2L274 713.7L275.3 821.2L276.7 795.3L278 844L279.3 582.2L280.7 575.7L282 618.2L283.3 707.3L284.7 662L286 832.5L287.3 770L288.7 823.2L290 580.3L291.3 600.6L292.7 655L294 757.3L295.3 724.6L296.7 822.4L298 766.1L299.3 825.6L300.7 592L302 588.4L303.3 675.9L304.7 754.3L306 709.9L307.3 822.8L308.7 796.1L310 824.9L311.3 588.4L312.7 544.3L314 780.9L315.3 639.3L316.7 710.9L318 752.2L319.3 832.1L320.7 787.3L322 650.9L323.3 562.5L324.7 690.4L326 640.7L327.3 737.8L328.7 755.9L330 832.9L331.3 766.4L332.7 631.9L334 571L335.3 697.2L336.7 673.6L338 721L339.3 751.3L340.7 834.1L342 759.2L343.3 627.6L344.7 546.5L346 675.1L347.3 624L348.7 733.3L350 750.2L351.3 807.6L352.7 780.3L354 588.1L355.3 549.9L356.7 705L358 661.6L359.3 725.5L360.7 773.8L362 830.7L363.3 784L364.7 641.4L366 533.7L367.3 669.5L368.7 632.6L370 731.5L371.3 752.6L372.7 824.6L374 756.6L375.3 619.4L376.7 565.7L378 691.6L379.3 667L380.7 713L382 754.5L383.3 836.3L384.7 785.8L386 614.8L387.3 536.4L388.7 675.3L390 673.9L391.3 733.4L392.7 773.5L394 819.9L395.3 755.8L396.7 645L398 574.6L399.3 697.2L400.7 668.5L402 762.2L403.3 790.2L404.7 838.6L406 760.5L407.3 624.3L408.7 549.5L410 691.2L411.3 660.5L412.7 706.1L414 768.5L415.3 837.3L416.7 788.4L418 642.3L419.3 559L420.7 714.1L422 667.9L423.3 731.1L424.7 774.1L426 820.1L427.3 787.7L428.7 616.6L430 493.2L431.3 684.6L432.7 661.1L434 720.6L435.3 768.2L436.7 824.9L438 775.3L439.3 616.9L440.7 559.7L442 689.7L443.3 654.1L444.7 718.2L446 769.1L447.3 835.7L448.7 788.1L450 637.5L451.3 560.3L452.7 719.4L454 665.2L455.3 715.7L456.7 786.8L458 821.8L459.3 790.5L460.7 654.4L462 561.8L463.3 715.8L464.7 690.1L466 742.8L467.3 790.7L468.7 840.7L470 792.9L471.3 652.7L472.7 548.8L474 682.9L475.3 645.6L476.7 704.9L478 775.9L479.3 826.4L480.7 791.4L482 620.6L483.3 576.9L484.7 722.3L486 657.9L487.3 723.4L488.7 772.8L490 841L491.3 764.6L492.7 636L494 517.8L495.3 684.1L496.7 670.1L498 747L499.3 759.3L500.7 819.5L502 792L503.3 628.3L504.7 588.4L506 700.2L507.3 674.4L508.7 719.4L510 788.8L511.3 816.1L512.7 784.5L514 640.4L515.3 554.3L516.7 676.5L518 640L519.3 654.6L520.7 734.8L522 815.9L523.3 783.5L524.7 620.5L526 677.5L527.3 674.2L528.7 737.7L530 684L531.3 839.2L532.7 763.9L534 843.5L535.3 569.5L536.7 594.5L538 688.2L539.3 769.4L540.7 680L542 843.8L543.3 768.2L544.7 844.3L546 600.8L547.3 609.1L548.7 689.5L550 713.2L551.3 695.7L552.7 812.1L554 784.9L555.3 838.4L556.7 623.4L558 616.2L559.3 652.8L560.7 719.6L562 683.5L563.3 839.8L564.7 763.8L566 825.6L567.3 620.2L568.7 641.6L570 644.7L571.3 640.2L572.7 570.7L574 804.6L575.3 731.7L576.7 800.4L578 550.8L579.3 416.5L580.7 493.1L582 704.5L583.3 654.5L584.7 800.1L586 786.8L587.3 842.4L588.7 425.6L590 506.6L591.3 632.9L592.7 680.1L594 648.4L595.3 812.8L596.7 757.4L598 835.9L599.3 588.2L600.7 567.4L602 613.3L603.3 731.2L604.7 708.5L606 842.8L607.3 798.1L608.7 845L610 601.3L611.3 628.8L612.7 673.6L614 716.6L615.3 702.1L616.7 839.8L618 766.6L619.3 843.5L620.7 623.6L622 590L623.3 638.2L624.7 720.8L626 683.8L627.3 841.2L628.7 762.9L630 839.6L631.3 600.2L632.7 578L634 794.1L635.3 639.6L636.7 738.7L638 754.8L639.3 830.1L640.7 769.7L642 647.3L643.3 524.3L644.7 694.3L646 660.4L647.3 713.1L648.7 780.4L650 833L651.3 777.4L652.7 652L654 568.6L655.3 703L656.7 655.5L658 719.2L659.3 780.7L660.7 814.2L662 784.9L663.3 648.9L664.7 540.1L666 694.9L667.3 638.1L668.7 699.4L670 744.4L671.3 830L672.7 777.2L674 609.3L675.3 564.4L676.7 723.6L678 634.4L679.3 753.4L680.7 747.8L682 828.9L683.3 755.7L684.7 626L686 544.2L687.3 667.6L688.7 642.3L690 708.2L691.3 780.7L692.7 832.1L694 788.5L695.3 617.4L696.7 536.4L698 729.5L699.3 658.5L700.7 723L702 782.3L703.3 836.9L704.7 790.4L706 637.4L707.3 532.3L708.7 708L710 707.4L711.3 738.7L712.7 758.9L714 837.2L715.3 787L716.7 633L718 578.7L719.3 730.7L720.7 680.7L722 742.6L723.3 791.7L724.7 842.5L726 793.1L727.3 635.7L728.7 570.5L730 687.7L731.3 697.9L732.7 727L734 767.5L735.3 837.6L736.7 765L738 638L739.3 580.6L740.7 711.2L742 657L743.3 759.7L744.7 761.2L746 839.9L747.3 792.3L748.7 658.9L750 501.7L751.3 674.4L752.7 664.4L754 729.4L755.3 788.7L756.7 822.5L758 759.7L759.3 633.7L760.7 539L762 723.4L763.3 630.5L764.7 736.1L766 768.3L767.3 819L768.7 792L770 609.3L771.3 535.3L772.7 699.9L774 629L775.3 724.5L776.7 762.8L778 837.8L779.3 784.2L780.7 643.8L782 572.1L783.3 711.5L784.7 693.1L786 737.8L787.3 790.1L788.7 822L790 793.8L791.3 658.3L792.7 566.8L794 672.7L795.3 643.5L796.7 702.6L798 746.8L799.3 826.1L800.7 763.2L802 640.9L803.3 576.4L804.7 719.5L806 647.6L807.3 752L808.7 759.9L810 840.5L811.3 765.5L812.7 625.6L814 533.5L815.3 683.8L816.7 649.3L818 741.9L819.3 785.3L820.7 840.6L822 793.1L823.3 653.4L824.7 548.4L826 734.8L827.3 698.9L828.7 733.4L830 792.3L831.3 839.9L832.7 764.4L834 636.8L835.3 561.2L836.7 716.1L838 668.6L839.3 678.9L840.7 738.4L842 838.5L843.3 757.6L844.7 634L846 678L847.3 650.9L848.7 715L850 709.3L851.3 837L852.7 762.4L854 822.7L855.3 600.7L856.7 601.3L858 626.2L859.3 706.2L860.7 659.7L862 811.3L863.3 765.2L864.7 822.7L866 565.6L867.3 635.5L868.7 652.1L870 714.5L871.3 721.6L872.7 841.8L874 796.2L875.3 844L876.7 604L878 579L879.3 673.3L880.7 712.2L882 689.2L883.3 842.8L884.7 798.2L886 845.4L887.3 586.5L888.7 603.9L890 677.2L891.3 727.1L892.7 728.3L894 825.5L895.3 768.6L896.7 844.3L898 618.8L899.3 588.1L900.7 640.9L902 714.8L903.3 650.6L904.7 819.7L906 791.3L907.3 841.7L908.7 613L910 602.7L911.3 643.8L912.7 754L914 680.6L915.3 817L916.7 792.9L918 836.4L919.3 576.9L920.7 590.9L922 626.1L923.3 714.8L924.7 680.2L926 819.4L927.3 763.2L928.7 830.8L930 559.2L931.3 597.7L932.7 651.1L934 716.4L935.3 701.8L936.7 834.8L938 791.5L939.3 823.4L940.7 602.2L942 577.9L943.3 622.8L944.7 731.3L946 707.9L947.3 839L948.7 766L950 824.3L951.3 594.7L952.7 571L954 780.7L955.3 653.8L956.7 734.4L958 760.2L959.3 821.1L960.7 792.1L962 651.2L963.3 569.9L964.7 714.6L966 665.3L967.3 727.5L968.7 785.9L970 823.5L971.3 793.3L972.7 655.1L974 560.2L975.3 708.4L976.7 687.5L978 748.3L979.3 787.6L980.7 818.7L982 757.6L983.3 633.9L984.7 558.8L986 687.7L987.3 638.7L988.7 707.8L990 789.7L991.3 842.8L992.7 791.1L994 647.3L995.3 577.6L996.7 724.8L998 679.1L999.3 740L1000.7 784.6L1002 838.5L1003.3 775.1L1004.7 643.1L1006 505.6L1007.3 693.9L1008.7 661.5L1010 700.2L1011.3 773.5L1012.7 826.2L1014 790.8L1015.3 635.4L1016.7 530.8L1018 703L1019.3 650.2L1020.7 731.7L1022 785.3L1023.3 821.9L1024.7 789.6L1026 649.2L1027.3 547.7L1028.7 690.1L1030 644L1031.3 708.3L1032.7 760L1034 817.4L1035.3 761.2L1036.7 622.6L1038 581.2L1039.3 709.7L1040.7 664.9L1042 754.3L1043.3 754.2L1044.7 837.4L1046 766.5L1047.3 640L1048.7 545.7L1050 680L1051.3 661.1L1052.7 731.6L1054 781.7L1055.3 836.1L1056.7 789.1L1058 647.2L1059.3 524.9L1060.7 729.1L1062 635.2L1063.3 720.2L1064.7 780.7L1066 837.5L1067.3 790.3L1068.7 638.6L1070 563.9L1071.3 677L1072.7 656.1L1074 741.2L1075.3 759.3L1076.7 829.7L1078 774.8L1079.3 611.9L1080.7 563.1L1082 696.4L1083.3 636.4L1084.7 721.7L1086 785.1L1087.3 818.8L1088.7 753.7L1090 616.9L1091.3 545.7L1092.7 683.8L1094 641.3L1095.3 724.8L1096.7 780.8L1098 824.4L1099.3 789.4L1100.7 628.5L1102 555.8L1103.3 730L1104.7 640.3L1106 727.9L1107.3 751.4L1108.7 838.7L1110 791.3L1111.3 650L1112.7 554.1L1114 696.7L1115.3 662.1L1116.7 741.3L1118 781.4L1119.3 837.1L1120.7 764.5L1122 650L1123.3 547.5L1124.7 699.8L1126 690.1L1127.3 733.3L1128.7 772.2L1130 823.5L1131.3 762.8L1132.7 645.6L1134 541.2L1135.3 681.2L1136.7 669.1L1138 749.2L1139.3 760.4L1140.7 821.2L1142 780.8L1143.3 646.1L1144.7 530.1L1146 704.7L1147.3 652.5L1148.7 737.1L1150 762.9L1151.3 840.6L1152.7 793.4L1154 653.3L1155.3 558.5L1156.7 662.8L1158 655.3L1159.3 658.1L1160.7 704.6L1162 835.8L1163.3 762.5L1164.7 610.9L1166 670.5L1167.3 658.7L1168.7 704.8L1170 696.4L1171.3 834.2L1172.7 790.3L1174 841L1175.3 561.4L1176.7 577.5L1178 640.5L1179.3 708.5L1180.7 640.2L1182 819.9L1183.3 792.3L1184.7 823.1L1186 608.9L1187.3 609.3L1188.7 646.8L1190 722.8L1191.3 679.4L1192.7 812.3L1194 795.9L1195.3 824.8L1196.7 573.3L1198 590.6L1199.3 646.4L1200.7 732.4L1202 691.8L1203.3 823.5L1204.7 767.7L1206 825.8L1207.3 566L1208.7 605.5L1210 640.1L1211.3 713.1L1212.7 719.5L1214 829.7L1215.3 763.8L1216.7 842.9L1218 615.3L1219.3 593.1L1220.7 667.2L1222 742.1L1223.3 699.7L1224.7 840.8L1226 795.4L1227.3 827.7L1228.7 609.1L1230 627.9L1231.3 671.3L1232.7 745.2L1234 684L1235.3 841.4L1236.7 795.2L1238 825.1L1239.3 581.5L1240.7 586.5L1242 628.1L1243.3 707.8L1244.7 694.9L1246 802L1247.3 792.6L1248.7 840.8L1250 609.4L1251.3 642.9L1252.7 642.3L1254 699.1L1255.3 664L1256.7 818.3L1258 792.7L1259.3 841.6L1260.7 615.6L1262 597.3L1263.3 676.7L1264.7 729.5L1266 694.6L1267.3 842.4L1268.7 795.6L1270 843.5L1271.3 626.9L1272.7 549.4L1274 779.6L1275.3 637.6L1276.7 714.6L1278 749.1L1279.3 814.8L1280.7 783.3L1282 633.3L1283.3 531.2L1284.7 662.6L1286 636.2L1287.3 729L1288.7 759.6L1290 839L1291.3 789.6L1292.7 635.3L1294 534.3L1295.3 698.8L1296.7 658.9L1298 751.5L1299.3 787.2L1300.7 822.4L1302 793.8L1303.3 640.7L1304.7 550.3L1306 708.1L1307.3 679.2L1308.7 721.6L1310 752.1L1311.3 835.2L1312.7 788.1L1314 641.4L1315.3 562.6L1316.7 705.8L1318 654.2L1319.3 721L1320.7 775.3L1322 805.7L1323.3 773.3L1324.7 631.9L1326 510.5L1327.3 662.9L1328.7 631L1330 721.2L1331.3 785.6L1332.7 825.5L1334 785.4L1335.3 611.6L1336.7 539.5L1338 711L1339.3 679.6L1340.7 739L1342 774.9L1343.3 839.6L1344.7 793.9L1346 628.1L1347.3 552.1L1348.7 677.1L1350 651L1351.3 734L1352.7 778.2L1354 825.2L1355.3 785.7L1356.7 646.8L1358 546.4L1359.3 719.7L1360.7 680.9L1362 767.2L1363.3 764.7L1364.7 819.3L1366 788.2L1367.3 636.5L1368.7 527.1L1370 663.3L1371.3 680.2L1372.7 736.1L1374 748.8L1375.3 816.8L1376.7 754.4L1378 621.4L1379.3 555.6L1380.7 722.7L1382 669.3L1383.3 753.9L1384.7 762.6L1386 827.6L1387.3 793.9L1388.7 621.1L1390 544.7L1391.3 693.4L1392.7 669.8L1394 723.3L1395.3 757.8L1396.7 823.2L1398 764.4L1399.3 636.8L1400.7 540.8L1402 695.2L1403.3 644.5L1404.7 719.1L1406 773.2L1407.3 832.9L1408.7 789.8L1410 630.2L1411.3 518L1412.7 666L1414 637.6L1415.3 704.2L1416.7 767L1418 819.1L1419.3 761.6L1420.7 627.8L1422 525.7L1423.3 708.5L1424.7 676.8L1426 714.6L1427.3 787.1L1428.7 832.6L1430 764.4L1431.3 618.4L1432.7 538.5L1434 713.6L1435.3 714.2L1436.7 735.6L1438 792.8L1439.3 844.7L1440.7 768.3L1442 630.2L1443.3 568.5L1444.7 727.4L1446 666.3L1447.3 750.2L1448.7 794.4L1450 843.6L1451.3 796.8L1452.7 666.3L1454 548.8L1455.3 684.2L1456.7 664.9L1458 730.3L1459.3 765.6L1460.7 823.3L1462 795.4L1463.3 659.7L1464.7 584.9L1466 742.5L1467.3 723.2L1468.7 748.3L1470 763.5L1471.3 843.1L1472.7 769.1L1474 643.6L1475.3 573.8L1476.7 700.3L1478 665.5L1479.3 642.7L1480.7 735.5L1482 835.6L1483.3 757.7L1484.7 632.7L1486 658.3L1487.3 636.1L1488.7 701.2L1490 679.6L1491.3 839.4L1492.7 795.3L1494 826.9L1495.3 582.3L1496.7 608.2L1498 646.6L1499.3 768.2L1500.7 720.5L1502 837.5L1503.3 763.7L1504.7 841.8L1506 594L1507.3 619.2L1508.7 650.3L1510 747L1511.3 715.2L1512.7 841.3L1514 730.9L1515.3 824.7L1516.7 587.8L1518 590.8L1519.3 676.1L1520.7 729.3L1522 676.8L1523.3 825.5L1524.7 766.6L1526 841.8L1527.3 578.6L1528.7 591.6L1530 681.3L1531.3 749.8L1532.7 686.6L1534 840.8L1535.3 795L1536.7 824.7L1538 600.4L1539.3 598.9L1540.7 625.1L1542 737.5L1543.3 643.2L1544.7 798L1546 767L1547.3 824.9L1548.7 609.4L1550 632.7L1551.3 654.7L1552.7 755.7L1554 679.9L1555.3 832.1L1556.7 767.4L1558 829L1559.3 622.3L1560.7 636.7L1562 665.3L1563.3 766.4L1564.7 717.7L1566 833.8L1567.3 756.1L1568.7 815L1570 600L1571.3 600L1572.7 653.2L1574 709.3L1575.3 701.6L1576.7 843.6L1578 769.2L1579.3 820.8L1580.7 608.1L1582 619.6L1583.3 632L1584.7 724.2L1586 708.2L1587.3 839.3L1588.7 763L1590 824.4L1591.3 625.3L1592.7 578.5L1594 775.5L1595.3 628.6L1596.7 711.8L1598 776.8L1599.3 821.6L1600.7 789.2L1602 641.9L1603.3 538.5L1604.7 735L1606 679L1607.3 758.3L1608.7 762.9L1610 829.3L1611.3 763.5L1612.7 644.1L1614 546.8L1615.3 726.5L1616.7 662.2L1618 724.8L1619.3 762.5L1620.7 836.8L1622 759.1L1623.3 647.1L1624.7 498.4L1626 663.1L1627.3 600.1L1628.7 695.3L1630 745.8L1631.3 814.9L1632.7 784.9L1634 638.4L1635.3 541.5L1636.7 717.4L1638 678.1L1639.3 741L1640.7 761.4L1642 834.3L1643.3 787.3L1644.7 647.6L1646 499.6L1647.3 678.3L1648.7 612.4L1650 721.9L1651.3 767.7L1652.7 827.5L1654 756.4L1655.3 640.5L1656.7 553.7L1658 672.1L1659.3 627.4L1660.7 732.4L1662 753.9L1663.3 813.4L1664.7 770.2L1666 631.7L1667.3 525.3L1668.7 702.6L1670 626.1L1671.3 721.9L1672.7 762.8L1674 831.1L1675.3 781.3L1676.7 644.3L1678 529.4L1679.3 696.1L1680.7 661.5L1682 729.4L1683.3 767.5L1684.7 840.4L1686 791.9L1687.3 649.3L1688.7 565.2L1690 713.9L1691.3 680.2L1692.7 731.7L1694 779.1L1695.3 820.9L1696.7 767L1698 652.6L1699.3 562L1700.7 711.6L1702 652.2L1703.3 727.3L1704.7 790.4L1706 839.3L1707.3 791.7L1708.7 634.2L1710 523.1L1711.3 694.8L1712.7 650.9L1714 707L1715.3 757.9L1716.7 820.3L1718 792L1719.3 643.1L1720.7 556.5L1722 736.9L1723.3 637.9L1724.7 737.8L1726 772.8L1727.3 832L1728.7 786.5L1730 625.2L1731.3 546.4L1732.7 700.3L1734 651.5L1735.3 737.6L1736.7 766.6L1738 823.6L1739.3 767.5L1740.7 641.7L1742 506.6L1743.3 716.1L1744.7 675L1746 755.2L1747.3 785.5L1748.7 838.1L1750 786.2L1751.3 646.2L1752.7 519.8L1754 695.5L1755.3 676.7L1756.7 708.9L1758 759.7L1759.3 839.6L1760.7 792.8L1762 616.5L1763.3 559.1L1764.7 716.6L1766 670.3L1767.3 761.5L1768.7 770.4L1770 836.5L1771.3 762.3L1772.7 641.9L1774 563.8L1775.3 717.4L1776.7 651.4L1778 710.5L1779.3 789.2L1780.7 841.3L1782 792L1783.3 647.2L1784.7 583.3L1786 701L1787.3 647.2L1788.7 744.3L1790 765.9L1791.3 823.4L1792.7 792L1794 631.5L1795.3 560L1796.7 706.2L1798 670.9L1799.3 660" fill="transparent" stroke="#626c91" stroke-width="3" stroke-linejoin="bevel" class="zr14-cls-44"></path>
</g>
<path d="M-268.2 -5l536.5 0l0 28l-536.5 0Z" transform="translate(1000 5)" fill="rgb(0,0,0)" fill-opacity="0" stroke="#ccc" stroke-width="0" class="zr14-cls-42"></path>
<text dominant-baseline="central" text-anchor="middle" style="font-size:18px;font-family:sans-serif;font-weight:bold;" xml:space="preserve" y="9" transform="translate(1000 5)" fill="#666666">entityUpdate per Tick for bench_4_every_240_staggered_reverse</text>
<defs >
<clipPath id="zr14-c0">
<path d="M198 58.5l16004 0l0 8703l-16004 0Z" fill="#000" class="zr14-cls-43"></path>
</clipPath>
<clipPath id="zr14-c1">
<path d="M198 58.5l16004 0l0 8703l-16004 0Z" fill="#000" class="zr14-cls-43"></path>
</clipPath>
<clipPath id="zr14-c2">
<path d="M198 58.5l16004 0l0 8703l-16004 0Z" fill="#000" class="zr14-cls-43"></path>
</clipPath>
</defs>
<style ><![CDATA[
.zr14-cls-42:hover {
pointer-events:none;
}
.zr14-cls-43:hover {
cursor:pointer;
fill:rgba(0,0,0,1);
}
.zr14-cls-44:hover {
cursor:pointer;
}

]]>

</style>
</svg>