<svg width="2000" height="1000" xmlns="http://www.w3.org/2000/svg" xmlns:xlink="http://www.w3.org/1999/xlink" version="1.1" baseProfile="full" viewBox="0 0 2000 1000">
<rect width="2000" height="1000" x="0" y="0" fill="rgb(252,252,252)" fill-opacity="0"></rect>
<path d="M200 930.5L1800 930.5" fill="transparent" stroke="#eeeeee" class="zr45-cls-135"></path>
<path d="M200 762.5L1800 762.5" fill="transparent" stroke="#eeeeee" class="zr45-cls-135"></path>
<path d="M200 593.5L1800 593.5" fill="transparent" stroke="#eeeeee" class="zr45-cls-135"></path>
<path d="M200 425.5L1800 425.5" fill="transparent" stroke="#eeeeee" class="zr45-cls-135"></path>
<path d="M200 257.5L1800 257.5" fill="transparent" stroke="#eeeeee" class="zr45-cls-135"></path>
<path d="M200 89.5L1800 89.5" fill="transparent" stroke="#eeeeee" class="zr45-cls-135"></path>
<path d="M200 60.5L1800 60.5" fill="transparent" stroke="#eeeeee" class="zr45-cls-135"></path>
<path d="M200.5 930L200.5 60" fill="transparent" stroke="#cccccc" stroke-linecap="round" class="zr45-cls-135"></path>
<text dominant-baseline="central" text-anchor="middle" style="font-size:12px;font-family:sans-serif;" xml:space="preserve" y="-6" transform="translate(200 45)" fill="#cccccc">Min controlBehaviorUpdate Time (ms)</text>
<path d="M200 930.5L1800 930.5" fill="transparent" stroke="#cccccc" stroke-linecap="round" class="zr45-cls-135"></path>
<text dominant-baseline="central" text-anchor="end" style="font-size:12px;font-family:sans-serif;" transform="translate(192 930)" fill="#999999">0.000</text>
<text dominant-baseline="central" text-anchor="end" style="font-size:12px;font-family:sans-serif;" transform="translate(192 761.853)" fill="#999999">0.200</text>
<text dominant-baseline="central" text-anchor="end" style="font-size:12px;font-family:sans-serif;" transform="translate(192 593.706)" fill="#999999">0.400</text>
<text dominant-baseline="central" text-anchor="end" style="font-size:12px;font-family:sans-serif;" transform="translate(192 425.559)" fill="#999999">0.600</text>
<text dominant-baseline="central" text-anchor="end" style="font-size:12px;font-family:sans-serif;" transform="translate(192 257.412)" fill="#999999">0.800</text>
<text dominant-baseline="central" text-anchor="end" style="font-size:12px;font-family:sans-serif;" transform="translate(192 89.265)" fill="#999999">1.000</text>
<text dominant-baseline="central" text-anchor="end" style="font-size:12px;font-family:sans-serif;" transform="translate(192 60)" fill="#999999">1.035</text>
<text dominant-baseline="central" text-anchor="middle" style="font-size:12px;font-family:sans-serif;" y="6" transform="translate(200.6667 938)" fill="#999999">0</text>
<text dominant-baseline="central" text-anchor="middle" style="font-size:12px;font-family:sans-serif;" y="6" transform="translate(236.6667 938)" fill="#999999">27</text>
<text dominant-baseline="central" text-anchor="middle" style="font-size:12px;font-family:sans-serif;" y="6" transform="translate(272.6667 938)" fill="#999999">54</text>
<text dominant-baseline="central" text-anchor="middle" style="font-size:12px;font-family:sans-serif;" y="6" transform="translate(308.6667 938)" fill="#999999">81</text>
<text dominant-baseline="central" text-anchor="middle" style="font-size:12px;font-family:sans-serif;" y="6" transform="translate(344.6667 938)" fill="#999999">108</text>
<text dominant-baseline="central" text-anchor="middle" style="font-size:12px;font-family:sans-serif;" y="6" transform="translate(380.6667 938)" fill="#999999">135</text>
<text dominant-baseline="central" text-anchor="middle" style="font-size:12px;font-family:sans-serif;" y="6" transform="translate(416.6667 938)" fill="#999999">162</text>
<text dominant-baseline="central" text-anchor="middle" style="font-size:12px;font-family:sans-serif;" y="6" transform="translate(452.6667 938)" fill="#999999">189</text>
<text dominant-baseline="central" text-anchor="middle" style="font-size:12px;font-family:sans-serif;" y="6" transform="translate(488.6667 938)" fill="#999999">216</text>
<text dominant-baseline="central" text-anchor="middle" style="font-size:12px;font-family:sans-serif;" y="6" transform="translate(524.6667 938)" fill="#999999">243</text>
<text dominant-baseline="central" text-anchor="middle" style="font-size:12px;font-family:sans-serif;" y="6" transform="translate(560.6667 938)" fill="#999999">270</text>
<text dominant-baseline="central" text-anchor="middle" style="font-size:12px;font-family:sans-serif;" y="6" transform="translate(596.6667 938)" fill="#999999">297</text>
<text dominant-baseline="central" text-anchor="middle" style="font-size:12px;font-family:sans-serif;" y="6" transform="translate(632.6667 938)" fill="#999999">324</text>
<text dominant-baseline="central" text-anchor="middle" style="font-size:12px;font-family:sans-serif;" y="6" transform="translate(668.6667 938)" fill="#999999">351</text>
<text dominant-baseline="central" text-anchor="middle" style="font-size:12px;font-family:sans-serif;" y="6" transform="translate(704.6667 938)" fill="#999999">378</text>
<text dominant-baseline="central" text-anchor="middle" style="font-size:12px;font-family:sans-serif;" y="6" transform="translate(740.6667 938)" fill="#999999">405</text>
<text dominant-baseline="central" text-anchor="middle" style="font-size:12px;font-family:sans-serif;" y="6" transform="translate(776.6667 938)" fill="#999999">432</text>
<text dominant-baseline="central" text-anchor="middle" style="font-size:12px;font-family:sans-serif;" y="6" transform="translate(812.6667 938)" fill="#999999">459</text>
<text dominant-baseline="central" text-anchor="middle" style="font-size:12px;font-family:sans-serif;" y="6" transform="translate(848.6667 938)" fill="#999999">486</text>
<text dominant-baseline="central" text-anchor="middle" style="font-size:12px;font-family:sans-serif;" y="6" transform="translate(884.6667 938)" fill="#999999">513</text>
<text dominant-baseline="central" text-anchor="middle" style="font-size:12px;font-family:sans-serif;" y="6" transform="translate(920.6667 938)" fill="#999999">540</text>
<text dominant-baseline="central" text-anchor="middle" style="font-size:12px;font-family:sans-serif;" y="6" transform="translate(956.6667 938)" fill="#999999">567</text>
<text dominant-baseline="central" text-anchor="middle" style="font-size:12px;font-family:sans-serif;" y="6" transform="translate(992.6667 938)" fill="#999999">594</text>
<text dominant-baseline="central" text-anchor="middle" style="font-size:12px;font-family:sans-serif;" y="6" transform="translate(1028.6667 938)" fill="#999999">621</text>
<text dominant-baseline="central" text-anchor="middle" style="font-size:12px;font-family:sans-serif;" y="6" transform="translate(1064.6667 938)" fill="#999999">648</text>
<text dominant-baseline="central" text-anchor="middle" style="font-size:12px;font-family:sans-serif;" y="6" transform="translate(1100.6667 938)" fill="#999999">675</text>
<text dominant-baseline="central" text-anchor="middle" style="font-size:12px;font-family:sans-serif;" y="6" transform="translate(1136.6667 938)" fill="#999999">702</text>
<text dominant-baseline="central" text-anchor="middle" style="font-size:12px;font-family:sans-serif;" y="6" transform="translate(1172.6667 938)" fill="#999999">729</text>
<text dominant-baseline="central" text-anchor="middle" style="font-size:12px;font-family:sans-serif;" y="6" transform="translate(1208.6667 938)" fill="#999999">756</text>
<text dominant-baseline="central" text-anchor="middle" style="font-size:12px;font-family:sans-serif;" y="6" transform="translate(1244.6667 938)" fill="#999999">783</text>
<text dominant-baseline="central" text-anchor="middle" style="font-size:12px;font-family:sans-serif;" y="6" transform="translate(1280.6667 938)" fill="#999999">810</text>
<text dominant-baseline="central" text-anchor="middle" style="font-size:12px;font-family:sans-serif;" y="6" transform="translate(1316.6667 938)" fill="#999999">837</text>
<text dominant-baseline="central" text-anchor="middle" style="font-size:12px;font-family:sans-serif;" y="6" transform="translate(1352.6667 938)" fill="#999999">864</text>
<text dominant-baseline="central" text-anchor="middle" style="font-size:12px;font-family:sans-serif;" y="6" transform="translate(1388.6667 938)" fill="#999999">891</text>
<text dominant-baseline="central" text-anchor="middle" style="font-size:12px;font-family:sans-serif;" y="6" transform="translate(1424.6667 938)" fill="#999999">918</text>
<text dominant-baseline="central" text-anchor="middle" style="font-size:12px;font-family:sans-serif;" y="6" transform="translate(1460.6667 938)" fill="#999999">945</text>
<text dominant-baseline="central" text-anchor="middle" style="font-size:12px;font-family:sans-serif;" y="6" transform="translate(1496.6667 938)" fill="#999999">972</text>
<text dominant-baseline="central" text-anchor="middle" style="font-size:12px;font-family:sans-serif;" y="6" transform="translate(1532.6667 938)" fill="#999999">999</text>
<text dominant-baseline="central" text-anchor="middle" style="font-size:12px;font-family:sans-serif;" y="6" transform="translate(1568.6667 938)" fill="#999999">1026</text>
<text dominant-baseline="central" text-anchor="middle" style="font-size:12px;font-family:sans-serif;" y="6" transform="translate(1604.6667 938)" fill="#999999">1053</text>
<text dominant-baseline="central" text-anchor="middle" style="font-size:12px;font-family:sans-serif;" y="6" transform="translate(1640.6667 938)" fill="#999999">1080</text>
<text dominant-baseline="central" text-anchor="middle" style="font-size:12px;font-family:sans-serif;" y="6" transform="translate(1676.6667 938)" fill="#999999">1107</text>
<text dominant-baseline="central" text-anchor="middle" style="font-size:12px;font-family:sans-serif;" y="6" transform="translate(1712.6667 938)" fill="#999999">1134</text>
<text dominant-baseline="central" text-anchor="middle" style="font-size:12px;font-family:sans-serif;" y="6" transform="translate(1748.6667 938)" fill="#999999">1161</text>
<text dominant-baseline="central" text-anchor="middle" style="font-size:12px;font-family:sans-serif;" y="6" transform="translate(1784.6667 938)" fill="#999999">1188</text>
<g clip-path="url(#zr45-c0)">
<path d="M200.7 35.2L202 173.4L203.3 556.5L204.7 336.4L206 608.4L207.3 381.6L208.7 662.9L210 400.1L211.3 614.1L212.7 389.8L214 649.3L215.3 396.3L216.7 591.8L218 376.9L219.3 634L220.7 409.3L222 632.5L223.3 423.9L224.7 663.5L226 398.9L227.3 615.9L228.7 406.5L230 660.6L231.3 380.9L232.7 644L234 396.8L235.3 650.5L236.7 409.2L238 638.9L239.3 421.2L240.7 639.6L242 408.8L243.3 667.4L244.7 404L246 628.8L247.3 407.1L248.7 667.3L250 415.3L251.3 642.6L252.7 426.7L254 655.6L255.3 402.6L256.7 593.8L258 411.9L259.3 620.8L260.7 401.6L262 556.5L263.3 349.7L264.7 598.2L266 308.8L267.3 581.7L268.7 360.2L270 540.2L271.3 346.4L272.7 570L274 331.6L275.3 548.2L276.7 330.9L278 564.5L279.3 346.1L280.7 579.2L282 358.8L283.3 566.6L284.7 350.7L286 520.1L287.3 356.5L288.7 563.1L290 266.6L291.3 552.1L292.7 392.7L294 585.2L295.3 378.2L296.7 617.2L298 357.3L299.3 588.9L300.7 379.9L302 597.7L303.3 351.7L304.7 574.3L306 330.1L307.3 617L308.7 317.1L310 596.2L311.3 388.1L312.7 564.9L314 380.3L315.3 576.6L316.7 356.2L318 598.8L319.3 359.6L320.7 598.8L322 364.9L323.3 564.9L324.7 380.5L326 606.1L327.3 361.7L328.7 570.7L330 370.1L331.3 570.9L332.7 399.2L334 574.5L335.3 371.8L336.7 581.4L338 378.3L339.3 563.9L340.7 378.6L342 644.6L343.3 394.9L344.7 616.5L346 389L347.3 629.9L348.7 375.1L350 642.6L351.3 396L352.7 633.5L354 405.2L355.3 596L356.7 424.3L358 645.2L359.3 394.3L360.7 654.8L362 412.4L363.3 636.2L364.7 407.7L366 622.5L367.3 397.3L368.7 646L370 404.8L371.3 588.7L372.7 391.2L374 647.6L375.3 413.3L376.7 618.8L378 411.6L379.3 633.2L380.7 427.7L382 618.9L383.3 407.8L384.7 634L386 404.4L387.3 642L388.7 402.1L390 647L391.3 412.1L392.7 663.2L394 433.4L395.3 632.8L396.7 403.6L398 590.4L399.3 403.7L400.7 660.4L402 404.1L403.3 650.3L404.7 438.8L406 644.7L407.3 400.8L408.7 636.3L410 405.5L411.3 661L412.7 431.6L414 644.2L415.3 419.3L416.7 655.8L418 418.2L419.3 654.6L420.7 403.2L422 588.7L423.3 407.2L424.7 662.1L426 399.2L427.3 661.1L428.7 408.7L430 638.1L431.3 389.7L432.7 638.9L434 394.5L435.3 610.8L436.7 412.3L438 621.8L439.3 384.3L440.7 632.5L442 389.6L443.3 602.4L444.7 401L446 644.5L447.3 400.1L448.7 637.1L450 366.6L451.3 618.3L452.7 395.3L454 640.5L455.3 401.6L456.7 644.8L458 409.9L459.3 656.2L460.7 399.4L462 630.5L463.3 401.3L464.7 662.8L466 373.1L467.3 631.9L468.7 413.4L470 669.5L471.3 380.1L472.7 612.4L474 391.2L475.3 665.9L476.7 424.3L478 637.1L479.3 385.5L480.7 618.2L482 417.7L483.3 635L484.7 410.8L486 655.2L487.3 427.6L488.7 661.8L490 410.7L491.3 665.8L492.7 416.2L494 655.1L495.3 420L496.7 633.1L498 421.1L499.3 603L500.7 390.4L502 632.3L503.3 379.4L504.7 659.6L506 410.7L507.3 639L508.7 391.6L510 631L511.3 387.6L512.7 636.7L514 387.6L515.3 645.7L516.7 411.8L518 641L519.3 387.7L520.7 652.2L522 382.5L523.3 628L524.7 419.6L526 664.2L527.3 408.5L528.7 618.8L530 404.3L531.3 650.3L532.7 410.8L534 664.6L535.3 380.4L536.7 626.6L538 421.9L539.3 670.1L540.7 398.8L542 630.1L543.3 380.7L544.7 657.3L546 392.9L547.3 647.6L548.7 399L550 659.7L551.3 432.6L552.7 619.8L554 353.8L555.3 650.9L556.7 408.4L558 644.5L559.3 402.9L560.7 645.7L562 409.9L563.3 654.2L564.7 411.9L566 634.8L567.3 428.5L568.7 645L570 409.7L571.3 652.7L572.7 408.5L574 652.4L575.3 433.4L576.7 630.3L578 392.3L579.3 635.3L580.7 408.6L582 543.4L583.3 384.4L584.7 578L586 337.4L587.3 558.6L588.7 367.5L590 603.8L591.3 339.7L592.7 562L594 376.4L595.3 602.9L596.7 352.2L598 605.4L599.3 346.4L600.7 562.4L602 363.1L603.3 607.3L604.7 383.1L606 561.5L607.3 365.1L608.7 616.3L610 342.9L611.3 594.9L612.7 394.2L614 599.1L615.3 358.3L616.7 582.3L618 356.8L619.3 602.5L620.7 377L622 582.8L623.3 372.2L624.7 593.8L626 340.6L627.3 576.6L628.7 329L630 593.9L631.3 400.9L632.7 572.4L634 375.5L635.3 605.1L636.7 345L638 614L639.3 358.1L640.7 616.1L642 385.5L643.3 581.7L644.7 372.3L646 593.6L647.3 382.7L648.7 601.2L650 399.7L651.3 604.4L652.7 386L654 626L655.3 423.8L656.7 596.7L658 400.7L659.3 568.3L660.7 360.6L662 616.6L663.3 368.3L664.7 631.2L666 378.7L667.3 638.8L668.7 411.4L670 598.6L671.3 422L672.7 655.3L674 424.9L675.3 636.3L676.7 401.6L678 658.7L679.3 418.3L680.7 637L682 399.2L683.3 626.2L684.7 385.7L686 636.8L687.3 388.8L688.7 628.3L690 409.1L691.3 669.5L692.7 404L694 646.8L695.3 409.8L696.7 644L698 382.6L699.3 644.4L700.7 390.9L702 623.2L703.3 425.7L704.7 642.5L706 385.8L707.3 650.7L708.7 416.1L710 646.1L711.3 389.2L712.7 651.8L714 415.8L715.3 658.1L716.7 394.6L718 655.6L719.3 411.5L720.7 654.4L722 428.6L723.3 610.7L724.7 420L726 649.2L727.3 410.8L728.7 660.5L730 398.3L731.3 668.4L732.7 446.2L734 664.6L735.3 367.3L736.7 648.6L738 407.4L739.3 588.5L740.7 380L742 645.8L743.3 408.4L744.7 641.5L746 405.5L747.3 637.4L748.7 405L750 646.5L751.3 401.3L752.7 636.3L754 400.9L755.3 595.1L756.7 416.9L758 605L759.3 410.2L760.7 633.1L762 428.4L763.3 657.8L764.7 383.4L766 669.3L767.3 405.3L768.7 655.1L770 408.4L771.3 663.2L772.7 415.4L774 644.4L775.3 413.4L776.7 648.8L778 415.6L779.3 668L780.7 416.8L782 630.4L783.3 412.8L784.7 639.2L786 415.8L787.3 646.6L788.7 416.6L790 662.5L791.3 418.4L792.7 624.4L794 405L795.3 653.3L796.7 396.5L798 643L799.3 395.9L800.7 642L802 417.7L803.3 634.1L804.7 401.1L806 640.7L807.3 409.5L808.7 672.9L810 422.5L811.3 654.6L812.7 413L814 650.2L815.3 405L816.7 632.6L818 395L819.3 646.2L820.7 420.2L822 658.5L823.3 405.3L824.7 647.3L826 402.8L827.3 662.5L828.7 374.4L830 649.7L831.3 415L832.7 658.9L834 394.4L835.3 642.9L836.7 409.4L838 660.1L839.3 404.5L840.7 656.6L842 410.9L843.3 641.9L844.7 419L846 646.3L847.3 416.5L848.7 631.9L850 425.6L851.3 660.1L852.7 420.9L854 644.6L855.3 413.2L856.7 610.5L858 389.5L859.3 588.7L860.7 407.1L862 630.4L863.3 396.9L864.7 649.4L866 407.6L867.3 651.1L868.7 391L870 643.4L871.3 386.2L872.7 643.1L874 429.3L875.3 647L876.7 398.4L878 647.8L879.3 422L880.7 652.7L882 392.9L883.3 665.2L884.7 412.4L886 649.4L887.3 405L888.7 656L890 412.4L891.3 656.9L892.7 415.9L894 648.8L895.3 425.6L896.7 653.1L898 420L899.3 586.6L900.7 397.4L902 597.2L903.3 312.6L904.7 592.9L906 386L907.3 592.4L908.7 388L910 561.5L911.3 365.7L912.7 584.8L914 367L915.3 582.5L916.7 342.2L918 585.9L919.3 380.9L920.7 615.3L922 368L923.3 577L924.7 335.9L926 554.9L927.3 341L928.7 585.6L930 341.2L931.3 606.1L932.7 318.5L934 591.1L935.3 376.3L936.7 579.8L938 309.4L939.3 530.3L940.7 363.3L942 606.6L943.3 333.4L944.7 597.1L946 362.8L947.3 586.2L948.7 327.9L950 585.5L951.3 361.8L952.7 606L954 319.2L955.3 565L956.7 387L958 573.3L959.3 387.9L960.7 585.9L962 372.3L963.3 606.4L964.7 351.4L966 585.1L967.3 386.8L968.7 552.7L970 362.1L971.3 608.6L972.7 337.4L974 602L975.3 386L976.7 606L978 337.7L979.3 587.1L980.7 358.6L982 604.6L983.3 383.6L984.7 601.8L986 406.4L987.3 639.9L988.7 412.7L990 613.9L991.3 413.6L992.7 639.1L994 413.9L995.3 620.4L996.7 398.2L998 640L999.3 390.9L1000.7 641.6L1002 398.9L1003.3 646.4L1004.7 413L1006 636.5L1007.3 376.5L1008.7 605.2L1010 394L1011.3 622L1012.7 382.3L1014 636.9L1015.3 409.1L1016.7 615.8L1018 425.1L1019.3 648.7L1020.7 414.5L1022 628L1023.3 435.6L1024.7 632L1026 407.6L1027.3 640.2L1028.7 404.4L1030 626.2L1031.3 411.8L1032.7 660.4L1034 403.6L1035.3 663.5L1036.7 400.5L1038 638.3L1039.3 409.3L1040.7 628.9L1042 425.1L1043.3 657.1L1044.7 397.3L1046 644.5L1047.3 424.2L1048.7 619.7L1050 402.5L1051.3 650.1L1052.7 416.6L1054 635.2L1055.3 407.1L1056.7 641.5L1058 421.4L1059.3 654.4L1060.7 381.7L1062 618.3L1063.3 421.3L1064.7 643.7L1066 385.1L1067.3 642.6L1068.7 405.2L1070 662.6L1071.3 410.7L1072.7 622.4L1074 401.6L1075.3 629.5L1076.7 364.7L1078 623.2L1079.3 410.4L1080.7 628.2L1082 407.8L1083.3 612.9L1084.7 390.1L1086 662.6L1087.3 418.7L1088.7 646.1L1090 390.7L1091.3 660.3L1092.7 385.3L1094 618.6L1095.3 398.6L1096.7 664.3L1098 401.9L1099.3 655.2L1100.7 374L1102 661.8L1103.3 415.8L1104.7 636.8L1106 386L1107.3 619.6L1108.7 410.2L1110 629.3L1111.3 389.5L1112.7 633L1114 422.5L1115.3 659.1L1116.7 402.7L1118 615.1L1119.3 406.9L1120.7 650L1122 416.7L1123.3 640.2L1124.7 415.5L1126 652.6L1127.3 424.8L1128.7 609.2L1130 413.1L1131.3 626.8L1132.7 428.3L1134 638.4L1135.3 407.3L1136.7 672.1L1138 410.1L1139.3 624.1L1140.7 408.6L1142 606.1L1143.3 396L1144.7 616.2L1146 384L1147.3 617.8L1148.7 387.1L1150 625.6L1151.3 406.7L1152.7 627L1154 377L1155.3 633.8L1156.7 417.1L1158 651.6L1159.3 365.3L1160.7 629.4L1162 409.1L1163.3 641.7L1164.7 393.8L1166 628.3L1167.3 418.9L1168.7 637.3L1170 422L1171.3 621.2L1172.7 388.9L1174 652.1L1175.3 431.9L1176.7 642.8L1178 417.9L1179.3 640.2L1180.7 403.4L1182 646.3L1183.3 342.2L1184.7 633.7L1186 411.4L1187.3 662.6L1188.7 381L1190 661.5L1191.3 413.3L1192.7 659.1L1194 409.8L1195.3 617L1196.7 421.3L1198 656.3L1199.3 423.5L1200.7 636.7L1202 374.2L1203.3 649.3L1204.7 407.2L1206 670.1L1207.3 352.8L1208.7 650.5L1210 404.3L1211.3 663.8L1212.7 415.4L1214 624.8L1215.3 431.7L1216.7 659.1L1218 413.6L1219.3 648.2L1220.7 398.6L1222 599.9L1223.3 354.7L1224.7 583.9L1226 390.2L1227.3 599.6L1228.7 360.8L1230 604.8L1231.3 324L1232.7 614.7L1234 370L1235.3 602.1L1236.7 320.6L1238 583.9L1239.3 382.4L1240.7 532.2L1242 381.2L1243.3 589.3L1244.7 342.3L1246 597.5L1247.3 377.6L1248.7 580.1L1250 352.9L1251.3 576.1L1252.7 338L1254 571.6L1255.3 367.7L1256.7 576.8L1258 388.1L1259.3 601.9L1260.7 368.6L1262 580.3L1263.3 348.7L1264.7 599.3L1266 368.2L1267.3 590.8L1268.7 356.7L1270 570.1L1271.3 393.2L1272.7 601.4L1274 350.3L1275.3 596.8L1276.7 378.8L1278 587.1L1279.3 380.5L1280.7 585.7L1282 359.7L1283.3 584.6L1284.7 366.9L1286 628.2L1287.3 380.3L1288.7 580.5L1290 370.7L1291.3 581.2L1292.7 393.1L1294 612.4L1295.3 402.6L1296.7 589.5L1298 374.8L1299.3 614.9L1300.7 343L1302 625.1L1303.3 382.8L1304.7 601.3L1306 381.3L1307.3 657.4L1308.7 408.7L1310 603.9L1311.3 403.4L1312.7 660.9L1314 413.2L1315.3 579.5L1316.7 402.6L1318 630.5L1319.3 408.8L1320.7 632.4L1322 403.1L1323.3 657.1L1324.7 404.2L1326 633.3L1327.3 305.3L1328.7 661.2L1330 424.9L1331.3 658.9L1332.7 385.4L1334 629.9L1335.3 382.9L1336.7 646.8L1338 387.2L1339.3 621.6L1340.7 397.9L1342 661.9L1343.3 410.6L1344.7 623.6L1346 390.5L1347.3 658.4L1348.7 385.6L1350 641.6L1351.3 378.1L1352.7 649.7L1354 419.3L1355.3 660.5L1356.7 420L1358 650.7L1359.3 400.7L1360.7 641.3L1362 420.1L1363.3 626.3L1364.7 409.5L1366 626.9L1367.3 419.3L1368.7 635.6L1370 399.6L1371.3 657.3L1372.7 434.6L1374 636.3L1375.3 412.9L1376.7 618.4L1378 382.7L1379.3 622.3L1380.7 367.3L1382 629.1L1383.3 371.7L1384.7 637.3L1386 375.3L1387.3 614.2L1388.7 394.8L1390 597.5L1391.3 390.3L1392.7 614.3L1394 401.9L1395.3 639.4L1396.7 373.8L1398 648.9L1399.3 407.8L1400.7 618.4L1402 420.7L1403.3 637.4L1404.7 418.6L1406 652.6L1407.3 399.5L1408.7 624L1410 419.3L1411.3 655.8L1412.7 417.4L1414 623.5L1415.3 392.2L1416.7 638.4L1418 425.9L1419.3 669L1420.7 403.1L1422 647.2L1423.3 403.3L1424.7 634.3L1426 396.9L1427.3 603.5L1428.7 418.7L1430 640.5L1431.3 408.1L1432.7 643.1L1434 405L1435.3 632.1L1436.7 427.8L1438 620.1L1439.3 392.2L1440.7 658.7L1442 390.2L1443.3 672.1L1444.7 430L1446 650.9L1447.3 418L1448.7 641.2L1450 415.5L1451.3 634L1452.7 398.5L1454 650.4L1455.3 426.7L1456.7 645.3L1458 418.7L1459.3 666.9L1460.7 371.5L1462 656.1L1463.3 398.9L1464.7 590.8L1466 387.6L1467.3 567.7L1468.7 401.5L1470 614.2L1471.3 391.5L1472.7 630.3L1474 348.5L1475.3 628.3L1476.7 396.6L1478 659.6L1479.3 390L1480.7 648.1L1482 396.1L1483.3 648.9L1484.7 390.8L1486 622.9L1487.3 404.6L1488.7 663.1L1490 374.4L1491.3 640.8L1492.7 426.5L1494 656.9L1495.3 417.5L1496.7 610.3L1498 401.6L1499.3 670.5L1500.7 409.4L1502 622.9L1503.3 396.5L1504.7 641.4L1506 412.2L1507.3 618.6L1508.7 385L1510 680.7L1511.3 428L1512.7 630.3L1514 408.2L1515.3 624.9L1516.7 414.3L1518 642.4L1519.3 393.7L1520.7 638.9L1522 416.8L1523.3 665.2L1524.7 383.2L1526 645.1L1527.3 416.9L1528.7 653.2L1530 425.7L1531.3 655.6L1532.7 393L1534 628.3L1535.3 383.3L1536.7 637.3L1538 423.1L1539.3 630.7L1540.7 417.8L1542 617.5L1543.3 365.4L1544.7 609.4L1546 377.5L1547.3 587.3L1548.7 367.9L1550 588.9L1551.3 341.9L1552.7 573.4L1554 325.7L1555.3 581L1556.7 346.1L1558 582.7L1559.3 367.6L1560.7 556.8L1562 385.7L1563.3 590.8L1564.7 358.8L1566 578.1L1567.3 386.9L1568.7 582L1570 365.1L1571.3 564.4L1572.7 346.4L1574 624.9L1575.3 361.3L1576.7 611L1578 389.2L1579.3 582.9L1580.7 371.6L1582 499.9L1583.3 365.7L1584.7 605.6L1586 348.6L1587.3 604.6L1588.7 398.1L1590 602.1L1591.3 380.7L1592.7 598.6L1594 361.3L1595.3 588.2L1596.7 410.9L1598 596.4L1599.3 354.6L1600.7 584L1602 344.3L1603.3 582.9L1604.7 392.3L1606 592.5L1607.3 400.8L1608.7 609.8L1610 367.3L1611.3 616.8L1612.7 425.3L1614 590.3L1615.3 359.3L1616.7 617.8L1618 425.9L1619.3 589.3L1620.7 327.2L1622 612.1L1623.3 394.5L1624.7 614.6L1626 401L1627.3 628.3L1628.7 404.2L1630 623.4L1631.3 383.6L1632.7 638.5L1634 400.9L1635.3 624.9L1636.7 370.7L1638 620.8L1639.3 409.8L1640.7 584.6L1642 367.1L1643.3 657L1644.7 407.9L1646 636L1647.3 395L1648.7 655.1L1650 386.8L1651.3 633.3L1652.7 375.1L1654 633.1L1655.3 434.6L1656.7 641.2L1658 399.1L1659.3 651.9L1660.7 414L1662 629.6L1663.3 411.5L1664.7 627L1666 393.9L1667.3 661.4L1668.7 417.2L1670 641.6L1671.3 413L1672.7 661.4L1674 430.8L1675.3 642L1676.7 409.3L1678 636.8L1679.3 410.8L1680.7 634.5L1682 402.8L1683.3 636.7L1684.7 427L1686 660L1687.3 436.6L1688.7 666L1690 411.6L1691.3 608.4L1692.7 429.8L1694 661.1L1695.3 412.4L1696.7 667.5L1698 439.2L1699.3 649.8L1700.7 372.6L1702 649.6L1703.3 378.7L1704.7 618.3L1706 379.9L1707.3 634.9L1708.7 382.7L1710 633.8L1711.3 398.4L1712.7 625.1L1714 403.9L1715.3 632L1716.7 347.5L1718 633L1719.3 418.4L1720.7 650.1L1722 410.8L1723.3 641L1724.7 404.5L1726 642.9L1727.3 377.5L1728.7 627.7L1730 415.3L1731.3 660L1732.7 387.1L1734 623.1L1735.3 412.9L1736.7 657.9L1738 430L1739.3 660.5L1740.7 394.3L1742 656.9L1743.3 408.7L1744.7 660.1L1746 416.2L1747.3 640.1L1748.7 385.8L1750 631L1751.3 407.1L1752.7 635L1754 421.2L1755.3 647.5L1756.7 406.3L1758 650.4L1759.3 383.3L1760.7 620.1L1762 425.5L1763.3 650.6L1764.7 389.9L1766 629.2L1767.3 413.6L1768.7 640.4L1770 424.5L1771.3 631.2L1772.7 433.8L1774 639.9L1775.3 412.4L1776.7 631.5L1778 402.2L1779.3 657.4L1780.7 393.6L1782 590.5L1783.3 390.6L1784.7 622.5L1786 414.1L1787.3 649.3L1788.7 396.6L1790 627.4L1791.3 405.8L1792.7 639.8L1794 398.7L1795.3 660.8L1796.7 407.6L1798 653.8L1799.3 398" fill="transparent" stroke="#3fb1e3" stroke-width="3" stroke-linejoin="bevel" class="zr45-cls-137"></path>
</g>
<path d="M-321.4 -5l642.7 0l0 28l-642.7 0Z" transform="translate(1000 5)" fill="rgb(0,0,0)" fill-opacity="0" stroke="#ccc" stroke-width="0" class="zr45-cls-135"></path>
<text dominant-baseline="central" text-anchor="middle" style="font-size:18px;font-family:sans-serif;font-weight:bold;" xml:space="preserve" y="9" transform="translate(1000 5)" fill="#666666">Min controlBehaviorUpdate per Tick for bench_1_every_60_staggered_reverse</text>
<defs >
<clipPath id="zr45-c0">
<path d="M198 58.5l16004 0l0 8703l-16004 0Z" fill="#000" class="zr45-cls-136"></path>
</clipPath>
</defs>
<style ><![CDATA[
.zr45-cls-135:hover {
pointer-events:none;
}
.zr45-cls-136:hover {
cursor:pointer;
fill:rgba(0,0,0,1);
}
.zr45-cls-137:hover {
cursor:pointer;
}

]]>

</style>
</svg>