<svg width="2000" height="1000" xmlns="http://www.w3.org/2000/svg" xmlns:xlink="http://www.w3.org/1999/xlink" version="1.1" baseProfile="full" viewBox="0 0 2000 1000">
<rect width="2000" height="1000" x="0" y="0" fill="rgb(252,252,252)" fill-opacity="0"></rect>
<path d="M200 930.5L1800 930.5" fill="transparent" stroke="#eeeeee" class="zr23-cls-69"></path>
<path d="M200 743.5L1800 743.5" fill="transparent" stroke="#eeeeee" class="zr23-cls-69"></path>
<path d="M200 556.5L1800 556.5" fill="transparent" stroke="#eeeeee" class="zr23-cls-69"></path>
<path d="M200 370.5L1800 370.5" fill="transparent" stroke="#eeeeee" class="zr23-cls-69"></path>
<path d="M200 183.5L1800 183.5" fill="transparent" stroke="#eeeeee" class="zr23-cls-69"></path>
<path d="M200 60.5L1800 60.5" fill="transparent" stroke="#eeeeee" class="zr23-cls-69"></path>
<path d="M200.5 930L200.5 60" fill="transparent" stroke="#cccccc" stroke-linecap="round" class="zr23-cls-69"></path>
<text dominant-baseline="central" text-anchor="middle" style="font-size:12px;font-family:sans-serif;" xml:space="preserve" y="-6" transform="translate(200 45)" fill="#cccccc">Min entityUpdate Time (ms)</text>
<path d="M200 930.5L1800 930.5" fill="transparent" stroke="#cccccc" stroke-linecap="round" class="zr23-cls-69"></path>
<text dominant-baseline="central" text-anchor="end" style="font-size:12px;font-family:sans-serif;" transform="translate(192 930)" fill="#999999">0.000</text>
<text dominant-baseline="central" text-anchor="end" style="font-size:12px;font-family:sans-serif;" transform="translate(192 743.2702)" fill="#999999">1.000</text>
<text dominant-baseline="central" text-anchor="end" style="font-size:12px;font-family:sans-serif;" transform="translate(192 556.5403)" fill="#999999">2.000</text>
<text dominant-baseline="central" text-anchor="end" style="font-size:12px;font-family:sans-serif;" transform="translate(192 369.8105)" fill="#999999">3.000</text>
<text dominant-baseline="central" text-anchor="end" style="font-size:12px;font-family:sans-serif;" transform="translate(192 183.0807)" fill="#999999">4.000</text>
<text dominant-baseline="central" text-anchor="end" style="font-size:12px;font-family:sans-serif;" transform="translate(192 60)" fill="#999999">4.659</text>
<text dominant-baseline="central" text-anchor="middle" style="font-size:12px;font-family:sans-serif;" y="6" transform="translate(200.6667 938)" fill="#999999">0</text>
<text dominant-baseline="central" text-anchor="middle" style="font-size:12px;font-family:sans-serif;" y="6" transform="translate(236.6667 938)" fill="#999999">27</text>
<text dominant-baseline="central" text-anchor="middle" style="font-size:12px;font-family:sans-serif;" y="6" transform="translate(272.6667 938)" fill="#999999">54</text>
<text dominant-baseline="central" text-anchor="middle" style="font-size:12px;font-family:sans-serif;" y="6" transform="translate(308.6667 938)" fill="#999999">81</text>
<text dominant-baseline="central" text-anchor="middle" style="font-size:12px;font-family:sans-serif;" y="6" transform="translate(344.6667 938)" fill="#999999">108</text>
<text dominant-baseline="central" text-anchor="middle" style="font-size:12px;font-family:sans-serif;" y="6" transform="translate(380.6667 938)" fill="#999999">135</text>
<text dominant-baseline="central" text-anchor="middle" style="font-size:12px;font-family:sans-serif;" y="6" transform="translate(416.6667 938)" fill="#999999">162</text>
<text dominant-baseline="central" text-anchor="middle" style="font-size:12px;font-family:sans-serif;" y="6" transform="translate(452.6667 938)" fill="#999999">189</text>
<text dominant-baseline="central" text-anchor="middle" style="font-size:12px;font-family:sans-serif;" y="6" transform="translate(488.6667 938)" fill="#999999">216</text>
<text dominant-baseline="central" text-anchor="middle" style="font-size:12px;font-family:sans-serif;" y="6" transform="translate(524.6667 938)" fill="#999999">243</text>
<text dominant-baseline="central" text-anchor="middle" style="font-size:12px;font-family:sans-serif;" y="6" transform="translate(560.6667 938)" fill="#999999">270</text>
<text dominant-baseline="central" text-anchor="middle" style="font-size:12px;font-family:sans-serif;" y="6" transform="translate(596.6667 938)" fill="#999999">297</text>
<text dominant-baseline="central" text-anchor="middle" style="font-size:12px;font-family:sans-serif;" y="6" transform="translate(632.6667 938)" fill="#999999">324</text>
<text dominant-baseline="central" text-anchor="middle" style="font-size:12px;font-family:sans-serif;" y="6" transform="translate(668.6667 938)" fill="#999999">351</text>
<text dominant-baseline="central" text-anchor="middle" style="font-size:12px;font-family:sans-serif;" y="6" transform="translate(704.6667 938)" fill="#999999">378</text>
<text dominant-baseline="central" text-anchor="middle" style="font-size:12px;font-family:sans-serif;" y="6" transform="translate(740.6667 938)" fill="#999999">405</text>
<text dominant-baseline="central" text-anchor="middle" style="font-size:12px;font-family:sans-serif;" y="6" transform="translate(776.6667 938)" fill="#999999">432</text>
<text dominant-baseline="central" text-anchor="middle" style="font-size:12px;font-family:sans-serif;" y="6" transform="translate(812.6667 938)" fill="#999999">459</text>
<text dominant-baseline="central" text-anchor="middle" style="font-size:12px;font-family:sans-serif;" y="6" transform="translate(848.6667 938)" fill="#999999">486</text>
<text dominant-baseline="central" text-anchor="middle" style="font-size:12px;font-family:sans-serif;" y="6" transform="translate(884.6667 938)" fill="#999999">513</text>
<text dominant-baseline="central" text-anchor="middle" style="font-size:12px;font-family:sans-serif;" y="6" transform="translate(920.6667 938)" fill="#999999">540</text>
<text dominant-baseline="central" text-anchor="middle" style="font-size:12px;font-family:sans-serif;" y="6" transform="translate(956.6667 938)" fill="#999999">567</text>
<text dominant-baseline="central" text-anchor="middle" style="font-size:12px;font-family:sans-serif;" y="6" transform="translate(992.6667 938)" fill="#999999">594</text>
<text dominant-baseline="central" text-anchor="middle" style="font-size:12px;font-family:sans-serif;" y="6" transform="translate(1028.6667 938)" fill="#999999">621</text>
<text dominant-baseline="central" text-anchor="middle" style="font-size:12px;font-family:sans-serif;" y="6" transform="translate(1064.6667 938)" fill="#999999">648</text>
<text dominant-baseline="central" text-anchor="middle" style="font-size:12px;font-family:sans-serif;" y="6" transform="translate(1100.6667 938)" fill="#999999">675</text>
<text dominant-baseline="central" text-anchor="middle" style="font-size:12px;font-family:sans-serif;" y="6" transform="translate(1136.6667 938)" fill="#999999">702</text>
<text dominant-baseline="central" text-anchor="middle" style="font-size:12px;font-family:sans-serif;" y="6" transform="translate(1172.6667 938)" fill="#999999">729</text>
<text dominant-baseline="central" text-anchor="middle" style="font-size:12px;font-family:sans-serif;" y="6" transform="translate(1208.6667 938)" fill="#999999">756</text>
<text dominant-baseline="central" text-anchor="middle" style="font-size:12px;font-family:sans-serif;" y="6" transform="translate(1244.6667 938)" fill="#999999">783</text>
<text dominant-baseline="central" text-anchor="middle" style="font-size:12px;font-family:sans-serif;" y="6" transform="translate(1280.6667 938)" fill="#999999">810</text>
<text dominant-baseline="central" text-anchor="middle" style="font-size:12px;font-family:sans-serif;" y="6" transform="translate(1316.6667 938)" fill="#999999">837</text>
<text dominant-baseline="central" text-anchor="middle" style="font-size:12px;font-family:sans-serif;" y="6" transform="translate(1352.6667 938)" fill="#999999">864</text>
<text dominant-baseline="central" text-anchor="middle" style="font-size:12px;font-family:sans-serif;" y="6" transform="translate(1388.6667 938)" fill="#999999">891</text>
<text dominant-baseline="central" text-anchor="middle" style="font-size:12px;font-family:sans-serif;" y="6" transform="translate(1424.6667 938)" fill="#999999">918</text>
<text dominant-baseline="central" text-anchor="middle" style="font-size:12px;font-family:sans-serif;" y="6" transform="translate(1460.6667 938)" fill="#999999">945</text>
<text dominant-baseline="central" text-anchor="middle" style="font-size:12px;font-family:sans-serif;" y="6" transform="translate(1496.6667 938)" fill="#999999">972</text>
<text dominant-baseline="central" text-anchor="middle" style="font-size:12px;font-family:sans-serif;" y="6" transform="translate(1532.6667 938)" fill="#999999">999</text>
<text dominant-baseline="central" text-anchor="middle" style="font-size:12px;font-family:sans-serif;" y="6" transform="translate(1568.6667 938)" fill="#999999">1026</text>
<text dominant-baseline="central" text-anchor="middle" style="font-size:12px;font-family:sans-serif;" y="6" transform="translate(1604.6667 938)" fill="#999999">1053</text>
<text dominant-baseline="central" text-anchor="middle" style="font-size:12px;font-family:sans-serif;" y="6" transform="translate(1640.6667 938)" fill="#999999">1080</text>
<text dominant-baseline="central" text-anchor="middle" style="font-size:12px;font-family:sans-serif;" y="6" transform="translate(1676.6667 938)" fill="#999999">1107</text>
<text dominant-baseline="central" text-anchor="middle" style="font-size:12px;font-family:sans-serif;" y="6" transform="translate(1712.6667 938)" fill="#999999">1134</text>
<text dominant-baseline="central" text-anchor="middle" style="font-size:12px;font-family:sans-serif;" y="6" transform="translate(1748.6667 938)" fill="#999999">1161</text>
<text dominant-baseline="central" text-anchor="middle" style="font-size:12px;font-family:sans-serif;" y="6" transform="translate(1784.6667 938)" fill="#999999">1188</text>
<g clip-path="url(#zr23-c0)">
<path d="M200.7 815.7L202 782.2L203.3 856.6L204.7 834.9L206 871.7L207.3 835.8L208.7 871.7L210 836.6L211.3 872.4L212.7 901.6L214 929.5L215.3 929.6L216.7 929.7L218 929.7L219.3 929.6L220.7 929.5L222 929.6L223.3 929.7L224.7 929.6L226 929.7L227.3 929.5L228.7 929.7L230 929.7L231.3 929.7L232.7 929.7L234 929.7L235.3 929.7L236.7 929.7L238 929.7L239.3 929.7L240.7 929.7L242 929.7L243.3 929.7L244.7 929.7L246 929.6L247.3 929.7L248.7 929.6L250 929.7L251.3 929.6L252.7 929.6L254 929.6L255.3 929.6L256.7 929.7L258 929.7L259.3 929.7L260.7 929.7L262 929.5L263.3 929.6L264.7 929.6L266 929.7L267.3 929.7L268.7 929.7L270 929.6L271.3 929.6L272.7 929.6L274 929.7L275.3 929.7L276.7 929.7L278 929.7L279.3 929.7L280.7 929.6L282 929.7L283.3 929.7L284.7 929.6L286 929.7L287.3 929.6L288.7 -2399.4L290 -1956L291.3 -2470.1L292.7 -2134.4L294 477L295.3 507.6L296.7 603.1L298 -4177.8L299.3 -1688.3L300.7 160.9L302 555.6L303.3 460.4L304.7 861.6L306 801L307.3 866L308.7 780.9L310 867.4L311.3 805.6L312.7 872.8L314 810.3L315.3 867L316.7 811.5L318 872.2L319.3 818.8L320.7 872.2L322 815.1L323.3 872.2L324.7 813.1L326 872.3L327.3 812.7L328.7 873.1L330 818.2L331.3 872L332.7 807.4L334 872.5L335.3 811.2L336.7 868.5L338 819.5L339.3 871.8L340.7 820.4L342 871.4L343.3 819.1L344.7 871.4L346 810.2L347.3 870.8L348.7 811.1L350 872.9L351.3 815L352.7 872L354 815.2L355.3 872.6L356.7 813.5L358 867.5L359.3 814.8L360.7 873.3L362 820.2L363.3 871.8L364.7 816.7L366 870.7L367.3 812.4L368.7 873L370 827.1L371.3 872.3L372.7 833.3L374 872L375.3 832.3L376.7 870.3L378 828.8L379.3 868.8L380.7 830.5L382 872L383.3 835.6L384.7 872.3L386 833L387.3 872.3L388.7 830.3L390 870.1L391.3 826.7L392.7 871.3L394 831.8L395.3 872.2L396.7 830.5L398 870.2L399.3 834.9L400.7 871L402 827L403.3 869.9L404.7 828.2L406 871.6L407.3 829.2L408.7 870.1L410 835L411.3 872L412.7 834.7L414 872L415.3 829.9L416.7 866.8L418 818.4L419.3 871.1L420.7 835.2L422 870.7L423.3 833.5L424.7 872.2L426 834.2L427.3 870.8L428.7 833.5L430 871.2L431.3 834.2L432.7 871.2L434 833.5L435.3 871.7L436.7 835.7L438 868.9L439.3 831.6L440.7 868.4L442 816.6L443.3 871.4L444.7 830.2L446 872L447.3 836L448.7 870.8L450 834.4L451.3 872.7L452.7 829.1L454 869.9L455.3 832.8L456.7 871L458 830.2L459.3 858.9L460.7 835.1L462 863.5L463.3 836.4L464.7 872.7L466 829.7L467.3 867.4L468.7 832.3L470 869.2L471.3 834.5L472.7 871.6L474 835.6L475.3 870.6L476.7 836.4L478 871.4L479.3 831.4L480.7 867.6L482 826.3L483.3 870.7L484.7 823.4L486 870.8L487.3 836L488.7 872.2L490 835.7L491.3 868L492.7 831L494 870.6L495.3 835.7L496.7 871.7L498 835.6L499.3 872.3L500.7 834.7L502 871.8L503.3 835.5L504.7 869.4L506 834.5L507.3 871.3L508.7 835.8L510 871.8L511.3 835.8L512.7 871.7L514 835.8L515.3 871.7L516.7 824.2L518 871.9L519.3 832.4L520.7 870.1L522 834.4L523.3 871.7L524.7 834.9L526 871.7L527.3 836.4L528.7 872L530 836.4L531.3 871.7L532.7 916L534 929.6L535.3 929.6L536.7 929.5L538 929.5L539.3 929.6L540.7 929.6L542 929.6L543.3 929.7L544.7 929.5L546 929.6L547.3 929.5L548.7 929.6L550 929.7L551.3 929.7L552.7 929.7L554 929.6L555.3 929.7L556.7 929.7L558 929.7L559.3 929.7L560.7 929.6L562 929.6L563.3 929.6L564.7 929.6L566 929.6L567.3 929.6L568.7 929.6L570 929.6L571.3 929.7L572.7 929.6L574 929.7L575.3 929.6L576.7 929.6L578 929.6L579.3 929.7L580.7 929.6L582 929.7L583.3 929.7L584.7 929.7L586 929.7L587.3 929.6L588.7 929.7L590 929.7L591.3 929.7L592.7 929.7L594 929.7L595.3 929.6L596.7 929.6L598 929.7L599.3 929.7L600.7 929.7L602 929.7L603.3 929.7L604.7 929.7L606 929.6L607.3 929.7L608.7 -2368.6L610 -2054.2L611.3 -2545.1L612.7 -2122.7L614 498.1L615.3 515.8L616.7 599.6L618 -4048.1L619.3 -1606L620.7 157.2L622 547.2L623.3 459.3L624.7 847.2L626 800.4L627.3 868.5L628.7 815.6L630 870.5L631.3 818L632.7 873L634 795L635.3 872.9L636.7 811L638 871.5L639.3 805.3L640.7 871.4L642 817.3L643.3 872.7L644.7 813.7L646 873.1L647.3 816.9L648.7 871.5L650 820.1L651.3 871.9L652.7 818.9L654 872.3L655.3 817.6L656.7 872.2L658 815.1L659.3 871.9L660.7 821.3L662 872.2L663.3 819.6L664.7 873.2L666 820.2L667.3 872.7L668.7 804.4L670 866.4L671.3 817.6L672.7 869.1L674 817.7L675.3 872.6L676.7 821L678 873L679.3 800.8L680.7 873.2L682 816L683.3 872L684.7 819.8L686 872.4L687.3 818.1L688.7 872.9L690 835.3L691.3 872.3L692.7 831.4L694 864.6L695.3 832.5L696.7 871.8L698 835L699.3 871.3L700.7 836.4L702 872.5L703.3 835.8L704.7 872L706 829.7L707.3 871L708.7 833.8L710 871.6L711.3 833.9L712.7 871.5L714 836L715.3 872.1L716.7 836L718 872.5L719.3 834.2L720.7 869.8L722 835.4L723.3 871.8L724.7 835.6L726 871.6L727.3 829.8L728.7 871.9L730 836L731.3 871.7L732.7 834.1L734 870.4L735.3 835.3L736.7 871L738 836.1L739.3 871.4L740.7 835.9L742 871.7L743.3 837L744.7 872.4L746 835.9L747.3 870.8L748.7 835.1L750 871.9L751.3 835.9L752.7 872.2L754 834.2L755.3 871.9L756.7 837.2L758 872.1L759.3 834.5L760.7 870L762 835.6L763.3 871.9L764.7 836.3L766 871.9L767.3 830.3L768.7 872.1L770 836.2L771.3 872.2L772.7 827.9L774 870.5L775.3 834.4L776.7 871.7L778 836.3L779.3 871.1L780.7 830.8L782 872.3L783.3 836L784.7 870.2L786 836.1L787.3 871.9L788.7 834L790 866.8L791.3 836.1L792.7 872.2L794 836.1L795.3 872.5L796.7 836.2L798 871.3L799.3 836.7L800.7 871.4L802 835.6L803.3 871.9L804.7 836.1L806 859.1L807.3 836L808.7 871.9L810 837.1L811.3 871.7L812.7 835L814 872L815.3 835.3L816.7 871.3L818 836L819.3 872L820.7 836.4L822 871.7L823.3 833.8L824.7 871.4L826 835.9L827.3 872.1L828.7 835.3L830 872.2L831.3 833.7L832.7 870.3L834 833.6L835.3 872L836.7 836.1L838 869.8L839.3 836.1L840.7 870.5L842 836.9L843.3 871.8L844.7 834.4L846 871.6L847.3 835.8L848.7 871.6L850 836L851.3 871.9L852.7 915.8L854 929.6L855.3 929.6L856.7 929.7L858 929.7L859.3 929.6L860.7 929.6L862 929.6L863.3 929.7L864.7 929.7L866 929.7L867.3 929.6L868.7 929.6L870 929.6L871.3 929.5L872.7 929.5L874 929.7L875.3 929.7L876.7 929.7L878 929.5L879.3 929.6L880.7 929.6L882 929.6L883.3 929.6L884.7 929.6L886 929.7L887.3 929.7L888.7 929.6L890 929.6L891.3 929.6L892.7 929.6L894 929.6L895.3 929.7L896.7 929.7L898 929.7L899.3 929.7L900.7 929.7L902 929.7L903.3 929.7L904.7 929.6L906 929.6L907.3 929.7L908.7 929.6L910 929.6L911.3 929.6L912.7 929.6L914 929.6L915.3 929.7L916.7 929.7L918 929.7L919.3 929.7L920.7 929.6L922 929.6L923.3 929.6L924.7 929.7L926 929.7L927.3 929.7L928.7 -2443.1L930 -2087.6L931.3 -2596.3L932.7 -2146.8L934 456.3L935.3 495.4L936.7 611L938 -4349.5L939.3 -1636.6L940.7 200.2L942 537.4L943.3 486.8L944.7 848.9L946 802.6L947.3 871.2L948.7 807.9L950 870.3L951.3 817.2L952.7 872.1L954 818.1L955.3 871.8L956.7 818.4L958 871.6L959.3 817.7L960.7 870.2L962 818.3L963.3 872.4L964.7 819.1L966 872.3L967.3 818.6L968.7 871.2L970 809.7L971.3 872.9L972.7 819.2L974 872.7L975.3 821.1L976.7 870.4L978 821.7L979.3 872.8L980.7 819.3L982 872.5L983.3 820.4L984.7 872.3L986 819.6L987.3 871.6L988.7 813L990 872.4L991.3 816.4L992.7 872.5L994 817.2L995.3 872.2L996.7 821.3L998 872L999.3 820.1L1000.7 872.5L1002 816.2L1003.3 872.7L1004.7 816.7L1006 871.7L1007.3 820L1008.7 872.7L1010 836L1011.3 871.6L1012.7 835.9L1014 871.7L1015.3 828.4L1016.7 871.6L1018 835.4L1019.3 871.5L1020.7 836.6L1022 871.2L1023.3 836.3L1024.7 871.8L1026 833.7L1027.3 871.6L1028.7 830.3L1030 869.4L1031.3 830.3L1032.7 869.6L1034 833L1035.3 871.3L1036.7 835.7L1038 871.1L1039.3 833.9L1040.7 871.3L1042 832.6L1043.3 871.2L1044.7 836.3L1046 871L1047.3 835.9L1048.7 871.5L1050 833.8L1051.3 871.6L1052.7 835.7L1054 869.7L1055.3 833.4L1056.7 869.2L1058 835.5L1059.3 871.6L1060.7 836.4L1062 871.6L1063.3 835.3L1064.7 871.5L1066 831L1067.3 864.2L1068.7 832.9L1070 871.1L1071.3 835.7L1072.7 871.5L1074 834.3L1075.3 870.8L1076.7 835.6L1078 871.4L1079.3 834.9L1080.7 869.2L1082 834.4L1083.3 871L1084.7 836.1L1086 871.6L1087.3 835.9L1088.7 871L1090 835.9L1091.3 871.6L1092.7 815.5L1094 870.2L1095.3 829.3L1096.7 870.5L1098 835.8L1099.3 869.8L1100.7 834.2L1102 871.8L1103.3 835.6L1104.7 871.7L1106 807.6L1107.3 865.2L1108.7 831.3L1110 868.8L1111.3 825.3L1112.7 869.8L1114 834.2L1115.3 870.2L1116.7 831.2L1118 867.9L1119.3 815.8L1120.7 870.2L1122 833.2L1123.3 871.8L1124.7 833.2L1126 869.1L1127.3 834.7L1128.7 870.7L1130 834.1L1131.3 870.5L1132.7 832.8L1134 871.8L1135.3 831.6L1136.7 871.8L1138 835L1139.3 871L1140.7 836.1L1142 869.9L1143.3 827.8L1144.7 866.4L1146 832.3L1147.3 869.6L1148.7 834.4L1150 860.8L1151.3 836L1152.7 871.1L1154 835.2L1155.3 870.6L1156.7 835.3L1158 867L1159.3 830.2L1160.7 869.7L1162 834.1L1163.3 871.6L1164.7 835.9L1166 871.6L1167.3 835.3L1168.7 869.7L1170 834.9L1171.3 871L1172.7 915.8L1174 929.6L1175.3 929.6L1176.7 929.6L1178 929.7L1179.3 929.6L1180.7 929.6L1182 929.6L1183.3 929.7L1184.7 929.6L1186 929.5L1187.3 929.6L1188.7 929.7L1190 929.6L1191.3 929.7L1192.7 929.6L1194 929.6L1195.3 929.6L1196.7 929.7L1198 929.6L1199.3 929.6L1200.7 929.7L1202 929.6L1203.3 929.5L1204.7 929.6L1206 929.5L1207.3 929.6L1208.7 929.6L1210 929.7L1211.3 929.7L1212.7 929.6L1214 929.6L1215.3 929.6L1216.7 929.6L1218 929.6L1219.3 929.6L1220.7 929.7L1222 929.6L1223.3 929.7L1224.7 929.5L1226 929.7L1227.3 929.7L1228.7 929.7L1230 929.4L1231.3 929.6L1232.7 929.6L1234 929.6L1235.3 929.6L1236.7 929.6L1238 929.6L1239.3 929.6L1240.7 929.6L1242 929.7L1243.3 929.6L1244.7 929.6L1246 929.6L1247.3 929.6L1248.7 -2587.9L1250 -2250.2L1251.3 -2810.6L1252.7 -2244.3L1254 436.5L1255.3 446.2L1256.7 568.9L1258 -4417.9L1259.3 -1632.6L1260.7 151.3L1262 564.8L1263.3 430L1264.7 843.1L1266 792.5L1267.3 858.1L1268.7 808L1270 868.3L1271.3 812L1272.7 872.2L1274 811.8L1275.3 871.9L1276.7 805.2L1278 872.3L1279.3 812.4L1280.7 870L1282 817.4L1283.3 872.6L1284.7 818.3L1286 870L1287.3 818.4L1288.7 870.8L1290 814.9L1291.3 871.4L1292.7 816.8L1294 872.2L1295.3 820L1296.7 870.1L1298 820.4L1299.3 872.4L1300.7 797L1302 871.3L1303.3 819.1L1304.7 870.3L1306 818.9L1307.3 871.9L1308.7 813.3L1310 869.9L1311.3 818.4L1312.7 871.3L1314 820.2L1315.3 872.4L1316.7 818.9L1318 871.4L1319.3 815.7L1320.7 872L1322 819.1L1323.3 871L1324.7 816.4L1326 872.6L1327.3 819.3L1328.7 869.7L1330 832L1331.3 870.8L1332.7 835.6L1334 871.4L1335.3 832.1L1336.7 871.5L1338 836.4L1339.3 869.8L1340.7 835L1342 870.9L1343.3 830.4L1344.7 871.2L1346 834.3L1347.3 870.2L1348.7 833.3L1350 870.7L1351.3 833.1L1352.7 870.6L1354 833.1L1355.3 869.5L1356.7 835.4L1358 870.3L1359.3 834.5L1360.7 869.9L1362 826.3L1363.3 868.9L1364.7 834L1366 871.6L1367.3 829L1368.7 870.1L1370 832.3L1371.3 869.2L1372.7 829.2L1374 869.9L1375.3 835L1376.7 871.4L1378 835.3L1379.3 870.1L1380.7 834.5L1382 870.7L1383.3 833.9L1384.7 870.2L1386 833.7L1387.3 871.8L1388.7 835.1L1390 871.3L1391.3 835.6L1392.7 869.2L1394 828.4L1395.3 862.2L1396.7 832.5L1398 871.1L1399.3 833.7L1400.7 871.7L1402 835.5L1403.3 871.9L1404.7 832.8L1406 870.2L1407.3 828.7L1408.7 869.6L1410 827.9L1411.3 871L1412.7 833L1414 870.4L1415.3 835.8L1416.7 871.3L1418 833.4L1419.3 871.1L1420.7 831.7L1422 869.5L1423.3 833.4L1424.7 870.2L1426 834.8L1427.3 872.2L1428.7 835.9L1430 871.7L1431.3 835.2L1432.7 868L1434 832L1435.3 867.7L1436.7 833.4L1438 870.4L1439.3 835.9L1440.7 870.8L1442 832.9L1443.3 869.1L1444.7 836.7L1446 865L1447.3 831.2L1448.7 867.1L1450 833.5L1451.3 870.8L1452.7 835.9L1454 872.4L1455.3 834.2L1456.7 871.8L1458 835.6L1459.3 858.3L1460.7 828.4L1462 868.2L1463.3 828.4L1464.7 871.8L1466 832.9L1467.3 871.9L1468.7 832.8L1470 871.6L1471.3 829.6L1472.7 871.6L1474 832.9L1475.3 870.1L1476.7 834L1478 870.6L1479.3 836.3L1480.7 871.6L1482 834.4L1483.3 871.2L1484.7 835.7L1486 871.5L1487.3 833.8L1488.7 871.6L1490 834.3L1491.3 871.1L1492.7 916L1494 929.5L1495.3 929.7L1496.7 929.6L1498 929.7L1499.3 929.6L1500.7 929.6L1502 929.7L1503.3 929.7L1504.7 929.7L1506 929.6L1507.3 929.7L1508.7 929.7L1510 929.6L1511.3 929.7L1512.7 929.6L1514 929.6L1515.3 929.6L1516.7 929.7L1518 929.6L1519.3 929.6L1520.7 929.4L1522 929.6L1523.3 929.6L1524.7 929.7L1526 929.6L1527.3 929.7L1528.7 929.6L1530 929.6L1531.3 929.6L1532.7 929.6L1534 929.5L1535.3 929.7L1536.7 929.7L1538 929.7L1539.3 929.6L1540.7 929.7L1542 929.7L1543.3 929.7L1544.7 929.7L1546 929.7L1547.3 929.6L1548.7 929.6L1550 929.5L1551.3 929.7L1552.7 929.6L1554 929.6L1555.3 929.6L1556.7 929.6L1558 929.6L1559.3 929.6L1560.7 929.7L1562 929.7L1563.3 929.5L1564.7 929.6L1566 929.6L1567.3 929.7L1568.7 -2400.2L1570 -2074.6L1571.3 -2652.9L1572.7 -2201.3L1574 450.4L1575.3 461.3L1576.7 605.2L1578 -4359.3L1579.3 -1695.3L1580.7 181.2L1582 583L1583.3 497.6L1584.7 843.2L1586 782.5L1587.3 869.3L1588.7 812.7L1590 872.4L1591.3 817L1592.7 872.9L1594 807.6L1595.3 867.9L1596.7 816L1598 872L1599.3 818.5L1600.7 872.7L1602 818.1L1603.3 872.9L1604.7 807L1606 869.6L1607.3 811.7L1608.7 871.4L1610 819.6L1611.3 871.8L1612.7 817.1L1614 872.4L1615.3 814.2L1616.7 870.5L1618 819.6L1619.3 872.7L1620.7 822.6L1622 873L1623.3 820L1624.7 872.3L1626 818.6L1627.3 867.7L1628.7 812.3L1630 872.7L1631.3 819.7L1632.7 872.3L1634 821.5L1635.3 872L1636.7 820.7L1638 872.2L1639.3 819.3L1640.7 872.8L1642 819.8L1643.3 871.5L1644.7 819.6L1646 872.5L1647.3 820.4L1648.7 872.2L1650 833.5L1651.3 870.9L1652.7 830L1654 872.1L1655.3 830.4L1656.7 872.3L1658 830.8L1659.3 872.5L1660.7 836.7L1662 871.8L1663.3 835.7L1664.7 871.3L1666 833.9L1667.3 872.2L1668.7 836.1L1670 872L1671.3 835.1L1672.7 871.8L1674 835.8L1675.3 871.9L1676.7 836L1678 870.8L1679.3 834.4L1680.7 871.9L1682 835.7L1683.3 871.3L1684.7 830.5L1686 872.4L1687.3 836.1L1688.7 871.1L1690 836.5L1691.3 871.8L1692.7 831.9L1694 871.7L1695.3 832.1L1696.7 871L1698 835.5L1699.3 872.1L1700.7 834.7L1702 871.7L1703.3 836L1704.7 865.5L1706 834.4L1707.3 872.3L1708.7 834.8L1710 872.4L1711.3 836L1712.7 871.8L1714 835.9L1715.3 871.4L1716.7 836.5L1718 871.8L1719.3 821.9L1720.7 872L1722 835.3L1723.3 870.9L1724.7 835.6L1726 871.6L1727.3 835.5L1728.7 871.5L1730 836.5L1731.3 871.8L1732.7 836.4L1734 871.6L1735.3 834.7L1736.7 871.9L1738 836.1L1739.3 872L1740.7 835.2L1742 869.9L1743.3 836.4L1744.7 871.7L1746 830.2L1747.3 871.9L1748.7 829.4L1750 870L1751.3 835.9L1752.7 871.3L1754 834.6L1755.3 871.2L1756.7 836.4L1758 871.9L1759.3 827.7L1760.7 872.2L1762 833.2L1763.3 871.6L1764.7 836.2L1766 871.7L1767.3 836.8L1768.7 872L1770 831L1771.3 871.7L1772.7 836.2L1774 871.9L1775.3 830.9L1776.7 870.4L1778 823.8L1779.3 870.8L1780.7 835.7L1782 870.9L1783.3 835.7L1784.7 871.8L1786 836.6L1787.3 872.3L1788.7 832.9L1790 872.2L1791.3 828.9L1792.7 871.6L1794 835.7L1795.3 871.8L1796.7 836.4L1798 871.7L1799.3 833.5" fill="transparent" stroke="#3fb1e3" stroke-width="3" stroke-linejoin="bevel" class="zr23-cls-71"></path>
</g>
<path d="M-204.9 -5l409.8 0l0 28l-409.8 0Z" transform="translate(1000 5)" fill="rgb(0,0,0)" fill-opacity="0" stroke="#ccc" stroke-width="0" class="zr23-cls-69"></path>
<text dominant-baseline="central" text-anchor="middle" style="font-size:18px;font-family:sans-serif;font-weight:bold;" xml:space="preserve" y="9" transform="translate(1000 5)" fill="#666666">Min entityUpdate per Tick for bench_4_every_240</text>
<defs >
<clipPath id="zr23-c0">
<path d="M198 58.5l16004 0l0 8703l-16004 0Z" fill="#000" class="zr23-cls-70"></path>
</clipPath>
</defs>
<style ><![CDATA[
.zr23-cls-69:hover {
pointer-events:none;
}
.zr23-cls-70:hover {
cursor:pointer;
fill:rgba(0,0,0,1);
}
.zr23-cls-71:hover {
cursor:pointer;
}

]]>

</style>
</svg>