<svg width="2000" height="1000" xmlns="http://www.w3.org/2000/svg" xmlns:xlink="http://www.w3.org/1999/xlink" version="1.1" baseProfile="full" viewBox="0 0 2000 1000">
<rect width="2000" height="1000" x="0" y="0" fill="rgb(252,252,252)" fill-opacity="0"></rect>
<path d="M200 930.5L1800 930.5" fill="transparent" stroke="#eeeeee" class="zr16-cls-48"></path>
<path d="M200 772.5L1800 772.5" fill="transparent" stroke="#eeeeee" class="zr16-cls-48"></path>
<path d="M200 614.5L1800 614.5" fill="transparent" stroke="#eeeeee" class="zr16-cls-48"></path>
<path d="M200 457.5L1800 457.5" fill="transparent" stroke="#eeeeee" class="zr16-cls-48"></path>
<path d="M200 299.5L1800 299.5" fill="transparent" stroke="#eeeeee" class="zr16-cls-48"></path>
<path d="M200 141.5L1800 141.5" fill="transparent" stroke="#eeeeee" class="zr16-cls-48"></path>
<path d="M200 60.5L1800 60.5" fill="transparent" stroke="#eeeeee" class="zr16-cls-48"></path>
<path d="M200.5 930L200.5 60" fill="transparent" stroke="#cccccc" stroke-linecap="round" class="zr16-cls-48"></path>
<text dominant-baseline="central" text-anchor="middle" style="font-size:12px;font-family:sans-serif;" xml:space="preserve" y="-6" transform="translate(200 45)" fill="#cccccc">wholeUpdate Time (ms)</text>
<path d="M200 930.5L1800 930.5" fill="transparent" stroke="#cccccc" stroke-linecap="round" class="zr16-cls-48"></path>
<text dominant-baseline="central" text-anchor="end" style="font-size:12px;font-family:sans-serif;" transform="translate(192 930)" fill="#999999">0.000</text>
<text dominant-baseline="central" text-anchor="end" style="font-size:12px;font-family:sans-serif;" transform="translate(192 772.2886)" fill="#999999">1.000</text>
<text dominant-baseline="central" text-anchor="end" style="font-size:12px;font-family:sans-serif;" transform="translate(192 614.5773)" fill="#999999">2.000</text>
<text dominant-baseline="central" text-anchor="end" style="font-size:12px;font-family:sans-serif;" transform="translate(192 456.8659)" fill="#999999">3.000</text>
<text dominant-baseline="central" text-anchor="end" style="font-size:12px;font-family:sans-serif;" transform="translate(192 299.1546)" fill="#999999">4.000</text>
<text dominant-baseline="central" text-anchor="end" style="font-size:12px;font-family:sans-serif;" transform="translate(192 141.4432)" fill="#999999">5.000</text>
<text dominant-baseline="central" text-anchor="end" style="font-size:12px;font-family:sans-serif;" transform="translate(192 60)" fill="#999999">5.516</text>
<text dominant-baseline="central" text-anchor="middle" style="font-size:12px;font-family:sans-serif;" y="6" transform="translate(200.6667 938)" fill="#999999">0</text>
<text dominant-baseline="central" text-anchor="middle" style="font-size:12px;font-family:sans-serif;" y="6" transform="translate(236.6667 938)" fill="#999999">27</text>
<text dominant-baseline="central" text-anchor="middle" style="font-size:12px;font-family:sans-serif;" y="6" transform="translate(272.6667 938)" fill="#999999">54</text>
<text dominant-baseline="central" text-anchor="middle" style="font-size:12px;font-family:sans-serif;" y="6" transform="translate(308.6667 938)" fill="#999999">81</text>
<text dominant-baseline="central" text-anchor="middle" style="font-size:12px;font-family:sans-serif;" y="6" transform="translate(344.6667 938)" fill="#999999">108</text>
<text dominant-baseline="central" text-anchor="middle" style="font-size:12px;font-family:sans-serif;" y="6" transform="translate(380.6667 938)" fill="#999999">135</text>
<text dominant-baseline="central" text-anchor="middle" style="font-size:12px;font-family:sans-serif;" y="6" transform="translate(416.6667 938)" fill="#999999">162</text>
<text dominant-baseline="central" text-anchor="middle" style="font-size:12px;font-family:sans-serif;" y="6" transform="translate(452.6667 938)" fill="#999999">189</text>
<text dominant-baseline="central" text-anchor="middle" style="font-size:12px;font-family:sans-serif;" y="6" transform="translate(488.6667 938)" fill="#999999">216</text>
<text dominant-baseline="central" text-anchor="middle" style="font-size:12px;font-family:sans-serif;" y="6" transform="translate(524.6667 938)" fill="#999999">243</text>
<text dominant-baseline="central" text-anchor="middle" style="font-size:12px;font-family:sans-serif;" y="6" transform="translate(560.6667 938)" fill="#999999">270</text>
<text dominant-baseline="central" text-anchor="middle" style="font-size:12px;font-family:sans-serif;" y="6" transform="translate(596.6667 938)" fill="#999999">297</text>
<text dominant-baseline="central" text-anchor="middle" style="font-size:12px;font-family:sans-serif;" y="6" transform="translate(632.6667 938)" fill="#999999">324</text>
<text dominant-baseline="central" text-anchor="middle" style="font-size:12px;font-family:sans-serif;" y="6" transform="translate(668.6667 938)" fill="#999999">351</text>
<text dominant-baseline="central" text-anchor="middle" style="font-size:12px;font-family:sans-serif;" y="6" transform="translate(704.6667 938)" fill="#999999">378</text>
<text dominant-baseline="central" text-anchor="middle" style="font-size:12px;font-family:sans-serif;" y="6" transform="translate(740.6667 938)" fill="#999999">405</text>
<text dominant-baseline="central" text-anchor="middle" style="font-size:12px;font-family:sans-serif;" y="6" transform="translate(776.6667 938)" fill="#999999">432</text>
<text dominant-baseline="central" text-anchor="middle" style="font-size:12px;font-family:sans-serif;" y="6" transform="translate(812.6667 938)" fill="#999999">459</text>
<text dominant-baseline="central" text-anchor="middle" style="font-size:12px;font-family:sans-serif;" y="6" transform="translate(848.6667 938)" fill="#999999">486</text>
<text dominant-baseline="central" text-anchor="middle" style="font-size:12px;font-family:sans-serif;" y="6" transform="translate(884.6667 938)" fill="#999999">513</text>
<text dominant-baseline="central" text-anchor="middle" style="font-size:12px;font-family:sans-serif;" y="6" transform="translate(920.6667 938)" fill="#999999">540</text>
<text dominant-baseline="central" text-anchor="middle" style="font-size:12px;font-family:sans-serif;" y="6" transform="translate(956.6667 938)" fill="#999999">567</text>
<text dominant-baseline="central" text-anchor="middle" style="font-size:12px;font-family:sans-serif;" y="6" transform="translate(992.6667 938)" fill="#999999">594</text>
<text dominant-baseline="central" text-anchor="middle" style="font-size:12px;font-family:sans-serif;" y="6" transform="translate(1028.6667 938)" fill="#999999">621</text>
<text dominant-baseline="central" text-anchor="middle" style="font-size:12px;font-family:sans-serif;" y="6" transform="translate(1064.6667 938)" fill="#999999">648</text>
<text dominant-baseline="central" text-anchor="middle" style="font-size:12px;font-family:sans-serif;" y="6" transform="translate(1100.6667 938)" fill="#999999">675</text>
<text dominant-baseline="central" text-anchor="middle" style="font-size:12px;font-family:sans-serif;" y="6" transform="translate(1136.6667 938)" fill="#999999">702</text>
<text dominant-baseline="central" text-anchor="middle" style="font-size:12px;font-family:sans-serif;" y="6" transform="translate(1172.6667 938)" fill="#999999">729</text>
<text dominant-baseline="central" text-anchor="middle" style="font-size:12px;font-family:sans-serif;" y="6" transform="translate(1208.6667 938)" fill="#999999">756</text>
<text dominant-baseline="central" text-anchor="middle" style="font-size:12px;font-family:sans-serif;" y="6" transform="translate(1244.6667 938)" fill="#999999">783</text>
<text dominant-baseline="central" text-anchor="middle" style="font-size:12px;font-family:sans-serif;" y="6" transform="translate(1280.6667 938)" fill="#999999">810</text>
<text dominant-baseline="central" text-anchor="middle" style="font-size:12px;font-family:sans-serif;" y="6" transform="translate(1316.6667 938)" fill="#999999">837</text>
<text dominant-baseline="central" text-anchor="middle" style="font-size:12px;font-family:sans-serif;" y="6" transform="translate(1352.6667 938)" fill="#999999">864</text>
<text dominant-baseline="central" text-anchor="middle" style="font-size:12px;font-family:sans-serif;" y="6" transform="translate(1388.6667 938)" fill="#999999">891</text>
<text dominant-baseline="central" text-anchor="middle" style="font-size:12px;font-family:sans-serif;" y="6" transform="translate(1424.6667 938)" fill="#999999">918</text>
<text dominant-baseline="central" text-anchor="middle" style="font-size:12px;font-family:sans-serif;" y="6" transform="translate(1460.6667 938)" fill="#999999">945</text>
<text dominant-baseline="central" text-anchor="middle" style="font-size:12px;font-family:sans-serif;" y="6" transform="translate(1496.6667 938)" fill="#999999">972</text>
<text dominant-baseline="central" text-anchor="middle" style="font-size:12px;font-family:sans-serif;" y="6" transform="translate(1532.6667 938)" fill="#999999">999</text>
<text dominant-baseline="central" text-anchor="middle" style="font-size:12px;font-family:sans-serif;" y="6" transform="translate(1568.6667 938)" fill="#999999">1026</text>
<text dominant-baseline="central" text-anchor="middle" style="font-size:12px;font-family:sans-serif;" y="6" transform="translate(1604.6667 938)" fill="#999999">1053</text>
<text dominant-baseline="central" text-anchor="middle" style="font-size:12px;font-family:sans-serif;" y="6" transform="translate(1640.6667 938)" fill="#999999">1080</text>
<text dominant-baseline="central" text-anchor="middle" style="font-size:12px;font-family:sans-serif;" y="6" transform="translate(1676.6667 938)" fill="#999999">1107</text>
<text dominant-baseline="central" text-anchor="middle" style="font-size:12px;font-family:sans-serif;" y="6" transform="translate(1712.6667 938)" fill="#999999">1134</text>
<text dominant-baseline="central" text-anchor="middle" style="font-size:12px;font-family:sans-serif;" y="6" transform="translate(1748.6667 938)" fill="#999999">1161</text>
<text dominant-baseline="central" text-anchor="middle" style="font-size:12px;font-family:sans-serif;" y="6" transform="translate(1784.6667 938)" fill="#999999">1188</text>
<g clip-path="url(#zr16-c0)">
<path d="M200.7 613.5L202 700L203.3 796.2L204.7 758L206 810.1L207.3 787.9L208.7 821.9L210 761L211.3 826.2L212.7 828.1L214 878.2L215.3 876.6L216.7 880.8L218 885.7L219.3 882.9L220.7 885.5L222 879.3L223.3 874.3L224.7 881L226 882.7L227.3 881.9L228.7 880.9L230 877L231.3 882.5L232.7 881.5L234 887.3L235.3 883.1L236.7 887.4L238 885.4L239.3 886.8L240.7 884.9L242 884L243.3 883L244.7 885.9L246 879.5L247.3 884L248.7 881L250 888L251.3 888.8L252.7 889.1L254 889.3L255.3 885.8L256.7 888.8L258 884L259.3 878.6L260.7 873.1L262 878.3L263.3 881.5L264.7 884.3L266 879.2L267.3 879.9L268.7 881.3L270 886L271.3 882.8L272.7 885.1L274 883L275.3 884.5L276.7 885.3L278 882.8L279.3 880L280.7 871.5L282 882.7L283.3 887.5L284.7 885.7L286 878.3L287.3 -90.4L288.7 -2035.2L290 -1714.5L291.3 -2264.4L292.7 -2029.3L294 384.8L295.3 414.7L296.7 520.2L298 -3600.6L299.3 -1519.9L300.7 36.1L302 474L303.3 226.1L304.7 747.6L306 673.6L307.3 792.9L308.7 674.4L310 775.5L311.3 752.4L312.7 815.2L314 752.3L315.3 798.8L316.7 735.3L318 814.9L319.3 686.1L320.7 791.8L322 721.2L323.3 811.1L324.7 740L326 808.2L327.3 743.2L328.7 807.7L330 738L331.3 790.6L332.7 726.3L334 814.1L335.3 753.1L336.7 803.5L338 736L339.3 808.1L340.7 743.2L342 779.5L343.3 729.3L344.7 814.1L346 721.6L347.3 803.2L348.7 731.7L350 817.2L351.3 700.7L352.7 790L354 755.1L355.3 814.2L356.7 759.9L358 795.9L359.3 748.2L360.7 817.3L362 754L363.3 806.1L364.7 741.5L366 817L367.3 753.9L368.7 812.7L370 760.7L371.3 823.4L372.7 750.8L374 819.2L375.3 759.9L376.7 820L378 785.5L379.3 814.7L380.7 782.9L382 823.3L383.3 785.7L384.7 822.3L386 768.4L387.3 821.8L388.7 746.6L390 817.3L391.3 773.7L392.7 816.6L394 771.4L395.3 821.4L396.7 789L398 815.6L399.3 787.4L400.7 819.9L402 769.2L403.3 819.8L404.7 777.9L406 819.7L407.3 781.4L408.7 802.7L410 761.4L411.3 826.6L412.7 779.4L414 824.9L415.3 750.6L416.7 806.1L418 759.3L419.3 820.9L420.7 768.2L422 807.6L423.3 788.4L424.7 826L426 788.6L427.3 808.3L428.7 761.9L430 824.6L431.3 765.7L432.7 812.6L434 773.7L435.3 822.9L436.7 785.9L438 810L439.3 786.2L440.7 813L442 772.3L443.3 826.4L444.7 785.3L446 826.8L447.3 777.4L448.7 812.3L450 786.4L451.3 827.1L452.7 770.4L454 813.1L455.3 765.1L456.7 823.1L458 785.3L459.3 815.7L460.7 780.5L462 809.5L463.3 786.3L464.7 826.3L466 765L467.3 807.8L468.7 754.3L470 805.7L471.3 781.8L472.7 827.8L474 772.5L475.3 818.6L476.7 769.7L478 811.7L479.3 765.6L480.7 805.6L482 779.2L483.3 824.3L484.7 777L486 809L487.3 766.6L488.7 821.1L490 788.5L491.3 809.7L492.7 753.3L494 808.1L495.3 782.4L496.7 820.9L498 787.4L499.3 826.9L500.7 763.3L502 817.2L503.3 783.8L504.7 803.6L506 755.2L507.3 807.3L508.7 777.5L510 802.3L511.3 762.9L512.7 826.6L514 768.1L515.3 812.4L516.7 770.8L518 816.7L519.3 766.1L520.7 811.8L522 787.1L523.3 824.6L524.7 766.8L526 827.8L527.3 765.8L528.7 815.2L530 769.2L531.3 821.6L532.7 851.7L534 875.7L535.3 881.4L536.7 885.6L538 882.7L539.3 883.3L540.7 882.8L542 883.1L543.3 883.5L544.7 881.1L546 889.1L547.3 885.5L548.7 877.9L550 880.8L551.3 889.1L552.7 885.9L554 886.6L555.3 889.9L556.7 884.3L558 884.4L559.3 884.1L560.7 882.8L562 886.9L563.3 880.5L564.7 884.3L566 881.7L567.3 877L568.7 880.6L570 885.5L571.3 878.7L572.7 884.2L574 884L575.3 879.3L576.7 881.5L578 886.4L579.3 883.2L580.7 882.7L582 885.2L583.3 884.1L584.7 880.8L586 885.6L587.3 884.4L588.7 883.4L590 886.2L591.3 886L592.7 883.2L594 885.2L595.3 884.6L596.7 885.9L598 885.5L599.3 884.2L600.7 884.1L602 886.2L603.3 883.8L604.7 881.1L606 875.9L607.3 24L608.7 -1962.3L610 -1760L611.3 -2156.9L612.7 -2040.3L614 398.9L615.3 419.6L616.7 523.5L618 -3737.9L619.3 -1454.2L620.7 25L622 463.7L623.3 319.9L624.7 756.6L626 659.2L627.3 766L628.7 645.6L630 789.6L631.3 735.9L632.7 811.4L634 738.4L635.3 811L636.7 730.7L638 769.6L639.3 715.5L640.7 809.2L642 738.9L643.3 815.2L644.7 738L646 811.4L647.3 733.7L648.7 754.1L650 710.5L651.3 813.2L652.7 720.8L654 813.3L655.3 757.4L656.7 815.1L658 768.6L659.3 796.2L660.7 714L662 795.2L663.3 741.5L664.7 817.9L666 746.3L667.3 813.3L668.7 693.1L670 802.4L671.3 715.2L672.7 812.6L674 766.9L675.3 817.5L676.7 741L678 813.6L679.3 728.3L680.7 820L682 744.1L683.3 815.8L684.7 752.7L686 818.2L687.3 754.7L688.7 808.3L690 755.4L691.3 808.9L692.7 750.5L694 795.7L695.3 757.7L696.7 815.2L698 786.6L699.3 825.2L700.7 788.5L702 825.1L703.3 786.4L704.7 820.7L706 767.9L707.3 809.2L708.7 745.7L710 815.4L711.3 774.7L712.7 806.3L714 786.9L715.3 824.4L716.7 786.1L718 823.6L719.3 772.8L720.7 813.3L722 777.6L723.3 819.9L724.7 777.6L726 821.1L727.3 779.5L728.7 798.7L730 745.3L731.3 819.9L732.7 753.8L734 822.3L735.3 771.9L736.7 821.3L738 778L739.3 809.5L740.7 783.3L742 822.7L743.3 791L744.7 830.1L746 760.2L747.3 816.5L748.7 768.8L750 827.3L751.3 785.2L752.7 824.2L754 779.5L755.3 826.9L756.7 792.5L758 813L759.3 769.3L760.7 796.1L762 764.6L763.3 815.3L764.7 785L766 822.8L767.3 782.7L768.7 820.1L770 765L771.3 823.7L772.7 770.8L774 816.1L775.3 772.4L776.7 829.3L778 786.3L779.3 814.4L780.7 784.3L782 827.3L783.3 787.9L784.7 805.1L786 749.1L787.3 807.1L788.7 776.7L790 804.5L791.3 767.2L792.7 828.1L794 789L795.3 825.4L796.7 760.6L798 795.1L799.3 783.9L800.7 823L802 779.9L803.3 821.4L804.7 765.7L806 810.6L807.3 768.4L808.7 808.7L810 775.9L811.3 780.7L812.7 776.6L814 820.1L815.3 765.4L816.7 827.5L818 786.2L819.3 822.2L820.7 763.1L822 805.6L823.3 748.5L824.7 811.9L826 771.2L827.3 826L828.7 781.7L830 826.7L831.3 762L832.7 808.6L834 765.3L835.3 825.9L836.7 756.6L838 789.7L839.3 780.1L840.7 809.9L842 749.4L843.3 828.4L844.7 772.6L846 820L847.3 789.4L848.7 807.2L850 739.3L851.3 823.8L852.7 848.4L854 880.9L855.3 885.8L856.7 882.1L858 882.7L859.3 881.6L860.7 881.9L862 879.8L863.3 879.2L864.7 878.4L866 884.5L867.3 881.3L868.7 877.3L870 878.6L871.3 886.7L872.7 883.3L874 886.1L875.3 885.9L876.7 863L878 874L879.3 875.8L880.7 879.7L882 883.8L883.3 884L884.7 879.3L886 878.8L887.3 883.6L888.7 876.7L890 887.3L891.3 884L892.7 884L894 881.3L895.3 883.9L896.7 882.6L898 882.2L899.3 879.4L900.7 884.3L902 877.3L903.3 881.5L904.7 884.6L906 881.9L907.3 881.3L908.7 876.5L910 884.5L911.3 880.4L912.7 881.9L914 877.1L915.3 878.7L916.7 882.1L918 882.4L919.3 883.9L920.7 883L922 881.7L923.3 884.5L924.7 883.6L926 875.1L927.3 -61.5L928.7 -2130.8L930 -1991.2L931.3 -2426.9L932.7 -2072.4L934 351.4L935.3 355.1L936.7 517.6L938 -3837.7L939.3 -1641.7L940.7 11.8L942 388.9L943.3 287.1L944.7 729.9L946 587.1L947.3 782.1L948.7 691.4L950 782.8L951.3 745.4L952.7 796.5L954 657.8L955.3 791.1L956.7 685.1L958 806.2L959.3 720.9L960.7 807.2L962 724L963.3 814.2L964.7 692.2L966 786.4L967.3 688.4L968.7 801.7L970 727.3L971.3 812.1L972.7 720.7L974 782.2L975.3 729L976.7 796.7L978 754.8L979.3 809L980.7 692.8L982 797.2L983.3 718.5L984.7 781.8L986 704.6L987.3 808.9L988.7 713.2L990 815.4L991.3 724.6L992.7 818L994 751.8L995.3 793.1L996.7 757.1L998 811.5L999.3 744.3L1000.7 817.2L1002 748.2L1003.3 814.5L1004.7 744.6L1006 801.9L1007.3 715.5L1008.7 794.8L1010 756.1L1011.3 819.3L1012.7 748.9L1014 803L1015.3 739.2L1016.7 819.6L1018 750.5L1019.3 807.7L1020.7 783.4L1022 811.9L1023.3 764.3L1024.7 817.7L1026 768.5L1027.3 816.6L1028.7 749.1L1030 798.8L1031.3 746.1L1032.7 820.4L1034 768.9L1035.3 809.5L1036.7 755L1038 823L1039.3 779.3L1040.7 822.2L1042 760.1L1043.3 813.8L1044.7 762.1L1046 804.6L1047.3 767.3L1048.7 807.5L1050 772.1L1051.3 823.6L1052.7 773.5L1054 811.9L1055.3 744.4L1056.7 808.1L1058 769.4L1059.3 820L1060.7 784.7L1062 815.8L1063.3 750.7L1064.7 800.8L1066 748.2L1067.3 811.1L1068.7 743.5L1070 820.8L1071.3 761.5L1072.7 817.9L1074 765.6L1075.3 794L1076.7 775.4L1078 808.1L1079.3 757.3L1080.7 821.9L1082 785.7L1083.3 818.9L1084.7 756.2L1086 821.2L1087.3 772.2L1088.7 808.9L1090 779.9L1091.3 806.7L1092.7 749.8L1094 818.2L1095.3 779.2L1096.7 816.6L1098 772.5L1099.3 815L1100.7 773.3L1102 820.9L1103.3 763.3L1104.7 815.1L1106 763.2L1107.3 807L1108.7 767.7L1110 807.4L1111.3 772.1L1112.7 825L1114 780.6L1115.3 818.9L1116.7 757.6L1118 808.9L1119.3 767.7L1120.7 822.4L1122 790.2L1123.3 824L1124.7 770.7L1126 812.7L1127.3 746.1L1128.7 794.4L1130 747.1L1131.3 824.3L1132.7 787.5L1134 822.1L1135.3 775L1136.7 823.7L1138 761.9L1139.3 817.8L1140.7 782.9L1142 811L1143.3 765.6L1144.7 804.3L1146 783.6L1147.3 824.3L1148.7 770.3L1150 815.9L1151.3 774.6L1152.7 822.9L1154 781.4L1155.3 790.3L1156.7 775.5L1158 812.2L1159.3 772.7L1160.7 809.2L1162 775.2L1163.3 822.5L1164.7 761L1166 825.1L1167.3 748.3L1168.7 805.3L1170 770.5L1171.3 813.3L1172.7 853.5L1174 876.4L1175.3 881.6L1176.7 879.6L1178 872L1179.3 881.3L1180.7 877.1L1182 880L1183.3 875.2L1184.7 885.3L1186 880.5L1187.3 887.3L1188.7 882.7L1190 877.8L1191.3 883.9L1192.7 887.6L1194 887.8L1195.3 873L1196.7 873.7L1198 883.4L1199.3 879.8L1200.7 881.9L1202 885.1L1203.3 877.7L1204.7 887.1L1206 880.3L1207.3 885.5L1208.7 879.8L1210 888.3L1211.3 883.1L1212.7 877.5L1214 883.3L1215.3 882.5L1216.7 879.6L1218 882.7L1219.3 884.8L1220.7 881L1222 882.1L1223.3 885.2L1224.7 885.3L1226 884.3L1227.3 882.4L1228.7 880.3L1230 868.3L1231.3 880.8L1232.7 873.6L1234 882.1L1235.3 883.2L1236.7 886.1L1238 874.8L1239.3 885.6L1240.7 881.6L1242 887.5L1243.3 883.9L1244.7 883.5L1246 877.3L1247.3 -86.6L1248.7 -2286L1250 -1981.4L1251.3 -2735.2L1252.7 -2339.1L1254 362.8L1255.3 398.6L1256.7 456.2L1258 -3912.9L1259.3 -1468.4L1260.7 29.9L1262 469.3L1263.3 304.9L1264.7 736.4L1266 636.5L1267.3 765L1268.7 681.1L1270 751.6L1271.3 721.4L1272.7 807L1274 739.7L1275.3 806L1276.7 713.3L1278 809.9L1279.3 707.7L1280.7 790.7L1282 726.4L1283.3 812.4L1284.7 728.3L1286 803.6L1287.3 732.1L1288.7 783.7L1290 666.8L1291.3 805.3L1292.7 690L1294 814.9L1295.3 748L1296.7 802.9L1298 733.7L1299.3 797.6L1300.7 700.7L1302 803.2L1303.3 703.9L1304.7 809L1306 718L1307.3 811.8L1308.7 721.6L1310 810.3L1311.3 733.4L1312.7 803.5L1314 758.8L1315.3 809.5L1316.7 763L1318 801.3L1319.3 737.3L1320.7 804.8L1322 695.6L1323.3 799.8L1324.7 725.4L1326 817.6L1327.3 718.4L1328.7 797.9L1330 745.9L1331.3 797.8L1332.7 744.8L1334 814.5L1335.3 761.7L1336.7 821.6L1338 761.3L1339.3 819.7L1340.7 773.4L1342 803.8L1343.3 785.4L1344.7 799.3L1346 754.1L1347.3 812.8L1348.7 732.8L1350 813.9L1351.3 754.7L1352.7 820.1L1354 755.7L1355.3 818.7L1356.7 758L1358 807.5L1359.3 783.7L1360.7 817.3L1362 769.2L1363.3 803.8L1364.7 768.6L1366 816.9L1367.3 764.8L1368.7 799.6L1370 749.6L1371.3 823.1L1372.7 771L1374 809L1375.3 778.3L1376.7 819.1L1378 775.6L1379.3 817L1380.7 768.3L1382 796.3L1383.3 782.2L1384.7 823L1386 781.1L1387.3 822.4L1388.7 749.6L1390 818.5L1391.3 775.3L1392.7 792.4L1394 741.1L1395.3 806.4L1396.7 771.1L1398 820.8L1399.3 782.7L1400.7 810.9L1402 765.3L1403.3 821L1404.7 766.8L1406 812.4L1407.3 745.4L1408.7 814L1410 770.1L1411.3 825L1412.7 778.5L1414 816.4L1415.3 786.1L1416.7 821L1418 774L1419.3 799.8L1420.7 731.2L1422 820.3L1423.3 782.1L1424.7 814.8L1426 787.9L1427.3 826.5L1428.7 768.8L1430 826.3L1431.3 759.9L1432.7 813.7L1434 769L1435.3 804L1436.7 767L1438 811.7L1439.3 783.4L1440.7 817.9L1442 786.1L1443.3 797.3L1444.7 750.2L1446 802.2L1447.3 768.5L1448.7 809.5L1450 776.6L1451.3 817.7L1452.7 776.8L1454 827L1455.3 775.9L1456.7 816.1L1458 760.2L1459.3 805.3L1460.7 780.8L1462 800.2L1463.3 748.4L1464.7 823.5L1466 784.7L1467.3 822.3L1468.7 769.4L1470 787.3L1471.3 761.1L1472.7 824.1L1474 783.2L1475.3 823.5L1476.7 783.7L1478 805.7L1479.3 751L1480.7 804.8L1482 741.3L1483.3 816.3L1484.7 773.6L1486 822.8L1487.3 783.8L1488.7 815.1L1490 773.6L1491.3 817.7L1492.7 856.6L1494 879L1495.3 884.8L1496.7 882.5L1498 881.8L1499.3 880.3L1500.7 879.2L1502 874.4L1503.3 874.3L1504.7 878.9L1506 876.4L1507.3 880.4L1508.7 877.1L1510 878.6L1511.3 887.7L1512.7 877.3L1514 872.1L1515.3 887.8L1516.7 888.2L1518 884.5L1519.3 877.2L1520.7 884.3L1522 884.8L1523.3 886L1524.7 886.4L1526 884.2L1527.3 884.1L1528.7 874.1L1530 886.4L1531.3 880.5L1532.7 884.5L1534 883.1L1535.3 887.1L1536.7 881.1L1538 882.6L1539.3 881.2L1540.7 878.7L1542 874.3L1543.3 880.5L1544.7 879.2L1546 879L1547.3 882.9L1548.7 876.7L1550 884.5L1551.3 884.2L1552.7 884L1554 885.6L1555.3 883.8L1556.7 885.9L1558 875.9L1559.3 882.2L1560.7 884.3L1562 883.3L1563.3 885.2L1564.7 879.1L1566 878.9L1567.3 -57.6L1568.7 -2100.2L1570 -2083.2L1571.3 -2343.4L1572.7 -2027.7L1574 355.8L1575.3 382.9L1576.7 538.6L1578 -3737.4L1579.3 -1519.7L1580.7 57.8L1582 476.4L1583.3 360.8L1584.7 732.8L1586 629.9L1587.3 796L1588.7 718.9L1590 802.6L1591.3 755.9L1592.7 813.6L1594 717.5L1595.3 783.2L1596.7 720.6L1598 812L1599.3 733.2L1600.7 810.7L1602 739.4L1603.3 813.3L1604.7 721.1L1606 778.5L1607.3 698.5L1608.7 786.7L1610 731.8L1611.3 802.2L1612.7 729.6L1614 800L1615.3 728.3L1616.7 792.8L1618 740L1619.3 816.2L1620.7 735.2L1622 810.2L1623.3 722L1624.7 789.9L1626 683.3L1627.3 797.8L1628.7 705.9L1630 820.6L1631.3 757.6L1632.7 814.3L1634 768.3L1635.3 810.2L1636.7 747.7L1638 801.2L1639.3 749.5L1640.7 817.7L1642 752.2L1643.3 808.9L1644.7 754.2L1646 816.2L1647.3 732.2L1648.7 781.3L1650 755.2L1651.3 823.9L1652.7 777.1L1654 812.5L1655.3 777.7L1656.7 826.9L1658 790.2L1659.3 821.4L1660.7 773.3L1662 803.3L1663.3 771.6L1664.7 823.5L1666 776.1L1667.3 820L1668.7 762L1670 820.8L1671.3 760.6L1672.7 828.3L1674 777.9L1675.3 799L1676.7 770.2L1678 823.8L1679.3 785.2L1680.7 821.3L1682 772.7L1683.3 808.4L1684.7 776.5L1686 822.7L1687.3 769.1L1688.7 803.1L1690 777.4L1691.3 819.6L1692.7 775.3L1694 821.3L1695.3 780.9L1696.7 812.1L1698 776.4L1699.3 825.1L1700.7 769.7L1702 809.7L1703.3 786.8L1704.7 813.4L1706 787.1L1707.3 823.7L1708.7 756.8L1710 826.3L1711.3 781.8L1712.7 821L1714 728.7L1715.3 821.7L1716.7 767.4L1718 814.9L1719.3 764.7L1720.7 826.4L1722 790.7L1723.3 821.1L1724.7 776.8L1726 808L1727.3 768.9L1728.7 813.7L1730 745.1L1731.3 803.2L1732.7 783L1734 822.1L1735.3 782.9L1736.7 813.5L1738 764.8L1739.3 806.7L1740.7 758.3L1742 820.7L1743.3 784.9L1744.7 819.3L1746 783.2L1747.3 822.2L1748.7 769.6L1750 808.5L1751.3 776.3L1752.7 818.3L1754 779.1L1755.3 824.3L1756.7 779.5L1758 806.8L1759.3 784.4L1760.7 825.6L1762 790.7L1763.3 822L1764.7 787.8L1766 794.3L1767.3 768.7L1768.7 810.4L1770 782.6L1771.3 826.3L1772.7 781.4L1774 824.8L1775.3 761.9L1776.7 810.9L1778 770.9L1779.3 802.1L1780.7 768.3L1782 823.4L1783.3 783.4L1784.7 817.3L1786 790.8L1787.3 826.8L1788.7 760.3L1790 815.5L1791.3 744.9L1792.7 821.1L1794 786.7L1795.3 823.2L1796.7 763.9L1798 821.2L1799.3 788.7" fill="transparent" stroke="#3fb1e3" stroke-width="3" stroke-linejoin="bevel" class="zr16-cls-50"></path>
</g>
<g clip-path="url(#zr16-c1)">
<path d="M200.7 611.2L202 687L203.3 801.9L204.7 787.1L206 829.7L207.3 795.7L208.7 826.9L210 789.7L211.3 817.3L212.7 835L214 882L215.3 885.4L216.7 885.5L218 889.7L219.3 890L220.7 883.3L222 890.5L223.3 878.7L224.7 882.4L226 877.8L227.3 888.5L228.7 873.6L230 884L231.3 889.5L232.7 889.2L234 887.8L235.3 889.4L236.7 885L238 886.1L239.3 887.6L240.7 885.1L242 885.9L243.3 890.1L244.7 888L246 886.3L247.3 880.7L248.7 886.4L250 888.7L251.3 888L252.7 886.1L254 887.7L255.3 884.7L256.7 889.9L258 891.7L259.3 886.3L260.7 888.6L262 888.5L263.3 851.6L264.7 882.6L266 884.2L267.3 879.9L268.7 886.7L270 888.7L271.3 889.3L272.7 885.1L274 887.5L275.3 890.2L276.7 890.1L278 885.1L279.3 879.5L280.7 877.3L282 887.8L283.3 887.5L284.7 888.4L286 889.1L287.3 -78.5L288.7 -1974.4L290 -1664.1L291.3 -2084.3L292.7 -1956.1L294 386.5L295.3 460.8L296.7 547L298 -3760.9L299.3 -1770.5L300.7 -212.6L302 246.5L303.3 55.9L304.7 697.3L306 496.6L307.3 730L308.7 627.7L310 738.6L311.3 678.9L312.7 750.9L314 663.4L315.3 783.2L316.7 664.4L318 800L319.3 701.1L320.7 738.9L322 667.3L323.3 774.8L324.7 663.9L326 707.1L327.3 399.8L328.7 444.6L330 401.3L331.3 638L332.7 513.7L334 726.1L335.3 637.7L336.7 775.4L338 698.1L339.3 782.7L340.7 689L342 776.9L343.3 718.6L344.7 802.9L346 718L347.3 752.7L348.7 657.8L350 772.1L351.3 731.5L352.7 776L354 753L355.3 796.7L356.7 731.1L358 771.4L359.3 715.1L360.7 806.8L362 738.6L363.3 810.7L364.7 737.3L366 795L367.3 703.6L368.7 771.7L370 741.3L371.3 797.2L372.7 728.9L374 807L375.3 767.5L376.7 804.5L378 746.8L379.3 767.5L380.7 740.7L382 816.5L383.3 746.9L384.7 799.8L386 770.6L387.3 816.3L388.7 731.2L390 778.9L391.3 702.9L392.7 778.9L394 755.6L395.3 801.2L396.7 749.9L398 821.4L399.3 781.8L400.7 802.9L402 745.4L403.3 796.2L404.7 728.9L406 801.2L407.3 765.3L408.7 809.5L410 744.3L411.3 803.3L412.7 724.8L414 806.6L415.3 753.2L416.7 820.7L418 762.4L419.3 824.2L420.7 793.1L422 817.6L423.3 781.7L424.7 813.8L426 790.5L427.3 829.5L428.7 770.7L430 825.6L431.3 754.7L432.7 828.9L434 782.9L435.3 826.2L436.7 783.5L438 812.2L439.3 777L440.7 388.6L442 736.6L443.3 812.2L444.7 753.2L446 811.8L447.3 745.8L448.7 795.2L450 739.5L451.3 809.4L452.7 776.2L454 818.4L455.3 771.1L456.7 823.7L458 754.2L459.3 794.4L460.7 766.3L462 802.5L463.3 730.1L464.7 783L466 760.8L467.3 781.2L468.7 669.7L470 797.6L471.3 762.8L472.7 790.3L474 726.2L475.3 814.2L476.7 738.8L478 824L479.3 745.8L480.7 800.5L482 743.3L483.3 818.8L484.7 737.2L486 808.7L487.3 736.9L488.7 791.1L490 782.5L491.3 793.5L492.7 783.1L494 825.9L495.3 789L496.7 827.2L498 786L499.3 801L500.7 790.5L502 822.1L503.3 781.6L504.7 813.6L506 773.4L507.3 826.5L508.7 788.6L510 828.7L511.3 796.4L512.7 829.5L514 798.1L515.3 821.2L516.7 786.2L518 825.6L519.3 785.8L520.7 824.8L522 789.6L523.3 833.2L524.7 789.9L526 833.1L527.3 795.1L528.7 825.1L530 798L531.3 829.8L532.7 840.8L534 862.8L535.3 888.8L536.7 890.9L538 880.9L539.3 889.4L540.7 886.4L542 889.3L543.3 888L544.7 885.1L546 886.8L547.3 890.2L548.7 886.4L550 883.5L551.3 891.5L552.7 890.6L554 890.8L555.3 890.2L556.7 884.5L558 888.7L559.3 888.3L560.7 889.8L562 886.5L563.3 884.4L564.7 887L566 883.3L567.3 881.8L568.7 880.1L570 885.2L571.3 886.7L572.7 881.6L574 882.5L575.3 881.9L576.7 888.4L578 886.9L579.3 888.3L580.7 886.7L582 882.2L583.3 889.6L584.7 885.3L586 884.7L587.3 888.5L588.7 884.2L590 890.3L591.3 889.1L592.7 891.4L594 886.4L595.3 886.7L596.7 890.5L598 887.4L599.3 893.5L600.7 889.4L602 886L603.3 887.6L604.7 888L606 879.4L607.3 31.8L608.7 -1951.4L610 -1771.5L611.3 -2235.8L612.7 -1928.3L614 418.9L615.3 459.1L616.7 490.3L618 -3481.7L619.3 -1420.4L620.7 35L622 448.6L623.3 348.9L624.7 719L626 664.4L627.3 802L628.7 726.3L630 799.4L631.3 763.2L632.7 817.6L634 713.4L635.3 800.3L636.7 717.1L638 816.5L639.3 726.4L640.7 812.4L642 742.1L643.3 812.3L644.7 726.9L646 797.2L647.3 741.9L648.7 808.8L650 752.9L651.3 817.6L652.7 747.4L654 819.9L655.3 737.9L656.7 794.7L658 762.2L659.3 815.4L660.7 764.2L662 815.2L663.3 750.7L664.7 818L666 760.2L667.3 811.1L668.7 711L670 808L671.3 765.7L672.7 805.5L674 753.1L675.3 815.7L676.7 768.1L678 814.6L679.3 718.5L680.7 812.6L682 755.4L683.3 818.5L684.7 764.5L686 812.5L687.3 750.4L688.7 815.1L690 769L691.3 824.9L692.7 769.7L694 804.1L695.3 774.9L696.7 825L698 793.4L699.3 824.9L700.7 793.9L702 824.4L703.3 793.4L704.7 796.8L706 770.7L707.3 818.8L708.7 773.7L710 823.2L711.3 781.8L712.7 826.1L714 793.7L715.3 814.8L716.7 794L718 810.1L719.3 766.9L720.7 816.6L722 783.5L723.3 825.3L724.7 785.9L726 818.2L727.3 768.2L728.7 815.5L730 772.5L731.3 826.8L732.7 760.1L734 812.6L735.3 787.7L736.7 826.7L738 790.3L739.3 829.3L740.7 794L742 818.2L743.3 800.5L744.7 831.6L746 749.2L747.3 823.7L748.7 783.5L750 824.7L751.3 785.8L752.7 825.8L754 785L755.3 830.6L756.7 799L758 827.1L759.3 773.8L760.7 817L762 787.1L763.3 821.6L764.7 790.7L766 829.1L767.3 777L768.7 822.3L770 790.8L771.3 830.5L772.7 775.8L774 813.9L775.3 773.1L776.7 827L778 795L779.3 828.7L780.7 775.3L782 823.7L783.3 796.7L784.7 818L786 793.2L787.3 819.1L788.7 775.2L790 818.6L791.3 790.1L792.7 815.9L794 791.9L795.3 828.1L796.7 792.8L798 828L799.3 796L800.7 799.9L802 766.7L803.3 817.7L804.7 792.7L806 806.1L807.3 793.2L808.7 821.4L810 793.1L811.3 825.9L812.7 773L814 832.2L815.3 782.3L816.7 824L818 791.1L819.3 826.4L820.7 793.9L822 824.5L823.3 776.8L824.7 830.4L826 797.8L827.3 827.9L828.7 781.7L830 820.4L831.3 787.1L832.7 828.7L834 790.9L835.3 823.9L836.7 797.5L838 812.9L839.3 793.8L840.7 818.9L842 781.3L843.3 799.9L844.7 793L846 830.7L847.3 795.6L848.7 826.8L850 794.7L851.3 826.4L852.7 859.3L854 885.1L855.3 889.7L856.7 888.4L858 883.2L859.3 887.4L860.7 887.5L862 884.8L863.3 887L864.7 887.7L866 871.3L867.3 885.1L868.7 880.7L870 883L871.3 889L872.7 888.9L874 889.2L875.3 886.7L876.7 891.1L878 889.6L879.3 887.3L880.7 889.5L882 885.4L883.3 887.6L884.7 884.3L886 886L887.3 888.6L888.7 884.7L890 891.5L891.3 886.8L892.7 889.2L894 890.2L895.3 890.7L896.7 888L898 888.3L899.3 886.6L900.7 884.2L902 886.6L903.3 887.4L904.7 890.4L906 888.8L907.3 883.9L908.7 880L910 883.6L911.3 885.9L912.7 888L914 886.9L915.3 889L916.7 891.2L918 884L919.3 888.4L920.7 887.7L922 890.1L923.3 891.6L924.7 888.2L926 884.6L927.3 27.8L928.7 -2017L930 -1777.5L931.3 -2202.7L932.7 -1946.8L934 373.4L935.3 452L936.7 556.4L938 -3714.4L939.3 -1497.4L940.7 77.1L942 463.5L943.3 382.2L944.7 752.9L946 613.9L947.3 776.8L948.7 710.8L950 797.9L951.3 765.3L952.7 806.7L954 734.5L955.3 798.6L956.7 712.9L958 807L959.3 738.6L960.7 810.9L962 748L963.3 816.2L964.7 743.6L966 797.2L967.3 704.2L968.7 803.9L970 728.5L971.3 818.6L972.7 745.1L974 819.5L975.3 740.8L976.7 798.3L978 729L979.3 814.3L980.7 763.4L982 810.7L983.3 749.8L984.7 820.8L986 754.5L987.3 819.2L988.7 711.7L990 806.4L991.3 762.8L992.7 815.8L994 764L995.3 823.2L996.7 773.9L998 815.7L999.3 755L1000.7 803L1002 751.3L1003.3 807L1004.7 757.4L1006 822.3L1007.3 765.9L1008.7 817.7L1010 774.2L1011.3 824.6L1012.7 768.5L1014 807.5L1015.3 767.4L1016.7 826.5L1018 791.6L1019.3 822.4L1020.7 789.9L1022 822.1L1023.3 790L1024.7 824.9L1026 766.2L1027.3 810.5L1028.7 769.2L1030 815.8L1031.3 770.7L1032.7 816.3L1034 773.3L1035.3 824.8L1036.7 795.7L1038 824.9L1039.3 781.3L1040.7 813L1042 770.4L1043.3 822.9L1044.7 778.5L1046 817.7L1047.3 782L1048.7 818.2L1050 786.8L1051.3 825L1052.7 771L1054 812.3L1055.3 775.6L1056.7 812.6L1058 774.8L1059.3 820.5L1060.7 788.3L1062 815.2L1063.3 793.3L1064.7 816.7L1066 743.3L1067.3 803.5L1068.7 764.7L1070 815.3L1071.3 787.9L1072.7 824.5L1074 780.3L1075.3 827.8L1076.7 772.7L1078 821.9L1079.3 782.6L1080.7 817.8L1082 771L1083.3 818.5L1084.7 784.9L1086 822.9L1087.3 786.3L1088.7 818.1L1090 788.1L1091.3 801.5L1092.7 752.1L1094 808.7L1095.3 779.9L1096.7 814.2L1098 779L1099.3 825.6L1100.7 783L1102 825L1103.3 791.8L1104.7 819.3L1106 717L1107.3 793.2L1108.7 775.4L1110 816.4L1111.3 777.3L1112.7 824.1L1114 775.9L1115.3 818.6L1116.7 731.3L1118 781.6L1119.3 736.4L1120.7 798L1122 771.2L1123.3 808.4L1124.7 779.1L1126 811.4L1127.3 740.1L1128.7 778.8L1130 732L1131.3 818.5L1132.7 783.1L1134 757.5L1135.3 777.3L1136.7 800.8L1138 788.4L1139.3 823.9L1140.7 704.6L1142 801.7L1143.3 773.3L1144.7 816.2L1146 785L1147.3 822.6L1148.7 778.7L1150 807.7L1151.3 764.3L1152.7 823.6L1154 726.7L1155.3 815.7L1156.7 786.3L1158 784.2L1159.3 752.4L1160.7 823L1162 785.6L1163.3 825.1L1164.7 793.2L1166 806.8L1167.3 778.6L1168.7 811.6L1170 790.3L1171.3 829.2L1172.7 856.2L1174 883.4L1175.3 885.7L1176.7 879L1178 872.2L1179.3 886.5L1180.7 882.6L1182 885.5L1183.3 885.7L1184.7 883.9L1186 887.6L1187.3 886.9L1188.7 878.3L1190 882.2L1191.3 872.4L1192.7 875.6L1194 882.9L1195.3 887L1196.7 885.5L1198 852.5L1199.3 887.4L1200.7 891.7L1202 883.6L1203.3 886.3L1204.7 885.9L1206 885.2L1207.3 885.5L1208.7 883.6L1210 884.9L1211.3 889.3L1212.7 888.6L1214 887.2L1215.3 878L1216.7 881.8L1218 889.9L1219.3 886.2L1220.7 888L1222 885.5L1223.3 890.6L1224.7 889.6L1226 890L1227.3 887.7L1228.7 887.8L1230 865.1L1231.3 884.6L1232.7 880.8L1234 885.3L1235.3 874.8L1236.7 870.4L1238 883.5L1239.3 880.7L1240.7 884.8L1242 887.2L1243.3 883.1L1244.7 888.8L1246 883.2L1247.3 -20.5L1248.7 -2154.2L1250 -1934.9L1251.3 -2403.8L1252.7 -2080.4L1254 350.2L1255.3 357.7L1256.7 505.3L1258 -3776.5L1259.3 -1481.5L1260.7 -213.4L1262 294.4L1263.3 310.6L1264.7 705.6L1266 623.1L1267.3 776.2L1268.7 705.5L1270 786.9L1271.3 759L1272.7 810.5L1274 729.7L1275.3 795.1L1276.7 699.5L1278 807.2L1279.3 720.9L1280.7 806.9L1282 727.9L1283.3 806L1284.7 661.6L1286 786.9L1287.3 685.9L1288.7 787.5L1290 711.3L1291.3 813.1L1292.7 721L1294 794.4L1295.3 722.6L1296.7 805.9L1298 761.9L1299.3 813.6L1300.7 742.2L1302 811L1303.3 748.4L1304.7 773.4L1306 700.3L1307.3 806.7L1308.7 720.6L1310 817.7L1311.3 764.5L1312.7 817.1L1314 775.6L1315.3 803L1316.7 747.5L1318 770.2L1319.3 738.9L1320.7 815.2L1322 758.7L1323.3 820.3L1324.7 756.9L1326 820.4L1327.3 752.9L1328.7 802.3L1330 756.9L1331.3 824.6L1332.7 783L1334 824.2L1335.3 779.7L1336.7 822.8L1338 794.1L1339.3 818.2L1340.7 770.4L1342 820.1L1343.3 757.5L1344.7 821.6L1346 774.8L1347.3 816L1348.7 766.8L1350 818.3L1351.3 773.6L1352.7 824.5L1354 778.1L1355.3 807.6L1356.7 748.2L1358 825.7L1359.3 789.7L1360.7 815.4L1362 741.8L1363.3 808.7L1364.7 776.9L1366 795.6L1367.3 769.5L1368.7 809.3L1370 772.9L1371.3 822.1L1372.7 775.9L1374 812L1375.3 784.8L1376.7 826.7L1378 759.3L1379.3 808.1L1380.7 755.6L1382 816.5L1383.3 785.2L1384.7 820.5L1386 783L1387.3 819.3L1388.7 749.9L1390 819.3L1391.3 775.3L1392.7 809.2L1394 762.9L1395.3 815.6L1396.7 785.3L1398 812.4L1399.3 789.6L1400.7 816L1402 774.4L1403.3 822.3L1404.7 775.4L1406 812.7L1407.3 773.4L1408.7 812.8L1410 774L1411.3 824L1412.7 786.2L1414 819.4L1415.3 791.7L1416.7 828.1L1418 770.4L1419.3 819.8L1420.7 753.6L1422 824.2L1423.3 785.4L1424.7 825.4L1426 793.8L1427.3 825.9L1428.7 786.5L1430 825.5L1431.3 773L1432.7 820.9L1434 786.2L1435.3 823.9L1436.7 783.8L1438 827.5L1439.3 795.2L1440.7 813L1442 792.6L1443.3 817.6L1444.7 785.3L1446 803.6L1447.3 770.3L1448.7 806L1450 789.2L1451.3 831.7L1452.7 795.4L1454 818.7L1455.3 776.9L1456.7 832L1458 792.7L1459.3 795.4L1460.7 777.3L1462 813L1463.3 777.4L1464.7 826.9L1466 796.1L1467.3 829.4L1468.7 768.3L1470 829.7L1471.3 788.4L1472.7 822.3L1474 775.3L1475.3 822L1476.7 793.2L1478 820.4L1479.3 796.8L1480.7 830.8L1482 779.4L1483.3 821.2L1484.7 794.5L1486 799.3L1487.3 761.5L1488.7 812.3L1490 792.5L1491.3 825.2L1492.7 855.4L1494 878.7L1495.3 887.4L1496.7 888.1L1498 884.2L1499.3 886.4L1500.7 882.7L1502 887.3L1503.3 887.9L1504.7 884.4L1506 882.8L1507.3 888.2L1508.7 882.1L1510 883L1511.3 886.8L1512.7 864.6L1514 864.1L1515.3 887.4L1516.7 884.5L1518 857.8L1519.3 887.3L1520.7 885.8L1522 886.9L1523.3 888.5L1524.7 884.6L1526 883.7L1527.3 883.1L1528.7 885.5L1530 887.4L1531.3 887L1532.7 891L1534 890.3L1535.3 890.4L1536.7 888.2L1538 888.9L1539.3 888.8L1540.7 888.5L1542 883.9L1543.3 886.3L1544.7 891.5L1546 887.1L1547.3 882.8L1548.7 884.5L1550 889.1L1551.3 891L1552.7 875L1554 887.3L1555.3 886.6L1556.7 885.9L1558 884.9L1559.3 886.9L1560.7 887.6L1562 890.2L1563.3 891.7L1564.7 886L1566 885.5L1567.3 11.6L1568.7 -1983.6L1570 -1770.1L1571.3 -2250.4L1572.7 -2064.1L1574 289.1L1575.3 409.4L1576.7 483.5L1578 -3823.2L1579.3 -1489.2L1580.7 61.2L1582 498.1L1583.3 376.6L1584.7 742.1L1586 648.5L1587.3 792.1L1588.7 721.3L1590 789.8L1591.3 766.5L1592.7 805.5L1594 730.4L1595.3 811.6L1596.7 737.4L1598 815.2L1599.3 742.7L1600.7 814.2L1602 744.6L1603.3 785.8L1604.7 693.2L1606 796L1607.3 729.7L1608.7 803.1L1610 750.7L1611.3 817.1L1612.7 746.4L1614 818.4L1615.3 740.1L1616.7 779.7L1618 766L1619.3 814.8L1620.7 766.7L1622 800.8L1623.3 750.1L1624.7 800.7L1626 730.4L1627.3 795.1L1628.7 721L1630 808.9L1631.3 768.9L1632.7 821.7L1634 776.3L1635.3 819.6L1636.7 775L1638 809.5L1639.3 726.9L1640.7 814.2L1642 757.2L1643.3 819.6L1644.7 765.2L1646 822.7L1647.3 764.2L1648.7 813.8L1650 756.4L1651.3 814.6L1652.7 774L1654 819.7L1655.3 764L1656.7 818.5L1658 784L1659.3 825.5L1660.7 798.2L1662 828L1663.3 753.1L1664.7 818.4L1666 781.4L1667.3 818.9L1668.7 781.1L1670 822.5L1671.3 785.1L1672.7 822L1674 797L1675.3 826.7L1676.7 777.5L1678 817.8L1679.3 788L1680.7 821.9L1682 783L1683.3 823.8L1684.7 774.3L1686 821.8L1687.3 788.5L1688.7 819.4L1690 787L1691.3 816.7L1692.7 779.9L1694 821.3L1695.3 780.8L1696.7 828.1L1698 790.1L1699.3 827L1700.7 790.2L1702 822.7L1703.3 793.7L1704.7 795L1706 788.2L1707.3 820.6L1708.7 781.3L1710 829.2L1711.3 782.1L1712.7 827.1L1714 785.3L1715.3 820.1L1716.7 798.7L1718 822.4L1719.3 773L1720.7 822.2L1722 794.7L1723.3 825.5L1724.7 789.2L1726 827.7L1727.3 783.6L1728.7 807.8L1730 786.5L1731.3 827.2L1732.7 788.3L1734 820.8L1735.3 789.6L1736.7 816.7L1738 778.8L1739.3 832.1L1740.7 790.7L1742 817.3L1743.3 793.2L1744.7 827.2L1746 772.4L1747.3 814.9L1748.7 773.9L1750 825.2L1751.3 794.3L1752.7 829.8L1754 788.9L1755.3 827.6L1756.7 792.1L1758 830.6L1759.3 781.4L1760.7 799.5L1762 790.1L1763.3 828L1764.7 795.4L1766 824.2L1767.3 795.4L1768.7 823.7L1770 788.4L1771.3 831L1772.7 797.3L1774 828.8L1775.3 750.6L1776.7 827.1L1778 774.5L1779.3 829.1L1780.7 790.5L1782 824.2L1783.3 793.4L1784.7 832.3L1786 799.2L1787.3 832.1L1788.7 746.6L1790 809.6L1791.3 787.6L1792.7 827.5L1794 777.5L1795.3 827.3L1796.7 792.3L1798 823.7L1799.3 786.3" fill="transparent" stroke="#6be6c1" stroke-width="3" stroke-linejoin="bevel" class="zr16-cls-50"></path>
</g>
<g clip-path="url(#zr16-c2)">
<path d="M200.7 586.1L202 715.6L203.3 801.7L204.7 738.1L206 822.4L207.3 784L208.7 823.3L210 781.6L211.3 827.7L212.7 828.5L214 867.1L215.3 881.6L216.7 877.6L218 879.7L219.3 885.1L220.7 883.1L222 886.6L223.3 881.4L224.7 865.4L226 873.6L227.3 878.6L228.7 874.9L230 876.4L231.3 881.3L232.7 883L234 870.4L235.3 887.5L236.7 883.7L238 884.2L239.3 884.3L240.7 883.8L242 884.5L243.3 886.3L244.7 885.4L246 883.7L247.3 881.9L248.7 876.2L250 883L251.3 879.4L252.7 880.9L254 882.4L255.3 882.1L256.7 885.5L258 885.4L259.3 885.3L260.7 849.2L262 868.8L263.3 877.1L264.7 881.8L266 882L267.3 881.6L268.7 879.6L270 884.9L271.3 881.8L272.7 882.2L274 885.4L275.3 883.7L276.7 882.9L278 880L279.3 872.9L280.7 865.6L282 883L283.3 880.1L284.7 878L286 872.7L287.3 -138.5L288.7 -3405.3L290 -2964.3L291.3 -2539.1L292.7 -2319.7L294 292L295.3 306L296.7 425L298 -4135.5L299.3 -1509.6L300.7 -361.3L302 340.8L303.3 330.1L304.7 746.6L306 562.2L307.3 769.9L308.7 663.6L310 781.8L311.3 714L312.7 794.6L314 681.5L315.3 805.5L316.7 709.6L318 813.6L319.3 734.5L320.7 811.9L322 729.5L323.3 798.9L324.7 682.9L326 781.9L327.3 718.2L328.7 797.8L330 741.8L331.3 794.8L332.7 700.2L334 747.3L335.3 697.2L336.7 807.1L338 763.7L339.3 810L340.7 759L342 805.3L343.3 745.5L344.7 789.4L346 698L347.3 809.9L348.7 702L350 811.9L351.3 744.5L352.7 813.9L354 749.5L355.3 785.6L356.7 747.1L358 784.1L359.3 746.5L360.7 814.9L362 754.2L363.3 814.5L364.7 755.7L366 793.5L367.3 689.1L368.7 791.8L370 725.8L371.3 816.4L372.7 777.7L374 804.6L375.3 758.4L376.7 818.8L378 732L379.3 806.2L380.7 781.6L382 817.4L383.3 787.5L384.7 819.6L386 750.9L387.3 821.1L388.7 747.4L390 781.2L391.3 757.1L392.7 806.1L394 765.9L395.3 823.9L396.7 780.7L398 823.9L399.3 779L400.7 823.8L402 756.8L403.3 809.8L404.7 770L406 795L407.3 769.1L408.7 813.3L410 785.5L411.3 823.7L412.7 783.7L414 811.8L415.3 751.9L416.7 816.6L418 735L419.3 798.8L420.7 791.6L422 819.1L423.3 761L424.7 812.9L426 752.2L427.3 801.4L428.7 766.1L430 822.8L431.3 782L432.7 823.9L434 740.2L435.3 820.8L436.7 793.8L438 814.7L439.3 771.7L440.7 805.9L442 747.4L443.3 818.6L444.7 763.4L446 823.9L447.3 786.2L448.7 809.3L450 783.7L451.3 823.5L452.7 750.8L454 808.5L455.3 771.2L456.7 819L458 780.9L459.3 801.4L460.7 782.9L462 812.4L463.3 792.5L464.7 808.5L466 765.3L467.3 817.4L468.7 768.6L470 819.1L471.3 786.6L472.7 823L474 786.7L475.3 824.2L476.7 790.1L478 808.6L479.3 772.2L480.7 818.6L482 779.2L483.3 804.9L484.7 749L486 808.9L487.3 780.9L488.7 816.2L490 789.5L491.3 813.1L492.7 770.5L494 814.9L495.3 742L496.7 811.1L498 744.3L499.3 815L500.7 774.7L502 816.2L503.3 784L504.7 798L506 728.4L507.3 796.1L508.7 774.7L510 825.1L511.3 769.7L512.7 825.6L514 779.1L515.3 813.2L516.7 734L518 800.8L519.3 780.6L520.7 821.4L522 790.1L523.3 826.5L524.7 789.3L526 827.1L527.3 794.3L528.7 807.2L530 754.8L531.3 817.9L532.7 854.3L534 877.9L535.3 882.9L536.7 882.6L538 880.9L539.3 881.6L540.7 881.4L542 886.8L543.3 883.9L544.7 883.5L546 882L547.3 882L548.7 878.4L550 878.7L551.3 888.1L552.7 879.3L554 880.8L555.3 888.3L556.7 885.3L558 889.5L559.3 848.5L560.7 874.3L562 879.4L563.3 881.1L564.7 878.2L566 877.2L567.3 878.3L568.7 878.5L570 865.7L571.3 883.6L572.7 880.7L574 885.9L575.3 882L576.7 886.6L578 885.8L579.3 883.7L580.7 881L582 880.7L583.3 883.8L584.7 884.7L586 877.9L587.3 883L588.7 879.8L590 884L591.3 883.8L592.7 883L594 849.4L595.3 869.2L596.7 883.9L598 881.4L599.3 882.1L600.7 880.9L602 881.4L603.3 879.2L604.7 881.3L606 877.9L607.3 -84.7L608.7 -2144.7L610 -1979.6L611.3 -2547.7L612.7 -2289.5L614 282.7L615.3 347.2L616.7 464.5L618 -4063.7L619.3 -1572.5L620.7 -45.6L622 431.7L623.3 182.1L624.7 726.8L626 625.9L627.3 786.6L628.7 664.4L630 782.5L631.3 734.4L632.7 807.1L634 694.8L635.3 806.7L636.7 698.3L638 776.9L639.3 688.8L640.7 790L642 722.7L643.3 812.3L644.7 700.3L646 802.8L647.3 690L648.7 760.2L650 712.9L651.3 796.2L652.7 727.5L654 811.1L655.3 749L656.7 814.4L658 734.3L659.3 783.7L660.7 746.4L662 797.4L663.3 737.6L664.7 815.5L666 724.8L667.3 815.4L668.7 695.1L670 796.5L671.3 743L672.7 788L674 761.8L675.3 817.7L676.7 767.6L678 809.5L679.3 727L680.7 773.6L682 727.8L683.3 810.4L684.7 744.6L686 814.6L687.3 749L688.7 801.3L690 734.7L691.3 783.5L692.7 736.9L694 806L695.3 754.3L696.7 813.8L698 783L699.3 821.1L700.7 787.9L702 814.3L703.3 758.6L704.7 797.7L706 764.2L707.3 790.9L708.7 746.2L710 816.7L711.3 749.9L712.7 826.4L714 763.9L715.3 805.4L716.7 772L718 804.7L719.3 784.6L720.7 816.1L722 775.1L723.3 819.7L724.7 778.8L726 816.2L727.3 765.1L728.7 798.3L730 774.3L731.3 809.4L732.7 761.1L734 825.2L735.3 780.6L736.7 821.1L738 779.2L739.3 812L740.7 758.9L742 799.7L743.3 769.2L744.7 823.7L746 791.4L747.3 816.6L748.7 778.6L750 822.2L751.3 786.7L752.7 824.8L754 755L755.3 816.6L756.7 772.5L758 815.7L759.3 781.9L760.7 824.8L762 788.6L763.3 822.6L764.7 784.7L766 819.8L767.3 758.4L768.7 806.9L770 740.9L771.3 825.4L772.7 765.6L774 818.1L775.3 785.4L776.7 824.2L778 790.8L779.3 804.1L780.7 764.7L782 811.9L783.3 786.9L784.7 825.2L786 772.3L787.3 820.5L788.7 780.9L790 798.6L791.3 787.9L792.7 803L794 773.7L795.3 816.5L796.7 765.2L798 824.3L799.3 791.2L800.7 811.7L802 790.4L803.3 823.6L804.7 791.8L806 769.9L807.3 770.4L808.7 794.3L810 765L811.3 820.5L812.7 786.3L814 825.1L815.3 764.3L816.7 820.6L818 783.1L819.3 784.9L820.7 773.9L822 789.4L823.3 789.3L824.7 825.6L826 788.5L827.3 821.6L828.7 782.5L830 827.3L831.3 773.8L832.7 803.8L834 776.9L835.3 816.5L836.7 786.2L838 818.5L839.3 788.6L840.7 820.6L842 791.1L843.3 809.1L844.7 750.1L846 800.4L847.3 763.5L848.7 799.6L850 785.2L851.3 823.8L852.7 855.2L854 879L855.3 883.6L856.7 886L858 884.9L859.3 881.4L860.7 882.4L862 879.9L863.3 885.3L864.7 885.8L866 869.9L867.3 874.5L868.7 862.6L870 875L871.3 879.5L872.7 885.4L874 887.1L875.3 887.5L876.7 885.2L878 880.3L879.3 880.7L880.7 874.6L882 883.6L883.3 883.8L884.7 882.8L886 881.7L887.3 881.1L888.7 881.9L890 884.7L891.3 880L892.7 884L894 869.5L895.3 885.7L896.7 888L898 883.8L899.3 885.1L900.7 886.5L902 857.4L903.3 871.1L904.7 875.8L906 875.4L907.3 883.4L908.7 883L910 882.1L911.3 878.3L912.7 886.8L914 869.2L915.3 884.5L916.7 882.2L918 877.8L919.3 886L920.7 886.2L922 882.8L923.3 884.8L924.7 879.6L926 883.6L927.3 -29L928.7 -2154.6L930 -2005.3L931.3 -2603.3L932.7 -2370.9L934 310.6L935.3 369.1L936.7 457.4L938 -4082.2L939.3 -1471.5L940.7 59.1L942 446.5L943.3 337.5L944.7 752.6L946 666.4L947.3 797.4L948.7 680.2L950 789.4L951.3 753.1L952.7 808.7L954 729.7L955.3 798.5L956.7 715L958 743.9L959.3 707.9L960.7 793.5L962 736.1L963.3 811.6L964.7 741.9L966 807.3L967.3 728.2L968.7 789.3L970 723.4L971.3 813.2L972.7 742.6L974 815.3L975.3 764.1L976.7 813.5L978 772.3L979.3 808.4L980.7 716L982 793.4L983.3 733.4L984.7 815.5L986 729.5L987.3 807.2L988.7 733.5L990 793.5L991.3 721.1L992.7 802.9L994 760.3L995.3 815.8L996.7 769.4L998 817.1L999.3 759.2L1000.7 802.4L1002 736.3L1003.3 808.5L1004.7 744.2L1006 817L1007.3 750.3L1008.7 809.6L1010 766.8L1011.3 825.6L1012.7 783.2L1014 813.6L1015.3 750.9L1016.7 819.7L1018 783.4L1019.3 817.1L1020.7 792.8L1022 821.6L1023.3 788.5L1024.7 821.4L1026 779.3L1027.3 785.7L1028.7 746.3L1030 809.5L1031.3 775.3L1032.7 822.2L1034 772.5L1035.3 823.7L1036.7 773.1L1038 812.3L1039.3 761.5L1040.7 795.4L1042 777L1043.3 819.7L1044.7 785.5L1046 817.8L1047.3 786.2L1048.7 815.7L1050 777.9L1051.3 822.7L1052.7 782.1L1054 801.2L1055.3 773.1L1056.7 809.9L1058 783.5L1059.3 824.5L1060.7 792.2L1062 819.5L1063.3 772.3L1064.7 822.4L1066 777.1L1067.3 779.8L1068.7 759L1070 819.7L1071.3 784.6L1072.7 825.8L1074 782.6L1075.3 823.1L1076.7 794.2L1078 821.5L1079.3 781.6L1080.7 810.8L1082 790.4L1083.3 820.4L1084.7 787.8L1086 823.5L1087.3 786.7L1088.7 815.7L1090 779.7L1091.3 826.3L1092.7 765.2L1094 791.4L1095.3 767.4L1096.7 824.7L1098 788.3L1099.3 820.9L1100.7 787.3L1102 826.1L1103.3 773L1104.7 821L1106 727.6L1107.3 811.7L1108.7 773.1L1110 819.9L1111.3 779.6L1112.7 813.2L1114 766.8L1115.3 820.4L1116.7 776.9L1118 821.7L1119.3 749.1L1120.7 817.1L1122 777.2L1123.3 817.6L1124.7 784.4L1126 802L1127.3 784.8L1128.7 811.5L1130 780.5L1131.3 809.4L1132.7 763.7L1134 812.2L1135.3 781.3L1136.7 823.4L1138 766.4L1139.3 824.1L1140.7 786.8L1142 801L1143.3 768L1144.7 814.1L1146 774.6L1147.3 819.9L1148.7 773.1L1150 813.3L1151.3 790.4L1152.7 813.5L1154 786.3L1155.3 824L1156.7 792.2L1158 798.8L1159.3 778.5L1160.7 818.2L1162 790.3L1163.3 818.4L1164.7 788.9L1166 810.8L1167.3 783.6L1168.7 815.8L1170 786.4L1171.3 815.8L1172.7 832.3L1174 861.9L1175.3 878.7L1176.7 878.8L1178 880L1179.3 869.7L1180.7 860L1182 883.9L1183.3 883.4L1184.7 878.2L1186 881.3L1187.3 883.3L1188.7 876.6L1190 879.8L1191.3 886.3L1192.7 886.1L1194 883.8L1195.3 883.9L1196.7 880.7L1198 880.7L1199.3 880L1200.7 881.1L1202 880.1L1203.3 859.6L1204.7 870.9L1206 879L1207.3 877.1L1208.7 878.9L1210 886.6L1211.3 884.5L1212.7 887.9L1214 882.5L1215.3 885L1216.7 886.7L1218 885.4L1219.3 886L1220.7 880.5L1222 882.4L1223.3 884.7L1224.7 885.2L1226 887.4L1227.3 884.9L1228.7 877.1L1230 879.1L1231.3 877L1232.7 867.3L1234 882.9L1235.3 881.2L1236.7 882.9L1238 876.6L1239.3 876.2L1240.7 876.1L1242 874.6L1243.3 877.5L1244.7 882.7L1246 872.5L1247.3 25.7L1248.7 -2173.9L1250 -1948.5L1251.3 -2500.3L1252.7 -2604.7L1254 300.7L1255.3 355.4L1256.7 473.8L1258 -3906.2L1259.3 -1760L1260.7 -15.7L1262 441.5L1263.3 186.8L1264.7 713.2L1266 624.5L1267.3 757.3L1268.7 667.2L1270 782.6L1271.3 748.5L1272.7 798L1274 744.9L1275.3 799.4L1276.7 684.4L1278 776.3L1279.3 659L1280.7 800.2L1282 726L1283.3 790.8L1284.7 732.1L1286 785.7L1287.3 726.7L1288.7 769.2L1290 719.7L1291.3 799.8L1292.7 715.1L1294 818.5L1295.3 757.5L1296.7 808.5L1298 767.6L1299.3 784.1L1300.7 727.2L1302 792L1303.3 738.1L1304.7 790L1306 747L1307.3 795.2L1308.7 703.7L1310 788.4L1311.3 752.3L1312.7 809.1L1314 768.2L1315.3 811.1L1316.7 764.3L1318 807.3L1319.3 744.9L1320.7 806L1322 724L1323.3 812.6L1324.7 747.1L1326 794L1327.3 754.9L1328.7 789.7L1330 758.6L1331.3 821.3L1332.7 734.7L1334 805.8L1335.3 769.5L1336.7 809.2L1338 784.1L1339.3 821.6L1340.7 790.1L1342 821.9L1343.3 777.5L1344.7 804.2L1346 755.1L1347.3 814.6L1348.7 765.3L1350 813.3L1351.3 772.2L1352.7 799.4L1354 774.7L1355.3 814.5L1356.7 789.1L1358 797.7L1359.3 757L1360.7 787.5L1362 752.5L1363.3 808.8L1364.7 774.4L1366 809.5L1367.3 773.9L1368.7 813.5L1370 747.3L1371.3 812.3L1372.7 774.8L1374 823.9L1375.3 754.9L1376.7 824.3L1378 766.6L1379.3 807.2L1380.7 787.9L1382 812L1383.3 766.2L1384.7 822.8L1386 789.9L1387.3 823.4L1388.7 772.3L1390 821.4L1391.3 780.9L1392.7 817.3L1394 772.5L1395.3 782.9L1396.7 761.9L1398 797.2L1399.3 747.1L1400.7 809.8L1402 779.8L1403.3 795.9L1404.7 760.2L1406 822.7L1407.3 768.4L1408.7 809.3L1410 744.1L1411.3 821.6L1412.7 742.1L1414 819L1415.3 767.5L1416.7 819.8L1418 788.8L1419.3 811L1420.7 770.8L1422 821.1L1423.3 770.2L1424.7 823L1426 767.8L1427.3 797.5L1428.7 778.4L1430 805.4L1431.3 786.8L1432.7 816L1434 771.4L1435.3 822.6L1436.7 760.9L1438 824.4L1439.3 792L1440.7 799.2L1442 774.8L1443.3 817.5L1444.7 785.4L1446 796.8L1447.3 771.2L1448.7 813.7L1450 785.5L1451.3 805.2L1452.7 767.9L1454 825.6L1455.3 780.7L1456.7 813.9L1458 784.3L1459.3 797L1460.7 747.1L1462 814.1L1463.3 745.1L1464.7 825.6L1466 753L1467.3 819.4L1468.7 779.1L1470 823.9L1471.3 751.2L1472.7 822.2L1474 785L1475.3 797.7L1476.7 769.6L1478 817.2L1479.3 788.8L1480.7 808.4L1482 772.9L1483.3 822.3L1484.7 781.9L1486 805.2L1487.3 788.4L1488.7 798.7L1490 789.7L1491.3 826.9L1492.7 850.6L1494 876.2L1495.3 877.7L1496.7 879L1498 884.1L1499.3 882L1500.7 883.9L1502 882.5L1503.3 879.2L1504.7 856.7L1506 879L1507.3 883.5L1508.7 877.1L1510 880.6L1511.3 882.9L1512.7 884.8L1514 881.9L1515.3 879.9L1516.7 871.3L1518 889.2L1519.3 885L1520.7 885L1522 878L1523.3 881.9L1524.7 885.7L1526 880.8L1527.3 883.3L1528.7 878.9L1530 882.6L1531.3 877.9L1532.7 879L1534 883.4L1535.3 884.5L1536.7 883.3L1538 882.3L1539.3 874.1L1540.7 873.4L1542 874.7L1543.3 880.8L1544.7 884L1546 884.7L1547.3 887.8L1548.7 879.9L1550 883.7L1551.3 883.2L1552.7 888.2L1554 867.7L1555.3 884.1L1556.7 888L1558 885.2L1559.3 889.2L1560.7 885.2L1562 886.7L1563.3 881.1L1564.7 884.6L1566 880.1L1567.3 -2L1568.7 -2136.8L1570 -2451.4L1571.3 -2491.7L1572.7 -2222.7L1574 332.6L1575.3 387L1576.7 480.6L1578 -4167L1579.3 -1660L1580.7 -33.2L1582 413.4L1583.3 304L1584.7 704.1L1586 612.4L1587.3 779.2L1588.7 702L1590 793.5L1591.3 755.1L1592.7 773.7L1594 695.9L1595.3 801.7L1596.7 718L1598 806.2L1599.3 729.4L1600.7 804.7L1602 715.7L1603.3 779.7L1604.7 683.2L1606 782.6L1607.3 722.3L1608.7 796.5L1610 739L1611.3 799L1612.7 703.2L1614 790.8L1615.3 739.5L1616.7 802.4L1618 763.6L1619.3 814.4L1620.7 761.2L1622 799.7L1623.3 736.5L1624.7 778.2L1626 720L1627.3 792.2L1628.7 695.7L1630 807.6L1631.3 763.9L1632.7 804.9L1634 696.2L1635.3 797.6L1636.7 768L1638 808.5L1639.3 750.6L1640.7 818.2L1642 754.7L1643.3 815.3L1644.7 725.5L1646 794.9L1647.3 738.5L1648.7 803.3L1650 736.9L1651.3 811.4L1652.7 736.4L1654 815.8L1655.3 766.8L1656.7 810.9L1658 755.5L1659.3 802.8L1660.7 789.4L1662 816.3L1663.3 791L1664.7 821L1666 777.5L1667.3 808.1L1668.7 754.3L1670 790L1671.3 759.3L1672.7 815.8L1674 784.3L1675.3 826.1L1676.7 792.2L1678 825.6L1679.3 788.7L1680.7 819.5L1682 780.3L1683.3 786.7L1684.7 751.6L1686 809.1L1687.3 778.6L1688.7 815.2L1690 760.3L1691.3 811L1692.7 748.2L1694 816.1L1695.3 766.7L1696.7 804.2L1698 747.8L1699.3 821.8L1700.7 786.6L1702 818.2L1703.3 790.8L1704.7 817.8L1706 790L1707.3 820.5L1708.7 754.4L1710 817L1711.3 775.5L1712.7 817.5L1714 772.6L1715.3 823L1716.7 760.9L1718 799.7L1719.3 776.8L1720.7 800.9L1722 784.6L1723.3 822.3L1724.7 781.3L1726 821.4L1727.3 781.8L1728.7 815.3L1730 781.7L1731.3 820.5L1732.7 782.1L1734 804.1L1735.3 765.3L1736.7 823.2L1738 765L1739.3 809.6L1740.7 761.5L1742 813.4L1743.3 775.5L1744.7 824.1L1746 763.7L1747.3 814.1L1748.7 753.8L1750 815.2L1751.3 746.8L1752.7 820.4L1754 763L1755.3 824.9L1756.7 782.2L1758 825.3L1759.3 774L1760.7 794.1L1762 780.2L1763.3 822.5L1764.7 787.4L1766 818.3L1767.3 764.8L1768.7 815.8L1770 782.8L1771.3 827.7L1772.7 764.9L1774 809.8L1775.3 782.3L1776.7 816.6L1778 749.7L1779.3 816.2L1780.7 789L1782 819.5L1783.3 771.5L1784.7 825.6L1786 751.8L1787.3 818.1L1788.7 779.1L1790 822.8L1791.3 780.3L1792.7 825.5L1794 790.1L1795.3 826L1796.7 783.6L1798 818.8L1799.3 750.4" fill="transparent" stroke="#626c91" stroke-width="3" stroke-linejoin="bevel" class="zr16-cls-50"></path>
</g>
<path d="M-189.9 -5l379.7 0l0 28l-379.7 0Z" transform="translate(1000 5)" fill="rgb(0,0,0)" fill-opacity="0" stroke="#ccc" stroke-width="0" class="zr16-cls-48"></path>
<text dominant-baseline="central" text-anchor="middle" style="font-size:18px;font-family:sans-serif;font-weight:bold;" xml:space="preserve" y="9" transform="translate(1000 5)" fill="#666666">wholeUpdate per Tick for bench_4_every_240</text>
<defs >
<clipPath id="zr16-c0">
<path d="M198 58.5l16004 0l0 8703l-16004 0Z" fill="#000" class="zr16-cls-49"></path>
</clipPath>
<clipPath id="zr16-c1">
<path d="M198 58.5l16004 0l0 8703l-16004 0Z" fill="#000" class="zr16-cls-49"></path>
</clipPath>
<clipPath id="zr16-c2">
<path d="M198 58.5l16004 0l0 8703l-16004 0Z" fill="#000" class="zr16-cls-49"></path>
</clipPath>
</defs>
<style ><![CDATA[
.zr16-cls-48:hover {
pointer-events:none;
}
.zr16-cls-49:hover {
cursor:pointer;
fill:rgba(0,0,0,1);
}
.zr16-cls-50:hover {
cursor:pointer;
}

]]>

</style>
</svg>