<svg width="2000" height="1000" xmlns="http://www.w3.org/2000/svg" xmlns:xlink="http://www.w3.org/1999/xlink" version="1.1" baseProfile="full" viewBox="0 0 2000 1000">
<rect width="2000" height="1000" x="0" y="0" fill="rgb(252,252,252)" fill-opacity="0"></rect>
<path d="M200 930.5L1800 930.5" fill="transparent" stroke="#eeeeee" class="zr18-cls-54"></path>
<path d="M200 797.5L1800 797.5" fill="transparent" stroke="#eeeeee" class="zr18-cls-54"></path>
<path d="M200 665.5L1800 665.5" fill="transparent" stroke="#eeeeee" class="zr18-cls-54"></path>
<path d="M200 532.5L1800 532.5" fill="transparent" stroke="#eeeeee" class="zr18-cls-54"></path>
<path d="M200 399.5L1800 399.5" fill="transparent" stroke="#eeeeee" class="zr18-cls-54"></path>
<path d="M200 267.5L1800 267.5" fill="transparent" stroke="#eeeeee" class="zr18-cls-54"></path>
<path d="M200 134.5L1800 134.5" fill="transparent" stroke="#eeeeee" class="zr18-cls-54"></path>
<path d="M200 60.5L1800 60.5" fill="transparent" stroke="#eeeeee" class="zr18-cls-54"></path>
<path d="M200.5 930L200.5 60" fill="transparent" stroke="#cccccc" stroke-linecap="round" class="zr18-cls-54"></path>
<text dominant-baseline="central" text-anchor="middle" style="font-size:12px;font-family:sans-serif;" xml:space="preserve" y="-6" transform="translate(200 45)" fill="#cccccc">transportLinesUpdate Time (ms)</text>
<path d="M200 930.5L1800 930.5" fill="transparent" stroke="#cccccc" stroke-linecap="round" class="zr18-cls-54"></path>
<text dominant-baseline="central" text-anchor="end" style="font-size:12px;font-family:sans-serif;" transform="translate(192 930)" fill="#999999">0.000</text>
<text dominant-baseline="central" text-anchor="end" style="font-size:12px;font-family:sans-serif;" transform="translate(192 797.381)" fill="#999999">0.050</text>
<text dominant-baseline="central" text-anchor="end" style="font-size:12px;font-family:sans-serif;" transform="translate(192 664.762)" fill="#999999">0.100</text>
<text dominant-baseline="central" text-anchor="end" style="font-size:12px;font-family:sans-serif;" transform="translate(192 532.1431)" fill="#999999">0.150</text>
<text dominant-baseline="central" text-anchor="end" style="font-size:12px;font-family:sans-serif;" transform="translate(192 399.5241)" fill="#999999">0.200</text>
<text dominant-baseline="central" text-anchor="end" style="font-size:12px;font-family:sans-serif;" transform="translate(192 266.9051)" fill="#999999">0.250</text>
<text dominant-baseline="central" text-anchor="end" style="font-size:12px;font-family:sans-serif;" transform="translate(192 134.2861)" fill="#999999">0.300</text>
<text dominant-baseline="central" text-anchor="end" style="font-size:12px;font-family:sans-serif;" transform="translate(192 60)" fill="#999999">0.328</text>
<text dominant-baseline="central" text-anchor="middle" style="font-size:12px;font-family:sans-serif;" y="6" transform="translate(200.6667 938)" fill="#999999">0</text>
<text dominant-baseline="central" text-anchor="middle" style="font-size:12px;font-family:sans-serif;" y="6" transform="translate(236.6667 938)" fill="#999999">27</text>
<text dominant-baseline="central" text-anchor="middle" style="font-size:12px;font-family:sans-serif;" y="6" transform="translate(272.6667 938)" fill="#999999">54</text>
<text dominant-baseline="central" text-anchor="middle" style="font-size:12px;font-family:sans-serif;" y="6" transform="translate(308.6667 938)" fill="#999999">81</text>
<text dominant-baseline="central" text-anchor="middle" style="font-size:12px;font-family:sans-serif;" y="6" transform="translate(344.6667 938)" fill="#999999">108</text>
<text dominant-baseline="central" text-anchor="middle" style="font-size:12px;font-family:sans-serif;" y="6" transform="translate(380.6667 938)" fill="#999999">135</text>
<text dominant-baseline="central" text-anchor="middle" style="font-size:12px;font-family:sans-serif;" y="6" transform="translate(416.6667 938)" fill="#999999">162</text>
<text dominant-baseline="central" text-anchor="middle" style="font-size:12px;font-family:sans-serif;" y="6" transform="translate(452.6667 938)" fill="#999999">189</text>
<text dominant-baseline="central" text-anchor="middle" style="font-size:12px;font-family:sans-serif;" y="6" transform="translate(488.6667 938)" fill="#999999">216</text>
<text dominant-baseline="central" text-anchor="middle" style="font-size:12px;font-family:sans-serif;" y="6" transform="translate(524.6667 938)" fill="#999999">243</text>
<text dominant-baseline="central" text-anchor="middle" style="font-size:12px;font-family:sans-serif;" y="6" transform="translate(560.6667 938)" fill="#999999">270</text>
<text dominant-baseline="central" text-anchor="middle" style="font-size:12px;font-family:sans-serif;" y="6" transform="translate(596.6667 938)" fill="#999999">297</text>
<text dominant-baseline="central" text-anchor="middle" style="font-size:12px;font-family:sans-serif;" y="6" transform="translate(632.6667 938)" fill="#999999">324</text>
<text dominant-baseline="central" text-anchor="middle" style="font-size:12px;font-family:sans-serif;" y="6" transform="translate(668.6667 938)" fill="#999999">351</text>
<text dominant-baseline="central" text-anchor="middle" style="font-size:12px;font-family:sans-serif;" y="6" transform="translate(704.6667 938)" fill="#999999">378</text>
<text dominant-baseline="central" text-anchor="middle" style="font-size:12px;font-family:sans-serif;" y="6" transform="translate(740.6667 938)" fill="#999999">405</text>
<text dominant-baseline="central" text-anchor="middle" style="font-size:12px;font-family:sans-serif;" y="6" transform="translate(776.6667 938)" fill="#999999">432</text>
<text dominant-baseline="central" text-anchor="middle" style="font-size:12px;font-family:sans-serif;" y="6" transform="translate(812.6667 938)" fill="#999999">459</text>
<text dominant-baseline="central" text-anchor="middle" style="font-size:12px;font-family:sans-serif;" y="6" transform="translate(848.6667 938)" fill="#999999">486</text>
<text dominant-baseline="central" text-anchor="middle" style="font-size:12px;font-family:sans-serif;" y="6" transform="translate(884.6667 938)" fill="#999999">513</text>
<text dominant-baseline="central" text-anchor="middle" style="font-size:12px;font-family:sans-serif;" y="6" transform="translate(920.6667 938)" fill="#999999">540</text>
<text dominant-baseline="central" text-anchor="middle" style="font-size:12px;font-family:sans-serif;" y="6" transform="translate(956.6667 938)" fill="#999999">567</text>
<text dominant-baseline="central" text-anchor="middle" style="font-size:12px;font-family:sans-serif;" y="6" transform="translate(992.6667 938)" fill="#999999">594</text>
<text dominant-baseline="central" text-anchor="middle" style="font-size:12px;font-family:sans-serif;" y="6" transform="translate(1028.6667 938)" fill="#999999">621</text>
<text dominant-baseline="central" text-anchor="middle" style="font-size:12px;font-family:sans-serif;" y="6" transform="translate(1064.6667 938)" fill="#999999">648</text>
<text dominant-baseline="central" text-anchor="middle" style="font-size:12px;font-family:sans-serif;" y="6" transform="translate(1100.6667 938)" fill="#999999">675</text>
<text dominant-baseline="central" text-anchor="middle" style="font-size:12px;font-family:sans-serif;" y="6" transform="translate(1136.6667 938)" fill="#999999">702</text>
<text dominant-baseline="central" text-anchor="middle" style="font-size:12px;font-family:sans-serif;" y="6" transform="translate(1172.6667 938)" fill="#999999">729</text>
<text dominant-baseline="central" text-anchor="middle" style="font-size:12px;font-family:sans-serif;" y="6" transform="translate(1208.6667 938)" fill="#999999">756</text>
<text dominant-baseline="central" text-anchor="middle" style="font-size:12px;font-family:sans-serif;" y="6" transform="translate(1244.6667 938)" fill="#999999">783</text>
<text dominant-baseline="central" text-anchor="middle" style="font-size:12px;font-family:sans-serif;" y="6" transform="translate(1280.6667 938)" fill="#999999">810</text>
<text dominant-baseline="central" text-anchor="middle" style="font-size:12px;font-family:sans-serif;" y="6" transform="translate(1316.6667 938)" fill="#999999">837</text>
<text dominant-baseline="central" text-anchor="middle" style="font-size:12px;font-family:sans-serif;" y="6" transform="translate(1352.6667 938)" fill="#999999">864</text>
<text dominant-baseline="central" text-anchor="middle" style="font-size:12px;font-family:sans-serif;" y="6" transform="translate(1388.6667 938)" fill="#999999">891</text>
<text dominant-baseline="central" text-anchor="middle" style="font-size:12px;font-family:sans-serif;" y="6" transform="translate(1424.6667 938)" fill="#999999">918</text>
<text dominant-baseline="central" text-anchor="middle" style="font-size:12px;font-family:sans-serif;" y="6" transform="translate(1460.6667 938)" fill="#999999">945</text>
<text dominant-baseline="central" text-anchor="middle" style="font-size:12px;font-family:sans-serif;" y="6" transform="translate(1496.6667 938)" fill="#999999">972</text>
<text dominant-baseline="central" text-anchor="middle" style="font-size:12px;font-family:sans-serif;" y="6" transform="translate(1532.6667 938)" fill="#999999">999</text>
<text dominant-baseline="central" text-anchor="middle" style="font-size:12px;font-family:sans-serif;" y="6" transform="translate(1568.6667 938)" fill="#999999">1026</text>
<text dominant-baseline="central" text-anchor="middle" style="font-size:12px;font-family:sans-serif;" y="6" transform="translate(1604.6667 938)" fill="#999999">1053</text>
<text dominant-baseline="central" text-anchor="middle" style="font-size:12px;font-family:sans-serif;" y="6" transform="translate(1640.6667 938)" fill="#999999">1080</text>
<text dominant-baseline="central" text-anchor="middle" style="font-size:12px;font-family:sans-serif;" y="6" transform="translate(1676.6667 938)" fill="#999999">1107</text>
<text dominant-baseline="central" text-anchor="middle" style="font-size:12px;font-family:sans-serif;" y="6" transform="translate(1712.6667 938)" fill="#999999">1134</text>
<text dominant-baseline="central" text-anchor="middle" style="font-size:12px;font-family:sans-serif;" y="6" transform="translate(1748.6667 938)" fill="#999999">1161</text>
<text dominant-baseline="central" text-anchor="middle" style="font-size:12px;font-family:sans-serif;" y="6" transform="translate(1784.6667 938)" fill="#999999">1188</text>
<g clip-path="url(#zr18-c0)">
<path d="M200.7 336.4L202 355.8L203.3 640.1L204.7 559.5L206 702.7L207.3 640.9L208.7 696.6L210 611.2L211.3 722.1L212.7 466.4L214 828.1L215.3 727.1L216.7 808.3L218 843L219.3 812.8L220.7 849.4L222 842.2L223.3 744.3L224.7 777.8L226 812.2L227.3 812L228.7 840.6L230 822L231.3 758.1L232.7 813.6L234 857.1L235.3 801.6L236.7 830.5L238 787.6L239.3 855.2L240.7 814.1L242 808.5L243.3 804.8L244.7 827.4L246 814.4L247.3 810.9L248.7 828.7L250 840.9L251.3 884.4L252.7 843.8L254 867.4L255.3 831.3L256.7 858.9L258 790.5L259.3 816.7L260.7 758.1L262 778L263.3 774.6L264.7 813.8L266 779.3L267.3 793.7L268.7 825.5L270 855.7L271.3 806.9L272.7 830.3L274 783.9L275.3 845.9L276.7 826.3L278 822.8L279.3 809.8L280.7 787.6L282 819.4L283.3 832.1L284.7 826.8L286 869.3L287.3 839.8L288.7 759.5L290 -368.1L291.3 429L292.7 -914.5L294 -198.1L295.3 86.5L296.7 204L298 -229.1L299.3 -927.5L300.7 -1585.3L302 -242.9L303.3 -1085.3L304.7 55L306 -758.2L307.3 306.4L308.7 0.9L310 319.7L311.3 398.7L312.7 467.4L314 285.7L315.3 464.8L316.7 9.6L318 503L319.3 27.1L320.7 341.7L322 -69.2L323.3 459.2L324.7 90.3L326 501.9L327.3 137.2L328.7 493.7L330 176.7L331.3 363.5L332.7 -25.9L334 475.9L335.3 312L336.7 509.6L338 461.1L339.3 506.1L340.7 421.8L342 470.9L343.3 90.5L344.7 513.8L346 211.5L347.3 517.8L348.7 136.9L350 531.6L351.3 432.1L352.7 421.8L354 491.8L355.3 522.9L356.7 476.2L358 513.6L359.3 270.6L360.7 540.4L362 309.6L363.3 536.9L364.7 263.5L366 582.8L367.3 343L368.7 575.4L370 275.4L371.3 651L372.7 416L374 666.6L375.3 454.7L376.7 621.3L378 640.1L379.3 649.6L380.7 603.2L382 658.4L383.3 632.7L384.7 663.4L386 484.4L387.3 642L388.7 456.6L390 644.1L391.3 447L392.7 656.3L394 627.1L395.3 639L396.7 615.7L398 666.4L399.3 638.8L400.7 635.6L402 510.4L403.3 655.5L404.7 503.2L406 657.9L407.3 556.3L408.7 660L410 528.7L411.3 647L412.7 525.2L414 661.3L415.3 338.8L416.7 644.3L418 503.5L419.3 644.6L420.7 669L422 660.3L423.3 626.6L424.7 643.3L426 651.5L427.3 675.6L428.7 447.5L430 679.9L431.3 555.7L432.7 672.7L434 521.3L435.3 625.8L436.7 650.2L438 669.3L439.3 605.1L440.7 633.7L442 583.1L443.3 685.7L444.7 573.3L446 678.8L447.3 577.5L448.7 656.8L450 591.8L451.3 686L452.7 568L454 664.8L455.3 509.9L456.7 664L458 569L459.3 695.8L460.7 552.6L462 604.6L463.3 644.1L464.7 697.4L466 635.1L467.3 658.4L468.7 596.9L470 701.9L471.3 601.9L472.7 692.9L474 639L475.3 689.2L476.7 602.2L478 677L479.3 628.4L480.7 668.5L482 585.2L483.3 696.6L484.7 682.3L486 695L487.3 610.9L488.7 702.2L490 609.9L491.3 633.2L492.7 611.2L494 591.8L495.3 587L496.7 674.3L498 636.6L499.3 698.2L500.7 638.5L502 649.6L503.3 590L504.7 683.6L506 676.2L507.3 621L508.7 642L510 663.4L511.3 602.7L512.7 701.1L514 623.1L515.3 697.1L516.7 591.3L518 680.4L519.3 555L520.7 676.2L522 632.9L523.3 709.6L524.7 652.3L526 720.2L527.3 629L528.7 679.4L530 635.3L531.3 713L532.7 556.5L534 813L535.3 811.7L536.7 817.5L538 807.5L539.3 799L540.7 815.7L542 802.2L543.3 830.5L544.7 763.2L546 881.5L547.3 803L548.7 780.4L550 796.9L551.3 874L552.7 861.3L554 852.6L555.3 873.2L556.7 792.9L558 784.6L559.3 822L560.7 775.9L562 827.9L563.3 797.9L564.7 830.3L566 837.2L567.3 832.7L568.7 874.8L570 854.1L571.3 802.4L572.7 824.4L574 811.4L575.3 736.9L576.7 778.8L578 840.1L579.3 806.9L580.7 800.6L582 833.5L583.3 788.1L584.7 785.2L586 844.3L587.3 832.4L588.7 838.5L590 835.8L591.3 809.1L592.7 824.7L594 832.1L595.3 803.5L596.7 820.5L598 870.1L599.3 789.2L600.7 840.3L602 835L603.3 784.4L604.7 810.4L606 827.4L607.3 763.7L608.7 717.5L610 -428.3L611.3 351L612.7 -789L614 -144.5L615.3 -121.9L616.7 153.1L618 -263L619.3 -625.9L620.7 -1874.6L622 -151.6L623.3 -950.8L624.7 116.8L626 -702.5L627.3 349.9L628.7 -302.8L630 395.3L631.3 391L632.7 430.8L634 285.5L635.3 464.8L636.7 -63.8L638 184.9L639.3 -161.7L640.7 447L642 86.8L643.3 501.9L644.7 90.8L646 489.4L647.3 123.9L648.7 182.6L650 -167.3L651.3 455L652.7 30.3L654 504.8L655.3 339.6L656.7 483.6L658 497.1L659.3 510.4L660.7 270.1L662 490.2L663.3 121.6L664.7 516.2L666 209.3L667.3 484.7L668.7 44.1L670 534.5L671.3 290L672.7 518.6L674 510.4L675.3 562.1L676.7 436.1L678 597.4L679.3 233.5L680.7 571.9L682 265.6L683.3 566.1L684.7 297.9L686 571.1L687.3 343.6L688.7 586.3L690 192.4L691.3 635.9L692.7 424.7L694 605.6L695.3 294.5L696.7 635.3L698 619.9L699.3 667.4L700.7 641.2L702 681.7L703.3 649.4L704.7 644.3L706 445.1L707.3 607.7L708.7 454.2L710 652.8L711.3 439.6L712.7 371.7L714 652.3L715.3 658.1L716.7 614.6L718 651.8L719.3 624.4L720.7 655.2L722 502.7L723.3 651.5L724.7 492.9L726 665L727.3 518.6L728.7 665.8L730 523.9L731.3 665.8L732.7 441.7L734 634.5L735.3 492.1L736.7 624.2L738 512L739.3 647L740.7 634.5L742 674.8L743.3 681.5L744.7 715.2L746 631.3L747.3 647.8L748.7 524.2L750 690.2L751.3 573.8L752.7 664.5L754 474.3L755.3 645.9L756.7 673.8L758 685.5L759.3 622.6L760.7 501.4L762 613L763.3 660.3L764.7 563.2L766 673L767.3 564.8L768.7 672.5L770 545.7L771.3 695.5L772.7 505.6L774 642.7L775.3 555.7L776.7 697.9L778 605.9L779.3 666.6L780.7 589.2L782 688.6L783.3 641.7L784.7 680.1L786 530.8L787.3 651.5L788.7 617.5L790 669.8L791.3 599.8L792.7 695.5L794 631.6L795.3 693.4L796.7 558.7L798 351L799.3 634.8L800.7 693.1L802 630.3L803.3 659.7L804.7 618.9L806 685.7L807.3 612.5L808.7 699.5L810 597.1L811.3 630.8L812.7 578.8L814 696.9L815.3 553.6L816.7 728.4L818 610.1L819.3 679.4L820.7 618.6L822 708L823.3 605.9L824.7 688.1L826 634.8L827.3 716.5L828.7 659.7L830 702.2L831.3 618.6L832.7 680.1L834 638L835.3 704.5L836.7 615.7L838 646.5L839.3 577.8L840.7 664.2L842 604.6L843.3 712.8L844.7 679.1L846 726L847.3 672.7L848.7 716.5L850 547.3L851.3 713.3L852.7 465.6L854 847.2L855.3 842.2L856.7 781.5L858 784.1L859.3 797.4L860.7 784.6L862 792.1L863.3 790.5L864.7 764.2L866 803.7L867.3 753.1L868.7 765.6L870 827.9L871.3 834.2L872.7 794.5L874 831.9L875.3 815.2L876.7 794.2L878 699L879.3 762.1L880.7 844.3L882 807.7L883.3 824.7L884.7 794.5L886 774.8L887.3 799.8L888.7 780.9L890 858.9L891.3 810.1L892.7 803.2L894 778.8L895.3 795.3L896.7 835.6L898 783.9L899.3 778.5L900.7 840.6L902 781.7L903.3 816.7L904.7 832.9L906 803.5L907.3 763.2L908.7 760.2L910 838.8L911.3 777.2L912.7 818.9L914 820.2L915.3 795.5L916.7 830.5L918 815.2L919.3 807.7L920.7 801.9L922 777L923.3 813.3L924.7 821.5L926 811.7L927.3 762.1L928.7 766.6L930 -265.4L931.3 290L932.7 -1009.2L934 -219.8L935.3 2.5L936.7 20.2L938 -276L939.3 -627.7L940.7 -1585.3L942 -525.6L943.3 -898.8L944.7 78.3L946 -1450L947.3 330.6L948.7 -50.1L950 382.3L951.3 401.9L952.7 420.7L954 231.9L955.3 385.2L956.7 -163L958 457.3L959.3 -23.8L960.7 470.3L962 21L963.3 508.3L964.7 -300.2L966 457.3L967.3 -8.9L968.7 468.8L970 -44.2L971.3 480.7L972.7 -53.5L974 402.4L975.3 162.1L976.7 456.3L978 491.3L979.3 506.7L980.7 407.2L982 504.3L983.3 93.2L984.7 339L986 -130.7L987.3 503.5L988.7 -19.8L990 539.6L991.3 389.4L992.7 541.4L994 527.1L995.3 408L996.7 451.8L998 531.1L999.3 155L1000.7 539L1002 242L1003.3 553.9L1004.7 276.5L1006 557.1L1007.3 99.8L1008.7 546.5L1010 153.6L1011.3 644.6L1012.7 387.9L1014 628.4L1015.3 355.5L1016.7 628.4L1018 548.1L1019.3 622.1L1020.7 621.5L1022 665L1023.3 625.5L1024.7 654.2L1026 389.7L1027.3 600.8L1028.7 458.4L1030 621L1031.3 335.1L1032.7 639.8L1034 618.9L1035.3 613.8L1036.7 599.5L1038 678L1039.3 619.7L1040.7 700.8L1042 464L1043.3 622.1L1044.7 496.6L1046 667.1L1047.3 504.8L1048.7 660L1050 526.6L1051.3 682.3L1052.7 509.9L1054 633.2L1055.3 386.8L1056.7 649.4L1058 462.9L1059.3 652.6L1060.7 634.3L1062 653.9L1063.3 617.8L1064.7 649.1L1066 556.8L1067.3 613.3L1068.7 492.9L1070 654.2L1071.3 329.5L1072.7 657.1L1074 504.6L1075.3 332.7L1076.7 607.5L1078 700L1079.3 575.1L1080.7 675.6L1082 622.9L1083.3 652.6L1084.7 540.6L1086 634.8L1087.3 539.3L1088.7 644.6L1090 522.6L1091.3 669.8L1092.7 477.2L1094 653.6L1095.3 543.8L1096.7 655.5L1098 569.8L1099.3 683.3L1100.7 558.7L1102 671.4L1103.3 618.6L1104.7 655.5L1106 580.7L1107.3 507.5L1108.7 626L1110 710.1L1111.3 545.9L1112.7 697.9L1114 587.3L1115.3 700.3L1116.7 570.1L1118 649.4L1119.3 561.3L1120.7 693.7L1122 674L1123.3 680.1L1124.7 651.8L1126 674.6L1127.3 540.6L1128.7 651.8L1130 530L1131.3 695.3L1132.7 606.4L1134 696.9L1135.3 546.5L1136.7 681.2L1138 546.2L1139.3 685.5L1140.7 620.2L1142 711.7L1143.3 553.1L1144.7 662.4L1146 607.5L1147.3 717.8L1148.7 614.6L1150 718.6L1151.3 614.9L1152.7 692.3L1154 587L1155.3 385.2L1156.7 542L1158 694.7L1159.3 605.9L1160.7 645.7L1162 593.7L1163.3 697.4L1164.7 627.4L1166 713.3L1167.3 643.5L1168.7 685.5L1170 591.3L1171.3 692.3L1172.7 565L1174 812.2L1175.3 777.5L1176.7 857.9L1178 847.2L1179.3 778L1180.7 813.6L1182 823.4L1183.3 721L1184.7 864.8L1186 829.2L1187.3 875.9L1188.7 878.5L1190 827.1L1191.3 790.2L1192.7 848.6L1194 867.7L1195.3 743.5L1196.7 677.8L1198 829.7L1199.3 761.8L1200.7 818.6L1202 854.7L1203.3 782.3L1204.7 869.8L1206 790.5L1207.3 854.9L1208.7 861.3L1210 846.7L1211.3 797.6L1212.7 828.4L1214 784.9L1215.3 797.4L1216.7 760L1218 814.1L1219.3 838.8L1220.7 780.9L1222 827.1L1223.3 810.1L1224.7 832.4L1226 843L1227.3 789.2L1228.7 819.7L1230 792.1L1231.3 793.4L1232.7 734.3L1234 804.3L1235.3 831.1L1236.7 863.2L1238 780.9L1239.3 853.6L1240.7 792.6L1242 839.8L1243.3 835.8L1244.7 789.7L1246 827.6L1247.3 775.4L1248.7 801.9L1250 -254.8L1251.3 380.2L1252.7 -982.6L1254 -225.4L1255.3 -16.4L1256.7 20L1258 -301.8L1259.3 -875.5L1260.7 -1597.5L1262 -356.1L1263.3 -1220.8L1264.7 5.9L1266 -926.7L1267.3 224.2L1268.7 -167L1270 199.5L1271.3 363.2L1272.7 410.4L1274 244.9L1275.3 436.7L1276.7 -175.8L1278 477.8L1279.3 13.1L1280.7 345.7L1282 -35.5L1283.3 477.5L1284.7 75.1L1286 489.4L1287.3 89.2L1288.7 484.7L1290 -89.3L1291.3 392.6L1292.7 -97.3L1294 500.6L1295.3 286.8L1296.7 495L1298 470.3L1299.3 495.5L1300.7 257.4L1302 491.8L1303.3 108L1304.7 487.8L1306 145.7L1307.3 494.2L1308.7 67.2L1310 574.6L1311.3 323.1L1312.7 521.8L1314 476.7L1315.3 517.6L1316.7 440.1L1318 426.6L1319.3 197.9L1320.7 546.5L1322 116.2L1323.3 540.9L1324.7 127.4L1326 551.5L1327.3 298.5L1328.7 527.9L1330 141.7L1331.3 590.2L1332.7 302.4L1334 653.1L1335.3 378L1336.7 646.5L1338 575.1L1339.3 626L1340.7 614.9L1342 657.6L1343.3 591.6L1344.7 665.3L1346 381L1347.3 644.9L1348.7 447.8L1350 675.6L1351.3 370.6L1352.7 622.6L1354 567.4L1355.3 652.6L1356.7 583.3L1358 621.5L1359.3 626.3L1360.7 694.5L1362 526.3L1363.3 603.8L1364.7 444.9L1366 656.3L1367.3 504.8L1368.7 647L1370 310.4L1371.3 645.1L1372.7 535.6L1374 667.7L1375.3 529L1376.7 626.8L1378 452.8L1379.3 612.5L1380.7 634.3L1382 611.4L1383.3 622.1L1384.7 690.5L1386 584.9L1387.3 658.7L1388.7 531.1L1390 674.8L1391.3 510.7L1392.7 674.3L1394 462.1L1395.3 644.3L1396.7 609.3L1398 678L1399.3 636.1L1400.7 641.7L1402 634.3L1403.3 651.8L1404.7 525.2L1406 677.2L1407.3 478.3L1408.7 653.9L1410 526L1411.3 682.3L1412.7 566.6L1414 684.4L1415.3 572.5L1416.7 692.9L1418 552L1419.3 652L1420.7 461.9L1422 686.8L1423.3 611.7L1424.7 692.9L1426 625.8L1427.3 669.5L1428.7 619.1L1430 706.7L1431.3 554.4L1432.7 661.6L1434 548.1L1435.3 669L1436.7 552L1438 664.8L1439.3 615.4L1440.7 705.1L1442 649.1L1443.3 680.1L1444.7 626L1446 596.1L1447.3 464L1448.7 669.8L1450 573L1451.3 693.4L1452.7 608L1454 677.8L1455.3 578.8L1456.7 690L1458 545.4L1459.3 665.6L1460.7 601.9L1462 671.9L1463.3 577.8L1464.7 689.2L1466 651.8L1467.3 644.3L1468.7 620.7L1470 661.6L1471.3 508.5L1472.7 691.8L1474 628.4L1475.3 696.9L1476.7 616.8L1478 674L1479.3 582.8L1480.7 696.9L1482 625L1483.3 643.8L1484.7 634L1486 730.8L1487.3 646.7L1488.7 712.2L1490 610.4L1491.3 704.8L1492.7 556.5L1494 829.2L1495.3 808.3L1496.7 840.9L1498 801.6L1499.3 789.2L1500.7 864L1502 823.9L1503.3 751.8L1504.7 791.3L1506 754.1L1507.3 816.5L1508.7 810.9L1510 869.3L1511.3 854.7L1512.7 811.4L1514 787.6L1515.3 847L1516.7 854.4L1518 791.5L1519.3 760.2L1520.7 854.7L1522 855.7L1523.3 856.3L1524.7 828.4L1526 834.8L1527.3 811.7L1528.7 720.7L1530 826L1531.3 826.6L1532.7 853.9L1534 801.6L1535.3 857.6L1536.7 831.9L1538 832.9L1539.3 783.6L1540.7 787.8L1542 727.4L1543.3 822.3L1544.7 800.3L1546 725.2L1547.3 803.2L1548.7 857.3L1550 793.7L1551.3 801.4L1552.7 810.4L1554 806.7L1555.3 795L1556.7 839.3L1558 764.2L1559.3 804.8L1560.7 820.7L1562 805.3L1563.3 830.5L1564.7 758.1L1566 809.1L1567.3 832.7L1568.7 796.9L1570 -366.2L1571.3 327.4L1572.7 -918.7L1574 -402.8L1575.3 -32.5L1576.7 161.9L1578 -476L1579.3 -587.7L1580.7 -1510.5L1582 -140.8L1583.3 -801.2L1584.7 153.9L1586 -1034.9L1587.3 347.3L1588.7 29L1590 433.7L1591.3 477.2L1592.7 458.7L1594 336.4L1595.3 341.2L1596.7 -82.4L1598 502.7L1599.3 23.7L1600.7 486L1602 31.1L1603.3 501.4L1604.7 -33.6L1606 355.8L1607.3 -117.2L1608.7 450.7L1610 70.1L1611.3 405.1L1612.7 0.3L1614 487.8L1615.3 251.5L1616.7 396.1L1618 462.7L1619.3 525L1620.7 370.6L1622 527.6L1623.3 128.2L1624.7 336.7L1626 -194.6L1627.3 457.3L1628.7 79.4L1630 562.6L1631.3 432.7L1632.7 506.1L1634 514.1L1635.3 518.4L1636.7 461.9L1638 537.2L1639.3 269.6L1640.7 563.7L1642 313.1L1643.3 555.2L1644.7 341.4L1646 544.9L1647.3 343.6L1648.7 331.1L1650 174.3L1651.3 662.6L1652.7 465L1654 635.3L1655.3 455L1656.7 646.5L1658 635.1L1659.3 630.5L1660.7 617.3L1662 580.4L1663.3 583.1L1664.7 670.3L1666 457.1L1667.3 597.7L1668.7 416.5L1670 654.4L1671.3 439L1672.7 679.1L1674 601.9L1675.3 536.9L1676.7 619.4L1678 673.5L1679.3 639.3L1680.7 657.1L1682 499.8L1683.3 623.9L1684.7 525.2L1686 671.1L1687.3 532.1L1688.7 634.5L1690 525.2L1691.3 602.7L1692.7 529L1694 652.8L1695.3 544.9L1696.7 680.4L1698 493.7L1699.3 651.8L1700.7 632.1L1702 674.6L1703.3 625L1704.7 678L1706 634L1707.3 651.8L1708.7 570.9L1710 673.8L1711.3 567.7L1712.7 638.2L1714 209.6L1715.3 638.2L1716.7 629.8L1718 657.1L1719.3 619.4L1720.7 689.7L1722 646.7L1723.3 678.8L1724.7 539L1726 669L1727.3 493.9L1728.7 658.7L1730 581.2L1731.3 668.2L1732.7 579.6L1734 699.5L1735.3 566.4L1736.7 648.6L1738 538.8L1739.3 662.9L1740.7 487.3L1742 659.7L1743.3 622.1L1744.7 690.5L1746 618.1L1747.3 666.1L1748.7 649.4L1750 681.2L1751.3 567.4L1752.7 641.2L1754 566.4L1755.3 680.7L1756.7 534L1758 666.1L1759.3 635.3L1760.7 713L1762 647.3L1763.3 662.9L1764.7 645.1L1766 651.8L1767.3 499L1768.7 687.8L1770 607.5L1771.3 665.3L1772.7 534.8L1774 711.4L1775.3 594.2L1776.7 662.1L1778 594.2L1779.3 578L1780.7 469L1782 702.2L1783.3 626.8L1784.7 719.4L1786 665.6L1787.3 704L1788.7 617L1790 499L1791.3 628.2L1792.7 698.4L1794 612.2L1795.3 690L1796.7 612.5L1798 678.8L1799.3 643" fill="transparent" stroke="#3fb1e3" stroke-width="3" stroke-linejoin="bevel" class="zr18-cls-56"></path>
</g>
<g clip-path="url(#zr18-c1)">
<path d="M200.7 254.4L202 395.5L203.3 635.1L204.7 600.6L206 739.3L207.3 708L208.7 729.5L210 669.3L211.3 722.8L212.7 397.1L214 830.8L215.3 850.4L216.7 858.4L218 887L219.3 880.7L220.7 831.3L222 857.6L223.3 855.5L224.7 841.1L226 759.2L227.3 879.6L228.7 826.6L230 843.5L231.3 844.9L232.7 865.5L234 846.7L235.3 870.3L236.7 810.6L238 806.7L239.3 834.5L240.7 797.4L242 816.2L243.3 864L244.7 833.7L246 875.9L247.3 770.1L248.7 863.7L250 841.7L251.3 838.5L252.7 823.1L254 828.4L255.3 783.9L256.7 866.9L258 888.9L259.3 784.1L260.7 846.5L262 869L263.3 292.1L264.7 778L266 816.5L267.3 743.5L268.7 893.4L270 869.5L271.3 860.2L272.7 803L274 829.5L275.3 861.8L276.7 851L278 836.9L279.3 831.1L280.7 834.8L282 866.1L283.3 815.7L284.7 862.4L286 853.1L287.3 852L288.7 823.9L290 -286.4L291.3 450.7L292.7 -833L294 -340.2L295.3 43L296.7 240.6L298 -296.7L299.3 -533.8L300.7 -3522.8L302 -1258.7L303.3 -1729.5L304.7 -308.7L306 -2068.5L307.3 -113.2L308.7 -719.2L310 34.6L311.3 177.3L312.7 177.8L314 -175.8L315.3 368.8L316.7 -415L318 393.2L319.3 -312.4L320.7 384.7L322 -499.1L323.3 379.1L324.7 -301.5L326 304.8L327.3 -1336.7L328.7 -1796.9L330 -2591L331.3 -802L332.7 -1666.9L334 105.9L335.3 -400.2L336.7 306.4L338 52.6L339.3 376.7L340.7 238L342 460.3L343.3 -77.6L344.7 465.3L346 -146.1L347.3 90L348.7 -591.7L350 395.8L351.3 217.6L352.7 362.4L354 401.4L355.3 382.3L356.7 316.5L358 476.2L359.3 -170.5L360.7 477.5L362 116L363.3 522.1L364.7 122.4L366 539L367.3 -113.2L368.7 411.2L370 -25.7L371.3 627.4L372.7 284.7L374 608.5L375.3 261.3L376.7 635.1L378 582.8L379.3 604.3L380.7 566.1L382 637.7L383.3 607.7L384.7 654.9L386 365.8L387.3 639.8L388.7 241.7L390 550.2L391.3 62.4L392.7 587L394 540.1L395.3 608.5L396.7 556.8L398 651.8L399.3 597.7L400.7 547.8L402 70.9L403.3 608.5L404.7 236.4L406 624.2L407.3 295L408.7 672.5L410 440.4L411.3 680.9L412.7 329.5L414 605.6L415.3 84.7L416.7 689.7L418 361.3L419.3 668.5L420.7 644.1L422 694.5L423.3 626.3L424.7 573.8L426 627.4L427.3 722.3L428.7 484.7L430 671.4L431.3 507.5L432.7 706.4L434 448.1L435.3 658.1L436.7 641.2L438 611.4L439.3 413.8L440.7 676.7L442 153.1L443.3 609.3L444.7 502.7L446 625.2L447.3 378.8L448.7 595L450 159.7L451.3 583.3L452.7 490L454 686.2L455.3 400.9L456.7 687.6L458 404.8L459.3 603.8L460.7 440.9L462 624.7L463.3 477.8L464.7 630L466 448.9L467.3 561.6L468.7 99L470 639.8L471.3 327.1L472.7 686.2L474 366.9L475.3 632.1L476.7 445.1L478 700L479.3 614.1L480.7 688.1L482 581.5L483.3 684.4L484.7 622.1L486 681.2L487.3 529.2L488.7 710.1L490 551.8L491.3 650.7L492.7 569L494 707.5L495.3 584.1L496.7 714.4L498 594.5L499.3 701.6L500.7 614.1L502 720.2L503.3 651.8L504.7 692.9L506 656.8L507.3 730.3L508.7 651.5L510 701.1L511.3 663.4L512.7 713.8L514 675.4L515.3 720.2L516.7 617.3L518 738L519.3 632.1L520.7 697.1L522 663.2L523.3 761.3L524.7 689.4L526 740.9L527.3 649.1L528.7 717.8L530 686.8L531.3 739.3L532.7 588.1L534 644.6L535.3 857.3L536.7 884.4L538 742.7L539.3 887.8L540.7 858.7L542 856.8L543.3 875.4L544.7 814.9L546 829.5L547.3 879.6L548.7 890.5L550 834.8L551.3 863.2L552.7 892.9L554 865.5L555.3 823.6L556.7 786.5L558 845.9L559.3 855.2L560.7 857.6L562 847.2L563.3 841.9L564.7 864.2L566 838.2L567.3 862.9L568.7 802.2L570 801.1L571.3 832.1L572.7 807.5L574 874.8L575.3 771.1L576.7 863.2L578 849.6L579.3 887.3L580.7 859.7L582 831.9L583.3 848.6L584.7 784.6L586 848.8L587.3 852.3L588.7 873.2L590 881.2L591.3 837.7L592.7 893.1L594 809.3L595.3 822L596.7 851.8L598 878.8L599.3 893.4L600.7 869.3L602 803L603.3 823.9L604.7 862.1L606 851.8L607.3 826.6L608.7 803.2L610 -249.5L611.3 350.5L612.7 -815L614 -191.4L615.3 173.5L616.7 168L618 -167.3L619.3 -551.4L620.7 -1522.1L622 -172.9L623.3 -851.6L624.7 -96.7L626 -835.7L627.3 397.4L628.7 34.8L630 435.1L631.3 432.1L632.7 490.8L634 200.9L635.3 354.4L636.7 -102.3L638 490.8L639.3 13.3L640.7 460.8L642 104.8L643.3 463.7L644.7 82.6L646 389.4L647.3 36.7L648.7 514.9L650 151.8L651.3 526.8L652.7 97.7L654 523.9L655.3 257.1L656.7 370.3L658 456.8L659.3 490L660.7 448.9L662 523.1L663.3 146L664.7 503.8L666 277L667.3 506.7L668.7 -37.3L670 534L671.3 441.4L672.7 530.3L674 503.5L675.3 551.5L676.7 473.3L678 582.8L679.3 272.2L680.7 497.7L682 297.1L683.3 548.9L684.7 357.6L686 602.2L687.3 363.2L688.7 587.6L690 258.2L691.3 680.4L692.7 395.3L694 651.2L695.3 439.6L696.7 647.5L698 638.2L699.3 667.4L700.7 657.9L702 664.5L703.3 626.8L704.7 671.7L706 396.9L707.3 638.8L708.7 473L710 683.6L711.3 451.5L712.7 689.2L714 653.1L715.3 638.2L716.7 631.9L718 692.9L719.3 591.6L720.7 672.2L722 501.4L723.3 674.6L724.7 556L726 666.9L727.3 526.3L728.7 693.4L730 529.2L731.3 676.4L732.7 450.2L734 647.8L735.3 558.9L736.7 684.4L738 540.6L739.3 684.4L740.7 669.5L742 718.1L743.3 678.3L744.7 730.8L746 265.3L747.3 668.5L748.7 544.9L750 651L751.3 533.2L752.7 703.8L754 506.9L755.3 683.1L756.7 666.1L758 701.9L759.3 659.7L760.7 566.1L762 643L763.3 622.9L764.7 562.9L766 718.1L767.3 603.2L768.7 716.2L770 571.9L771.3 704.8L772.7 610.7L774 615.2L775.3 547.8L776.7 684.1L778 610.4L779.3 683.6L780.7 582.3L782 705.9L783.3 637.4L784.7 712L786 634.8L787.3 689.2L788.7 595.5L790 690.2L791.3 603.2L792.7 706.4L794 584.4L795.3 714.4L796.7 607.7L798 711.7L799.3 655.2L800.7 704.8L802 616L803.3 627.1L804.7 660.8L806 692.1L807.3 634.3L808.7 706.4L810 601.9L811.3 691.8L812.7 603.2L814 732.4L815.3 577.5L816.7 675.9L818 616.5L819.3 707.7L820.7 634.3L822 748.3L823.3 634.5L824.7 727.4L826 672.7L827.3 669.8L828.7 662.4L830 681.2L831.3 608.8L832.7 731.1L834 668.7L835.3 716L836.7 655.5L838 709.6L839.3 625L840.7 701.4L842 667.7L843.3 433.2L844.7 656.3L846 735.8L847.3 683.9L848.7 761.8L850 645.1L851.3 657.1L852.7 594.5L854 867.1L855.3 860.8L856.7 837.7L858 825L859.3 861.6L860.7 848.3L862 843.3L863.3 847L864.7 847L866 834L867.3 881.7L868.7 809.3L870 833.5L871.3 860.8L872.7 866.3L874 864.8L875.3 823.9L876.7 869L878 853.3L879.3 843.8L880.7 864.5L882 807.2L883.3 851.8L884.7 797.4L886 857.9L887.3 840.3L888.7 848.3L890 874.3L891.3 822.6L892.7 840.1L894 845.1L895.3 862.4L896.7 854.9L898 819.9L899.3 850.2L900.7 791.3L902 887.8L903.3 847.8L904.7 862.1L906 858.4L907.3 844.6L908.7 832.9L910 817.5L911.3 849.9L912.7 857.9L914 827.1L915.3 852L916.7 881.5L918 818.3L919.3 850.4L920.7 821.8L922 861.6L923.3 888.4L924.7 828.4L926 844.6L927.3 821.5L928.7 808.8L930 -256.4L931.3 406.7L932.7 -779.5L934 -274.4L935.3 139.9L936.7 251.8L938 -232.8L939.3 -533.1L940.7 -1455.8L942 -179.5L943.3 -801.5L944.7 136.9L946 -1139.7L947.3 299L948.7 -54.6L950 381L951.3 459.5L952.7 474.9L954 300.3L955.3 318.9L956.7 -164.9L958 419.4L959.3 -11.9L960.7 474.1L962 120.2L963.3 509.3L964.7 113.3L966 436.4L967.3 -349L968.7 465L970 59.2L971.3 489.7L972.7 49.7L974 518.1L975.3 329L976.7 482L978 345.4L979.3 527.4L980.7 391.6L982 506.7L983.3 134.6L984.7 535.3L986 209.1L987.3 556.8L988.7 -16.9L990 479.1L991.3 419.2L992.7 563.2L994 543.3L995.3 573.3L996.7 479.1L998 593.9L999.3 249.7L1000.7 383.9L1002 249.9L1003.3 537.7L1004.7 324.7L1006 570.3L1007.3 397.4L1008.7 617.3L1010 251.8L1011.3 662.9L1012.7 496.9L1014 606.9L1015.3 408.5L1016.7 661L1018 631.1L1019.3 661.8L1020.7 642.7L1022 644.6L1023.3 608.8L1024.7 666.1L1026 453.6L1027.3 613.3L1028.7 449.1L1030 656.8L1031.3 393.7L1032.7 647.8L1034 572.2L1035.3 656.8L1036.7 653.6L1038 659.7L1039.3 598.2L1040.7 604.8L1042 378L1043.3 660.3L1044.7 482.5L1046 677.8L1047.3 505.9L1048.7 686.2L1050 549.9L1051.3 670.6L1052.7 529.8L1054 607.2L1055.3 496.9L1056.7 666.1L1058 424.7L1059.3 672.5L1060.7 622.6L1062 669.8L1063.3 653.9L1064.7 673.8L1066 628.4L1067.3 575.9L1068.7 438.5L1070 588.9L1071.3 560.3L1072.7 688.1L1074 481.7L1075.3 688.9L1076.7 586.8L1078 702.4L1079.3 600.3L1080.7 643L1082 604.6L1083.3 672.7L1084.7 537.7L1086 640.9L1087.3 573L1088.7 679.4L1090 538.8L1091.3 666.4L1092.7 544.6L1094 627.4L1095.3 525.5L1096.7 677.8L1098 520.5L1099.3 686.2L1100.7 496.9L1102 683.6L1103.3 633.2L1104.7 699.2L1106 630.5L1107.3 637.7L1108.7 627.1L1110 703L1111.3 507.2L1112.7 676.4L1114 471.4L1115.3 689.4L1116.7 512.5L1118 252.3L1119.3 543.8L1120.7 651L1122 446.2L1123.3 654.4L1124.7 592.1L1126 678L1127.3 499.3L1128.7 700L1130 422.3L1131.3 682.3L1132.7 562.1L1134 696.9L1135.3 472.7L1136.7 700L1138 580.9L1139.3 698.2L1140.7 626L1142 671.9L1143.3 532.9L1144.7 680.9L1146 604L1147.3 697.7L1148.7 614.1L1150 734.8L1151.3 638L1152.7 710.6L1154 459.7L1155.3 670.6L1156.7 599L1158 713L1159.3 605.9L1160.7 708.5L1162 622.1L1163.3 694.7L1164.7 646.2L1166 662.6L1167.3 582L1168.7 680.9L1170 644.1L1171.3 743.8L1172.7 565L1174 849.6L1175.3 828.9L1176.7 870.1L1178 854.1L1179.3 834L1180.7 822.6L1182 833.2L1183.3 831.9L1184.7 822L1186 859.7L1187.3 856.3L1188.7 784.6L1190 813.6L1191.3 827.6L1192.7 721L1194 804L1195.3 826L1196.7 786.5L1198 550.2L1199.3 847.5L1200.7 883.6L1202 818.6L1203.3 828.1L1204.7 810.6L1206 852.6L1207.3 836.9L1208.7 833.7L1210 768.5L1211.3 847.8L1212.7 832.7L1214 834.8L1215.3 739.8L1216.7 752.8L1218 870.6L1219.3 809.1L1220.7 835.8L1222 840.1L1223.3 877L1224.7 841.9L1226 862.4L1227.3 823.1L1228.7 872.7L1230 866.6L1231.3 886.2L1232.7 777L1234 829.2L1235.3 886.2L1236.7 590.5L1238 857.9L1239.3 788.1L1240.7 826L1242 823.1L1243.3 834.8L1244.7 873L1246 816.2L1247.3 835.6L1248.7 823.1L1250 -402.6L1251.3 308.3L1252.7 -1050.5L1254 -342.9L1255.3 -123.8L1256.7 -89L1258 -237.6L1259.3 -640.2L1260.7 -1861.6L1262 -649.8L1263.3 -1108.9L1264.7 -270.5L1266 -1214.4L1267.3 233L1268.7 -77.6L1270 344.4L1271.3 397.9L1272.7 423.7L1274 174.1L1275.3 309.3L1276.7 -398.3L1278 449.9L1279.3 -138.6L1280.7 466.6L1282 -47.1L1283.3 474.3L1284.7 -427L1286 313.1L1287.3 -237.3L1288.7 458.4L1290 -36.5L1291.3 459.7L1292.7 34.8L1294 408.3L1295.3 195L1296.7 415.7L1298 466.4L1299.3 507.2L1300.7 372.7L1302 548.9L1303.3 130L1304.7 -5.2L1306 -317.9L1307.3 427.1L1308.7 -36.3L1310 536.1L1311.3 391.8L1312.7 546.2L1314 548.1L1315.3 536.1L1316.7 359.7L1318 459.5L1319.3 77L1320.7 511.5L1322 281.8L1323.3 571.1L1324.7 310.7L1326 541.7L1327.3 348.9L1328.7 445.1L1330 95L1331.3 627.1L1332.7 457.6L1334 688.9L1335.3 413.6L1336.7 602.2L1338 627.1L1339.3 619.7L1340.7 626.6L1342 607.7L1343.3 622.6L1344.7 647.8L1346 405.9L1347.3 584.7L1348.7 394.5L1350 652.6L1351.3 401.9L1352.7 670.3L1354 550.7L1355.3 647.5L1356.7 597.1L1358 688.1L1359.3 648.1L1360.7 642.7L1362 378.3L1363.3 606.4L1364.7 459.5L1366 371.7L1367.3 398.7L1368.7 679.4L1370 394L1371.3 633.5L1372.7 452L1374 669L1375.3 511.7L1376.7 658.1L1378 441.7L1379.3 586.5L1380.7 577.2L1382 697.1L1383.3 628.2L1384.7 669.3L1386 589.7L1387.3 688.4L1388.7 369L1390 641.2L1391.3 497.7L1392.7 653.1L1394 328.4L1395.3 659.7L1396.7 631.9L1398 668.2L1399.3 618.9L1400.7 688.4L1402 662.6L1403.3 688.1L1404.7 521.5L1406 665.6L1407.3 419.4L1408.7 680.7L1410 523.7L1411.3 693.4L1412.7 520.7L1414 714.1L1415.3 581.2L1416.7 671.7L1418 599.5L1419.3 669.8L1420.7 550.4L1422 710.1L1423.3 567.4L1424.7 689.2L1426 660.8L1427.3 671.9L1428.7 617.3L1430 740.1L1431.3 561.8L1432.7 674.8L1434 555.5L1435.3 714.9L1436.7 475.4L1438 706.4L1439.3 663.4L1440.7 700.8L1442 666.9L1443.3 698.2L1444.7 690.2L1446 643.8L1447.3 517.8L1448.7 717L1450 575.4L1451.3 725.5L1452.7 623.4L1454 717.8L1455.3 628.2L1456.7 722.1L1458 626L1459.3 526L1460.7 591L1462 701.6L1463.3 619.9L1464.7 686L1466 682.5L1467.3 719.4L1468.7 668.7L1470 709.1L1471.3 667.1L1472.7 723.4L1474 565.3L1475.3 712.2L1476.7 647.3L1478 725.5L1479.3 657.6L1480.7 727.1L1482 677L1483.3 725L1484.7 682.8L1486 753.9L1487.3 582.3L1488.7 698.4L1490 650.7L1491.3 729.2L1492.7 577.5L1494 808.3L1495.3 832.7L1496.7 851L1498 800L1499.3 851.2L1500.7 806.9L1502 876.2L1503.3 878.3L1504.7 828.9L1506 805.9L1507.3 870.6L1508.7 812.5L1510 821.8L1511.3 811.2L1512.7 895.3L1514 742.7L1515.3 887.3L1516.7 800L1518 737.2L1519.3 856.8L1520.7 849.6L1522 872.7L1523.3 862.6L1524.7 818.9L1526 839L1527.3 796.6L1528.7 848.3L1530 818.1L1531.3 838L1532.7 879.3L1534 866.1L1535.3 879.3L1536.7 853.3L1538 846.2L1539.3 844.6L1540.7 850.4L1542 812L1543.3 839.3L1544.7 881.2L1546 818.1L1547.3 846.7L1548.7 861.8L1550 882.3L1551.3 888.6L1552.7 708.3L1554 863.2L1555.3 822.6L1556.7 802.7L1558 828.9L1559.3 854.4L1560.7 882.8L1562 873L1563.3 889.7L1564.7 803.5L1566 807.5L1567.3 835.6L1568.7 797.9L1570 -331.5L1571.3 388.4L1572.7 -872.3L1574 -561.2L1575.3 -5.5L1576.7 134.8L1578 -262.8L1579.3 -524L1580.7 -1498L1582 -182.1L1583.3 -869.6L1584.7 -44.2L1586 -803.1L1587.3 334.8L1588.7 24.2L1590 419.4L1591.3 444.6L1592.7 424.2L1594 80.2L1595.3 475.1L1596.7 -27.5L1598 486L1599.3 87.9L1600.7 484.7L1602 86.3L1603.3 514.4L1604.7 -130.7L1606 444.6L1607.3 -51.4L1608.7 506.1L1610 148.9L1611.3 503L1612.7 116L1614 537.7L1615.3 287.6L1616.7 393.4L1618 471.1L1619.3 514.4L1620.7 403.8L1622 526.3L1623.3 164L1624.7 548.9L1626 238.5L1627.3 327.6L1628.7 11.7L1630 537.4L1631.3 446.2L1632.7 545.9L1634 504L1635.3 553.4L1636.7 504.3L1638 589.2L1639.3 57.1L1640.7 568.7L1642 287.6L1643.3 583.6L1644.7 377L1646 582L1647.3 379.4L1648.7 602.4L1650 155.2L1651.3 596.1L1652.7 439.8L1654 649.9L1655.3 425.8L1656.7 672.7L1658 597.9L1659.3 665.6L1660.7 665.6L1662 679.6L1663.3 645.9L1664.7 600.3L1666 445.9L1667.3 626.6L1668.7 510.9L1670 662.9L1671.3 471.7L1672.7 662.6L1674 641.4L1675.3 614.6L1676.7 642L1678 588.6L1679.3 651.5L1680.7 704.5L1682 510.4L1683.3 673L1684.7 548.6L1686 684.9L1687.3 566.6L1688.7 670.9L1690 554.4L1691.3 560.3L1692.7 454.4L1694 682.5L1695.3 506.4L1696.7 684.1L1698 529L1699.3 688.4L1700.7 635.9L1702 708.5L1703.3 650.7L1704.7 719.9L1706 626.6L1707.3 705.1L1708.7 544.3L1710 693.7L1711.3 492.4L1712.7 692.1L1714 536.9L1715.3 645.7L1716.7 673L1718 730.8L1719.3 640.4L1720.7 673L1722 674.6L1723.3 704.8L1724.7 585.5L1726 701.1L1727.3 600L1728.7 673.5L1730 546.2L1731.3 697.4L1732.7 571.4L1734 689.7L1735.3 577.5L1736.7 678.3L1738 609.6L1739.3 709.6L1740.7 593.1L1742 710.6L1743.3 621.8L1744.7 683.9L1746 645.9L1747.3 628.2L1748.7 645.9L1750 733.2L1751.3 616.2L1752.7 715.4L1754 536.4L1755.3 691.3L1756.7 583.9L1758 672.2L1759.3 644.1L1760.7 736.1L1762 630.3L1763.3 691.6L1764.7 645.9L1766 697.4L1767.3 627.4L1768.7 715.2L1770 610.4L1771.3 718.9L1772.7 649.9L1774 691.3L1775.3 286.8L1776.7 700.6L1778 510.4L1779.3 710.1L1780.7 615.2L1782 711.4L1783.3 613.3L1784.7 735.3L1786 682.3L1787.3 740.4L1788.7 677L1790 686.2L1791.3 647.8L1792.7 673.2L1794 657.3L1795.3 724.2L1796.7 640.1L1798 725.5L1799.3 608.3" fill="transparent" stroke="#6be6c1" stroke-width="3" stroke-linejoin="bevel" class="zr18-cls-56"></path>
</g>
<g clip-path="url(#zr18-c2)">
<path d="M200.7 191L202 396.9L203.3 649.6L204.7 288.1L206 725L207.3 638.5L208.7 718.1L210 648.8L211.3 717.5L212.7 426.6L214 716L215.3 819.7L216.7 810.1L218 765.8L219.3 842.7L220.7 861.3L222 876.2L223.3 788.1L224.7 794.2L226 772.7L227.3 785.7L228.7 791.3L230 822L231.3 810.6L232.7 837.7L234 834.2L235.3 857.6L236.7 807.5L238 807.2L239.3 826.6L240.7 815.4L242 810.4L243.3 855.2L244.7 833.2L246 864.2L247.3 809.1L248.7 796.9L250 805.6L251.3 821.3L252.7 856.3L254 796.3L255.3 804.3L256.7 877.7L258 848L259.3 822.6L260.7 377.5L262 774.6L263.3 774L264.7 812.8L266 845.7L267.3 801.9L268.7 809.1L270 848.8L271.3 823.1L272.7 817.8L274 830.3L275.3 814.1L276.7 811.7L278 800L279.3 789.4L280.7 768.2L282 871.1L283.3 808.3L284.7 755.2L286 836.4L287.3 763.2L288.7 772.4L290 -806.2L291.3 218.1L292.7 -1117.4L294 -480.3L295.3 -88.5L296.7 50.2L298 -454L299.3 -716.3L300.7 -2352.3L302 -721.9L303.3 -1267.5L304.7 -34.4L306 -1842.3L307.3 144.9L308.7 -329.3L310 302.7L311.3 53.7L312.7 448.3L314 -90.1L315.3 421.8L316.7 -276L318 464.2L319.3 -50.6L320.7 470.3L322 -48.7L323.3 458.7L324.7 -438.6L326 413.6L327.3 -149.8L328.7 438.8L330 24.7L331.3 154.7L332.7 14.1L334 276.2L335.3 215.7L336.7 469.3L338 423.9L339.3 493.2L340.7 382.3L342 536.7L343.3 129L344.7 414.1L346 -171L347.3 493.2L348.7 -11.9L350 508.8L351.3 399.8L352.7 498.7L354 518.9L355.3 406.2L356.7 355L358 290.8L359.3 189.7L360.7 524.2L362 249.1L363.3 533.2L364.7 281.5L366 571.4L367.3 -286.1L368.7 543.3L370 65.3L371.3 597.9L372.7 424.5L374 631.1L375.3 415.4L376.7 667.4L378 476.2L379.3 622.3L380.7 596.6L382 638.2L383.3 607.5L384.7 650.2L386 400.6L387.3 651L388.7 436.9L390 531.9L391.3 270.9L392.7 666.4L394 619.1L395.3 660.5L396.7 584.7L398 670.6L399.3 437.5L400.7 684.1L402 485.5L403.3 575.6L404.7 436.1L406 649.1L407.3 490.5L408.7 677.5L410 508.5L411.3 669L412.7 478L414 668.5L415.3 265.8L416.7 623.7L418 432.1L419.3 652.6L420.7 629.2L422 686.8L423.3 653.1L424.7 660.8L426 614.1L427.3 573.3L428.7 448.3L430 673L431.3 495.8L432.7 685.2L434 464.8L435.3 642.2L436.7 652.8L438 665L439.3 627.9L440.7 577.2L442 606.7L443.3 636.1L444.7 482.5L446 688.4L447.3 573.3L448.7 693.9L450 554.4L451.3 662.6L452.7 337.7L454 631.9L455.3 510.9L456.7 658.4L458 552.6L459.3 677.8L460.7 522.9L462 649.9L463.3 651L464.7 691.3L466 464.2L467.3 652.8L468.7 541.2L470 717L471.3 569.8L472.7 684.9L474 559.5L475.3 682.8L476.7 566.9L478 735.3L479.3 486.5L480.7 697.9L482 627.9L483.3 638.5L484.7 634.3L486 706.1L487.3 564.5L488.7 675.4L490 600.8L491.3 661.6L492.7 478.8L494 683.3L495.3 562.4L496.7 689.2L498 584.9L499.3 597.7L500.7 577.2L502 708L503.3 643L504.7 648.3L506 607.5L507.3 691.6L508.7 606.7L510 697.9L511.3 617L512.7 677.2L514 614.9L515.3 720.5L516.7 463.2L518 683.9L519.3 593.1L520.7 711.2L522 625.5L523.3 706.7L524.7 622.3L526 730.8L527.3 675.9L528.7 683.3L530 542.5L531.3 688.9L532.7 565L534 814.9L535.3 792.1L536.7 809.3L538 784.6L539.3 768.7L540.7 787.6L542 863.7L543.3 828.1L544.7 812.5L546 825.2L547.3 805.3L548.7 801.1L550 800L551.3 852.8L552.7 803.7L554 773.8L555.3 889.9L556.7 814.4L558 856L559.3 394.5L560.7 784.6L562 779.6L563.3 799L564.7 773L566 812L567.3 791.8L568.7 840.3L570 570.9L571.3 809.8L572.7 780.1L574 855.5L575.3 822.8L576.7 864.2L578 848L579.3 805.1L580.7 806.9L582 808.5L583.3 821L584.7 830.5L586 801.6L587.3 793.7L588.7 807.5L590 807.7L591.3 811.4L592.7 832.1L594 395.3L595.3 717.3L596.7 837.2L598 862.1L599.3 809.1L600.7 809.6L602 776.2L603.3 753.4L604.7 800.8L606 756L607.3 818.6L608.7 818.1L610 -394.9L611.3 335.3L612.7 -1107.6L614 -376L615.3 -190.4L616.7 89.5L618 -928L619.3 -599.9L620.7 -1573.8L622 -329.6L623.3 -1361.7L624.7 -87.2L626 -1084.5L627.3 263.5L628.7 -316.6L630 280.2L631.3 222.3L632.7 417L634 116.8L635.3 423.9L636.7 -285.1L638 207.2L639.3 -365.2L640.7 408.5L642 -137.6L643.3 452.6L644.7 -48.2L646 464.2L647.3 39.1L648.7 -62L650 -154L651.3 366.9L652.7 -129.9L654 443L655.3 204.6L656.7 499.5L658 481.5L659.3 344.6L660.7 344.9L662 416L663.3 29L664.7 500L666 111.2L667.3 524.7L668.7 79.4L670 431.1L671.3 244.9L672.7 130L674 407.5L675.3 533.5L676.7 476.2L678 575.4L679.3 213.6L680.7 364.8L682 71.2L683.3 522.3L684.7 200.3L686 534.5L687.3 238L688.7 532.9L690 182.3L691.3 531.3L692.7 244.1L694 614.9L695.3 299.3L696.7 640.1L698 600.3L699.3 629L700.7 624.7L702 651.2L703.3 622.6L704.7 589.2L706 377.8L707.3 614.9L708.7 347.5L710 659.7L711.3 342L712.7 717.3L714 623.9L715.3 582.3L716.7 517.6L718 657.6L719.3 605.1L720.7 678.3L722 406.4L723.3 665.3L724.7 480.4L726 662.4L727.3 483.9L728.7 593.9L730 462.1L731.3 634.8L732.7 474.9L734 664L735.3 488.6L736.7 627.9L738 443L739.3 645.1L740.7 322.9L742 630.3L743.3 612.2L744.7 697.9L746 598.5L747.3 692.3L748.7 512.3L750 662.6L751.3 535.9L752.7 675.6L754 397.9L755.3 630.8L756.7 612.8L758 687.6L759.3 586.8L760.7 676.7L762 610.4L763.3 667.1L764.7 499L766 684.7L767.3 429.8L768.7 664.8L770 484.7L771.3 666.4L772.7 530.3L774 663.4L775.3 542.8L776.7 658.1L778 582.5L779.3 670.9L780.7 400.3L782 687.3L783.3 614.1L784.7 689.4L786 546.7L787.3 643.5L788.7 610.7L790 674.3L791.3 552L792.7 710.1L794 514.9L795.3 680.1L796.7 291.8L798 700L799.3 650.4L800.7 558.4L802 636.4L803.3 669.8L804.7 657.9L806 253.1L807.3 524.7L808.7 665.8L810 477.8L811.3 664.2L812.7 618.3L814 691.8L815.3 568.7L816.7 661.6L818 614.6L819.3 585.2L820.7 528.2L822 313.3L823.3 616.2L824.7 717.8L826 623.1L827.3 683.9L828.7 640.9L830 715.7L831.3 635.9L832.7 619.9L834 561.8L835.3 609.3L836.7 616L838 719.4L839.3 639.6L840.7 686.5L842 624.7L843.3 711.4L844.7 661L846 692.6L847.3 617.8L848.7 654.7L850 636.9L851.3 707.7L852.7 573L854 807.7L855.3 801.4L856.7 839L858 806.9L859.3 813.6L860.7 808.8L862 802.4L863.3 848.3L864.7 817.3L866 839L867.3 852L868.7 728.7L870 779.9L871.3 778L872.7 837.7L874 864.2L875.3 865.5L876.7 818.1L878 808.8L879.3 789.7L880.7 663.7L882 804.8L883.3 801.4L884.7 830L886 830.3L887.3 825.8L888.7 833.5L890 803.2L891.3 781.5L892.7 791.5L894 820.5L895.3 818.3L896.7 862.9L898 770.1L899.3 797.1L900.7 832.1L902 576.2L903.3 772.2L904.7 752.6L906 723.4L907.3 829.2L908.7 875.6L910 803.2L911.3 843L912.7 863.4L914 803.5L915.3 822.3L916.7 829.2L918 843L919.3 833.2L920.7 835.6L922 782.3L923.3 806.7L924.7 803.7L926 828.9L927.3 783.9L928.7 773.8L930 -425.4L931.3 150.7L932.7 -1021.4L934 -448.4L935.3 -137.3L936.7 -200.4L938 -420.9L939.3 -609.4L940.7 -1696.1L942 -230.7L943.3 -948.2L944.7 101.9L946 -811L947.3 347.3L948.7 -414L950 404L951.3 390.2L952.7 435.6L954 227.4L955.3 458.7L956.7 -47.4L958 -10.3L959.3 -137.8L960.7 340.9L962 3.3L963.3 476.4L964.7 75.4L966 458.9L967.3 100.9L968.7 374.1L970 -102L971.3 467.7L972.7 54.2L974 501.6L975.3 340.4L976.7 500.6L978 477.8L979.3 526.6L980.7 295.6L982 450.4L983.3 98.7L984.7 538.2L986 165.3L987.3 503.5L988.7 129.5L990 545.7L991.3 274.6L992.7 501.9L994 395.5L995.3 527.4L996.7 475.1L998 599L999.3 281.5L1000.7 513L1002 343.8L1003.3 498.2L1004.7 216.2L1006 563.4L1007.3 234.8L1008.7 566.4L1010 233L1011.3 654.7L1012.7 472.5L1014 672.5L1015.3 219.2L1016.7 647L1018 594.2L1019.3 614.1L1020.7 648.1L1022 661L1023.3 643.5L1024.7 638.8L1026 475.9L1027.3 651L1028.7 432.1L1030 626.6L1031.3 412L1032.7 675.9L1034 604.3L1035.3 656.5L1036.7 630L1038 667.1L1039.3 608L1040.7 554.2L1042 437.7L1043.3 629.8L1044.7 535.6L1046 659.2L1047.3 570.3L1048.7 629.2L1050 507.7L1051.3 618.6L1052.7 541.7L1054 598.7L1055.3 476.2L1056.7 626L1058 511.7L1059.3 680.7L1060.7 639.8L1062 689.4L1063.3 622.6L1064.7 653.4L1066 637.4L1067.3 590.8L1068.7 515.7L1070 654.7L1071.3 531.9L1072.7 665L1074 517.3L1075.3 654.9L1076.7 642.7L1078 672.5L1079.3 659.7L1080.7 603L1082 636.6L1083.3 585.5L1084.7 552.8L1086 675.6L1087.3 549.6L1088.7 671.4L1090 550.2L1091.3 708.5L1092.7 590.5L1094 582.8L1095.3 572.5L1096.7 661.8L1098 576.7L1099.3 686L1100.7 545.7L1102 683.3L1103.3 659.5L1104.7 674L1106 636.6L1107.3 644.6L1108.7 610.4L1110 699L1111.3 598.7L1112.7 693.7L1114 582L1115.3 696.9L1116.7 525L1118 694.2L1119.3 326.1L1120.7 673.2L1122 612.8L1123.3 673.5L1124.7 601.1L1126 699L1127.3 577.8L1128.7 688.6L1130 520.5L1131.3 686.5L1132.7 517.3L1134 669.3L1135.3 554.4L1136.7 705.3L1138 540.4L1139.3 665.3L1140.7 604.8L1142 678.8L1143.3 597.9L1144.7 708L1146 527.1L1147.3 682.5L1148.7 562.4L1150 709.1L1151.3 628.7L1152.7 696.6L1154 608.8L1155.3 674L1156.7 627.1L1158 674L1159.3 546.7L1160.7 672.2L1162 631.6L1163.3 674.3L1164.7 625.2L1166 717.3L1167.3 640.9L1168.7 739L1170 621L1171.3 713.3L1172.7 380.2L1174 582.8L1175.3 770.6L1176.7 828.1L1178 872.2L1179.3 795.3L1180.7 843.3L1182 831.6L1183.3 862.6L1184.7 809.1L1186 813.6L1187.3 804.5L1188.7 857.3L1190 851.5L1191.3 844.6L1192.7 864.8L1194 852L1195.3 797.1L1196.7 801.6L1198 831.9L1199.3 809.1L1200.7 811.2L1202 778L1203.3 798.4L1204.7 836.1L1206 823.1L1207.3 827.4L1208.7 812L1210 826.6L1211.3 811.2L1212.7 860.2L1214 836.9L1215.3 838.8L1216.7 830.8L1218 820.7L1219.3 831.9L1220.7 763.7L1222 829.7L1223.3 805.9L1224.7 815.9L1226 843.5L1227.3 815.7L1228.7 777.2L1230 773L1231.3 781.2L1232.7 813L1234 792.1L1235.3 758.1L1236.7 792.1L1238 815.7L1239.3 801.4L1240.7 778.8L1242 777.5L1243.3 753.6L1244.7 821.5L1246 831.6L1247.3 817.8L1248.7 815.4L1250 -434.1L1251.3 260.8L1252.7 -1433.5L1254 -374.2L1255.3 -117.4L1256.7 25.5L1258 -645.5L1259.3 -672.6L1260.7 -1883.4L1262 -345.5L1263.3 -1253.4L1264.7 -182.4L1266 -1097.7L1267.3 43L1268.7 -156.1L1270 321.8L1271.3 337.7L1272.7 429.5L1274 184.4L1275.3 321.8L1276.7 -144.5L1278 410.4L1279.3 -616.3L1280.7 409.9L1282 -105.8L1283.3 438.8L1284.7 -21.4L1286 454.4L1287.3 -29.1L1288.7 309.9L1290 -126.2L1291.3 478.3L1292.7 -9.7L1294 511.5L1295.3 336.7L1296.7 435.9L1298 462.4L1299.3 382.8L1300.7 190.5L1302 477.5L1303.3 7L1304.7 482.3L1306 146.2L1307.3 276.2L1308.7 58.2L1310 452.3L1311.3 348.1L1312.7 487.3L1314 480.4L1315.3 489.2L1316.7 462.7L1318 544.6L1319.3 161.1L1320.7 516.8L1322 14.4L1323.3 548.9L1324.7 191.6L1326 566.9L1327.3 305.6L1328.7 581.5L1330 143.3L1331.3 615.7L1332.7 -10.5L1334 539.8L1335.3 353.4L1336.7 656.8L1338 626.8L1339.3 619.9L1340.7 606.9L1342 651.2L1343.3 612L1344.7 665.3L1346 233.8L1347.3 606.9L1348.7 432.9L1350 652.8L1351.3 392.1L1352.7 657.3L1354 617.3L1355.3 559.7L1356.7 588.4L1358 532.1L1359.3 597.4L1360.7 653.4L1362 409.6L1363.3 600.6L1364.7 450.4L1366 630.3L1367.3 483.1L1368.7 653.4L1370 218.4L1371.3 638L1372.7 456.3L1374 667.9L1375.3 432.1L1376.7 677.5L1378 309.9L1379.3 651.5L1380.7 614.9L1382 698.2L1383.3 582.3L1384.7 695.3L1386 631.6L1387.3 680.7L1388.7 492.6L1390 684.4L1391.3 475.9L1392.7 657.9L1394 475.4L1395.3 635.9L1396.7 601.9L1398 656.5L1399.3 614.1L1400.7 671.9L1402 623.9L1403.3 656L1404.7 488.9L1406 677.8L1407.3 548.1L1408.7 657.1L1410 488.4L1411.3 666.4L1412.7 520.5L1414 698.2L1415.3 551.8L1416.7 660.5L1418 557.9L1419.3 669L1420.7 423.9L1422 687L1423.3 616.5L1424.7 687.3L1426 597.1L1427.3 653.4L1428.7 599.5L1430 664L1431.3 534.3L1432.7 704.5L1434 530.3L1435.3 682L1436.7 135.9L1438 686.2L1439.3 648.8L1440.7 704.3L1442 623.9L1443.3 636.4L1444.7 617.8L1446 597.4L1447.3 515.2L1448.7 671.4L1450 561.3L1451.3 709.1L1452.7 569.8L1454 705.6L1455.3 533.2L1456.7 686.5L1458 573.8L1459.3 627.6L1460.7 516.8L1462 704L1463.3 584.4L1464.7 707.2L1466 634.3L1467.3 684.7L1468.7 586.5L1470 691.3L1471.3 432.4L1472.7 718.3L1474 610.1L1475.3 682L1476.7 621.5L1478 714.1L1479.3 609.1L1480.7 664.5L1482 349.4L1483.3 725.5L1484.7 582.8L1486 647.3L1487.3 621.8L1488.7 737.7L1490 645.7L1491.3 707.7L1492.7 544.6L1494 825.5L1495.3 779.9L1496.7 799.2L1498 823.9L1499.3 832.9L1500.7 814.6L1502 775.4L1503.3 789.2L1504.7 524.5L1506 783.6L1507.3 838.2L1508.7 807.2L1510 856L1511.3 793.9L1512.7 829.5L1514 803.7L1515.3 870.1L1516.7 782.3L1518 866.1L1519.3 813.3L1520.7 827.9L1522 768.2L1523.3 812.2L1524.7 849.9L1526 835L1527.3 792.1L1528.7 829.5L1530 788.6L1531.3 764.2L1532.7 727.4L1534 830.8L1535.3 826.6L1536.7 794.2L1538 765L1539.3 821L1540.7 753.4L1542 770.1L1543.3 823.4L1544.7 809.6L1546 845.9L1547.3 880.1L1548.7 812.8L1550 812L1551.3 865.8L1552.7 865.8L1554 780.4L1555.3 791L1556.7 844.3L1558 848.6L1559.3 870.6L1560.7 814.9L1562 837.4L1563.3 808.3L1564.7 826.6L1566 779.1L1567.3 864L1568.7 855.5L1570 -423.5L1571.3 236.9L1572.7 -1232L1574 -404.4L1575.3 -221.4L1576.7 -12.1L1578 -341.6L1579.3 -659L1580.7 -1765.1L1582 -392.7L1583.3 -1186.9L1584.7 -294.3L1586 -1256.4L1587.3 268.5L1588.7 -138.1L1590 382L1591.3 414.6L1592.7 341.7L1594 3.8L1595.3 408.8L1596.7 -217.7L1598 444.1L1599.3 -62.8L1600.7 459.2L1602 -198.9L1603.3 371.4L1604.7 -388.2L1606 365.8L1607.3 -143.4L1608.7 471.1L1610 43.8L1611.3 454.4L1612.7 -164.9L1614 393.2L1615.3 181L1616.7 426.3L1618 445.1L1619.3 508.5L1620.7 392.6L1622 492.1L1623.3 41.7L1624.7 332.2L1626 -92.5L1627.3 465.6L1628.7 -54.8L1630 417.8L1631.3 447L1632.7 449.4L1634 502.7L1635.3 444.1L1636.7 479.1L1638 563.2L1639.3 200.6L1640.7 548.6L1642 236.4L1643.3 545.7L1644.7 226.9L1646 541.7L1647.3 161.1L1648.7 526L1650 103.5L1651.3 636.6L1652.7 404L1654 654.4L1655.3 320L1656.7 640.6L1658 587L1659.3 648.6L1660.7 633.7L1662 617L1663.3 617.5L1664.7 638.5L1666 441.7L1667.3 580.7L1668.7 352.6L1670 344.1L1671.3 257.1L1672.7 601.9L1674 527.4L1675.3 664.5L1676.7 609.3L1678 691L1679.3 639.6L1680.7 650.2L1682 474.1L1683.3 355.2L1684.7 430.3L1686 640.1L1687.3 469.8L1688.7 681.2L1690 522.3L1691.3 655.2L1692.7 403.8L1694 649.4L1695.3 495L1696.7 633.7L1698 449.7L1699.3 670.9L1700.7 585.5L1702 689.4L1703.3 654.7L1704.7 671.1L1706 623.7L1707.3 624.2L1708.7 506.9L1710 663.2L1711.3 493.4L1712.7 670.6L1714 449.4L1715.3 666.6L1716.7 631.3L1718 610.4L1719.3 641.4L1720.7 661L1722 612.2L1723.3 661L1724.7 515.2L1726 677.2L1727.3 538L1728.7 687.6L1730 507.2L1731.3 678.8L1732.7 528.7L1734 667.1L1735.3 494.5L1736.7 687L1738 547.8L1739.3 656.8L1740.7 526.8L1742 680.9L1743.3 457.9L1744.7 700.6L1746 621L1747.3 619.7L1748.7 557.3L1750 710.1L1751.3 543.8L1752.7 682.8L1754 552L1755.3 690.2L1756.7 521.5L1758 704L1759.3 641.4L1760.7 631.1L1762 621L1763.3 692.6L1764.7 661.8L1766 692.9L1767.3 521.3L1768.7 671.1L1770 558.7L1771.3 687.3L1772.7 578.8L1774 666.9L1775.3 584.1L1776.7 685.2L1778 591.6L1779.3 700.8L1780.7 612L1782 706.1L1783.3 564.2L1784.7 704.3L1786 496.9L1787.3 709.3L1788.7 629L1790 677.2L1791.3 603L1792.7 691L1794 637.2L1795.3 716L1796.7 605.6L1798 660L1799.3 370.1" fill="transparent" stroke="#626c91" stroke-width="3" stroke-linejoin="bevel" class="zr18-cls-56"></path>
</g>
<path d="M-223.5 -5l447 0l0 28l-447 0Z" transform="translate(1000 5)" fill="rgb(0,0,0)" fill-opacity="0" stroke="#ccc" stroke-width="0" class="zr18-cls-54"></path>
<text dominant-baseline="central" text-anchor="middle" style="font-size:18px;font-family:sans-serif;font-weight:bold;" xml:space="preserve" y="9" transform="translate(1000 5)" fill="#666666">transportLinesUpdate per Tick for bench_4_every_240</text>
<defs >
<clipPath id="zr18-c0">
<path d="M198 58.5l16004 0l0 8703l-16004 0Z" fill="#000" class="zr18-cls-55"></path>
</clipPath>
<clipPath id="zr18-c1">
<path d="M198 58.5l16004 0l0 8703l-16004 0Z" fill="#000" class="zr18-cls-55"></path>
</clipPath>
<clipPath id="zr18-c2">
<path d="M198 58.5l16004 0l0 8703l-16004 0Z" fill="#000" class="zr18-cls-55"></path>
</clipPath>
</defs>
<style ><![CDATA[
.zr18-cls-54:hover {
pointer-events:none;
}
.zr18-cls-55:hover {
cursor:pointer;
fill:rgba(0,0,0,1);
}
.zr18-cls-56:hover {
cursor:pointer;
}

]]>

</style>
</svg>