<svg width="2000" height="1000" xmlns="http://www.w3.org/2000/svg" xmlns:xlink="http://www.w3.org/1999/xlink" version="1.1" baseProfile="full" viewBox="0 0 2000 1000">
<rect width="2000" height="1000" x="0" y="0" fill="rgb(252,252,252)" fill-opacity="0"></rect>
<path d="M200 930.5L1800 930.5" fill="transparent" stroke="#eeeeee" class="zr42-cls-126"></path>
<path d="M200 797.5L1800 797.5" fill="transparent" stroke="#eeeeee" class="zr42-cls-126"></path>
<path d="M200 665.5L1800 665.5" fill="transparent" stroke="#eeeeee" class="zr42-cls-126"></path>
<path d="M200 532.5L1800 532.5" fill="transparent" stroke="#eeeeee" class="zr42-cls-126"></path>
<path d="M200 399.5L1800 399.5" fill="transparent" stroke="#eeeeee" class="zr42-cls-126"></path>
<path d="M200 267.5L1800 267.5" fill="transparent" stroke="#eeeeee" class="zr42-cls-126"></path>
<path d="M200 134.5L1800 134.5" fill="transparent" stroke="#eeeeee" class="zr42-cls-126"></path>
<path d="M200 60.5L1800 60.5" fill="transparent" stroke="#eeeeee" class="zr42-cls-126"></path>
<path d="M200.5 930L200.5 60" fill="transparent" stroke="#cccccc" stroke-linecap="round" class="zr42-cls-126"></path>
<text dominant-baseline="central" text-anchor="middle" style="font-size:12px;font-family:sans-serif;" xml:space="preserve" y="-6" transform="translate(200 45)" fill="#cccccc">transportLinesUpdate Time (ms)</text>
<path d="M200 930.5L1800 930.5" fill="transparent" stroke="#cccccc" stroke-linecap="round" class="zr42-cls-126"></path>
<text dominant-baseline="central" text-anchor="end" style="font-size:12px;font-family:sans-serif;" transform="translate(192 930)" fill="#999999">0.000</text>
<text dominant-baseline="central" text-anchor="end" style="font-size:12px;font-family:sans-serif;" transform="translate(192 797.381)" fill="#999999">0.050</text>
<text dominant-baseline="central" text-anchor="end" style="font-size:12px;font-family:sans-serif;" transform="translate(192 664.762)" fill="#999999">0.100</text>
<text dominant-baseline="central" text-anchor="end" style="font-size:12px;font-family:sans-serif;" transform="translate(192 532.1431)" fill="#999999">0.150</text>
<text dominant-baseline="central" text-anchor="end" style="font-size:12px;font-family:sans-serif;" transform="translate(192 399.5241)" fill="#999999">0.200</text>
<text dominant-baseline="central" text-anchor="end" style="font-size:12px;font-family:sans-serif;" transform="translate(192 266.9051)" fill="#999999">0.250</text>
<text dominant-baseline="central" text-anchor="end" style="font-size:12px;font-family:sans-serif;" transform="translate(192 134.2861)" fill="#999999">0.300</text>
<text dominant-baseline="central" text-anchor="end" style="font-size:12px;font-family:sans-serif;" transform="translate(192 60)" fill="#999999">0.328</text>
<text dominant-baseline="central" text-anchor="middle" style="font-size:12px;font-family:sans-serif;" y="6" transform="translate(200.6667 938)" fill="#999999">0</text>
<text dominant-baseline="central" text-anchor="middle" style="font-size:12px;font-family:sans-serif;" y="6" transform="translate(236.6667 938)" fill="#999999">27</text>
<text dominant-baseline="central" text-anchor="middle" style="font-size:12px;font-family:sans-serif;" y="6" transform="translate(272.6667 938)" fill="#999999">54</text>
<text dominant-baseline="central" text-anchor="middle" style="font-size:12px;font-family:sans-serif;" y="6" transform="translate(308.6667 938)" fill="#999999">81</text>
<text dominant-baseline="central" text-anchor="middle" style="font-size:12px;font-family:sans-serif;" y="6" transform="translate(344.6667 938)" fill="#999999">108</text>
<text dominant-baseline="central" text-anchor="middle" style="font-size:12px;font-family:sans-serif;" y="6" transform="translate(380.6667 938)" fill="#999999">135</text>
<text dominant-baseline="central" text-anchor="middle" style="font-size:12px;font-family:sans-serif;" y="6" transform="translate(416.6667 938)" fill="#999999">162</text>
<text dominant-baseline="central" text-anchor="middle" style="font-size:12px;font-family:sans-serif;" y="6" transform="translate(452.6667 938)" fill="#999999">189</text>
<text dominant-baseline="central" text-anchor="middle" style="font-size:12px;font-family:sans-serif;" y="6" transform="translate(488.6667 938)" fill="#999999">216</text>
<text dominant-baseline="central" text-anchor="middle" style="font-size:12px;font-family:sans-serif;" y="6" transform="translate(524.6667 938)" fill="#999999">243</text>
<text dominant-baseline="central" text-anchor="middle" style="font-size:12px;font-family:sans-serif;" y="6" transform="translate(560.6667 938)" fill="#999999">270</text>
<text dominant-baseline="central" text-anchor="middle" style="font-size:12px;font-family:sans-serif;" y="6" transform="translate(596.6667 938)" fill="#999999">297</text>
<text dominant-baseline="central" text-anchor="middle" style="font-size:12px;font-family:sans-serif;" y="6" transform="translate(632.6667 938)" fill="#999999">324</text>
<text dominant-baseline="central" text-anchor="middle" style="font-size:12px;font-family:sans-serif;" y="6" transform="translate(668.6667 938)" fill="#999999">351</text>
<text dominant-baseline="central" text-anchor="middle" style="font-size:12px;font-family:sans-serif;" y="6" transform="translate(704.6667 938)" fill="#999999">378</text>
<text dominant-baseline="central" text-anchor="middle" style="font-size:12px;font-family:sans-serif;" y="6" transform="translate(740.6667 938)" fill="#999999">405</text>
<text dominant-baseline="central" text-anchor="middle" style="font-size:12px;font-family:sans-serif;" y="6" transform="translate(776.6667 938)" fill="#999999">432</text>
<text dominant-baseline="central" text-anchor="middle" style="font-size:12px;font-family:sans-serif;" y="6" transform="translate(812.6667 938)" fill="#999999">459</text>
<text dominant-baseline="central" text-anchor="middle" style="font-size:12px;font-family:sans-serif;" y="6" transform="translate(848.6667 938)" fill="#999999">486</text>
<text dominant-baseline="central" text-anchor="middle" style="font-size:12px;font-family:sans-serif;" y="6" transform="translate(884.6667 938)" fill="#999999">513</text>
<text dominant-baseline="central" text-anchor="middle" style="font-size:12px;font-family:sans-serif;" y="6" transform="translate(920.6667 938)" fill="#999999">540</text>
<text dominant-baseline="central" text-anchor="middle" style="font-size:12px;font-family:sans-serif;" y="6" transform="translate(956.6667 938)" fill="#999999">567</text>
<text dominant-baseline="central" text-anchor="middle" style="font-size:12px;font-family:sans-serif;" y="6" transform="translate(992.6667 938)" fill="#999999">594</text>
<text dominant-baseline="central" text-anchor="middle" style="font-size:12px;font-family:sans-serif;" y="6" transform="translate(1028.6667 938)" fill="#999999">621</text>
<text dominant-baseline="central" text-anchor="middle" style="font-size:12px;font-family:sans-serif;" y="6" transform="translate(1064.6667 938)" fill="#999999">648</text>
<text dominant-baseline="central" text-anchor="middle" style="font-size:12px;font-family:sans-serif;" y="6" transform="translate(1100.6667 938)" fill="#999999">675</text>
<text dominant-baseline="central" text-anchor="middle" style="font-size:12px;font-family:sans-serif;" y="6" transform="translate(1136.6667 938)" fill="#999999">702</text>
<text dominant-baseline="central" text-anchor="middle" style="font-size:12px;font-family:sans-serif;" y="6" transform="translate(1172.6667 938)" fill="#999999">729</text>
<text dominant-baseline="central" text-anchor="middle" style="font-size:12px;font-family:sans-serif;" y="6" transform="translate(1208.6667 938)" fill="#999999">756</text>
<text dominant-baseline="central" text-anchor="middle" style="font-size:12px;font-family:sans-serif;" y="6" transform="translate(1244.6667 938)" fill="#999999">783</text>
<text dominant-baseline="central" text-anchor="middle" style="font-size:12px;font-family:sans-serif;" y="6" transform="translate(1280.6667 938)" fill="#999999">810</text>
<text dominant-baseline="central" text-anchor="middle" style="font-size:12px;font-family:sans-serif;" y="6" transform="translate(1316.6667 938)" fill="#999999">837</text>
<text dominant-baseline="central" text-anchor="middle" style="font-size:12px;font-family:sans-serif;" y="6" transform="translate(1352.6667 938)" fill="#999999">864</text>
<text dominant-baseline="central" text-anchor="middle" style="font-size:12px;font-family:sans-serif;" y="6" transform="translate(1388.6667 938)" fill="#999999">891</text>
<text dominant-baseline="central" text-anchor="middle" style="font-size:12px;font-family:sans-serif;" y="6" transform="translate(1424.6667 938)" fill="#999999">918</text>
<text dominant-baseline="central" text-anchor="middle" style="font-size:12px;font-family:sans-serif;" y="6" transform="translate(1460.6667 938)" fill="#999999">945</text>
<text dominant-baseline="central" text-anchor="middle" style="font-size:12px;font-family:sans-serif;" y="6" transform="translate(1496.6667 938)" fill="#999999">972</text>
<text dominant-baseline="central" text-anchor="middle" style="font-size:12px;font-family:sans-serif;" y="6" transform="translate(1532.6667 938)" fill="#999999">999</text>
<text dominant-baseline="central" text-anchor="middle" style="font-size:12px;font-family:sans-serif;" y="6" transform="translate(1568.6667 938)" fill="#999999">1026</text>
<text dominant-baseline="central" text-anchor="middle" style="font-size:12px;font-family:sans-serif;" y="6" transform="translate(1604.6667 938)" fill="#999999">1053</text>
<text dominant-baseline="central" text-anchor="middle" style="font-size:12px;font-family:sans-serif;" y="6" transform="translate(1640.6667 938)" fill="#999999">1080</text>
<text dominant-baseline="central" text-anchor="middle" style="font-size:12px;font-family:sans-serif;" y="6" transform="translate(1676.6667 938)" fill="#999999">1107</text>
<text dominant-baseline="central" text-anchor="middle" style="font-size:12px;font-family:sans-serif;" y="6" transform="translate(1712.6667 938)" fill="#999999">1134</text>
<text dominant-baseline="central" text-anchor="middle" style="font-size:12px;font-family:sans-serif;" y="6" transform="translate(1748.6667 938)" fill="#999999">1161</text>
<text dominant-baseline="central" text-anchor="middle" style="font-size:12px;font-family:sans-serif;" y="6" transform="translate(1784.6667 938)" fill="#999999">1188</text>
<g clip-path="url(#zr42-c0)">
<path d="M200.7 -221.7L202 -215.3L203.3 378L204.7 273L206 425.8L207.3 281.5L208.7 554.4L210 308L211.3 510.7L212.7 304.8L214 516.5L215.3 373L216.7 538.8L218 373L219.3 547.3L220.7 456.6L222 545.4L223.3 480.4L224.7 577.5L226 539.6L227.3 582.5L228.7 537.4L230 559.7L231.3 524.2L232.7 583.9L234 520.5L235.3 589.2L236.7 624.2L238 602.2L239.3 621.8L240.7 627.6L242 633.2L243.3 604.3L244.7 701.1L246 642.5L247.3 659.5L248.7 700.6L250 578.6L251.3 680.7L252.7 698.2L254 764.2L255.3 701.4L256.7 725.5L258 -458.5L259.3 188.7L260.7 -144.5L262 190L263.3 -125.6L264.7 282.6L266 -104.4L267.3 289.5L268.7 -187.4L270 251L271.3 -256.4L272.7 338.3L274 41.2L275.3 224.2L276.7 26.9L278 400.6L279.3 93.4L280.7 424.2L282 38.8L283.3 323.9L284.7 127.7L286 331.1L287.3 66.1L288.7 435.6L290 23.4L291.3 232.7L292.7 269.3L294 426.8L295.3 282L296.7 500.6L298 224.7L299.3 434.3L300.7 342L302 399.5L303.3 384.7L304.7 469L306 445.4L307.3 454.4L308.7 496.1L310 492.1L311.3 536.1L312.7 216.8L314 544.1L315.3 558.9L316.7 555L318 513.8L319.3 565.6L320.7 565.8L322 665L323.3 530.6L324.7 617.5L326 410.7L327.3 636.9L328.7 613.6L330 644.1L331.3 668.7L332.7 682L334 695.5L335.3 660.3L336.7 457.6L338 -777.1L339.3 -34.9L340.7 -696.4L342 90L343.3 -410.8L344.7 214.9L346 -10.5L347.3 304.8L348.7 31.9L350 387.1L351.3 138.8L352.7 374.9L354 27.9L355.3 456.3L356.7 -229.9L358 440.4L359.3 147L360.7 489.7L362 -236L363.3 461.1L364.7 255L366 538L367.3 75.9L368.7 520.5L370 318.6L371.3 528.4L372.7 -90.9L374 519.4L375.3 308.8L376.7 137.2L378 -305.5L379.3 121L380.7 8.6L382 224.5L383.3 -124.9L384.7 269.6L386 420.2L387.3 375.4L388.7 240.1L390 198.5L391.3 532.4L392.7 460L394 605.1L395.3 582.3L396.7 617.8L398 570.9L399.3 666.9L400.7 622.9L402 641.4L403.3 629.8L404.7 669.8L406 639.8L407.3 451.2L408.7 680.4L410 678.3L411.3 696.3L412.7 683.9L414 686.5L415.3 709.9L416.7 743L418 -413.4L419.3 85.5L420.7 -201.8L422 345.4L423.3 -124.1L424.7 361.1L426 -72.1L427.3 502.2L428.7 2.5L430 456.8L431.3 -76.6L432.7 445.4L434 18.1L435.3 413.1L436.7 -49.5L438 313.3L439.3 116.2L440.7 488.1L442 129.8L443.3 179.4L444.7 150.5L446 366.1L447.3 235.1L448.7 447L450 280.7L451.3 500.6L452.7 148.9L454 498.5L455.3 181.2L456.7 261.1L458 -28.8L459.3 539L460.7 486.5L462 536.7L463.3 271.1L464.7 485.2L466 562.9L467.3 594.2L468.7 540.6L470 524.2L471.3 569.5L472.7 542.8L474 587.6L475.3 536.9L476.7 638L478 602.2L479.3 648.8L480.7 589.7L482 693.4L483.3 636.9L484.7 696.3L486 632.4L487.3 698.7L488.7 648.3L490 688.9L491.3 609.9L492.7 715.7L494 722.3L495.3 726.3L496.7 751.2L498 -428.8L499.3 130.6L500.7 -390.6L502 83.1L503.3 -107.9L504.7 271.7L506 -213.4L507.3 335.3L508.7 -141.6L510 384.4L511.3 -390.6L512.7 349.1L514 129L515.3 479.4L516.7 56.6L518 406.7L519.3 178.3L520.7 527.9L522 129.2L523.3 481.5L524.7 291.6L526 523.4L527.3 242.2L528.7 493.9L530 210.9L531.3 545.9L532.7 295.8L534 540.1L535.3 385.2L536.7 578.6L538 290L539.3 562.6L540.7 458.7L542 508.3L543.3 449.4L544.7 555.5L546 496.9L547.3 560L548.7 375.9L550 552L551.3 572.7L552.7 611.2L554 522.1L555.3 587.8L556.7 657.3L558 635.1L559.3 595.5L560.7 615.2L562 685.7L563.3 660.3L564.7 675.6L566 633.2L567.3 653.6L568.7 649.1L570 677.5L571.3 632.1L572.7 651.5L574 678.8L575.3 715.2L576.7 741.2L578 -578.1L579.3 75.9L580.7 -145.5L582 155L583.3 -123.5L584.7 325L586 -147.4L587.3 336.1L588.7 -51.9L590 284.4L591.3 -211.3L592.7 316.2L594 -374.4L595.3 335.3L596.7 64.8L598 331.4L599.3 114.9L600.7 225.8L602 79.4L603.3 398.5L604.7 112.3L606 410.9L607.3 130L608.7 485.7L610 110.7L611.3 401.1L612.7 242L614 410.1L615.3 202.7L616.7 422.3L618 253.6L619.3 488.6L620.7 373.5L622 374.9L623.3 379.9L624.7 463.4L626 410.4L627.3 461.1L628.7 499.3L630 456.3L631.3 508.5L632.7 554.2L634 573.8L635.3 535.6L636.7 574.6L638 549.6L639.3 645.4L640.7 592.1L642 599L643.3 202.5L644.7 682.3L646 486.8L647.3 383.1L648.7 626L650 527.4L651.3 673.8L652.7 655.7L654 377.5L655.3 674.3L656.7 718.9L658 -549.8L659.3 -10L660.7 -841.5L662 213.1L663.3 -92.5L664.7 14.4L666 -97.5L667.3 357.1L668.7 62.4L670 317.6L671.3 20.8L672.7 460.8L674 -272.3L675.3 413.6L676.7 117L678 471.9L679.3 -180L680.7 435.6L682 166.1L683.3 538.2L684.7 -3.1L686 490L687.3 268.8L688.7 549.4L690 121.8L691.3 542.8L692.7 254.7L694 580.9L695.3 241.7L696.7 518.1L698 381.8L699.3 581.2L700.7 224.5L702 520.5L703.3 475.9L704.7 568.5L706 548.6L707.3 488.9L708.7 554.7L710 575.9L711.3 600.6L712.7 576.4L714 553.4L715.3 622.3L716.7 661.6L718 501.4L719.3 667.9L720.7 645.7L722 678.6L723.3 622.1L724.7 683.9L726 681.2L727.3 639L728.7 653.1L730 651.8L731.3 694.7L732.7 731.1L734 730.8L735.3 674L736.7 756.8L738 -474.7L739.3 165.1L740.7 -552.7L742 299.3L743.3 10.2L744.7 403.5L746 -82.9L747.3 430.3L748.7 38L750 476.7L751.3 2.7L752.7 457.1L754 105.1L755.3 308.8L756.7 82L758 355.8L759.3 257.4L760.7 376.7L762 134L763.3 529.2L764.7 265.3L766 450.2L767.3 307.8L768.7 540.1L770 347L771.3 397.7L772.7 357.1L774 584.1L775.3 444.6L776.7 566.6L778 413.3L779.3 542L780.7 474.3L782 583.1L783.3 504L784.7 582.8L786 531.6L787.3 614.1L788.7 450.2L790 607.5L791.3 617.3L792.7 598.5L794 582L795.3 616.5L796.7 598.2L798 613.8L799.3 670.1L800.7 554.2L802 680.9L803.3 657.6L804.7 650.4L806 668.5L807.3 664.2L808.7 687L810 657.1L811.3 710.9L812.7 629.5L814 711.7L815.3 729.2L816.7 725L818 -724.6L819.3 198.7L820.7 -84.3L822 386.8L823.3 -35.5L824.7 457.9L826 34.8L827.3 456.8L828.7 -50.1L830 345.7L831.3 51.5L832.7 471.4L834 22.6L835.3 440.6L836.7 157.9L838 489.2L839.3 214.1L840.7 454.7L842 267.7L843.3 571.7L844.7 291.6L846 561.8L847.3 361.6L848.7 578.6L850 288.4L851.3 544.6L852.7 416.8L854 614.4L855.3 346.2L856.7 567.2L858 399.8L859.3 600.6L860.7 363.5L862 548.9L863.3 494.5L864.7 619.7L866 345.4L867.3 579.4L868.7 577.2L870 622.1L871.3 612.8L872.7 478.3L874 633.5L875.3 636.1L876.7 610.9L878 614.6L879.3 568.2L880.7 595.3L882 580.9L883.3 629L884.7 719.4L886 376.4L887.3 676.7L888.7 664.2L890 691L891.3 654.9L892.7 438.5L894 701.9L895.3 713L896.7 710.4L898 -428.3L899.3 72.2L900.7 -432.3L902 235.9L903.3 -161.5L904.7 141.4L906 -318.5L907.3 9.4L908.7 -112.4L910 350.2L911.3 -80.3L912.7 317.8L914 -57L915.3 349.1L916.7 -222.5L918 383.3L919.3 158.4L920.7 343.3L922 184.4L923.3 392.6L924.7 174.3L926 402.4L927.3 133.8L928.7 472.5L930 129L931.3 311.2L932.7 -24.9L934 426L935.3 318.9L936.7 457.6L938 273.5L939.3 304.6L940.7 321.5L942 478.6L943.3 401.1L944.7 322.3L946 424.2L947.3 466.6L948.7 338.3L950 512.8L951.3 514.9L952.7 487.8L954 599.8L955.3 488.4L956.7 579.6L958 562.4L959.3 625L960.7 566.6L962 239.3L963.3 575.4L964.7 690.8L966 559.5L967.3 661.6L968.7 696.1L970 688.9L971.3 631.3L972.7 649.9L974 640.1L975.3 706.9L976.7 661.6L978 -705.2L979.3 -184L980.7 -379.2L982 -157.2L983.3 -210.5L984.7 270.9L986 -325.4L987.3 340.6L988.7 -31.2L990 389.2L991.3 -223.8L992.7 418.9L994 141.2L995.3 468.8L996.7 -177.4L998 401.9L999.3 162.1L1000.7 508L1002 -74.7L1003.3 460.5L1004.7 208.8L1006 535.6L1007.3 5.4L1008.7 509.9L1010 351.8L1011.3 529.2L1012.7 167.2L1014 531.9L1015.3 276.7L1016.7 492.4L1018 340.1L1019.3 507.5L1020.7 398.2L1022 467.4L1023.3 380.2L1024.7 518.1L1026 480.4L1027.3 547.5L1028.7 516.2L1030 525L1031.3 503L1032.7 588.6L1034 449.9L1035.3 572.5L1036.7 651.8L1038 596.9L1039.3 587.8L1040.7 556L1042 656.8L1043.3 581.7L1044.7 683.1L1046 572.5L1047.3 648.3L1048.7 690.5L1050 735.3L1051.3 669L1052.7 716.5L1054 564.2L1055.3 705.1L1056.7 749.4L1058 -420.9L1059.3 122.1L1060.7 -171.3L1062 112.8L1063.3 -57.2L1064.7 380.7L1066 -147.9L1067.3 360L1068.7 23.7L1070 343.3L1071.3 -205.5L1072.7 378.6L1074 59.5L1075.3 447.8L1076.7 62.7L1078 447L1079.3 255.8L1080.7 268.8L1082 199.8L1083.3 511.2L1084.7 251.8L1086 373.5L1087.3 242.8L1088.7 511.5L1090 342.2L1091.3 412.5L1092.7 335.3L1094 548.3L1095.3 349.1L1096.7 431.6L1098 318.4L1099.3 579.4L1100.7 398.7L1102 429.8L1103.3 493.4L1104.7 576.4L1106 549.6L1107.3 481.2L1108.7 561.3L1110 601.6L1111.3 590.8L1112.7 530.6L1114 618.1L1115.3 582.8L1116.7 650.4L1118 452.3L1119.3 591.6L1120.7 617.3L1122 686L1123.3 575.1L1124.7 683.1L1126 667.1L1127.3 700.8L1128.7 654.2L1130 664L1131.3 658.1L1132.7 693.7L1134 741.2L1135.3 696.1L1136.7 756.3L1138 -660.6L1139.3 95.3L1140.7 -317.7L1142 292.6L1143.3 -13.7L1144.7 34.6L1146 -112.4L1147.3 355L1148.7 55.5L1150 284.4L1151.3 54.2L1152.7 480.2L1154 179.1L1155.3 387.6L1156.7 127.4L1158 452.8L1159.3 -171.3L1160.7 426.6L1162 178.6L1163.3 516.8L1164.7 286.5L1166 442.2L1167.3 244.1L1168.7 545.7L1170 -1.8L1171.3 449.9L1172.7 316L1174 590.8L1175.3 145.2L1176.7 479.1L1178 308.5L1179.3 588.1L1180.7 214.4L1182 520.2L1183.3 463.4L1184.7 544.6L1186 473L1187.3 536.7L1188.7 528.7L1190 584.7L1191.3 567.4L1192.7 590L1194 632.1L1195.3 638L1196.7 642.2L1198 595.3L1199.3 649.6L1200.7 681.2L1202 677L1203.3 608L1204.7 708L1206 656.5L1207.3 643.8L1208.7 646.7L1210 664.5L1211.3 724.7L1212.7 711.7L1214 703.5L1215.3 714.1L1216.7 753.9L1218 -419.8L1219.3 -128.6L1220.7 -186.4L1222 337.5L1223.3 -532.5L1224.7 278.8L1226 -77.1L1227.3 296.9L1228.7 5.6L1230 160L1231.3 -77.4L1232.7 396.1L1234 -44.5L1235.3 366.6L1236.7 -107.9L1238 364.5L1239.3 14.1L1240.7 381.2L1242 -186.4L1243.3 385.7L1244.7 132.2L1246 298.7L1247.3 182.8L1248.7 271.1L1250 208.8L1251.3 468L1252.7 279.9L1254 440.9L1255.3 244.1L1256.7 455.2L1258 -33.9L1259.3 480.2L1260.7 381.8L1262 445.4L1263.3 450.2L1264.7 257.6L1266 458.9L1267.3 512L1268.7 486.5L1270 504.6L1271.3 452.8L1272.7 536.4L1274 590.8L1275.3 524.5L1276.7 589.4L1278 414.6L1279.3 606.1L1280.7 558.1L1282 668.5L1283.3 546.7L1284.7 611.7L1286 607.2L1287.3 687.8L1288.7 621.8L1290 616.8L1291.3 666.9L1292.7 689.4L1294 697.4L1295.3 682.8L1296.7 716.2L1298 -1049.5L1299.3 -28.6L1300.7 -290.1L1302 187.9L1303.3 -168.4L1304.7 365.6L1306 -411L1307.3 376.7L1308.7 -1.8L1310 469L1311.3 -127.8L1312.7 452L1314 15.2L1315.3 506.1L1316.7 81L1318 487.3L1319.3 223.9L1320.7 481.5L1322 60.3L1323.3 484.1L1324.7 186L1326 242.5L1327.3 102.7L1328.7 487.6L1330 108L1331.3 88.4L1332.7 268L1334 526.3L1335.3 188.1L1336.7 455.2L1338 271.1L1339.3 579.6L1340.7 397.4L1342 542.2L1343.3 474.9L1344.7 593.1L1346 483.3L1347.3 549.6L1348.7 590.5L1350 544.3L1351.3 438L1352.7 542.5L1354 561.1L1355.3 642.5L1356.7 652.3L1358 530.8L1359.3 640.9L1360.7 643.8L1362 696.9L1363.3 561.6L1364.7 704L1366 660L1367.3 663.7L1368.7 643.8L1370 663.7L1371.3 698.7L1372.7 677.5L1374 586.8L1375.3 723.1L1376.7 737.7L1378 -655.6L1379.3 -305.2L1380.7 -294.9L1382 279.4L1383.3 -60.1L1384.7 270.6L1386 -33.6L1387.3 429.2L1388.7 -154.6L1390 304.6L1391.3 -45.3L1392.7 471.9L1394 -246.9L1395.3 417.8L1396.7 119.7L1398 455.8L1399.3 36.9L1400.7 384.7L1402 241.2L1403.3 530.3L1404.7 220L1406 434.3L1407.3 268.5L1408.7 334L1410 263.7L1411.3 512.3L1412.7 353.6L1414 457.6L1415.3 358.4L1416.7 503.2L1418 391.8L1419.3 495.3L1420.7 467.2L1422 590L1423.3 538.5L1424.7 238L1426 516.8L1427.3 542L1428.7 547L1430 612.2L1431.3 589.2L1432.7 567.7L1434 580.4L1435.3 593.1L1436.7 578L1438 329.8L1439.3 639.6L1440.7 634L1442 606.1L1443.3 609.6L1444.7 715.2L1446 687.3L1447.3 670.1L1448.7 675.1L1450 717L1451.3 680.4L1452.7 743.8L1454 706.1L1455.3 728.2L1456.7 762.1L1458 -811.6L1459.3 -5L1460.7 -393L1462 276.7L1463.3 9.6L1464.7 233.8L1466 2.5L1467.3 368.8L1468.7 3.8L1470 390.8L1471.3 118.4L1472.7 498.5L1474 237.5L1475.3 417L1476.7 178.1L1478 488.9L1479.3 206.7L1480.7 473L1482 198.2L1483.3 544.3L1484.7 308.8L1486 451L1487.3 300.1L1488.7 594.5L1490 435.6L1491.3 513.8L1492.7 386.5L1494 574.8L1495.3 405.1L1496.7 476.7L1498 389.4L1499.3 578.8L1500.7 502.4L1502 462.4L1503.3 547.5L1504.7 603.2L1506 535.1L1507.3 595L1508.7 556.3L1510 591.6L1511.3 596.6L1512.7 621.5L1514 496.6L1515.3 590.8L1516.7 616L1518 595.5L1519.3 624.7L1520.7 597.1L1522 656.3L1523.3 689.4L1524.7 704.3L1526 636.1L1527.3 684.9L1528.7 665L1530 682.8L1531.3 680.1L1532.7 642.2L1534 711.7L1535.3 685.5L1536.7 721.5L1538 -543.4L1539.3 21.6L1540.7 -680L1542 276.7L1543.3 -157.2L1544.7 205.6L1546 -168.6L1547.3 143L1548.7 -70.5L1550 300.6L1551.3 -81.1L1552.7 329.2L1554 -65.7L1555.3 348.1L1556.7 -229.4L1558 401.6L1559.3 81.8L1560.7 368L1562 146L1563.3 295.6L1564.7 187.9L1566 430.3L1567.3 191.6L1568.7 443.3L1570 171.7L1571.3 429.2L1572.7 171.9L1574 441.4L1575.3 240.4L1576.7 409.3L1578 295L1579.3 366.4L1580.7 239.6L1582 425.3L1583.3 348.9L1584.7 448.3L1586 409.6L1587.3 472.7L1588.7 190.3L1590 477.5L1591.3 528.7L1592.7 434.3L1594 578.6L1595.3 566.9L1596.7 587.8L1598 539.8L1599.3 552L1600.7 545.9L1602 553.6L1603.3 479.6L1604.7 703.2L1606 642.5L1607.3 630.5L1608.7 611.4L1610 643.8L1611.3 667.7L1612.7 629.8L1614 726.6L1615.3 693.4L1616.7 711.7L1618 -609.2L1619.3 54.7L1620.7 -421.4L1622 143.8L1623.3 -663.8L1624.7 236.7L1626 -21.4L1627.3 431.9L1628.7 -148.5L1630 364.2L1631.3 47.3L1632.7 342.8L1634 106.2L1635.3 480.2L1636.7 83.6L1638 440.1L1639.3 202.7L1640.7 501.9L1642 -80.8L1643.3 478.3L1644.7 274.6L1646 468.2L1647.3 76.2L1648.7 495.5L1650 338.8L1651.3 427.9L1652.7 129L1654 489.7L1655.3 347.3L1656.7 504L1658 225.3L1659.3 555.2L1660.7 463.4L1662 504.6L1663.3 501.4L1664.7 499.8L1666 533.7L1667.3 534.8L1668.7 587.3L1670 540.6L1671.3 545.4L1672.7 564L1674 609.3L1675.3 490.5L1676.7 621.8L1678 605.9L1679.3 672.7L1680.7 553.9L1682 652.8L1683.3 661L1684.7 711.7L1686 638.5L1687.3 708.8L1688.7 666.1L1690 735.8L1691.3 703.2L1692.7 574.6L1694 499.8L1695.3 701.6L1696.7 713.3L1698 -841.8L1699.3 -178.7L1700.7 -249L1702 334L1703.3 -215.8L1704.7 367.4L1706 -99.1L1707.3 470.1L1708.7 -19.6L1710 427.1L1711.3 78.1L1712.7 250.7L1714 81.5L1715.3 396.9L1716.7 41.2L1718 354.7L1719.3 122.6L1720.7 395.8L1722 181.2L1723.3 443.6L1724.7 68.8L1726 480.2L1727.3 203L1728.7 470.3L1730 182.3L1731.3 526.6L1732.7 98.5L1734 562.1L1735.3 379.6L1736.7 544.1L1738 159L1739.3 530.8L1740.7 456.8L1742 554.4L1743.3 347.8L1744.7 547.8L1746 497.7L1747.3 560.8L1748.7 273.3L1750 395.3L1751.3 540.9L1752.7 591.8L1754 543.5L1755.3 568.2L1756.7 581.2L1758 609.3L1759.3 631.6L1760.7 548.1L1762 671.1L1763.3 625L1764.7 712.5L1766 569.8L1767.3 597.1L1768.7 698.4L1770 700.6L1771.3 640.4L1772.7 670.1L1774 695L1775.3 673L1776.7 717.5L1778 -2155.2L1779.3 -80.3L1780.7 -953.5L1782 89.5L1783.3 -122.7L1784.7 354.4L1786 -244.7L1787.3 412.8L1788.7 -63.6L1790 462.7L1791.3 -17.7L1792.7 474.1L1794 40.9L1795.3 364.8L1796.7 94.2L1798 436.7L1799.3 183.9" fill="transparent" stroke="#3fb1e3" stroke-width="3" stroke-linejoin="bevel" class="zr42-cls-128"></path>
</g>
<g clip-path="url(#zr42-c1)">
<path d="M200.7 -299.9L202 -144.5L203.3 435.6L204.7 -120.3L206 533.7L207.3 408L208.7 589.4L210 463.2L211.3 522.9L212.7 357.4L214 598.5L215.3 484.4L216.7 504.3L218 394.2L219.3 570.1L220.7 531.9L222 584.9L223.3 517.6L224.7 634.3L226 575.6L227.3 567.4L228.7 545.4L230 625.8L231.3 623.1L232.7 599.8L234 608.5L235.3 637.2L236.7 622.1L238 637.4L239.3 681.2L240.7 619.4L242 683.3L243.3 671.7L244.7 731.6L246 692.6L247.3 722.1L248.7 712L250 726.3L251.3 759.7L252.7 376.4L254 726L255.3 615.2L256.7 726.8L258 -244.5L259.3 105.9L260.7 -65.7L262 384.1L263.3 -176.3L264.7 286.5L266 31.9L267.3 376.7L268.7 72.5L270 332.9L271.3 22.6L272.7 462.1L274 33.8L275.3 424.7L276.7 84.4L278 453.9L279.3 155L280.7 443.8L282 244.4L283.3 536.9L284.7 262.9L286 484.4L287.3 198.7L288.7 539L290 295.6L291.3 405.6L292.7 284.1L294 542L295.3 373.5L296.7 540.6L298 378.6L299.3 572.5L300.7 470.6L302 532.7L303.3 473.3L304.7 519.1L306 451L307.3 572.7L308.7 508.3L310 553.4L311.3 572.7L312.7 599.2L314 574.6L315.3 569.8L316.7 572.7L318 513L319.3 666.1L320.7 588.4L322 696.6L323.3 649.9L324.7 691.6L326 643.8L327.3 673.5L328.7 686L330 693.7L331.3 679.4L332.7 682.8L334 721.3L335.3 690L336.7 704.8L338 -456.1L339.3 152.3L340.7 -269.4L342 341.2L343.3 51L344.7 348.6L346 72.2L347.3 475.1L348.7 -47.4L350 336.4L351.3 166.1L352.7 525.2L354 221.5L355.3 539.8L356.7 207.5L358 519.1L359.3 147.3L360.7 539.6L362 255.8L363.3 555.5L364.7 334.3L366 547.5L367.3 306.7L368.7 552.6L370 408.3L371.3 581.5L372.7 199L374 589.2L375.3 428.2L376.7 599.8L378 232.2L379.3 577.5L380.7 496.6L382 605.3L383.3 527.9L384.7 592.1L386 587.6L387.3 616L388.7 608.5L390 423.7L391.3 630.3L392.7 652.8L394 602.7L395.3 652.3L396.7 647.8L398 657.9L399.3 639.3L400.7 664.8L402 670.6L403.3 669.8L404.7 658.1L406 674.6L407.3 696.9L408.7 690.2L410 725.5L411.3 734.5L412.7 740.4L414 725.2L415.3 770.3L416.7 730L418 -272.9L419.3 286.8L420.7 -313.2L422 408.5L423.3 106.7L424.7 442.2L426 -66.2L427.3 479.1L428.7 238.5L430 509.9L431.3 36.9L432.7 517.3L434 277.8L435.3 536.7L436.7 232.7L438 506.4L439.3 226.3L440.7 554.4L442 249.7L443.3 489.4L444.7 307.5L446 550.4L447.3 391.3L448.7 487.1L450 323.7L451.3 588.1L452.7 363.2L454 514.1L455.3 445.7L456.7 557.6L458 446.5L459.3 592.6L460.7 521.3L462 552.6L463.3 519.9L464.7 622.9L466 495.5L467.3 517L468.7 577.2L470 633.2L471.3 648.6L472.7 622.6L474 629.8L475.3 616.5L476.7 654.9L478 599.5L479.3 697.1L480.7 648.1L482 645.4L483.3 675.6L484.7 706.9L486 673.8L487.3 761.6L488.7 719.7L490 640.4L491.3 660.8L492.7 715.4L494 744.3L495.3 705.9L496.7 758.7L498 -275.2L499.3 257.1L500.7 -83.7L502 341.2L503.3 93.7L504.7 475.6L506 195L507.3 390.8L508.7 190.5L510 509.6L511.3 59.2L512.7 383.9L514 169.6L515.3 467.7L516.7 236.7L518 149.4L519.3 220.2L520.7 537.7L522 279.4L523.3 520.2L524.7 340.4L526 536.4L527.3 369L528.7 594.5L530 355.2L531.3 603.5L532.7 418.6L534 599.8L535.3 441.2L536.7 622.6L538 450.2L539.3 585.5L540.7 542L542 486.3L543.3 534.8L544.7 606.4L546 508.8L547.3 610.7L548.7 592.9L550 595.5L551.3 614.4L552.7 591.3L554 643.3L555.3 583.6L556.7 637.4L558 654.4L559.3 680.4L560.7 648.3L562 707.2L563.3 694.5L564.7 726.6L566 681.7L567.3 708.3L568.7 670.6L570 734.8L571.3 741.2L572.7 695L574 741.9L575.3 739.3L576.7 758.1L578 -243.7L579.3 125.5L580.7 -0.7L582 462.4L583.3 -44.5L584.7 418.4L586 -74.5L587.3 388.6L588.7 -34.7L590 427.4L591.3 26.3L592.7 431.4L594 73L595.3 435.1L596.7 -120.1L598 445.4L599.3 193.2L600.7 421.3L602 164.3L603.3 536.7L604.7 228.2L606 487.1L607.3 156L608.7 547.3L610 364.2L611.3 480.2L612.7 320.7L614 535.3L615.3 347.5L616.7 468.8L618 191.6L619.3 585.2L620.7 461.3L622 428.2L623.3 453.4L624.7 597.1L626 487.3L627.3 559.7L628.7 553.6L630 567.2L631.3 586L632.7 610.4L634 603.2L635.3 529.5L636.7 617.8L638 577.2L639.3 667.7L640.7 639.6L642 630.8L643.3 622.9L644.7 691.8L646 647.5L647.3 714.4L648.7 692.6L650 745.7L651.3 680.1L652.7 214.1L654 725.5L655.3 728.7L656.7 750.2L658 -406.8L659.3 177.3L660.7 -493.3L662 368.8L663.3 -13.7L664.7 446.7L666 65.6L667.3 484.9L668.7 223.1L670 513.6L671.3 164.3L672.7 531.3L674 220L675.3 557.6L676.7 181L678 556.5L679.3 313.6L680.7 551.5L682 177.3L683.3 571.4L684.7 340.9L686 562.1L687.3 188.4L688.7 567.4L690 346.2L691.3 580.9L692.7 425.5L694 565.3L695.3 431.9L696.7 602.4L698 488.1L699.3 406.7L700.7 490.8L702 567.4L703.3 491.6L704.7 609.1L706 523.7L707.3 584.4L708.7 599.2L710 630.8L711.3 492.1L712.7 585.7L714 613.3L715.3 630.5L716.7 686L718 606.4L719.3 716L720.7 658.1L722 741.7L723.3 684.7L724.7 725.2L726 658.4L727.3 670.1L728.7 727.4L730 619.7L731.3 724.4L732.7 703.2L734 751L735.3 716.5L736.7 734.3L738 -235.7L739.3 258.4L740.7 -26.2L742 356.6L743.3 86.3L744.7 479.9L746 164L747.3 429.8L748.7 199.5L750 477.2L751.3 187.3L752.7 416L754 217.8L755.3 524.7L756.7 174.6L758 500.8L759.3 278.6L760.7 482.3L762 283.6L763.3 586.8L764.7 315.7L766 539.6L767.3 395L768.7 597.7L770 292.6L771.3 512.8L772.7 437.5L774 622.3L775.3 446.7L776.7 554.2L778 419.7L779.3 612.2L780.7 529.2L782 486.3L783.3 530.3L784.7 616.2L786 552L787.3 619.4L788.7 578.8L790 579.9L791.3 623.7L792.7 564.2L794 607.2L795.3 619.4L796.7 611.4L798 652L799.3 685.2L800.7 626.6L802 708.5L803.3 662.4L804.7 750.7L806 688.6L807.3 709.3L808.7 677.2L810 745.9L811.3 739.6L812.7 688.6L814 730L815.3 720.5L816.7 752.6L818 -685.3L819.3 218.6L820.7 -14.8L822 406.7L823.3 168.5L824.7 392.1L826 83.6L827.3 512.5L828.7 194L830 467.7L831.3 217.3L832.7 510.7L834 262.4L835.3 456.8L836.7 150.7L838 517.3L839.3 323.1L840.7 210.1L842 278.6L843.3 543.3L844.7 388.4L846 553.1L847.3 343.3L848.7 577.2L850 343.8L851.3 574.1L852.7 184.9L854 566.6L855.3 432.9L856.7 606.4L858 304.8L859.3 546.7L860.7 500.3L862 573.5L863.3 539.3L864.7 546.5L866 566.9L867.3 617L868.7 579.9L870 554.4L871.3 638.8L872.7 534.5L874 582.8L875.3 656L876.7 638.2L878 512L879.3 662.4L880.7 661.3L882 655.5L883.3 603.8L884.7 758.7L886 718.9L887.3 646.5L888.7 694.7L890 724.2L891.3 701.6L892.7 666.1L894 766.3L895.3 754.7L896.7 769L898 -219.8L899.3 281.5L900.7 -46.3L902 451.2L903.3 36.7L904.7 344.6L906 54.2L907.3 436.4L908.7 79.1L910 421.3L911.3 -222.5L912.7 408.5L914 136.1L915.3 298.2L916.7 148.1L918 446.2L919.3 103.8L920.7 452.6L922 191.8L923.3 488.6L924.7 184.2L926 349.9L927.3 251.8L928.7 522.6L930 275.1L931.3 482L932.7 226.3L934 523.4L935.3 386.5L936.7 253.1L938 326.3L939.3 529.8L940.7 453.9L942 539.3L943.3 440.4L944.7 486.3L946 535.6L947.3 540.1L948.7 522.3L950 583.1L951.3 441.2L952.7 556.8L954 575.4L955.3 556.3L956.7 568.5L958 646.7L959.3 678.8L960.7 606.7L962 693.9L963.3 631.3L964.7 675.6L966 640.4L967.3 676.2L968.7 660.3L970 608L971.3 677.5L972.7 699.8L974 706.1L975.3 714.4L976.7 717.8L978 -412.9L979.3 131.1L980.7 -451.1L982 274.6L983.3 -44L984.7 399.8L986 -39.7L987.3 453.6L988.7 153.9L990 470.9L991.3 96.4L992.7 495L994 224.5L995.3 534.8L996.7 142.5L998 556.3L999.3 275.7L1000.7 537.2L1002 -10L1003.3 489.2L1004.7 307L1006 566.4L1007.3 375.7L1008.7 572.2L1010 356.3L1011.3 586.3L1012.7 389.4L1014 528.2L1015.3 425.3L1016.7 557.9L1018 438.5L1019.3 552.3L1020.7 527.9L1022 568.2L1023.3 507.7L1024.7 589.7L1026 527.9L1027.3 573L1028.7 580.9L1030 640.9L1031.3 471.4L1032.7 611.2L1034 630.5L1035.3 642.5L1036.7 661.8L1038 577.8L1039.3 706.7L1040.7 627.1L1042 619.4L1043.3 677.8L1044.7 682.8L1046 596.3L1047.3 728.4L1048.7 735.6L1050 673.8L1051.3 703L1052.7 730.8L1054 755.7L1055.3 737.7L1056.7 687.8L1058 -334.9L1059.3 199L1060.7 -40.5L1062 291L1063.3 71.7L1064.7 458.9L1066 171.9L1067.3 445.9L1068.7 184.9L1070 491.3L1071.3 216.5L1072.7 399L1074 196.9L1075.3 424.7L1076.7 196.6L1078 478.6L1079.3 247.3L1080.7 548.6L1082 204.8L1083.3 503.5L1084.7 258.9L1086 534.5L1087.3 362.7L1088.7 595.8L1090 382.3L1091.3 558.9L1092.7 437.2L1094 553.6L1095.3 354.7L1096.7 584.7L1098 475.4L1099.3 607.2L1100.7 502.2L1102 539L1103.3 569L1104.7 614.4L1106 603.8L1107.3 533.7L1108.7 551.5L1110 630.8L1111.3 618.6L1112.7 631.9L1114 591.8L1115.3 638.8L1116.7 690.2L1118 620.2L1119.3 595.8L1120.7 576.7L1122 701.6L1123.3 671.4L1124.7 691L1126 608.3L1127.3 728.2L1128.7 696.9L1130 706.7L1131.3 720.7L1132.7 692.3L1134 744.6L1135.3 755.7L1136.7 758.4L1138 -507.6L1139.3 250.2L1140.7 -111.1L1142 461.1L1143.3 -178.7L1144.7 440.4L1146 136.7L1147.3 527.9L1148.7 -50.1L1150 505.6L1151.3 225.8L1152.7 523.9L1154 234.3L1155.3 247.8L1156.7 72.8L1158 514.1L1159.3 251.8L1160.7 512.5L1162 269L1163.3 541.4L1164.7 302.4L1166 489.7L1167.3 303.5L1168.7 549.4L1170 348.1L1171.3 592.9L1172.7 383.1L1174 574.8L1175.3 443L1176.7 593.1L1178 421.3L1179.3 607.5L1180.7 487.8L1182 599.2L1183.3 439.3L1184.7 544.3L1186 578L1187.3 590.5L1188.7 593.7L1190 573.8L1191.3 510.7L1192.7 591.8L1194 662.4L1195.3 586.3L1196.7 630.3L1198 643.3L1199.3 666.9L1200.7 657.3L1202 589.4L1203.3 675.9L1204.7 733.5L1206 675.4L1207.3 477.5L1208.7 723.9L1210 722.6L1211.3 708L1212.7 719.1L1214 510.4L1215.3 727.6L1216.7 753.9L1218 -259.9L1219.3 257.1L1220.7 -80.6L1222 444.1L1223.3 46L1224.7 387.1L1226 56.6L1227.3 438.2L1228.7 90.5L1230 365.8L1231.3 -69.9L1232.7 465.6L1234 111.5L1235.3 392.4L1236.7 171.4L1238 483.3L1239.3 152.1L1240.7 461.3L1242 -66.5L1243.3 521.5L1244.7 252.1L1246 305.6L1247.3 218.9L1248.7 515.4L1250 292.9L1251.3 516L1252.7 74.3L1254 540.1L1255.3 422.3L1256.7 422.3L1258 379.6L1259.3 537.4L1260.7 487.1L1262 525L1263.3 321.3L1264.7 556.3L1266 522.6L1267.3 555.2L1268.7 537.7L1270 544.6L1271.3 532.9L1272.7 592.4L1274 609.6L1275.3 533.2L1276.7 650.2L1278 585.5L1279.3 665L1280.7 654.7L1282 689.4L1283.3 617.5L1284.7 688.6L1286 653.9L1287.3 661L1288.7 707.7L1290 608.3L1291.3 734.3L1292.7 696.9L1294 700L1295.3 718.1L1296.7 740.6L1298 -521.4L1299.3 -39.7L1300.7 -169.7L1302 206.7L1303.3 -36.3L1304.7 389.4L1306 -107.1L1307.3 442.8L1308.7 172.2L1310 470.9L1311.3 48.9L1312.7 543.5L1314 226.9L1315.3 526.8L1316.7 10.2L1318 474.9L1319.3 236.4L1320.7 496.3L1322 112L1323.3 463.7L1324.7 332.9L1326 562.6L1327.3 23.4L1328.7 563.2L1330 373.3L1331.3 586.8L1332.7 414.4L1334 559.2L1335.3 447L1336.7 544.9L1338 407.5L1339.3 565.8L1340.7 479.4L1342 583.1L1343.3 568.2L1344.7 612.2L1346 580.4L1347.3 621.5L1348.7 594.2L1350 573.5L1351.3 530.3L1352.7 477.8L1354 636.6L1355.3 640.6L1356.7 705.3L1358 573.8L1359.3 651.8L1360.7 648.3L1362 671.1L1363.3 651.5L1364.7 695.5L1366 684.7L1367.3 677.8L1368.7 697.9L1370 436.9L1371.3 716L1372.7 709.9L1374 749.6L1375.3 726.8L1376.7 709.9L1378 -283.7L1379.3 222.6L1380.7 -24.3L1382 390.2L1383.3 62.1L1384.7 360L1386 59.5L1387.3 423.1L1388.7 117.6L1390 505.1L1391.3 154.2L1392.7 398.7L1394 227.9L1395.3 513L1396.7 252.8L1398 423.1L1399.3 315.4L1400.7 533.7L1402 304.6L1403.3 386L1404.7 308.3L1406 541.2L1407.3 381L1408.7 596.1L1410 377.8L1411.3 571.7L1412.7 464.8L1414 589.4L1415.3 240.4L1416.7 584.4L1418 386L1419.3 623.4L1420.7 547.3L1422 505.6L1423.3 563.7L1424.7 630L1426 557.6L1427.3 500L1428.7 599.5L1430 580.7L1431.3 613.8L1432.7 622.3L1434 592.4L1435.3 615.2L1436.7 625L1438 648.1L1439.3 623.1L1440.7 649.4L1442 706.7L1443.3 684.1L1444.7 699.8L1446 637.4L1447.3 723.4L1448.7 700.3L1450 695.3L1451.3 725.2L1452.7 709.9L1454 720.2L1455.3 736.9L1456.7 726.8L1458 -621.6L1459.3 187.1L1460.7 12.3L1462 416.2L1463.3 -245.5L1464.7 402.4L1466 61.3L1467.3 514.4L1468.7 12.5L1470 500L1471.3 162.7L1472.7 497.1L1474 75.4L1475.3 516.8L1476.7 258.4L1478 569.3L1479.3 161.9L1480.7 518.6L1482 157.4L1483.3 557.1L1484.7 325L1486 494.2L1487.3 359.5L1488.7 586.8L1490 429.2L1491.3 482.3L1492.7 401.6L1494 588.1L1495.3 494.5L1496.7 628.2L1498 430.6L1499.3 570.3L1500.7 514.6L1502 630.8L1503.3 431.4L1504.7 602.2L1506 554.4L1507.3 635.3L1508.7 557.1L1510 606.9L1511.3 490.5L1512.7 667.4L1514 625L1515.3 583.1L1516.7 678.8L1518 628.4L1519.3 703.8L1520.7 656.8L1522 705.9L1523.3 677L1524.7 728.9L1526 665.6L1527.3 676.7L1528.7 708L1530 725L1531.3 727.4L1532.7 545.1L1534 665.8L1535.3 755.5L1536.7 741.9L1538 -226.2L1539.3 80.2L1540.7 -62.8L1542 325.3L1543.3 114.7L1544.7 413.1L1546 23.4L1547.3 410.7L1548.7 82.6L1550 422.1L1551.3 92.9L1552.7 407L1554 11.5L1555.3 374.9L1556.7 131.6L1558 412.3L1559.3 184.9L1560.7 514.9L1562 206.4L1563.3 518.6L1564.7 166.9L1566 449.4L1567.3 317L1568.7 436.9L1570 329.2L1571.3 519.1L1572.7 275.1L1574 479.4L1575.3 387.9L1576.7 471.7L1578 381.8L1579.3 562.1L1580.7 393.2L1582 517.8L1583.3 426.6L1584.7 534.3L1586 512L1587.3 514.4L1588.7 540.6L1590 569L1591.3 573.8L1592.7 547.8L1594 594.2L1595.3 606.7L1596.7 624.4L1598 595.5L1599.3 644.9L1600.7 567.7L1602 719.9L1603.3 595.3L1604.7 680.4L1606 727.1L1607.3 674.8L1608.7 635.6L1610 609.3L1611.3 671.1L1612.7 695L1614 727.6L1615.3 708.5L1616.7 728.9L1618 -497.5L1619.3 76.5L1620.7 -155.1L1622 199L1623.3 -88.8L1624.7 399L1626 -33.3L1627.3 356.3L1628.7 139.1L1630 431.6L1631.3 28.5L1632.7 484.1L1634 249.9L1635.3 545.4L1636.7 40.1L1638 483.1L1639.3 295.8L1640.7 495.8L1642 137.7L1643.3 526.3L1644.7 375.1L1646 565.8L1647.3 -42.9L1648.7 624.2L1650 372.5L1651.3 538.2L1652.7 399.8L1654 552.3L1655.3 421L1656.7 622.3L1658 486.5L1659.3 569.3L1660.7 536.9L1662 605.6L1663.3 513.8L1664.7 607.5L1666 554.2L1667.3 598.7L1668.7 621L1670 618.9L1671.3 484.9L1672.7 531.9L1674 577.2L1675.3 598.2L1676.7 643.5L1678 526L1679.3 678.3L1680.7 631.1L1682 707.7L1683.3 617.8L1684.7 706.9L1686 712.2L1687.3 736.6L1688.7 728.4L1690 703.2L1691.3 695.8L1692.7 705.6L1694 730.3L1695.3 757.1L1696.7 741.9L1698 -275.5L1699.3 289.5L1700.7 -91.2L1702 408.3L1703.3 91.3L1704.7 457.1L1706 52.3L1707.3 369.8L1708.7 160.5L1710 501.6L1711.3 192.9L1712.7 430L1714 216.2L1715.3 447L1716.7 255.8L1718 470.6L1719.3 280.4L1720.7 532.1L1722 333.7L1723.3 483.3L1724.7 379.9L1726 561.3L1727.3 357.9L1728.7 564L1730 376.4L1731.3 598.7L1732.7 421L1734 612.2L1735.3 319.7L1736.7 605.6L1738 469.3L1739.3 604.3L1740.7 395.3L1742 580.9L1743.3 551L1744.7 620.2L1746 550.7L1747.3 549.1L1748.7 558.9L1750 587.6L1751.3 586.8L1752.7 625L1754 640.6L1755.3 647.3L1756.7 646.5L1758 658.4L1759.3 592.1L1760.7 645.1L1762 680.1L1763.3 602.7L1764.7 752.8L1766 609.1L1767.3 684.9L1768.7 680.9L1770 748.6L1771.3 738.2L1772.7 680.9L1774 708.5L1775.3 740.6L1776.7 741.4L1778 -545L1779.3 244.9L1780.7 -67L1782 218.6L1783.3 -260.4L1784.7 378.6L1786 67.7L1787.3 502.7L1788.7 -135.7L1790 459.5L1791.3 165.1L1792.7 526.8L1794 65.9L1795.3 469L1796.7 245.4L1798 584.9L1799.3 269.6" fill="transparent" stroke="#6be6c1" stroke-width="3" stroke-linejoin="bevel" class="zr42-cls-128"></path>
</g>
<g clip-path="url(#zr42-c2)">
<path d="M200.7 -194.6L202 -189.3L203.3 290.8L204.7 201.9L206 439.8L207.3 310.9L208.7 553.9L210 301.4L211.3 458.1L212.7 317.8L214 528.2L215.3 239.9L216.7 505.1L218 360.8L219.3 562.6L220.7 408.3L222 577.2L223.3 517.6L224.7 570.3L226 423.4L227.3 531.1L228.7 562.1L230 587.6L231.3 243.6L232.7 576.4L234 608.8L235.3 599.5L236.7 666.9L238 536.4L239.3 630.5L240.7 614.1L242 665.8L243.3 612.5L244.7 713.8L246 571.1L247.3 653.9L248.7 633.2L250 693.7L251.3 678L252.7 648.6L254 681.5L255.3 732.7L256.7 539.3L258 -374.4L259.3 45.4L260.7 -203.6L262 331.6L263.3 -238.1L264.7 274.9L266 -521.9L267.3 307.8L268.7 -23.5L270 294.2L271.3 35.4L272.7 164.5L274 -19L275.3 391L276.7 -0.7L278 373L279.3 -14L280.7 372.7L282 88.1L283.3 421.8L284.7 -92L286 367.4L287.3 248.1L288.7 386.8L290 285.2L291.3 244.1L292.7 225.3L294 462.7L295.3 286.8L296.7 455.5L298 250.5L299.3 456.3L300.7 356L302 453.6L303.3 110.1L304.7 385.5L306 479.9L307.3 434.8L308.7 483.9L310 530.8L311.3 509.3L312.7 541.4L314 531.3L315.3 464L316.7 562.6L318 491L319.3 635.3L320.7 465L322 647.5L323.3 613.8L324.7 689.4L326 625.8L327.3 675.6L328.7 616L330 691.3L331.3 640.9L332.7 658.7L334 665.3L335.3 686.5L336.7 698.4L338 -526.7L339.3 86.8L340.7 -418.2L342 226.3L343.3 -112.9L344.7 232.2L346 36.9L347.3 473.3L348.7 127.4L350 402.4L351.3 84.4L352.7 529L354 154.7L355.3 394.7L356.7 231.1L358 510.1L359.3 227.6L360.7 452.8L362 251.3L363.3 513L364.7 289.2L366 402.4L367.3 309.9L368.7 537.7L370 352L371.3 519.1L372.7 371.4L374 566.4L375.3 374.3L376.7 504.6L378 399.8L379.3 591.6L380.7 508.3L382 521.8L383.3 441.4L384.7 585.2L386 535.9L387.3 600.3L388.7 610.9L390 585.2L391.3 572.2L392.7 596.9L394 559.7L395.3 561.1L396.7 649.4L398 620.5L399.3 604.8L400.7 639L402 717.3L403.3 634L404.7 685.7L406 594.7L407.3 708.8L408.7 696.6L410 650.7L411.3 667.7L412.7 699L414 692.1L415.3 693.7L416.7 727.1L418 -312.6L419.3 242.2L420.7 -22.5L422 468.5L423.3 73L424.7 447L426 65.9L427.3 482.8L428.7 113.3L430 470.9L431.3 55.8L432.7 481.2L434 192.4L435.3 484.9L436.7 195.6L438 532.9L439.3 215.7L440.7 518.4L442 279.1L443.3 495.8L444.7 93.2L446 479.1L447.3 263.2L448.7 564.2L450 244.1L451.3 394.2L452.7 267.4L454 540.6L455.3 257.4L456.7 509.6L458 381.2L459.3 554.2L460.7 379.6L462 531.9L463.3 464L464.7 494.2L466 365L467.3 549.4L468.7 549.1L470 574.1L471.3 402.2L472.7 589.4L474 599.2L475.3 577L476.7 554.2L478 533.2L479.3 629L480.7 615.4L482 658.4L483.3 630.5L484.7 708.3L486 670.9L487.3 678.6L488.7 693.9L490 653.6L491.3 681.7L492.7 688.4L494 734.8L495.3 711.2L496.7 743L498 -332.5L499.3 37.2L500.7 -193L502 290.8L503.3 -23.5L504.7 271.9L506 11.2L507.3 440.1L508.7 -407.3L510 406.4L511.3 111.2L512.7 441.2L514 -66.2L515.3 486L516.7 165.3L518 506.7L519.3 -27.8L520.7 2.2L522 139.9L523.3 471.4L524.7 -23.3L526 509.1L527.3 297.9L528.7 539.6L530 231.1L531.3 519.7L532.7 351.3L534 394.5L535.3 225.5L536.7 526.8L538 321.3L539.3 590.8L540.7 407.2L542 508.5L543.3 435.1L544.7 582L546 426L547.3 551L548.7 568L550 595.3L551.3 470.6L552.7 446.7L554 568.7L555.3 584.7L556.7 568.2L558 600.6L559.3 686L560.7 585.5L562 700.6L563.3 622.9L564.7 674.3L566 654.9L567.3 684.1L568.7 679.1L570 691.6L571.3 692.1L572.7 685.5L574 709.9L575.3 659.5L576.7 757.9L578 -328.3L579.3 -50.1L580.7 -194.1L582 325.5L583.3 -254L584.7 291.8L586 -8.1L587.3 257.4L588.7 -82.4L590 195.6L591.3 -95.1L592.7 431.6L594 9.1L595.3 222.6L596.7 -45L598 328.4L599.3 75.1L600.7 388.4L602 -42.6L603.3 410.1L604.7 195.6L606 340.1L607.3 103L608.7 384.1L610 141.7L611.3 461.6L612.7 264.5L614 475.6L615.3 298.7L616.7 430.8L618 5.6L619.3 477.2L620.7 439.6L622 481.5L623.3 397.9L624.7 455.2L626 490.8L627.3 490.2L628.7 519.9L630 371.9L631.3 532.4L632.7 564L634 522.1L635.3 550.7L636.7 598.7L638 409.6L639.3 596.1L640.7 569L642 640.1L643.3 561.8L644.7 643.8L646 631.1L647.3 668.2L648.7 636.6L650 709.6L651.3 683.3L652.7 664.8L654 655.2L655.3 671.9L656.7 736.9L658 -982.9L659.3 -46.6L660.7 -514L662 165.1L663.3 -295.1L664.7 315.7L666 -92.8L667.3 376.2L668.7 -164.1L670 193.7L671.3 69L672.7 449.1L674 161.9L675.3 387.9L676.7 113.1L678 439.8L679.3 216.8L680.7 474.6L682 177L683.3 472.7L684.7 288.7L686 136.9L687.3 242.8L688.7 536.9L690 -115.3L691.3 443.3L692.7 263.2L694 524.7L695.3 307.2L696.7 504.3L698 396.6L699.3 464L700.7 204.3L702 474.9L703.3 514.9L704.7 516.8L706 452.3L707.3 562.4L708.7 510.7L710 564.2L711.3 523.7L712.7 595.5L714 548.6L715.3 617.3L716.7 575.1L718 553.4L719.3 662.9L720.7 618.3L722 667.4L723.3 635.9L724.7 694.5L726 651.5L727.3 674.3L728.7 665.8L730 608.8L731.3 688.6L732.7 523.7L734 728.4L735.3 716.2L736.7 749.6L738 -652.9L739.3 74.3L740.7 -235.5L742 342.2L743.3 -278.4L744.7 125.5L746 -29.9L747.3 357.9L748.7 -209.7L750 395L751.3 53.7L752.7 470.9L754 29L755.3 407.7L756.7 94.2L758 443L759.3 103.3L760.7 487.8L762 148.6L763.3 538.8L764.7 177.5L766 456.6L767.3 282.8L768.7 373.3L770 290.5L771.3 529L772.7 321.8L774 470.6L775.3 64.5L776.7 565.6L778 331.4L779.3 506.4L780.7 461.6L782 551.5L783.3 343.6L784.7 473.5L786 408.5L787.3 570.9L788.7 582.5L790 294.8L791.3 543.8L792.7 566.1L794 598.5L795.3 598.7L796.7 646.7L798 564.2L799.3 609.9L800.7 662.6L802 672.7L803.3 586.3L804.7 668.2L806 654.7L807.3 666.6L808.7 670.3L810 680.9L811.3 693.7L812.7 656.3L814 736.1L815.3 744.3L816.7 747.3L818 -548.7L819.3 74.6L820.7 -191.4L822 325.3L823.3 -362.2L824.7 330.6L826 -12.4L827.3 344.1L828.7 -63.1L830 399.3L831.3 5.1L832.7 468.8L834 61.9L835.3 456.6L836.7 -16.6L838 214.7L839.3 127.1L840.7 410.1L842 123.1L843.3 461.1L844.7 217L846 430.8L847.3 323.7L848.7 485.5L850 300.9L851.3 487.3L852.7 355.2L854 517L855.3 390.2L856.7 528.2L858 391.8L859.3 369.3L860.7 377.2L862 531.1L863.3 497.4L864.7 535.6L866 548.9L867.3 559.5L868.7 400.9L870 484.4L871.3 587L872.7 554.7L874 587.3L875.3 584.4L876.7 544.6L878 589.2L879.3 672.5L880.7 624.7L882 670.1L883.3 641.2L884.7 701.1L886 621.8L887.3 684.9L888.7 690L890 681.2L891.3 682.3L892.7 662.4L894 727.1L895.3 683.9L896.7 704.8L898 -782.9L899.3 124.5L900.7 -301.8L902 318.1L903.3 -210.5L904.7 289.5L906 -190.1L907.3 252.3L908.7 -210.5L910 316.2L911.3 -408.9L912.7 345.9L914 31.9L915.3 339.8L916.7 20.2L918 340.4L919.3 -155.6L920.7 217.3L922 -107.3L923.3 49.9L924.7 3.8L926 411.5L927.3 126.3L928.7 420.2L930 150.7L931.3 429L932.7 -67L934 443L935.3 345.7L936.7 471.9L938 310.9L939.3 381.8L940.7 381.2L942 452L943.3 382L944.7 520.2L946 413.8L947.3 462.7L948.7 468.8L950 487.8L951.3 521.8L952.7 472.2L954 517L955.3 452.8L956.7 524.2L958 496.1L959.3 580.2L960.7 572.5L962 613L963.3 600L964.7 652.6L966 623.4L967.3 617L968.7 580.4L970 655.2L971.3 687.6L972.7 682.3L974 714.9L975.3 614.6L976.7 717.5L978 -463.8L979.3 -36L980.7 -275.8L982 177.3L983.3 -215.8L984.7 259.7L986 0.3L987.3 126.3L988.7 -23L990 378L991.3 -491.7L992.7 416.2L994 97.4L995.3 451L996.7 101.4L998 494.5L999.3 254.4L1000.7 429.2L1002 178.6L1003.3 482L1004.7 148.3L1006 518.4L1007.3 164L1008.7 497.9L1010 187.6L1011.3 489.2L1012.7 235.6L1014 546.5L1015.3 399.5L1016.7 336.1L1018 376.7L1019.3 565.8L1020.7 478.3L1022 582.5L1023.3 425.3L1024.7 587.6L1026 565.8L1027.3 566.4L1028.7 501.6L1030 579.6L1031.3 573.8L1032.7 620.5L1034 588.1L1035.3 547.5L1036.7 616.2L1038 606.1L1039.3 640.1L1040.7 605.9L1042 701.6L1043.3 668.2L1044.7 662.9L1046 686.8L1047.3 695.5L1048.7 672.5L1050 693.1L1051.3 681.5L1052.7 671.4L1054 697.7L1055.3 710.9L1056.7 755.2L1058 -422.4L1059.3 229L1060.7 -69.2L1062 348.1L1063.3 -25.9L1064.7 408.3L1066 63.7L1067.3 449.7L1068.7 68L1070 443.6L1071.3 126.9L1072.7 496.9L1074 192.1L1075.3 523.7L1076.7 171.2L1078 527.9L1079.3 257.1L1080.7 497.1L1082 263.2L1083.3 521L1084.7 309.6L1086 503.5L1087.3 325L1088.7 582.3L1090 308L1091.3 551.2L1092.7 394.2L1094 573.8L1095.3 272.2L1096.7 576.4L1098 363.5L1099.3 600.8L1100.7 357.6L1102 494.5L1103.3 513.8L1104.7 515.4L1106 461.9L1107.3 563.7L1108.7 503.5L1110 576.7L1111.3 500.8L1112.7 534.5L1114 539.8L1115.3 613.6L1116.7 567.7L1118 326.6L1119.3 680.1L1120.7 615.4L1122 669.3L1123.3 618.6L1124.7 637.2L1126 683.3L1127.3 623.9L1128.7 640.9L1130 696.3L1131.3 704L1132.7 604.3L1134 684.7L1135.3 699.2L1136.7 760.5L1138 -743.1L1139.3 70.4L1140.7 -329.6L1142 316L1143.3 -372.6L1144.7 282.8L1146 21.3L1147.3 161.6L1148.7 27.4L1150 390.8L1151.3 86.5L1152.7 257.4L1154 51.8L1155.3 413.8L1156.7 110.4L1158 168.8L1159.3 183.1L1160.7 458.7L1162 234.8L1163.3 398.5L1164.7 220.5L1166 506.4L1167.3 352.8L1168.7 473L1170 254.2L1171.3 506.1L1172.7 359.7L1174 518.9L1175.3 262.7L1176.7 563.4L1178 432.7L1179.3 507.2L1180.7 419.2L1182 563.4L1183.3 552.6L1184.7 560L1186 521.3L1187.3 542.2L1188.7 568.7L1190 531.6L1191.3 555.5L1192.7 568L1194 601.6L1195.3 455.5L1196.7 615.7L1198 593.1L1199.3 641.7L1200.7 548.9L1202 397.1L1203.3 634.8L1204.7 707.5L1206 510.9L1207.3 662.9L1208.7 682L1210 682.3L1211.3 721L1212.7 690.5L1214 712.5L1215.3 714.4L1216.7 770.9L1218 -493.5L1219.3 156.6L1220.7 -345.3L1222 135.6L1223.3 -125.9L1224.7 286.3L1226 -134.1L1227.3 364.5L1228.7 -82.9L1230 309.1L1231.3 -381.1L1232.7 319.7L1234 -41.3L1235.3 357.1L1236.7 20.2L1238 321.3L1239.3 44.4L1240.7 233.5L1242 -1686.6L1243.3 -265.4L1244.7 -571.2L1246 22.1L1247.3 -518.5L1248.7 175.4L1250 -8.9L1251.3 30L1252.7 86.8L1254 154.4L1255.3 -29.1L1256.7 250.2L1258 113.1L1259.3 369.6L1260.7 203.2L1262 246.7L1263.3 -41.3L1264.7 297.1L1266 276.5L1267.3 361.9L1268.7 434L1270 391.3L1271.3 -274.4L1272.7 138.5L1274 442.8L1275.3 76.5L1276.7 440.9L1278 473.5L1279.3 609.3L1280.7 253.1L1282 522.9L1283.3 342.5L1284.7 644.1L1286 486L1287.3 638L1288.7 579.9L1290 648.1L1291.3 642.5L1292.7 632.4L1294 705.9L1295.3 691L1296.7 698.4L1298 -776.3L1299.3 -7.6L1300.7 -522.2L1302 205.9L1303.3 -204.4L1304.7 255.2L1306 -92.2L1307.3 426L1308.7 -273.6L1310 395.8L1311.3 2.5L1312.7 470.6L1314 -43.2L1315.3 422.9L1316.7 203.8L1318 403.5L1319.3 144.6L1320.7 431.1L1322 233.2L1323.3 364.8L1324.7 209.9L1326 464.2L1327.3 310.7L1328.7 190.3L1330 262.4L1331.3 521.8L1332.7 332.9L1334 474.9L1335.3 386.8L1336.7 521.3L1338 357.9L1339.3 467.2L1340.7 481.2L1342 530.3L1343.3 526.3L1344.7 502.4L1346 496.1L1347.3 584.9L1348.7 543.3L1350 485.5L1351.3 534.3L1352.7 569L1354 615.4L1355.3 573.3L1356.7 575.6L1358 604.8L1359.3 675.9L1360.7 533.5L1362 629L1363.3 623.1L1364.7 729.7L1366 592.1L1367.3 688.4L1368.7 652.6L1370 700.3L1371.3 630L1372.7 699.5L1374 719.9L1375.3 742.2L1376.7 738.2L1378 -464.6L1379.3 96.1L1380.7 -139.7L1382 161.6L1383.3 -49L1384.7 342L1386 -98.1L1387.3 351L1388.7 -12.9L1390 415.4L1391.3 -419L1392.7 357.9L1394 63.5L1395.3 417.6L1396.7 14.7L1398 414.1L1399.3 225.8L1400.7 330.8L1402 222.9L1403.3 512.3L1404.7 315.2L1406 384.9L1407.3 217.6L1408.7 521.3L1410 332.7L1411.3 461.9L1412.7 295L1414 565.3L1415.3 401.4L1416.7 501.9L1418 349.4L1419.3 588.1L1420.7 464.2L1422 487.1L1423.3 466.1L1424.7 508.8L1426 383.3L1427.3 483.3L1428.7 562.4L1430 599.5L1431.3 544.1L1432.7 562.1L1434 624.2L1435.3 591.3L1436.7 378.6L1438 572.7L1439.3 666.1L1440.7 653.9L1442 684.9L1443.3 579.4L1444.7 693.7L1446 663.4L1447.3 618.9L1448.7 601.9L1450 587.8L1451.3 584.4L1452.7 564.8L1454 608.3L1455.3 610.4L1456.7 686L1458 -769.1L1459.3 -278.7L1460.7 -711.3L1462 131.9L1463.3 -1485.5L1464.7 -275.8L1466 -288.2L1467.3 266.6L1468.7 -59.9L1470 371.1L1471.3 -181.1L1472.7 383.9L1474 48.9L1475.3 442.8L1476.7 33L1478 465.3L1479.3 168.8L1480.7 209.1L1482 -6.6L1483.3 417L1484.7 278L1486 341.4L1487.3 247.3L1488.7 500.6L1490 358.9L1491.3 347.3L1492.7 263.5L1494 548.1L1495.3 410.1L1496.7 412.8L1498 390.8L1499.3 538.5L1500.7 465L1502 479.1L1503.3 368.5L1504.7 564.5L1506 545.9L1507.3 445.9L1508.7 541.4L1510 549.9L1511.3 255L1512.7 552.3L1514 563.4L1515.3 580.9L1516.7 551.5L1518 512.5L1519.3 642.2L1520.7 552.8L1522 551.8L1523.3 596.3L1524.7 667.4L1526 652.8L1527.3 644.3L1528.7 639L1530 697.4L1531.3 704.3L1532.7 543.3L1534 653.6L1535.3 726L1536.7 714.4L1538 -481.9L1539.3 -4.2L1540.7 -237.3L1542 343L1543.3 -241.6L1544.7 275.9L1546 -568.9L1547.3 317.6L1548.7 -37.6L1550 300.1L1551.3 -28.6L1552.7 305.9L1554 55.2L1555.3 170.6L1556.7 -23L1558 136.9L1559.3 36.9L1560.7 378.3L1562 -31.2L1563.3 381.2L1564.7 52.1L1566 396.6L1567.3 -243.7L1568.7 416.2L1570 246.2L1571.3 377.2L1572.7 220.2L1574 309.1L1575.3 282.6L1576.7 424.5L1578 225L1579.3 464.2L1580.7 351.3L1582 481.7L1583.3 214.7L1584.7 495.3L1586 481.5L1587.3 464.5L1588.7 528.4L1590 501.1L1591.3 505.6L1592.7 510.9L1594 553.6L1595.3 531.6L1596.7 489.2L1598 503.5L1599.3 604.8L1600.7 529L1602 640.9L1603.3 551.5L1604.7 675.1L1606 535.1L1607.3 637.2L1608.7 490.5L1610 633.7L1611.3 624.2L1612.7 695.3L1614 618.6L1615.3 687.3L1616.7 671.7L1618 -437.3L1619.3 28.7L1620.7 -332L1622 271.4L1623.3 8.6L1624.7 425L1626 -3.6L1627.3 426.8L1628.7 126.9L1630 349.7L1631.3 78.3L1632.7 422.6L1634 79.6L1635.3 473.3L1636.7 -1.3L1638 449.1L1639.3 150.7L1640.7 210.7L1642 133.8L1643.3 472.5L1644.7 336.1L1646 494.7L1647.3 296.9L1648.7 554.4L1650 362.4L1651.3 402.7L1652.7 373.5L1654 582L1655.3 408.8L1656.7 277L1658 377.8L1659.3 608.3L1660.7 413.8L1662 584.7L1663.3 485.2L1664.7 561.8L1666 505.9L1667.3 578.8L1668.7 535.1L1670 621L1671.3 526.3L1672.7 573.3L1674 539.6L1675.3 581.7L1676.7 674.3L1678 619.9L1679.3 614.6L1680.7 627.1L1682 600.6L1683.3 670.9L1684.7 621.5L1686 639.3L1687.3 648.8L1688.7 723.4L1690 732.7L1691.3 683.9L1692.7 718.3L1694 706.7L1695.3 714.1L1696.7 763.2L1698 -450.8L1699.3 44.1L1700.7 -335.7L1702 292.9L1703.3 -65.2L1704.7 370.6L1706 107L1707.3 277.2L1708.7 77.5L1710 483.3L1711.3 76.7L1712.7 443.8L1714 178.3L1715.3 492.1L1716.7 251.5L1718 461.1L1719.3 261.3L1720.7 516.8L1722 323.4L1723.3 410.1L1724.7 245.2L1726 513.3L1727.3 274.6L1728.7 453.9L1730 352L1731.3 569.3L1732.7 360L1734 496.6L1735.3 327.6L1736.7 536.9L1738 334.5L1739.3 482.8L1740.7 423.7L1742 537.2L1743.3 477.2L1744.7 473.8L1746 551.2L1747.3 540.6L1748.7 593.9L1750 516.8L1751.3 576.4L1752.7 572.5L1754 616.2L1755.3 551.5L1756.7 672.2L1758 577.2L1759.3 629.8L1760.7 616.2L1762 697.4L1763.3 617.3L1764.7 723.1L1766 592.9L1767.3 719.9L1768.7 693.7L1770 699.8L1771.3 597.7L1772.7 667.7L1774 451L1775.3 727.4L1776.7 730.3L1778 -860.6L1779.3 120L1780.7 -191.4L1782 374.9L1783.3 -246.3L1784.7 292.1L1786 51.3L1787.3 438.5L1788.7 -24.3L1790 390.5L1791.3 79.1L1792.7 501.9L1794 103.5L1795.3 342.8L1796.7 220L1798 499.8L1799.3 179.6" fill="transparent" stroke="#626c91" stroke-width="3" stroke-linejoin="bevel" class="zr42-cls-128"></path>
</g>
<path d="M-298.8 -5l597.7 0l0 28l-597.7 0Z" transform="translate(1000 5)" fill="rgb(0,0,0)" fill-opacity="0" stroke="#ccc" stroke-width="0" class="zr42-cls-126"></path>
<text dominant-baseline="central" text-anchor="middle" style="font-size:18px;font-family:sans-serif;font-weight:bold;" xml:space="preserve" y="9" transform="translate(1000 5)" fill="#666666">transportLinesUpdate per Tick for bench_1_every_60_staggered_reverse</text>
<defs >
<clipPath id="zr42-c0">
<path d="M198 58.5l16004 0l0 8703l-16004 0Z" fill="#000" class="zr42-cls-127"></path>
</clipPath>
<clipPath id="zr42-c1">
<path d="M198 58.5l16004 0l0 8703l-16004 0Z" fill="#000" class="zr42-cls-127"></path>
</clipPath>
<clipPath id="zr42-c2">
<path d="M198 58.5l16004 0l0 8703l-16004 0Z" fill="#000" class="zr42-cls-127"></path>
</clipPath>
</defs>
<style ><![CDATA[
.zr42-cls-126:hover {
pointer-events:none;
}
.zr42-cls-127:hover {
cursor:pointer;
fill:rgba(0,0,0,1);
}
.zr42-cls-128:hover {
cursor:pointer;
}

]]>

</style>
</svg>