<svg width="2000" height="1000" xmlns="http://www.w3.org/2000/svg" xmlns:xlink="http://www.w3.org/1999/xlink" version="1.1" baseProfile="full" viewBox="0 0 2000 1000">
<rect width="2000" height="1000" x="0" y="0" fill="rgb(252,252,252)" fill-opacity="0"></rect>
<path d="M200 930.5L1800 930.5" fill="transparent" stroke="#eeeeee" class="zr33-cls-99"></path>
<path d="M200 772.5L1800 772.5" fill="transparent" stroke="#eeeeee" class="zr33-cls-99"></path>
<path d="M200 614.5L1800 614.5" fill="transparent" stroke="#eeeeee" class="zr33-cls-99"></path>
<path d="M200 457.5L1800 457.5" fill="transparent" stroke="#eeeeee" class="zr33-cls-99"></path>
<path d="M200 299.5L1800 299.5" fill="transparent" stroke="#eeeeee" class="zr33-cls-99"></path>
<path d="M200 141.5L1800 141.5" fill="transparent" stroke="#eeeeee" class="zr33-cls-99"></path>
<path d="M200 60.5L1800 60.5" fill="transparent" stroke="#eeeeee" class="zr33-cls-99"></path>
<path d="M200.5 930L200.5 60" fill="transparent" stroke="#cccccc" stroke-linecap="round" class="zr33-cls-99"></path>
<text dominant-baseline="central" text-anchor="middle" style="font-size:12px;font-family:sans-serif;" xml:space="preserve" y="-6" transform="translate(200 45)" fill="#cccccc">Min wholeUpdate Time (ms)</text>
<path d="M200 930.5L1800 930.5" fill="transparent" stroke="#cccccc" stroke-linecap="round" class="zr33-cls-99"></path>
<text dominant-baseline="central" text-anchor="end" style="font-size:12px;font-family:sans-serif;" transform="translate(192 930)" fill="#999999">0.000</text>
<text dominant-baseline="central" text-anchor="end" style="font-size:12px;font-family:sans-serif;" transform="translate(192 772.2886)" fill="#999999">1.000</text>
<text dominant-baseline="central" text-anchor="end" style="font-size:12px;font-family:sans-serif;" transform="translate(192 614.5773)" fill="#999999">2.000</text>
<text dominant-baseline="central" text-anchor="end" style="font-size:12px;font-family:sans-serif;" transform="translate(192 456.8659)" fill="#999999">3.000</text>
<text dominant-baseline="central" text-anchor="end" style="font-size:12px;font-family:sans-serif;" transform="translate(192 299.1546)" fill="#999999">4.000</text>
<text dominant-baseline="central" text-anchor="end" style="font-size:12px;font-family:sans-serif;" transform="translate(192 141.4432)" fill="#999999">5.000</text>
<text dominant-baseline="central" text-anchor="end" style="font-size:12px;font-family:sans-serif;" transform="translate(192 60)" fill="#999999">5.516</text>
<text dominant-baseline="central" text-anchor="middle" style="font-size:12px;font-family:sans-serif;" y="6" transform="translate(200.6667 938)" fill="#999999">0</text>
<text dominant-baseline="central" text-anchor="middle" style="font-size:12px;font-family:sans-serif;" y="6" transform="translate(236.6667 938)" fill="#999999">27</text>
<text dominant-baseline="central" text-anchor="middle" style="font-size:12px;font-family:sans-serif;" y="6" transform="translate(272.6667 938)" fill="#999999">54</text>
<text dominant-baseline="central" text-anchor="middle" style="font-size:12px;font-family:sans-serif;" y="6" transform="translate(308.6667 938)" fill="#999999">81</text>
<text dominant-baseline="central" text-anchor="middle" style="font-size:12px;font-family:sans-serif;" y="6" transform="translate(344.6667 938)" fill="#999999">108</text>
<text dominant-baseline="central" text-anchor="middle" style="font-size:12px;font-family:sans-serif;" y="6" transform="translate(380.6667 938)" fill="#999999">135</text>
<text dominant-baseline="central" text-anchor="middle" style="font-size:12px;font-family:sans-serif;" y="6" transform="translate(416.6667 938)" fill="#999999">162</text>
<text dominant-baseline="central" text-anchor="middle" style="font-size:12px;font-family:sans-serif;" y="6" transform="translate(452.6667 938)" fill="#999999">189</text>
<text dominant-baseline="central" text-anchor="middle" style="font-size:12px;font-family:sans-serif;" y="6" transform="translate(488.6667 938)" fill="#999999">216</text>
<text dominant-baseline="central" text-anchor="middle" style="font-size:12px;font-family:sans-serif;" y="6" transform="translate(524.6667 938)" fill="#999999">243</text>
<text dominant-baseline="central" text-anchor="middle" style="font-size:12px;font-family:sans-serif;" y="6" transform="translate(560.6667 938)" fill="#999999">270</text>
<text dominant-baseline="central" text-anchor="middle" style="font-size:12px;font-family:sans-serif;" y="6" transform="translate(596.6667 938)" fill="#999999">297</text>
<text dominant-baseline="central" text-anchor="middle" style="font-size:12px;font-family:sans-serif;" y="6" transform="translate(632.6667 938)" fill="#999999">324</text>
<text dominant-baseline="central" text-anchor="middle" style="font-size:12px;font-family:sans-serif;" y="6" transform="translate(668.6667 938)" fill="#999999">351</text>
<text dominant-baseline="central" text-anchor="middle" style="font-size:12px;font-family:sans-serif;" y="6" transform="translate(704.6667 938)" fill="#999999">378</text>
<text dominant-baseline="central" text-anchor="middle" style="font-size:12px;font-family:sans-serif;" y="6" transform="translate(740.6667 938)" fill="#999999">405</text>
<text dominant-baseline="central" text-anchor="middle" style="font-size:12px;font-family:sans-serif;" y="6" transform="translate(776.6667 938)" fill="#999999">432</text>
<text dominant-baseline="central" text-anchor="middle" style="font-size:12px;font-family:sans-serif;" y="6" transform="translate(812.6667 938)" fill="#999999">459</text>
<text dominant-baseline="central" text-anchor="middle" style="font-size:12px;font-family:sans-serif;" y="6" transform="translate(848.6667 938)" fill="#999999">486</text>
<text dominant-baseline="central" text-anchor="middle" style="font-size:12px;font-family:sans-serif;" y="6" transform="translate(884.6667 938)" fill="#999999">513</text>
<text dominant-baseline="central" text-anchor="middle" style="font-size:12px;font-family:sans-serif;" y="6" transform="translate(920.6667 938)" fill="#999999">540</text>
<text dominant-baseline="central" text-anchor="middle" style="font-size:12px;font-family:sans-serif;" y="6" transform="translate(956.6667 938)" fill="#999999">567</text>
<text dominant-baseline="central" text-anchor="middle" style="font-size:12px;font-family:sans-serif;" y="6" transform="translate(992.6667 938)" fill="#999999">594</text>
<text dominant-baseline="central" text-anchor="middle" style="font-size:12px;font-family:sans-serif;" y="6" transform="translate(1028.6667 938)" fill="#999999">621</text>
<text dominant-baseline="central" text-anchor="middle" style="font-size:12px;font-family:sans-serif;" y="6" transform="translate(1064.6667 938)" fill="#999999">648</text>
<text dominant-baseline="central" text-anchor="middle" style="font-size:12px;font-family:sans-serif;" y="6" transform="translate(1100.6667 938)" fill="#999999">675</text>
<text dominant-baseline="central" text-anchor="middle" style="font-size:12px;font-family:sans-serif;" y="6" transform="translate(1136.6667 938)" fill="#999999">702</text>
<text dominant-baseline="central" text-anchor="middle" style="font-size:12px;font-family:sans-serif;" y="6" transform="translate(1172.6667 938)" fill="#999999">729</text>
<text dominant-baseline="central" text-anchor="middle" style="font-size:12px;font-family:sans-serif;" y="6" transform="translate(1208.6667 938)" fill="#999999">756</text>
<text dominant-baseline="central" text-anchor="middle" style="font-size:12px;font-family:sans-serif;" y="6" transform="translate(1244.6667 938)" fill="#999999">783</text>
<text dominant-baseline="central" text-anchor="middle" style="font-size:12px;font-family:sans-serif;" y="6" transform="translate(1280.6667 938)" fill="#999999">810</text>
<text dominant-baseline="central" text-anchor="middle" style="font-size:12px;font-family:sans-serif;" y="6" transform="translate(1316.6667 938)" fill="#999999">837</text>
<text dominant-baseline="central" text-anchor="middle" style="font-size:12px;font-family:sans-serif;" y="6" transform="translate(1352.6667 938)" fill="#999999">864</text>
<text dominant-baseline="central" text-anchor="middle" style="font-size:12px;font-family:sans-serif;" y="6" transform="translate(1388.6667 938)" fill="#999999">891</text>
<text dominant-baseline="central" text-anchor="middle" style="font-size:12px;font-family:sans-serif;" y="6" transform="translate(1424.6667 938)" fill="#999999">918</text>
<text dominant-baseline="central" text-anchor="middle" style="font-size:12px;font-family:sans-serif;" y="6" transform="translate(1460.6667 938)" fill="#999999">945</text>
<text dominant-baseline="central" text-anchor="middle" style="font-size:12px;font-family:sans-serif;" y="6" transform="translate(1496.6667 938)" fill="#999999">972</text>
<text dominant-baseline="central" text-anchor="middle" style="font-size:12px;font-family:sans-serif;" y="6" transform="translate(1532.6667 938)" fill="#999999">999</text>
<text dominant-baseline="central" text-anchor="middle" style="font-size:12px;font-family:sans-serif;" y="6" transform="translate(1568.6667 938)" fill="#999999">1026</text>
<text dominant-baseline="central" text-anchor="middle" style="font-size:12px;font-family:sans-serif;" y="6" transform="translate(1604.6667 938)" fill="#999999">1053</text>
<text dominant-baseline="central" text-anchor="middle" style="font-size:12px;font-family:sans-serif;" y="6" transform="translate(1640.6667 938)" fill="#999999">1080</text>
<text dominant-baseline="central" text-anchor="middle" style="font-size:12px;font-family:sans-serif;" y="6" transform="translate(1676.6667 938)" fill="#999999">1107</text>
<text dominant-baseline="central" text-anchor="middle" style="font-size:12px;font-family:sans-serif;" y="6" transform="translate(1712.6667 938)" fill="#999999">1134</text>
<text dominant-baseline="central" text-anchor="middle" style="font-size:12px;font-family:sans-serif;" y="6" transform="translate(1748.6667 938)" fill="#999999">1161</text>
<text dominant-baseline="central" text-anchor="middle" style="font-size:12px;font-family:sans-serif;" y="6" transform="translate(1784.6667 938)" fill="#999999">1188</text>
<g clip-path="url(#zr33-c0)">
<path d="M200.7 604.2L202 738.5L203.3 821.4L204.7 790.9L206 829.9L207.3 774.1L208.7 829.4L210 790.4L211.3 831.2L212.7 791.7L214 827.4L215.3 798.6L216.7 821.3L218 -133.8L219.3 -1979.5L220.7 336L222 781.9L223.3 779.4L224.7 818.9L226 770.4L227.3 819.1L228.7 771.1L230 810.4L231.3 781.9L232.7 826.2L234 788.3L235.3 827.3L236.7 778.7L238 827.7L239.3 788.2L240.7 824.5L242 793.3L243.3 819.9L244.7 789.3L246 822.4L247.3 789.2L248.7 820.8L250 793.8L251.3 829.1L252.7 790.6L254 825.2L255.3 793.7L256.7 828.5L258 793.2L259.3 828.4L260.7 779.8L262 822.8L263.3 790.8L264.7 831.6L266 796.8L267.3 828.6L268.7 785.2L270 827.9L271.3 796.3L272.7 828.9L274 798L275.3 831L276.7 797.6L278 824.8L279.3 782.4L280.7 810.8L282 796.5L283.3 829.9L284.7 799.2L286 832.7L287.3 799.4L288.7 826.2L290 798.8L291.3 831.8L292.7 800.2L294 828.1L295.3 796.6L296.7 834.5L298 -31.5L299.3 -1943.6L300.7 409.8L302 573.5L303.3 583L304.7 -3540.6L306 -1462.4L307.3 273.7L308.7 467.2L310 605.6L311.3 723.6L312.7 804.5L314 776.5L315.3 815.3L316.7 773.7L318 821.5L319.3 796.7L320.7 828.5L322 786L323.3 828.6L324.7 792.8L326 823.9L327.3 786.1L328.7 820.1L330 786.8L331.3 825.5L332.7 792.6L334 827.7L335.3 795.6L336.7 829.5L338 792.7L339.3 824.1L340.7 789.3L342 819.9L343.3 789.6L344.7 827L346 801L347.3 827.8L348.7 788.6L350 825.8L351.3 795.3L352.7 829.6L354 796.7L355.3 825.5L356.7 795.9L358 828.8L359.3 797.6L360.7 830.2L362 802.1L363.3 830.9L364.7 796.9L366 833.3L367.3 795.9L368.7 815.9L370 793.3L371.3 828.4L372.7 800.9L374 824.1L375.3 803.9L376.7 832.8L378 -30.9L379.3 -1958.4L380.7 378.4L382 765.3L383.3 756.9L384.7 812.2L386 770.4L387.3 821.5L388.7 768.7L390 816.7L391.3 781.9L392.7 811.6L394 761.2L395.3 817L396.7 774.2L398 827.4L399.3 798L400.7 825.6L402 788.3L403.3 825.3L404.7 790.4L406 823.3L407.3 784L408.7 818.9L410 793L411.3 830.3L412.7 795.5L414 831.2L415.3 792.1L416.7 829.6L418 795.5L419.3 827.5L420.7 791.9L422 826.9L423.3 793.4L424.7 830.9L426 799L427.3 829.5L428.7 793.8L430 830.3L431.3 798.3L432.7 828.5L434 798.3L435.3 826.1L436.7 775.8L438 827.4L439.3 796.4L440.7 829.2L442 801.4L443.3 833.5L444.7 798.9L446 833.5L447.3 799.6L448.7 825.2L450 798.5L451.3 830.6L452.7 799.4L454 826.6L455.3 799.5L456.7 831.8L458 -28L459.3 -1944L460.7 365.9L462 765.1L463.3 760.5L464.7 813.6L466 776.3L467.3 823.2L468.7 770.9L470 809.8L471.3 788.2L472.7 824.2L474 781.8L475.3 821.8L476.7 771.1L478 825.9L479.3 795.2L480.7 826.2L482 790.7L483.3 824.9L484.7 786.4L486 823.2L487.3 779.6L488.7 818.7L490 791.2L491.3 829L492.7 790.2L494 828.4L495.3 791.2L496.7 826.8L498 793.7L499.3 827L500.7 782.5L502 818.2L503.3 788.6L504.7 829.3L506 788.7L507.3 827.9L508.7 790.9L510 833L511.3 798.5L512.7 828.9L514 797.8L515.3 827.4L516.7 794.3L518 826.9L519.3 793.8L520.7 832.4L522 803.8L523.3 833L524.7 800.3L526 831.1L527.3 801.8L528.7 828.1L530 791.5L531.3 831.2L532.7 801.4L534 830.4L535.3 803.2L536.7 832.4L538 -17.3L539.3 -1932.4L540.7 332L542 755.6L543.3 752.9L544.7 801.9L546 766.2L547.3 823.1L548.7 764.7L550 816L551.3 784.8L552.7 820.2L554 775L555.3 822.6L556.7 770.9L558 822.5L559.3 793.7L560.7 828.6L562 787.2L563.3 824.8L564.7 789.3L566 822.1L567.3 783.4L568.7 817.7L570 787.5L571.3 821.1L572.7 792.5L574 828.7L575.3 791.7L576.7 827.4L578 785.8L579.3 828.5L580.7 787.8L582 821.6L583.3 787.4L584.7 829L586 800.4L587.3 831.1L588.7 789.4L590 828.5L591.3 798.4L592.7 829L594 797.3L595.3 828.4L596.7 796.6L598 825.3L599.3 795L600.7 832.6L602 802.1L603.3 830.2L604.7 793.9L606 831.8L607.3 796L608.7 823.8L610 796.1L611.3 828.9L612.7 798.4L614 829.2L615.3 803.6L616.7 829.4L618 -26.8L619.3 -1918.5L620.7 427.4L622 522.5L623.3 539.5L624.7 -3453.5L626 -1425.1L627.3 277.8L628.7 405.1L630 576.3L631.3 749.5L632.7 815.6L634 779.5L635.3 819.2L636.7 774.5L638 825.2L639.3 785.9L640.7 823.8L642 788.9L643.3 825.2L644.7 781.6L646 820.1L647.3 790.6L648.7 821L650 790.9L651.3 824.9L652.7 794.7L654 829.5L655.3 787.9L656.7 828.9L658 793.8L659.3 826.6L660.7 794.2L662 824.4L663.3 791.7L664.7 830.3L666 802.3L667.3 831.8L668.7 792.6L670 829.3L671.3 797.2L672.7 830.9L674 791.4L675.3 831.5L676.7 795.9L678 823.8L679.3 795L680.7 831.2L682 801.7L683.3 831.7L684.7 801.2L686 829.8L687.3 789.4L688.7 820.1L690 801.4L691.3 819.5L692.7 798L694 827.5L695.3 800.8L696.7 830.4L698 -2.6L699.3 -1955.8L700.7 350.9L702 775.4L703.3 758L704.7 805.7L706 771.6L707.3 812.8L708.7 764.3L710 812.3L711.3 779L712.7 823.1L714 786.6L715.3 823.3L716.7 775.9L718 824.8L719.3 792.8L720.7 822.2L722 783L723.3 824.2L724.7 788.4L726 813.9L727.3 789.3L728.7 822.7L730 779.3L731.3 813.3L732.7 793.6L734 830.2L735.3 794L736.7 825.5L738 792.5L739.3 830.7L740.7 793.9L742 824.7L743.3 795.4L744.7 832.6L746 801.5L747.3 826.6L748.7 792.8L750 833.5L751.3 793.3L752.7 829L754 796.8L755.3 832.5L756.7 800.6L758 826.7L759.3 797.9L760.7 832.1L762 804.2L763.3 833.2L764.7 801.1L766 827.3L767.3 800L768.7 824.2L770 800.5L771.3 833.3L772.7 801.3L774 830.6L775.3 805.5L776.7 832.8L778 -10.4L779.3 -1937.9L780.7 333.2L782 775.2L783.3 760.2L784.7 814.6L786 772.1L787.3 825.7L788.7 772.2L790 815.5L791.3 783.8L792.7 823.5L794 785.2L795.3 826.5L796.7 773.8L798 826.8L799.3 795.5L800.7 823.9L802 789.2L803.3 832.4L804.7 790.6L806 817.8L807.3 792.7L808.7 822.8L810 791.6L811.3 827.1L812.7 792.1L814 826.9L815.3 796.1L816.7 830.8L818 795L819.3 826.8L820.7 789.4L822 822L823.3 792.3L824.7 830L826 796.7L827.3 828.3L828.7 791.4L830 829.6L831.3 794.5L832.7 827.1L834 793.9L835.3 831.5L836.7 798.7L838 823.3L839.3 792L840.7 831.1L842 782L843.3 825L844.7 794.9L846 829.3L847.3 798L848.7 822.5L850 796.1L851.3 828.4L852.7 795.7L854 834.1L855.3 802L856.7 831.9L858 -14L859.3 -1856.5L860.7 359L862 775.3L863.3 749.1L864.7 806.3L866 768.3L867.3 817.9L868.7 770.5L870 813.4L871.3 785L872.7 828.7L874 787.7L875.3 827L876.7 778.3L878 828.5L879.3 796.1L880.7 826.7L882 788.4L883.3 826L884.7 790.4L886 823.8L887.3 788.9L888.7 821.1L890 793.9L891.3 831.7L892.7 797.4L894 827.7L895.3 792.3L896.7 829.4L898 794.6L899.3 826.3L900.7 786.1L902 823.6L903.3 791L904.7 825.7L906 780.1L907.3 828.2L908.7 792.1L910 827.2L911.3 795.4L912.7 828L914 795.3L915.3 828.9L916.7 793.9L918 827.9L919.3 796.2L920.7 830.9L922 797.6L923.3 831.6L924.7 798.2L926 831.5L927.3 788.5L928.7 826L930 799.9L931.3 831.5L932.7 802.4L934 829.9L935.3 800.9L936.7 831.7L938 -36.8L939.3 -1895.3L940.7 397L942 514.2L943.3 562.2L944.7 -3493.8L946 -1420.4L947.3 276.5L948.7 433.1L950 552.9L951.3 729.3L952.7 812.8L954 764.2L955.3 798L956.7 748.9L958 820.7L959.3 794.6L960.7 825.3L962 787.2L963.3 823.2L964.7 783.5L966 816.1L967.3 785.4L968.7 818.7L970 790.7L971.3 825.9L972.7 794.2L974 832.4L975.3 796.4L976.7 829L978 794.8L979.3 827.3L980.7 796.6L982 819.9L983.3 792.9L984.7 831.7L986 803.2L987.3 828.3L988.7 794.2L990 829.7L991.3 796.7L992.7 832.4L994 794.4L995.3 826L996.7 800.1L998 828.7L999.3 795.3L1000.7 830.3L1002 802.6L1003.3 832.9L1004.7 796.8L1006 831.2L1007.3 798L1008.7 827.2L1010 792.4L1011.3 831.1L1012.7 800.4L1014 825.5L1015.3 793.3L1016.7 828L1018 -70.4L1019.3 -1945.4L1020.7 332.6L1022 767.7L1023.3 768.2L1024.7 815.8L1026 756.5L1027.3 810.9L1028.7 763.6L1030 811.5L1031.3 767.1L1032.7 819.4L1034 783L1035.3 825.2L1036.7 776.9L1038 827.2L1039.3 795.5L1040.7 828.7L1042 790.7L1043.3 825.4L1044.7 789.1L1046 820.2L1047.3 791.2L1048.7 822.8L1050 795.3L1051.3 832.9L1052.7 792.5L1054 828.3L1055.3 792.9L1056.7 821.7L1058 791.1L1059.3 827.6L1060.7 791.3L1062 822.7L1063.3 790.5L1064.7 829.9L1066 799L1067.3 827.8L1068.7 782.7L1070 829.4L1071.3 787.9L1072.7 830.1L1074 786.7L1075.3 832.3L1076.7 796.3L1078 829.2L1079.3 794.2L1080.7 828.5L1082 800.8L1083.3 833.9L1084.7 801.7L1086 832.2L1087.3 791L1088.7 825.9L1090 799.7L1091.3 833.8L1092.7 802.5L1094 830.5L1095.3 805.1L1096.7 832.3L1098 -13L1099.3 -1876.4L1100.7 351.4L1102 772.6L1103.3 780.6L1104.7 809.1L1106 772.7L1107.3 823L1108.7 776.4L1110 818.1L1111.3 772.4L1112.7 813.4L1114 777.3L1115.3 825.9L1116.7 778.9L1118 826.1L1119.3 796.1L1120.7 824.7L1122 789.4L1123.3 827.3L1124.7 788.9L1126 814.2L1127.3 791.8L1128.7 822L1130 787.9L1131.3 827L1132.7 793.4L1134 828.5L1135.3 792.1L1136.7 830.3L1138 792.3L1139.3 821.3L1140.7 781.7L1142 822.3L1143.3 781L1144.7 829.4L1146 798.8L1147.3 831.1L1148.7 791.5L1150 830L1151.3 794.9L1152.7 812.1L1154 787.6L1155.3 832.8L1156.7 796.5L1158 822.4L1159.3 791.3L1160.7 829.9L1162 800.6L1163.3 830.5L1164.7 800.6L1166 829.7L1167.3 791.8L1168.7 823.2L1170 799.6L1171.3 830.6L1172.7 802L1174 830.8L1175.3 792L1176.7 832.3L1178 -29.1L1179.3 -1887.6L1180.7 373L1182 755.4L1183.3 757.2L1184.7 813.3L1186 769.9L1187.3 819.6L1188.7 763.1L1190 812.2L1191.3 781.9L1192.7 820.5L1194 781.5L1195.3 827.4L1196.7 776.8L1198 827.1L1199.3 796.2L1200.7 824.1L1202 780.3L1203.3 828.4L1204.7 787.9L1206 814.6L1207.3 789.7L1208.7 823.2L1210 780.2L1211.3 830.3L1212.7 795.5L1214 829.8L1215.3 793.9L1216.7 828.5L1218 796.4L1219.3 823.1L1220.7 786.9L1222 823.3L1223.3 791.4L1224.7 830.8L1226 800.3L1227.3 831.9L1228.7 792.2L1230 828.9L1231.3 797.1L1232.7 830.5L1234 792.1L1235.3 825.4L1236.7 792.3L1238 825.4L1239.3 794.9L1240.7 831L1242 800.1L1243.3 826.8L1244.7 800.9L1246 824.6L1247.3 794.9L1248.7 819.1L1250 798.4L1251.3 827.4L1252.7 799.4L1254 827.4L1255.3 801.1L1256.7 829.5L1258 -21L1259.3 -1906.5L1260.7 406.1L1262 527.4L1263.3 569.5L1264.7 -3312.2L1266 -1425.6L1267.3 269.3L1268.7 464.7L1270 561.7L1271.3 728.5L1272.7 808.2L1274 768.7L1275.3 824.2L1276.7 775.9L1278 826.6L1279.3 792.6L1280.7 822.3L1282 772.1L1283.3 824L1284.7 784.9L1286 820L1287.3 790.6L1288.7 820.9L1290 792.6L1291.3 826.3L1292.7 790.7L1294 827.3L1295.3 781.5L1296.7 823.7L1298 791.8L1299.3 827.8L1300.7 794.7L1302 827.2L1303.3 778.8L1304.7 825.9L1306 799.5L1307.3 829.9L1308.7 785L1310 824L1311.3 792.4L1312.7 830.1L1314 799.2L1315.3 827.6L1316.7 799L1318 829.2L1319.3 794.4L1320.7 831.3L1322 795.5L1323.3 817.7L1324.7 791.2L1326 830.1L1327.3 793.4L1328.7 827.1L1330 801.6L1331.3 832.1L1332.7 800L1334 832.8L1335.3 803.3L1336.7 815.7L1338 -36.9L1339.3 -1960.5L1340.7 348.1L1342 769.2L1343.3 762L1344.7 819.8L1346 771.3L1347.3 823.6L1348.7 758.2L1350 817.8L1351.3 780.4L1352.7 824.3L1354 782.5L1355.3 825.8L1356.7 779.4L1358 826.3L1359.3 784.9L1360.7 819.3L1362 781.1L1363.3 825.9L1364.7 790.8L1366 822.8L1367.3 789.4L1368.7 821.3L1370 789.1L1371.3 830.1L1372.7 783.6L1374 827.1L1375.3 789.5L1376.7 828.4L1378 794.7L1379.3 830.1L1380.7 792.8L1382 825L1383.3 795.5L1384.7 824.4L1386 799.3L1387.3 826.9L1388.7 784.3L1390 827.3L1391.3 797.4L1392.7 822.7L1394 794.4L1395.3 831.2L1396.7 798.7L1398 826.3L1399.3 796.1L1400.7 830.3L1402 799.8L1403.3 829.3L1404.7 798.4L1406 830.9L1407.3 797.8L1408.7 821.7L1410 784L1411.3 828L1412.7 796.6L1414 824.6L1415.3 802L1416.7 832.6L1418 -5.4L1419.3 -1903.8L1420.7 344.9L1422 772.1L1423.3 777.7L1424.7 814.6L1426 774.6L1427.3 817.6L1428.7 765.4L1430 814.9L1431.3 781.4L1432.7 825.2L1434 787.1L1435.3 826.4L1436.7 777L1438 826.9L1439.3 794.8L1440.7 812.8L1442 785.4L1443.3 826.6L1444.7 790.1L1446 821.2L1447.3 791.5L1448.7 824.9L1450 792.4L1451.3 826.9L1452.7 791.9L1454 827.8L1455.3 793.4L1456.7 826.6L1458 792.7L1459.3 831.8L1460.7 792.8L1462 823.9L1463.3 792.4L1464.7 830.1L1466 799.2L1467.3 828.6L1468.7 787L1470 827.8L1471.3 797.7L1472.7 831.5L1474 797.9L1475.3 832.3L1476.7 787.6L1478 825.8L1479.3 795L1480.7 831.2L1482 801.5L1483.3 827.1L1484.7 800L1486 831.8L1487.3 799.3L1488.7 824L1490 799.2L1491.3 831.4L1492.7 800.3L1494 829.2L1495.3 796.6L1496.7 833.7L1498 -29.5L1499.3 -1894.7L1500.7 367.2L1502 781L1503.3 760L1504.7 803.9L1506 757.4L1507.3 817.2L1508.7 769.8L1510 816.1L1511.3 781.2L1512.7 821.1L1514 785.2L1515.3 818L1516.7 774.1L1518 825.9L1519.3 796L1520.7 824.3L1522 777.3L1523.3 810.7L1524.7 792L1526 817.7L1527.3 790.9L1528.7 823.7L1530 792.6L1531.3 828.4L1532.7 792.9L1534 828.3L1535.3 791.7L1536.7 829.7L1538 794.6L1539.3 821L1540.7 792.4L1542 825.5L1543.3 794.6L1544.7 828L1546 801.1L1547.3 829.4L1548.7 788.8L1550 829.6L1551.3 798L1552.7 829.5L1554 798.1L1555.3 829.7L1556.7 797.1L1558 827L1559.3 797.6L1560.7 834.7L1562 801.2L1563.3 828.6L1564.7 800.4L1566 829.3L1567.3 799.6L1568.7 827.6L1570 797.3L1571.3 832.1L1572.7 801.9L1574 829.4L1575.3 798.6L1576.7 833.4L1578 -37.4L1579.3 -1933.9L1580.7 413L1582 550.4L1583.3 543.5L1584.7 -3426.9L1586 -1438.3L1587.3 258.6L1588.7 451.2L1590 557.2L1591.3 739.6L1592.7 807.2L1594 774L1595.3 824.1L1596.7 772L1598 815.4L1599.3 789.7L1600.7 822.6L1602 785.1L1603.3 823.8L1604.7 777.3L1606 814.6L1607.3 789.7L1608.7 816.2L1610 792L1611.3 823.9L1612.7 792.3L1614 829.2L1615.3 786.8L1616.7 826.8L1618 793.6L1619.3 827.2L1620.7 790.7L1622 814L1623.3 790.9L1624.7 824.5L1626 796.2L1627.3 826.8L1628.7 792L1630 834L1631.3 797.6L1632.7 826.9L1634 796.9L1635.3 822.2L1636.7 788.5L1638 828.7L1639.3 793.4L1640.7 829.2L1642 802.7L1643.3 835.1L1644.7 801.5L1646 834.2L1647.3 800.7L1648.7 826.6L1650 797.6L1651.3 831.9L1652.7 804.4L1654 825.7L1655.3 802.3L1656.7 827.8L1658 -16L1659.3 -1980.8L1660.7 389L1662 789.4L1663.3 764.5L1664.7 817.8L1666 771.9L1667.3 821.3L1668.7 767.9L1670 814.4L1671.3 783.2L1672.7 825.9L1674 785.8L1675.3 826.7L1676.7 778.8L1678 820.6L1679.3 793.2L1680.7 827.7L1682 789.7L1683.3 826.4L1684.7 790.2L1686 820.6L1687.3 790.5L1688.7 821.1L1690 794.6L1691.3 829.4L1692.7 793.5L1694 824.4L1695.3 791.2L1696.7 828L1698 776.3L1699.3 827L1700.7 793.8L1702 826.5L1703.3 794.1L1704.7 827.6L1706 796.4L1707.3 827.4L1708.7 788.1L1710 831L1711.3 793.1L1712.7 829.8L1714 799.7L1715.3 830L1716.7 789.5L1718 825.8L1719.3 792.1L1720.7 828.8L1722 802.1L1723.3 831.8L1724.7 803L1726 828.4L1727.3 796.9L1728.7 825.8L1730 794.2L1731.3 828.7L1732.7 799.6L1734 828.1L1735.3 801.1L1736.7 826.1L1738 -27.6L1739.3 -1933.9L1740.7 376.1L1742 772.1L1743.3 761.3L1744.7 804L1746 769.5L1747.3 823.5L1748.7 768.4L1750 816.4L1751.3 785.5L1752.7 825.1L1754 783.8L1755.3 827.8L1756.7 778.8L1758 825.1L1759.3 797.3L1760.7 823.1L1762 783.7L1763.3 827.8L1764.7 795.5L1766 823.5L1767.3 790.3L1768.7 825.5L1770 792.6L1771.3 828L1772.7 787L1774 829.2L1775.3 790.4L1776.7 827.4L1778 792.6L1779.3 828.4L1780.7 794.6L1782 821.3L1783.3 793.7L1784.7 823.5L1786 799.1L1787.3 829.5L1788.7 791.5L1790 831L1791.3 798.1L1792.7 828.1L1794 799L1795.3 831.4L1796.7 798.5L1798 825.1L1799.3 794.7" fill="transparent" stroke="#3fb1e3" stroke-width="3" stroke-linejoin="bevel" class="zr33-cls-101"></path>
</g>
<path d="M-201.8 -5l403.7 0l0 28l-403.7 0Z" transform="translate(1000 5)" fill="rgb(0,0,0)" fill-opacity="0" stroke="#ccc" stroke-width="0" class="zr33-cls-99"></path>
<text dominant-baseline="central" text-anchor="middle" style="font-size:18px;font-family:sans-serif;font-weight:bold;" xml:space="preserve" y="9" transform="translate(1000 5)" fill="#666666">Min wholeUpdate per Tick for bench_1_every_60</text>
<defs >
<clipPath id="zr33-c0">
<path d="M198 58.5l16004 0l0 8703l-16004 0Z" fill="#000" class="zr33-cls-100"></path>
</clipPath>
</defs>
<style ><![CDATA[
.zr33-cls-99:hover {
pointer-events:none;
}
.zr33-cls-100:hover {
cursor:pointer;
fill:rgba(0,0,0,1);
}
.zr33-cls-101:hover {
cursor:pointer;
}

]]>

</style>
</svg>