<svg width="2000" height="1000" xmlns="http://www.w3.org/2000/svg" xmlns:xlink="http://www.w3.org/1999/xlink" version="1.1" baseProfile="full" viewBox="0 0 2000 1000">
<rect width="2000" height="1000" x="0" y="0" fill="rgb(252,252,252)" fill-opacity="0"></rect>
<path d="M200 930.5L1800 930.5" fill="transparent" stroke="#eeeeee" class="zr22-cls-66"></path>
<path d="M200 743.5L1800 743.5" fill="transparent" stroke="#eeeeee" class="zr22-cls-66"></path>
<path d="M200 556.5L1800 556.5" fill="transparent" stroke="#eeeeee" class="zr22-cls-66"></path>
<path d="M200 370.5L1800 370.5" fill="transparent" stroke="#eeeeee" class="zr22-cls-66"></path>
<path d="M200 183.5L1800 183.5" fill="transparent" stroke="#eeeeee" class="zr22-cls-66"></path>
<path d="M200 60.5L1800 60.5" fill="transparent" stroke="#eeeeee" class="zr22-cls-66"></path>
<path d="M200.5 930L200.5 60" fill="transparent" stroke="#cccccc" stroke-linecap="round" class="zr22-cls-66"></path>
<text dominant-baseline="central" text-anchor="middle" style="font-size:12px;font-family:sans-serif;" xml:space="preserve" y="-6" transform="translate(200 45)" fill="#cccccc">entityUpdate Time (ms)</text>
<path d="M200 930.5L1800 930.5" fill="transparent" stroke="#cccccc" stroke-linecap="round" class="zr22-cls-66"></path>
<text dominant-baseline="central" text-anchor="end" style="font-size:12px;font-family:sans-serif;" transform="translate(192 930)" fill="#999999">0.000</text>
<text dominant-baseline="central" text-anchor="end" style="font-size:12px;font-family:sans-serif;" transform="translate(192 743.2702)" fill="#999999">1.000</text>
<text dominant-baseline="central" text-anchor="end" style="font-size:12px;font-family:sans-serif;" transform="translate(192 556.5403)" fill="#999999">2.000</text>
<text dominant-baseline="central" text-anchor="end" style="font-size:12px;font-family:sans-serif;" transform="translate(192 369.8105)" fill="#999999">3.000</text>
<text dominant-baseline="central" text-anchor="end" style="font-size:12px;font-family:sans-serif;" transform="translate(192 183.0807)" fill="#999999">4.000</text>
<text dominant-baseline="central" text-anchor="end" style="font-size:12px;font-family:sans-serif;" transform="translate(192 60)" fill="#999999">4.659</text>
<text dominant-baseline="central" text-anchor="middle" style="font-size:12px;font-family:sans-serif;" y="6" transform="translate(200.6667 938)" fill="#999999">0</text>
<text dominant-baseline="central" text-anchor="middle" style="font-size:12px;font-family:sans-serif;" y="6" transform="translate(236.6667 938)" fill="#999999">27</text>
<text dominant-baseline="central" text-anchor="middle" style="font-size:12px;font-family:sans-serif;" y="6" transform="translate(272.6667 938)" fill="#999999">54</text>
<text dominant-baseline="central" text-anchor="middle" style="font-size:12px;font-family:sans-serif;" y="6" transform="translate(308.6667 938)" fill="#999999">81</text>
<text dominant-baseline="central" text-anchor="middle" style="font-size:12px;font-family:sans-serif;" y="6" transform="translate(344.6667 938)" fill="#999999">108</text>
<text dominant-baseline="central" text-anchor="middle" style="font-size:12px;font-family:sans-serif;" y="6" transform="translate(380.6667 938)" fill="#999999">135</text>
<text dominant-baseline="central" text-anchor="middle" style="font-size:12px;font-family:sans-serif;" y="6" transform="translate(416.6667 938)" fill="#999999">162</text>
<text dominant-baseline="central" text-anchor="middle" style="font-size:12px;font-family:sans-serif;" y="6" transform="translate(452.6667 938)" fill="#999999">189</text>
<text dominant-baseline="central" text-anchor="middle" style="font-size:12px;font-family:sans-serif;" y="6" transform="translate(488.6667 938)" fill="#999999">216</text>
<text dominant-baseline="central" text-anchor="middle" style="font-size:12px;font-family:sans-serif;" y="6" transform="translate(524.6667 938)" fill="#999999">243</text>
<text dominant-baseline="central" text-anchor="middle" style="font-size:12px;font-family:sans-serif;" y="6" transform="translate(560.6667 938)" fill="#999999">270</text>
<text dominant-baseline="central" text-anchor="middle" style="font-size:12px;font-family:sans-serif;" y="6" transform="translate(596.6667 938)" fill="#999999">297</text>
<text dominant-baseline="central" text-anchor="middle" style="font-size:12px;font-family:sans-serif;" y="6" transform="translate(632.6667 938)" fill="#999999">324</text>
<text dominant-baseline="central" text-anchor="middle" style="font-size:12px;font-family:sans-serif;" y="6" transform="translate(668.6667 938)" fill="#999999">351</text>
<text dominant-baseline="central" text-anchor="middle" style="font-size:12px;font-family:sans-serif;" y="6" transform="translate(704.6667 938)" fill="#999999">378</text>
<text dominant-baseline="central" text-anchor="middle" style="font-size:12px;font-family:sans-serif;" y="6" transform="translate(740.6667 938)" fill="#999999">405</text>
<text dominant-baseline="central" text-anchor="middle" style="font-size:12px;font-family:sans-serif;" y="6" transform="translate(776.6667 938)" fill="#999999">432</text>
<text dominant-baseline="central" text-anchor="middle" style="font-size:12px;font-family:sans-serif;" y="6" transform="translate(812.6667 938)" fill="#999999">459</text>
<text dominant-baseline="central" text-anchor="middle" style="font-size:12px;font-family:sans-serif;" y="6" transform="translate(848.6667 938)" fill="#999999">486</text>
<text dominant-baseline="central" text-anchor="middle" style="font-size:12px;font-family:sans-serif;" y="6" transform="translate(884.6667 938)" fill="#999999">513</text>
<text dominant-baseline="central" text-anchor="middle" style="font-size:12px;font-family:sans-serif;" y="6" transform="translate(920.6667 938)" fill="#999999">540</text>
<text dominant-baseline="central" text-anchor="middle" style="font-size:12px;font-family:sans-serif;" y="6" transform="translate(956.6667 938)" fill="#999999">567</text>
<text dominant-baseline="central" text-anchor="middle" style="font-size:12px;font-family:sans-serif;" y="6" transform="translate(992.6667 938)" fill="#999999">594</text>
<text dominant-baseline="central" text-anchor="middle" style="font-size:12px;font-family:sans-serif;" y="6" transform="translate(1028.6667 938)" fill="#999999">621</text>
<text dominant-baseline="central" text-anchor="middle" style="font-size:12px;font-family:sans-serif;" y="6" transform="translate(1064.6667 938)" fill="#999999">648</text>
<text dominant-baseline="central" text-anchor="middle" style="font-size:12px;font-family:sans-serif;" y="6" transform="translate(1100.6667 938)" fill="#999999">675</text>
<text dominant-baseline="central" text-anchor="middle" style="font-size:12px;font-family:sans-serif;" y="6" transform="translate(1136.6667 938)" fill="#999999">702</text>
<text dominant-baseline="central" text-anchor="middle" style="font-size:12px;font-family:sans-serif;" y="6" transform="translate(1172.6667 938)" fill="#999999">729</text>
<text dominant-baseline="central" text-anchor="middle" style="font-size:12px;font-family:sans-serif;" y="6" transform="translate(1208.6667 938)" fill="#999999">756</text>
<text dominant-baseline="central" text-anchor="middle" style="font-size:12px;font-family:sans-serif;" y="6" transform="translate(1244.6667 938)" fill="#999999">783</text>
<text dominant-baseline="central" text-anchor="middle" style="font-size:12px;font-family:sans-serif;" y="6" transform="translate(1280.6667 938)" fill="#999999">810</text>
<text dominant-baseline="central" text-anchor="middle" style="font-size:12px;font-family:sans-serif;" y="6" transform="translate(1316.6667 938)" fill="#999999">837</text>
<text dominant-baseline="central" text-anchor="middle" style="font-size:12px;font-family:sans-serif;" y="6" transform="translate(1352.6667 938)" fill="#999999">864</text>
<text dominant-baseline="central" text-anchor="middle" style="font-size:12px;font-family:sans-serif;" y="6" transform="translate(1388.6667 938)" fill="#999999">891</text>
<text dominant-baseline="central" text-anchor="middle" style="font-size:12px;font-family:sans-serif;" y="6" transform="translate(1424.6667 938)" fill="#999999">918</text>
<text dominant-baseline="central" text-anchor="middle" style="font-size:12px;font-family:sans-serif;" y="6" transform="translate(1460.6667 938)" fill="#999999">945</text>
<text dominant-baseline="central" text-anchor="middle" style="font-size:12px;font-family:sans-serif;" y="6" transform="translate(1496.6667 938)" fill="#999999">972</text>
<text dominant-baseline="central" text-anchor="middle" style="font-size:12px;font-family:sans-serif;" y="6" transform="translate(1532.6667 938)" fill="#999999">999</text>
<text dominant-baseline="central" text-anchor="middle" style="font-size:12px;font-family:sans-serif;" y="6" transform="translate(1568.6667 938)" fill="#999999">1026</text>
<text dominant-baseline="central" text-anchor="middle" style="font-size:12px;font-family:sans-serif;" y="6" transform="translate(1604.6667 938)" fill="#999999">1053</text>
<text dominant-baseline="central" text-anchor="middle" style="font-size:12px;font-family:sans-serif;" y="6" transform="translate(1640.6667 938)" fill="#999999">1080</text>
<text dominant-baseline="central" text-anchor="middle" style="font-size:12px;font-family:sans-serif;" y="6" transform="translate(1676.6667 938)" fill="#999999">1107</text>
<text dominant-baseline="central" text-anchor="middle" style="font-size:12px;font-family:sans-serif;" y="6" transform="translate(1712.6667 938)" fill="#999999">1134</text>
<text dominant-baseline="central" text-anchor="middle" style="font-size:12px;font-family:sans-serif;" y="6" transform="translate(1748.6667 938)" fill="#999999">1161</text>
<text dominant-baseline="central" text-anchor="middle" style="font-size:12px;font-family:sans-serif;" y="6" transform="translate(1784.6667 938)" fill="#999999">1188</text>
<g clip-path="url(#zr22-c0)">
<path d="M200.7 815.7L202 773.4L203.3 851.5L204.7 807.4L206 858.8L207.3 830.3L208.7 871.6L210 807.7L211.3 872.4L212.7 894.3L214 929.5L215.3 929.4L216.7 929.5L218 929.5L219.3 929.6L220.7 929.5L222 929.5L223.3 929.5L224.7 929.6L226 929.7L227.3 929.4L228.7 929.6L230 929.7L231.3 929.7L232.7 929.5L234 929.7L235.3 929.4L236.7 929.7L238 929.5L239.3 929.5L240.7 929.6L242 929.4L243.3 929.6L244.7 929.7L246 929.5L247.3 929.7L248.7 929.6L250 929.7L251.3 929.5L252.7 929.5L254 929.5L255.3 929.4L256.7 929.5L258 929.4L259.3 929.5L260.7 929.3L262 929.5L263.3 929.5L264.7 929.4L266 929.5L267.3 929.7L268.7 929.5L270 929.4L271.3 929.5L272.7 929.5L274 929.7L275.3 929.5L276.7 929.5L278 929.5L279.3 929.7L280.7 929.6L282 929.5L283.3 929.7L284.7 929.5L286 929.5L287.3 929.5L288.7 -2456.3L290 -1998.5L291.3 -2673.4L292.7 -2230.6L294 462.8L295.3 457.1L296.7 568.6L298 -4177.8L299.3 -1688.3L300.7 160.9L302 555.6L303.3 332.9L304.7 842.6L306 801L307.3 866L308.7 765.9L310 855.7L311.3 805.6L312.7 872.8L314 810.3L315.3 859.7L316.7 811.5L318 872L319.3 767.3L320.7 865.2L322 805.3L323.3 872.2L324.7 813.1L326 872.3L327.3 812.7L328.7 873.1L330 811.9L331.3 857L332.7 807.4L334 872.5L335.3 811.2L336.7 859.7L338 785.1L339.3 870.2L340.7 814.4L342 857.2L343.3 807.5L344.7 871.4L346 788.4L347.3 861.6L348.7 811.1L350 872.9L351.3 750.2L352.7 855.1L354 805.4L355.3 872.6L356.7 813.5L358 857.5L359.3 810.5L360.7 873.3L362 814.3L363.3 865.1L364.7 804.9L366 870.7L367.3 812.4L368.7 873L370 824.9L371.3 872.3L372.7 806.3L374 872L375.3 818.2L376.7 868.8L378 828.8L379.3 868.8L380.7 830.1L382 872L383.3 830.5L384.7 872.3L386 821.2L387.3 872.3L388.7 802.7L390 870.1L391.3 826.7L392.7 871.3L394 829.6L395.3 872.2L396.7 830.5L398 859.4L399.3 829.8L400.7 868.2L402 823.1L403.3 869.9L404.7 827.6L406 871.6L407.3 829.2L408.7 858.8L410 808.3L411.3 872L412.7 830.5L414 872L415.3 812.4L416.7 853.9L418 805.8L419.3 871.1L420.7 807.3L422 859.1L423.3 830.4L424.7 872.2L426 830.5L427.3 855.1L428.7 826.5L430 870.2L431.3 813.5L432.7 858.6L434 823.5L435.3 871.7L436.7 831.1L438 859.1L439.3 830L440.7 865.5L442 814.8L443.3 871.4L444.7 830.2L446 872L447.3 824.4L448.7 867.5L450 830L451.3 872.7L452.7 820.6L454 868.7L455.3 824.3L456.7 871L458 830.1L459.3 858.9L460.7 830.2L462 858.9L463.3 830.3L464.7 872.7L466 807.3L467.3 861.9L468.7 804.1L470 858.3L471.3 829.7L472.7 871.6L474 812.9L475.3 866.3L476.7 813.7L478 858.3L479.3 807.1L480.7 863.9L482 826.3L483.3 870.7L484.7 823.4L486 858.5L487.3 806.4L488.7 872.2L490 830.7L491.3 859L492.7 800L494 866.8L495.3 829.1L496.7 871.7L498 830.2L499.3 872.3L500.7 808.2L502 871.6L503.3 830.5L504.7 858.5L506 811.4L507.3 857.7L508.7 829L510 850.2L511.3 807.7L512.7 871.7L514 810L515.3 860.9L516.7 816.1L518 871.3L519.3 817.7L520.7 857L522 829.9L523.3 871.7L524.7 806.9L526 871.7L527.3 807.3L528.7 872L530 808.2L531.3 870L532.7 915L534 929.4L535.3 929.4L536.7 929.5L538 929.5L539.3 929.6L540.7 929.6L542 929.4L543.3 929.5L544.7 929.4L546 929.4L547.3 929.4L548.7 929.6L550 929.4L551.3 929.5L552.7 929.5L554 929.5L555.3 929.5L556.7 929.7L558 929.5L559.3 929.4L560.7 929.6L562 929.6L563.3 929.4L564.7 929.5L566 929.5L567.3 929.5L568.7 929.3L570 929.4L571.3 929.6L572.7 929.6L574 929.7L575.3 929.4L576.7 929.5L578 929.5L579.3 929.4L580.7 929.5L582 929.7L583.3 929.6L584.7 929.4L586 929.6L587.3 929.4L588.7 929.5L590 929.7L591.3 929.7L592.7 929.4L594 929.6L595.3 929.6L596.7 929.6L598 929.4L599.3 929.6L600.7 929.5L602 929.4L603.3 929.6L604.7 929.5L606 929.4L607.3 929.6L608.7 -2369.6L610 -2054.2L611.3 -2545.1L612.7 -2230.3L614 479.9L615.3 484.1L616.7 599.6L618 -4334.4L619.3 -1634.9L620.7 157.2L622 547.2L623.3 421.7L624.7 847.2L626 784.7L627.3 858.2L628.7 762.7L630 868.5L631.3 789L632.7 873L634 793.6L635.3 872.9L636.7 811L638 845.5L639.3 805.3L640.7 870.5L642 811.3L643.3 872.7L644.7 813.6L646 873.1L647.3 807.3L648.7 856.9L650 797.9L651.3 871.9L652.7 791.3L654 870.6L655.3 813.3L656.7 872.1L658 814.6L659.3 855.8L660.7 778.8L662 859L663.3 813L664.7 873.2L666 814.6L667.3 872.7L668.7 781L670 866.4L671.3 777.5L672.7 868.9L674 813.9L675.3 872.6L676.7 789.2L678 873L679.3 788.5L680.7 873.2L682 811.2L683.3 870.4L684.7 811.8L686 872.4L687.3 812.8L688.7 872.9L690 827L691.3 858.4L692.7 803.1L694 858.7L695.3 823.6L696.7 860.8L698 828.6L699.3 869.2L700.7 830.5L702 872.5L703.3 830.6L704.7 872L706 829.7L707.3 869.3L708.7 804.7L710 869.9L711.3 828L712.7 870.3L714 827.7L715.3 872.1L716.7 831.1L718 872.5L719.3 821.2L720.7 868.7L722 828.1L723.3 871.8L724.7 829.5L726 871.6L727.3 829.8L728.7 861.6L730 806.9L731.3 866.1L732.7 813.5L734 870.4L735.3 828.7L736.7 871L738 825.2L739.3 858.8L740.7 829.7L742 871.7L743.3 830.7L744.7 872.4L746 804.6L747.3 867.4L748.7 822.7L750 871.9L751.3 830L752.7 872.2L754 830.1L755.3 871.9L756.7 830.6L758 859.8L759.3 812.7L760.7 869.6L762 805.5L763.3 864.6L764.7 829.8L766 871.5L767.3 830.3L768.7 872.1L770 807.7L771.3 872.2L772.7 827.9L774 870.5L775.3 814.7L776.7 871.7L778 830.4L779.3 858.9L780.7 830.8L782 872.3L783.3 830.4L784.7 858.9L786 798L787.3 857.4L788.7 830.1L790 858.7L791.3 814.5L792.7 872.2L794 829.9L795.3 872.5L796.7 808.5L798 862.3L799.3 828.2L800.7 871.4L802 825.3L803.3 871.9L804.7 807.2L806 859.1L807.3 808.3L808.7 858.3L810 829.3L811.3 841.1L812.7 827.3L814 871L815.3 810.9L816.7 871.3L818 830.2L819.3 872L820.7 807.8L822 859L823.3 792.6L824.7 856.4L826 809.2L827.3 871.1L828.7 829.7L830 872.2L831.3 805.4L832.7 856.9L834 806.5L835.3 872L836.7 802.8L838 845L839.3 828.3L840.7 868.7L842 806.6L843.3 871.8L844.7 807.1L846 869L847.3 829.8L848.7 863L850 784.6L851.3 870.2L852.7 915.6L854 929.6L855.3 929.6L856.7 929.3L858 929.6L859.3 929.6L860.7 929.5L862 929.6L863.3 929.5L864.7 929.6L866 929.5L867.3 929.6L868.7 929.6L870 929.6L871.3 929.4L872.7 929.4L874 929.7L875.3 929.7L876.7 929.7L878 929.4L879.3 929.5L880.7 929.6L882 929.6L883.3 929.3L884.7 929.5L886 929.4L887.3 929.7L888.7 929.4L890 929.6L891.3 929.4L892.7 929.4L894 929.4L895.3 929.6L896.7 929.7L898 929.6L899.3 929.6L900.7 929.6L902 929.4L903.3 929.5L904.7 929.4L906 929.6L907.3 929.5L908.7 929.6L910 929.5L911.3 929.5L912.7 929.4L914 929.4L915.3 929.3L916.7 929.6L918 929.7L919.3 929.4L920.7 929.4L922 929.5L923.3 929.6L924.7 929.6L926 929.5L927.3 929.7L928.7 -2565.2L930 -2331.3L931.3 -2838.2L932.7 -2263.9L934 427.7L935.3 396L936.7 576.6L938 -4485.7L939.3 -1858.2L940.7 132.5L942 482.2L943.3 394.5L944.7 842.8L946 763L947.3 857.4L948.7 787.9L950 857.2L951.3 806.3L952.7 872.1L954 757.3L955.3 858.5L956.7 771.1L958 871.6L959.3 809.4L960.7 870.2L962 799L963.3 872.4L964.7 795.7L966 853.9L967.3 767L968.7 871.2L970 809.7L971.3 872.9L972.7 805L974 853.9L975.3 798.7L976.7 859.8L978 802.9L979.3 868.5L980.7 780.3L982 862.1L983.3 792.7L984.7 849.5L986 805.1L987.3 869.6L988.7 801.8L990 872.4L991.3 775.3L992.7 872.5L994 807.3L995.3 859.1L996.7 808.2L998 871.8L999.3 811.5L1000.7 872.5L1002 813.8L1003.3 872.7L1004.7 808.5L1006 858.7L1007.3 792.1L1008.7 857.4L1010 827.8L1011.3 871.6L1012.7 810.9L1014 858.9L1015.3 798.1L1016.7 871.6L1018 798.2L1019.3 861.8L1020.7 828.9L1022 863.3L1023.3 806L1024.7 871.8L1026 829.7L1027.3 871.6L1028.7 829.2L1030 860.9L1031.3 808L1032.7 868.6L1034 816.4L1035.3 859.2L1036.7 797.4L1038 869.8L1039.3 827.8L1040.7 871.3L1042 816.7L1043.3 868.2L1044.7 815.1L1046 858.2L1047.3 817.2L1048.7 860.1L1050 818.6L1051.3 871.6L1052.7 826.3L1054 869.7L1055.3 804.6L1056.7 859L1058 826.1L1059.3 870.8L1060.7 827.5L1062 869.8L1063.3 802.1L1064.7 858.6L1066 824.7L1067.3 864.2L1068.7 799.4L1070 871.1L1071.3 823.1L1072.7 865.9L1074 818L1075.3 861.9L1076.7 821.6L1078 870.1L1079.3 807.1L1080.7 869.2L1082 829.8L1083.3 870.1L1084.7 804.2L1086 871.6L1087.3 818.6L1088.7 863.9L1090 829.9L1091.3 859L1092.7 798.9L1094 870.2L1095.3 829.2L1096.7 864.6L1098 817.8L1099.3 863.2L1100.7 823.2L1102 871.8L1103.3 810L1104.7 869L1106 807.6L1107.3 865.2L1108.7 817.1L1110 858.2L1111.3 818.7L1112.7 869.8L1114 830.3L1115.3 863.2L1116.7 805.1L1118 857.2L1119.3 815.4L1120.7 870.2L1122 830.3L1123.3 871.8L1124.7 816.4L1126 866.1L1127.3 795.2L1128.7 864.2L1130 795.8L1131.3 869.1L1132.7 830L1134 871.8L1135.3 829.8L1136.7 871.8L1138 809.9L1139.3 865.5L1140.7 829.7L1142 861.6L1143.3 816.9L1144.7 856L1146 829.4L1147.3 869.4L1148.7 816.4L1150 860.8L1151.3 820L1152.7 871.1L1154 829.8L1155.3 858.1L1156.7 825L1158 867L1159.3 816L1160.7 859.5L1162 819.4L1163.3 871.6L1164.7 806.9L1166 871.6L1167.3 802.8L1168.7 861.2L1170 817.9L1171.3 859.9L1172.7 915.8L1174 929.5L1175.3 929.5L1176.7 929.4L1178 929.4L1179.3 929.4L1180.7 929.6L1182 929.5L1183.3 929.5L1184.7 929.6L1186 929.4L1187.3 929.4L1188.7 929.7L1190 929.6L1191.3 929.4L1192.7 929.6L1194 929.4L1195.3 929.3L1196.7 929.6L1198 929.6L1199.3 929.6L1200.7 929.4L1202 929.5L1203.3 929.4L1204.7 929.4L1206 929.5L1207.3 929.4L1208.7 929.4L1210 929.6L1211.3 929.5L1212.7 929.5L1214 929.4L1215.3 929.5L1216.7 929.5L1218 929.6L1219.3 929.4L1220.7 929.7L1222 929.6L1223.3 929.7L1224.7 929.4L1226 929.4L1227.3 929.6L1228.7 929.5L1230 929.4L1231.3 929.4L1232.7 929.5L1234 929.4L1235.3 929.5L1236.7 929.4L1238 929.6L1239.3 929.5L1240.7 929.5L1242 929.7L1243.3 929.5L1244.7 929.5L1246 929.4L1247.3 929.6L1248.7 -2754L1250 -2321.5L1251.3 -3216.6L1252.7 -2542.9L1254 436.5L1255.3 446.2L1256.7 512.5L1258 -4568.4L1259.3 -1632.6L1260.7 151.3L1262 564.8L1263.3 430L1264.7 843.1L1266 788.6L1267.3 848.9L1268.7 797.6L1270 850.9L1271.3 774.8L1272.7 872.2L1274 801.5L1275.3 871.7L1276.7 805.1L1278 872.3L1279.3 796.4L1280.7 865.7L1282 807.8L1283.3 872.6L1284.7 804.2L1286 870L1287.3 810.4L1288.7 860.9L1290 780.2L1291.3 869.9L1292.7 769.9L1294 872.2L1295.3 812.6L1296.7 860L1298 778.7L1299.3 872.4L1300.7 764.8L1302 871.3L1303.3 780L1304.7 868.5L1306 784.6L1307.3 871.9L1308.7 808.3L1310 867.5L1311.3 794.2L1312.7 857.8L1314 808.4L1315.3 872.4L1316.7 814.6L1318 870.3L1319.3 804.2L1320.7 858.6L1322 763L1323.3 856.2L1324.7 797.9L1326 872.6L1327.3 774.7L1328.7 864.3L1330 816.3L1331.3 847.7L1332.7 810.9L1334 868.4L1335.3 820.1L1336.7 870.8L1338 805L1339.3 869.3L1340.7 818L1342 855.2L1343.3 830.4L1344.7 853.2L1346 815.9L1347.3 867L1348.7 792.4L1350 867.9L1351.3 818.3L1352.7 870.6L1354 804.8L1355.3 869.5L1356.7 806.5L1358 858.2L1359.3 828.9L1360.7 868.9L1362 822.4L1363.3 856.6L1364.7 825.6L1366 871.6L1367.3 823.1L1368.7 861.9L1370 812.1L1371.3 868.8L1372.7 817.8L1374 861.8L1375.3 828L1376.7 871.4L1378 829.5L1379.3 870.1L1380.7 814.6L1382 857.3L1383.3 827.9L1384.7 867.6L1386 829.9L1387.3 871.8L1388.7 807L1390 868.1L1391.3 829.5L1392.7 848.3L1394 794.8L1395.3 855.1L1396.7 816.1L1398 871.1L1399.3 828.7L1400.7 871.7L1402 828.7L1403.3 871.9L1404.7 816L1406 858.4L1407.3 800.3L1408.7 869.6L1410 818.2L1411.3 871L1412.7 826.8L1414 868.9L1415.3 830.6L1416.7 870.6L1418 820.2L1419.3 849.2L1420.7 782L1422 867.9L1423.3 828.1L1424.7 861.5L1426 829.5L1427.3 872.2L1428.7 819.4L1430 871.7L1431.3 829.1L1432.7 865.3L1434 816.9L1435.3 849.3L1436.7 813.8L1438 857.5L1439.3 829.9L1440.7 870.8L1442 829.4L1443.3 844.9L1444.7 792.8L1446 864.5L1447.3 821.9L1448.7 860.6L1450 828.7L1451.3 863.4L1452.7 823.8L1454 872.4L1455.3 822.4L1456.7 864L1458 807.7L1459.3 856.5L1460.7 828.4L1462 850.6L1463.3 795.1L1464.7 871.8L1466 829.6L1467.3 871.9L1468.7 817.4L1470 841.2L1471.3 812.8L1472.7 871.3L1474 829.4L1475.3 870.1L1476.7 829.7L1478 857.1L1479.3 796.2L1480.7 850.6L1482 783.5L1483.3 869.5L1484.7 816L1486 868.9L1487.3 829.8L1488.7 871.6L1490 823.8L1491.3 864.1L1492.7 916L1494 929.4L1495.3 929.5L1496.7 929.6L1498 929.6L1499.3 929.5L1500.7 929.4L1502 929.6L1503.3 929.6L1504.7 929.4L1506 929.6L1507.3 929.6L1508.7 929.6L1510 929.4L1511.3 929.6L1512.7 929.6L1514 929.6L1515.3 929.5L1516.7 929.5L1518 929.5L1519.3 929.5L1520.7 929.4L1522 929.4L1523.3 929.6L1524.7 929.5L1526 929.5L1527.3 929.6L1528.7 929.5L1530 929.5L1531.3 929.4L1532.7 929.4L1534 929.5L1535.3 929.6L1536.7 929.4L1538 929.4L1539.3 929.4L1540.7 929.4L1542 929.6L1543.3 929.5L1544.7 929.5L1546 929.4L1547.3 929.5L1548.7 929.4L1550 929.4L1551.3 929.5L1552.7 929.4L1554 929.6L1555.3 929.4L1556.7 929.5L1558 929.4L1559.3 929.5L1560.7 929.6L1562 929.7L1563.3 929.4L1564.7 929.6L1566 929.6L1567.3 929.6L1568.7 -2530.8L1570 -2422.8L1571.3 -2749.3L1572.7 -2201.3L1574 450.4L1575.3 430.4L1576.7 605.2L1578 -4359.3L1579.3 -1724.1L1580.7 181.2L1582 548L1583.3 463.7L1584.7 833.9L1586 782.3L1587.3 869.3L1588.7 809.3L1590 872.4L1591.3 806L1592.7 872.9L1594 777.3L1595.3 853.6L1596.7 802.4L1598 872L1599.3 812.7L1600.7 872.7L1602 813.8L1603.3 872.9L1604.7 807L1606 855.2L1607.3 787.4L1608.7 859.5L1610 804.6L1611.3 870.9L1612.7 809.8L1614 858.7L1615.3 799.5L1616.7 866.9L1618 786.9L1619.3 872.7L1620.7 789.7L1622 873L1623.3 790L1624.7 872.3L1626 797.6L1627.3 856.9L1628.7 784.3L1630 872.7L1631.3 811.6L1632.7 871L1634 812.7L1635.3 870L1636.7 797.4L1638 867.9L1639.3 810L1640.7 872.8L1642 814.3L1643.3 860L1644.7 813.3L1646 872.4L1647.3 787.4L1648.7 857.7L1650 825.2L1651.3 870.9L1652.7 829.1L1654 872.1L1655.3 829.9L1656.7 872.3L1658 830.8L1659.3 872.5L1660.7 831L1662 857.3L1663.3 816.9L1664.7 870.2L1666 830.4L1667.3 872.2L1668.7 825.9L1670 872L1671.3 810.2L1672.7 871.8L1674 829.1L1675.3 855.1L1676.7 807.5L1678 869.3L1679.3 829.7L1680.7 871.9L1682 820.2L1683.3 858.9L1684.7 830.5L1686 872.4L1687.3 823.2L1688.7 857.2L1690 828.8L1691.3 871.8L1692.7 828.5L1694 871.7L1695.3 830.3L1696.7 859L1698 828.8L1699.3 872.1L1700.7 814.7L1702 858.2L1703.3 829.8L1704.7 858.7L1706 830L1707.3 872.3L1708.7 807.9L1710 872.4L1711.3 828.9L1712.7 871.8L1714 792L1715.3 870.2L1716.7 808.6L1718 869.1L1719.3 806.9L1720.7 872L1722 831.1L1723.3 869.8L1724.7 829.4L1726 858.4L1727.3 826.8L1728.7 869.7L1730 787.9L1731.3 850.1L1732.7 829.5L1734 871.6L1735.3 828.1L1736.7 871.9L1738 829.7L1739.3 854L1740.7 811.6L1742 869.9L1743.3 829.3L1744.7 867.7L1746 830.2L1747.3 871.9L1748.7 822.2L1750 858.1L1751.3 827.4L1752.7 870.8L1754 826.9L1755.3 870L1756.7 828L1758 861.7L1759.3 827.7L1760.7 872.2L1762 830.3L1763.3 871.6L1764.7 831.1L1766 851.6L1767.3 822.2L1768.7 866.6L1770 828.3L1771.3 871.7L1772.7 828.9L1774 869L1775.3 807.1L1776.7 858.5L1778 819.9L1779.3 858.4L1780.7 823.9L1782 870.9L1783.3 823.8L1784.7 858.8L1786 830.6L1787.3 872.3L1788.7 808.4L1790 872.2L1791.3 792L1792.7 867.9L1794 829.3L1795.3 871.5L1796.7 807.6L1798 871.5L1799.3 831.3" fill="transparent" stroke="#3fb1e3" stroke-width="3" stroke-linejoin="bevel" class="zr22-cls-68"></path>
</g>
<g clip-path="url(#zr22-c1)">
<path d="M200.7 811.1L202 778.9L203.3 856.6L204.7 834.9L206 871.7L207.3 835.8L208.7 871.7L210 836.3L211.3 858.5L212.7 901.6L214 929.4L215.3 929.6L216.7 929.7L218 929.7L219.3 929.5L220.7 929.5L222 929.6L223.3 929.7L224.7 929.4L226 929.6L227.3 929.5L228.7 929.7L230 929.6L231.3 929.7L232.7 929.7L234 929.7L235.3 929.7L236.7 929.7L238 929.7L239.3 929.7L240.7 929.7L242 929.7L243.3 929.7L244.7 929.7L246 929.6L247.3 929.7L248.7 929.4L250 929.7L251.3 929.6L252.7 929.6L254 929.6L255.3 929.6L256.7 929.7L258 929.7L259.3 929.7L260.7 929.7L262 929.4L263.3 929.6L264.7 929.6L266 929.7L267.3 929.7L268.7 929.7L270 929.6L271.3 929.5L272.7 929.5L274 929.7L275.3 929.7L276.7 929.7L278 929.7L279.3 929.6L280.7 929.5L282 929.7L283.3 929.7L284.7 929.6L286 929.7L287.3 929.6L288.7 -2399.4L290 -1956L291.3 -2470.1L292.7 -2134.4L294 477L295.3 507.6L296.7 603.1L298 -4399.6L299.3 -1965.3L300.7 54.9L302 422L303.3 188.9L304.7 834.3L306 721.4L307.3 844.5L308.7 780L310 844.7L311.3 748.1L312.7 839.8L314 751.4L315.3 848.8L316.7 765.5L318 869.2L319.3 806.6L320.7 825.3L322 788.3L323.3 846L324.7 766.9L326 839L327.3 637.7L328.7 792.9L330 670.1L331.3 835.4L332.7 711.6L334 825.3L335.3 750.3L336.7 855.6L338 780.9L339.3 859.4L340.7 757.5L342 855.2L343.3 807.8L344.7 865.8L346 810.2L347.3 849.3L348.7 797.2L350 843.8L351.3 808.2L352.7 848L354 815.2L355.3 870.9L356.7 798.2L358 847.1L359.3 809.9L360.7 869.8L362 814.7L363.3 870.6L364.7 811.3L366 851.3L367.3 796.6L368.7 849.5L370 827.1L371.3 849.6L372.7 792.2L374 869.4L375.3 832.3L376.7 849.9L378 794.2L379.3 817.3L380.7 788.8L382 869.4L383.3 791.1L384.7 847.7L386 833L387.3 870.7L388.7 822L390 859.5L391.3 785L392.7 845.5L394 831.1L395.3 850.4L396.7 794.3L398 869.5L399.3 833.7L400.7 868.8L402 827L403.3 848.4L404.7 792L406 865.2L407.3 828.7L408.7 869.7L410 791.6L411.3 850.2L412.7 786.8L414 867.2L415.3 829.9L416.7 865.1L418 818.4L419.3 869.9L420.7 834.9L422 870.7L423.3 833.5L424.7 869.6L426 834.2L427.3 870.8L428.7 833.5L430 871.2L431.3 801L432.7 871.2L434 833.5L435.3 871.5L436.7 831.7L438 868.9L439.3 831.6L440.7 868.4L442 816.6L443.3 861.9L444.7 827.1L446 866.5L447.3 805.2L448.7 867.4L450 820L451.3 866.4L452.7 829.1L454 869.9L455.3 832.8L456.7 870.1L458 820L459.3 846.9L460.7 828.9L462 863.5L463.3 790.9L464.7 841.1L466 829.1L467.3 848.1L468.7 779.3L470 864.7L471.3 831.5L472.7 844.7L474 788.3L475.3 868.4L476.7 791.3L478 869.9L479.3 792.5L480.7 855.4L482 788.3L483.3 868.8L484.7 784.1L486 870.8L487.3 781.5L488.7 844.6L490 834.9L491.3 843.5L492.7 831L494 870.6L495.3 835.7L496.7 871.1L498 835.6L499.3 843.5L500.7 834.7L502 871.8L503.3 835.5L504.7 869.4L506 834.5L507.3 871.3L508.7 835.8L510 871.8L511.3 835.8L512.7 871.5L514 835.8L515.3 862.7L516.7 824.2L518 871.9L519.3 831.9L520.7 870.1L522 828.4L523.3 871.6L524.7 831L526 871.7L527.3 835.8L528.7 871.3L530 836.4L531.3 871.7L532.7 916L534 929.6L535.3 929.6L536.7 929.4L538 929.5L539.3 929.4L540.7 929.5L542 929.6L543.3 929.7L544.7 929.4L546 929.6L547.3 929.5L548.7 929.4L550 929.7L551.3 929.6L552.7 929.7L554 929.6L555.3 929.7L556.7 929.6L558 929.7L559.3 929.7L560.7 929.5L562 929.6L563.3 929.6L564.7 929.5L566 929.5L567.3 929.6L568.7 929.6L570 929.6L571.3 929.6L572.7 929.6L574 929.4L575.3 929.6L576.7 929.6L578 929.6L579.3 929.7L580.7 929.4L582 929.5L583.3 929.7L584.7 929.7L586 929.7L587.3 929.6L588.7 929.7L590 929.6L591.3 929.7L592.7 929.7L594 929.7L595.3 929.6L596.7 929.6L598 929.7L599.3 929.7L600.7 929.7L602 929.7L603.3 929.7L604.7 929.7L606 929.6L607.3 929.7L608.7 -2368.6L610 -2077.3L611.3 -2638.9L612.7 -2122.7L614 498.1L615.3 515.8L616.7 549.9L618 -4048.1L619.3 -1606L620.7 146.2L622 517.1L623.3 459.3L624.7 825L626 800.4L627.3 868.5L628.7 815.6L630 870.5L631.3 818L632.7 871.5L634 795L635.3 868.2L636.7 796.3L638 871.5L639.3 801.1L640.7 871.4L642 817.3L643.3 871.1L644.7 813.7L646 867.9L647.3 816.9L648.7 871.5L650 820.1L651.3 869.7L652.7 818.9L654 872.2L655.3 809.1L656.7 864.9L658 815.1L659.3 871.9L660.7 821.3L662 872.2L663.3 819.6L664.7 872.5L666 820.2L667.3 868.6L668.7 804.4L670 862.9L671.3 817.6L672.7 859.2L674 797.7L675.3 872.3L676.7 821L678 871.7L679.3 783.4L680.7 870.3L682 816L683.3 872L684.7 819.8L686 861.8L687.3 804.7L688.7 872.8L690 835.3L691.3 872.3L692.7 831.4L694 855.4L695.3 832.5L696.7 871.8L698 835L699.3 871.3L700.7 836.4L702 872L703.3 835.8L704.7 840.4L706 829.4L707.3 871L708.7 833.8L710 871.6L711.3 833.9L712.7 871.5L714 836L715.3 858.9L716.7 836L718 863.4L719.3 824.3L720.7 869.8L722 834.3L723.3 870.9L724.7 835.6L726 870.8L727.3 814.4L728.7 871.9L730 836L731.3 871.7L732.7 812.6L734 857L735.3 835.3L736.7 870.8L738 836.1L739.3 871.4L740.7 835.9L742 862.5L743.3 837L744.7 871.9L746 813.9L747.3 870.8L748.7 835.1L750 871.4L751.3 835.6L752.7 871.3L754 834.2L755.3 871.5L756.7 837.2L758 872.1L759.3 815.9L760.7 869.1L762 828.5L763.3 871.9L764.7 836.1L766 871.9L767.3 820.1L768.7 871.7L770 836.2L771.3 871.6L772.7 815.6L774 870.1L775.3 827.9L776.7 869.5L778 835L779.3 871.1L780.7 819L782 867.4L783.3 836L784.7 858.6L786 836.1L787.3 871.9L788.7 830.1L790 866.8L791.3 834.4L792.7 858.1L794 836.1L795.3 871.7L796.7 836.2L798 871.3L799.3 836.7L800.7 866.5L802 814.7L803.3 867.8L804.7 833.3L806 857.5L807.3 836L808.7 871.9L810 837.1L811.3 871.7L812.7 815.5L814 872L815.3 835.3L816.7 869L818 833.2L819.3 869.2L820.7 836.4L822 871.7L823.3 815.7L824.7 871.4L826 835.9L827.3 872.1L828.7 831L830 868.6L831.3 833.7L832.7 870.3L834 833.6L835.3 865.3L836.7 836.1L838 858.3L839.3 836.1L840.7 866.4L842 836.9L843.3 858.7L844.7 834.4L846 871.6L847.3 835.8L848.7 871.6L850 836L851.3 871.9L852.7 915.8L854 929.4L855.3 929.6L856.7 929.7L858 929.7L859.3 929.6L860.7 929.6L862 929.5L863.3 929.7L864.7 929.6L866 929.7L867.3 929.6L868.7 929.5L870 929.6L871.3 929.5L872.7 929.5L874 929.6L875.3 929.6L876.7 929.5L878 929.5L879.3 929.5L880.7 929.6L882 929.6L883.3 929.6L884.7 929.6L886 929.6L887.3 929.6L888.7 929.6L890 929.5L891.3 929.6L892.7 929.6L894 929.6L895.3 929.7L896.7 929.7L898 929.7L899.3 929.7L900.7 929.7L902 929.7L903.3 929.7L904.7 929.6L906 929.4L907.3 929.7L908.7 929.6L910 929.6L911.3 929.6L912.7 929.6L914 929.6L915.3 929.7L916.7 929.7L918 929.6L919.3 929.7L920.7 929.5L922 929.6L923.3 929.4L924.7 929.7L926 929.7L927.3 929.6L928.7 -2443.1L930 -2087.6L931.3 -2596.3L932.7 -2146.8L934 456.3L935.3 495.4L936.7 611L938 -4349.5L939.3 -1700.8L940.7 200.2L942 537.4L943.3 486.8L944.7 844.6L946 770L947.3 853.7L948.7 807.9L950 870.3L951.3 817.2L952.7 872.1L954 818.1L955.3 868.4L956.7 805.5L958 869.9L959.3 817.7L960.7 868.5L962 818.3L963.3 871.7L964.7 819.1L966 869.7L967.3 803.9L968.7 870.1L970 797.8L971.3 872L972.7 819.2L974 872.4L975.3 797.2L976.7 860.5L978 785.9L979.3 870.2L980.7 819.3L982 872.5L983.3 820.4L984.7 872.3L986 819.6L987.3 871.4L988.7 806.8L990 865.4L991.3 816.4L992.7 866L994 805L995.3 872.2L996.7 821.3L998 870.4L999.3 819.2L1000.7 871.7L1002 816.2L1003.3 858.5L1004.7 816.7L1006 871.7L1007.3 820L1008.7 872.7L1010 836L1011.3 871.6L1012.7 829.5L1014 866.8L1015.3 824.6L1016.7 871L1018 835.4L1019.3 871.5L1020.7 833.9L1022 871.2L1023.3 835.6L1024.7 871.8L1026 827.8L1027.3 863.1L1028.7 830.3L1030 869.4L1031.3 829L1032.7 868L1034 833L1035.3 870.9L1036.7 835.7L1038 871.1L1039.3 833.9L1040.7 869.2L1042 830.5L1043.3 871.2L1044.7 832.5L1046 870.3L1047.3 834L1048.7 870.8L1050 833.8L1051.3 870.8L1052.7 822.1L1054 867.7L1055.3 830L1056.7 869.2L1058 830.9L1059.3 869.5L1060.7 835.5L1062 868.6L1063.3 835.3L1064.7 870.6L1066 815.1L1067.3 854.2L1068.7 830.4L1070 868.5L1071.3 833.3L1072.7 869.1L1074 832.3L1075.3 870.8L1076.7 813.8L1078 871.2L1079.3 834.9L1080.7 868.2L1082 819.7L1083.3 869.4L1084.7 834.4L1086 871.2L1087.3 834.5L1088.7 871L1090 835.9L1091.3 856.1L1092.7 802.2L1094 865.2L1095.3 829.3L1096.7 859.5L1098 832L1099.3 869.8L1100.7 834.2L1102 870.8L1103.3 835.6L1104.7 871.4L1106 754.5L1107.3 843.7L1108.7 831.3L1110 868.1L1111.3 825.3L1112.7 869.7L1114 834.2L1115.3 870.2L1116.7 773.6L1118 865.1L1119.3 782.4L1120.7 848L1122 829.8L1123.3 867L1124.7 832L1126 869.1L1127.3 790.7L1128.7 850.8L1130 792.6L1131.3 867.7L1132.7 832.8L1134 869.3L1135.3 831.6L1136.7 845.2L1138 835L1139.3 870.7L1140.7 752.7L1142 863L1143.3 827.8L1144.7 866.4L1146 832.3L1147.3 869.6L1148.7 834.4L1150 845.9L1151.3 835.3L1152.7 870.8L1154 796.8L1155.3 866.5L1156.7 831.9L1158 829.1L1159.3 790.2L1160.7 869.7L1162 833.6L1163.3 871.1L1164.7 835.9L1166 858.1L1167.3 829.4L1168.7 869.5L1170 834.9L1171.3 871L1172.7 915L1174 929.6L1175.3 929.4L1176.7 929.6L1178 929.7L1179.3 929.6L1180.7 929.6L1182 929.6L1183.3 929.7L1184.7 929.6L1186 929.5L1187.3 929.6L1188.7 929.7L1190 929.4L1191.3 929.7L1192.7 929.3L1194 929.6L1195.3 929.6L1196.7 929.7L1198 929.5L1199.3 929.6L1200.7 929.7L1202 929.6L1203.3 929.5L1204.7 929.6L1206 929.5L1207.3 929.4L1208.7 929.6L1210 929.7L1211.3 929.7L1212.7 929.6L1214 929.6L1215.3 929.6L1216.7 929.6L1218 929.6L1219.3 929.6L1220.7 929.7L1222 929.6L1223.3 929.6L1224.7 929.5L1226 929.7L1227.3 929.7L1228.7 929.7L1230 929.4L1231.3 929.6L1232.7 929.6L1234 929.6L1235.3 929.6L1236.7 929.6L1238 929.6L1239.3 929.6L1240.7 929.6L1242 929.7L1243.3 929.6L1244.7 929.4L1246 929.6L1247.3 929.6L1248.7 -2587.9L1250 -2250.2L1251.3 -2810.6L1252.7 -2244.3L1254 432.7L1255.3 416.8L1256.7 568.9L1258 -4417.9L1259.3 -1665.2L1260.7 -119.9L1262 384L1263.3 428.8L1264.7 830.8L1266 792.5L1267.3 858.1L1268.7 808L1270 868.3L1271.3 812L1272.7 870.9L1274 806.9L1275.3 867.3L1276.7 805.2L1278 870.8L1279.3 812.4L1280.7 870L1282 814.5L1283.3 868.8L1284.7 773.4L1286 867.3L1287.3 785.8L1288.7 870.8L1290 814.9L1291.3 871.4L1292.7 816.4L1294 868.5L1295.3 801.3L1296.7 869.4L1298 811.5L1299.3 870.3L1300.7 795.3L1302 870.6L1303.3 819.1L1304.7 870.3L1306 800.7L1307.3 867.7L1308.7 813.3L1310 869.9L1311.3 818.4L1312.7 871.3L1314 820.2L1315.3 871.6L1316.7 812.7L1318 837.4L1319.3 812.7L1320.7 872L1322 819.1L1323.3 871L1324.7 816.4L1326 872.3L1327.3 819L1328.7 869.7L1330 832L1331.3 870.8L1332.7 835.6L1334 871.4L1335.3 832.1L1336.7 871.5L1338 836.4L1339.3 866.1L1340.7 814L1342 869.1L1343.3 801.3L1344.7 870.5L1346 834.3L1347.3 870.2L1348.7 833.3L1350 870.7L1351.3 830.3L1352.7 870.2L1354 833.1L1355.3 855.8L1356.7 786.9L1358 870.3L1359.3 834.5L1360.7 869.9L1362 826.3L1363.3 868.9L1364.7 830.4L1366 869.3L1367.3 829L1368.7 868.7L1370 832.3L1371.3 869.2L1372.7 828L1374 856.5L1375.3 835L1376.7 871.3L1378 834.7L1379.3 868.1L1380.7 803.5L1382 870.3L1383.3 833.9L1384.7 870.2L1386 833.7L1387.3 869.6L1388.7 819.5L1390 870.7L1391.3 835.2L1392.7 867.3L1394 827.6L1395.3 862.2L1396.7 832.5L1398 867.4L1399.3 833.7L1400.7 870.8L1402 835.5L1403.3 870.2L1404.7 829.8L1406 857.2L1407.3 828.7L1408.7 868.6L1410 827.9L1411.3 867.6L1412.7 833L1414 870L1415.3 835.8L1416.7 871.3L1418 814.6L1419.3 867L1420.7 822.8L1422 869.5L1423.3 833.4L1424.7 870.2L1426 834.8L1427.3 870.8L1428.7 835.9L1430 871.4L1431.3 824.7L1432.7 868L1434 832L1435.3 866.8L1436.7 833.4L1438 870.3L1439.3 835.3L1440.7 857.9L1442 832.9L1443.3 858.7L1444.7 836.7L1446 865L1447.3 831.2L1448.7 856.1L1450 833.5L1451.3 870.8L1452.7 835.9L1454 858.6L1455.3 823L1456.7 871.8L1458 835.6L1459.3 858.3L1460.7 825.3L1462 864.7L1463.3 828.4L1464.7 870.5L1466 832.9L1467.3 871.6L1468.7 815.4L1470 871.6L1471.3 829.6L1472.7 871.6L1474 830L1475.3 868.3L1476.7 834L1478 867.9L1479.3 836.3L1480.7 871.6L1482 818.7L1483.3 864.6L1484.7 835.7L1486 871.5L1487.3 810.3L1488.7 868.2L1490 834.3L1491.3 870.4L1492.7 915.1L1494 929.5L1495.3 929.7L1496.7 929.6L1498 929.7L1499.3 929.6L1500.7 929.6L1502 929.7L1503.3 929.7L1504.7 929.7L1506 929.6L1507.3 929.6L1508.7 929.7L1510 929.6L1511.3 929.7L1512.7 929.6L1514 929.6L1515.3 929.6L1516.7 929.6L1518 929.6L1519.3 929.5L1520.7 929.4L1522 929.5L1523.3 929.5L1524.7 929.7L1526 929.5L1527.3 929.6L1528.7 929.6L1530 929.6L1531.3 929.6L1532.7 929.6L1534 929.5L1535.3 929.7L1536.7 929.7L1538 929.7L1539.3 929.4L1540.7 929.7L1542 929.7L1543.3 929.7L1544.7 929.7L1546 929.7L1547.3 929.6L1548.7 929.6L1550 929.4L1551.3 929.7L1552.7 929.6L1554 929.5L1555.3 929.4L1556.7 929.6L1558 929.5L1559.3 929.6L1560.7 929.6L1562 929.6L1563.3 929.5L1564.7 929.6L1566 929.6L1567.3 929.7L1568.7 -2400.2L1570 -2074.6L1571.3 -2652.9L1572.7 -2257.2L1574 387L1575.3 461.3L1576.7 531.6L1578 -4420.5L1579.3 -1695.3L1580.7 174.4L1582 583L1583.3 497.6L1584.7 843.2L1586 782.5L1587.3 864.1L1588.7 812.7L1590 857L1591.3 817L1592.7 872L1594 807.6L1595.3 867.9L1596.7 816L1598 871.3L1599.3 818.5L1600.7 871.9L1602 818.1L1603.3 871.5L1604.7 784.9L1606 869.6L1607.3 811.5L1608.7 871.2L1610 819.6L1611.3 871.8L1612.7 817.1L1614 872.4L1615.3 814.2L1616.7 849.8L1618 817.9L1619.3 871.8L1620.7 822.6L1622 860.1L1623.3 820L1624.7 861.6L1626 818.6L1627.3 864.6L1628.7 808.4L1630 868.2L1631.3 819.7L1632.7 872.3L1634 821.5L1635.3 872L1636.7 820.7L1638 872.2L1639.3 804.9L1640.7 866.5L1642 816.6L1643.3 867.4L1644.7 819.6L1646 872.5L1647.3 820.4L1648.7 872.2L1650 833.5L1651.3 865.8L1652.7 830L1654 871.3L1655.3 815.2L1656.7 862.6L1658 824.7L1659.3 871.6L1660.7 836.7L1662 871.8L1663.3 792.6L1664.7 868.9L1666 833.5L1667.3 868L1668.7 836.1L1670 871.6L1671.3 835.1L1672.7 862.3L1674 835.8L1675.3 871.9L1676.7 836L1678 870.5L1679.3 828L1680.7 864L1682 835.7L1683.3 871.3L1684.7 823.1L1686 871.1L1687.3 836.1L1688.7 871.1L1690 836.5L1691.3 870.8L1692.7 831.9L1694 870L1695.3 832.1L1696.7 871L1698 835.5L1699.3 871.7L1700.7 834L1702 871.7L1703.3 836L1704.7 839.7L1706 832.1L1707.3 869.5L1708.7 834.8L1710 871.3L1711.3 836L1712.7 871.6L1714 835.9L1715.3 871.4L1716.7 836.5L1718 871.8L1719.3 814.2L1720.7 869.3L1722 835.3L1723.3 870.9L1724.7 835.6L1726 871.6L1727.3 832.7L1728.7 858.1L1730 836.5L1731.3 871.8L1732.7 836.4L1734 868.8L1735.3 834.7L1736.7 871L1738 836.1L1739.3 872L1740.7 835.2L1742 858.4L1743.3 836.4L1744.7 871.7L1746 823.9L1747.3 867.7L1748.7 818.1L1750 870L1751.3 835.9L1752.7 871.3L1754 834.6L1755.3 871L1756.7 836.4L1758 871.9L1759.3 821.4L1760.7 840.4L1762 833.2L1763.3 871.6L1764.7 836.2L1766 871.7L1767.3 836.8L1768.7 872L1770 830.6L1771.3 871.5L1772.7 836.2L1774 871.9L1775.3 813.9L1776.7 870.4L1778 823.8L1779.3 870.8L1780.7 835.6L1782 870.8L1783.3 835.7L1784.7 871.8L1786 836.6L1787.3 872L1788.7 787.2L1790 854.1L1791.3 826.9L1792.7 871.6L1794 815L1795.3 871.8L1796.7 836.4L1798 871.7L1799.3 833.5" fill="transparent" stroke="#6be6c1" stroke-width="3" stroke-linejoin="bevel" class="zr22-cls-68"></path>
</g>
<g clip-path="url(#zr22-c2)">
<path d="M200.7 797.3L202 782.2L203.3 851.3L204.7 808.9L206 870.2L207.3 830L208.7 871.6L210 836.6L211.3 872L212.7 897.6L214 929.4L215.3 929.4L216.7 929.5L218 929.4L219.3 929.5L220.7 929.4L222 929.4L223.3 929.5L224.7 929.5L226 929.5L227.3 929.3L228.7 929.4L230 929.4L231.3 929.5L232.7 929.4L234 929.7L235.3 929.5L236.7 929.6L238 929.5L239.3 929.7L240.7 929.5L242 929.6L243.3 929.6L244.7 929.6L246 929.5L247.3 929.5L248.7 929.4L250 929.6L251.3 929.4L252.7 929.6L254 929.6L255.3 929.5L256.7 929.5L258 929.6L259.3 929.6L260.7 929.4L262 929.5L263.3 929.5L264.7 929.6L266 929.6L267.3 929.5L268.7 929.5L270 929.6L271.3 929.6L272.7 929.6L274 929.5L275.3 929.4L276.7 929.5L278 929.6L279.3 929.4L280.7 929.5L282 929.4L283.3 929.6L284.7 929.6L286 929.4L287.3 929.4L288.7 -4032.5L290 -3419.6L291.3 -2965.1L292.7 -2537.1L294 382.5L295.3 347.5L296.7 477.8L298 -4810.8L299.3 -1697.7L300.7 -252.3L302 446.1L303.3 460.4L304.7 861.6L306 763.3L307.3 861.9L308.7 780.9L310 867.4L311.3 789.5L312.7 871.4L314 769.3L315.3 867L316.7 808L318 872.2L319.3 818.8L320.7 872.2L322 815.1L323.3 865.8L324.7 801.1L326 859.5L327.3 808.5L328.7 869.9L330 818.2L331.3 872L332.7 790.3L334 840.7L335.3 762.3L336.7 868.5L338 819.5L339.3 871.8L340.7 820.4L342 871.4L343.3 819.1L344.7 861.1L346 791.9L347.3 870.8L348.7 792.1L350 870.7L351.3 815L352.7 872L354 809.4L355.3 860.5L356.7 809.4L358 867.5L359.3 814.8L360.7 871.1L362 820.2L363.3 871.8L364.7 816.7L366 857.5L367.3 796.1L368.7 863.2L370 802.5L371.3 868.6L372.7 833.3L374 861.8L375.3 813.6L376.7 870.3L378 797.3L379.3 864.9L380.7 830.5L382 869.2L383.3 835.6L384.7 871.2L386 813.9L387.3 871L388.7 830.3L390 849.6L391.3 823L392.7 865.2L394 831.8L395.3 868.7L396.7 827.1L398 870.2L399.3 834.9L400.7 871L402 815.8L403.3 865.3L404.7 828.2L406 868.5L407.3 820.9L408.7 870.1L410 835L411.3 870.3L412.7 834.7L414 869.8L415.3 825L416.7 866.8L418 785.2L419.3 844.9L420.7 835.2L422 870.2L423.3 805.4L424.7 858L426 814.6L427.3 859.2L428.7 828.5L430 867.7L431.3 834.2L432.7 870.3L434 789L435.3 870.4L436.7 835.7L438 868.4L439.3 822.1L440.7 864.5L442 788L443.3 867L444.7 813.3L446 870.9L447.3 836L448.7 870.8L450 834.4L451.3 871.3L452.7 817.2L454 865.2L455.3 827.6L456.7 869.1L458 830.2L459.3 843.9L460.7 835.1L462 857.8L463.3 836.4L464.7 871.8L466 829.7L467.3 867.4L468.7 832.3L470 869.2L471.3 834.5L472.7 869.9L474 835.6L475.3 870.6L476.7 836.4L478 871.4L479.3 831.4L480.7 867.6L482 823.9L483.3 852.7L484.7 790L486 858.9L487.3 836L488.7 871.3L490 835.7L491.3 868L492.7 824.9L494 863.8L495.3 787.3L496.7 857.1L498 787.7L499.3 870.3L500.7 823.5L502 870.9L503.3 835.5L504.7 853.2L506 780.3L507.3 865.9L508.7 834.6L510 871.1L511.3 814.1L512.7 870.2L514 826.4L515.3 871.7L516.7 792.8L518 852.2L519.3 832.4L520.7 870.1L522 834.4L523.3 870.5L524.7 834.9L526 871.3L527.3 836.4L528.7 871.5L530 807.4L531.3 864.9L532.7 913.9L534 929.5L535.3 929.5L536.7 929.4L538 929.3L539.3 929.5L540.7 929.6L542 929.4L543.3 929.5L544.7 929.5L546 929.6L547.3 929.5L548.7 929.4L550 929.6L551.3 929.7L552.7 929.5L554 929.4L555.3 929.5L556.7 929.5L558 929.6L559.3 929.4L560.7 929.4L562 929.5L563.3 929.4L564.7 929.6L566 929.6L567.3 929.5L568.7 929.4L570 929.4L571.3 929.7L572.7 929.4L574 929.4L575.3 929.5L576.7 929.6L578 929.6L579.3 929.5L580.7 929.6L582 929.6L583.3 929.5L584.7 929.5L586 929.5L587.3 929.5L588.7 929.6L590 929.6L591.3 929.5L592.7 929.4L594 929.3L595.3 929.3L596.7 929.4L598 929.4L599.3 929.5L600.7 929.6L602 929.5L603.3 929.5L604.7 929.7L606 929.5L607.3 929.5L608.7 -2574.4L610 -2299L611.3 -2977.7L612.7 -2486.2L614 373.9L615.3 401.2L616.7 540.6L618 -4700.1L619.3 -1754.6L620.7 93L622 507.9L623.3 301.8L624.7 833.7L626 781.1L627.3 862.4L628.7 783.5L630 867.6L631.3 806.9L632.7 871.8L634 761.1L635.3 871.2L636.7 790.4L638 855.6L639.3 804.4L640.7 855.7L642 811.6L643.3 872.1L644.7 796.2L646 871L647.3 770.9L648.7 864.4L650 799.9L651.3 861.7L652.7 815.2L654 872.3L655.3 817.6L656.7 872.2L658 794.4L659.3 851.8L660.7 809.8L662 868.9L663.3 816.8L664.7 872.2L666 796.1L667.3 872.2L668.7 788.8L670 864.7L671.3 809.5L672.7 869.1L674 817.7L675.3 872.2L676.7 819.8L678 871.9L679.3 800.8L680.7 848.9L682 807.5L683.3 867.2L684.7 813.8L686 870.9L687.3 818.1L688.7 870.6L690 834L691.3 852.1L692.7 806.7L694 864.6L695.3 823.2L696.7 862.7L698 831.6L699.3 870.2L700.7 833.9L702 861.1L703.3 809.9L704.7 853.3L706 826.9L707.3 844.3L708.7 815.6L710 870.4L711.3 817.5L712.7 870L714 832.9L715.3 864.6L716.7 826.9L718 861.3L719.3 834.2L720.7 868.8L722 835.4L723.3 868.6L724.7 835.5L726 871.1L727.3 828.5L728.7 857.7L730 829L731.3 868.1L732.7 834.1L734 870.4L735.3 835L736.7 870.9L738 835.2L739.3 858.2L740.7 830L742 853.7L743.3 831.1L744.7 869.5L746 835.9L747.3 865.8L748.7 834.3L750 870L751.3 835.9L752.7 871.6L754 815.1L755.3 866.5L756.7 814.2L758 869.4L759.3 834.5L760.7 870L762 835.6L763.3 870.6L764.7 836.3L766 870.8L767.3 821.6L768.7 867.1L770 785.5L771.3 869.4L772.7 814.5L774 870.3L775.3 834.4L776.7 870.7L778 836.3L779.3 856L780.7 826.5L782 863.1L783.3 830.3L784.7 870.2L786 823.4L787.3 870.3L788.7 834L790 848L791.3 836.1L792.7 851.3L794 827.4L795.3 866.8L796.7 831.6L798 869.8L799.3 835.5L800.7 871L802 835.6L803.3 871.8L804.7 836.1L806 853.4L807.3 825L808.7 853L810 818.4L811.3 869.1L812.7 835L814 871L815.3 812.7L816.7 871.2L818 836L819.3 848.5L820.7 827.7L822 867L823.3 833.8L824.7 870.7L826 835.2L827.3 871L828.7 835.3L830 871.5L831.3 828.2L832.7 863.7L834 829L835.3 868L836.7 834.7L838 869.8L839.3 834.1L840.7 870.5L842 835.6L843.3 867.4L844.7 815.2L846 856.4L847.3 808.9L848.7 868.4L850 832.3L851.3 870.5L852.7 915.5L854 929.6L855.3 929.5L856.7 929.4L858 929.4L859.3 929.5L860.7 929.6L862 929.6L863.3 929.4L864.7 929.7L866 929.5L867.3 929.5L868.7 929.4L870 929.6L871.3 929.4L872.7 929.5L874 929.4L875.3 929.4L876.7 929.5L878 929.5L879.3 929.6L880.7 929.5L882 929.4L883.3 929.5L884.7 929.6L886 929.7L887.3 929.6L888.7 929.5L890 929.4L891.3 929.5L892.7 929.4L894 929.5L895.3 929.5L896.7 929.4L898 929.5L899.3 929.4L900.7 929.6L902 929.3L903.3 929.4L904.7 929.4L906 929.5L907.3 929.5L908.7 929.6L910 929.6L911.3 929.5L912.7 929.5L914 929.6L915.3 929.6L916.7 929.5L918 929.5L919.3 929.5L920.7 929.6L922 929.4L923.3 929.6L924.7 929.5L926 929.4L927.3 929.4L928.7 -2587.7L930 -2321.6L931.3 -3033.9L932.7 -2548.6L934 408.9L935.3 457.4L936.7 534.3L938 -4770.4L939.3 -1636.6L940.7 189L942 535.5L943.3 442L944.7 848.9L946 802.6L947.3 871.2L948.7 806.9L950 867.8L951.3 815.8L952.7 872L954 793.9L955.3 871.8L956.7 818.4L958 836.1L959.3 793.9L960.7 867.3L962 816.8L963.3 870.3L964.7 818.6L966 872.3L967.3 818.6L968.7 867.6L970 809.5L971.3 871.2L972.7 818L974 872.7L975.3 821.1L976.7 870.4L978 821.7L979.3 872.8L980.7 779.4L982 869.9L983.3 802.3L984.7 871.1L986 796.4L987.3 871.6L988.7 813L990 858.1L991.3 783.9L992.7 860.5L994 817.2L995.3 870.6L996.7 821.1L998 872L999.3 820.1L1000.7 858.8L1002 806.4L1003.3 866.7L1004.7 813.8L1006 871L1007.3 817.7L1008.7 871.3L1010 835.6L1011.3 871.6L1012.7 835.9L1014 871.7L1015.3 828.4L1016.7 868.5L1018 834.5L1019.3 867.6L1020.7 836.6L1022 871.2L1023.3 836.3L1024.7 871.8L1026 833.7L1027.3 837L1028.7 810.8L1030 867.4L1031.3 830.3L1032.7 869.6L1034 813.8L1035.3 871.3L1036.7 815.7L1038 859.2L1039.3 814.9L1040.7 855.9L1042 832.6L1043.3 870.3L1044.7 836.3L1046 871L1047.3 835.9L1048.7 871.5L1050 829L1051.3 871.1L1052.7 835.7L1054 854.9L1055.3 833.4L1056.7 863.8L1058 835.5L1059.3 871.6L1060.7 836.4L1062 871.6L1063.3 816.4L1064.7 871.5L1066 831L1067.3 852.7L1068.7 832.9L1070 870.4L1071.3 835.7L1072.7 871.5L1074 834.3L1075.3 870.6L1076.7 835.6L1078 871.4L1079.3 832.9L1080.7 865.1L1082 834.4L1083.3 871L1084.7 836.1L1086 871L1087.3 835.9L1088.7 868.6L1090 826.1L1091.3 871.6L1092.7 815.5L1094 854.7L1095.3 813.4L1096.7 870.5L1098 835.8L1099.3 869L1100.7 834L1102 871L1103.3 815.2L1104.7 871.7L1106 795.8L1107.3 863.6L1108.7 824.7L1110 868.8L1111.3 823.8L1112.7 858.1L1114 833.5L1115.3 869.5L1116.7 831.2L1118 867.9L1119.3 815.8L1120.7 864.3L1122 833.2L1123.3 868.7L1124.7 833.2L1126 854.6L1127.3 834.7L1128.7 870.7L1130 834.1L1131.3 870.5L1132.7 822.7L1134 866.3L1135.3 831L1136.7 869.6L1138 814.1L1139.3 871L1140.7 836.1L1142 869.9L1143.3 814.2L1144.7 864.8L1146 829.1L1147.3 868.4L1148.7 831.1L1150 857L1151.3 836L1152.7 858.3L1154 835.2L1155.3 870.6L1156.7 835.3L1158 854.2L1159.3 830.2L1160.7 868.5L1162 834.1L1163.3 870.1L1164.7 835.2L1166 857.4L1167.3 835.3L1168.7 869.7L1170 834.3L1171.3 862.3L1172.7 907.9L1174 929.6L1175.3 929.6L1176.7 929.2L1178 929.4L1179.3 929.4L1180.7 929.5L1182 929.4L1183.3 929.5L1184.7 929.5L1186 929.5L1187.3 929.6L1188.7 929.5L1190 929.4L1191.3 929.5L1192.7 929.5L1194 929.5L1195.3 929.6L1196.7 929.6L1198 929.6L1199.3 929.5L1200.7 929.5L1202 929.6L1203.3 929.4L1204.7 929.4L1206 929.5L1207.3 929.6L1208.7 929.6L1210 929.5L1211.3 929.4L1212.7 929.6L1214 929.5L1215.3 929.4L1216.7 929.4L1218 929.4L1219.3 929.5L1220.7 929.5L1222 929.5L1223.3 929.6L1224.7 929.5L1226 929.7L1227.3 929.5L1228.7 929.7L1230 929.4L1231.3 929.6L1232.7 929.6L1234 929.4L1235.3 929.4L1236.7 929.4L1238 929.6L1239.3 929.4L1240.7 929.4L1242 929.3L1243.3 929.4L1244.7 929.6L1246 929.4L1247.3 929.5L1248.7 -2612.1L1250 -2257.3L1251.3 -2904.1L1252.7 -2828.8L1254 389.6L1255.3 411.6L1256.7 548.3L1258 -4536.2L1259.3 -1988.4L1260.7 121.2L1262 536L1263.3 303.1L1264.7 831.6L1266 781.5L1267.3 850.2L1268.7 777.7L1270 865.9L1271.3 805.5L1272.7 861.8L1274 811.8L1275.3 871.9L1276.7 769.9L1278 856.9L1279.3 786L1280.7 869.5L1282 817.4L1283.3 855L1284.7 818.3L1286 859L1287.3 818.4L1288.7 857.7L1290 812.9L1291.3 870.9L1292.7 816.8L1294 871.6L1295.3 820L1296.7 870.1L1298 820.4L1299.3 859.8L1300.7 797L1302 858L1303.3 816L1304.7 849L1306 818.9L1307.3 870.3L1308.7 812.1L1310 854.6L1311.3 812.1L1312.7 868.5L1314 818.1L1315.3 871.4L1316.7 818.9L1318 871.4L1319.3 815.7L1320.7 866.8L1322 811.4L1323.3 868.3L1324.7 815L1326 844.7L1327.3 819.3L1328.7 848.9L1330 831.9L1331.3 869.7L1332.7 820.2L1334 868L1335.3 830.3L1336.7 869.3L1338 834.7L1339.3 869.8L1340.7 835L1342 870.9L1343.3 821L1344.7 871.2L1346 830.1L1347.3 868.1L1348.7 832.9L1350 869.9L1351.3 833.1L1352.7 842.8L1354 824.4L1355.3 868L1356.7 835.4L1358 857.1L1359.3 805L1360.7 868.2L1362 812.5L1363.3 867.7L1364.7 834L1366 869.3L1367.3 828.3L1368.7 870.1L1370 819.2L1371.3 867.4L1372.7 829.2L1374 869.9L1375.3 811.1L1376.7 871.3L1378 835.3L1379.3 869.4L1380.7 834.5L1382 870.7L1383.3 812.5L1384.7 868.5L1386 832.9L1387.3 870.9L1388.7 835.1L1390 871.3L1391.3 835.6L1392.7 869.2L1394 828.4L1395.3 831.2L1396.7 810.8L1398 854.4L1399.3 788.2L1400.7 857.4L1402 823.6L1403.3 857.9L1404.7 832.8L1406 870.2L1407.3 821.3L1408.7 867.8L1410 818.6L1411.3 866.9L1412.7 784.7L1414 870.4L1415.3 816.2L1416.7 869L1418 833.4L1419.3 871.1L1420.7 831.7L1422 868.4L1423.3 813.3L1424.7 869.9L1426 813.9L1427.3 843.7L1428.7 835.4L1430 856.9L1431.3 835.2L1432.7 866.1L1434 820.4L1435.3 867.7L1436.7 832.2L1438 870.4L1439.3 835.9L1440.7 843.7L1442 829.4L1443.3 869.1L1444.7 829L1446 856L1447.3 824.2L1448.7 867.1L1450 833.4L1451.3 845.9L1452.7 814.4L1454 871.5L1455.3 834.2L1456.7 861.6L1458 835L1459.3 851.7L1460.7 797.8L1462 868.2L1463.3 788.6L1464.7 870.5L1466 791.2L1467.3 869.6L1468.7 832.8L1470 871L1471.3 806.8L1472.7 867.8L1474 832.9L1475.3 841.7L1476.7 813.6L1478 870.6L1479.3 836.1L1480.7 853.7L1482 834.4L1483.3 871.2L1484.7 832.8L1486 855.9L1487.3 833.8L1488.7 845.9L1490 832.9L1491.3 871.1L1492.7 913L1494 929.5L1495.3 929.4L1496.7 929.2L1498 929.5L1499.3 929.4L1500.7 929.6L1502 929.5L1503.3 929.6L1504.7 929.3L1506 929.5L1507.3 929.7L1508.7 929.5L1510 929.4L1511.3 929.6L1512.7 929.6L1514 929.5L1515.3 929.5L1516.7 929.7L1518 929.4L1519.3 929.6L1520.7 929.4L1522 929.6L1523.3 929.5L1524.7 929.6L1526 929.6L1527.3 929.7L1528.7 929.6L1530 929.6L1531.3 929.4L1532.7 929.5L1534 929.5L1535.3 929.6L1536.7 929.4L1538 929.5L1539.3 929.6L1540.7 929.5L1542 929.6L1543.3 929.5L1544.7 929.5L1546 929.5L1547.3 929.5L1548.7 929.5L1550 929.5L1551.3 929.6L1552.7 929.6L1554 929.4L1555.3 929.6L1556.7 929.5L1558 929.6L1559.3 929.5L1560.7 929.7L1562 929.5L1563.3 929.4L1564.7 929.5L1566 929.6L1567.3 929.4L1568.7 -2567.5L1570 -2836.1L1571.3 -2915.5L1572.7 -2399.9L1574 423.6L1575.3 452.3L1576.7 543.7L1578 -4869.4L1579.3 -1875.8L1580.7 100.7L1582 502.7L1583.3 421.7L1584.7 828.2L1586 778.9L1587.3 858.4L1588.7 810.1L1590 870.9L1591.3 813.3L1592.7 850.9L1594 781L1595.3 865.5L1596.7 808.9L1598 868.1L1599.3 816.6L1600.7 871.9L1602 811.7L1603.3 853.2L1604.7 794.5L1606 868.8L1607.3 811.7L1608.7 871.4L1610 819L1611.3 858.3L1612.7 806.2L1614 863.4L1615.3 810.3L1616.7 870.5L1618 819.6L1619.3 872.7L1620.7 821.8L1622 866.5L1623.3 816.2L1624.7 853L1626 808.7L1627.3 867.7L1628.7 812.3L1630 869.9L1631.3 818.3L1632.7 869.2L1634 742.7L1635.3 866.9L1636.7 817.4L1638 870.1L1639.3 819.3L1640.7 872.5L1642 819.8L1643.3 871.5L1644.7 787.1L1646 854.3L1647.3 810.3L1648.7 869.1L1650 811.9L1651.3 858.7L1652.7 787.6L1654 871.3L1655.3 830.4L1656.7 869.6L1658 797.6L1659.3 851.9L1660.7 834.5L1662 865.6L1663.3 835.7L1664.7 871.3L1666 833.9L1667.3 864.1L1668.7 825.2L1670 866.4L1671.3 827.4L1672.7 867L1674 832.8L1675.3 870.9L1676.7 835.8L1678 870.8L1679.3 834.4L1680.7 868.5L1682 835.4L1683.3 857.2L1684.7 808.8L1686 866.2L1687.3 834.2L1688.7 870.1L1690 814.4L1691.3 859.2L1692.7 811.2L1694 870.4L1695.3 825.2L1696.7 854.7L1698 828.8L1699.3 869.2L1700.7 834.7L1702 870.8L1703.3 834.2L1704.7 865.5L1706 834.4L1707.3 871.5L1708.7 814.5L1710 869L1711.3 832.3L1712.7 869.5L1714 831.3L1715.3 870.4L1716.7 801.1L1718 856.5L1719.3 821.9L1720.7 853.8L1722 831.4L1723.3 868.8L1724.7 834L1726 870.5L1727.3 835.5L1728.7 871.5L1730 835.6L1731.3 870L1732.7 831.9L1734 863.7L1735.3 818.1L1736.7 868.2L1738 818.7L1739.3 868.9L1740.7 833L1742 862.8L1743.3 833.6L1744.7 870.4L1746 827.5L1747.3 869.1L1748.7 829.4L1750 867.6L1751.3 787.5L1752.7 869.1L1754 806.6L1755.3 871.2L1756.7 832.7L1758 869.6L1759.3 822L1760.7 854.8L1762 828.6L1763.3 866.4L1764.7 828.3L1766 870.1L1767.3 814.7L1768.7 870.4L1770 831L1771.3 870.9L1772.7 813.4L1774 861.1L1775.3 830.9L1776.7 862.2L1778 790.5L1779.3 857.8L1780.7 835.7L1782 870.4L1783.3 817.9L1784.7 871L1786 808L1787.3 865.7L1788.7 832.9L1790 870.7L1791.3 828.9L1792.7 871.3L1794 835.7L1795.3 870.2L1796.7 829.2L1798 871.4L1799.3 823.8" fill="transparent" stroke="#626c91" stroke-width="3" stroke-linejoin="bevel" class="zr22-cls-68"></path>
</g>
<path d="M-187.9 -5l375.8 0l0 28l-375.8 0Z" transform="translate(1000 5)" fill="rgb(0,0,0)" fill-opacity="0" stroke="#ccc" stroke-width="0" class="zr22-cls-66"></path>
<text dominant-baseline="central" text-anchor="middle" style="font-size:18px;font-family:sans-serif;font-weight:bold;" xml:space="preserve" y="9" transform="translate(1000 5)" fill="#666666">entityUpdate per Tick for bench_4_every_240</text>
<defs >
<clipPath id="zr22-c0">
<path d="M198 58.5l16004 0l0 8703l-16004 0Z" fill="#000" class="zr22-cls-67"></path>
</clipPath>
<clipPath id="zr22-c1">
<path d="M198 58.5l16004 0l0 8703l-16004 0Z" fill="#000" class="zr22-cls-67"></path>
</clipPath>
<clipPath id="zr22-c2">
<path d="M198 58.5l16004 0l0 8703l-16004 0Z" fill="#000" class="zr22-cls-67"></path>
</clipPath>
</defs>
<style ><![CDATA[
.zr22-cls-66:hover {
pointer-events:none;
}
.zr22-cls-67:hover {
cursor:pointer;
fill:rgba(0,0,0,1);
}
.zr22-cls-68:hover {
cursor:pointer;
}

]]>

</style>
</svg>