<svg width="2000" height="1000" xmlns="http://www.w3.org/2000/svg" xmlns:xlink="http://www.w3.org/1999/xlink" version="1.1" baseProfile="full" viewBox="0 0 2000 1000">
<rect width="2000" height="1000" x="0" y="0" fill="rgb(252,252,252)" fill-opacity="0"></rect>
<path d="M200 930.5L1800 930.5" fill="transparent" stroke="#eeeeee" class="zr15-cls-45"></path>
<path d="M200 743.5L1800 743.5" fill="transparent" stroke="#eeeeee" class="zr15-cls-45"></path>
<path d="M200 556.5L1800 556.5" fill="transparent" stroke="#eeeeee" class="zr15-cls-45"></path>
<path d="M200 370.5L1800 370.5" fill="transparent" stroke="#eeeeee" class="zr15-cls-45"></path>
<path d="M200 183.5L1800 183.5" fill="transparent" stroke="#eeeeee" class="zr15-cls-45"></path>
<path d="M200 60.5L1800 60.5" fill="transparent" stroke="#eeeeee" class="zr15-cls-45"></path>
<path d="M200.5 930L200.5 60" fill="transparent" stroke="#cccccc" stroke-linecap="round" class="zr15-cls-45"></path>
<text dominant-baseline="central" text-anchor="middle" style="font-size:12px;font-family:sans-serif;" xml:space="preserve" y="-6" transform="translate(200 45)" fill="#cccccc">Min entityUpdate Time (ms)</text>
<path d="M200 930.5L1800 930.5" fill="transparent" stroke="#cccccc" stroke-linecap="round" class="zr15-cls-45"></path>
<text dominant-baseline="central" text-anchor="end" style="font-size:12px;font-family:sans-serif;" transform="translate(192 930)" fill="#999999">0.000</text>
<text dominant-baseline="central" text-anchor="end" style="font-size:12px;font-family:sans-serif;" transform="translate(192 743.2702)" fill="#999999">1.000</text>
<text dominant-baseline="central" text-anchor="end" style="font-size:12px;font-family:sans-serif;" transform="translate(192 556.5403)" fill="#999999">2.000</text>
<text dominant-baseline="central" text-anchor="end" style="font-size:12px;font-family:sans-serif;" transform="translate(192 369.8105)" fill="#999999">3.000</text>
<text dominant-baseline="central" text-anchor="end" style="font-size:12px;font-family:sans-serif;" transform="translate(192 183.0807)" fill="#999999">4.000</text>
<text dominant-baseline="central" text-anchor="end" style="font-size:12px;font-family:sans-serif;" transform="translate(192 60)" fill="#999999">4.659</text>
<text dominant-baseline="central" text-anchor="middle" style="font-size:12px;font-family:sans-serif;" y="6" transform="translate(200.6667 938)" fill="#999999">0</text>
<text dominant-baseline="central" text-anchor="middle" style="font-size:12px;font-family:sans-serif;" y="6" transform="translate(236.6667 938)" fill="#999999">27</text>
<text dominant-baseline="central" text-anchor="middle" style="font-size:12px;font-family:sans-serif;" y="6" transform="translate(272.6667 938)" fill="#999999">54</text>
<text dominant-baseline="central" text-anchor="middle" style="font-size:12px;font-family:sans-serif;" y="6" transform="translate(308.6667 938)" fill="#999999">81</text>
<text dominant-baseline="central" text-anchor="middle" style="font-size:12px;font-family:sans-serif;" y="6" transform="translate(344.6667 938)" fill="#999999">108</text>
<text dominant-baseline="central" text-anchor="middle" style="font-size:12px;font-family:sans-serif;" y="6" transform="translate(380.6667 938)" fill="#999999">135</text>
<text dominant-baseline="central" text-anchor="middle" style="font-size:12px;font-family:sans-serif;" y="6" transform="translate(416.6667 938)" fill="#999999">162</text>
<text dominant-baseline="central" text-anchor="middle" style="font-size:12px;font-family:sans-serif;" y="6" transform="translate(452.6667 938)" fill="#999999">189</text>
<text dominant-baseline="central" text-anchor="middle" style="font-size:12px;font-family:sans-serif;" y="6" transform="translate(488.6667 938)" fill="#999999">216</text>
<text dominant-baseline="central" text-anchor="middle" style="font-size:12px;font-family:sans-serif;" y="6" transform="translate(524.6667 938)" fill="#999999">243</text>
<text dominant-baseline="central" text-anchor="middle" style="font-size:12px;font-family:sans-serif;" y="6" transform="translate(560.6667 938)" fill="#999999">270</text>
<text dominant-baseline="central" text-anchor="middle" style="font-size:12px;font-family:sans-serif;" y="6" transform="translate(596.6667 938)" fill="#999999">297</text>
<text dominant-baseline="central" text-anchor="middle" style="font-size:12px;font-family:sans-serif;" y="6" transform="translate(632.6667 938)" fill="#999999">324</text>
<text dominant-baseline="central" text-anchor="middle" style="font-size:12px;font-family:sans-serif;" y="6" transform="translate(668.6667 938)" fill="#999999">351</text>
<text dominant-baseline="central" text-anchor="middle" style="font-size:12px;font-family:sans-serif;" y="6" transform="translate(704.6667 938)" fill="#999999">378</text>
<text dominant-baseline="central" text-anchor="middle" style="font-size:12px;font-family:sans-serif;" y="6" transform="translate(740.6667 938)" fill="#999999">405</text>
<text dominant-baseline="central" text-anchor="middle" style="font-size:12px;font-family:sans-serif;" y="6" transform="translate(776.6667 938)" fill="#999999">432</text>
<text dominant-baseline="central" text-anchor="middle" style="font-size:12px;font-family:sans-serif;" y="6" transform="translate(812.6667 938)" fill="#999999">459</text>
<text dominant-baseline="central" text-anchor="middle" style="font-size:12px;font-family:sans-serif;" y="6" transform="translate(848.6667 938)" fill="#999999">486</text>
<text dominant-baseline="central" text-anchor="middle" style="font-size:12px;font-family:sans-serif;" y="6" transform="translate(884.6667 938)" fill="#999999">513</text>
<text dominant-baseline="central" text-anchor="middle" style="font-size:12px;font-family:sans-serif;" y="6" transform="translate(920.6667 938)" fill="#999999">540</text>
<text dominant-baseline="central" text-anchor="middle" style="font-size:12px;font-family:sans-serif;" y="6" transform="translate(956.6667 938)" fill="#999999">567</text>
<text dominant-baseline="central" text-anchor="middle" style="font-size:12px;font-family:sans-serif;" y="6" transform="translate(992.6667 938)" fill="#999999">594</text>
<text dominant-baseline="central" text-anchor="middle" style="font-size:12px;font-family:sans-serif;" y="6" transform="translate(1028.6667 938)" fill="#999999">621</text>
<text dominant-baseline="central" text-anchor="middle" style="font-size:12px;font-family:sans-serif;" y="6" transform="translate(1064.6667 938)" fill="#999999">648</text>
<text dominant-baseline="central" text-anchor="middle" style="font-size:12px;font-family:sans-serif;" y="6" transform="translate(1100.6667 938)" fill="#999999">675</text>
<text dominant-baseline="central" text-anchor="middle" style="font-size:12px;font-family:sans-serif;" y="6" transform="translate(1136.6667 938)" fill="#999999">702</text>
<text dominant-baseline="central" text-anchor="middle" style="font-size:12px;font-family:sans-serif;" y="6" transform="translate(1172.6667 938)" fill="#999999">729</text>
<text dominant-baseline="central" text-anchor="middle" style="font-size:12px;font-family:sans-serif;" y="6" transform="translate(1208.6667 938)" fill="#999999">756</text>
<text dominant-baseline="central" text-anchor="middle" style="font-size:12px;font-family:sans-serif;" y="6" transform="translate(1244.6667 938)" fill="#999999">783</text>
<text dominant-baseline="central" text-anchor="middle" style="font-size:12px;font-family:sans-serif;" y="6" transform="translate(1280.6667 938)" fill="#999999">810</text>
<text dominant-baseline="central" text-anchor="middle" style="font-size:12px;font-family:sans-serif;" y="6" transform="translate(1316.6667 938)" fill="#999999">837</text>
<text dominant-baseline="central" text-anchor="middle" style="font-size:12px;font-family:sans-serif;" y="6" transform="translate(1352.6667 938)" fill="#999999">864</text>
<text dominant-baseline="central" text-anchor="middle" style="font-size:12px;font-family:sans-serif;" y="6" transform="translate(1388.6667 938)" fill="#999999">891</text>
<text dominant-baseline="central" text-anchor="middle" style="font-size:12px;font-family:sans-serif;" y="6" transform="translate(1424.6667 938)" fill="#999999">918</text>
<text dominant-baseline="central" text-anchor="middle" style="font-size:12px;font-family:sans-serif;" y="6" transform="translate(1460.6667 938)" fill="#999999">945</text>
<text dominant-baseline="central" text-anchor="middle" style="font-size:12px;font-family:sans-serif;" y="6" transform="translate(1496.6667 938)" fill="#999999">972</text>
<text dominant-baseline="central" text-anchor="middle" style="font-size:12px;font-family:sans-serif;" y="6" transform="translate(1532.6667 938)" fill="#999999">999</text>
<text dominant-baseline="central" text-anchor="middle" style="font-size:12px;font-family:sans-serif;" y="6" transform="translate(1568.6667 938)" fill="#999999">1026</text>
<text dominant-baseline="central" text-anchor="middle" style="font-size:12px;font-family:sans-serif;" y="6" transform="translate(1604.6667 938)" fill="#999999">1053</text>
<text dominant-baseline="central" text-anchor="middle" style="font-size:12px;font-family:sans-serif;" y="6" transform="translate(1640.6667 938)" fill="#999999">1080</text>
<text dominant-baseline="central" text-anchor="middle" style="font-size:12px;font-family:sans-serif;" y="6" transform="translate(1676.6667 938)" fill="#999999">1107</text>
<text dominant-baseline="central" text-anchor="middle" style="font-size:12px;font-family:sans-serif;" y="6" transform="translate(1712.6667 938)" fill="#999999">1134</text>
<text dominant-baseline="central" text-anchor="middle" style="font-size:12px;font-family:sans-serif;" y="6" transform="translate(1748.6667 938)" fill="#999999">1161</text>
<text dominant-baseline="central" text-anchor="middle" style="font-size:12px;font-family:sans-serif;" y="6" transform="translate(1784.6667 938)" fill="#999999">1188</text>
<g clip-path="url(#zr15-c0)">
<path d="M200.7 588.7L202 806.3L203.3 790L204.7 627.9L206 660.9L207.3 678.4L208.7 730.3L210 729.5L211.3 843.3L212.7 788.9L214 838.7L215.3 605.7L216.7 629.7L218 698.2L219.3 764.9L220.7 709L222 841.3L223.3 796.2L224.7 845.2L226 616.9L227.3 645.3L228.7 662.5L230 732.6L231.3 705.7L232.7 841.2L234 796.9L235.3 839.7L236.7 602.1L238 614.8L239.3 662.6L240.7 726.6L242 719.6L243.3 837.6L244.7 794.9L246 846.1L247.3 622.9L248.7 639L250 695.4L251.3 752.7L252.7 732.7L254 845.4L255.3 796.7L256.7 845.6L258 602.2L259.3 619.1L260.7 679.7L262 748.6L263.3 681.5L264.7 844L266 795.8L267.3 844.6L268.7 627.2L270 633.7L271.3 689.3L272.7 760.9L274 713.7L275.3 845L276.7 795.5L278 844L279.3 632L280.7 637.9L282 650L283.3 770.1L284.7 687.7L286 841.4L287.3 796L288.7 845.8L290 638.6L291.3 632.4L292.7 699.3L294 774L295.3 740.9L296.7 827.1L298 799.9L299.3 846.3L300.7 605.8L302 632.5L303.3 675.9L304.7 754.3L306 709.9L307.3 842.4L308.7 797.1L310 844.5L311.3 638.5L312.7 550.5L314 796.4L315.3 669.7L316.7 745L318 774.4L319.3 832.1L320.7 787.3L322 655.8L323.3 562.5L324.7 690.4L326 671.6L327.3 746.4L328.7 776.3L330 832.9L331.3 787.2L332.7 631.9L334 571L335.3 698.9L336.7 682.3L338 758.7L339.3 787.2L340.7 834.1L342 790.7L343.3 658.2L344.7 566.6L346 688L347.3 637.3L348.7 733.3L350 786.1L351.3 818.9L352.7 789.1L354 643.2L355.3 549.9L356.7 721.9L358 661.6L359.3 751.5L360.7 773.8L362 836.4L363.3 791.8L364.7 647.1L366 566.7L367.3 714.1L368.7 685.4L370 748.6L371.3 761.1L372.7 839L374 784.4L375.3 637.5L376.7 565.7L378 717.8L379.3 701.2L380.7 730.1L382 775.4L383.3 836.3L384.7 789.4L386 636.3L387.3 562.4L388.7 722.7L390 673.9L391.3 733.4L392.7 773.5L394 831.2L395.3 775.2L396.7 645L398 574.6L399.3 718.5L400.7 668.5L402 762.2L403.3 791.3L404.7 838.6L406 779.3L407.3 634.9L408.7 564.1L410 708.9L411.3 681.7L412.7 717.5L414 768.5L415.3 840.3L416.7 788.4L418 642.3L419.3 578.5L420.7 724.5L422 685.1L423.3 731.1L424.7 774.1L426 820.8L427.3 789.9L428.7 645.1L430 519.8L431.3 697.7L432.7 661.1L434 757.9L435.3 768.2L436.7 834.2L438 792.4L439.3 654.5L440.7 559.7L442 725.1L443.3 681.4L444.7 772.7L446 783.2L447.3 841.6L448.7 790.8L450 640.9L451.3 561.6L452.7 719.4L454 668.5L455.3 748.3L456.7 789.3L458 833.6L459.3 791.4L460.7 654.4L462 576L463.3 726.7L464.7 695.5L466 759.6L467.3 790.7L468.7 840.7L470 792.9L471.3 652.7L472.7 548.8L474 694.8L475.3 662.9L476.7 755.8L478 775.9L479.3 835.8L480.7 794L482 655.4L483.3 576.9L484.7 722.3L486 688.2L487.3 733.4L488.7 772.8L490 842.6L491.3 791.1L492.7 636L494 578.6L495.3 717.8L496.7 676.7L498 747L499.3 792.8L500.7 842.1L502 793.1L503.3 667.2L504.7 588.4L506 727.6L507.3 702.2L508.7 774.5L510 788.8L511.3 842.6L512.7 784.5L514 661.1L515.3 554.3L516.7 705.7L518 665.1L519.3 687.7L520.7 737.6L522 817.3L523.3 787.8L524.7 654.3L526 677.5L527.3 688.4L528.7 737.7L530 707.8L531.3 839.2L532.7 795.1L534 843.5L535.3 587.4L536.7 630.5L538 688.2L539.3 769.4L540.7 719L542 843.8L543.3 785.5L544.7 844.3L546 602.2L547.3 609.1L548.7 689.5L550 756.9L551.3 695.7L552.7 833.5L554 797.7L555.3 843.2L556.7 623.4L558 616.2L559.3 652.8L560.7 737.2L562 709.3L563.3 843.9L564.7 798.2L566 844.2L567.3 620.2L568.7 641.6L570 691.6L571.3 762L572.7 694.4L574 840.7L575.3 780.2L576.7 843L578 632L579.3 613.7L580.7 688L582 727.1L583.3 722.4L584.7 825.7L586 798.6L587.3 844.8L588.7 621.7L590 643.7L591.3 665L592.7 756.8L594 694.4L595.3 844L596.7 797.9L598 843.3L599.3 634.3L600.7 630.6L602 656.3L603.3 764.6L604.7 708.5L606 842.8L607.3 798.2L608.7 845L610 632L611.3 644.8L612.7 679.5L614 768.9L615.3 740.5L616.7 845.1L618 769.4L619.3 845.2L620.7 630.8L622 612.5L623.3 679.6L624.7 749.8L626 727L627.3 842L628.7 798L630 845.5L631.3 624.4L632.7 579.6L634 794.1L635.3 639.6L636.7 738.7L638 772.6L639.3 831.8L640.7 784.3L642 661.9L643.3 548L644.7 694.3L646 660.4L647.3 713.1L648.7 780.4L650 833L651.3 777.4L652.7 652L654 568.6L655.3 727L656.7 665.9L658 735.2L659.3 780.7L660.7 834.4L662 784.9L663.3 648.9L664.7 546.4L666 694.9L667.3 656.2L668.7 715.3L670 777.7L671.3 831.1L672.7 784.9L674 648.7L675.3 573.4L676.7 740.4L678 658.7L679.3 753.4L680.7 770.9L682 828.9L683.3 787.5L684.7 640.6L686 559.1L687.3 691.4L688.7 686.2L690 731.2L691.3 780.7L692.7 835.6L694 788.5L695.3 647L696.7 574.9L698 731.8L699.3 683.5L700.7 747.1L702 782.3L703.3 837.8L704.7 790.4L706 647L707.3 543.5L708.7 708L710 707.4L711.3 738.7L712.7 770.1L714 837.2L715.3 787L716.7 638.6L718 578.7L719.3 730.7L720.7 681.9L722 742.6L723.3 791.7L724.7 842.5L726 793.1L727.3 635.7L728.7 570.5L730 729.5L731.3 697.9L732.7 727.6L734 767.5L735.3 837.6L736.7 794.1L738 638L739.3 580.6L740.7 718.2L742 675.2L743.3 776L744.7 761.2L746 840.2L747.3 794.3L748.7 658.9L750 563.4L751.3 677.3L752.7 672.7L754 752.3L755.3 788.8L756.7 822.5L758 789.9L759.3 647L760.7 577L762 723.4L763.3 676.4L764.7 767.1L766 788.5L767.3 825.5L768.7 794.6L770 645L771.3 566.2L772.7 707L774 704.2L775.3 758.8L776.7 790.5L778 844.4L779.3 796.7L780.7 669.3L782 582L783.3 747.7L784.7 710.2L786 748.2L787.3 795.5L788.7 845L790 793.8L791.3 658.3L792.7 566.8L794 721.8L795.3 671L796.7 729.9L798 782.6L799.3 838.9L800.7 791.7L802 648.5L803.3 578.4L804.7 752.4L806 686.2L807.3 757.5L808.7 787.4L810 840.5L811.3 789.7L812.7 662.6L814 547.9L815.3 710.4L816.7 673.5L818 741.9L819.3 785.3L820.7 840.6L822 793.1L823.3 664.2L824.7 598.3L826 737.3L827.3 703.6L828.7 748.2L830 792.3L831.3 843.2L832.7 795.8L834 650.7L835.3 572.4L836.7 731.5L838 688.8L839.3 684.2L840.7 740.8L842 842.1L843.3 769L844.7 634L846 681.6L847.3 654.1L848.7 752.8L850 709.3L851.3 842.3L852.7 793.6L854 841L855.3 614.6L856.7 601.3L858 651.9L859.3 740.8L860.7 674L862 843.3L863.3 788.6L864.7 837.1L866 618.2L867.3 635.5L868.7 670.2L870 729.3L871.3 721.6L872.7 842.3L874 798.4L875.3 844L876.7 635.6L878 613.2L879.3 673.3L880.7 724.2L882 698.3L883.3 842.8L884.7 798.2L886 845.8L887.3 608.9L888.7 618.5L890 677.2L891.3 727.1L892.7 728.3L894 836.8L895.3 768.6L896.7 844.3L898 621.6L899.3 632.3L900.7 687.7L902 741.8L903.3 678.3L904.7 819.7L906 795.1L907.3 841.7L908.7 626.3L910 622.6L911.3 684.5L912.7 754L914 719.2L915.3 839.6L916.7 797.8L918 842.1L919.3 632.2L920.7 619L922 668L923.3 769.2L924.7 716.8L926 844.3L927.3 793.7L928.7 845.3L930 636.4L931.3 660.9L932.7 685.6L934 739L935.3 732L936.7 843.1L938 792.5L939.3 826.8L940.7 644L942 606.3L943.3 670.3L944.7 757.3L946 717.4L947.3 839L948.7 784.9L950 844.9L951.3 628.3L952.7 571L954 792.1L955.3 654.5L956.7 734.4L958 760.2L959.3 835.4L960.7 792.1L962 651.2L963.3 569.9L964.7 714.6L966 665.3L967.3 727.5L968.7 785.9L970 832.5L971.3 793.3L972.7 655.1L974 560.2L975.3 715.2L976.7 687.5L978 748.3L979.3 787.6L980.7 826.8L982 778L983.3 638.8L984.7 558.8L986 687.7L987.3 655.8L988.7 712.9L990 789.7L991.3 842.8L992.7 791.1L994 647.3L995.3 577.6L996.7 724.8L998 693.3L999.3 769.1L1000.7 791.6L1002 838.5L1003.3 789.7L1004.7 643.1L1006 519.6L1007.3 721.9L1008.7 687.5L1010 751.6L1011.3 790.3L1012.7 840.5L1014 790.8L1015.3 635.4L1016.7 565.1L1018 723.8L1019.3 686.4L1020.7 741.7L1022 785.3L1023.3 824.7L1024.7 789.6L1026 656.2L1027.3 547.7L1028.7 690.1L1030 665.9L1031.3 743.7L1032.7 781.9L1034 836.3L1035.3 786L1036.7 653.1L1038 581.2L1039.3 709.7L1040.7 678.8L1042 754.3L1043.3 788.6L1044.7 837.4L1046 787.2L1047.3 640L1048.7 576.8L1050 680.8L1051.3 661.1L1052.7 743.3L1054 781.7L1055.3 838.7L1056.7 789.1L1058 647.2L1059.3 583.6L1060.7 747.5L1062 700.6L1063.3 735.7L1064.7 785.9L1066 841.8L1067.3 795.8L1068.7 660.6L1070 563.9L1071.3 695.5L1072.7 706.1L1074 758.9L1075.3 771.8L1076.7 839.2L1078 789L1079.3 639.2L1080.7 563.1L1082 732.4L1083.3 688.4L1084.7 771.2L1086 790.4L1087.3 837.9L1088.7 794L1090 669.3L1091.3 588.2L1092.7 746.2L1094 701.4L1095.3 738.6L1096.7 793.6L1098 842.2L1099.3 789.4L1100.7 671.5L1102 572.7L1103.3 730L1104.7 664L1106 752.3L1107.3 791.1L1108.7 841.8L1110 794.5L1111.3 668L1112.7 554.1L1114 696.7L1115.3 695.8L1116.7 760L1118 781.4L1119.3 837.1L1120.7 796.5L1122 650.5L1123.3 566.9L1124.7 714L1126 690.1L1127.3 757.3L1128.7 785L1130 842.2L1131.3 786.6L1132.7 645.6L1134 541.2L1135.3 701.6L1136.7 690.7L1138 759.7L1139.3 789.9L1140.7 841.9L1142 782.1L1143.3 646.1L1144.7 596.3L1146 749.7L1147.3 682.9L1148.7 772.1L1150 782.9L1151.3 840.6L1152.7 793.4L1154 653.3L1155.3 581.6L1156.7 712.5L1158 711.5L1159.3 685L1160.7 742.9L1162 835.8L1163.3 797.1L1164.7 669.3L1166 681.3L1167.3 684.3L1168.7 716.4L1170 726.6L1171.3 838.7L1172.7 794.2L1174 842.7L1175.3 623.5L1176.7 600.3L1178 640.5L1179.3 745.2L1180.7 699.7L1182 831.1L1183.3 796.1L1184.7 843.4L1186 608.9L1187.3 629.2L1188.7 657.2L1190 722.8L1191.3 725.5L1192.7 837.5L1194 795.9L1195.3 844.8L1196.7 609.5L1198 609.3L1199.3 668.5L1200.7 732.4L1202 693L1203.3 841.2L1204.7 773.7L1206 837.5L1207.3 618.4L1208.7 651.9L1210 672.3L1211.3 736.6L1212.7 719.5L1214 837.3L1215.3 794.7L1216.7 842.9L1218 615.3L1219.3 607.9L1220.7 695.1L1222 742.1L1223.3 709.7L1224.7 840.8L1226 795.4L1227.3 843.8L1228.7 609.1L1230 641.5L1231.3 674.2L1232.7 745.2L1234 688.6L1235.3 841.4L1236.7 795.2L1238 844.3L1239.3 620.9L1240.7 623.8L1242 637.2L1243.3 715.9L1244.7 694.9L1246 839.5L1247.3 795.9L1248.7 840.8L1250 630.2L1251.3 642.9L1252.7 677.1L1254 757L1255.3 690.5L1256.7 843.3L1258 792.7L1259.3 843.5L1260.7 633.3L1262 603.3L1263.3 676.7L1264.7 729.5L1266 694.6L1267.3 842.4L1268.7 795.6L1270 843.5L1271.3 641.6L1272.7 565L1274 801.7L1275.3 656.8L1276.7 717L1278 772.6L1279.3 834.6L1280.7 786.9L1282 657.2L1283.3 531.2L1284.7 697.4L1286 669.5L1287.3 729L1288.7 777.6L1290 839L1291.3 789.6L1292.7 645.4L1294 534.4L1295.3 698.8L1296.7 658.9L1298 751.9L1299.3 787.2L1300.7 827.9L1302 793.8L1303.3 640.7L1304.7 550.3L1306 708.1L1307.3 679.2L1308.7 740.5L1310 790.6L1311.3 835.2L1312.7 788.1L1314 641.4L1315.3 562.6L1316.7 705.8L1318 654.2L1319.3 755.1L1320.7 783.8L1322 840.2L1323.3 789.4L1324.7 632.7L1326 563.2L1327.3 682.9L1328.7 655.7L1330 725L1331.3 785.6L1332.7 839.2L1334 785.4L1335.3 636.9L1336.7 539.5L1338 713.3L1339.3 692.5L1340.7 770L1342 788.7L1343.3 839.6L1344.7 793.9L1346 660.6L1347.3 577.3L1348.7 677.1L1350 703.6L1351.3 734L1352.7 778.2L1354 837.8L1355.3 792.1L1356.7 646.8L1358 579.7L1359.3 722.4L1360.7 680.9L1362 767.2L1363.3 780.1L1364.7 823.1L1366 790.8L1367.3 642.4L1368.7 530L1370 710.1L1371.3 680.2L1372.7 737.8L1374 786.1L1375.3 837.2L1376.7 786L1378 635.6L1379.3 555.6L1380.7 722.7L1382 669.3L1383.3 753.9L1384.7 774.4L1386 837.8L1387.3 793.9L1388.7 628.8L1390 552.7L1391.3 693.4L1392.7 669.8L1394 731.9L1395.3 767L1396.7 823.2L1398 788.8L1399.3 653.1L1400.7 580.8L1402 719.1L1403.3 656L1404.7 771.4L1406 784L1407.3 842.4L1408.7 793.8L1410 645.9L1411.3 580.4L1412.7 707.6L1414 643.6L1415.3 727.1L1416.7 782.4L1418 829.9L1419.3 789.8L1420.7 668.4L1422 569.4L1423.3 708.5L1424.7 682.1L1426 725.3L1427.3 787.1L1428.7 841.5L1430 791.7L1431.3 658L1432.7 569.3L1434 713.6L1435.3 714.2L1436.7 735.6L1438 792.8L1439.3 844.7L1440.7 795.8L1442 647.7L1443.3 580.2L1444.7 728.9L1446 668.3L1447.3 758.8L1448.7 794.4L1450 843.6L1451.3 796.8L1452.7 666.3L1454 548.8L1455.3 704.9L1456.7 688.7L1458 731.6L1459.3 783.5L1460.7 823.3L1462 795.4L1463.3 659.7L1464.7 584.9L1466 742.5L1467.3 723.2L1468.7 754L1470 778.1L1471.3 843.1L1472.7 790.8L1474 643.6L1475.3 573.8L1476.7 705L1478 665.5L1479.3 664.7L1480.7 735.5L1482 835.6L1483.3 761.2L1484.7 649.1L1486 682.4L1487.3 665.8L1488.7 734L1490 705.3L1491.3 839.4L1492.7 795.3L1494 844.5L1495.3 582.3L1496.7 609.7L1498 671.8L1499.3 768.2L1500.7 720.5L1502 843.5L1503.3 786.6L1504.7 844.2L1506 620L1507.3 619.2L1508.7 680.9L1510 747L1511.3 715.2L1512.7 841.3L1514 784L1515.3 824.7L1516.7 587.8L1518 590.8L1519.3 676.1L1520.7 729.3L1522 676.8L1523.3 825.5L1524.7 771L1526 845L1527.3 591L1528.7 624L1530 681.3L1531.3 749.8L1532.7 692.7L1534 840.8L1535.3 795L1536.7 839.3L1538 604.7L1539.3 626.7L1540.7 674.3L1542 748.3L1543.3 715.2L1544.7 836L1546 797.6L1547.3 845.9L1548.7 609.4L1550 640.7L1551.3 690.4L1552.7 755.7L1554 710L1555.3 844L1556.7 791.2L1558 839.7L1559.3 622.3L1560.7 636.7L1562 665.3L1563.3 766.4L1564.7 717.7L1566 833.8L1567.3 798L1568.7 827.7L1570 636.9L1571.3 625.2L1572.7 686.7L1574 744.7L1575.3 704.5L1576.7 843.6L1578 769.2L1579.3 844.6L1580.7 608.1L1582 643.4L1583.3 680.1L1584.7 739.1L1586 717.8L1587.3 844.7L1588.7 788.9L1590 846.2L1591.3 627L1592.7 579.8L1594 810.6L1595.3 668.3L1596.7 729.8L1598 783.4L1599.3 821.6L1600.7 789.2L1602 655.4L1603.3 538.5L1604.7 735L1606 680.9L1607.3 758.3L1608.7 770.3L1610 829.3L1611.3 775.9L1612.7 644.1L1614 571.7L1615.3 726.5L1616.7 666.9L1618 752.5L1619.3 780.3L1620.7 836.8L1622 767.8L1623.3 647.1L1624.7 548.2L1626 663.1L1627.3 646L1628.7 714.1L1630 775.7L1631.3 814.9L1632.7 784.9L1634 638.4L1635.3 541.5L1636.7 717.4L1638 678.1L1639.3 741L1640.7 780.1L1642 834.3L1643.3 787.3L1644.7 647.6L1646 539.3L1647.3 692.5L1648.7 676.3L1650 741.4L1651.3 783.1L1652.7 835L1654 784.9L1655.3 640.5L1656.7 564.5L1658 738.9L1659.3 665.6L1660.7 732.4L1662 787.1L1663.3 836.1L1664.7 785.7L1666 647.1L1667.3 554.7L1668.7 702.6L1670 675.9L1671.3 721.9L1672.7 779.3L1674 833.8L1675.3 787.6L1676.7 644.3L1678 559.4L1679.3 708.7L1680.7 671.9L1682 765.1L1683.3 767.5L1684.7 840.4L1686 791.9L1687.3 649.3L1688.7 565.2L1690 713.9L1691.3 680.2L1692.7 752.7L1694 779.1L1695.3 837.9L1696.7 794.4L1698 658.8L1699.3 562L1700.7 714.1L1702 671.9L1703.3 745.9L1704.7 790.4L1706 839.3L1707.3 791.7L1708.7 653.3L1710 529.8L1711.3 694.8L1712.7 660.1L1714 733.7L1715.3 764L1716.7 830.3L1718 792L1719.3 644.7L1720.7 571.9L1722 736.9L1723.3 667.1L1724.7 761.4L1726 789.9L1727.3 841.2L1728.7 795.2L1730 625.2L1731.3 552.3L1732.7 729.7L1734 699L1735.3 763.8L1736.7 777.9L1738 825.8L1739.3 794.1L1740.7 657.9L1742 596.9L1743.3 727.5L1744.7 695.8L1746 755.2L1747.3 793.1L1748.7 844.4L1750 790.5L1751.3 646.2L1752.7 565.1L1754 737L1755.3 692.4L1756.7 730.2L1758 774.9L1759.3 842.2L1760.7 794.3L1762 668L1763.3 594.3L1764.7 760.1L1766 702.7L1767.3 765.1L1768.7 796.1L1770 844.1L1771.3 796.7L1772.7 660.8L1774 573.4L1775.3 722.4L1776.7 709.8L1778 766.1L1779.3 789.2L1780.7 844L1782 792.1L1783.3 657.4L1784.7 583.3L1786 701.7L1787.3 687.4L1788.7 755L1790 765.9L1791.3 840.9L1792.7 792.4L1794 631.5L1795.3 581L1796.7 706.2L1798 670.9L1799.3 683" fill="transparent" stroke="#3fb1e3" stroke-width="3" stroke-linejoin="bevel" class="zr15-cls-47"></path>
</g>
<path d="M-285.3 -5l570.5 0l0 28l-570.5 0Z" transform="translate(1000 5)" fill="rgb(0,0,0)" fill-opacity="0" stroke="#ccc" stroke-width="0" class="zr15-cls-45"></path>
<text dominant-baseline="central" text-anchor="middle" style="font-size:18px;font-family:sans-serif;font-weight:bold;" xml:space="preserve" y="9" transform="translate(1000 5)" fill="#666666">Min entityUpdate per Tick for bench_4_every_240_staggered_reverse</text>
<defs >
<clipPath id="zr15-c0">
<path d="M198 58.5l16004 0l0 8703l-16004 0Z" fill="#000" class="zr15-cls-46"></path>
</clipPath>
</defs>
<style ><![CDATA[
.zr15-cls-45:hover {
pointer-events:none;
}
.zr15-cls-46:hover {
cursor:pointer;
fill:rgba(0,0,0,1);
}
.zr15-cls-47:hover {
cursor:pointer;
}

]]>

</style>
</svg>