<svg width="2000" height="1000" xmlns="http://www.w3.org/2000/svg" xmlns:xlink="http://www.w3.org/1999/xlink" version="1.1" baseProfile="full" viewBox="0 0 2000 1000">
<rect width="2000" height="1000" x="0" y="0" fill="rgb(252,252,252)" fill-opacity="0"></rect>
<path d="M200 930.5L1800 930.5" fill="transparent" stroke="#eeeeee" class="zr30-cls-90"></path>
<path d="M200 743.5L1800 743.5" fill="transparent" stroke="#eeeeee" class="zr30-cls-90"></path>
<path d="M200 556.5L1800 556.5" fill="transparent" stroke="#eeeeee" class="zr30-cls-90"></path>
<path d="M200 370.5L1800 370.5" fill="transparent" stroke="#eeeeee" class="zr30-cls-90"></path>
<path d="M200 183.5L1800 183.5" fill="transparent" stroke="#eeeeee" class="zr30-cls-90"></path>
<path d="M200 60.5L1800 60.5" fill="transparent" stroke="#eeeeee" class="zr30-cls-90"></path>
<path d="M200.5 930L200.5 60" fill="transparent" stroke="#cccccc" stroke-linecap="round" class="zr30-cls-90"></path>
<text dominant-baseline="central" text-anchor="middle" style="font-size:12px;font-family:sans-serif;" xml:space="preserve" y="-6" transform="translate(200 45)" fill="#cccccc">entityUpdate Time (ms)</text>
<path d="M200 930.5L1800 930.5" fill="transparent" stroke="#cccccc" stroke-linecap="round" class="zr30-cls-90"></path>
<text dominant-baseline="central" text-anchor="end" style="font-size:12px;font-family:sans-serif;" transform="translate(192 930)" fill="#999999">0.000</text>
<text dominant-baseline="central" text-anchor="end" style="font-size:12px;font-family:sans-serif;" transform="translate(192 743.2702)" fill="#999999">1.000</text>
<text dominant-baseline="central" text-anchor="end" style="font-size:12px;font-family:sans-serif;" transform="translate(192 556.5403)" fill="#999999">2.000</text>
<text dominant-baseline="central" text-anchor="end" style="font-size:12px;font-family:sans-serif;" transform="translate(192 369.8105)" fill="#999999">3.000</text>
<text dominant-baseline="central" text-anchor="end" style="font-size:12px;font-family:sans-serif;" transform="translate(192 183.0807)" fill="#999999">4.000</text>
<text dominant-baseline="central" text-anchor="end" style="font-size:12px;font-family:sans-serif;" transform="translate(192 60)" fill="#999999">4.659</text>
<text dominant-baseline="central" text-anchor="middle" style="font-size:12px;font-family:sans-serif;" y="6" transform="translate(200.6667 938)" fill="#999999">0</text>
<text dominant-baseline="central" text-anchor="middle" style="font-size:12px;font-family:sans-serif;" y="6" transform="translate(236.6667 938)" fill="#999999">27</text>
<text dominant-baseline="central" text-anchor="middle" style="font-size:12px;font-family:sans-serif;" y="6" transform="translate(272.6667 938)" fill="#999999">54</text>
<text dominant-baseline="central" text-anchor="middle" style="font-size:12px;font-family:sans-serif;" y="6" transform="translate(308.6667 938)" fill="#999999">81</text>
<text dominant-baseline="central" text-anchor="middle" style="font-size:12px;font-family:sans-serif;" y="6" transform="translate(344.6667 938)" fill="#999999">108</text>
<text dominant-baseline="central" text-anchor="middle" style="font-size:12px;font-family:sans-serif;" y="6" transform="translate(380.6667 938)" fill="#999999">135</text>
<text dominant-baseline="central" text-anchor="middle" style="font-size:12px;font-family:sans-serif;" y="6" transform="translate(416.6667 938)" fill="#999999">162</text>
<text dominant-baseline="central" text-anchor="middle" style="font-size:12px;font-family:sans-serif;" y="6" transform="translate(452.6667 938)" fill="#999999">189</text>
<text dominant-baseline="central" text-anchor="middle" style="font-size:12px;font-family:sans-serif;" y="6" transform="translate(488.6667 938)" fill="#999999">216</text>
<text dominant-baseline="central" text-anchor="middle" style="font-size:12px;font-family:sans-serif;" y="6" transform="translate(524.6667 938)" fill="#999999">243</text>
<text dominant-baseline="central" text-anchor="middle" style="font-size:12px;font-family:sans-serif;" y="6" transform="translate(560.6667 938)" fill="#999999">270</text>
<text dominant-baseline="central" text-anchor="middle" style="font-size:12px;font-family:sans-serif;" y="6" transform="translate(596.6667 938)" fill="#999999">297</text>
<text dominant-baseline="central" text-anchor="middle" style="font-size:12px;font-family:sans-serif;" y="6" transform="translate(632.6667 938)" fill="#999999">324</text>
<text dominant-baseline="central" text-anchor="middle" style="font-size:12px;font-family:sans-serif;" y="6" transform="translate(668.6667 938)" fill="#999999">351</text>
<text dominant-baseline="central" text-anchor="middle" style="font-size:12px;font-family:sans-serif;" y="6" transform="translate(704.6667 938)" fill="#999999">378</text>
<text dominant-baseline="central" text-anchor="middle" style="font-size:12px;font-family:sans-serif;" y="6" transform="translate(740.6667 938)" fill="#999999">405</text>
<text dominant-baseline="central" text-anchor="middle" style="font-size:12px;font-family:sans-serif;" y="6" transform="translate(776.6667 938)" fill="#999999">432</text>
<text dominant-baseline="central" text-anchor="middle" style="font-size:12px;font-family:sans-serif;" y="6" transform="translate(812.6667 938)" fill="#999999">459</text>
<text dominant-baseline="central" text-anchor="middle" style="font-size:12px;font-family:sans-serif;" y="6" transform="translate(848.6667 938)" fill="#999999">486</text>
<text dominant-baseline="central" text-anchor="middle" style="font-size:12px;font-family:sans-serif;" y="6" transform="translate(884.6667 938)" fill="#999999">513</text>
<text dominant-baseline="central" text-anchor="middle" style="font-size:12px;font-family:sans-serif;" y="6" transform="translate(920.6667 938)" fill="#999999">540</text>
<text dominant-baseline="central" text-anchor="middle" style="font-size:12px;font-family:sans-serif;" y="6" transform="translate(956.6667 938)" fill="#999999">567</text>
<text dominant-baseline="central" text-anchor="middle" style="font-size:12px;font-family:sans-serif;" y="6" transform="translate(992.6667 938)" fill="#999999">594</text>
<text dominant-baseline="central" text-anchor="middle" style="font-size:12px;font-family:sans-serif;" y="6" transform="translate(1028.6667 938)" fill="#999999">621</text>
<text dominant-baseline="central" text-anchor="middle" style="font-size:12px;font-family:sans-serif;" y="6" transform="translate(1064.6667 938)" fill="#999999">648</text>
<text dominant-baseline="central" text-anchor="middle" style="font-size:12px;font-family:sans-serif;" y="6" transform="translate(1100.6667 938)" fill="#999999">675</text>
<text dominant-baseline="central" text-anchor="middle" style="font-size:12px;font-family:sans-serif;" y="6" transform="translate(1136.6667 938)" fill="#999999">702</text>
<text dominant-baseline="central" text-anchor="middle" style="font-size:12px;font-family:sans-serif;" y="6" transform="translate(1172.6667 938)" fill="#999999">729</text>
<text dominant-baseline="central" text-anchor="middle" style="font-size:12px;font-family:sans-serif;" y="6" transform="translate(1208.6667 938)" fill="#999999">756</text>
<text dominant-baseline="central" text-anchor="middle" style="font-size:12px;font-family:sans-serif;" y="6" transform="translate(1244.6667 938)" fill="#999999">783</text>
<text dominant-baseline="central" text-anchor="middle" style="font-size:12px;font-family:sans-serif;" y="6" transform="translate(1280.6667 938)" fill="#999999">810</text>
<text dominant-baseline="central" text-anchor="middle" style="font-size:12px;font-family:sans-serif;" y="6" transform="translate(1316.6667 938)" fill="#999999">837</text>
<text dominant-baseline="central" text-anchor="middle" style="font-size:12px;font-family:sans-serif;" y="6" transform="translate(1352.6667 938)" fill="#999999">864</text>
<text dominant-baseline="central" text-anchor="middle" style="font-size:12px;font-family:sans-serif;" y="6" transform="translate(1388.6667 938)" fill="#999999">891</text>
<text dominant-baseline="central" text-anchor="middle" style="font-size:12px;font-family:sans-serif;" y="6" transform="translate(1424.6667 938)" fill="#999999">918</text>
<text dominant-baseline="central" text-anchor="middle" style="font-size:12px;font-family:sans-serif;" y="6" transform="translate(1460.6667 938)" fill="#999999">945</text>
<text dominant-baseline="central" text-anchor="middle" style="font-size:12px;font-family:sans-serif;" y="6" transform="translate(1496.6667 938)" fill="#999999">972</text>
<text dominant-baseline="central" text-anchor="middle" style="font-size:12px;font-family:sans-serif;" y="6" transform="translate(1532.6667 938)" fill="#999999">999</text>
<text dominant-baseline="central" text-anchor="middle" style="font-size:12px;font-family:sans-serif;" y="6" transform="translate(1568.6667 938)" fill="#999999">1026</text>
<text dominant-baseline="central" text-anchor="middle" style="font-size:12px;font-family:sans-serif;" y="6" transform="translate(1604.6667 938)" fill="#999999">1053</text>
<text dominant-baseline="central" text-anchor="middle" style="font-size:12px;font-family:sans-serif;" y="6" transform="translate(1640.6667 938)" fill="#999999">1080</text>
<text dominant-baseline="central" text-anchor="middle" style="font-size:12px;font-family:sans-serif;" y="6" transform="translate(1676.6667 938)" fill="#999999">1107</text>
<text dominant-baseline="central" text-anchor="middle" style="font-size:12px;font-family:sans-serif;" y="6" transform="translate(1712.6667 938)" fill="#999999">1134</text>
<text dominant-baseline="central" text-anchor="middle" style="font-size:12px;font-family:sans-serif;" y="6" transform="translate(1748.6667 938)" fill="#999999">1161</text>
<text dominant-baseline="central" text-anchor="middle" style="font-size:12px;font-family:sans-serif;" y="6" transform="translate(1784.6667 938)" fill="#999999">1188</text>
<g clip-path="url(#zr30-c0)">
<path d="M200.7 571.9L202 771.4L203.3 773.2L204.7 851.3L206 808L207.3 850.9L208.7 693.5L210 743.1L211.3 750.3L212.7 795L214 751.6L215.3 848.8L216.7 815.1L218 866L219.3 687.8L220.7 668.6L222 745.6L223.3 811.8L224.7 740.3L226 864.6L227.3 830.3L228.7 866L230 675.2L231.3 741L232.7 750.6L234 814.2L235.3 777.5L236.7 865.4L238 806.6L239.3 865.2L240.7 697.1L242 631.7L243.3 731.2L244.7 794.2L246 731.7L247.3 865.8L248.7 831.3L250 866.2L251.3 667.7L252.7 684.9L254 731L255.3 801.2L256.7 777.2L258 865.6L259.3 830.9L260.7 852.3L262 657.1L263.3 693L264.7 716.9L266 774L267.3 736L268.7 825.7L270 804.6L271.3 864.3L272.7 659.3L274 694.3L275.3 730.4L276.7 781.5L278 735L279.3 849.2L280.7 829.6L282 865.1L283.3 696.8L284.7 652L286 672.9L287.3 787.8L288.7 728.3L290 848.2L291.3 807.1L292.7 864.8L294 671.3L295.3 677.6L296.7 726.3L298 797L299.3 773.2L300.7 862.6L302 828.8L303.3 862.6L304.7 681.6L306 695.8L307.3 744.6L308.7 781.2L310 734L311.3 845.7L312.7 826.9L314 849.7L315.3 692.4L316.7 686.7L318 759.1L319.3 794.3L320.7 745.7L322 862.5L323.3 828.6L324.7 865.1L326 697.2L327.3 680L328.7 703.5L330 770.9L331.3 753.6L332.7 842.7L334 823.9L335.3 850.8L336.7 689.8L338 713.8L339.3 755L340.7 803.5L342 743.9L343.3 863.7L344.7 830.2L346 851.5L347.3 692L348.7 695.5L350 724.4L351.3 770.4L352.7 732.9L354 848L355.3 801.9L356.7 860.9L358 682.2L359.3 686.3L360.7 717.2L362 775.7L363.3 740L364.7 858.2L366 827.4L367.3 864.3L368.7 672.8L370 677.8L371.3 732.2L372.7 792L374 739L375.3 862.9L376.7 806.5L378 865.2L379.3 660.6L380.7 690.9L382 719.6L383.3 782.7L384.7 741.3L386 848.7L387.3 796.2L388.7 847.6L390 688.5L391.3 677.7L392.7 743.3L394 800.8L395.3 752.1L396.7 845.7L398 824.8L399.3 855L400.7 691.1L402 688.6L403.3 724.7L404.7 789.4L406 752.8L407.3 855.5L408.7 827.8L410 865.1L411.3 683.1L412.7 639.1L414 705.7L415.3 761.8L416.7 725.3L418 847.1L419.3 824.3L420.7 839L422 682.3L423.3 696.2L424.7 748.5L426 776.7L427.3 720.3L428.7 848.5L430 824.3L431.3 862.5L432.7 665.1L434 661.2L435.3 689.8L436.7 782.7L438 752.7L439.3 861.2L440.7 822.7L442 863.4L443.3 682.2L444.7 693.6L446 745.6L447.3 779.3L448.7 773.4L450 864L451.3 828.6L452.7 864.7L454 679.5L455.3 656.4L456.7 720.2L458 789.7L459.3 728.6L460.7 841.9L462 816.5L463.3 862.3L464.7 685.3L466 688L467.3 706.7L468.7 772.8L470 749.2L471.3 861.1L472.7 827.1L474 862.8L475.3 695.6L476.7 686.2L478 723.6L479.3 768.9L480.7 746.9L482 862.9L483.3 827.6L484.7 850.4L486 677.1L487.3 688.1L488.7 736.1L490 781.2L491.3 774.2L492.7 843.8L494 801.7L495.3 863.2L496.7 695L498 685L499.3 750.2L500.7 775.5L502 758.8L503.3 847.4L504.7 828.5L506 850.6L507.3 671L508.7 724.8L510 744.4L511.3 800.1L512.7 772.4L514 849.4L515.3 808.1L516.7 851.2L518 663.7L519.3 652.5L520.7 708.8L522 792.2L523.3 767L524.7 863.1L526 808L527.3 864.3L528.7 684.9L530 692.2L531.3 729.8L532.7 780.7L534 758.3L535.3 862.6L536.7 825.4L538 857.9L539.3 694.7L540.7 679.3L542 719.4L543.3 753.2L544.7 747.4L546 861.2L547.3 828.7L548.7 865L550 687.7L551.3 707L552.7 739.7L554 749.6L555.3 772.9L556.7 863.6L558 811.7L559.3 865.6L560.7 668L562 680.2L563.3 732.4L564.7 791.4L566 733.7L567.3 849.3L568.7 829.7L570 851.5L571.3 670.1L572.7 715L574 732.4L575.3 799.6L576.7 762.4L578 863.7L579.3 807.5L580.7 851.3L582 646L583.3 688.1L584.7 695.4L586 793.5L587.3 761.8L588.7 861.2L590 828.1L591.3 864.3L592.7 669.3L594 722.9L595.3 742.3L596.7 782.5L598 766L599.3 863L600.7 829.3L602 851L603.3 665.2L604.7 695.1L606 733.4L607.3 767.4L608.7 754.3L610 861.9L611.3 805L612.7 850.6L614 662.3L615.3 704.6L616.7 754.8L618 779.9L619.3 743L620.7 849.4L622 808L623.3 865L624.7 634.4L626 688L627.3 707.1L628.7 781.7L630 761.5L631.3 862.7L632.7 813.8L634 849.7L635.3 657.2L636.7 692.9L638 731.1L639.3 767.2L640.7 766.2L642 852.8L643.3 816.4L644.7 850.8L646 695.5L647.3 684L648.7 713.6L650 774.3L651.3 760.7L652.7 848.2L654 828.8L655.3 865.1L656.7 664L658 695.2L659.3 727L660.7 804.3L662 774.5L663.3 863.2L664.7 807.5L666 850.8L667.3 689.1L668.7 677.6L670 709.1L671.3 768.3L672.7 740L674 846.3L675.3 826.5L676.7 863.9L678 664.3L679.3 701L680.7 758.3L682 786.2L683.3 774.8L684.7 846.6L686 807.7L687.3 851L688.7 694.5L690 680.1L691.3 708.4L692.7 778.4L694 731.6L695.3 848.4L696.7 805.5L698 864.1L699.3 677.4L700.7 709.2L702 718.2L703.3 760.7L704.7 772.6L706 852.8L707.3 794.5L708.7 860.6L710 692.1L711.3 673L712.7 690.3L714 767.1L715.3 739.3L716.7 860.9L718 827.1L719.3 864.3L720.7 692.7L722 687.9L723.3 735.8L724.7 796.4L726 749L727.3 863.6L728.7 826.8L730 863.9L731.3 691.8L732.7 671.6L734 723.2L735.3 787L736.7 727.3L738 847.8L739.3 803.6L740.7 863.3L742 684.9L743.3 707.4L744.7 752.4L746 779L747.3 770.7L748.7 857.1L750 821.8L751.3 863.4L752.7 686.6L754 675.3L755.3 739L756.7 758.3L758 747.8L759.3 846.7L760.7 805L762 864.3L763.3 665.5L764.7 641.4L766 749.5L767.3 774.1L768.7 742.5L770 862.9L771.3 828.7L772.7 864.7L774 651.3L775.3 689.2L776.7 708L778 768.9L779.3 738.3L780.7 846.1L782 823.6L783.3 849.4L784.7 687.4L786 710.1L787.3 730.2L788.7 773L790 761.4L791.3 861.9L792.7 805.6L794 850.3L795.3 685.8L796.7 690.5L798 706.2L799.3 772.1L800.7 756.9L802 862.3L803.3 827.7L804.7 864.3L806 688L807.3 718.6L808.7 757.3L810 801L811.3 775L812.7 863.2L814 828.4L815.3 859.9L816.7 671.5L818 708.1L819.3 743.1L820.7 789.5L822 759.4L823.3 861.5L824.7 830.1L826 851.8L827.3 675.6L828.7 706.5L830 780.7L831.3 819.7L832.7 748.4L834 864.4L835.3 831.2L836.7 866L838 695.9L839.3 711L840.7 772.6L842 782.9L843.3 773.9L844.7 851.1L846 830.8L847.3 866L848.7 706.3L850 743.6L851.3 748.6L852.7 813.7L854 783.4L855.3 846.4L856.7 827.8L858 865.3L859.3 603.4L860.7 656.3L862 749.5L863.3 782.1L864.7 772.7L866 864.6L867.3 830.4L868.7 842.2L870 675.5L871.3 676.4L872.7 673.9L874 755.4L875.3 765.7L876.7 851.9L878 796.8L879.3 845.9L880.7 689L882 657.2L883.3 689.3L884.7 725.5L886 707L887.3 855.5L888.7 822.8L890 857.2L891.3 682.4L892.7 689.5L894 730.9L895.3 761.3L896.7 757.5L898 859.2L899.3 826.6L900.7 864.2L902 659.8L903.3 680.4L904.7 732.9L906 789L907.3 766.2L908.7 864.4L910 818.6L911.3 863.1L912.7 677.3L914 695.3L915.3 752.5L916.7 803.8L918 747.4L919.3 861.7L920.7 818.3L922 864.6L923.3 667.6L924.7 662.1L926 731.4L927.3 782.8L928.7 767.4L930 849.4L931.3 826L932.7 851.9L934 698.5L935.3 691.2L936.7 722.7L938 801.8L939.3 747L940.7 863.9L942 807.4L943.3 864.9L944.7 667L946 674L947.3 741.8L948.7 809.3L950 774L951.3 864.9L952.7 831.3L954 866.3L955.3 679.3L956.7 687.1L958 731.7L959.3 805.6L960.7 753.1L962 862.9L963.3 802.9L964.7 858.5L966 660.8L967.3 676.4L968.7 716.3L970 750.9L971.3 754.1L972.7 861.3L974 807.4L975.3 864.3L976.7 670.4L978 724.3L979.3 718.2L980.7 802.4L982 780L983.3 865.3L984.7 830.2L986 852.5L987.3 672L988.7 687.4L990 731.5L991.3 807.7L992.7 741.1L994 859.7L995.3 809.7L996.7 857.7L998 668.6L999.3 718.7L1000.7 777L1002 795.2L1003.3 776.6L1004.7 865.1L1006 826.5L1007.3 850.2L1008.7 679.2L1010 667.7L1011.3 743.5L1012.7 773.3L1014 736.4L1015.3 847.8L1016.7 828.4L1018 865L1019.3 698.4L1020.7 722.9L1022 749L1023.3 794.3L1024.7 775.1L1026 864.8L1027.3 808L1028.7 865.9L1030 699.3L1031.3 619.8L1032.7 707.5L1034 769.7L1035.3 731.6L1036.7 848.8L1038 828.5L1039.3 865.3L1040.7 676.5L1042 718.3L1043.3 760.2L1044.7 804.9L1046 743.2L1047.3 863.5L1048.7 779.5L1050 862.6L1051.3 692L1052.7 696.9L1054 716L1055.3 787.2L1056.7 719.8L1058 860.7L1059.3 826.9L1060.7 850.2L1062 684.9L1063.3 716L1064.7 738L1066 805.7L1067.3 780.6L1068.7 850.8L1070 829.1L1071.3 865.8L1072.7 656.7L1074 682.9L1075.3 733.4L1076.7 802L1078 742.7L1079.3 862.5L1080.7 830.2L1082 861.7L1083.3 682.2L1084.7 711.9L1086 713.4L1087.3 780.6L1088.7 770L1090 857.8L1091.3 824.6L1092.7 862.2L1094 668.5L1095.3 683.6L1096.7 715.8L1098 773.5L1099.3 753.3L1100.7 847.5L1102 826.9L1103.3 863.7L1104.7 659.4L1106 668.1L1107.3 738L1108.7 785.3L1110 773.7L1111.3 862.6L1112.7 828.8L1114 864.9L1115.3 683.8L1116.7 694.7L1118 709.5L1119.3 780.1L1120.7 764.8L1122 862.2L1123.3 821.2L1124.7 846L1126 694L1127.3 701.6L1128.7 729.6L1130 804L1131.3 761.8L1132.7 860.9L1134 811.8L1135.3 864.4L1136.7 701.9L1138 709.7L1139.3 705.8L1140.7 780.3L1142 737.8L1143.3 848.7L1144.7 829L1146 864.6L1147.3 700L1148.7 720.4L1150 761.8L1151.3 792.1L1152.7 784.6L1154 864.9L1155.3 830.8L1156.7 850.3L1158 692.3L1159.3 694.4L1160.7 728.8L1162 799.6L1163.3 768.2L1164.7 864.5L1166 829.9L1167.3 861.6L1168.7 672.1L1170 724.7L1171.3 733L1172.7 808.3L1174 775.1L1175.3 849.6L1176.7 803.7L1178 863L1179.3 676.1L1180.7 684L1182 715.9L1183.3 795.3L1184.7 755.1L1186 849.5L1187.3 807.9L1188.7 851.3L1190 662.8L1191.3 692.7L1192.7 736.2L1194 775L1195.3 774.7L1196.7 848.9L1198 808L1199.3 865.1L1200.7 700.7L1202 664.4L1203.3 706.9L1204.7 769.3L1206 758.6L1207.3 852.2L1208.7 826.5L1210 850.9L1211.3 691.2L1212.7 718.8L1214 728.7L1215.3 786.9L1216.7 744.7L1218 863.8L1219.3 808.4L1220.7 859.5L1222 685.6L1223.3 664.2L1224.7 711.1L1226 771.4L1227.3 739.6L1228.7 860.2L1230 828.5L1231.3 864L1232.7 698.4L1234 695.1L1235.3 736.8L1236.7 782L1238 763.8L1239.3 860.5L1240.7 825.9L1242 864.8L1243.3 667.3L1244.7 682L1246 704.9L1247.3 779.6L1248.7 733.1L1250 863.2L1251.3 806.8L1252.7 863.9L1254 698.7L1255.3 679.5L1256.7 739L1258 781.1L1259.3 775.1L1260.7 864L1262 829.5L1263.3 851.5L1264.7 660.9L1266 676.2L1267.3 709.7L1268.7 776.8L1270 744.1L1271.3 846.5L1272.7 825.8L1274 849.9L1275.3 692.6L1276.7 693.5L1278 732L1279.3 782.1L1280.7 750.7L1282 863.3L1283.3 807.1L1284.7 851.3L1286 679.9L1287.3 673.6L1288.7 700.4L1290 706.6L1291.3 740.1L1292.7 848.5L1294 805.6L1295.3 856.1L1296.7 675.5L1298 718.2L1299.3 757.6L1300.7 781.3L1302 770.5L1303.3 848.7L1304.7 829.2L1306 845.3L1307.3 694.5L1308.7 696L1310 706.3L1311.3 793.4L1312.7 750L1314 851.5L1315.3 820.7L1316.7 863.7L1318 691.1L1319.3 707L1320.7 729L1322 794.8L1323.3 739.4L1324.7 850.2L1326 806.8L1327.3 859.3L1328.7 692.1L1330 630.5L1331.3 711L1332.7 790.7L1334 749.6L1335.3 863.6L1336.7 817.5L1338 865.6L1339.3 684.8L1340.7 689.1L1342 734.3L1343.3 797.6L1344.7 744.3L1346 847.1L1347.3 826.5L1348.7 862.9L1350 686.8L1351.3 670.4L1352.7 707.9L1354 758.8L1355.3 747.3L1356.7 846.3L1358 805.5L1359.3 864L1360.7 661.3L1362 693.8L1363.3 743.3L1364.7 771L1366 764L1367.3 862.8L1368.7 828.3L1370 859.7L1371.3 662.7L1372.7 685.1L1374 707.2L1375.3 789.1L1376.7 729.9L1378 862.9L1379.3 799L1380.7 853.5L1382 686.9L1383.3 718.8L1384.7 737.2L1386 804.5L1387.3 726.8L1388.7 845L1390 825.1L1391.3 861.2L1392.7 667.6L1394 696.8L1395.3 706.9L1396.7 754.6L1398 748.6L1399.3 847.1L1400.7 825.7L1402 864.2L1403.3 691.9L1404.7 688.3L1406 747.7L1407.3 801.4L1408.7 782.8L1410 865.6L1411.3 806.3L1412.7 864.1L1414 675.5L1415.3 688.5L1416.7 736.3L1418 812L1419.3 771.2L1420.7 860.8L1422 802.9L1423.3 863.9L1424.7 694L1426 737.9L1427.3 745.8L1428.7 813.3L1430 750L1431.3 855.8L1432.7 806.9L1434 864.9L1435.3 680.5L1436.7 689.5L1438 712.3L1439.3 776.6L1440.7 762.6L1442 862.7L1443.3 827.5L1444.7 864L1446 680.7L1447.3 714.8L1448.7 746.7L1450 800.9L1451.3 774.4L1452.7 849.1L1454 805.5L1455.3 846.3L1456.7 682.9L1458 682.6L1459.3 735.6L1460.7 799.1L1462 735L1463.3 824.6L1464.7 825.2L1466 864.7L1467.3 698.4L1468.7 704.8L1470 735.4L1471.3 782.5L1472.7 745.4L1474 863.5L1475.3 809.2L1476.7 862L1478 665.8L1479.3 695.4L1480.7 744.8L1482 773L1483.3 736.5L1484.7 864.1L1486 829.7L1487.3 855.3L1488.7 703.3L1490 681.2L1491.3 757.9L1492.7 790.5L1494 745.9L1495.3 852.5L1496.7 829.9L1498 865L1499.3 659.5L1500.7 690.3L1502 717.3L1503.3 773.4L1504.7 744.2L1506 849.4L1507.3 829.2L1508.7 848.2L1510 684.3L1511.3 688.1L1512.7 721.7L1514 803.2L1515.3 760.7L1516.7 848.3L1518 826.6L1519.3 863.9L1520.7 693.2L1522 697.8L1523.3 713.7L1524.7 726.3L1526 727.4L1527.3 860.9L1528.7 806L1530 850.3L1531.3 686.6L1532.7 710.2L1534 718.7L1535.3 800.3L1536.7 773.3L1538 849.4L1539.3 828.9L1540.7 864.6L1542 657.2L1543.3 685.5L1544.7 700.1L1546 751L1547.3 730.6L1548.7 851.7L1550 807.4L1551.3 855.8L1552.7 694.7L1554 702.9L1555.3 710.8L1556.7 782.8L1558 710.4L1559.3 861L1560.7 806.5L1562 864.5L1563.3 664.2L1564.7 679.5L1566 713.4L1567.3 792.4L1568.7 763.9L1570 863.2L1571.3 807.7L1572.7 865.3L1574 681.4L1575.3 711.3L1576.7 740.2L1578 780.7L1579.3 774L1580.7 864.1L1582 829.6L1583.3 864.6L1584.7 698.8L1586 671.9L1587.3 708.8L1588.7 794.7L1590 747.7L1591.3 848.8L1592.7 830L1594 858.8L1595.3 656.1L1596.7 691L1598 760.9L1599.3 806.9L1600.7 775.3L1602 849.8L1603.3 825.9L1604.7 863.6L1606 676.4L1607.3 688.3L1608.7 708.7L1610 771.5L1611.3 757.2L1612.7 840.4L1614 808.6L1615.3 864.6L1616.7 679.7L1618 724.1L1619.3 728.1L1620.7 796.6L1622 739.3L1623.3 848.5L1624.7 806.8L1626 860.3L1627.3 697L1628.7 642.5L1630 727.6L1631.3 764.7L1632.7 745.5L1634 862.1L1635.3 828.6L1636.7 864L1638 654.2L1639.3 717.7L1640.7 748.1L1642 780.1L1643.3 742.6L1644.7 859.8L1646 802.3L1647.3 856.3L1648.7 692.4L1650 666L1651.3 713L1652.7 738.2L1654 725.4L1655.3 861.7L1656.7 828.5L1658 864.3L1659.3 693.7L1660.7 718.5L1662 713.2L1663.3 798.6L1664.7 746L1666 849.8L1667.3 828.4L1668.7 865L1670 680.8L1671.3 671L1672.7 711.7L1674 782.1L1675.3 731.7L1676.7 834.9L1678 816.6L1679.3 862.1L1680.7 680.2L1682 702.1L1683.3 737.4L1684.7 804.7L1686 761.2L1687.3 860.1L1688.7 827.5L1690 864L1691.3 696.1L1692.7 697.7L1694 740.9L1695.3 762.1L1696.7 741.2L1698 847.4L1699.3 827.8L1700.7 863.7L1702 665.4L1703.3 648.7L1704.7 719.1L1706 783.6L1707.3 743.2L1708.7 863.3L1710 806.7L1711.3 865.4L1712.7 676.6L1714 660.3L1715.3 716.4L1716.7 785.8L1718 734.1L1719.3 858.8L1720.7 824.9L1722 863.6L1723.3 677.4L1724.7 720.5L1726 759.3L1727.3 803.4L1728.7 765.8L1730 855.5L1731.3 811.1L1732.7 861.8L1734 656.8L1735.3 695L1736.7 683.6L1738 781.9L1739.3 753.8L1740.7 861.5L1742 804.8L1743.3 864.6L1744.7 662.6L1746 706.2L1747.3 750.6L1748.7 796.2L1750 740.9L1751.3 828.7L1752.7 793L1754 859.2L1755.3 651L1756.7 663L1758 721.8L1759.3 778.5L1760.7 749L1762 859.9L1763.3 824.5L1764.7 863.9L1766 696.4L1767.3 686.4L1768.7 738.5L1770 777.2L1771.3 771.9L1772.7 862.8L1774 826.5L1775.3 864.3L1776.7 683.2L1778 703L1779.3 716L1780.7 794.5L1782 736.5L1783.3 863.5L1784.7 827.6L1786 861L1787.3 654.1L1788.7 698.8L1790 723.6L1791.3 807.8L1792.7 779.3L1794 860.1L1795.3 806.3L1796.7 850.6L1798 701.1L1799.3 677.9" fill="transparent" stroke="#3fb1e3" stroke-width="3" stroke-linejoin="bevel" class="zr30-cls-92"></path>
</g>
<g clip-path="url(#zr30-c1)">
<path d="M200.7 572.3L202 724.7L203.3 749.9L204.7 853.7L206 807.5L207.3 867.3L208.7 680.4L210 694L211.3 751.8L212.7 820L214 777.1L215.3 853.5L216.7 829.6L218 865.9L219.3 699.2L220.7 674.6L222 735.4L223.3 802.5L224.7 770.1L226 867.1L227.3 830.9L228.7 853.3L230 663.3L231.3 718.2L232.7 747.8L234 817.4L235.3 786.3L236.7 866.9L238 830.8L239.3 867.7L240.7 692L242 708.9L243.3 730.6L244.7 776.9L246 738.9L247.3 825.9L248.7 815.6L250 855.3L251.3 695.6L252.7 721.8L254 738.2L255.3 786.9L256.7 737.1L258 848.8L259.3 828.4L260.7 866.3L262 694.4L263.3 668.9L264.7 729.4L266 765.6L267.3 758.5L268.7 864.7L270 827.1L271.3 852.4L272.7 692.9L274 692.2L275.3 744.4L276.7 804.3L278 745.2L279.3 854L280.7 808.5L282 866.5L283.3 663.2L284.7 675.1L286 708.5L287.3 761.8L288.7 731.7L290 863.2L291.3 773.7L292.7 864.9L294 630.8L295.3 715.9L296.7 753.9L298 798.1L299.3 769L300.7 858.9L302 825.2L303.3 852.3L304.7 687.2L306 695.4L307.3 709.6L308.7 793.7L310 760.8L311.3 864.4L312.7 830L314 850.1L315.3 692L316.7 698.5L318 754.4L319.3 781.1L320.7 772.4L322 850.8L323.3 808.6L324.7 852.7L326 683.6L327.3 677L328.7 738.7L330 772.7L331.3 764.5L332.7 864.4L334 824.6L335.3 864L336.7 687.6L338 719.4L339.3 730L340.7 791.8L342 697.5L343.3 863.4L344.7 804.9L346 866.1L347.3 697.7L348.7 684L350 734L351.3 791L352.7 716.8L354 862.7L355.3 808L356.7 866.2L358 665.2L359.3 684.2L360.7 710.8L362 795.7L363.3 739.6L364.7 864.1L366 829.6L367.3 852.2L368.7 682L370 667.3L371.3 739.9L372.7 768.3L374 740.6L375.3 860.6L376.7 825.5L378 849.6L379.3 657.9L380.7 713.7L382 757.6L383.3 772.4L384.7 766.3L386 862.8L387.3 805.5L388.7 863.1L390 689.3L391.3 676.8L392.7 730.6L394 791.3L395.3 762.8L396.7 851.5L398 808.3L399.3 852.7L400.7 683.8L402 707.3L403.3 738.7L404.7 801.2L406 773L407.3 864.9L408.7 798.2L410 862L411.3 690.5L412.7 697.5L414 707.1L415.3 784.3L416.7 729.6L418 848.9L419.3 812.7L420.7 861.2L422 667L423.3 702.1L424.7 706.1L426 768.6L427.3 746.7L428.7 857.1L430 820.4L431.3 860.1L432.7 589.1L434 632L435.3 695.3L436.7 766.3L438 712.6L439.3 839.1L440.7 807.7L442 854.4L443.3 650.1L444.7 698.2L446 708.2L447.3 765.6L448.7 721.5L450 840.1L451.3 817.6L452.7 860.2L454 661.1L455.3 655.8L456.7 668.1L458 763.7L459.3 733.7L460.7 840.5L462 809.7L463.3 858.2L464.7 648.8L466 709.6L467.3 723.6L468.7 784.9L470 753.4L471.3 858L472.7 799.8L474 864.3L475.3 682.9L476.7 636L478 686.2L479.3 782.6L480.7 754.8L482 861.7L483.3 826.3L484.7 852L486 682L487.3 720.9L488.7 756.8L490 785.2L491.3 743.4L492.7 835.7L494 793.4L495.3 863.5L496.7 695.7L498 677L499.3 716.1L500.7 792.1L502 764.3L503.3 846.9L504.7 828.5L506 865.4L507.3 699.6L508.7 725L510 756.3L511.3 808.4L512.7 779.7L514 851.2L515.3 828L516.7 866.3L518 695.9L519.3 685.1L520.7 744.9L522 775.7L523.3 746.7L524.7 851.2L526 830.1L527.3 866L528.7 693L530 722.6L531.3 733.6L532.7 808.6L534 776.7L535.3 851.5L536.7 831.2L538 866L539.3 696.8L540.7 672.6L542 743.8L543.3 772.3L544.7 732.8L546 835.6L547.3 807.2L548.7 866.1L550 673.8L551.3 707.9L552.7 740.3L554 774.2L555.3 752.8L556.7 851.7L558 831L559.3 866.5L560.7 676.4L562 700.4L563.3 735.6L564.7 795.8L566 721.9L567.3 864.4L568.7 808.3L570 852.6L571.3 698.9L572.7 694.9L574 721.3L575.3 803.9L576.7 774.3L578 851.1L579.3 830.2L580.7 866.6L582 694.3L583.3 689.2L584.7 705L586 774.4L587.3 735.1L588.7 865.2L590 829.8L591.3 851.7L592.7 661.2L594 710.1L595.3 731L596.7 782.7L598 776.4L599.3 842.3L600.7 827.9L602 865.8L603.3 690.4L604.7 668.5L606 718.2L607.3 780.3L608.7 763.4L610 864.7L611.3 808.4L612.7 852.9L614 685.3L615.3 695.1L616.7 727L618 804.9L619.3 755.3L620.7 851.6L622 831L623.3 853.3L624.7 668.3L626 683L627.3 733.2L628.7 805.5L630 739.9L631.3 852.7L632.7 808.9L634 867.4L635.3 669.3L636.7 694.8L638 739.2L639.3 763.6L640.7 780.1L642 866.1L643.3 827L644.7 867.1L646 699.1L647.3 681.1L648.7 747.3L650 799.5L651.3 741.5L652.7 852L654 829.5L655.3 852.8L656.7 666.4L658 712L659.3 739.8L660.7 800.1L662 756.1L663.3 849.5L664.7 806.5L666 866.3L667.3 684.5L668.7 658.6L670 716.3L671.3 776.2L672.7 729.4L674 850.9L675.3 830.7L676.7 866.9L678 693.8L679.3 685.2L680.7 722.8L682 758.8L683.3 761.6L684.7 865.1L686 830.1L687.3 845.7L688.7 693.7L690 695.9L691.3 711L692.7 783.3L694 756.3L695.3 859.4L696.7 825.6L698 864.6L699.3 691.8L700.7 697.5L702 741.8L703.3 773.3L704.7 769.3L706 864.4L707.3 829.3L708.7 866L710 697.4L711.3 661.4L712.7 721.4L714 766.9L715.3 725.7L716.7 850.4L718 807.3L719.3 866.4L720.7 658.4L722 697.6L723.3 735.3L724.7 779.3L726 754.7L727.3 865L728.7 825.4L730 864.1L731.3 695.4L732.7 700.4L734 745L735.3 774.4L736.7 759.5L738 849.4L739.3 828.9L740.7 865.7L742 689L743.3 721.7L744.7 727L746 800.7L747.3 783.6L748.7 853L750 809.1L751.3 853.5L752.7 703.4L754 668.5L755.3 727.9L756.7 780.6L758 731.7L759.3 864L760.7 829.8L762 852.4L763.3 690.3L764.7 720.5L766 749.6L767.3 805.2L768.7 746.3L770 866L771.3 806.9L772.7 848.4L774 692.6L775.3 696.7L776.7 743.8L778 815.2L779.3 777.7L780.7 850.5L782 827.3L783.3 867.6L784.7 695.9L786 715.5L787.3 736.7L788.7 799.9L790 754.2L791.3 864.7L792.7 829.8L794 852.5L795.3 664.7L796.7 660.7L798 715.4L799.3 774.5L800.7 719.4L802 862.3L803.3 806.2L804.7 833.1L806 642.7L807.3 693.5L808.7 755.3L810 778.8L811.3 772.1L812.7 845.5L814 822.9L815.3 848.2L816.7 663.3L818 674.3L819.3 748.5L820.7 762.7L822 737.4L823.3 849.6L824.7 809.8L826 866L827.3 675L828.7 724.4L830 729.6L831.3 808.4L832.7 749.5L834 865L835.3 789.4L836.7 866.2L838 670.4L839.3 676L840.7 744.3L842 776.4L843.3 734.8L844.7 848.6L846 816.6L847.3 856.6L848.7 697.7L850 710.3L851.3 754.5L852.7 808.3L854 779.3L855.3 866L856.7 830.1L858 865.2L859.3 696.1L860.7 697.7L862 714.9L863.3 776L864.7 736.7L866 850.4L867.3 827L868.7 866.3L870 665.9L871.3 688.8L872.7 739.6L874 762.9L875.3 749.7L876.7 862L878 808.8L879.3 852.6L880.7 674.7L882 671.6L883.3 711.9L884.7 791.3L886 734.5L887.3 851L888.7 807.8L890 866.6L891.3 654.3L892.7 703.7L894 732.4L895.3 804.4L896.7 744.8L898 863.6L899.3 811.6L900.7 861.3L902 686L903.3 660.8L904.7 723L906 796.1L907.3 732.1L908.7 847.7L910 805.5L911.3 865.5L912.7 660.3L914 705.2L915.3 762.2L916.7 784.9L918 768.7L919.3 864.1L920.7 829.5L922 866.5L923.3 697.7L924.7 698.8L926 720.7L927.3 790.1L928.7 732L930 865L931.3 807.7L932.7 866.4L934 696.3L935.3 691.8L936.7 747.5L938 805L939.3 744.8L940.7 851.2L942 829.1L943.3 866.3L944.7 655.3L946 678L947.3 713.6L948.7 773.3L950 734.3L951.3 851.1L952.7 823.5L954 863.6L955.3 684.4L956.7 702L958 732.1L959.3 786.6L960.7 746.4L962 864.6L963.3 829.9L964.7 852.8L966 671.9L967.3 697.5L968.7 677.1L970 790.2L971.3 732.1L972.7 865.3L974 830.2L975.3 866.9L976.7 679L978 677.7L979.3 741.6L980.7 781L982 745.8L983.3 865L984.7 808.2L986 867L987.3 662.9L988.7 676.3L990 711.3L991.3 772.4L992.7 734.6L994 851.1L995.3 827.3L996.7 865.7L998 689.6L999.3 707.2L1000.7 675.5L1002 778.6L1003.3 763.8L1004.7 849.8L1006 828.7L1007.3 866.4L1008.7 696.3L1010 670.4L1011.3 707.8L1012.7 770.4L1014 732.6L1015.3 861.7L1016.7 829.2L1018 866.3L1019.3 665.8L1020.7 705.3L1022 743.7L1023.3 802.1L1024.7 746.5L1026 865.1L1027.3 801.6L1028.7 817.9L1030 688.9L1031.3 652.3L1032.7 707.3L1034 794.9L1035.3 763.7L1036.7 859.1L1038 825L1039.3 865.2L1040.7 693.6L1042 723.8L1043.3 761.9L1044.7 784L1046 741.7L1047.3 862.6L1048.7 829L1050 866.5L1051.3 691.3L1052.7 682.4L1054 692.9L1055.3 777.9L1056.7 764.3L1058 848.3L1059.3 807L1060.7 852.5L1062 688.2L1063.3 714.2L1064.7 731L1066 805.5L1067.3 744.9L1068.7 865L1070 828.9L1071.3 863.2L1072.7 690.1L1074 666.9L1075.3 728.1L1076.7 797.8L1078 762.2L1079.3 852.5L1080.7 826.8L1082 865.4L1083.3 679.9L1084.7 710.5L1086 735L1087.3 761.2L1088.7 765.9L1090 864.1L1091.3 826.7L1092.7 866.5L1094 668.2L1095.3 683.1L1096.7 729.2L1098 770L1099.3 745.7L1100.7 863.8L1102 807L1103.3 866.4L1104.7 688.1L1106 716.4L1107.3 757L1108.7 786.3L1110 739.9L1111.3 836.8L1112.7 824.4L1114 864L1115.3 670.5L1116.7 684.9L1118 743.7L1119.3 795.4L1120.7 741.6L1122 833.2L1123.3 827.3L1124.7 864.5L1126 695.1L1127.3 706.4L1128.7 720.4L1130 796.1L1131.3 771.2L1132.7 863.8L1134 828.6L1135.3 866.6L1136.7 700.1L1138 684L1139.3 711.2L1140.7 787.9L1142 767.5L1143.3 850.1L1144.7 822.7L1146 865.6L1147.3 680.5L1148.7 723.4L1150 763.8L1151.3 785.2L1152.7 780.9L1154 865.4L1155.3 831.6L1156.7 854.2L1158 698.7L1159.3 664.9L1160.7 704.2L1162 777.9L1163.3 769.1L1164.7 864.7L1166 829.6L1167.3 866.4L1168.7 666L1170 705.3L1171.3 751.9L1172.7 771.4L1174 734.5L1175.3 864.9L1176.7 807.7L1178 866.4L1179.3 701L1180.7 677.5L1182 744.9L1183.3 772.9L1184.7 734.8L1186 851.2L1187.3 830.1L1188.7 867L1190 700.2L1191.3 720.1L1192.7 727.7L1194 782.1L1195.3 775.9L1196.7 853.3L1198 808.7L1199.3 852.4L1200.7 696.5L1202 672.5L1203.3 743.6L1204.7 788.2L1206 744.3L1207.3 865.1L1208.7 830.7L1210 866.7L1211.3 678.7L1212.7 695.2L1214 730.4L1215.3 784.1L1216.7 758.9L1218 856.4L1219.3 802.9L1220.7 851.6L1222 697.1L1223.3 672.8L1224.7 703.2L1226 771.4L1227.3 756.9L1228.7 864.1L1230 828L1231.3 866.5L1232.7 695.3L1234 689.9L1235.3 674.2L1236.7 798.3L1238 773.4L1239.3 849.9L1240.7 829.9L1242 852.5L1243.3 663.3L1244.7 672.4L1246 709.5L1247.3 791.4L1248.7 763.2L1250 864.7L1251.3 830.8L1252.7 866.7L1254 686.7L1255.3 706.4L1256.7 724.2L1258 799.7L1259.3 775L1260.7 851.6L1262 809.7L1263.3 863.1L1264.7 679L1266 687.8L1267.3 710.8L1268.7 783L1270 733.1L1271.3 863.2L1272.7 807.1L1274 851.7L1275.3 670.7L1276.7 724.8L1278 732.1L1279.3 763.1L1280.7 768.6L1282 851.4L1283.3 812.9L1284.7 866.5L1286 674.9L1287.3 679.3L1288.7 694.5L1290 779.1L1291.3 734.5L1292.7 865.4L1294 830.5L1295.3 864.8L1296.7 666.9L1298 696.8L1299.3 761.8L1300.7 790.8L1302 748.1L1303.3 865.9L1304.7 808.9L1306 863.9L1307.3 693.9L1308.7 676.6L1310 707.4L1311.3 795.9L1312.7 729.9L1314 862.5L1315.3 807L1316.7 865.7L1318 693.6L1319.3 694.7L1320.7 713.1L1322 783.7L1323.3 774.1L1324.7 865L1326 829.6L1327.3 856.3L1328.7 700L1330 692L1331.3 717.7L1332.7 769.9L1334 743.6L1335.3 865.4L1336.7 810L1338 865.9L1339.3 654.2L1340.7 703.3L1342 731.3L1343.3 803.1L1344.7 745.5L1346 851.2L1347.3 808.3L1348.7 861.8L1350 696.8L1351.3 669.3L1352.7 690.2L1354 792.1L1355.3 738.7L1356.7 860L1358 827.5L1359.3 851.1L1360.7 683.7L1362 709.2L1363.3 746.5L1364.7 772.2L1366 770.7L1367.3 864.8L1368.7 827.7L1370 866.1L1371.3 666.3L1372.7 660.3L1374 702.7L1375.3 791.1L1376.7 730.5L1378 850.1L1379.3 807.3L1380.7 866.3L1382 667.7L1383.3 718.2L1384.7 751.5L1386 811.5L1387.3 765L1388.7 867.4L1390 827.3L1391.3 866.9L1392.7 673.6L1394 668.3L1395.3 722.7L1396.7 784.3L1398 718.8L1399.3 862.3L1400.7 803.3L1402 863L1403.3 663.2L1404.7 723.4L1406 752.7L1407.3 786.3L1408.7 744.9L1410 865.5L1411.3 830.5L1412.7 866.3L1414 693.6L1415.3 680.5L1416.7 721.4L1418 762.4L1419.3 759.4L1420.7 863.2L1422 806.3L1423.3 859.8L1424.7 677.7L1426 715.6L1427.3 734.8L1428.7 804.5L1430 772.3L1431.3 845.4L1432.7 824L1434 866.7L1435.3 693.7L1436.7 690L1438 719.9L1439.3 775L1440.7 729.6L1442 847L1443.3 825.5L1444.7 864.2L1446 681.9L1447.3 679.8L1448.7 716.8L1450 784.4L1451.3 776.8L1452.7 865.9L1454 830L1455.3 867.5L1456.7 689.3L1458 672.9L1459.3 702.6L1460.7 783.5L1462 759.9L1463.3 841.8L1464.7 826.5L1466 865.7L1467.3 668.2L1468.7 700.5L1470 735.3L1471.3 802.6L1472.7 776L1474 864.8L1475.3 808.2L1476.7 862.9L1478 667.2L1479.3 678.4L1480.7 738L1482 794.7L1483.3 768.5L1484.7 865.5L1486 830.8L1487.3 866.7L1488.7 667.1L1490 723.6L1491.3 729.9L1492.7 807.9L1494 774.9L1495.3 855.4L1496.7 830.5L1498 852.5L1499.3 674.5L1500.7 681.3L1502 745.6L1503.3 774.7L1504.7 735.9L1506 863.9L1507.3 808.3L1508.7 866.6L1510 659.1L1511.3 708.2L1512.7 735.2L1514 801L1515.3 746.3L1516.7 852.8L1518 813.6L1519.3 852L1520.7 703.5L1522 700.1L1523.3 718.6L1524.7 799.7L1526 766.6L1527.3 850.7L1528.7 809.1L1530 866.7L1531.3 699.3L1532.7 726.1L1534 732.4L1535.3 782.2L1536.7 774.8L1538 851.3L1539.3 830.8L1540.7 862.5L1542 700.1L1543.3 698.3L1544.7 740.8L1546 757.4L1547.3 735.1L1548.7 851.7L1550 810.7L1551.3 866.8L1552.7 699.8L1554 673L1555.3 718.3L1556.7 771.9L1558 759.5L1559.3 863.4L1560.7 828.9L1562 859.2L1563.3 646.6L1564.7 669.5L1566 739.7L1567.3 777.4L1568.7 738.7L1570 864.7L1571.3 825.9L1572.7 865.9L1574 691.8L1575.3 698.3L1576.7 755.3L1578 799L1579.3 750.5L1580.7 860.8L1582 785.6L1583.3 851.4L1584.7 688.1L1586 695.7L1587.3 736.2L1588.7 792.2L1590 770.9L1591.3 866.5L1592.7 804.1L1594 853.9L1595.3 691.8L1596.7 697.9L1598 750.6L1599.3 791.5L1600.7 762.8L1602 850.6L1603.3 807L1604.7 857.1L1606 653.5L1607.3 689.6L1608.7 645.1L1610 788.6L1611.3 737.1L1612.7 853.5L1614 825.9L1615.3 865.1L1616.7 685.2L1618 716.5L1619.3 744.3L1620.7 806.4L1622 769.1L1623.3 863.2L1624.7 806.9L1626 865.9L1627.3 695.8L1628.7 669.1L1630 705.6L1631.3 789.5L1632.7 772.1L1634 853L1635.3 830.6L1636.7 868L1638 677.2L1639.3 707.4L1640.7 751.1L1642 805.6L1643.3 744.5L1644.7 849.1L1646 830.4L1647.3 867L1648.7 686.7L1650 671.1L1651.3 723.4L1652.7 773.1L1654 766.1L1655.3 851.7L1656.7 815.2L1658 865.7L1659.3 674.5L1660.7 710.6L1662 731L1663.3 804.8L1664.7 762L1666 862.9L1667.3 821.5L1668.7 864.9L1670 684.7L1671.3 677.4L1672.7 714.6L1674 786.9L1675.3 762.2L1676.7 847.4L1678 828.8L1679.3 852.5L1680.7 693.1L1682 681.7L1683.3 723.8L1684.7 798.7L1686 767.2L1687.3 864.1L1688.7 829.6L1690 866.4L1691.3 674.6L1692.7 660.7L1694 724.4L1695.3 795.9L1696.7 745L1698 862.8L1699.3 802.9L1700.7 865L1702 672.5L1703.3 710.7L1704.7 756.6L1706 802.8L1707.3 755.9L1708.7 862L1710 828.1L1711.3 864.2L1712.7 688.7L1714 676.9L1715.3 688.9L1716.7 767.3L1718 733.1L1719.3 849.5L1720.7 829.2L1722 866.6L1723.3 662.1L1724.7 696.4L1726 757.6L1727.3 805.5L1728.7 756.4L1730 865.4L1731.3 829.9L1732.7 860.2L1734 688.5L1735.3 697.2L1736.7 719.5L1738 778L1739.3 727L1740.7 856.1L1742 818.7L1743.3 865.7L1744.7 694.3L1746 706.8L1747.3 760.5L1748.7 805.7L1750 746.2L1751.3 851.5L1752.7 829.1L1754 859.9L1755.3 699.5L1756.7 666L1758 703.3L1759.3 794.1L1760.7 731.8L1762 850.6L1763.3 826.8L1764.7 865.9L1766 657.8L1767.3 699.5L1768.7 733.9L1770 782.3L1771.3 776.2L1772.7 849.2L1774 810.7L1775.3 863.9L1776.7 699.3L1778 707.7L1779.3 748.6L1780.7 791L1782 725.1L1783.3 848.4L1784.7 824.1L1786 864.6L1787.3 668L1788.7 702.8L1790 729.7L1791.3 798.2L1792.7 779.4L1794 865.3L1795.3 831.4L1796.7 866.4L1798 672L1799.3 656.8" fill="transparent" stroke="#6be6c1" stroke-width="3" stroke-linejoin="bevel" class="zr30-cls-92"></path>
</g>
<g clip-path="url(#zr30-c2)">
<path d="M200.7 545.2L202 747.8L203.3 741.4L204.7 852.1L206 810.3L207.3 853.6L208.7 662L210 691L211.3 750.1L212.7 803.9L214 741.6L215.3 866.3L216.7 829.8L218 862.1L219.3 681.1L220.7 688.4L222 771.1L223.3 794.6L224.7 761.5L226 852.7L227.3 832.1L228.7 851.8L230 705.1L231.3 739.2L232.7 760.4L234 795.6L235.3 785.5L236.7 867L238 780.4L239.3 850.7L240.7 700.8L242 669.9L243.3 723.1L244.7 792.2L246 748.4L247.3 865.4L248.7 831.8L250 866.8L251.3 679L252.7 740L254 782.2L255.3 796.8L256.7 752.1L258 865.7L259.3 810.3L260.7 867.4L262 705.6L263.3 700.6L264.7 757.2L266 788L267.3 767.5L268.7 852.9L270 811.2L271.3 867.6L272.7 676.8L274 706.3L275.3 746.5L276.7 793L278 784.4L279.3 852.7L280.7 810.7L282 867.4L283.3 700.9L284.7 703.9L286 771L287.3 792.4L288.7 762.8L290 852.9L291.3 809.9L292.7 851.9L294 698.3L295.3 715.1L296.7 778.6L298 820.4L299.3 787L300.7 865.2L302 832.5L303.3 865.5L304.7 709.9L306 673.2L307.3 707L308.7 775.2L310 738.7L311.3 852.5L312.7 832.6L314 867.4L315.3 708.2L316.7 705.6L318 701.1L319.3 783.4L320.7 752.7L322 852.9L323.3 810.8L324.7 854.3L326 683.1L327.3 677L328.7 746.7L330 800.8L331.3 738.1L332.7 852.2L334 832.1L335.3 867.5L336.7 698.6L338 724.3L339.3 734.1L340.7 787.1L342 779.9L343.3 866.1L344.7 815.8L346 860.9L347.3 698.9L348.7 694.1L350 741.8L351.3 797.9L352.7 750L354 859.4L355.3 816.6L356.7 866L358 674.7L359.3 710.1L360.7 733.5L362 807.4L363.3 752.2L364.7 864.4L366 831.6L367.3 867.1L368.7 702.1L370 682L371.3 730.9L372.7 779L374 777.4L375.3 853L376.7 810.6L378 853L379.3 662.5L380.7 698.1L382 760L383.3 818.2L384.7 755.8L386 861.4L387.3 820.1L388.7 865.9L390 698L391.3 657.2L392.7 724.5L394 793.5L395.3 747.4L396.7 864.1L398 832.2L399.3 867.4L400.7 702.8L402 739L403.3 750.9L404.7 818.5L406 779.2L407.3 866.5L408.7 810.2L410 867.6L411.3 703.3L412.7 669.9L414 704.9L415.3 781.2L416.7 778L418 853.2L419.3 833.2L420.7 868L422 668.8L423.3 692.4L424.7 735L426 794.8L427.3 777.1L428.7 852.6L430 832.6L431.3 865.7L432.7 692.8L434 688.8L435.3 706.2L436.7 791.1L438 780L439.3 852.3L440.7 811.1L442 852.8L443.3 669.3L444.7 713.2L446 749.7L447.3 819.9L448.7 779.8L450 858.9L451.3 832.2L452.7 867.9L454 700.1L455.3 701.8L456.7 713.8L458 769.2L459.3 739.6L460.7 864.6L462 808.9L463.3 866.9L464.7 663.3L466 678.1L467.3 730.6L468.7 807.3L470 786.5L471.3 852.6L472.7 810L474 862.4L475.3 684.9L476.7 695.6L478 747.8L479.3 809.6L480.7 760.3L482 851.4L483.3 826.2L484.7 865.3L486 696.3L487.3 691.4L488.7 761.3L490 768.7L491.3 777.9L492.7 866.1L494 815.4L495.3 852.8L496.7 709.7L498 720.3L499.3 759.2L500.7 792.8L502 749L503.3 852.2L504.7 810.7L506 867L507.3 708.1L508.7 724.2L510 751.8L511.3 798L512.7 788.3L514 866.8L515.3 832.2L516.7 865.3L518 681.3L519.3 712.6L520.7 764L522 792.2L523.3 747.4L524.7 865.9L526 832.2L527.3 866.9L528.7 691.1L530 698.2L531.3 776.4L532.7 797.5L534 752.7L535.3 853.1L536.7 832L538 864.9L539.3 704.4L540.7 702.5L542 722.9L543.3 775.9L544.7 732.4L546 849.4L547.3 808.5L548.7 866.2L550 690.9L551.3 728.7L552.7 765.8L554 817.7L555.3 761.9L556.7 865.9L558 832.1L559.3 867.3L560.7 670.5L562 679.4L563.3 771.7L564.7 788.2L566 774.2L567.3 852.5L568.7 810.5L570 853.1L571.3 685.2L572.7 710.6L574 744.7L575.3 817.9L576.7 782.2L578 852L579.3 829.7L580.7 853.4L582 704.3L583.3 687.1L584.7 713.2L586 785L587.3 772.8L588.7 852.3L590 824.6L591.3 855.7L592.7 653.7L594 681.7L595.3 754.2L596.7 780.9L598 771L599.3 848L600.7 818.8L602 864.1L603.3 681.5L604.7 681.3L606 729.7L607.3 807.7L608.7 736.6L610 847.2L611.3 827.7L612.7 866.9L614 690.9L615.3 734.7L616.7 740.8L618 802.7L619.3 785L620.7 867L622 832.5L623.3 853.5L624.7 707.9L626 713.6L627.3 753.8L628.7 812.9L630 774.4L631.3 852.7L632.7 810.4L634 853L635.3 669.8L636.7 711.5L638 729.9L639.3 791.7L640.7 785.8L642 853L643.3 832.9L644.7 853.8L646 697.8L647.3 677.7L648.7 719L650 800L651.3 743.1L652.7 852.9L654 827.2L655.3 866.8L656.7 705.1L658 730.1L659.3 748.7L660.7 819.4L662 754.3L663.3 848.6L664.7 809.7L666 853.3L667.3 703.5L668.7 664.7L670 693.8L671.3 776.6L672.7 741.8L674 852.8L675.3 831.4L676.7 866.5L678 704.2L679.3 679.2L680.7 739.8L682 807.3L683.3 777.9L684.7 852.7L686 810.4L687.3 861.5L688.7 687L690 663.4L691.3 751L692.7 812.9L694 780.8L695.3 853L696.7 809.9L698 847.5L699.3 663.7L700.7 694.9L702 759.4L703.3 815.9L704.7 757.3L706 859.2L707.3 804.9L708.7 850.9L710 679.9L711.3 669.5L712.7 700.3L714 793L715.3 770.9L716.7 852.8L718 811.9L719.3 867.1L720.7 703.3L722 700.7L723.3 759.6L724.7 812.3L726 784.9L727.3 866.9L728.7 810.6L730 853.7L731.3 670.9L732.7 680.4L734 762.3L735.3 792.3L736.7 748.4L738 853L739.3 821.9L740.7 859.7L742 698.8L743.3 731.1L744.7 740.7L746 795.2L747.3 786.5L748.7 862.5L750 830.5L751.3 867.6L752.7 699.8L754 683.1L755.3 718.8L756.7 787L758 761L759.3 863.2L760.7 808.3L762 866.1L763.3 672L764.7 738.6L766 752.7L767.3 790.6L768.7 783.9L770 866.2L771.3 832.6L772.7 864.9L774 695.2L775.3 666L776.7 727.5L778 789.6L779.3 779.4L780.7 867L782 810.8L783.3 866.8L784.7 681.8L786 693.5L787.3 753.1L788.7 791.8L790 784L791.3 860.7L792.7 827.3L794 864.6L795.3 697.5L796.7 703.7L798 715L799.3 812.4L800.7 750.9L802 857.3L803.3 831.9L804.7 867.5L806 700.2L807.3 726.8L808.7 735L810 797.6L811.3 780.5L812.7 864.9L814 810.5L815.3 867.1L816.7 707.5L818 689.6L819.3 730.7L820.7 805L822 741.1L823.3 865.2L824.7 809.5L826 852.6L827.3 686.4L828.7 726.3L830 783.3L831.3 802.1L832.7 790.7L834 852.4L835.3 833L836.7 866.7L838 707.8L839.3 714.2L840.7 774.6L842 817.2L843.3 780.8L844.7 866.9L846 809.1L847.3 866L848.7 672.1L850 716.6L851.3 739.8L852.7 821.2L854 786.7L855.3 847L856.7 830.6L858 858L859.3 709L860.7 716L862 742.7L863.3 814.2L864.7 737.3L866 863.4L867.3 828.9L868.7 866.5L870 675.8L871.3 706.3L872.7 774.6L874 796.2L875.3 778.8L876.7 866.3L878 832.3L879.3 853.2L880.7 684.6L882 672.1L883.3 733.3L884.7 811.1L886 760.5L887.3 863.6L888.7 832.7L890 853.2L891.3 682.7L892.7 702.9L894 765.2L895.3 794.7L896.7 756L898 852.7L899.3 810.7L900.7 853.4L902 674.1L903.3 667.5L904.7 764.8L906 792L907.3 746.2L908.7 866.7L910 823.4L911.3 865.5L912.7 707L914 697L915.3 734.3L916.7 786.8L918 777.6L919.3 848.9L920.7 810L922 867.1L923.3 701.9L924.7 669.3L926 732.4L927.3 782L928.7 749.2L930 854.8L931.3 813.9L932.7 867.3L934 668.6L935.3 712.4L936.7 731L938 815.3L939.3 784.3L940.7 866.5L942 809.6L943.3 867.4L944.7 702.3L946 662.7L947.3 696.8L948.7 778.3L950 769.4L951.3 851.3L952.7 831.3L954 867L955.3 665.3L956.7 705.4L958 765.3L959.3 785.9L960.7 754.8L962 852.8L963.3 827.1L964.7 865L966 701.5L967.3 701.3L968.7 726.2L970 789.8L971.3 738.8L972.7 863L974 830.7L975.3 866.4L976.7 702.7L978 726.5L979.3 746.1L980.7 813.9L982 770L983.3 852L984.7 831.8L986 867.6L987.3 708.9L988.7 714.8L990 769.2L991.3 786.4L992.7 779.3L994 853L995.3 833.1L996.7 868L998 671.8L999.3 689.6L1000.7 737.1L1002 794.6L1003.3 786.6L1004.7 852.8L1006 811L1007.3 867.1L1008.7 645.1L1010 665.4L1011.3 709.1L1012.7 798.4L1014 778.2L1015.3 866.6L1016.7 832L1018 863.8L1019.3 699.1L1020.7 736.5L1022 750.7L1023.3 818.2L1024.7 754.3L1026 862.3L1027.3 808.9L1028.7 867.4L1030 701.2L1031.3 678.5L1032.7 768.4L1034 803L1035.3 755.2L1036.7 848.9L1038 829.3L1039.3 864.9L1040.7 692.8L1042 699.6L1043.3 742L1044.7 790.3L1046 771.4L1047.3 865.2L1048.7 830.3L1050 866.8L1051.3 673.5L1052.7 690.4L1054 589.5L1055.3 697.6L1056.7 700.6L1058 841.6L1059.3 806.1L1060.7 825.4L1062 634.3L1063.3 648.5L1064.7 657.5L1066 703.3L1067.3 651.2L1068.7 835.8L1070 818.1L1071.3 859.9L1072.7 658.3L1074 673.7L1075.3 541.5L1076.7 670.3L1078 712L1079.3 853.4L1080.7 819.7L1082 860.6L1083.3 646.7L1084.7 710.2L1086 752.3L1087.3 795L1088.7 770.3L1090 866.4L1091.3 823.5L1092.7 858.8L1094 679.1L1095.3 694.8L1096.7 712.5L1098 793.4L1099.3 748.5L1100.7 859.2L1102 824.4L1103.3 862.9L1104.7 680.5L1106 719.5L1107.3 734.5L1108.7 788.7L1110 760.9L1111.3 858.7L1112.7 825.9L1114 864.3L1115.3 684.3L1116.7 681.2L1118 726.2L1119.3 786.6L1120.7 727.4L1122 861.6L1123.3 790.6L1124.7 859L1126 680.5L1127.3 717L1128.7 759.5L1130 804.2L1131.3 714.4L1132.7 832.4L1134 801.5L1135.3 861.2L1136.7 693.8L1138 698.3L1139.3 721.3L1140.7 785.4L1142 731.3L1143.3 851L1144.7 831.1L1146 867.2L1147.3 700.6L1148.7 690.6L1150 730.1L1151.3 818.1L1152.7 785.8L1154 851.6L1155.3 830.5L1156.7 867L1158 658.4L1159.3 654.2L1160.7 761.1L1162 813.6L1163.3 779L1164.7 863.6L1166 831.6L1167.3 866.9L1168.7 703L1170 730.4L1171.3 754.5L1172.7 815.8L1174 784.9L1175.3 852.6L1176.7 816.1L1178 837.6L1179.3 704.7L1180.7 683.1L1182 738.7L1183.3 776.2L1184.7 772.3L1186 861.3L1187.3 805.8L1188.7 865.2L1190 693.8L1191.3 695.7L1192.7 763.5L1194 781.7L1195.3 771.5L1196.7 864.1L1198 830.9L1199.3 852L1200.7 685.3L1202 698.4L1203.3 709L1204.7 804.4L1206 769.2L1207.3 866.5L1208.7 831.8L1210 867.1L1211.3 692.6L1212.7 709.4L1214 752.4L1215.3 801.7L1216.7 768.7L1218 864.2L1219.3 830.1L1220.7 866L1222 675.6L1223.3 697.2L1224.7 734.9L1226 778.4L1227.3 757.7L1228.7 864.5L1230 830.6L1231.3 852.2L1232.7 693.2L1234 710.7L1235.3 730.5L1236.7 804.4L1238 746.8L1239.3 848L1240.7 806.2L1242 866.6L1243.3 674.6L1244.7 667.4L1246 738.2L1247.3 801.7L1248.7 773.1L1250 865.2L1251.3 821L1252.7 866.5L1254 693.5L1255.3 721.4L1256.7 727.1L1258 763L1259.3 766.7L1260.7 862.7L1262 829.5L1263.3 851.7L1264.7 699.3L1266 652.7L1267.3 728.3L1268.7 786.7L1270 764.4L1271.3 865.1L1272.7 830.9L1274 866.5L1275.3 658.8L1276.7 717.3L1278 758.4L1279.3 803.9L1280.7 778.3L1282 864.6L1283.3 829.7L1284.7 857.5L1286 688.6L1287.3 659.4L1288.7 709.4L1290 772.7L1291.3 760.2L1292.7 851.7L1294 830.7L1295.3 867L1296.7 703L1298 722.7L1299.3 753.9L1300.7 793.4L1302 757L1303.3 847.1L1304.7 830.8L1306 866.8L1307.3 700.8L1308.7 662.6L1310 731.2L1311.3 766.4L1312.7 725.1L1314 866.3L1315.3 831.5L1316.7 867L1318 686.9L1319.3 714L1320.7 774.1L1322 802.7L1323.3 783.4L1324.7 865L1326 831.7L1327.3 866L1328.7 692.3L1330 704.9L1331.3 726.1L1332.7 784.9L1334 737.2L1335.3 863L1336.7 804.8L1338 864.4L1339.3 699.1L1340.7 698.1L1342 750.3L1343.3 783.9L1344.7 741L1346 865.7L1347.3 831.1L1348.7 866.8L1350 705.3L1351.3 679.4L1352.7 726.1L1354 798.5L1355.3 752.8L1356.7 856.8L1358 831.3L1359.3 866.5L1360.7 697.3L1362 683.4L1363.3 744.9L1364.7 811.7L1366 782.7L1367.3 863L1368.7 810.1L1370 853.7L1371.3 663.1L1372.7 696.4L1374 716.8L1375.3 797.3L1376.7 766.5L1378 858.4L1379.3 820.9L1380.7 864.7L1382 664.6L1383.3 721.9L1384.7 757L1386 811.9L1387.3 762.4L1388.7 857.2L1390 825.5L1391.3 865.1L1392.7 671.2L1394 669.9L1395.3 753L1396.7 776.4L1398 771.6L1399.3 866.9L1400.7 832.5L1402 866.7L1403.3 699.3L1404.7 725.6L1406 746.4L1407.3 813.6L1408.7 786.9L1410 852.9L1411.3 833L1412.7 867.9L1414 666.5L1415.3 712.6L1416.7 762.3L1418 813.1L1419.3 780.2L1420.7 866.7L1422 808L1423.3 864.3L1424.7 674.7L1426 696L1427.3 760.3L1428.7 806.8L1430 779.6L1431.3 862.8L1432.7 830.2L1434 864.8L1435.3 691.2L1436.7 671.8L1438 757L1439.3 800.4L1440.7 766L1442 865L1443.3 809.6L1444.7 867.2L1446 668.9L1447.3 687.8L1448.7 748.8L1450 786.4L1451.3 778L1452.7 864.2L1454 831.1L1455.3 867.1L1456.7 694.9L1458 696.1L1459.3 743.7L1460.7 777.9L1462 745.8L1463.3 866.8L1464.7 799.1L1466 857.6L1467.3 704.8L1468.7 727.4L1470 767.5L1471.3 797.3L1472.7 758.8L1474 865.6L1475.3 831.4L1476.7 866.6L1478 705.5L1479.3 669.6L1480.7 720L1482 793.6L1483.3 757.3L1484.7 864L1486 806.4L1487.3 866.7L1488.7 707.6L1490 718.7L1491.3 739L1492.7 806.5L1494 780.4L1495.3 851.3L1496.7 809.4L1498 866.2L1499.3 705.5L1500.7 679.5L1502 716.3L1503.3 767.2L1504.7 763.8L1506 850.2L1507.3 831.2L1508.7 866.8L1510 704.1L1511.3 685.5L1512.7 776.6L1514 815.4L1515.3 782.6L1516.7 866.2L1518 830.2L1519.3 841.1L1520.7 691L1522 700.6L1523.3 748.7L1524.7 799.8L1526 758.4L1527.3 866.7L1528.7 831.8L1530 863.3L1531.3 699.4L1532.7 699.4L1534 756.5L1535.3 803.1L1536.7 781.9L1538 862.5L1539.3 830L1540.7 865.4L1542 674.3L1543.3 692L1544.7 750.3L1546 809.1L1547.3 773.6L1548.7 863.8L1550 823L1551.3 866.3L1552.7 706.2L1554 738.7L1555.3 751.2L1556.7 782L1558 780.8L1559.3 867.1L1560.7 832.7L1562 867.4L1563.3 711.2L1564.7 716.5L1566 738.2L1567.3 813.3L1568.7 745.7L1570 861.6L1571.3 810.1L1572.7 852.2L1574 704.9L1575.3 715.6L1576.7 757.3L1578 817.6L1579.3 786.3L1580.7 852.6L1582 810.1L1583.3 867L1584.7 691.7L1586 687.8L1587.3 734.9L1588.7 808.8L1590 770.2L1591.3 859L1592.7 814.5L1594 865.4L1595.3 667.7L1596.7 696.7L1598 735.7L1599.3 819.5L1600.7 784.3L1602 850.2L1603.3 824.4L1604.7 864.2L1606 695.3L1607.3 683.9L1608.7 716.3L1610 794.5L1611.3 762.6L1612.7 865.9L1614 832.9L1615.3 867.3L1616.7 683.1L1618 697.2L1619.3 724.9L1620.7 797.1L1622 754.2L1623.3 867.2L1624.7 832.7L1626 867.2L1627.3 703.7L1628.7 685.8L1630 727.5L1631.3 789.6L1632.7 747.8L1634 852.7L1635.3 831.9L1636.7 867L1638 695.1L1639.3 702.2L1640.7 732.7L1642 798.1L1643.3 780.6L1644.7 853L1646 808.7L1647.3 866.6L1648.7 668.1L1650 670.7L1651.3 719.1L1652.7 775.1L1654 738L1655.3 846.8L1656.7 809.4L1658 867.4L1659.3 683.9L1660.7 713.4L1662 780.7L1663.3 814.4L1664.7 786.3L1666 854.7L1667.3 824.9L1668.7 866.7L1670 698.8L1671.3 680.1L1672.7 731.1L1674 769L1675.3 762.6L1676.7 863.9L1678 831.1L1679.3 852.3L1680.7 658.9L1682 720L1683.3 735.3L1684.7 804.7L1686 776.5L1687.3 865.3L1688.7 785L1690 862L1691.3 697.7L1692.7 700.9L1694 742.6L1695.3 787.8L1696.7 764.3L1698 848.9L1699.3 809L1700.7 866L1702 668.8L1703.3 723.2L1704.7 722.2L1706 797.7L1707.3 782.9L1708.7 867.4L1710 830.8L1711.3 868.1L1712.7 675.9L1714 680.2L1715.3 737.8L1716.7 803.3L1718 747.1L1719.3 853.5L1720.7 828.8L1722 867.3L1723.3 651L1724.7 708L1726 769.3L1727.3 794.8L1728.7 786.3L1730 867.5L1731.3 780.1L1732.7 854L1734 690.3L1735.3 678.3L1736.7 735.1L1738 804L1739.3 740.5L1740.7 851.1L1742 827.9L1743.3 866.6L1744.7 664L1746 710.1L1747.3 731.7L1748.7 799.1L1750 773.6L1751.3 864.5L1752.7 817.3L1754 867.1L1755.3 696L1756.7 702.9L1758 733.8L1759.3 787.4L1760.7 745.8L1762 851.3L1763.3 828.8L1764.7 865.1L1766 693.6L1767.3 711.1L1768.7 766.5L1770 818.4L1771.3 755.9L1772.7 866.7L1774 830.5L1775.3 862.7L1776.7 700.4L1778 683.2L1779.3 709.2L1780.7 780.8L1782 774.4L1783.3 864.8L1784.7 832.2L1786 852.7L1787.3 672.4L1788.7 696.8L1790 761.2L1791.3 815.3L1792.7 773.9L1794 849.4L1795.3 810.9L1796.7 867.3L1798 690.1L1799.3 669.6" fill="transparent" stroke="#626c91" stroke-width="3" stroke-linejoin="bevel" class="zr30-cls-92"></path>
</g>
<path d="M-233.1 -5l466.3 0l0 28l-466.3 0Z" transform="translate(1000 5)" fill="rgb(0,0,0)" fill-opacity="0" stroke="#ccc" stroke-width="0" class="zr30-cls-90"></path>
<text dominant-baseline="central" text-anchor="middle" style="font-size:18px;font-family:sans-serif;font-weight:bold;" xml:space="preserve" y="9" transform="translate(1000 5)" fill="#666666">entityUpdate per Tick for bench_4_every_240_staggered</text>
<defs >
<clipPath id="zr30-c0">
<path d="M198 58.5l16004 0l0 8703l-16004 0Z" fill="#000" class="zr30-cls-91"></path>
</clipPath>
<clipPath id="zr30-c1">
<path d="M198 58.5l16004 0l0 8703l-16004 0Z" fill="#000" class="zr30-cls-91"></path>
</clipPath>
<clipPath id="zr30-c2">
<path d="M198 58.5l16004 0l0 8703l-16004 0Z" fill="#000" class="zr30-cls-91"></path>
</clipPath>
</defs>
<style ><![CDATA[
.zr30-cls-90:hover {
pointer-events:none;
}
.zr30-cls-91:hover {
cursor:pointer;
fill:rgba(0,0,0,1);
}
.zr30-cls-92:hover {
cursor:pointer;
}

]]>

</style>
</svg>