<svg width="2000" height="1000" xmlns="http://www.w3.org/2000/svg" xmlns:xlink="http://www.w3.org/1999/xlink" version="1.1" baseProfile="full" viewBox="0 0 2000 1000">
<rect width="2000" height="1000" x="0" y="0" fill="rgb(252,252,252)" fill-opacity="0"></rect>
<path d="M200 930.5L1800 930.5" fill="transparent" stroke="#eeeeee" class="zr32-cls-96"></path>
<path d="M200 772.5L1800 772.5" fill="transparent" stroke="#eeeeee" class="zr32-cls-96"></path>
<path d="M200 614.5L1800 614.5" fill="transparent" stroke="#eeeeee" class="zr32-cls-96"></path>
<path d="M200 457.5L1800 457.5" fill="transparent" stroke="#eeeeee" class="zr32-cls-96"></path>
<path d="M200 299.5L1800 299.5" fill="transparent" stroke="#eeeeee" class="zr32-cls-96"></path>
<path d="M200 141.5L1800 141.5" fill="transparent" stroke="#eeeeee" class="zr32-cls-96"></path>
<path d="M200 60.5L1800 60.5" fill="transparent" stroke="#eeeeee" class="zr32-cls-96"></path>
<path d="M200.5 930L200.5 60" fill="transparent" stroke="#cccccc" stroke-linecap="round" class="zr32-cls-96"></path>
<text dominant-baseline="central" text-anchor="middle" style="font-size:12px;font-family:sans-serif;" xml:space="preserve" y="-6" transform="translate(200 45)" fill="#cccccc">wholeUpdate Time (ms)</text>
<path d="M200 930.5L1800 930.5" fill="transparent" stroke="#cccccc" stroke-linecap="round" class="zr32-cls-96"></path>
<text dominant-baseline="central" text-anchor="end" style="font-size:12px;font-family:sans-serif;" transform="translate(192 930)" fill="#999999">0.000</text>
<text dominant-baseline="central" text-anchor="end" style="font-size:12px;font-family:sans-serif;" transform="translate(192 772.2886)" fill="#999999">1.000</text>
<text dominant-baseline="central" text-anchor="end" style="font-size:12px;font-family:sans-serif;" transform="translate(192 614.5773)" fill="#999999">2.000</text>
<text dominant-baseline="central" text-anchor="end" style="font-size:12px;font-family:sans-serif;" transform="translate(192 456.8659)" fill="#999999">3.000</text>
<text dominant-baseline="central" text-anchor="end" style="font-size:12px;font-family:sans-serif;" transform="translate(192 299.1546)" fill="#999999">4.000</text>
<text dominant-baseline="central" text-anchor="end" style="font-size:12px;font-family:sans-serif;" transform="translate(192 141.4432)" fill="#999999">5.000</text>
<text dominant-baseline="central" text-anchor="end" style="font-size:12px;font-family:sans-serif;" transform="translate(192 60)" fill="#999999">5.516</text>
<text dominant-baseline="central" text-anchor="middle" style="font-size:12px;font-family:sans-serif;" y="6" transform="translate(200.6667 938)" fill="#999999">0</text>
<text dominant-baseline="central" text-anchor="middle" style="font-size:12px;font-family:sans-serif;" y="6" transform="translate(236.6667 938)" fill="#999999">27</text>
<text dominant-baseline="central" text-anchor="middle" style="font-size:12px;font-family:sans-serif;" y="6" transform="translate(272.6667 938)" fill="#999999">54</text>
<text dominant-baseline="central" text-anchor="middle" style="font-size:12px;font-family:sans-serif;" y="6" transform="translate(308.6667 938)" fill="#999999">81</text>
<text dominant-baseline="central" text-anchor="middle" style="font-size:12px;font-family:sans-serif;" y="6" transform="translate(344.6667 938)" fill="#999999">108</text>
<text dominant-baseline="central" text-anchor="middle" style="font-size:12px;font-family:sans-serif;" y="6" transform="translate(380.6667 938)" fill="#999999">135</text>
<text dominant-baseline="central" text-anchor="middle" style="font-size:12px;font-family:sans-serif;" y="6" transform="translate(416.6667 938)" fill="#999999">162</text>
<text dominant-baseline="central" text-anchor="middle" style="font-size:12px;font-family:sans-serif;" y="6" transform="translate(452.6667 938)" fill="#999999">189</text>
<text dominant-baseline="central" text-anchor="middle" style="font-size:12px;font-family:sans-serif;" y="6" transform="translate(488.6667 938)" fill="#999999">216</text>
<text dominant-baseline="central" text-anchor="middle" style="font-size:12px;font-family:sans-serif;" y="6" transform="translate(524.6667 938)" fill="#999999">243</text>
<text dominant-baseline="central" text-anchor="middle" style="font-size:12px;font-family:sans-serif;" y="6" transform="translate(560.6667 938)" fill="#999999">270</text>
<text dominant-baseline="central" text-anchor="middle" style="font-size:12px;font-family:sans-serif;" y="6" transform="translate(596.6667 938)" fill="#999999">297</text>
<text dominant-baseline="central" text-anchor="middle" style="font-size:12px;font-family:sans-serif;" y="6" transform="translate(632.6667 938)" fill="#999999">324</text>
<text dominant-baseline="central" text-anchor="middle" style="font-size:12px;font-family:sans-serif;" y="6" transform="translate(668.6667 938)" fill="#999999">351</text>
<text dominant-baseline="central" text-anchor="middle" style="font-size:12px;font-family:sans-serif;" y="6" transform="translate(704.6667 938)" fill="#999999">378</text>
<text dominant-baseline="central" text-anchor="middle" style="font-size:12px;font-family:sans-serif;" y="6" transform="translate(740.6667 938)" fill="#999999">405</text>
<text dominant-baseline="central" text-anchor="middle" style="font-size:12px;font-family:sans-serif;" y="6" transform="translate(776.6667 938)" fill="#999999">432</text>
<text dominant-baseline="central" text-anchor="middle" style="font-size:12px;font-family:sans-serif;" y="6" transform="translate(812.6667 938)" fill="#999999">459</text>
<text dominant-baseline="central" text-anchor="middle" style="font-size:12px;font-family:sans-serif;" y="6" transform="translate(848.6667 938)" fill="#999999">486</text>
<text dominant-baseline="central" text-anchor="middle" style="font-size:12px;font-family:sans-serif;" y="6" transform="translate(884.6667 938)" fill="#999999">513</text>
<text dominant-baseline="central" text-anchor="middle" style="font-size:12px;font-family:sans-serif;" y="6" transform="translate(920.6667 938)" fill="#999999">540</text>
<text dominant-baseline="central" text-anchor="middle" style="font-size:12px;font-family:sans-serif;" y="6" transform="translate(956.6667 938)" fill="#999999">567</text>
<text dominant-baseline="central" text-anchor="middle" style="font-size:12px;font-family:sans-serif;" y="6" transform="translate(992.6667 938)" fill="#999999">594</text>
<text dominant-baseline="central" text-anchor="middle" style="font-size:12px;font-family:sans-serif;" y="6" transform="translate(1028.6667 938)" fill="#999999">621</text>
<text dominant-baseline="central" text-anchor="middle" style="font-size:12px;font-family:sans-serif;" y="6" transform="translate(1064.6667 938)" fill="#999999">648</text>
<text dominant-baseline="central" text-anchor="middle" style="font-size:12px;font-family:sans-serif;" y="6" transform="translate(1100.6667 938)" fill="#999999">675</text>
<text dominant-baseline="central" text-anchor="middle" style="font-size:12px;font-family:sans-serif;" y="6" transform="translate(1136.6667 938)" fill="#999999">702</text>
<text dominant-baseline="central" text-anchor="middle" style="font-size:12px;font-family:sans-serif;" y="6" transform="translate(1172.6667 938)" fill="#999999">729</text>
<text dominant-baseline="central" text-anchor="middle" style="font-size:12px;font-family:sans-serif;" y="6" transform="translate(1208.6667 938)" fill="#999999">756</text>
<text dominant-baseline="central" text-anchor="middle" style="font-size:12px;font-family:sans-serif;" y="6" transform="translate(1244.6667 938)" fill="#999999">783</text>
<text dominant-baseline="central" text-anchor="middle" style="font-size:12px;font-family:sans-serif;" y="6" transform="translate(1280.6667 938)" fill="#999999">810</text>
<text dominant-baseline="central" text-anchor="middle" style="font-size:12px;font-family:sans-serif;" y="6" transform="translate(1316.6667 938)" fill="#999999">837</text>
<text dominant-baseline="central" text-anchor="middle" style="font-size:12px;font-family:sans-serif;" y="6" transform="translate(1352.6667 938)" fill="#999999">864</text>
<text dominant-baseline="central" text-anchor="middle" style="font-size:12px;font-family:sans-serif;" y="6" transform="translate(1388.6667 938)" fill="#999999">891</text>
<text dominant-baseline="central" text-anchor="middle" style="font-size:12px;font-family:sans-serif;" y="6" transform="translate(1424.6667 938)" fill="#999999">918</text>
<text dominant-baseline="central" text-anchor="middle" style="font-size:12px;font-family:sans-serif;" y="6" transform="translate(1460.6667 938)" fill="#999999">945</text>
<text dominant-baseline="central" text-anchor="middle" style="font-size:12px;font-family:sans-serif;" y="6" transform="translate(1496.6667 938)" fill="#999999">972</text>
<text dominant-baseline="central" text-anchor="middle" style="font-size:12px;font-family:sans-serif;" y="6" transform="translate(1532.6667 938)" fill="#999999">999</text>
<text dominant-baseline="central" text-anchor="middle" style="font-size:12px;font-family:sans-serif;" y="6" transform="translate(1568.6667 938)" fill="#999999">1026</text>
<text dominant-baseline="central" text-anchor="middle" style="font-size:12px;font-family:sans-serif;" y="6" transform="translate(1604.6667 938)" fill="#999999">1053</text>
<text dominant-baseline="central" text-anchor="middle" style="font-size:12px;font-family:sans-serif;" y="6" transform="translate(1640.6667 938)" fill="#999999">1080</text>
<text dominant-baseline="central" text-anchor="middle" style="font-size:12px;font-family:sans-serif;" y="6" transform="translate(1676.6667 938)" fill="#999999">1107</text>
<text dominant-baseline="central" text-anchor="middle" style="font-size:12px;font-family:sans-serif;" y="6" transform="translate(1712.6667 938)" fill="#999999">1134</text>
<text dominant-baseline="central" text-anchor="middle" style="font-size:12px;font-family:sans-serif;" y="6" transform="translate(1748.6667 938)" fill="#999999">1161</text>
<text dominant-baseline="central" text-anchor="middle" style="font-size:12px;font-family:sans-serif;" y="6" transform="translate(1784.6667 938)" fill="#999999">1188</text>
<g clip-path="url(#zr32-c0)">
<path d="M200.7 600.1L202 731.4L203.3 821.4L204.7 750L206 824L207.3 774.1L208.7 823.9L210 787.8L211.3 814.1L212.7 778L214 813.4L215.3 798.6L216.7 821.3L218 -180.7L219.3 -1979.5L220.7 293.9L222 771.7L223.3 743.2L224.7 815.4L226 763.4L227.3 789.7L228.7 742.2L230 797.2L231.3 779.4L232.7 821.2L234 784.1L235.3 825.5L236.7 752.9L238 822.8L239.3 776L240.7 777.2L242 771.6L243.3 819.9L244.7 785.3L246 821.4L247.3 788L248.7 809.9L250 793.8L251.3 827.5L252.7 772.1L254 799.1L255.3 780.5L256.7 824.6L258 792.8L259.3 828.4L260.7 768.8L262 809.5L263.3 789.7L264.7 827.1L266 796.8L267.3 815.3L268.7 768.5L270 827.9L271.3 795.7L272.7 828.9L274 794.8L275.3 827.3L276.7 797.6L278 824.8L279.3 778.4L280.7 783.3L282 790.3L283.3 823.3L284.7 769.4L286 831.4L287.3 799.4L288.7 826.2L290 798.8L291.3 824.8L292.7 798.8L294 828.1L295.3 766.4L296.7 812L298 -31.5L299.3 -1990.1L300.7 404L302 573.5L303.3 583L304.7 -3551.2L306 -1502.6L307.3 229L308.7 347.3L310 506.4L311.3 723L312.7 797.3L314 776.5L315.3 804.1L316.7 711.3L318 814.7L319.3 791.4L320.7 826.4L322 782.8L323.3 828.6L324.7 790.8L326 819.7L327.3 755.2L328.7 808.1L330 781.8L331.3 825.5L332.7 792.6L334 825.7L335.3 793.1L336.7 825.4L338 772L339.3 817.8L340.7 787.3L342 791.7L343.3 764.8L344.7 818.8L346 794.8L347.3 803.5L348.7 784.6L350 808L351.3 787.9L352.7 826.7L354 796.7L355.3 809.9L356.7 790.8L358 823.7L359.3 793.6L360.7 828.2L362 800.3L363.3 830.9L364.7 796.9L366 827.1L367.3 775.1L368.7 792.1L370 793.3L371.3 816.4L372.7 800.9L374 824.1L375.3 780.1L376.7 832.8L378 -41.4L379.3 -1958.4L380.7 364.7L382 728.9L383.3 722.6L384.7 805.1L386 749.7L387.3 821.5L388.7 768.4L390 816.7L391.3 772.6L392.7 783.8L394 761.2L395.3 807.8L396.7 769.6L398 811.3L399.3 772.3L400.7 825.6L402 786.6L403.3 823.2L404.7 790.4L406 793.3L407.3 767.6L408.7 818.9L410 789.6L411.3 824L412.7 792.8L414 826.7L415.3 791.6L416.7 828.8L418 795.5L419.3 827.5L420.7 777.1L422 812.4L423.3 789.4L424.7 819L426 795L427.3 827.8L428.7 779.4L430 830.3L431.3 798.3L432.7 828.5L434 778.3L435.3 815.8L436.7 772.1L438 823.8L439.3 792.5L440.7 829.2L442 801.4L443.3 831L444.7 777.1L446 833.5L447.3 787.6L448.7 820.6L450 787.6L451.3 830.6L452.7 796.1L454 810.2L455.3 794.2L456.7 824.6L458 -46.7L459.3 -2057.9L460.7 351.7L462 747L463.3 757.7L464.7 803.2L466 763.1L467.3 823.2L468.7 770.9L470 809.8L471.3 788.2L472.7 789.6L474 760.4L475.3 819.6L476.7 770.5L478 824.3L479.3 776.5L480.7 822.4L482 788.9L483.3 824.6L484.7 786.4L486 804.7L487.3 770.5L488.7 818.5L490 790L491.3 828.9L492.7 783.4L494 824.1L495.3 791.2L496.7 809.9L498 792.9L499.3 808.5L500.7 778L502 818.2L503.3 787.3L504.7 821.4L506 784.5L507.3 827.9L508.7 790.2L510 830.6L511.3 795.6L512.7 814.5L514 788.7L515.3 815.1L516.7 791.5L518 813.5L519.3 792.8L520.7 824.3L522 798L523.3 820.2L524.7 796.3L526 831.1L527.3 783.3L528.7 808.7L530 791.5L531.3 818.4L532.7 801.4L534 830.4L535.3 779.4L536.7 822L538 -25.1L539.3 -1971.6L540.7 328.2L542 753.8L543.3 752.9L544.7 790.8L546 747.8L547.3 810.3L548.7 764.7L550 809.8L551.3 778.3L552.7 799.4L554 775L555.3 822.6L556.7 770.9L558 822.5L559.3 793.7L560.7 822.9L562 775.9L563.3 814.7L564.7 775.1L566 806.3L567.3 781.7L568.7 815.8L570 773.8L571.3 820.9L572.7 791.7L574 827.4L575.3 788L576.7 827.4L578 780.9L579.3 819.9L580.7 787.8L582 808.5L583.3 787.4L584.7 822.3L586 797.4L587.3 825.3L588.7 789.4L590 815.2L591.3 789.9L592.7 806.7L594 790.8L595.3 828.4L596.7 796.6L598 824.9L599.3 791.9L600.7 828.2L602 802.1L603.3 830.2L604.7 793.5L606 825.2L607.3 764.2L608.7 805.5L610 796.1L611.3 828.9L612.7 796.6L614 825.9L615.3 803.5L616.7 824L618 -36.7L619.3 -1918.5L620.7 406.3L622 516.5L623.3 522.5L624.7 -3778.7L626 -1476.7L627.3 199.8L628.7 378.9L630 512.2L631.3 724.8L632.7 815.6L634 779.5L635.3 818L636.7 769.1L638 813.5L639.3 785.9L640.7 823.8L642 776L643.3 819.9L644.7 773L646 820.1L647.3 790.6L648.7 821L650 760.3L651.3 815.7L652.7 785.2L654 819.9L655.3 787.9L656.7 827.1L658 778.9L659.3 826.6L660.7 794.2L662 824.4L663.3 791.4L664.7 830.3L666 793.3L667.3 822.8L668.7 788.3L670 829.3L671.3 797.2L672.7 830.9L674 777.9L675.3 831.5L676.7 788.4L678 823.8L679.3 793.3L680.7 823.1L682 796.3L683.3 827.5L684.7 798.4L686 829.8L687.3 789.4L688.7 814L690 801.4L691.3 819.3L692.7 787.9L694 807.6L695.3 788.3L696.7 827.3L698 -2.6L699.3 -1961.7L700.7 350.9L702 775.4L703.3 744.7L704.7 805.7L706 759.7L707.3 805.9L708.7 754.8L710 812.3L711.3 760L712.7 823.1L714 770L715.3 809.9L716.7 753.6L718 824.8L719.3 752L720.7 808.4L722 781.8L723.3 824.2L724.7 788.4L726 813.9L727.3 782.6L728.7 822.7L730 770.3L731.3 785.6L732.7 763.3L734 818.3L735.3 770.5L736.7 825.5L738 792.5L739.3 830.7L740.7 783.5L742 809.1L743.3 791.2L744.7 805.2L746 771.9L747.3 818.3L748.7 785L750 819.2L751.3 793.2L752.7 829L754 796.8L755.3 827L756.7 797.7L758 824L759.3 777.5L760.7 812.2L762 796.2L763.3 827.3L764.7 796.2L766 825L767.3 800L768.7 824.2L770 800.5L771.3 820.6L772.7 801.3L774 800.9L775.3 795.5L776.7 832.8L778 -10.4L779.3 -1947L780.7 333.2L782 775.2L783.3 760.2L784.7 798.9L786 723.1L787.3 793.5L788.7 766.5L790 813.5L791.3 783.8L792.7 823.5L794 785.2L795.3 823.8L796.7 760.8L798 821.4L799.3 780.8L800.7 813.4L802 786.2L803.3 823.9L804.7 790.2L806 817.8L807.3 792.7L808.7 822.8L810 791.6L811.3 819.7L812.7 787.1L814 823.2L815.3 769.3L816.7 829.3L818 792.2L819.3 826.8L820.7 789.4L822 822L823.3 792.3L824.7 830L826 775.3L827.3 819.7L828.7 786.5L830 816L831.3 781.8L832.7 827.1L834 779.1L835.3 831.5L836.7 787.5L838 823.3L839.3 778.9L840.7 822.6L842 754.4L843.3 800.3L844.7 794.9L846 816.3L847.3 798L848.7 822.5L850 777.9L851.3 815L852.7 780.3L854 814L855.3 778.9L856.7 831.9L858 -14L859.3 -1969.4L860.7 359L862 775.3L863.3 749.1L864.7 799.3L866 747.8L867.3 817.9L868.7 762.2L870 809.2L871.3 784.3L872.7 824.3L874 787.7L875.3 827L876.7 778.3L878 811.4L879.3 777.4L880.7 821.9L882 780.1L883.3 826L884.7 788.6L886 805L887.3 788.9L888.7 820.3L890 793.9L891.3 809.1L892.7 765.9L894 815.5L895.3 790.4L896.7 828.2L898 793.5L899.3 825.7L900.7 784.5L902 822.7L903.3 791L904.7 825.7L906 749.4L907.3 824L908.7 786.3L910 827.2L911.3 788.3L912.7 828L914 795.3L915.3 828.9L916.7 793.9L918 827.9L919.3 786.6L920.7 801.4L922 787.9L923.3 826.5L924.7 795.1L926 830.8L927.3 782.7L928.7 824.7L930 799.9L931.3 818.4L932.7 792L934 793.2L935.3 787.6L936.7 827.4L938 -55.4L939.3 -1960.7L940.7 375.7L942 514.2L943.3 498.2L944.7 -3520.6L946 -1420.4L947.3 229.1L948.7 370L950 552.9L951.3 729.3L952.7 812.8L954 747.2L955.3 796.1L956.7 740.2L958 817.4L959.3 793.6L960.7 819.8L962 773.9L963.3 814.6L964.7 783.5L966 791.4L967.3 755.2L968.7 807.7L970 790.6L971.3 817L972.7 773L974 826.7L975.3 789L976.7 829L978 794.8L979.3 807.2L980.7 779.6L982 819.9L983.3 791L984.7 819.9L986 800.8L987.3 828.3L988.7 791.7L990 829.7L991.3 795.6L992.7 832.4L994 781.5L995.3 825.1L996.7 788.9L998 826.7L999.3 793.8L1000.7 828.3L1002 792.6L1003.3 815.5L1004.7 779.5L1006 831.2L1007.3 798L1008.7 797.1L1010 792.4L1011.3 831.1L1012.7 800.4L1014 825.5L1015.3 793.3L1016.7 815.7L1018 -74.3L1019.3 -2043.4L1020.7 324.2L1022 763.2L1023.3 761.5L1024.7 812.2L1026 750L1027.3 802.2L1028.7 750.2L1030 811.5L1031.3 756.1L1032.7 819.4L1034 776.8L1035.3 822.9L1036.7 776.9L1038 825L1039.3 774.5L1040.7 823.6L1042 785.2L1043.3 823.3L1044.7 756.7L1046 800.1L1047.3 783.1L1048.7 819.1L1050 789.5L1051.3 825.5L1052.7 787.8L1054 813.9L1055.3 788.9L1056.7 821.7L1058 782.1L1059.3 818.2L1060.7 787.7L1062 814.1L1063.3 790.5L1064.7 824.7L1066 799L1067.3 827.8L1068.7 782.7L1070 808.9L1071.3 771L1072.7 818.2L1074 773.7L1075.3 827L1076.7 791.6L1078 823.8L1079.3 791.6L1080.7 827.1L1082 779.7L1083.3 822.3L1084.7 798.4L1086 813.2L1087.3 791L1088.7 825.9L1090 799.7L1091.3 832.6L1092.7 784.1L1094 828.7L1095.3 801L1096.7 830.7L1098 -13L1099.3 -1876.4L1100.7 351.4L1102 759.4L1103.3 750.7L1104.7 796L1106 772.7L1107.3 809.9L1108.7 771.3L1110 818.1L1111.3 764L1112.7 776.4L1114 756.3L1115.3 823L1116.7 776.4L1118 826.1L1119.3 780L1120.7 824.7L1122 786.5L1123.3 823.6L1124.7 788.9L1126 795.6L1127.3 745.4L1128.7 814.2L1130 782.5L1131.3 825.9L1132.7 790.2L1134 826.7L1135.3 791.7L1136.7 827.9L1138 784.1L1139.3 793.4L1140.7 771.2L1142 813.9L1143.3 767.7L1144.7 815.2L1146 788.1L1147.3 827.3L1148.7 790.4L1150 818.4L1151.3 794.4L1152.7 812.1L1154 779.6L1155.3 827L1156.7 796.5L1158 822.4L1159.3 781.5L1160.7 829.9L1162 799.1L1163.3 816.8L1164.7 798.9L1166 816.7L1167.3 784.3L1168.7 810.7L1170 791.3L1171.3 825L1172.7 784.9L1174 826.3L1175.3 780.1L1176.7 819.3L1178 -42.7L1179.3 -1893.6L1180.7 373L1182 750.2L1183.3 737.5L1184.7 813.3L1186 769.9L1187.3 806.3L1188.7 763.1L1190 802.8L1191.3 759.5L1192.7 816.4L1194 780.3L1195.3 827.4L1196.7 765L1198 821.1L1199.3 796.2L1200.7 823.4L1202 770.8L1203.3 826.7L1204.7 787.9L1206 791.8L1207.3 789.7L1208.7 823.2L1210 777.9L1211.3 827.4L1212.7 792.3L1214 829.8L1215.3 793.9L1216.7 828.3L1218 794.8L1219.3 822.4L1220.7 784.1L1222 817.6L1223.3 790.7L1224.7 829.6L1226 797.7L1227.3 818.8L1228.7 781.9L1230 817.5L1231.3 777.4L1232.7 820.2L1234 784.4L1235.3 825.4L1236.7 787.7L1238 811.8L1239.3 794.9L1240.7 815.1L1242 784.8L1243.3 824.1L1244.7 781.7L1246 824.6L1247.3 756.1L1248.7 818.6L1250 793.7L1251.3 825.3L1252.7 797.5L1254 814.9L1255.3 800.6L1256.7 829.5L1258 -29.4L1259.3 -2046.2L1260.7 361.5L1262 527.4L1263.3 569.5L1264.7 -3632.3L1266 -1455.1L1267.3 211L1268.7 419.2L1270 492.8L1271.3 728.2L1272.7 808.2L1274 749.2L1275.3 808.5L1276.7 764.8L1278 824.1L1279.3 750.4L1280.7 805.7L1282 763.1L1283.3 824L1284.7 784.9L1286 817.8L1287.3 786.8L1288.7 820.9L1290 789.7L1291.3 826.3L1292.7 739.9L1294 793.4L1295.3 774.9L1296.7 803.8L1298 790.1L1299.3 826.6L1300.7 792.6L1302 817.1L1303.3 776.9L1304.7 825.9L1306 783.4L1307.3 821.5L1308.7 785L1310 824L1311.3 792.4L1312.7 817.6L1314 797.7L1315.3 812.9L1316.7 784.7L1318 790L1319.3 768.7L1320.7 813.5L1322 795.5L1323.3 817.7L1324.7 787.1L1326 830.1L1327.3 778.3L1328.7 826.3L1330 798.9L1331.3 830.7L1332.7 793.1L1334 823.4L1335.3 799.2L1336.7 815.7L1338 -77.7L1339.3 -1980.8L1340.7 348.1L1342 767.9L1343.3 744.4L1344.7 780.3L1346 740.8L1347.3 823.6L1348.7 744.9L1350 817.8L1351.3 764.1L1352.7 822.5L1354 781.9L1355.3 823.9L1356.7 761L1358 819.1L1359.3 784.9L1360.7 812.4L1362 781.1L1363.3 825.9L1364.7 790.8L1366 808.7L1367.3 789.4L1368.7 821.3L1370 772.7L1371.3 823.6L1372.7 783.6L1374 827.1L1375.3 789.5L1376.7 820.3L1378 792.3L1379.3 829.3L1380.7 792.3L1382 815.9L1383.3 787.4L1384.7 817.6L1386 796.7L1387.3 826.9L1388.7 784.3L1390 827.3L1391.3 797.4L1392.7 816L1394 794.4L1395.3 827.5L1396.7 777.1L1398 803.4L1399.3 777.8L1400.7 826.1L1402 799.8L1403.3 829.3L1404.7 796.1L1406 830.9L1407.3 797.1L1408.7 806.4L1410 784L1411.3 816.6L1412.7 796.6L1414 824.6L1415.3 802L1416.7 832.6L1418 -96.7L1419.3 -2033.3L1420.7 344.9L1422 764.5L1423.3 716.5L1424.7 783.3L1426 760.6L1427.3 815.3L1428.7 764.4L1430 814.1L1431.3 780.9L1432.7 824L1434 781.9L1435.3 797.5L1436.7 766.4L1438 821.3L1439.3 794.8L1440.7 812.8L1442 778.7L1443.3 826.3L1444.7 790.1L1446 808.8L1447.3 749.8L1448.7 812.9L1450 782.7L1451.3 826.9L1452.7 791.9L1454 827.8L1455.3 789.9L1456.7 825.5L1458 792.7L1459.3 828.1L1460.7 792.8L1462 806.4L1463.3 780.2L1464.7 821.6L1466 787.3L1467.3 816.5L1468.7 785.6L1470 812.9L1471.3 775.5L1472.7 827.6L1474 796.6L1475.3 816.4L1476.7 774L1478 819.9L1479.3 788.7L1480.7 829.2L1482 798.5L1483.3 827.1L1484.7 798.8L1486 831.8L1487.3 798L1488.7 824L1490 794L1491.3 813.3L1492.7 795.3L1494 824.6L1495.3 787.9L1496.7 833.7L1498 -38.9L1499.3 -1894.7L1500.7 367.2L1502 773.5L1503.3 749.1L1504.7 802.7L1506 757.4L1507.3 810.4L1508.7 769.8L1510 803.3L1511.3 765.4L1512.7 821.1L1514 777.5L1515.3 809.9L1516.7 747.3L1518 821.5L1519.3 784.1L1520.7 824.3L1522 774L1523.3 804.6L1524.7 789.3L1526 817.7L1527.3 790.9L1528.7 808.5L1530 772L1531.3 826.1L1532.7 787.3L1534 828.3L1535.3 791.7L1536.7 828.5L1538 794.1L1539.3 809.4L1540.7 789.6L1542 822.2L1543.3 776.8L1544.7 809.3L1546 775.8L1547.3 812.9L1548.7 788.8L1550 827.8L1551.3 775.3L1552.7 829.5L1554 776.8L1555.3 820.4L1556.7 756.5L1558 825.4L1559.3 795.3L1560.7 825.8L1562 782.6L1563.3 828.6L1564.7 795.6L1566 818.7L1567.3 796L1568.7 818.4L1570 797.3L1571.3 822.1L1572.7 778.1L1574 823.7L1575.3 789.5L1576.7 819.1L1578 -40.8L1579.3 -1964.8L1580.7 413L1582 550.4L1583.3 531L1584.7 -3426.9L1586 -1438.3L1587.3 226.1L1588.7 370.8L1590 522.7L1591.3 721.9L1592.7 759.2L1594 749.3L1595.3 819.4L1596.7 751.1L1598 809.4L1599.3 789.7L1600.7 822.6L1602 777.1L1603.3 823.6L1604.7 777.3L1606 795.6L1607.3 784.7L1608.7 815.6L1610 783.2L1611.3 823.8L1612.7 792.3L1614 829.2L1615.3 786.8L1616.7 826.8L1618 792.6L1619.3 819.5L1620.7 787.5L1622 814L1623.3 786.5L1624.7 817.9L1626 796.2L1627.3 826.8L1628.7 791.4L1630 829.6L1631.3 779.6L1632.7 822.5L1634 791.1L1635.3 817.1L1636.7 759.8L1638 825.7L1639.3 793.4L1640.7 826.9L1642 781.3L1643.3 831.6L1644.7 781.4L1646 826.7L1647.3 792L1648.7 810.3L1650 781.6L1651.3 829.3L1652.7 801.5L1654 825.7L1655.3 802.3L1656.7 824.7L1658 -16L1659.3 -1980.8L1660.7 339.1L1662 754.7L1663.3 759.9L1664.7 792.3L1666 752.3L1667.3 810L1668.7 752.1L1670 808L1671.3 772.1L1672.7 821.8L1674 780.9L1675.3 823.1L1676.7 778.8L1678 816.6L1679.3 793.2L1680.7 823L1682 769.9L1683.3 823.4L1684.7 787.1L1686 805.5L1687.3 787.1L1688.7 820.3L1690 794.6L1691.3 829.4L1692.7 793.5L1694 824.4L1695.3 789.3L1696.7 824.1L1698 769.2L1699.3 790.1L1700.7 781.1L1702 814.5L1703.3 792.1L1704.7 827.6L1706 796.4L1707.3 826.6L1708.7 788.1L1710 831L1711.3 791.3L1712.7 801.2L1714 788L1715.3 825.4L1716.7 776.4L1718 810.8L1719.3 775.1L1720.7 814.9L1722 800.2L1723.3 831.8L1724.7 794.9L1726 826.4L1727.3 785L1728.7 819.2L1730 794.2L1731.3 828.7L1732.7 799.6L1734 828.1L1735.3 779L1736.7 826.1L1738 -27.6L1739.3 -1933.9L1740.7 356.5L1742 771.2L1743.3 747.8L1744.7 795.7L1746 747.1L1747.3 806.3L1748.7 750.1L1750 773L1751.3 742L1752.7 821.8L1754 771.4L1755.3 815.1L1756.7 778.8L1758 825.1L1759.3 793.2L1760.7 810.9L1762 781.5L1763.3 823.2L1764.7 780.5L1766 816.1L1767.3 784.1L1768.7 806.1L1770 791.6L1771.3 828L1772.7 773.2L1774 825.1L1775.3 790.4L1776.7 827.1L1778 786.3L1779.3 823.5L1780.7 790.7L1782 821.3L1783.3 792.5L1784.7 811.6L1786 778.6L1787.3 829.5L1788.7 791.5L1790 829.5L1791.3 785.9L1792.7 822.1L1794 792.3L1795.3 827.2L1796.7 795.9L1798 825.1L1799.3 794.7" fill="transparent" stroke="#3fb1e3" stroke-width="3" stroke-linejoin="bevel" class="zr32-cls-98"></path>
</g>
<g clip-path="url(#zr32-c1)">
<path d="M200.7 589.2L202 724.3L203.3 819.9L204.7 790.9L206 829.9L207.3 773.6L208.7 816.4L210 790.4L211.3 831.2L212.7 780.4L214 827.4L215.3 795.2L216.7 802.3L218 -133.8L219.3 -2119.7L220.7 336L222 781.9L223.3 747.7L224.7 803.6L226 739.7L227.3 804.1L228.7 763.4L230 810.4L231.3 781.9L232.7 826.2L234 788.3L235.3 827.3L236.7 775.8L238 819.4L239.3 758.7L240.7 821.5L242 787.4L243.3 812.2L244.7 789.3L246 822.4L247.3 788.9L248.7 820.8L250 791.7L251.3 806.1L252.7 780L254 814.7L255.3 787.5L256.7 824.6L258 783L259.3 819.4L260.7 768.5L262 822.8L263.3 788.7L264.7 829.5L266 784.1L267.3 822.8L268.7 784.4L270 827.7L271.3 796.3L272.7 818.1L274 798L275.3 831L276.7 795.9L278 824.7L279.3 744.2L280.7 797.9L282 796.5L283.3 829.9L284.7 793.1L286 818L287.3 778.5L288.7 812.6L290 793.8L291.3 831.8L292.7 786.5L294 810.9L295.3 795.2L296.7 829.9L298 -43.9L299.3 -1943.6L300.7 409.8L302 553.2L303.3 574.1L304.7 -3549.6L306 -1462.4L307.3 272.2L308.7 373.1L310 512.1L311.3 723.6L312.7 801.6L314 748.3L315.3 813.9L316.7 743.6L318 821.5L319.3 796.7L320.7 828.5L322 786L323.3 819.5L324.7 792.8L326 823.9L327.3 765L328.7 812.4L330 786.8L331.3 822.9L332.7 789.5L334 827.7L335.3 772.3L336.7 829.5L338 792.7L339.3 824.1L340.7 789.3L342 816.3L343.3 782.8L344.7 827L346 794.4L347.3 827.8L348.7 788.6L350 825.8L351.3 775.5L352.7 829.6L354 794.2L355.3 805.8L356.7 761.4L358 804.8L359.3 790.4L360.7 829L362 799.9L363.3 820.7L364.7 787.6L366 817.3L367.3 795.9L368.7 811.8L370 759.9L371.3 828.4L372.7 796.1L374 817L375.3 779L376.7 832.4L378 -39.6L379.3 -1975.1L380.7 378.4L382 746.1L383.3 735.4L384.7 812.2L386 770.4L387.3 807.1L388.7 744.8L390 814.5L391.3 781.9L392.7 811.6L394 742.5L395.3 817L396.7 774.2L398 825.3L399.3 798L400.7 818.7L402 788.3L403.3 824.7L404.7 789.4L406 823.3L407.3 784L408.7 816L410 788.7L411.3 816.4L412.7 773.9L414 819.9L415.3 792.1L416.7 829.1L418 771.7L419.3 817.5L420.7 781L422 813.6L423.3 784.6L424.7 829L426 799L427.3 829.2L428.7 791.1L430 829.7L431.3 794.8L432.7 823.7L434 798.3L435.3 821.3L436.7 769.9L438 825.1L439.3 782.2L440.7 821.7L442 800.1L443.3 833.5L444.7 798.3L446 828.8L447.3 799.6L448.7 824.5L450 787.1L451.3 823L452.7 792.9L454 826.6L455.3 785.9L456.7 831.8L458 -28L459.3 -1974L460.7 365.9L462 753.9L463.3 760.5L464.7 813.6L466 751.8L467.3 820.5L468.7 769.9L470 805.4L471.3 784L472.7 824.2L474 781.8L475.3 798.1L476.7 770L478 818.7L479.3 788.2L480.7 826.2L482 788.3L483.3 824.9L484.7 785.8L486 823.2L487.3 773.6L488.7 780.4L490 782.1L491.3 824.7L492.7 772.8L494 828L495.3 769.6L496.7 821.3L498 778.2L499.3 807.4L500.7 774.8L502 802.6L503.3 787.2L504.7 814.9L506 788.7L507.3 802.2L508.7 790.9L510 831.1L511.3 798.5L512.7 828.9L514 797.8L515.3 818.4L516.7 770L518 826.9L519.3 793.8L520.7 832.4L522 801.9L523.3 833L524.7 793.4L526 811.6L527.3 779.2L528.7 828.1L530 756.7L531.3 831.2L532.7 790.2L534 828.3L535.3 803.2L536.7 831.8L538 -17.3L539.3 -1932.4L540.7 332L542 755.6L543.3 737.2L544.7 794.4L546 759.1L547.3 819.6L548.7 746.3L550 816L551.3 784.8L552.7 817L554 752.7L555.3 815.1L556.7 747.9L558 821L559.3 791.1L560.7 819.2L562 787.2L563.3 824.8L564.7 783.6L566 822.1L567.3 781.4L568.7 798L570 784.8L571.3 821.1L572.7 788.7L574 821.1L575.3 791.7L576.7 827.3L578 774.9L579.3 828.5L580.7 782.7L582 810.5L583.3 786L584.7 827.9L586 793.9L587.3 815.8L588.7 786.3L590 828.5L591.3 798.4L592.7 818.1L594 795.6L595.3 815.3L596.7 792L598 825.1L599.3 795L600.7 829.2L602 800.9L603.3 829.6L604.7 777.2L606 821.8L607.3 793.7L608.7 810.1L610 758.2L611.3 827.2L612.7 791.7L614 827.9L615.3 799.7L616.7 825.8L618 -26.8L619.3 -1919.4L620.7 427.4L622 522.5L623.3 539.5L624.7 -3526.5L626 -1425.1L627.3 221.8L628.7 377L630 539.1L631.3 721.5L632.7 794.2L634 736.4L635.3 815.9L636.7 768L638 825.2L639.3 772.4L640.7 819.5L642 767.1L643.3 824.3L644.7 758.1L646 797.6L647.3 783.9L648.7 817.4L650 790.9L651.3 816.9L652.7 794.4L654 829.5L655.3 775.9L656.7 828.9L658 793.4L659.3 805.5L660.7 786.6L662 824.2L663.3 790.6L664.7 830.2L666 793.7L667.3 830.3L668.7 779.6L670 818.1L671.3 794.5L672.7 815L674 784.9L675.3 815.9L676.7 792.7L678 812.3L679.3 795L680.7 826L682 801.7L683.3 831.7L684.7 780.2L686 813.1L687.3 789.2L688.7 820.1L690 796.9L691.3 819.5L692.7 798L694 827.5L695.3 800.8L696.7 830.4L698 -23.2L699.3 -1955.8L700.7 295.1L702 768.6L703.3 733.3L704.7 785.1L706 741.7L707.3 806.5L708.7 764.3L710 808.1L711.3 749.9L712.7 818L714 779.5L715.3 822.3L716.7 775.9L718 820.5L719.3 790.1L720.7 822.2L722 768L723.3 821.4L724.7 770.3L726 811.7L727.3 781.7L728.7 814.6L730 779.3L731.3 801.2L732.7 793.6L734 817.4L735.3 773L736.7 790.2L738 787.1L739.3 824.5L740.7 791.6L742 820.6L743.3 783.4L744.7 827L746 801.5L747.3 823.8L748.7 792.2L750 817.4L751.3 786.5L752.7 826.2L754 789.5L755.3 830.4L756.7 798.9L758 824.4L759.3 797.4L760.7 831L762 799.9L763.3 833.2L764.7 771.6L766 821.7L767.3 794.7L768.7 822.9L770 778.8L771.3 828.4L772.7 796.4L774 830.6L775.3 805.5L776.7 830.8L778 -48.5L779.3 -2004.3L780.7 331.3L782 760.4L783.3 755.2L784.7 802.2L786 759.8L787.3 804.4L788.7 763L790 806.2L791.3 772.4L792.7 813.9L794 781.8L795.3 820.9L796.7 771.9L798 824.8L799.3 791.4L800.7 820.9L802 779.9L803.3 813.2L804.7 783.2L806 815L807.3 770.5L808.7 807.5L810 789.6L811.3 812.2L812.7 789.9L814 826.7L815.3 793.7L816.7 788.6L818 779.6L819.3 825.4L820.7 772L822 819.6L823.3 788.4L824.7 822.1L826 795.9L827.3 828.1L828.7 789.3L830 797.9L831.3 778.8L832.7 824.1L834 793.9L835.3 830.2L836.7 798.2L838 819.3L839.3 792L840.7 827.1L842 769.1L843.3 811.6L844.7 774.9L846 829.3L847.3 797.9L848.7 809L850 796.1L851.3 828.4L852.7 779.8L854 826.7L855.3 795.9L856.7 820.9L858 -27.4L859.3 -1901.3L860.7 357.1L862 757.9L863.3 745L864.7 806.3L866 768.3L867.3 816L868.7 770.5L870 780.6L871.3 777.1L872.7 820.4L874 765.9L875.3 824.7L876.7 777L878 828.5L879.3 796.1L880.7 821.2L882 788.4L883.3 790.6L884.7 779L886 812.1L887.3 761L888.7 821.1L890 790.6L891.3 831L892.7 797.4L894 827.7L895.3 792.3L896.7 824.8L898 776.6L899.3 823.7L900.7 786.1L902 823.6L903.3 778.9L904.7 825L906 780.1L907.3 828.2L908.7 792.1L910 808.2L911.3 783.4L912.7 823.3L914 788.8L915.3 824.9L916.7 771.3L918 814.3L919.3 794.3L920.7 830.9L922 782.9L923.3 823.8L924.7 772.3L926 828.7L927.3 788.5L928.7 826L930 798.6L931.3 831.5L932.7 802.4L934 829.9L935.3 800.9L936.7 831.7L938 -63.4L939.3 -1895.3L940.7 372.8L942 505.3L943.3 497.2L944.7 -3862.3L946 -1555.9L947.3 276.5L948.7 433.1L950 516.6L951.3 728.9L952.7 787.1L954 763.5L955.3 787.4L956.7 731L958 809.5L959.3 794.6L960.7 825L962 770.4L963.3 823.2L964.7 765.8L966 809.8L967.3 763.3L968.7 810.2L970 788.6L971.3 824.3L972.7 792.2L974 820.2L975.3 796.4L976.7 826.6L978 793.3L979.3 825.3L980.7 793.3L982 813.1L983.3 786.5L984.7 827.9L986 781.1L987.3 826.2L988.7 789.9L990 828.2L991.3 796.7L992.7 829L994 777.3L995.3 810.7L996.7 784.2L998 827.1L999.3 795.3L1000.7 815.3L1002 798.8L1003.3 832.9L1004.7 796.8L1006 822.8L1007.3 795L1008.7 823.4L1010 789.1L1011.3 824.4L1012.7 796.5L1014 824.3L1015.3 782.8L1016.7 820.6L1018 -70.4L1019.3 -2023.2L1020.7 312L1022 730.3L1023.3 741.3L1024.7 793.9L1026 737.7L1027.3 801.3L1028.7 763.6L1030 797.4L1031.3 767.1L1032.7 797.7L1034 771.5L1035.3 809.6L1036.7 767.3L1038 824.6L1039.3 795.5L1040.7 828.7L1042 790.7L1043.3 825.4L1044.7 788.6L1046 793.6L1047.3 782.3L1048.7 815.3L1050 790.9L1051.3 829.4L1052.7 792.5L1054 816.7L1055.3 777.2L1056.7 816.1L1058 790.8L1059.3 812.3L1060.7 756.8L1062 822.7L1063.3 788.7L1064.7 821.2L1066 783.5L1067.3 808.8L1068.7 780.3L1070 827.1L1071.3 777.2L1072.7 817.3L1074 768.7L1075.3 827.9L1076.7 796.3L1078 825.3L1079.3 794.2L1080.7 816.4L1082 799.3L1083.3 833.9L1084.7 801.7L1086 832.2L1087.3 775.8L1088.7 821.9L1090 795.7L1091.3 833.8L1092.7 802.5L1094 814.2L1095.3 794.2L1096.7 820.2L1098 -37.6L1099.3 -1978.2L1100.7 349.6L1102 754.3L1103.3 756.8L1104.7 803.8L1106 761.6L1107.3 805.5L1108.7 769.4L1110 816.6L1111.3 762.3L1112.7 809.3L1114 755.3L1115.3 825.5L1116.7 768.9L1118 816.1L1119.3 796.1L1120.7 824.7L1122 785.7L1123.3 826.6L1124.7 778.9L1126 801.5L1127.3 775.8L1128.7 816.5L1130 787.9L1131.3 826.9L1132.7 790.9L1134 828.5L1135.3 792L1136.7 830.3L1138 792.3L1139.3 807.1L1140.7 781.7L1142 822.3L1143.3 781L1144.7 815.9L1146 798.8L1147.3 826L1148.7 791.5L1150 830L1151.3 794.9L1152.7 811.5L1154 787.6L1155.3 823.1L1156.7 785L1158 814.9L1159.3 791.3L1160.7 829.1L1162 777.7L1163.3 830.5L1164.7 800.6L1166 829.7L1167.3 772.1L1168.7 821.2L1170 794.6L1171.3 829L1172.7 796L1174 830.8L1175.3 792L1176.7 830.1L1178 -35.6L1179.3 -1926.2L1180.7 367.2L1182 752.9L1183.3 757.2L1184.7 803.9L1186 766.8L1187.3 805.2L1188.7 761.5L1190 809.6L1191.3 781.9L1192.7 809.7L1194 763.5L1195.3 825.8L1196.7 776.8L1198 827.1L1199.3 783L1200.7 819.2L1202 771.6L1203.3 826.2L1204.7 760.6L1206 788.7L1207.3 762.7L1208.7 818L1210 776.8L1211.3 830.3L1212.7 788.8L1214 812.3L1215.3 788.6L1216.7 828.5L1218 796.4L1219.3 823.1L1220.7 786.9L1222 823.3L1223.3 791.4L1224.7 830.8L1226 798.8L1227.3 830.4L1228.7 790.5L1230 813.7L1231.3 792.3L1232.7 830.5L1234 776.6L1235.3 817.5L1236.7 786.4L1238 824L1239.3 777L1240.7 825.7L1242 800.1L1243.3 826.8L1244.7 800.9L1246 810.9L1247.3 794.9L1248.7 819.1L1250 796L1251.3 827.4L1252.7 786.8L1254 827.4L1255.3 795.8L1256.7 828.9L1258 -21L1259.3 -1906.5L1260.7 406.1L1262 511.7L1263.3 540.3L1264.7 -3823.4L1266 -1425.6L1267.3 237.5L1268.7 464.7L1270 534.8L1271.3 728.5L1272.7 805.2L1274 757.4L1275.3 824.2L1276.7 773.8L1278 826.6L1279.3 792.6L1280.7 822.3L1282 750.9L1283.3 817L1284.7 779.4L1286 820L1287.3 786.8L1288.7 814.1L1290 781.5L1291.3 808.4L1292.7 790.7L1294 827.3L1295.3 735.8L1296.7 807.7L1298 791.8L1299.3 827.8L1300.7 794.7L1302 825.3L1303.3 778.8L1304.7 817.7L1306 795.2L1307.3 814.2L1308.7 740.8L1310 824L1311.3 788.2L1312.7 829.8L1314 793.5L1315.3 824.6L1316.7 796.5L1318 825.4L1319.3 792.3L1320.7 819L1322 793.3L1323.3 801L1324.7 779L1326 830L1327.3 779.1L1328.7 827.1L1330 801.6L1331.3 823.9L1332.7 800L1334 832.8L1335.3 800L1336.7 811.1L1338 -36.9L1339.3 -1992.2L1340.7 317.8L1342 766L1343.3 762L1344.7 809L1346 747.3L1347.3 771.4L1348.7 758.2L1350 814.3L1351.3 758.6L1352.7 824.3L1354 782.5L1355.3 825.8L1356.7 779.3L1358 826.3L1359.3 781.5L1360.7 819.3L1362 777.1L1363.3 810.5L1364.7 783.7L1366 822.8L1367.3 786.8L1368.7 815.3L1370 781.1L1371.3 830.1L1372.7 772.8L1374 819.6L1375.3 779.4L1376.7 827L1378 790.3L1379.3 830.1L1380.7 792.8L1382 825L1383.3 795.5L1384.7 824.4L1386 798.8L1387.3 819.9L1388.7 767.4L1390 821.3L1391.3 791.3L1392.7 815.2L1394 775.4L1395.3 831.2L1396.7 794.3L1398 826.3L1399.3 796.1L1400.7 830.3L1402 782.2L1403.3 808.7L1404.7 798.4L1406 829.8L1407.3 796.6L1408.7 810.4L1410 779.3L1411.3 819.8L1412.7 786.5L1414 820.7L1415.3 785.1L1416.7 816L1418 -5.4L1419.3 -2016.6L1420.7 327.7L1422 771.3L1423.3 771.6L1424.7 814.6L1426 768.5L1427.3 817.6L1428.7 765.4L1430 814.9L1431.3 781.4L1432.7 825.2L1434 784.9L1435.3 826.1L1436.7 776.5L1438 826.9L1439.3 792.7L1440.7 806.5L1442 785.4L1443.3 826.6L1444.7 788.1L1446 819.3L1447.3 790.5L1448.7 824.9L1450 789.6L1451.3 826.6L1452.7 781.2L1454 817L1455.3 781.1L1456.7 826.6L1458 790.3L1459.3 828.5L1460.7 790.7L1462 823.9L1463.3 792.4L1464.7 828.2L1466 799.2L1467.3 828.6L1468.7 787L1470 824.2L1471.3 785.1L1472.7 827.8L1474 797.9L1475.3 815.6L1476.7 768.1L1478 825.8L1479.3 795L1480.7 829.4L1482 801.5L1483.3 800.1L1484.7 783L1486 830.1L1487.3 787L1488.7 816.1L1490 799.2L1491.3 831.4L1492.7 799.7L1494 815.7L1495.3 796.6L1496.7 805.8L1498 -41.5L1499.3 -1898.5L1500.7 345.3L1502 761.8L1503.3 756.5L1504.7 788.4L1506 740.8L1507.3 817.2L1508.7 765.5L1510 815.8L1511.3 773.6L1512.7 815.6L1514 772L1515.3 803.2L1516.7 774.1L1518 825.9L1519.3 796L1520.7 823.9L1522 735.1L1523.3 786.8L1524.7 785.2L1526 809.8L1527.3 788.3L1528.7 820.6L1530 792.6L1531.3 825.4L1532.7 792.9L1534 826.3L1535.3 765.6L1536.7 821.2L1538 785L1539.3 820.6L1540.7 792.4L1542 824.7L1543.3 790.9L1544.7 828L1546 798.4L1547.3 829.4L1548.7 784.3L1550 820.2L1551.3 791.2L1552.7 813.2L1554 778L1555.3 829.7L1556.7 797.1L1558 817.9L1559.3 797.6L1560.7 831.5L1562 801.2L1563.3 825.1L1564.7 775.1L1566 825.2L1567.3 799L1568.7 812.5L1570 796.1L1571.3 828.7L1572.7 800.9L1574 829.4L1575.3 795.6L1576.7 833.4L1578 -50.1L1579.3 -1933.9L1580.7 396.7L1582 510.9L1583.3 527.4L1584.7 -3636.2L1586 -1455.2L1587.3 236.5L1588.7 331.4L1590 451.2L1591.3 739.6L1592.7 796.7L1594 755.5L1595.3 805.4L1596.7 719.6L1598 815.4L1599.3 769.5L1600.7 821.9L1602 785.1L1603.3 811.5L1604.7 766.7L1606 806.2L1607.3 785.4L1608.7 809.5L1610 777L1611.3 823.9L1612.7 788.9L1614 826.8L1615.3 777L1616.7 825.7L1618 793.6L1619.3 827.2L1620.7 771.9L1622 793.2L1623.3 776.3L1624.7 824.5L1626 790.2L1627.3 800.8L1628.7 792L1630 834L1631.3 797.6L1632.7 826.9L1634 796.3L1635.3 819.5L1636.7 786.8L1638 818.9L1639.3 774.9L1640.7 828.6L1642 802.7L1643.3 833.7L1644.7 799.1L1646 824.6L1647.3 787.9L1648.7 825.1L1650 797.6L1651.3 819.2L1652.7 796.7L1654 817.5L1655.3 783.4L1656.7 811.8L1658 -85L1659.3 -1997.3L1660.7 389L1662 751.1L1663.3 764.5L1664.7 806.2L1666 771.9L1667.3 821.3L1668.7 767.9L1670 811.5L1671.3 783.2L1672.7 819.7L1674 779.1L1675.3 816L1676.7 771.7L1678 820.6L1679.3 791L1680.7 827.7L1682 789.7L1683.3 811.4L1684.7 786.8L1686 820.6L1687.3 790L1688.7 811.3L1690 780.6L1691.3 826.4L1692.7 773.6L1694 818.4L1695.3 777.4L1696.7 821.6L1698 770.4L1699.3 809.8L1700.7 759.8L1702 795.3L1703.3 759.1L1704.7 821.4L1706 777.4L1707.3 827.4L1708.7 787.8L1710 828L1711.3 775.7L1712.7 828.7L1714 786.2L1715.3 818.7L1716.7 789.5L1718 825.8L1719.3 792.1L1720.7 828.8L1722 802.1L1723.3 830.3L1724.7 803L1726 828.4L1727.3 796.9L1728.7 802.3L1730 790.5L1731.3 808.9L1732.7 799.3L1734 816.1L1735.3 801.1L1736.7 818.8L1738 -46.5L1739.3 -1946.1L1740.7 376.1L1742 758.4L1743.3 743.2L1744.7 804L1746 752L1747.3 818.9L1748.7 766.1L1750 816.4L1751.3 785.5L1752.7 810.9L1754 779.2L1755.3 818.9L1756.7 772.5L1758 815.2L1759.3 797.3L1760.7 815.4L1762 783.7L1763.3 827.8L1764.7 795.5L1766 823.5L1767.3 776.5L1768.7 811.3L1770 788.1L1771.3 827L1772.7 787L1774 829.2L1775.3 785.8L1776.7 827.4L1778 785.7L1779.3 825.8L1780.7 794.6L1782 817.4L1783.3 779.9L1784.7 823.5L1786 799.1L1787.3 818.6L1788.7 788.3L1790 816.1L1791.3 778.2L1792.7 818.8L1794 786.8L1795.3 815.4L1796.7 786.5L1798 823.4L1799.3 794.2" fill="transparent" stroke="#6be6c1" stroke-width="3" stroke-linejoin="bevel" class="zr32-cls-98"></path>
</g>
<g clip-path="url(#zr32-c2)">
<path d="M200.7 604.2L202 738.5L203.3 821.3L204.7 789.5L206 817.6L207.3 770.6L208.7 829.4L210 789.5L211.3 829.9L212.7 791.7L214 814.5L215.3 798.4L216.7 818.9L218 -170.7L219.3 -2076.8L220.7 327.2L222 761.5L223.3 779.4L224.7 818.9L226 770.4L227.3 819.1L228.7 771.1L230 801.9L231.3 747.4L232.7 817.6L234 783.9L235.3 823.3L236.7 778.7L238 827.7L239.3 788.2L240.7 824.5L242 793.3L243.3 813.3L244.7 784L246 809.1L247.3 789.2L248.7 817.7L250 793.5L251.3 829.1L252.7 790.6L254 825.2L255.3 793.7L256.7 828.5L258 793.2L259.3 812.8L260.7 779.8L262 816L263.3 790.8L264.7 831.6L266 796.6L267.3 828.6L268.7 785.2L270 820.6L271.3 795.6L272.7 827.2L274 774.8L275.3 820.5L276.7 781.4L278 812.8L279.3 782.4L280.7 810.8L282 793L283.3 828.3L284.7 799.2L286 832.7L287.3 781.3L288.7 803.8L290 795.3L291.3 830.2L292.7 800.2L294 826.3L295.3 796.6L296.7 834.5L298 -64.9L299.3 -1948.2L300.7 399.8L302 560.8L303.3 567.6L304.7 -3540.6L306 -1467L307.3 273.7L308.7 467.2L310 605.6L311.3 716.2L312.7 804.5L314 754.7L315.3 815.3L316.7 773.7L318 811.9L319.3 776.5L320.7 825.5L322 780.9L323.3 827.4L324.7 768.1L326 813.4L327.3 786.1L328.7 820.1L330 775.4L331.3 825L332.7 781.8L334 814.9L335.3 795.6L336.7 828.3L338 788.5L339.3 812.5L340.7 787.1L342 819.9L343.3 789.6L344.7 819.9L346 801L347.3 815.5L348.7 767.8L350 825.2L351.3 795.3L352.7 825L354 790.8L355.3 825.5L356.7 795.9L358 828.8L359.3 797.6L360.7 830.2L362 802.1L363.3 820.2L364.7 782.2L366 833.3L367.3 758.4L368.7 815.9L370 774.8L371.3 818.3L372.7 793.7L374 821.9L375.3 803.9L376.7 831.1L378 -30.9L379.3 -1962.9L380.7 303.1L382 765.3L383.3 756.9L384.7 810.8L386 752L387.3 810.9L388.7 768.7L390 815.6L391.3 778.1L392.7 792.7L394 757.9L395.3 814.8L396.7 754.9L398 827.4L399.3 783.6L400.7 813.8L402 783.9L403.3 825.3L404.7 782.9L406 817.6L407.3 782.6L408.7 813.5L410 793L411.3 830.3L412.7 795.5L414 831.2L415.3 777.3L416.7 829.6L418 788.8L419.3 821.1L420.7 791.9L422 826.9L423.3 793.4L424.7 830.9L426 791.1L427.3 829.5L428.7 793.8L430 828.2L431.3 796.1L432.7 823.5L434 789.8L435.3 826.1L436.7 775.8L438 827.4L439.3 796.4L440.7 818.6L442 784.3L443.3 832.9L444.7 798.9L446 830.3L447.3 777.1L448.7 825.2L450 798.5L451.3 829.7L452.7 799.4L454 826.3L455.3 799.5L456.7 827.2L458 -43.2L459.3 -1944L460.7 332.1L462 765.1L463.3 756.4L464.7 813.6L466 776.3L467.3 822.9L468.7 770.4L470 805.3L471.3 784.9L472.7 819.8L474 764.1L475.3 821.8L476.7 771.1L478 825.9L479.3 795.2L480.7 814.3L482 790.7L483.3 824L484.7 766.2L486 822.4L487.3 779.6L488.7 818.7L490 791.2L491.3 829L492.7 790.2L494 828.4L495.3 790.5L496.7 826.8L498 793.7L499.3 827L500.7 782.5L502 809.3L503.3 788.6L504.7 829.3L506 783.9L507.3 815.8L508.7 772.6L510 833L511.3 789.3L512.7 818.1L514 786.3L515.3 827.4L516.7 794.3L518 818.2L519.3 787.7L520.7 829.5L522 803.8L523.3 832.3L524.7 800.3L526 830L527.3 801.8L528.7 809.4L530 770.1L531.3 819.6L532.7 800L534 816.7L535.3 803L536.7 832.4L538 -51.9L539.3 -1945.1L540.7 332L542 742.8L543.3 752.6L544.7 801.9L546 766.2L547.3 823.1L548.7 753.3L550 808.4L551.3 774.1L552.7 820.2L554 771L555.3 819.2L556.7 770L558 813.1L559.3 791.1L560.7 828.6L562 773.6L563.3 810.5L564.7 789.3L566 809.2L567.3 783.4L568.7 817.7L570 787.5L571.3 814.6L572.7 792.5L574 828.7L575.3 791.6L576.7 813.2L578 785.8L579.3 812.7L580.7 774.6L582 821.6L583.3 785.3L584.7 829L586 800.4L587.3 831.1L588.7 787.1L590 828.5L591.3 796.4L592.7 829L594 797.3L595.3 808.6L596.7 793.8L598 825.3L599.3 776.9L600.7 832.6L602 799.2L603.3 828.1L604.7 793.9L606 831.8L607.3 796L608.7 823.8L610 763.9L611.3 826.4L612.7 798.4L614 829.2L615.3 803.6L616.7 829.4L618 -36.9L619.3 -1975.3L620.7 354.4L622 500L623.3 502.9L624.7 -3453.5L626 -1477.2L627.3 277.8L628.7 405.1L630 576.3L631.3 749.5L632.7 780.4L634 768.8L635.3 819.2L636.7 774.5L638 812.6L639.3 777.6L640.7 814.8L642 788.9L643.3 825.2L644.7 781.6L646 798.8L647.3 789.8L648.7 820.5L650 786.6L651.3 824.9L652.7 794.7L654 829.1L655.3 785.2L656.7 824.2L658 793.8L659.3 817L660.7 787L662 823.6L663.3 791.7L664.7 830.3L666 802.3L667.3 831.8L668.7 792.6L670 820.4L671.3 795.8L672.7 823.4L674 791.4L675.3 819.3L676.7 795.9L678 818.7L679.3 792.5L680.7 831.2L682 779.8L683.3 826.7L684.7 801.2L686 819.1L687.3 786.8L688.7 739.6L690 699.3L691.3 796L692.7 780.1L694 810.3L695.3 750.4L696.7 802L698 -331.3L699.3 -2785.1L700.7 153.7L702 763.3L703.3 758L704.7 804.7L706 771.6L707.3 812.8L708.7 763.6L710 808.2L711.3 779L712.7 821.5L714 786.6L715.3 823.3L716.7 773.7L718 816.3L719.3 792.8L720.7 821.2L722 783L723.3 821.8L724.7 774.2L726 811.8L727.3 789.3L728.7 822.5L730 774.4L731.3 813.3L732.7 775.9L734 830.2L735.3 794L736.7 823.9L738 771.1L739.3 827.3L740.7 793.9L742 824.7L743.3 795.4L744.7 832.6L746 799.3L747.3 826.6L748.7 792.8L750 833.5L751.3 793.3L752.7 806.1L754 795.2L755.3 832.5L756.7 800.6L758 826.7L759.3 797.9L760.7 832.1L762 804.2L763.3 832L764.7 801.1L766 827.3L767.3 789.9L768.7 823.9L770 800.1L771.3 833.3L772.7 781.3L774 828L775.3 800.4L776.7 831L778 -32.9L779.3 -1937.9L780.7 321.3L782 761.1L783.3 757L784.7 814.6L786 772.1L787.3 825.7L788.7 772.2L790 815.5L791.3 756L792.7 792.8L794 778L795.3 826.5L796.7 773.8L798 826.8L799.3 795.5L800.7 823.9L802 789.2L803.3 832.4L804.7 790.6L806 798.4L807.3 781.3L808.7 820.7L810 787.8L811.3 827.1L812.7 792.1L814 826.9L815.3 796.1L816.7 830.8L818 795L819.3 804.2L820.7 770.5L822 813.3L823.3 787.9L824.7 826.1L826 796.7L827.3 828.3L828.7 791.4L830 829.6L831.3 794.5L832.7 820.9L834 765.2L835.3 826.8L836.7 798.7L838 822.1L839.3 778.2L840.7 831.1L842 782L843.3 825L844.7 771.1L846 821.1L847.3 779.6L848.7 814L850 791.4L851.3 818.9L852.7 795.7L854 834.1L855.3 802L856.7 824.6L858 -44.6L859.3 -1856.5L860.7 349.2L862 734.3L863.3 746.1L864.7 803.5L866 758.1L867.3 815.3L868.7 767.2L870 813.4L871.3 785L872.7 828.7L874 761.7L875.3 824.4L876.7 774.5L878 827.9L879.3 795.8L880.7 826.7L882 779L883.3 817.4L884.7 790.4L886 823.8L887.3 771.8L888.7 811.1L890 792.1L891.3 831.7L892.7 794.5L894 816.4L895.3 789.6L896.7 829.4L898 794.6L899.3 826.3L900.7 777L902 783.8L903.3 776.8L904.7 821.5L906 775.6L907.3 828L908.7 791L910 821.2L911.3 795.4L912.7 827.9L914 780.3L915.3 819.1L916.7 792.7L918 826.3L919.3 796.2L920.7 828.3L922 797.6L923.3 831.6L924.7 798.2L926 831.5L927.3 787.8L928.7 799.6L930 785.8L931.3 827L932.7 796L934 828.8L935.3 779.1L936.7 829.6L938 -36.8L939.3 -1958.2L940.7 397L942 502.6L943.3 562.2L944.7 -3493.8L946 -1597.7L947.3 240.1L948.7 431L950 522.2L951.3 690.4L952.7 804.5L954 764.2L955.3 798L956.7 748.9L958 820.7L959.3 794L960.7 825.3L962 787.2L963.3 799.4L964.7 778.6L966 816.1L967.3 785.4L968.7 818.7L970 790.7L971.3 825.9L972.7 794.2L974 832.4L975.3 792.8L976.7 796.8L978 779.1L979.3 827.3L980.7 796.6L982 817.9L983.3 792.9L984.7 831.7L986 803.2L987.3 818L988.7 794.2L990 819.1L991.3 787.4L992.7 825.5L994 794.4L995.3 826L996.7 800.1L998 828.7L999.3 786L1000.7 830.3L1002 802.6L1003.3 820.3L1004.7 793.5L1006 826.1L1007.3 798L1008.7 827.2L1010 782.4L1011.3 827L1012.7 781.3L1014 814.3L1015.3 783.1L1016.7 828L1018 -70.8L1019.3 -1945.4L1020.7 332.6L1022 767.7L1023.3 768.2L1024.7 815.8L1026 756.5L1027.3 810.9L1028.7 733.4L1030 793.8L1031.3 747.8L1032.7 814.4L1034 783L1035.3 825.2L1036.7 776L1038 827.2L1039.3 776.1L1040.7 805.5L1042 754.9L1043.3 815L1044.7 789.1L1046 820.2L1047.3 791.2L1048.7 822.8L1050 795.3L1051.3 832.9L1052.7 772.4L1054 828.3L1055.3 792.9L1056.7 803.9L1058 791.1L1059.3 827.6L1060.7 791.3L1062 817.5L1063.3 783.6L1064.7 829.9L1066 795.4L1067.3 820.2L1068.7 780.6L1070 829.4L1071.3 787.9L1072.7 830.1L1074 786.7L1075.3 832.3L1076.7 778.5L1078 829.2L1079.3 780.3L1080.7 828.5L1082 800.8L1083.3 818.9L1084.7 793.2L1086 818.4L1087.3 786.6L1088.7 822.3L1090 798L1091.3 830.8L1092.7 784.2L1094 830.5L1095.3 805.1L1096.7 832.3L1098 -59.3L1099.3 -1960.1L1100.7 325L1102 772.6L1103.3 780.6L1104.7 809.1L1106 772.2L1107.3 823L1108.7 776.4L1110 800.6L1111.3 772.4L1112.7 813.4L1114 777.3L1115.3 825.9L1116.7 778.9L1118 825L1119.3 795.3L1120.7 823.7L1122 789.4L1123.3 827.3L1124.7 767.3L1126 814.2L1127.3 791.8L1128.7 822L1130 787.7L1131.3 827L1132.7 793.4L1134 824.9L1135.3 792.1L1136.7 827L1138 786.6L1139.3 821.3L1140.7 775.3L1142 816.6L1143.3 775.2L1144.7 829.4L1146 779.1L1147.3 831.1L1148.7 791.5L1150 824.4L1151.3 780.6L1152.7 807.1L1154 768.1L1155.3 832.8L1156.7 783.6L1158 814.4L1159.3 783.1L1160.7 829.5L1162 800.6L1163.3 828L1164.7 800L1166 814.1L1167.3 791.8L1168.7 823.2L1170 799.6L1171.3 830.6L1172.7 802L1174 830.4L1175.3 789.1L1176.7 832.3L1178 -29.1L1179.3 -1887.6L1180.7 275.8L1182 755.4L1183.3 744.3L1184.7 802L1186 755.6L1187.3 819.6L1188.7 749L1190 812.2L1191.3 766.7L1192.7 820.5L1194 781.5L1195.3 825.5L1196.7 753.2L1198 826.4L1199.3 788.5L1200.7 824.1L1202 780.3L1203.3 828.4L1204.7 781.5L1206 814.6L1207.3 787.4L1208.7 815.1L1210 780.2L1211.3 829.2L1212.7 795.5L1214 825.9L1215.3 775.6L1216.7 814.9L1218 781.6L1219.3 820.1L1220.7 771.8L1222 819.3L1223.3 787.2L1224.7 825.1L1226 800.3L1227.3 831.9L1228.7 792.2L1230 828.9L1231.3 797.1L1232.7 822.2L1234 792.1L1235.3 822.2L1236.7 792.3L1238 825.4L1239.3 774.8L1240.7 831L1242 780.5L1243.3 814.8L1244.7 798.2L1246 814.2L1247.3 782.7L1248.7 807.1L1250 798.4L1251.3 826.9L1252.7 799.4L1254 823.4L1255.3 801.1L1256.7 821.3L1258 -24.7L1259.3 -2102.9L1260.7 333.1L1262 509.4L1263.3 545.9L1264.7 -3312.2L1266 -1594L1267.3 269.3L1268.7 440.6L1270 561.7L1271.3 725.7L1272.7 800.6L1274 768.7L1275.3 821.8L1276.7 775.9L1278 824L1279.3 774.8L1280.7 805.3L1282 772.1L1283.3 821.1L1284.7 783.2L1286 818.8L1287.3 790.6L1288.7 818L1290 792.6L1291.3 814.1L1292.7 775.8L1294 826.5L1295.3 781.5L1296.7 823.7L1298 785.9L1299.3 825L1300.7 790.4L1302 827.2L1303.3 778.6L1304.7 817.5L1306 799.5L1307.3 829.9L1308.7 783.8L1310 810.7L1311.3 770.1L1312.7 830.1L1314 799.2L1315.3 827.6L1316.7 799L1318 829.2L1319.3 794.4L1320.7 831.3L1322 789.2L1323.3 795.3L1324.7 791.2L1326 828.6L1327.3 793.4L1328.7 824.7L1330 789.5L1331.3 832.1L1332.7 780L1334 831.2L1335.3 803.3L1336.7 806.5L1338 -73.4L1339.3 -1960.5L1340.7 305.7L1342 769.2L1343.3 758.9L1344.7 819.8L1346 771.3L1347.3 787.3L1348.7 734.2L1350 797.2L1351.3 780.4L1352.7 823.8L1354 765.9L1355.3 823.8L1356.7 779.4L1358 815L1359.3 771.4L1360.7 802.5L1362 766.8L1363.3 822.1L1364.7 790.2L1366 821.9L1367.3 774.1L1368.7 817L1370 789.1L1371.3 828L1372.7 769.5L1374 798.3L1375.3 778.9L1376.7 828.4L1378 794.7L1379.3 817.5L1380.7 789.2L1382 823.5L1383.3 791.1L1384.7 824.2L1386 799.3L1387.3 796.6L1388.7 755.2L1390 827L1391.3 775.1L1392.7 822.7L1394 778.2L1395.3 830.5L1396.7 798.7L1398 825.9L1399.3 795L1400.7 811.3L1402 773.9L1403.3 818.1L1404.7 785.8L1406 820.3L1407.3 797.8L1408.7 821.7L1410 778.8L1411.3 828L1412.7 781.7L1414 817.4L1415.3 767.6L1416.7 832L1418 -20.1L1419.3 -1903.8L1420.7 299.3L1422 772.1L1423.3 777.7L1424.7 805.9L1426 774.6L1427.3 803.5L1428.7 755.6L1430 799.9L1431.3 763.7L1432.7 824.9L1434 787.1L1435.3 826.4L1436.7 777L1438 823.7L1439.3 787.4L1440.7 803.2L1442 779L1443.3 812.4L1444.7 787.9L1446 821.2L1447.3 791.5L1448.7 808.6L1450 792.4L1451.3 824.5L1452.7 770.1L1454 819.9L1455.3 793.4L1456.7 821.8L1458 792.7L1459.3 831.8L1460.7 775L1462 823.5L1463.3 788.8L1464.7 830.1L1466 796.7L1467.3 812.5L1468.7 774.9L1470 827.8L1471.3 797.7L1472.7 831.5L1474 777.1L1475.3 832.3L1476.7 787.6L1478 814.8L1479.3 777.7L1480.7 831.2L1482 787L1483.3 822.3L1484.7 800L1486 818.9L1487.3 799.3L1488.7 815.2L1490 780.1L1491.3 828.7L1492.7 800.3L1494 829.2L1495.3 792.9L1496.7 819.2L1498 -29.5L1499.3 -2015.3L1500.7 325.9L1502 781L1503.3 760L1504.7 803.9L1506 746.1L1507.3 784.9L1508.7 757.5L1510 816.1L1511.3 781.2L1512.7 820.9L1514 785.2L1515.3 818L1516.7 759.5L1518 825.8L1519.3 794.4L1520.7 817.2L1522 777.3L1523.3 810.7L1524.7 792L1526 817.7L1527.3 789.6L1528.7 823.7L1530 773.9L1531.3 828.4L1532.7 786.1L1534 803.8L1535.3 775.1L1536.7 829.7L1538 794.6L1539.3 821L1540.7 789.3L1542 825.5L1543.3 794.6L1544.7 818.8L1546 801.1L1547.3 824L1548.7 780.9L1550 829.6L1551.3 798L1552.7 823.8L1554 798.1L1555.3 829.4L1556.7 790L1558 827L1559.3 797.6L1560.7 834.7L1562 799.9L1563.3 823.9L1564.7 800.4L1566 829.3L1567.3 799.6L1568.7 827.6L1570 780.4L1571.3 832.1L1572.7 801.9L1574 826.4L1575.3 798.6L1576.7 831.4L1578 -37.4L1579.3 -1944.1L1580.7 363.2L1582 531L1583.3 543.5L1584.7 -3452.5L1586 -1533.4L1587.3 258.6L1588.7 451.2L1590 557.2L1591.3 725.1L1592.7 807.2L1594 774L1595.3 824.1L1596.7 772L1598 782.6L1599.3 765.2L1600.7 817.9L1602 767.7L1603.3 823.8L1604.7 766.5L1606 814.6L1607.3 789.7L1608.7 816.2L1610 792L1611.3 818.4L1612.7 774.2L1614 821.4L1615.3 785.7L1616.7 821.5L1618 790.2L1619.3 827.1L1620.7 790.7L1622 809.7L1623.3 790.9L1624.7 799.6L1626 791.9L1627.3 802.8L1628.7 754.5L1630 818.5L1631.3 789.3L1632.7 818.4L1634 796.9L1635.3 822.2L1636.7 788.5L1638 828.7L1639.3 785.8L1640.7 829.2L1642 797.5L1643.3 835.1L1644.7 801.5L1646 834.2L1647.3 800.7L1648.7 826.6L1650 783.8L1651.3 831.9L1652.7 804.4L1654 815.4L1655.3 800.3L1656.7 827.8L1658 -25.4L1659.3 -2008.9L1660.7 334.2L1662 789.4L1663.3 762.3L1664.7 817.8L1666 747.2L1667.3 819.1L1668.7 749.9L1670 814.4L1671.3 775.6L1672.7 825.9L1674 785.8L1675.3 826.7L1676.7 776.8L1678 805L1679.3 760.4L1680.7 803.9L1682 786.5L1683.3 826.4L1684.7 790.2L1686 820.2L1687.3 790.5L1688.7 821.1L1690 791.1L1691.3 821.5L1692.7 756.8L1694 821L1695.3 791.2L1696.7 828L1698 776.3L1699.3 827L1700.7 793.8L1702 826.5L1703.3 794.1L1704.7 818.7L1706 772.7L1707.3 819L1708.7 774.1L1710 817.3L1711.3 793.1L1712.7 829.8L1714 799.7L1715.3 830L1716.7 763L1718 820.6L1719.3 783L1720.7 824.6L1722 793.8L1723.3 824.8L1724.7 798.5L1726 820.5L1727.3 782.8L1728.7 825.8L1730 781.5L1731.3 817.5L1732.7 798.1L1734 800.1L1735.3 792.6L1736.7 821.8L1738 -41.7L1739.3 -2003.7L1740.7 325.4L1742 772.1L1743.3 761.3L1744.7 795.3L1746 769.5L1747.3 823.5L1748.7 768.4L1750 811.4L1751.3 782.6L1752.7 825.1L1754 783.8L1755.3 827.8L1756.7 762.5L1758 790.3L1759.3 767.3L1760.7 823.1L1762 769.8L1763.3 826.1L1764.7 791.9L1766 823.3L1767.3 790.3L1768.7 825.5L1770 792.6L1771.3 822L1772.7 783.6L1774 816.8L1775.3 774.7L1776.7 818L1778 792.6L1779.3 828.4L1780.7 793.8L1782 811.3L1783.3 793.7L1784.7 812.6L1786 784.2L1787.3 814.6L1788.7 789.4L1790 831L1791.3 798.1L1792.7 828.1L1794 799L1795.3 831.4L1796.7 798.5L1798 813.7L1799.3 788.8" fill="transparent" stroke="#626c91" stroke-width="3" stroke-linejoin="bevel" class="zr32-cls-98"></path>
</g>
<path d="M-184.8 -5l369.6 0l0 28l-369.6 0Z" transform="translate(1000 5)" fill="rgb(0,0,0)" fill-opacity="0" stroke="#ccc" stroke-width="0" class="zr32-cls-96"></path>
<text dominant-baseline="central" text-anchor="middle" style="font-size:18px;font-family:sans-serif;font-weight:bold;" xml:space="preserve" y="9" transform="translate(1000 5)" fill="#666666">wholeUpdate per Tick for bench_1_every_60</text>
<defs >
<clipPath id="zr32-c0">
<path d="M198 58.5l16004 0l0 8703l-16004 0Z" fill="#000" class="zr32-cls-97"></path>
</clipPath>
<clipPath id="zr32-c1">
<path d="M198 58.5l16004 0l0 8703l-16004 0Z" fill="#000" class="zr32-cls-97"></path>
</clipPath>
<clipPath id="zr32-c2">
<path d="M198 58.5l16004 0l0 8703l-16004 0Z" fill="#000" class="zr32-cls-97"></path>
</clipPath>
</defs>
<style ><![CDATA[
.zr32-cls-96:hover {
pointer-events:none;
}
.zr32-cls-97:hover {
cursor:pointer;
fill:rgba(0,0,0,1);
}
.zr32-cls-98:hover {
cursor:pointer;
}

]]>

</style>
</svg>