<svg width="2000" height="1000" xmlns="http://www.w3.org/2000/svg" xmlns:xlink="http://www.w3.org/1999/xlink" version="1.1" baseProfile="full" viewBox="0 0 2000 1000">
<rect width="2000" height="1000" x="0" y="0" fill="rgb(252,252,252)" fill-opacity="0"></rect>
<path d="M200 930.5L1800 930.5" fill="transparent" stroke="#eeeeee" class="zr43-cls-129"></path>
<path d="M200 797.5L1800 797.5" fill="transparent" stroke="#eeeeee" class="zr43-cls-129"></path>
<path d="M200 665.5L1800 665.5" fill="transparent" stroke="#eeeeee" class="zr43-cls-129"></path>
<path d="M200 532.5L1800 532.5" fill="transparent" stroke="#eeeeee" class="zr43-cls-129"></path>
<path d="M200 399.5L1800 399.5" fill="transparent" stroke="#eeeeee" class="zr43-cls-129"></path>
<path d="M200 267.5L1800 267.5" fill="transparent" stroke="#eeeeee" class="zr43-cls-129"></path>
<path d="M200 134.5L1800 134.5" fill="transparent" stroke="#eeeeee" class="zr43-cls-129"></path>
<path d="M200 60.5L1800 60.5" fill="transparent" stroke="#eeeeee" class="zr43-cls-129"></path>
<path d="M200.5 930L200.5 60" fill="transparent" stroke="#cccccc" stroke-linecap="round" class="zr43-cls-129"></path>
<text dominant-baseline="central" text-anchor="middle" style="font-size:12px;font-family:sans-serif;" xml:space="preserve" y="-6" transform="translate(200 45)" fill="#cccccc">Min transportLinesUpdate Time (ms)</text>
<path d="M200 930.5L1800 930.5" fill="transparent" stroke="#cccccc" stroke-linecap="round" class="zr43-cls-129"></path>
<text dominant-baseline="central" text-anchor="end" style="font-size:12px;font-family:sans-serif;" transform="translate(192 930)" fill="#999999">0.000</text>
<text dominant-baseline="central" text-anchor="end" style="font-size:12px;font-family:sans-serif;" transform="translate(192 797.381)" fill="#999999">0.050</text>
<text dominant-baseline="central" text-anchor="end" style="font-size:12px;font-family:sans-serif;" transform="translate(192 664.762)" fill="#999999">0.100</text>
<text dominant-baseline="central" text-anchor="end" style="font-size:12px;font-family:sans-serif;" transform="translate(192 532.1431)" fill="#999999">0.150</text>
<text dominant-baseline="central" text-anchor="end" style="font-size:12px;font-family:sans-serif;" transform="translate(192 399.5241)" fill="#999999">0.200</text>
<text dominant-baseline="central" text-anchor="end" style="font-size:12px;font-family:sans-serif;" transform="translate(192 266.9051)" fill="#999999">0.250</text>
<text dominant-baseline="central" text-anchor="end" style="font-size:12px;font-family:sans-serif;" transform="translate(192 134.2861)" fill="#999999">0.300</text>
<text dominant-baseline="central" text-anchor="end" style="font-size:12px;font-family:sans-serif;" transform="translate(192 60)" fill="#999999">0.328</text>
<text dominant-baseline="central" text-anchor="middle" style="font-size:12px;font-family:sans-serif;" y="6" transform="translate(200.6667 938)" fill="#999999">0</text>
<text dominant-baseline="central" text-anchor="middle" style="font-size:12px;font-family:sans-serif;" y="6" transform="translate(236.6667 938)" fill="#999999">27</text>
<text dominant-baseline="central" text-anchor="middle" style="font-size:12px;font-family:sans-serif;" y="6" transform="translate(272.6667 938)" fill="#999999">54</text>
<text dominant-baseline="central" text-anchor="middle" style="font-size:12px;font-family:sans-serif;" y="6" transform="translate(308.6667 938)" fill="#999999">81</text>
<text dominant-baseline="central" text-anchor="middle" style="font-size:12px;font-family:sans-serif;" y="6" transform="translate(344.6667 938)" fill="#999999">108</text>
<text dominant-baseline="central" text-anchor="middle" style="font-size:12px;font-family:sans-serif;" y="6" transform="translate(380.6667 938)" fill="#999999">135</text>
<text dominant-baseline="central" text-anchor="middle" style="font-size:12px;font-family:sans-serif;" y="6" transform="translate(416.6667 938)" fill="#999999">162</text>
<text dominant-baseline="central" text-anchor="middle" style="font-size:12px;font-family:sans-serif;" y="6" transform="translate(452.6667 938)" fill="#999999">189</text>
<text dominant-baseline="central" text-anchor="middle" style="font-size:12px;font-family:sans-serif;" y="6" transform="translate(488.6667 938)" fill="#999999">216</text>
<text dominant-baseline="central" text-anchor="middle" style="font-size:12px;font-family:sans-serif;" y="6" transform="translate(524.6667 938)" fill="#999999">243</text>
<text dominant-baseline="central" text-anchor="middle" style="font-size:12px;font-family:sans-serif;" y="6" transform="translate(560.6667 938)" fill="#999999">270</text>
<text dominant-baseline="central" text-anchor="middle" style="font-size:12px;font-family:sans-serif;" y="6" transform="translate(596.6667 938)" fill="#999999">297</text>
<text dominant-baseline="central" text-anchor="middle" style="font-size:12px;font-family:sans-serif;" y="6" transform="translate(632.6667 938)" fill="#999999">324</text>
<text dominant-baseline="central" text-anchor="middle" style="font-size:12px;font-family:sans-serif;" y="6" transform="translate(668.6667 938)" fill="#999999">351</text>
<text dominant-baseline="central" text-anchor="middle" style="font-size:12px;font-family:sans-serif;" y="6" transform="translate(704.6667 938)" fill="#999999">378</text>
<text dominant-baseline="central" text-anchor="middle" style="font-size:12px;font-family:sans-serif;" y="6" transform="translate(740.6667 938)" fill="#999999">405</text>
<text dominant-baseline="central" text-anchor="middle" style="font-size:12px;font-family:sans-serif;" y="6" transform="translate(776.6667 938)" fill="#999999">432</text>
<text dominant-baseline="central" text-anchor="middle" style="font-size:12px;font-family:sans-serif;" y="6" transform="translate(812.6667 938)" fill="#999999">459</text>
<text dominant-baseline="central" text-anchor="middle" style="font-size:12px;font-family:sans-serif;" y="6" transform="translate(848.6667 938)" fill="#999999">486</text>
<text dominant-baseline="central" text-anchor="middle" style="font-size:12px;font-family:sans-serif;" y="6" transform="translate(884.6667 938)" fill="#999999">513</text>
<text dominant-baseline="central" text-anchor="middle" style="font-size:12px;font-family:sans-serif;" y="6" transform="translate(920.6667 938)" fill="#999999">540</text>
<text dominant-baseline="central" text-anchor="middle" style="font-size:12px;font-family:sans-serif;" y="6" transform="translate(956.6667 938)" fill="#999999">567</text>
<text dominant-baseline="central" text-anchor="middle" style="font-size:12px;font-family:sans-serif;" y="6" transform="translate(992.6667 938)" fill="#999999">594</text>
<text dominant-baseline="central" text-anchor="middle" style="font-size:12px;font-family:sans-serif;" y="6" transform="translate(1028.6667 938)" fill="#999999">621</text>
<text dominant-baseline="central" text-anchor="middle" style="font-size:12px;font-family:sans-serif;" y="6" transform="translate(1064.6667 938)" fill="#999999">648</text>
<text dominant-baseline="central" text-anchor="middle" style="font-size:12px;font-family:sans-serif;" y="6" transform="translate(1100.6667 938)" fill="#999999">675</text>
<text dominant-baseline="central" text-anchor="middle" style="font-size:12px;font-family:sans-serif;" y="6" transform="translate(1136.6667 938)" fill="#999999">702</text>
<text dominant-baseline="central" text-anchor="middle" style="font-size:12px;font-family:sans-serif;" y="6" transform="translate(1172.6667 938)" fill="#999999">729</text>
<text dominant-baseline="central" text-anchor="middle" style="font-size:12px;font-family:sans-serif;" y="6" transform="translate(1208.6667 938)" fill="#999999">756</text>
<text dominant-baseline="central" text-anchor="middle" style="font-size:12px;font-family:sans-serif;" y="6" transform="translate(1244.6667 938)" fill="#999999">783</text>
<text dominant-baseline="central" text-anchor="middle" style="font-size:12px;font-family:sans-serif;" y="6" transform="translate(1280.6667 938)" fill="#999999">810</text>
<text dominant-baseline="central" text-anchor="middle" style="font-size:12px;font-family:sans-serif;" y="6" transform="translate(1316.6667 938)" fill="#999999">837</text>
<text dominant-baseline="central" text-anchor="middle" style="font-size:12px;font-family:sans-serif;" y="6" transform="translate(1352.6667 938)" fill="#999999">864</text>
<text dominant-baseline="central" text-anchor="middle" style="font-size:12px;font-family:sans-serif;" y="6" transform="translate(1388.6667 938)" fill="#999999">891</text>
<text dominant-baseline="central" text-anchor="middle" style="font-size:12px;font-family:sans-serif;" y="6" transform="translate(1424.6667 938)" fill="#999999">918</text>
<text dominant-baseline="central" text-anchor="middle" style="font-size:12px;font-family:sans-serif;" y="6" transform="translate(1460.6667 938)" fill="#999999">945</text>
<text dominant-baseline="central" text-anchor="middle" style="font-size:12px;font-family:sans-serif;" y="6" transform="translate(1496.6667 938)" fill="#999999">972</text>
<text dominant-baseline="central" text-anchor="middle" style="font-size:12px;font-family:sans-serif;" y="6" transform="translate(1532.6667 938)" fill="#999999">999</text>
<text dominant-baseline="central" text-anchor="middle" style="font-size:12px;font-family:sans-serif;" y="6" transform="translate(1568.6667 938)" fill="#999999">1026</text>
<text dominant-baseline="central" text-anchor="middle" style="font-size:12px;font-family:sans-serif;" y="6" transform="translate(1604.6667 938)" fill="#999999">1053</text>
<text dominant-baseline="central" text-anchor="middle" style="font-size:12px;font-family:sans-serif;" y="6" transform="translate(1640.6667 938)" fill="#999999">1080</text>
<text dominant-baseline="central" text-anchor="middle" style="font-size:12px;font-family:sans-serif;" y="6" transform="translate(1676.6667 938)" fill="#999999">1107</text>
<text dominant-baseline="central" text-anchor="middle" style="font-size:12px;font-family:sans-serif;" y="6" transform="translate(1712.6667 938)" fill="#999999">1134</text>
<text dominant-baseline="central" text-anchor="middle" style="font-size:12px;font-family:sans-serif;" y="6" transform="translate(1748.6667 938)" fill="#999999">1161</text>
<text dominant-baseline="central" text-anchor="middle" style="font-size:12px;font-family:sans-serif;" y="6" transform="translate(1784.6667 938)" fill="#999999">1188</text>
<g clip-path="url(#zr43-c0)">
<path d="M200.7 -194.6L202 -144.5L203.3 435.6L204.7 273L206 533.7L207.3 408L208.7 589.4L210 463.2L211.3 522.9L212.7 357.4L214 598.5L215.3 484.4L216.7 538.8L218 394.2L219.3 570.1L220.7 531.9L222 584.9L223.3 517.6L224.7 634.3L226 575.6L227.3 582.5L228.7 562.1L230 625.8L231.3 623.1L232.7 599.8L234 608.8L235.3 637.2L236.7 666.9L238 637.4L239.3 681.2L240.7 627.6L242 683.3L243.3 671.7L244.7 731.6L246 692.6L247.3 722.1L248.7 712L250 726.3L251.3 759.7L252.7 698.2L254 764.2L255.3 732.7L256.7 726.8L258 -244.5L259.3 188.7L260.7 -65.7L262 384.1L263.3 -125.6L264.7 286.5L266 31.9L267.3 376.7L268.7 72.5L270 332.9L271.3 35.4L272.7 462.1L274 41.2L275.3 424.7L276.7 84.4L278 453.9L279.3 155L280.7 443.8L282 244.4L283.3 536.9L284.7 262.9L286 484.4L287.3 248.1L288.7 539L290 295.6L291.3 405.6L292.7 284.1L294 542L295.3 373.5L296.7 540.6L298 378.6L299.3 572.5L300.7 470.6L302 532.7L303.3 473.3L304.7 519.1L306 479.9L307.3 572.7L308.7 508.3L310 553.4L311.3 572.7L312.7 599.2L314 574.6L315.3 569.8L316.7 572.7L318 513.8L319.3 666.1L320.7 588.4L322 696.6L323.3 649.9L324.7 691.6L326 643.8L327.3 675.6L328.7 686L330 693.7L331.3 679.4L332.7 682.8L334 721.3L335.3 690L336.7 704.8L338 -456.1L339.3 152.3L340.7 -269.4L342 341.2L343.3 51L344.7 348.6L346 72.2L347.3 475.1L348.7 127.4L350 402.4L351.3 166.1L352.7 529L354 221.5L355.3 539.8L356.7 231.1L358 519.1L359.3 227.6L360.7 539.6L362 255.8L363.3 555.5L364.7 334.3L366 547.5L367.3 309.9L368.7 552.6L370 408.3L371.3 581.5L372.7 371.4L374 589.2L375.3 428.2L376.7 599.8L378 399.8L379.3 591.6L380.7 508.3L382 605.3L383.3 527.9L384.7 592.1L386 587.6L387.3 616L388.7 610.9L390 585.2L391.3 630.3L392.7 652.8L394 605.1L395.3 652.3L396.7 649.4L398 657.9L399.3 666.9L400.7 664.8L402 717.3L403.3 669.8L404.7 685.7L406 674.6L407.3 708.8L408.7 696.6L410 725.5L411.3 734.5L412.7 740.4L414 725.2L415.3 770.3L416.7 743L418 -272.9L419.3 286.8L420.7 -22.5L422 468.5L423.3 106.7L424.7 447L426 65.9L427.3 502.2L428.7 238.5L430 509.9L431.3 55.8L432.7 517.3L434 277.8L435.3 536.7L436.7 232.7L438 532.9L439.3 226.3L440.7 554.4L442 279.1L443.3 495.8L444.7 307.5L446 550.4L447.3 391.3L448.7 564.2L450 323.7L451.3 588.1L452.7 363.2L454 540.6L455.3 445.7L456.7 557.6L458 446.5L459.3 592.6L460.7 521.3L462 552.6L463.3 519.9L464.7 622.9L466 562.9L467.3 594.2L468.7 577.2L470 633.2L471.3 648.6L472.7 622.6L474 629.8L475.3 616.5L476.7 654.9L478 602.2L479.3 697.1L480.7 648.1L482 693.4L483.3 675.6L484.7 708.3L486 673.8L487.3 761.6L488.7 719.7L490 688.9L491.3 681.7L492.7 715.7L494 744.3L495.3 726.3L496.7 758.7L498 -275.2L499.3 257.1L500.7 -83.7L502 341.2L503.3 93.7L504.7 475.6L506 195L507.3 440.1L508.7 190.5L510 509.6L511.3 111.2L512.7 441.2L514 169.6L515.3 486L516.7 236.7L518 506.7L519.3 220.2L520.7 537.7L522 279.4L523.3 520.2L524.7 340.4L526 536.4L527.3 369L528.7 594.5L530 355.2L531.3 603.5L532.7 418.6L534 599.8L535.3 441.2L536.7 622.6L538 450.2L539.3 590.8L540.7 542L542 508.5L543.3 534.8L544.7 606.4L546 508.8L547.3 610.7L548.7 592.9L550 595.5L551.3 614.4L552.7 611.2L554 643.3L555.3 587.8L556.7 657.3L558 654.4L559.3 686L560.7 648.3L562 707.2L563.3 694.5L564.7 726.6L566 681.7L567.3 708.3L568.7 679.1L570 734.8L571.3 741.2L572.7 695L574 741.9L575.3 739.3L576.7 758.1L578 -243.7L579.3 125.5L580.7 -0.7L582 462.4L583.3 -44.5L584.7 418.4L586 -8.1L587.3 388.6L588.7 -34.7L590 427.4L591.3 26.3L592.7 431.6L594 73L595.3 435.1L596.7 64.8L598 445.4L599.3 193.2L600.7 421.3L602 164.3L603.3 536.7L604.7 228.2L606 487.1L607.3 156L608.7 547.3L610 364.2L611.3 480.2L612.7 320.7L614 535.3L615.3 347.5L616.7 468.8L618 253.6L619.3 585.2L620.7 461.3L622 481.5L623.3 453.4L624.7 597.1L626 490.8L627.3 559.7L628.7 553.6L630 567.2L631.3 586L632.7 610.4L634 603.2L635.3 550.7L636.7 617.8L638 577.2L639.3 667.7L640.7 639.6L642 640.1L643.3 622.9L644.7 691.8L646 647.5L647.3 714.4L648.7 692.6L650 745.7L651.3 683.3L652.7 664.8L654 725.5L655.3 728.7L656.7 750.2L658 -406.8L659.3 177.3L660.7 -493.3L662 368.8L663.3 -13.7L664.7 446.7L666 65.6L667.3 484.9L668.7 223.1L670 513.6L671.3 164.3L672.7 531.3L674 220L675.3 557.6L676.7 181L678 556.5L679.3 313.6L680.7 551.5L682 177.3L683.3 571.4L684.7 340.9L686 562.1L687.3 268.8L688.7 567.4L690 346.2L691.3 580.9L692.7 425.5L694 580.9L695.3 431.9L696.7 602.4L698 488.1L699.3 581.2L700.7 490.8L702 567.4L703.3 514.9L704.7 609.1L706 548.6L707.3 584.4L708.7 599.2L710 630.8L711.3 600.6L712.7 595.5L714 613.3L715.3 630.5L716.7 686L718 606.4L719.3 716L720.7 658.1L722 741.7L723.3 684.7L724.7 725.2L726 681.2L727.3 674.3L728.7 727.4L730 651.8L731.3 724.4L732.7 731.1L734 751L735.3 716.5L736.7 756.8L738 -235.7L739.3 258.4L740.7 -26.2L742 356.6L743.3 86.3L744.7 479.9L746 164L747.3 430.3L748.7 199.5L750 477.2L751.3 187.3L752.7 470.9L754 217.8L755.3 524.7L756.7 174.6L758 500.8L759.3 278.6L760.7 487.8L762 283.6L763.3 586.8L764.7 315.7L766 539.6L767.3 395L768.7 597.7L770 347L771.3 529L772.7 437.5L774 622.3L775.3 446.7L776.7 566.6L778 419.7L779.3 612.2L780.7 529.2L782 583.1L783.3 530.3L784.7 616.2L786 552L787.3 619.4L788.7 582.5L790 607.5L791.3 623.7L792.7 598.5L794 607.2L795.3 619.4L796.7 646.7L798 652L799.3 685.2L800.7 662.6L802 708.5L803.3 662.4L804.7 750.7L806 688.6L807.3 709.3L808.7 687L810 745.9L811.3 739.6L812.7 688.6L814 736.1L815.3 744.3L816.7 752.6L818 -548.7L819.3 218.6L820.7 -14.8L822 406.7L823.3 168.5L824.7 457.9L826 83.6L827.3 512.5L828.7 194L830 467.7L831.3 217.3L832.7 510.7L834 262.4L835.3 456.8L836.7 157.9L838 517.3L839.3 323.1L840.7 454.7L842 278.6L843.3 571.7L844.7 388.4L846 561.8L847.3 361.6L848.7 578.6L850 343.8L851.3 574.1L852.7 416.8L854 614.4L855.3 432.9L856.7 606.4L858 399.8L859.3 600.6L860.7 500.3L862 573.5L863.3 539.3L864.7 619.7L866 566.9L867.3 617L868.7 579.9L870 622.1L871.3 638.8L872.7 554.7L874 633.5L875.3 656L876.7 638.2L878 614.6L879.3 672.5L880.7 661.3L882 670.1L883.3 641.2L884.7 758.7L886 718.9L887.3 684.9L888.7 694.7L890 724.2L891.3 701.6L892.7 666.1L894 766.3L895.3 754.7L896.7 769L898 -219.8L899.3 281.5L900.7 -46.3L902 451.2L903.3 36.7L904.7 344.6L906 54.2L907.3 436.4L908.7 79.1L910 421.3L911.3 -80.3L912.7 408.5L914 136.1L915.3 349.1L916.7 148.1L918 446.2L919.3 158.4L920.7 452.6L922 191.8L923.3 488.6L924.7 184.2L926 411.5L927.3 251.8L928.7 522.6L930 275.1L931.3 482L932.7 226.3L934 523.4L935.3 386.5L936.7 471.9L938 326.3L939.3 529.8L940.7 453.9L942 539.3L943.3 440.4L944.7 520.2L946 535.6L947.3 540.1L948.7 522.3L950 583.1L951.3 521.8L952.7 556.8L954 599.8L955.3 556.3L956.7 579.6L958 646.7L959.3 678.8L960.7 606.7L962 693.9L963.3 631.3L964.7 690.8L966 640.4L967.3 676.2L968.7 696.1L970 688.9L971.3 687.6L972.7 699.8L974 714.9L975.3 714.4L976.7 717.8L978 -412.9L979.3 131.1L980.7 -275.8L982 274.6L983.3 -44L984.7 399.8L986 0.3L987.3 453.6L988.7 153.9L990 470.9L991.3 96.4L992.7 495L994 224.5L995.3 534.8L996.7 142.5L998 556.3L999.3 275.7L1000.7 537.2L1002 178.6L1003.3 489.2L1004.7 307L1006 566.4L1007.3 375.7L1008.7 572.2L1010 356.3L1011.3 586.3L1012.7 389.4L1014 546.5L1015.3 425.3L1016.7 557.9L1018 438.5L1019.3 565.8L1020.7 527.9L1022 582.5L1023.3 507.7L1024.7 589.7L1026 565.8L1027.3 573L1028.7 580.9L1030 640.9L1031.3 573.8L1032.7 620.5L1034 630.5L1035.3 642.5L1036.7 661.8L1038 606.1L1039.3 706.7L1040.7 627.1L1042 701.6L1043.3 677.8L1044.7 683.1L1046 686.8L1047.3 728.4L1048.7 735.6L1050 735.3L1051.3 703L1052.7 730.8L1054 755.7L1055.3 737.7L1056.7 755.2L1058 -334.9L1059.3 229L1060.7 -40.5L1062 348.1L1063.3 71.7L1064.7 458.9L1066 171.9L1067.3 449.7L1068.7 184.9L1070 491.3L1071.3 216.5L1072.7 496.9L1074 196.9L1075.3 523.7L1076.7 196.6L1078 527.9L1079.3 257.1L1080.7 548.6L1082 263.2L1083.3 521L1084.7 309.6L1086 534.5L1087.3 362.7L1088.7 595.8L1090 382.3L1091.3 558.9L1092.7 437.2L1094 573.8L1095.3 354.7L1096.7 584.7L1098 475.4L1099.3 607.2L1100.7 502.2L1102 539L1103.3 569L1104.7 614.4L1106 603.8L1107.3 563.7L1108.7 561.3L1110 630.8L1111.3 618.6L1112.7 631.9L1114 618.1L1115.3 638.8L1116.7 690.2L1118 620.2L1119.3 680.1L1120.7 617.3L1122 701.6L1123.3 671.4L1124.7 691L1126 683.3L1127.3 728.2L1128.7 696.9L1130 706.7L1131.3 720.7L1132.7 693.7L1134 744.6L1135.3 755.7L1136.7 760.5L1138 -507.6L1139.3 250.2L1140.7 -111.1L1142 461.1L1143.3 -13.7L1144.7 440.4L1146 136.7L1147.3 527.9L1148.7 55.5L1150 505.6L1151.3 225.8L1152.7 523.9L1154 234.3L1155.3 413.8L1156.7 127.4L1158 514.1L1159.3 251.8L1160.7 512.5L1162 269L1163.3 541.4L1164.7 302.4L1166 506.4L1167.3 352.8L1168.7 549.4L1170 348.1L1171.3 592.9L1172.7 383.1L1174 590.8L1175.3 443L1176.7 593.1L1178 432.7L1179.3 607.5L1180.7 487.8L1182 599.2L1183.3 552.6L1184.7 560L1186 578L1187.3 590.5L1188.7 593.7L1190 584.7L1191.3 567.4L1192.7 591.8L1194 662.4L1195.3 638L1196.7 642.2L1198 643.3L1199.3 666.9L1200.7 681.2L1202 677L1203.3 675.9L1204.7 733.5L1206 675.4L1207.3 662.9L1208.7 723.9L1210 722.6L1211.3 724.7L1212.7 719.1L1214 712.5L1215.3 727.6L1216.7 770.9L1218 -259.9L1219.3 257.1L1220.7 -80.6L1222 444.1L1223.3 46L1224.7 387.1L1226 56.6L1227.3 438.2L1228.7 90.5L1230 365.8L1231.3 -69.9L1232.7 465.6L1234 111.5L1235.3 392.4L1236.7 171.4L1238 483.3L1239.3 152.1L1240.7 461.3L1242 -66.5L1243.3 521.5L1244.7 252.1L1246 305.6L1247.3 218.9L1248.7 515.4L1250 292.9L1251.3 516L1252.7 279.9L1254 540.1L1255.3 422.3L1256.7 455.2L1258 379.6L1259.3 537.4L1260.7 487.1L1262 525L1263.3 450.2L1264.7 556.3L1266 522.6L1267.3 555.2L1268.7 537.7L1270 544.6L1271.3 532.9L1272.7 592.4L1274 609.6L1275.3 533.2L1276.7 650.2L1278 585.5L1279.3 665L1280.7 654.7L1282 689.4L1283.3 617.5L1284.7 688.6L1286 653.9L1287.3 687.8L1288.7 707.7L1290 648.1L1291.3 734.3L1292.7 696.9L1294 705.9L1295.3 718.1L1296.7 740.6L1298 -521.4L1299.3 -7.6L1300.7 -169.7L1302 206.7L1303.3 -36.3L1304.7 389.4L1306 -92.2L1307.3 442.8L1308.7 172.2L1310 470.9L1311.3 48.9L1312.7 543.5L1314 226.9L1315.3 526.8L1316.7 203.8L1318 487.3L1319.3 236.4L1320.7 496.3L1322 233.2L1323.3 484.1L1324.7 332.9L1326 562.6L1327.3 310.7L1328.7 563.2L1330 373.3L1331.3 586.8L1332.7 414.4L1334 559.2L1335.3 447L1336.7 544.9L1338 407.5L1339.3 579.6L1340.7 481.2L1342 583.1L1343.3 568.2L1344.7 612.2L1346 580.4L1347.3 621.5L1348.7 594.2L1350 573.5L1351.3 534.3L1352.7 569L1354 636.6L1355.3 642.5L1356.7 705.3L1358 604.8L1359.3 675.9L1360.7 648.3L1362 696.9L1363.3 651.5L1364.7 729.7L1366 684.7L1367.3 688.4L1368.7 697.9L1370 700.3L1371.3 716L1372.7 709.9L1374 749.6L1375.3 742.2L1376.7 738.2L1378 -283.7L1379.3 222.6L1380.7 -24.3L1382 390.2L1383.3 62.1L1384.7 360L1386 59.5L1387.3 429.2L1388.7 117.6L1390 505.1L1391.3 154.2L1392.7 471.9L1394 227.9L1395.3 513L1396.7 252.8L1398 455.8L1399.3 315.4L1400.7 533.7L1402 304.6L1403.3 530.3L1404.7 315.2L1406 541.2L1407.3 381L1408.7 596.1L1410 377.8L1411.3 571.7L1412.7 464.8L1414 589.4L1415.3 401.4L1416.7 584.4L1418 391.8L1419.3 623.4L1420.7 547.3L1422 590L1423.3 563.7L1424.7 630L1426 557.6L1427.3 542L1428.7 599.5L1430 612.2L1431.3 613.8L1432.7 622.3L1434 624.2L1435.3 615.2L1436.7 625L1438 648.1L1439.3 666.1L1440.7 653.9L1442 706.7L1443.3 684.1L1444.7 715.2L1446 687.3L1447.3 723.4L1448.7 700.3L1450 717L1451.3 725.2L1452.7 743.8L1454 720.2L1455.3 736.9L1456.7 762.1L1458 -621.6L1459.3 187.1L1460.7 12.3L1462 416.2L1463.3 9.6L1464.7 402.4L1466 61.3L1467.3 514.4L1468.7 12.5L1470 500L1471.3 162.7L1472.7 498.5L1474 237.5L1475.3 516.8L1476.7 258.4L1478 569.3L1479.3 206.7L1480.7 518.6L1482 198.2L1483.3 557.1L1484.7 325L1486 494.2L1487.3 359.5L1488.7 594.5L1490 435.6L1491.3 513.8L1492.7 401.6L1494 588.1L1495.3 494.5L1496.7 628.2L1498 430.6L1499.3 578.8L1500.7 514.6L1502 630.8L1503.3 547.5L1504.7 603.2L1506 554.4L1507.3 635.3L1508.7 557.1L1510 606.9L1511.3 596.6L1512.7 667.4L1514 625L1515.3 590.8L1516.7 678.8L1518 628.4L1519.3 703.8L1520.7 656.8L1522 705.9L1523.3 689.4L1524.7 728.9L1526 665.6L1527.3 684.9L1528.7 708L1530 725L1531.3 727.4L1532.7 642.2L1534 711.7L1535.3 755.5L1536.7 741.9L1538 -226.2L1539.3 80.2L1540.7 -62.8L1542 343L1543.3 114.7L1544.7 413.1L1546 23.4L1547.3 410.7L1548.7 82.6L1550 422.1L1551.3 92.9L1552.7 407L1554 55.2L1555.3 374.9L1556.7 131.6L1558 412.3L1559.3 184.9L1560.7 514.9L1562 206.4L1563.3 518.6L1564.7 187.9L1566 449.4L1567.3 317L1568.7 443.3L1570 329.2L1571.3 519.1L1572.7 275.1L1574 479.4L1575.3 387.9L1576.7 471.7L1578 381.8L1579.3 562.1L1580.7 393.2L1582 517.8L1583.3 426.6L1584.7 534.3L1586 512L1587.3 514.4L1588.7 540.6L1590 569L1591.3 573.8L1592.7 547.8L1594 594.2L1595.3 606.7L1596.7 624.4L1598 595.5L1599.3 644.9L1600.7 567.7L1602 719.9L1603.3 595.3L1604.7 703.2L1606 727.1L1607.3 674.8L1608.7 635.6L1610 643.8L1611.3 671.1L1612.7 695.3L1614 727.6L1615.3 708.5L1616.7 728.9L1618 -437.3L1619.3 76.5L1620.7 -155.1L1622 271.4L1623.3 8.6L1624.7 425L1626 -3.6L1627.3 431.9L1628.7 139.1L1630 431.6L1631.3 78.3L1632.7 484.1L1634 249.9L1635.3 545.4L1636.7 83.6L1638 483.1L1639.3 295.8L1640.7 501.9L1642 137.7L1643.3 526.3L1644.7 375.1L1646 565.8L1647.3 296.9L1648.7 624.2L1650 372.5L1651.3 538.2L1652.7 399.8L1654 582L1655.3 421L1656.7 622.3L1658 486.5L1659.3 608.3L1660.7 536.9L1662 605.6L1663.3 513.8L1664.7 607.5L1666 554.2L1667.3 598.7L1668.7 621L1670 621L1671.3 545.4L1672.7 573.3L1674 609.3L1675.3 598.2L1676.7 674.3L1678 619.9L1679.3 678.3L1680.7 631.1L1682 707.7L1683.3 670.9L1684.7 711.7L1686 712.2L1687.3 736.6L1688.7 728.4L1690 735.8L1691.3 703.2L1692.7 718.3L1694 730.3L1695.3 757.1L1696.7 763.2L1698 -275.5L1699.3 289.5L1700.7 -91.2L1702 408.3L1703.3 91.3L1704.7 457.1L1706 107L1707.3 470.1L1708.7 160.5L1710 501.6L1711.3 192.9L1712.7 443.8L1714 216.2L1715.3 492.1L1716.7 255.8L1718 470.6L1719.3 280.4L1720.7 532.1L1722 333.7L1723.3 483.3L1724.7 379.9L1726 561.3L1727.3 357.9L1728.7 564L1730 376.4L1731.3 598.7L1732.7 421L1734 612.2L1735.3 379.6L1736.7 605.6L1738 469.3L1739.3 604.3L1740.7 456.8L1742 580.9L1743.3 551L1744.7 620.2L1746 551.2L1747.3 560.8L1748.7 593.9L1750 587.6L1751.3 586.8L1752.7 625L1754 640.6L1755.3 647.3L1756.7 672.2L1758 658.4L1759.3 631.6L1760.7 645.1L1762 697.4L1763.3 625L1764.7 752.8L1766 609.1L1767.3 719.9L1768.7 698.4L1770 748.6L1771.3 738.2L1772.7 680.9L1774 708.5L1775.3 740.6L1776.7 741.4L1778 -545L1779.3 244.9L1780.7 -67L1782 374.9L1783.3 -122.7L1784.7 378.6L1786 67.7L1787.3 502.7L1788.7 -24.3L1790 462.7L1791.3 165.1L1792.7 526.8L1794 103.5L1795.3 469L1796.7 245.4L1798 584.9L1799.3 269.6" fill="transparent" stroke="#3fb1e3" stroke-width="3" stroke-linejoin="bevel" class="zr43-cls-131"></path>
</g>
<path d="M-315.9 -5l631.7 0l0 28l-631.7 0Z" transform="translate(1000 5)" fill="rgb(0,0,0)" fill-opacity="0" stroke="#ccc" stroke-width="0" class="zr43-cls-129"></path>
<text dominant-baseline="central" text-anchor="middle" style="font-size:18px;font-family:sans-serif;font-weight:bold;" xml:space="preserve" y="9" transform="translate(1000 5)" fill="#666666">Min transportLinesUpdate per Tick for bench_1_every_60_staggered_reverse</text>
<defs >
<clipPath id="zr43-c0">
<path d="M198 58.5l16004 0l0 8703l-16004 0Z" fill="#000" class="zr43-cls-130"></path>
</clipPath>
</defs>
<style ><![CDATA[
.zr43-cls-129:hover {
pointer-events:none;
}
.zr43-cls-130:hover {
cursor:pointer;
fill:rgba(0,0,0,1);
}
.zr43-cls-131:hover {
cursor:pointer;
}

]]>

</style>
</svg>