<svg width="2000" height="1000" xmlns="http://www.w3.org/2000/svg" xmlns:xlink="http://www.w3.org/1999/xlink" version="1.1" baseProfile="full" viewBox="0 0 2000 1000">
<rect width="2000" height="1000" x="0" y="0" fill="rgb(252,252,252)" fill-opacity="0"></rect>
<path d="M200 930.5L1800 930.5" fill="transparent" stroke="#eeeeee" class="zr7-cls-21"></path>
<path d="M200 743.5L1800 743.5" fill="transparent" stroke="#eeeeee" class="zr7-cls-21"></path>
<path d="M200 556.5L1800 556.5" fill="transparent" stroke="#eeeeee" class="zr7-cls-21"></path>
<path d="M200 370.5L1800 370.5" fill="transparent" stroke="#eeeeee" class="zr7-cls-21"></path>
<path d="M200 183.5L1800 183.5" fill="transparent" stroke="#eeeeee" class="zr7-cls-21"></path>
<path d="M200 60.5L1800 60.5" fill="transparent" stroke="#eeeeee" class="zr7-cls-21"></path>
<path d="M200.5 930L200.5 60" fill="transparent" stroke="#cccccc" stroke-linecap="round" class="zr7-cls-21"></path>
<text dominant-baseline="central" text-anchor="middle" style="font-size:12px;font-family:sans-serif;" xml:space="preserve" y="-6" transform="translate(200 45)" fill="#cccccc">Min entityUpdate Time (ms)</text>
<path d="M200 930.5L1800 930.5" fill="transparent" stroke="#cccccc" stroke-linecap="round" class="zr7-cls-21"></path>
<text dominant-baseline="central" text-anchor="end" style="font-size:12px;font-family:sans-serif;" transform="translate(192 930)" fill="#999999">0.000</text>
<text dominant-baseline="central" text-anchor="end" style="font-size:12px;font-family:sans-serif;" transform="translate(192 743.2702)" fill="#999999">1.000</text>
<text dominant-baseline="central" text-anchor="end" style="font-size:12px;font-family:sans-serif;" transform="translate(192 556.5403)" fill="#999999">2.000</text>
<text dominant-baseline="central" text-anchor="end" style="font-size:12px;font-family:sans-serif;" transform="translate(192 369.8105)" fill="#999999">3.000</text>
<text dominant-baseline="central" text-anchor="end" style="font-size:12px;font-family:sans-serif;" transform="translate(192 183.0807)" fill="#999999">4.000</text>
<text dominant-baseline="central" text-anchor="end" style="font-size:12px;font-family:sans-serif;" transform="translate(192 60)" fill="#999999">4.659</text>
<text dominant-baseline="central" text-anchor="middle" style="font-size:12px;font-family:sans-serif;" y="6" transform="translate(200.6667 938)" fill="#999999">0</text>
<text dominant-baseline="central" text-anchor="middle" style="font-size:12px;font-family:sans-serif;" y="6" transform="translate(236.6667 938)" fill="#999999">27</text>
<text dominant-baseline="central" text-anchor="middle" style="font-size:12px;font-family:sans-serif;" y="6" transform="translate(272.6667 938)" fill="#999999">54</text>
<text dominant-baseline="central" text-anchor="middle" style="font-size:12px;font-family:sans-serif;" y="6" transform="translate(308.6667 938)" fill="#999999">81</text>
<text dominant-baseline="central" text-anchor="middle" style="font-size:12px;font-family:sans-serif;" y="6" transform="translate(344.6667 938)" fill="#999999">108</text>
<text dominant-baseline="central" text-anchor="middle" style="font-size:12px;font-family:sans-serif;" y="6" transform="translate(380.6667 938)" fill="#999999">135</text>
<text dominant-baseline="central" text-anchor="middle" style="font-size:12px;font-family:sans-serif;" y="6" transform="translate(416.6667 938)" fill="#999999">162</text>
<text dominant-baseline="central" text-anchor="middle" style="font-size:12px;font-family:sans-serif;" y="6" transform="translate(452.6667 938)" fill="#999999">189</text>
<text dominant-baseline="central" text-anchor="middle" style="font-size:12px;font-family:sans-serif;" y="6" transform="translate(488.6667 938)" fill="#999999">216</text>
<text dominant-baseline="central" text-anchor="middle" style="font-size:12px;font-family:sans-serif;" y="6" transform="translate(524.6667 938)" fill="#999999">243</text>
<text dominant-baseline="central" text-anchor="middle" style="font-size:12px;font-family:sans-serif;" y="6" transform="translate(560.6667 938)" fill="#999999">270</text>
<text dominant-baseline="central" text-anchor="middle" style="font-size:12px;font-family:sans-serif;" y="6" transform="translate(596.6667 938)" fill="#999999">297</text>
<text dominant-baseline="central" text-anchor="middle" style="font-size:12px;font-family:sans-serif;" y="6" transform="translate(632.6667 938)" fill="#999999">324</text>
<text dominant-baseline="central" text-anchor="middle" style="font-size:12px;font-family:sans-serif;" y="6" transform="translate(668.6667 938)" fill="#999999">351</text>
<text dominant-baseline="central" text-anchor="middle" style="font-size:12px;font-family:sans-serif;" y="6" transform="translate(704.6667 938)" fill="#999999">378</text>
<text dominant-baseline="central" text-anchor="middle" style="font-size:12px;font-family:sans-serif;" y="6" transform="translate(740.6667 938)" fill="#999999">405</text>
<text dominant-baseline="central" text-anchor="middle" style="font-size:12px;font-family:sans-serif;" y="6" transform="translate(776.6667 938)" fill="#999999">432</text>
<text dominant-baseline="central" text-anchor="middle" style="font-size:12px;font-family:sans-serif;" y="6" transform="translate(812.6667 938)" fill="#999999">459</text>
<text dominant-baseline="central" text-anchor="middle" style="font-size:12px;font-family:sans-serif;" y="6" transform="translate(848.6667 938)" fill="#999999">486</text>
<text dominant-baseline="central" text-anchor="middle" style="font-size:12px;font-family:sans-serif;" y="6" transform="translate(884.6667 938)" fill="#999999">513</text>
<text dominant-baseline="central" text-anchor="middle" style="font-size:12px;font-family:sans-serif;" y="6" transform="translate(920.6667 938)" fill="#999999">540</text>
<text dominant-baseline="central" text-anchor="middle" style="font-size:12px;font-family:sans-serif;" y="6" transform="translate(956.6667 938)" fill="#999999">567</text>
<text dominant-baseline="central" text-anchor="middle" style="font-size:12px;font-family:sans-serif;" y="6" transform="translate(992.6667 938)" fill="#999999">594</text>
<text dominant-baseline="central" text-anchor="middle" style="font-size:12px;font-family:sans-serif;" y="6" transform="translate(1028.6667 938)" fill="#999999">621</text>
<text dominant-baseline="central" text-anchor="middle" style="font-size:12px;font-family:sans-serif;" y="6" transform="translate(1064.6667 938)" fill="#999999">648</text>
<text dominant-baseline="central" text-anchor="middle" style="font-size:12px;font-family:sans-serif;" y="6" transform="translate(1100.6667 938)" fill="#999999">675</text>
<text dominant-baseline="central" text-anchor="middle" style="font-size:12px;font-family:sans-serif;" y="6" transform="translate(1136.6667 938)" fill="#999999">702</text>
<text dominant-baseline="central" text-anchor="middle" style="font-size:12px;font-family:sans-serif;" y="6" transform="translate(1172.6667 938)" fill="#999999">729</text>
<text dominant-baseline="central" text-anchor="middle" style="font-size:12px;font-family:sans-serif;" y="6" transform="translate(1208.6667 938)" fill="#999999">756</text>
<text dominant-baseline="central" text-anchor="middle" style="font-size:12px;font-family:sans-serif;" y="6" transform="translate(1244.6667 938)" fill="#999999">783</text>
<text dominant-baseline="central" text-anchor="middle" style="font-size:12px;font-family:sans-serif;" y="6" transform="translate(1280.6667 938)" fill="#999999">810</text>
<text dominant-baseline="central" text-anchor="middle" style="font-size:12px;font-family:sans-serif;" y="6" transform="translate(1316.6667 938)" fill="#999999">837</text>
<text dominant-baseline="central" text-anchor="middle" style="font-size:12px;font-family:sans-serif;" y="6" transform="translate(1352.6667 938)" fill="#999999">864</text>
<text dominant-baseline="central" text-anchor="middle" style="font-size:12px;font-family:sans-serif;" y="6" transform="translate(1388.6667 938)" fill="#999999">891</text>
<text dominant-baseline="central" text-anchor="middle" style="font-size:12px;font-family:sans-serif;" y="6" transform="translate(1424.6667 938)" fill="#999999">918</text>
<text dominant-baseline="central" text-anchor="middle" style="font-size:12px;font-family:sans-serif;" y="6" transform="translate(1460.6667 938)" fill="#999999">945</text>
<text dominant-baseline="central" text-anchor="middle" style="font-size:12px;font-family:sans-serif;" y="6" transform="translate(1496.6667 938)" fill="#999999">972</text>
<text dominant-baseline="central" text-anchor="middle" style="font-size:12px;font-family:sans-serif;" y="6" transform="translate(1532.6667 938)" fill="#999999">999</text>
<text dominant-baseline="central" text-anchor="middle" style="font-size:12px;font-family:sans-serif;" y="6" transform="translate(1568.6667 938)" fill="#999999">1026</text>
<text dominant-baseline="central" text-anchor="middle" style="font-size:12px;font-family:sans-serif;" y="6" transform="translate(1604.6667 938)" fill="#999999">1053</text>
<text dominant-baseline="central" text-anchor="middle" style="font-size:12px;font-family:sans-serif;" y="6" transform="translate(1640.6667 938)" fill="#999999">1080</text>
<text dominant-baseline="central" text-anchor="middle" style="font-size:12px;font-family:sans-serif;" y="6" transform="translate(1676.6667 938)" fill="#999999">1107</text>
<text dominant-baseline="central" text-anchor="middle" style="font-size:12px;font-family:sans-serif;" y="6" transform="translate(1712.6667 938)" fill="#999999">1134</text>
<text dominant-baseline="central" text-anchor="middle" style="font-size:12px;font-family:sans-serif;" y="6" transform="translate(1748.6667 938)" fill="#999999">1161</text>
<text dominant-baseline="central" text-anchor="middle" style="font-size:12px;font-family:sans-serif;" y="6" transform="translate(1784.6667 938)" fill="#999999">1188</text>
<g clip-path="url(#zr7-c0)">
<path d="M200.7 562.7L202 544L203.3 768.6L204.7 623.1L206 760.5L207.3 608.5L208.7 741.4L210 616.1L211.3 748.7L212.7 598.3L214 736.1L215.3 608.2L216.7 764.8L218 594.5L219.3 741.5L220.7 626.9L222 729.8L223.3 595.3L224.7 740.7L226 629.7L227.3 741.6L228.7 597L230 740.3L231.3 594.3L232.7 744.3L234 578.3L235.3 749.4L236.7 610.9L238 770.9L239.3 593L240.7 756.4L242 625.1L243.3 766.1L244.7 578.2L246 736.8L247.3 608.5L248.7 767.8L250 579.8L251.3 737.5L252.7 604.5L254 742.8L255.3 588.2L256.7 751.7L258 617.1L259.3 736.7L260.7 584.9L262 730.4L263.3 611.3L264.7 744.2L266 573L267.3 734.7L268.7 606.7L270 747.5L271.3 741.5L272.7 810.3L274 754.1L275.3 813.8L276.7 762.2L278 817.1L279.3 783.7L280.7 819.5L282 760.8L283.3 825L284.7 784.2L286 823.3L287.3 762.7L288.7 821.4L290 784.2L291.3 824.6L292.7 762.5L294 825.3L295.3 777.9L296.7 824L298 763.3L299.3 824.6L300.7 782.1L302 823.5L303.3 759.1L304.7 814.5L306 783.3L307.3 823.7L308.7 757.1L310 824.6L311.3 782.1L312.7 822.7L314 759.8L315.3 822.2L316.7 781L318 820.1L319.3 762.4L320.7 818.7L322 783.9L323.3 824.2L324.7 765.2L326 825.2L327.3 783.8L328.7 819.2L330 749.6L331.3 823.1L332.7 784.9L334 816.9L335.3 763.7L336.7 820.8L338 777.7L339.3 822L340.7 766L342 813.7L343.3 789.5L344.7 816.2L346 773.7L347.3 823.6L348.7 788L350 825L351.3 762.2L352.7 824.9L354 787L355.3 824.9L356.7 765.1L358 823.1L359.3 784.4L360.7 822.1L362 763.9L363.3 825.8L364.7 783.9L366 824.2L367.3 757.5L368.7 826L370 783.3L371.3 822.5L372.7 766.3L374 824.4L375.3 780.3L376.7 821.5L378 764.1L379.3 823.2L380.7 764L382 824.2L383.3 760.7L384.7 821L386 783.4L387.3 821.8L388.7 749.1L390 823.6L391.3 785.4L392.7 819.5L394 763.7L395.3 822L396.7 784.4L398 823.6L399.3 767L400.7 822L402 782.7L403.3 823.2L404.7 765.3L406 823.7L407.3 760.5L408.7 814.8L410 759.1L411.3 821.1L412.7 784.1L414 821.9L415.3 765.6L416.7 823.7L418 780.8L419.3 819.8L420.7 766.1L422 823.1L423.3 790.3L424.7 823L426 773.3L427.3 823.9L428.7 785.2L430 822.7L431.3 748.7L432.7 822.5L434 786.1L435.3 821.2L436.7 759.4L438 823.3L439.3 786.1L440.7 826.1L442 766.1L443.3 824.7L444.7 767.1L446 821.5L447.3 763L448.7 826.3L450 783.4L451.3 824.1L452.7 761.8L454 825.5L455.3 765.1L456.7 825.6L458 766.2L459.3 822.4L460.7 784.2L462 824.5L463.3 766.7L464.7 826.2L466 772.6L467.3 825.8L468.7 761.6L470 822.9L471.3 785.6L472.7 818.5L474 768.3L475.3 822L476.7 783.7L478 823.9L479.3 762.2L480.7 813.8L482 782.3L483.3 819.2L484.7 764.9L486 817.7L487.3 767.9L488.7 823.6L490 766L491.3 825.9L492.7 781.4L494 823.1L495.3 746.2L496.7 822.1L498 784.9L499.3 817.3L500.7 763.5L502 805.7L503.3 788.5L504.7 822.7L506 774.8L507.3 825.3L508.7 780.1L510 820.7L511.3 603.9L512.7 751.8L514 604.5L515.3 745.2L516.7 588.2L518 714L519.3 598.8L520.7 714.9L522 569.3L523.3 725.9L524.7 582.9L526 715.2L527.3 582.6L528.7 716.9L530 615.5L531.3 735.6L532.7 589.6L534 747.7L535.3 604.2L536.7 744.4L538 568L539.3 758.1L540.7 619.3L542 747.7L543.3 585.1L544.7 706.7L546 600.2L547.3 741.6L548.7 560L550 747.5L551.3 597.2L552.7 743.7L554 574.2L555.3 740.5L556.7 590.2L558 727L559.3 583.6L560.7 762.9L562 624.7L563.3 770.2L564.7 589.5L566 739.3L567.3 615.6L568.7 738.5L570 588.4L571.3 761L572.7 600.4L574 744L575.3 567.5L576.7 726.4L578 598.1L579.3 732.6L580.7 571.3L582 733.1L583.3 583.7L584.7 739.8L586 574.6L587.3 736.2L588.7 613.3L590 739.9L591.3 742.2L592.7 819.3L594 779.5L595.3 825.3L596.7 765.6L598 817.3L599.3 783.7L600.7 824L602 764.6L603.3 826.8L604.7 785.7L606 821L607.3 758.4L608.7 815.8L610 783.5L611.3 825.7L612.7 765.3L614 826.7L615.3 784.9L616.7 820.1L618 758.5L619.3 811.4L620.7 785.2L622 825.4L623.3 759.5L624.7 822.4L626 782.6L627.3 819.4L628.7 765.1L630 823.3L631.3 784.6L632.7 823.1L634 759.8L635.3 817.5L636.7 786.4L638 825.2L639.3 762.3L640.7 803.7L642 783.6L643.3 803L644.7 753.1L646 806.8L647.3 782.8L648.7 821.4L650 758.5L651.3 825L652.7 783.1L654 825L655.3 762.3L656.7 822.2L658 785.4L659.3 822.4L660.7 762.3L662 819.9L663.3 792.1L664.7 823.3L666 772.5L667.3 824.5L668.7 786.6L670 824L671.3 768.3L672.7 826L674 786L675.3 816.9L676.7 762.3L678 801.4L679.3 783.3L680.7 802.3L682 760.6L683.3 825.5L684.7 783.2L686 823.5L687.3 764.2L688.7 825.1L690 783.8L691.3 818L692.7 762.1L694 822L695.3 784.7L696.7 824.5L698 761L699.3 823.7L700.7 783.4L702 823L703.3 765.5L704.7 822.4L706 785.5L707.3 824.3L708.7 764.4L710 823.8L711.3 784.7L712.7 801.5L714 764.8L715.3 810.9L716.7 778.9L718 819.4L719.3 760.2L720.7 820.9L722 785.1L723.3 824.4L724.7 766.4L726 821.5L727.3 774.4L728.7 816.5L730 764.7L731.3 820.8L732.7 783.4L734 818.1L735.3 762.8L736.7 815.3L738 781.7L739.3 816.4L740.7 744.9L742 816L743.3 786.6L744.7 819.5L746 769.4L747.3 822.7L748.7 785.2L750 819.2L751.3 758.1L752.7 823.4L754 785.2L755.3 824.7L756.7 766.2L758 824.4L759.3 785.4L760.7 824.3L762 764.8L763.3 822.4L764.7 773.5L766 802.6L767.3 759.3L768.7 825.1L770 785.5L771.3 825.2L772.7 765L774 825.7L775.3 784.1L776.7 824.6L778 759.8L779.3 825.2L780.7 766.9L782 824.6L783.3 765.2L784.7 824.3L786 784.5L787.3 824.3L788.7 766.6L790 825L791.3 782.6L792.7 823.5L794 759.2L795.3 824.1L796.7 785.7L798 824.3L799.3 765L800.7 822.3L802 784.3L803.3 824.7L804.7 766.5L806 823.1L807.3 783.2L808.7 821.1L810 760.8L811.3 824.3L812.7 785.5L814 823.5L815.3 760.8L816.7 820.4L818 784.4L819.3 823L820.7 761.3L822 823.7L823.3 784.3L824.7 819.2L826 770.5L827.3 825.7L828.7 781.7L830 821.8L831.3 613.2L832.7 748.3L834 606.9L835.3 720.9L836.7 562.2L838 743.7L839.3 617.4L840.7 751.2L842 594L843.3 745.7L844.7 595.5L846 705.9L847.3 576.6L848.7 768.2L850 625.1L851.3 739.6L852.7 587.5L854 769.1L855.3 630.6L856.7 769.2L858 581.6L859.3 744.6L860.7 611L862 738.8L863.3 595.6L864.7 765.8L866 625.3L867.3 756.8L868.7 578.1L870 755.5L871.3 625.4L872.7 773.4L874 588.2L875.3 747.4L876.7 606.5L878 729.1L879.3 595.6L880.7 734.9L882 606.8L883.3 745.8L884.7 586.7L886 738.6L887.3 616.3L888.7 732.1L890 593.3L891.3 722L892.7 599.6L894 766.8L895.3 578.4L896.7 734.2L898 598.3L899.3 704.7L900.7 579.8L902 735.9L903.3 611.6L904.7 728.5L906 591.8L907.3 740.1L908.7 617.6L910 751L911.3 745.7L912.7 817.8L914 778L915.3 823.8L916.7 761.9L918 808L919.3 770.2L920.7 819.5L922 762.6L923.3 812.7L924.7 782.7L926 823.4L927.3 764.2L928.7 826.3L930 784.7L931.3 825.1L932.7 762.1L934 824.9L935.3 762.6L936.7 824.6L938 765.5L939.3 826.4L940.7 783.6L942 805.9L943.3 764.5L944.7 825.7L946 785L947.3 823.4L948.7 759.9L950 820.7L951.3 782.2L952.7 823.9L954 762.2L955.3 823.4L956.7 775.9L958 823.2L959.3 760.2L960.7 823.2L962 785.1L963.3 824L964.7 765.7L966 821.7L967.3 784.3L968.7 823L970 761.9L971.3 825.4L972.7 785.3L974 821.2L975.3 764.7L976.7 823.9L978 786.7L979.3 824.3L980.7 768.2L982 821L983.3 789.4L984.7 823.5L986 774.8L987.3 825.9L988.7 789.7L990 824.1L991.3 762.1L992.7 819.5L994 786.6L995.3 823.7L996.7 766.4L998 824.5L999.3 779.7L1000.7 822.5L1002 762.5L1003.3 825L1004.7 785.8L1006 826.2L1007.3 739.6L1008.7 822.5L1010 786.2L1011.3 812L1012.7 765.2L1014 826.7L1015.3 784.8L1016.7 823.7L1018 760.6L1019.3 826L1020.7 786.7L1022 823.2L1023.3 764.9L1024.7 822.3L1026 785.1L1027.3 816.9L1028.7 764.3L1030 824L1031.3 783.4L1032.7 805.1L1034 765.8L1035.3 825.6L1036.7 785.1L1038 825.1L1039.3 763.2L1040.7 821.9L1042 778.8L1043.3 814L1044.7 766.3L1046 824.5L1047.3 782.3L1048.7 819.6L1050 760.7L1051.3 823.6L1052.7 784.2L1054 821.3L1055.3 767.2L1056.7 817.7L1058 784.2L1059.3 821.3L1060.7 766.7L1062 825L1063.3 792.1L1064.7 818.5L1066 771.5L1067.3 822.1L1068.7 773.6L1070 823.5L1071.3 764.6L1072.7 823L1074 783L1075.3 821.8L1076.7 761.2L1078 824.2L1079.3 768.4L1080.7 824.3L1082 763.3L1083.3 803.2L1084.7 785.3L1086 825.1L1087.3 766.7L1088.7 827.8L1090 779.9L1091.3 822.6L1092.7 764.1L1094 814.8L1095.3 787.1L1096.7 826.5L1098 766.4L1099.3 822.1L1100.7 785.3L1102 825L1103.3 764.9L1104.7 826.5L1106 769.5L1107.3 823.6L1108.7 764.2L1110 823.8L1111.3 786.9L1112.7 823.3L1114 768.2L1115.3 822.3L1116.7 784.1L1118 822.4L1119.3 763.2L1120.7 822.2L1122 786.6L1123.3 822.5L1124.7 765.5L1126 824.4L1127.3 783.3L1128.7 822L1130 758.7L1131.3 819.2L1132.7 775.4L1134 823.3L1135.3 762.4L1136.7 813.1L1138 787.5L1139.3 821.1L1140.7 763.4L1142 822.9L1143.3 789.4L1144.7 821.1L1146 773.1L1147.3 824.3L1148.7 775.3L1150 820.7L1151.3 607.1L1152.7 728.1L1154 612.2L1155.3 721.3L1156.7 597.3L1158 743.6L1159.3 603.1L1160.7 746.2L1162 589.4L1163.3 749.7L1164.7 595L1166 745L1167.3 589.1L1168.7 710.7L1170 603.9L1171.3 745.6L1172.7 588.8L1174 720.8L1175.3 599.9L1176.7 743.7L1178 582.1L1179.3 721.9L1180.7 608.8L1182 743.5L1183.3 589.2L1184.7 758.2L1186 597.5L1187.3 714.8L1188.7 561.3L1190 737.3L1191.3 611.4L1192.7 739.7L1194 571L1195.3 739L1196.7 588.3L1198 743L1199.3 578.7L1200.7 721.1L1202 617L1203.3 743.6L1204.7 593.7L1206 765.3L1207.3 607.8L1208.7 762L1210 566.3L1211.3 713.1L1212.7 611.8L1214 735L1215.3 570.5L1216.7 731.1L1218 615.4L1219.3 767L1220.7 591L1222 761.4L1223.3 614L1224.7 718.8L1226 582.1L1227.3 719.1L1228.7 625.9L1230 750.2L1231.3 745.6L1232.7 817.9L1234 776.5L1235.3 808.5L1236.7 764.1L1238 826.8L1239.3 777.4L1240.7 824.7L1242 754.9L1243.3 808L1244.7 785.9L1246 824.5L1247.3 759.4L1248.7 825.5L1250 783.9L1251.3 822L1252.7 764.9L1254 826.2L1255.3 782.6L1256.7 824.1L1258 763.2L1259.3 826.2L1260.7 780L1262 826.1L1263.3 749.5L1264.7 819.9L1266 783.7L1267.3 822.5L1268.7 748L1270 804.5L1271.3 781.7L1272.7 822.7L1274 761.6L1275.3 816.1L1276.7 786L1278 824.6L1279.3 747.7L1280.7 821.2L1282 783.5L1283.3 824.4L1284.7 762.9L1286 823.2L1287.3 781L1288.7 822L1290 759.9L1291.3 825L1292.7 785.2L1294 823.4L1295.3 764L1296.7 821.2L1298 775.6L1299.3 824.9L1300.7 765.1L1302 825.5L1303.3 769.6L1304.7 816.4L1306 771L1307.3 821.8L1308.7 788.1L1310 822.3L1311.3 766L1312.7 802L1314 785.1L1315.3 824.2L1316.7 763.6L1318 825L1319.3 781.7L1320.7 826.6L1322 766.3L1323.3 826.1L1324.7 785.7L1326 824.6L1327.3 760.6L1328.7 804.3L1330 784.4L1331.3 824.2L1332.7 766.8L1334 826.4L1335.3 785.9L1336.7 825.2L1338 761.6L1339.3 823.5L1340.7 784.5L1342 824.9L1343.3 767.3L1344.7 824.1L1346 784L1347.3 820.8L1348.7 766L1350 823.4L1351.3 785.7L1352.7 825.7L1354 766.1L1355.3 820.5L1356.7 785.3L1358 824.2L1359.3 765.4L1360.7 826.1L1362 784.5L1363.3 823.5L1364.7 763.8L1366 825L1367.3 786.6L1368.7 823.2L1370 764.1L1371.3 820.8L1372.7 784.4L1374 823.4L1375.3 768L1376.7 809.4L1378 787.9L1379.3 818.1L1380.7 760.7L1382 821.5L1383.3 791.4L1384.7 821.9L1386 771.6L1387.3 821.6L1388.7 784.1L1390 822.1L1391.3 767.4L1392.7 826.8L1394 789.2L1395.3 825.4L1396.7 766L1398 826.3L1399.3 785.1L1400.7 818.9L1402 744L1403.3 826.5L1404.7 783.3L1406 813.8L1407.3 763.7L1408.7 826.6L1410 787.4L1411.3 826.3L1412.7 761L1414 823.9L1415.3 786.8L1416.7 823.7L1418 764L1419.3 818.7L1420.7 781.2L1422 822.4L1423.3 764.8L1424.7 825.6L1426 785.8L1427.3 825.8L1428.7 768.4L1430 823.4L1431.3 784.9L1432.7 824.2L1434 766.7L1435.3 825.8L1436.7 782.7L1438 820.5L1439.3 763.4L1440.7 824.2L1442 783L1443.3 823.3L1444.7 765.6L1446 810.3L1447.3 783.7L1448.7 822.8L1450 762.5L1451.3 825.9L1452.7 784.9L1454 820.6L1455.3 760L1456.7 824.8L1458 788L1459.3 825L1460.7 763.7L1462 819.6L1463.3 787.5L1464.7 822L1466 772.3L1467.3 819.2L1468.7 782.8L1470 821.2L1471.3 608.5L1472.7 757.4L1474 629.5L1475.3 753.1L1476.7 590.2L1478 719.4L1479.3 579.7L1480.7 723.1L1482 583.6L1483.3 715.3L1484.7 580.5L1486 750.3L1487.3 566.7L1488.7 715.2L1490 573.6L1491.3 709.7L1492.7 570.6L1494 712.5L1495.3 593.1L1496.7 724.5L1498 582.9L1499.3 754.3L1500.7 601.3L1502 744.2L1503.3 585.4L1504.7 744L1506 611.6L1507.3 752.3L1508.7 575.9L1510 738.2L1511.3 610.3L1512.7 757.8L1514 583.2L1515.3 735.4L1516.7 593.9L1518 732.9L1519.3 591.6L1520.7 745.5L1522 602.1L1523.3 744.3L1524.7 599.2L1526 734.8L1527.3 582.2L1528.7 751.7L1530 588.9L1531.3 711.5L1532.7 596.1L1534 758.5L1535.3 581.7L1536.7 737.3L1538 603.4L1539.3 739.6L1540.7 570.8L1542 740.1L1543.3 603.7L1544.7 732L1546 597.5L1547.3 713.6L1548.7 628.8L1550 752.5L1551.3 725.1L1552.7 809.8L1554 771.7L1555.3 821.2L1556.7 761.9L1558 821.6L1559.3 780.6L1560.7 821.3L1562 764.1L1563.3 825.3L1564.7 785.2L1566 822.9L1567.3 764.2L1568.7 816.7L1570 784.8L1571.3 822.3L1572.7 765.1L1574 826.2L1575.3 783.5L1576.7 826.4L1578 764.5L1579.3 819L1580.7 779L1582 824.6L1583.3 763.6L1584.7 813.7L1586 786.1L1587.3 816.8L1588.7 757.2L1590 823.4L1591.3 782.7L1592.7 823.4L1594 764.6L1595.3 819.9L1596.7 784.2L1598 823.6L1599.3 760.6L1600.7 822.9L1602 780.4L1603.3 823.1L1604.7 762.2L1606 822.9L1607.3 784.7L1608.7 823L1610 761.7L1611.3 821.7L1612.7 781.1L1614 820.3L1615.3 765.1L1616.7 817.9L1618 784.5L1619.3 820.8L1620.7 763.9L1622 824.5L1623.3 789.7L1624.7 802.7L1626 773.1L1627.3 820.9L1628.7 783.5L1630 823L1631.3 766.9L1632.7 826L1634 787.8L1635.3 800.1L1636.7 765.8L1638 819.6L1639.3 780.6L1640.7 821.7L1642 766.9L1643.3 809.7L1644.7 781.5L1646 822.6L1647.3 761.2L1648.7 823.2L1650 786L1651.3 814.2L1652.7 764.9L1654 824.1L1655.3 785.8L1656.7 813.2L1658 764L1659.3 824.7L1660.7 783.1L1662 823L1663.3 765.9L1664.7 825.6L1666 784.9L1667.3 824.6L1668.7 761.4L1670 819.7L1671.3 784.9L1672.7 825.3L1674 767L1675.3 824.9L1676.7 770.8L1678 799.5L1679.3 765.1L1680.7 803.1L1682 785.3L1683.3 824.9L1684.7 763.1L1686 823.2L1687.3 783.2L1688.7 824.2L1690 758.9L1691.3 823.7L1692.7 783.4L1694 819.6L1695.3 763.8L1696.7 808.7L1698 786L1699.3 824.8L1700.7 763.3L1702 822L1703.3 788.5L1704.7 816.5L1706 773.6L1707.3 817.1L1708.7 788.8L1710 823L1711.3 754.9L1712.7 825L1714 787.9L1715.3 826.4L1716.7 764.6L1718 804L1719.3 783.9L1720.7 819.5L1722 762.4L1723.3 822.3L1724.7 784.2L1726 824.9L1727.3 766.1L1728.7 824L1730 784.9L1731.3 825.7L1732.7 761.4L1734 822.7L1735.3 784.7L1736.7 823.5L1738 765.8L1739.3 821.3L1740.7 781.2L1742 818.4L1743.3 764.3L1744.7 823.7L1746 780.7L1747.3 823.2L1748.7 764.2L1750 825.8L1751.3 784.4L1752.7 813.7L1754 765.9L1755.3 824.8L1756.7 764.6L1758 825.8L1759.3 761.6L1760.7 807.5L1762 784.5L1763.3 824.5L1764.7 767.1L1766 815.7L1767.3 785.5L1768.7 819L1770 763L1771.3 824.3L1772.7 784.9L1774 825.2L1775.3 765.2L1776.7 822.2L1778 785.9L1779.3 817.9L1780.7 766.9L1782 826.2L1783.3 786.2L1784.7 821L1786 773L1787.3 825.4L1788.7 781.3L1790 821.8L1791.3 611.2L1792.7 751.8L1794 625.1L1795.3 725.1L1796.7 591.3L1798 739.7L1799.3 618.6" fill="transparent" stroke="#3fb1e3" stroke-width="3" stroke-linejoin="bevel" class="zr7-cls-23"></path>
</g>
<path d="M-245.1 -5l490.2 0l0 28l-490.2 0Z" transform="translate(1000 5)" fill="rgb(0,0,0)" fill-opacity="0" stroke="#ccc" stroke-width="0" class="zr7-cls-21"></path>
<text dominant-baseline="central" text-anchor="middle" style="font-size:18px;font-family:sans-serif;font-weight:bold;" xml:space="preserve" y="9" transform="translate(1000 5)" fill="#666666">Min entityUpdate per Tick for bench_1_every_60_staggered</text>
<defs >
<clipPath id="zr7-c0">
<path d="M198 58.5l16004 0l0 8703l-16004 0Z" fill="#000" class="zr7-cls-22"></path>
</clipPath>
</defs>
<style ><![CDATA[
.zr7-cls-21:hover {
pointer-events:none;
}
.zr7-cls-22:hover {
cursor:pointer;
fill:rgba(0,0,0,1);
}
.zr7-cls-23:hover {
cursor:pointer;
}

]]>

</style>
</svg>