<svg width="2000" height="1000" xmlns="http://www.w3.org/2000/svg" xmlns:xlink="http://www.w3.org/1999/xlink" version="1.1" baseProfile="full" viewBox="0 0 2000 1000">
<rect width="2000" height="1000" x="0" y="0" fill="rgb(252,252,252)" fill-opacity="0"></rect>
<path d="M200 930.5L1800 930.5" fill="transparent" stroke="#eeeeee" class="zr37-cls-111"></path>
<path d="M200 762.5L1800 762.5" fill="transparent" stroke="#eeeeee" class="zr37-cls-111"></path>
<path d="M200 593.5L1800 593.5" fill="transparent" stroke="#eeeeee" class="zr37-cls-111"></path>
<path d="M200 425.5L1800 425.5" fill="transparent" stroke="#eeeeee" class="zr37-cls-111"></path>
<path d="M200 257.5L1800 257.5" fill="transparent" stroke="#eeeeee" class="zr37-cls-111"></path>
<path d="M200 89.5L1800 89.5" fill="transparent" stroke="#eeeeee" class="zr37-cls-111"></path>
<path d="M200 60.5L1800 60.5" fill="transparent" stroke="#eeeeee" class="zr37-cls-111"></path>
<path d="M200.5 930L200.5 60" fill="transparent" stroke="#cccccc" stroke-linecap="round" class="zr37-cls-111"></path>
<text dominant-baseline="central" text-anchor="middle" style="font-size:12px;font-family:sans-serif;" xml:space="preserve" y="-6" transform="translate(200 45)" fill="#cccccc">Min controlBehaviorUpdate Time (ms)</text>
<path d="M200 930.5L1800 930.5" fill="transparent" stroke="#cccccc" stroke-linecap="round" class="zr37-cls-111"></path>
<text dominant-baseline="central" text-anchor="end" style="font-size:12px;font-family:sans-serif;" transform="translate(192 930)" fill="#999999">0.000</text>
<text dominant-baseline="central" text-anchor="end" style="font-size:12px;font-family:sans-serif;" transform="translate(192 761.853)" fill="#999999">0.200</text>
<text dominant-baseline="central" text-anchor="end" style="font-size:12px;font-family:sans-serif;" transform="translate(192 593.706)" fill="#999999">0.400</text>
<text dominant-baseline="central" text-anchor="end" style="font-size:12px;font-family:sans-serif;" transform="translate(192 425.559)" fill="#999999">0.600</text>
<text dominant-baseline="central" text-anchor="end" style="font-size:12px;font-family:sans-serif;" transform="translate(192 257.412)" fill="#999999">0.800</text>
<text dominant-baseline="central" text-anchor="end" style="font-size:12px;font-family:sans-serif;" transform="translate(192 89.265)" fill="#999999">1.000</text>
<text dominant-baseline="central" text-anchor="end" style="font-size:12px;font-family:sans-serif;" transform="translate(192 60)" fill="#999999">1.035</text>
<text dominant-baseline="central" text-anchor="middle" style="font-size:12px;font-family:sans-serif;" y="6" transform="translate(200.6667 938)" fill="#999999">0</text>
<text dominant-baseline="central" text-anchor="middle" style="font-size:12px;font-family:sans-serif;" y="6" transform="translate(236.6667 938)" fill="#999999">27</text>
<text dominant-baseline="central" text-anchor="middle" style="font-size:12px;font-family:sans-serif;" y="6" transform="translate(272.6667 938)" fill="#999999">54</text>
<text dominant-baseline="central" text-anchor="middle" style="font-size:12px;font-family:sans-serif;" y="6" transform="translate(308.6667 938)" fill="#999999">81</text>
<text dominant-baseline="central" text-anchor="middle" style="font-size:12px;font-family:sans-serif;" y="6" transform="translate(344.6667 938)" fill="#999999">108</text>
<text dominant-baseline="central" text-anchor="middle" style="font-size:12px;font-family:sans-serif;" y="6" transform="translate(380.6667 938)" fill="#999999">135</text>
<text dominant-baseline="central" text-anchor="middle" style="font-size:12px;font-family:sans-serif;" y="6" transform="translate(416.6667 938)" fill="#999999">162</text>
<text dominant-baseline="central" text-anchor="middle" style="font-size:12px;font-family:sans-serif;" y="6" transform="translate(452.6667 938)" fill="#999999">189</text>
<text dominant-baseline="central" text-anchor="middle" style="font-size:12px;font-family:sans-serif;" y="6" transform="translate(488.6667 938)" fill="#999999">216</text>
<text dominant-baseline="central" text-anchor="middle" style="font-size:12px;font-family:sans-serif;" y="6" transform="translate(524.6667 938)" fill="#999999">243</text>
<text dominant-baseline="central" text-anchor="middle" style="font-size:12px;font-family:sans-serif;" y="6" transform="translate(560.6667 938)" fill="#999999">270</text>
<text dominant-baseline="central" text-anchor="middle" style="font-size:12px;font-family:sans-serif;" y="6" transform="translate(596.6667 938)" fill="#999999">297</text>
<text dominant-baseline="central" text-anchor="middle" style="font-size:12px;font-family:sans-serif;" y="6" transform="translate(632.6667 938)" fill="#999999">324</text>
<text dominant-baseline="central" text-anchor="middle" style="font-size:12px;font-family:sans-serif;" y="6" transform="translate(668.6667 938)" fill="#999999">351</text>
<text dominant-baseline="central" text-anchor="middle" style="font-size:12px;font-family:sans-serif;" y="6" transform="translate(704.6667 938)" fill="#999999">378</text>
<text dominant-baseline="central" text-anchor="middle" style="font-size:12px;font-family:sans-serif;" y="6" transform="translate(740.6667 938)" fill="#999999">405</text>
<text dominant-baseline="central" text-anchor="middle" style="font-size:12px;font-family:sans-serif;" y="6" transform="translate(776.6667 938)" fill="#999999">432</text>
<text dominant-baseline="central" text-anchor="middle" style="font-size:12px;font-family:sans-serif;" y="6" transform="translate(812.6667 938)" fill="#999999">459</text>
<text dominant-baseline="central" text-anchor="middle" style="font-size:12px;font-family:sans-serif;" y="6" transform="translate(848.6667 938)" fill="#999999">486</text>
<text dominant-baseline="central" text-anchor="middle" style="font-size:12px;font-family:sans-serif;" y="6" transform="translate(884.6667 938)" fill="#999999">513</text>
<text dominant-baseline="central" text-anchor="middle" style="font-size:12px;font-family:sans-serif;" y="6" transform="translate(920.6667 938)" fill="#999999">540</text>
<text dominant-baseline="central" text-anchor="middle" style="font-size:12px;font-family:sans-serif;" y="6" transform="translate(956.6667 938)" fill="#999999">567</text>
<text dominant-baseline="central" text-anchor="middle" style="font-size:12px;font-family:sans-serif;" y="6" transform="translate(992.6667 938)" fill="#999999">594</text>
<text dominant-baseline="central" text-anchor="middle" style="font-size:12px;font-family:sans-serif;" y="6" transform="translate(1028.6667 938)" fill="#999999">621</text>
<text dominant-baseline="central" text-anchor="middle" style="font-size:12px;font-family:sans-serif;" y="6" transform="translate(1064.6667 938)" fill="#999999">648</text>
<text dominant-baseline="central" text-anchor="middle" style="font-size:12px;font-family:sans-serif;" y="6" transform="translate(1100.6667 938)" fill="#999999">675</text>
<text dominant-baseline="central" text-anchor="middle" style="font-size:12px;font-family:sans-serif;" y="6" transform="translate(1136.6667 938)" fill="#999999">702</text>
<text dominant-baseline="central" text-anchor="middle" style="font-size:12px;font-family:sans-serif;" y="6" transform="translate(1172.6667 938)" fill="#999999">729</text>
<text dominant-baseline="central" text-anchor="middle" style="font-size:12px;font-family:sans-serif;" y="6" transform="translate(1208.6667 938)" fill="#999999">756</text>
<text dominant-baseline="central" text-anchor="middle" style="font-size:12px;font-family:sans-serif;" y="6" transform="translate(1244.6667 938)" fill="#999999">783</text>
<text dominant-baseline="central" text-anchor="middle" style="font-size:12px;font-family:sans-serif;" y="6" transform="translate(1280.6667 938)" fill="#999999">810</text>
<text dominant-baseline="central" text-anchor="middle" style="font-size:12px;font-family:sans-serif;" y="6" transform="translate(1316.6667 938)" fill="#999999">837</text>
<text dominant-baseline="central" text-anchor="middle" style="font-size:12px;font-family:sans-serif;" y="6" transform="translate(1352.6667 938)" fill="#999999">864</text>
<text dominant-baseline="central" text-anchor="middle" style="font-size:12px;font-family:sans-serif;" y="6" transform="translate(1388.6667 938)" fill="#999999">891</text>
<text dominant-baseline="central" text-anchor="middle" style="font-size:12px;font-family:sans-serif;" y="6" transform="translate(1424.6667 938)" fill="#999999">918</text>
<text dominant-baseline="central" text-anchor="middle" style="font-size:12px;font-family:sans-serif;" y="6" transform="translate(1460.6667 938)" fill="#999999">945</text>
<text dominant-baseline="central" text-anchor="middle" style="font-size:12px;font-family:sans-serif;" y="6" transform="translate(1496.6667 938)" fill="#999999">972</text>
<text dominant-baseline="central" text-anchor="middle" style="font-size:12px;font-family:sans-serif;" y="6" transform="translate(1532.6667 938)" fill="#999999">999</text>
<text dominant-baseline="central" text-anchor="middle" style="font-size:12px;font-family:sans-serif;" y="6" transform="translate(1568.6667 938)" fill="#999999">1026</text>
<text dominant-baseline="central" text-anchor="middle" style="font-size:12px;font-family:sans-serif;" y="6" transform="translate(1604.6667 938)" fill="#999999">1053</text>
<text dominant-baseline="central" text-anchor="middle" style="font-size:12px;font-family:sans-serif;" y="6" transform="translate(1640.6667 938)" fill="#999999">1080</text>
<text dominant-baseline="central" text-anchor="middle" style="font-size:12px;font-family:sans-serif;" y="6" transform="translate(1676.6667 938)" fill="#999999">1107</text>
<text dominant-baseline="central" text-anchor="middle" style="font-size:12px;font-family:sans-serif;" y="6" transform="translate(1712.6667 938)" fill="#999999">1134</text>
<text dominant-baseline="central" text-anchor="middle" style="font-size:12px;font-family:sans-serif;" y="6" transform="translate(1748.6667 938)" fill="#999999">1161</text>
<text dominant-baseline="central" text-anchor="middle" style="font-size:12px;font-family:sans-serif;" y="6" transform="translate(1784.6667 938)" fill="#999999">1188</text>
<g clip-path="url(#zr37-c0)">
<path d="M200.7 286.6L202 747.5L203.3 796.9L204.7 804.1L206 798.3L207.3 795L208.7 807.4L210 797.8L211.3 799.4L212.7 795.6L214 802.4L215.3 794.1L216.7 798.3L218 -4118.6L219.3 219.1L220.7 674.5L222 765.1L223.3 793.2L224.7 803L226 799.5L227.3 797.8L228.7 797L230 806.8L231.3 802.3L232.7 814.7L234 809.6L235.3 814L236.7 806.8L238 808.4L239.3 797.5L240.7 804.7L242 816.5L243.3 808.5L244.7 807.2L246 810.7L247.3 806.2L248.7 806.2L250 813.1L251.3 805.7L252.7 799.4L254 801.3L255.3 807.5L256.7 814.3L258 808.9L259.3 811L260.7 806.5L262 802.7L263.3 807.8L264.7 810.4L266 807.4L267.3 806.2L268.7 807.8L270 809.9L271.3 815L272.7 802.5L274 808.6L275.3 806.2L276.7 809.1L278 802.2L279.3 806.7L280.7 805.2L282 811.7L283.3 797.4L284.7 801L286 808.5L287.3 799.4L288.7 800.3L290 798.1L291.3 812.8L292.7 806.7L294 804L295.3 797L296.7 801.7L298 -3583.2L299.3 182.3L300.7 681.8L302 728.3L303.3 738.5L304.7 471.7L306 476.3L307.3 628.3L308.7 703.1L310 734.3L311.3 762.9L312.7 795L314 794.9L315.3 799.3L316.7 800.6L318 802.9L319.3 809.9L320.7 811.8L322 804.1L323.3 812.1L324.7 812.4L326 809.1L327.3 800.9L328.7 806.9L330 809.6L331.3 800.3L332.7 806.3L334 803L335.3 814.8L336.7 812.1L338 803.7L339.3 806.7L340.7 807.8L342 806.7L343.3 808.6L344.7 808.6L346 807.9L347.3 801.2L348.7 806.1L350 804.4L351.3 795L352.7 799.1L354 804.2L355.3 799.9L356.7 802.7L358 815.4L359.3 805.7L360.7 805.2L362 809.5L363.3 803.1L364.7 815.7L366 804.9L367.3 798L368.7 789.9L370 793.9L371.3 803.9L372.7 813.4L374 807.5L375.3 809.2L376.7 806.7L378 -3565L379.3 206.3L380.7 680.9L382 697.5L383.3 779.3L384.7 789.9L386 793L387.3 797.3L388.7 802.9L390 806.2L391.3 805.2L392.7 796.7L394 793.7L395.3 809.5L396.7 805.2L398 815.7L399.3 811.4L400.7 811.7L402 807.8L403.3 805.8L404.7 805.8L406 808.3L407.3 791.9L408.7 807.2L410 811.3L411.3 808.6L412.7 805.8L414 809.9L415.3 808.9L416.7 814.7L418 812.3L419.3 813.3L420.7 803.5L422 806.7L423.3 806.6L424.7 809.6L426 803.4L427.3 810.3L428.7 807.2L430 803.9L431.3 809.6L432.7 816.5L434 795.6L435.3 793.9L436.7 804.8L438 810.8L439.3 802.3L440.7 802.5L442 812.8L443.3 807.5L444.7 798.8L446 808L447.3 810.4L448.7 811L450 794.4L451.3 813.7L452.7 801.3L454 811.2L455.3 808.1L456.7 808.9L458 -3527.7L459.3 219.9L460.7 688.9L462 735.5L463.3 796.7L464.7 803L466 803L467.3 806.3L468.7 800.9L470 809L471.3 817.8L472.7 804L474 804.9L475.3 800.7L476.7 806.5L478 803.9L479.3 803.4L480.7 813.3L482 807.6L483.3 805.5L484.7 804.1L486 813.1L487.3 805.4L488.7 804L490 809.1L491.3 808.9L492.7 808.2L494 812.9L495.3 812.5L496.7 807.5L498 807.6L499.3 802.8L500.7 808.7L502 800.2L503.3 812L504.7 810.3L506 805.8L507.3 807.8L508.7 807.9L510 811.6L511.3 810.3L512.7 801.7L514 801.3L515.3 804.7L516.7 810.6L518 807.8L519.3 808.2L520.7 810L522 807.5L523.3 805.6L524.7 809.3L526 803.8L527.3 809.3L528.7 799.8L530 780.9L531.3 810.5L532.7 803.4L534 805.8L535.3 806.7L536.7 809.2L538 -3539.7L539.3 201.1L540.7 677.4L542 723.5L543.3 788.1L544.7 783.5L546 804.9L547.3 799.3L548.7 798.5L550 804L551.3 804.8L552.7 809.1L554 793.1L555.3 805.2L556.7 810.4L558 801L559.3 807.8L560.7 811L562 803.6L563.3 806.7L564.7 810.2L566 808.5L567.3 806.7L568.7 811.2L570 807.8L571.3 800L572.7 803.2L574 806.9L575.3 808.4L576.7 808.7L578 809.2L579.3 810.3L580.7 805.6L582 807.2L583.3 795.7L584.7 806.7L586 814.7L587.3 812L588.7 798.7L590 803.9L591.3 811.1L592.7 804.2L594 805L595.3 804.1L596.7 806.7L598 801.3L599.3 802.9L600.7 813.8L602 806.7L603.3 804.2L604.7 805.2L606 807.2L607.3 802L608.7 800.7L610 793.2L611.3 805.1L612.7 809.5L614 811.5L615.3 807.8L616.7 806.7L618 -3510.3L619.3 178.1L620.7 690L622 719L623.3 739.2L624.7 452.6L626 471L627.3 619.3L628.7 673.5L630 746.7L631.3 773.5L632.7 790.4L634 799.9L635.3 805.7L636.7 799.5L638 806.7L639.3 801L640.7 806.1L642 805.2L643.3 806.2L644.7 802.2L646 804.6L647.3 807.8L648.7 808L650 807.2L651.3 803.2L652.7 809.3L654 808L655.3 805.5L656.7 804.6L658 807.6L659.3 811.5L660.7 811.6L662 809.5L663.3 807.8L664.7 811.2L666 815.5L667.3 811.6L668.7 807.3L670 809.1L671.3 807.9L672.7 807.7L674 802.8L675.3 815.7L676.7 800.2L678 812.5L679.3 806.5L680.7 811.3L682 806.6L683.3 806L684.7 810.7L686 805.3L687.3 801.9L688.7 803.8L690 807L691.3 806.6L692.7 810L694 808.7L695.3 805.5L696.7 803.2L698 -3410.9L699.3 99.4L700.7 658.8L702 745.6L703.3 778.1L704.7 787.5L706 804.9L707.3 817.3L708.7 805.8L710 800.6L711.3 808.3L712.7 803.2L714 806.4L715.3 812L716.7 808.1L718 810.4L719.3 813.1L720.7 802L722 805.7L723.3 808.8L724.7 807.4L726 798.8L727.3 806L728.7 815.7L730 813.6L731.3 801.8L732.7 808.9L734 805.7L735.3 810.1L736.7 809.1L738 805L739.3 810.1L740.7 809.4L742 806.9L743.3 803.6L744.7 809.5L746 810L747.3 802.6L748.7 814.8L750 809.2L751.3 802.7L752.7 801L754 800.4L755.3 809.4L756.7 804.3L758 800.1L759.3 804.1L760.7 806.9L762 811.2L763.3 808L764.7 804.4L766 810.2L767.3 803.3L768.7 801.6L770 803.3L771.3 808.3L772.7 797.2L774 811L775.3 810L776.7 806.8L778 -3458.2L779.3 165.9L780.7 665.6L782 739.1L783.3 779.5L784.7 789.8L786 797.4L787.3 807L788.7 804.5L790 793.8L791.3 808.5L792.7 804.9L794 803.7L795.3 809L796.7 802.1L798 810.7L799.3 808.7L800.7 804.8L802 811.5L803.3 822.2L804.7 803L806 799.8L807.3 804.7L808.7 808.9L810 812.1L811.3 810L812.7 810.9L814 805.6L815.3 811.9L816.7 811L818 804.9L819.3 807.6L820.7 795.7L822 810.9L823.3 812.5L824.7 811.7L826 807.8L827.3 806.7L828.7 809.1L830 802.5L831.3 810.4L832.7 806.2L834 809.9L835.3 813.1L836.7 813.4L838 808.9L839.3 807.2L840.7 807L842 805.5L843.3 813.6L844.7 798.9L846 814.1L847.3 806.5L848.7 801.7L850 795.8L851.3 807.8L852.7 804.4L854 816L855.3 810.9L856.7 803.7L858 -3483.9L859.3 258.4L860.7 688L862 746L863.3 789.1L864.7 788.8L866 798L867.3 799.9L868.7 797.8L870 802.3L871.3 804.9L872.7 809.1L874 815.4L875.3 809.1L876.7 809.9L878 811.9L879.3 808.6L880.7 807.7L882 807.7L883.3 807.9L884.7 812.5L886 807.6L887.3 789.8L888.7 807L890 810.7L891.3 811L892.7 818.9L894 802.7L895.3 809.2L896.7 808.7L898 812.2L899.3 802.6L900.7 810.5L902 805.7L903.3 807.8L904.7 806.2L906 804.1L907.3 803.9L908.7 805.8L910 804.7L911.3 801.6L912.7 808.2L914 808L915.3 811.4L916.7 802.7L918 812.1L919.3 803L920.7 806.8L922 808.8L923.3 813.7L924.7 806.9L926 808.5L927.3 804.8L928.7 809.4L930 806.1L931.3 805.3L932.7 808.9L934 808.3L935.3 804.8L936.7 805L938 -3469.6L939.3 208.4L940.7 690.7L942 716.9L943.3 745.3L944.7 446.4L946 468.6L947.3 625.7L948.7 692.6L950 740.9L951.3 768.7L952.7 791.4L954 790.9L955.3 798.3L956.7 801.5L958 795.1L959.3 806.6L960.7 800.1L962 810.6L963.3 808.2L964.7 801.6L966 796.3L967.3 778.1L968.7 807.7L970 807.7L971.3 808.9L972.7 805.9L974 807.9L975.3 815.6L976.7 808L978 805.7L979.3 798.8L980.7 815.5L982 807.1L983.3 805.6L984.7 809.9L986 810.4L987.3 805.7L988.7 809.9L990 802.7L991.3 805.7L992.7 808.8L994 808.7L995.3 804.4L996.7 815.2L998 808.3L999.3 804.7L1000.7 807.1L1002 810.5L1003.3 804.1L1004.7 806.7L1006 796.3L1007.3 803.6L1008.7 806.2L1010 806.4L1011.3 803.6L1012.7 808.1L1014 808.1L1015.3 804L1016.7 801.6L1018 -3687L1019.3 214.4L1020.7 655.9L1022 735.4L1023.3 780.7L1024.7 792.2L1026 803.6L1027.3 804.9L1028.7 802.6L1030 804L1031.3 792.7L1032.7 803.6L1034 802.1L1035.3 806.8L1036.7 802.9L1038 805L1039.3 812.3L1040.7 814.6L1042 810.7L1043.3 806.2L1044.7 808.9L1046 813.1L1047.3 806.7L1048.7 810.3L1050 811.8L1051.3 813L1052.7 809.4L1054 808.7L1055.3 809.4L1056.7 811.7L1058 809.3L1059.3 806.8L1060.7 807.8L1062 810.5L1063.3 803L1064.7 816.4L1066 818L1067.3 802.6L1068.7 810.4L1070 802.1L1071.3 801.7L1072.7 809.3L1074 805.4L1075.3 808.5L1076.7 801.9L1078 812.5L1079.3 804.8L1080.7 807.3L1082 804.1L1083.3 806.6L1084.7 801.2L1086 809.5L1087.3 805.1L1088.7 810.5L1090 807.7L1091.3 804.3L1092.7 811L1094 807.7L1095.3 807.8L1096.7 805.3L1098 -3476L1099.3 152.2L1100.7 670.5L1102 749.4L1103.3 790.9L1104.7 799.1L1106 797.6L1107.3 805.7L1108.7 809.8L1110 797.7L1111.3 804.1L1112.7 795.5L1114 800.1L1115.3 812.2L1116.7 809.4L1118 811.6L1119.3 814.8L1120.7 808.6L1122 802.5L1123.3 813.7L1124.7 796.5L1126 796.7L1127.3 809.2L1128.7 808.7L1130 812.6L1131.3 810.5L1132.7 816.3L1134 812.5L1135.3 804.6L1136.7 814.3L1138 798.7L1139.3 799.3L1140.7 802.4L1142 813.8L1143.3 805.3L1144.7 804L1146 801.5L1147.3 805.2L1148.7 806.8L1150 807.8L1151.3 801.6L1152.7 786.1L1154 801.4L1155.3 813.3L1156.7 805.9L1158 808L1159.3 802L1160.7 805.2L1162 801.1L1163.3 806.5L1164.7 805.6L1166 805.4L1167.3 802.2L1168.7 805.2L1170 808.9L1171.3 804.4L1172.7 807.2L1174 813.3L1175.3 805.1L1176.7 803.3L1178 -3468.2L1179.3 154.1L1180.7 676L1182 731.7L1183.3 772.4L1184.7 785.7L1186 798.7L1187.3 794.6L1188.7 797.4L1190 799.8L1191.3 803.9L1192.7 802.4L1194 804.1L1195.3 807.5L1196.7 803.7L1198 809.3L1199.3 801.8L1200.7 807.5L1202 811.7L1203.3 814L1204.7 799.1L1206 800.4L1207.3 808.8L1208.7 812L1210 806.5L1211.3 810L1212.7 807.5L1214 808.3L1215.3 810L1216.7 814.6L1218 813.2L1219.3 794.7L1220.7 800.3L1222 808.9L1223.3 808.5L1224.7 811.9L1226 810L1227.3 809.6L1228.7 801.9L1230 804.8L1231.3 808.4L1232.7 805.2L1234 792.9L1235.3 814.2L1236.7 808.7L1238 806.7L1239.3 804.4L1240.7 809.1L1242 806.4L1243.3 804.4L1244.7 813.1L1246 811.5L1247.3 803.4L1248.7 811L1250 813L1251.3 812L1252.7 802L1254 804.7L1255.3 805.7L1256.7 803.4L1258 -3525.2L1259.3 164.3L1260.7 679L1262 713.6L1263.3 765.5L1264.7 439.1L1266 461.9L1267.3 619.6L1268.7 697.3L1270 726.2L1271.3 769.4L1272.7 801.4L1274 798.3L1275.3 803.6L1276.7 803.9L1278 812.8L1279.3 807.1L1280.7 803.4L1282 798L1283.3 806.6L1284.7 804.7L1286 812.9L1287.3 802.2L1288.7 811.2L1290 808.9L1291.3 810.8L1292.7 801.3L1294 801.7L1295.3 801.3L1296.7 797.6L1298 812L1299.3 809.9L1300.7 811.4L1302 814.3L1303.3 803.5L1304.7 807.2L1306 807.8L1307.3 802.5L1308.7 803.7L1310 803.2L1311.3 798L1312.7 811.3L1314 804.3L1315.3 805.2L1316.7 803.9L1318 815.7L1319.3 797.7L1320.7 808.6L1322 805.2L1323.3 796.6L1324.7 804.8L1326 805L1327.3 810.2L1328.7 810.4L1330 808.8L1331.3 802.3L1332.7 805.6L1334 814L1335.3 803.1L1336.7 809.4L1338 -3596.9L1339.3 202.9L1340.7 692.8L1342 749.4L1343.3 787.8L1344.7 797.2L1346 799L1347.3 804.3L1348.7 802.3L1350 812L1351.3 801.1L1352.7 808.3L1354 810L1355.3 809.7L1356.7 805.7L1358 807.8L1359.3 802.5L1360.7 807.4L1362 806.4L1363.3 808.2L1364.7 812.9L1366 812.1L1367.3 804.1L1368.7 807.3L1370 806.9L1371.3 813.4L1372.7 808.3L1374 805.9L1375.3 808.3L1376.7 812.2L1378 808.9L1379.3 809.8L1380.7 803.1L1382 804.9L1383.3 816.2L1384.7 794.3L1386 808.3L1387.3 811.6L1388.7 793.3L1390 810.4L1391.3 806.4L1392.7 810.3L1394 809.8L1395.3 811.1L1396.7 809.9L1398 805.1L1399.3 805.8L1400.7 813L1402 807.1L1403.3 807.9L1404.7 804L1406 804.3L1407.3 802.5L1408.7 801.9L1410 800.8L1411.3 800.4L1412.7 805.4L1414 808.6L1415.3 806L1416.7 807.3L1418 -3447.4L1419.3 122.1L1420.7 673.5L1422 751.3L1423.3 775.9L1424.7 792.3L1426 800.6L1427.3 801.5L1428.7 797.5L1430 803.9L1431.3 799.9L1432.7 801.5L1434 807.8L1435.3 809.6L1436.7 807.5L1438 804L1439.3 808.2L1440.7 802.1L1442 811.3L1443.3 808.6L1444.7 806.2L1446 808.8L1447.3 805.6L1448.7 805.6L1450 806.5L1451.3 806.9L1452.7 809.9L1454 812.1L1455.3 812L1456.7 806.7L1458 808.6L1459.3 812.9L1460.7 809.8L1462 806.2L1463.3 809.3L1464.7 807.6L1466 805.7L1467.3 806.4L1468.7 800.4L1470 808.8L1471.3 811L1472.7 810.4L1474 806.5L1475.3 810.5L1476.7 793.7L1478 805.3L1479.3 803.6L1480.7 807.2L1482 807.5L1483.3 804.2L1484.7 808.7L1486 810.4L1487.3 805.9L1488.7 814.9L1490 808L1491.3 806.1L1492.7 805.5L1494 806.1L1495.3 808.2L1496.7 810.2L1498 -3521.6L1499.3 181.6L1500.7 677.4L1502 749.5L1503.3 782.1L1504.7 796L1506 792L1507.3 795L1508.7 804.2L1510 800.2L1511.3 811.5L1512.7 808.8L1514 801.9L1515.3 806.1L1516.7 805L1518 803.8L1519.3 800.9L1520.7 801.9L1522 802.5L1523.3 807.7L1524.7 808.4L1526 806.2L1527.3 802.1L1528.7 804.8L1530 805.2L1531.3 806.8L1532.7 808.6L1534 804.3L1535.3 812.7L1536.7 815.7L1538 809.4L1539.3 804.4L1540.7 811.9L1542 812.6L1543.3 812.1L1544.7 817.1L1546 805.6L1547.3 809.5L1548.7 796.3L1550 802.3L1551.3 811.7L1552.7 804.4L1554 811.3L1555.3 802.1L1556.7 802.5L1558 805.7L1559.3 810.2L1560.7 808.4L1562 808.3L1563.3 788.3L1564.7 804.1L1566 802L1567.3 808L1568.7 807.8L1570 802.8L1571.3 802L1572.7 812.3L1574 805.2L1575.3 803.5L1576.7 808.4L1578 -3527.8L1579.3 133.4L1580.7 698.1L1582 722.7L1583.3 751.3L1584.7 462.3L1586 468.6L1587.3 634.1L1588.7 688.7L1590 729.4L1591.3 777.2L1592.7 787.4L1594 804.1L1595.3 807.9L1596.7 804.2L1598 803.4L1599.3 797.8L1600.7 801.5L1602 805.9L1603.3 816.2L1604.7 796.5L1606 803.7L1607.3 806.9L1608.7 802L1610 800.3L1611.3 807.1L1612.7 812.8L1614 807.5L1615.3 809.5L1616.7 813.3L1618 817.4L1619.3 810L1620.7 800.9L1622 798.5L1623.3 796.7L1624.7 811.1L1626 811.3L1627.3 807.1L1628.7 809.1L1630 813.4L1631.3 808.9L1632.7 802.2L1634 815.7L1635.3 796.8L1636.7 808.9L1638 807.6L1639.3 801.1L1640.7 806.5L1642 816.3L1643.3 814.4L1644.7 807.4L1646 807.3L1647.3 805.4L1648.7 803.3L1650 807.4L1651.3 805.8L1652.7 809.4L1654 809L1655.3 804.6L1656.7 804.3L1658 -3442.4L1659.3 158.5L1660.7 667.5L1662 759.8L1663.3 786.9L1664.7 791.4L1666 796.1L1667.3 803.3L1668.7 802.7L1670 805.2L1671.3 798.5L1672.7 807.8L1674 799.9L1675.3 804.7L1676.7 802.2L1678 808.2L1679.3 799.7L1680.7 810.6L1682 805.2L1683.3 808.7L1684.7 807.3L1686 807.2L1687.3 805.8L1688.7 809.9L1690 808.3L1691.3 812L1692.7 806.9L1694 816.4L1695.3 808L1696.7 806.3L1698 804.2L1699.3 806.2L1700.7 811L1702 815.1L1703.3 809.1L1704.7 807.3L1706 802.3L1707.3 805.4L1708.7 805L1710 813.9L1711.3 799.1L1712.7 807.8L1714 807.2L1715.3 805.4L1716.7 800.4L1718 808.1L1719.3 792.6L1720.7 809.9L1722 806.9L1723.3 804L1724.7 806.9L1726 804.1L1727.3 804.6L1728.7 806.5L1730 807.4L1731.3 802.6L1732.7 804.7L1734 809.7L1735.3 804.3L1736.7 802L1738 -3531.9L1739.3 159.9L1740.7 682.8L1742 762.1L1743.3 793.2L1744.7 782.2L1746 802.9L1747.3 798.7L1748.7 803.4L1750 797.8L1751.3 806.7L1752.7 800.1L1754 802.2L1755.3 808.9L1756.7 805.7L1758 808.7L1759.3 814.7L1760.7 799.9L1762 813.5L1763.3 809.4L1764.7 821.2L1766 802L1767.3 801.2L1768.7 814.1L1770 803.8L1771.3 807.2L1772.7 808.4L1774 811.4L1775.3 807.6L1776.7 807L1778 799.4L1779.3 808.7L1780.7 812.6L1782 808.9L1783.3 808.1L1784.7 806L1786 806.2L1787.3 806L1788.7 806.9L1790 806.1L1791.3 807L1792.7 806.2L1794 808.3L1795.3 805.6L1796.7 804.7L1798 807.9L1799.3 808.8" fill="transparent" stroke="#3fb1e3" stroke-width="3" stroke-linejoin="bevel" class="zr37-cls-113"></path>
</g>
<path d="M-241 -5l482 0l0 28l-482 0Z" transform="translate(1000 5)" fill="rgb(0,0,0)" fill-opacity="0" stroke="#ccc" stroke-width="0" class="zr37-cls-111"></path>
<text dominant-baseline="central" text-anchor="middle" style="font-size:18px;font-family:sans-serif;font-weight:bold;" xml:space="preserve" y="9" transform="translate(1000 5)" fill="#666666">Min controlBehaviorUpdate per Tick for bench_1_every_60</text>
<defs >
<clipPath id="zr37-c0">
<path d="M198 58.5l16004 0l0 8703l-16004 0Z" fill="#000" class="zr37-cls-112"></path>
</clipPath>
</defs>
<style ><![CDATA[
.zr37-cls-111:hover {
pointer-events:none;
}
.zr37-cls-112:hover {
cursor:pointer;
fill:rgba(0,0,0,1);
}
.zr37-cls-113:hover {
cursor:pointer;
}

]]>

</style>
</svg>