<svg width="2000" height="1000" xmlns="http://www.w3.org/2000/svg" xmlns:xlink="http://www.w3.org/1999/xlink" version="1.1" baseProfile="full" viewBox="0 0 2000 1000">
<rect width="2000" height="1000" x="0" y="0" fill="rgb(252,252,252)" fill-opacity="0"></rect>
<path d="M200 930.5L1800 930.5" fill="transparent" stroke="#eeeeee" class="zr0-cls-0"></path>
<path d="M200 772.5L1800 772.5" fill="transparent" stroke="#eeeeee" class="zr0-cls-0"></path>
<path d="M200 614.5L1800 614.5" fill="transparent" stroke="#eeeeee" class="zr0-cls-0"></path>
<path d="M200 457.5L1800 457.5" fill="transparent" stroke="#eeeeee" class="zr0-cls-0"></path>
<path d="M200 299.5L1800 299.5" fill="transparent" stroke="#eeeeee" class="zr0-cls-0"></path>
<path d="M200 141.5L1800 141.5" fill="transparent" stroke="#eeeeee" class="zr0-cls-0"></path>
<path d="M200 60.5L1800 60.5" fill="transparent" stroke="#eeeeee" class="zr0-cls-0"></path>
<path d="M200.5 930L200.5 60" fill="transparent" stroke="#cccccc" stroke-linecap="round" class="zr0-cls-0"></path>
<text dominant-baseline="central" text-anchor="middle" style="font-size:12px;font-family:sans-serif;" xml:space="preserve" y="-6" transform="translate(200 45)" fill="#cccccc">wholeUpdate Time (ms)</text>
<path d="M200 930.5L1800 930.5" fill="transparent" stroke="#cccccc" stroke-linecap="round" class="zr0-cls-0"></path>
<text dominant-baseline="central" text-anchor="end" style="font-size:12px;font-family:sans-serif;" transform="translate(192 930)" fill="#999999">0.000</text>
<text dominant-baseline="central" text-anchor="end" style="font-size:12px;font-family:sans-serif;" transform="translate(192 772.2886)" fill="#999999">1.000</text>
<text dominant-baseline="central" text-anchor="end" style="font-size:12px;font-family:sans-serif;" transform="translate(192 614.5773)" fill="#999999">2.000</text>
<text dominant-baseline="central" text-anchor="end" style="font-size:12px;font-family:sans-serif;" transform="translate(192 456.8659)" fill="#999999">3.000</text>
<text dominant-baseline="central" text-anchor="end" style="font-size:12px;font-family:sans-serif;" transform="translate(192 299.1546)" fill="#999999">4.000</text>
<text dominant-baseline="central" text-anchor="end" style="font-size:12px;font-family:sans-serif;" transform="translate(192 141.4432)" fill="#999999">5.000</text>
<text dominant-baseline="central" text-anchor="end" style="font-size:12px;font-family:sans-serif;" transform="translate(192 60)" fill="#999999">5.516</text>
<text dominant-baseline="central" text-anchor="middle" style="font-size:12px;font-family:sans-serif;" y="6" transform="translate(200.6667 938)" fill="#999999">0</text>
<text dominant-baseline="central" text-anchor="middle" style="font-size:12px;font-family:sans-serif;" y="6" transform="translate(236.6667 938)" fill="#999999">27</text>
<text dominant-baseline="central" text-anchor="middle" style="font-size:12px;font-family:sans-serif;" y="6" transform="translate(272.6667 938)" fill="#999999">54</text>
<text dominant-baseline="central" text-anchor="middle" style="font-size:12px;font-family:sans-serif;" y="6" transform="translate(308.6667 938)" fill="#999999">81</text>
<text dominant-baseline="central" text-anchor="middle" style="font-size:12px;font-family:sans-serif;" y="6" transform="translate(344.6667 938)" fill="#999999">108</text>
<text dominant-baseline="central" text-anchor="middle" style="font-size:12px;font-family:sans-serif;" y="6" transform="translate(380.6667 938)" fill="#999999">135</text>
<text dominant-baseline="central" text-anchor="middle" style="font-size:12px;font-family:sans-serif;" y="6" transform="translate(416.6667 938)" fill="#999999">162</text>
<text dominant-baseline="central" text-anchor="middle" style="font-size:12px;font-family:sans-serif;" y="6" transform="translate(452.6667 938)" fill="#999999">189</text>
<text dominant-baseline="central" text-anchor="middle" style="font-size:12px;font-family:sans-serif;" y="6" transform="translate(488.6667 938)" fill="#999999">216</text>
<text dominant-baseline="central" text-anchor="middle" style="font-size:12px;font-family:sans-serif;" y="6" transform="translate(524.6667 938)" fill="#999999">243</text>
<text dominant-baseline="central" text-anchor="middle" style="font-size:12px;font-family:sans-serif;" y="6" transform="translate(560.6667 938)" fill="#999999">270</text>
<text dominant-baseline="central" text-anchor="middle" style="font-size:12px;font-family:sans-serif;" y="6" transform="translate(596.6667 938)" fill="#999999">297</text>
<text dominant-baseline="central" text-anchor="middle" style="font-size:12px;font-family:sans-serif;" y="6" transform="translate(632.6667 938)" fill="#999999">324</text>
<text dominant-baseline="central" text-anchor="middle" style="font-size:12px;font-family:sans-serif;" y="6" transform="translate(668.6667 938)" fill="#999999">351</text>
<text dominant-baseline="central" text-anchor="middle" style="font-size:12px;font-family:sans-serif;" y="6" transform="translate(704.6667 938)" fill="#999999">378</text>
<text dominant-baseline="central" text-anchor="middle" style="font-size:12px;font-family:sans-serif;" y="6" transform="translate(740.6667 938)" fill="#999999">405</text>
<text dominant-baseline="central" text-anchor="middle" style="font-size:12px;font-family:sans-serif;" y="6" transform="translate(776.6667 938)" fill="#999999">432</text>
<text dominant-baseline="central" text-anchor="middle" style="font-size:12px;font-family:sans-serif;" y="6" transform="translate(812.6667 938)" fill="#999999">459</text>
<text dominant-baseline="central" text-anchor="middle" style="font-size:12px;font-family:sans-serif;" y="6" transform="translate(848.6667 938)" fill="#999999">486</text>
<text dominant-baseline="central" text-anchor="middle" style="font-size:12px;font-family:sans-serif;" y="6" transform="translate(884.6667 938)" fill="#999999">513</text>
<text dominant-baseline="central" text-anchor="middle" style="font-size:12px;font-family:sans-serif;" y="6" transform="translate(920.6667 938)" fill="#999999">540</text>
<text dominant-baseline="central" text-anchor="middle" style="font-size:12px;font-family:sans-serif;" y="6" transform="translate(956.6667 938)" fill="#999999">567</text>
<text dominant-baseline="central" text-anchor="middle" style="font-size:12px;font-family:sans-serif;" y="6" transform="translate(992.6667 938)" fill="#999999">594</text>
<text dominant-baseline="central" text-anchor="middle" style="font-size:12px;font-family:sans-serif;" y="6" transform="translate(1028.6667 938)" fill="#999999">621</text>
<text dominant-baseline="central" text-anchor="middle" style="font-size:12px;font-family:sans-serif;" y="6" transform="translate(1064.6667 938)" fill="#999999">648</text>
<text dominant-baseline="central" text-anchor="middle" style="font-size:12px;font-family:sans-serif;" y="6" transform="translate(1100.6667 938)" fill="#999999">675</text>
<text dominant-baseline="central" text-anchor="middle" style="font-size:12px;font-family:sans-serif;" y="6" transform="translate(1136.6667 938)" fill="#999999">702</text>
<text dominant-baseline="central" text-anchor="middle" style="font-size:12px;font-family:sans-serif;" y="6" transform="translate(1172.6667 938)" fill="#999999">729</text>
<text dominant-baseline="central" text-anchor="middle" style="font-size:12px;font-family:sans-serif;" y="6" transform="translate(1208.6667 938)" fill="#999999">756</text>
<text dominant-baseline="central" text-anchor="middle" style="font-size:12px;font-family:sans-serif;" y="6" transform="translate(1244.6667 938)" fill="#999999">783</text>
<text dominant-baseline="central" text-anchor="middle" style="font-size:12px;font-family:sans-serif;" y="6" transform="translate(1280.6667 938)" fill="#999999">810</text>
<text dominant-baseline="central" text-anchor="middle" style="font-size:12px;font-family:sans-serif;" y="6" transform="translate(1316.6667 938)" fill="#999999">837</text>
<text dominant-baseline="central" text-anchor="middle" style="font-size:12px;font-family:sans-serif;" y="6" transform="translate(1352.6667 938)" fill="#999999">864</text>
<text dominant-baseline="central" text-anchor="middle" style="font-size:12px;font-family:sans-serif;" y="6" transform="translate(1388.6667 938)" fill="#999999">891</text>
<text dominant-baseline="central" text-anchor="middle" style="font-size:12px;font-family:sans-serif;" y="6" transform="translate(1424.6667 938)" fill="#999999">918</text>
<text dominant-baseline="central" text-anchor="middle" style="font-size:12px;font-family:sans-serif;" y="6" transform="translate(1460.6667 938)" fill="#999999">945</text>
<text dominant-baseline="central" text-anchor="middle" style="font-size:12px;font-family:sans-serif;" y="6" transform="translate(1496.6667 938)" fill="#999999">972</text>
<text dominant-baseline="central" text-anchor="middle" style="font-size:12px;font-family:sans-serif;" y="6" transform="translate(1532.6667 938)" fill="#999999">999</text>
<text dominant-baseline="central" text-anchor="middle" style="font-size:12px;font-family:sans-serif;" y="6" transform="translate(1568.6667 938)" fill="#999999">1026</text>
<text dominant-baseline="central" text-anchor="middle" style="font-size:12px;font-family:sans-serif;" y="6" transform="translate(1604.6667 938)" fill="#999999">1053</text>
<text dominant-baseline="central" text-anchor="middle" style="font-size:12px;font-family:sans-serif;" y="6" transform="translate(1640.6667 938)" fill="#999999">1080</text>
<text dominant-baseline="central" text-anchor="middle" style="font-size:12px;font-family:sans-serif;" y="6" transform="translate(1676.6667 938)" fill="#999999">1107</text>
<text dominant-baseline="central" text-anchor="middle" style="font-size:12px;font-family:sans-serif;" y="6" transform="translate(1712.6667 938)" fill="#999999">1134</text>
<text dominant-baseline="central" text-anchor="middle" style="font-size:12px;font-family:sans-serif;" y="6" transform="translate(1748.6667 938)" fill="#999999">1161</text>
<text dominant-baseline="central" text-anchor="middle" style="font-size:12px;font-family:sans-serif;" y="6" transform="translate(1784.6667 938)" fill="#999999">1188</text>
<g clip-path="url(#zr0-c0)">
<path d="M200.7 325.1L202 493.2L203.3 677.6L204.7 580.5L206 647.8L207.3 580.2L208.7 663.2L210 583.6L211.3 638.9L212.7 558.6L214 653.7L215.3 576.4L216.7 663.7L218 569.4L219.3 655.6L220.7 597.9L222 642.5L223.3 572L224.7 653.8L226 598.8L227.3 650.1L228.7 553.7L230 642.8L231.3 568L232.7 648.5L234 549.5L235.3 656.7L236.7 577.8L238 663.8L239.3 511.5L240.7 649.5L242 575.8L243.3 655.9L244.7 523.6L246 619.2L247.3 558.3L248.7 658.4L250 539.6L251.3 631.1L252.7 559.9L254 605.9L255.3 521.7L256.7 649L258 578.7L259.3 622.7L260.7 553.5L262 625.2L263.3 582.4L264.7 614.3L266 530.2L267.3 645.6L268.7 579L270 622.6L271.3 697.6L272.7 711L274 712.8L275.3 721.6L276.7 686.4L278 701L279.3 716.4L280.7 691.9L282 710.5L283.3 710.3L284.7 704.4L286 727.9L287.3 715.4L288.7 726.3L290 739.9L291.3 735.4L292.7 722.4L294 705.8L295.3 728.8L296.7 729.2L298 719.3L299.3 716.5L300.7 712.8L302 711L303.3 700.4L304.7 712L306 733L307.3 711.7L308.7 690.5L310 711L311.3 715L312.7 731L314 706.6L315.3 719.2L316.7 729.3L318 687.5L319.3 652.4L320.7 714.5L322 724.5L323.3 724.3L324.7 715.1L326 699L327.3 729.7L328.7 723.3L330 692L331.3 720.5L332.7 734.9L334 697.3L335.3 679.6L336.7 710.5L338 723.2L339.3 718.2L340.7 706.2L342 653.6L343.3 726.1L344.7 694.6L346 726.7L347.3 733.3L348.7 726.7L350 718.9L351.3 720.1L352.7 739.7L354 741L355.3 737.7L356.7 723.5L358 691.2L359.3 728.8L360.7 716.3L362 720.7L363.3 718.8L364.7 735.6L366 700.5L367.3 703.3L368.7 699.3L370 732.2L371.3 735.5L372.7 697.6L374 698.6L375.3 725.7L376.7 697.2L378 688.5L379.3 720.3L380.7 718.7L382 704.8L383.3 701.1L384.7 727.8L386 725.7L387.3 713.6L388.7 699.6L390 668.2L391.3 719.5L392.7 713.2L394 694.5L395.3 723.3L396.7 718.5L398 678.7L399.3 683.5L400.7 717.3L402 713.7L403.3 730.4L404.7 716.8L406 707.9L407.3 705.1L408.7 715.2L410 687.2L411.3 724.8L412.7 714.3L414 694.2L415.3 696.3L416.7 718L418 720.2L419.3 700L420.7 713.6L422 692.6L423.3 733.2L424.7 704.7L426 723.1L427.3 738.3L428.7 727.4L430 729.1L431.3 693L432.7 691.3L434 722.8L435.3 721.1L436.7 721L438 727.5L439.3 725L440.7 737.2L442 727.1L443.3 735.1L444.7 727.1L446 721.7L447.3 713.1L448.7 733.1L450 739.2L451.3 734.5L452.7 709.6L454 727.1L455.3 703.7L456.7 669.3L458 695.9L459.3 730.4L460.7 737L462 716.8L463.3 688.2L464.7 699.3L466 724.1L467.3 723.1L468.7 710.7L470 715L471.3 683.9L472.7 674.2L474 697.3L475.3 721.6L476.7 718.1L478 708.2L479.3 704.3L480.7 703.7L482 715.8L483.3 698.6L484.7 689.1L486 697.3L487.3 701.6L488.7 687.9L490 694.2L491.3 713.5L492.7 731.4L494 707.2L495.3 677.6L496.7 694.6L498 725.7L499.3 704.8L500.7 710.7L502 656.3L503.3 719.2L504.7 686.5L506 686.2L507.3 714L508.7 732.3L510 732.2L511.3 567L512.7 668L514 566.3L515.3 641.3L516.7 545L518 620.2L519.3 572.8L520.7 607.9L522 526.9L523.3 622.9L524.7 547.6L526 614.8L527.3 521.7L528.7 627L530 570.6L531.3 642.9L532.7 448.7L534 626.5L535.3 544.6L536.7 619.8L538 528.5L539.3 631.1L540.7 517.4L542 617.9L543.3 555.8L544.7 597L546 514.7L547.3 605.2L548.7 517.3L550 637.1L551.3 516.6L552.7 613.4L554 547.2L555.3 596.3L556.7 551.5L558 604.1L559.3 549.2L560.7 582.2L562 529L563.3 563.9L564.7 352L566 587.4L567.3 497.1L568.7 557.8L570 498.5L571.3 623.9L572.7 434.6L574 588L575.3 514.2L576.7 597.1L578 521.3L579.3 585.1L580.7 523.3L582 576.6L583.3 503.7L584.7 579.9L586 539.3L587.3 628.1L588.7 550.5L590 660.1L591.3 697.2L592.7 731.1L594 687.7L595.3 721.1L596.7 722L598 709.2L599.3 736.6L600.7 737.2L602 677.5L603.3 718.1L604.7 734.4L606 712.2L607.3 715.3L608.7 711.1L610 722.5L611.3 718.9L612.7 703.9L614 728.1L615.3 736.4L616.7 709.4L618 656.9L619.3 707L620.7 728.6L622 734.3L623.3 720.2L624.7 712.2L626 718.2L627.3 712.4L628.7 701.6L630 712.2L631.3 734.4L632.7 708.9L634 690L635.3 715.4L636.7 712.9L638 707.4L639.3 698.5L640.7 697L642 721.8L643.3 696.4L644.7 703L646 703L647.3 727.2L648.7 724.4L650 703.2L651.3 685.3L652.7 715L654 721.3L655.3 676L656.7 719.8L658 714.5L659.3 707L660.7 710.7L662 701.1L663.3 733.9L664.7 727.1L666 721.3L667.3 703.8L668.7 722.7L670 736.4L671.3 696.5L672.7 718.5L674 737.9L675.3 710.6L676.7 707.8L678 713.9L679.3 735.3L680.7 717.1L682 684.9L683.3 733.9L684.7 714.2L686 699.6L687.3 695.2L688.7 710.8L690 714.5L691.3 704.2L692.7 701.3L694 714.7L695.3 732.8L696.7 734.8L698 679.4L699.3 724.1L700.7 731.2L702 734.6L703.3 720.7L704.7 725.5L706 732.8L707.3 728.2L708.7 715.9L710 721.9L711.3 733.7L712.7 706.1L714 705.2L715.3 687.9L716.7 720.7L718 725.7L719.3 708.3L720.7 710.3L722 736.3L723.3 718.9L724.7 703.2L726 714.8L727.3 709.5L728.7 692.6L730 698.5L731.3 702.4L732.7 717.4L734 717.1L735.3 713.5L736.7 703.7L738 715.5L739.3 663.4L740.7 694L742 691.9L743.3 734.8L744.7 718.3L746 705.6L747.3 721.3L748.7 729.5L750 720.7L751.3 691.6L752.7 733L754 725.9L755.3 707.7L756.7 713.7L758 713.7L759.3 737.5L760.7 744.2L762 711.6L763.3 727.5L764.7 725.3L766 721.3L767.3 709L768.7 735.7L770 709.1L771.3 740.5L772.7 696.9L774 712.1L775.3 740.6L776.7 739.5L778 697.8L779.3 710.3L780.7 716.7L782 731.6L783.3 720.5L784.7 733.5L786 725.7L787.3 732.9L788.7 709.3L790 699.8L791.3 733.8L792.7 732.4L794 694.7L795.3 724.8L796.7 738.9L798 712.3L799.3 711.7L800.7 726.9L802 731.7L803.3 729.9L804.7 723.5L806 706.5L807.3 718.5L808.7 715.8L810 700.6L811.3 700.3L812.7 739.2L814 719.5L815.3 703.4L816.7 713.5L818 713L819.3 721.7L820.7 689.6L822 703.4L823.3 718.9L824.7 715.3L826 716.1L827.3 731.7L828.7 736.3L830 704.3L831.3 576.9L832.7 668.8L834 572.6L835.3 633.2L836.7 537.1L838 659.2L839.3 586.5L840.7 632.1L842 522.4L843.3 660.2L844.7 547.4L846 621.6L847.3 548.7L848.7 679.2L850 596.1L851.3 632.8L852.7 560.1L854 673.4L855.3 597.4L856.7 683.6L858 548.8L859.3 620.3L860.7 562L862 656.7L863.3 563.1L864.7 680.2L866 592.8L867.3 666.8L868.7 545.5L870 653.1L871.3 593.4L872.7 681.4L874 559.7L875.3 654.4L876.7 567.9L878 632.8L879.3 548.4L880.7 617.7L882 575.2L883.3 657.7L884.7 529.6L886 617.4L887.3 584.4L888.7 639.2L890 563.7L891.3 619.1L892.7 574.4L894 670.8L895.3 545.4L896.7 609.8L898 553.5L899.3 600.3L900.7 478.1L902 581.2L903.3 568.3L904.7 624.9L906 520.1L907.3 633.5L908.7 593.6L910 656.5L911.3 635.1L912.7 726.3L914 720.6L915.3 734.3L916.7 717.6L918 712.7L919.3 707.4L920.7 736.6L922 721.6L923.3 709.2L924.7 718.4L926 737.1L927.3 698.9L928.7 711.5L930 733.1L931.3 715.9L932.7 716.3L934 725.9L935.3 705.6L936.7 704.3L938 710.9L939.3 725.3L940.7 735.3L942 709.7L943.3 707.5L944.7 717.3L946 732.2L947.3 723.4L948.7 710.4L950 692.1L951.3 728.1L952.7 697.5L954 663.3L955.3 717L956.7 704.9L958 728.3L959.3 705.1L960.7 675.4L962 727.3L963.3 719.4L964.7 705.9L966 712.5L967.3 707.9L968.7 699.7L970 712.6L971.3 710.8L972.7 727.4L974 720.2L975.3 692.5L976.7 695.3L978 728L979.3 713.1L980.7 708L982 710.6L983.3 705.9L984.7 707.5L986 713.5L987.3 728.9L988.7 741.9L990 745L991.3 704L992.7 730.1L994 704.6L995.3 727.8L996.7 721.2L998 731.8L999.3 718L1000.7 731.2L1002 721.3L1003.3 714.6L1004.7 734.9L1006 737.8L1007.3 695L1008.7 670.8L1010 730.5L1011.3 716.3L1012.7 705.3L1014 705L1015.3 711.1L1016.7 700.8L1018 711.4L1019.3 728.1L1020.7 714.8L1022 707.8L1023.3 715.3L1024.7 710L1026 729.9L1027.3 719.2L1028.7 707.4L1030 724.8L1031.3 729.1L1032.7 701.2L1034 698.7L1035.3 707.9L1036.7 714.2L1038 726.5L1039.3 711.6L1040.7 697.9L1042 722.7L1043.3 702.1L1044.7 705.4L1046 691.4L1047.3 724.8L1048.7 700.4L1050 694.3L1051.3 703.8L1052.7 725.3L1054 696.2L1055.3 675.2L1056.7 685.8L1058 726L1059.3 711.2L1060.7 694.7L1062 683L1063.3 718.5L1064.7 663.1L1066 699.2L1067.3 713.8L1068.7 715.6L1070 743L1071.3 704L1072.7 733.5L1074 735.7L1075.3 738.5L1076.7 722.3L1078 725.5L1079.3 719.1L1080.7 717L1082 720.9L1083.3 711.9L1084.7 738.1L1086 739.8L1087.3 712L1088.7 728.2L1090 733.6L1091.3 735.5L1092.7 712.1L1094 714.9L1095.3 742.2L1096.7 718.7L1098 699.6L1099.3 698.5L1100.7 733.5L1102 734.4L1103.3 721.4L1104.7 729.7L1106 685.8L1107.3 722.8L1108.7 714.3L1110 726.6L1111.3 712.5L1112.7 731.5L1114 712.1L1115.3 714.6L1116.7 727.9L1118 702.6L1119.3 701.6L1120.7 706.2L1122 723.2L1123.3 707.8L1124.7 700.3L1126 708.1L1127.3 706.3L1128.7 718.6L1130 710.4L1131.3 709.2L1132.7 717.7L1134 714.6L1135.3 709.1L1136.7 691.5L1138 714.7L1139.3 687.2L1140.7 698.9L1142 676.2L1143.3 718.4L1144.7 703.8L1146 666.5L1147.3 700.8L1148.7 693.7L1150 732.1L1151.3 582.2L1152.7 606.8L1154 588.2L1155.3 638.3L1156.7 564.9L1158 619.4L1159.3 585.2L1160.7 660.5L1162 558.4L1163.3 665.2L1164.7 555.4L1166 661.9L1167.3 559.8L1168.7 597.4L1170 572.6L1171.3 658.5L1172.7 563.9L1174 625.9L1175.3 569L1176.7 647L1178 536L1179.3 596.2L1180.7 534.4L1182 647.2L1183.3 510.7L1184.7 630.1L1186 532.3L1187.3 623.6L1188.7 536.8L1190 615.4L1191.3 579.4L1192.7 633L1194 517.1L1195.3 634.9L1196.7 551.1L1198 620L1199.3 530.8L1200.7 625.1L1202 556.6L1203.3 645.3L1204.7 529.3L1206 597L1207.3 565.8L1208.7 657.7L1210 504.7L1211.3 616.4L1212.7 577.9L1214 621L1215.3 529.8L1216.7 629.2L1218 568.3L1219.3 652L1220.7 561.8L1222 650.2L1223.3 588.9L1224.7 614.6L1226 537.2L1227.3 640L1228.7 599.6L1230 631.6L1231.3 677.5L1232.7 721.4L1234 720.4L1235.3 728.4L1236.7 697.1L1238 698.5L1239.3 712.1L1240.7 740.2L1242 699.1L1243.3 721.1L1244.7 740L1246 734L1247.3 706.6L1248.7 712.5L1250 720L1251.3 727L1252.7 719.3L1254 700.8L1255.3 711.5L1256.7 708L1258 716L1259.3 711.1L1260.7 724.4L1262 732.1L1263.3 674.8L1264.7 710.5L1266 734.1L1267.3 708.9L1268.7 695.7L1270 699.8L1271.3 724.2L1272.7 722.8L1274 712.8L1275.3 722.4L1276.7 714L1278 732.4L1279.3 674.4L1280.7 713.8L1282 734.9L1283.3 697.8L1284.7 710.9L1286 721L1287.3 676.2L1288.7 703.5L1290 682.3L1291.3 710.2L1292.7 727.8L1294 718.4L1295.3 683.6L1296.7 717.3L1298 722L1299.3 713.6L1300.7 716.8L1302 710.4L1303.3 701.7L1304.7 703L1306 702.6L1307.3 714.3L1308.7 739.2L1310 729.4L1311.3 686L1312.7 720.9L1314 732.9L1315.3 727.6L1316.7 696.5L1318 738.4L1319.3 722.2L1320.7 716.2L1322 721.5L1323.3 742.8L1324.7 739.7L1326 735.2L1327.3 696.5L1328.7 713.2L1330 733.9L1331.3 738.3L1332.7 727.9L1334 734.2L1335.3 743.6L1336.7 733.9L1338 721.7L1339.3 716.9L1340.7 738.3L1342 712.6L1343.3 695.9L1344.7 716.8L1346 724.5L1347.3 724L1348.7 706.1L1350 722.2L1351.3 730.4L1352.7 690.7L1354 685.4L1355.3 704.9L1356.7 732.5L1358 709.7L1359.3 708.7L1360.7 713.3L1362 711.2L1363.3 713L1364.7 715.7L1366 692.5L1367.3 715.6L1368.7 723.4L1370 703.1L1371.3 715.7L1372.7 727.3L1374 719.9L1375.3 709.1L1376.7 680.1L1378 715.5L1379.3 705L1380.7 706.4L1382 707.7L1383.3 734.4L1384.7 712.7L1386 684.2L1387.3 723.6L1388.7 741.2L1390 734.9L1391.3 719.5L1392.7 716.2L1394 703.5L1395.3 730.7L1396.7 704.8L1398 713.2L1399.3 730.7L1400.7 691.4L1402 677.6L1403.3 732.5L1404.7 723.9L1406 726.4L1407.3 721.4L1408.7 713.3L1410 695.5L1411.3 733.7L1412.7 711.4L1414 726.4L1415.3 721.9L1416.7 707.1L1418 689.6L1419.3 724.9L1420.7 714.3L1422 728.9L1423.3 708.6L1424.7 704.9L1426 733.7L1427.3 699.4L1428.7 719L1430 717L1431.3 736.4L1432.7 731.5L1434 714.3L1435.3 700.9L1436.7 728.7L1438 722.3L1439.3 716.8L1440.7 728.1L1442 705.8L1443.3 713.6L1444.7 716.5L1446 699.1L1447.3 729.2L1448.7 721.9L1450 700.1L1451.3 681.9L1452.7 724.4L1454 717.6L1455.3 712.6L1456.7 722.7L1458 706L1459.3 677.8L1460.7 676.8L1462 706.1L1463.3 736.9L1464.7 718.3L1466 685.3L1467.3 710.8L1468.7 736.6L1470 738.3L1471.3 586.5L1472.7 638.2L1474 576.9L1475.3 630.5L1476.7 543.2L1478 622.9L1479.3 472.8L1480.7 619.1L1482 526.4L1483.3 569.7L1484.7 526.7L1486 600.8L1487.3 424L1488.7 579.9L1490 461.1L1491.3 569.7L1492.7 392.2L1494 561.9L1495.3 501.2L1496.7 555.2L1498 516L1499.3 660.8L1500.7 529L1502 632.2L1503.3 561.1L1504.7 652L1506 580.2L1507.3 658.5L1508.7 552.1L1510 625.4L1511.3 564L1512.7 659.4L1514 516.9L1515.3 638.5L1516.7 555.4L1518 636.6L1519.3 557L1520.7 640.2L1522 569.7L1523.3 648.4L1524.7 569L1526 628L1527.3 552.1L1528.7 630.5L1530 555.9L1531.3 617.4L1532.7 563.6L1534 663.6L1535.3 552L1536.7 628.9L1538 558.9L1539.3 621.6L1540.7 546.4L1542 630.1L1543.3 550.4L1544.7 632L1546 565.1L1547.3 604.7L1548.7 598.4L1550 670.3L1551.3 682.1L1552.7 712.4L1554 677.6L1555.3 695.4L1556.7 715.9L1558 711L1559.3 718.2L1560.7 720L1562 713.3L1563.3 706.4L1564.7 728.2L1566 731.9L1567.3 719.5L1568.7 718.2L1570 711.1L1571.3 677.8L1572.7 704.8L1574 725.4L1575.3 737.3L1576.7 726.4L1578 696.5L1579.3 704.3L1580.7 712.4L1582 723.4L1583.3 713.9L1584.7 711.2L1586 704.8L1587.3 707.3L1588.7 701.1L1590 719.8L1591.3 722.9L1592.7 726.6L1594 711.2L1595.3 691.2L1596.7 721.6L1598 706.5L1599.3 712.2L1600.7 723.9L1602 710.2L1603.3 706.6L1604.7 701.2L1606 686.6L1607.3 720.1L1608.7 699.3L1610 705.7L1611.3 701.6L1612.7 723.9L1614 716.8L1615.3 712.1L1616.7 700.1L1618 730L1619.3 669.3L1620.7 706.4L1622 689.2L1623.3 718L1624.7 681.9L1626 688.7L1627.3 722L1628.7 727.6L1630 721.7L1631.3 697.8L1632.7 728.8L1634 702.4L1635.3 705.3L1636.7 723.6L1638 714.8L1639.3 721.1L1640.7 720.8L1642 676.3L1643.3 715.1L1644.7 729.3L1646 718.7L1647.3 686.8L1648.7 735.7L1650 736.3L1651.3 695.7L1652.7 718.2L1654 729.3L1655.3 733.7L1656.7 714.7L1658 706.9L1659.3 702.6L1660.7 734.3L1662 732.3L1663.3 718L1664.7 732.9L1666 729.9L1667.3 723.7L1668.7 707.4L1670 718.9L1671.3 726.6L1672.7 733.6L1674 721L1675.3 712.7L1676.7 687.5L1678 693.6L1679.3 697.8L1680.7 702.7L1682 731.5L1683.3 695.2L1684.7 676.1L1686 687.5L1687.3 731.7L1688.7 728.5L1690 709.1L1691.3 689L1692.7 717.7L1694 716.2L1695.3 714.9L1696.7 693.9L1698 707.8L1699.3 702.9L1700.7 699L1702 710.1L1703.3 725.9L1704.7 681.9L1706 728.3L1707.3 723.6L1708.7 744L1710 717.9L1711.3 715.8L1712.7 718.8L1714 718.3L1715.3 706.7L1716.7 705.5L1718 694.7L1719.3 742.9L1720.7 711.7L1722 712.1L1723.3 681.1L1724.7 729.9L1726 733.9L1727.3 714.6L1728.7 731.8L1730 738.9L1731.3 681.4L1732.7 692.6L1734 704.5L1735.3 734.4L1736.7 704.6L1738 702.6L1739.3 715.7L1740.7 718.2L1742 728.3L1743.3 715.1L1744.7 730.1L1746 720.9L1747.3 730L1748.7 707.7L1750 715.3L1751.3 732.4L1752.7 711.9L1754 720.2L1755.3 730.4L1756.7 703.4L1758 711.4L1759.3 707.2L1760.7 710.6L1762 717.8L1763.3 697.1L1764.7 661.4L1766 706L1767.3 723L1768.7 712.3L1770 717L1771.3 701.8L1772.7 695.4L1774 690.9L1775.3 685.9L1776.7 677.5L1778 713.8L1779.3 694.3L1780.7 691.1L1782 704.7L1783.3 732.6L1784.7 723L1786 728.6L1787.3 725.8L1788.7 728.6L1790 734.7L1791.3 578.1L1792.7 671.4L1794 592.3L1795.3 643.7L1796.7 561L1798 640.3L1799.3 580.4" fill="transparent" stroke="#3fb1e3" stroke-width="3" stroke-linejoin="bevel" class="zr0-cls-2"></path>
</g>
<g clip-path="url(#zr0-c1)">
<path d="M200.7 353.1L202 496.5L203.3 676.7L204.7 582.4L206 672.8L207.3 551.9L208.7 646.7L210 542.7L211.3 657.3L212.7 568.9L214 627.8L215.3 540.8L216.7 665.1L218 540.2L219.3 648.8L220.7 549L222 628.9L223.3 553.7L224.7 592.5L226 563.5L227.3 634.4L228.7 514L230 628L231.3 558.8L232.7 626.8L234 522.4L235.3 624.4L236.7 554.7L238 648.6L239.3 554.1L240.7 618L242 561.6L243.3 647.1L244.7 544.4L246 615.6L247.3 565.3L248.7 640.8L250 500.5L251.3 622L252.7 566.5L254 639.9L255.3 543L256.7 624.9L258 549L259.3 634.6L260.7 529.3L262 615.4L263.3 574.6L264.7 614L266 519.2L267.3 644.9L268.7 576.3L270 636.8L271.3 688.2L272.7 718.4L274 686.4L275.3 716.4L276.7 696.7L278 701.1L279.3 700L280.7 690.3L282 683.4L283.3 718.5L284.7 722.5L286 739.5L287.3 715.3L288.7 727.8L290 731.5L291.3 717.3L292.7 721.3L294 724.9L295.3 680.4L296.7 725.5L298 718.7L299.3 724.5L300.7 733.7L302 734.8L303.3 682L304.7 693.5L306 736.2L307.3 723.7L308.7 693.1L310 715L311.3 703.8L312.7 705.9L314 701.7L315.3 716.1L316.7 728.6L318 701.6L319.3 701.3L320.7 707.7L322 725.8L323.3 725.4L324.7 719.8L326 718.7L327.3 715.3L328.7 651.9L330 702L331.3 714.2L332.7 729.9L334 703.5L335.3 709.4L336.7 690.7L338 709.4L339.3 713.2L340.7 705.8L342 688.4L343.3 726.1L344.7 703.4L346 717.3L347.3 735.9L348.7 746.5L350 741.1L351.3 695.3L352.7 710.4L354 743.7L355.3 730.4L356.7 701.2L358 733.3L359.3 722.1L360.7 722.6L362 705.2L363.3 739L364.7 723.3L366 733.3L367.3 707.9L368.7 728.4L370 728.2L371.3 727.3L372.7 721.8L374 716.5L375.3 728.4L376.7 730.3L378 705.3L379.3 709.6L380.7 711.7L382 731.2L383.3 709.5L384.7 715.3L386 705L387.3 703.1L388.7 693L390 722.6L391.3 735.3L392.7 703.6L394 686.5L395.3 696.7L396.7 722.3L398 722L399.3 718.4L400.7 723.1L402 703.6L403.3 720.9L404.7 705.4L406 717.3L407.3 712.7L408.7 704.9L410 675.3L411.3 702.4L412.7 732.9L414 722.9L415.3 709.1L416.7 722.6L418 703.1L419.3 690L420.7 711.9L422 716.4L423.3 734L424.7 721.9L426 685.3L427.3 724.5L428.7 719.9L430 721L431.3 677.1L432.7 721.4L434 704.9L435.3 738.7L436.7 706.7L438 719.7L439.3 742.3L440.7 742.7L442 699.5L443.3 736.6L444.7 721.8L446 719.6L447.3 713.4L448.7 742L450 702.3L451.3 708.2L452.7 704.9L454 730.7L455.3 718.1L456.7 736.3L458 724L459.3 687.4L460.7 733.9L462 734.6L463.3 721.4L464.7 724.8L466 714.6L467.3 725.6L468.7 717.6L470 704.5L471.3 728.3L472.7 717.8L474 721.5L475.3 709.7L476.7 726.6L478 708.6L479.3 716.2L480.7 714L482 727.7L483.3 705.9L484.7 706.4L486 709L487.3 713.1L488.7 724.5L490 712.5L491.3 698.9L492.7 705.3L494 697.2L495.3 690.6L496.7 715.9L498 714.9L499.3 699.3L500.7 701L502 687.3L503.3 733.7L504.7 715.4L506 712L507.3 707.4L508.7 705.2L510 712.6L511.3 584L512.7 638.4L514 579.9L515.3 672.5L516.7 525.2L518 622.9L519.3 546.5L520.7 634.2L522 547.9L523.3 654.9L524.7 555.2L526 617.8L527.3 529.1L528.7 634.3L530 528.6L531.3 634.7L532.7 566.1L534 643.6L535.3 571L536.7 631.3L538 541.8L539.3 601.6L540.7 568.3L542 652.6L543.3 544.6L544.7 558.7L546 543.5L547.3 653.2L548.7 532.3L550 608.9L551.3 567.8L552.7 631.4L554 548.5L555.3 638.9L556.7 559.5L558 634L559.3 544.6L560.7 604.8L562 560.3L563.3 619.3L564.7 535.4L566 582.2L567.3 554.9L568.7 647.1L570 532.6L571.3 611.3L572.7 562.4L574 636.9L575.3 536L576.7 621.6L578 559.7L579.3 593.8L580.7 518.6L582 618.8L583.3 534.2L584.7 625.5L586 538.1L587.3 648.3L588.7 590.9L590 628.6L591.3 682.6L592.7 703.4L594 737.5L595.3 734.8L596.7 701.3L598 705.7L599.3 728.3L600.7 716.6L602 706.4L603.3 738.6L604.7 738.6L606 713.9L607.3 688.2L608.7 713.1L610 720.1L611.3 736.5L612.7 721.2L614 720.3L615.3 716.1L616.7 713.6L618 691.2L619.3 698.1L620.7 729.7L622 733.9L623.3 693.2L624.7 729.9L626 717.6L627.3 716.3L628.7 719.6L630 722L631.3 710.9L632.7 705.2L634 712.1L635.3 709.6L636.7 741.8L638 733.6L639.3 688.9L640.7 702L642 720.5L643.3 706.3L644.7 706L646 700.9L647.3 703.5L648.7 699.2L650 698.1L651.3 724.6L652.7 736L654 723.9L655.3 688.4L656.7 709.2L658 722.3L659.3 702.8L660.7 711.1L662 702L663.3 732.3L664.7 706.2L666 715L667.3 712.8L668.7 738.4L670 744.9L671.3 730.3L672.7 709.3L674 738.9L675.3 706.9L676.7 678.6L678 711.8L679.3 734.3L680.7 685.9L682 718.5L683.3 726.1L684.7 712.2L686 735.7L687.3 719.7L688.7 725.2L690 715L691.3 726.3L692.7 714.1L694 725L695.3 703.2L696.7 690.3L698 692.2L699.3 715.6L700.7 729.3L702 718.4L703.3 704.5L704.7 696.9L706 703.9L707.3 708.5L708.7 655.3L710 682.8L711.3 693L712.7 686.4L714 668L715.3 706.7L716.7 722.1L718 711.2L719.3 693.5L720.7 676.9L722 710.8L723.3 698L724.7 702.5L726 693.7L727.3 651.2L728.7 692.5L730 691.2L731.3 662L732.7 704.2L734 667.5L735.3 627.7L736.7 660.5L738 717L739.3 696.8L740.7 684.8L742 658.3L743.3 726.6L744.7 679L746 709.1L747.3 725.6L748.7 718.1L750 725.7L751.3 709.6L752.7 743.1L754 742.7L755.3 744L756.7 709.5L758 720.3L759.3 712.4L760.7 740.9L762 721.8L763.3 726.6L764.7 722.2L766 698.4L767.3 716.5L768.7 731.3L770 735.6L771.3 741L772.7 725.9L774 724.8L775.3 726.1L776.7 732.8L778 718.8L779.3 711.7L780.7 712.2L782 728.1L783.3 710.7L784.7 728.2L786 734.4L787.3 734.1L788.7 711.5L790 703L791.3 722.8L792.7 724.2L794 697.7L795.3 704.2L796.7 733.8L798 708.6L799.3 707.9L800.7 707.1L802 719.2L803.3 730.7L804.7 722.2L806 711.1L807.3 714.7L808.7 710.4L810 698.7L811.3 720.6L812.7 735.4L814 719.9L815.3 704.6L816.7 709.9L818 731.4L819.3 719.6L820.7 707.7L822 717.6L823.3 711.1L824.7 703.5L826 703.8L827.3 739.6L828.7 739.3L830 745.6L831.3 581.1L832.7 646.5L834 588.1L835.3 653.8L836.7 523.4L838 643.7L839.3 587.4L840.7 675.4L842 559.8L843.3 637.7L844.7 534.4L846 624.6L847.3 527.3L848.7 640.9L850 570.5L851.3 624.7L852.7 556.6L854 615.7L855.3 557.9L856.7 633.1L858 493.2L859.3 634L860.7 546.1L862 630.2L863.3 529.2L864.7 601.1L866 564.6L867.3 654.3L868.7 543.7L870 642.6L871.3 561.2L872.7 603.7L874 533.1L875.3 617.7L876.7 558.4L878 598.6L879.3 527.7L880.7 640L882 536.5L883.3 620.6L884.7 538.4L886 636L887.3 571.2L888.7 597.4L890 540.2L891.3 617.8L892.7 537.2L894 597.8L895.3 553.6L896.7 619.5L898 566.9L899.3 605.8L900.7 516.2L902 628.8L903.3 552L904.7 624.6L906 538.5L907.3 659.2L908.7 575.1L910 642.8L911.3 699.6L912.7 722.3L914 732.3L915.3 738.1L916.7 711.2L918 709.1L919.3 711.9L920.7 723.4L922 702.7L923.3 700.4L924.7 736.2L926 727.1L927.3 717.6L928.7 732.6L930 733.7L931.3 723.1L932.7 695.5L934 705.1L935.3 711.7L936.7 739L938 715.6L939.3 731.4L940.7 712.3L942 715.1L943.3 719.3L944.7 712.3L946 710.1L947.3 732.1L948.7 701.5L950 703L951.3 732L952.7 725.3L954 702.3L955.3 706L956.7 696.1L958 713.7L959.3 708.5L960.7 717L962 719.4L963.3 728.8L964.7 711.5L966 688.1L967.3 733.3L968.7 721.6L970 695.7L971.3 728.2L972.7 703.3L974 700.2L975.3 702.8L976.7 715.7L978 737.9L979.3 730.1L980.7 701.6L982 682.5L983.3 735.7L984.7 721.8L986 722.1L987.3 739.4L988.7 744.2L990 707.4L991.3 720.1L992.7 720.3L994 733.3L995.3 735.7L996.7 720.4L998 714.7L999.3 725.5L1000.7 725.4L1002 702.1L1003.3 730.3L1004.7 743.1L1006 735.8L1007.3 678.8L1008.7 739L1010 738.5L1011.3 719.5L1012.7 697.1L1014 734.3L1015.3 728.4L1016.7 726.7L1018 706.6L1019.3 739.6L1020.7 740.8L1022 713.1L1023.3 688.4L1024.7 721L1026 731.6L1027.3 720.1L1028.7 714.7L1030 727.8L1031.3 699.3L1032.7 692.1L1034 720.1L1035.3 728.2L1036.7 734.7L1038 730.5L1039.3 688.1L1040.7 690.1L1042 713.7L1043.3 702.3L1044.7 721.6L1046 700.4L1047.3 711.8L1048.7 713.8L1050 699.6L1051.3 723.5L1052.7 727.8L1054 720.3L1055.3 703.8L1056.7 701.2L1058 720.7L1059.3 716.3L1060.7 715.4L1062 710.3L1063.3 734.6L1064.7 701.7L1066 697.9L1067.3 689.8L1068.7 715.9L1070 719.8L1071.3 687.8L1072.7 718L1074 727.4L1075.3 718.3L1076.7 716.7L1078 720L1079.3 723L1080.7 701.8L1082 722.5L1083.3 710.8L1084.7 736.4L1086 723.5L1087.3 721.5L1088.7 736L1090 712.3L1091.3 739.6L1092.7 722.2L1094 723L1095.3 740.6L1096.7 732.7L1098 715.6L1099.3 712.6L1100.7 739.4L1102 739.9L1103.3 721.3L1104.7 731.6L1106 714.4L1107.3 731.3L1108.7 719L1110 709.2L1111.3 736L1112.7 730L1114 719.4L1115.3 691.7L1116.7 735L1118 727.3L1119.3 714.7L1120.7 712.3L1122 725.9L1123.3 718.7L1124.7 710.6L1126 718.4L1127.3 726.5L1128.7 707.2L1130 676.5L1131.3 705.6L1132.7 702.9L1134 720.4L1135.3 698.8L1136.7 711.8L1138 734L1139.3 688.4L1140.7 703.7L1142 715.6L1143.3 716.3L1144.7 708.2L1146 708.1L1147.3 695.3L1148.7 736.6L1150 733.9L1151.3 583.6L1152.7 651.4L1154 573.1L1155.3 643.3L1156.7 569.9L1158 655.9L1159.3 584.8L1160.7 642.4L1162 537L1163.3 646.2L1164.7 556.3L1166 636.5L1167.3 529.7L1168.7 631.3L1170 564.7L1171.3 657.2L1172.7 544.3L1174 598L1175.3 545.7L1176.7 626.1L1178 534.1L1179.3 599.7L1180.7 557.6L1182 657.7L1183.3 564.3L1184.7 642.8L1186 564.5L1187.3 605.4L1188.7 498.6L1190 628.4L1191.3 554.8L1192.7 625.7L1194 551.9L1195.3 636L1196.7 556.5L1198 624.5L1199.3 524.1L1200.7 613.3L1202 567.1L1203.3 651.3L1204.7 547.5L1206 588.7L1207.3 565.3L1208.7 614.8L1210 542.6L1211.3 611.7L1212.7 556.9L1214 616.3L1215.3 521.4L1216.7 605L1218 545.9L1219.3 616.9L1220.7 529.2L1222 584.6L1223.3 533.7L1224.7 596.9L1226 529.7L1227.3 622.5L1228.7 593.2L1230 662L1231.3 669.8L1232.7 723.4L1234 727L1235.3 720.1L1236.7 708.2L1238 723.9L1239.3 705.4L1240.7 739.9L1242 706.5L1243.3 718.1L1244.7 721L1246 694.9L1247.3 704.1L1248.7 732.8L1250 737.3L1251.3 726.3L1252.7 719.3L1254 732.6L1255.3 720.1L1256.7 730.1L1258 712.6L1259.3 734.3L1260.7 718.1L1262 733L1263.3 686.9L1264.7 693.7L1266 730.9L1267.3 711.4L1268.7 697L1270 703.1L1271.3 719.5L1272.7 717.9L1274 704.3L1275.3 712L1276.7 737.8L1278 707.8L1279.3 693.3L1280.7 717.2L1282 711L1283.3 727.2L1284.7 695.6L1286 711.3L1287.3 706.7L1288.7 724.1L1290 703.4L1291.3 704.4L1292.7 724.1L1294 699.3L1295.3 713.9L1296.7 714.1L1298 712.4L1299.3 725.7L1300.7 718.8L1302 720L1303.3 702.9L1304.7 708.7L1306 723.5L1307.3 724L1308.7 742.4L1310 739.4L1311.3 696.7L1312.7 711.6L1314 713.7L1315.3 740.2L1316.7 725.9L1318 720L1319.3 723.1L1320.7 720.9L1322 719.5L1323.3 736.5L1324.7 734.4L1326 737.1L1327.3 701.6L1328.7 703.5L1330 707L1331.3 728.2L1332.7 710.5L1334 736L1335.3 742.3L1336.7 716.1L1338 681.4L1339.3 727.6L1340.7 717.3L1342 729.8L1343.3 727.4L1344.7 708.6L1346 722L1347.3 726.6L1348.7 712.9L1350 705.5L1351.3 739L1352.7 733.7L1354 722.8L1355.3 710.3L1356.7 733.3L1358 732.5L1359.3 717.7L1360.7 719.4L1362 683.3L1363.3 710.1L1364.7 694L1366 723.1L1367.3 724.4L1368.7 706.8L1370 714.4L1371.3 717.4L1372.7 728.4L1374 727.4L1375.3 719.9L1376.7 700L1378 731.3L1379.3 703.1L1380.7 673.3L1382 705.4L1383.3 737.8L1384.7 714.4L1386 708.3L1387.3 724.2L1388.7 721.4L1390 722.5L1391.3 726.3L1392.7 747.5L1394 745.2L1395.3 736.8L1396.7 720.3L1398 735.1L1399.3 720.6L1400.7 731.6L1402 690.9L1403.3 711.4L1404.7 732.7L1406 716.6L1407.3 723L1408.7 738.7L1410 740.2L1411.3 737.2L1412.7 676.7L1414 708.2L1415.3 731.6L1416.7 709.5L1418 716.7L1419.3 715.5L1420.7 705.1L1422 731.5L1423.3 688.4L1424.7 733.4L1426 737.1L1427.3 731.9L1428.7 715.9L1430 693.7L1431.3 732.5L1432.7 707.1L1434 719.3L1435.3 728.7L1436.7 704.3L1438 699.9L1439.3 698.7L1440.7 720.4L1442 726.4L1443.3 731.5L1444.7 713.1L1446 697.1L1447.3 709.4L1448.7 718.1L1450 698.6L1451.3 728.7L1452.7 726.7L1454 709.5L1455.3 709.1L1456.7 721.3L1458 730.7L1459.3 721.8L1460.7 703.5L1462 699.2L1463.3 728.1L1464.7 716.7L1466 726.7L1467.3 713.6L1468.7 744.5L1470 719.7L1471.3 585.5L1472.7 678.1L1474 601.5L1475.3 656.3L1476.7 564.2L1478 641.1L1479.3 546.8L1480.7 635.8L1482 568.4L1483.3 639.6L1484.7 548.3L1486 659.1L1487.3 543.3L1488.7 635.9L1490 553.7L1491.3 623.3L1492.7 547.3L1494 619.4L1495.3 551.6L1496.7 610.7L1498 546.2L1499.3 617.1L1500.7 568L1502 640.6L1503.3 538.4L1504.7 622.8L1506 561.5L1507.3 619.9L1508.7 514.6L1510 640.8L1511.3 561.6L1512.7 639.5L1514 505L1515.3 613.7L1516.7 529.5L1518 611.4L1519.3 548.6L1520.7 646L1522 536.3L1523.3 608.9L1524.7 541.3L1526 589.5L1527.3 508.2L1528.7 614.9L1530 553.4L1531.3 588.1L1532.7 535.8L1534 615.1L1535.3 532.1L1536.7 628.8L1538 576.1L1539.3 642.1L1540.7 541.9L1542 587.5L1543.3 571.1L1544.7 609.2L1546 569.9L1547.3 621.4L1548.7 606.5L1550 677.7L1551.3 684.3L1552.7 712.6L1554 680.3L1555.3 716.1L1556.7 698.1L1558 713.1L1559.3 730L1560.7 719L1562 723.4L1563.3 737.7L1564.7 741.1L1566 715.5L1567.3 715.3L1568.7 717L1570 733.9L1571.3 706L1572.7 714.5L1574 726.5L1575.3 715.1L1576.7 739L1578 717.2L1579.3 705.1L1580.7 728.2L1582 731.9L1583.3 716.4L1584.7 712.1L1586 720L1587.3 693.7L1588.7 710.3L1590 724.2L1591.3 726.7L1592.7 719L1594 696.3L1595.3 717.1L1596.7 724.8L1598 725L1599.3 717.4L1600.7 715.2L1602 685.2L1603.3 700.8L1604.7 715.8L1606 717.2L1607.3 733.3L1608.7 721.8L1610 675.7L1611.3 695.1L1612.7 717.9L1614 717.7L1615.3 715.2L1616.7 715L1618 712.1L1619.3 709.1L1620.7 694.1L1622 716.7L1623.3 735.8L1624.7 699.1L1626 706.3L1627.3 676.8L1628.7 715.1L1630 740.7L1631.3 708.3L1632.7 738.6L1634 743.3L1635.3 714.1L1636.7 722.5L1638 735.8L1639.3 718.3L1640.7 724.2L1642 730.3L1643.3 707L1644.7 707.6L1646 732.5L1647.3 709.4L1648.7 732.6L1650 742.3L1651.3 718.4L1652.7 695.1L1654 705L1655.3 740.1L1656.7 719.4L1658 703.9L1659.3 735.9L1660.7 704.4L1662 733.7L1663.3 721.4L1664.7 734.5L1666 712.6L1667.3 712.9L1668.7 707.9L1670 699.3L1671.3 725.9L1672.7 733.2L1674 721.2L1675.3 727.8L1676.7 710.2L1678 702.8L1679.3 716.8L1680.7 709.9L1682 738.8L1683.3 727.6L1684.7 683.1L1686 710.2L1687.3 728.7L1688.7 717.5L1690 695.5L1691.3 719.1L1692.7 715.4L1694 695.7L1695.3 705.2L1696.7 703L1698 734L1699.3 721.8L1700.7 677.7L1702 695.3L1703.3 701.8L1704.7 710.9L1706 723L1707.3 713.9L1708.7 741L1710 730.7L1711.3 714.7L1712.7 737L1714 742.3L1715.3 743.5L1716.7 726.2L1718 709.3L1719.3 733.3L1720.7 730.9L1722 695.9L1723.3 715.2L1724.7 738L1726 733.2L1727.3 723.5L1728.7 711.9L1730 720.4L1731.3 740.4L1732.7 716.9L1734 703.9L1735.3 732.8L1736.7 733.6L1738 689.9L1739.3 711.3L1740.7 716.3L1742 702.2L1743.3 691.2L1744.7 730.1L1746 720.5L1747.3 731.7L1748.7 719.3L1750 728.9L1751.3 731.5L1752.7 713L1754 721.7L1755.3 713.5L1756.7 714.9L1758 737.1L1759.3 705.3L1760.7 703.9L1762 738.4L1763.3 728.7L1764.7 722.9L1766 705.6L1767.3 726.3L1768.7 714.5L1770 695.6L1771.3 723.9L1772.7 738.3L1774 723.8L1775.3 713.8L1776.7 707.1L1778 721.9L1779.3 715L1780.7 719.7L1782 718.7L1783.3 714.1L1784.7 714.6L1786 722.1L1787.3 725.7L1788.7 736.3L1790 744L1791.3 559.2L1792.7 654.7L1794 595L1795.3 651.5L1796.7 501.1L1798 647.9L1799.3 587" fill="transparent" stroke="#6be6c1" stroke-width="3" stroke-linejoin="bevel" class="zr0-cls-2"></path>
</g>
<g clip-path="url(#zr0-c2)">
<path d="M200.7 300.3L202 398.3L203.3 635.5L204.7 568.7L206 660.9L207.3 527L208.7 655.4L210 574.5L211.3 614.8L212.7 496.8L214 618.1L215.3 570.2L216.7 624.9L218 554.7L219.3 648.6L220.7 553.1L222 633.9L223.3 533.2L224.7 634.4L226 507.4L227.3 622.5L228.7 539L230 638.2L231.3 561.7L232.7 630.7L234 542.7L235.3 640.3L236.7 524.2L238 637.4L239.3 543.7L240.7 633.9L242 509.1L243.3 578L244.7 539.6L246 597.2L247.3 537L248.7 618.9L250 553.9L251.3 625.1L252.7 534.2L254 630.7L255.3 546.9L256.7 601L258 550.1L259.3 627.4L260.7 525.1L262 561.1L263.3 542.8L264.7 629.3L266 498.7L267.3 625.4L268.7 576.7L270 665L271.3 654.7L272.7 723.4L274 705.8L275.3 726.6L276.7 714.9L278 714.2L279.3 691.4L280.7 707L282 699.8L283.3 730L284.7 730.7L286 707.6L287.3 693.2L288.7 733.8L290 731.8L291.3 717.9L292.7 708.4L294 704.4L295.3 717.6L296.7 669L298 707.1L299.3 723.9L300.7 712.2L302 707.5L303.3 680.6L304.7 714L306 735.4L307.3 726.2L308.7 711.7L310 707.6L311.3 727.6L312.7 676.1L314 687.2L315.3 714.8L316.7 710L318 722.4L319.3 710.2L320.7 678.9L322 714.6L323.3 694L324.7 707.9L326 692.9L327.3 706.2L328.7 709L330 695.7L331.3 716.1L332.7 730.1L334 707.4L335.3 629.5L336.7 694.2L338 722.4L339.3 684.6L340.7 692.4L342 662.8L343.3 687.7L344.7 690.7L346 705.8L347.3 728.2L348.7 736.2L350 732.2L351.3 717.4L352.7 726.7L354 733.9L355.3 726.6L356.7 717.6L358 690.8L359.3 700.5L360.7 735.2L362 718.3L363.3 734.6L364.7 735.9L366 707.4L367.3 709.7L368.7 697.3L370 721.3L371.3 714.1L372.7 715.1L374 692.6L375.3 714.1L376.7 713.9L378 711.3L379.3 719.1L380.7 713L382 705.8L383.3 704.9L384.7 713.7L386 730.2L387.3 721.3L388.7 687.3L390 711L391.3 718L392.7 714.1L394 695.8L395.3 720.1L396.7 723.8L398 712.1L399.3 702L400.7 716.4L402 735.7L403.3 726.4L404.7 695.9L406 688.3L407.3 683.6L408.7 714.5L410 711.5L411.3 700.9L412.7 725L414 676L415.3 651.7L416.7 706.7L418 725.4L419.3 709.8L420.7 716L422 698.9L423.3 728.2L424.7 712.2L426 718.6L427.3 729.6L428.7 744.8L430 731.1L431.3 700.5L432.7 737.4L434 736.9L435.3 716.6L436.7 697.1L438 690.6L439.3 727.7L440.7 720.7L442 725L443.3 710.7L444.7 714.7L446 737.4L447.3 719.2L448.7 732L450 736.6L451.3 736.1L452.7 712.4L454 728.6L455.3 712.6L456.7 700.1L458 686.7L459.3 702.1L460.7 717.1L462 730.6L463.3 695.2L464.7 696.6L466 715.8L467.3 710.3L468.7 717.6L470 710.1L471.3 720.6L472.7 715.1L474 691.7L475.3 725L476.7 738.3L478 727.8L479.3 711L480.7 684L482 725.3L483.3 706.8L484.7 718.7L486 696.3L487.3 673.1L488.7 697.1L490 686L491.3 721.5L492.7 713L494 721.4L495.3 686.1L496.7 710.7L498 731.1L499.3 713.2L500.7 690.7L502 702.8L503.3 722L504.7 687.2L506 714.1L507.3 691L508.7 730.7L510 741.6L511.3 585.4L512.7 676.6L514 573.5L515.3 651.1L516.7 554.5L518 636.5L519.3 579.1L520.7 641.5L522 517.3L523.3 629.1L524.7 551.8L526 634.7L527.3 550.3L528.7 627.4L530 586.9L531.3 637.1L532.7 543.2L534 623.1L535.3 560L536.7 664L538 505L539.3 667.5L540.7 590L542 668.8L543.3 554.8L544.7 611.2L546 554.5L547.3 652.8L548.7 539L550 615.8L551.3 576.1L552.7 662.3L554 516L555.3 621.6L556.7 549L558 619.2L559.3 544.2L560.7 663.4L562 592.8L563.3 672.7L564.7 489.6L566 625.6L567.3 583.9L568.7 629.1L570 551.8L571.3 663.4L572.7 568.4L574 638.8L575.3 487.7L576.7 591.7L578 545.2L579.3 601.6L580.7 540.7L582 614.6L583.3 501.6L584.7 497.2L586 514.5L587.3 617.5L588.7 576.4L590 649.9L591.3 692L592.7 711.4L594 729.3L595.3 694.5L596.7 712.8L598 720.2L599.3 739.2L600.7 735.1L602 707.2L603.3 714.5L604.7 707L606 730.3L607.3 712.5L608.7 711.7L610 657.7L611.3 693.2L612.7 697.8L614 710.7L615.3 724.4L616.7 729.8L618 707L619.3 644.2L620.7 717.3L622 729.8L623.3 699.5L624.7 726.4L626 727.3L627.3 706.4L628.7 706.5L630 706.4L631.3 727.7L632.7 729.2L634 715.8L635.3 717.2L636.7 723.9L638 719.4L639.3 708.3L640.7 700.4L642 732.9L643.3 702.6L644.7 679.9L646 688.1L647.3 717.2L648.7 727.8L650 708.3L651.3 687.3L652.7 719.5L654 712.8L655.3 709.6L656.7 719.2L658 727.5L659.3 724.8L660.7 702L662 705.5L663.3 732.9L664.7 722.7L666 728.3L667.3 730.6L668.7 702.5L670 715.2L671.3 711.1L672.7 719.6L674 740.8L675.3 738.4L676.7 710L678 700.4L679.3 726.4L680.7 718.4L682 715.8L683.3 731.8L684.7 729.8L686 713.1L687.3 713.6L688.7 738.7L690 739.2L691.3 713.7L692.7 675.7L694 700L695.3 708.5L696.7 719L698 718.8L699.3 711.3L700.7 705.5L702 717.4L703.3 715.3L704.7 717.7L706 730.2L707.3 730.4L708.7 684.2L710 704.3L711.3 723.7L712.7 710.7L714 696.7L715.3 704.2L716.7 698.6L718 708.1L719.3 701L720.7 721.7L722 717L723.3 707.1L724.7 710.3L726 691L727.3 718.5L728.7 712.3L730 699.8L731.3 696.7L732.7 713.4L734 685.2L735.3 693.6L736.7 709.6L738 731.2L739.3 700.5L740.7 682.3L742 707.1L743.3 718.6L744.7 712.3L746 722.4L747.3 732.2L748.7 729.9L750 709.9L751.3 704.2L752.7 720.8L754 728.5L755.3 746.8L756.7 721L758 711.2L759.3 713.6L760.7 730.3L762 707.7L763.3 713.4L764.7 714.4L766 705.7L767.3 704.5L768.7 737.7L770 733.6L771.3 739.3L772.7 697.5L774 733.9L775.3 721.3L776.7 717.3L778 694L779.3 733.5L780.7 718L782 702.3L783.3 715.3L784.7 708.1L786 737L787.3 733.5L788.7 713.2L790 722.2L791.3 719.8L792.7 724.8L794 709.4L795.3 724.5L796.7 736.3L798 732.2L799.3 706L800.7 702.5L802 734.6L803.3 717.2L804.7 714L806 697.2L807.3 711.7L808.7 719.4L810 714.2L811.3 723.2L812.7 710.3L814 710.3L815.3 673L816.7 705.9L818 728L819.3 701.3L820.7 691.2L822 678.9L823.3 709.9L824.7 707.8L826 708.8L827.3 733.4L828.7 713.7L830 737.9L831.3 539L832.7 630L834 558.6L835.3 633.1L836.7 520.7L838 630.3L839.3 544.8L840.7 612.7L842 540.2L843.3 599.1L844.7 559.4L846 617.8L847.3 557.8L848.7 656.2L850 550.7L851.3 647.9L852.7 562.6L854 664.1L855.3 564.2L856.7 658.1L858 558.9L859.3 661.5L860.7 585.4L862 624.6L863.3 536.1L864.7 639.9L866 567.1L867.3 635.7L868.7 515.5L870 637.4L871.3 550.8L872.7 630.3L874 548.9L875.3 636.2L876.7 575.3L878 628.4L879.3 565.5L880.7 628.7L882 566.5L883.3 645.2L884.7 561.2L886 593.6L887.3 573.9L888.7 604.9L890 548.6L891.3 612.9L892.7 554.6L894 616.4L895.3 544.6L896.7 626.6L898 530.6L899.3 596.6L900.7 532.6L902 607.4L903.3 538.2L904.7 625.4L906 554.3L907.3 655.2L908.7 578L910 644.1L911.3 674.9L912.7 726.7L914 731.5L915.3 722.4L916.7 697.7L918 709L919.3 711.7L920.7 730.6L922 724.4L923.3 706.3L924.7 734.8L926 741.3L927.3 712.1L928.7 734.5L930 738.5L931.3 734.1L932.7 686.8L934 716L935.3 715.1L936.7 732.8L938 708.8L939.3 734.7L940.7 733.9L942 702.8L943.3 697.8L944.7 711.7L946 739.4L947.3 710.8L948.7 711.1L950 717.5L951.3 729.4L952.7 732.5L954 709.2L955.3 686.7L956.7 714.3L958 715.1L959.3 714.6L960.7 729.8L962 738.1L963.3 734.5L964.7 700.4L966 687.9L967.3 731L968.7 721L970 716.3L971.3 722L972.7 706L974 682.6L975.3 709.6L976.7 715L978 714.1L979.3 723.2L980.7 694.3L982 707.8L983.3 735.6L984.7 720.4L986 712.8L987.3 738.2L988.7 746.6L990 710.1L991.3 712.4L992.7 721.3L994 733.6L995.3 734.6L996.7 704.3L998 722.3L999.3 734.6L1000.7 716.9L1002 712.8L1003.3 741.6L1004.7 715.3L1006 708.5L1007.3 690.3L1008.7 703.5L1010 718.9L1011.3 719.6L1012.7 709.2L1014 714.1L1015.3 729.7L1016.7 721.3L1018 711.7L1019.3 718.2L1020.7 736.6L1022 729.2L1023.3 660.8L1024.7 724.4L1026 711.4L1027.3 710.2L1028.7 696.3L1030 706.3L1031.3 720.9L1032.7 711.6L1034 701.9L1035.3 703.5L1036.7 730.7L1038 698.8L1039.3 706.5L1040.7 711.8L1042 727.5L1043.3 714.7L1044.7 723.1L1046 720.5L1047.3 713.7L1048.7 721L1050 676.9L1051.3 721.5L1052.7 731.1L1054 702.1L1055.3 679.2L1056.7 688.5L1058 728.9L1059.3 702.2L1060.7 695.1L1062 708.7L1063.3 730L1064.7 708.7L1066 692.3L1067.3 705.9L1068.7 721.4L1070 721.6L1071.3 722.4L1072.7 739.5L1074 720.1L1075.3 723.9L1076.7 713.5L1078 721.1L1079.3 705.3L1080.7 736.7L1082 707.3L1083.3 719.8L1084.7 741.7L1086 739.8L1087.3 712.8L1088.7 735L1090 728.8L1091.3 717.1L1092.7 723.8L1094 717.4L1095.3 714.9L1096.7 713.3L1098 715.4L1099.3 729.6L1100.7 737.5L1102 730.7L1103.3 697.1L1104.7 658.8L1106 703.5L1107.3 715.3L1108.7 722.3L1110 721.3L1111.3 732.9L1112.7 677.9L1114 721.9L1115.3 726.6L1116.7 733.3L1118 706.4L1119.3 693.1L1120.7 708L1122 728.9L1123.3 716.7L1124.7 689.8L1126 698.1L1127.3 734.1L1128.7 684.6L1130 691.5L1131.3 701.3L1132.7 711.1L1134 723.3L1135.3 701.8L1136.7 686.3L1138 734.6L1139.3 721.6L1140.7 702.1L1142 686.5L1143.3 701L1144.7 699L1146 719.8L1147.3 730L1148.7 714.3L1150 740.9L1151.3 585.9L1152.7 657.4L1154 562.2L1155.3 644.9L1156.7 568.8L1158 621.8L1159.3 546.7L1160.7 637.6L1162 531.1L1163.3 636.3L1164.7 572.8L1166 663.7L1167.3 527.9L1168.7 631.5L1170 557L1171.3 634.7L1172.7 539.3L1174 619.6L1175.3 547.5L1176.7 615.3L1178 542L1179.3 614.4L1180.7 571.4L1182 621.1L1183.3 537.3L1184.7 667.6L1186 565.3L1187.3 635.6L1188.7 537.7L1190 640.3L1191.3 584.3L1192.7 645.5L1194 539.9L1195.3 629.3L1196.7 540L1198 638.2L1199.3 535.4L1200.7 623L1202 577.7L1203.3 606.4L1204.7 555.9L1206 656.8L1207.3 573.6L1208.7 652.6L1210 527.8L1211.3 604.9L1212.7 562.8L1214 619.8L1215.3 544.5L1216.7 618.8L1218 569.3L1219.3 611.5L1220.7 530.8L1222 626.9L1223.3 556.1L1224.7 585.8L1226 544.3L1227.3 620.9L1228.7 560.4L1230 665.6L1231.3 701.5L1232.7 736.9L1234 711.7L1235.3 721.7L1236.7 699.3L1238 701.8L1239.3 735.7L1240.7 717.8L1242 721L1243.3 721.1L1244.7 732.2L1246 729.1L1247.3 689L1248.7 724L1250 728.9L1251.3 734L1252.7 717.4L1254 702.3L1255.3 727.8L1256.7 711.4L1258 718.3L1259.3 730.5L1260.7 729.2L1262 713.1L1263.3 704.6L1264.7 718.4L1266 722.3L1267.3 729.1L1268.7 697.2L1270 662.6L1271.3 717.8L1272.7 716.1L1274 681.4L1275.3 698.7L1276.7 731.1L1278 713.1L1279.3 673.8L1280.7 717L1282 734.2L1283.3 704.3L1284.7 712L1286 685.2L1287.3 726.6L1288.7 717.9L1290 697.7L1291.3 674L1292.7 722.9L1294 683.8L1295.3 703.7L1296.7 694.1L1298 714L1299.3 699.7L1300.7 714.7L1302 702.2L1303.3 716.3L1304.7 694.8L1306 714.1L1307.3 731.9L1308.7 726.7L1310 718.9L1311.3 696.1L1312.7 715.1L1314 718L1315.3 736.3L1316.7 670.2L1318 711.1L1319.3 739.6L1320.7 722.5L1322 697.1L1323.3 739.5L1324.7 742L1326 714.7L1327.3 716.2L1328.7 719.5L1330 714L1331.3 714L1332.7 703.2L1334 728.2L1335.3 713.1L1336.7 734.7L1338 721.8L1339.3 714.5L1340.7 728L1342 721.9L1343.3 707.2L1344.7 724.9L1346 734.2L1347.3 712.8L1348.7 712L1350 723.1L1351.3 711.2L1352.7 726.9L1354 718.1L1355.3 706.5L1356.7 736.2L1358 713.2L1359.3 670.4L1360.7 714.4L1362 730.7L1363.3 730.8L1364.7 705.5L1366 708L1367.3 694.9L1368.7 710.8L1370 708.9L1371.3 702.5L1372.7 715.9L1374 702.7L1375.3 668.3L1376.7 691.7L1378 699.8L1379.3 657.7L1380.7 697.2L1382 680.5L1383.3 678.6L1384.7 688.1L1386 695.9L1387.3 729.2L1388.7 678.7L1390 704.7L1391.3 663.8L1392.7 717.6L1394 732L1395.3 735.1L1396.7 699.3L1398 701.8L1399.3 724.2L1400.7 734.2L1402 692.3L1403.3 690.7L1404.7 723.6L1406 700.4L1407.3 663.8L1408.7 690L1410 728L1411.3 721.2L1412.7 697.3L1414 718.2L1415.3 717.6L1416.7 729.3L1418 698.9L1419.3 721.9L1420.7 716.2L1422 704.8L1423.3 692.3L1424.7 723.3L1426 732.8L1427.3 710L1428.7 715.3L1430 688.9L1431.3 734.4L1432.7 722.7L1434 713L1435.3 725L1436.7 734.1L1438 708.1L1439.3 709.3L1440.7 719.5L1442 700.4L1443.3 707.2L1444.7 719.5L1446 676L1447.3 730.5L1448.7 700.4L1450 697.3L1451.3 720.8L1452.7 688.8L1454 668.1L1455.3 700.6L1456.7 683.6L1458 728.2L1459.3 667.8L1460.7 638.7L1462 698L1463.3 713.2L1464.7 667.4L1466 712.5L1467.3 720.2L1468.7 718.1L1470 730.2L1471.3 540.4L1472.7 603.1L1474 559.3L1475.3 649.2L1476.7 530.8L1478 624L1479.3 517.5L1480.7 637.4L1482 506.2L1483.3 616.7L1484.7 530.3L1486 630.5L1487.3 516.3L1488.7 607L1490 545.4L1491.3 618.4L1492.7 533L1494 556.7L1495.3 515.6L1496.7 633.2L1498 502L1499.3 561.5L1500.7 557.4L1502 644.8L1503.3 482.9L1504.7 533.9L1506 492.5L1507.3 594.3L1508.7 510.6L1510 589.9L1511.3 520.5L1512.7 613.4L1514 538.9L1515.3 603.6L1516.7 534.5L1518 607.4L1519.3 539.9L1520.7 625.4L1522 517.1L1523.3 608.2L1524.7 544.2L1526 617.4L1527.3 502.8L1528.7 650L1530 539.1L1531.3 582.4L1532.7 524.6L1534 587.5L1535.3 506.7L1536.7 567.9L1538 448.8L1539.3 512.6L1540.7 482.6L1542 581.1L1543.3 554.8L1544.7 594.1L1546 517.8L1547.3 625.5L1548.7 576.5L1550 636.3L1551.3 683.4L1552.7 721.5L1554 719.2L1555.3 738.8L1556.7 720.4L1558 708.9L1559.3 730.3L1560.7 734.3L1562 716.6L1563.3 731.9L1564.7 731.2L1566 709.1L1567.3 699.4L1568.7 725.1L1570 725.3L1571.3 736.7L1572.7 702.4L1574 709.9L1575.3 657L1576.7 690.3L1578 709L1579.3 727.4L1580.7 735.4L1582 712.3L1583.3 703.6L1584.7 711.1L1586 725.9L1587.3 711.6L1588.7 710L1590 701.3L1591.3 698.6L1592.7 697.6L1594 714.8L1595.3 703.2L1596.7 733.4L1598 717L1599.3 694.6L1600.7 709.1L1602 731.3L1603.3 712.6L1604.7 687.3L1606 673.3L1607.3 683.9L1608.7 687.4L1610 703.4L1611.3 717.6L1612.7 729.9L1614 692.6L1615.3 694.3L1616.7 711L1618 726.7L1619.3 717.7L1620.7 706.8L1622 701.1L1623.3 714L1624.7 688.7L1626 710.9L1627.3 704L1628.7 729.8L1630 733.4L1631.3 717.6L1632.7 721.3L1634 729.5L1635.3 720.6L1636.7 719.8L1638 699.2L1639.3 731.3L1640.7 737.1L1642 725.1L1643.3 715.6L1644.7 733.7L1646 738.6L1647.3 709.2L1648.7 738.3L1650 715.2L1651.3 727.1L1652.7 718.7L1654 713.1L1655.3 734.8L1656.7 720.3L1658 717.9L1659.3 730.4L1660.7 732.1L1662 713.1L1663.3 709.3L1664.7 706.9L1666 725.9L1667.3 723.9L1668.7 712.6L1670 709.4L1671.3 710L1672.7 695.5L1674 720.1L1675.3 698.6L1676.7 720.1L1678 701.2L1679.3 697.8L1680.7 647.8L1682 704.5L1683.3 697.7L1684.7 701.4L1686 715.6L1687.3 717.2L1688.7 690.6L1690 708.6L1691.3 710.3L1692.7 729.9L1694 715.5L1695.3 703.4L1696.7 685.1L1698 726.5L1699.3 698.6L1700.7 712L1702 713.4L1703.3 696.5L1704.7 660L1706 697.1L1707.3 728.8L1708.7 722.7L1710 741.4L1711.3 696L1712.7 728.4L1714 740L1715.3 712.7L1716.7 700.6L1718 711.7L1719.3 714.8L1720.7 729.4L1722 708.1L1723.3 732L1724.7 739.8L1726 714.2L1727.3 715.5L1728.7 722.1L1730 718.1L1731.3 731.4L1732.7 687.2L1734 717.6L1735.3 726.1L1736.7 719.5L1738 700.9L1739.3 700L1740.7 719.2L1742 725.7L1743.3 715.4L1744.7 691.3L1746 724L1747.3 722.1L1748.7 717.8L1750 720.6L1751.3 726.1L1752.7 714L1754 688.6L1755.3 713.4L1756.7 660.4L1758 701.7L1759.3 692.4L1760.7 646.8L1762 716.1L1763.3 669.4L1764.7 650.1L1766 681.1L1767.3 714.4L1768.7 714.9L1770 714.1L1771.3 699.1L1772.7 675.6L1774 690.6L1775.3 538.2L1776.7 655.9L1778 690L1779.3 676.3L1780.7 631.1L1782 628.3L1783.3 678L1784.7 669.5L1786 702.4L1787.3 665L1788.7 699.1L1790 678.5L1791.3 456.2L1792.7 573.4L1794 493.7L1795.3 620.9L1796.7 483.3L1798 560.1L1799.3 493.1" fill="transparent" stroke="#626c91" stroke-width="3" stroke-linejoin="bevel" class="zr0-cls-2"></path>
</g>
<path d="M-230.1 -5l460.2 0l0 28l-460.2 0Z" transform="translate(1000 5)" fill="rgb(0,0,0)" fill-opacity="0" stroke="#ccc" stroke-width="0" class="zr0-cls-0"></path>
<text dominant-baseline="central" text-anchor="middle" style="font-size:18px;font-family:sans-serif;font-weight:bold;" xml:space="preserve" y="9" transform="translate(1000 5)" fill="#666666">wholeUpdate per Tick for bench_1_every_60_staggered</text>
<defs >
<clipPath id="zr0-c0">
<path d="M198 58.5l16004 0l0 8703l-16004 0Z" fill="#000" class="zr0-cls-1"></path>
</clipPath>
<clipPath id="zr0-c1">
<path d="M198 58.5l16004 0l0 8703l-16004 0Z" fill="#000" class="zr0-cls-1"></path>
</clipPath>
<clipPath id="zr0-c2">
<path d="M198 58.5l16004 0l0 8703l-16004 0Z" fill="#000" class="zr0-cls-1"></path>
</clipPath>
</defs>
<style ><![CDATA[
.zr0-cls-0:hover {
pointer-events:none;
}
.zr0-cls-1:hover {
cursor:pointer;
fill:rgba(0,0,0,1);
}
.zr0-cls-2:hover {
cursor:pointer;
}

]]>

</style>
</svg>