<svg width="2000" height="1000" xmlns="http://www.w3.org/2000/svg" xmlns:xlink="http://www.w3.org/1999/xlink" version="1.1" baseProfile="full" viewBox="0 0 2000 1000">
<rect width="2000" height="1000" x="0" y="0" fill="rgb(252,252,252)" fill-opacity="0"></rect>
<path d="M200 930.5L1800 930.5" fill="transparent" stroke="#eeeeee" class="zr4-cls-12"></path>
<path d="M200 762.5L1800 762.5" fill="transparent" stroke="#eeeeee" class="zr4-cls-12"></path>
<path d="M200 593.5L1800 593.5" fill="transparent" stroke="#eeeeee" class="zr4-cls-12"></path>
<path d="M200 425.5L1800 425.5" fill="transparent" stroke="#eeeeee" class="zr4-cls-12"></path>
<path d="M200 257.5L1800 257.5" fill="transparent" stroke="#eeeeee" class="zr4-cls-12"></path>
<path d="M200 89.5L1800 89.5" fill="transparent" stroke="#eeeeee" class="zr4-cls-12"></path>
<path d="M200 60.5L1800 60.5" fill="transparent" stroke="#eeeeee" class="zr4-cls-12"></path>
<path d="M200.5 930L200.5 60" fill="transparent" stroke="#cccccc" stroke-linecap="round" class="zr4-cls-12"></path>
<text dominant-baseline="central" text-anchor="middle" style="font-size:12px;font-family:sans-serif;" xml:space="preserve" y="-6" transform="translate(200 45)" fill="#cccccc">controlBehaviorUpdate Time (ms)</text>
<path d="M200 930.5L1800 930.5" fill="transparent" stroke="#cccccc" stroke-linecap="round" class="zr4-cls-12"></path>
<text dominant-baseline="central" text-anchor="end" style="font-size:12px;font-family:sans-serif;" transform="translate(192 930)" fill="#999999">0.000</text>
<text dominant-baseline="central" text-anchor="end" style="font-size:12px;font-family:sans-serif;" transform="translate(192 761.853)" fill="#999999">0.200</text>
<text dominant-baseline="central" text-anchor="end" style="font-size:12px;font-family:sans-serif;" transform="translate(192 593.706)" fill="#999999">0.400</text>
<text dominant-baseline="central" text-anchor="end" style="font-size:12px;font-family:sans-serif;" transform="translate(192 425.559)" fill="#999999">0.600</text>
<text dominant-baseline="central" text-anchor="end" style="font-size:12px;font-family:sans-serif;" transform="translate(192 257.412)" fill="#999999">0.800</text>
<text dominant-baseline="central" text-anchor="end" style="font-size:12px;font-family:sans-serif;" transform="translate(192 89.265)" fill="#999999">1.000</text>
<text dominant-baseline="central" text-anchor="end" style="font-size:12px;font-family:sans-serif;" transform="translate(192 60)" fill="#999999">1.035</text>
<text dominant-baseline="central" text-anchor="middle" style="font-size:12px;font-family:sans-serif;" y="6" transform="translate(200.6667 938)" fill="#999999">0</text>
<text dominant-baseline="central" text-anchor="middle" style="font-size:12px;font-family:sans-serif;" y="6" transform="translate(236.6667 938)" fill="#999999">27</text>
<text dominant-baseline="central" text-anchor="middle" style="font-size:12px;font-family:sans-serif;" y="6" transform="translate(272.6667 938)" fill="#999999">54</text>
<text dominant-baseline="central" text-anchor="middle" style="font-size:12px;font-family:sans-serif;" y="6" transform="translate(308.6667 938)" fill="#999999">81</text>
<text dominant-baseline="central" text-anchor="middle" style="font-size:12px;font-family:sans-serif;" y="6" transform="translate(344.6667 938)" fill="#999999">108</text>
<text dominant-baseline="central" text-anchor="middle" style="font-size:12px;font-family:sans-serif;" y="6" transform="translate(380.6667 938)" fill="#999999">135</text>
<text dominant-baseline="central" text-anchor="middle" style="font-size:12px;font-family:sans-serif;" y="6" transform="translate(416.6667 938)" fill="#999999">162</text>
<text dominant-baseline="central" text-anchor="middle" style="font-size:12px;font-family:sans-serif;" y="6" transform="translate(452.6667 938)" fill="#999999">189</text>
<text dominant-baseline="central" text-anchor="middle" style="font-size:12px;font-family:sans-serif;" y="6" transform="translate(488.6667 938)" fill="#999999">216</text>
<text dominant-baseline="central" text-anchor="middle" style="font-size:12px;font-family:sans-serif;" y="6" transform="translate(524.6667 938)" fill="#999999">243</text>
<text dominant-baseline="central" text-anchor="middle" style="font-size:12px;font-family:sans-serif;" y="6" transform="translate(560.6667 938)" fill="#999999">270</text>
<text dominant-baseline="central" text-anchor="middle" style="font-size:12px;font-family:sans-serif;" y="6" transform="translate(596.6667 938)" fill="#999999">297</text>
<text dominant-baseline="central" text-anchor="middle" style="font-size:12px;font-family:sans-serif;" y="6" transform="translate(632.6667 938)" fill="#999999">324</text>
<text dominant-baseline="central" text-anchor="middle" style="font-size:12px;font-family:sans-serif;" y="6" transform="translate(668.6667 938)" fill="#999999">351</text>
<text dominant-baseline="central" text-anchor="middle" style="font-size:12px;font-family:sans-serif;" y="6" transform="translate(704.6667 938)" fill="#999999">378</text>
<text dominant-baseline="central" text-anchor="middle" style="font-size:12px;font-family:sans-serif;" y="6" transform="translate(740.6667 938)" fill="#999999">405</text>
<text dominant-baseline="central" text-anchor="middle" style="font-size:12px;font-family:sans-serif;" y="6" transform="translate(776.6667 938)" fill="#999999">432</text>
<text dominant-baseline="central" text-anchor="middle" style="font-size:12px;font-family:sans-serif;" y="6" transform="translate(812.6667 938)" fill="#999999">459</text>
<text dominant-baseline="central" text-anchor="middle" style="font-size:12px;font-family:sans-serif;" y="6" transform="translate(848.6667 938)" fill="#999999">486</text>
<text dominant-baseline="central" text-anchor="middle" style="font-size:12px;font-family:sans-serif;" y="6" transform="translate(884.6667 938)" fill="#999999">513</text>
<text dominant-baseline="central" text-anchor="middle" style="font-size:12px;font-family:sans-serif;" y="6" transform="translate(920.6667 938)" fill="#999999">540</text>
<text dominant-baseline="central" text-anchor="middle" style="font-size:12px;font-family:sans-serif;" y="6" transform="translate(956.6667 938)" fill="#999999">567</text>
<text dominant-baseline="central" text-anchor="middle" style="font-size:12px;font-family:sans-serif;" y="6" transform="translate(992.6667 938)" fill="#999999">594</text>
<text dominant-baseline="central" text-anchor="middle" style="font-size:12px;font-family:sans-serif;" y="6" transform="translate(1028.6667 938)" fill="#999999">621</text>
<text dominant-baseline="central" text-anchor="middle" style="font-size:12px;font-family:sans-serif;" y="6" transform="translate(1064.6667 938)" fill="#999999">648</text>
<text dominant-baseline="central" text-anchor="middle" style="font-size:12px;font-family:sans-serif;" y="6" transform="translate(1100.6667 938)" fill="#999999">675</text>
<text dominant-baseline="central" text-anchor="middle" style="font-size:12px;font-family:sans-serif;" y="6" transform="translate(1136.6667 938)" fill="#999999">702</text>
<text dominant-baseline="central" text-anchor="middle" style="font-size:12px;font-family:sans-serif;" y="6" transform="translate(1172.6667 938)" fill="#999999">729</text>
<text dominant-baseline="central" text-anchor="middle" style="font-size:12px;font-family:sans-serif;" y="6" transform="translate(1208.6667 938)" fill="#999999">756</text>
<text dominant-baseline="central" text-anchor="middle" style="font-size:12px;font-family:sans-serif;" y="6" transform="translate(1244.6667 938)" fill="#999999">783</text>
<text dominant-baseline="central" text-anchor="middle" style="font-size:12px;font-family:sans-serif;" y="6" transform="translate(1280.6667 938)" fill="#999999">810</text>
<text dominant-baseline="central" text-anchor="middle" style="font-size:12px;font-family:sans-serif;" y="6" transform="translate(1316.6667 938)" fill="#999999">837</text>
<text dominant-baseline="central" text-anchor="middle" style="font-size:12px;font-family:sans-serif;" y="6" transform="translate(1352.6667 938)" fill="#999999">864</text>
<text dominant-baseline="central" text-anchor="middle" style="font-size:12px;font-family:sans-serif;" y="6" transform="translate(1388.6667 938)" fill="#999999">891</text>
<text dominant-baseline="central" text-anchor="middle" style="font-size:12px;font-family:sans-serif;" y="6" transform="translate(1424.6667 938)" fill="#999999">918</text>
<text dominant-baseline="central" text-anchor="middle" style="font-size:12px;font-family:sans-serif;" y="6" transform="translate(1460.6667 938)" fill="#999999">945</text>
<text dominant-baseline="central" text-anchor="middle" style="font-size:12px;font-family:sans-serif;" y="6" transform="translate(1496.6667 938)" fill="#999999">972</text>
<text dominant-baseline="central" text-anchor="middle" style="font-size:12px;font-family:sans-serif;" y="6" transform="translate(1532.6667 938)" fill="#999999">999</text>
<text dominant-baseline="central" text-anchor="middle" style="font-size:12px;font-family:sans-serif;" y="6" transform="translate(1568.6667 938)" fill="#999999">1026</text>
<text dominant-baseline="central" text-anchor="middle" style="font-size:12px;font-family:sans-serif;" y="6" transform="translate(1604.6667 938)" fill="#999999">1053</text>
<text dominant-baseline="central" text-anchor="middle" style="font-size:12px;font-family:sans-serif;" y="6" transform="translate(1640.6667 938)" fill="#999999">1080</text>
<text dominant-baseline="central" text-anchor="middle" style="font-size:12px;font-family:sans-serif;" y="6" transform="translate(1676.6667 938)" fill="#999999">1107</text>
<text dominant-baseline="central" text-anchor="middle" style="font-size:12px;font-family:sans-serif;" y="6" transform="translate(1712.6667 938)" fill="#999999">1134</text>
<text dominant-baseline="central" text-anchor="middle" style="font-size:12px;font-family:sans-serif;" y="6" transform="translate(1748.6667 938)" fill="#999999">1161</text>
<text dominant-baseline="central" text-anchor="middle" style="font-size:12px;font-family:sans-serif;" y="6" transform="translate(1784.6667 938)" fill="#999999">1188</text>
<g clip-path="url(#zr4-c0)">
<path d="M200.7 -19.2L202 619.3L203.3 538L204.7 719.9L206 513.8L207.3 694.6L208.7 542.4L210 712.4L211.3 489.8L212.7 705.6L214 552.3L215.3 729.2L216.7 489.3L218 693.7L219.3 553.4L220.7 700.6L222 527.4L223.3 708.6L224.7 531.6L226 711L227.3 516.9L228.7 688.6L230 523.7L231.3 709.4L232.7 486.7L234 694.1L235.3 546.4L236.7 713.1L238 505.3L239.3 670.5L240.7 516.2L242 669.3L243.3 523.5L244.7 675.3L246 535.9L247.3 696.9L248.7 499.4L250 693.8L251.3 489.5L252.7 697.8L254 502.7L255.3 682.2L256.7 548.6L258 689.4L259.3 519.1L260.7 698.2L262 548.6L263.3 723L264.7 482.1L266 671.4L267.3 520L268.7 686.7L270 467.6L271.3 715.6L272.7 538.5L274 728L275.3 536.4L276.7 684.1L278 509.2L279.3 712.1L280.7 546.2L282 728.5L283.3 531.4L284.7 698.7L286 525.2L287.3 718.5L288.7 557.4L290 732.4L291.3 533.7L292.7 723.9L294 506.8L295.3 729.7L296.7 535.1L298 722.7L299.3 544.8L300.7 707.4L302 521.4L303.3 718L304.7 543.3L306 708.6L307.3 539.1L308.7 736L310 480.1L311.3 730.7L312.7 553.6L314 676L315.3 533.8L316.7 724.9L318 529.5L319.3 701.8L320.7 527.7L322 724.7L323.3 550.6L324.7 717.1L326 517.1L327.3 713.4L328.7 555.9L330 716.6L331.3 550.7L332.7 731.9L334 532L335.3 723.2L336.7 532.3L338 725.5L339.3 561L340.7 719L342 513.2L343.3 716.9L344.7 507.7L346 728.7L347.3 553.4L348.7 722.6L350 533.1L351.3 720.6L352.7 528.4L354 720.3L355.3 553.2L356.7 716.1L358 424.2L359.3 694.5L360.7 525.7L362 728.2L363.3 544.5L364.7 707.5L366 545.7L367.3 696.4L368.7 517.1L370 724.2L371.3 560.5L372.7 711.6L374 531.8L375.3 701.4L376.7 505.2L378 714.1L379.3 540.7L380.7 725.5L382 521.8L383.3 715.4L384.7 551.2L386 725.9L387.3 550.3L388.7 720.1L390 374L391.3 711.6L392.7 548.7L394 710.9L395.3 549.1L396.7 720.6L398 384.4L399.3 693.8L400.7 535.9L402 701.9L403.3 560.2L404.7 729.5L406 497.2L407.3 722.8L408.7 548.6L410 700L411.3 562.9L412.7 719.8L414 506L415.3 722.2L416.7 549.4L418 713.9L419.3 543.1L420.7 702L422 457.8L423.3 724L424.7 539.6L426 732.3L427.3 559.4L428.7 732.1L430 524.9L431.3 691.4L432.7 473.8L434 700.5L435.3 556.1L436.7 731.1L438 552.3L439.3 662.7L440.7 538.3L442 720.1L443.3 529.5L444.7 726.2L446 541.9L447.3 692.8L448.7 526.1L450 724.6L451.3 557.8L452.7 716.1L454 533.4L455.3 674.8L456.7 339L458 709.7L459.3 543.1L460.7 721.2L462 525.4L463.3 680.6L464.7 539L466 722.4L467.3 521.2L468.7 721.7L470 511.8L471.3 648.7L472.7 514.2L474 722.2L475.3 533L476.7 730.7L478 531.5L479.3 691.5L480.7 523.7L482 705.7L483.3 533.3L484.7 709.4L486 558.8L487.3 660.3L488.7 525.3L490 714.7L491.3 553.2L492.7 731.3L494 504.3L495.3 693.2L496.7 505.3L498 724.9L499.3 543L500.7 723.8L502 394.8L503.3 700.6L504.7 523.3L506 723.8L507.3 526.7L508.7 731.8L510 515.1L511.3 691.4L512.7 516L514 681.3L515.3 515.5L516.7 689L518 510.3L519.3 698.6L520.7 464.7L522 677L523.3 515.9L524.7 692.3L526 459.4L527.3 680.6L528.7 505.7L530 670.1L531.3 484L532.7 662.3L534 515.9L535.3 640.9L536.7 493.7L538 693.6L539.3 535.9L540.7 673.7L542 499.5L543.3 685.8L544.7 442.9L546 677.3L547.3 454.2L548.7 662.6L550 507.9L551.3 662.8L552.7 482.4L554 684.8L555.3 483L556.7 697.7L558 547.5L559.3 690.1L560.7 413.3L562 661L563.3 375.3L564.7 647.6L566 499.9L567.3 699.6L568.7 474.5L570 691.3L571.3 537.9L572.7 573.6L574 508.2L575.3 700L576.7 536L578 626.5L579.3 430L580.7 707.9L582 511.3L583.3 657.5L584.7 434.1L586 711.1L587.3 502.5L588.7 681.6L590 520.1L591.3 694.8L592.7 536.3L594 700.2L595.3 455.2L596.7 713.6L598 523.1L599.3 723.4L600.7 539.2L602 689L603.3 537.1L604.7 723.9L606 527.5L607.3 728.9L608.7 535.7L610 682.7L611.3 519.4L612.7 696.5L614 546.5L615.3 721.8L616.7 535.9L618 666.8L619.3 538.5L620.7 707.7L622 544.1L623.3 732.9L624.7 547.7L626 685.4L627.3 480L628.7 723.6L630 522.5L631.3 718.1L632.7 531.7L634 694.8L635.3 541.4L636.7 730.6L638 548.6L639.3 733L640.7 509.6L642 703.4L643.3 515.9L644.7 693.5L646 544.1L647.3 724.9L648.7 554.3L650 701.5L651.3 540.5L652.7 729.2L654 544.2L655.3 707.7L656.7 556.5L658 691.8L659.3 540.9L660.7 725.1L662 541.8L663.3 728.8L664.7 565.7L666 708.2L667.3 521.9L668.7 728.6L670 535.5L671.3 706.2L672.7 554.9L674 713.6L675.3 538.9L676.7 711.4L678 559.2L679.3 725.4L680.7 533L682 638.1L683.3 550.4L684.7 707.8L686 518.2L687.3 707.9L688.7 535L690 617.8L691.3 516.1L692.7 718.2L694 561.8L695.3 731.8L696.7 536.1L698 603.7L699.3 504L700.7 699.5L702 554.4L703.3 726L704.7 524.4L706 720.5L707.3 542.7L708.7 720.9L710 541.6L711.3 707.6L712.7 524.5L714 706.7L715.3 482L716.7 697.6L718 550.5L719.3 709.1L720.7 558.6L722 738.1L723.3 515.3L724.7 723.7L726 534.7L727.3 707.8L728.7 559.9L730 719.1L731.3 467.4L732.7 721.7L734 540.9L735.3 717.2L736.7 533.1L738 721.2L739.3 437.4L740.7 709.2L742 534.6L743.3 732.6L744.7 550.4L746 698.8L747.3 529.7L748.7 714.4L750 545.4L751.3 700.6L752.7 556.6L754 718.9L755.3 482.9L756.7 724.8L758 544.7L759.3 700.9L760.7 559.7L762 726L763.3 492.1L764.7 715.8L766 569.3L767.3 724.4L768.7 552.7L770 709.6L771.3 551.8L772.7 702.5L774 523.2L775.3 722.7L776.7 559.7L778 719.1L779.3 525.5L780.7 699.4L782 538.6L783.3 714.8L784.7 546.7L786 721.2L787.3 554.9L788.7 723.3L790 532.7L791.3 737.3L792.7 555.3L794 699.6L795.3 548.6L796.7 728.8L798 516.1L799.3 722.6L800.7 559.7L802 714.4L803.3 559.9L804.7 731.8L806 537.6L807.3 712.5L808.7 506.5L810 726.2L811.3 532.2L812.7 734.9L814 525.3L815.3 716.9L816.7 551.7L818 728.9L819.3 546.6L820.7 707.5L822 531.2L823.3 701.4L824.7 550.3L826 730.7L827.3 554.3L828.7 730.1L830 484.7L831.3 683.9L832.7 544.2L834 703.6L835.3 527L836.7 685.9L838 536L839.3 673.7L840.7 525.1L842 695.4L843.3 511L844.7 688.5L846 480.9L847.3 675.6L848.7 513.2L850 697L851.3 515.3L852.7 689.1L854 529.4L855.3 686.9L856.7 538.8L858 698.3L859.3 530.7L860.7 671.7L862 537.8L863.3 702.6L864.7 541.3L866 686.2L867.3 528.5L868.7 675.3L870 522.6L871.3 703.6L872.7 535.5L874 685.4L875.3 548.6L876.7 696.3L878 544.8L879.3 607.5L880.7 536.8L882 725.9L883.3 546L884.7 695.9L886 521.2L887.3 693.3L888.7 538.9L890 692.1L891.3 519.5L892.7 723L894 537.5L895.3 696.3L896.7 539.9L898 674.9L899.3 528.2L900.7 676.2L902 489.1L903.3 660.5L904.7 543.6L906 681.1L907.3 527L908.7 689.4L910 509.7L911.3 685.2L912.7 542.4L914 704.9L915.3 534.1L916.7 711.7L918 544.4L919.3 684.6L920.7 548.8L922 724.5L923.3 502.5L924.7 717.1L926 551.9L927.3 659.2L928.7 544.7L930 722.9L931.3 529.1L932.7 726.5L934 544.3L935.3 684.8L936.7 538.7L938 733.3L939.3 516.4L940.7 716.5L942 534.3L943.3 670.9L944.7 525.4L946 720L947.3 530.3L948.7 719L950 472.7L951.3 702.9L952.7 534.3L954 693.1L955.3 537.1L956.7 723.7L958 552.5L959.3 683.1L960.7 546.5L962 726.7L963.3 530.4L964.7 687.6L966 553.9L967.3 692.4L968.7 509.9L970 727.6L971.3 541.7L972.7 724.1L974 540.7L975.3 691.1L976.7 502.4L978 733.4L979.3 537.9L980.7 717.2L982 556.3L983.3 681.3L984.7 554.2L986 707.7L987.3 532.7L988.7 717.4L990 553.4L991.3 709L992.7 522.2L994 708.4L995.3 480L996.7 719.3L998 541.7L999.3 720.4L1000.7 515L1002 720.1L1003.3 439L1004.7 706.3L1006 547L1007.3 714.9L1008.7 547L1010 710.6L1011.3 506.8L1012.7 722.6L1014 547.1L1015.3 711.7L1016.7 535.9L1018 692L1019.3 544.8L1020.7 711.6L1022 526.2L1023.3 728.6L1024.7 479.9L1026 724.1L1027.3 527.9L1028.7 713.2L1030 554.2L1031.3 731.4L1032.7 497.9L1034 720.4L1035.3 534.3L1036.7 731.6L1038 553.5L1039.3 707.4L1040.7 531.9L1042 723.6L1043.3 513.8L1044.7 730L1046 532.8L1047.3 695.5L1048.7 521.5L1050 704.8L1051.3 526.4L1052.7 731.8L1054 534.9L1055.3 717L1056.7 521.1L1058 728.6L1059.3 566.1L1060.7 726.5L1062 533.8L1063.3 695.9L1064.7 545.8L1066 720.6L1067.3 556.5L1068.7 729.7L1070 553.5L1071.3 699.6L1072.7 530.7L1074 714.2L1075.3 536.6L1076.7 717.5L1078 536.4L1079.3 707.1L1080.7 534L1082 725.3L1083.3 521.4L1084.7 731.6L1086 554.9L1087.3 722.2L1088.7 510.5L1090 720.4L1091.3 543L1092.7 704.7L1094 556L1095.3 728.1L1096.7 541.8L1098 694.5L1099.3 517.4L1100.7 725.4L1102 552.6L1103.3 731.5L1104.7 554.7L1106 708.4L1107.3 523.1L1108.7 715.3L1110 545.9L1111.3 690.1L1112.7 542.3L1114 701.5L1115.3 520.1L1116.7 714.4L1118 534.9L1119.3 695L1120.7 562.2L1122 699.7L1123.3 536.2L1124.7 727L1126 519.7L1127.3 711.7L1128.7 548.2L1130 714.2L1131.3 547.6L1132.7 705.4L1134 554.4L1135.3 722.3L1136.7 536.8L1138 675.3L1139.3 513.5L1140.7 723.4L1142 514.2L1143.3 724.1L1144.7 540.7L1146 703.1L1147.3 505.3L1148.7 715.2L1150 527L1151.3 705.8L1152.7 511L1154 700.1L1155.3 514.9L1156.7 705.2L1158 485.8L1159.3 712.2L1160.7 510.1L1162 693.8L1163.3 521.3L1164.7 677.2L1166 535.1L1167.3 665.8L1168.7 454.4L1170 701.5L1171.3 518.5L1172.7 697.1L1174 512L1175.3 686.4L1176.7 522.2L1178 703.3L1179.3 504.3L1180.7 688.8L1182 509.9L1183.3 617.9L1184.7 497.8L1186 672.7L1187.3 520.6L1188.7 680.8L1190 536.6L1191.3 716L1192.7 545.4L1194 680.6L1195.3 534.7L1196.7 669.4L1198 510.5L1199.3 689.2L1200.7 516.7L1202 671.1L1203.3 532.6L1204.7 684.2L1206 487.6L1207.3 690L1208.7 528.7L1210 684.2L1211.3 544.9L1212.7 705.4L1214 452.8L1215.3 690.1L1216.7 541.7L1218 695.2L1219.3 488.8L1220.7 695.8L1222 539.1L1223.3 718.7L1224.7 523.7L1226 683.4L1227.3 532.4L1228.7 721.1L1230 501.1L1231.3 715.7L1232.7 542.2L1234 728.4L1235.3 552.9L1236.7 715.2L1238 499.7L1239.3 708.8L1240.7 544.9L1242 710.5L1243.3 548.9L1244.7 734.6L1246 526.7L1247.3 716L1248.7 531.6L1250 725.4L1251.3 552.7L1252.7 721.2L1254 531.2L1255.3 698.1L1256.7 527.9L1258 724.9L1259.3 524.4L1260.7 711.2L1262 558.3L1263.3 709.6L1264.7 550.4L1266 738.6L1267.3 528.2L1268.7 691.6L1270 540.1L1271.3 704.4L1272.7 562L1274 726.7L1275.3 548.6L1276.7 725.5L1278 552.2L1279.3 701.2L1280.7 520L1282 724.7L1283.3 461.6L1284.7 712.5L1286 552.3L1287.3 700.4L1288.7 536.7L1290 708.6L1291.3 528.5L1292.7 733L1294 550.7L1295.3 672.3L1296.7 551.8L1298 696.9L1299.3 546.7L1300.7 730L1302 560L1303.3 708.5L1304.7 530.1L1306 723.8L1307.3 551.1L1308.7 736.5L1310 550.7L1311.3 698.9L1312.7 548.6L1314 726.2L1315.3 537L1316.7 700.9L1318 559.8L1319.3 711.9L1320.7 539.1L1322 707.8L1323.3 551.2L1324.7 715.9L1326 539.9L1327.3 696.2L1328.7 532.3L1330 726.6L1331.3 549L1332.7 724.9L1334 556.7L1335.3 727.6L1336.7 536L1338 720.6L1339.3 557.7L1340.7 732.8L1342 528.6L1343.3 706L1344.7 494L1346 715.8L1347.3 544.8L1348.7 723.7L1350 551.7L1351.3 718.9L1352.7 456.5L1354 699.9L1355.3 538.6L1356.7 731.3L1358 548.9L1359.3 694.1L1360.7 522.8L1362 690.7L1363.3 552.4L1364.7 723.9L1366 539.6L1367.3 722.4L1368.7 545.9L1370 715.3L1371.3 552.8L1372.7 725.3L1374 535.1L1375.3 715.7L1376.7 508.5L1378 702.6L1379.3 558.8L1380.7 724.6L1382 557.8L1383.3 728.1L1384.7 548.8L1386 676.7L1387.3 527.5L1388.7 730.3L1390 532.8L1391.3 720.3L1392.7 552.7L1394 701L1395.3 532.5L1396.7 706.9L1398 548.1L1399.3 709.9L1400.7 548.9L1402 703.9L1403.3 526.6L1404.7 710.3L1406 538.1L1407.3 730.5L1408.7 528.9L1410 698.3L1411.3 546.1L1412.7 688.4L1414 537.2L1415.3 733.8L1416.7 521.3L1418 708.2L1419.3 547.8L1420.7 715.2L1422 531.4L1423.3 702.8L1424.7 543L1426 710.5L1427.3 519.4L1428.7 718.3L1430 533.4L1431.3 723.6L1432.7 540.3L1434 699.6L1435.3 518.3L1436.7 721.2L1438 541.2L1439.3 720.5L1440.7 559.1L1442 711.2L1443.3 520.8L1444.7 730.7L1446 541.7L1447.3 712.2L1448.7 565.8L1450 665.5L1451.3 532.5L1452.7 731.4L1454 523.9L1455.3 724.6L1456.7 553.9L1458 596.4L1459.3 533.8L1460.7 711.5L1462 542.8L1463.3 733.6L1464.7 567.6L1466 669.8L1467.3 539.1L1468.7 716.9L1470 544.4L1471.3 710.7L1472.7 548.7L1474 689.3L1475.3 529L1476.7 708L1478 534.4L1479.3 686.8L1480.7 521.4L1482 675.1L1483.3 416L1484.7 678.5L1486 508.6L1487.3 594.4L1488.7 407.7L1490 651.6L1491.3 245.8L1492.7 540.1L1494 421.7L1495.3 546.5L1496.7 376.2L1498 673.5L1499.3 522.2L1500.7 680.6L1502 534.8L1503.3 707.4L1504.7 544.4L1506 696.4L1507.3 524.4L1508.7 701.1L1510 539.8L1511.3 692.1L1512.7 550L1514 675.8L1515.3 533.6L1516.7 694.3L1518 500.5L1519.3 681.4L1520.7 491.6L1522 678.5L1523.3 525.3L1524.7 711.4L1526 517L1527.3 692.5L1528.7 534.4L1530 702.2L1531.3 532.3L1532.7 692.8L1534 553.9L1535.3 727.9L1536.7 532.5L1538 688.4L1539.3 523.6L1540.7 704.4L1542 519.8L1543.3 697.8L1544.7 531.8L1546 720.3L1547.3 528.7L1548.7 693L1550 522.6L1551.3 713.4L1552.7 547.7L1554 718.2L1555.3 525.3L1556.7 714.1L1558 548.1L1559.3 708.7L1560.7 549.6L1562 711.3L1563.3 519L1564.7 719.5L1566 551.2L1567.3 734.1L1568.7 557.6L1570 693.5L1571.3 501.1L1572.7 716.4L1574 547.2L1575.3 732.7L1576.7 539.8L1578 717.4L1579.3 527.5L1580.7 720L1582 520.6L1583.3 716.8L1584.7 528.4L1586 709.1L1587.3 533.1L1588.7 698L1590 547.4L1591.3 723.3L1592.7 521L1594 718L1595.3 463.9L1596.7 696.4L1598 511.1L1599.3 721.7L1600.7 554.8L1602 696.9L1603.3 477.2L1604.7 696.9L1606 542.2L1607.3 720.6L1608.7 532.1L1610 724.2L1611.3 493.7L1612.7 728.2L1614 547L1615.3 710L1616.7 563.5L1618 713.5L1619.3 511.1L1620.7 719.6L1622 558.6L1623.3 717.4L1624.7 533.8L1626 690.8L1627.3 539.1L1628.7 717.9L1630 549.8L1631.3 694.8L1632.7 559.2L1634 612.4L1635.3 503.2L1636.7 728.2L1638 536.8L1639.3 702.7L1640.7 543.5L1642 579L1643.3 512.2L1644.7 730.2L1646 539.2L1647.3 714.4L1648.7 563.5L1650 709.8L1651.3 503.5L1652.7 705.4L1654 539.6L1655.3 704.6L1656.7 555.9L1658 728.1L1659.3 505.6L1660.7 725.5L1662 548.6L1663.3 732.8L1664.7 550.8L1666 712.8L1667.3 492.6L1668.7 728.3L1670 539.9L1671.3 697.1L1672.7 558.1L1674 716.5L1675.3 561.3L1676.7 674L1678 518L1679.3 717.8L1680.7 534.4L1682 718.1L1683.3 510.6L1684.7 710.3L1686 546L1687.3 735.9L1688.7 547.2L1690 716.2L1691.3 518.6L1692.7 706.4L1694 568.5L1695.3 730.2L1696.7 534.3L1698 713.8L1699.3 549.5L1700.7 696.4L1702 556.8L1703.3 717.2L1704.7 443.8L1706 737.3L1707.3 529.7L1708.7 725.5L1710 531.2L1711.3 728.6L1712.7 540.3L1714 703.8L1715.3 465.6L1716.7 690.2L1718 465.3L1719.3 734.7L1720.7 518L1722 719.1L1723.3 397.1L1724.7 717.1L1726 546L1727.3 706.5L1728.7 523.8L1730 732.8L1731.3 504L1732.7 721L1734 531.1L1735.3 715.1L1736.7 556.3L1738 704.6L1739.3 544.4L1740.7 706.4L1742 548.4L1743.3 725.8L1744.7 557.5L1746 724.9L1747.3 542.5L1748.7 703.8L1750 527.8L1751.3 727.5L1752.7 550.7L1754 732.4L1755.3 555.5L1756.7 674.5L1758 542.3L1759.3 731.8L1760.7 540.9L1762 646.8L1763.3 532.3L1764.7 703.3L1766 540.2L1767.3 716.3L1768.7 558.9L1770 727.1L1771.3 554.6L1772.7 706.1L1774 522.8L1775.3 719.6L1776.7 518.1L1778 707.4L1779.3 453L1780.7 682.7L1782 543.6L1783.3 721.7L1784.7 567.4L1786 733.4L1787.3 535.7L1788.7 711.4L1790 556L1791.3 697.2L1792.7 509.1L1794 680.4L1795.3 529.9L1796.7 703.8L1798 532.8L1799.3 651" fill="transparent" stroke="#3fb1e3" stroke-width="3" stroke-linejoin="bevel" class="zr4-cls-14"></path>
</g>
<g clip-path="url(#zr4-c1)">
<path d="M200.7 -20.4L202 567.5L203.3 521.9L204.7 667.3L206 531L207.3 693.8L208.7 536.9L210 666.5L211.3 514.7L212.7 693.8L214 526.1L215.3 695.6L216.7 535.9L218 651.3L219.3 521.1L220.7 671.3L222 505.7L223.3 663.7L224.7 373.9L226 701.2L227.3 539.6L228.7 680.1L230 465.7L231.3 669.7L232.7 522.2L234 654.7L235.3 486.3L236.7 686.2L238 531.2L239.3 681.2L240.7 512.7L242 719.2L243.3 532.8L244.7 679.1L246 497.1L247.3 698L248.7 519.9L250 526.4L251.3 506L252.7 680.8L254 518.2L255.3 647.3L256.7 524.3L258 697.8L259.3 534.6L260.7 689.8L262 523.6L263.3 716L264.7 521.4L266 677.8L267.3 488.6L268.7 687.7L270 508.9L271.3 696.3L272.7 508.2L274 726.9L275.3 540.6L276.7 721.4L278 495.8L279.3 709.1L280.7 535.8L282 704.4L283.3 513.3L284.7 718.4L286 552.1L287.3 694.8L288.7 541.7L290 703.5L291.3 527.2L292.7 733.9L294 532.2L295.3 691.8L296.7 547.1L298 720.9L299.3 497.9L300.7 717.9L302 550.4L303.3 689.9L304.7 504.3L306 726L307.3 524.7L308.7 728.7L310 545.4L311.3 683.2L312.7 546.8L314 709.2L315.3 536.5L316.7 727.1L318 529.8L319.3 651L320.7 514L322 728.9L323.3 544.4L324.7 712.6L326 550.3L327.3 697.6L328.7 510.3L330 710.1L331.3 539.6L332.7 731L334 521.3L335.3 685.3L336.7 544L338 712.4L339.3 560.2L340.7 726.1L342 534.2L343.3 698L344.7 541.9L346 723L347.3 559.6L348.7 720L350 534.6L351.3 714.7L352.7 514.6L354 724.9L355.3 532.3L356.7 704.6L358 551.6L359.3 726.9L360.7 515.7L362 729.6L363.3 546L364.7 734.8L366 542.2L367.3 713.3L368.7 507.5L370 713.3L371.3 521.5L372.7 707.4L374 508.6L375.3 704.3L376.7 538.1L378 704.3L379.3 533.5L380.7 703.2L382 540.5L383.3 722.5L384.7 531.7L386 706.4L387.3 546L388.7 712L390 546.8L391.3 724.8L392.7 541.9L394 679.5L395.3 529.4L396.7 719.8L398 529.7L399.3 718.1L400.7 537.3L402 720.7L403.3 536.8L404.7 692.5L406 556.5L407.3 718.6L408.7 542.1L410 691.1L411.3 542.3L412.7 714.8L414 546.6L415.3 723.3L416.7 549.1L418 702L419.3 526.3L420.7 718.1L422 563.7L423.3 700.9L424.7 555.8L426 707.2L427.3 528.5L428.7 716.5L430 546.4L431.3 706.3L432.7 534.6L434 683.7L435.3 556.3L436.7 728.9L438 551.4L439.3 723.6L440.7 542L442 708.2L443.3 538.6L444.7 726.5L446 522.3L447.3 722.2L448.7 557.5L450 680L451.3 529.6L452.7 725.8L454 545.4L455.3 709.7L456.7 553.5L458 733.8L459.3 473.2L460.7 713.5L462 541.4L463.3 728.3L464.7 530.7L466 722L467.3 510.1L468.7 737.3L470 542.1L471.3 729.3L472.7 559.1L474 722.8L475.3 532.8L476.7 719.6L478 550.8L479.3 715.3L480.7 525.4L482 723.2L483.3 476.2L484.7 706.4L486 540.8L487.3 711.6L488.7 549.7L490 729.3L491.3 417.1L492.7 713.3L494 551.8L495.3 706.2L496.7 542.8L498 723.6L499.3 520.6L500.7 707.7L502 530.8L503.3 729.7L504.7 542.6L506 731.8L507.3 524.6L508.7 715.5L510 528L511.3 734.6L512.7 539.1L514 703.6L515.3 532L516.7 664.6L518 520.1L519.3 657.6L520.7 512.2L522 687.6L523.3 547.2L524.7 707.7L526 519.2L527.3 676.3L528.7 508L530 684.8L531.3 519.2L532.7 709.6L534 496.4L535.3 690.1L536.7 516.9L538 692.7L539.3 374.6L540.7 696.1L542 510L543.3 691.9L544.7 408L546 686.4L547.3 544.4L548.7 683.5L550 472.3L551.3 702.4L552.7 523.4L554 713.7L555.3 494.8L556.7 689.6L558 533L559.3 670.6L560.7 510.2L562 713.1L563.3 522.1L564.7 654.6L566 499.9L567.3 682.3L568.7 558L570 667.4L571.3 530.5L572.7 684.8L574 522.7L575.3 683L576.7 529.3L578 698.4L579.3 501.8L580.7 709.6L582 534L583.3 695.6L584.7 538.6L586 701.8L587.3 520.6L588.7 713.2L590 525.9L591.3 695.4L592.7 506.5L594 735L595.3 536L596.7 724.4L598 519.6L599.3 686.1L600.7 467.8L602 707.6L603.3 543L604.7 711.3L606 530.2L607.3 703.9L608.7 523.3L610 727.6L611.3 551L612.7 725.4L614 514.8L615.3 702.4L616.7 546.3L618 710.7L619.3 530.7L620.7 726.9L622 534.1L623.3 713.1L624.7 543.6L626 724.8L627.3 526.1L628.7 715.8L630 540.3L631.3 694.2L632.7 540.5L634 729L635.3 535.5L636.7 737.4L638 554.8L639.3 711.9L640.7 541.1L642 722.8L643.3 535.5L644.7 720L646 538.7L647.3 685L648.7 533.7L650 728.6L651.3 551.4L652.7 734.6L654 537.4L655.3 680.9L656.7 541.7L658 714.9L659.3 550.7L660.7 711L662 558.2L663.3 716.3L664.7 527.7L666 724.4L667.3 552.5L668.7 707L670 558.5L671.3 725L672.7 527.5L674 722.4L675.3 498.5L676.7 677.4L678 543.2L679.3 723.1L680.7 399.8L682 725.5L683.3 520L684.7 714.9L686 549.8L687.3 726.6L688.7 511.4L690 708.7L691.3 541.9L692.7 711.5L694 542.3L695.3 693.6L696.7 450.9L698 701.2L699.3 508.9L700.7 722.3L702 524.7L703.3 714.2L704.7 491.4L706 703.4L707.3 543.2L708.7 719.1L710 546L711.3 700.1L712.7 479.7L714 706.1L715.3 541.6L716.7 711.6L718 544.7L719.3 668.2L720.7 512.4L722 696.1L723.3 527.1L724.7 719.3L726 531.4L727.3 646.1L728.7 539.2L730 720.9L731.3 522L732.7 702.7L734 480.6L735.3 699L736.7 453.1L738 688.9L739.3 514.2L740.7 663.2L742 540.1L743.3 722.9L744.7 527.6L746 717.9L747.3 542.4L748.7 686.4L750 543.8L751.3 729.2L752.7 556.2L754 726.5L755.3 560.5L756.7 636.9L758 480.1L759.3 697.4L760.7 544.6L762 735.3L763.3 533.3L764.7 707.5L766 436.4L767.3 733L768.7 536.9L770 733.9L771.3 554.8L772.7 732.7L774 521.2L775.3 712.2L776.7 544.3L778 725L779.3 544L780.7 714.4L782 546L783.3 703.7L784.7 543L786 711L787.3 554.3L788.7 728.4L790 520.1L791.3 696L792.7 553.2L794 722.2L795.3 520.7L796.7 728.5L798 552.1L799.3 716.4L800.7 533.3L802 731L803.3 557.4L804.7 733.3L806 503.2L807.3 699.1L808.7 551.8L810 719.7L811.3 533.5L812.7 731L814 531.5L815.3 691L816.7 541.8L818 730L819.3 551.7L820.7 708.6L822 563.9L823.3 697.2L824.7 536.1L826 728.4L827.3 558.8L828.7 724.9L830 561.4L831.3 665.6L832.7 538.6L834 731.8L835.3 544.9L836.7 619.3L838 542.3L839.3 715.3L840.7 547.5L842 705.6L843.3 521.2L844.7 675.7L846 535.6L847.3 647.8L848.7 538.1L850 727L851.3 532.5L852.7 700.6L854 533.6L855.3 691.1L856.7 522.6L858 657.2L859.3 512.6L860.7 672.8L862 525.5L863.3 699.2L864.7 508.1L866 689.4L867.3 511.7L868.7 677.9L870 540.8L871.3 669L872.7 522.2L874 705.8L875.3 518.6L876.7 694.9L878 492.7L879.3 692.4L880.7 530.5L882 657.9L883.3 530.2L884.7 704.3L886 536.5L887.3 676.3L888.7 501.6L890 696.2L891.3 522.3L892.7 585.6L894 524L895.3 706.6L896.7 542.1L898 691.8L899.3 520.5L900.7 666.2L902 538.2L903.3 671L904.7 535.4L906 702.8L907.3 540.7L908.7 688.6L910 522L911.3 712.9L912.7 511.8L914 714.7L915.3 548.8L916.7 708.5L918 528.1L919.3 710L920.7 543.9L922 722.6L923.3 530.1L924.7 713.8L926 520.1L927.3 721L928.7 513.8L930 731.9L931.3 526.1L932.7 705.9L934 546.2L935.3 701.8L936.7 550.1L938 726.8L939.3 532.9L940.7 706.2L942 547L943.3 728.1L944.7 446.8L946 704.3L947.3 544.7L948.7 682.2L950 541.9L951.3 727.6L952.7 539.5L954 718.1L955.3 545.4L956.7 687.4L958 527L959.3 712.7L960.7 517.3L962 727.3L963.3 550.7L964.7 706.6L966 537L967.3 718.6L968.7 545.5L970 706.4L971.3 555L972.7 661.3L974 502L975.3 717.5L976.7 535.2L978 737.7L979.3 569.1L980.7 711.4L982 525.1L983.3 722.3L984.7 555.8L986 718L987.3 567.8L988.7 723.9L990 489L991.3 725.7L992.7 551.4L994 732.8L995.3 555.7L996.7 705.1L998 523.8L999.3 730.2L1000.7 544.2L1002 713.3L1003.3 531.6L1004.7 736.5L1006 534.7L1007.3 698.1L1008.7 565L1010 715.1L1011.3 543.6L1012.7 724.2L1014 553.9L1015.3 700.6L1016.7 552.9L1018 731.2L1019.3 556.6L1020.7 728.3L1022 510.5L1023.3 701.3L1024.7 548.6L1026 704.3L1027.3 559.6L1028.7 698.3L1030 551.7L1031.3 666.8L1032.7 536.6L1034 725.7L1035.3 551.4L1036.7 730.7L1038 537.5L1039.3 719.8L1040.7 520.6L1042 716L1043.3 541.1L1044.7 734.7L1046 529.6L1047.3 723.2L1048.7 542.4L1050 725.6L1051.3 558.7L1052.7 715L1054 543.6L1055.3 724.2L1056.7 542.7L1058 711L1059.3 557.6L1060.7 731.2L1062 538.5L1063.3 727L1064.7 539.6L1066 732.8L1067.3 518.2L1068.7 729.1L1070 537.3L1071.3 620.3L1072.7 508L1074 724.1L1075.3 535.8L1076.7 734.7L1078 541.8L1079.3 721.1L1080.7 537.2L1082 722L1083.3 515.9L1084.7 716.2L1086 560.9L1087.3 730.9L1088.7 529.1L1090 716.5L1091.3 553.5L1092.7 721.9L1094 530.8L1095.3 710.9L1096.7 572.7L1098 699.1L1099.3 520.5L1100.7 721.9L1102 563.4L1103.3 721.8L1104.7 539L1106 711.2L1107.3 555.5L1108.7 729L1110 546.5L1111.3 710.2L1112.7 557.2L1114 703.3L1115.3 535.4L1116.7 722.6L1118 546.9L1119.3 714.7L1120.7 560.5L1122 732.3L1123.3 545.6L1124.7 732.9L1126 559.5L1127.3 727L1128.7 538.5L1130 709.5L1131.3 521.9L1132.7 706.4L1134 550.2L1135.3 713.8L1136.7 560.5L1138 728.9L1139.3 544.6L1140.7 729.7L1142 564.1L1143.3 711.5L1144.7 532.2L1146 651.3L1147.3 496.1L1148.7 725.3L1150 522.2L1151.3 699.1L1152.7 543L1154 698.1L1155.3 514L1156.7 684.8L1158 523.1L1159.3 714.5L1160.7 535.2L1162 669.8L1163.3 533.9L1164.7 690.1L1166 504.3L1167.3 669.5L1168.7 542.3L1170 709.7L1171.3 506.6L1172.7 699.4L1174 521.9L1175.3 678.7L1176.7 497.4L1178 709.6L1179.3 492.3L1180.7 695.8L1182 523.4L1183.3 704.5L1184.7 454.6L1186 679.5L1187.3 431.1L1188.7 665.6L1190 462.7L1191.3 705.6L1192.7 536.5L1194 718.1L1195.3 488.9L1196.7 684.1L1198 520.2L1199.3 674.8L1200.7 512.5L1202 720.6L1203.3 537.4L1204.7 704.4L1206 511L1207.3 680.4L1208.7 510.6L1210 694L1211.3 519.9L1212.7 693.9L1214 538.3L1215.3 688.5L1216.7 514.7L1218 692.9L1219.3 534L1220.7 679.9L1222 511.9L1223.3 685.9L1224.7 480.5L1226 696.4L1227.3 541.8L1228.7 677L1230 481L1231.3 699.6L1232.7 541.6L1234 695.3L1235.3 527.2L1236.7 723L1238 506.5L1239.3 708.4L1240.7 553.9L1242 722.9L1243.3 519.8L1244.7 707.8L1246 422.4L1247.3 717.8L1248.7 532.8L1250 728.8L1251.3 534.7L1252.7 715.3L1254 547.5L1255.3 715L1256.7 539.1L1258 724.4L1259.3 541.9L1260.7 724.2L1262 545.4L1263.3 657L1264.7 543L1266 712.8L1267.3 535.1L1268.7 708.3L1270 534.7L1271.3 696.6L1272.7 545L1274 716.5L1275.3 539.1L1276.7 715.7L1278 529L1279.3 680.8L1280.7 532.1L1282 707.5L1283.3 545.6L1284.7 714.3L1286 524.8L1287.3 681.3L1288.7 551.1L1290 734.4L1291.3 549.6L1292.7 720.6L1294 509.5L1295.3 710L1296.7 555.1L1298 711.6L1299.3 560.2L1300.7 722.8L1302 558L1303.3 687.5L1304.7 549.9L1306 723.9L1307.3 535.3L1308.7 721.7L1310 534.9L1311.3 641.3L1312.7 513.5L1314 708.9L1315.3 546.1L1316.7 725.5L1318 546.9L1319.3 724L1320.7 499.2L1322 713.7L1323.3 547L1324.7 691.7L1326 539.6L1327.3 723.7L1328.7 478.7L1330 722.7L1331.3 526L1332.7 706L1334 556.7L1335.3 724.9L1336.7 538.5L1338 703.8L1339.3 538L1340.7 711.7L1342 539.1L1343.3 732.1L1344.7 539.4L1346 683.2L1347.3 529.6L1348.7 726.1L1350 521.3L1351.3 724.6L1352.7 550.8L1354 722.1L1355.3 463.2L1356.7 718.1L1358 564.8L1359.3 728.2L1360.7 532.6L1362 699.9L1363.3 531.2L1364.7 713.6L1366 560.8L1367.3 728.2L1368.7 553.4L1370 713.3L1371.3 541.7L1372.7 704.2L1374 565.8L1375.3 731L1376.7 531L1378 721.8L1379.3 535.1L1380.7 714.7L1382 557.2L1383.3 728.2L1384.7 541.9L1386 692.8L1387.3 521.9L1388.7 714.8L1390 554.2L1391.3 724.8L1392.7 567.9L1394 730.3L1395.3 529.6L1396.7 722L1398 551.3L1399.3 720.5L1400.7 557.9L1402 721.5L1403.3 492.6L1404.7 726.4L1406 530.8L1407.3 729.7L1408.7 535.2L1410 714.2L1411.3 543.8L1412.7 712.8L1414 551.2L1415.3 687.4L1416.7 547.9L1418 712.8L1419.3 534.7L1420.7 677.5L1422 548.4L1423.3 711.6L1424.7 533.5L1426 726.5L1427.3 530.2L1428.7 681.6L1430 540.9L1431.3 707.6L1432.7 531.5L1434 714.9L1435.3 537.5L1436.7 690.9L1438 558.1L1439.3 728.5L1440.7 522.7L1442 732.6L1443.3 564.7L1444.7 693.6L1446 527.9L1447.3 706.3L1448.7 536L1450 720.7L1451.3 549.3L1452.7 693.3L1454 523L1455.3 722.7L1456.7 550.2L1458 715.2L1459.3 540.9L1460.7 724.9L1462 533.3L1463.3 713.9L1464.7 561.5L1466 731.9L1467.3 537L1468.7 734.4L1470 537.1L1471.3 719.7L1472.7 528.2L1474 707.5L1475.3 431.3L1476.7 689.2L1478 533.2L1479.3 696.9L1480.7 500.6L1482 712.2L1483.3 536L1484.7 670.2L1486 483.1L1487.3 675.9L1488.7 533.5L1490 717L1491.3 502.4L1492.7 706.2L1494 513.3L1495.3 680.8L1496.7 422.8L1498 706.7L1499.3 523.2L1500.7 673.1L1502 441.1L1503.3 677L1504.7 520.9L1506 728L1507.3 506.7L1508.7 666.1L1510 546.5L1511.3 650.5L1512.7 526L1514 644L1515.3 529.8L1516.7 644.2L1518 522.9L1519.3 665.9L1520.7 516.9L1522 687.4L1523.3 501.8L1524.7 685.2L1526 500.6L1527.3 677.9L1528.7 529.1L1530 668L1531.3 451.3L1532.7 685.8L1534 535.8L1535.3 664.4L1536.7 502.9L1538 711.6L1539.3 530.3L1540.7 698.5L1542 520.2L1543.3 695.8L1544.7 540L1546 707.1L1547.3 506.3L1548.7 707.2L1550 538.3L1551.3 719L1552.7 550.3L1554 721.8L1555.3 545.4L1556.7 727.5L1558 531.4L1559.3 709.6L1560.7 528.4L1562 727.6L1563.3 543.4L1564.7 719.9L1566 526.2L1567.3 683.3L1568.7 542L1570 706.9L1571.3 543.6L1572.7 728.6L1574 528.6L1575.3 711.8L1576.7 559.5L1578 694.2L1579.3 521L1580.7 720.2L1582 538.6L1583.3 723.1L1584.7 551.7L1586 669L1587.3 494.2L1588.7 721.4L1590 551.9L1591.3 729.1L1592.7 553.4L1594 605.8L1595.3 532.2L1596.7 717L1598 528.5L1599.3 732.5L1600.7 551.2L1602 708.2L1603.3 522.9L1604.7 730.3L1606 539.6L1607.3 722.3L1608.7 532.2L1610 727.9L1611.3 512.2L1612.7 714.6L1614 553.7L1615.3 728.6L1616.7 554.7L1618 701.2L1619.3 537L1620.7 707.5L1622 566.4L1623.3 712.6L1624.7 538.8L1626 732.3L1627.3 507.7L1628.7 724.9L1630 530.5L1631.3 623.3L1632.7 535.9L1634 702.5L1635.3 519.8L1636.7 711.5L1638 560.7L1639.3 716.8L1640.7 553.5L1642 726.5L1643.3 472.7L1644.7 700L1646 538.5L1647.3 714.6L1648.7 531.5L1650 723.5L1651.3 546.7L1652.7 699.7L1654 550.3L1655.3 719.1L1656.7 533.8L1658 704L1659.3 558.2L1660.7 688.3L1662 555L1663.3 724.4L1664.7 545.5L1666 724L1667.3 532L1668.7 720L1670 518.6L1671.3 716.6L1672.7 532.3L1674 708.6L1675.3 541.3L1676.7 700.2L1678 535.9L1679.3 717.4L1680.7 549L1682 733.1L1683.3 556.3L1684.7 684.4L1686 538.3L1687.3 719.5L1688.7 532.3L1690 709.1L1691.3 532.2L1692.7 682L1694 517.9L1695.3 724.9L1696.7 550.5L1698 732.8L1699.3 556.8L1700.7 681.7L1702 535.9L1703.3 716.3L1704.7 551.5L1706 717.1L1707.3 532.7L1708.7 692.6L1710 516L1711.3 720.6L1712.7 535.6L1714 715.7L1715.3 561.1L1716.7 718.1L1718 504.6L1719.3 725.2L1720.7 541.4L1722 714.3L1723.3 530.2L1724.7 739.3L1726 517.3L1727.3 735.4L1728.7 541.7L1730 717.5L1731.3 550.6L1732.7 724.2L1734 497.8L1735.3 711.9L1736.7 556L1738 705.4L1739.3 553L1740.7 724.6L1742 512.4L1743.3 695L1744.7 555L1746 719.6L1747.3 556L1748.7 719.1L1750 547.3L1751.3 698.7L1752.7 545.7L1754 732.5L1755.3 539.9L1756.7 715.9L1758 558.7L1759.3 698.9L1760.7 551.8L1762 727.1L1763.3 557.3L1764.7 727.6L1766 550.2L1767.3 702.2L1768.7 527.9L1770 724.5L1771.3 557.4L1772.7 732.3L1774 542.8L1775.3 713L1776.7 524.5L1778 712.2L1779.3 556.2L1780.7 734.9L1782 564.4L1783.3 720.3L1784.7 546.9L1786 719L1787.3 530.6L1788.7 711.4L1790 554.5L1791.3 554.5L1792.7 522.1L1794 688.7L1795.3 526.5L1796.7 525L1798 524.2L1799.3 716.9" fill="transparent" stroke="#6be6c1" stroke-width="3" stroke-linejoin="bevel" class="zr4-cls-14"></path>
</g>
<g clip-path="url(#zr4-c2)">
<path d="M200.7 -9L202 488.9L203.3 450.9L204.7 646.3L206 514.4L207.3 672.7L208.7 541.3L210 702.7L211.3 518.6L212.7 680.6L214 507.6L215.3 655L216.7 502.4L218 692.6L219.3 537.8L220.7 659.5L222 514.2L223.3 696.9L224.7 505.7L226 653.1L227.3 522.2L228.7 690.8L230 527L231.3 694.3L232.7 511.5L234 694.5L235.3 538.1L236.7 682L238 518.7L239.3 683.4L240.7 525.3L242 665.5L243.3 495L244.7 683.4L246 402.9L247.3 698.6L248.7 517.1L250 710.8L251.3 485.1L252.7 638.6L254 502.5L255.3 684L256.7 522.3L258 660L259.3 532.7L260.7 638L262 429.1L263.3 663.6L264.7 485.7L266 591.5L267.3 514.8L268.7 672.7L270 503.4L271.3 533.1L272.7 528.3L274 712.5L275.3 522.7L276.7 720.3L278 501.4L279.3 678.2L280.7 533.1L282 685.3L283.3 527.4L284.7 717.3L286 509.7L287.3 700.5L288.7 550.7L290 713L291.3 552.8L292.7 728.6L294 522.6L295.3 682.7L296.7 530.2L298 700.6L299.3 547.6L300.7 711.5L302 513.3L303.3 688.3L304.7 520.6L306 727.3L307.3 550.3L308.7 711.9L310 544.8L311.3 695.1L312.7 522.3L314 710.6L315.3 531L316.7 717.9L318 528.1L319.3 705.4L320.7 534.8L322 703.8L323.3 549.5L324.7 712.5L326 519.4L327.3 710.7L328.7 546L330 700.3L331.3 533.8L332.7 719.5L334 515.4L335.3 681.9L336.7 532.8L338 713.9L339.3 538.6L340.7 688.6L342 419L343.3 706L344.7 528.8L346 726L347.3 543.3L348.7 722.4L350 508.7L351.3 719.4L352.7 504.5L354 717.6L355.3 516.2L356.7 722.6L358 448.8L359.3 704.3L360.7 543.9L362 712L363.3 519L364.7 728.1L366 402.4L367.3 711.8L368.7 528.5L370 722.8L371.3 526.9L372.7 710.1L374 390.6L375.3 690.1L376.7 557.1L378 727L379.3 512.1L380.7 709.8L382 537.8L383.3 711.5L384.7 529.4L386 708L387.3 504.1L388.7 697.5L390 502.8L391.3 712.5L392.7 540.4L394 720.9L395.3 545.7L396.7 698.5L398 529.6L399.3 711.7L400.7 529.9L402 733.1L403.3 550.2L404.7 712.8L406 541L407.3 710.8L408.7 560.4L410 704.4L411.3 498.2L412.7 713.1L414 490.7L415.3 713.3L416.7 519.3L418 730.2L419.3 522.8L420.7 716.5L422 481.4L423.3 725.5L424.7 533L426 722.8L427.3 541.4L428.7 731.3L430 497.8L431.3 704.5L432.7 547.5L434 728.5L435.3 545.1L436.7 706.2L438 535.9L439.3 700.1L440.7 528.7L442 724.4L443.3 500.5L444.7 702.7L446 543.6L447.3 711.2L448.7 551L450 723.6L451.3 539.7L452.7 729.7L454 535.4L455.3 691.2L456.7 519L458 708.2L459.3 525.7L460.7 736.4L462 539.6L463.3 682.4L464.7 540L466 698.8L467.3 541.2L468.7 726.5L470 539.6L471.3 708.3L472.7 526.4L474 698.5L475.3 542.2L476.7 728.8L478 535.9L479.3 720.5L480.7 542.3L482 700L483.3 554.9L484.7 729.1L486 540.7L487.3 669.6L488.7 533.2L490 705.5L491.3 560.2L492.7 710.3L494 557.9L495.3 666.1L496.7 533.4L498 720.3L499.3 542.3L500.7 712.8L502 567.2L503.3 703.9L504.7 546.2L506 732.5L507.3 544.4L508.7 726.7L510 549.8L511.3 691.9L512.7 536.9L514 668.9L515.3 523.9L516.7 636L518 546.1L519.3 733.6L520.7 542L522 685.8L523.3 513.6L524.7 671.2L526 519.8L527.3 691.6L528.7 504.2L530 703.8L531.3 522.7L532.7 680.5L534 521L535.3 687.4L536.7 531.3L538 674.8L539.3 529.6L540.7 694.3L542 540.1L543.3 687L544.7 498.9L546 700L547.3 521.2L548.7 706.6L550 542.1L551.3 724.5L552.7 547.5L554 679L555.3 505.3L556.7 699.7L558 532.8L559.3 670L560.7 546.8L562 701.9L563.3 526.2L564.7 673.7L566 501.8L567.3 700.9L568.7 507.2L570 699.1L571.3 549.1L572.7 702L574 503.6L575.3 502L576.7 510.2L578 706.3L579.3 509.4L580.7 683.2L582 515.7L583.3 667.3L584.7 466.6L586 635.7L587.3 525L588.7 694.9L590 529.7L591.3 672.8L592.7 538.2L594 727.2L595.3 419.4L596.7 693.2L598 520.3L599.3 728.7L600.7 535.2L602 733.3L603.3 546.4L604.7 709.7L606 552.1L607.3 725.4L608.7 472.1L610 705.9L611.3 423.3L612.7 709.6L614 518.3L615.3 701.5L616.7 557L618 733.5L619.3 497.2L620.7 716.4L622 544.4L623.3 694.7L624.7 545.4L626 725.9L627.3 498.8L628.7 728.1L630 520.2L631.3 722.7L632.7 540.5L634 715.9L635.3 540.6L636.7 719.4L638 532.8L639.3 727.7L640.7 539.6L642 721.6L643.3 533.5L644.7 682.4L646 522.6L647.3 717.9L648.7 555.4L650 728.4L651.3 473.5L652.7 711.7L654 523.8L655.3 709.3L656.7 558.4L658 727.9L659.3 565.5L660.7 720.7L662 533L663.3 724.9L664.7 555.3L666 734.4L667.3 530.7L668.7 667.1L670 523.4L671.3 729.1L672.7 533.6L674 721.7L675.3 559.4L676.7 731.6L678 522.4L679.3 735.7L680.7 540.7L682 710L683.3 540L684.7 703.9L686 553L687.3 701.7L688.7 562.2L690 731.2L691.3 534.4L692.7 600.9L694 545.2L695.3 708.6L696.7 559L698 731.8L699.3 523L700.7 671.1L702 543.1L703.3 706L704.7 570.8L706 729.7L707.3 540.6L708.7 706.8L710 512.6L711.3 724.7L712.7 548.6L714 739.1L715.3 519.6L716.7 645.7L718 532.5L719.3 687.7L720.7 547L722 721.7L723.3 550.8L724.7 704L726 508L727.3 696.8L728.7 547.1L730 705.6L731.3 555.2L732.7 677.8L734 504.7L735.3 720.7L736.7 541.1L738 728.6L739.3 554.2L740.7 690.1L742 559L743.3 709.1L744.7 544L746 729.1L747.3 554.3L748.7 681.7L750 533.1L751.3 724L752.7 526.7L754 726.6L755.3 563.5L756.7 725.1L758 528.6L759.3 699.9L760.7 548.1L762 727.7L763.3 524.3L764.7 678.7L766 533.9L767.3 718.3L768.7 536.5L770 722.2L771.3 545.4L772.7 714.1L774 548.1L775.3 729.8L776.7 525.5L778 725.4L779.3 548.8L780.7 725.8L782 490.6L783.3 709.4L784.7 533.6L786 716.7L787.3 553L788.7 717.8L790 552.8L791.3 692L792.7 552.1L794 711.2L795.3 556.3L796.7 731.6L798 562.7L799.3 660.2L800.7 535.8L802 731.6L803.3 531.7L804.7 719.1L806 553.4L807.3 689.6L808.7 546.7L810 730.6L811.3 558.1L812.7 711.5L814 556.5L815.3 696.1L816.7 558.7L818 720.7L819.3 559.1L820.7 703.4L822 517.3L823.3 685.9L824.7 549L826 726.5L827.3 544.4L828.7 722.6L830 550.8L831.3 685.2L832.7 552.1L834 713.8L835.3 510.7L836.7 681.4L838 531.8L839.3 673.7L840.7 455.3L842 682.9L843.3 504.3L844.7 684.8L846 502.3L847.3 703.5L848.7 538.6L850 675.8L851.3 507.4L852.7 701.2L854 520.5L855.3 694.3L856.7 523.1L858 700.2L859.3 520.6L860.7 718.2L862 497.8L863.3 686.8L864.7 533L866 699.1L867.3 454.3L868.7 693L870 529.5L871.3 694.1L872.7 499.5L874 643L875.3 522.1L876.7 693.4L878 483.5L879.3 711.7L880.7 529.9L882 716L883.3 503.9L884.7 709.4L886 517.5L887.3 677.6L888.7 501.1L890 722L891.3 520.8L892.7 659.8L894 514.2L895.3 674.6L896.7 535.2L898 658.4L899.3 516.9L900.7 696.1L902 543.7L903.3 692.7L904.7 540.6L906 667.7L907.3 523.6L908.7 697.3L910 535.6L911.3 698L912.7 524.6L914 722.2L915.3 474.2L916.7 721.3L918 532.8L919.3 714.7L920.7 559.5L922 733.4L923.3 491.6L924.7 717.5L926 549.9L927.3 710.3L928.7 527.3L930 733.2L931.3 529.4L932.7 697.7L934 525.9L935.3 719.6L936.7 522.5L938 712.1L939.3 547.7L940.7 707.1L942 494.2L943.3 719.3L944.7 535.7L946 733.1L947.3 539.5L948.7 699.7L950 539.1L951.3 711.7L952.7 564L954 736.8L955.3 546.4L956.7 685.2L958 537.9L959.3 725.3L960.7 554.9L962 738L963.3 566.9L964.7 629.7L966 527.6L967.3 722.6L968.7 536.4L970 714.4L971.3 539.6L972.7 721.5L974 540.8L975.3 730.8L976.7 536.5L978 722.8L979.3 563.4L980.7 713.8L982 558.6L983.3 720.4L984.7 559.7L986 728.1L987.3 561.5L988.7 727.7L990 504.9L991.3 729.2L992.7 549L994 729.2L995.3 542.4L996.7 725.7L998 467.1L999.3 716.2L1000.7 530.3L1002 731.3L1003.3 550.7L1004.7 717L1006 538.3L1007.3 705.6L1008.7 508.9L1010 728.7L1011.3 554.7L1012.7 721.6L1014 502.7L1015.3 721.7L1016.7 547.2L1018 726.3L1019.3 487.9L1020.7 727.7L1022 528.5L1023.3 693.9L1024.7 528.6L1026 709.6L1027.3 555.5L1028.7 730.1L1030 543.5L1031.3 711.7L1032.7 545L1034 718.6L1035.3 550.5L1036.7 720.8L1038 496.3L1039.3 699.7L1040.7 504.4L1042 727.2L1043.3 568L1044.7 733.9L1046 547.8L1047.3 712.2L1048.7 543.4L1050 712.7L1051.3 555.8L1052.7 726.4L1054 538.6L1055.3 673.7L1056.7 530L1058 726L1059.3 559.5L1060.7 716.1L1062 555.5L1063.3 727.4L1064.7 553.6L1066 715.4L1067.3 530.3L1068.7 708.1L1070 553.6L1071.3 716.7L1072.7 529.1L1074 708.4L1075.3 553.3L1076.7 724.1L1078 534.1L1079.3 636.2L1080.7 555.5L1082 715L1083.3 544.5L1084.7 731.7L1086 531.6L1087.3 695.3L1088.7 545.3L1090 723.8L1091.3 553.4L1092.7 727.1L1094 542.4L1095.3 709.3L1096.7 489.2L1098 726.4L1099.3 531.9L1100.7 733.4L1102 537.4L1103.3 725.3L1104.7 510.2L1106 712.2L1107.3 550.3L1108.7 734.5L1110 522.2L1111.3 714.4L1112.7 506.8L1114 728L1115.3 563.9L1116.7 731.8L1118 539.5L1119.3 704.5L1120.7 523.1L1122 725.2L1123.3 528L1124.7 723.8L1126 529.2L1127.3 738.1L1128.7 537.9L1130 711.2L1131.3 534.5L1132.7 710.9L1134 542.2L1135.3 726.5L1136.7 539.1L1138 735.5L1139.3 554.9L1140.7 693.2L1142 543.6L1143.3 712.6L1144.7 548.6L1146 737.5L1147.3 534.9L1148.7 699.1L1150 553.6L1151.3 713.6L1152.7 542L1154 688.3L1155.3 543.4L1156.7 672.2L1158 534.4L1159.3 666.5L1160.7 529.3L1162 649.9L1163.3 506.7L1164.7 711.7L1166 526.2L1167.3 706.4L1168.7 528.1L1170 680L1171.3 525.1L1172.7 664.8L1174 508.6L1175.3 712.4L1176.7 494.8L1178 692.2L1179.3 533.2L1180.7 712L1182 514L1183.3 683.6L1184.7 514.5L1186 707.6L1187.3 539.2L1188.7 684.1L1190 542.8L1191.3 699.5L1192.7 545.8L1194 682.1L1195.3 530.1L1196.7 648.5L1198 517L1199.3 695.6L1200.7 513.8L1202 671.6L1203.3 418.8L1204.7 662.1L1206 534.4L1207.3 690L1208.7 522.4L1210 667.8L1211.3 508.5L1212.7 685.2L1214 483.2L1215.3 712.4L1216.7 549.5L1218 723L1219.3 516.6L1220.7 687.4L1222 539L1223.3 685.9L1224.7 502.5L1226 692.2L1227.3 537.1L1228.7 592.4L1230 524.3L1231.3 715.9L1232.7 554.6L1234 712.3L1235.3 546.7L1236.7 690.2L1238 528.6L1239.3 729L1240.7 550.7L1242 735.6L1243.3 530.9L1244.7 729L1246 534.7L1247.3 714.4L1248.7 492.8L1250 698.6L1251.3 541.4L1252.7 729.2L1254 514.2L1255.3 731.6L1256.7 543.8L1258 733.9L1259.3 520.6L1260.7 706.8L1262 510.8L1263.3 715.8L1264.7 528.2L1266 720.6L1267.3 545.4L1268.7 724.2L1270 423.1L1271.3 700.3L1272.7 557.2L1274 727.9L1275.3 511.7L1276.7 730.5L1278 495.9L1279.3 684.3L1280.7 555.9L1282 739.2L1283.3 541.9L1284.7 730.8L1286 519.2L1287.3 722.8L1288.7 540.4L1290 712.4L1291.3 529.8L1292.7 720.9L1294 500L1295.3 716.3L1296.7 542.8L1298 721.1L1299.3 533.8L1300.7 718.8L1302 540.9L1303.3 708.2L1304.7 531.3L1306 722.4L1307.3 540.4L1308.7 656.8L1310 548.7L1311.3 723.9L1312.7 530.1L1314 714.5L1315.3 554.1L1316.7 574.1L1318 498.8L1319.3 729.4L1320.7 569.1L1322 707.8L1323.3 544.2L1324.7 732.8L1326 508.9L1327.3 717.3L1328.7 561.9L1330 728.7L1331.3 524.8L1332.7 723.1L1334 520.2L1335.3 723.4L1336.7 559.6L1338 735.1L1339.3 548L1340.7 705.8L1342 512.7L1343.3 717.9L1344.7 527.5L1346 719.1L1347.3 559.8L1348.7 716.6L1350 551.3L1351.3 720L1352.7 542.8L1354 717.5L1355.3 552.5L1356.7 725.8L1358 554L1359.3 682.9L1360.7 549.6L1362 704.3L1363.3 561.8L1364.7 719.3L1366 530.6L1367.3 679.7L1368.7 559.1L1370 708.5L1371.3 519.2L1372.7 674.5L1374 529.7L1375.3 695.4L1376.7 550.7L1378 712.9L1379.3 455.1L1380.7 704.1L1382 521.7L1383.3 708L1384.7 547.8L1386 724.7L1387.3 545.6L1388.7 626.7L1390 440.2L1391.3 672.8L1392.7 516.5L1394 719.8L1395.3 551.2L1396.7 707.4L1398 465.5L1399.3 710.1L1400.7 551.8L1402 720.7L1403.3 540.7L1404.7 702.7L1406 552.2L1407.3 701.8L1408.7 453.6L1410 706.1L1411.3 514.3L1412.7 672.7L1414 552.1L1415.3 673.4L1416.7 542.5L1418 722.5L1419.3 534.5L1420.7 670.6L1422 505L1423.3 701.5L1424.7 551.1L1426 726.1L1427.3 545.3L1428.7 710.5L1430 511.8L1431.3 732.4L1432.7 532L1434 723.7L1435.3 555.6L1436.7 733.7L1438 505.4L1439.3 703.4L1440.7 547.6L1442 707.5L1443.3 554.9L1444.7 728.8L1446 535.6L1447.3 724.2L1448.7 540.3L1450 712.3L1451.3 558.8L1452.7 576.6L1454 417.7L1455.3 720.3L1456.7 539.4L1458 716.1L1459.3 512.7L1460.7 708.2L1462 555.9L1463.3 713.8L1464.7 561.5L1466 702.2L1467.3 533.5L1468.7 703.5L1470 551.5L1471.3 717L1472.7 489.2L1474 663.5L1475.3 542.9L1476.7 690L1478 537.9L1479.3 659L1480.7 485.4L1482 627L1483.3 503.8L1484.7 666.3L1486 495.3L1487.3 684.2L1488.7 405.2L1490 701.2L1491.3 526L1492.7 690.4L1494 480.7L1495.3 690.9L1496.7 518.5L1498 671.6L1499.3 524.8L1500.7 694.3L1502 522.6L1503.3 597.2L1504.7 343.6L1506 632.5L1507.3 395.7L1508.7 662.6L1510 459.2L1511.3 678.5L1512.7 513.3L1514 676L1515.3 497.9L1516.7 641.5L1518 503.9L1519.3 704.9L1520.7 516.5L1522 662.1L1523.3 496.7L1524.7 701.3L1526 508.2L1527.3 662.6L1528.7 529.8L1530 694.6L1531.3 393.7L1532.7 651.3L1534 507.2L1535.3 680.6L1536.7 446.2L1538 606.7L1539.3 412.9L1540.7 671.3L1542 516.4L1543.3 685.9L1544.7 433.7L1546 667.8L1547.3 519.5L1548.7 666.3L1550 419.5L1551.3 715.9L1552.7 531.8L1554 724.9L1555.3 554.7L1556.7 711L1558 483.2L1559.3 713.5L1560.7 532.5L1562 720.6L1563.3 543.9L1564.7 727.7L1566 554.4L1567.3 698.5L1568.7 539.3L1570 684.8L1571.3 556.5L1572.7 720.9L1574 497.7L1575.3 671.3L1576.7 498.4L1578 716.1L1579.3 542.5L1580.7 737.6L1582 528.1L1583.3 710.1L1584.7 543.1L1586 721L1587.3 502.5L1588.7 717.7L1590 543.4L1591.3 709.5L1592.7 540L1594 729.7L1595.3 543.2L1596.7 723.7L1598 527.7L1599.3 705L1600.7 515.3L1602 738L1603.3 526.1L1604.7 706L1606 461.4L1607.3 692.9L1608.7 515.8L1610 714.3L1611.3 518.8L1612.7 725.2L1614 471.6L1615.3 731.5L1616.7 554L1618 704.8L1619.3 540.9L1620.7 702.2L1622 514.1L1623.3 714.2L1624.7 557.7L1626 720.7L1627.3 532.1L1628.7 710.9L1630 502.3L1631.3 722.5L1632.7 529L1634 705L1635.3 553.9L1636.7 706.4L1638 412.6L1639.3 714L1640.7 541.7L1642 721.1L1643.3 534.5L1644.7 710.1L1646 548.1L1647.3 719.1L1648.7 552.3L1650 700.9L1651.3 526.1L1652.7 706.7L1654 555.6L1655.3 697.5L1656.7 534.9L1658 716.6L1659.3 532.9L1660.7 700.7L1662 545.1L1663.3 690.8L1664.7 506.4L1666 728.6L1667.3 519.6L1668.7 702.9L1670 564.9L1671.3 722.9L1672.7 522.5L1674 724.6L1675.3 503.6L1676.7 706.1L1678 542.2L1679.3 719.8L1680.7 528L1682 699.3L1683.3 531L1684.7 707.4L1686 552.7L1687.3 653.6L1688.7 544.2L1690 707.3L1691.3 508.3L1692.7 714.6L1694 550.9L1695.3 691.1L1696.7 539.3L1698 722.3L1699.3 528.8L1700.7 719.3L1702 557.3L1703.3 691.2L1704.7 540.7L1706 724.4L1707.3 548.2L1708.7 726.5L1710 551.2L1711.3 700.6L1712.7 519.2L1714 731.7L1715.3 509.5L1716.7 706L1718 538L1719.3 676.9L1720.7 535.6L1722 720.6L1723.3 544.6L1724.7 719.2L1726 528.7L1727.3 709.5L1728.7 526.4L1730 713.9L1731.3 539.9L1732.7 705.8L1734 521.9L1735.3 702L1736.7 527L1738 718.3L1739.3 517.4L1740.7 717L1742 546.9L1743.3 721L1744.7 501.1L1746 708.6L1747.3 513.1L1748.7 714.5L1750 530.3L1751.3 715.4L1752.7 520.1L1754 713.1L1755.3 544.9L1756.7 691.2L1758 537L1759.3 680.8L1760.7 547.5L1762 700.1L1763.3 550.3L1764.7 704.3L1766 517.5L1767.3 717.2L1768.7 550.8L1770 729.5L1771.3 532.1L1772.7 724.9L1774 421.4L1775.3 625.2L1776.7 494.8L1778 708.8L1779.3 494.5L1780.7 634.6L1782 381.6L1783.3 670L1784.7 494.5L1786 697.1L1787.3 450.7L1788.7 689.4L1790 507.8L1791.3 661.5L1792.7 365.2L1794 648.8L1795.3 464.1L1796.7 634.2L1798 315.5L1799.3 650.9" fill="transparent" stroke="#626c91" stroke-width="3" stroke-linejoin="bevel" class="zr4-cls-14"></path>
</g>
<path d="M-269.2 -5l538.5 0l0 28l-538.5 0Z" transform="translate(1000 5)" fill="rgb(0,0,0)" fill-opacity="0" stroke="#ccc" stroke-width="0" class="zr4-cls-12"></path>
<text dominant-baseline="central" text-anchor="middle" style="font-size:18px;font-family:sans-serif;font-weight:bold;" xml:space="preserve" y="9" transform="translate(1000 5)" fill="#666666">controlBehaviorUpdate per Tick for bench_1_every_60_staggered</text>
<defs >
<clipPath id="zr4-c0">
<path d="M198 58.5l16004 0l0 8703l-16004 0Z" fill="#000" class="zr4-cls-13"></path>
</clipPath>
<clipPath id="zr4-c1">
<path d="M198 58.5l16004 0l0 8703l-16004 0Z" fill="#000" class="zr4-cls-13"></path>
</clipPath>
<clipPath id="zr4-c2">
<path d="M198 58.5l16004 0l0 8703l-16004 0Z" fill="#000" class="zr4-cls-13"></path>
</clipPath>
</defs>
<style ><![CDATA[
.zr4-cls-12:hover {
pointer-events:none;
}
.zr4-cls-13:hover {
cursor:pointer;
fill:rgba(0,0,0,1);
}
.zr4-cls-14:hover {
cursor:pointer;
}

]]>

</style>
</svg>