<svg width="2000" height="1000" xmlns="http://www.w3.org/2000/svg" xmlns:xlink="http://www.w3.org/1999/xlink" version="1.1" baseProfile="full" viewBox="0 0 2000 1000">
<rect width="2000" height="1000" x="0" y="0" fill="rgb(252,252,252)" fill-opacity="0"></rect>
<path d="M200 930.5L1800 930.5" fill="transparent" stroke="#eeeeee" class="zr40-cls-120"></path>
<path d="M200 772.5L1800 772.5" fill="transparent" stroke="#eeeeee" class="zr40-cls-120"></path>
<path d="M200 614.5L1800 614.5" fill="transparent" stroke="#eeeeee" class="zr40-cls-120"></path>
<path d="M200 457.5L1800 457.5" fill="transparent" stroke="#eeeeee" class="zr40-cls-120"></path>
<path d="M200 299.5L1800 299.5" fill="transparent" stroke="#eeeeee" class="zr40-cls-120"></path>
<path d="M200 141.5L1800 141.5" fill="transparent" stroke="#eeeeee" class="zr40-cls-120"></path>
<path d="M200 60.5L1800 60.5" fill="transparent" stroke="#eeeeee" class="zr40-cls-120"></path>
<path d="M200.5 930L200.5 60" fill="transparent" stroke="#cccccc" stroke-linecap="round" class="zr40-cls-120"></path>
<text dominant-baseline="central" text-anchor="middle" style="font-size:12px;font-family:sans-serif;" xml:space="preserve" y="-6" transform="translate(200 45)" fill="#cccccc">wholeUpdate Time (ms)</text>
<path d="M200 930.5L1800 930.5" fill="transparent" stroke="#cccccc" stroke-linecap="round" class="zr40-cls-120"></path>
<text dominant-baseline="central" text-anchor="end" style="font-size:12px;font-family:sans-serif;" transform="translate(192 930)" fill="#999999">0.000</text>
<text dominant-baseline="central" text-anchor="end" style="font-size:12px;font-family:sans-serif;" transform="translate(192 772.2886)" fill="#999999">1.000</text>
<text dominant-baseline="central" text-anchor="end" style="font-size:12px;font-family:sans-serif;" transform="translate(192 614.5773)" fill="#999999">2.000</text>
<text dominant-baseline="central" text-anchor="end" style="font-size:12px;font-family:sans-serif;" transform="translate(192 456.8659)" fill="#999999">3.000</text>
<text dominant-baseline="central" text-anchor="end" style="font-size:12px;font-family:sans-serif;" transform="translate(192 299.1546)" fill="#999999">4.000</text>
<text dominant-baseline="central" text-anchor="end" style="font-size:12px;font-family:sans-serif;" transform="translate(192 141.4432)" fill="#999999">5.000</text>
<text dominant-baseline="central" text-anchor="end" style="font-size:12px;font-family:sans-serif;" transform="translate(192 60)" fill="#999999">5.516</text>
<text dominant-baseline="central" text-anchor="middle" style="font-size:12px;font-family:sans-serif;" y="6" transform="translate(200.6667 938)" fill="#999999">0</text>
<text dominant-baseline="central" text-anchor="middle" style="font-size:12px;font-family:sans-serif;" y="6" transform="translate(236.6667 938)" fill="#999999">27</text>
<text dominant-baseline="central" text-anchor="middle" style="font-size:12px;font-family:sans-serif;" y="6" transform="translate(272.6667 938)" fill="#999999">54</text>
<text dominant-baseline="central" text-anchor="middle" style="font-size:12px;font-family:sans-serif;" y="6" transform="translate(308.6667 938)" fill="#999999">81</text>
<text dominant-baseline="central" text-anchor="middle" style="font-size:12px;font-family:sans-serif;" y="6" transform="translate(344.6667 938)" fill="#999999">108</text>
<text dominant-baseline="central" text-anchor="middle" style="font-size:12px;font-family:sans-serif;" y="6" transform="translate(380.6667 938)" fill="#999999">135</text>
<text dominant-baseline="central" text-anchor="middle" style="font-size:12px;font-family:sans-serif;" y="6" transform="translate(416.6667 938)" fill="#999999">162</text>
<text dominant-baseline="central" text-anchor="middle" style="font-size:12px;font-family:sans-serif;" y="6" transform="translate(452.6667 938)" fill="#999999">189</text>
<text dominant-baseline="central" text-anchor="middle" style="font-size:12px;font-family:sans-serif;" y="6" transform="translate(488.6667 938)" fill="#999999">216</text>
<text dominant-baseline="central" text-anchor="middle" style="font-size:12px;font-family:sans-serif;" y="6" transform="translate(524.6667 938)" fill="#999999">243</text>
<text dominant-baseline="central" text-anchor="middle" style="font-size:12px;font-family:sans-serif;" y="6" transform="translate(560.6667 938)" fill="#999999">270</text>
<text dominant-baseline="central" text-anchor="middle" style="font-size:12px;font-family:sans-serif;" y="6" transform="translate(596.6667 938)" fill="#999999">297</text>
<text dominant-baseline="central" text-anchor="middle" style="font-size:12px;font-family:sans-serif;" y="6" transform="translate(632.6667 938)" fill="#999999">324</text>
<text dominant-baseline="central" text-anchor="middle" style="font-size:12px;font-family:sans-serif;" y="6" transform="translate(668.6667 938)" fill="#999999">351</text>
<text dominant-baseline="central" text-anchor="middle" style="font-size:12px;font-family:sans-serif;" y="6" transform="translate(704.6667 938)" fill="#999999">378</text>
<text dominant-baseline="central" text-anchor="middle" style="font-size:12px;font-family:sans-serif;" y="6" transform="translate(740.6667 938)" fill="#999999">405</text>
<text dominant-baseline="central" text-anchor="middle" style="font-size:12px;font-family:sans-serif;" y="6" transform="translate(776.6667 938)" fill="#999999">432</text>
<text dominant-baseline="central" text-anchor="middle" style="font-size:12px;font-family:sans-serif;" y="6" transform="translate(812.6667 938)" fill="#999999">459</text>
<text dominant-baseline="central" text-anchor="middle" style="font-size:12px;font-family:sans-serif;" y="6" transform="translate(848.6667 938)" fill="#999999">486</text>
<text dominant-baseline="central" text-anchor="middle" style="font-size:12px;font-family:sans-serif;" y="6" transform="translate(884.6667 938)" fill="#999999">513</text>
<text dominant-baseline="central" text-anchor="middle" style="font-size:12px;font-family:sans-serif;" y="6" transform="translate(920.6667 938)" fill="#999999">540</text>
<text dominant-baseline="central" text-anchor="middle" style="font-size:12px;font-family:sans-serif;" y="6" transform="translate(956.6667 938)" fill="#999999">567</text>
<text dominant-baseline="central" text-anchor="middle" style="font-size:12px;font-family:sans-serif;" y="6" transform="translate(992.6667 938)" fill="#999999">594</text>
<text dominant-baseline="central" text-anchor="middle" style="font-size:12px;font-family:sans-serif;" y="6" transform="translate(1028.6667 938)" fill="#999999">621</text>
<text dominant-baseline="central" text-anchor="middle" style="font-size:12px;font-family:sans-serif;" y="6" transform="translate(1064.6667 938)" fill="#999999">648</text>
<text dominant-baseline="central" text-anchor="middle" style="font-size:12px;font-family:sans-serif;" y="6" transform="translate(1100.6667 938)" fill="#999999">675</text>
<text dominant-baseline="central" text-anchor="middle" style="font-size:12px;font-family:sans-serif;" y="6" transform="translate(1136.6667 938)" fill="#999999">702</text>
<text dominant-baseline="central" text-anchor="middle" style="font-size:12px;font-family:sans-serif;" y="6" transform="translate(1172.6667 938)" fill="#999999">729</text>
<text dominant-baseline="central" text-anchor="middle" style="font-size:12px;font-family:sans-serif;" y="6" transform="translate(1208.6667 938)" fill="#999999">756</text>
<text dominant-baseline="central" text-anchor="middle" style="font-size:12px;font-family:sans-serif;" y="6" transform="translate(1244.6667 938)" fill="#999999">783</text>
<text dominant-baseline="central" text-anchor="middle" style="font-size:12px;font-family:sans-serif;" y="6" transform="translate(1280.6667 938)" fill="#999999">810</text>
<text dominant-baseline="central" text-anchor="middle" style="font-size:12px;font-family:sans-serif;" y="6" transform="translate(1316.6667 938)" fill="#999999">837</text>
<text dominant-baseline="central" text-anchor="middle" style="font-size:12px;font-family:sans-serif;" y="6" transform="translate(1352.6667 938)" fill="#999999">864</text>
<text dominant-baseline="central" text-anchor="middle" style="font-size:12px;font-family:sans-serif;" y="6" transform="translate(1388.6667 938)" fill="#999999">891</text>
<text dominant-baseline="central" text-anchor="middle" style="font-size:12px;font-family:sans-serif;" y="6" transform="translate(1424.6667 938)" fill="#999999">918</text>
<text dominant-baseline="central" text-anchor="middle" style="font-size:12px;font-family:sans-serif;" y="6" transform="translate(1460.6667 938)" fill="#999999">945</text>
<text dominant-baseline="central" text-anchor="middle" style="font-size:12px;font-family:sans-serif;" y="6" transform="translate(1496.6667 938)" fill="#999999">972</text>
<text dominant-baseline="central" text-anchor="middle" style="font-size:12px;font-family:sans-serif;" y="6" transform="translate(1532.6667 938)" fill="#999999">999</text>
<text dominant-baseline="central" text-anchor="middle" style="font-size:12px;font-family:sans-serif;" y="6" transform="translate(1568.6667 938)" fill="#999999">1026</text>
<text dominant-baseline="central" text-anchor="middle" style="font-size:12px;font-family:sans-serif;" y="6" transform="translate(1604.6667 938)" fill="#999999">1053</text>
<text dominant-baseline="central" text-anchor="middle" style="font-size:12px;font-family:sans-serif;" y="6" transform="translate(1640.6667 938)" fill="#999999">1080</text>
<text dominant-baseline="central" text-anchor="middle" style="font-size:12px;font-family:sans-serif;" y="6" transform="translate(1676.6667 938)" fill="#999999">1107</text>
<text dominant-baseline="central" text-anchor="middle" style="font-size:12px;font-family:sans-serif;" y="6" transform="translate(1712.6667 938)" fill="#999999">1134</text>
<text dominant-baseline="central" text-anchor="middle" style="font-size:12px;font-family:sans-serif;" y="6" transform="translate(1748.6667 938)" fill="#999999">1161</text>
<text dominant-baseline="central" text-anchor="middle" style="font-size:12px;font-family:sans-serif;" y="6" transform="translate(1784.6667 938)" fill="#999999">1188</text>
<g clip-path="url(#zr40-c0)">
<path d="M200.7 189.7L202 525.7L203.3 541.3L204.7 632L206 502.7L207.3 639.9L208.7 587L210 647.5L211.3 519L212.7 658.3L214 483.7L215.3 684.3L216.7 509.8L218 630.9L219.3 601.5L220.7 686.6L222 497.1L223.3 672.2L224.7 575.7L226 679.5L227.3 534L228.7 674.3L230 595.4L231.3 674.6L232.7 551.2L234 648.7L235.3 587.4L236.7 692.3L238 572.8L239.3 671.5L240.7 597.5L242 683.2L243.3 600.2L244.7 652.9L246 553.4L247.3 666.6L248.7 600.9L250 684.5L251.3 608.6L252.7 686.9L254 617.2L255.3 687L256.7 536.9L258 616L259.3 536L260.7 634.2L262 319.2L263.3 529.7L264.7 269.9L266 480.8L267.3 246.2L268.7 490.7L270 293.2L271.3 475.9L272.7 252.3L274 494.3L275.3 260.1L276.7 510.5L278 254.8L279.3 468.9L280.7 155.2L282 466.2L283.3 251L284.7 485.3L286 230.4L287.3 497.8L288.7 308.2L290 425.4L291.3 284.6L292.7 526.4L294 294.9L295.3 512.3L296.7 272.1L298 511.4L299.3 261.6L300.7 507.2L302 235L303.3 487.8L304.7 274.8L306 494.6L307.3 153.2L308.7 506.7L310 305.1L311.3 537.2L312.7 217.5L314 565.2L315.3 263.4L316.7 534.1L318 311.4L319.3 502.3L320.7 317.5L322 487.2L323.3 280L324.7 556.6L326 278.5L327.3 560.6L328.7 285.4L330 554.8L331.3 359L332.7 554L334 323.1L335.3 572.7L336.7 226.5L338 460.1L339.3 146.2L340.7 396.7L342 446.6L343.3 574.4L344.7 496.8L346 605.8L347.3 549L348.7 610.1L350 573.6L351.3 616.3L352.7 523.4L354 639.1L355.3 554.3L356.7 595.7L358 537L359.3 639.2L360.7 574L362 586.6L363.3 575L364.7 671.3L366 573.5L367.3 599.5L368.7 578L370 630.3L371.3 537.6L372.7 594.8L374 566.7L375.3 472.3L376.7 273.5L378 425L379.3 351.2L380.7 483L382 311.7L383.3 453L384.7 439.2L386 589L387.3 417.5L388.7 527.9L390 352.7L391.3 656.8L392.7 547.5L394 662.6L395.3 538.2L396.7 669.7L398 566.6L399.3 699.7L400.7 593.2L402 648.4L403.3 596.2L404.7 690.4L406 612.2L407.3 637.8L408.7 553.5L410 688.8L411.3 611.9L412.7 653.4L414 476.7L415.3 674.2L416.7 559.2L418 598.6L419.3 448.3L420.7 615.7L422 501.7L423.3 627.9L424.7 553.1L426 636.8L427.3 569.2L428.7 646.5L430 556.7L431.3 601.5L432.7 514.1L434 619.2L435.3 539.3L436.7 626.7L438 511.8L439.3 583.3L440.7 544L442 615.6L443.3 507.6L444.7 622.3L446 534.7L447.3 617.9L448.7 564.9L450 642L451.3 560.1L452.7 612.6L454 557.7L455.3 628.7L456.7 529.3L458 626.4L459.3 579.7L460.7 666.1L462 568.7L463.3 628.5L464.7 587.1L466 674.2L467.3 589.2L468.7 634.3L470 555.5L471.3 658.9L472.7 536.2L474 639.5L475.3 539.9L476.7 650.4L478 550.5L479.3 627.8L480.7 586.8L482 682L483.3 583.3L484.7 638L486 573L487.3 695.5L488.7 614.2L490 657L491.3 569.6L492.7 680.3L494 580.4L495.3 689.6L496.7 522.7L498 612.7L499.3 521L500.7 610.9L502 486.5L503.3 623.4L504.7 506.2L506 580.5L507.3 506.1L508.7 592.3L510 539.3L511.3 599.3L512.7 569.3L514 643.2L515.3 536.4L516.7 631.5L518 545.1L519.3 655.3L520.7 536.7L522 629.5L523.3 585.9L524.7 671.1L526 546.4L527.3 619.4L528.7 552.2L530 661.4L531.3 513.3L532.7 651.2L534 540.5L535.3 663.6L536.7 520.1L538 667.2L539.3 583.1L540.7 666.1L542 547.3L543.3 654.3L544.7 602L546 678.1L547.3 558.7L548.7 639.7L550 572.6L551.3 677.3L552.7 579.8L554 629.4L555.3 593.2L556.7 679.4L558 574.1L559.3 659.7L560.7 601.2L562 664.7L563.3 602.4L564.7 654.2L566 583.8L567.3 668.3L568.7 564.9L570 628.5L571.3 568.8L572.7 667.3L574 602.5L575.3 706.8L576.7 513.1L578 612.7L579.3 527.6L580.7 605.8L582 319.4L583.3 514.5L584.7 281.1L586 499.3L587.3 272.2L588.7 506.2L590 299.1L591.3 353.9L592.7 185.7L594 438.9L595.3 304L596.7 486L598 281.4L599.3 531.9L600.7 236.9L602 515L603.3 270.6L604.7 502L606 270.7L607.3 485.6L608.7 336.2L610 463.3L611.3 281L612.7 488.8L614 275.9L615.3 504.2L616.7 213.9L618 511.1L619.3 254.8L620.7 442.2L622 250.4L623.3 509.5L624.7 317L626 512.2L627.3 170.9L628.7 542.7L630 321.6L631.3 574.6L632.7 290.1L634 508.4L635.3 296L636.7 551L638 315.4L639.3 510.2L640.7 348L642 593.3L643.3 241.5L644.7 550.7L646 321.9L647.3 532.3L648.7 352.7L650 542.1L651.3 359.1L652.7 558.1L654 293.1L655.3 582.3L656.7 289.7L658 476.7L659.3 269.3L660.7 456.6L662 470.8L663.3 594.5L664.7 473L666 628.5L667.3 549.7L668.7 603.5L670 527.7L671.3 630.9L672.7 537.3L674 594L675.3 564.3L676.7 640.3L678 545.6L679.3 617L680.7 524.4L682 640L683.3 570.4L684.7 644.7L686 565.9L687.3 648.9L688.7 582.7L690 601.3L691.3 560.8L692.7 650.3L694 583.6L695.3 620.1L696.7 576.1L698 671.4L699.3 597L700.7 636.5L702 569.5L703.3 684.2L704.7 594.3L706 653.4L707.3 566L708.7 675.9L710 579.6L711.3 674.5L712.7 569.1L714 665.5L715.3 583.1L716.7 676.6L718 523.5L719.3 686.5L720.7 602.3L722 706.1L723.3 557.4L724.7 670.5L726 613L727.3 684.3L728.7 529.1L730 679L731.3 627.2L732.7 662.1L734 556.2L735.3 661.9L736.7 552.3L738 616.8L739.3 494.6L740.7 593.5L742 537.3L743.3 643.2L744.7 531.5L746 636.9L747.3 548.7L748.7 626.1L750 531.8L751.3 597.9L752.7 493.1L754 642.4L755.3 535.2L756.7 653.7L758 525.7L759.3 634.5L760.7 519.5L762 644.8L763.3 599.4L764.7 637.7L766 567.5L767.3 673.8L768.7 609.2L770 672.4L771.3 543.1L772.7 668.5L774 597.1L775.3 673.4L776.7 565.1L778 685L779.3 583L780.7 690L782 587.6L783.3 688.3L784.7 589.1L786 700.4L787.3 563.1L788.7 655.7L790 594.7L791.3 684.9L792.7 555.5L794 676.9L795.3 600L796.7 683.9L798 573.8L799.3 697.4L800.7 565.9L802 685.4L803.3 583.4L804.7 673.6L806 554.7L807.3 690.5L808.7 569.2L810 701.4L811.3 589.8L812.7 673.6L814 609.4L815.3 704.8L816.7 522L818 592.8L819.3 558.8L820.7 622.7L822 563.7L823.3 633.8L824.7 574.4L826 622.2L827.3 553.4L828.7 635L830 454.2L831.3 637.8L832.7 484.2L834 641.2L835.3 550.4L836.7 658.2L838 544L839.3 659.4L840.7 588.1L842 672.4L843.3 580.2L844.7 644.1L846 580L847.3 652.8L848.7 578.3L850 653.6L851.3 587.5L852.7 684.8L854 580.2L855.3 652.7L856.7 567.2L858 671.7L859.3 558.3L860.7 670.3L862 548.6L863.3 667L864.7 609.1L866 661.8L867.3 595.6L868.7 699.1L870 611.5L871.3 660.3L872.7 552.2L874 685.2L875.3 598.9L876.7 697.9L878 517.1L879.3 692.4L880.7 569.6L882 669.7L883.3 555.8L884.7 698.2L886 579.3L887.3 687.3L888.7 568L890 701.8L891.3 598.8L892.7 655.6L894 594.9L895.3 682.9L896.7 523.3L898 628.4L899.3 519.1L900.7 583.2L902 311.2L903.3 458.8L904.7 245.8L906 491.7L907.3 206.9L908.7 497.9L910 236.1L911.3 465.8L912.7 279.1L914 494.5L915.3 246.1L916.7 480.3L918 288.1L919.3 450.9L920.7 296.7L922 457.3L923.3 296L924.7 516L926 228.8L927.3 494.2L928.7 277.8L930 525.3L931.3 259.5L932.7 476.8L934 322L935.3 535.2L936.7 316.5L938 471.3L939.3 255.6L940.7 518.1L942 275.5L943.3 510.3L944.7 230.9L946 527L947.3 292.2L948.7 503.5L950 274.6L951.3 523.7L952.7 302.7L954 529.8L955.3 272.1L956.7 555.3L958 298.3L959.3 525.3L960.7 289.1L962 520.8L963.3 311L964.7 539.1L966 314.3L967.3 576.6L968.7 269.1L970 498L971.3 305.6L972.7 391.5L974 301.4L975.3 509.3L976.7 277.4L978 414.6L979.3 276.6L980.7 436.2L982 451.8L983.3 595.8L984.7 539L986 571.2L987.3 555.5L988.7 635.3L990 554.2L991.3 618.6L992.7 574.8L994 646.3L995.3 566.2L996.7 611L998 547.2L999.3 649.2L1000.7 580.3L1002 628.7L1003.3 562.4L1004.7 646.4L1006 534.6L1007.3 629.4L1008.7 528.8L1010 673.7L1011.3 548L1012.7 630.5L1014 566.6L1015.3 659.1L1016.7 570.1L1018 649.5L1019.3 561.3L1020.7 661.2L1022 539.2L1023.3 602.9L1024.7 473.8L1026 683.4L1027.3 559.3L1028.7 675.2L1030 565.6L1031.3 655.4L1032.7 527.3L1034 663.6L1035.3 600.9L1036.7 690.9L1038 582.7L1039.3 651.4L1040.7 556.7L1042 683.2L1043.3 596.9L1044.7 659L1046 583.5L1047.3 680.8L1048.7 566.9L1050 651.2L1051.3 582.6L1052.7 691.2L1054 596.5L1055.3 707.1L1056.7 501.8L1058 604.7L1059.3 560.7L1060.7 576L1062 507.2L1063.3 631.4L1064.7 542.2L1066 594.9L1067.3 530.7L1068.7 632.4L1070 490.9L1071.3 583.8L1072.7 481.5L1074 606L1075.3 522.5L1076.7 616.1L1078 493.7L1079.3 668.4L1080.7 524.5L1082 634.7L1083.3 553.3L1084.7 662.3L1086 502.9L1087.3 631.1L1088.7 548.3L1090 643.1L1091.3 549.1L1092.7 655.4L1094 555.4L1095.3 657.4L1096.7 471.8L1098 644.1L1099.3 588.4L1100.7 613.7L1102 543.9L1103.3 655.4L1104.7 595.5L1106 632.6L1107.3 530.1L1108.7 652.5L1110 590.7L1111.3 625.7L1112.7 553L1114 666.1L1115.3 582.7L1116.7 658.4L1118 554.3L1119.3 664.7L1120.7 609.7L1122 648.1L1123.3 559.8L1124.7 675L1126 612.3L1127.3 687.2L1128.7 510.7L1130 653.4L1131.3 611L1132.7 679.6L1134 580.4L1135.3 696.9L1136.7 557.2L1138 602.7L1139.3 519.9L1140.7 622.7L1142 529.3L1143.3 619.1L1144.7 466.9L1146 633.2L1147.3 542.5L1148.7 603.8L1150 534.7L1151.3 575.6L1152.7 583.9L1154 611.8L1155.3 528.6L1156.7 650.9L1158 568.3L1159.3 602.4L1160.7 567.6L1162 634.9L1163.3 599.1L1164.7 624.4L1166 519.9L1167.3 657.2L1168.7 594.1L1170 603.9L1171.3 507.9L1172.7 652.7L1174 594.4L1175.3 596.4L1176.7 550.6L1178 666.6L1179.3 550.9L1180.7 613.7L1182 465.6L1183.3 636.2L1184.7 557.5L1186 623.6L1187.3 450.6L1188.7 664.9L1190 514.5L1191.3 673.9L1192.7 577.4L1194 684.5L1195.3 584.2L1196.7 698.8L1198 545.5L1199.3 694.5L1200.7 620.7L1202 672.7L1203.3 559.3L1204.7 695.1L1206 600.5L1207.3 634.1L1208.7 580.9L1210 688.3L1211.3 617.9L1212.7 671.6L1214 556.1L1215.3 683.7L1216.7 572.9L1218 611.3L1219.3 494.2L1220.7 613.7L1222 351.6L1223.3 451L1224.7 291.7L1226 480.8L1227.3 305.8L1228.7 482.1L1230 215.9L1231.3 486.3L1232.7 215.5L1234 501.6L1235.3 222.9L1236.7 482.9L1238 248.3L1239.3 486.5L1240.7 212.9L1242 481.7L1243.3 296.9L1244.7 495L1246 297.5L1247.3 490.2L1248.7 258.2L1250 509.9L1251.3 277.3L1252.7 484.1L1254 276.6L1255.3 510.3L1256.7 265.8L1258 481.1L1259.3 196.8L1260.7 490.5L1262 315.6L1263.3 549.8L1264.7 244.3L1266 544.6L1267.3 268.4L1268.7 524.2L1270 240.3L1271.3 540L1272.7 311.5L1274 519.4L1275.3 340.7L1276.7 548.4L1278 251.9L1279.3 539.2L1280.7 310.6L1282 537.2L1283.3 315.7L1284.7 553L1286 331.7L1287.3 523.3L1288.7 303.5L1290 533.8L1291.3 273.5L1292.7 532.8L1294 284.5L1295.3 523.5L1296.7 270.4L1298 451.9L1299.3 280.4L1300.7 449.4L1302 489.2L1303.3 608.4L1304.7 544.2L1306 609.1L1307.3 551.2L1308.7 644.2L1310 543.3L1311.3 604.9L1312.7 567.5L1314 621.3L1315.3 520.3L1316.7 650.4L1318 474.9L1319.3 670.8L1320.7 500.5L1322 635.3L1323.3 484L1324.7 573.2L1326 502.1L1327.3 573.1L1328.7 484.7L1330 551.6L1331.3 531.7L1332.7 663L1334 536.3L1335.3 631.5L1336.7 555.6L1338 645.8L1339.3 574.9L1340.7 660.4L1342 581.6L1343.3 668.7L1344.7 572.2L1346 676.2L1347.3 592L1348.7 649.6L1350 539.9L1351.3 653.4L1352.7 566.9L1354 679.4L1355.3 612.6L1356.7 648.7L1358 568.8L1359.3 670L1360.7 611.2L1362 664.8L1363.3 541.1L1364.7 665.3L1366 601.8L1367.3 684.5L1368.7 490.8L1370 670.4L1371.3 610.9L1372.7 672.5L1374 568.2L1375.3 694.1L1376.7 548.3L1378 555.7L1379.3 488L1380.7 622.2L1382 544.8L1383.3 580.2L1384.7 535.4L1386 614.7L1387.3 566.1L1388.7 543.8L1390 508.9L1391.3 638.1L1392.7 528L1394 602.8L1395.3 523.2L1396.7 619.2L1398 501.7L1399.3 619.6L1400.7 536.2L1402 670.5L1403.3 528.2L1404.7 623L1406 533L1407.3 644.9L1408.7 537.4L1410 663.9L1411.3 583.8L1412.7 673.4L1414 498.8L1415.3 585.6L1416.7 552.1L1418 661.2L1419.3 555.3L1420.7 675.4L1422 597.5L1423.3 689.9L1424.7 546.8L1426 667.5L1427.3 553.7L1428.7 676.5L1430 577L1431.3 680.1L1432.7 594.6L1434 705.6L1435.3 600.9L1436.7 683.4L1438 567.2L1439.3 681.4L1440.7 567L1442 648.6L1443.3 597.3L1444.7 701.2L1446 617.4L1447.3 667.4L1448.7 591.1L1450 702.9L1451.3 623L1452.7 698.5L1454 544.3L1455.3 690.5L1456.7 557.2L1458 550.7L1459.3 465.4L1460.7 599.2L1462 567.2L1463.3 614.3L1464.7 517.8L1466 644.1L1467.3 535.7L1468.7 598.7L1470 551.3L1471.3 656.1L1472.7 596.4L1474 633.4L1475.3 544.6L1476.7 654.7L1478 584.8L1479.3 620.3L1480.7 547.1L1482 672L1483.3 604.4L1484.7 611.5L1486 540.2L1487.3 656.4L1488.7 616.7L1490 667.7L1491.3 568.4L1492.7 669.2L1494 568L1495.3 636.6L1496.7 532.7L1498 658.1L1499.3 586.3L1500.7 673.5L1502 564.1L1503.3 692.6L1504.7 608.2L1506 667.4L1507.3 533.5L1508.7 666.6L1510 602.4L1511.3 703.9L1512.7 575.6L1514 677.9L1515.3 570.7L1516.7 673L1518 568.8L1519.3 668.1L1520.7 607.5L1522 668L1523.3 610.3L1524.7 659.1L1526 569.2L1527.3 674.9L1528.7 563.1L1530 668L1531.3 508.4L1532.7 660L1534 515.3L1535.3 644.2L1536.7 524.1L1538 575.7L1539.3 510L1540.7 552.6L1542 223.5L1543.3 473.9L1544.7 304.5L1546 508.4L1547.3 230.7L1548.7 504.4L1550 271.4L1551.3 500.2L1552.7 265.7L1554 472.1L1555.3 257.4L1556.7 426.3L1558 317.8L1559.3 478.1L1560.7 289.8L1562 463.1L1563.3 282.7L1564.7 527.6L1566 259.9L1567.3 527.3L1568.7 265.1L1570 528.5L1571.3 315.7L1572.7 471.1L1574 211.4L1575.3 448.7L1576.7 239L1578 508.9L1579.3 300.1L1580.7 535.4L1582 217.3L1583.3 531.5L1584.7 289.2L1586 534.2L1587.3 307.7L1588.7 479.9L1590 316.6L1591.3 510L1592.7 311.5L1594 564.7L1595.3 329.7L1596.7 568.1L1598 316L1599.3 537.6L1600.7 352.4L1602 517.6L1603.3 296.2L1604.7 560.2L1606 279.5L1607.3 534.4L1608.7 259.7L1610 534.6L1611.3 302.9L1612.7 542.3L1614 316.4L1615.3 560.3L1616.7 240.3L1618 475.2L1619.3 231.3L1620.7 486.7L1622 464.7L1623.3 520.1L1624.7 527L1626 646.6L1627.3 478L1628.7 596.4L1630 447.4L1631.3 586.7L1632.7 530.2L1634 641.7L1635.3 561.9L1636.7 597.5L1638 529.4L1639.3 652.1L1640.7 548L1642 615.1L1643.3 585.4L1644.7 660.2L1646 575.2L1647.3 612L1648.7 578.4L1650 664.4L1651.3 561.8L1652.7 635.3L1654 537.7L1655.3 673.4L1656.7 531.5L1658 626.8L1659.3 589.7L1660.7 668.5L1662 556.6L1663.3 653.9L1664.7 586.9L1666 652.1L1667.3 550.4L1668.7 663.7L1670 551.8L1671.3 668.9L1672.7 592.8L1674 650.8L1675.3 576.2L1676.7 692.1L1678 546.4L1679.3 701.7L1680.7 550.3L1682 679.3L1683.3 594.2L1684.7 690.5L1686 561.2L1687.3 693L1688.7 600.5L1690 684.7L1691.3 596.3L1692.7 647.9L1694 577L1695.3 681.3L1696.7 537.9L1698 575.4L1699.3 528.5L1700.7 607.7L1702 521.3L1703.3 605.8L1704.7 538.7L1706 641.5L1707.3 532.7L1708.7 630.2L1710 552.9L1711.3 646.8L1712.7 521.4L1714 605.8L1715.3 551.8L1716.7 624.3L1718 516.2L1719.3 611.9L1720.7 542.1L1722 595.3L1723.3 539.4L1724.7 633.8L1726 569.5L1727.3 616.7L1728.7 563.4L1730 640.1L1731.3 458.9L1732.7 638.5L1734 568.1L1735.3 650.4L1736.7 556.3L1738 632.4L1739.3 573.9L1740.7 672.5L1742 581.7L1743.3 623.1L1744.7 579.8L1746 671.9L1747.3 566.8L1748.7 630.4L1750 574.8L1751.3 688.5L1752.7 547L1754 604.6L1755.3 595L1756.7 672.4L1758 584.9L1759.3 621.3L1760.7 561.7L1762 688.2L1763.3 581.1L1764.7 670.7L1766 556.8L1767.3 691.7L1768.7 557.3L1770 669.4L1771.3 560L1772.7 658.8L1774 478.8L1775.3 677.5L1776.7 543.7L1778 496.3L1779.3 515.2L1780.7 518.5L1782 534L1783.3 642.5L1784.7 529L1786 615.4L1787.3 573.5L1788.7 625.8L1790 545L1791.3 623.1L1792.7 580.5L1794 653.1L1795.3 506.8L1796.7 636.9L1798 540.3L1799.3 664.1" fill="transparent" stroke="#3fb1e3" stroke-width="3" stroke-linejoin="bevel" class="zr40-cls-122"></path>
</g>
<g clip-path="url(#zr40-c1)">
<path d="M200.7 205.5L202 545.4L203.3 558.7L204.7 626.1L206 590.5L207.3 678.4L208.7 611.2L210 667.8L211.3 558.5L212.7 672L214 611.6L215.3 651.3L216.7 545.8L218 658.9L219.3 597.3L220.7 687L222 579.1L223.3 697.3L224.7 616.7L226 684.7L227.3 550.3L228.7 671.6L230 619.3L231.3 708.4L232.7 603.8L234 688.5L235.3 615.8L236.7 680.2L238 562.4L239.3 695.6L240.7 591.6L242 690.5L243.3 592L244.7 700.9L246 579.4L247.3 695.7L248.7 618.5L250 705.1L251.3 629.4L252.7 660.2L254 601.9L255.3 691.3L256.7 560.4L258 623.8L259.3 529.2L260.7 637.5L262 365.3L263.3 521.6L264.7 305.9L266 469.3L267.3 319.5L268.7 538.5L270 257.2L271.3 521.3L272.7 336.5L274 514.8L275.3 284.7L276.7 503.9L278 335.8L279.3 535.5L280.7 310.7L282 541L283.3 337L284.7 568.1L286 332.6L287.3 551.2L288.7 336L290 527.7L291.3 344.1L292.7 603L294 378.1L295.3 600.4L296.7 366.4L298 553.8L299.3 373.2L300.7 559.4L302 333.8L303.3 535.3L304.7 301.9L306 535.6L307.3 342.8L308.7 554.1L310 344.9L311.3 572L312.7 340.6L314 593.7L315.3 351L316.7 535.9L318 343.1L319.3 601.9L320.7 386L322 618.6L323.3 383.5L324.7 598.2L326 339.6L327.3 576L328.7 376.1L330 603.6L331.3 403.3L332.7 618.6L334 378.3L335.3 565.8L336.7 352.2L338 548.4L339.3 365.3L340.7 538.4L342 556.2L343.3 641.6L344.7 523.3L346 666.6L347.3 588.2L348.7 632.9L350 568.6L351.3 667.2L352.7 604L354 665.9L355.3 569.9L356.7 679.9L358 589L359.3 646.2L360.7 557.2L362 671.9L363.3 606.7L364.7 686.1L366 534.9L367.3 674.3L368.7 578.7L370 671.1L371.3 550.4L372.7 643.3L374 601.3L375.3 674.5L376.7 596.5L378 640.6L379.3 603.3L380.7 688.4L382 554.3L383.3 682.9L384.7 603.4L386 682.3L387.3 574.1L388.7 704.2L390 558L391.3 689.9L392.7 596.9L394 691.2L395.3 604.3L396.7 675.4L398 590.7L399.3 684.7L400.7 619.3L402 690.9L403.3 608.3L404.7 720.1L406 626.3L407.3 695L408.7 570.4L410 709.1L411.3 638.2L412.7 703.2L414 587.4L415.3 697.5L416.7 572.1L418 631.1L419.3 569.3L420.7 631.3L422 572.2L423.3 654.6L424.7 552.4L426 633.3L427.3 600.1L428.7 660.7L430 568.6L431.3 642.1L432.7 601.9L434 653.8L435.3 567.2L436.7 642.5L438 582.8L439.3 670.6L440.7 575.9L442 644.4L443.3 581.4L444.7 662.7L446 591.2L447.3 671.7L448.7 560.8L450 658.6L451.3 576.7L452.7 642.5L454 584.7L455.3 687.2L456.7 594.7L458 678.4L459.3 599.2L460.7 695.7L462 587.8L463.3 696.5L464.7 619.5L466 643.7L467.3 555.8L468.7 689.6L470 597.6L471.3 667L472.7 590.8L474 688.3L475.3 626.6L476.7 682.7L478 593.6L479.3 684.1L480.7 579.3L482 699L483.3 603.3L484.7 692.3L486 615.5L487.3 720.7L488.7 552.8L490 684.8L491.3 619.1L492.7 700.3L494 609.7L495.3 668.7L496.7 575.5L498 650.9L499.3 527.9L500.7 645.1L502 566.5L503.3 644.2L504.7 582.1L506 645.8L507.3 587.7L508.7 647L510 549L511.3 641.4L512.7 549.7L514 646.5L515.3 588.1L516.7 680.6L518 559.8L519.3 639.5L520.7 589.2L522 653.7L523.3 574.1L524.7 678.3L526 584.7L527.3 681.1L528.7 576L530 677.5L531.3 596.7L532.7 683.5L534 620.9L535.3 676.8L536.7 600.8L538 697.2L539.3 626.8L540.7 680.3L542 587.1L543.3 676.7L544.7 578.5L546 670.8L547.3 600.1L548.7 688.5L550 583.4L551.3 695.5L552.7 590.6L554 695.5L555.3 599.6L556.7 709.7L558 607.2L559.3 695.7L560.7 583L562 705.1L563.3 609.3L564.7 706L566 615.7L567.3 695.8L568.7 598.9L570 718.6L571.3 634.2L572.7 705.3L574 615.5L575.3 693.8L576.7 571.1L578 632.4L579.3 516.1L580.7 650.4L582 383.5L583.3 515.3L584.7 339.4L586 471.8L587.3 327.7L588.7 508.2L590 301.4L591.3 518.4L592.7 288.3L594 518.9L595.3 287.8L596.7 513.6L598 298.5L599.3 519.4L600.7 311.2L602 518.9L603.3 333.4L604.7 528L606 341.1L607.3 556.2L608.7 378.7L610 533.8L611.3 337.4L612.7 570.7L614 330.5L615.3 560.2L616.7 351.9L618 500.1L619.3 371.8L620.7 572.5L622 338.5L623.3 584.3L624.7 360.3L626 550.8L627.3 360.6L628.7 564.1L630 378L631.3 624.7L632.7 342.7L634 597.3L635.3 388L636.7 608.9L638 363L639.3 558L640.7 355.3L642 583.8L643.3 353.3L644.7 579.2L646 371.6L647.3 633.7L648.7 377.9L650 643.5L651.3 433L652.7 570.7L654 379.5L655.3 629.1L656.7 359L658 535.7L659.3 366.6L660.7 503L662 547L663.3 623.8L664.7 555.1L666 661.5L667.3 569.8L668.7 680.3L670 538.1L671.3 654L672.7 572.5L674 668.2L675.3 591.9L676.7 641.9L678 571.7L679.3 671.5L680.7 571.8L682 632.8L683.3 606L684.7 685L686 591.1L687.3 661.6L688.7 603.9L690 670.1L691.3 607L692.7 658.4L694 555.8L695.3 685.1L696.7 606.5L698 678.5L699.3 563.4L700.7 691.2L702 582.5L703.3 703.4L704.7 599.4L706 664.6L707.3 583.4L708.7 704.7L710 609.8L711.3 665.8L712.7 582.9L714 682.4L715.3 621.8L716.7 696.5L718 595.1L719.3 712.2L720.7 624.7L722 720.8L723.3 601.1L724.7 690.6L726 573.4L727.3 693.2L728.7 573.7L730 646.9L731.3 634.9L732.7 696.7L734 606.4L735.3 698.6L736.7 541.4L738 652.5L739.3 554.7L740.7 646.6L742 564.8L743.3 666.9L744.7 575.7L746 660L747.3 554.5L748.7 670.9L750 591.3L751.3 667.7L752.7 568.5L754 657.1L755.3 583.7L756.7 679.3L758 564.3L759.3 676.6L760.7 589.3L762 678.7L763.3 580.4L764.7 660.6L766 601.7L767.3 675.5L768.7 559.2L770 627.3L771.3 593.7L772.7 690.3L774 611.7L775.3 655.9L776.7 591.8L778 692.2L779.3 606.7L780.7 675.3L782 562L783.3 671.8L784.7 590.3L786 701.4L787.3 585.7L788.7 689.2L790 579.2L791.3 688.3L792.7 598.6L794 698L795.3 618.6L796.7 703.6L798 598.6L799.3 694.3L800.7 607L802 680.5L803.3 604.3L804.7 715.9L806 614.3L807.3 685.9L808.7 602.3L810 707.3L811.3 617.7L812.7 694.4L814 579.3L815.3 695.8L816.7 574L818 597.2L819.3 565.1L820.7 654.5L822 594.6L823.3 667L824.7 561.1L826 652.1L827.3 595.1L828.7 651.7L830 538.2L831.3 663.6L832.7 596.7L834 647.3L835.3 578.4L836.7 658.3L838 602.6L839.3 679.3L840.7 529.7L842 645.1L843.3 596L844.7 670.9L846 598.7L847.3 681L848.7 604.9L850 671.4L851.3 581L852.7 644.5L854 600.5L855.3 693.5L856.7 594.8L858 669.6L859.3 550.8L860.7 694L862 570.1L863.3 638.3L864.7 595.9L866 682.5L867.3 605.1L868.7 703.5L870 569L871.3 700.5L872.7 569.9L874 698.5L875.3 610L876.7 688.4L878 598.4L879.3 693.7L880.7 615.3L882 677.1L883.3 588.6L884.7 699.9L886 584.9L887.3 679.5L888.7 613L890 696.7L891.3 601.1L892.7 690.5L894 610.4L895.3 717.8L896.7 585.9L898 659.1L899.3 556.7L900.7 617.8L902 372.6L903.3 523.2L904.7 355.9L906 549.5L907.3 366.4L908.7 552.3L910 345.2L911.3 520.5L912.7 354.8L914 568.3L915.3 336.4L916.7 519.5L918 318.1L919.3 528.8L920.7 317.9L922 535.5L923.3 347L924.7 544.4L926 286.6L927.3 543.6L928.7 325.9L930 539L931.3 332.2L932.7 557.6L934 375.4L935.3 588.6L936.7 315.4L938 516.7L939.3 363.3L940.7 558.2L942 366.4L943.3 575.7L944.7 370.8L946 560.5L947.3 339.6L948.7 547.7L950 339.8L951.3 578.2L952.7 360.3L954 514.2L955.3 339.9L956.7 578.3L958 320.1L959.3 603.9L960.7 361.6L962 557.2L963.3 338L964.7 583.4L966 326L967.3 572.6L968.7 361.5L970 583.9L971.3 376.7L972.7 572L974 363.5L975.3 568.6L976.7 333.2L978 508.4L979.3 350.4L980.7 506.5L982 537.8L983.3 645.8L984.7 550.5L986 638.9L987.3 564L988.7 660.6L990 570.3L991.3 653.3L992.7 587.7L994 656L995.3 565.1L996.7 649.7L998 586L999.3 663.1L1000.7 602.7L1002 647.2L1003.3 602.7L1004.7 665.9L1006 584.2L1007.3 657.2L1008.7 570.5L1010 681.5L1011.3 553.7L1012.7 631.6L1014 593.3L1015.3 670.8L1016.7 595L1018 700L1019.3 603L1020.7 700.7L1022 578.6L1023.3 692.7L1024.7 613.9L1026 679L1027.3 557.5L1028.7 685.2L1030 601.8L1031.3 657.9L1032.7 587.7L1034 696.2L1035.3 629.5L1036.7 690.2L1038 573.9L1039.3 688.4L1040.7 601.3L1042 687.5L1043.3 593.5L1044.7 705.3L1046 615.7L1047.3 714L1048.7 549.8L1050 678.3L1051.3 609.4L1052.7 700.8L1054 578.9L1055.3 689L1056.7 562.4L1058 644.1L1059.3 531.5L1060.7 650.4L1062 548.6L1063.3 650.6L1064.7 563.4L1066 621.7L1067.3 559.7L1068.7 649.4L1070 597.1L1071.3 636.6L1072.7 569.8L1074 664.1L1075.3 572.2L1076.7 634.3L1078 572.5L1079.3 667.4L1080.7 585L1082 659.2L1083.3 582.6L1084.7 652.6L1086 595.9L1087.3 681.1L1088.7 592.1L1090 684.1L1091.3 579.5L1092.7 690.7L1094 593.9L1095.3 672.6L1096.7 606.9L1098 693L1099.3 600.2L1100.7 674L1102 593.7L1103.3 703L1104.7 606.3L1106 689.1L1107.3 543.3L1108.7 681.5L1110 592.3L1111.3 706.1L1112.7 571L1114 704L1115.3 596.6L1116.7 710.6L1118 592.2L1119.3 697.3L1120.7 603.3L1122 702.5L1123.3 600.7L1124.7 687.5L1126 593.4L1127.3 698.8L1128.7 601.6L1130 690.8L1131.3 625.6L1132.7 709.6L1134 612.4L1135.3 717.3L1136.7 574.9L1138 605.2L1139.3 563.4L1140.7 655.8L1142 582.6L1143.3 613.1L1144.7 575.2L1146 653.4L1147.3 603.4L1148.7 647.1L1150 593.4L1151.3 660.3L1152.7 593L1154 669.5L1155.3 545.9L1156.7 662.7L1158 600.8L1159.3 644.1L1160.7 564.5L1162 652.7L1163.3 576.4L1164.7 662.9L1166 570.1L1167.3 670.6L1168.7 610.3L1170 687.9L1171.3 584.9L1172.7 683.4L1174 592.8L1175.3 681.4L1176.7 573.3L1178 667.3L1179.3 613.9L1180.7 667.2L1182 566.6L1183.3 658.4L1184.7 604.9L1186 688.2L1187.3 593.5L1188.7 668L1190 588L1191.3 672.4L1192.7 598.5L1194 664.6L1195.3 593.2L1196.7 702.5L1198 600.6L1199.3 668.5L1200.7 618.4L1202 679.7L1203.3 587.6L1204.7 697.6L1206 630.7L1207.3 670.9L1208.7 609.5L1210 699.3L1211.3 642.2L1212.7 717.8L1214 560.5L1215.3 714.4L1216.7 579.4L1218 629.1L1219.3 556.9L1220.7 655.7L1222 390L1223.3 543.3L1224.7 339.8L1226 547.6L1227.3 342.8L1228.7 547L1230 344.7L1231.3 501L1232.7 339.5L1234 531.6L1235.3 320.8L1236.7 500.4L1238 340.4L1239.3 554.6L1240.7 333.3L1242 533.9L1243.3 341.5L1244.7 527L1246 314.5L1247.3 562L1248.7 361.8L1250 548.5L1251.3 310.4L1252.7 533.2L1254 351L1255.3 560L1256.7 348L1258 575.8L1259.3 368.7L1260.7 580.5L1262 330.9L1263.3 553.2L1264.7 386.5L1266 586.7L1267.3 349L1268.7 562.4L1270 341L1271.3 572.5L1272.7 374.6L1274 607.8L1275.3 354.1L1276.7 577.9L1278 342.6L1279.3 592.5L1280.7 380.5L1282 572.9L1283.3 350L1284.7 564.7L1286 334L1287.3 578.2L1288.7 361L1290 546.3L1291.3 393.1L1292.7 599L1294 373.5L1295.3 588.3L1296.7 310.7L1298 497.5L1299.3 317.8L1300.7 521.4L1302 540.2L1303.3 620L1304.7 486.9L1306 616.8L1307.3 592.5L1308.7 654.3L1310 558.7L1311.3 618.7L1312.7 611.1L1314 664.9L1315.3 569L1316.7 632.4L1318 579.3L1319.3 655.3L1320.7 545.6L1322 661.5L1323.3 600.8L1324.7 668.6L1326 570.1L1327.3 629.8L1328.7 575.7L1330 664.5L1331.3 610.5L1332.7 665.6L1334 567.1L1335.3 687.3L1336.7 592.9L1338 685.2L1339.3 597.3L1340.7 676.2L1342 586.3L1343.3 688.7L1344.7 614L1346 686.8L1347.3 608.1L1348.7 679.3L1350 599L1351.3 688L1352.7 587.9L1354 710.3L1355.3 621.1L1356.7 717L1358 594.3L1359.3 689L1360.7 615.3L1362 706.2L1363.3 572.8L1364.7 688.3L1366 615.8L1367.3 706.5L1368.7 598L1370 664.4L1371.3 599.6L1372.7 697L1374 614.7L1375.3 712.6L1376.7 524.1L1378 636.9L1379.3 548.3L1380.7 626.6L1382 569.4L1383.3 648.8L1384.7 551.6L1386 627.3L1387.3 553.9L1388.7 643.5L1390 574.9L1391.3 636.2L1392.7 578L1394 653.7L1395.3 569L1396.7 653.6L1398 576L1399.3 684L1400.7 574.7L1402 647.9L1403.3 548L1404.7 675.9L1406 603.4L1407.3 678.1L1408.7 593.3L1410 688.2L1411.3 586.8L1412.7 685.7L1414 602.9L1415.3 666.8L1416.7 589.4L1418 672.9L1419.3 624L1420.7 679.9L1422 568.6L1423.3 674.7L1424.7 614.3L1426 688.7L1427.3 546.1L1428.7 692.9L1430 612.5L1431.3 690.5L1432.7 546.9L1434 686.4L1435.3 606.4L1436.7 716.5L1438 601.1L1439.3 692L1440.7 616.2L1442 681.5L1443.3 619.8L1444.7 682.7L1446 613.3L1447.3 700.6L1448.7 615.6L1450 699.1L1451.3 620.8L1452.7 699.9L1454 619.5L1455.3 699.5L1456.7 557.1L1458 623.8L1459.3 570.6L1460.7 646.4L1462 569.3L1463.3 628.6L1464.7 529.7L1466 664.4L1467.3 538.2L1468.7 656.5L1470 556.7L1471.3 653.5L1472.7 597.7L1474 645L1475.3 554.6L1476.7 660.4L1478 589.2L1479.3 644.4L1480.7 576.6L1482 673.2L1483.3 607.9L1484.7 672.2L1486 542.4L1487.3 680.2L1488.7 615.7L1490 651.2L1491.3 584.2L1492.7 674.1L1494 612.3L1495.3 702.8L1496.7 600.5L1498 652.1L1499.3 621.6L1500.7 684.6L1502 568.4L1503.3 661.8L1504.7 585.2L1506 685L1507.3 594.2L1508.7 684.4L1510 569L1511.3 689.1L1512.7 588.8L1514 657.1L1515.3 596.6L1516.7 681.4L1518 581.2L1519.3 709.1L1520.7 602.4L1522 709.3L1523.3 610.8L1524.7 701.3L1526 586.7L1527.3 681.1L1528.7 594.6L1530 701.1L1531.3 605.1L1532.7 679.4L1534 606.5L1535.3 703L1536.7 578.9L1538 637.9L1539.3 552.2L1540.7 651.7L1542 386.6L1543.3 534.3L1544.7 356.4L1546 535L1547.3 330.6L1548.7 550.9L1550 340L1551.3 516.2L1552.7 296.5L1554 472.3L1555.3 299L1556.7 530.6L1558 296L1559.3 567.7L1560.7 349.6L1562 566.8L1563.3 383.2L1564.7 530.7L1566 320.1L1567.3 560.2L1568.7 358.2L1570 576.7L1571.3 328.3L1572.7 547.6L1574 357.4L1575.3 563.4L1576.7 368.6L1578 604.7L1579.3 339.3L1580.7 571.6L1582 321L1583.3 554.6L1584.7 364.4L1586 558.2L1587.3 330.8L1588.7 584.2L1590 354.4L1591.3 569.5L1592.7 380.7L1594 576.5L1595.3 388.9L1596.7 594.7L1598 352.8L1599.3 566.6L1600.7 392L1602 583.3L1603.3 346.2L1604.7 612.7L1606 397L1607.3 613.6L1608.7 350.6L1610 567.2L1611.3 379.9L1612.7 597.6L1614 345.1L1615.3 557.4L1616.7 328L1618 514.1L1619.3 341.2L1620.7 473.7L1622 515L1623.3 635.4L1624.7 513.9L1626 617.4L1627.3 563.5L1628.7 628.3L1630 538.5L1631.3 629.1L1632.7 599.1L1634 676.7L1635.3 569.6L1636.7 645.1L1638 567.7L1639.3 678.2L1640.7 554.6L1642 644.2L1643.3 604L1644.7 679.2L1646 591.3L1647.3 633.1L1648.7 580.9L1650 659.8L1651.3 588.9L1652.7 662.8L1654 585.1L1655.3 687L1656.7 592.6L1658 667.3L1659.3 602.4L1660.7 697.2L1662 595.4L1663.3 673.2L1664.7 573.7L1666 669.7L1667.3 597.1L1668.7 696.8L1670 601.3L1671.3 691.8L1672.7 588.6L1674 683.2L1675.3 610.7L1676.7 665.7L1678 561.3L1679.3 705.2L1680.7 581.2L1682 685.5L1683.3 595L1684.7 684.2L1686 628.9L1687.3 707.5L1688.7 599.5L1690 711.5L1691.3 611.3L1692.7 715.4L1694 604.5L1695.3 656.5L1696.7 554.3L1698 641L1699.3 567.4L1700.7 628.6L1702 580.5L1703.3 637.7L1704.7 561.1L1706 624.3L1707.3 574.7L1708.7 640L1710 585.6L1711.3 645.1L1712.7 577.3L1714 661.9L1715.3 572.2L1716.7 654.2L1718 583.4L1719.3 658.4L1720.7 557.8L1722 660.8L1723.3 577.2L1724.7 670.5L1726 593.2L1727.3 680.2L1728.7 600.6L1730 687.6L1731.3 604.3L1732.7 691.1L1734 591.8L1735.3 671.3L1736.7 584.9L1738 677.5L1739.3 608.1L1740.7 680.8L1742 601.7L1743.3 691.5L1744.7 598.3L1746 676L1747.3 597.6L1748.7 699.2L1750 592.5L1751.3 696.2L1752.7 589.3L1754 693.9L1755.3 604.1L1756.7 712.5L1758 612.3L1759.3 639.2L1760.7 572.8L1762 687L1763.3 605.3L1764.7 712.3L1766 606.1L1767.3 713.7L1768.7 617.2L1770 705.9L1771.3 570.2L1772.7 697.2L1774 608.3L1775.3 713.4L1776.7 547.9L1778 595.8L1779.3 575.6L1780.7 638.9L1782 546.7L1783.3 628.7L1784.7 567.2L1786 649.2L1787.3 583.1L1788.7 623.5L1790 573.8L1791.3 651L1792.7 585.3L1794 638L1795.3 584L1796.7 654.1L1798 611.9L1799.3 669.8" fill="transparent" stroke="#6be6c1" stroke-width="3" stroke-linejoin="bevel" class="zr40-cls-122"></path>
</g>
<g clip-path="url(#zr40-c2)">
<path d="M200.7 223L202 538.6L203.3 540.8L204.7 593.2L206 502.8L207.3 649.7L208.7 595.4L210 579.4L211.3 541.9L212.7 640.8L214 547.1L215.3 587.8L216.7 471.7L218 664.2L219.3 594.2L220.7 663.3L222 578.1L223.3 667.4L224.7 576.1L226 645.9L227.3 529.4L228.7 667.7L230 609.3L231.3 636.6L232.7 571.1L234 675.1L235.3 606.6L236.7 622.7L238 546.9L239.3 640.8L240.7 592.3L242 636.5L243.3 532.7L244.7 679.6L246 558.9L247.3 618.7L248.7 565.5L250 672.4L251.3 574.4L252.7 641L254 549.6L255.3 669.8L256.7 521L258 582.5L259.3 515.1L260.7 627L262 295.1L263.3 502L264.7 280.2L266 410.7L267.3 314.2L268.7 469.8L270 280.9L271.3 501.4L272.7 240.3L274 498.2L275.3 274.3L276.7 420.1L278 221L279.3 475.2L280.7 207.1L282 504.2L283.3 313.5L284.7 435.8L286 288.1L287.3 456.2L288.7 289.2L290 520.8L291.3 162.8L292.7 512.9L294 209.2L295.3 497.1L296.7 266.5L298 501.9L299.3 239.5L300.7 512L302 319.3L303.3 462.3L304.7 314.9L306 497L307.3 290.1L308.7 527.4L310 280L311.3 540.4L312.7 285.6L314 546.7L315.3 303.4L316.7 476.3L318 322.8L319.3 550.8L320.7 273.2L322 544.5L323.3 239.3L324.7 504.9L326 289.2L327.3 511L328.7 314.3L330 513.5L331.3 319.9L332.7 578.4L334 296.8L335.3 565.3L336.7 275.6L338 481.6L339.3 276.2L340.7 398.4L342 511.2L343.3 584.2L344.7 523.1L346 655.8L347.3 598.3L348.7 635.9L350 545.5L351.3 645.9L352.7 588.2L354 634.8L355.3 539.8L356.7 651.4L358 583.4L359.3 612.6L360.7 566.4L362 674.7L363.3 569.6L364.7 631.8L366 505.2L367.3 656.5L368.7 578.5L370 633.7L371.3 568.5L372.7 678.9L374 551.7L375.3 670.4L376.7 536.7L378 675.2L379.3 562L380.7 671.9L382 549.2L383.3 687.3L384.7 599.5L386 671L387.3 549.9L388.7 697.9L390 564.7L391.3 675L392.7 583.5L394 657.8L395.3 604.3L396.7 677.3L398 548.6L399.3 685.1L400.7 603.1L402 701.7L403.3 599.9L404.7 667.9L406 593.4L407.3 691.9L408.7 551.4L410 679.9L411.3 584.9L412.7 702.2L414 603.5L415.3 685L416.7 536.3L418 636.9L419.3 579.3L420.7 655.7L422 562L423.3 659.1L424.7 579.5L426 656.4L427.3 505.5L428.7 656.2L430 578.2L431.3 661.9L432.7 556L434 649.4L435.3 571.8L436.7 679.3L438 573.9L439.3 654.6L440.7 582.5L442 667.3L443.3 585.8L444.7 651.6L446 574.8L447.3 656.2L448.7 610.3L450 643.3L451.3 509.7L452.7 651L454 545.7L455.3 635.1L456.7 534.4L458 653.9L459.3 590L460.7 655.9L462 519L463.3 657.3L464.7 563.8L466 628.9L467.3 468.9L468.7 693.1L470 530.8L471.3 646.6L472.7 559.4L474 658.4L475.3 508.4L476.7 615.6L478 562.7L479.3 652.1L480.7 583.3L482 674.8L483.3 574.1L484.7 687L486 579.6L487.3 674.5L488.7 581.4L490 682L491.3 609.2L492.7 657.5L494 577.8L495.3 672.3L496.7 558.2L498 611.9L499.3 525.3L500.7 627.4L502 549.9L503.3 588.5L504.7 550.8L506 638.7L507.3 516.3L508.7 565.1L510 569.5L511.3 660L512.7 575.5L514 621.5L515.3 576.3L516.7 668.5L518 575.8L519.3 622.4L520.7 537.8L522 640.1L523.3 560.8L524.7 622.9L526 549.4L527.3 630.1L528.7 571.5L530 634.8L531.3 520.4L532.7 640.9L534 526.9L535.3 627.3L536.7 564.7L538 659.7L539.3 535L540.7 634.1L542 550.6L543.3 654.7L544.7 578.8L546 633L547.3 587.3L548.7 677.4L550 554L551.3 644.3L552.7 564.9L554 672.1L555.3 580.5L556.7 679.6L558 576.4L559.3 702.8L560.7 589.8L562 649.5L563.3 584.2L564.7 668.3L566 567.9L567.3 663.8L568.7 455.3L570 675.1L571.3 591.6L572.7 671.6L574 574L575.3 705.1L576.7 566L578 598.9L579.3 498.4L580.7 615.2L582 333.1L583.3 482.3L584.7 327.3L586 494.9L587.3 298.4L588.7 455.9L590 214.7L591.3 507L592.7 232L594 490.2L595.3 210.8L596.7 476.8L598 261.5L599.3 498.1L600.7 146.4L602 472.7L603.3 314.4L604.7 461.7L606 271.3L607.3 480.5L608.7 257.7L610 531.5L611.3 263L612.7 533.2L614 175.1L615.3 561.3L616.7 291.2L618 519.5L619.3 314.9L620.7 444.5L622 305.8L623.3 475.6L624.7 310.2L626 528.9L627.3 212.8L628.7 553.4L630 271.3L631.3 539.3L632.7 225.4L634 553.2L635.3 313.1L636.7 576.4L638 244.8L639.3 528L640.7 268.8L642 553.5L643.3 309.2L644.7 532.2L646 330.4L647.3 543.9L648.7 301L650 548.9L651.3 349L652.7 578.1L654 313.9L655.3 556.9L656.7 179.6L658 353.2L659.3 245L660.7 433.6L662 468.7L663.3 569.5L664.7 507.9L666 626.9L667.3 520.6L668.7 618.2L670 521.9L671.3 632L672.7 566.2L674 628.7L675.3 509.2L676.7 628.2L678 569.5L679.3 622.4L680.7 548L682 661.4L683.3 573.5L684.7 638.8L686 521.9L687.3 644.7L688.7 541.8L690 604.1L691.3 534L692.7 663.7L694 578.3L695.3 613.4L696.7 572L698 617.2L699.3 510.2L700.7 616.5L702 552.6L703.3 645.4L704.7 537.1L706 645.1L707.3 561.6L708.7 657.5L710 559.8L711.3 655.4L712.7 549.9L714 646.7L715.3 594L716.7 593.3L718 517.9L719.3 616.5L720.7 553.2L722 659.1L723.3 585.2L724.7 673.2L726 577.3L727.3 678.5L728.7 598.1L730 682.9L731.3 590.4L732.7 607.2L734 573.7L735.3 681.8L736.7 573.9L738 588L739.3 539.7L740.7 621.1L742 550.7L743.3 619.5L744.7 549.6L746 631.1L747.3 554.9L748.7 594.3L750 548.7L751.3 636.5L752.7 534.4L754 623.1L755.3 515L756.7 637.7L758 513.7L759.3 597.7L760.7 564.3L762 644.2L763.3 536.8L764.7 625.4L766 522.8L767.3 637.7L768.7 523.1L770 608.6L771.3 570.9L772.7 657.9L774 536.3L775.3 636.5L776.7 563.4L778 619L779.3 573.2L780.7 662.6L782 579.9L783.3 681.7L784.7 555.3L786 653.7L787.3 579.8L788.7 685.6L790 500.7L791.3 665.4L792.7 579.6L794 695.5L795.3 554.3L796.7 676.5L798 563.6L799.3 689.5L800.7 569.6L802 674.8L803.3 573.5L804.7 665.8L806 542.6L807.3 673.6L808.7 591.9L810 693.2L811.3 581.8L812.7 676.4L814 585.3L815.3 694L816.7 535.4L818 571.1L819.3 532.6L820.7 621.8L822 504.6L823.3 609.1L824.7 552.8L826 627.6L827.3 511.3L828.7 611.7L830 521.5L831.3 629.1L832.7 533.8L834 640.4L835.3 555.6L836.7 645.2L838 498.3L839.3 586.4L840.7 478.5L842 610.6L843.3 554.9L844.7 654.6L846 544.3L847.3 644L848.7 581L850 660.6L851.3 576.9L852.7 636.9L854 573.4L855.3 638.1L856.7 543.4L858 637.7L859.3 553.3L860.7 658.4L862 566L863.3 657.6L864.7 572.5L866 672.4L867.3 559.9L868.7 661.4L870 505.7L871.3 652.6L872.7 585.4L874 651.6L875.3 584.3L876.7 680.4L878 583L879.3 696.9L880.7 573.9L882 671.6L883.3 583.8L884.7 658.1L886 573.2L887.3 684.4L888.7 556.2L890 684.3L891.3 564.1L892.7 683.4L894 594.3L895.3 687.7L896.7 544.1L898 565.5L899.3 520.3L900.7 571.7L902 183.1L903.3 498.4L904.7 290.4L906 464.4L907.3 194.1L908.7 477.3L910 269.6L911.3 468.3L912.7 184.5L914 470.5L915.3 285.1L916.7 451.5L918 247.5L919.3 456.5L920.7 186.6L922 431L923.3 187.7L924.7 474.4L926 260L927.3 507.2L928.7 252.3L930 486.1L931.3 299.5L932.7 410.2L934 314.4L935.3 509.3L936.7 299.1L938 527.9L939.3 253.1L940.7 509L942 225.4L943.3 535.9L944.7 277.7L946 515.7L947.3 276.4L948.7 516.6L950 277.9L951.3 434.1L952.7 251.9L954 501.2L955.3 269.4L956.7 438.7L958 221.1L959.3 521.1L960.7 314.6L962 541.4L963.3 261.8L964.7 484.2L966 350.2L967.3 590.5L968.7 303.2L970 606.8L971.3 361.3L972.7 511L974 279L975.3 530.4L976.7 320L978 429.1L979.3 258.6L980.7 546.3L982 429.8L983.3 592.1L984.7 524.7L986 574.9L987.3 532.3L988.7 628.6L990 529L991.3 554.3L992.7 556.7L994 629.1L995.3 515L996.7 631.1L998 576.8L999.3 666.1L1000.7 530L1002 652.2L1003.3 581.4L1004.7 653.2L1006 537.5L1007.3 642L1008.7 551.7L1010 666.8L1011.3 451.4L1012.7 637.7L1014 587.2L1015.3 688.7L1016.7 549.1L1018 650.9L1019.3 602.9L1020.7 694.9L1022 581.8L1023.3 655.3L1024.7 587.9L1026 667.6L1027.3 585.4L1028.7 664.6L1030 585.3L1031.3 684.7L1032.7 608L1034 655.8L1035.3 555.5L1036.7 699.6L1038 561.2L1039.3 689L1040.7 570.9L1042 685L1043.3 570.9L1044.7 686.8L1046 538.3L1047.3 708.3L1048.7 555.6L1050 678.7L1051.3 585.8L1052.7 682.4L1054 588.7L1055.3 687.8L1056.7 506.7L1058 601L1059.3 544.3L1060.7 621.1L1062 524.1L1063.3 633.2L1064.7 551L1066 640.5L1067.3 523L1068.7 640.4L1070 588.5L1071.3 644.7L1072.7 531.4L1074 666.9L1075.3 556.2L1076.7 649.8L1078 571.8L1079.3 647.3L1080.7 547.2L1082 663.4L1083.3 556.6L1084.7 670.2L1086 577.3L1087.3 647.8L1088.7 579.6L1090 658.7L1091.3 578.8L1092.7 676.1L1094 551.2L1095.3 663.7L1096.7 572.4L1098 659L1099.3 552.9L1100.7 620.7L1102 563.1L1103.3 647.3L1104.7 565.2L1106 655.5L1107.3 575.8L1108.7 634.2L1110 478.6L1111.3 631.7L1112.7 563.1L1114 638.8L1115.3 562.3L1116.7 673.1L1118 557.5L1119.3 698.1L1120.7 604.8L1122 663.6L1123.3 572.6L1124.7 678.5L1126 582.8L1127.3 625.4L1128.7 534.9L1130 703.2L1131.3 583.3L1132.7 627.9L1134 538.8L1135.3 674L1136.7 546.7L1138 562.7L1139.3 520.1L1140.7 602.1L1142 529.2L1143.3 576.3L1144.7 509.1L1146 640L1147.3 472.3L1148.7 619.1L1150 495.8L1151.3 639.2L1152.7 498.7L1154 638.3L1155.3 540.9L1156.7 603.2L1158 518.1L1159.3 625.9L1160.7 560.2L1162 612.5L1163.3 566L1164.7 662.9L1166 575.1L1167.3 608.2L1168.7 561.3L1170 662.4L1171.3 562.3L1172.7 641.7L1174 571.1L1175.3 645.7L1176.7 574L1178 649.1L1179.3 558.4L1180.7 645.4L1182 591L1183.3 641.7L1184.7 563.5L1186 645.9L1187.3 580.6L1188.7 647.7L1190 525.1L1191.3 675L1192.7 587.9L1194 665.5L1195.3 544L1196.7 673L1198 558.8L1199.3 663.7L1200.7 498.1L1202 636.8L1203.3 570.1L1204.7 700.3L1206 531L1207.3 664.6L1208.7 589L1210 695.6L1211.3 529L1212.7 679.6L1214 496.5L1215.3 691.9L1216.7 507.4L1218 578.8L1219.3 542.8L1220.7 582.7L1222 269.7L1223.3 531.2L1224.7 275.4L1226 501.2L1227.3 294.9L1228.7 479L1230 269L1231.3 468.4L1232.7 255.9L1234 446.2L1235.3 298.3L1236.7 481.4L1238 264.9L1239.3 474.3L1240.7 -426.7L1242 138.1L1243.3 6.7L1244.7 370.1L1246 -152.3L1247.3 320.9L1248.7 111.5L1250 397.5L1251.3 -58.7L1252.7 -36.8L1254 5.4L1255.3 361.7L1256.7 42.7L1258 396.8L1259.3 85.6L1260.7 330.6L1262 -125.2L1263.3 307.6L1264.7 -38.9L1266 334.8L1267.3 166.5L1268.7 354.6L1270 113.6L1271.3 -77.7L1272.7 -138.8L1274 329.5L1275.3 145.7L1276.7 445.9L1278 201.5L1279.3 458.7L1280.7 -77.8L1282 335.8L1283.3 18.1L1284.7 360.8L1286 156.1L1287.3 453.6L1288.7 13.3L1290 523.1L1291.3 324.7L1292.7 528.9L1294 154.8L1295.3 578.2L1296.7 274.7L1298 445.9L1299.3 233.6L1300.7 479.4L1302 406.6L1303.3 544.9L1304.7 484.1L1306 631.5L1307.3 570.7L1308.7 592.9L1310 550L1311.3 624.9L1312.7 499.6L1314 618.9L1315.3 438.4L1316.7 664.7L1318 493.7L1319.3 647.7L1320.7 561.2L1322 657.9L1323.3 479.5L1324.7 646.9L1326 551.2L1327.3 620.2L1328.7 505.9L1330 627.2L1331.3 550.9L1332.7 627.3L1334 558.8L1335.3 676L1336.7 591.6L1338 600.2L1339.3 553.2L1340.7 650.1L1342 588.9L1343.3 652L1344.7 569.9L1346 658.2L1347.3 592L1348.7 637.7L1350 548.7L1351.3 636.9L1352.7 557.2L1354 647.1L1355.3 546.7L1356.7 671.2L1358 584.1L1359.3 667.8L1360.7 474.4L1362 678.4L1363.3 574.8L1364.7 651.8L1366 555.7L1367.3 636.9L1368.7 592.1L1370 680.2L1371.3 539.6L1372.7 690.5L1374 581.9L1375.3 696.8L1376.7 451.8L1378 607.9L1379.3 543.3L1380.7 607.1L1382 497.1L1383.3 596.9L1384.7 545.6L1386 568.1L1387.3 557L1388.7 631.6L1390 506.3L1391.3 491.5L1392.7 461.7L1394 648.7L1395.3 492.9L1396.7 614.6L1398 568.3L1399.3 625.3L1400.7 538.2L1402 623L1403.3 588.5L1404.7 613.5L1406 479.1L1407.3 655.3L1408.7 559.5L1410 620.9L1411.3 545.1L1412.7 635.1L1414 591.6L1415.3 643.2L1416.7 545.1L1418 659.1L1419.3 595L1420.7 612.5L1422 539.9L1423.3 664.1L1424.7 571.4L1426 617.9L1427.3 535.8L1428.7 625.9L1430 595L1431.3 618.1L1432.7 557.3L1434 663.1L1435.3 592.3L1436.7 610.2L1438 512.2L1439.3 678.3L1440.7 612.4L1442 629L1443.3 564.8L1444.7 675.6L1446 605.9L1447.3 695.6L1448.7 254.4L1450 545.7L1451.3 464.3L1452.7 521.3L1454 367.9L1455.3 529.5L1456.7 371.6L1458 538.1L1459.3 349.3L1460.7 490L1462 340.2L1463.3 456.6L1464.7 452.5L1466 557.7L1467.3 446.7L1468.7 622.5L1470 530.8L1471.3 545.3L1472.7 552.1L1474 640L1475.3 475.9L1476.7 637.1L1478 568L1479.3 623.3L1480.7 494.3L1482 624.8L1483.3 535.5L1484.7 666L1486 503.3L1487.3 648.2L1488.7 592L1490 664.8L1491.3 524.8L1492.7 649.5L1494 532.6L1495.3 633.9L1496.7 542.1L1498 612.4L1499.3 563.3L1500.7 620.8L1502 504.6L1503.3 640.1L1504.7 596.9L1506 636L1507.3 534.4L1508.7 650.9L1510 528.2L1511.3 605.6L1512.7 541.1L1514 675.5L1515.3 533.5L1516.7 637.8L1518 550.8L1519.3 650.6L1520.7 555.5L1522 639.6L1523.3 540.6L1524.7 644.9L1526 554.7L1527.3 682.6L1528.7 582L1530 674.3L1531.3 615.3L1532.7 667.6L1534 561.1L1535.3 628L1536.7 564.1L1538 568.2L1539.3 517.6L1540.7 624.1L1542 316.5L1543.3 477.6L1544.7 304.4L1546 441.1L1547.3 220.7L1548.7 461.3L1550 285.5L1551.3 457L1552.7 129.6L1554 458L1555.3 248.6L1556.7 481.6L1558 240.7L1559.3 496.6L1560.7 230.3L1562 496.1L1563.3 257L1564.7 507L1566 278.3L1567.3 437.4L1568.7 316.1L1570 488.1L1571.3 272.8L1572.7 488.1L1574 204.4L1575.3 522.8L1576.7 244.7L1578 503.3L1579.3 231.5L1580.7 532.1L1582 288.3L1583.3 487.3L1584.7 300.9L1586 506.6L1587.3 310.6L1588.7 560.3L1590 274L1591.3 550.9L1592.7 259.7L1594 526.9L1595.3 313.2L1596.7 420.7L1598 331L1599.3 549L1600.7 268.8L1602 564L1603.3 236L1604.7 485.6L1606 292.6L1607.3 550.7L1608.7 290.4L1610 508.5L1611.3 340.9L1612.7 533.7L1614 322.4L1615.3 585.3L1616.7 303.4L1618 516.3L1619.3 323.2L1620.7 500.7L1622 538.7L1623.3 658L1624.7 536.1L1626 657.7L1627.3 553.1L1628.7 657.8L1630 541.1L1631.3 649.1L1632.7 567.2L1634 612L1635.3 467L1636.7 610.5L1638 527.9L1639.3 578L1640.7 534.1L1642 650.6L1643.3 590.8L1644.7 657L1646 560L1647.3 648.7L1648.7 608L1650 652.6L1651.3 549.2L1652.7 679L1654 589.1L1655.3 690.4L1656.7 545.2L1658 663.4L1659.3 611.6L1660.7 654L1662 515.5L1663.3 672.9L1664.7 561.3L1666 654.7L1667.3 575.6L1668.7 690.7L1670 585.6L1671.3 691.4L1672.7 550.5L1674 686L1675.3 602.2L1676.7 692.7L1678 526.7L1679.3 671.3L1680.7 589.8L1682 678.3L1683.3 591L1684.7 639.8L1686 573.7L1687.3 706L1688.7 606.3L1690 691.4L1691.3 587.2L1692.7 696.8L1694 573.1L1695.3 695.9L1696.7 554.9L1698 618.9L1699.3 537.6L1700.7 617.4L1702 502.6L1703.3 610.2L1704.7 568.2L1706 635L1707.3 529.6L1708.7 645.7L1710 534.9L1711.3 609.2L1712.7 543.3L1714 654.6L1715.3 590.8L1716.7 655.8L1718 582.3L1719.3 656.8L1720.7 581.7L1722 623.9L1723.3 558.7L1724.7 647.1L1726 532.5L1727.3 607.9L1728.7 575L1730 650.8L1731.3 579L1732.7 634.3L1734 540.3L1735.3 656L1736.7 571.2L1738 641L1739.3 533.7L1740.7 643L1742 548.4L1743.3 642L1744.7 554.7L1746 691L1747.3 569.9L1748.7 680.9L1750 516.4L1751.3 668L1752.7 562.2L1754 676.1L1755.3 566.9L1756.7 707.2L1758 592.6L1759.3 660.5L1760.7 509.7L1762 678.1L1763.3 533.3L1764.7 674.6L1766 579.5L1767.3 686.9L1768.7 587.4L1770 689.2L1771.3 584L1772.7 657.7L1774 565.5L1775.3 695.2L1776.7 537L1778 573.1L1779.3 519.1L1780.7 636.6L1782 518.1L1783.3 602.4L1784.7 545.3L1786 652.1L1787.3 551.2L1788.7 627.4L1790 564.6L1791.3 660.7L1792.7 529.3L1794 648.9L1795.3 563.4L1796.7 633.5L1798 552.6L1799.3 655.7" fill="transparent" stroke="#626c91" stroke-width="3" stroke-linejoin="bevel" class="zr40-cls-122"></path>
</g>
<path d="M-265.2 -5l530.4 0l0 28l-530.4 0Z" transform="translate(1000 5)" fill="rgb(0,0,0)" fill-opacity="0" stroke="#ccc" stroke-width="0" class="zr40-cls-120"></path>
<text dominant-baseline="central" text-anchor="middle" style="font-size:18px;font-family:sans-serif;font-weight:bold;" xml:space="preserve" y="9" transform="translate(1000 5)" fill="#666666">wholeUpdate per Tick for bench_1_every_60_staggered_reverse</text>
<defs >
<clipPath id="zr40-c0">
<path d="M198 58.5l16004 0l0 8703l-16004 0Z" fill="#000" class="zr40-cls-121"></path>
</clipPath>
<clipPath id="zr40-c1">
<path d="M198 58.5l16004 0l0 8703l-16004 0Z" fill="#000" class="zr40-cls-121"></path>
</clipPath>
<clipPath id="zr40-c2">
<path d="M198 58.5l16004 0l0 8703l-16004 0Z" fill="#000" class="zr40-cls-121"></path>
</clipPath>
</defs>
<style ><![CDATA[
.zr40-cls-120:hover {
pointer-events:none;
}
.zr40-cls-121:hover {
cursor:pointer;
fill:rgba(0,0,0,1);
}
.zr40-cls-122:hover {
cursor:pointer;
}

]]>

</style>
</svg>