<svg width="2000" height="1000" xmlns="http://www.w3.org/2000/svg" xmlns:xlink="http://www.w3.org/1999/xlink" version="1.1" baseProfile="full" viewBox="0 0 2000 1000">
<rect width="2000" height="1000" x="0" y="0" fill="rgb(252,252,252)" fill-opacity="0"></rect>
<path d="M200 930.5L1800 930.5" fill="transparent" stroke="#eeeeee" class="zr20-cls-60"></path>
<path d="M200 762.5L1800 762.5" fill="transparent" stroke="#eeeeee" class="zr20-cls-60"></path>
<path d="M200 593.5L1800 593.5" fill="transparent" stroke="#eeeeee" class="zr20-cls-60"></path>
<path d="M200 425.5L1800 425.5" fill="transparent" stroke="#eeeeee" class="zr20-cls-60"></path>
<path d="M200 257.5L1800 257.5" fill="transparent" stroke="#eeeeee" class="zr20-cls-60"></path>
<path d="M200 89.5L1800 89.5" fill="transparent" stroke="#eeeeee" class="zr20-cls-60"></path>
<path d="M200 60.5L1800 60.5" fill="transparent" stroke="#eeeeee" class="zr20-cls-60"></path>
<path d="M200.5 930L200.5 60" fill="transparent" stroke="#cccccc" stroke-linecap="round" class="zr20-cls-60"></path>
<text dominant-baseline="central" text-anchor="middle" style="font-size:12px;font-family:sans-serif;" xml:space="preserve" y="-6" transform="translate(200 45)" fill="#cccccc">controlBehaviorUpdate Time (ms)</text>
<path d="M200 930.5L1800 930.5" fill="transparent" stroke="#cccccc" stroke-linecap="round" class="zr20-cls-60"></path>
<text dominant-baseline="central" text-anchor="end" style="font-size:12px;font-family:sans-serif;" transform="translate(192 930)" fill="#999999">0.000</text>
<text dominant-baseline="central" text-anchor="end" style="font-size:12px;font-family:sans-serif;" transform="translate(192 761.853)" fill="#999999">0.200</text>
<text dominant-baseline="central" text-anchor="end" style="font-size:12px;font-family:sans-serif;" transform="translate(192 593.706)" fill="#999999">0.400</text>
<text dominant-baseline="central" text-anchor="end" style="font-size:12px;font-family:sans-serif;" transform="translate(192 425.559)" fill="#999999">0.600</text>
<text dominant-baseline="central" text-anchor="end" style="font-size:12px;font-family:sans-serif;" transform="translate(192 257.412)" fill="#999999">0.800</text>
<text dominant-baseline="central" text-anchor="end" style="font-size:12px;font-family:sans-serif;" transform="translate(192 89.265)" fill="#999999">1.000</text>
<text dominant-baseline="central" text-anchor="end" style="font-size:12px;font-family:sans-serif;" transform="translate(192 60)" fill="#999999">1.035</text>
<text dominant-baseline="central" text-anchor="middle" style="font-size:12px;font-family:sans-serif;" y="6" transform="translate(200.6667 938)" fill="#999999">0</text>
<text dominant-baseline="central" text-anchor="middle" style="font-size:12px;font-family:sans-serif;" y="6" transform="translate(236.6667 938)" fill="#999999">27</text>
<text dominant-baseline="central" text-anchor="middle" style="font-size:12px;font-family:sans-serif;" y="6" transform="translate(272.6667 938)" fill="#999999">54</text>
<text dominant-baseline="central" text-anchor="middle" style="font-size:12px;font-family:sans-serif;" y="6" transform="translate(308.6667 938)" fill="#999999">81</text>
<text dominant-baseline="central" text-anchor="middle" style="font-size:12px;font-family:sans-serif;" y="6" transform="translate(344.6667 938)" fill="#999999">108</text>
<text dominant-baseline="central" text-anchor="middle" style="font-size:12px;font-family:sans-serif;" y="6" transform="translate(380.6667 938)" fill="#999999">135</text>
<text dominant-baseline="central" text-anchor="middle" style="font-size:12px;font-family:sans-serif;" y="6" transform="translate(416.6667 938)" fill="#999999">162</text>
<text dominant-baseline="central" text-anchor="middle" style="font-size:12px;font-family:sans-serif;" y="6" transform="translate(452.6667 938)" fill="#999999">189</text>
<text dominant-baseline="central" text-anchor="middle" style="font-size:12px;font-family:sans-serif;" y="6" transform="translate(488.6667 938)" fill="#999999">216</text>
<text dominant-baseline="central" text-anchor="middle" style="font-size:12px;font-family:sans-serif;" y="6" transform="translate(524.6667 938)" fill="#999999">243</text>
<text dominant-baseline="central" text-anchor="middle" style="font-size:12px;font-family:sans-serif;" y="6" transform="translate(560.6667 938)" fill="#999999">270</text>
<text dominant-baseline="central" text-anchor="middle" style="font-size:12px;font-family:sans-serif;" y="6" transform="translate(596.6667 938)" fill="#999999">297</text>
<text dominant-baseline="central" text-anchor="middle" style="font-size:12px;font-family:sans-serif;" y="6" transform="translate(632.6667 938)" fill="#999999">324</text>
<text dominant-baseline="central" text-anchor="middle" style="font-size:12px;font-family:sans-serif;" y="6" transform="translate(668.6667 938)" fill="#999999">351</text>
<text dominant-baseline="central" text-anchor="middle" style="font-size:12px;font-family:sans-serif;" y="6" transform="translate(704.6667 938)" fill="#999999">378</text>
<text dominant-baseline="central" text-anchor="middle" style="font-size:12px;font-family:sans-serif;" y="6" transform="translate(740.6667 938)" fill="#999999">405</text>
<text dominant-baseline="central" text-anchor="middle" style="font-size:12px;font-family:sans-serif;" y="6" transform="translate(776.6667 938)" fill="#999999">432</text>
<text dominant-baseline="central" text-anchor="middle" style="font-size:12px;font-family:sans-serif;" y="6" transform="translate(812.6667 938)" fill="#999999">459</text>
<text dominant-baseline="central" text-anchor="middle" style="font-size:12px;font-family:sans-serif;" y="6" transform="translate(848.6667 938)" fill="#999999">486</text>
<text dominant-baseline="central" text-anchor="middle" style="font-size:12px;font-family:sans-serif;" y="6" transform="translate(884.6667 938)" fill="#999999">513</text>
<text dominant-baseline="central" text-anchor="middle" style="font-size:12px;font-family:sans-serif;" y="6" transform="translate(920.6667 938)" fill="#999999">540</text>
<text dominant-baseline="central" text-anchor="middle" style="font-size:12px;font-family:sans-serif;" y="6" transform="translate(956.6667 938)" fill="#999999">567</text>
<text dominant-baseline="central" text-anchor="middle" style="font-size:12px;font-family:sans-serif;" y="6" transform="translate(992.6667 938)" fill="#999999">594</text>
<text dominant-baseline="central" text-anchor="middle" style="font-size:12px;font-family:sans-serif;" y="6" transform="translate(1028.6667 938)" fill="#999999">621</text>
<text dominant-baseline="central" text-anchor="middle" style="font-size:12px;font-family:sans-serif;" y="6" transform="translate(1064.6667 938)" fill="#999999">648</text>
<text dominant-baseline="central" text-anchor="middle" style="font-size:12px;font-family:sans-serif;" y="6" transform="translate(1100.6667 938)" fill="#999999">675</text>
<text dominant-baseline="central" text-anchor="middle" style="font-size:12px;font-family:sans-serif;" y="6" transform="translate(1136.6667 938)" fill="#999999">702</text>
<text dominant-baseline="central" text-anchor="middle" style="font-size:12px;font-family:sans-serif;" y="6" transform="translate(1172.6667 938)" fill="#999999">729</text>
<text dominant-baseline="central" text-anchor="middle" style="font-size:12px;font-family:sans-serif;" y="6" transform="translate(1208.6667 938)" fill="#999999">756</text>
<text dominant-baseline="central" text-anchor="middle" style="font-size:12px;font-family:sans-serif;" y="6" transform="translate(1244.6667 938)" fill="#999999">783</text>
<text dominant-baseline="central" text-anchor="middle" style="font-size:12px;font-family:sans-serif;" y="6" transform="translate(1280.6667 938)" fill="#999999">810</text>
<text dominant-baseline="central" text-anchor="middle" style="font-size:12px;font-family:sans-serif;" y="6" transform="translate(1316.6667 938)" fill="#999999">837</text>
<text dominant-baseline="central" text-anchor="middle" style="font-size:12px;font-family:sans-serif;" y="6" transform="translate(1352.6667 938)" fill="#999999">864</text>
<text dominant-baseline="central" text-anchor="middle" style="font-size:12px;font-family:sans-serif;" y="6" transform="translate(1388.6667 938)" fill="#999999">891</text>
<text dominant-baseline="central" text-anchor="middle" style="font-size:12px;font-family:sans-serif;" y="6" transform="translate(1424.6667 938)" fill="#999999">918</text>
<text dominant-baseline="central" text-anchor="middle" style="font-size:12px;font-family:sans-serif;" y="6" transform="translate(1460.6667 938)" fill="#999999">945</text>
<text dominant-baseline="central" text-anchor="middle" style="font-size:12px;font-family:sans-serif;" y="6" transform="translate(1496.6667 938)" fill="#999999">972</text>
<text dominant-baseline="central" text-anchor="middle" style="font-size:12px;font-family:sans-serif;" y="6" transform="translate(1532.6667 938)" fill="#999999">999</text>
<text dominant-baseline="central" text-anchor="middle" style="font-size:12px;font-family:sans-serif;" y="6" transform="translate(1568.6667 938)" fill="#999999">1026</text>
<text dominant-baseline="central" text-anchor="middle" style="font-size:12px;font-family:sans-serif;" y="6" transform="translate(1604.6667 938)" fill="#999999">1053</text>
<text dominant-baseline="central" text-anchor="middle" style="font-size:12px;font-family:sans-serif;" y="6" transform="translate(1640.6667 938)" fill="#999999">1080</text>
<text dominant-baseline="central" text-anchor="middle" style="font-size:12px;font-family:sans-serif;" y="6" transform="translate(1676.6667 938)" fill="#999999">1107</text>
<text dominant-baseline="central" text-anchor="middle" style="font-size:12px;font-family:sans-serif;" y="6" transform="translate(1712.6667 938)" fill="#999999">1134</text>
<text dominant-baseline="central" text-anchor="middle" style="font-size:12px;font-family:sans-serif;" y="6" transform="translate(1748.6667 938)" fill="#999999">1161</text>
<text dominant-baseline="central" text-anchor="middle" style="font-size:12px;font-family:sans-serif;" y="6" transform="translate(1784.6667 938)" fill="#999999">1188</text>
<g clip-path="url(#zr20-c0)">
<path d="M200.7 283.2L202 683.3L203.3 754L204.7 784.7L206 783.2L207.3 803.4L208.7 799.7L210 792.7L211.3 792.6L212.7 787.7L214 792.2L215.3 794.1L216.7 808.5L218 803.1L219.3 799.4L220.7 803.5L222 787.4L223.3 795L224.7 805.4L226 805.3L227.3 808.9L228.7 808.7L230 784.6L231.3 809.5L232.7 794.6L234 807.8L235.3 808.5L236.7 814.9L238 813.6L239.3 809.2L240.7 811.4L242 806.7L243.3 810.6L244.7 809.3L246 802L247.3 804.2L248.7 803.1L250 811.4L251.3 808.7L252.7 814.4L254 810.5L255.3 813.1L256.7 815.8L258 813.2L259.3 787L260.7 792L262 807.9L263.3 811L264.7 813L266 809.9L267.3 799.9L268.7 815.1L270 809.1L271.3 804.6L272.7 813.4L274 808.6L275.3 802.4L276.7 812L278 810.7L279.3 813.1L280.7 811.8L282 812.5L283.3 817L284.7 812.4L286 798.9L287.3 -4370.6L288.7 595.6L290 554.8L291.3 533.3L292.7 98L294 657L295.3 683.9L296.7 716.5L298 317.8L299.3 436.4L300.7 574.5L302 695.9L303.3 644.7L304.7 737.5L306 773L307.3 791.4L308.7 763.1L310 791.4L311.3 802.2L312.7 805.1L314 801.5L315.3 797L316.7 800.9L318 800.4L319.3 762.4L320.7 783.7L322 794.6L323.3 805.8L324.7 806.1L326 794.7L327.3 809.8L328.7 805.2L330 780.5L331.3 791.6L332.7 784L334 803L335.3 807.3L336.7 805.2L338 792L339.3 792.7L340.7 741.1L342 756.6L343.3 787.7L344.7 798.6L346 787.2L347.3 796.9L348.7 797.6L350 806.3L351.3 784.1L352.7 783.7L354 797.5L355.3 797.1L356.7 796L358 794.3L359.3 804.6L360.7 807L362 803.6L363.3 785.8L364.7 804.1L366 806.1L367.3 809.2L368.7 805.2L370 794.6L371.3 800.7L372.7 791L374 805.7L375.3 770.7L376.7 802.5L378 795.7L379.3 782.5L380.7 802L382 812.3L383.3 808.3L384.7 804.4L386 800.8L387.3 802.6L388.7 805.4L390 806.8L391.3 806.6L392.7 811L394 806.8L395.3 784.3L396.7 810.1L398 801.3L399.3 805.1L400.7 808.3L402 779.7L403.3 792.6L404.7 802.3L406 799.5L407.3 804.7L408.7 794L410 793.2L411.3 809.5L412.7 790.1L414 799.2L415.3 785.6L416.7 795.5L418 796.7L419.3 792L420.7 796.6L422 800.4L423.3 806.9L424.7 808L426 799.4L427.3 789.6L428.7 782.9L430 802.5L431.3 792.8L432.7 794.7L434 793.5L435.3 803.3L436.7 781.7L438 800.8L439.3 801L440.7 784.6L442 803.4L443.3 804.6L444.7 806.3L446 804.5L447.3 799.3L448.7 796L450 801.5L451.3 809.7L452.7 788.8L454 791.9L455.3 772.1L456.7 799.1L458 806.8L459.3 807.2L460.7 805.1L462 800.8L463.3 793.6L464.7 807.6L466 794L467.3 777.2L468.7 797.1L470 785L471.3 785.5L472.7 812.1L474 800.5L475.3 788.7L476.7 790.9L478 799.2L479.3 804.4L480.7 781.3L482 799.1L483.3 805.5L484.7 790.1L486 804.5L487.3 809.8L488.7 797.2L490 809.4L491.3 790.2L492.7 771.5L494 784.3L495.3 806L496.7 793.4L498 804.1L499.3 800.4L500.7 777.2L502 802L503.3 805.2L504.7 794.6L506 780.3L507.3 802.7L508.7 784.5L510 790.5L511.3 788.3L512.7 803L514 788.3L515.3 786.1L516.7 791.7L518 784.3L519.3 787.9L520.7 803L522 800.8L523.3 790.9L524.7 799.2L526 802.2L527.3 798.2L528.7 792.4L530 801.5L531.3 788.8L532.7 797.8L534 802.1L535.3 798.5L536.7 817.1L538 805.7L539.3 809.5L540.7 801.3L542 805.6L543.3 800.5L544.7 800.4L546 806.2L547.3 810.6L548.7 801.5L550 808.9L551.3 805.8L552.7 809.6L554 801.9L555.3 808L556.7 804L558 809L559.3 807.9L560.7 807.8L562 810.6L563.3 803.3L564.7 810L566 808.3L567.3 798L568.7 800.8L570 806.2L571.3 786.5L572.7 807.3L574 805.4L575.3 809.8L576.7 810.5L578 808.3L579.3 806.7L580.7 812.3L582 816L583.3 816L584.7 797.4L586 807L587.3 801.5L588.7 815.7L590 807.2L591.3 812.8L592.7 805.2L594 806.7L595.3 811.5L596.7 809.8L598 810.4L599.3 811.7L600.7 801L602 809.8L603.3 812.5L604.7 809.2L606 797.4L607.3 -3730.4L608.7 610L610 593.6L611.3 564.2L612.7 17.4L614 653.2L615.3 673.2L616.7 703.2L618 444.6L619.3 433L620.7 593.2L622 640.1L623.3 698.4L624.7 749.3L626 765.7L627.3 686.6L628.7 753.6L630 774.3L631.3 802L632.7 795.2L634 808.4L635.3 789.4L636.7 802.1L638 782.2L639.3 797.2L640.7 805.6L642 801.4L643.3 810.6L644.7 801.8L646 801.9L647.3 786.4L648.7 698.9L650 798.8L651.3 802.4L652.7 808.2L654 798.2L655.3 812.5L656.7 809.4L658 804.2L659.3 780.7L660.7 785.9L662 795.3L663.3 806.7L664.7 807.3L666 793.5L667.3 797.7L668.7 762.4L670 768.2L671.3 777.6L672.7 801.2L674 795.9L675.3 809.2L676.7 813L678 805.2L679.3 813.6L680.7 807L682 783.8L683.3 803.1L684.7 809.5L686 801.6L687.3 810.4L688.7 785.6L690 795.7L691.3 799.1L692.7 801.5L694 772.7L695.3 802.2L696.7 809.9L698 809.9L699.3 814.1L700.7 808.3L702 802.3L703.3 799L704.7 796.3L706 780.3L707.3 768.8L708.7 802.5L710 804.5L711.3 808.2L712.7 802.2L714 806.7L715.3 798.5L716.7 798.3L718 808.1L719.3 785.6L720.7 788.7L722 807.9L723.3 794.7L724.7 804.7L726 811.5L727.3 803.6L728.7 795L730 799.1L731.3 796L732.7 762.4L734 804.7L735.3 782.1L736.7 801.5L738 808.2L739.3 788.2L740.7 795.9L742 807.3L743.3 801.8L744.7 803.3L746 775.6L747.3 800.6L748.7 799.9L750 804.3L751.3 809.6L752.7 792.4L754 805.2L755.3 814.3L756.7 808.8L758 804.9L759.3 793.1L760.7 723.2L762 797.2L763.3 795.1L764.7 810.6L766 802.6L767.3 805.3L768.7 805.2L770 802.1L771.3 799.3L772.7 770.3L774 799.4L775.3 811.8L776.7 808.3L778 798.5L779.3 803.9L780.7 797.4L782 804.6L783.3 800L784.7 754.2L786 782.9L787.3 799.3L788.7 796.1L790 786.2L791.3 787.7L792.7 804.5L794 808.9L795.3 799.3L796.7 781.9L798 791.3L799.3 800.9L800.7 802L802 792.4L803.3 805.9L804.7 796.6L806 803.2L807.3 805.3L808.7 799.3L810 764.1L811.3 731.4L812.7 784.3L814 781.9L815.3 805.8L816.7 804.6L818 801.6L819.3 794.4L820.7 793.9L822 787.3L823.3 781.5L824.7 801.7L826 813.4L827.3 805.7L828.7 801.9L830 810.3L831.3 801.5L832.7 790L834 797.5L835.3 802.1L836.7 784.8L838 789.3L839.3 794.1L840.7 797.6L842 803L843.3 808.5L844.7 806.8L846 781.8L847.3 802.9L848.7 778.8L850 783.1L851.3 802.7L852.7 802.9L854 805.7L855.3 803L856.7 805.6L858 809.4L859.3 812L860.7 808.3L862 802.5L863.3 805.1L864.7 794.2L866 804L867.3 804.6L868.7 806.6L870 796.8L871.3 806.6L872.7 808.6L874 809.5L875.3 806.7L876.7 712L878 788.1L879.3 792.5L880.7 796.7L882 806.4L883.3 812.2L884.7 798.2L886 804.4L887.3 809.9L888.7 802.1L890 808.8L891.3 808.3L892.7 808L894 800.4L895.3 807.6L896.7 800L898 802.5L899.3 803.3L900.7 812L902 805.1L903.3 807L904.7 805L906 808.4L907.3 808.6L908.7 807.3L910 803.6L911.3 810.6L912.7 801.3L914 784.3L915.3 802.4L916.7 799.9L918 814.6L919.3 812L920.7 811.2L922 812.1L923.3 808.2L924.7 800L926 807.2L927.3 -4195.8L928.7 562.3L930 558.7L931.3 521.7L932.7 63L934 655.5L935.3 673.7L936.7 715.9L938 426.6L939.3 432.4L940.7 583.3L942 665.3L943.3 661L944.7 677.4L946 732.9L947.3 777.5L948.7 778.8L950 792.5L951.3 792.5L952.7 789.5L954 732.5L955.3 780.3L956.7 786.3L958 795.5L959.3 772.2L960.7 798.7L962 798.3L963.3 798.6L964.7 779.2L966 784.7L967.3 777.3L968.7 796.9L970 794L971.3 792.6L972.7 792.4L974 758L975.3 793.2L976.7 790L978 792.6L979.3 789.6L980.7 606.2L982 800.1L983.3 782.8L984.7 788.3L986 725.4L987.3 792.1L988.7 793.1L990 794.2L991.3 796.3L992.7 804.1L994 770.3L995.3 789.8L996.7 801.5L998 805.3L999.3 804.6L1000.7 806.2L1002 798.9L1003.3 791.5L1004.7 797L1006 789.2L1007.3 796.9L1008.7 798.8L1010 796.4L1011.3 799.4L1012.7 789.1L1014 793.2L1015.3 791.6L1016.7 787.9L1018 786.2L1019.3 792.9L1020.7 798.5L1022 786.2L1023.3 805.8L1024.7 791.9L1026 791.4L1027.3 802.5L1028.7 734.4L1030 769.2L1031.3 789.4L1032.7 807.4L1034 776.1L1035.3 797L1036.7 793.9L1038 803.4L1039.3 786.3L1040.7 804.3L1042 785.5L1043.3 792.4L1044.7 789.3L1046 795.7L1047.3 805.2L1048.7 807.8L1050 803.1L1051.3 796.9L1052.7 800.8L1054 780.8L1055.3 791.4L1056.7 800.7L1058 790.5L1059.3 800.5L1060.7 806.9L1062 802.4L1063.3 757.4L1064.7 791.6L1066 785.1L1067.3 793.5L1068.7 790.2L1070 799.4L1071.3 805L1072.7 799.3L1074 785L1075.3 789.8L1076.7 790.4L1078 742.2L1079.3 779.7L1080.7 804.3L1082 800.5L1083.3 791.5L1084.7 794.7L1086 796.3L1087.3 809.3L1088.7 794.9L1090 795.6L1091.3 769.6L1092.7 795L1094 804.4L1095.3 791.7L1096.7 796.5L1098 798.3L1099.3 787.4L1100.7 786.5L1102 787.7L1103.3 792.8L1104.7 791.7L1106 796.7L1107.3 799.4L1108.7 792.5L1110 780.8L1111.3 796.7L1112.7 801.7L1114 794.3L1115.3 801.4L1116.7 776.3L1118 796.6L1119.3 792L1120.7 800.7L1122 808.6L1123.3 812.2L1124.7 789.2L1126 789.7L1127.3 785.6L1128.7 734.7L1130 790.2L1131.3 806L1132.7 807.5L1134 788.5L1135.3 787.6L1136.7 800.8L1138 795.1L1139.3 800.9L1140.7 802.7L1142 791.6L1143.3 794.1L1144.7 788.7L1146 805.7L1147.3 809.7L1148.7 803.5L1150 790.3L1151.3 790.3L1152.7 791.6L1154 794.2L1155.3 783.1L1156.7 801.5L1158 784.6L1159.3 796.7L1160.7 794.6L1162 801.4L1163.3 800.3L1164.7 786.4L1166 802L1167.3 780.3L1168.7 798.1L1170 790.9L1171.3 798.9L1172.7 801L1174 805.2L1175.3 808.3L1176.7 808.9L1178 812.1L1179.3 804.4L1180.7 803.3L1182 800.4L1183.3 811.4L1184.7 811.3L1186 800L1187.3 807L1188.7 809.7L1190 799.6L1191.3 807.3L1192.7 805.6L1194 809.5L1195.3 783L1196.7 798.8L1198 808.3L1199.3 807.3L1200.7 803.9L1202 799.3L1203.3 790.8L1204.7 810.8L1206 814.9L1207.3 800.9L1208.7 795.4L1210 818.7L1211.3 805.8L1212.7 765L1214 809.8L1215.3 804.8L1216.7 803L1218 797.3L1219.3 806.2L1220.7 803.9L1222 809.4L1223.3 811L1224.7 813.2L1226 805.8L1227.3 810.2L1228.7 805.2L1230 735.5L1231.3 801.4L1232.7 796.7L1234 798.6L1235.3 808.4L1236.7 810.8L1238 799.6L1239.3 810L1240.7 805.7L1242 814.2L1243.3 807.8L1244.7 808.9L1246 799.8L1247.3 -4331.7L1248.7 572.9L1250 558.6L1251.3 515.4L1252.7 -101.9L1254 662.1L1255.3 688.2L1256.7 689.4L1258 430.5L1259.3 423L1260.7 584.5L1262 659.5L1263.3 681.1L1264.7 715.1L1266 704.6L1267.3 756.1L1268.7 748.5L1270 753.8L1271.3 789.8L1272.7 793.4L1274 803.2L1275.3 787.1L1276.7 793.2L1278 802.4L1279.3 759.3L1280.7 797.4L1282 800.6L1283.3 811.4L1284.7 798.3L1286 802.3L1287.3 784.2L1288.7 801.2L1290 745.2L1291.3 793.7L1292.7 782.5L1294 804.4L1295.3 801.4L1296.7 806.6L1298 801.6L1299.3 726.6L1300.7 783.1L1302 789.8L1303.3 773.3L1304.7 797.1L1306 798.7L1307.3 807.5L1308.7 792.9L1310 781.9L1311.3 791.5L1312.7 801.4L1314 799.8L1315.3 788.7L1316.7 807.8L1318 793.3L1319.3 789.8L1320.7 798.8L1322 788.8L1323.3 788.4L1324.7 781.4L1326 805.2L1327.3 803.2L1328.7 791.1L1330 795L1331.3 798.4L1332.7 773.3L1334 801.1L1335.3 791.6L1336.7 800.1L1338 792.3L1339.3 804.1L1340.7 793L1342 778.9L1343.3 804.1L1344.7 770.3L1346 788.3L1347.3 793.4L1348.7 798L1350 796.3L1351.3 787.3L1352.7 798L1354 797.6L1355.3 790.9L1356.7 781.7L1358 793.4L1359.3 804.9L1360.7 796.9L1362 800.4L1363.3 804.5L1364.7 798.4L1366 797.2L1367.3 780L1368.7 773.3L1370 803.9L1371.3 808.6L1372.7 799.3L1374 771.8L1375.3 803.1L1376.7 799.7L1378 802.5L1379.3 800.9L1380.7 793.5L1382 785.7L1383.3 803.8L1384.7 803.7L1386 795.7L1387.3 804.3L1388.7 793.4L1390 806.6L1391.3 794.8L1392.7 764L1394 784.9L1395.3 796.5L1396.7 797.2L1398 806.9L1399.3 791.7L1400.7 794.9L1402 793.1L1403.3 795.7L1404.7 793.2L1406 799.5L1407.3 787.1L1408.7 805.1L1410 791.6L1411.3 799.4L1412.7 793.4L1414 798L1415.3 809.1L1416.7 780.7L1418 797.2L1419.3 781.6L1420.7 781.9L1422 800.5L1423.3 797.5L1424.7 794.2L1426 803.2L1427.3 811.5L1428.7 785.6L1430 812.2L1431.3 700.8L1432.7 779.6L1434 799.1L1435.3 793.5L1436.7 793.2L1438 797.6L1439.3 794.2L1440.7 784.3L1442 800.8L1443.3 788.5L1444.7 780.3L1446 790.5L1447.3 804.1L1448.7 800.3L1450 770L1451.3 793.7L1452.7 785.1L1454 808.2L1455.3 802.2L1456.7 792.7L1458 790.2L1459.3 792.5L1460.7 803L1462 798.6L1463.3 785.1L1464.7 793.3L1466 788.9L1467.3 806.1L1468.7 797.5L1470 768.7L1471.3 792.8L1472.7 799L1474 790L1475.3 801.3L1476.7 803.6L1478 787L1479.3 788.8L1480.7 792.5L1482 787L1483.3 796.2L1484.7 798.8L1486 804.3L1487.3 793.5L1488.7 793L1490 774.4L1491.3 786.7L1492.7 807.1L1494 799.6L1495.3 809.9L1496.7 800.1L1498 805.2L1499.3 808.4L1500.7 783.5L1502 785.6L1503.3 795.7L1504.7 802.5L1506 799.5L1507.3 802.9L1508.7 800.4L1510 795.8L1511.3 812L1512.7 811L1514 807.9L1515.3 812.5L1516.7 809.3L1518 814.9L1519.3 796.2L1520.7 803L1522 809.9L1523.3 812.5L1524.7 813.1L1526 810.7L1527.3 803.9L1528.7 807.3L1530 810L1531.3 794.9L1532.7 797.5L1534 806.7L1535.3 809.3L1536.7 793.8L1538 796.1L1539.3 808.9L1540.7 807.8L1542 805L1543.3 807.4L1544.7 800.1L1546 811.1L1547.3 811.9L1548.7 785.5L1550 813.3L1551.3 806.7L1552.7 805L1554 808.4L1555.3 808.6L1556.7 809.9L1558 800.8L1559.3 800.5L1560.7 811.2L1562 804.6L1563.3 807.5L1564.7 800.5L1566 809.9L1567.3 -4195.5L1568.7 563.1L1570 523.7L1571.3 523.5L1572.7 -1.5L1574 639.1L1575.3 694.6L1576.7 675.2L1578 455.7L1579.3 463.1L1580.7 559.8L1582 698L1583.3 680.2L1584.7 685.7L1586 743.9L1587.3 790.2L1588.7 792.5L1590 801.8L1591.3 794.6L1592.7 805.2L1594 769.8L1595.3 776.1L1596.7 806.7L1598 802.2L1599.3 798.1L1600.7 808.7L1602 811.4L1603.3 798.1L1604.7 780L1606 778L1607.3 781.9L1608.7 794.1L1610 802L1611.3 774L1612.7 795.1L1614 800.5L1615.3 768.9L1616.7 790.6L1618 802.9L1619.3 808.2L1620.7 806.4L1622 807.1L1623.3 803L1624.7 788.4L1626 779.5L1627.3 797.8L1628.7 793.5L1630 807.7L1631.3 796.2L1632.7 804.2L1634 809L1635.3 788.3L1636.7 789.5L1638 778.2L1639.3 804.9L1640.7 799.7L1642 784.5L1643.3 804.7L1644.7 797.4L1646 801.2L1647.3 805.9L1648.7 792.5L1650 794L1651.3 802.6L1652.7 802.9L1654 770.8L1655.3 802.2L1656.7 803L1658 806.9L1659.3 796.6L1660.7 736.2L1662 781.2L1663.3 800.6L1664.7 805.2L1666 794.2L1667.3 799.1L1668.7 787.9L1670 809.2L1671.3 806.8L1672.7 813.1L1674 770.3L1675.3 785L1676.7 805.5L1678 805.3L1679.3 799.5L1680.7 797.8L1682 810.1L1683.3 807.3L1684.7 793.8L1686 811.7L1687.3 794.6L1688.7 796.7L1690 789.2L1691.3 795.4L1692.7 784.1L1694 805.3L1695.3 803.9L1696.7 792.8L1698 800.4L1699.3 806.6L1700.7 790.9L1702 810L1703.3 803.9L1704.7 798.2L1706 800.4L1707.3 800.9L1708.7 795L1710 801L1711.3 805.1L1712.7 794.7L1714 798.9L1715.3 808L1716.7 798.8L1718 796.7L1719.3 797.2L1720.7 805.4L1722 808.2L1723.3 799.3L1724.7 787.8L1726 791.9L1727.3 800.6L1728.7 801.5L1730 795.5L1731.3 799.4L1732.7 810.5L1734 804.7L1735.3 806.2L1736.7 792L1738 795.1L1739.3 788.2L1740.7 788.6L1742 802L1743.3 798.3L1744.7 792L1746 790.9L1747.3 801.8L1748.7 786L1750 803.7L1751.3 783.7L1752.7 785.3L1754 790.4L1755.3 799.3L1756.7 803.6L1758 752.4L1759.3 807.6L1760.7 803.6L1762 810.5L1763.3 793.5L1764.7 801.5L1766 772.2L1767.3 793.5L1768.7 776.3L1770 788L1771.3 807.4L1772.7 804.1L1774 807.5L1775.3 794.3L1776.7 797.6L1778 780.3L1779.3 786.7L1780.7 798.3L1782 806L1783.3 808.7L1784.7 803.7L1786 805L1787.3 807.5L1788.7 786.7L1790 805.9L1791.3 773.6L1792.7 794.6L1794 801.2L1795.3 800.2L1796.7 796.3L1798 806.2L1799.3 808.6" fill="transparent" stroke="#3fb1e3" stroke-width="3" stroke-linejoin="bevel" class="zr20-cls-62"></path>
</g>
<g clip-path="url(#zr20-c1)">
<path d="M200.7 279.7L202 578.1L203.3 786.9L204.7 792.1L206 800.6L207.3 798.6L208.7 800.4L210 797.2L211.3 795.7L212.7 793L214 803L215.3 792L216.7 804.3L218 799.1L219.3 809.9L220.7 798.6L222 816.8L223.3 764.9L224.7 798L226 802L227.3 818.6L228.7 778.1L230 816.1L231.3 818.9L232.7 810.7L234 812.1L235.3 814.6L236.7 809.9L238 814.2L239.3 817.6L240.7 815.8L242 816L243.3 817.9L244.7 812.7L246 808.2L247.3 811.6L248.7 818.5L250 812.5L251.3 818.1L252.7 806.4L254 814.1L255.3 813.9L256.7 814.5L258 815.3L259.3 819.4L260.7 816.9L262 819L263.3 792.8L264.7 807L266 810.3L267.3 804.9L268.7 817.9L270 813.1L271.3 817L272.7 815.3L274 813.1L275.3 817.7L276.7 817.1L278 815.6L279.3 816.8L280.7 814.1L282 810L283.3 811.8L284.7 810.9L286 812.8L287.3 -4322.8L288.7 610.3L290 604.5L291.3 564.9L292.7 38L294 643.1L295.3 701.2L296.7 683.7L298 451.1L299.3 263.1L300.7 336.6L302 413.8L303.3 582.7L304.7 628.4L306 634.6L307.3 698L308.7 703.7L310 721.2L311.3 759.4L312.7 720.1L314 755.1L315.3 778.8L316.7 776.5L318 780.1L319.3 780.3L320.7 680L322 755L323.3 770.6L324.7 765.1L326 572.3L327.3 349.8L328.7 151.7L330 535.4L331.3 467.8L332.7 634.1L334 700.3L335.3 729.6L336.7 762.3L338 750.1L339.3 778.9L340.7 779.4L342 787.7L343.3 783.7L344.7 791.8L346 793L347.3 742.2L348.7 746.8L350 761.6L351.3 763L352.7 774.2L354 788.3L355.3 775.7L356.7 769.3L358 783.5L359.3 785.5L360.7 798.2L362 799.8L363.3 800.4L364.7 794.1L366 788.8L367.3 777.2L368.7 789.4L370 793.5L371.3 784.1L372.7 796.7L374 801.9L375.3 804L376.7 801.1L378 784.4L379.3 788.9L380.7 800.9L382 801.4L383.3 796.1L384.7 806.2L386 806.9L387.3 792.2L388.7 738.1L390 728.6L391.3 764.9L392.7 776.1L394 786.1L395.3 789.8L396.7 794.3L398 797.3L399.3 789.4L400.7 775.5L402 784.7L403.3 785.6L404.7 796.7L406 798.3L407.3 800.8L408.7 803.5L410 805.5L411.3 795.5L412.7 769L414 751.5L415.3 795.4L416.7 800.5L418 807.8L419.3 811.5L420.7 809.3L422 805.1L423.3 772.9L424.7 795.7L426 801L427.3 808.5L428.7 803L430 803.6L431.3 798.3L432.7 813.3L434 820L435.3 807.8L436.7 777.8L438 798L439.3 805.8L440.7 808.5L442 766.8L443.3 796.5L444.7 679.5L446 793L447.3 792.8L448.7 750.4L450 758L451.3 803.8L452.7 806.3L454 813.8L455.3 798.1L456.7 808.4L458 766L459.3 789.3L460.7 775.1L462 764.5L463.3 754.7L464.7 767.8L466 753.6L467.3 771.1L468.7 702.7L470 768.2L471.3 789L472.7 770.3L474 779.8L475.3 779.8L476.7 780.9L478 802L479.3 778.7L480.7 789.3L482 799.9L483.3 790.8L484.7 801.8L486 802.3L487.3 792.5L488.7 799.1L490 790.5L491.3 790.4L492.7 804.4L494 813.4L495.3 805.8L496.7 813.1L498 790L499.3 802.9L500.7 812L502 812.5L503.3 750L504.7 805.4L506 810.7L507.3 813.7L508.7 816.9L510 805L511.3 816L512.7 807.5L514 814.6L515.3 800.9L516.7 815.1L518 801.5L519.3 799.1L520.7 802L522 807.3L523.3 807.2L524.7 799.6L526 813.3L527.3 810.4L528.7 815.5L530 803.8L531.3 792.2L532.7 715.6L534 781.6L535.3 809.9L536.7 813.1L538 806.6L539.3 806.5L540.7 814.1L542 819.8L543.3 810.8L544.7 815L546 820L547.3 819.1L548.7 816.9L550 811L551.3 815.2L552.7 816.4L554 811L555.3 821.4L556.7 806.4L558 809.9L559.3 812.6L560.7 817.3L562 811.6L563.3 809.5L564.7 812L566 815.2L567.3 807.8L568.7 813.9L570 811.5L571.3 812.1L572.7 802.7L574 791.8L575.3 808.9L576.7 812.3L578 809.5L579.3 812L580.7 808.8L582 805.7L583.3 816.6L584.7 814L586 793.9L587.3 813.6L588.7 808.9L590 816.2L591.3 820.6L592.7 817.4L594 813.4L595.3 813.7L596.7 821.7L598 817L599.3 820.4L600.7 815.8L602 815L603.3 812.3L604.7 817.9L606 822.2L607.3 -3702L608.7 613.6L610 588.2L611.3 559.7L612.7 122.7L614 665.3L615.3 666.2L616.7 711.6L618 454.1L619.3 458.3L620.7 583.8L622 680L623.3 639.1L624.7 716.4L626 760.4L627.3 790.7L628.7 793.7L630 799.5L631.3 799.7L632.7 807.8L634 705.8L635.3 792.1L636.7 803L638 804.2L639.3 805.2L640.7 806.2L642 788.3L643.3 807.3L644.7 759.1L646 798.5L647.3 806.1L648.7 811.6L650 804.2L651.3 808.9L652.7 802L654 810.7L655.3 754.6L656.7 775.1L658 788.8L659.3 802L660.7 780.3L662 815.1L663.3 806.8L664.7 808.9L666 807.8L667.3 793.5L668.7 762.3L670 789.3L671.3 795.4L672.7 792.8L674 802.4L675.3 799.1L676.7 801.1L678 808.1L679.3 777.7L680.7 801.8L682 807.2L683.3 804.1L684.7 814.7L686 803.8L687.3 806.5L688.7 804.7L690 802.8L691.3 797.9L692.7 770.8L694 796.2L695.3 793.4L696.7 800.6L698 806.2L699.3 801.4L700.7 802L702 797.8L703.3 808.8L704.7 793.7L706 793.8L707.3 797.4L708.7 795L710 807.1L711.3 803L712.7 799.6L714 791.4L715.3 807.3L716.7 806.2L718 768.9L719.3 758.9L720.7 786.5L722 810.5L723.3 810.8L724.7 798.6L726 798L727.3 804.2L728.7 808.3L730 806.9L731.3 800.8L732.7 784.7L734 799.9L735.3 796.9L736.7 804.1L738 809.4L739.3 812.7L740.7 799.8L742 807.1L743.3 813.8L744.7 810.1L746 785.5L747.3 808.3L748.7 808.5L750 808.6L751.3 799.1L752.7 793.5L754 803.3L755.3 818.7L756.7 807.7L758 806.8L759.3 782.7L760.7 805.5L762 798.3L763.3 791.4L764.7 803L766 813.7L767.3 806.4L768.7 800.9L770 805.2L771.3 810.6L772.7 806.4L774 790.4L775.3 766.7L776.7 808.9L778 809.2L779.3 808.9L780.7 803.3L782 800.4L783.3 815.6L784.7 807.3L786 807.1L787.3 776.4L788.7 796.7L790 811.3L791.3 805.7L792.7 797.9L794 804L795.3 807.3L796.7 806.4L798 805.9L799.3 807.1L800.7 696.1L802 785.6L803.3 806.9L804.7 802.8L806 800.4L807.3 805.1L808.7 802L810 805.7L811.3 797.1L812.7 798L814 811.3L815.3 773.5L816.7 806.6L818 806.2L819.3 812.6L820.7 811.1L822 811.2L823.3 797.2L824.7 809.4L826 807.3L827.3 810.3L828.7 789.7L830 803.6L831.3 800.7L832.7 812.5L834 792.5L835.3 811.8L836.7 818.6L838 797.8L839.3 804.9L840.7 815.2L842 796.7L843.3 796.7L844.7 797.1L846 801.9L847.3 800.9L848.7 809L850 802L851.3 811.3L852.7 814.8L854 807.4L855.3 808.7L856.7 814.1L858 794.5L859.3 814.3L860.7 815.4L862 809.6L863.3 814.8L864.7 819.8L866 743.9L867.3 798.3L868.7 810.3L870 813.2L871.3 808.3L872.7 809.7L874 813.6L875.3 811L876.7 814.1L878 816.7L879.3 809.6L880.7 814.7L882 809.9L883.3 804.1L884.7 813.1L886 808.5L887.3 814L888.7 812.6L890 815.3L891.3 806.9L892.7 813.1L894 818.5L895.3 817L896.7 806L898 817.8L899.3 809.1L900.7 816.1L902 814.9L903.3 810.9L904.7 818.1L906 813.1L907.3 796.2L908.7 805.7L910 802.9L911.3 816.1L912.7 813.8L914 814.7L915.3 817.7L916.7 815.1L918 814.5L919.3 819.9L920.7 818.9L922 816.8L923.3 815.1L924.7 818.8L926 804.6L927.3 -3742.9L928.7 591.8L930 589.2L931.3 545.7L932.7 130.8L934 653.5L935.3 694.3L936.7 685L938 452.2L939.3 450L940.7 556.9L942 685.5L943.3 677.4L944.7 741.3L946 736.5L947.3 779L948.7 781.3L950 796.7L951.3 804.1L952.7 810.7L954 798.3L955.3 789.7L956.7 771.4L958 805.4L959.3 803.6L960.7 811.8L962 806.3L963.3 805.5L964.7 795.6L966 776.7L967.3 795.1L968.7 812.5L970 807.8L971.3 810L972.7 794.1L974 808.6L975.3 800.6L976.7 782.6L978 784.5L979.3 800.4L980.7 799.7L982 816.7L983.3 794.4L984.7 813.2L986 806.2L987.3 806.2L988.7 753.7L990 793.1L991.3 802.1L992.7 801.5L994 811L995.3 816L996.7 814.9L998 798.1L999.3 802.1L1000.7 782.1L1002 795L1003.3 799.1L1004.7 807.8L1006 813.7L1007.3 814.9L1008.7 807.9L1010 817.2L1011.3 815.9L1012.7 764.9L1014 786.2L1015.3 801.4L1016.7 811.5L1018 795.7L1019.3 801.4L1020.7 802.6L1022 805.4L1023.3 807.3L1024.7 806.4L1026 769.2L1027.3 803.4L1028.7 799.8L1030 802.2L1031.3 792L1032.7 783.9L1034 737.6L1035.3 802L1036.7 806.9L1038 809.4L1039.3 774.5L1040.7 787.6L1042 802.5L1043.3 806.8L1044.7 799L1046 802.1L1047.3 796.4L1048.7 803.1L1050 806.3L1051.3 800L1052.7 786.1L1054 791.1L1055.3 799.8L1056.7 789.8L1058 803.5L1059.3 795.4L1060.7 797.4L1062 803L1063.3 803.8L1064.7 805.3L1066 764.3L1067.3 801.4L1068.7 793.2L1070 791.7L1071.3 808.5L1072.7 803.1L1074 798.7L1075.3 803.6L1076.7 804.8L1078 797.5L1079.3 780.7L1080.7 792L1082 776.5L1083.3 775.6L1084.7 798.5L1086 796.9L1087.3 795.6L1088.7 805.6L1090 813.8L1091.3 744.2L1092.7 780.4L1094 787L1095.3 797.6L1096.7 791.4L1098 782.5L1099.3 808L1100.7 806.2L1102 803.3L1103.3 796.9L1104.7 797.1L1106 779.4L1107.3 787.4L1108.7 785.4L1110 793.8L1111.3 800.7L1112.7 802.7L1114 780.4L1115.3 793.8L1116.7 796.1L1118 752.6L1119.3 784.4L1120.7 797.3L1122 790.5L1123.3 768.2L1124.7 791.9L1126 786.7L1127.3 788.8L1128.7 709.6L1130 773.4L1131.3 792.5L1132.7 793.9L1134 755L1135.3 800.9L1136.7 791L1138 802.5L1139.3 801.3L1140.7 746.9L1142 774.8L1143.3 796.9L1144.7 793.9L1146 796.6L1147.3 801.2L1148.7 794.7L1150 807.8L1151.3 733.7L1152.7 794.6L1154 718.6L1155.3 788.7L1156.7 800.4L1158 804.1L1159.3 803.6L1160.7 800.3L1162 789.8L1163.3 812L1164.7 810.3L1166 798.9L1167.3 811.7L1168.7 796.2L1170 797.3L1171.3 809.8L1172.7 806.8L1174 817.3L1175.3 811.9L1176.7 805.8L1178 812L1179.3 814.3L1180.7 809.5L1182 812.6L1183.3 818.1L1184.7 811.6L1186 814.4L1187.3 814.1L1188.7 817.2L1190 814L1191.3 804.3L1192.7 798.9L1194 798.2L1195.3 812.8L1196.7 811.1L1198 715.9L1199.3 812.8L1200.7 819.1L1202 807.6L1203.3 812.7L1204.7 814.2L1206 814.1L1207.3 809.7L1208.7 816.9L1210 814.8L1211.3 812L1212.7 817L1214 814.7L1215.3 798.2L1216.7 811.3L1218 812.7L1219.3 815.2L1220.7 813.1L1222 813.6L1223.3 814.3L1224.7 820.5L1226 812L1227.3 813.1L1228.7 820.3L1230 705.6L1231.3 790.4L1232.7 802.3L1234 812.1L1235.3 800.5L1236.7 812.8L1238 813.1L1239.3 806.7L1240.7 808.5L1242 817.3L1243.3 806.3L1244.7 811L1246 812.8L1247.3 -3925.5L1248.7 528L1250 542.3L1251.3 500.6L1252.7 -60L1254 645.1L1255.3 648.4L1256.7 717.1L1258 452.5L1259.3 420.9L1260.7 590.2L1262 627.9L1263.3 674.4L1264.7 688.9L1266 709.6L1267.3 768.6L1268.7 766.7L1270 791.1L1271.3 798.4L1272.7 803.4L1274 756.3L1275.3 787.7L1276.7 780.2L1278 788.5L1279.3 792.5L1280.7 796.5L1282 792.6L1283.3 785.3L1284.7 742.9L1286 778.9L1287.3 768.2L1288.7 786.1L1290 796.1L1291.3 798.7L1292.7 709.4L1294 743.3L1295.3 762.1L1296.7 794.8L1298 803.6L1299.3 800.4L1300.7 806.8L1302 810.1L1303.3 796.7L1304.7 763L1306 781.3L1307.3 801.9L1308.7 794.8L1310 807.5L1311.3 806.1L1312.7 798L1314 810L1315.3 761L1316.7 763.1L1318 772.7L1319.3 794.7L1320.7 798.7L1322 807L1323.3 801.9L1324.7 800.4L1326 807.2L1327.3 781.9L1328.7 809.4L1330 806.7L1331.3 813L1332.7 811.1L1334 811.8L1335.3 811.6L1336.7 807.6L1338 803.4L1339.3 802.9L1340.7 792.9L1342 808.1L1343.3 793.2L1344.7 800L1346 807.3L1347.3 804.8L1348.7 803.3L1350 812.7L1351.3 809.4L1352.7 805.3L1354 786.2L1355.3 789.3L1356.7 799.9L1358 812L1359.3 802.5L1360.7 802.7L1362 793.9L1363.3 765L1364.7 801.2L1366 791.9L1367.3 799.7L1368.7 784.6L1370 792.6L1371.3 806.3L1372.7 805.2L1374 803.2L1375.3 808.8L1376.7 817.3L1378 707.4L1379.3 777.5L1380.7 798.2L1382 803.5L1383.3 778.5L1384.7 797.3L1386 786.9L1387.3 799.4L1388.7 805.7L1390 810.3L1391.3 778.6L1392.7 774.6L1394 794.5L1395.3 804.6L1396.7 792.2L1398 790.2L1399.3 803.1L1400.7 812.5L1402 806.7L1403.3 796.7L1404.7 785.4L1406 806.6L1407.3 813.6L1408.7 806.3L1410 783.3L1411.3 805.2L1412.7 811.3L1414 796.5L1415.3 808.4L1416.7 811.6L1418 788L1419.3 793.5L1420.7 807.5L1422 808.6L1423.3 804.5L1424.7 806.2L1426 806.2L1427.3 815.7L1428.7 810.2L1430 810.5L1431.3 773L1432.7 793L1434 804.2L1435.3 800.9L1436.7 808.7L1438 804.7L1439.3 806.5L1440.7 807.6L1442 809.8L1443.3 813.4L1444.7 807.3L1446 783.2L1447.3 751.9L1448.7 793.5L1450 808.5L1451.3 812.1L1452.7 808.6L1454 802.9L1455.3 776.7L1456.7 810.2L1458 806.1L1459.3 768.4L1460.7 800.4L1462 795.2L1463.3 780.1L1464.7 811L1466 814.2L1467.3 811L1468.7 785.6L1470 815.6L1471.3 798.5L1472.7 777.3L1474 769.4L1475.3 791.4L1476.7 808.4L1478 808.2L1479.3 814.6L1480.7 810.7L1482 807.2L1483.3 804.5L1484.7 795.6L1486 654.6L1487.3 788.6L1488.7 792.5L1490 806.2L1491.3 792.3L1492.7 799.2L1494 809.3L1495.3 809L1496.7 814.3L1498 804.9L1499.3 808.4L1500.7 811.3L1502 813.7L1503.3 815.8L1504.7 811.7L1506 809L1507.3 814.5L1508.7 817.3L1510 813.8L1511.3 815.4L1512.7 816.8L1514 792.6L1515.3 800.5L1516.7 810.6L1518 689.5L1519.3 810.2L1520.7 811L1522 816.2L1523.3 815.3L1524.7 814.7L1526 809.3L1527.3 805.8L1528.7 819.8L1530 811.2L1531.3 806.7L1532.7 811.6L1534 815.9L1535.3 812.6L1536.7 806.2L1538 809.9L1539.3 813.6L1540.7 812L1542 816.3L1543.3 809.8L1544.7 816.3L1546 813.1L1547.3 790.3L1548.7 810.8L1550 800.4L1551.3 816.1L1552.7 792.9L1554 803.8L1555.3 811.5L1556.7 813.3L1558 812L1559.3 811.9L1560.7 799.2L1562 815.1L1563.3 813.8L1564.7 811.8L1566 813.1L1567.3 -3832.3L1568.7 573.2L1570 588.9L1571.3 540.9L1572.7 49.8L1574 628.2L1575.3 689L1576.7 703.8L1578 206.5L1579.3 476.8L1580.7 593.3L1582 674.7L1583.3 644.7L1584.7 742.6L1586 755.8L1587.3 795.1L1588.7 784.3L1590 798.7L1591.3 800.1L1592.7 780.2L1594 781.1L1595.3 805.8L1596.7 804.3L1598 808.3L1599.3 794.6L1600.7 809.4L1602 806.2L1603.3 808.7L1604.7 766.9L1606 784.6L1607.3 802L1608.7 807.1L1610 802L1611.3 807L1612.7 805.8L1614 812.4L1615.3 758.7L1616.7 787.7L1618 803.2L1619.3 810.2L1620.7 808.9L1622 802.5L1623.3 799.1L1624.7 798L1626 779.8L1627.3 786.1L1628.7 792.3L1630 768.9L1631.3 806.1L1632.7 806.1L1634 814.3L1635.3 803.7L1636.7 812.6L1638 786.7L1639.3 775.5L1640.7 802.3L1642 809.3L1643.3 810.4L1644.7 807.3L1646 810L1647.3 806L1648.7 798.7L1650 773.1L1651.3 798.7L1652.7 789.4L1654 806.2L1655.3 800L1656.7 796.6L1658 808L1659.3 803L1660.7 810.7L1662 812.1L1663.3 782.9L1664.7 805.5L1666 809.3L1667.3 801.5L1668.7 812.6L1670 808.9L1671.3 804.4L1672.7 817.4L1674 811.9L1675.3 814.9L1676.7 712.8L1678 795.3L1679.3 807.1L1680.7 808.9L1682 799.5L1683.3 801.1L1684.7 802.5L1686 815.9L1687.3 810.4L1688.7 808.1L1690 790.6L1691.3 799.3L1692.7 814.9L1694 797.2L1695.3 797.5L1696.7 810.2L1698 820.8L1699.3 808.3L1700.7 799.5L1702 801.9L1703.3 804.5L1704.7 772.2L1706 800.5L1707.3 779.7L1708.7 803.8L1710 807.1L1711.3 798.5L1712.7 801.5L1714 795.1L1715.3 781.4L1716.7 811.6L1718 798.8L1719.3 793.8L1720.7 803.9L1722 808.2L1723.3 795L1724.7 807.1L1726 817.5L1727.3 789.8L1728.7 808.9L1730 795.4L1731.3 801.3L1732.7 798.4L1734 803.5L1735.3 803.7L1736.7 806.3L1738 810.7L1739.3 814.6L1740.7 802.2L1742 801L1743.3 803.8L1744.7 811L1746 761.5L1747.3 786L1748.7 806.7L1750 805L1751.3 802.5L1752.7 807.3L1754 809L1755.3 805.7L1756.7 807.5L1758 815.1L1759.3 802L1760.7 792.5L1762 808.9L1763.3 808.7L1764.7 805.9L1766 805.8L1767.3 811.3L1768.7 805L1770 801.2L1771.3 812.8L1772.7 807.3L1774 814.4L1775.3 786.2L1776.7 805.1L1778 800.3L1779.3 814.7L1780.7 801.5L1782 806.7L1783.3 804.3L1784.7 816L1786 812.5L1787.3 809.2L1788.7 789.3L1790 792.4L1791.3 807.9L1792.7 804.7L1794 805.8L1795.3 804.6L1796.7 804.5L1798 809.4L1799.3 799.4" fill="transparent" stroke="#6be6c1" stroke-width="3" stroke-linejoin="bevel" class="zr20-cls-62"></path>
</g>
<g clip-path="url(#zr20-c2)">
<path d="M200.7 235.8L202 722.7L203.3 781.4L204.7 754.2L206 793.5L207.3 795L208.7 799.9L210 782.1L211.3 792.5L212.7 785.7L214 787.9L215.3 788.7L216.7 789.9L218 798.3L219.3 806.5L220.7 791.8L222 801.2L223.3 804.5L224.7 740.6L226 793.9L227.3 805L228.7 807.8L230 808L231.3 791.5L232.7 796.2L234 730.3L235.3 811.9L236.7 806.7L238 808.8L239.3 806L240.7 809.6L242 810.3L243.3 807L244.7 810.4L246 808.8L247.3 795.7L248.7 808.3L250 803.7L251.3 799.8L252.7 777.5L254 802.5L255.3 809L256.7 802.5L258 806.9L259.3 808L260.7 782.7L262 784.4L263.3 792.7L264.7 805.1L266 805.3L267.3 805.3L268.7 814.8L270 803.6L271.3 801.2L272.7 805.3L274 811.5L275.3 806.5L276.7 805.3L278 809.3L279.3 803.8L280.7 808.8L282 807.1L283.3 805.4L284.7 804.4L286 778.4L287.3 -4591.5L288.7 415.5L290 469.3L291.3 471.9L292.7 6.6L294 627.3L295.3 654.7L296.7 663.7L298 405.2L299.3 439.1L300.7 561.3L302 622L303.3 673.8L304.7 686.4L306 722.9L307.3 745.9L308.7 756.7L310 793.3L311.3 797.4L312.7 800.1L314 750.8L315.3 794.6L316.7 778.2L318 800.8L319.3 797.2L320.7 803.9L322 795.1L323.3 768.9L324.7 745.8L326 773.1L327.3 784.5L328.7 802.1L330 804.5L331.3 801.5L332.7 733.9L334 673.2L335.3 776.6L336.7 795L338 802L339.3 798.2L340.7 802.5L342 801.5L343.3 804.5L344.7 763.4L346 772.6L347.3 797L348.7 798.7L350 804L351.3 743.2L352.7 805.4L354 753.8L355.3 758.6L356.7 797.2L358 795.1L359.3 802.1L360.7 806.2L362 802L363.3 800.7L364.7 809.2L366 755.2L367.3 778.8L368.7 793.2L370 793.5L371.3 805.2L372.7 809.5L374 799.5L375.3 793.5L376.7 787.9L378 747.3L379.3 770.4L380.7 794.9L382 801.6L383.3 803L384.7 800.1L386 782.1L387.3 801.7L388.7 716.4L390 776L391.3 797.3L392.7 800.3L394 804.1L395.3 814L396.7 799.9L398 806L399.3 804.7L400.7 805.7L402 770.8L403.3 788L404.7 789.3L406 711.7L407.3 800.9L408.7 802.2L410 804.3L411.3 797.5L412.7 805.7L414 749.8L415.3 763.9L416.7 800.3L418 793L419.3 791.5L420.7 799.3L422 807.7L423.3 764.7L424.7 804.1L426 708.2L427.3 784.2L428.7 800.7L430 803.5L431.3 797.1L432.7 797.2L434 799.3L435.3 790.9L436.7 806.2L438 807.4L439.3 761.2L440.7 779.2L442 793.6L443.3 802.7L444.7 797.8L446 799.3L447.3 798.4L448.7 805.3L450 798.3L451.3 803.1L452.7 780.8L454 802L455.3 806.4L456.7 795.7L458 793.5L459.3 805.5L460.7 801.3L462 811.7L463.3 801.3L464.7 742.8L466 769.9L467.3 800.4L468.7 801.1L470 806.5L471.3 797.8L472.7 800.8L474 802.5L475.3 806.7L476.7 806.2L478 717.9L479.3 784.5L480.7 795.2L482 801.1L483.3 802.3L484.7 798.1L486 800.6L487.3 782.2L488.7 802.5L490 802.8L491.3 783.3L492.7 792.5L494 799.9L495.3 803L496.7 801.1L498 797.4L499.3 788.8L500.7 797.8L502 797L503.3 765.6L504.7 790.8L506 792.1L507.3 779.3L508.7 768.6L510 795.7L511.3 793.2L512.7 812.5L514 790L515.3 808.2L516.7 758.5L518 796L519.3 788.9L520.7 789.5L522 800.2L523.3 801.5L524.7 805.2L526 800.2L527.3 804.2L528.7 747.8L530 777.3L531.3 794.1L532.7 800.3L534 804.1L535.3 801.3L536.7 799.6L538 800.3L539.3 807.4L540.7 808.6L542 809.2L543.3 808.9L544.7 812.4L546 802L547.3 809.4L548.7 805L550 804.6L551.3 805.2L552.7 801.5L554 804.6L555.3 804L556.7 800.4L558 807.6L559.3 772.1L560.7 783.7L562 800.9L563.3 806.1L564.7 804.8L566 810.4L567.3 805.2L568.7 805.2L570 803L571.3 804.6L572.7 804.8L574 805.3L575.3 804.1L576.7 808.8L578 809.7L579.3 812.5L580.7 805.7L582 810.4L583.3 811L584.7 804.8L586 785.6L587.3 814.4L588.7 813.2L590 810.4L591.3 802.8L592.7 801.9L594 779.1L595.3 777.7L596.7 805.5L598 799.8L599.3 804.7L600.7 805.9L602 806.5L603.3 808.4L604.7 811.9L606 812.5L607.3 -4278.3L608.7 531.2L610 527.9L611.3 478.8L612.7 -53.7L614 587.5L615.3 679.5L616.7 595.6L618 417.7L619.3 418.6L620.7 573.8L622 688.8L623.3 641.5L624.7 714.4L626 736.1L627.3 786L628.7 733.3L630 778.3L631.3 780.7L632.7 787.2L634 787.1L635.3 795.7L636.7 795.5L638 770.9L639.3 786.3L640.7 787.1L642 793.8L643.3 801.4L644.7 792.1L646 800.9L647.3 752.4L648.7 783.3L650 790.9L651.3 788.8L652.7 795.2L654 798.4L655.3 795.1L656.7 801.3L658 742.9L659.3 789.2L660.7 781.9L662 796.7L663.3 799.8L664.7 803.3L666 792L667.3 802.1L668.7 742.1L670 774.1L671.3 791.9L672.7 796.2L674 798.3L675.3 804.6L676.7 798.9L678 808.3L679.3 771.8L680.7 760.3L682 793.5L683.3 798.3L684.7 794L686 805.6L687.3 799.7L688.7 792.5L690 681.8L691.3 747.5L692.7 777.7L694 799.2L695.3 788.8L696.7 800.3L698 790.9L699.3 807.9L700.7 800.2L702 803.9L703.3 766.5L704.7 795.5L706 797.6L707.3 784.9L708.7 799.7L710 805.2L711.3 754.3L712.7 802.5L714 677.2L715.3 764.2L716.7 775.3L718 783L719.3 799.3L720.7 797.6L722 803.9L723.3 803.2L724.7 798.8L726 801.2L727.3 758.7L728.7 801L730 803.1L731.3 805.9L732.7 793.5L734 807.9L735.3 788.6L736.7 795.3L738 798.2L739.3 805.3L740.7 764.2L742 798L743.3 710.5L744.7 798.2L746 806.4L747.3 798.2L748.7 800.8L750 794.7L751.3 801.8L752.7 800.5L754 783.5L755.3 798.7L756.7 804.6L758 785.1L759.3 768.4L760.7 807.4L762 793.1L763.3 808L764.7 802.6L766 805L767.3 774.2L768.7 785.8L770 804.3L771.3 807.9L772.7 788.8L774 797.2L775.3 797.8L776.7 800.4L778 799.4L779.3 771.3L780.7 779.5L782 794.1L783.3 804.7L784.7 805L786 794L787.3 802L788.7 801L790 806.7L791.3 805.3L792.7 775.2L794 795.7L795.3 790.9L796.7 793.1L798 805L799.3 803.4L800.7 794.2L802 804.3L803.3 801.3L804.7 795.2L806 771.4L807.3 786.5L808.7 780.3L810 789.9L811.3 802.5L812.7 800.8L814 799.1L815.3 789.3L816.7 801.8L818 768.2L819.3 744.3L820.7 795L822 804.6L823.3 806.6L824.7 805.8L826 802.2L827.3 794.6L828.7 791.9L830 799.7L831.3 758L832.7 767.4L834 785.1L835.3 795.5L836.7 789.6L838 800.8L839.3 795.4L840.7 798.5L842 801.6L843.3 786.7L844.7 765.4L846 753.5L847.3 797L848.7 752.9L850 791.6L851.3 797.8L852.7 807.3L854 809.1L855.3 805.7L856.7 803.6L858 806.7L859.3 804.3L860.7 807.7L862 802.5L863.3 811.2L864.7 810.1L866 742.5L867.3 757.5L868.7 771.2L870 803.5L871.3 791.9L872.7 805.2L874 806.9L875.3 806L876.7 810.2L878 792.2L879.3 807.8L880.7 812.2L882 810.7L883.3 806.8L884.7 803.8L886 804.3L887.3 792.3L888.7 813.1L890 809.1L891.3 800L892.7 807.6L894 726L895.3 813.1L896.7 808.9L898 814.5L899.3 808.4L900.7 812L902 788.5L903.3 783.7L904.7 793.6L906 807.1L907.3 808.3L908.7 809.4L910 802L911.3 781.9L912.7 806.8L914 734L915.3 806L916.7 793.4L918 807.9L919.3 808.4L920.7 810.7L922 811.2L923.3 811.3L924.7 796.2L926 808.7L927.3 -4016L928.7 544.2L930 507.7L931.3 491.9L932.7 -217.9L934 616.2L935.3 545.2L936.7 673.2L938 447.7L939.3 356.5L940.7 601.1L942 670.7L943.3 694.1L944.7 739.7L946 768.2L947.3 786.4L948.7 760.2L950 776.9L951.3 792.3L952.7 789L954 794.8L955.3 796.5L956.7 799.3L958 773.7L959.3 798.1L960.7 786.7L962 801.5L963.3 799.1L964.7 802.6L966 806.4L967.3 802.3L968.7 781.9L970 792.6L971.3 802.9L972.7 797.9L974 796.2L975.3 807.8L976.7 804.6L978 806.5L979.3 755.9L980.7 774.1L982 787.8L983.3 806.2L984.7 800L986 794.9L987.3 770.8L988.7 790L990 754.2L991.3 779.5L992.7 791.4L994 794.3L995.3 802L996.7 797.8L998 806.1L999.3 799.3L1000.7 798.7L1002 761.3L1003.3 797.7L1004.7 794.4L1006 800.8L1007.3 800.2L1008.7 805.7L1010 796.4L1011.3 806.6L1012.7 803L1014 784.3L1015.3 771.8L1016.7 802L1018 786L1019.3 803.6L1020.7 800.8L1022 800.8L1023.3 789.2L1024.7 800.9L1026 802L1027.3 768.7L1028.7 789.2L1030 803.1L1031.3 807.2L1032.7 796.2L1034 804.3L1035.3 800L1036.7 790.6L1038 794.5L1039.3 767.9L1040.7 771.1L1042 804.4L1043.3 798.3L1044.7 802.7L1046 800.4L1047.3 795.3L1048.7 798.9L1050 794.2L1051.3 804.6L1052.7 778.4L1054 789.2L1055.3 779.6L1056.7 795.2L1058 799.2L1059.3 801.5L1060.7 803.4L1062 791.8L1063.3 797L1064.7 795.8L1066 768.1L1067.3 743.9L1068.7 792.3L1070 791.7L1071.3 797.6L1072.7 808.9L1074 795L1075.3 800.9L1076.7 802L1078 799.7L1079.3 768.7L1080.7 783L1082 793.5L1083.3 802.9L1084.7 804.7L1086 803.1L1087.3 799.4L1088.7 797.2L1090 802.5L1091.3 791.4L1092.7 772.1L1094 763.2L1095.3 793.5L1096.7 803.5L1098 789.3L1099.3 784.2L1100.7 808.7L1102 806.7L1103.3 789.3L1104.7 794.1L1106 653.1L1107.3 783.6L1108.7 793.1L1110 806.1L1111.3 796.2L1112.7 791.8L1114 702.9L1115.3 789.9L1116.7 771.9L1118 804.1L1119.3 773L1120.7 796L1122 751.2L1123.3 789L1124.7 800.5L1126 803L1127.3 805.4L1128.7 786.6L1130 803.1L1131.3 732.9L1132.7 762.9L1134 774.5L1135.3 801.1L1136.7 797.5L1138 799.1L1139.3 805.2L1140.7 795.7L1142 726.4L1143.3 798.3L1144.7 781.4L1146 794.9L1147.3 804.1L1148.7 800.9L1150 799.4L1151.3 804.2L1152.7 799.9L1154 795.8L1155.3 803.5L1156.7 807.1L1158 778.2L1159.3 790.5L1160.7 802.1L1162 804.2L1163.3 794.6L1164.7 797.8L1166 794.6L1167.3 792.3L1168.7 797.5L1170 794.2L1171.3 788.3L1172.7 788.4L1174 795.8L1175.3 798.2L1176.7 790.9L1178 803.8L1179.3 804.8L1180.7 804.5L1182 805.2L1183.3 798.4L1184.7 808.3L1186 802.5L1187.3 807.3L1188.7 804L1190 806.1L1191.3 798.3L1192.7 799.1L1194 804.4L1195.3 802.7L1196.7 801.8L1198 798.3L1199.3 793L1200.7 799.6L1202 803.7L1203.3 734.6L1204.7 743.5L1206 798.4L1207.3 769.8L1208.7 802.9L1210 812L1211.3 806.1L1212.7 805.8L1214 807.2L1215.3 807.4L1216.7 809.5L1218 809.3L1219.3 807.6L1220.7 808.8L1222 808.6L1223.3 809.4L1224.7 807.1L1226 810L1227.3 807.2L1228.7 808.3L1230 793.2L1231.3 797.7L1232.7 725.4L1234 808.8L1235.3 807.8L1236.7 806.7L1238 802L1239.3 783.6L1240.7 800.4L1242 784.9L1243.3 805.5L1244.7 806L1246 808.5L1247.3 -3745.3L1248.7 544.2L1250 518.2L1251.3 481.4L1252.7 -76.9L1254 608.9L1255.3 666.4L1256.7 623.6L1258 418.3L1259.3 425.1L1260.7 581.3L1262 646L1263.3 640.7L1264.7 705L1266 739.2L1267.3 765L1268.7 747.2L1270 779.4L1271.3 795.8L1272.7 790.1L1274 797.3L1275.3 783.6L1276.7 785.1L1278 719.8L1279.3 761.1L1280.7 788.9L1282 792.9L1283.3 783.9L1284.7 777.6L1286 771.4L1287.3 759.8L1288.7 765.8L1290 774L1291.3 793L1292.7 796.7L1294 811.6L1295.3 803.1L1296.7 800.2L1298 796.2L1299.3 743L1300.7 796.6L1302 792.1L1303.3 799.3L1304.7 782.8L1306 797L1307.3 791.9L1308.7 685L1310 761.1L1311.3 795.1L1312.7 795.1L1314 795.8L1315.3 801.2L1316.7 787.5L1318 793.4L1319.3 791.7L1320.7 788.7L1322 785.4L1323.3 794.9L1324.7 799.9L1326 798.2L1327.3 790.7L1328.7 797.2L1330 802.5L1331.3 802.1L1332.7 784.6L1334 796.3L1335.3 795.9L1336.7 729.4L1338 803.1L1339.3 806.2L1340.7 809.5L1342 797.1L1343.3 800.4L1344.7 708.7L1346 791.2L1347.3 795.3L1348.7 782L1350 801.9L1351.3 803.5L1352.7 803.1L1354 786.9L1355.3 794.7L1356.7 799.9L1358 786.7L1359.3 779.1L1360.7 656.3L1362 793.4L1363.3 769.7L1364.7 792.8L1366 790.8L1367.3 800.1L1368.7 802.2L1370 786.2L1371.3 774.7L1372.7 798.6L1374 806.8L1375.3 794.8L1376.7 804.6L1378 789.5L1379.3 734.2L1380.7 804.9L1382 769L1383.3 797.4L1384.7 808.2L1386 802.4L1387.3 803.3L1388.7 804.6L1390 798.7L1391.3 801.2L1392.7 803.4L1394 794.6L1395.3 778.7L1396.7 789.6L1398 782.9L1399.3 796.4L1400.7 799.3L1402 800.9L1403.3 786L1404.7 802.9L1406 799.4L1407.3 787.1L1408.7 802.7L1410 679.5L1411.3 805.5L1412.7 808.1L1414 804L1415.3 790.7L1416.7 791.8L1418 813.2L1419.3 736.6L1420.7 779.9L1422 799.6L1423.3 798.2L1424.7 804.4L1426 791.9L1427.3 791.5L1428.7 787.3L1430 798.2L1431.3 800.5L1432.7 765.4L1434 797.4L1435.3 801.9L1436.7 804.1L1438 801.5L1439.3 803.8L1440.7 799.7L1442 756.3L1443.3 789.1L1444.7 805.7L1446 786.2L1447.3 790.9L1448.7 798.8L1450 797.6L1451.3 799.1L1452.7 788L1454 793.9L1455.3 783L1456.7 787.2L1458 793.1L1459.3 778.5L1460.7 792.6L1462 800.7L1463.3 795.6L1464.7 805.3L1466 804.3L1467.3 787.7L1468.7 800.4L1470 798.3L1471.3 792.7L1472.7 806.3L1474 793.2L1475.3 799L1476.7 792.1L1478 781.7L1479.3 798.8L1480.7 803.8L1482 799.5L1483.3 798.2L1484.7 789.8L1486 785.9L1487.3 811.3L1488.7 807.3L1490 799.4L1491.3 803.2L1492.7 792.6L1494 797.2L1495.3 789.1L1496.7 795.4L1498 804.8L1499.3 802.3L1500.7 811L1502 815.8L1503.3 807.9L1504.7 787.4L1506 803L1507.3 808.7L1508.7 805.7L1510 799.9L1511.3 806L1512.7 815.6L1514 798.3L1515.3 810.4L1516.7 809.7L1518 813.2L1519.3 807L1520.7 810.9L1522 803.3L1523.3 804.6L1524.7 805.1L1526 799.4L1527.3 810L1528.7 794.4L1530 805.2L1531.3 790.7L1532.7 807.5L1534 799.4L1535.3 806.4L1536.7 808.2L1538 811.9L1539.3 777.1L1540.7 787L1542 796.4L1543.3 795.9L1544.7 809.4L1546 803.5L1547.3 808L1548.7 808L1550 805.6L1551.3 784.6L1552.7 806.2L1554 733.5L1555.3 810.2L1556.7 810.5L1558 811.3L1559.3 811.5L1560.7 809.4L1562 809.1L1563.3 793.9L1564.7 805.9L1566 798.8L1567.3 -3900.3L1568.7 514.4L1570 447.8L1571.3 502.5L1572.7 -44.1L1574 629.8L1575.3 675.5L1576.7 700.1L1578 437L1579.3 432.8L1580.7 534.4L1582 658.8L1583.3 688.5L1584.7 710.5L1586 735.8L1587.3 772.4L1588.7 785.6L1590 785.5L1591.3 781.3L1592.7 745.9L1594 754L1595.3 796.3L1596.7 798.7L1598 800.7L1599.3 800.3L1600.7 787.2L1602 791.3L1603.3 768.1L1604.7 760.2L1606 754L1607.3 798L1608.7 796.4L1610 786.7L1611.3 796.5L1612.7 741.7L1614 763.7L1615.3 800L1616.7 803.7L1618 793.8L1619.3 802.7L1620.7 799.8L1622 795.9L1623.3 799.3L1624.7 767.7L1626 788.5L1627.3 791L1628.7 796.1L1630 804.6L1631.3 801.4L1632.7 785.6L1634 769.3L1635.3 752.8L1636.7 802.7L1638 791.2L1639.3 796.4L1640.7 802L1642 800.7L1643.3 796.7L1644.7 798.2L1646 785.6L1647.3 796.5L1648.7 800.4L1650 791.4L1651.3 796.4L1652.7 799.8L1654 800.1L1655.3 791.2L1656.7 757.1L1658 794.6L1659.3 787.6L1660.7 796.7L1662 804.6L1663.3 804L1664.7 804.3L1666 803.9L1667.3 786.7L1668.7 795.1L1670 778.8L1671.3 791.4L1672.7 794.3L1674 802.7L1675.3 810.9L1676.7 805L1678 800.4L1679.3 795.2L1680.7 806.2L1682 799.3L1683.3 772.2L1684.7 783.6L1686 802L1687.3 803.8L1688.7 807.1L1690 787.2L1691.3 791.2L1692.7 768.1L1694 788.8L1695.3 778.5L1696.7 794.1L1698 669.5L1699.3 804.2L1700.7 807.6L1702 804.1L1703.3 797.4L1704.7 791.4L1706 801.8L1707.3 803.2L1708.7 787.8L1710 789.6L1711.3 798.2L1712.7 789.7L1714 797.7L1715.3 798L1716.7 794.1L1718 793.3L1719.3 783.6L1720.7 781.2L1722 797.2L1723.3 805.7L1724.7 797.8L1726 799.3L1727.3 799.3L1728.7 805.3L1730 800.8L1731.3 795.9L1732.7 805L1734 774L1735.3 795.1L1736.7 806.7L1738 768.8L1739.3 803.9L1740.7 793L1742 787L1743.3 791.8L1744.7 800.3L1746 777.2L1747.3 784L1748.7 781.6L1750 793.6L1751.3 800.7L1752.7 787.7L1754 802.5L1755.3 797.2L1756.7 796.8L1758 803.4L1759.3 778.1L1760.7 780.2L1762 782.2L1763.3 807.5L1764.7 803.6L1766 808.5L1767.3 791L1768.7 792.5L1770 791.7L1771.3 808.5L1772.7 777.2L1774 787.1L1775.3 793.1L1776.7 796.2L1778 801.1L1779.3 807.5L1780.7 801.3L1782 794.8L1783.3 796.2L1784.7 802.7L1786 769.8L1787.3 794.3L1788.7 788.8L1790 795.4L1791.3 791.9L1792.7 802.4L1794 793.5L1795.3 798.5L1796.7 807.4L1798 806.8L1799.3 741.1" fill="transparent" stroke="#626c91" stroke-width="3" stroke-linejoin="bevel" class="zr20-cls-62"></path>
</g>
<path d="M-229 -5l458 0l0 28l-458 0Z" transform="translate(1000 5)" fill="rgb(0,0,0)" fill-opacity="0" stroke="#ccc" stroke-width="0" class="zr20-cls-60"></path>
<text dominant-baseline="central" text-anchor="middle" style="font-size:18px;font-family:sans-serif;font-weight:bold;" xml:space="preserve" y="9" transform="translate(1000 5)" fill="#666666">controlBehaviorUpdate per Tick for bench_4_every_240</text>
<defs >
<clipPath id="zr20-c0">
<path d="M198 58.5l16004 0l0 8703l-16004 0Z" fill="#000" class="zr20-cls-61"></path>
</clipPath>
<clipPath id="zr20-c1">
<path d="M198 58.5l16004 0l0 8703l-16004 0Z" fill="#000" class="zr20-cls-61"></path>
</clipPath>
<clipPath id="zr20-c2">
<path d="M198 58.5l16004 0l0 8703l-16004 0Z" fill="#000" class="zr20-cls-61"></path>
</clipPath>
</defs>
<style ><![CDATA[
.zr20-cls-60:hover {
pointer-events:none;
}
.zr20-cls-61:hover {
cursor:pointer;
fill:rgba(0,0,0,1);
}
.zr20-cls-62:hover {
cursor:pointer;
}

]]>

</style>
</svg>