<svg width="2000" height="1000" xmlns="http://www.w3.org/2000/svg" xmlns:xlink="http://www.w3.org/1999/xlink" version="1.1" baseProfile="full" viewBox="0 0 2000 1000">
<rect width="2000" height="1000" x="0" y="0" fill="rgb(252,252,252)" fill-opacity="0"></rect>
<path d="M200 930.5L1800 930.5" fill="transparent" stroke="#eeeeee" class="zr38-cls-114"></path>
<path d="M200 743.5L1800 743.5" fill="transparent" stroke="#eeeeee" class="zr38-cls-114"></path>
<path d="M200 556.5L1800 556.5" fill="transparent" stroke="#eeeeee" class="zr38-cls-114"></path>
<path d="M200 370.5L1800 370.5" fill="transparent" stroke="#eeeeee" class="zr38-cls-114"></path>
<path d="M200 183.5L1800 183.5" fill="transparent" stroke="#eeeeee" class="zr38-cls-114"></path>
<path d="M200 60.5L1800 60.5" fill="transparent" stroke="#eeeeee" class="zr38-cls-114"></path>
<path d="M200.5 930L200.5 60" fill="transparent" stroke="#cccccc" stroke-linecap="round" class="zr38-cls-114"></path>
<text dominant-baseline="central" text-anchor="middle" style="font-size:12px;font-family:sans-serif;" xml:space="preserve" y="-6" transform="translate(200 45)" fill="#cccccc">entityUpdate Time (ms)</text>
<path d="M200 930.5L1800 930.5" fill="transparent" stroke="#cccccc" stroke-linecap="round" class="zr38-cls-114"></path>
<text dominant-baseline="central" text-anchor="end" style="font-size:12px;font-family:sans-serif;" transform="translate(192 930)" fill="#999999">0.000</text>
<text dominant-baseline="central" text-anchor="end" style="font-size:12px;font-family:sans-serif;" transform="translate(192 743.2702)" fill="#999999">1.000</text>
<text dominant-baseline="central" text-anchor="end" style="font-size:12px;font-family:sans-serif;" transform="translate(192 556.5403)" fill="#999999">2.000</text>
<text dominant-baseline="central" text-anchor="end" style="font-size:12px;font-family:sans-serif;" transform="translate(192 369.8105)" fill="#999999">3.000</text>
<text dominant-baseline="central" text-anchor="end" style="font-size:12px;font-family:sans-serif;" transform="translate(192 183.0807)" fill="#999999">4.000</text>
<text dominant-baseline="central" text-anchor="end" style="font-size:12px;font-family:sans-serif;" transform="translate(192 60)" fill="#999999">4.659</text>
<text dominant-baseline="central" text-anchor="middle" style="font-size:12px;font-family:sans-serif;" y="6" transform="translate(200.6667 938)" fill="#999999">0</text>
<text dominant-baseline="central" text-anchor="middle" style="font-size:12px;font-family:sans-serif;" y="6" transform="translate(236.6667 938)" fill="#999999">27</text>
<text dominant-baseline="central" text-anchor="middle" style="font-size:12px;font-family:sans-serif;" y="6" transform="translate(272.6667 938)" fill="#999999">54</text>
<text dominant-baseline="central" text-anchor="middle" style="font-size:12px;font-family:sans-serif;" y="6" transform="translate(308.6667 938)" fill="#999999">81</text>
<text dominant-baseline="central" text-anchor="middle" style="font-size:12px;font-family:sans-serif;" y="6" transform="translate(344.6667 938)" fill="#999999">108</text>
<text dominant-baseline="central" text-anchor="middle" style="font-size:12px;font-family:sans-serif;" y="6" transform="translate(380.6667 938)" fill="#999999">135</text>
<text dominant-baseline="central" text-anchor="middle" style="font-size:12px;font-family:sans-serif;" y="6" transform="translate(416.6667 938)" fill="#999999">162</text>
<text dominant-baseline="central" text-anchor="middle" style="font-size:12px;font-family:sans-serif;" y="6" transform="translate(452.6667 938)" fill="#999999">189</text>
<text dominant-baseline="central" text-anchor="middle" style="font-size:12px;font-family:sans-serif;" y="6" transform="translate(488.6667 938)" fill="#999999">216</text>
<text dominant-baseline="central" text-anchor="middle" style="font-size:12px;font-family:sans-serif;" y="6" transform="translate(524.6667 938)" fill="#999999">243</text>
<text dominant-baseline="central" text-anchor="middle" style="font-size:12px;font-family:sans-serif;" y="6" transform="translate(560.6667 938)" fill="#999999">270</text>
<text dominant-baseline="central" text-anchor="middle" style="font-size:12px;font-family:sans-serif;" y="6" transform="translate(596.6667 938)" fill="#999999">297</text>
<text dominant-baseline="central" text-anchor="middle" style="font-size:12px;font-family:sans-serif;" y="6" transform="translate(632.6667 938)" fill="#999999">324</text>
<text dominant-baseline="central" text-anchor="middle" style="font-size:12px;font-family:sans-serif;" y="6" transform="translate(668.6667 938)" fill="#999999">351</text>
<text dominant-baseline="central" text-anchor="middle" style="font-size:12px;font-family:sans-serif;" y="6" transform="translate(704.6667 938)" fill="#999999">378</text>
<text dominant-baseline="central" text-anchor="middle" style="font-size:12px;font-family:sans-serif;" y="6" transform="translate(740.6667 938)" fill="#999999">405</text>
<text dominant-baseline="central" text-anchor="middle" style="font-size:12px;font-family:sans-serif;" y="6" transform="translate(776.6667 938)" fill="#999999">432</text>
<text dominant-baseline="central" text-anchor="middle" style="font-size:12px;font-family:sans-serif;" y="6" transform="translate(812.6667 938)" fill="#999999">459</text>
<text dominant-baseline="central" text-anchor="middle" style="font-size:12px;font-family:sans-serif;" y="6" transform="translate(848.6667 938)" fill="#999999">486</text>
<text dominant-baseline="central" text-anchor="middle" style="font-size:12px;font-family:sans-serif;" y="6" transform="translate(884.6667 938)" fill="#999999">513</text>
<text dominant-baseline="central" text-anchor="middle" style="font-size:12px;font-family:sans-serif;" y="6" transform="translate(920.6667 938)" fill="#999999">540</text>
<text dominant-baseline="central" text-anchor="middle" style="font-size:12px;font-family:sans-serif;" y="6" transform="translate(956.6667 938)" fill="#999999">567</text>
<text dominant-baseline="central" text-anchor="middle" style="font-size:12px;font-family:sans-serif;" y="6" transform="translate(992.6667 938)" fill="#999999">594</text>
<text dominant-baseline="central" text-anchor="middle" style="font-size:12px;font-family:sans-serif;" y="6" transform="translate(1028.6667 938)" fill="#999999">621</text>
<text dominant-baseline="central" text-anchor="middle" style="font-size:12px;font-family:sans-serif;" y="6" transform="translate(1064.6667 938)" fill="#999999">648</text>
<text dominant-baseline="central" text-anchor="middle" style="font-size:12px;font-family:sans-serif;" y="6" transform="translate(1100.6667 938)" fill="#999999">675</text>
<text dominant-baseline="central" text-anchor="middle" style="font-size:12px;font-family:sans-serif;" y="6" transform="translate(1136.6667 938)" fill="#999999">702</text>
<text dominant-baseline="central" text-anchor="middle" style="font-size:12px;font-family:sans-serif;" y="6" transform="translate(1172.6667 938)" fill="#999999">729</text>
<text dominant-baseline="central" text-anchor="middle" style="font-size:12px;font-family:sans-serif;" y="6" transform="translate(1208.6667 938)" fill="#999999">756</text>
<text dominant-baseline="central" text-anchor="middle" style="font-size:12px;font-family:sans-serif;" y="6" transform="translate(1244.6667 938)" fill="#999999">783</text>
<text dominant-baseline="central" text-anchor="middle" style="font-size:12px;font-family:sans-serif;" y="6" transform="translate(1280.6667 938)" fill="#999999">810</text>
<text dominant-baseline="central" text-anchor="middle" style="font-size:12px;font-family:sans-serif;" y="6" transform="translate(1316.6667 938)" fill="#999999">837</text>
<text dominant-baseline="central" text-anchor="middle" style="font-size:12px;font-family:sans-serif;" y="6" transform="translate(1352.6667 938)" fill="#999999">864</text>
<text dominant-baseline="central" text-anchor="middle" style="font-size:12px;font-family:sans-serif;" y="6" transform="translate(1388.6667 938)" fill="#999999">891</text>
<text dominant-baseline="central" text-anchor="middle" style="font-size:12px;font-family:sans-serif;" y="6" transform="translate(1424.6667 938)" fill="#999999">918</text>
<text dominant-baseline="central" text-anchor="middle" style="font-size:12px;font-family:sans-serif;" y="6" transform="translate(1460.6667 938)" fill="#999999">945</text>
<text dominant-baseline="central" text-anchor="middle" style="font-size:12px;font-family:sans-serif;" y="6" transform="translate(1496.6667 938)" fill="#999999">972</text>
<text dominant-baseline="central" text-anchor="middle" style="font-size:12px;font-family:sans-serif;" y="6" transform="translate(1532.6667 938)" fill="#999999">999</text>
<text dominant-baseline="central" text-anchor="middle" style="font-size:12px;font-family:sans-serif;" y="6" transform="translate(1568.6667 938)" fill="#999999">1026</text>
<text dominant-baseline="central" text-anchor="middle" style="font-size:12px;font-family:sans-serif;" y="6" transform="translate(1604.6667 938)" fill="#999999">1053</text>
<text dominant-baseline="central" text-anchor="middle" style="font-size:12px;font-family:sans-serif;" y="6" transform="translate(1640.6667 938)" fill="#999999">1080</text>
<text dominant-baseline="central" text-anchor="middle" style="font-size:12px;font-family:sans-serif;" y="6" transform="translate(1676.6667 938)" fill="#999999">1107</text>
<text dominant-baseline="central" text-anchor="middle" style="font-size:12px;font-family:sans-serif;" y="6" transform="translate(1712.6667 938)" fill="#999999">1134</text>
<text dominant-baseline="central" text-anchor="middle" style="font-size:12px;font-family:sans-serif;" y="6" transform="translate(1748.6667 938)" fill="#999999">1161</text>
<text dominant-baseline="central" text-anchor="middle" style="font-size:12px;font-family:sans-serif;" y="6" transform="translate(1784.6667 938)" fill="#999999">1188</text>
<g clip-path="url(#zr38-c0)">
<path d="M200.7 801L202 796.3L203.3 866.4L204.7 815.3L206 869.1L207.3 817.9L208.7 868.4L210 834.2L211.3 858.3L212.7 815.6L214 858.2L215.3 836.1L216.7 869.2L218 817L219.3 -2315.9L220.7 361.8L222 844.4L223.3 790.8L224.7 870.4L226 835.9L227.3 871.9L228.7 834.8L230 857.4L231.3 836.4L232.7 871.9L234 836.4L235.3 871.7L236.7 811L238 871.5L239.3 815.7L240.7 858L242 829L243.3 870.4L244.7 836.3L246 871.4L247.3 836.8L248.7 858.7L250 837.4L251.3 871.7L252.7 815.4L254 858.6L255.3 832.9L256.7 869.7L258 836.4L259.3 871.7L260.7 816.6L262 858.8L263.3 836.7L264.7 871.8L266 837.1L267.3 864.1L268.7 829.2L270 870.9L271.3 836.7L272.7 871.4L274 836.2L275.3 871.5L276.7 837.1L278 871.7L279.3 836.5L280.7 858.6L282 834.4L283.3 865.4L284.7 814.7L286 871.5L287.3 836.7L288.7 871.6L290 836.6L291.3 864.8L292.7 836.7L294 871.6L295.3 810.4L296.7 854.2L298 834.3L299.3 -2289.3L300.7 460.3L302 607.5L303.3 615.8L304.7 -4204.7L306 -1722.9L307.3 251.7L308.7 418.2L310 550.2L311.3 802.8L312.7 850L314 835.4L315.3 858.4L316.7 785.3L318 866.9L319.3 834.7L320.7 871.8L322 837L323.3 871.8L324.7 837L326 871.5L327.3 834.1L328.7 869.6L330 832.8L331.3 871.5L332.7 837L334 871.8L335.3 836.7L336.7 872L338 816.9L339.3 866.5L340.7 836.7L342 869L343.3 818.6L344.7 868.9L346 834.8L347.3 847.1L348.7 836.8L350 849.3L351.3 836.9L352.7 871.6L354 836.3L355.3 871.4L356.7 835.1L358 871.3L359.3 836.8L360.7 871.6L362 837.2L363.3 871.9L364.7 836.9L366 871.6L367.3 815.2L368.7 855.7L370 834.8L371.3 858.1L372.7 836L374 871.1L375.3 816L376.7 871.4L378 836.4L379.3 -2279.5L380.7 409.9L382 844.1L383.3 801.2L384.7 863L386 812.9L387.3 871.6L388.7 834.5L390 871.7L391.3 836.4L392.7 871.7L394 824.4L395.3 856.7L396.7 833.2L398 858.1L399.3 815L400.7 871.7L402 836.4L403.3 871.6L404.7 836.6L406 840.5L407.3 818L408.7 869.2L410 836.4L411.3 870L412.7 836.4L414 872L415.3 835.9L416.7 871.7L418 836.9L419.3 871.7L420.7 834.7L422 870.2L423.3 836L424.7 858.2L426 834.9L427.3 870.6L428.7 830.5L430 871.6L431.3 836.4L432.7 871.7L434 821.2L435.3 868.3L436.7 813.3L438 871.5L439.3 836.3L440.7 871.6L442 836.5L443.3 871.3L444.7 815.4L446 871.8L447.3 826.2L448.7 871.2L450 832.8L451.3 870.4L452.7 836.6L454 857.2L455.3 833.2L456.7 870.8L458 836.2L459.3 -2370.4L460.7 407.5L462 825.5L463.3 809.3L464.7 856.5L466 831.3L467.3 871.1L468.7 837.1L470 861.1L471.3 836.2L472.7 858.3L474 813L475.3 870.2L476.7 833.9L478 871.5L479.3 814.8L480.7 871.5L482 837.2L483.3 869.3L484.7 836.7L486 863.1L487.3 824.3L488.7 871.8L490 836.5L491.3 871.9L492.7 836.4L494 871.7L495.3 836.4L496.7 858.4L498 836.6L499.3 871.6L500.7 829L502 868.5L503.3 836.1L504.7 871.3L506 836.8L507.3 871.9L508.7 835.1L510 871.7L511.3 836.4L512.7 871.4L514 834.5L515.3 857.9L516.7 830L518 858.2L519.3 836.6L520.7 864.3L522 836.5L523.3 858.3L524.7 835.9L526 871.7L527.3 824.9L528.7 856.3L530 835.9L531.3 857.7L532.7 836.4L534 871.5L535.3 812.9L536.7 858.4L538 836.2L539.3 -2271.1L540.7 382.1L542 829.2L543.3 806.5L544.7 844L546 805L547.3 865L548.7 830.7L550 868.7L551.3 834.9L552.7 867.4L554 832.6L555.3 870L556.7 833.5L558 869.6L559.3 836.4L560.7 871.7L562 824.5L563.3 861.3L564.7 827.6L566 865.8L567.3 833.5L568.7 869.8L570 819L571.3 867.7L572.7 836.2L574 871.4L575.3 836.4L576.7 871.7L578 831.1L579.3 869.1L580.7 834.5L582 857.7L583.3 836L584.7 865.7L586 837L587.3 869.6L588.7 836.9L590 858.3L591.3 837L592.7 858.2L594 835.3L595.3 871.1L596.7 836.8L598 870.7L599.3 836.5L600.7 871.2L602 836.9L603.3 871.4L604.7 834.6L606 871.8L607.3 815.7L608.7 857.7L610 836.7L611.3 871.3L612.7 831.8L614 871.3L615.3 836.4L616.7 871.1L618 836.2L619.3 -2207.5L620.7 457.5L622 554.3L623.3 552.1L624.7 -4474.4L626 -1675.6L627.3 231.7L628.7 449.4L630 555.2L631.3 799.2L632.7 870.1L634 836.3L635.3 866.3L636.7 828.1L638 871.4L639.3 834.3L640.7 871L642 832.3L643.3 863.6L644.7 824L646 871.6L647.3 836.6L648.7 871.8L650 812.4L651.3 858.6L652.7 834.4L654 871.2L655.3 829.5L656.7 871.4L658 821.7L659.3 871.9L660.7 836.7L662 871.7L663.3 837.2L664.7 871.5L666 837.3L667.3 868.9L668.7 833.6L670 871.5L671.3 836.7L672.7 871.9L674 815.5L675.3 871.4L676.7 830.5L678 871.3L679.3 836.8L680.7 871.6L682 835.3L683.3 869.4L684.7 836.9L686 871.7L687.3 827.2L688.7 857.9L690 836.4L691.3 858.2L692.7 821.3L694 871.2L695.3 835.5L696.7 869.3L698 834.9L699.3 -2266.3L700.7 396.1L702 846.7L703.3 798.9L704.7 866L706 831L707.3 862.8L708.7 833.6L710 870.6L711.3 814.5L712.7 871L714 819.7L715.3 857.6L716.7 813L718 871.4L719.3 814.8L720.7 856L722 834.7L723.3 870.9L724.7 837L726 867.8L727.3 836L728.7 871.7L730 820L731.3 871.9L732.7 819.2L734 870.7L735.3 821.5L736.7 871.3L738 836.7L739.3 871.4L740.7 826.6L742 858.1L743.3 836.8L744.7 871.5L746 812.7L747.3 869.8L748.7 835.3L750 859.6L751.3 835.8L752.7 871.2L754 836.3L755.3 871.3L756.7 834.6L758 871.6L759.3 818.8L760.7 856.2L762 828.6L763.3 864.8L764.7 836.7L766 871.1L767.3 836.6L768.7 871.5L770 837.2L771.3 858.1L772.7 836.4L774 858.4L775.3 835.3L776.7 870.6L778 832.8L779.3 -2225.8L780.7 376.1L782 848.1L783.3 811.3L784.7 850.7L786 805L787.3 848.5L788.7 835.4L790 871.2L791.3 836.4L792.7 871.9L794 835.9L795.3 872L796.7 816.6L798 871L799.3 832.6L800.7 869.9L802 836.5L803.3 871.3L804.7 836.4L806 871.7L807.3 836.6L808.7 872L810 837.1L811.3 867.7L812.7 835.1L814 867.8L815.3 815.2L816.7 871.6L818 837L819.3 871.8L820.7 836.3L822 871.9L823.3 836.7L824.7 871.6L826 816.3L827.3 868.8L828.7 835.4L830 857.7L831.3 823.3L832.7 871.4L834 815.8L835.3 871.8L836.7 836.9L838 871.7L839.3 836.7L840.7 870.3L842 813.4L843.3 857.3L844.7 836.2L846 857.9L847.3 835.9L848.7 871.5L850 815.9L851.3 858L852.7 836.7L854 861.4L855.3 813.4L856.7 870.8L858 836L859.3 -2271.4L860.7 401.3L862 848.1L863.3 804.1L864.7 871.5L866 818.1L867.3 870.3L868.7 835.1L870 871.4L871.3 835.9L872.7 870.5L874 835.8L875.3 871.5L876.7 835.2L878 859.8L879.3 824.9L880.7 870L882 828.7L883.3 871.7L884.7 836.5L886 861.3L887.3 837.2L888.7 871.6L890 836.9L891.3 871.9L892.7 830.7L894 866.9L895.3 836L896.7 871.6L898 836.8L899.3 871.6L900.7 829L902 871.8L903.3 837L904.7 871.7L906 814.4L907.3 869L908.7 835.9L910 871.4L911.3 836.7L912.7 871.7L914 837.1L915.3 871.7L916.7 834.6L918 871.3L919.3 837.1L920.7 854.5L922 827.5L923.3 870.2L924.7 836.2L926 871.3L927.3 822.3L928.7 871.5L930 836.3L931.3 858.7L932.7 827L934 858.4L935.3 822.8L936.7 870.7L938 814.9L939.3 -2250.4L940.7 429.4L942 551.5L943.3 525L944.7 -4162.1L946 -1622.4L947.3 252.5L948.7 452.3L950 599.2L951.3 805.1L952.7 865.9L954 819L955.3 864L956.7 833.2L958 870.1L959.3 835.7L960.7 865.5L962 823.6L963.3 858.5L964.7 837.1L966 871.8L967.3 812L968.7 857.5L970 835.3L971.3 864L972.7 815L974 871.4L975.3 835.9L976.7 871.8L978 837.1L979.3 871.6L980.7 834.5L982 870.9L983.3 836.2L984.7 860.2L986 835.9L987.3 871.7L988.7 837.1L990 871.7L991.3 837.4L992.7 871.7L994 827.9L995.3 869L996.7 826.4L998 871.5L999.3 837L1000.7 871L1002 826.7L1003.3 858.7L1004.7 816.1L1006 871.7L1007.3 836.5L1008.7 863.2L1010 834.9L1011.3 871.3L1012.7 836.2L1014 871.4L1015.3 836.8L1016.7 858L1018 836.7L1019.3 -2356.6L1020.7 381.4L1022 841.2L1023.3 821.3L1024.7 870.6L1026 815.1L1027.3 857.7L1028.7 814.9L1030 871.5L1031.3 814.5L1032.7 869.5L1034 830L1035.3 871.5L1036.7 834.2L1038 871.3L1039.3 814.4L1040.7 871.5L1042 835L1043.3 871.8L1044.7 803.5L1046 866.8L1047.3 832.2L1048.7 870.3L1050 836.1L1051.3 870.9L1052.7 833.2L1054 858.3L1055.3 833.7L1056.7 871.3L1058 836.4L1059.3 868.9L1060.7 835.5L1062 871.3L1063.3 836.8L1064.7 871.6L1066 836.6L1067.3 871.9L1068.7 835L1070 871.7L1071.3 835.2L1072.7 870.9L1074 812.3L1075.3 870.7L1076.7 836.1L1078 870.8L1079.3 835L1080.7 871.5L1082 815.3L1083.3 858.4L1084.7 836.7L1086 858.7L1087.3 834.7L1088.7 870.4L1090 836.8L1091.3 871.3L1092.7 815.6L1094 871.5L1095.3 836.3L1096.7 871.4L1098 836.5L1099.3 -2172.9L1100.7 401.8L1102 842.6L1103.3 804.1L1104.7 851.8L1106 834.6L1107.3 858.4L1108.7 831.5L1110 871.6L1111.3 815L1112.7 828.7L1114 817.7L1115.3 870.9L1116.7 831.3L1118 871L1119.3 819.4L1120.7 871.7L1122 836.4L1123.3 871.8L1124.7 836.1L1126 857.9L1127.3 804.8L1128.7 869.1L1130 835L1131.3 871L1132.7 836.4L1134 871.4L1135.3 836.5L1136.7 872L1138 832.5L1139.3 856.8L1140.7 829.5L1142 869.7L1143.3 814.1L1144.7 859L1146 827.4L1147.3 872L1148.7 837.1L1150 858.5L1151.3 837.2L1152.7 871.5L1154 826.1L1155.3 870.4L1156.7 835.9L1158 870.9L1159.3 823.7L1160.7 871.4L1162 836.4L1163.3 858.4L1164.7 836.6L1166 869.1L1167.3 833.2L1168.7 857.2L1170 835.2L1171.3 870.9L1172.7 818.5L1174 871.1L1175.3 814.5L1176.7 858.4L1178 836.1L1179.3 -2197L1180.7 429.1L1182 836.8L1183.3 821.5L1184.7 871.4L1186 836.3L1187.3 858.9L1188.7 836.2L1190 871.3L1191.3 815.1L1192.7 869.9L1194 832.9L1195.3 871.7L1196.7 826.6L1198 870.7L1199.3 836.5L1200.7 871.6L1202 816.5L1203.3 871.6L1204.7 835L1206 856L1207.3 834.9L1208.7 870.6L1210 820.4L1211.3 871.7L1212.7 836.8L1214 871.6L1215.3 837L1216.7 871.9L1218 837.1L1219.3 871.4L1220.7 832.3L1222 868.2L1223.3 834.3L1224.7 870.8L1226 836.4L1227.3 858.5L1228.7 826.3L1230 859.9L1231.3 815.8L1232.7 871.9L1234 826.9L1235.3 870.5L1236.7 829.7L1238 856.4L1239.3 834.7L1240.7 853.4L1242 820.4L1243.3 868.4L1244.7 817.9L1246 869.1L1247.3 814.5L1248.7 869.4L1250 836.3L1251.3 869.3L1252.7 835.9L1254 858.1L1255.3 835.7L1256.7 871.6L1258 836.5L1259.3 -2357.1L1260.7 414.4L1262 569.1L1263.3 603.7L1264.7 -4292.9L1266 -1632.1L1267.3 250.3L1268.7 500.1L1270 559.4L1271.3 815.2L1272.7 863.1L1274 808.5L1275.3 858.3L1276.7 835L1278 871.3L1279.3 796L1280.7 851.3L1282 814.6L1283.3 871.5L1284.7 836.2L1286 868.7L1287.3 836.1L1288.7 871.9L1290 837.2L1291.3 871.8L1292.7 820.4L1294 867.5L1295.3 835.7L1296.7 871.3L1298 836.6L1299.3 871.8L1300.7 836.8L1302 871.7L1303.3 826L1304.7 871.3L1306 829.7L1307.3 869L1308.7 835.3L1310 868L1311.3 835.7L1312.7 858.5L1314 837L1315.3 857.9L1316.7 824.3L1318 858.2L1319.3 817.9L1320.7 857L1322 835.8L1323.3 858L1324.7 823.6L1326 871.6L1327.3 815.6L1328.7 871.3L1330 836.4L1331.3 871.3L1332.7 835.7L1334 869.8L1335.3 833.5L1336.7 864L1338 836L1339.3 -2311.3L1340.7 384.3L1342 833.9L1343.3 794.6L1344.7 843.7L1346 814.5L1347.3 870.3L1348.7 814.4L1350 871.6L1351.3 814.5L1352.7 871.3L1354 835.3L1355.3 871.9L1356.7 831.4L1358 868.1L1359.3 827.7L1360.7 857.4L1362 833.6L1363.3 871.8L1364.7 836.9L1366 858.3L1367.3 836.9L1368.7 871.9L1370 834.8L1371.3 870.5L1372.7 834.8L1374 871L1375.3 834L1376.7 867.4L1378 836.6L1379.3 871.9L1380.7 836.6L1382 863.8L1383.3 836.7L1384.7 868.5L1386 834.8L1387.3 871.1L1388.7 836.9L1390 871.8L1391.3 836.4L1392.7 858.6L1394 836.8L1395.3 871.7L1396.7 815.5L1398 870.8L1399.3 830.4L1400.7 871.1L1402 836.6L1403.3 871.6L1404.7 836.2L1406 871.9L1407.3 837.1L1408.7 858.1L1410 836.3L1411.3 858.1L1412.7 836.2L1414 871.3L1415.3 835L1416.7 871.4L1418 818.4L1419.3 -2337.5L1420.7 382.7L1422 835.2L1423.3 792.9L1424.7 844L1426 826.7L1427.3 865.1L1428.7 832.2L1430 868.8L1431.3 835L1432.7 870.3L1434 835.2L1435.3 857L1436.7 828.9L1438 868.7L1439.3 834.9L1440.7 863L1442 824.9L1443.3 871.4L1444.7 836.4L1446 858.3L1447.3 816.5L1448.7 869.7L1450 828.4L1451.3 870.4L1452.7 835.9L1454 871.2L1455.3 834.6L1456.7 871.6L1458 836.7L1459.3 872L1460.7 836.9L1462 867.2L1463.3 831.9L1464.7 869.7L1466 827.1L1467.3 857.9L1468.7 835.7L1470 858.5L1471.3 815.4L1472.7 871.9L1474 837.3L1475.3 871.5L1476.7 822L1478 871.2L1479.3 829.4L1480.7 871.3L1482 833.8L1483.3 871.3L1484.7 836.1L1486 871.6L1487.3 837L1488.7 871.6L1490 836L1491.3 868.8L1492.7 834.9L1494 871.3L1495.3 819.9L1496.7 871L1498 815.4L1499.3 -2202.8L1500.7 410.9L1502 844.8L1503.3 807.1L1504.7 860.9L1506 817L1507.3 865L1508.7 835.7L1510 858.4L1511.3 815.6L1512.7 871.8L1514 836.1L1515.3 871.3L1516.7 827.8L1518 869.4L1519.3 825.1L1520.7 871.3L1522 836.5L1523.3 871.4L1524.7 836L1526 871.7L1527.3 836.8L1528.7 865.1L1530 831.6L1531.3 870.6L1532.7 833.1L1534 871.5L1535.3 836.3L1536.7 871.8L1538 837.1L1539.3 858.2L1540.7 835.7L1542 871.3L1543.3 834.9L1544.7 855.5L1546 814.5L1547.3 855.5L1548.7 836.2L1550 871.6L1551.3 815.8L1552.7 871.8L1554 815L1555.3 866.4L1556.7 814.7L1558 869.6L1559.3 836.1L1560.7 871.9L1562 815.5L1563.3 871.7L1564.7 836.3L1566 858.4L1567.3 836L1568.7 871.6L1570 836.7L1571.3 864.6L1572.7 814.1L1574 871L1575.3 826.9L1576.7 857.8L1578 815.1L1579.3 -2277L1580.7 458.2L1582 591.9L1583.3 554.6L1584.7 -4059.4L1586 -1637.7L1587.3 269L1588.7 466L1590 569.3L1591.3 794.3L1592.7 846.4L1594 829.9L1595.3 867.6L1596.7 824.6L1598 857.8L1599.3 835.6L1600.7 871L1602 836.5L1603.3 871.2L1604.7 827.1L1606 857.2L1607.3 835.3L1608.7 871.8L1610 829.9L1611.3 871.3L1612.7 836.4L1614 871.8L1615.3 833.7L1616.7 871.8L1618 836.8L1619.3 869.4L1620.7 835.7L1622 871.5L1623.3 836.5L1624.7 857.8L1626 836.5L1627.3 871.6L1628.7 836.3L1630 871.5L1631.3 816.8L1632.7 871.5L1634 833.6L1635.3 871.3L1636.7 815.1L1638 871.8L1639.3 834.4L1640.7 871.1L1642 815.2L1643.3 871.4L1644.7 815.4L1646 870.2L1647.3 835.6L1648.7 858.1L1650 814.1L1651.3 871.2L1652.7 836.5L1654 871.2L1655.3 836.5L1656.7 864.8L1658 836.7L1659.3 -2297.6L1660.7 402L1662 831.3L1663.3 812.3L1664.7 845.5L1666 812.8L1667.3 859.5L1668.7 814.8L1670 863.6L1671.3 827.3L1672.7 869.4L1674 835.1L1675.3 871.3L1676.7 833.9L1678 861.9L1679.3 835.7L1680.7 871.1L1682 815.5L1683.3 871.6L1684.7 836.7L1686 862.5L1687.3 832.4L1688.7 870.7L1690 836.3L1691.3 871.7L1692.7 837.3L1694 871.6L1695.3 836.6L1696.7 871.7L1698 836.9L1699.3 856.4L1700.7 833.3L1702 870.4L1703.3 836.2L1704.7 871L1706 836.9L1707.3 871.7L1708.7 836.8L1710 871.5L1711.3 837.2L1712.7 867.6L1714 833L1715.3 870.1L1716.7 814.7L1718 857.9L1719.3 816.3L1720.7 858.1L1722 836.9L1723.3 871.4L1724.7 836.3L1726 871.6L1727.3 828.2L1728.7 869.4L1730 832.9L1731.3 870.9L1732.7 836L1734 871.2L1735.3 815.4L1736.7 870.7L1738 836.1L1739.3 -2239.5L1740.7 406.1L1742 844.3L1743.3 804.9L1744.7 852L1746 810.9L1747.3 862.9L1748.7 834L1750 858.4L1751.3 814.2L1752.7 869.6L1754 825L1755.3 860.5L1756.7 835.1L1758 871L1759.3 835.5L1760.7 857.5L1762 826.9L1763.3 871.3L1764.7 831.9L1766 869.4L1767.3 835.5L1768.7 860.8L1770 836.8L1771.3 871.6L1772.7 815.7L1774 871.6L1775.3 834.4L1776.7 871.8L1778 836.8L1779.3 868.6L1780.7 834.7L1782 870.9L1783.3 836.6L1784.7 856.7L1786 814.7L1787.3 871.5L1788.7 836.9L1790 871.6L1791.3 836.2L1792.7 870L1794 834.9L1795.3 870.8L1796.7 836L1798 871.5L1799.3 834.4" fill="transparent" stroke="#3fb1e3" stroke-width="3" stroke-linejoin="bevel" class="zr38-cls-116"></path>
</g>
<g clip-path="url(#zr38-c1)">
<path d="M200.7 800.3L202 804.3L203.3 870.6L204.7 837L206 872.7L207.3 817L208.7 859.5L210 837.3L211.3 872.5L212.7 816.3L214 872.4L215.3 837.5L216.7 859.1L218 835.7L219.3 -2465.6L220.7 387.1L222 842.7L223.3 792.6L224.7 857.3L226 813.7L227.3 870.3L228.7 834.1L230 870.6L231.3 834.6L232.7 871.7L234 836.3L235.3 872L236.7 833.4L238 871.7L239.3 805.9L240.7 870.3L242 836.4L243.3 858.7L244.7 836.4L246 872L247.3 836.5L248.7 871.7L250 837.3L251.3 871.9L252.7 832.9L254 866.3L255.3 834.3L256.7 871.1L258 832.9L259.3 871.9L260.7 816L262 868.8L263.3 836L264.7 871.7L266 836.7L267.3 870.5L268.7 835.2L270 871.5L271.3 836.5L272.7 858.8L274 837L275.3 872L276.7 835.7L278 871.8L279.3 803.1L280.7 866.7L282 833.7L283.3 871.4L284.7 837L286 858.4L287.3 815.4L288.7 858.3L290 831.6L291.3 871.8L292.7 836.3L294 858L295.3 836.7L296.7 871.5L298 836.3L299.3 -2264.6L300.7 463.7L302 588.9L303.3 627.1L304.7 -4201.1L306 -1674.1L307.3 303L308.7 445.4L310 553.5L311.3 802L312.7 857.3L314 836.3L315.3 871.4L316.7 828.6L318 868.2L319.3 835.9L320.7 871.9L322 836.8L323.3 867.1L324.7 837.2L326 872.1L327.3 837L328.7 870.1L330 834.6L331.3 872L332.7 837.1L334 871.9L335.3 815.3L336.7 872.2L338 837L339.3 871.9L340.7 837.4L342 871.9L343.3 830L344.7 871.4L346 835.7L347.3 871.8L348.7 837.3L350 872L351.3 818L352.7 871.8L354 837.3L355.3 862L356.7 803.8L358 857.8L359.3 836.2L360.7 871.5L362 836.9L363.3 861.2L364.7 836.8L366 858.4L367.3 836.8L368.7 858.3L370 816L371.3 869.1L372.7 829L374 858.5L375.3 815.3L376.7 871.4L378 836.7L379.3 -2278.7L380.7 424.2L382 828.2L383.3 795.3L384.7 870.2L386 836L387.3 858.6L388.7 815.7L390 871.6L391.3 836.1L392.7 872.2L394 835.5L395.3 864.5L396.7 833.4L398 869.6L399.3 836.7L400.7 864.2L402 836.8L403.3 872.1L404.7 837.1L406 872L407.3 837.3L408.7 869.4L410 836.1L411.3 858.7L412.7 818.9L414 871.3L415.3 836.6L416.7 872.1L418 815.8L419.3 858.8L420.7 827.9L422 868.1L423.3 831.1L424.7 870L426 836.2L427.3 872.2L428.7 836.4L430 871.8L431.3 836.6L432.7 864.4L434 837.1L435.3 871.9L436.7 813.1L438 870.3L439.3 828.9L440.7 870.4L442 836.3L443.3 872L444.7 836.2L446 872L447.3 836.4L448.7 871.6L450 828.9L451.3 868.1L452.7 833.1L454 871L455.3 818.7L456.7 871.1L458 835.9L459.3 -2299.8L460.7 407.5L462 847.8L463.3 826.3L464.7 871.2L466 813.9L467.3 871.7L468.7 836.9L470 858.7L471.3 836.5L472.7 871.9L474 835.1L475.3 863.7L476.7 830.4L478 869.4L479.3 832.3L480.7 871L482 836.6L483.3 871.9L484.7 837.2L486 872.2L487.3 817.6L488.7 858.1L490 832.4L491.3 868L492.7 814.7L494 871.6L495.3 816L496.7 872.1L498 820.4L499.3 854.8L500.7 836.5L502 870.7L503.3 833.7L504.7 857.7L506 836.1L507.3 871.4L508.7 837.4L510 871.6L511.3 837L512.7 871.7L514 837L515.3 864.2L516.7 812.8L518 870.8L519.3 836.7L520.7 871.8L522 836.9L523.3 871.8L524.7 836.9L526 857.1L527.3 816.1L528.7 871.5L530 815.3L531.3 869.9L532.7 824.2L534 871L535.3 836.1L536.7 871.2L538 836.4L539.3 -2230.4L540.7 381.3L542 832L543.3 804.6L544.7 856.8L546 825.6L547.3 871.2L548.7 814.5L550 870L551.3 836.3L552.7 872.3L554 805.1L555.3 868.4L556.7 810.9L558 867.5L559.3 836L560.7 866.1L562 834.2L563.3 871.8L564.7 836.7L566 872.2L567.3 836.7L568.7 854.4L570 835.2L571.3 869.5L572.7 836.8L574 870.4L575.3 836.8L576.7 871.6L578 815.8L579.3 871.7L580.7 837.5L582 864L583.3 834.3L584.7 871.1L586 829.4L587.3 871.4L588.7 836.5L590 871.9L591.3 837.3L592.7 858.4L594 836.9L595.3 859.2L596.7 834.6L598 871.8L599.3 837.1L600.7 872L602 836.9L603.3 871.6L604.7 815.7L606 865.3L607.3 835.4L608.7 858.3L610 814.8L611.3 870.5L612.7 829.3L614 871.8L615.3 836.7L616.7 870.1L618 834L619.3 -2214L620.7 472.5L622 552.8L623.3 562.9L624.7 -4177.7L626 -1633.3L627.3 245.1L628.7 449L630 585.5L631.3 828.4L632.7 856.8L634 811.9L635.3 871L636.7 834.3L638 871.6L639.3 814.7L640.7 865.5L642 815.1L643.3 871.9L644.7 832.5L646 850.4L647.3 835.3L648.7 871.3L650 834.6L651.3 858.7L652.7 836.8L654 872L655.3 818.8L656.7 872.3L658 837.2L659.3 856.5L660.7 833.5L662 871.3L663.3 835.7L664.7 871.6L666 836.7L667.3 871.9L668.7 823.8L670 858.7L671.3 837.3L672.7 862.2L674 823L675.3 857L676.7 836.8L678 858.6L679.3 836.9L680.7 872L682 837.1L683.3 871.8L684.7 815.2L686 857.8L687.3 833.7L688.7 866.5L690 836.6L691.3 858.4L692.7 836.2L694 871.8L695.3 836.7L696.7 871.8L698 815.9L699.3 -2253.9L700.7 338.5L702 842L703.3 791.2L704.7 850.3L706 803.9L707.3 859.4L708.7 831.4L710 868.3L711.3 818.3L712.7 867.3L714 834.9L715.3 871.6L716.7 834.6L718 869.9L719.3 835.6L720.7 871.8L722 815.5L723.3 871.9L724.7 830.6L726 869.2L727.3 827.1L728.7 870.6L730 833.7L731.3 871.4L732.7 836.4L734 860.1L735.3 816.4L736.7 864.6L738 833.8L739.3 870.9L740.7 836.4L742 871.7L743.3 832.4L744.7 871.4L746 836.8L747.3 872.1L748.7 837L750 871.5L751.3 834.4L752.7 870.4L754 835.5L755.3 871.6L756.7 836.7L758 871.7L759.3 837.1L760.7 871.8L762 837L763.3 871.6L764.7 806.6L766 869.5L767.3 835.6L768.7 871.6L770 813.3L771.3 871.2L772.7 833.6L774 871.4L775.3 837L776.7 871.7L778 813.4L779.3 -2327L780.7 367.5L782 832.9L783.3 807.2L784.7 855.5L786 831.6L787.3 857.1L788.7 835.8L790 871.5L791.3 834.4L792.7 869.5L794 835.4L795.3 871.8L796.7 833.8L798 871.2L799.3 835.4L800.7 868.5L802 828.5L803.3 871.2L804.7 834.5L806 870.9L807.3 815.1L808.7 859.3L810 836.7L811.3 858.6L812.7 836.9L814 871.8L815.3 837.1L816.7 858.6L818 825.6L819.3 870.8L820.7 815.5L822 871.3L823.3 836.2L824.7 863.1L826 835.6L827.3 872L828.7 836.4L830 840.3L831.3 830.6L832.7 869.3L834 835.2L835.3 871.8L836.7 837.2L838 872L839.3 836.9L840.7 871.4L842 814.6L843.3 871.5L844.7 819.1L846 869.1L847.3 836.4L848.7 858.7L850 836.5L851.3 871.6L852.7 815.2L854 871.5L855.3 835.7L856.7 860.4L858 836.2L859.3 -2198.3L860.7 404.5L862 844.6L863.3 804L864.7 865L866 831.7L867.3 868.5L868.7 836.1L870 858.7L871.3 835.1L872.7 869.6L874 815.4L875.3 871.9L876.7 835L878 871.8L879.3 836.5L880.7 872.3L882 837.5L883.3 858.3L884.7 834L886 871.1L887.3 811.9L888.7 871.4L890 837L891.3 872.3L892.7 837L894 872.1L895.3 837.8L896.7 872.3L898 831.2L899.3 871.4L900.7 834L902 872L903.3 825.9L904.7 871.8L906 815.8L907.3 872L908.7 837L910 872.1L911.3 835.3L912.7 871L914 834.7L915.3 871.2L916.7 815.8L918 862.6L919.3 836.2L920.7 871.7L922 815.4L923.3 863.8L924.7 836.1L926 870.7L927.3 833.4L928.7 871.5L930 836.7L931.3 871.6L932.7 836.8L934 871.8L935.3 836.7L936.7 871.8L938 815.9L939.3 -2197.2L940.7 419L942 538L943.3 527.6L944.7 -4566.7L946 -1782.9L947.3 312L948.7 516.6L950 565.1L951.3 816.7L952.7 840.6L954 833.9L955.3 871.6L956.7 803.3L958 863.5L959.3 835.9L960.7 872.3L962 815.8L963.3 872L964.7 815.7L966 858.6L967.3 815.5L968.7 869.3L970 834.6L971.3 871.2L972.7 836.3L974 868.4L975.3 837L976.7 869.7L978 836.7L979.3 872.1L980.7 836.9L982 871.6L983.3 833.1L984.7 869.1L986 815.4L987.3 872L988.7 837L990 872.1L991.3 836.6L992.7 869.6L994 816.1L995.3 858.9L996.7 834.6L998 870.7L999.3 836.3L1000.7 856L1002 834.3L1003.3 871.8L1004.7 837L1006 871.1L1007.3 835.6L1008.7 871.3L1010 827.6L1011.3 869.1L1012.7 834.5L1014 871.1L1015.3 819.8L1016.7 865.2L1018 815L1019.3 -2337.5L1020.7 355.5L1022 810.6L1023.3 804.2L1024.7 852.8L1026 800.2L1027.3 850L1028.7 833.2L1030 857.3L1031.3 819L1032.7 869.1L1034 826.6L1035.3 858.4L1036.7 833L1038 871.2L1039.3 836.7L1040.7 872.1L1042 836.9L1043.3 871.7L1044.7 836.9L1046 871.9L1047.3 833.9L1048.7 870.5L1050 836L1051.3 872.4L1052.7 837.1L1054 869.9L1055.3 825.5L1056.7 872.3L1058 836.6L1059.3 858.3L1060.7 811.9L1062 869.9L1063.3 835.1L1064.7 862.1L1066 835.9L1067.3 871.6L1068.7 836.1L1070 871.6L1071.3 815.3L1072.7 863.5L1074 812.1L1075.3 870.2L1076.7 836.1L1078 869.3L1079.3 837L1080.7 858.7L1082 836.4L1083.3 871.7L1084.7 837.4L1086 872.1L1087.3 815.2L1088.7 869.7L1090 836.6L1091.3 871.7L1092.7 836.6L1094 858.9L1095.3 828.9L1096.7 858.3L1098 836.3L1099.3 -2291.7L1100.7 410.6L1102 839.5L1103.3 819.3L1104.7 863.9L1106 826.7L1107.3 861.6L1108.7 836.3L1110 872L1111.3 836.1L1112.7 863.7L1114 813L1115.3 870.9L1116.7 834L1118 869.5L1119.3 834.8L1120.7 870.8L1122 836.3L1123.3 871.9L1124.7 836.1L1126 868.6L1127.3 828.3L1128.7 871.4L1130 836.8L1131.3 872L1132.7 834.6L1134 871.8L1135.3 837.6L1136.7 872.3L1138 836.9L1139.3 858.7L1140.7 831.6L1142 870.3L1143.3 833.9L1144.7 860.4L1146 836.5L1147.3 872.1L1148.7 837.5L1150 872L1151.3 836.9L1152.7 871.8L1154 833.9L1155.3 866.8L1156.7 833.8L1158 858.5L1159.3 836.9L1160.7 871.7L1162 816.1L1163.3 871.5L1164.7 837.1L1166 871.9L1167.3 816.4L1168.7 870.2L1170 834.1L1171.3 871L1172.7 836.7L1174 871.7L1175.3 827.6L1176.7 871.3L1178 829.2L1179.3 -2199L1180.7 411.6L1182 837.2L1183.3 813.7L1184.7 860.7L1186 827.5L1187.3 853.6L1188.7 833L1190 869.6L1191.3 835L1192.7 860.2L1194 819.5L1195.3 871.5L1196.7 834.8L1198 871L1199.3 822.9L1200.7 863.3L1202 815.1L1203.3 871.6L1204.7 814.7L1206 840.5L1207.3 811.9L1208.7 870.5L1210 819.8L1211.3 871.6L1212.7 834.5L1214 856.8L1215.3 835.3L1216.7 871.6L1218 837L1219.3 871.8L1220.7 834.7L1222 870.9L1223.3 836.5L1224.7 872L1226 836.7L1227.3 872.2L1228.7 837.1L1230 857.2L1231.3 835.4L1232.7 871.6L1234 821.4L1235.3 864.5L1236.7 828.1L1238 870.8L1239.3 816.2L1240.7 871.2L1242 837L1243.3 872L1244.7 837.4L1246 858.3L1247.3 837.4L1248.7 871.1L1250 833.6L1251.3 871L1252.7 819.7L1254 871.4L1255.3 832.8L1256.7 871.1L1258 836.6L1259.3 -2220.3L1260.7 450.3L1262 539.7L1263.3 572.1L1264.7 -4511.9L1266 -1630.9L1267.3 264.3L1268.7 545L1270 578.4L1271.3 807.1L1272.7 857.5L1274 813.5L1275.3 872.1L1276.7 833.5L1278 871.8L1279.3 836.1L1280.7 872.1L1282 834.5L1283.3 868.4L1284.7 828.7L1286 872.3L1287.3 836.9L1288.7 868.4L1290 836.7L1291.3 871.9L1292.7 836.8L1294 872.3L1295.3 814.8L1296.7 855.8L1298 836.5L1299.3 869.5L1300.7 836.2L1302 872.3L1303.3 820.2L1304.7 858.5L1306 837.7L1307.3 858.7L1308.7 815.1L1310 870L1311.3 833.4L1312.7 871.9L1314 835.7L1315.3 871.5L1316.7 836.5L1318 872L1319.3 832.1L1320.7 858.5L1322 836.5L1323.3 845.1L1324.7 819.8L1326 871.5L1327.3 818.9L1328.7 871.7L1330 834.8L1331.3 869.8L1332.7 836.8L1334 871.9L1335.3 837L1336.7 864.7L1338 835.4L1339.3 -2310.3L1340.7 365.3L1342 833.8L1343.3 814.8L1344.7 855.7L1346 813.9L1347.3 858.9L1348.7 834.1L1350 871.9L1351.3 815.4L1352.7 871.7L1354 835.8L1355.3 872L1356.7 835.2L1358 872L1359.3 836.7L1360.7 871.1L1362 826.4L1363.3 858.7L1364.7 836.5L1366 872.1L1367.3 836.1L1368.7 863.4L1370 824.9L1371.3 872.3L1372.7 837.6L1374 871.2L1375.3 822.9L1376.7 871.8L1378 836.7L1379.3 872.2L1380.7 837.4L1382 872.1L1383.3 836.9L1384.7 870.1L1386 837L1387.3 872.2L1388.7 827.9L1390 869.5L1391.3 832.8L1392.7 857.8L1394 816.6L1395.3 871.5L1396.7 834.4L1398 872.2L1399.3 836.8L1400.7 871.9L1402 833.5L1403.3 870.1L1404.7 836.4L1406 872L1407.3 837L1408.7 858.6L1410 813.3L1411.3 858.4L1412.7 817.8L1414 863.5L1415.3 822.7L1416.7 857.5L1418 835.9L1419.3 -2320.2L1420.7 372.9L1422 846.7L1423.3 826.3L1424.7 872L1426 836.6L1427.3 872L1428.7 835.1L1430 871.9L1431.3 836.3L1432.7 871.8L1434 836.2L1435.3 871.6L1436.7 834.5L1438 871.8L1439.3 836.4L1440.7 859.5L1442 833.5L1443.3 871.5L1444.7 836.8L1446 871.9L1447.3 837.6L1448.7 872.5L1450 837.2L1451.3 871.9L1452.7 827L1454 872L1455.3 834.6L1456.7 872L1458 837.2L1459.3 871.7L1460.7 837.2L1462 872.3L1463.3 836.4L1464.7 872.1L1466 837.1L1467.3 872.3L1468.7 837.2L1470 870.5L1471.3 837.4L1472.7 872.1L1474 836.9L1475.3 859.2L1476.7 814.5L1478 871.7L1479.3 837.2L1480.7 871.8L1482 836.9L1483.3 864.3L1484.7 820.9L1486 871.4L1487.3 836.4L1488.7 858.5L1490 835L1491.3 871.6L1492.7 837.2L1494 859.1L1495.3 829.3L1496.7 871.9L1498 816.7L1499.3 -2194.1L1500.7 384.2L1502 834.8L1503.3 814.2L1504.7 845.6L1506 806.4L1507.3 871.5L1508.7 836.4L1510 871.1L1511.3 831.4L1512.7 870.9L1514 836.1L1515.3 872L1516.7 834.8L1518 871.9L1519.3 836.5L1520.7 871.7L1522 815.7L1523.3 854.7L1524.7 832.8L1526 858.6L1527.3 836.9L1528.7 872.3L1530 837.1L1531.3 871.7L1532.7 837.1L1534 871.3L1535.3 815L1536.7 869.5L1538 834.5L1539.3 867L1540.7 836.6L1542 871.8L1543.3 836.9L1544.7 869.6L1546 837.1L1547.3 872.2L1548.7 837L1550 867.7L1551.3 834L1552.7 871.7L1554 815.1L1555.3 872L1556.7 836.9L1558 864.3L1559.3 836.4L1560.7 872.1L1562 836.8L1563.3 870.2L1564.7 815.1L1566 869.8L1567.3 835.7L1568.7 859.5L1570 833.5L1571.3 871.8L1572.7 836.6L1574 871.7L1575.3 831.6L1576.7 871.8L1578 806.7L1579.3 -2241.5L1580.7 440.3L1582 544.9L1583.3 551L1584.7 -4310.3L1586 -1660.1L1587.3 263.8L1588.7 393.7L1590 480.5L1591.3 814.6L1592.7 853.9L1594 815L1595.3 858.7L1596.7 816.2L1598 869.1L1599.3 813.9L1600.7 871.2L1602 837.1L1603.3 858.9L1604.7 815.2L1606 859.1L1607.3 835.7L1608.7 871.5L1610 829.5L1611.3 870.8L1612.7 836.1L1614 871.9L1615.3 821.2L1616.7 872.3L1618 836.7L1619.3 872.2L1620.7 815.3L1622 858.9L1623.3 828.3L1624.7 870L1626 836.9L1627.3 858.6L1628.7 836.3L1630 871.7L1631.3 837.3L1632.7 872L1634 834.7L1635.3 871.2L1636.7 834.3L1638 870.8L1639.3 814.8L1640.7 871.1L1642 837.1L1643.3 871.7L1644.7 837.2L1646 863.7L1647.3 822.8L1648.7 871.7L1650 836.9L1651.3 870.2L1652.7 836L1654 858.3L1655.3 815.8L1656.7 858.5L1658 819.1L1659.3 -2310.7L1660.7 435.5L1662 826.3L1663.3 825.1L1664.7 866L1666 833.3L1667.3 871.4L1668.7 835.8L1670 871.5L1671.3 836.1L1672.7 863.5L1674 836.6L1675.3 870.7L1676.7 832.4L1678 867.8L1679.3 835.4L1680.7 871.7L1682 837L1683.3 858.4L1684.7 836.4L1686 872.1L1687.3 837.3L1688.7 871.9L1690 834.4L1691.3 871L1692.7 818.6L1694 864.7L1695.3 825.5L1696.7 870.9L1698 815.8L1699.3 858.8L1700.7 815.3L1702 856.4L1703.3 811.8L1704.7 869.4L1706 825L1707.3 871.5L1708.7 836.4L1710 871.9L1711.3 819.8L1712.7 872L1714 835.3L1715.3 865.5L1716.7 834.5L1718 871L1719.3 835.7L1720.7 871.1L1722 836.9L1723.3 871.3L1724.7 837.3L1726 871.9L1727.3 836.8L1728.7 870.4L1730 833.9L1731.3 869.7L1732.7 835.5L1734 857.9L1735.3 836.8L1736.7 869.5L1738 819.8L1739.3 -2219.9L1740.7 417.2L1742 837.9L1743.3 806.5L1744.7 863.5L1746 812L1747.3 870L1748.7 835L1750 872.1L1751.3 837L1752.7 858.7L1754 836.3L1755.3 869.7L1756.7 833.1L1758 858.2L1759.3 836.1L1760.7 858.8L1762 829.8L1763.3 871.6L1764.7 837.4L1766 872.4L1767.3 836.9L1768.7 870.1L1770 834.8L1771.3 871.3L1772.7 835.9L1774 871.6L1775.3 828.1L1776.7 872L1778 836.8L1779.3 871.8L1780.7 836.3L1782 871.7L1783.3 827.6L1784.7 870.5L1786 836.4L1787.3 866.2L1788.7 836.3L1790 858.5L1791.3 816.1L1792.7 858.9L1794 828.7L1795.3 872L1796.7 833.4L1798 870.9L1799.3 836" fill="transparent" stroke="#6be6c1" stroke-width="3" stroke-linejoin="bevel" class="zr38-cls-116"></path>
</g>
<g clip-path="url(#zr38-c2)">
<path d="M200.7 800.3L202 784L203.3 862.8L204.7 830.6L206 859.3L207.3 817.4L208.7 872.2L210 837.5L211.3 872.1L212.7 835.7L214 858.4L215.3 834.3L216.7 869.5L218 816.2L219.3 -2407.7L220.7 395.6L222 836.4L223.3 828.5L224.7 871L226 836.1L227.3 869.6L228.7 837.5L230 859.5L231.3 816.2L232.7 871.4L234 835.2L235.3 865.7L236.7 835L238 872.2L239.3 828.7L240.7 872.9L242 837.8L243.3 871L244.7 834.2L246 868.7L247.3 835.8L248.7 872.2L250 835.7L251.3 872.7L252.7 836.8L254 872.5L255.3 838L256.7 872.4L258 837.7L259.3 872.5L260.7 835.5L262 870.5L263.3 834.4L264.7 872.3L266 837.3L267.3 872.7L268.7 836.7L270 861.2L271.3 837.7L272.7 871.9L274 816.6L275.3 869.9L276.7 821.2L278 859.6L279.3 837.3L280.7 872.5L282 836.7L283.3 872.2L284.7 837.4L286 872.4L287.3 837.2L288.7 857.6L290 835.6L291.3 872.2L292.7 834.2L294 871.7L295.3 836.6L296.7 872.2L298 816.2L299.3 -2259.5L300.7 447.5L302 604.1L303.3 597.7L304.7 -4197.2L306 -1664.3L307.3 303.7L308.7 549.6L310 656.1L311.3 802.4L312.7 868.5L314 835.8L315.3 862.6L316.7 835.1L318 859.1L319.3 816.9L320.7 872.7L322 830L323.3 872.5L324.7 815.7L326 870L327.3 835.1L328.7 872.4L330 814.1L331.3 872.5L332.7 825.5L334 859.4L335.3 837.2L336.7 872.7L338 837.9L339.3 861.8L340.7 836.6L342 872.2L343.3 838.2L344.7 860.6L346 837.7L347.3 858.6L348.7 816.3L350 872.4L351.3 837.8L352.7 872.6L354 836.5L355.3 871.9L356.7 837.3L358 872.4L359.3 837.5L360.7 872.6L362 836.9L363.3 859.7L364.7 818.6L366 872.4L367.3 816.8L368.7 871.4L370 813.6L371.3 859L372.7 835.8L374 871.7L375.3 837.1L376.7 872.1L378 836.9L379.3 -2290.6L380.7 350.5L382 851.7L383.3 808.8L384.7 872.5L386 815L387.3 859.2L388.7 837.2L390 872.5L391.3 836.1L392.7 854.1L394 833L395.3 859.1L396.7 814.5L398 871.8L399.3 820.3L400.7 865.1L402 833.1L403.3 872.7L404.7 836.9L406 869.6L407.3 836.4L408.7 869.1L410 837.4L411.3 872.8L412.7 837.8L414 872.7L415.3 819.7L416.7 872.7L418 837.6L419.3 870.8L420.7 837.1L422 872.9L423.3 837.3L424.7 872.3L426 829.8L427.3 872.7L428.7 838L430 872.6L431.3 837.5L432.7 872L434 833.5L435.3 871.9L436.7 816.2L438 872.4L439.3 837.3L440.7 859.2L442 816.2L443.3 872.2L444.7 836.8L446 872.6L447.3 817.6L448.7 871.2L450 837.2L451.3 870.6L452.7 837.3L454 872.4L455.3 837.1L456.7 872.2L458 815.8L459.3 -2272L460.7 386.1L462 838.9L463.3 801.9L464.7 864.2L466 835.4L467.3 871.8L468.7 836.2L470 859.3L471.3 836.8L472.7 872.9L474 834.7L475.3 872.3L476.7 828.1L478 872.2L479.3 837.3L480.7 859.5L482 837.4L483.3 870.4L484.7 816.1L486 872.8L487.3 831.6L488.7 871.3L490 837.4L491.3 872.9L492.7 836L494 872.2L495.3 837.7L496.7 872.5L498 837.7L499.3 872.6L500.7 836.7L502 868.4L503.3 833.7L504.7 871.9L506 834.4L507.3 872.4L508.7 814.8L510 872.5L511.3 826.1L512.7 859.3L514 831.9L515.3 870.8L516.7 835.9L518 864.7L519.3 833.7L520.7 872.1L522 837.4L523.3 872.6L524.7 836.9L526 872.6L527.3 837.9L528.7 872.6L530 814L531.3 858.6L532.7 836.6L534 859.5L535.3 837.4L536.7 872.3L538 815.9L539.3 -2270.6L540.7 370.3L542 844.9L543.3 802.5L544.7 859.1L546 827.6L547.3 872.7L548.7 816.1L550 859.3L551.3 837L552.7 872.4L554 836.2L555.3 871.6L556.7 826.6L558 871.3L559.3 837.3L560.7 872.9L562 818.5L563.3 856.8L564.7 838.2L566 859.7L567.3 836.7L568.7 870.3L570 833.6L571.3 859.5L572.7 837.7L574 872.8L575.3 837.1L576.7 860.2L578 837L579.3 872.7L580.7 837L582 871.5L583.3 835.8L584.7 872.4L586 837.6L587.3 872.6L588.7 835.9L590 872.7L591.3 837.6L592.7 872.7L594 837.7L595.3 872.3L596.7 836.2L598 872L599.3 816.2L600.7 872.2L602 836.1L603.3 872.1L604.7 837.6L606 872.4L607.3 837.3L608.7 872.5L610 816L611.3 871.6L612.7 834.8L614 872.6L615.3 837.3L616.7 869.1L618 816L619.3 -2283.2L620.7 425.3L622 530.4L623.3 530.8L624.7 -4088.5L626 -1681.9L627.3 312.4L628.7 483.6L630 621.2L631.3 827.3L632.7 853.4L634 835.8L635.3 872.6L636.7 834.9L638 859L639.3 816L640.7 859.4L642 837.7L643.3 872.6L644.7 837.5L646 870.5L647.3 837L648.7 872.4L650 833.3L651.3 872.1L652.7 837.3L654 872.6L655.3 830.2L656.7 872.8L658 836L659.3 865.7L660.7 836.8L662 872.7L663.3 838.1L664.7 872.2L666 836.9L667.3 872.2L668.7 837.2L670 859L671.3 837.4L672.7 864L674 833.7L675.3 859.2L676.7 836.9L678 867.6L679.3 836L680.7 872.5L682 816.2L683.3 872.1L684.7 837.3L686 859.2L687.3 836.8L688.7 848.8L690 768.9L691.3 848.3L692.7 837L694 872.4L695.3 798.2L696.7 850.6L698 837.5L699.3 -3200.9L700.7 209.2L702 842.6L703.3 810.1L704.7 859.5L706 833.9L707.3 859.2L708.7 825.6L710 872.9L711.3 834.5L712.7 869.9L714 837.2L715.3 869.4L716.7 828.8L718 859.3L719.3 837.6L720.7 872.7L722 834.5L723.3 871.8L724.7 827.6L726 871.9L727.3 837.3L728.7 872.6L730 824L731.3 867.6L732.7 837.2L734 872.6L735.3 837.8L736.7 872.7L738 825L739.3 871.4L740.7 837.4L742 872.3L743.3 837.7L744.7 872.7L746 835.5L747.3 872.7L748.7 836.8L750 872.5L751.3 837.5L752.7 857.5L754 836.5L755.3 872.3L756.7 837.2L758 872.2L759.3 837.6L760.7 872.4L762 837.3L763.3 872.4L764.7 837L766 872.5L767.3 832.9L768.7 871.9L770 837.1L771.3 872.2L772.7 816.2L774 870.7L775.3 836.8L776.7 872.1L778 815.8L779.3 -2256L780.7 371.7L782 838.1L783.3 806.3L784.7 872.3L786 836.6L787.3 872.7L788.7 837.4L790 872.7L791.3 837.5L792.7 858.7L794 835.6L795.3 872L796.7 835L798 872.5L799.3 837.3L800.7 872.5L802 835L803.3 873L804.7 835.6L806 873L807.3 833.3L808.7 872.2L810 837.7L811.3 872.3L812.7 836.8L814 872.9L815.3 837.5L816.7 872.7L818 837.8L819.3 872.4L820.7 819.2L822 872.1L823.3 834.6L824.7 872.3L826 834.7L827.3 872.7L828.7 835.4L830 872.7L831.3 837.6L832.7 867.3L834 804.5L835.3 870.8L836.7 837.6L838 872.4L839.3 816.5L840.7 872.5L842 816.1L843.3 872.5L844.7 817.7L846 859.7L847.3 824.2L848.7 867.9L850 836.7L851.3 859.3L852.7 836.9L854 872.2L855.3 837.1L856.7 872.1L858 816L859.3 -2176.8L860.7 387L862 831.2L863.3 809L864.7 859.1L866 815.9L867.3 869.7L868.7 834.6L870 872.2L871.3 837L872.7 872.4L874 821.5L875.3 871.5L876.7 835.2L878 872.1L879.3 837.3L880.7 872.8L882 824.7L883.3 859.4L884.7 837.3L886 872.5L887.3 819.7L888.7 867.5L890 837L891.3 872.9L892.7 835.6L894 860.2L895.3 837.1L896.7 872.3L898 837.5L899.3 872.7L900.7 837.6L902 851.2L903.3 831L904.7 872L906 814.6L907.3 872.5L908.7 837.2L910 863.7L911.3 838.1L912.7 872.4L914 837.6L915.3 872.3L916.7 835.8L918 872.6L919.3 837.5L920.7 871.7L922 835.1L923.3 872.4L924.7 837L926 872.4L927.3 825.1L928.7 872.5L930 836L931.3 871.6L932.7 837L934 872.2L935.3 814.2L936.7 872L938 836.9L939.3 -2289.1L940.7 445.5L942 532.9L943.3 590.6L944.7 -4130.9L946 -1835.6L947.3 265.9L948.7 513.8L950 581.1L951.3 793.6L952.7 866.2L954 831.1L955.3 859.3L956.7 835.9L958 872.3L959.3 837.5L960.7 872.8L962 837.8L963.3 857.4L964.7 832.5L966 872.3L967.3 836.4L968.7 871.9L970 837L971.3 872.9L972.7 837.6L974 873L975.3 837.6L976.7 859.1L978 831.9L979.3 871.9L980.7 837.8L982 872.6L983.3 837.8L984.7 873L986 837.6L987.3 860.6L988.7 837.8L990 872.6L991.3 835L992.7 871.7L994 836.8L995.3 869.9L996.7 837.2L998 872.3L999.3 824.6L1000.7 872.2L1002 836.9L1003.3 859.5L1004.7 837.3L1006 871L1007.3 836.5L1008.7 870.2L1010 816.8L1011.3 868.7L1012.7 819L1014 858.7L1015.3 816.7L1016.7 872.4L1018 828.2L1019.3 -2271.6L1020.7 373.7L1022 841.5L1023.3 821.9L1024.7 872L1026 815.5L1027.3 859.3L1028.7 800.7L1030 868.5L1031.3 809.8L1032.7 859.5L1034 836.4L1035.3 872.5L1036.7 835.7L1038 872.5L1039.3 817.9L1040.7 859.4L1042 809.7L1043.3 864.7L1044.7 836.8L1046 872.4L1047.3 837.9L1048.7 872.8L1050 837.2L1051.3 872.9L1052.7 815.3L1054 872.1L1055.3 837.3L1056.7 868.7L1058 836.1L1059.3 872.6L1060.7 837L1062 862.2L1063.3 828.5L1064.7 872.6L1066 837.7L1067.3 872.5L1068.7 837.4L1070 872.5L1071.3 835.6L1072.7 872.1L1074 821.8L1075.3 872.5L1076.7 816.3L1078 872.4L1079.3 831.4L1080.7 869.9L1082 836.9L1083.3 859.1L1084.7 836.8L1086 870.1L1087.3 826.9L1088.7 872.2L1090 837.4L1091.3 872L1092.7 816.2L1094 872.4L1095.3 837.3L1096.7 872.5L1098 837L1099.3 -2276L1100.7 364.4L1102 844.9L1103.3 831.5L1104.7 859.9L1106 836.9L1107.3 872.4L1108.7 837.5L1110 872.6L1111.3 835.3L1112.7 858.9L1114 835.8L1115.3 872.2L1116.7 835.3L1118 872.7L1119.3 837.2L1120.7 872.7L1122 837.5L1123.3 872.8L1124.7 821.3L1126 871.7L1127.3 837.6L1128.7 872.8L1130 837.7L1131.3 872.5L1132.7 837.9L1134 873L1135.3 837.7L1136.7 872.5L1138 837.9L1139.3 870.4L1140.7 831.8L1142 865.3L1143.3 825.4L1144.7 872.9L1146 816.4L1147.3 872.9L1148.7 837.4L1150 868L1151.3 837.8L1152.7 855.4L1154 814.5L1155.3 872.5L1156.7 823.1L1158 859.5L1159.3 821.5L1160.7 872.4L1162 837.1L1163.3 872.5L1164.7 837.3L1166 858.7L1167.3 835.7L1168.7 872L1170 837.3L1171.3 872L1172.7 836.7L1174 872.4L1175.3 822.2L1176.7 872.3L1178 816.4L1179.3 -2168.8L1180.7 354.6L1182 837.7L1183.3 794.9L1184.7 858.7L1186 815.4L1187.3 872.2L1188.7 816L1190 872.6L1191.3 825.9L1192.7 869.2L1194 833.1L1195.3 872.3L1196.7 811L1198 871.4L1199.3 831.3L1200.7 871.9L1202 827.5L1203.3 872.7L1204.7 837.6L1206 868.1L1207.3 835.8L1208.7 870.2L1210 825L1211.3 872.6L1212.7 837.1L1214 872.7L1215.3 816.7L1216.7 859.5L1218 828.6L1219.3 869.3L1220.7 816L1222 872.1L1223.3 836.3L1224.7 872.3L1226 837.3L1227.3 872.6L1228.7 837.6L1230 872.6L1231.3 837.8L1232.7 872.4L1234 836L1235.3 861.5L1236.7 830.6L1238 872.6L1239.3 813.8L1240.7 872.3L1242 816.5L1243.3 859.1L1244.7 835.4L1246 872.4L1247.3 824.4L1248.7 858.9L1250 836.9L1251.3 870.3L1252.7 837.2L1254 866.8L1255.3 837.6L1256.7 859.1L1258 837.1L1259.3 -2426.9L1260.7 369.8L1262 545.6L1263.3 573L1264.7 -3902.7L1266 -1809.9L1267.3 311.7L1268.7 516.4L1270 617.2L1271.3 799.7L1272.7 853.1L1274 829.8L1275.3 872.4L1276.7 835.6L1278 872.6L1279.3 816.6L1280.7 872.9L1282 831.9L1283.3 871.7L1284.7 834.2L1286 870L1287.3 837.3L1288.7 872.7L1290 837L1291.3 865.4L1292.7 837.6L1294 872.7L1295.3 837.3L1296.7 871.8L1298 829L1299.3 871.7L1300.7 837.7L1302 872.7L1303.3 819.7L1304.7 859.4L1306 838L1307.3 872.7L1308.7 837.8L1310 857.7L1311.3 812.6L1312.7 872.3L1314 837L1315.3 872L1316.7 837.7L1318 872.4L1319.3 837.6L1320.7 872.4L1322 824.7L1323.3 859.8L1324.7 834.9L1326 871.9L1327.3 830.1L1328.7 872.4L1330 823.8L1331.3 872.6L1332.7 817.1L1334 872.1L1335.3 837.4L1336.7 872.4L1338 808.3L1339.3 -2286.6L1340.7 345.2L1342 841.4L1343.3 808.3L1344.7 872.7L1346 837.1L1347.3 859.5L1348.7 814.7L1350 858.4L1351.3 836.8L1352.7 872.8L1354 819L1355.3 872.1L1356.7 835.5L1358 859.8L1359.3 814.3L1360.7 869L1362 826.8L1363.3 869.6L1364.7 837.2L1366 872.4L1367.3 818.5L1368.7 870.8L1370 837.1L1371.3 872.9L1372.7 816.9L1374 859.1L1375.3 834.1L1376.7 872.4L1378 837.8L1379.3 859.6L1380.7 837.7L1382 872.3L1383.3 837.5L1384.7 872.4L1386 837.4L1387.3 841.3L1388.7 824.6L1390 872L1391.3 816.2L1392.7 872.5L1394 818.4L1395.3 872.7L1396.7 837.3L1398 872.7L1399.3 837.1L1400.7 872.7L1402 814.3L1403.3 871.9L1404.7 837L1406 864.2L1407.3 837L1408.7 872.3L1410 817.2L1411.3 869.4L1412.7 816L1414 859.2L1415.3 815.9L1416.7 871.4L1418 836.9L1419.3 -2208.6L1420.7 344.3L1422 841.9L1423.3 832.4L1424.7 859.5L1426 837.1L1427.3 859.1L1428.7 825.5L1430 856.4L1431.3 815.4L1432.7 872.2L1434 837.4L1435.3 872.3L1436.7 835.2L1438 871.9L1439.3 837L1440.7 871L1442 833.2L1443.3 858.4L1444.7 836.5L1446 872.3L1447.3 837.2L1448.7 859.3L1450 835.2L1451.3 866.8L1452.7 837.8L1454 869.5L1455.3 836.6L1456.7 872.5L1458 836.9L1459.3 872.6L1460.7 816.5L1462 872.7L1463.3 836.7L1464.7 872.5L1466 837.8L1467.3 859.6L1468.7 830L1470 871.3L1471.3 837.2L1472.7 872.6L1474 816.1L1475.3 872.6L1476.7 827.7L1478 859.5L1479.3 816.9L1480.7 872.1L1482 836.7L1483.3 867.4L1484.7 837.2L1486 859.2L1487.3 836.6L1488.7 862.4L1490 814.4L1491.3 872.2L1492.7 837.1L1494 872.4L1495.3 833.7L1496.7 871L1498 835.9L1499.3 -2303.4L1500.7 370.4L1502 850.6L1503.3 809.9L1504.7 859.1L1506 831.8L1507.3 838.7L1508.7 825.7L1510 872.3L1511.3 829.2L1512.7 872.2L1514 837.2L1515.3 872.7L1516.7 836L1518 872.6L1519.3 837.5L1520.7 870.5L1522 828.2L1523.3 857.1L1524.7 837.3L1526 866.3L1527.3 836.7L1528.7 872.5L1530 816.8L1531.3 872.6L1532.7 837.8L1534 852.5L1535.3 819.6L1536.7 872.3L1538 837.5L1539.3 862.5L1540.7 831L1542 872.7L1543.3 837.6L1544.7 859.7L1546 837.6L1547.3 872.6L1548.7 834.7L1550 872.5L1551.3 837.8L1552.7 872.4L1554 837.1L1555.3 872.5L1556.7 825.8L1558 872L1559.3 837.9L1560.7 872.5L1562 837.4L1563.3 870.8L1564.7 837.3L1566 872.4L1567.3 837.6L1568.7 872.3L1570 815.8L1571.3 872L1572.7 837.3L1574 872.3L1575.3 835.7L1576.7 872.2L1578 827.4L1579.3 -2251.4L1580.7 428L1582 565.8L1583.3 570.4L1584.7 -4064.5L1586 -1753.7L1587.3 287.6L1588.7 555.7L1590 619.8L1591.3 802.2L1592.7 858.7L1594 835.9L1595.3 873L1596.7 836.2L1598 858.8L1599.3 814.5L1600.7 871.5L1602 815.9L1603.3 872.5L1604.7 818L1606 872.5L1607.3 837.6L1608.7 872.5L1610 837L1611.3 869.6L1612.7 826.3L1614 871.7L1615.3 830.8L1616.7 872.8L1618 835.3L1619.3 872.3L1620.7 837.7L1622 859.5L1623.3 837.7L1624.7 859.3L1626 836.8L1627.3 859.4L1628.7 816.3L1630 864.5L1631.3 837.3L1632.7 859.2L1634 837.7L1635.3 872.6L1636.7 827.7L1638 872.6L1639.3 836.9L1640.7 871.4L1642 830.1L1643.3 872.3L1644.7 837.5L1646 872.5L1647.3 837.5L1648.7 872.4L1650 816.3L1651.3 872.4L1652.7 837.4L1654 859.1L1655.3 836.4L1656.7 871.1L1658 815.7L1659.3 -2336L1660.7 377.2L1662 857L1663.3 812.3L1664.7 872.2L1666 828.6L1667.3 871.1L1668.7 813.3L1670 870.1L1671.3 830.4L1672.7 872.3L1674 836.8L1675.3 872.6L1676.7 834.8L1678 872.4L1679.3 804.9L1680.7 861.8L1682 836.4L1683.3 872.3L1684.7 837.3L1686 872.9L1687.3 838.1L1688.7 872.9L1690 837.8L1691.3 872.3L1692.7 812.5L1694 871.4L1695.3 836.7L1696.7 872.6L1698 816.6L1699.3 869.9L1700.7 837.7L1702 872.7L1703.3 837.9L1704.7 859.4L1706 816L1707.3 870.5L1708.7 822.4L1710 859.2L1711.3 837.5L1712.7 872.3L1714 837.9L1715.3 872.6L1716.7 814.9L1718 870.2L1719.3 834.9L1720.7 870.2L1722 835.2L1723.3 867.9L1724.7 837L1726 864L1727.3 823.1L1728.7 872.6L1730 816.3L1731.3 859.2L1732.7 837.6L1734 859.5L1735.3 829.4L1736.7 871.9L1738 837L1739.3 -2310L1740.7 393.9L1742 838.7L1743.3 805.8L1744.7 853.4L1746 834.4L1747.3 871.3L1748.7 836.6L1750 871.7L1751.3 836.3L1752.7 872.5L1754 836.3L1755.3 872.3L1756.7 815.2L1758 858.9L1759.3 812.8L1760.7 871.7L1762 816.6L1763.3 872.4L1764.7 837.7L1766 872.3L1767.3 837.3L1768.7 872.7L1770 837.8L1771.3 872.7L1772.7 834.1L1774 870.3L1775.3 819.5L1776.7 863.4L1778 837.9L1779.3 872.4L1780.7 836.7L1782 859.9L1783.3 837.7L1784.7 872.5L1786 834.6L1787.3 858L1788.7 837L1790 872.4L1791.3 837.7L1792.7 872.7L1794 837.7L1795.3 872.7L1796.7 837.8L1798 859.2L1799.3 837.5" fill="transparent" stroke="#626c91" stroke-width="3" stroke-linejoin="bevel" class="zr38-cls-116"></path>
</g>
<path d="M-182.8 -5l365.7 0l0 28l-365.7 0Z" transform="translate(1000 5)" fill="rgb(0,0,0)" fill-opacity="0" stroke="#ccc" stroke-width="0" class="zr38-cls-114"></path>
<text dominant-baseline="central" text-anchor="middle" style="font-size:18px;font-family:sans-serif;font-weight:bold;" xml:space="preserve" y="9" transform="translate(1000 5)" fill="#666666">entityUpdate per Tick for bench_1_every_60</text>
<defs >
<clipPath id="zr38-c0">
<path d="M198 58.5l16004 0l0 8703l-16004 0Z" fill="#000" class="zr38-cls-115"></path>
</clipPath>
<clipPath id="zr38-c1">
<path d="M198 58.5l16004 0l0 8703l-16004 0Z" fill="#000" class="zr38-cls-115"></path>
</clipPath>
<clipPath id="zr38-c2">
<path d="M198 58.5l16004 0l0 8703l-16004 0Z" fill="#000" class="zr38-cls-115"></path>
</clipPath>
</defs>
<style ><![CDATA[
.zr38-cls-114:hover {
pointer-events:none;
}
.zr38-cls-115:hover {
cursor:pointer;
fill:rgba(0,0,0,1);
}
.zr38-cls-116:hover {
cursor:pointer;
}

]]>

</style>
</svg>