<svg width="2000" height="1000" xmlns="http://www.w3.org/2000/svg" xmlns:xlink="http://www.w3.org/1999/xlink" version="1.1" baseProfile="full" viewBox="0 0 2000 1000">
<rect width="2000" height="1000" x="0" y="0" fill="rgb(252,252,252)" fill-opacity="0"></rect>
<path d="M200 930.5L1800 930.5" fill="transparent" stroke="#eeeeee" class="zr6-cls-18"></path>
<path d="M200 743.5L1800 743.5" fill="transparent" stroke="#eeeeee" class="zr6-cls-18"></path>
<path d="M200 556.5L1800 556.5" fill="transparent" stroke="#eeeeee" class="zr6-cls-18"></path>
<path d="M200 370.5L1800 370.5" fill="transparent" stroke="#eeeeee" class="zr6-cls-18"></path>
<path d="M200 183.5L1800 183.5" fill="transparent" stroke="#eeeeee" class="zr6-cls-18"></path>
<path d="M200 60.5L1800 60.5" fill="transparent" stroke="#eeeeee" class="zr6-cls-18"></path>
<path d="M200.5 930L200.5 60" fill="transparent" stroke="#cccccc" stroke-linecap="round" class="zr6-cls-18"></path>
<text dominant-baseline="central" text-anchor="middle" style="font-size:12px;font-family:sans-serif;" xml:space="preserve" y="-6" transform="translate(200 45)" fill="#cccccc">entityUpdate Time (ms)</text>
<path d="M200 930.5L1800 930.5" fill="transparent" stroke="#cccccc" stroke-linecap="round" class="zr6-cls-18"></path>
<text dominant-baseline="central" text-anchor="end" style="font-size:12px;font-family:sans-serif;" transform="translate(192 930)" fill="#999999">0.000</text>
<text dominant-baseline="central" text-anchor="end" style="font-size:12px;font-family:sans-serif;" transform="translate(192 743.2702)" fill="#999999">1.000</text>
<text dominant-baseline="central" text-anchor="end" style="font-size:12px;font-family:sans-serif;" transform="translate(192 556.5403)" fill="#999999">2.000</text>
<text dominant-baseline="central" text-anchor="end" style="font-size:12px;font-family:sans-serif;" transform="translate(192 369.8105)" fill="#999999">3.000</text>
<text dominant-baseline="central" text-anchor="end" style="font-size:12px;font-family:sans-serif;" transform="translate(192 183.0807)" fill="#999999">4.000</text>
<text dominant-baseline="central" text-anchor="end" style="font-size:12px;font-family:sans-serif;" transform="translate(192 60)" fill="#999999">4.659</text>
<text dominant-baseline="central" text-anchor="middle" style="font-size:12px;font-family:sans-serif;" y="6" transform="translate(200.6667 938)" fill="#999999">0</text>
<text dominant-baseline="central" text-anchor="middle" style="font-size:12px;font-family:sans-serif;" y="6" transform="translate(236.6667 938)" fill="#999999">27</text>
<text dominant-baseline="central" text-anchor="middle" style="font-size:12px;font-family:sans-serif;" y="6" transform="translate(272.6667 938)" fill="#999999">54</text>
<text dominant-baseline="central" text-anchor="middle" style="font-size:12px;font-family:sans-serif;" y="6" transform="translate(308.6667 938)" fill="#999999">81</text>
<text dominant-baseline="central" text-anchor="middle" style="font-size:12px;font-family:sans-serif;" y="6" transform="translate(344.6667 938)" fill="#999999">108</text>
<text dominant-baseline="central" text-anchor="middle" style="font-size:12px;font-family:sans-serif;" y="6" transform="translate(380.6667 938)" fill="#999999">135</text>
<text dominant-baseline="central" text-anchor="middle" style="font-size:12px;font-family:sans-serif;" y="6" transform="translate(416.6667 938)" fill="#999999">162</text>
<text dominant-baseline="central" text-anchor="middle" style="font-size:12px;font-family:sans-serif;" y="6" transform="translate(452.6667 938)" fill="#999999">189</text>
<text dominant-baseline="central" text-anchor="middle" style="font-size:12px;font-family:sans-serif;" y="6" transform="translate(488.6667 938)" fill="#999999">216</text>
<text dominant-baseline="central" text-anchor="middle" style="font-size:12px;font-family:sans-serif;" y="6" transform="translate(524.6667 938)" fill="#999999">243</text>
<text dominant-baseline="central" text-anchor="middle" style="font-size:12px;font-family:sans-serif;" y="6" transform="translate(560.6667 938)" fill="#999999">270</text>
<text dominant-baseline="central" text-anchor="middle" style="font-size:12px;font-family:sans-serif;" y="6" transform="translate(596.6667 938)" fill="#999999">297</text>
<text dominant-baseline="central" text-anchor="middle" style="font-size:12px;font-family:sans-serif;" y="6" transform="translate(632.6667 938)" fill="#999999">324</text>
<text dominant-baseline="central" text-anchor="middle" style="font-size:12px;font-family:sans-serif;" y="6" transform="translate(668.6667 938)" fill="#999999">351</text>
<text dominant-baseline="central" text-anchor="middle" style="font-size:12px;font-family:sans-serif;" y="6" transform="translate(704.6667 938)" fill="#999999">378</text>
<text dominant-baseline="central" text-anchor="middle" style="font-size:12px;font-family:sans-serif;" y="6" transform="translate(740.6667 938)" fill="#999999">405</text>
<text dominant-baseline="central" text-anchor="middle" style="font-size:12px;font-family:sans-serif;" y="6" transform="translate(776.6667 938)" fill="#999999">432</text>
<text dominant-baseline="central" text-anchor="middle" style="font-size:12px;font-family:sans-serif;" y="6" transform="translate(812.6667 938)" fill="#999999">459</text>
<text dominant-baseline="central" text-anchor="middle" style="font-size:12px;font-family:sans-serif;" y="6" transform="translate(848.6667 938)" fill="#999999">486</text>
<text dominant-baseline="central" text-anchor="middle" style="font-size:12px;font-family:sans-serif;" y="6" transform="translate(884.6667 938)" fill="#999999">513</text>
<text dominant-baseline="central" text-anchor="middle" style="font-size:12px;font-family:sans-serif;" y="6" transform="translate(920.6667 938)" fill="#999999">540</text>
<text dominant-baseline="central" text-anchor="middle" style="font-size:12px;font-family:sans-serif;" y="6" transform="translate(956.6667 938)" fill="#999999">567</text>
<text dominant-baseline="central" text-anchor="middle" style="font-size:12px;font-family:sans-serif;" y="6" transform="translate(992.6667 938)" fill="#999999">594</text>
<text dominant-baseline="central" text-anchor="middle" style="font-size:12px;font-family:sans-serif;" y="6" transform="translate(1028.6667 938)" fill="#999999">621</text>
<text dominant-baseline="central" text-anchor="middle" style="font-size:12px;font-family:sans-serif;" y="6" transform="translate(1064.6667 938)" fill="#999999">648</text>
<text dominant-baseline="central" text-anchor="middle" style="font-size:12px;font-family:sans-serif;" y="6" transform="translate(1100.6667 938)" fill="#999999">675</text>
<text dominant-baseline="central" text-anchor="middle" style="font-size:12px;font-family:sans-serif;" y="6" transform="translate(1136.6667 938)" fill="#999999">702</text>
<text dominant-baseline="central" text-anchor="middle" style="font-size:12px;font-family:sans-serif;" y="6" transform="translate(1172.6667 938)" fill="#999999">729</text>
<text dominant-baseline="central" text-anchor="middle" style="font-size:12px;font-family:sans-serif;" y="6" transform="translate(1208.6667 938)" fill="#999999">756</text>
<text dominant-baseline="central" text-anchor="middle" style="font-size:12px;font-family:sans-serif;" y="6" transform="translate(1244.6667 938)" fill="#999999">783</text>
<text dominant-baseline="central" text-anchor="middle" style="font-size:12px;font-family:sans-serif;" y="6" transform="translate(1280.6667 938)" fill="#999999">810</text>
<text dominant-baseline="central" text-anchor="middle" style="font-size:12px;font-family:sans-serif;" y="6" transform="translate(1316.6667 938)" fill="#999999">837</text>
<text dominant-baseline="central" text-anchor="middle" style="font-size:12px;font-family:sans-serif;" y="6" transform="translate(1352.6667 938)" fill="#999999">864</text>
<text dominant-baseline="central" text-anchor="middle" style="font-size:12px;font-family:sans-serif;" y="6" transform="translate(1388.6667 938)" fill="#999999">891</text>
<text dominant-baseline="central" text-anchor="middle" style="font-size:12px;font-family:sans-serif;" y="6" transform="translate(1424.6667 938)" fill="#999999">918</text>
<text dominant-baseline="central" text-anchor="middle" style="font-size:12px;font-family:sans-serif;" y="6" transform="translate(1460.6667 938)" fill="#999999">945</text>
<text dominant-baseline="central" text-anchor="middle" style="font-size:12px;font-family:sans-serif;" y="6" transform="translate(1496.6667 938)" fill="#999999">972</text>
<text dominant-baseline="central" text-anchor="middle" style="font-size:12px;font-family:sans-serif;" y="6" transform="translate(1532.6667 938)" fill="#999999">999</text>
<text dominant-baseline="central" text-anchor="middle" style="font-size:12px;font-family:sans-serif;" y="6" transform="translate(1568.6667 938)" fill="#999999">1026</text>
<text dominant-baseline="central" text-anchor="middle" style="font-size:12px;font-family:sans-serif;" y="6" transform="translate(1604.6667 938)" fill="#999999">1053</text>
<text dominant-baseline="central" text-anchor="middle" style="font-size:12px;font-family:sans-serif;" y="6" transform="translate(1640.6667 938)" fill="#999999">1080</text>
<text dominant-baseline="central" text-anchor="middle" style="font-size:12px;font-family:sans-serif;" y="6" transform="translate(1676.6667 938)" fill="#999999">1107</text>
<text dominant-baseline="central" text-anchor="middle" style="font-size:12px;font-family:sans-serif;" y="6" transform="translate(1712.6667 938)" fill="#999999">1134</text>
<text dominant-baseline="central" text-anchor="middle" style="font-size:12px;font-family:sans-serif;" y="6" transform="translate(1748.6667 938)" fill="#999999">1161</text>
<text dominant-baseline="central" text-anchor="middle" style="font-size:12px;font-family:sans-serif;" y="6" transform="translate(1784.6667 938)" fill="#999999">1188</text>
<g clip-path="url(#zr6-c0)">
<path d="M200.7 526.8L202 523.6L203.3 762.9L204.7 606.5L206 729L207.3 608.5L208.7 741.4L210 616.1L211.3 748.7L212.7 574.3L214 736.1L215.3 590L216.7 764.8L218 594.5L219.3 738.1L220.7 626.9L222 726.8L223.3 595.3L224.7 740.7L226 629.7L227.3 741.6L228.7 597L230 738.6L231.3 589.4L232.7 744.3L234 578.3L235.3 749.4L236.7 610.9L238 770.9L239.3 549.3L240.7 756.4L242 625.1L243.3 766.1L244.7 563.2L246 719.5L247.3 604.5L248.7 767.8L250 569.1L251.3 737.5L252.7 589.7L254 705.4L255.3 552.4L256.7 751.7L258 617.1L259.3 732.6L260.7 584.9L262 728.6L263.3 611.3L264.7 721.4L266 573L267.3 732.3L268.7 606.7L270 705L271.3 741.5L272.7 793.4L274 754.1L275.3 804.6L276.7 736.5L278 801.1L279.3 783.7L280.7 798.3L282 760.8L283.3 802.4L284.7 762.8L286 820.6L287.3 758.3L288.7 810.3L290 784.2L291.3 824.6L292.7 762.4L294 802.8L295.3 777.5L296.7 824L298 762.5L299.3 802.4L300.7 760.5L302 804.2L303.3 759.1L304.7 801.5L306 783.3L307.3 802L308.7 732.7L310 824.6L311.3 776.2L312.7 822.7L314 759.8L315.3 822.2L316.7 781L318 782.6L319.3 693.7L320.7 818L322 783.1L323.3 822.7L324.7 760.7L326 822.1L327.3 781.4L328.7 819.2L330 736.5L331.3 823.1L332.7 784.9L334 800.9L335.3 735.6L336.7 820.8L338 773.8L339.3 821.7L340.7 764.3L342 793L343.3 783.8L344.7 805.2L346 773.7L347.3 823.6L348.7 767.5L350 803.9L351.3 762.2L352.7 824.9L354 787L355.3 824.9L356.7 765L358 802.6L359.3 784.4L360.7 801.8L362 763.9L363.3 801.9L364.7 783.9L366 802.2L367.3 757.5L368.7 797L370 782.3L371.3 822.5L372.7 741.6L374 803.3L375.3 780.3L376.7 799.6L378 739.3L379.3 809.5L380.7 764L382 801.2L383.3 756.1L384.7 821L386 768.9L387.3 803.3L388.7 749.1L390 802.2L391.3 774.4L392.7 817L394 762.1L395.3 822L396.7 780.1L398 801.2L399.3 737.5L400.7 818.9L402 766.9L403.3 823.2L404.7 765.3L406 823.7L407.3 756.4L408.7 810.7L410 735.3L411.3 821.1L412.7 763.6L414 800.7L415.3 761.2L416.7 820.6L418 775.6L419.3 800.4L420.7 766.1L422 818.1L423.3 785.1L424.7 807L426 773.3L427.3 823.9L428.7 766.2L430 816.4L431.3 738.9L432.7 785.5L434 779.6L435.3 799.7L436.7 759.4L438 823.3L439.3 782.4L440.7 822.1L442 766.1L443.3 824.3L444.7 767.1L446 808L447.3 762.1L448.7 822.7L450 783.4L451.3 822.9L452.7 761L454 823L455.3 761.1L456.7 803L458 742.9L459.3 822.4L460.7 783.4L462 811.1L463.3 743L464.7 796.7L466 772.6L467.3 819.5L468.7 760.8L470 822.9L471.3 762.2L472.7 773.1L474 743L475.3 818.4L476.7 760.6L478 806.9L479.3 756.1L480.7 813.8L482 777.3L483.3 797.3L484.7 738.2L486 799.4L487.3 767L488.7 795.1L490 757.3L491.3 817.9L492.7 781.4L494 820.8L495.3 739.5L496.7 812.5L498 777.2L499.3 817.3L500.7 763.5L502 800L503.3 780.6L504.7 814.3L506 756.2L507.3 806.1L508.7 778.4L510 819.5L511.3 589.1L512.7 745.7L514 596.8L515.3 717.5L516.7 572L518 704.1L519.3 596.8L520.7 697.2L522 548.3L523.3 699.3L524.7 567.3L526 704.9L527.3 560.2L528.7 709.7L530 601L531.3 735.6L532.7 461.9L534 720.4L535.3 584.7L536.7 707.6L538 553.1L539.3 714.2L540.7 544.3L542 711.2L543.3 585.1L544.7 706.7L546 558.1L547.3 709.8L548.7 552.8L550 747.5L551.3 549.8L552.7 710.1L554 574.2L555.3 740.1L556.7 586.9L558 703.5L559.3 583.6L560.7 697.1L562 569.1L563.3 688.6L564.7 382.2L566 706.3L567.3 518.3L568.7 666.6L570 521.6L571.3 727.7L572.7 486.1L574 703.8L575.3 542.5L576.7 702.7L578 574.9L579.3 719.1L580.7 558.2L582 692L583.3 561.1L584.7 703.2L586 574.6L587.3 716.6L588.7 571.1L590 739.9L591.3 742.2L592.7 819.3L594 730.3L595.3 822.6L596.7 765.6L598 803.5L599.3 782.4L600.7 824L602 727.6L603.3 804.2L604.7 783.2L606 804.9L607.3 758.4L608.7 803.1L610 783.5L611.3 816.9L612.7 758.7L614 826.7L615.3 784.9L616.7 811.7L618 729.2L619.3 801.3L620.7 784.3L622 823.5L623.3 759.5L624.7 802.2L626 771.7L627.3 819.4L628.7 745.6L630 821.5L631.3 784.6L632.7 799.4L634 735.2L635.3 817.5L636.7 758.2L638 798L639.3 746.9L640.7 800.2L642 775.3L643.3 801.2L644.7 753.1L646 806.8L647.3 782.8L648.7 821.2L650 758.5L651.3 793.6L652.7 762L654 820.8L655.3 734.3L656.7 821.4L658 782.4L659.3 815.1L660.7 758.2L662 815.4L663.3 785.3L664.7 823.3L666 771.8L667.3 802.9L668.7 760.4L670 819.7L671.3 739.8L672.7 798.3L674 785.7L675.3 797.4L676.7 762.3L678 801.4L679.3 783.3L680.7 802.3L682 741.8L683.3 824.4L684.7 762.1L686 791.5L687.3 740.3L688.7 802.6L690 783.6L691.3 799.1L692.7 741.9L694 802.5L695.3 784.7L696.7 824.5L698 744L699.3 823.7L700.7 783.4L702 823L703.3 765.5L704.7 822.4L706 785.5L707.3 824.3L708.7 764.4L710 823.8L711.3 784.7L712.7 800.8L714 764.8L715.3 793.4L716.7 778.9L718 819.4L719.3 760.2L720.7 802.1L722 785.1L723.3 824.4L724.7 754.9L726 821.5L727.3 762.4L728.7 800.8L730 764.7L731.3 820.8L732.7 775.8L734 818.1L735.3 762.8L736.7 806.9L738 765L739.3 780.7L740.7 744.9L742 799.4L743.3 786.6L744.7 818.5L746 759.6L747.3 812.3L748.7 773.4L750 803.6L751.3 741.1L752.7 812.4L754 767.9L755.3 802.4L756.7 755.1L758 798.8L759.3 785.4L760.7 824.3L762 748.6L763.3 822.4L764.7 773.5L766 800.6L767.3 746.2L768.7 823.7L770 764.4L771.3 824.7L772.7 739.8L774 806.9L775.3 784.1L776.7 824.6L778 735.7L779.3 803.5L780.7 766.9L782 821.3L783.3 765.2L784.7 824.3L786 770.8L787.3 823.9L788.7 766.6L790 801.2L791.3 782.6L792.7 823.5L794 741L795.3 824.1L796.7 784.9L798 815.2L799.3 761.3L800.7 822.3L802 784.3L803.3 823.5L804.7 766.4L806 815.9L807.3 781.9L808.7 821.1L810 745.4L811.3 801.4L812.7 785.5L814 822.9L815.3 752.6L816.7 820.4L818 762.9L819.3 822.6L820.7 746.7L822 815.9L823.3 784.3L824.7 819.2L826 770.5L827.3 819.9L828.7 781.7L830 798.9L831.3 603.6L832.7 748.3L834 597.4L835.3 709.5L836.7 562.2L838 743.7L839.3 617.4L840.7 740.2L842 563.7L843.3 741.7L844.7 580L846 705.9L847.3 576.6L848.7 768.2L850 625.1L851.3 729.2L852.7 587.5L854 769.1L855.3 630.6L856.7 769.2L858 566.6L859.3 696.5L860.7 601.4L862 738.8L863.3 595.6L864.7 765.8L866 625.3L867.3 756.8L868.7 578.1L870 755.5L871.3 625.4L872.7 773.4L874 588.2L875.3 747.4L876.7 605.7L878 725.3L879.3 595.6L880.7 713L882 606.8L883.3 745.8L884.7 548.8L886 723.2L887.3 616.3L888.7 732.1L890 593.3L891.3 722L892.7 599.6L894 766.8L895.3 574L896.7 718.7L898 589.8L899.3 704.7L900.7 522.2L902 698L903.3 611.6L904.7 726.6L906 556.5L907.3 718.2L908.7 617.6L910 751L911.3 672.6L912.7 812.8L914 769.2L915.3 822L916.7 761.9L918 802.8L919.3 770.2L920.7 819.5L922 762.6L923.3 802.7L924.7 760.6L926 823.4L927.3 753.6L928.7 798.3L930 782.8L931.3 807.8L932.7 762.1L934 824.9L935.3 759.2L936.7 798L938 761.2L939.3 822.6L940.7 782.8L942 800.6L943.3 761L944.7 818.7L946 781.9L947.3 822.6L948.7 758.9L950 806.3L951.3 781.4L952.7 815.7L954 730.3L955.3 819.9L956.7 758L958 823.2L959.3 758.6L960.7 769.4L962 779.7L963.3 819.9L964.7 760.4L966 821.7L967.3 764L968.7 814.8L970 757.6L971.3 812L972.7 782L974 821.2L975.3 755.9L976.7 814.6L978 778.7L979.3 818.1L980.7 758.9L982 821L983.3 764L984.7 815.8L986 768.3L987.3 821.2L988.7 786.3L990 824.1L991.3 747L992.7 819.5L994 763.1L995.3 823.7L996.7 761.7L998 823.6L999.3 763.5L1000.7 822.5L1002 762.5L1003.3 822.8L1004.7 784.1L1006 822.1L1007.3 733.4L1008.7 750.4L1010 778.6L1011.3 812L1012.7 761.8L1014 801.7L1015.3 759.5L1016.7 799.2L1018 760.6L1019.3 820.1L1020.7 761.4L1022 800.7L1023.3 764.9L1024.7 822.3L1026 778.6L1027.3 816.9L1028.7 759.5L1030 822.3L1031.3 783.4L1032.7 805.1L1034 744.1L1035.3 815L1036.7 758.1L1038 821L1039.3 763.2L1040.7 800.8L1042 777.1L1043.3 814L1044.7 751.5L1046 799L1047.3 782.3L1048.7 806.6L1050 753.9L1051.3 815.9L1052.7 782.2L1054 796.8L1055.3 738.9L1056.7 808.7L1058 780.6L1059.3 810.5L1060.7 745.4L1062 800.8L1063.3 782.1L1064.7 794.7L1066 771.5L1067.3 799.3L1068.7 765.6L1070 823.5L1071.3 753.4L1072.7 819.9L1074 783L1075.3 821.8L1076.7 761.2L1078 824.2L1079.3 763.3L1080.7 824.3L1082 763.3L1083.3 798.9L1084.7 782.6L1086 824.1L1087.3 765.2L1088.7 824.8L1090 779.9L1091.3 821.9L1092.7 761.3L1094 802.4L1095.3 785.1L1096.7 823.8L1098 750.4L1099.3 795.9L1100.7 780.6L1102 822.7L1103.3 763.8L1104.7 823.1L1106 767.5L1107.3 818.6L1108.7 759.4L1110 823.1L1111.3 766.9L1112.7 823.3L1114 758.9L1115.3 818.8L1116.7 780.5L1118 797L1119.3 753L1120.7 799L1122 779.2L1123.3 814.3L1124.7 760.6L1126 820.4L1127.3 760.3L1128.7 822L1130 758.7L1131.3 813.3L1132.7 775.4L1134 816L1135.3 758.1L1136.7 797.7L1138 779.9L1139.3 808L1140.7 752.5L1142 797.5L1143.3 786.7L1144.7 821.1L1146 720.9L1147.3 797L1148.7 732.1L1150 816.3L1151.3 601.4L1152.7 705.8L1154 612.2L1155.3 716.2L1156.7 590L1158 714L1159.3 603.1L1160.7 746.2L1162 589.4L1163.3 749.7L1164.7 583.2L1166 745L1167.3 589.1L1168.7 689.9L1170 599.6L1171.3 743.3L1172.7 588.8L1174 720.8L1175.3 599.9L1176.7 743.7L1178 582.1L1179.3 705.6L1180.7 569.9L1182 733.7L1183.3 547.6L1184.7 728L1186 563.8L1187.3 709L1188.7 561.3L1190 705.8L1191.3 603.7L1192.7 718.3L1194 538.6L1195.3 726.2L1196.7 588.3L1198 711.4L1199.3 568.6L1200.7 721.1L1202 589L1203.3 738.9L1204.7 551.8L1206 712L1207.3 604L1208.7 762L1210 534.9L1211.3 708.3L1212.7 611.8L1214 735L1215.3 565.6L1216.7 731.1L1218 615.4L1219.3 767L1220.7 591L1222 761.4L1223.3 614L1224.7 718.8L1226 577.1L1227.3 719.1L1228.7 625.9L1230 707.6L1231.3 727.1L1232.7 802.5L1234 761.8L1235.3 808.5L1236.7 743.6L1238 801.2L1239.3 760.7L1240.7 823.5L1242 739.1L1243.3 802.9L1244.7 785.9L1246 824.5L1247.3 759.4L1248.7 805.2L1250 763L1251.3 813L1252.7 764.8L1254 804L1255.3 774L1256.7 800.3L1258 760.9L1259.3 803.7L1260.7 772.8L1262 822.2L1263.3 738.4L1264.7 809.3L1266 783.7L1267.3 801.3L1268.7 748L1270 800.2L1271.3 781.7L1272.7 822.7L1274 760.7L1275.3 816.1L1276.7 762.1L1278 824.6L1279.3 718.6L1280.7 820.9L1282 783.5L1283.3 808.8L1284.7 762.5L1286 823.2L1287.3 751.6L1288.7 815.7L1290 755.2L1291.3 815.2L1292.7 783.9L1294 823.4L1295.3 749.8L1296.7 819.5L1298 775.6L1299.3 820.1L1300.7 763.7L1302 815.6L1303.3 758.1L1304.7 806.6L1306 747.8L1307.3 801.2L1308.7 775L1310 811.2L1311.3 740.1L1312.7 800.1L1314 785.1L1315.3 811.3L1316.7 737.5L1318 825L1319.3 764.7L1320.7 801.2L1322 766.3L1323.3 825.8L1324.7 785.1L1326 819.8L1327.3 742.2L1328.7 800.1L1330 784.4L1331.3 824.2L1332.7 766.8L1334 826.4L1335.3 785.9L1336.7 825.2L1338 761.6L1339.3 801.7L1340.7 784.5L1342 802.8L1343.3 740.6L1344.7 824.1L1346 776.1L1347.3 818.1L1348.7 764.8L1350 822L1351.3 784.6L1352.7 801.5L1354 733.1L1355.3 799L1356.7 781.8L1358 800.4L1359.3 761.5L1360.7 818.4L1362 778L1363.3 808.7L1364.7 763.8L1366 800.1L1367.3 773.6L1368.7 823.2L1370 753.3L1371.3 817.6L1372.7 782.1L1374 820.8L1375.3 758.3L1376.7 798.9L1378 777.5L1379.3 813.3L1380.7 760.7L1382 821.5L1383.3 788L1384.7 821.9L1386 755.7L1387.3 816.2L1388.7 784.1L1390 822.1L1391.3 764.1L1392.7 802L1394 747.6L1395.3 820.4L1396.7 751.7L1398 802L1399.3 785.1L1400.7 802.7L1402 740.2L1403.3 821.5L1404.7 781.1L1406 813.8L1407.3 760.2L1408.7 802.7L1410 757.3L1411.3 820.3L1412.7 761L1414 823.9L1415.3 763.9L1416.7 802.5L1418 732.9L1419.3 816.7L1420.7 761.3L1422 822.4L1423.3 764.8L1424.7 799.8L1426 783.8L1427.3 796.8L1428.7 764.5L1430 823.4L1431.3 784.2L1432.7 824.2L1434 765.9L1435.3 809.1L1436.7 778L1438 820.5L1439.3 763.4L1440.7 824L1442 762.9L1443.3 818.2L1444.7 762.5L1446 804.6L1447.3 783.7L1448.7 822.8L1450 762.5L1451.3 795.1L1452.7 773.2L1454 820.6L1455.3 760L1456.7 822.9L1458 784.5L1459.3 791.6L1460.7 733.8L1462 818.7L1463.3 787.5L1464.7 819.7L1466 741.3L1467.3 800.4L1468.7 779.1L1470 821.2L1471.3 608.5L1472.7 709L1474 606.1L1475.3 704L1476.7 557.6L1478 706.9L1479.3 495L1480.7 692.6L1482 546.4L1483.3 661.3L1484.7 553.3L1486 672.9L1487.3 453.7L1488.7 686.7L1490 488.5L1491.3 709.7L1492.7 441.3L1494 685.2L1495.3 564.8L1496.7 676.2L1498 555.8L1499.3 754.3L1500.7 554.7L1502 722.2L1503.3 585.4L1504.7 744L1506 611.6L1507.3 752.3L1508.7 575.9L1510 715.8L1511.3 590.3L1512.7 757.8L1514 569L1515.3 730.6L1516.7 593.6L1518 732.9L1519.3 591.6L1520.7 745.5L1522 602.1L1523.3 744.3L1524.7 599.2L1526 734.8L1527.3 582.2L1528.7 724.6L1530 587.5L1531.3 711.5L1532.7 596.1L1534 758.5L1535.3 580.5L1536.7 724.2L1538 590.5L1539.3 724.2L1540.7 570.8L1542 740.1L1543.3 603.7L1544.7 731.5L1546 593.1L1547.3 713.6L1548.7 624.5L1550 746.7L1551.3 718.6L1552.7 794.3L1554 755.4L1555.3 781.8L1556.7 760.5L1558 800.2L1559.3 762.6L1560.7 801.8L1562 762.4L1563.3 801L1564.7 777.3L1566 821.4L1567.3 759.2L1568.7 802.4L1570 763.4L1571.3 801.2L1572.7 759.8L1574 822L1575.3 783.5L1576.7 820.4L1578 739.4L1579.3 802L1580.7 776.4L1582 820L1583.3 763.6L1584.7 806.4L1586 761.7L1587.3 801.1L1588.7 754.3L1590 822.1L1591.3 782.1L1592.7 823.4L1594 760.5L1595.3 801.3L1596.7 775.7L1598 809.3L1599.3 760.6L1600.7 822.9L1602 763L1603.3 823.1L1604.7 758.8L1606 794.9L1607.3 768.4L1608.7 798.6L1610 761.6L1611.3 819.4L1612.7 776.1L1614 820.3L1615.3 761.7L1616.7 802.6L1618 784.5L1619.3 796.4L1620.7 759.3L1622 799.1L1623.3 772.7L1624.7 798.6L1626 767.3L1627.3 817.7L1628.7 778.1L1630 800.4L1631.3 741.6L1632.7 806.8L1634 764.9L1635.3 800.1L1636.7 763.5L1638 802L1639.3 769.6L1640.7 801.3L1642 743.4L1643.3 809.7L1644.7 776L1646 801.5L1647.3 736.7L1648.7 819.5L1650 783.1L1651.3 801.7L1652.7 764.9L1654 824.1L1655.3 783L1656.7 799.4L1658 748.8L1659.3 802.3L1660.7 780.9L1662 822.3L1663.3 762.6L1664.7 824.6L1666 784.9L1667.3 824.6L1668.7 751.7L1670 819.7L1671.3 781.8L1672.7 821.5L1674 765.5L1675.3 824.9L1676.7 745.8L1678 796.7L1679.3 743.8L1680.7 799.7L1682 785.3L1683.3 801.3L1684.7 734L1686 793L1687.3 780.1L1688.7 823L1690 757.1L1691.3 791.3L1692.7 774.1L1694 813.2L1695.3 763.8L1696.7 800.2L1698 765L1699.3 801.1L1700.7 755L1702 819.9L1703.3 788.5L1704.7 806.8L1706 773.6L1707.3 816.2L1708.7 784.4L1710 800.7L1711.3 754.9L1712.7 802.8L1714 763.6L1715.3 802.3L1716.7 756.5L1718 799L1719.3 783.9L1720.7 800.8L1722 762.4L1723.3 803.2L1724.7 779.3L1726 820.7L1727.3 759.9L1728.7 824L1730 784.9L1731.3 802.8L1732.7 742.4L1734 803.1L1735.3 784.5L1736.7 798.3L1738 765.8L1739.3 802.4L1740.7 775.2L1742 818.4L1743.3 757.1L1744.7 823.7L1746 763.6L1747.3 822.9L1748.7 752.5L1750 815.6L1751.3 781.5L1752.7 801.2L1754 765.9L1755.3 824.8L1756.7 760.6L1758 815.3L1759.3 757.8L1760.7 807.5L1762 780.9L1763.3 798.7L1764.7 707.6L1766 815.7L1767.3 781L1768.7 804.8L1770 763L1771.3 801.2L1772.7 775.9L1774 796.3L1775.3 732.9L1776.7 788.5L1778 781L1779.3 817.9L1780.7 754.9L1782 815.4L1783.3 786.2L1784.7 821L1786 772.9L1787.3 825.4L1788.7 772.7L1790 817.2L1791.3 603.1L1792.7 751.8L1794 625.1L1795.3 719.7L1796.7 591.3L1798 723.4L1799.3 618.6" fill="transparent" stroke="#3fb1e3" stroke-width="3" stroke-linejoin="bevel" class="zr6-cls-20"></path>
</g>
<g clip-path="url(#zr6-c1)">
<path d="M200.7 562.7L202 544L203.3 768.6L204.7 623.1L206 751.2L207.3 580.1L208.7 725.6L210 595.3L211.3 739.5L212.7 598.3L214 719.7L215.3 577.5L216.7 744.9L218 571.4L219.3 741.3L220.7 578.2L222 722.4L223.3 590.3L224.7 711.4L226 599.8L227.3 717.6L228.7 555.4L230 740.3L231.3 594.3L232.7 712.6L234 555L235.3 728.9L236.7 588.3L238 739.9L239.3 593L240.7 716.3L242 585.7L243.3 740.7L244.7 578.2L246 736.8L247.3 608.5L248.7 741.3L250 563.6L251.3 732L252.7 604.5L254 742.8L255.3 588.2L256.7 733.1L258 583.7L259.3 736.7L260.7 560.9L262 730.4L263.3 609.9L264.7 714.5L266 562.1L267.3 734.7L268.7 603.7L270 709.2L271.3 734.3L272.7 808.7L274 718.8L275.3 797.9L276.7 737.2L278 807.7L279.3 758.8L280.7 813.4L282 736.7L283.3 814.4L284.7 781.8L286 823.3L287.3 762.7L288.7 817.7L290 783.4L291.3 809.4L292.7 762.5L294 825.3L295.3 728.8L296.7 820.3L298 763.3L299.3 824.6L300.7 782.1L302 823.5L303.3 739.5L304.7 798.1L306 781.1L307.3 823.7L308.7 735.8L310 816.6L311.3 761.9L312.7 803.7L314 755.9L315.3 820L316.7 774.2L318 795.9L319.3 762.4L320.7 818.7L322 783.9L323.3 824.2L324.7 765.2L326 825.2L327.3 783.8L328.7 774L330 749.6L331.3 817.7L332.7 779.2L334 805.8L335.3 763.7L336.7 798.8L338 763.4L339.3 822L340.7 766L342 806.1L343.3 789.5L344.7 816.2L346 765.5L347.3 822.6L348.7 788L350 825L351.3 743.8L352.7 801.8L354 785.7L355.3 821.1L356.7 742.1L358 823.1L359.3 772.4L360.7 812.1L362 745.7L363.3 825.8L364.7 764L366 821.1L367.3 752.2L368.7 826L370 783.3L371.3 821.2L372.7 766.3L374 824.4L375.3 779.8L376.7 821.5L378 763.3L379.3 801.4L380.7 763.7L382 824.2L383.3 757.2L384.7 812.6L386 783.4L387.3 800.2L388.7 740L390 823L391.3 785.4L392.7 802.8L394 758.8L395.3 799.1L396.7 782.8L398 820.6L399.3 767L400.7 822L402 776.9L403.3 820L404.7 764L406 821.8L407.3 760.5L408.7 802.7L410 731.6L411.3 802.6L412.7 784.1L414 821.9L415.3 765.6L416.7 823.7L418 779.2L419.3 794.2L420.7 760.7L422 823.1L423.3 790.3L424.7 823L426 744L427.3 819L428.7 762.3L430 800.7L431.3 714.2L432.7 806.3L434 782.2L435.3 821.2L436.7 742.5L438 804.6L439.3 786.1L440.7 826.1L442 742.3L443.3 824.7L444.7 765L446 804.8L447.3 753.9L448.7 826.3L450 762.4L451.3 799.9L452.7 758.9L454 825.5L455.3 765.1L456.7 825.6L458 766.2L459.3 790.6L460.7 784.2L462 824.5L463.3 766.7L464.7 826.2L466 760.5L467.3 825.8L468.7 761L470 802.7L471.3 785.6L472.7 803.5L474 768.3L475.3 805.8L476.7 777L478 801.9L479.3 762.2L480.7 813.5L482 781L483.3 819.2L484.7 759.1L486 817.7L487.3 767.9L488.7 823.6L490 766L491.3 825.9L492.7 758.3L494 799.3L495.3 743L496.7 822.1L498 765.6L499.3 806.5L500.7 755.9L502 802.2L503.3 788.5L504.7 822.7L506 774.8L507.3 825.3L508.7 755.4L510 794.8L511.3 602.2L512.7 707.7L514 598.1L515.3 745.2L516.7 552.4L518 710.3L519.3 573L520.7 714.9L522 569.3L523.3 725.9L524.7 571.6L526 700.7L527.3 567.5L528.7 716.9L530 560.6L531.3 724.9L532.7 589.6L534 747.7L535.3 604.2L536.7 711.7L538 568L539.3 715.4L540.7 600.2L542 741.3L543.3 573.7L544.7 663.1L546 591.4L547.3 740L548.7 555.5L550 711.4L551.3 597.2L552.7 715.3L554 571.4L555.3 740.5L556.7 590.2L558 727L559.3 577.4L560.7 706.2L562 590.1L563.3 711.6L564.7 589.5L566 705L567.3 586.4L568.7 738.5L570 567.2L571.3 719.6L572.7 597.5L574 739.6L575.3 567.5L576.7 726.4L578 598.1L579.3 702.7L580.7 548.9L582 733.1L583.3 583.7L584.7 739.8L586 569.2L587.3 736.2L588.7 613.3L590 723.1L591.3 728.4L592.7 794.7L594 779.5L595.3 825.3L596.7 740.1L598 804L599.3 783.6L600.7 815.5L602 764.6L603.3 826.8L604.7 785.7L606 803.6L607.3 735.3L608.7 806L610 764.4L611.3 825.7L612.7 765.3L614 822.6L615.3 764.1L616.7 800.8L618 745.8L619.3 811.4L620.7 785.2L622 825.4L623.3 737.3L624.7 821.8L626 763L627.3 811.1L628.7 765.1L630 823.3L631.3 763.3L632.7 800.1L634 753.5L635.3 803.5L636.7 786.4L638 825.2L639.3 742L640.7 803.7L642 766.5L643.3 803L644.7 749.6L646 802.4L647.3 764.3L648.7 798.7L650 747.7L651.3 825L652.7 783.1L654 825L655.3 743.1L656.7 819.1L658 784.9L659.3 802.1L660.7 762.3L662 807.6L663.3 792.1L664.7 816.3L666 766.5L667.3 799.2L668.7 786.6L670 824L671.3 768.3L672.7 826L674 783.8L675.3 795.4L676.7 736.5L678 801.1L679.3 780.5L680.7 800.4L682 760.6L683.3 821.9L684.7 761.8L686 823.5L687.3 764.1L688.7 825.1L690 777.7L691.3 818L692.7 762.1L694 822L695.3 768.1L696.7 798.2L698 740.5L699.3 814.2L700.7 778.9L702 819.7L703.3 756.9L704.7 807.9L706 769.2L707.3 805.6L708.7 697.4L710 789.9L711.3 775.4L712.7 801.5L714 730.8L715.3 809.6L716.7 774.6L718 811.8L719.3 754.5L720.7 800.4L722 772.2L723.3 809L724.7 755.2L726 813.6L727.3 708.2L728.7 801.2L730 751.6L731.3 799.7L732.7 773.9L734 790.9L735.3 676.4L736.7 788.5L738 776.6L739.3 816.4L740.7 744.9L742 793.8L743.3 783.1L744.7 794.1L746 764.8L747.3 818.5L748.7 765.8L750 819.2L751.3 758.1L752.7 823.4L754 785.2L755.3 824.5L756.7 766.2L758 824.4L759.3 761.1L760.7 823.2L762 764.8L763.3 816.7L764.7 767L766 802.6L767.3 759.3L768.7 822.7L770 785.5L771.3 825.2L772.7 765L774 825.7L775.3 776.3L776.7 820.9L778 759.8L779.3 803.9L780.7 761L782 824.6L783.3 759.5L784.7 820.9L786 783.7L787.3 824.3L788.7 766.1L790 805.7L791.3 780.9L792.7 819.9L794 742.4L795.3 802.4L796.7 784.6L798 801.9L799.3 765L800.7 821.7L802 771.4L803.3 824.7L804.7 766.5L806 823.1L807.3 783.2L808.7 813.3L810 757.1L811.3 824.3L812.7 785.2L814 823.5L815.3 760.8L816.7 819.8L818 784.4L819.3 823L820.7 761.3L822 823.7L823.3 770.7L824.7 815.3L826 759.4L827.3 825.7L828.7 780.9L830 821.8L831.3 613.2L832.7 721.8L834 606.9L835.3 720.9L836.7 561.5L838 725.4L839.3 612.3L840.7 751.2L842 594L843.3 745.7L844.7 572.3L846 703.2L847.3 559L848.7 716.2L850 591L851.3 698.7L852.7 576.4L854 698.5L855.3 587.7L856.7 713.7L858 516.5L859.3 718.7L860.7 577.2L862 713.6L863.3 561.2L864.7 685.7L866 595.9L867.3 744.1L868.7 567.8L870 740.8L871.3 596.3L872.7 716.9L874 557L875.3 709.6L876.7 588.1L878 687.8L879.3 553.4L880.7 734.9L882 585L883.3 713.1L884.7 563.7L886 738.6L887.3 610.5L888.7 691.5L890 558.8L891.3 718.3L892.7 591.3L894 702.9L895.3 578.4L896.7 720.4L898 598.3L899.3 703.5L900.7 564.9L902 735.9L903.3 586.4L904.7 727.5L906 566.2L907.3 740.1L908.7 595.7L910 716.7L911.3 745.7L912.7 817.8L914 778L915.3 823.3L916.7 761.4L918 803L919.3 765.3L920.7 804.1L922 738.2L923.3 812.7L924.7 782.3L926 821.4L927.3 764.2L928.7 826.3L930 784.7L931.3 816.5L932.7 738.5L934 806.5L935.3 762.6L936.7 824.6L938 765.5L939.3 826.4L940.7 761.7L942 805.9L943.3 764.5L944.7 825.7L946 759L947.3 823.4L948.7 755.4L950 812.4L951.3 781.3L952.7 823.9L954 762.2L955.3 823.4L956.7 754.7L958 816.5L959.3 754.6L960.7 817.6L962 765L963.3 824L964.7 765.7L966 799.9L967.3 784.3L968.7 823L970 740.5L971.3 825.4L972.7 765.1L974 813.5L975.3 764.7L976.7 823.9L978 786.7L979.3 824.3L980.7 768.2L982 800.1L983.3 789.4L984.7 823.5L986 774.8L987.3 825.9L988.7 789.7L990 797L991.3 762.1L992.7 799.3L994 785.7L995.3 813.8L996.7 766.4L998 805.6L999.3 773.1L1000.7 803.5L1002 743.4L1003.3 819.8L1004.7 785.8L1006 826.2L1007.3 739.6L1008.7 822.5L1010 786.2L1011.3 803.1L1012.7 747.4L1014 826.7L1015.3 784.8L1016.7 823.7L1018 745.8L1019.3 826L1020.7 786.7L1022 806.8L1023.3 741.6L1024.7 822.3L1026 785.1L1027.3 805.6L1028.7 764.3L1030 824L1031.3 766L1032.7 799.4L1034 765.8L1035.3 825.6L1036.7 785.1L1038 825.1L1039.3 741.9L1040.7 797.3L1042 767.7L1043.3 798.5L1044.7 766L1046 809.2L1047.3 765.5L1048.7 819L1050 760.7L1051.3 823.6L1052.7 783.4L1054 821.3L1055.3 767.2L1056.7 817.7L1058 780.3L1059.3 821.3L1060.7 766.7L1062 825L1063.3 792.1L1064.7 810.8L1066 762.5L1067.3 802.4L1068.7 766.5L1070 802.1L1071.3 744.3L1072.7 810.6L1074 768.3L1075.3 803.5L1076.7 753.2L1078 809.5L1079.3 768.4L1080.7 804.9L1082 763L1083.3 801.1L1084.7 785.3L1086 803.2L1087.3 766.7L1088.7 827.8L1090 764L1091.3 822.6L1092.7 763L1094 814.8L1095.3 787.1L1096.7 826.5L1098 766.4L1099.3 805.7L1100.7 785.3L1102 825L1103.3 764.9L1104.7 826.5L1106 769.5L1107.3 823.6L1108.7 764.2L1110 803.8L1111.3 786.9L1112.7 821.1L1114 768.2L1115.3 799.8L1116.7 784.1L1118 822.4L1119.3 763.2L1120.7 803.1L1122 786.6L1123.3 822.5L1124.7 765.5L1126 824.4L1127.3 773.3L1128.7 806.2L1130 750L1131.3 819.2L1132.7 756.8L1134 820.7L1135.3 752.5L1136.7 813.1L1138 787.5L1139.3 796.9L1140.7 759.8L1142 822.9L1143.3 789.4L1144.7 816.3L1146 773.1L1147.3 805.2L1148.7 775.3L1150 819.6L1151.3 607.1L1152.7 724.4L1154 593.8L1155.3 721.3L1156.7 594.8L1158 743.6L1159.3 601.5L1160.7 716L1162 571.8L1163.3 724.6L1164.7 575.4L1166 720.1L1167.3 556.3L1168.7 710.7L1170 603.9L1171.3 745.6L1172.7 569.6L1174 717L1175.3 574.5L1176.7 713.2L1178 566.2L1179.3 715.1L1180.7 602.8L1182 743.5L1183.3 589.2L1184.7 746.2L1186 597.5L1187.3 707.6L1188.7 552.3L1190 737.3L1191.3 580.3L1192.7 713.6L1194 571L1195.3 739L1196.7 585.7L1198 711.9L1199.3 567.4L1200.7 712.9L1202 591.2L1203.3 743.6L1204.7 574.4L1206 701.3L1207.3 597.4L1208.7 710L1210 566.3L1211.3 713.1L1212.7 590.5L1214 710L1215.3 548.8L1216.7 708.3L1218 590.6L1219.3 711.6L1220.7 553.3L1222 700.9L1223.3 563.5L1224.7 708.7L1226 559.8L1227.3 700.5L1228.7 625.4L1230 750.2L1231.3 713.6L1232.7 806.2L1234 776.5L1235.3 808.1L1236.7 764.1L1238 826.8L1239.3 762.6L1240.7 824.7L1242 741.8L1243.3 807.3L1244.7 770.7L1246 804.5L1247.3 749.2L1248.7 825.5L1250 783.9L1251.3 813.8L1252.7 764.9L1254 826.2L1255.3 781.7L1256.7 824.1L1258 763.2L1259.3 826.2L1260.7 765L1262 826.1L1263.3 741.8L1264.7 802.8L1266 783.5L1267.3 802.5L1268.7 741L1270 804.5L1271.3 778.4L1272.7 814.5L1274 761.6L1275.3 808.7L1276.7 786L1278 803.4L1279.3 747.7L1280.7 821.2L1282 762.4L1283.3 824.4L1284.7 741.2L1286 821.5L1287.3 763.9L1288.7 822L1290 759.9L1291.3 825L1292.7 785.2L1294 800.1L1295.3 764L1296.7 821.2L1298 764.6L1299.3 824.9L1300.7 765.1L1302 825.5L1303.3 765.2L1304.7 816.4L1306 771L1307.3 813.4L1308.7 788.1L1310 822.3L1311.3 766L1312.7 799.1L1314 763.4L1315.3 824.2L1316.7 763.6L1318 807.2L1319.3 766L1320.7 826.6L1322 765.5L1323.3 826.1L1324.7 785.7L1326 824.6L1327.3 741.2L1328.7 804.3L1330 759.2L1331.3 822L1332.7 756.5L1334 826L1335.3 785.7L1336.7 803.8L1338 723L1339.3 823.5L1340.7 764.6L1342 824.9L1343.3 767.3L1344.7 803.7L1346 782.8L1347.3 820.8L1348.7 766L1350 807.1L1351.3 785.7L1352.7 825.7L1354 766.1L1355.3 820.5L1356.7 783.4L1358 824.2L1359.3 765.4L1360.7 826.1L1362 730.9L1363.3 808.4L1364.7 741.7L1366 825L1367.3 786.6L1368.7 802.7L1370 764.1L1371.3 820.8L1372.7 784.4L1374 823.4L1375.3 768L1376.7 809.4L1378 787.9L1379.3 818.1L1380.7 735.3L1382 812.7L1383.3 791.4L1384.7 821.8L1386 771.6L1387.3 820.5L1388.7 766.6L1390 801.8L1391.3 767.4L1392.7 826.8L1394 789.2L1395.3 825.4L1396.7 766L1398 826.3L1399.3 765.8L1400.7 811.9L1402 741.9L1403.3 826.5L1404.7 783.3L1406 803.4L1407.3 763.7L1408.7 826.6L1410 787.4L1411.3 826.3L1412.7 739.7L1414 803.5L1415.3 786.8L1416.7 802.6L1418 764L1419.3 807L1420.7 775.7L1422 820.7L1423.3 742.5L1424.7 825.6L1426 785.8L1427.3 825.8L1428.7 768.4L1430 797L1431.3 784.9L1432.7 803.9L1434 766.7L1435.3 825.8L1436.7 754.8L1438 795.4L1439.3 741.6L1440.7 824.2L1442 783L1443.3 823.3L1444.7 765.6L1446 810.3L1447.3 760.4L1448.7 818.3L1450 745L1451.3 825.9L1452.7 784.9L1454 819.3L1455.3 758.9L1456.7 824.8L1458 788L1459.3 825L1460.7 763.7L1462 819.6L1463.3 782.7L1464.7 822L1466 772.3L1467.3 803.4L1468.7 782.8L1470 820.9L1471.3 606.7L1472.7 757.4L1474 629.5L1475.3 753.1L1476.7 590.2L1478 719.4L1479.3 579.7L1480.7 714.8L1482 583.6L1483.3 715.3L1484.7 580.5L1486 750.3L1487.3 566.7L1488.7 715.2L1490 573.6L1491.3 709.4L1492.7 570.6L1494 712.5L1495.3 593.1L1496.7 711.5L1498 582.9L1499.3 700L1500.7 601.3L1502 744.2L1503.3 576.2L1504.7 709L1506 589.8L1507.3 712.6L1508.7 547.1L1510 738.2L1511.3 610.3L1512.7 734L1514 547.3L1515.3 733.5L1516.7 577.1L1518 698.7L1519.3 583.3L1520.7 742.6L1522 560.3L1523.3 704.8L1524.7 569L1526 696.8L1527.3 557.2L1528.7 707.7L1530 588.9L1531.3 707.3L1532.7 573.1L1534 708.4L1535.3 581.7L1536.7 737.3L1538 603.4L1539.3 739.6L1540.7 569.1L1542 691.2L1543.3 600.8L1544.7 707.5L1546 597.5L1547.3 708.5L1548.7 628.8L1550 752.5L1551.3 721.3L1552.7 796L1554 732.3L1555.3 799.9L1556.7 735.8L1558 804.3L1559.3 773.2L1560.7 804L1562 764.1L1563.3 825.3L1564.7 785.2L1566 803.2L1567.3 764.2L1568.7 804.3L1570 784.8L1571.3 802.1L1572.7 765.1L1574 826.2L1575.3 764.5L1576.7 826.4L1578 764.5L1579.3 802.4L1580.7 774.3L1582 824.6L1583.3 763.4L1584.7 803.1L1586 786.1L1587.3 797.4L1588.7 757.2L1590 823.4L1591.3 782.7L1592.7 810.3L1594 764.6L1595.3 819.9L1596.7 784L1598 823.6L1599.3 760.3L1600.7 811.5L1602 764.9L1603.3 811.7L1604.7 762.2L1606 822.9L1607.3 784.7L1608.7 823L1610 753.4L1611.3 812.8L1612.7 772.3L1614 819.3L1615.3 765.1L1616.7 817.9L1618 767.2L1619.3 820.8L1620.7 746.7L1622 824.5L1623.3 789.7L1624.7 802.7L1626 773.1L1627.3 799L1628.7 772.9L1630 823L1631.3 766.9L1632.7 826L1634 787.8L1635.3 795.7L1636.7 765.8L1638 819.6L1639.3 765.8L1640.7 804.4L1642 766.9L1643.3 802.7L1644.7 756.3L1646 819.4L1647.3 761.2L1648.7 823.2L1650 786L1651.3 802.8L1652.7 740.8L1654 796.2L1655.3 785.8L1656.7 808.4L1658 747.1L1659.3 824.7L1660.7 762.1L1662 823L1663.3 765.9L1664.7 825.6L1666 766.2L1667.3 803.8L1668.7 752.1L1670 802.1L1671.3 770.9L1672.7 825.3L1674 767L1675.3 823.8L1676.7 764.5L1678 799.5L1679.3 765.1L1680.7 803.1L1682 784.9L1683.3 824.9L1684.7 744.4L1686 821.1L1687.3 782.5L1688.7 824.2L1690 744.6L1691.3 823.7L1692.7 774.6L1694 811L1695.3 760.5L1696.7 808.7L1698 786L1699.3 824.8L1700.7 735.2L1702 813.3L1703.3 764.9L1704.7 816.5L1706 772.6L1707.3 803.8L1708.7 788.8L1710 819.6L1711.3 752.4L1712.7 825L1714 787.9L1715.3 826.4L1716.7 764.6L1718 804L1719.3 777.6L1720.7 812.8L1722 743.2L1723.3 804L1724.7 778.5L1726 824.9L1727.3 766.1L1728.7 803.7L1730 764.8L1731.3 825.7L1732.7 761.4L1734 809.4L1735.3 784.7L1736.7 823.5L1738 742.5L1739.3 821.3L1740.7 770.4L1742 804.4L1743.3 739.6L1744.7 821.4L1746 766.5L1747.3 823.2L1748.7 764.2L1750 825.8L1751.3 784.4L1752.7 806.8L1754 764.7L1755.3 806.1L1756.7 764.6L1758 825.8L1759.3 761.6L1760.7 800.6L1762 784.5L1763.3 824.5L1764.7 767.1L1766 804.1L1767.3 785.5L1768.7 819L1770 744.5L1771.3 824.3L1772.7 784.9L1774 825.2L1775.3 765.2L1776.7 822.2L1778 785.9L1779.3 814.4L1780.7 766.9L1782 826.2L1783.3 769L1784.7 818.2L1786 773L1787.3 816.8L1788.7 781.3L1790 821.8L1791.3 611.2L1792.7 736.4L1794 624.6L1795.3 725.1L1796.7 567.1L1798 739.7L1799.3 606.7" fill="transparent" stroke="#6be6c1" stroke-width="3" stroke-linejoin="bevel" class="zr6-cls-20"></path>
</g>
<g clip-path="url(#zr6-c2)">
<path d="M200.7 528.7L202 454.8L203.3 737.4L204.7 613.1L206 760.5L207.3 553.1L208.7 734.3L210 607.6L211.3 714.9L212.7 511.3L214 708.4L215.3 608.2L216.7 707.9L218 577.3L219.3 741.5L220.7 587.2L222 729.8L223.3 558.3L224.7 726.6L226 539L227.3 719.1L228.7 582.1L230 739.2L231.3 588.1L232.7 729.1L234 571.9L235.3 734.5L236.7 556.1L238 731.4L239.3 577.8L240.7 735.4L242 568.7L243.3 678.4L244.7 574.5L246 735.7L247.3 585.1L248.7 719.6L250 579.8L251.3 735.2L252.7 586.8L254 740.3L255.3 580.1L256.7 711.8L258 597.1L259.3 730.7L260.7 565.3L262 704.8L263.3 585.4L264.7 744.2L266 557.5L267.3 713.7L268.7 606.3L270 747.5L271.3 729.4L272.7 810.3L274 750.3L275.3 813.8L276.7 762.2L278 817.1L279.3 761L280.7 819.5L282 757.5L283.3 825L284.7 784.2L286 801.5L287.3 737.3L288.7 821.4L290 783.7L291.3 801.8L292.7 745.6L294 802.7L295.3 777.9L296.7 760.4L298 756.8L299.3 817.3L300.7 760.2L302 800.1L303.3 736.2L304.7 814.5L306 781.4L307.3 822.6L308.7 757.1L310 804L311.3 782.1L312.7 807.5L314 733.6L315.3 814.7L316.7 756.7L318 820.1L319.3 759.8L320.7 794L322 778.5L323.3 793.6L324.7 758.1L326 806.8L327.3 771.4L328.7 808.9L330 747.5L331.3 820.4L332.7 783L334 816.9L335.3 691.7L336.7 807.5L338 777.7L339.3 798.5L340.7 761.9L342 813.7L343.3 751.6L344.7 808.2L346 752.6L347.3 818.5L348.7 785.1L350 823.8L351.3 759.5L352.7 822.4L354 783.7L355.3 823L356.7 765.1L358 802.6L359.3 756.1L360.7 822.1L362 763.6L363.3 824.6L364.7 782.4L366 824.2L367.3 752.5L368.7 795.1L370 770.1L371.3 803.7L372.7 765.6L374 821L375.3 773.6L376.7 800.4L378 764.1L379.3 823.2L380.7 762.9L382 800.8L383.3 760.7L384.7 815.6L386 782.4L387.3 821.8L388.7 737.3L390 823.6L391.3 772.7L392.7 819.5L394 763.7L395.3 820.3L396.7 784.4L398 823.6L399.3 757.3L400.7 819.3L402 782.7L403.3 822.1L404.7 747.4L406 807.5L407.3 737.8L408.7 814.8L410 759.1L411.3 811.9L412.7 781L414 795.1L415.3 708.2L416.7 814.1L418 780.8L419.3 819.8L420.7 764.9L422 822.7L423.3 780.2L424.7 816.9L426 770.9L427.3 822.4L428.7 785.2L430 822.7L431.3 748.7L432.7 822.5L434 786.1L435.3 801.5L436.7 738.9L438 802.9L439.3 777L440.7 807.7L442 763.4L443.3 803.4L444.7 764.6L446 821.5L447.3 763L448.7 821.4L450 783.4L451.3 824.1L452.7 761.8L454 825L455.3 763.8L456.7 796.4L458 737.6L459.3 800.2L460.7 760.8L462 823.3L463.3 747.7L464.7 794.5L466 767L467.3 800.9L468.7 761.6L470 810.3L471.3 784.7L472.7 818.5L474 737.3L475.3 822L476.7 783.7L478 823.9L479.3 760.1L480.7 786.4L482 782.3L483.3 800.4L484.7 764.9L486 801.6L487.3 729.2L488.7 796L490 742.3L491.3 822.3L492.7 761.9L494 823.1L495.3 746.2L496.7 819.5L498 784.9L499.3 817.2L500.7 741.4L502 805.7L503.3 787L504.7 794.4L506 772L507.3 801.9L508.7 780.1L510 820.7L511.3 603.9L512.7 751.8L514 604.5L515.3 722.9L516.7 588.2L518 714L519.3 598.8L520.7 710.3L522 528.4L523.3 707.6L524.7 582.9L526 715.2L527.3 582.6L528.7 709.4L530 615.5L531.3 722.9L532.7 562L534 715.6L535.3 589.1L536.7 744.4L538 532.2L539.3 758.1L540.7 619.3L542 747.7L543.3 578.1L544.7 701.7L546 600.2L547.3 741.6L548.7 560L550 704.3L551.3 594.2L552.7 743.7L554 534.7L555.3 717.1L556.7 580.8L558 711.9L559.3 582.9L560.7 762.9L562 624.7L563.3 770.2L564.7 547.8L566 739.3L567.3 615.6L568.7 732.3L570 588.4L571.3 761L572.7 600.4L574 744L575.3 557.1L576.7 692.3L578 582.8L579.3 732.6L580.7 571.3L582 730.4L583.3 562L584.7 621.3L586 565.3L587.3 701.3L588.7 597.2L590 721L591.3 740.4L592.7 793.6L594 776.6L595.3 800.8L596.7 759.9L598 817.3L599.3 783.7L600.7 822.1L602 757.4L603.3 802L604.7 755.3L606 821L607.3 754.8L608.7 815.8L610 700.2L611.3 806.1L612.7 749.3L614 814.8L615.3 779.7L616.7 820.1L618 758.5L619.3 764L620.7 777.8L622 820.1L623.3 746.2L624.7 822.4L626 782.6L627.3 806.8L628.7 749.8L630 812.3L631.3 781.3L632.7 823.1L634 759.8L635.3 815.7L636.7 778.2L638 819.9L639.3 762.3L640.7 799.6L642 783.6L643.3 801.2L644.7 738.6L646 797.6L647.3 767.7L648.7 821.4L650 758.1L651.3 801.6L652.7 776.2L654 817.6L655.3 762.3L656.7 822.2L658 785.4L659.3 822.4L660.7 753.3L662 819.9L663.3 787.6L664.7 822L666 772.5L667.3 824.5L668.7 753.3L670 796.6L671.3 746.3L672.7 802.9L674 786L675.3 816.9L676.7 759.2L678 801L679.3 768.5L680.7 801.8L682 756L683.3 825.5L684.7 783.2L686 799.6L687.3 764.2L688.7 824.7L690 783.8L691.3 801.9L692.7 740.4L694 794.4L695.3 761.3L696.7 801.8L698 761L699.3 803.2L700.7 762.6L702 820.1L703.3 763.2L704.7 801.3L706 782L707.3 824L708.7 739.9L710 820.7L711.3 775.1L712.7 800.2L714 744.9L715.3 810.9L716.7 762.9L718 812.9L719.3 755.8L720.7 820.9L722 768.8L723.3 801L724.7 766.4L726 816.2L727.3 774.4L728.7 816.5L730 761.3L731.3 820.4L732.7 783.4L734 805.9L735.3 737.9L736.7 815.3L738 781.7L739.3 799.4L740.7 735.6L742 816L743.3 774.3L744.7 819.5L746 769.4L747.3 822.7L748.7 785.2L750 789.1L751.3 750.3L752.7 805.8L754 769.2L755.3 824.7L756.7 766L758 802.3L759.3 760.9L760.7 809.6L762 742.3L763.3 800.3L764.7 761.8L766 801.8L767.3 745.7L768.7 825.1L770 785.4L771.3 825.1L772.7 737.9L774 825.5L775.3 762.6L776.7 807.6L778 735.9L779.3 825.2L780.7 763.4L782 802.5L783.3 763L784.7 799.5L786 784.5L787.3 823.9L788.7 766.3L790 825L791.3 781.3L792.7 821.5L794 759.2L795.3 814.5L796.7 785.7L798 824.3L799.3 763.3L800.7 799.3L802 784.2L803.3 815.9L804.7 765.3L806 799.7L807.3 775.3L808.7 815.4L810 760.8L811.3 823.3L812.7 763.3L814 809.4L815.3 718.3L816.7 810.6L818 782.5L819.3 802L820.7 741.9L822 822L823.3 775.9L824.7 812.2L826 768L827.3 823.8L828.7 757.2L830 819.8L831.3 584.3L832.7 701.5L834 585L835.3 714.4L836.7 545.7L838 710.9L839.3 571.9L840.7 702L842 583L843.3 707.7L844.7 595.5L846 694.9L847.3 575.7L848.7 737.9L850 581.1L851.3 739.6L852.7 582.3L854 758.5L855.3 594.4L856.7 748.5L858 581.6L859.3 744.6L860.7 611L862 709L863.3 570.1L864.7 721.8L866 593.8L867.3 739L868.7 550.5L870 737.1L871.3 575L872.7 721.9L874 585.9L875.3 731.9L876.7 606.5L878 729.1L879.3 593.7L880.7 719.4L882 599L883.3 740.2L884.7 586.7L886 698.7L887.3 611.6L888.7 702.8L890 570.3L891.3 709.3L892.7 594.2L894 725L895.3 577.3L896.7 734.2L898 564.8L899.3 700.3L900.7 579.8L902 713L903.3 566.2L904.7 728.5L906 591.8L907.3 739.1L908.7 597.7L910 711.8L911.3 718L912.7 815.8L914 777.5L915.3 823.8L916.7 738L918 808L919.3 765.5L920.7 808.6L922 762.6L923.3 800.8L924.7 782.7L926 823.3L927.3 754.6L928.7 824.3L930 784.7L931.3 825.1L932.7 759.7L934 815L935.3 762.6L936.7 824.1L938 763.8L939.3 823.9L940.7 783.6L942 800.3L943.3 741.2L944.7 803.8L946 785L947.3 801.3L948.7 759.9L950 820.7L951.3 782.2L952.7 823.4L954 759.5L955.3 801.9L956.7 775.9L958 810.3L959.3 760.2L960.7 823.2L962 785.1L963.3 823.9L964.7 765.1L966 798.3L967.3 782.3L968.7 819.9L970 761.9L971.3 823L972.7 785.3L974 795.2L975.3 762.3L976.7 821.8L978 764.7L979.3 823.3L980.7 744.9L982 819.2L983.3 788.3L984.7 821.3L986 758.9L987.3 824.3L988.7 786.2L990 799.8L991.3 749.7L992.7 801.5L994 786.6L995.3 816.7L996.7 739.8L998 824.5L999.3 779.7L1000.7 800.5L1002 748L1003.3 825L1004.7 761.3L1006 799.1L1007.3 732.2L1008.7 798.6L1010 761.3L1011.3 800.9L1012.7 765.2L1014 816.2L1015.3 779.6L1016.7 819L1018 756.6L1019.3 820.4L1020.7 782.2L1022 823.2L1023.3 739.5L1024.7 822.1L1026 762.2L1027.3 798.1L1028.7 736L1030 803.4L1031.3 781.8L1032.7 804.1L1034 748.3L1035.3 797.5L1036.7 783.5L1038 800.9L1039.3 761L1040.7 821.9L1042 778.8L1043.3 804.5L1044.7 766.3L1046 824.5L1047.3 777.7L1048.7 819.6L1050 729.7L1051.3 821.3L1052.7 784.2L1054 801L1055.3 745L1056.7 797L1058 784.2L1059.3 799.5L1060.7 748.5L1062 824.3L1063.3 784.7L1064.7 818.5L1066 753.1L1067.3 822.1L1068.7 773.6L1070 801.3L1071.3 764.6L1072.7 823L1074 765.3L1075.3 801.9L1076.7 749.9L1078 809L1079.3 760.6L1080.7 818.5L1082 746.7L1083.3 803.2L1084.7 783L1086 825.1L1087.3 766.6L1088.7 823.9L1090 769.7L1091.3 801.2L1092.7 764.1L1094 809.2L1095.3 780.7L1096.7 816.6L1098 759.2L1099.3 822.1L1100.7 781L1102 822.5L1103.3 741.4L1104.7 753.6L1106 759.5L1107.3 802L1108.7 762.5L1110 823.8L1111.3 783L1112.7 796.8L1114 763L1115.3 822.3L1116.7 783.5L1118 801.5L1119.3 746.8L1120.7 822.2L1122 780.8L1123.3 818.6L1124.7 744.9L1126 811.9L1127.3 783.3L1128.7 801.9L1130 740L1131.3 802.9L1132.7 762.1L1134 823.3L1135.3 762.4L1136.7 796.1L1138 783.8L1139.3 821.1L1140.7 763.4L1142 800.3L1143.3 765.4L1144.7 806.5L1146 767.8L1147.3 824.3L1148.7 758.6L1150 820.7L1151.3 602.4L1152.7 728.1L1154 588.9L1155.3 718.6L1156.7 597.3L1158 701.2L1159.3 576.9L1160.7 715.2L1162 567.8L1163.3 719.8L1164.7 595L1166 745L1167.3 550.9L1168.7 710.1L1170 586L1171.3 714L1172.7 569.8L1174 715.2L1175.3 572.9L1176.7 706.1L1178 577.8L1179.3 721.9L1180.7 608.8L1182 699.8L1183.3 568.2L1184.7 758.2L1186 590.2L1187.3 714.8L1188.7 561.3L1190 732.3L1191.3 611.4L1192.7 739.7L1194 562.5L1195.3 722.2L1196.7 580L1198 743L1199.3 578.7L1200.7 717.2L1202 617L1203.3 722.2L1204.7 593.7L1206 765.3L1207.3 607.8L1208.7 751.6L1210 558.4L1211.3 704.7L1212.7 599.5L1214 725.8L1215.3 570.5L1216.7 710.7L1218 607.4L1219.3 706.8L1220.7 561.9L1222 734.4L1223.3 588.8L1224.7 709L1226 582.1L1227.3 700.4L1228.7 608.9L1230 746L1231.3 745.6L1232.7 817.9L1234 756.1L1235.3 804.2L1236.7 756.1L1238 801.8L1239.3 777.4L1240.7 801.9L1242 754.9L1243.3 808L1244.7 783.9L1246 821.3L1247.3 733L1248.7 824.6L1250 778.9L1251.3 822L1252.7 763.7L1254 802.2L1255.3 782.6L1256.7 801.1L1258 760.7L1259.3 824.9L1260.7 780L1262 814.2L1263.3 749.5L1264.7 819.9L1266 774.9L1267.3 822.5L1268.7 737.9L1270 779.1L1271.3 776.5L1272.7 806.7L1274 731.7L1275.3 805.2L1276.7 782.4L1278 821.4L1279.3 730.6L1280.7 817.6L1282 780.9L1283.3 800L1284.7 762.9L1286 821.4L1287.3 781L1288.7 818.2L1290 755.4L1291.3 800.4L1292.7 782.5L1294 790.3L1295.3 752.6L1296.7 797.2L1298 764L1299.3 800.2L1300.7 762.7L1302 817.1L1303.3 769.6L1304.7 798.3L1306 759.6L1307.3 821.8L1308.7 787.2L1310 799.2L1311.3 739.5L1312.7 802L1314 766.1L1315.3 816.6L1316.7 734.7L1318 811.6L1319.3 781.7L1320.7 802L1322 741.3L1323.3 825.2L1324.7 782.7L1326 807.7L1327.3 760.6L1328.7 798.3L1330 761.5L1331.3 805.1L1332.7 740.7L1334 825L1335.3 759.3L1336.7 818.6L1338 761.4L1339.3 803.5L1340.7 779.6L1342 817.6L1343.3 750.9L1344.7 823.3L1346 784L1347.3 800.1L1348.7 764.3L1350 823.4L1351.3 761.2L1352.7 821.8L1354 765.4L1355.3 801.6L1356.7 785.3L1358 801.8L1359.3 742.7L1360.7 811.5L1362 784.5L1363.3 823.5L1364.7 752.9L1366 820.7L1367.3 768L1368.7 810.1L1370 759.5L1371.3 813L1372.7 777.6L1374 815.6L1375.3 726.5L1376.7 800.5L1378 753L1379.3 773.1L1380.7 753L1382 799L1383.3 731L1384.7 796.5L1386 751.6L1387.3 821.6L1388.7 729.9L1390 815.5L1391.3 711.5L1392.7 815.9L1394 777.9L1395.3 817.4L1396.7 761.4L1398 816.8L1399.3 777.6L1400.7 818.9L1402 744L1403.3 801.3L1404.7 780.5L1406 778.5L1407.3 700.7L1408.7 804.3L1410 778.9L1411.3 817.2L1412.7 749.3L1414 815.9L1415.3 771.6L1416.7 823.7L1418 734.9L1419.3 818.7L1420.7 781.2L1422 808.6L1423.3 753.9L1424.7 816.9L1426 779.9L1427.3 798.7L1428.7 763.3L1430 798.1L1431.3 780.8L1432.7 820.4L1434 759.1L1435.3 822.1L1436.7 782.7L1438 816.2L1439.3 760.4L1440.7 819.2L1442 761.9L1443.3 801.7L1444.7 763.2L1446 791.7L1447.3 779.5L1448.7 796.4L1450 746.1L1451.3 821.9L1452.7 783L1454 805.8L1455.3 750.4L1456.7 789.6L1458 781L1459.3 771.8L1460.7 722.5L1462 813.6L1463.3 766.7L1464.7 770.3L1466 768.1L1467.3 819.2L1468.7 763.5L1470 810.3L1471.3 554.3L1472.7 679.7L1474 586.1L1475.3 722.1L1476.7 551.2L1478 709.7L1479.3 552.7L1480.7 723.1L1482 536.6L1483.3 707.9L1484.7 561.5L1486 717.2L1487.3 544L1488.7 713.9L1490 569.8L1491.3 700.5L1492.7 563.1L1494 676.6L1495.3 543.4L1496.7 724.5L1498 541.4L1499.3 639L1500.7 583L1502 730.4L1503.3 525.2L1504.7 665.1L1506 536.4L1507.3 713.7L1508.7 548.3L1510 706.8L1511.3 570.8L1512.7 725L1514 583.2L1515.3 735.4L1516.7 593.9L1518 719.6L1519.3 566.1L1520.7 723.9L1522 548.2L1523.3 712L1524.7 566L1526 730.9L1527.3 531.9L1528.7 751.7L1530 563.8L1531.3 708.2L1532.7 571.3L1534 686.7L1535.3 549.3L1536.7 702.9L1538 492.8L1539.3 639.9L1540.7 515.2L1542 697.8L1543.3 585.3L1544.7 732L1546 561.2L1547.3 710.2L1548.7 604.5L1550 732.6L1551.3 725.1L1552.7 809.8L1554 771.7L1555.3 821.2L1556.7 761.9L1558 821.6L1559.3 780.6L1560.7 821.3L1562 758L1563.3 819.9L1564.7 782.5L1566 822.9L1567.3 747.6L1568.7 816.7L1570 781.6L1571.3 822.3L1572.7 760.4L1574 820.8L1575.3 727.7L1576.7 791.7L1578 754.9L1579.3 819L1580.7 779L1582 821.9L1583.3 755.3L1584.7 813.7L1586 779.8L1587.3 816.8L1588.7 755.5L1590 823.2L1591.3 762.1L1592.7 791.2L1594 758.4L1595.3 799.7L1596.7 784.2L1598 821.1L1599.3 746.5L1600.7 815.8L1602 780.4L1603.3 821.1L1604.7 738.3L1606 799.6L1607.3 738.5L1608.7 794L1610 761.7L1611.3 821.7L1612.7 781.1L1614 812.5L1615.3 746.6L1616.7 814.5L1618 781.7L1619.3 820.5L1620.7 763.9L1622 820.4L1623.3 771.9L1624.7 793.3L1626 770.9L1627.3 820.9L1628.7 783.5L1630 822.5L1631.3 758.7L1632.7 807.6L1634 776.6L1635.3 798.1L1636.7 764.1L1638 815.2L1639.3 780.6L1640.7 821.7L1642 763.7L1643.3 802.8L1644.7 781.5L1646 822.6L1647.3 759.1L1648.7 822.5L1650 760.7L1651.3 814.2L1652.7 764.4L1654 802L1655.3 784.4L1656.7 813.2L1658 764L1659.3 823.7L1660.7 783.1L1662 799.8L1663.3 762.9L1664.7 818.4L1666 781.8L1667.3 822.5L1668.7 761.4L1670 802.3L1671.3 784.9L1672.7 796.6L1674 763L1675.3 799.6L1676.7 770.8L1678 799.5L1679.3 748.6L1680.7 743.5L1682 757.3L1683.3 796.9L1684.7 763.1L1686 823.2L1687.3 783.2L1688.7 793.4L1690 758.9L1691.3 820.3L1692.7 783.4L1694 819.6L1695.3 761.2L1696.7 792.4L1698 781.7L1699.3 801.3L1700.7 763.3L1702 822L1703.3 763.7L1704.7 768.7L1706 751.1L1707.3 817.1L1708.7 763.2L1710 823L1711.3 738.2L1712.7 819.5L1714 785.2L1715.3 801.1L1716.7 743.6L1718 803L1719.3 772.6L1720.7 819.5L1722 762.1L1723.3 822.3L1724.7 784.2L1726 801.8L1727.3 764.8L1728.7 818.7L1730 765.4L1731.3 822.1L1732.7 736.5L1734 822.7L1735.3 776.9L1736.7 814.9L1738 756.2L1739.3 816.8L1740.7 781.2L1742 813.8L1743.3 764.3L1744.7 796.9L1746 780.7L1747.3 821.4L1748.7 760L1750 823.1L1751.3 779.7L1752.7 813.7L1754 731.6L1755.3 817.2L1756.7 708.6L1758 800L1759.3 758.8L1760.7 755L1762 775.5L1763.3 763L1764.7 689.3L1766 802.5L1767.3 772.1L1768.7 816.4L1770 761.3L1771.3 807.4L1772.7 718.8L1774 822L1775.3 601.2L1776.7 789L1778 767.2L1779.3 800.1L1780.7 692.8L1782 790.2L1783.3 749.9L1784.7 810.4L1786 763.4L1787.3 779.3L1788.7 751.1L1790 768.1L1791.3 463.7L1792.7 673.4L1794 517.5L1795.3 704.4L1796.7 546.2L1798 696.4L1799.3 517.3" fill="transparent" stroke="#626c91" stroke-width="3" stroke-linejoin="bevel" class="zr6-cls-20"></path>
</g>
<path d="M-228.1 -5l456.2 0l0 28l-456.2 0Z" transform="translate(1000 5)" fill="rgb(0,0,0)" fill-opacity="0" stroke="#ccc" stroke-width="0" class="zr6-cls-18"></path>
<text dominant-baseline="central" text-anchor="middle" style="font-size:18px;font-family:sans-serif;font-weight:bold;" xml:space="preserve" y="9" transform="translate(1000 5)" fill="#666666">entityUpdate per Tick for bench_1_every_60_staggered</text>
<defs >
<clipPath id="zr6-c0">
<path d="M198 58.5l16004 0l0 8703l-16004 0Z" fill="#000" class="zr6-cls-19"></path>
</clipPath>
<clipPath id="zr6-c1">
<path d="M198 58.5l16004 0l0 8703l-16004 0Z" fill="#000" class="zr6-cls-19"></path>
</clipPath>
<clipPath id="zr6-c2">
<path d="M198 58.5l16004 0l0 8703l-16004 0Z" fill="#000" class="zr6-cls-19"></path>
</clipPath>
</defs>
<style ><![CDATA[
.zr6-cls-18:hover {
pointer-events:none;
}
.zr6-cls-19:hover {
cursor:pointer;
fill:rgba(0,0,0,1);
}
.zr6-cls-20:hover {
cursor:pointer;
}

]]>

</style>
</svg>