<svg width="2000" height="1000" xmlns="http://www.w3.org/2000/svg" xmlns:xlink="http://www.w3.org/1999/xlink" version="1.1" baseProfile="full" viewBox="0 0 2000 1000">
<rect width="2000" height="1000" x="0" y="0" fill="rgb(252,252,252)" fill-opacity="0"></rect>
<path d="M200 930.5L1800 930.5" fill="transparent" stroke="#eeeeee" class="zr24-cls-72"></path>
<path d="M200 772.5L1800 772.5" fill="transparent" stroke="#eeeeee" class="zr24-cls-72"></path>
<path d="M200 614.5L1800 614.5" fill="transparent" stroke="#eeeeee" class="zr24-cls-72"></path>
<path d="M200 457.5L1800 457.5" fill="transparent" stroke="#eeeeee" class="zr24-cls-72"></path>
<path d="M200 299.5L1800 299.5" fill="transparent" stroke="#eeeeee" class="zr24-cls-72"></path>
<path d="M200 141.5L1800 141.5" fill="transparent" stroke="#eeeeee" class="zr24-cls-72"></path>
<path d="M200 60.5L1800 60.5" fill="transparent" stroke="#eeeeee" class="zr24-cls-72"></path>
<path d="M200.5 930L200.5 60" fill="transparent" stroke="#cccccc" stroke-linecap="round" class="zr24-cls-72"></path>
<text dominant-baseline="central" text-anchor="middle" style="font-size:12px;font-family:sans-serif;" xml:space="preserve" y="-6" transform="translate(200 45)" fill="#cccccc">wholeUpdate Time (ms)</text>
<path d="M200 930.5L1800 930.5" fill="transparent" stroke="#cccccc" stroke-linecap="round" class="zr24-cls-72"></path>
<text dominant-baseline="central" text-anchor="end" style="font-size:12px;font-family:sans-serif;" transform="translate(192 930)" fill="#999999">0.000</text>
<text dominant-baseline="central" text-anchor="end" style="font-size:12px;font-family:sans-serif;" transform="translate(192 772.2886)" fill="#999999">1.000</text>
<text dominant-baseline="central" text-anchor="end" style="font-size:12px;font-family:sans-serif;" transform="translate(192 614.5773)" fill="#999999">2.000</text>
<text dominant-baseline="central" text-anchor="end" style="font-size:12px;font-family:sans-serif;" transform="translate(192 456.8659)" fill="#999999">3.000</text>
<text dominant-baseline="central" text-anchor="end" style="font-size:12px;font-family:sans-serif;" transform="translate(192 299.1546)" fill="#999999">4.000</text>
<text dominant-baseline="central" text-anchor="end" style="font-size:12px;font-family:sans-serif;" transform="translate(192 141.4432)" fill="#999999">5.000</text>
<text dominant-baseline="central" text-anchor="end" style="font-size:12px;font-family:sans-serif;" transform="translate(192 60)" fill="#999999">5.516</text>
<text dominant-baseline="central" text-anchor="middle" style="font-size:12px;font-family:sans-serif;" y="6" transform="translate(200.6667 938)" fill="#999999">0</text>
<text dominant-baseline="central" text-anchor="middle" style="font-size:12px;font-family:sans-serif;" y="6" transform="translate(236.6667 938)" fill="#999999">27</text>
<text dominant-baseline="central" text-anchor="middle" style="font-size:12px;font-family:sans-serif;" y="6" transform="translate(272.6667 938)" fill="#999999">54</text>
<text dominant-baseline="central" text-anchor="middle" style="font-size:12px;font-family:sans-serif;" y="6" transform="translate(308.6667 938)" fill="#999999">81</text>
<text dominant-baseline="central" text-anchor="middle" style="font-size:12px;font-family:sans-serif;" y="6" transform="translate(344.6667 938)" fill="#999999">108</text>
<text dominant-baseline="central" text-anchor="middle" style="font-size:12px;font-family:sans-serif;" y="6" transform="translate(380.6667 938)" fill="#999999">135</text>
<text dominant-baseline="central" text-anchor="middle" style="font-size:12px;font-family:sans-serif;" y="6" transform="translate(416.6667 938)" fill="#999999">162</text>
<text dominant-baseline="central" text-anchor="middle" style="font-size:12px;font-family:sans-serif;" y="6" transform="translate(452.6667 938)" fill="#999999">189</text>
<text dominant-baseline="central" text-anchor="middle" style="font-size:12px;font-family:sans-serif;" y="6" transform="translate(488.6667 938)" fill="#999999">216</text>
<text dominant-baseline="central" text-anchor="middle" style="font-size:12px;font-family:sans-serif;" y="6" transform="translate(524.6667 938)" fill="#999999">243</text>
<text dominant-baseline="central" text-anchor="middle" style="font-size:12px;font-family:sans-serif;" y="6" transform="translate(560.6667 938)" fill="#999999">270</text>
<text dominant-baseline="central" text-anchor="middle" style="font-size:12px;font-family:sans-serif;" y="6" transform="translate(596.6667 938)" fill="#999999">297</text>
<text dominant-baseline="central" text-anchor="middle" style="font-size:12px;font-family:sans-serif;" y="6" transform="translate(632.6667 938)" fill="#999999">324</text>
<text dominant-baseline="central" text-anchor="middle" style="font-size:12px;font-family:sans-serif;" y="6" transform="translate(668.6667 938)" fill="#999999">351</text>
<text dominant-baseline="central" text-anchor="middle" style="font-size:12px;font-family:sans-serif;" y="6" transform="translate(704.6667 938)" fill="#999999">378</text>
<text dominant-baseline="central" text-anchor="middle" style="font-size:12px;font-family:sans-serif;" y="6" transform="translate(740.6667 938)" fill="#999999">405</text>
<text dominant-baseline="central" text-anchor="middle" style="font-size:12px;font-family:sans-serif;" y="6" transform="translate(776.6667 938)" fill="#999999">432</text>
<text dominant-baseline="central" text-anchor="middle" style="font-size:12px;font-family:sans-serif;" y="6" transform="translate(812.6667 938)" fill="#999999">459</text>
<text dominant-baseline="central" text-anchor="middle" style="font-size:12px;font-family:sans-serif;" y="6" transform="translate(848.6667 938)" fill="#999999">486</text>
<text dominant-baseline="central" text-anchor="middle" style="font-size:12px;font-family:sans-serif;" y="6" transform="translate(884.6667 938)" fill="#999999">513</text>
<text dominant-baseline="central" text-anchor="middle" style="font-size:12px;font-family:sans-serif;" y="6" transform="translate(920.6667 938)" fill="#999999">540</text>
<text dominant-baseline="central" text-anchor="middle" style="font-size:12px;font-family:sans-serif;" y="6" transform="translate(956.6667 938)" fill="#999999">567</text>
<text dominant-baseline="central" text-anchor="middle" style="font-size:12px;font-family:sans-serif;" y="6" transform="translate(992.6667 938)" fill="#999999">594</text>
<text dominant-baseline="central" text-anchor="middle" style="font-size:12px;font-family:sans-serif;" y="6" transform="translate(1028.6667 938)" fill="#999999">621</text>
<text dominant-baseline="central" text-anchor="middle" style="font-size:12px;font-family:sans-serif;" y="6" transform="translate(1064.6667 938)" fill="#999999">648</text>
<text dominant-baseline="central" text-anchor="middle" style="font-size:12px;font-family:sans-serif;" y="6" transform="translate(1100.6667 938)" fill="#999999">675</text>
<text dominant-baseline="central" text-anchor="middle" style="font-size:12px;font-family:sans-serif;" y="6" transform="translate(1136.6667 938)" fill="#999999">702</text>
<text dominant-baseline="central" text-anchor="middle" style="font-size:12px;font-family:sans-serif;" y="6" transform="translate(1172.6667 938)" fill="#999999">729</text>
<text dominant-baseline="central" text-anchor="middle" style="font-size:12px;font-family:sans-serif;" y="6" transform="translate(1208.6667 938)" fill="#999999">756</text>
<text dominant-baseline="central" text-anchor="middle" style="font-size:12px;font-family:sans-serif;" y="6" transform="translate(1244.6667 938)" fill="#999999">783</text>
<text dominant-baseline="central" text-anchor="middle" style="font-size:12px;font-family:sans-serif;" y="6" transform="translate(1280.6667 938)" fill="#999999">810</text>
<text dominant-baseline="central" text-anchor="middle" style="font-size:12px;font-family:sans-serif;" y="6" transform="translate(1316.6667 938)" fill="#999999">837</text>
<text dominant-baseline="central" text-anchor="middle" style="font-size:12px;font-family:sans-serif;" y="6" transform="translate(1352.6667 938)" fill="#999999">864</text>
<text dominant-baseline="central" text-anchor="middle" style="font-size:12px;font-family:sans-serif;" y="6" transform="translate(1388.6667 938)" fill="#999999">891</text>
<text dominant-baseline="central" text-anchor="middle" style="font-size:12px;font-family:sans-serif;" y="6" transform="translate(1424.6667 938)" fill="#999999">918</text>
<text dominant-baseline="central" text-anchor="middle" style="font-size:12px;font-family:sans-serif;" y="6" transform="translate(1460.6667 938)" fill="#999999">945</text>
<text dominant-baseline="central" text-anchor="middle" style="font-size:12px;font-family:sans-serif;" y="6" transform="translate(1496.6667 938)" fill="#999999">972</text>
<text dominant-baseline="central" text-anchor="middle" style="font-size:12px;font-family:sans-serif;" y="6" transform="translate(1532.6667 938)" fill="#999999">999</text>
<text dominant-baseline="central" text-anchor="middle" style="font-size:12px;font-family:sans-serif;" y="6" transform="translate(1568.6667 938)" fill="#999999">1026</text>
<text dominant-baseline="central" text-anchor="middle" style="font-size:12px;font-family:sans-serif;" y="6" transform="translate(1604.6667 938)" fill="#999999">1053</text>
<text dominant-baseline="central" text-anchor="middle" style="font-size:12px;font-family:sans-serif;" y="6" transform="translate(1640.6667 938)" fill="#999999">1080</text>
<text dominant-baseline="central" text-anchor="middle" style="font-size:12px;font-family:sans-serif;" y="6" transform="translate(1676.6667 938)" fill="#999999">1107</text>
<text dominant-baseline="central" text-anchor="middle" style="font-size:12px;font-family:sans-serif;" y="6" transform="translate(1712.6667 938)" fill="#999999">1134</text>
<text dominant-baseline="central" text-anchor="middle" style="font-size:12px;font-family:sans-serif;" y="6" transform="translate(1748.6667 938)" fill="#999999">1161</text>
<text dominant-baseline="central" text-anchor="middle" style="font-size:12px;font-family:sans-serif;" y="6" transform="translate(1784.6667 938)" fill="#999999">1188</text>
<g clip-path="url(#zr24-c0)">
<path d="M200.7 418.5L202 723.8L203.3 709.5L204.7 808.4L206 752.1L207.3 806.3L208.7 634.1L210 714.2L211.3 726L212.7 765L214 696.9L215.3 806.8L216.7 781.1L218 828.4L219.3 629.1L220.7 659.5L222 717L223.3 771L224.7 699.6L226 821.4L227.3 793.9L228.7 817L230 611.8L231.3 719.6L232.7 720.5L234 778L235.3 733.6L236.7 824.5L238 774.7L239.3 825.1L240.7 632.1L242 619.5L243.3 704.4L244.7 758.1L246 685.7L247.3 818.8L248.7 793.4L250 821.2L251.3 601.9L252.7 664.8L254 706.5L255.3 765.9L256.7 729.8L258 823.2L259.3 794.5L260.7 798.2L262 588.2L263.3 674.4L264.7 691.7L266 736.9L267.3 690.9L268.7 763.9L270 763.4L271.3 813.1L272.7 595.5L274 675.8L275.3 705.2L276.7 742.1L278 689.1L279.3 797.3L280.7 770.6L282 813.1L283.3 622.1L284.7 623.6L286 644.2L287.3 751.5L288.7 683.5L290 808.8L291.3 768L292.7 822.6L294 598.7L295.3 661.6L296.7 693.5L298 764.7L299.3 726.2L300.7 822.4L302 759.5L303.3 805.4L304.7 610.1L306 675.9L307.3 704.9L308.7 745.4L310 673.6L311.3 802.9L312.7 781.3L314 802L315.3 620.6L316.7 669.4L318 724.3L319.3 754.2L320.7 695L322 814.4L323.3 786.2L324.7 820.4L326 627.2L327.3 668.5L328.7 652.4L330 737.3L331.3 703.9L332.7 797.5L334 777.1L335.3 808.3L336.7 614.2L338 678.4L339.3 716.7L340.7 759.5L342 688.1L343.3 819.8L344.7 790.2L346 788.4L347.3 602.6L348.7 676.1L350 686.2L351.3 734.7L352.7 683.2L354 782.4L355.3 752.7L356.7 816.9L358 605.5L359.3 653L360.7 685.3L362 731.9L363.3 684.6L364.7 808.1L366 780L367.3 819.2L368.7 596.3L370 653.1L371.3 684.9L372.7 750.2L374 675.2L375.3 809.3L376.7 754.7L378 811.7L379.3 587.8L380.7 665.5L382 683.7L383.3 740.9L384.7 688.9L386 801.4L387.3 750.7L388.7 793.8L390 609.4L391.3 661.1L392.7 693.5L394 721.8L395.3 688L396.7 783.5L398 775.7L399.3 801.8L400.7 609.6L402 658L403.3 671.4L404.7 746.7L406 686.1L407.3 812.5L408.7 781.9L410 821.5L411.3 594.7L412.7 614.5L414 662.1L415.3 710.7L416.7 670.3L418 800L419.3 763.3L420.7 789.5L422 597.3L423.3 674.4L424.7 704.2L426 740.5L427.3 665L428.7 806L430 769.8L431.3 814.2L432.7 585.1L434 624.2L435.3 644.2L436.7 745.4L438 685.3L439.3 816.8L440.7 771L442 816.6L443.3 586.8L444.7 656.1L446 698.7L447.3 731.4L448.7 710.7L450 817.1L451.3 775.5L452.7 788.5L454 573.4L455.3 634.1L456.7 670L458 751.4L459.3 654.4L460.7 787.7L462 760L463.3 814.8L464.7 595.7L466 655.9L467.3 651.1L468.7 732L470 674.2L471.3 793.4L472.7 771.8L474 814.8L475.3 609.2L476.7 656.7L478 673.2L479.3 734.1L480.7 686.2L482 811.7L483.3 768.9L484.7 796.4L486 569.4L487.3 657.4L488.7 685.3L490 732.8L491.3 663.7L492.7 789.5L494 746.2L495.3 814.3L496.7 613.8L498 666.2L499.3 716.9L500.7 735.1L502 709.6L503.3 806.4L504.7 793.1L506 798.1L507.3 594.8L508.7 693.7L510 718.2L511.3 769.8L512.7 730.5L514 811.5L515.3 780L516.7 813.3L518 581L519.3 635.7L520.7 688L522 758.1L523.3 716.5L524.7 823.6L526 774.6L527.3 797.4L528.7 613.7L530 675.2L531.3 706.2L532.7 754.7L534 711.7L535.3 805.9L536.7 790.5L538 815.1L539.3 634.4L540.7 667.9L542 697.7L543.3 727.4L544.7 696.9L546 811.6L547.3 790.5L548.7 828.5L550 621L551.3 691.9L552.7 690.1L554 721.8L555.3 731.5L556.7 819.7L558 775.9L559.3 822.9L560.7 610.6L562 658L563.3 704.4L564.7 751.8L566 686L567.3 810.4L568.7 791.9L570 802L571.3 600.4L572.7 692.4L574 707.2L575.3 766.6L576.7 716.2L578 825.5L579.3 771.5L580.7 805.9L582 568.9L583.3 639.9L584.7 667.5L586 757.9L587.3 703.8L588.7 812.2L590 784.6L591.3 822.1L592.7 608.2L594 699.5L595.3 714.5L596.7 741.8L598 708.4L599.3 821.4L600.7 789.5L602 800.7L603.3 601.4L604.7 679.8L606 701.7L607.3 725.9L608.7 709.6L610 816.7L611.3 761.3L612.7 804L614 561.9L615.3 677L616.7 719.5L618 739.9L619.3 684.2L620.7 782.9L622 771.5L623.3 818.6L624.7 563L626 670.6L627.3 677.4L628.7 747.1L630 695L631.3 808.4L632.7 767.7L634 801.1L635.3 588L636.7 675.2L638 697.3L639.3 719.8L640.7 713.2L642 810.3L643.3 776L644.7 808.8L646 624.3L647.3 653.5L648.7 670.2L650 736L651.3 709.5L652.7 807L654 782.8L655.3 816.7L656.7 583.4L658 663.7L659.3 697.5L660.7 769.4L662 716.3L663.3 821.2L664.7 763.5L666 802.9L667.3 615.9L668.7 661.5L670 677.5L671.3 736.3L672.7 680.5L674 793.6L675.3 777.2L676.7 803L678 593.3L679.3 673.2L680.7 717.7L682 746.9L683.3 712.1L684.7 799.1L686 761.7L687.3 804.4L688.7 620.8L690 649.5L691.3 661.8L692.7 739.3L694 675.9L695.3 796.8L696.7 761.4L698 820.3L699.3 605.2L700.7 684.9L702 679.9L703.3 724.4L704.7 717L706 806L707.3 743.8L708.7 811.3L710 612.2L711.3 654.9L712.7 652L714 720.4L715.3 670.1L716.7 804.4L718 775.1L719.3 819.5L720.7 605.8L722 658L723.3 686.4L724.7 752.5L726 684.7L727.3 820.2L728.7 773.3L730 816.3L731.3 617.3L732.7 606.5L734 655.4L735.3 750.7L736.7 674.1L738 803.8L739.3 739.2L740.7 812L742 590.8L743.3 674.8L744.7 711.8L746 740.5L747.3 687.8L748.7 804.7L750 765.1L751.3 810.2L752.7 608.4L754 658.2L755.3 692.3L756.7 697.7L758 676.9L759.3 799.8L760.7 755.2L762 815.4L763.3 585L764.7 622.8L766 703.5L767.3 733.6L768.7 684.7L770 808.8L771.3 775.6L772.7 811.6L774 553.9L775.3 667.7L776.7 665.9L778 734.4L779.3 645.2L780.7 789.7L782 760.5L783.3 799.5L784.7 607.7L786 682.6L787.3 686.8L788.7 702.3L790 688.2L791.3 809L792.7 750.6L794 802.7L795.3 603.5L796.7 665.7L798 659L799.3 730.3L800.7 694.9L802 815.5L803.3 767.9L804.7 813.1L806 596.4L807.3 675.9L808.7 706L810 755.2L811.3 714.6L812.7 821.2L814 766.5L815.3 810.4L816.7 588.4L818 682.1L819.3 709.4L820.7 751L822 702.4L823.3 821.2L824.7 798.8L826 804.1L827.3 622.1L828.7 691.5L830 755.4L831.3 774.2L832.7 703.3L834 822.9L835.3 796L836.7 822L838 625.4L839.3 692.2L840.7 734.6L842 743.5L843.3 727L844.7 795.9L846 777.4L847.3 824.4L848.7 643.5L850 722.1L851.3 710.2L852.7 777.5L854 736.6L855.3 804.5L856.7 789.7L858 823.9L859.3 558.5L860.7 620.8L862 716.8L863.3 735.6L864.7 726L866 822.4L867.3 794.5L868.7 802.8L870 600.7L871.3 653.8L872.7 648L874 723.5L875.3 714.9L876.7 798.9L878 756.9L879.3 801L880.7 626.3L882 632.3L883.3 660.1L884.7 691L886 649.9L887.3 814.6L888.7 779.5L890 808.2L891.3 617.3L892.7 666L894 698.2L895.3 729.1L896.7 708.6L898 817.7L899.3 787.2L900.7 810.9L902 580.9L903.3 664.6L904.7 700.9L906 754.1L907.3 716.3L908.7 819.2L910 775.7L911.3 803L912.7 600.7L914 674.8L915.3 713.6L916.7 764L918 686.5L919.3 807.2L920.7 779.1L922 819.5L923.3 599.7L924.7 648.2L926 702.3L927.3 747.1L928.7 712.7L930 805.6L931.3 785L932.7 810.2L934 624.1L935.3 672.4L936.7 685.5L938 757.4L939.3 700.7L940.7 821.5L942 768.3L943.3 820.3L944.7 570.1L946 650.9L947.3 706.1L948.7 769.5L950 711L951.3 816.7L952.7 786.2L954 786.6L955.3 599.8L956.7 655.7L958 690L959.3 754L960.7 707.8L962 818.9L963.3 754.5L964.7 817.9L966 589.8L967.3 660.3L968.7 680.2L970 706.6L971.3 691.6L972.7 817.7L974 765.5L975.3 817.4L976.7 597.9L978 671.1L979.3 682L980.7 760L982 716.8L983.3 821.3L984.7 791.2L986 805.4L987.3 603.9L988.7 660.2L990 693.5L991.3 750.7L992.7 682.1L994 808.1L995.3 768.3L996.7 807.3L998 581.8L999.3 694.9L1000.7 737.7L1002 758.6L1003.3 725.1L1004.7 807.4L1006 764.3L1007.3 797.3L1008.7 606.6L1010 649.5L1011.3 699.5L1012.7 722.9L1014 673.8L1015.3 806.8L1016.7 782.2L1018 822.1L1019.3 624.5L1020.7 695.4L1022 704.3L1023.3 753.6L1024.7 719.5L1026 818.9L1027.3 764.2L1028.7 817.4L1030 621.9L1031.3 602.9L1032.7 670.4L1034 735.6L1035.3 674L1036.7 805.9L1038 782.2L1039.3 808.2L1040.7 592.6L1042 690.2L1043.3 719.8L1044.7 762.6L1046 674.5L1047.3 808.6L1048.7 728L1050 807.2L1051.3 619.9L1052.7 668.7L1054 678.6L1055.3 738.9L1056.7 660.5L1058 813.4L1059.3 770.4L1060.7 802.9L1062 591.4L1063.3 666.8L1064.7 682.9L1066 759.1L1067.3 719.2L1068.7 792.7L1070 777.2L1071.3 810.2L1072.7 540.2L1074 659.5L1075.3 689.2L1076.7 759L1078 672.7L1079.3 816.7L1080.7 771.2L1082 799.8L1083.3 587.8L1084.7 683.2L1086 668L1087.3 735.2L1088.7 700.8L1090 807.8L1091.3 771.7L1092.7 813.5L1094 585.7L1095.3 665.3L1096.7 665.2L1098 734.2L1099.3 691L1100.7 798.5L1102 771.2L1103.3 812.9L1104.7 575.4L1106 616.4L1107.3 688.2L1108.7 745.6L1110 703.8L1111.3 818.7L1112.7 774.4L1114 792.5L1115.3 589.6L1116.7 669.2L1118 666.2L1119.3 741.1L1120.7 699.4L1122 806.3L1123.3 756.5L1124.7 784.4L1126 603.1L1127.3 676.9L1128.7 689.4L1130 759.6L1131.3 694.3L1132.7 811.3L1134 754.9L1135.3 814.6L1136.7 617.9L1138 658.2L1139.3 663.5L1140.7 736.8L1142 695.6L1143.3 798.7L1144.7 798.6L1146 825L1147.3 626.5L1148.7 700.5L1150 733.9L1151.3 764.9L1152.7 744.2L1154 825.2L1155.3 798.8L1156.7 808.4L1158 619.8L1159.3 680.1L1160.7 702.8L1162 765L1163.3 724.3L1164.7 827.4L1166 797.2L1167.3 790.5L1168.7 612.6L1170 702.8L1171.3 708.3L1172.7 769.7L1174 724.5L1175.3 805L1176.7 765.6L1178 818.5L1179.3 616.7L1180.7 664.3L1182 692.9L1183.3 736.9L1184.7 689.3L1186 808.8L1187.3 774.6L1188.7 808.9L1190 587.9L1191.3 673.1L1192.7 705.5L1194 744.1L1195.3 730.7L1196.7 810L1198 770.9L1199.3 822.3L1200.7 640.3L1202 653L1203.3 679.8L1204.7 736.5L1206 707.5L1207.3 814.8L1208.7 790.3L1210 809.5L1211.3 623.4L1212.7 699.3L1214 703.1L1215.3 755.9L1216.7 700.1L1218 816.1L1219.3 767L1220.7 807.7L1222 614L1223.3 653.4L1224.7 686.7L1226 741.7L1227.3 689.4L1228.7 819.2L1230 790.3L1231.3 819.3L1232.7 635.5L1234 679L1235.3 712.2L1236.7 734.2L1238 712.2L1239.3 819.5L1240.7 787.4L1242 825.4L1243.3 602.1L1244.7 669L1246 671.3L1247.3 740.9L1248.7 689.6L1250 810.7L1251.3 764.2L1252.7 813.1L1254 620.9L1255.3 656.4L1256.7 704L1258 745.7L1259.3 729.4L1260.7 822.2L1262 784.8L1263.3 785.7L1264.7 589.4L1266 660.3L1267.3 681L1268.7 739.8L1270 658.1L1271.3 791.8L1272.7 780.3L1274 794.3L1275.3 620.7L1276.7 676L1278 703.3L1279.3 743.3L1280.7 680.3L1282 821L1283.3 767.6L1284.7 807.8L1286 605.1L1287.3 650L1288.7 652.9L1290 681.8L1291.3 688.8L1292.7 796.7L1294 758.3L1295.3 810.3L1296.7 595.4L1298 674.6L1299.3 722.8L1300.7 748.4L1302 706.3L1303.3 806.7L1304.7 775.8L1306 787.7L1307.3 623.2L1308.7 679.6L1310 674.8L1311.3 743.5L1312.7 695.5L1314 804.5L1315.3 774.3L1316.7 816.1L1318 613.4L1319.3 686.4L1320.7 687L1322 752.5L1323.3 691.3L1324.7 804.9L1326 762.3L1327.3 813.8L1328.7 610.9L1330 604.2L1331.3 677.6L1332.7 753.3L1334 689.8L1335.3 820L1336.7 773.8L1338 820.5L1339.3 605.4L1340.7 669.2L1342 699.9L1343.3 760L1344.7 689.2L1346 803.1L1347.3 761.6L1348.7 806.7L1350 605.1L1351.3 651.2L1352.7 674.9L1354 707.3L1355.3 674.9L1356.7 798.7L1358 755.2L1359.3 813.5L1360.7 588.8L1362 653.2L1363.3 689.6L1364.7 727.3L1366 698.6L1367.3 808.2L1368.7 779L1370 816.7L1371.3 556.1L1372.7 656.7L1374 665.5L1375.3 749.7L1376.7 670.8L1378 812.5L1379.3 742.8L1380.7 800.4L1382 590.8L1383.3 694.2L1384.7 694.1L1386 751.9L1387.3 667L1388.7 797.6L1390 767.6L1391.3 811.9L1392.7 589.9L1394 667.8L1395.3 642.4L1396.7 710.5L1398 680.9L1399.3 795.2L1400.7 765.4L1402 816.7L1403.3 580L1404.7 645.7L1406 696.9L1407.3 758.5L1408.7 705.7L1410 797.1L1411.3 747.9L1412.7 805.5L1414 579.2L1415.3 665.7L1416.7 684.6L1418 767.5L1419.3 705.3L1420.7 803.8L1422 746.2L1423.3 807.6L1424.7 610.1L1426 708.2L1427.3 694.8L1428.7 767.9L1430 680.4L1431.3 811.3L1432.7 753.9L1434 820L1435.3 603.9L1436.7 664.9L1438 653.4L1439.3 726.6L1440.7 693.9L1442 801.3L1443.3 769.1L1444.7 817.6L1446 593.9L1447.3 683.2L1448.7 701.1L1450 763.6L1451.3 708.1L1452.7 802.2L1454 744.9L1455.3 782.6L1456.7 597.5L1458 658.5L1459.3 705.7L1460.7 762.6L1462 685.8L1463.3 793.3L1464.7 795.9L1466 824.7L1467.3 639L1468.7 686.8L1470 715L1471.3 741L1472.7 708.5L1474 817L1475.3 778.2L1476.7 819.7L1478 601.7L1479.3 676.1L1480.7 714.7L1482 742.3L1483.3 697.1L1484.7 826.1L1486 797.9L1487.3 817.6L1488.7 641.1L1490 660.7L1491.3 727.5L1492.7 758.2L1494 703.2L1495.3 814.4L1496.7 793.4L1498 817.3L1499.3 597.7L1500.7 677.5L1502 694.7L1503.3 742L1504.7 699.4L1506 805.9L1507.3 769.1L1508.7 803.5L1510 612.5L1511.3 633.8L1512.7 698.2L1514 754.3L1515.3 712.5L1516.7 798.5L1518 792.2L1519.3 822.1L1520.7 622.6L1522 665.9L1523.3 655.7L1524.7 687.5L1526 681L1527.3 816L1528.7 768.8L1530 811.3L1531.3 622.3L1532.7 687L1534 691.7L1535.3 755.7L1536.7 728.5L1538 812.3L1539.3 792.8L1540.7 827.8L1542 582.1L1543.3 669.9L1544.7 675.5L1546 722.5L1547.3 691.7L1548.7 811.5L1550 765.7L1551.3 800.7L1552.7 630.7L1554 674.6L1555.3 686.6L1556.7 748.9L1558 660L1559.3 821.8L1560.7 764.4L1562 822.7L1563.3 608.3L1564.7 667.9L1566 682.6L1567.3 748.3L1568.7 716.3L1570 809.9L1571.3 768L1572.7 817.4L1574 608L1575.3 685.4L1576.7 709.4L1578 748.2L1579.3 729.3L1580.7 825.6L1582 788.9L1583.3 819.9L1584.7 626.3L1586 644L1587.3 677.3L1588.7 757.4L1590 692.4L1591.3 797.7L1592.7 791.8L1594 809.9L1595.3 583.1L1596.7 668L1598 727.2L1599.3 772.3L1600.7 724.8L1602 802.9L1603.3 772.7L1604.7 817.5L1606 601.3L1607.3 667.2L1608.7 675.7L1610 716L1611.3 696.7L1612.7 796.7L1614 765.9L1615.3 809.9L1616.7 608.2L1618 701.3L1619.3 689.7L1620.7 755.2L1622 677.5L1623.3 802.7L1624.7 761.3L1626 815.8L1627.3 608L1628.7 614.3L1630 693.5L1631.3 730.2L1632.7 694L1634 809.8L1635.3 765.4L1636.7 801.8L1638 572.8L1639.3 687.7L1640.7 710.6L1642 741L1643.3 689L1644.7 809.8L1646 754.4L1647.3 804.6L1648.7 625.4L1650 652.7L1651.3 679.3L1652.7 696.1L1654 666.6L1655.3 818.1L1656.7 781L1658 818.6L1659.3 620.6L1660.7 690.5L1662 675.7L1663.3 758.1L1664.7 692.7L1666 797.9L1667.3 781.3L1668.7 823.3L1670 604.1L1671.3 646.2L1672.7 676.4L1674 748L1675.3 677.4L1676.7 783L1678 763.3L1679.3 811.5L1680.7 606.6L1682 679.8L1683.3 697.7L1684.7 759.8L1686 697.7L1687.3 812L1688.7 783.7L1690 819.1L1691.3 617.3L1692.7 676.5L1694 667.1L1695.3 714.4L1696.7 679.7L1698 803.2L1699.3 771.2L1700.7 810.3L1702 584.2L1703.3 603.3L1704.7 675.9L1706 746.2L1707.3 691.7L1708.7 819.3L1710 759.4L1711.3 799.1L1712.7 587.1L1714 639.1L1715.3 669.8L1716.7 745.4L1718 657.2L1719.3 804.4L1720.7 772.8L1722 801.4L1723.3 602.3L1724.7 695.4L1726 715.3L1727.3 760.1L1728.7 701.2L1730 799.6L1731.3 746.8L1732.7 812.2L1734 564.4L1735.3 656.6L1736.7 620.3L1738 741L1739.3 688.4L1740.7 802.6L1742 750.5L1743.3 811.3L1744.7 580.8L1746 666L1747.3 676.7L1748.7 753.5L1750 671.8L1751.3 779.8L1752.7 731L1754 807.8L1755.3 572.3L1756.7 641.6L1758 631.8L1759.3 715.3L1760.7 677.3L1762 808.4L1763.3 763L1764.7 813.5L1766 608.3L1767.3 657.4L1768.7 684.4L1770 738.3L1771.3 709L1772.7 816.5L1774 772.1L1775.3 817.6L1776.7 594L1778 668.5L1779.3 683.2L1780.7 761.2L1782 694.7L1783.3 827.1L1784.7 788.2L1786 815.8L1787.3 598.6L1788.7 684.5L1790 703.4L1791.3 774.2L1792.7 733.6L1794 816.9L1795.3 772.2L1796.7 804.7L1798 635.3L1799.3 669" fill="transparent" stroke="#3fb1e3" stroke-width="3" stroke-linejoin="bevel" class="zr24-cls-74"></path>
</g>
<g clip-path="url(#zr24-c1)">
<path d="M200.7 401.9L202 629.9L203.3 688.1L204.7 805.7L206 769.5L207.3 812.4L208.7 615.8L210 662.1L211.3 730.3L212.7 780.9L214 728.8L215.3 806.4L216.7 774.2L218 821.7L219.3 633.7L220.7 662L222 703.4L223.3 764.8L224.7 712L226 822.9L227.3 791.4L228.7 804.5L230 596.1L231.3 696L232.7 720.4L234 773.1L235.3 737.3L236.7 822.9L238 793.6L239.3 823.8L240.7 625.5L242 689.6L243.3 699.7L244.7 744.6L246 690.8L247.3 768.5L248.7 771.9L250 811.1L251.3 634L252.7 700.3L254 712L255.3 724.8L256.7 679.1L258 803.7L259.3 785.8L260.7 818L262 621.3L263.3 647.4L264.7 695L266 720.9L267.3 703.7L268.7 815.5L270 788L271.3 806L272.7 624L274 650.2L275.3 710L276.7 768.6L278 689.1L279.3 800L280.7 741.8L282 780.7L283.3 585.7L284.7 644.4L286 676L287.3 723.1L288.7 681.3L290 815.1L291.3 735.9L292.7 819.8L294 564.9L295.3 687.8L296.7 713.7L298 746.6L299.3 716.3L300.7 814.2L302 783.3L303.3 795L304.7 617.1L306 677.5L307.3 668.4L308.7 756.8L310 698.4L311.3 819.7L312.7 785.2L314 805L315.3 611.3L316.7 671.9L318 719.3L319.3 741.3L320.7 721.9L322 800.1L323.3 768.8L324.7 806.1L326 606.7L327.3 661.1L328.7 700.8L330 739.6L331.3 712.3L332.7 816.2L334 766.2L335.3 814.3L336.7 613.1L338 691.2L339.3 693.7L340.7 744.2L342 643.8L343.3 815.4L344.7 762L346 820.3L347.3 623.5L348.7 665.3L350 694.2L351.3 748.4L352.7 658.6L354 817.7L355.3 760.3L356.7 812.8L358 588.3L359.3 648.3L360.7 676.2L362 758.6L363.3 686.5L364.7 813.8L366 782.1L367.3 774.1L368.7 600.9L370 646.8L371.3 699.4L372.7 732.5L374 675.6L375.3 812.3L376.7 776.1L378 800.9L379.3 590.5L380.7 684.9L382 693.2L383.3 725.3L384.7 705.1L386 814.2L387.3 757.7L388.7 815.5L390 610.2L391.3 656.5L392.7 676.9L394 733.4L395.3 705.4L396.7 797.6L398 757.6L399.3 807L400.7 601.4L402 677.1L403.3 694L404.7 761.5L406 709.3L407.3 824.6L408.7 748.2L410 813L411.3 613.6L412.7 677.2L414 657.1L415.3 727.1L416.7 649.6L418 796.1L419.3 754L420.7 813.8L422 580.3L423.3 677.6L424.7 657.8L426 717.2L427.3 676.7L428.7 803.4L430 760.9L431.3 801.5L432.7 497.4L434 586.3L435.3 639.1L436.7 721.5L438 622.7L439.3 774.5L440.7 742.5L442 800.4L443.3 558.1L444.7 666.3L446 644.1L447.3 716.8L448.7 647.6L450 785.4L451.3 751.5L452.7 796.4L454 546.4L455.3 611.9L456.7 594.4L458 716L459.3 660.8L460.7 761.3L462 732.9L463.3 803.6L464.7 559.1L466 675.6L467.3 666.6L468.7 735.1L470 657.1L471.3 794.7L472.7 731.1L474 809.1L475.3 591.7L476.7 603.5L478 637.5L479.3 741.8L480.7 690.9L482 811.9L483.3 734.3L484.7 789.9L486 583.2L487.3 681.8L488.7 699.9L490 735.5L491.3 665L492.7 788.6L494 737.1L495.3 810.6L496.7 599.5L498 653.7L499.3 685.7L500.7 751.3L502 713.3L503.3 810.1L504.7 784.6L506 801.8L507.3 637.5L508.7 691.1L510 733L511.3 776.9L512.7 736.8L514 813.8L515.3 797.3L516.7 829L518 607.8L519.3 672.5L520.7 719.8L522 744.5L523.3 707.2L524.7 807.3L526 792.5L527.3 818.9L528.7 619L530 699.7L531.3 712.8L532.7 774.1L534 725.5L535.3 815.1L536.7 796.1L538 816.8L539.3 631.8L540.7 663.1L542 718.9L543.3 739.8L544.7 681.3L546 786.2L547.3 770.9L548.7 827.3L550 610.3L551.3 694L552.7 712L554 746.3L555.3 708L556.7 813.5L558 790.1L559.3 828.5L560.7 620.1L562 686.3L563.3 708.7L564.7 759.2L566 675.5L567.3 821.4L568.7 771.3L570 809.8L571.3 632.2L572.7 678L574 690.6L575.3 771.4L576.7 730.1L578 807.4L579.3 793.3L580.7 825L582 618.5L583.3 664.9L584.7 678.3L586 739.2L587.3 694.9L588.7 825.6L590 769L591.3 798L592.7 590.8L594 688.7L595.3 702.5L596.7 749.8L598 724.9L599.3 795.2L600.7 789.4L602 815.8L603.3 623.7L604.7 657.3L606 692.7L607.3 742.5L608.7 717.4L610 819L611.3 767.6L612.7 809L614 616.2L615.3 671.8L616.7 683.4L618 747.7L619.3 709.4L620.7 802.1L622 789.7L623.3 812L624.7 596.8L626 657.7L627.3 703.9L628.7 766L630 690.3L631.3 808.3L632.7 766.7L634 811L635.3 599.8L636.7 673.1L638 711.5L639.3 725.8L640.7 725.2L642 814.5L643.3 777.7L644.7 821.8L646 629L647.3 665.6L648.7 712.4L650 758.9L651.3 689.5L652.7 809.9L654 788.2L655.3 811.5L656.7 600.9L658 683.2L659.3 701L660.7 754.4L662 700.3L663.3 803.9L664.7 765L666 818.8L667.3 619L668.7 644.4L670 682.1L671.3 744L672.7 679.7L674 808.2L675.3 782.4L676.7 815.5L678 613.9L679.3 656.4L680.7 690L682 726.2L683.3 708.6L684.7 818.1L686 779L687.3 797.8L688.7 616.2L690 673.2L691.3 673.5L692.7 738.5L694 688.7L695.3 804.7L696.7 778L698 820.9L699.3 622.9L700.7 674.6L702 698.7L703.3 731.3L704.7 713.3L706 815.2L707.3 779.1L708.7 821.9L710 615.3L711.3 639.1L712.7 681.3L714 719L715.3 673.6L716.7 803.8L718 756.4L719.3 817.7L720.7 584.8L722 672.8L723.3 693.8L724.7 742.9L726 691.6L727.3 790L728.7 757.4L730 797L731.3 614L732.7 666.4L734 700.7L735.3 726L736.7 692.4L738 807.5L739.3 782.9L740.7 822L742 609.1L743.3 694L744.7 687.7L746 762.7L747.3 721L748.7 809.3L750 763.3L751.3 801.5L752.7 627.3L754 642L755.3 678.1L756.7 743.7L758 661.1L759.3 816.7L760.7 778.1L762 808.5L763.3 600.5L764.7 694L766 703.3L767.3 761.1L768.7 691.4L770 809.7L771.3 756.4L772.7 801.7L774 606.9L775.3 675.6L776.7 699.1L778 776.9L779.3 703.5L780.7 797.5L782 762.8L783.3 821.7L784.7 614.8L786 686.9L787.3 688.1L788.7 736.2L790 678.8L791.3 812.2L792.7 774.9L794 807.8L795.3 587.8L796.7 625.9L798 664.7L799.3 733.7L800.7 656.3L802 813.8L803.3 749.6L804.7 782.8L806 542L807.3 652.7L808.7 701L810 732.2L811.3 703.6L812.7 791.8L814 762.1L815.3 802.5L816.7 571.1L818 645.5L819.3 705.1L820.7 723.9L822 692.1L823.3 807.1L824.7 780.4L826 820L827.3 619.2L828.7 699.5L830 699L831.3 769L832.7 704.2L834 821.3L835.3 763.2L836.7 827.5L838 594.6L839.3 661.3L840.7 710.8L842 730.1L843.3 698.4L844.7 806L846 781.6L847.3 815.1L848.7 634.4L850 691.9L851.3 730.6L852.7 777.2L854 734.4L855.3 813.6L856.7 790.8L858 821L859.3 637.4L860.7 681.7L862 695.1L863.3 735.9L864.7 694.9L866 810.4L867.3 791L868.7 818.2L870 605.1L871.3 670.7L872.7 706.4L874 720.7L875.3 707L876.7 821L878 773.3L879.3 811.3L880.7 617.3L882 648.1L883.3 690.5L884.7 760.4L886 688.6L887.3 814.1L888.7 772.7L890 824.2L891.3 591.5L892.7 679.1L894 707.7L895.3 765L896.7 702.5L898 821.8L899.3 749.5L900.7 806.8L902 607.4L903.3 643.7L904.7 696.1L906 763L907.3 683.2L908.7 796.5L910 767.7L911.3 815L912.7 595.9L914 685.1L915.3 732.4L916.7 747.6L918 709.8L919.3 807.8L920.7 788.8L922 824L923.3 633.8L924.7 684.9L926 686.8L927.3 751.9L928.7 683.5L930 819.2L931.3 768.5L932.7 821.9L934 604.7L935.3 667.8L936.7 717.8L938 759.1L939.3 702.3L940.7 804.9L942 783.1L943.3 808.9L944.7 590.2L946 660.5L947.3 685.1L948.7 738.6L950 680.5L951.3 796.5L952.7 763.1L954 797.6L955.3 616.7L956.7 676.6L958 705.3L959.3 743.6L960.7 692.6L962 821.7L963.3 789.7L964.7 814.9L966 603.3L967.3 675.3L968.7 648.8L970 752.4L971.3 683.4L972.7 821.3L974 785.4L975.3 817.6L976.7 611.5L978 646.6L979.3 708.9L980.7 746.3L982 696L983.3 821.6L984.7 764.3L986 817.7L987.3 580.5L988.7 660.5L990 680.3L991.3 737.7L992.7 687.8L994 777.6L995.3 780.3L996.7 822.9L998 610.4L999.3 685.6L1000.7 651.6L1002 744L1003.3 707.2L1004.7 806.3L1006 780.6L1007.3 821.9L1008.7 627.7L1010 655.5L1011.3 647L1012.7 724.9L1014 668.6L1015.3 812.9L1016.7 784.4L1018 822.5L1019.3 588.9L1020.7 676.6L1022 704.3L1023.3 762.2L1024.7 693.9L1026 818.5L1027.3 755.6L1028.7 770.3L1030 602.1L1031.3 620.7L1032.7 670.2L1034 759.6L1035.3 698L1036.7 806.9L1038 775.2L1039.3 820.4L1040.7 621.3L1042 698.3L1043.3 720.9L1044.7 742.9L1046 676.6L1047.3 818.6L1048.7 781.3L1050 816.8L1051.3 619.4L1052.7 637L1054 641.6L1055.3 739.4L1056.7 668.2L1058 794.4L1059.3 755.6L1060.7 804.3L1062 599.5L1063.3 683.6L1064.7 684.3L1066 744L1067.3 688.6L1068.7 811.4L1070 777.6L1071.3 815L1072.7 613L1074 644.4L1075.3 680.6L1076.7 751.7L1078 689.5L1079.3 801.5L1080.7 772.9L1082 821.6L1083.3 608.3L1084.7 687.1L1086 688.2L1087.3 708.2L1088.7 702L1090 820.7L1091.3 777.1L1092.7 822.2L1094 594.3L1095.3 659.8L1096.7 683.5L1098 734.7L1099.3 687.7L1100.7 817.5L1102 754.9L1103.3 818.8L1104.7 605.7L1106 675.6L1107.3 709.1L1108.7 741.5L1110 673L1111.3 766.5L1112.7 761.9L1114 816.5L1115.3 594.5L1116.7 664.9L1118 696.4L1119.3 728.7L1120.7 666.6L1122 785.3L1123.3 770.8L1124.7 806.1L1126 611.4L1127.3 680.4L1128.7 670L1130 759L1131.3 708.2L1132.7 819.5L1134 775.1L1135.3 821.6L1136.7 602.3L1138 654.7L1139.3 680.6L1140.7 753.2L1142 718.5L1143.3 800.7L1144.7 793L1146 822.8L1147.3 602.6L1148.7 708.4L1150 739.5L1151.3 755.8L1152.7 739.6L1154 826.4L1155.3 783.5L1156.7 811.7L1158 626.5L1159.3 655.1L1160.7 678.8L1162 738.5L1163.3 721.7L1164.7 815.6L1166 788.2L1167.3 821.5L1168.7 608.9L1170 687.8L1171.3 728.7L1172.7 729L1174 689.4L1175.3 824.3L1176.7 765.2L1178 808.1L1179.3 640.2L1180.7 663.3L1182 721.2L1183.3 741.2L1184.7 701.9L1186 813L1187.3 796.4L1188.7 828.3L1190 627.4L1191.3 695.3L1192.7 701.4L1194 750.5L1195.3 731.6L1196.7 815.5L1198 774.2L1199.3 803.3L1200.7 627.4L1202 657.1L1203.3 713.4L1204.7 752.7L1206 693.8L1207.3 825.8L1208.7 795.3L1210 821.4L1211.3 612.2L1212.7 678.1L1214 703.2L1215.3 756.9L1216.7 718L1218 804.4L1219.3 762.9L1220.7 810.9L1222 625L1223.3 659.8L1224.7 675.2L1226 730.7L1227.3 704.9L1228.7 822.6L1230 783.9L1231.3 819.2L1232.7 629.2L1234 667.5L1235.3 648.6L1236.7 744.5L1238 721.7L1239.3 806.3L1240.7 788.3L1242 813.2L1243.3 604L1244.7 636.3L1246 677.9L1247.3 751.3L1248.7 715L1250 823L1251.3 791L1252.7 822.5L1254 608.2L1255.3 678L1256.7 694.1L1258 759.5L1259.3 727.2L1260.7 812.3L1262 761.1L1263.3 812.9L1264.7 607.7L1266 669.1L1267.3 681.9L1268.7 748.4L1270 679.6L1271.3 815.8L1272.7 764.4L1274 803.2L1275.3 606.2L1276.7 704.2L1278 694.3L1279.3 723.7L1280.7 713.7L1282 804.2L1283.3 774.4L1284.7 825.9L1286 602.7L1287.3 659.3L1288.7 656L1290 722.1L1291.3 691L1292.7 818.4L1294 787.5L1295.3 815.8L1296.7 595.5L1298 674.5L1299.3 728.7L1300.7 754.9L1302 698.1L1303.3 820.9L1304.7 760.6L1306 820.8L1307.3 620.4L1308.7 661.3L1310 672.8L1311.3 748.2L1312.7 679.3L1314 790.8L1315.3 766.8L1316.7 823.6L1318 612.2L1319.3 675.1L1320.7 675.2L1322 742.5L1323.3 721.3L1324.7 821L1326 784.7L1327.3 806.4L1328.7 621.5L1330 657.2L1331.3 681.8L1332.7 736.3L1334 689.9L1335.3 820.3L1336.7 765.1L1338 822.4L1339.3 583.8L1340.7 680.7L1342 698.4L1343.3 762.7L1344.7 687.8L1346 807.3L1347.3 758.8L1348.7 807.6L1350 614.6L1351.3 640.4L1352.7 650.6L1354 755.2L1355.3 682.9L1356.7 813.8L1358 772.2L1359.3 800.9L1360.7 603.9L1362 682.3L1363.3 694.6L1364.7 729.8L1366 704.1L1367.3 810L1368.7 771.7L1370 821.5L1371.3 598.3L1372.7 646.7L1374 665.3L1375.3 751.6L1376.7 673.5L1378 799.9L1379.3 755.4L1380.7 781.5L1382 573.5L1383.3 686.7L1384.7 702.9L1386 763.9L1387.3 708L1388.7 816.4L1390 768.5L1391.3 818.3L1392.7 600.1L1394 649L1395.3 681.9L1396.7 735.4L1398 651.7L1399.3 808.2L1400.7 739.3L1402 791.9L1403.3 581.8L1404.7 681.7L1406 705.1L1407.3 743.1L1408.7 684.5L1410 822.7L1411.3 778.6L1412.7 821.6L1414 598.4L1415.3 643L1416.7 660.4L1418 727.3L1419.3 701L1420.7 815.5L1422 746.6L1423.3 792.7L1424.7 593.2L1426 690.2L1427.3 693.6L1428.7 764.2L1430 695.9L1431.3 796.4L1432.7 762L1434 822.2L1435.3 614L1436.7 668.1L1438 670.8L1439.3 733L1440.7 661.2L1442 782.6L1443.3 765.1L1444.7 819.5L1446 586.6L1447.3 629.9L1448.7 662.4L1450 745.8L1451.3 708.4L1452.7 818.3L1454 773.1L1455.3 800.8L1456.7 595.1L1458 647.5L1459.3 662.3L1460.7 741.6L1462 684.2L1463.3 798.5L1464.7 792.8L1466 824.7L1467.3 599.8L1468.7 683.2L1470 710L1471.3 756.7L1472.7 724.7L1474 823L1475.3 772.2L1476.7 819.1L1478 602.7L1479.3 654.2L1480.7 710.6L1482 759.4L1483.3 726.2L1484.7 825.4L1486 796.6L1487.3 826L1488.7 603.9L1490 697.5L1491.3 705.6L1492.7 766.8L1494 720.5L1495.3 813.3L1496.7 797.3L1498 807.1L1499.3 592.6L1500.7 662.1L1502 719.2L1503.3 741.6L1504.7 692.8L1506 820.6L1507.3 771.5L1508.7 822.8L1510 595L1511.3 689.9L1512.7 704.4L1514 744.4L1515.3 702.8L1516.7 810.7L1518 781L1519.3 808.2L1520.7 643.8L1522 684L1523.3 698.6L1524.7 769.4L1526 710.9L1527.3 802.5L1528.7 771.6L1530 821L1531.3 638.9L1532.7 704.8L1534 685.1L1535.3 734.3L1536.7 725.7L1538 811.8L1539.3 795.5L1540.7 820.5L1542 630.7L1543.3 676.9L1544.7 705.9L1546 730.4L1547.3 690.5L1548.7 811.6L1550 776.1L1551.3 825.2L1552.7 617L1554 646.7L1555.3 691.8L1556.7 739.5L1558 711.3L1559.3 817.9L1560.7 790.9L1562 807.7L1563.3 582.6L1564.7 653.9L1566 704.8L1567.3 743.4L1568.7 671L1570 814.9L1571.3 775.1L1572.7 813.5L1574 621.5L1575.3 676.3L1576.7 724.5L1578 758.4L1579.3 678.4L1580.7 816.7L1582 743.5L1583.3 801.1L1584.7 616.1L1586 669.7L1587.3 696.3L1588.7 758.5L1590 714L1591.3 816.2L1592.7 763L1594 809.7L1595.3 614.8L1596.7 668.9L1598 717.1L1599.3 749.7L1600.7 710.3L1602 800.9L1603.3 760.6L1604.7 814L1606 580.6L1607.3 669.2L1608.7 616.6L1610 738.3L1611.3 675L1612.7 794.9L1614 774.8L1615.3 818.6L1616.7 609.2L1618 692.4L1619.3 711.9L1620.7 763.7L1622 696L1623.3 821.4L1624.7 753.9L1626 803.5L1627.3 625.6L1628.7 625.8L1630 668.4L1631.3 750.5L1632.7 714L1634 805.6L1635.3 784.4L1636.7 814.5L1638 581.8L1639.3 677.6L1640.7 717.7L1642 762.4L1643.3 690.6L1644.7 806L1646 784.4L1647.3 814.5L1648.7 609.2L1650 655.2L1651.3 686.6L1652.7 735.8L1654 704.3L1655.3 779.8L1656.7 763.2L1658 816L1659.3 604.4L1660.7 687.9L1662 698.6L1663.3 759.9L1664.7 701.1L1666 810.7L1667.3 770.9L1668.7 818.7L1670 603.3L1671.3 655L1672.7 655.9L1674 752.4L1675.3 706.9L1676.7 803.3L1678 777.2L1679.3 807.3L1680.7 609.5L1682 654.5L1683.3 683.2L1684.7 748.9L1686 694.8L1687.3 822L1688.7 784L1690 814.2L1691.3 594.8L1692.7 640.6L1694 671L1695.3 747.3L1696.7 687L1698 808.6L1699.3 749.2L1700.7 818.5L1702 581.7L1703.3 675.8L1704.7 705.1L1706 757L1707.3 690.8L1708.7 814.8L1710 771.4L1711.3 816.8L1712.7 610L1714 642.6L1715.3 633L1716.7 727.8L1718 664.8L1719.3 802.7L1720.7 775.2L1722 813.9L1723.3 586.1L1724.7 672L1726 703L1727.3 758.7L1728.7 697.8L1730 816.9L1731.3 774.1L1732.7 808L1734 596.5L1735.3 671.6L1736.7 666.9L1738 718.3L1739.3 653.2L1740.7 797.9L1742 760.5L1743.3 811.3L1744.7 611L1746 677.4L1747.3 712.2L1748.7 764.8L1750 678.8L1751.3 804.5L1752.7 776.8L1754 813.2L1755.3 614.2L1756.7 642.4L1758 657.3L1759.3 744.6L1760.7 669.8L1762 802.2L1763.3 764.5L1764.7 815L1766 560.4L1767.3 672.8L1768.7 686.6L1770 745.3L1771.3 705.9L1772.7 795.4L1774 739.2L1775.3 807.1L1776.7 613.7L1778 672.4L1779.3 718L1780.7 725.7L1782 675.6L1783.3 805.1L1784.7 787.9L1786 825.4L1787.3 609.3L1788.7 673.6L1790 700L1791.3 764.2L1792.7 740.3L1794 825L1795.3 795L1796.7 814L1798 606.9L1799.3 622.8" fill="transparent" stroke="#6be6c1" stroke-width="3" stroke-linejoin="bevel" class="zr24-cls-74"></path>
</g>
<g clip-path="url(#zr24-c2)">
<path d="M200.7 375.5L202 695.3L203.3 696.6L204.7 808.4L206 775.8L207.3 809L208.7 601.3L210 664.1L211.3 726.3L212.7 770L214 696.1L215.3 830.7L216.7 798.6L218 822.8L219.3 613.3L220.7 675L222 739.6L223.3 760.8L224.7 718.4L226 809.9L227.3 780.8L228.7 799.1L230 638.9L231.3 716.9L232.7 731.1L234 765.3L235.3 744.3L236.7 811L238 735.7L239.3 805.1L240.7 637.1L242 653.2L243.3 695.5L244.7 749.6L246 693.4L247.3 819.2L248.7 792.5L250 821.1L251.3 618.9L252.7 718.1L254 721.7L255.3 757.2L256.7 703L258 825.7L259.3 773.1L260.7 822.6L262 637.8L263.3 658L264.7 718.6L266 740.7L267.3 712.2L268.7 807.6L270 769.8L271.3 820.8L272.7 590.3L274 683L275.3 715.7L276.7 757.9L278 729.8L279.3 803.2L280.7 753L282 790L283.3 619.6L284.7 680.6L286 736.3L287.3 753.5L288.7 720.9L290 813.9L291.3 746.4L292.7 808.7L294 631.5L295.3 692.2L296.7 743L298 782.2L299.3 726L300.7 817.8L302 790.4L303.3 817.5L304.7 641.5L306 652.1L307.3 678.8L308.7 735.8L310 683.7L311.3 810.6L312.7 794L314 823.6L315.3 632.3L316.7 684L318 669L319.3 745.9L320.7 706.5L322 801.4L323.3 769.4L324.7 810.2L326 600L327.3 652.4L328.7 711.9L330 764.7L331.3 691.5L332.7 806.5L334 783.4L335.3 818.7L336.7 617.9L338 696.5L339.3 700.4L340.7 745L342 725.9L343.3 821.9L344.7 774.3L346 819.5L347.3 625.1L348.7 674L350 703.4L351.3 759L352.7 690.5L354 802.2L355.3 760.9L356.7 820L358 595.2L359.3 676L360.7 684.5L362 757.1L363.3 690.7L364.7 811.1L366 786.8L367.3 824.2L368.7 624.9L370 652.5L371.3 684.5L372.7 739.6L374 707.2L375.3 806L376.7 765L378 798.1L379.3 577.4L380.7 674.6L382 720.8L383.3 771.9L384.7 699.7L386 814.2L387.3 752L388.7 808.4L390 613.1L391.3 633.6L392.7 673L394 736.7L395.3 690.2L396.7 812.5L398 784.9L399.3 808.7L400.7 630.3L402 713.4L403.3 712.2L404.7 776.5L406 718.1L407.3 821.1L408.7 765.6L410 815.2L411.3 623.2L412.7 649.5L414 643.8L415.3 737.1L416.7 719.2L418 808.5L419.3 781.1L420.7 823L422 578.2L423.3 667.5L424.7 686.1L426 758L427.3 719.8L428.7 811L430 779.4L431.3 813.7L432.7 606.3L434 655.2L435.3 663.6L436.7 748.8L438 717.4L439.3 781.3L440.7 752L442 804.9L443.3 592.8L444.7 684.3L446 709.4L447.3 771.8L448.7 714.8L450 809.7L451.3 771.4L452.7 803.4L454 619.9L455.3 676L456.7 669.4L458 727L459.3 668.5L460.7 810.5L462 752.3L463.3 813.5L464.7 560L466 644.2L467.3 675.5L468.7 755.2L470 712.8L471.3 794.8L472.7 753L474 808.7L475.3 599.2L476.7 671.4L478 700.1L479.3 766.1L480.7 689.6L482 795L483.3 764.3L484.7 817.8L486 602.9L487.3 656L488.7 691.3L490 709.8L491.3 705.5L492.7 814.9L494 759.8L495.3 806.3L496.7 627.7L498 690.4L499.3 721.3L500.7 763L502 706.2L503.3 815.9L504.7 772.3L506 809.4L507.3 643.9L508.7 697.7L510 721.4L511.3 758.2L512.7 747.9L514 829L515.3 800.4L516.7 828.5L518 619.3L519.3 695.2L520.7 739.3L522 757.4L523.3 708.6L524.7 825.4L526 797.7L527.3 817.1L528.7 630L530 682.4L531.3 748L532.7 767.4L534 708.4L535.3 812.8L536.7 796.4L538 822.8L539.3 642.6L540.7 686.1L542 702.2L543.3 745.5L544.7 681.5L546 799.8L547.3 771.1L548.7 824.3L550 630.2L551.3 708.6L552.7 736.8L554 783L555.3 716.3L556.7 824.5L558 793.8L559.3 824.4L560.7 609.9L562 664.7L563.3 733.8L564.7 742.4L566 721.1L567.3 812.3L568.7 774.8L570 810.1L571.3 618.6L572.7 687.6L574 713.4L575.3 779.4L576.7 729.9L578 809.1L579.3 790.7L580.7 809.6L582 632.5L583.3 651.3L584.7 684.4L586 751.5L587.3 722.2L588.7 811L590 782.1L591.3 798.1L592.7 576.7L594 658.2L595.3 721L596.7 743.5L598 714.9L599.3 798.6L600.7 772.8L602 816.3L603.3 607.1L604.7 665L606 695.6L607.3 740.7L608.7 673.5L610 804.5L611.3 781.7L612.7 822.9L614 616.9L615.3 710L616.7 698.8L618 743.8L619.3 730L620.7 814.5L622 791.8L623.3 813.8L624.7 640.2L626 687.7L627.3 703.8L628.7 771.1L630 720L631.3 811.6L632.7 768.7L634 809.4L635.3 594.8L636.7 684.4L638 698L639.3 747L640.7 733.3L642 810.1L643.3 790.9L644.7 798.2L646 617.7L647.3 661.4L648.7 686.5L650 762.6L651.3 695L652.7 803L654 779.4L655.3 824.5L656.7 638.8L658 703.7L659.3 714.8L660.7 775.9L662 696L663.3 802.2L664.7 768.2L666 808.2L667.3 626L668.7 643.2L670 654.7L671.3 730.5L672.7 689.5L674 808.2L675.3 781.6L676.7 811.5L678 623.9L679.3 647.8L680.7 707.5L682 766.9L683.3 723.1L684.7 807.3L686 764.9L687.3 816.5L688.7 608.3L690 642.5L691.3 705.7L692.7 772.9L694 714L695.3 798.6L696.7 758.4L698 796.5L699.3 586.7L700.7 673.2L702 719.4L703.3 776.8L704.7 692.7L706 801.2L707.3 758.3L708.7 803.9L710 590L711.3 646.2L712.7 654.8L714 739.1L715.3 713.9L716.7 807.8L718 762.3L719.3 820.8L720.7 627L722 674.1L723.3 709.8L724.7 770L726 717L727.3 817.6L728.7 754.5L730 790.3L731.3 597.4L732.7 648.6L734 717.8L735.3 751.7L736.7 692.5L738 807.9L739.3 769.2L740.7 812.9L742 612.3L743.3 703.5L744.7 703.5L746 759.4L747.3 715.8L748.7 811.7L750 777.8L751.3 816.8L752.7 624.5L754 665.2L755.3 675.1L756.7 740.3L758 692.1L759.3 816.1L760.7 756.7L762 809.6L763.3 600.3L764.7 688.7L766 697.3L767.3 747.5L768.7 725.9L770 809.6L771.3 784.7L772.7 823.2L774 585.7L775.3 641.6L776.7 679.8L778 753.5L779.3 716.9L780.7 821.6L782 758.9L783.3 811.6L784.7 592.1L786 663.5L787.3 698.1L788.7 733.2L790 694.5L791.3 804L792.7 766.3L794 817.3L795.3 620L796.7 681.2L798 671.4L799.3 763L800.7 683.2L802 808.9L803.3 774.7L804.7 818.6L806 612.5L807.3 677.3L808.7 673.9L810 741.9L811.3 711.2L812.7 819.4L814 758.8L815.3 813.4L816.7 610.2L818 646.1L819.3 697.2L820.7 763L822 694.2L823.3 826.8L824.7 779.1L826 799.1L827.3 625.3L828.7 703.5L830 751.9L831.3 769.2L832.7 746.3L834 813.6L835.3 788L836.7 818.8L838 635.8L839.3 689.3L840.7 741.4L842 757.3L843.3 735.8L844.7 810.9L846 771.6L847.3 823.4L848.7 610.1L850 698.4L851.3 718L852.7 791.1L854 736.5L855.3 804.6L856.7 797.7L858 819.1L859.3 638.9L860.7 697.7L862 718L863.3 774.5L864.7 698L866 822.7L867.3 791.5L868.7 825.2L870 615.6L871.3 697.5L872.7 742.8L874 761.3L875.3 729.8L876.7 826.4L878 799.3L879.3 811.5L880.7 625.1L882 642.4L883.3 703.8L884.7 773.8L886 717.3L887.3 820.3L888.7 793.3L890 810.3L891.3 619.6L892.7 665.8L894 735.4L895.3 757.1L896.7 712.9L898 812.2L899.3 771.6L900.7 802.9L902 608.7L903.3 649.4L904.7 733L906 758.2L907.3 700.3L908.7 821.8L910 776.9L911.3 819.1L912.7 639L914 680.2L915.3 705.1L916.7 751L918 705.3L919.3 798.5L920.7 773.9L922 823.9L923.3 637.7L924.7 652L926 700.2L927.3 742.3L928.7 689.9L930 811.5L931.3 774.4L932.7 825.5L934 598.3L935.3 693.9L936.7 682.6L938 771L939.3 734.4L940.7 815.6L942 771.2L943.3 824.4L944.7 634.2L946 645.7L947.3 667L948.7 738.7L950 714.1L951.3 808.2L952.7 780.6L954 804.9L955.3 574.6L956.7 675L958 731.3L959.3 749.4L960.7 707.7L962 812.6L963.3 771L964.7 812.8L966 625.1L967.3 680.2L968.7 695.5L970 755L971.3 688L972.7 813.7L974 775.9L975.3 817.6L976.7 623.8L978 700.8L979.3 715.7L980.7 745.7L982 715.5L983.3 809.9L984.7 790.3L986 824L987.3 642.3L988.7 695.5L990 723.1L991.3 745.4L992.7 724.6L994 800.9L995.3 787.3L996.7 819.5L998 602.9L999.3 670.8L1000.7 699.5L1002 755.4L1003.3 734.9L1004.7 811.8L1006 769.9L1007.3 823.3L1008.7 574.2L1010 643.8L1011.3 673.9L1012.7 749.7L1014 719.9L1015.3 820L1016.7 783.6L1018 810.7L1019.3 624.6L1020.7 713L1022 709.9L1023.3 768.4L1024.7 690.3L1026 806.2L1027.3 761.2L1028.7 813.6L1030 611.8L1031.3 651.9L1032.7 722.8L1034 757.5L1035.3 693.9L1036.7 805.8L1038 775.9L1039.3 818.1L1040.7 612.7L1042 645.3L1043.3 690.8L1044.7 745.2L1046 694.9L1047.3 815.7L1048.7 776.6L1050 811.3L1051.3 584.9L1052.7 656.1L1054 518.5L1055.3 628L1056.7 550.8L1058 752L1059.3 704.2L1060.7 738.6L1062 495.3L1063.3 583.9L1064.7 565.9L1066 600.1L1067.3 549.7L1068.7 753L1070 748.7L1071.3 808.7L1072.7 562.3L1074 640.6L1075.3 448.9L1076.7 625.1L1078 633.2L1079.3 805.2L1080.7 758.4L1082 810.4L1083.3 555L1084.7 682.9L1086 702.2L1087.3 737.1L1088.7 709.9L1090 814.1L1091.3 753.3L1092.7 809.7L1094 583.6L1095.3 675.8L1096.7 660.3L1098 743.4L1099.3 668.9L1100.7 805.6L1102 767.3L1103.3 813.9L1104.7 595L1106 673.5L1107.3 664.5L1108.7 744.2L1110 681.5L1111.3 811.6L1112.7 771.2L1114 819.2L1115.3 594.9L1116.7 654.5L1118 665.9L1119.3 746.7L1120.7 668.3L1122 807.8L1123.3 724.5L1124.7 793.8L1126 585.1L1127.3 683.1L1128.7 708.7L1130 760.2L1131.3 652.1L1132.7 781.9L1134 736.4L1135.3 806.6L1136.7 604L1138 672L1139.3 686L1140.7 744L1142 680.6L1143.3 798L1144.7 797.5L1146 825.7L1147.3 638.7L1148.7 654.9L1150 706.5L1151.3 782.6L1152.7 741.6L1154 812.8L1155.3 793.6L1156.7 821.8L1158 589.4L1159.3 642.4L1160.7 728.8L1162 771.6L1163.3 733L1164.7 821.3L1166 794.2L1167.3 793.8L1168.7 636.1L1170 704.5L1171.3 728L1172.7 778.6L1174 732.6L1175.3 812.9L1176.7 765.3L1178 779L1179.3 639.1L1180.7 659.7L1182 711.7L1183.3 745.8L1184.7 722.9L1186 818.3L1187.3 768.3L1188.7 824.7L1190 630.1L1191.3 677.3L1192.7 731.1L1194 725.3L1195.3 723.8L1196.7 822.5L1198 791.5L1199.3 802.6L1200.7 623.8L1202 665.2L1203.3 678.6L1204.7 762L1206 716.6L1207.3 825.7L1208.7 793.4L1210 827.6L1211.3 627L1212.7 687.5L1214 724.6L1215.3 770.3L1216.7 727L1218 815.2L1219.3 794.8L1220.7 820.7L1222 593.9L1223.3 679.2L1224.7 706.9L1226 744.2L1227.3 710.2L1228.7 821.8L1230 788.2L1231.3 780.1L1232.7 615.2L1234 685.5L1235.3 689.8L1236.7 752.4L1238 689.1L1239.3 798.4L1240.7 763L1242 817.4L1243.3 603.3L1244.7 648.6L1246 701.4L1247.3 738.2L1248.7 712.2L1250 818.4L1251.3 779.1L1252.7 818.6L1254 620.6L1255.3 671.2L1256.7 686.7L1258 729.6L1259.3 717.2L1260.7 821.5L1262 784.1L1263.3 808.1L1264.7 629.1L1266 636L1267.3 691.8L1268.7 747.8L1270 706.7L1271.3 816.7L1272.7 781.8L1274 808.9L1275.3 589.5L1276.7 692.5L1278 721.3L1279.3 765.6L1280.7 726.5L1282 819.1L1283.3 782.1L1284.7 811.9L1286 612.5L1287.3 636.6L1288.7 660.4L1290 705.9L1291.3 697.7L1292.7 799.7L1294 776.8L1295.3 823.4L1296.7 636.7L1298 700L1299.3 713.3L1300.7 748.1L1302 698.5L1303.3 800.3L1304.7 784.3L1306 823.2L1307.3 631.7L1308.7 644.4L1310 696.7L1311.3 725.7L1312.7 674L1314 810.2L1315.3 781.9L1316.7 820L1318 607.5L1319.3 687.5L1320.7 730.7L1322 767.6L1323.3 732.2L1324.7 821L1326 785.5L1327.3 798.9L1328.7 608.4L1330 674.6L1331.3 687.6L1332.7 747.9L1334 677.2L1335.3 816.6L1336.7 759.1L1338 819.9L1339.3 621.3L1340.7 675.7L1342 710.3L1343.3 736.5L1344.7 682.7L1346 819.6L1347.3 780.3L1348.7 815.1L1350 623.7L1351.3 662L1352.7 685.3L1354 755.1L1355.3 697.8L1356.7 814.4L1358 781L1359.3 820.3L1360.7 617.2L1362 653.4L1363.3 702.5L1364.7 770.8L1366 718.4L1367.3 808.8L1368.7 765.9L1370 810.5L1371.3 573.7L1372.7 673.4L1374 671.7L1375.3 758L1376.7 700.4L1378 800.7L1379.3 757.6L1380.7 812.5L1382 581L1383.3 694.7L1384.7 703.9L1386 748.2L1387.3 685.1L1388.7 806.7L1390 772L1391.3 815.2L1392.7 596.1L1394 643.5L1395.3 696.7L1396.7 732.3L1398 702.2L1399.3 820.1L1400.7 767.2L1402 799.3L1403.3 618.6L1404.7 679.4L1406 694.3L1407.3 770.3L1408.7 725L1410 805.3L1411.3 781.9L1412.7 820.6L1414 558.6L1415.3 685.3L1416.7 704.6L1418 771.9L1419.3 716.5L1420.7 817.6L1422 734.9L1423.3 795.7L1424.7 594.9L1426 658.9L1427.3 703.1L1428.7 768.7L1430 704.8L1431.3 812.9L1432.7 774.7L1434 815L1435.3 603.5L1436.7 641.8L1438 696.4L1439.3 755L1440.7 693.4L1442 806.2L1443.3 752.1L1444.7 817.4L1446 543.5L1447.3 651.8L1448.7 699L1450 742.1L1451.3 716.6L1452.7 819.5L1454 775L1455.3 822.6L1456.7 599.8L1458 666.6L1459.3 708.7L1460.7 736.8L1462 702.5L1463.3 815L1464.7 756.7L1466 816.3L1467.3 641.3L1468.7 710L1470 740.7L1471.3 763.3L1472.7 705.2L1474 819.8L1475.3 797.7L1476.7 825.8L1478 641.7L1479.3 651L1480.7 698.6L1482 756.6L1483.3 714.4L1484.7 823.4L1486 773.3L1487.3 824.5L1488.7 644.6L1490 695.3L1491.3 712.6L1492.7 769.4L1494 730.8L1495.3 809L1496.7 774.1L1498 816.4L1499.3 638.9L1500.7 659.9L1502 688L1503.3 733.9L1504.7 719.9L1506 809.3L1507.3 794.1L1508.7 825.6L1510 617.3L1511.3 661.9L1512.7 739.2L1514 759.1L1515.3 735.5L1516.7 821.1L1518 783.7L1519.3 770.9L1520.7 626.4L1522 681.4L1523.3 720.1L1524.7 766.6L1526 709.7L1527.3 819L1528.7 787L1530 815.1L1531.3 634.4L1532.7 677.4L1534 724.8L1535.3 759.4L1536.7 727.4L1538 814.9L1539.3 790.8L1540.7 823.4L1542 609.2L1543.3 676.3L1544.7 721.9L1546 764.7L1547.3 716.1L1548.7 820.5L1550 785L1551.3 818L1552.7 639.2L1554 708L1555.3 713.6L1556.7 739.5L1558 727L1559.3 825.8L1560.7 792.9L1562 828.8L1563.3 643.4L1564.7 697.6L1566 687L1567.3 774.6L1568.7 697.2L1570 815.7L1571.3 764.4L1572.7 791.3L1574 600.6L1575.3 686.2L1576.7 724.1L1578 779.2L1579.3 739.7L1580.7 810.6L1582 766.4L1583.3 819.5L1584.7 605.3L1586 663.5L1587.3 696.7L1588.7 768.7L1590 712.5L1591.3 809L1592.7 771.3L1594 813.6L1595.3 597.8L1596.7 676.5L1598 705.7L1599.3 778.2L1600.7 728.8L1602 795.1L1603.3 773.3L1604.7 817.5L1606 623.1L1607.3 664.8L1608.7 682L1610 744.1L1611.3 704.4L1612.7 821.2L1614 785.5L1615.3 820.8L1616.7 615L1618 673.4L1619.3 676.8L1620.7 749.9L1622 691L1623.3 825.7L1624.7 776.7L1626 806.9L1627.3 624.1L1628.7 651.8L1630 690L1631.3 754.3L1632.7 700.8L1634 811.9L1635.3 787.1L1636.7 794.7L1638 610.7L1639.3 678.7L1640.7 701.6L1642 765.2L1643.3 728.1L1644.7 797.2L1646 755.8L1647.3 810.4L1648.7 602.3L1650 655L1651.3 685.2L1652.7 733.7L1654 671.6L1655.3 797.4L1656.7 765.5L1658 821.3L1659.3 610.8L1660.7 690.9L1662 738.4L1663.3 772.8L1664.7 730.2L1666 801.9L1667.3 779.5L1668.7 811.3L1670 615.3L1671.3 622.4L1672.7 690L1674 736.7L1675.3 705.6L1676.7 817.4L1678 776.7L1679.3 806.5L1680.7 586.5L1682 692.9L1683.3 691L1684.7 754.1L1686 708.4L1687.3 817.4L1688.7 740.4L1690 809.5L1691.3 614.6L1692.7 678.9L1694 696.1L1695.3 748.7L1696.7 687.6L1698 798.8L1699.3 753.1L1700.7 817.1L1702 587.9L1703.3 687.3L1704.7 677.8L1706 746.4L1707.3 723.8L1708.7 819.2L1710 780.7L1711.3 820.4L1712.7 605.6L1714 641.3L1715.3 691.8L1716.7 762.9L1718 683L1719.3 805.2L1720.7 775.5L1722 813.5L1723.3 573.7L1724.7 680.4L1726 719.1L1727.3 754.4L1728.7 722L1730 820.3L1731.3 726.1L1732.7 795.5L1734 604.6L1735.3 655.1L1736.7 679.9L1738 741.7L1739.3 649.9L1740.7 797L1742 773.2L1743.3 819.2L1744.7 578.4L1746 685.5L1747.3 675L1748.7 760.7L1750 704.7L1751.3 819L1752.7 763.5L1754 823L1755.3 620.3L1756.7 679L1758 687.9L1759.3 738.9L1760.7 684.4L1762 808.2L1763.3 771.5L1764.7 817.2L1766 585.7L1767.3 683.1L1768.7 719.4L1770 769.6L1771.3 693.1L1772.7 820.6L1774 773.4L1775.3 812L1776.7 618.4L1778 650.3L1779.3 680.7L1780.7 741.3L1782 728.8L1783.3 827.6L1784.7 798.7L1786 812.9L1787.3 602.1L1788.7 680.5L1790 739.3L1791.3 777.3L1792.7 729.5L1794 808L1795.3 776.7L1796.7 817.2L1798 630.8L1799.3 658.9" fill="transparent" stroke="#626c91" stroke-width="3" stroke-linejoin="bevel" class="zr24-cls-74"></path>
</g>
<path d="M-235.1 -5l470.3 0l0 28l-470.3 0Z" transform="translate(1000 5)" fill="rgb(0,0,0)" fill-opacity="0" stroke="#ccc" stroke-width="0" class="zr24-cls-72"></path>
<text dominant-baseline="central" text-anchor="middle" style="font-size:18px;font-family:sans-serif;font-weight:bold;" xml:space="preserve" y="9" transform="translate(1000 5)" fill="#666666">wholeUpdate per Tick for bench_4_every_240_staggered</text>
<defs >
<clipPath id="zr24-c0">
<path d="M198 58.5l16004 0l0 8703l-16004 0Z" fill="#000" class="zr24-cls-73"></path>
</clipPath>
<clipPath id="zr24-c1">
<path d="M198 58.5l16004 0l0 8703l-16004 0Z" fill="#000" class="zr24-cls-73"></path>
</clipPath>
<clipPath id="zr24-c2">
<path d="M198 58.5l16004 0l0 8703l-16004 0Z" fill="#000" class="zr24-cls-73"></path>
</clipPath>
</defs>
<style ><![CDATA[
.zr24-cls-72:hover {
pointer-events:none;
}
.zr24-cls-73:hover {
cursor:pointer;
fill:rgba(0,0,0,1);
}
.zr24-cls-74:hover {
cursor:pointer;
}

]]>

</style>
</svg>