<svg width="2000" height="1000" xmlns="http://www.w3.org/2000/svg" xmlns:xlink="http://www.w3.org/1999/xlink" version="1.1" baseProfile="full" viewBox="0 0 2000 1000">
<rect width="2000" height="1000" x="0" y="0" fill="rgb(252,252,252)" fill-opacity="0"></rect>
<path d="M200 930.5L1800 930.5" fill="transparent" stroke="#eeeeee" class="zr41-cls-123"></path>
<path d="M200 772.5L1800 772.5" fill="transparent" stroke="#eeeeee" class="zr41-cls-123"></path>
<path d="M200 614.5L1800 614.5" fill="transparent" stroke="#eeeeee" class="zr41-cls-123"></path>
<path d="M200 457.5L1800 457.5" fill="transparent" stroke="#eeeeee" class="zr41-cls-123"></path>
<path d="M200 299.5L1800 299.5" fill="transparent" stroke="#eeeeee" class="zr41-cls-123"></path>
<path d="M200 141.5L1800 141.5" fill="transparent" stroke="#eeeeee" class="zr41-cls-123"></path>
<path d="M200 60.5L1800 60.5" fill="transparent" stroke="#eeeeee" class="zr41-cls-123"></path>
<path d="M200.5 930L200.5 60" fill="transparent" stroke="#cccccc" stroke-linecap="round" class="zr41-cls-123"></path>
<text dominant-baseline="central" text-anchor="middle" style="font-size:12px;font-family:sans-serif;" xml:space="preserve" y="-6" transform="translate(200 45)" fill="#cccccc">Min wholeUpdate Time (ms)</text>
<path d="M200 930.5L1800 930.5" fill="transparent" stroke="#cccccc" stroke-linecap="round" class="zr41-cls-123"></path>
<text dominant-baseline="central" text-anchor="end" style="font-size:12px;font-family:sans-serif;" transform="translate(192 930)" fill="#999999">0.000</text>
<text dominant-baseline="central" text-anchor="end" style="font-size:12px;font-family:sans-serif;" transform="translate(192 772.2886)" fill="#999999">1.000</text>
<text dominant-baseline="central" text-anchor="end" style="font-size:12px;font-family:sans-serif;" transform="translate(192 614.5773)" fill="#999999">2.000</text>
<text dominant-baseline="central" text-anchor="end" style="font-size:12px;font-family:sans-serif;" transform="translate(192 456.8659)" fill="#999999">3.000</text>
<text dominant-baseline="central" text-anchor="end" style="font-size:12px;font-family:sans-serif;" transform="translate(192 299.1546)" fill="#999999">4.000</text>
<text dominant-baseline="central" text-anchor="end" style="font-size:12px;font-family:sans-serif;" transform="translate(192 141.4432)" fill="#999999">5.000</text>
<text dominant-baseline="central" text-anchor="end" style="font-size:12px;font-family:sans-serif;" transform="translate(192 60)" fill="#999999">5.516</text>
<text dominant-baseline="central" text-anchor="middle" style="font-size:12px;font-family:sans-serif;" y="6" transform="translate(200.6667 938)" fill="#999999">0</text>
<text dominant-baseline="central" text-anchor="middle" style="font-size:12px;font-family:sans-serif;" y="6" transform="translate(236.6667 938)" fill="#999999">27</text>
<text dominant-baseline="central" text-anchor="middle" style="font-size:12px;font-family:sans-serif;" y="6" transform="translate(272.6667 938)" fill="#999999">54</text>
<text dominant-baseline="central" text-anchor="middle" style="font-size:12px;font-family:sans-serif;" y="6" transform="translate(308.6667 938)" fill="#999999">81</text>
<text dominant-baseline="central" text-anchor="middle" style="font-size:12px;font-family:sans-serif;" y="6" transform="translate(344.6667 938)" fill="#999999">108</text>
<text dominant-baseline="central" text-anchor="middle" style="font-size:12px;font-family:sans-serif;" y="6" transform="translate(380.6667 938)" fill="#999999">135</text>
<text dominant-baseline="central" text-anchor="middle" style="font-size:12px;font-family:sans-serif;" y="6" transform="translate(416.6667 938)" fill="#999999">162</text>
<text dominant-baseline="central" text-anchor="middle" style="font-size:12px;font-family:sans-serif;" y="6" transform="translate(452.6667 938)" fill="#999999">189</text>
<text dominant-baseline="central" text-anchor="middle" style="font-size:12px;font-family:sans-serif;" y="6" transform="translate(488.6667 938)" fill="#999999">216</text>
<text dominant-baseline="central" text-anchor="middle" style="font-size:12px;font-family:sans-serif;" y="6" transform="translate(524.6667 938)" fill="#999999">243</text>
<text dominant-baseline="central" text-anchor="middle" style="font-size:12px;font-family:sans-serif;" y="6" transform="translate(560.6667 938)" fill="#999999">270</text>
<text dominant-baseline="central" text-anchor="middle" style="font-size:12px;font-family:sans-serif;" y="6" transform="translate(596.6667 938)" fill="#999999">297</text>
<text dominant-baseline="central" text-anchor="middle" style="font-size:12px;font-family:sans-serif;" y="6" transform="translate(632.6667 938)" fill="#999999">324</text>
<text dominant-baseline="central" text-anchor="middle" style="font-size:12px;font-family:sans-serif;" y="6" transform="translate(668.6667 938)" fill="#999999">351</text>
<text dominant-baseline="central" text-anchor="middle" style="font-size:12px;font-family:sans-serif;" y="6" transform="translate(704.6667 938)" fill="#999999">378</text>
<text dominant-baseline="central" text-anchor="middle" style="font-size:12px;font-family:sans-serif;" y="6" transform="translate(740.6667 938)" fill="#999999">405</text>
<text dominant-baseline="central" text-anchor="middle" style="font-size:12px;font-family:sans-serif;" y="6" transform="translate(776.6667 938)" fill="#999999">432</text>
<text dominant-baseline="central" text-anchor="middle" style="font-size:12px;font-family:sans-serif;" y="6" transform="translate(812.6667 938)" fill="#999999">459</text>
<text dominant-baseline="central" text-anchor="middle" style="font-size:12px;font-family:sans-serif;" y="6" transform="translate(848.6667 938)" fill="#999999">486</text>
<text dominant-baseline="central" text-anchor="middle" style="font-size:12px;font-family:sans-serif;" y="6" transform="translate(884.6667 938)" fill="#999999">513</text>
<text dominant-baseline="central" text-anchor="middle" style="font-size:12px;font-family:sans-serif;" y="6" transform="translate(920.6667 938)" fill="#999999">540</text>
<text dominant-baseline="central" text-anchor="middle" style="font-size:12px;font-family:sans-serif;" y="6" transform="translate(956.6667 938)" fill="#999999">567</text>
<text dominant-baseline="central" text-anchor="middle" style="font-size:12px;font-family:sans-serif;" y="6" transform="translate(992.6667 938)" fill="#999999">594</text>
<text dominant-baseline="central" text-anchor="middle" style="font-size:12px;font-family:sans-serif;" y="6" transform="translate(1028.6667 938)" fill="#999999">621</text>
<text dominant-baseline="central" text-anchor="middle" style="font-size:12px;font-family:sans-serif;" y="6" transform="translate(1064.6667 938)" fill="#999999">648</text>
<text dominant-baseline="central" text-anchor="middle" style="font-size:12px;font-family:sans-serif;" y="6" transform="translate(1100.6667 938)" fill="#999999">675</text>
<text dominant-baseline="central" text-anchor="middle" style="font-size:12px;font-family:sans-serif;" y="6" transform="translate(1136.6667 938)" fill="#999999">702</text>
<text dominant-baseline="central" text-anchor="middle" style="font-size:12px;font-family:sans-serif;" y="6" transform="translate(1172.6667 938)" fill="#999999">729</text>
<text dominant-baseline="central" text-anchor="middle" style="font-size:12px;font-family:sans-serif;" y="6" transform="translate(1208.6667 938)" fill="#999999">756</text>
<text dominant-baseline="central" text-anchor="middle" style="font-size:12px;font-family:sans-serif;" y="6" transform="translate(1244.6667 938)" fill="#999999">783</text>
<text dominant-baseline="central" text-anchor="middle" style="font-size:12px;font-family:sans-serif;" y="6" transform="translate(1280.6667 938)" fill="#999999">810</text>
<text dominant-baseline="central" text-anchor="middle" style="font-size:12px;font-family:sans-serif;" y="6" transform="translate(1316.6667 938)" fill="#999999">837</text>
<text dominant-baseline="central" text-anchor="middle" style="font-size:12px;font-family:sans-serif;" y="6" transform="translate(1352.6667 938)" fill="#999999">864</text>
<text dominant-baseline="central" text-anchor="middle" style="font-size:12px;font-family:sans-serif;" y="6" transform="translate(1388.6667 938)" fill="#999999">891</text>
<text dominant-baseline="central" text-anchor="middle" style="font-size:12px;font-family:sans-serif;" y="6" transform="translate(1424.6667 938)" fill="#999999">918</text>
<text dominant-baseline="central" text-anchor="middle" style="font-size:12px;font-family:sans-serif;" y="6" transform="translate(1460.6667 938)" fill="#999999">945</text>
<text dominant-baseline="central" text-anchor="middle" style="font-size:12px;font-family:sans-serif;" y="6" transform="translate(1496.6667 938)" fill="#999999">972</text>
<text dominant-baseline="central" text-anchor="middle" style="font-size:12px;font-family:sans-serif;" y="6" transform="translate(1532.6667 938)" fill="#999999">999</text>
<text dominant-baseline="central" text-anchor="middle" style="font-size:12px;font-family:sans-serif;" y="6" transform="translate(1568.6667 938)" fill="#999999">1026</text>
<text dominant-baseline="central" text-anchor="middle" style="font-size:12px;font-family:sans-serif;" y="6" transform="translate(1604.6667 938)" fill="#999999">1053</text>
<text dominant-baseline="central" text-anchor="middle" style="font-size:12px;font-family:sans-serif;" y="6" transform="translate(1640.6667 938)" fill="#999999">1080</text>
<text dominant-baseline="central" text-anchor="middle" style="font-size:12px;font-family:sans-serif;" y="6" transform="translate(1676.6667 938)" fill="#999999">1107</text>
<text dominant-baseline="central" text-anchor="middle" style="font-size:12px;font-family:sans-serif;" y="6" transform="translate(1712.6667 938)" fill="#999999">1134</text>
<text dominant-baseline="central" text-anchor="middle" style="font-size:12px;font-family:sans-serif;" y="6" transform="translate(1748.6667 938)" fill="#999999">1161</text>
<text dominant-baseline="central" text-anchor="middle" style="font-size:12px;font-family:sans-serif;" y="6" transform="translate(1784.6667 938)" fill="#999999">1188</text>
<g clip-path="url(#zr41-c0)">
<path d="M200.7 223L202 545.4L203.3 558.7L204.7 632L206 590.5L207.3 678.4L208.7 611.2L210 667.8L211.3 558.5L212.7 672L214 611.6L215.3 684.3L216.7 545.8L218 664.2L219.3 601.5L220.7 687L222 579.1L223.3 697.3L224.7 616.7L226 684.7L227.3 550.3L228.7 674.3L230 619.3L231.3 708.4L232.7 603.8L234 688.5L235.3 615.8L236.7 692.3L238 572.8L239.3 695.6L240.7 597.5L242 690.5L243.3 600.2L244.7 700.9L246 579.4L247.3 695.7L248.7 618.5L250 705.1L251.3 629.4L252.7 686.9L254 617.2L255.3 691.3L256.7 560.4L258 623.8L259.3 536L260.7 637.5L262 365.3L263.3 529.7L264.7 305.9L266 480.8L267.3 319.5L268.7 538.5L270 293.2L271.3 521.3L272.7 336.5L274 514.8L275.3 284.7L276.7 510.5L278 335.8L279.3 535.5L280.7 310.7L282 541L283.3 337L284.7 568.1L286 332.6L287.3 551.2L288.7 336L290 527.7L291.3 344.1L292.7 603L294 378.1L295.3 600.4L296.7 366.4L298 553.8L299.3 373.2L300.7 559.4L302 333.8L303.3 535.3L304.7 314.9L306 535.6L307.3 342.8L308.7 554.1L310 344.9L311.3 572L312.7 340.6L314 593.7L315.3 351L316.7 535.9L318 343.1L319.3 601.9L320.7 386L322 618.6L323.3 383.5L324.7 598.2L326 339.6L327.3 576L328.7 376.1L330 603.6L331.3 403.3L332.7 618.6L334 378.3L335.3 572.7L336.7 352.2L338 548.4L339.3 365.3L340.7 538.4L342 556.2L343.3 641.6L344.7 523.3L346 666.6L347.3 598.3L348.7 635.9L350 573.6L351.3 667.2L352.7 604L354 665.9L355.3 569.9L356.7 679.9L358 589L359.3 646.2L360.7 574L362 674.7L363.3 606.7L364.7 686.1L366 573.5L367.3 674.3L368.7 578.7L370 671.1L371.3 568.5L372.7 678.9L374 601.3L375.3 674.5L376.7 596.5L378 675.2L379.3 603.3L380.7 688.4L382 554.3L383.3 687.3L384.7 603.4L386 682.3L387.3 574.1L388.7 704.2L390 564.7L391.3 689.9L392.7 596.9L394 691.2L395.3 604.3L396.7 677.3L398 590.7L399.3 699.7L400.7 619.3L402 701.7L403.3 608.3L404.7 720.1L406 626.3L407.3 695L408.7 570.4L410 709.1L411.3 638.2L412.7 703.2L414 603.5L415.3 697.5L416.7 572.1L418 636.9L419.3 579.3L420.7 655.7L422 572.2L423.3 659.1L424.7 579.5L426 656.4L427.3 600.1L428.7 660.7L430 578.2L431.3 661.9L432.7 601.9L434 653.8L435.3 571.8L436.7 679.3L438 582.8L439.3 670.6L440.7 582.5L442 667.3L443.3 585.8L444.7 662.7L446 591.2L447.3 671.7L448.7 610.3L450 658.6L451.3 576.7L452.7 651L454 584.7L455.3 687.2L456.7 594.7L458 678.4L459.3 599.2L460.7 695.7L462 587.8L463.3 696.5L464.7 619.5L466 674.2L467.3 589.2L468.7 693.1L470 597.6L471.3 667L472.7 590.8L474 688.3L475.3 626.6L476.7 682.7L478 593.6L479.3 684.1L480.7 586.8L482 699L483.3 603.3L484.7 692.3L486 615.5L487.3 720.7L488.7 614.2L490 684.8L491.3 619.1L492.7 700.3L494 609.7L495.3 689.6L496.7 575.5L498 650.9L499.3 527.9L500.7 645.1L502 566.5L503.3 644.2L504.7 582.1L506 645.8L507.3 587.7L508.7 647L510 569.5L511.3 660L512.7 575.5L514 646.5L515.3 588.1L516.7 680.6L518 575.8L519.3 655.3L520.7 589.2L522 653.7L523.3 585.9L524.7 678.3L526 584.7L527.3 681.1L528.7 576L530 677.5L531.3 596.7L532.7 683.5L534 620.9L535.3 676.8L536.7 600.8L538 697.2L539.3 626.8L540.7 680.3L542 587.1L543.3 676.7L544.7 602L546 678.1L547.3 600.1L548.7 688.5L550 583.4L551.3 695.5L552.7 590.6L554 695.5L555.3 599.6L556.7 709.7L558 607.2L559.3 702.8L560.7 601.2L562 705.1L563.3 609.3L564.7 706L566 615.7L567.3 695.8L568.7 598.9L570 718.6L571.3 634.2L572.7 705.3L574 615.5L575.3 706.8L576.7 571.1L578 632.4L579.3 527.6L580.7 650.4L582 383.5L583.3 515.3L584.7 339.4L586 499.3L587.3 327.7L588.7 508.2L590 301.4L591.3 518.4L592.7 288.3L594 518.9L595.3 304L596.7 513.6L598 298.5L599.3 531.9L600.7 311.2L602 518.9L603.3 333.4L604.7 528L606 341.1L607.3 556.2L608.7 378.7L610 533.8L611.3 337.4L612.7 570.7L614 330.5L615.3 561.3L616.7 351.9L618 519.5L619.3 371.8L620.7 572.5L622 338.5L623.3 584.3L624.7 360.3L626 550.8L627.3 360.6L628.7 564.1L630 378L631.3 624.7L632.7 342.7L634 597.3L635.3 388L636.7 608.9L638 363L639.3 558L640.7 355.3L642 593.3L643.3 353.3L644.7 579.2L646 371.6L647.3 633.7L648.7 377.9L650 643.5L651.3 433L652.7 578.1L654 379.5L655.3 629.1L656.7 359L658 535.7L659.3 366.6L660.7 503L662 547L663.3 623.8L664.7 555.1L666 661.5L667.3 569.8L668.7 680.3L670 538.1L671.3 654L672.7 572.5L674 668.2L675.3 591.9L676.7 641.9L678 571.7L679.3 671.5L680.7 571.8L682 661.4L683.3 606L684.7 685L686 591.1L687.3 661.6L688.7 603.9L690 670.1L691.3 607L692.7 663.7L694 583.6L695.3 685.1L696.7 606.5L698 678.5L699.3 597L700.7 691.2L702 582.5L703.3 703.4L704.7 599.4L706 664.6L707.3 583.4L708.7 704.7L710 609.8L711.3 674.5L712.7 582.9L714 682.4L715.3 621.8L716.7 696.5L718 595.1L719.3 712.2L720.7 624.7L722 720.8L723.3 601.1L724.7 690.6L726 613L727.3 693.2L728.7 598.1L730 682.9L731.3 634.9L732.7 696.7L734 606.4L735.3 698.6L736.7 573.9L738 652.5L739.3 554.7L740.7 646.6L742 564.8L743.3 666.9L744.7 575.7L746 660L747.3 554.9L748.7 670.9L750 591.3L751.3 667.7L752.7 568.5L754 657.1L755.3 583.7L756.7 679.3L758 564.3L759.3 676.6L760.7 589.3L762 678.7L763.3 599.4L764.7 660.6L766 601.7L767.3 675.5L768.7 609.2L770 672.4L771.3 593.7L772.7 690.3L774 611.7L775.3 673.4L776.7 591.8L778 692.2L779.3 606.7L780.7 690L782 587.6L783.3 688.3L784.7 590.3L786 701.4L787.3 585.7L788.7 689.2L790 594.7L791.3 688.3L792.7 598.6L794 698L795.3 618.6L796.7 703.6L798 598.6L799.3 697.4L800.7 607L802 685.4L803.3 604.3L804.7 715.9L806 614.3L807.3 690.5L808.7 602.3L810 707.3L811.3 617.7L812.7 694.4L814 609.4L815.3 704.8L816.7 574L818 597.2L819.3 565.1L820.7 654.5L822 594.6L823.3 667L824.7 574.4L826 652.1L827.3 595.1L828.7 651.7L830 538.2L831.3 663.6L832.7 596.7L834 647.3L835.3 578.4L836.7 658.3L838 602.6L839.3 679.3L840.7 588.1L842 672.4L843.3 596L844.7 670.9L846 598.7L847.3 681L848.7 604.9L850 671.4L851.3 587.5L852.7 684.8L854 600.5L855.3 693.5L856.7 594.8L858 671.7L859.3 558.3L860.7 694L862 570.1L863.3 667L864.7 609.1L866 682.5L867.3 605.1L868.7 703.5L870 611.5L871.3 700.5L872.7 585.4L874 698.5L875.3 610L876.7 697.9L878 598.4L879.3 696.9L880.7 615.3L882 677.1L883.3 588.6L884.7 699.9L886 584.9L887.3 687.3L888.7 613L890 701.8L891.3 601.1L892.7 690.5L894 610.4L895.3 717.8L896.7 585.9L898 659.1L899.3 556.7L900.7 617.8L902 372.6L903.3 523.2L904.7 355.9L906 549.5L907.3 366.4L908.7 552.3L910 345.2L911.3 520.5L912.7 354.8L914 568.3L915.3 336.4L916.7 519.5L918 318.1L919.3 528.8L920.7 317.9L922 535.5L923.3 347L924.7 544.4L926 286.6L927.3 543.6L928.7 325.9L930 539L931.3 332.2L932.7 557.6L934 375.4L935.3 588.6L936.7 316.5L938 527.9L939.3 363.3L940.7 558.2L942 366.4L943.3 575.7L944.7 370.8L946 560.5L947.3 339.6L948.7 547.7L950 339.8L951.3 578.2L952.7 360.3L954 529.8L955.3 339.9L956.7 578.3L958 320.1L959.3 603.9L960.7 361.6L962 557.2L963.3 338L964.7 583.4L966 350.2L967.3 590.5L968.7 361.5L970 606.8L971.3 376.7L972.7 572L974 363.5L975.3 568.6L976.7 333.2L978 508.4L979.3 350.4L980.7 546.3L982 537.8L983.3 645.8L984.7 550.5L986 638.9L987.3 564L988.7 660.6L990 570.3L991.3 653.3L992.7 587.7L994 656L995.3 566.2L996.7 649.7L998 586L999.3 666.1L1000.7 602.7L1002 652.2L1003.3 602.7L1004.7 665.9L1006 584.2L1007.3 657.2L1008.7 570.5L1010 681.5L1011.3 553.7L1012.7 637.7L1014 593.3L1015.3 688.7L1016.7 595L1018 700L1019.3 603L1020.7 700.7L1022 581.8L1023.3 692.7L1024.7 613.9L1026 683.4L1027.3 585.4L1028.7 685.2L1030 601.8L1031.3 684.7L1032.7 608L1034 696.2L1035.3 629.5L1036.7 699.6L1038 582.7L1039.3 689L1040.7 601.3L1042 687.5L1043.3 596.9L1044.7 705.3L1046 615.7L1047.3 714L1048.7 566.9L1050 678.7L1051.3 609.4L1052.7 700.8L1054 596.5L1055.3 707.1L1056.7 562.4L1058 644.1L1059.3 560.7L1060.7 650.4L1062 548.6L1063.3 650.6L1064.7 563.4L1066 640.5L1067.3 559.7L1068.7 649.4L1070 597.1L1071.3 644.7L1072.7 569.8L1074 666.9L1075.3 572.2L1076.7 649.8L1078 572.5L1079.3 668.4L1080.7 585L1082 663.4L1083.3 582.6L1084.7 670.2L1086 595.9L1087.3 681.1L1088.7 592.1L1090 684.1L1091.3 579.5L1092.7 690.7L1094 593.9L1095.3 672.6L1096.7 606.9L1098 693L1099.3 600.2L1100.7 674L1102 593.7L1103.3 703L1104.7 606.3L1106 689.1L1107.3 575.8L1108.7 681.5L1110 592.3L1111.3 706.1L1112.7 571L1114 704L1115.3 596.6L1116.7 710.6L1118 592.2L1119.3 698.1L1120.7 609.7L1122 702.5L1123.3 600.7L1124.7 687.5L1126 612.3L1127.3 698.8L1128.7 601.6L1130 703.2L1131.3 625.6L1132.7 709.6L1134 612.4L1135.3 717.3L1136.7 574.9L1138 605.2L1139.3 563.4L1140.7 655.8L1142 582.6L1143.3 619.1L1144.7 575.2L1146 653.4L1147.3 603.4L1148.7 647.1L1150 593.4L1151.3 660.3L1152.7 593L1154 669.5L1155.3 545.9L1156.7 662.7L1158 600.8L1159.3 644.1L1160.7 567.6L1162 652.7L1163.3 599.1L1164.7 662.9L1166 575.1L1167.3 670.6L1168.7 610.3L1170 687.9L1171.3 584.9L1172.7 683.4L1174 594.4L1175.3 681.4L1176.7 574L1178 667.3L1179.3 613.9L1180.7 667.2L1182 591L1183.3 658.4L1184.7 604.9L1186 688.2L1187.3 593.5L1188.7 668L1190 588L1191.3 675L1192.7 598.5L1194 684.5L1195.3 593.2L1196.7 702.5L1198 600.6L1199.3 694.5L1200.7 620.7L1202 679.7L1203.3 587.6L1204.7 700.3L1206 630.7L1207.3 670.9L1208.7 609.5L1210 699.3L1211.3 642.2L1212.7 717.8L1214 560.5L1215.3 714.4L1216.7 579.4L1218 629.1L1219.3 556.9L1220.7 655.7L1222 390L1223.3 543.3L1224.7 339.8L1226 547.6L1227.3 342.8L1228.7 547L1230 344.7L1231.3 501L1232.7 339.5L1234 531.6L1235.3 320.8L1236.7 500.4L1238 340.4L1239.3 554.6L1240.7 333.3L1242 533.9L1243.3 341.5L1244.7 527L1246 314.5L1247.3 562L1248.7 361.8L1250 548.5L1251.3 310.4L1252.7 533.2L1254 351L1255.3 560L1256.7 348L1258 575.8L1259.3 368.7L1260.7 580.5L1262 330.9L1263.3 553.2L1264.7 386.5L1266 586.7L1267.3 349L1268.7 562.4L1270 341L1271.3 572.5L1272.7 374.6L1274 607.8L1275.3 354.1L1276.7 577.9L1278 342.6L1279.3 592.5L1280.7 380.5L1282 572.9L1283.3 350L1284.7 564.7L1286 334L1287.3 578.2L1288.7 361L1290 546.3L1291.3 393.1L1292.7 599L1294 373.5L1295.3 588.3L1296.7 310.7L1298 497.5L1299.3 317.8L1300.7 521.4L1302 540.2L1303.3 620L1304.7 544.2L1306 631.5L1307.3 592.5L1308.7 654.3L1310 558.7L1311.3 624.9L1312.7 611.1L1314 664.9L1315.3 569L1316.7 664.7L1318 579.3L1319.3 670.8L1320.7 561.2L1322 661.5L1323.3 600.8L1324.7 668.6L1326 570.1L1327.3 629.8L1328.7 575.7L1330 664.5L1331.3 610.5L1332.7 665.6L1334 567.1L1335.3 687.3L1336.7 592.9L1338 685.2L1339.3 597.3L1340.7 676.2L1342 588.9L1343.3 688.7L1344.7 614L1346 686.8L1347.3 608.1L1348.7 679.3L1350 599L1351.3 688L1352.7 587.9L1354 710.3L1355.3 621.1L1356.7 717L1358 594.3L1359.3 689L1360.7 615.3L1362 706.2L1363.3 574.8L1364.7 688.3L1366 615.8L1367.3 706.5L1368.7 598L1370 680.2L1371.3 610.9L1372.7 697L1374 614.7L1375.3 712.6L1376.7 548.3L1378 636.9L1379.3 548.3L1380.7 626.6L1382 569.4L1383.3 648.8L1384.7 551.6L1386 627.3L1387.3 566.1L1388.7 643.5L1390 574.9L1391.3 638.1L1392.7 578L1394 653.7L1395.3 569L1396.7 653.6L1398 576L1399.3 684L1400.7 574.7L1402 670.5L1403.3 588.5L1404.7 675.9L1406 603.4L1407.3 678.1L1408.7 593.3L1410 688.2L1411.3 586.8L1412.7 685.7L1414 602.9L1415.3 666.8L1416.7 589.4L1418 672.9L1419.3 624L1420.7 679.9L1422 597.5L1423.3 689.9L1424.7 614.3L1426 688.7L1427.3 553.7L1428.7 692.9L1430 612.5L1431.3 690.5L1432.7 594.6L1434 705.6L1435.3 606.4L1436.7 716.5L1438 601.1L1439.3 692L1440.7 616.2L1442 681.5L1443.3 619.8L1444.7 701.2L1446 617.4L1447.3 700.6L1448.7 615.6L1450 702.9L1451.3 623L1452.7 699.9L1454 619.5L1455.3 699.5L1456.7 557.2L1458 623.8L1459.3 570.6L1460.7 646.4L1462 569.3L1463.3 628.6L1464.7 529.7L1466 664.4L1467.3 538.2L1468.7 656.5L1470 556.7L1471.3 656.1L1472.7 597.7L1474 645L1475.3 554.6L1476.7 660.4L1478 589.2L1479.3 644.4L1480.7 576.6L1482 673.2L1483.3 607.9L1484.7 672.2L1486 542.4L1487.3 680.2L1488.7 616.7L1490 667.7L1491.3 584.2L1492.7 674.1L1494 612.3L1495.3 702.8L1496.7 600.5L1498 658.1L1499.3 621.6L1500.7 684.6L1502 568.4L1503.3 692.6L1504.7 608.2L1506 685L1507.3 594.2L1508.7 684.4L1510 602.4L1511.3 703.9L1512.7 588.8L1514 677.9L1515.3 596.6L1516.7 681.4L1518 581.2L1519.3 709.1L1520.7 607.5L1522 709.3L1523.3 610.8L1524.7 701.3L1526 586.7L1527.3 682.6L1528.7 594.6L1530 701.1L1531.3 615.3L1532.7 679.4L1534 606.5L1535.3 703L1536.7 578.9L1538 637.9L1539.3 552.2L1540.7 651.7L1542 386.6L1543.3 534.3L1544.7 356.4L1546 535L1547.3 330.6L1548.7 550.9L1550 340L1551.3 516.2L1552.7 296.5L1554 472.3L1555.3 299L1556.7 530.6L1558 317.8L1559.3 567.7L1560.7 349.6L1562 566.8L1563.3 383.2L1564.7 530.7L1566 320.1L1567.3 560.2L1568.7 358.2L1570 576.7L1571.3 328.3L1572.7 547.6L1574 357.4L1575.3 563.4L1576.7 368.6L1578 604.7L1579.3 339.3L1580.7 571.6L1582 321L1583.3 554.6L1584.7 364.4L1586 558.2L1587.3 330.8L1588.7 584.2L1590 354.4L1591.3 569.5L1592.7 380.7L1594 576.5L1595.3 388.9L1596.7 594.7L1598 352.8L1599.3 566.6L1600.7 392L1602 583.3L1603.3 346.2L1604.7 612.7L1606 397L1607.3 613.6L1608.7 350.6L1610 567.2L1611.3 379.9L1612.7 597.6L1614 345.1L1615.3 585.3L1616.7 328L1618 516.3L1619.3 341.2L1620.7 500.7L1622 538.7L1623.3 658L1624.7 536.1L1626 657.7L1627.3 563.5L1628.7 657.8L1630 541.1L1631.3 649.1L1632.7 599.1L1634 676.7L1635.3 569.6L1636.7 645.1L1638 567.7L1639.3 678.2L1640.7 554.6L1642 650.6L1643.3 604L1644.7 679.2L1646 591.3L1647.3 648.7L1648.7 608L1650 664.4L1651.3 588.9L1652.7 679L1654 589.1L1655.3 690.4L1656.7 592.6L1658 667.3L1659.3 611.6L1660.7 697.2L1662 595.4L1663.3 673.2L1664.7 586.9L1666 669.7L1667.3 597.1L1668.7 696.8L1670 601.3L1671.3 691.8L1672.7 592.8L1674 686L1675.3 610.7L1676.7 692.7L1678 561.3L1679.3 705.2L1680.7 589.8L1682 685.5L1683.3 595L1684.7 690.5L1686 628.9L1687.3 707.5L1688.7 606.3L1690 711.5L1691.3 611.3L1692.7 715.4L1694 604.5L1695.3 695.9L1696.7 554.9L1698 641L1699.3 567.4L1700.7 628.6L1702 580.5L1703.3 637.7L1704.7 568.2L1706 641.5L1707.3 574.7L1708.7 645.7L1710 585.6L1711.3 646.8L1712.7 577.3L1714 661.9L1715.3 590.8L1716.7 655.8L1718 583.4L1719.3 658.4L1720.7 581.7L1722 660.8L1723.3 577.2L1724.7 670.5L1726 593.2L1727.3 680.2L1728.7 600.6L1730 687.6L1731.3 604.3L1732.7 691.1L1734 591.8L1735.3 671.3L1736.7 584.9L1738 677.5L1739.3 608.1L1740.7 680.8L1742 601.7L1743.3 691.5L1744.7 598.3L1746 691L1747.3 597.6L1748.7 699.2L1750 592.5L1751.3 696.2L1752.7 589.3L1754 693.9L1755.3 604.1L1756.7 712.5L1758 612.3L1759.3 660.5L1760.7 572.8L1762 688.2L1763.3 605.3L1764.7 712.3L1766 606.1L1767.3 713.7L1768.7 617.2L1770 705.9L1771.3 584L1772.7 697.2L1774 608.3L1775.3 713.4L1776.7 547.9L1778 595.8L1779.3 575.6L1780.7 638.9L1782 546.7L1783.3 642.5L1784.7 567.2L1786 652.1L1787.3 583.1L1788.7 627.4L1790 573.8L1791.3 660.7L1792.7 585.3L1794 653.1L1795.3 584L1796.7 654.1L1798 611.9L1799.3 669.8" fill="transparent" stroke="#3fb1e3" stroke-width="3" stroke-linejoin="bevel" class="zr41-cls-125"></path>
</g>
<path d="M-282.2 -5l564.4 0l0 28l-564.4 0Z" transform="translate(1000 5)" fill="rgb(0,0,0)" fill-opacity="0" stroke="#ccc" stroke-width="0" class="zr41-cls-123"></path>
<text dominant-baseline="central" text-anchor="middle" style="font-size:18px;font-family:sans-serif;font-weight:bold;" xml:space="preserve" y="9" transform="translate(1000 5)" fill="#666666">Min wholeUpdate per Tick for bench_1_every_60_staggered_reverse</text>
<defs >
<clipPath id="zr41-c0">
<path d="M198 58.5l16004 0l0 8703l-16004 0Z" fill="#000" class="zr41-cls-124"></path>
</clipPath>
</defs>
<style ><![CDATA[
.zr41-cls-123:hover {
pointer-events:none;
}
.zr41-cls-124:hover {
cursor:pointer;
fill:rgba(0,0,0,1);
}
.zr41-cls-125:hover {
cursor:pointer;
}

]]>

</style>
</svg>