<svg width="2000" height="1000" xmlns="http://www.w3.org/2000/svg" xmlns:xlink="http://www.w3.org/1999/xlink" version="1.1" baseProfile="full" viewBox="0 0 2000 1000">
<rect width="2000" height="1000" x="0" y="0" fill="rgb(252,252,252)" fill-opacity="0"></rect>
<path d="M200 930.5L1800 930.5" fill="transparent" stroke="#eeeeee" class="zr3-cls-9"></path>
<path d="M200 797.5L1800 797.5" fill="transparent" stroke="#eeeeee" class="zr3-cls-9"></path>
<path d="M200 665.5L1800 665.5" fill="transparent" stroke="#eeeeee" class="zr3-cls-9"></path>
<path d="M200 532.5L1800 532.5" fill="transparent" stroke="#eeeeee" class="zr3-cls-9"></path>
<path d="M200 399.5L1800 399.5" fill="transparent" stroke="#eeeeee" class="zr3-cls-9"></path>
<path d="M200 267.5L1800 267.5" fill="transparent" stroke="#eeeeee" class="zr3-cls-9"></path>
<path d="M200 134.5L1800 134.5" fill="transparent" stroke="#eeeeee" class="zr3-cls-9"></path>
<path d="M200 60.5L1800 60.5" fill="transparent" stroke="#eeeeee" class="zr3-cls-9"></path>
<path d="M200.5 930L200.5 60" fill="transparent" stroke="#cccccc" stroke-linecap="round" class="zr3-cls-9"></path>
<text dominant-baseline="central" text-anchor="middle" style="font-size:12px;font-family:sans-serif;" xml:space="preserve" y="-6" transform="translate(200 45)" fill="#cccccc">Min transportLinesUpdate Time (ms)</text>
<path d="M200 930.5L1800 930.5" fill="transparent" stroke="#cccccc" stroke-linecap="round" class="zr3-cls-9"></path>
<text dominant-baseline="central" text-anchor="end" style="font-size:12px;font-family:sans-serif;" transform="translate(192 930)" fill="#999999">0.000</text>
<text dominant-baseline="central" text-anchor="end" style="font-size:12px;font-family:sans-serif;" transform="translate(192 797.381)" fill="#999999">0.050</text>
<text dominant-baseline="central" text-anchor="end" style="font-size:12px;font-family:sans-serif;" transform="translate(192 664.762)" fill="#999999">0.100</text>
<text dominant-baseline="central" text-anchor="end" style="font-size:12px;font-family:sans-serif;" transform="translate(192 532.1431)" fill="#999999">0.150</text>
<text dominant-baseline="central" text-anchor="end" style="font-size:12px;font-family:sans-serif;" transform="translate(192 399.5241)" fill="#999999">0.200</text>
<text dominant-baseline="central" text-anchor="end" style="font-size:12px;font-family:sans-serif;" transform="translate(192 266.9051)" fill="#999999">0.250</text>
<text dominant-baseline="central" text-anchor="end" style="font-size:12px;font-family:sans-serif;" transform="translate(192 134.2861)" fill="#999999">0.300</text>
<text dominant-baseline="central" text-anchor="end" style="font-size:12px;font-family:sans-serif;" transform="translate(192 60)" fill="#999999">0.328</text>
<text dominant-baseline="central" text-anchor="middle" style="font-size:12px;font-family:sans-serif;" y="6" transform="translate(200.6667 938)" fill="#999999">0</text>
<text dominant-baseline="central" text-anchor="middle" style="font-size:12px;font-family:sans-serif;" y="6" transform="translate(236.6667 938)" fill="#999999">27</text>
<text dominant-baseline="central" text-anchor="middle" style="font-size:12px;font-family:sans-serif;" y="6" transform="translate(272.6667 938)" fill="#999999">54</text>
<text dominant-baseline="central" text-anchor="middle" style="font-size:12px;font-family:sans-serif;" y="6" transform="translate(308.6667 938)" fill="#999999">81</text>
<text dominant-baseline="central" text-anchor="middle" style="font-size:12px;font-family:sans-serif;" y="6" transform="translate(344.6667 938)" fill="#999999">108</text>
<text dominant-baseline="central" text-anchor="middle" style="font-size:12px;font-family:sans-serif;" y="6" transform="translate(380.6667 938)" fill="#999999">135</text>
<text dominant-baseline="central" text-anchor="middle" style="font-size:12px;font-family:sans-serif;" y="6" transform="translate(416.6667 938)" fill="#999999">162</text>
<text dominant-baseline="central" text-anchor="middle" style="font-size:12px;font-family:sans-serif;" y="6" transform="translate(452.6667 938)" fill="#999999">189</text>
<text dominant-baseline="central" text-anchor="middle" style="font-size:12px;font-family:sans-serif;" y="6" transform="translate(488.6667 938)" fill="#999999">216</text>
<text dominant-baseline="central" text-anchor="middle" style="font-size:12px;font-family:sans-serif;" y="6" transform="translate(524.6667 938)" fill="#999999">243</text>
<text dominant-baseline="central" text-anchor="middle" style="font-size:12px;font-family:sans-serif;" y="6" transform="translate(560.6667 938)" fill="#999999">270</text>
<text dominant-baseline="central" text-anchor="middle" style="font-size:12px;font-family:sans-serif;" y="6" transform="translate(596.6667 938)" fill="#999999">297</text>
<text dominant-baseline="central" text-anchor="middle" style="font-size:12px;font-family:sans-serif;" y="6" transform="translate(632.6667 938)" fill="#999999">324</text>
<text dominant-baseline="central" text-anchor="middle" style="font-size:12px;font-family:sans-serif;" y="6" transform="translate(668.6667 938)" fill="#999999">351</text>
<text dominant-baseline="central" text-anchor="middle" style="font-size:12px;font-family:sans-serif;" y="6" transform="translate(704.6667 938)" fill="#999999">378</text>
<text dominant-baseline="central" text-anchor="middle" style="font-size:12px;font-family:sans-serif;" y="6" transform="translate(740.6667 938)" fill="#999999">405</text>
<text dominant-baseline="central" text-anchor="middle" style="font-size:12px;font-family:sans-serif;" y="6" transform="translate(776.6667 938)" fill="#999999">432</text>
<text dominant-baseline="central" text-anchor="middle" style="font-size:12px;font-family:sans-serif;" y="6" transform="translate(812.6667 938)" fill="#999999">459</text>
<text dominant-baseline="central" text-anchor="middle" style="font-size:12px;font-family:sans-serif;" y="6" transform="translate(848.6667 938)" fill="#999999">486</text>
<text dominant-baseline="central" text-anchor="middle" style="font-size:12px;font-family:sans-serif;" y="6" transform="translate(884.6667 938)" fill="#999999">513</text>
<text dominant-baseline="central" text-anchor="middle" style="font-size:12px;font-family:sans-serif;" y="6" transform="translate(920.6667 938)" fill="#999999">540</text>
<text dominant-baseline="central" text-anchor="middle" style="font-size:12px;font-family:sans-serif;" y="6" transform="translate(956.6667 938)" fill="#999999">567</text>
<text dominant-baseline="central" text-anchor="middle" style="font-size:12px;font-family:sans-serif;" y="6" transform="translate(992.6667 938)" fill="#999999">594</text>
<text dominant-baseline="central" text-anchor="middle" style="font-size:12px;font-family:sans-serif;" y="6" transform="translate(1028.6667 938)" fill="#999999">621</text>
<text dominant-baseline="central" text-anchor="middle" style="font-size:12px;font-family:sans-serif;" y="6" transform="translate(1064.6667 938)" fill="#999999">648</text>
<text dominant-baseline="central" text-anchor="middle" style="font-size:12px;font-family:sans-serif;" y="6" transform="translate(1100.6667 938)" fill="#999999">675</text>
<text dominant-baseline="central" text-anchor="middle" style="font-size:12px;font-family:sans-serif;" y="6" transform="translate(1136.6667 938)" fill="#999999">702</text>
<text dominant-baseline="central" text-anchor="middle" style="font-size:12px;font-family:sans-serif;" y="6" transform="translate(1172.6667 938)" fill="#999999">729</text>
<text dominant-baseline="central" text-anchor="middle" style="font-size:12px;font-family:sans-serif;" y="6" transform="translate(1208.6667 938)" fill="#999999">756</text>
<text dominant-baseline="central" text-anchor="middle" style="font-size:12px;font-family:sans-serif;" y="6" transform="translate(1244.6667 938)" fill="#999999">783</text>
<text dominant-baseline="central" text-anchor="middle" style="font-size:12px;font-family:sans-serif;" y="6" transform="translate(1280.6667 938)" fill="#999999">810</text>
<text dominant-baseline="central" text-anchor="middle" style="font-size:12px;font-family:sans-serif;" y="6" transform="translate(1316.6667 938)" fill="#999999">837</text>
<text dominant-baseline="central" text-anchor="middle" style="font-size:12px;font-family:sans-serif;" y="6" transform="translate(1352.6667 938)" fill="#999999">864</text>
<text dominant-baseline="central" text-anchor="middle" style="font-size:12px;font-family:sans-serif;" y="6" transform="translate(1388.6667 938)" fill="#999999">891</text>
<text dominant-baseline="central" text-anchor="middle" style="font-size:12px;font-family:sans-serif;" y="6" transform="translate(1424.6667 938)" fill="#999999">918</text>
<text dominant-baseline="central" text-anchor="middle" style="font-size:12px;font-family:sans-serif;" y="6" transform="translate(1460.6667 938)" fill="#999999">945</text>
<text dominant-baseline="central" text-anchor="middle" style="font-size:12px;font-family:sans-serif;" y="6" transform="translate(1496.6667 938)" fill="#999999">972</text>
<text dominant-baseline="central" text-anchor="middle" style="font-size:12px;font-family:sans-serif;" y="6" transform="translate(1532.6667 938)" fill="#999999">999</text>
<text dominant-baseline="central" text-anchor="middle" style="font-size:12px;font-family:sans-serif;" y="6" transform="translate(1568.6667 938)" fill="#999999">1026</text>
<text dominant-baseline="central" text-anchor="middle" style="font-size:12px;font-family:sans-serif;" y="6" transform="translate(1604.6667 938)" fill="#999999">1053</text>
<text dominant-baseline="central" text-anchor="middle" style="font-size:12px;font-family:sans-serif;" y="6" transform="translate(1640.6667 938)" fill="#999999">1080</text>
<text dominant-baseline="central" text-anchor="middle" style="font-size:12px;font-family:sans-serif;" y="6" transform="translate(1676.6667 938)" fill="#999999">1107</text>
<text dominant-baseline="central" text-anchor="middle" style="font-size:12px;font-family:sans-serif;" y="6" transform="translate(1712.6667 938)" fill="#999999">1134</text>
<text dominant-baseline="central" text-anchor="middle" style="font-size:12px;font-family:sans-serif;" y="6" transform="translate(1748.6667 938)" fill="#999999">1161</text>
<text dominant-baseline="central" text-anchor="middle" style="font-size:12px;font-family:sans-serif;" y="6" transform="translate(1784.6667 938)" fill="#999999">1188</text>
<g clip-path="url(#zr3-c0)">
<path d="M200.7 494.2L202 687.8L203.3 642.2L204.7 723.6L206 704.3L207.3 738L208.7 637.2L210 715.4L211.3 692.3L212.7 741.9L214 608.5L215.3 681.2L216.7 656.3L218 706.7L219.3 580.9L220.7 690.8L222 587.3L223.3 704L224.7 556.5L226 687.6L227.3 573.3L228.7 666.4L230 502.4L231.3 671.9L232.7 531.6L234 654.2L235.3 438.2L236.7 642L238 476.2L239.3 606.4L240.7 393.4L242 641.7L243.3 422.6L244.7 621.8L246 351L247.3 635.9L248.7 356L250 605.1L251.3 348.9L252.7 596.6L254 366.9L255.3 586.8L256.7 270.1L258 606.1L259.3 315.2L260.7 613L262 291.6L263.3 617.8L264.7 324.7L266 599.5L267.3 614.9L268.7 771.9L270 790.5L271.3 770.9L272.7 743L274 755.5L275.3 794.2L276.7 752.8L278 736.1L279.3 711.4L280.7 738L282 779.1L283.3 703.2L284.7 748.8L286 710.4L287.3 744.1L288.7 662.9L290 734.8L291.3 685.5L292.7 756.5L294 664.5L295.3 652L296.7 648.1L298 711.2L299.3 640.6L300.7 691.8L302 643L303.3 705.9L304.7 588.9L306 699.2L307.3 625L308.7 683.9L310 573.8L311.3 657.3L312.7 547L314 690.8L315.3 492.6L316.7 662.1L318 564.8L319.3 678.6L320.7 494.7L322 644.6L323.3 485.5L324.7 669.8L326 475.1L327.3 619.4L328.7 487.3L330 630.8L331.3 413.1L332.7 648.6L334 481.5L335.3 633.5L336.7 379.6L338 589.4L339.3 394.5L340.7 631.6L342 375.9L343.3 617.3L344.7 362.1L346 641.7L347.3 639.3L348.7 788.6L350 812.5L351.3 780.1L352.7 790L354 790L355.3 757.6L356.7 758.1L358 735.1L359.3 767.4L360.7 730L362 753.4L363.3 719.4L364.7 769.5L366 716L367.3 728.4L368.7 659.5L370 705.3L371.3 691L372.7 729.2L374 664.5L375.3 688.1L376.7 662.1L378 700.6L379.3 649.6L380.7 699.2L382 629.5L383.3 691.8L384.7 579.4L386 700L387.3 640.6L388.7 670.9L390 568L391.3 645.1L392.7 601.9L394 674L395.3 469.3L396.7 630.8L398 551L399.3 634.3L400.7 499L402 651.2L403.3 531.1L404.7 580.4L406 492.9L407.3 623.1L408.7 503.8L410 665.8L411.3 445.1L412.7 632.7L414 467.7L415.3 635.3L416.7 409.9L418 587.6L419.3 438.5L420.7 623.1L422 408.8L423.3 617.3L424.7 424.5L426 620.5L427.3 644.1L428.7 794.5L430 795.8L431.3 772.2L432.7 752.3L434 773L435.3 749.1L436.7 758.1L438 748.3L439.3 725L440.7 737.2L442 772.4L443.3 705.6L444.7 738.5L446 749.1L447.3 752.6L448.7 698.4L450 727.4L451.3 685.2L452.7 754.9L454 658.4L455.3 707.5L456.7 661L458 716.7L459.3 636.9L460.7 715.7L462 650.7L463.3 734.8L464.7 573.3L466 697.9L467.3 631.6L468.7 683.9L470 571.7L471.3 676.7L472.7 590.5L474 692.3L475.3 547.8L476.7 682L478 554.4L479.3 686L480.7 567.7L482 658.4L483.3 531.1L484.7 643.3L486 473.5L487.3 627.4L488.7 490.2L490 649.1L491.3 436.1L492.7 626.3L494 400.3L495.3 642.7L496.7 396.1L498 621.5L499.3 423.4L500.7 617.8L502 412.5L503.3 617.5L504.7 385.7L506 615.7L507.3 619.7L508.7 779.3L510 788.9L511.3 808.8L512.7 737.2L514 753.4L515.3 737.4L516.7 717.5L518 678.8L519.3 737.2L520.7 699L522 750.4L523.3 697.7L524.7 734.5L526 660.5L527.3 687.6L528.7 630.3L530 695.5L531.3 624.7L532.7 731.1L534 614.4L535.3 625.5L536.7 644.3L538 705.9L539.3 540.4L540.7 659.5L542 622.9L543.3 699L544.7 547L546 570.1L547.3 559.2L548.7 667.1L550 532.1L551.3 664.5L552.7 545.1L554 666.9L555.3 432.9L556.7 607.5L558 460.8L559.3 625.2L560.7 360.5L562 624.7L563.3 481.5L564.7 587.8L566 361.1L567.3 609.1L568.7 410.4L570 581.5L571.3 328.7L572.7 613.3L574 352.8L575.3 603.2L576.7 300.6L578 527.9L579.3 261.6L580.7 575.4L582 241.4L583.3 595.3L584.7 262.7L586 526.3L587.3 589.4L588.7 780.1L590 761.6L591.3 764.2L592.7 748.8L594 748.8L595.3 770.9L596.7 771.1L598 746.5L599.3 762.1L600.7 749.1L602 752.8L603.3 700.6L604.7 740.9L606 655.2L607.3 734.3L608.7 671.9L610 748.3L611.3 688.9L612.7 705.1L614 642.7L615.3 710.9L616.7 662.1L618 698.4L619.3 625.5L620.7 703L622 656.5L623.3 720.5L624.7 609.3L626 679.1L627.3 601.1L628.7 690L630 576.2L631.3 669L632.7 605.1L634 697.4L635.3 534.5L636.7 682L638 598.5L639.3 680.7L640.7 508.8L642 663.2L643.3 514.6L644.7 665.3L646 487.8L647.3 624.7L648.7 521.8L650 662.4L651.3 474.1L652.7 622.3L654 483.3L655.3 620.5L656.7 399.3L658 621.8L659.3 458.1L660.7 609.6L662 451.2L663.3 593.9L664.7 428.2L666 644.3L667.3 639L668.7 796.9L670 816.7L671.3 786.2L672.7 757.6L674 774.3L675.3 780.9L676.7 760.2L678 725.2L679.3 759.2L680.7 731.6L682 780.7L683.3 698.4L684.7 714.6L686 716L687.3 754.4L688.7 663.4L690 727.9L691.3 717L692.7 749.4L694 653.6L695.3 734.5L696.7 686L698 723.9L699.3 611.7L700.7 683.6L702 623.4L703.3 706.9L704.7 605.3L706 699L707.3 612.2L708.7 632.7L710 546.5L711.3 691.8L712.7 572.7L714 682L715.3 534.3L716.7 646.7L718 560.3L719.3 640.6L720.7 530.8L722 604.3L723.3 514.6L724.7 641.7L726 482.5L727.3 636.4L728.7 424.7L730 657.1L731.3 429.5L732.7 618.3L734 473.5L735.3 642.5L736.7 407.7L738 617L739.3 438.5L740.7 601.9L742 414.4L743.3 606.1L744.7 418.9L746 638L747.3 642.7L748.7 790L750 798.2L751.3 770.1L752.7 752L754 768.2L755.3 760.5L756.7 778.5L758 731.3L759.3 775.4L760.7 760.2L762 764.2L763.3 721L764.7 753.1L766 708.5L767.3 771.1L768.7 696.6L770 739.8L771.3 709.9L772.7 729.7L774 668.5L775.3 724.7L776.7 668.2L778 709.6L779.3 649.9L780.7 673.5L782 651.8L783.3 709.9L784.7 606.9L786 694.7L787.3 612L788.7 679.1L790 573.3L791.3 667.9L792.7 600.6L794 682.3L795.3 562.4L796.7 673L798 552.8L799.3 704.8L800.7 518.9L802 661.6L803.3 562.4L804.7 691.6L806 499.8L807.3 634.5L808.7 510.7L810 649.6L811.3 455.2L812.7 635.6L814 496.6L815.3 644.1L816.7 396.1L818 603L819.3 469.3L820.7 629L822 423.1L823.3 613.8L824.7 374.9L826 640.9L827.3 652.6L828.7 787L830 803.7L831.3 762.4L832.7 730.3L834 712.8L835.3 772.4L836.7 752.6L838 725L839.3 791.5L840.7 700.6L842 723.1L843.3 693.4L844.7 722.6L846 708.5L847.3 721L848.7 666.1L850 718.3L851.3 644.3L852.7 714.9L854 622.9L855.3 701.4L856.7 620.5L858 710.1L859.3 599.2L860.7 692.3L862 583.1L863.3 715.4L864.7 558.9L866 681.2L867.3 542L868.7 678.8L870 439.6L871.3 648.3L872.7 511.5L874 667.9L875.3 452.8L876.7 658.4L878 483.1L879.3 644.1L880.7 418.4L882 654.2L883.3 459.5L884.7 661.8L886 364.2L887.3 622.6L888.7 405.1L890 653.4L891.3 332.4L892.7 608.5L894 445.4L895.3 620.5L896.7 253.6L898 629.2L899.3 300.6L900.7 586.8L902 300.9L903.3 593.4L904.7 277.5L906 573.5L907.3 609.6L908.7 761.3L910 770.9L911.3 765.3L912.7 743.3L914 779.1L915.3 747L916.7 749.4L918 719.9L919.3 764L920.7 765.3L922 754.4L923.3 734.3L924.7 736.9L926 738.2L927.3 752.6L928.7 716L930 719.7L931.3 700.8L932.7 719.1L934 653.9L935.3 706.1L936.7 683.6L938 725.8L939.3 629L940.7 708L942 643.5L943.3 715.7L944.7 610.1L946 704L947.3 633.2L948.7 709.1L950 546.2L951.3 671.9L952.7 569.8L954 688.6L955.3 526.6L956.7 662.9L958 555.7L959.3 671.9L960.7 545.1L962 627.6L963.3 554.7L964.7 669L966 375.7L967.3 637.7L968.7 503.5L970 652.6L971.3 450.7L972.7 630.5L974 462.4L975.3 640.1L976.7 388.9L978 617.8L979.3 465.3L980.7 636.6L982 359.7L983.3 626L984.7 418.4L986 618.9L987.3 636.1L988.7 783.6L990 781.5L991.3 774L992.7 752.8L994 728.2L995.3 785.4L996.7 756.3L998 752.6L999.3 725.2L1000.7 772.2L1002 754.1L1003.3 739.6L1004.7 747.3L1006 731.6L1007.3 739.6L1008.7 672.7L1010 722.6L1011.3 700.8L1012.7 728.9L1014 675.9L1015.3 740.1L1016.7 642.5L1018 716.2L1019.3 647.5L1020.7 684.1L1022 684.9L1023.3 706.4L1024.7 586L1026 680.1L1027.3 626.8L1028.7 688.9L1030 610.7L1031.3 684.7L1032.7 586L1034 699.5L1035.3 524.7L1036.7 642L1038 606.4L1039.3 664.2L1040.7 465.6L1042 650.7L1043.3 540.4L1044.7 678.6L1046 497.4L1047.3 624.2L1048.7 492.1L1050 641.4L1051.3 422.3L1052.7 625.8L1054 481.7L1055.3 609.6L1056.7 386.5L1058 622.9L1059.3 421.5L1060.7 606.7L1062 425.8L1063.3 597.9L1064.7 357.4L1066 596.6L1067.3 636.6L1068.7 787.8L1070 764.2L1071.3 777.2L1072.7 778.5L1074 771.1L1075.3 761.6L1076.7 778.5L1078 754.7L1079.3 786.5L1080.7 738L1082 763.2L1083.3 701.1L1084.7 750.7L1086 741.7L1087.3 759.5L1088.7 687.6L1090 735.1L1091.3 708L1092.7 741.4L1094 662.9L1095.3 714.9L1096.7 670.6L1098 688.1L1099.3 644.9L1100.7 717.3L1102 642L1103.3 709.9L1104.7 629.8L1106 665L1107.3 607.2L1108.7 704.5L1110 593.4L1111.3 671.1L1112.7 581.7L1114 706.7L1115.3 484.7L1116.7 648.8L1118 556.8L1119.3 663.2L1120.7 523.1L1122 669.3L1123.3 511.5L1124.7 644.6L1126 478.8L1127.3 648.6L1128.7 517.3L1130 637.2L1131.3 425.3L1132.7 609.1L1134 484.4L1135.3 631.6L1136.7 407.5L1138 641.7L1139.3 448.9L1140.7 621.3L1142 404.3L1143.3 625L1144.7 371.4L1146 612.8L1147.3 636.9L1148.7 785.7L1150 794.5L1151.3 806.4L1152.7 760.8L1154 774.6L1155.3 754.9L1156.7 761L1158 714.1L1159.3 771.7L1160.7 731.1L1162 751.2L1163.3 692.6L1164.7 706.4L1166 695L1167.3 743.3L1168.7 644.6L1170 692.6L1171.3 653.6L1172.7 727.6L1174 592.4L1175.3 674.6L1176.7 612.5L1178 705.1L1179.3 565.6L1180.7 648.8L1182 586L1183.3 721.8L1184.7 540.6L1186 660.8L1187.3 539.8L1188.7 695.8L1190 503.8L1191.3 667.1L1192.7 516.5L1194 674.8L1195.3 436.4L1196.7 630.8L1198 464L1199.3 635.6L1200.7 418.6L1202 625.5L1203.3 415.4L1204.7 640.9L1206 382.8L1207.3 627.4L1208.7 393.7L1210 617.5L1211.3 329.2L1212.7 586.8L1214 379.9L1215.3 589.4L1216.7 293.4L1218 588.4L1219.3 338L1220.7 631.6L1222 299L1223.3 605.1L1224.7 334L1226 534.8L1227.3 593.7L1228.7 764.5L1230 779.9L1231.3 752.8L1232.7 772.7L1234 765.8L1235.3 786L1236.7 772.7L1238 710.9L1239.3 761L1240.7 739.6L1242 769.8L1243.3 718.6L1244.7 726.3L1246 734.8L1247.3 731.6L1248.7 674.8L1250 718.9L1251.3 710.4L1252.7 734.3L1254 653.4L1255.3 686.5L1256.7 650.4L1258 678.3L1259.3 660.8L1260.7 688.4L1262 645.9L1263.3 701.4L1264.7 521.5L1266 665.3L1267.3 640.1L1268.7 687.6L1270 569.5L1271.3 672.7L1272.7 590.5L1274 694.5L1275.3 558.9L1276.7 665.8L1278 588.9L1279.3 673L1280.7 469L1282 666.4L1283.3 558.9L1284.7 669L1286 508.8L1287.3 633.2L1288.7 502.7L1290 645.1L1291.3 439.6L1292.7 632.1L1294 492.4L1295.3 636.4L1296.7 366.1L1298 625L1299.3 425.3L1300.7 648.6L1302 441.7L1303.3 618.6L1304.7 400.1L1306 626.3L1307.3 672.5L1308.7 797.4L1310 787.6L1311.3 784.4L1312.7 741.9L1314 771.4L1315.3 771.4L1316.7 766.9L1318 746.2L1319.3 764L1320.7 752.8L1322 766.9L1323.3 731.9L1324.7 744.1L1326 745.9L1327.3 741.9L1328.7 699.8L1330 721L1331.3 702.2L1332.7 740.6L1334 669.5L1335.3 731.1L1336.7 675.4L1338 728.2L1339.3 608.8L1340.7 678.6L1342 636.6L1343.3 718.6L1344.7 609.9L1346 665.8L1347.3 619.7L1348.7 691.3L1350 569.8L1351.3 676.4L1352.7 602.7L1354 693.9L1355.3 539L1356.7 661.8L1358 574.6L1359.3 689.7L1360.7 498.7L1362 650.7L1363.3 551.8L1364.7 658.7L1366 477L1367.3 638.2L1368.7 478.6L1370 658.4L1371.3 447.5L1372.7 620.7L1374 479.4L1375.3 652.3L1376.7 441.2L1378 626.8L1379.3 415.2L1380.7 607.7L1382 403L1383.3 627.4L1384.7 415.4L1386 617.8L1387.3 636.1L1388.7 793.1L1390 799L1391.3 767.9L1392.7 757.6L1394 747.3L1395.3 763.2L1396.7 741.4L1398 750.4L1399.3 749.4L1400.7 753.6L1402 740.6L1403.3 721.5L1404.7 746.2L1406 713.3L1407.3 749.9L1408.7 715.2L1410 714.1L1411.3 688.6L1412.7 692.9L1414 628.2L1415.3 707.2L1416.7 659.5L1418 718.6L1419.3 608.8L1420.7 680.1L1422 641.2L1423.3 712.2L1424.7 607.7L1426 709.1L1427.3 612.2L1428.7 675.6L1430 481.2L1431.3 686L1432.7 600.3L1434 686.8L1435.3 543.3L1436.7 667.9L1438 500.6L1439.3 676.4L1440.7 497.1L1442 651L1443.3 526L1444.7 666.1L1446 442.5L1447.3 619.4L1448.7 492.4L1450 649.6L1451.3 484.9L1452.7 609.6L1454 477.8L1455.3 639.6L1456.7 422.3L1458 609.9L1459.3 417.3L1460.7 618.9L1462 386.8L1463.3 647.8L1464.7 422.3L1466 632.9L1467.3 630L1468.7 781.2L1470 794.7L1471.3 792.6L1472.7 745.1L1474 765L1475.3 758.1L1476.7 792.9L1478 704.8L1479.3 750.2L1480.7 697.7L1482 751L1483.3 683.1L1484.7 673.8L1486 688.6L1487.3 720.7L1488.7 667.1L1490 691.6L1491.3 620.7L1492.7 660.3L1494 620.2L1495.3 663.2L1496.7 599.2L1498 681.2L1499.3 544.6L1500.7 681.5L1502 569.3L1503.3 682.3L1504.7 531.9L1506 652.8L1507.3 511.5L1508.7 663.7L1510 519.1L1511.3 674.8L1512.7 514.9L1514 689.7L1515.3 415.7L1516.7 637.7L1518 464.5L1519.3 639.6L1520.7 401.9L1522 619.4L1523.3 424.7L1524.7 635.3L1526 343.3L1527.3 612.5L1528.7 390L1530 608.3L1531.3 321.3L1532.7 587L1534 346.7L1535.3 629.5L1536.7 329.2L1538 589.4L1539.3 321.3L1540.7 596.9L1542 276.5L1543.3 587L1544.7 270.1L1546 614.4L1547.3 570.6L1548.7 779.9L1550 774L1551.3 778L1552.7 735.3L1554 754.9L1555.3 745.7L1556.7 758.7L1558 713.3L1559.3 743L1560.7 761.3L1562 770.3L1563.3 708.8L1564.7 745.7L1566 728.2L1567.3 761L1568.7 670.1L1570 707.7L1571.3 688.4L1572.7 729.2L1574 664.2L1575.3 705.6L1576.7 663.4L1578 726L1579.3 608.5L1580.7 677.5L1582 639.8L1583.3 705.1L1584.7 602.7L1586 661.8L1587.3 597.1L1588.7 697.4L1590 540.9L1591.3 664L1592.7 583.9L1594 684.9L1595.3 499L1596.7 631.9L1598 538.8L1599.3 696.6L1600.7 526.8L1602 654.2L1603.3 461.3L1604.7 637.4L1606 486L1607.3 656L1608.7 515.2L1610 645.4L1611.3 447L1612.7 610.9L1614 440.9L1615.3 653.9L1616.7 428.4L1618 622.1L1619.3 431.6L1620.7 601.1L1622 404.3L1623.3 632.1L1624.7 426.3L1626 649.9L1627.3 610.9L1628.7 767.7L1630 786.2L1631.3 783.3L1632.7 760.8L1634 782L1635.3 769.8L1636.7 760L1638 751L1639.3 730.5L1640.7 761L1642 780.1L1643.3 724.7L1644.7 729.2L1646 745.7L1647.3 737.4L1648.7 688.6L1650 741.7L1651.3 721.8L1652.7 717.5L1654 645.4L1655.3 727.4L1656.7 667.4L1658 713.3L1659.3 635.3L1660.7 689.4L1662 625.8L1663.3 704L1664.7 616.5L1666 689.4L1667.3 631.9L1668.7 693.4L1670 561.1L1671.3 683.1L1672.7 614.4L1674 678.6L1675.3 551.2L1676.7 656.3L1678 562.4L1679.3 666.1L1680.7 520.5L1682 661L1683.3 521.8L1684.7 660.5L1686 469.3L1687.3 646.5L1688.7 551.8L1690 624.2L1691.3 461.1L1692.7 619.1L1694 437.7L1695.3 645.4L1696.7 405.6L1698 614.4L1699.3 463.7L1700.7 620.7L1702 405.6L1703.3 615.4L1704.7 403.8L1706 633.7L1707.3 652L1708.7 803L1710 772.2L1711.3 784.9L1712.7 769L1714 782.8L1715.3 772.4L1716.7 787L1718 746.5L1719.3 777.2L1720.7 749.1L1722 747.5L1723.3 719.9L1724.7 740.9L1726 727.9L1727.3 721.8L1728.7 704.3L1730 718.6L1731.3 714.4L1732.7 754.7L1734 634.5L1735.3 692.6L1736.7 679.4L1738 752.3L1739.3 636.6L1740.7 667.4L1742 635.1L1743.3 713.8L1744.7 593.1L1746 686.2L1747.3 595.5L1748.7 718.1L1750 613.3L1751.3 665.3L1752.7 591.8L1754 691L1755.3 552.6L1756.7 657.9L1758 603.5L1759.3 675.9L1760.7 526.8L1762 665.6L1763.3 536.1L1764.7 665.6L1766 465.8L1767.3 647L1768.7 479.1L1770 648.3L1771.3 427.6L1772.7 640.4L1774 461.6L1775.3 641.7L1776.7 397.9L1778 600L1779.3 432.4L1780.7 615.4L1782 438.8L1783.3 602.4L1784.7 397.7L1786 646.5L1787.3 652.6L1788.7 798.2L1790 804.8L1791.3 772.7L1792.7 743.5L1794 755.2L1795.3 741.2L1796.7 768.2L1798 667.9L1799.3 730.8" fill="transparent" stroke="#3fb1e3" stroke-width="3" stroke-linejoin="bevel" class="zr3-cls-11"></path>
</g>
<path d="M-280.8 -5l561.5 0l0 28l-561.5 0Z" transform="translate(1000 5)" fill="rgb(0,0,0)" fill-opacity="0" stroke="#ccc" stroke-width="0" class="zr3-cls-9"></path>
<text dominant-baseline="central" text-anchor="middle" style="font-size:18px;font-family:sans-serif;font-weight:bold;" xml:space="preserve" y="9" transform="translate(1000 5)" fill="#666666">Min transportLinesUpdate per Tick for bench_1_every_60_staggered</text>
<defs >
<clipPath id="zr3-c0">
<path d="M198 58.5l16004 0l0 8703l-16004 0Z" fill="#000" class="zr3-cls-10"></path>
</clipPath>
</defs>
<style ><![CDATA[
.zr3-cls-9:hover {
pointer-events:none;
}
.zr3-cls-10:hover {
cursor:pointer;
fill:rgba(0,0,0,1);
}
.zr3-cls-11:hover {
cursor:pointer;
}

]]>

</style>
</svg>