<svg width="2000" height="1000" xmlns="http://www.w3.org/2000/svg" xmlns:xlink="http://www.w3.org/1999/xlink" version="1.1" baseProfile="full" viewBox="0 0 2000 1000">
<rect width="2000" height="1000" x="0" y="0" fill="rgb(252,252,252)" fill-opacity="0"></rect>
<path d="M200 930.5L1800 930.5" fill="transparent" stroke="#eeeeee" class="zr36-cls-108"></path>
<path d="M200 762.5L1800 762.5" fill="transparent" stroke="#eeeeee" class="zr36-cls-108"></path>
<path d="M200 593.5L1800 593.5" fill="transparent" stroke="#eeeeee" class="zr36-cls-108"></path>
<path d="M200 425.5L1800 425.5" fill="transparent" stroke="#eeeeee" class="zr36-cls-108"></path>
<path d="M200 257.5L1800 257.5" fill="transparent" stroke="#eeeeee" class="zr36-cls-108"></path>
<path d="M200 89.5L1800 89.5" fill="transparent" stroke="#eeeeee" class="zr36-cls-108"></path>
<path d="M200 60.5L1800 60.5" fill="transparent" stroke="#eeeeee" class="zr36-cls-108"></path>
<path d="M200.5 930L200.5 60" fill="transparent" stroke="#cccccc" stroke-linecap="round" class="zr36-cls-108"></path>
<text dominant-baseline="central" text-anchor="middle" style="font-size:12px;font-family:sans-serif;" xml:space="preserve" y="-6" transform="translate(200 45)" fill="#cccccc">controlBehaviorUpdate Time (ms)</text>
<path d="M200 930.5L1800 930.5" fill="transparent" stroke="#cccccc" stroke-linecap="round" class="zr36-cls-108"></path>
<text dominant-baseline="central" text-anchor="end" style="font-size:12px;font-family:sans-serif;" transform="translate(192 930)" fill="#999999">0.000</text>
<text dominant-baseline="central" text-anchor="end" style="font-size:12px;font-family:sans-serif;" transform="translate(192 761.853)" fill="#999999">0.200</text>
<text dominant-baseline="central" text-anchor="end" style="font-size:12px;font-family:sans-serif;" transform="translate(192 593.706)" fill="#999999">0.400</text>
<text dominant-baseline="central" text-anchor="end" style="font-size:12px;font-family:sans-serif;" transform="translate(192 425.559)" fill="#999999">0.600</text>
<text dominant-baseline="central" text-anchor="end" style="font-size:12px;font-family:sans-serif;" transform="translate(192 257.412)" fill="#999999">0.800</text>
<text dominant-baseline="central" text-anchor="end" style="font-size:12px;font-family:sans-serif;" transform="translate(192 89.265)" fill="#999999">1.000</text>
<text dominant-baseline="central" text-anchor="end" style="font-size:12px;font-family:sans-serif;" transform="translate(192 60)" fill="#999999">1.035</text>
<text dominant-baseline="central" text-anchor="middle" style="font-size:12px;font-family:sans-serif;" y="6" transform="translate(200.6667 938)" fill="#999999">0</text>
<text dominant-baseline="central" text-anchor="middle" style="font-size:12px;font-family:sans-serif;" y="6" transform="translate(236.6667 938)" fill="#999999">27</text>
<text dominant-baseline="central" text-anchor="middle" style="font-size:12px;font-family:sans-serif;" y="6" transform="translate(272.6667 938)" fill="#999999">54</text>
<text dominant-baseline="central" text-anchor="middle" style="font-size:12px;font-family:sans-serif;" y="6" transform="translate(308.6667 938)" fill="#999999">81</text>
<text dominant-baseline="central" text-anchor="middle" style="font-size:12px;font-family:sans-serif;" y="6" transform="translate(344.6667 938)" fill="#999999">108</text>
<text dominant-baseline="central" text-anchor="middle" style="font-size:12px;font-family:sans-serif;" y="6" transform="translate(380.6667 938)" fill="#999999">135</text>
<text dominant-baseline="central" text-anchor="middle" style="font-size:12px;font-family:sans-serif;" y="6" transform="translate(416.6667 938)" fill="#999999">162</text>
<text dominant-baseline="central" text-anchor="middle" style="font-size:12px;font-family:sans-serif;" y="6" transform="translate(452.6667 938)" fill="#999999">189</text>
<text dominant-baseline="central" text-anchor="middle" style="font-size:12px;font-family:sans-serif;" y="6" transform="translate(488.6667 938)" fill="#999999">216</text>
<text dominant-baseline="central" text-anchor="middle" style="font-size:12px;font-family:sans-serif;" y="6" transform="translate(524.6667 938)" fill="#999999">243</text>
<text dominant-baseline="central" text-anchor="middle" style="font-size:12px;font-family:sans-serif;" y="6" transform="translate(560.6667 938)" fill="#999999">270</text>
<text dominant-baseline="central" text-anchor="middle" style="font-size:12px;font-family:sans-serif;" y="6" transform="translate(596.6667 938)" fill="#999999">297</text>
<text dominant-baseline="central" text-anchor="middle" style="font-size:12px;font-family:sans-serif;" y="6" transform="translate(632.6667 938)" fill="#999999">324</text>
<text dominant-baseline="central" text-anchor="middle" style="font-size:12px;font-family:sans-serif;" y="6" transform="translate(668.6667 938)" fill="#999999">351</text>
<text dominant-baseline="central" text-anchor="middle" style="font-size:12px;font-family:sans-serif;" y="6" transform="translate(704.6667 938)" fill="#999999">378</text>
<text dominant-baseline="central" text-anchor="middle" style="font-size:12px;font-family:sans-serif;" y="6" transform="translate(740.6667 938)" fill="#999999">405</text>
<text dominant-baseline="central" text-anchor="middle" style="font-size:12px;font-family:sans-serif;" y="6" transform="translate(776.6667 938)" fill="#999999">432</text>
<text dominant-baseline="central" text-anchor="middle" style="font-size:12px;font-family:sans-serif;" y="6" transform="translate(812.6667 938)" fill="#999999">459</text>
<text dominant-baseline="central" text-anchor="middle" style="font-size:12px;font-family:sans-serif;" y="6" transform="translate(848.6667 938)" fill="#999999">486</text>
<text dominant-baseline="central" text-anchor="middle" style="font-size:12px;font-family:sans-serif;" y="6" transform="translate(884.6667 938)" fill="#999999">513</text>
<text dominant-baseline="central" text-anchor="middle" style="font-size:12px;font-family:sans-serif;" y="6" transform="translate(920.6667 938)" fill="#999999">540</text>
<text dominant-baseline="central" text-anchor="middle" style="font-size:12px;font-family:sans-serif;" y="6" transform="translate(956.6667 938)" fill="#999999">567</text>
<text dominant-baseline="central" text-anchor="middle" style="font-size:12px;font-family:sans-serif;" y="6" transform="translate(992.6667 938)" fill="#999999">594</text>
<text dominant-baseline="central" text-anchor="middle" style="font-size:12px;font-family:sans-serif;" y="6" transform="translate(1028.6667 938)" fill="#999999">621</text>
<text dominant-baseline="central" text-anchor="middle" style="font-size:12px;font-family:sans-serif;" y="6" transform="translate(1064.6667 938)" fill="#999999">648</text>
<text dominant-baseline="central" text-anchor="middle" style="font-size:12px;font-family:sans-serif;" y="6" transform="translate(1100.6667 938)" fill="#999999">675</text>
<text dominant-baseline="central" text-anchor="middle" style="font-size:12px;font-family:sans-serif;" y="6" transform="translate(1136.6667 938)" fill="#999999">702</text>
<text dominant-baseline="central" text-anchor="middle" style="font-size:12px;font-family:sans-serif;" y="6" transform="translate(1172.6667 938)" fill="#999999">729</text>
<text dominant-baseline="central" text-anchor="middle" style="font-size:12px;font-family:sans-serif;" y="6" transform="translate(1208.6667 938)" fill="#999999">756</text>
<text dominant-baseline="central" text-anchor="middle" style="font-size:12px;font-family:sans-serif;" y="6" transform="translate(1244.6667 938)" fill="#999999">783</text>
<text dominant-baseline="central" text-anchor="middle" style="font-size:12px;font-family:sans-serif;" y="6" transform="translate(1280.6667 938)" fill="#999999">810</text>
<text dominant-baseline="central" text-anchor="middle" style="font-size:12px;font-family:sans-serif;" y="6" transform="translate(1316.6667 938)" fill="#999999">837</text>
<text dominant-baseline="central" text-anchor="middle" style="font-size:12px;font-family:sans-serif;" y="6" transform="translate(1352.6667 938)" fill="#999999">864</text>
<text dominant-baseline="central" text-anchor="middle" style="font-size:12px;font-family:sans-serif;" y="6" transform="translate(1388.6667 938)" fill="#999999">891</text>
<text dominant-baseline="central" text-anchor="middle" style="font-size:12px;font-family:sans-serif;" y="6" transform="translate(1424.6667 938)" fill="#999999">918</text>
<text dominant-baseline="central" text-anchor="middle" style="font-size:12px;font-family:sans-serif;" y="6" transform="translate(1460.6667 938)" fill="#999999">945</text>
<text dominant-baseline="central" text-anchor="middle" style="font-size:12px;font-family:sans-serif;" y="6" transform="translate(1496.6667 938)" fill="#999999">972</text>
<text dominant-baseline="central" text-anchor="middle" style="font-size:12px;font-family:sans-serif;" y="6" transform="translate(1532.6667 938)" fill="#999999">999</text>
<text dominant-baseline="central" text-anchor="middle" style="font-size:12px;font-family:sans-serif;" y="6" transform="translate(1568.6667 938)" fill="#999999">1026</text>
<text dominant-baseline="central" text-anchor="middle" style="font-size:12px;font-family:sans-serif;" y="6" transform="translate(1604.6667 938)" fill="#999999">1053</text>
<text dominant-baseline="central" text-anchor="middle" style="font-size:12px;font-family:sans-serif;" y="6" transform="translate(1640.6667 938)" fill="#999999">1080</text>
<text dominant-baseline="central" text-anchor="middle" style="font-size:12px;font-family:sans-serif;" y="6" transform="translate(1676.6667 938)" fill="#999999">1107</text>
<text dominant-baseline="central" text-anchor="middle" style="font-size:12px;font-family:sans-serif;" y="6" transform="translate(1712.6667 938)" fill="#999999">1134</text>
<text dominant-baseline="central" text-anchor="middle" style="font-size:12px;font-family:sans-serif;" y="6" transform="translate(1748.6667 938)" fill="#999999">1161</text>
<text dominant-baseline="central" text-anchor="middle" style="font-size:12px;font-family:sans-serif;" y="6" transform="translate(1784.6667 938)" fill="#999999">1188</text>
<g clip-path="url(#zr36-c0)">
<path d="M200.7 286.6L202 675.9L203.3 785.7L204.7 679L206 794.7L207.3 788L208.7 798.8L210 791.1L211.3 792.3L212.7 787.6L214 799.7L215.3 794.1L216.7 788.2L218 -4257.7L219.3 219.1L220.7 674.5L222 742.4L223.3 781.3L224.7 793L226 787.5L227.3 753.6L228.7 720.7L230 785.2L231.3 793L232.7 796.2L234 801L235.3 800.7L236.7 794.9L238 797.8L239.3 796.3L240.7 779.3L242 785.8L243.3 808.5L244.7 789.4L246 810.7L247.3 801.4L248.7 806.2L250 803.4L251.3 805.7L252.7 799.4L254 787.3L255.3 796.1L256.7 805.8L258 808.5L259.3 808.7L260.7 796.3L262 796.4L263.3 789.8L264.7 810.4L266 807.4L267.3 787L268.7 783.5L270 809.9L271.3 807.6L272.7 802.5L274 802.5L275.3 804.6L276.7 809.1L278 795.3L279.3 806.7L280.7 733.3L282 795.1L283.3 797.4L284.7 795.5L286 803.7L287.3 799.4L288.7 800.3L290 793.7L291.3 803.7L292.7 798L294 804L295.3 758.8L296.7 798L298 -3583.2L299.3 50.1L300.7 670.9L302 728.3L303.3 737.3L304.7 471.7L306 476.3L307.3 628.3L308.7 666.6L310 723.1L311.3 754.5L312.7 788.2L314 794.9L315.3 774.3L316.7 779.7L318 797.7L319.3 801.6L320.7 800.9L322 804.1L323.3 812.1L324.7 805.2L326 801.5L327.3 797.5L328.7 787.7L330 805.7L331.3 799.8L332.7 806.3L334 789.7L335.3 804.7L336.7 807.8L338 800.1L339.3 793.1L340.7 788.6L342 784L343.3 794.5L344.7 808.6L346 798.1L347.3 793.3L348.7 797.9L350 803.4L351.3 788L352.7 798.1L354 804.2L355.3 787L356.7 800.6L358 808.2L359.3 800.9L360.7 794.3L362 807.2L363.3 803.1L364.7 799.9L366 795.9L367.3 794.1L368.7 720.4L370 793.9L371.3 802.6L372.7 813.4L374 802.2L375.3 784.6L376.7 806.7L378 -3645.6L379.3 181.7L380.7 671.9L382 533.8L383.3 758.5L384.7 789.9L386 790.1L387.3 796.6L388.7 802.9L390 806.2L391.3 795L392.7 793L394 780L395.3 792.3L396.7 793.8L398 801.6L399.3 796.2L400.7 811.7L402 807.8L403.3 800.7L404.7 805.8L406 798.3L407.3 787.4L408.7 807.2L410 803.5L411.3 795.1L412.7 805.8L414 809.9L415.3 808.9L416.7 807.1L418 812.3L419.3 803.7L420.7 790.9L422 765.7L423.3 801.7L424.7 806.1L426 792.1L427.3 808.3L428.7 799.5L430 803.9L431.3 809.6L432.7 803L434 785.7L435.3 775.9L436.7 799.7L438 799.3L439.3 795.6L440.7 801.7L442 812.8L443.3 807.5L444.7 791.1L446 808L447.3 797.8L448.7 776.5L450 789.2L451.3 813.7L452.7 799.7L454 788.7L455.3 808.1L456.7 780.5L458 -3644.2L459.3 66.6L460.7 629.9L462 719.1L463.3 776.7L464.7 789.6L466 760.8L467.3 806.3L468.7 793.5L470 809L471.3 817.8L472.7 794.9L474 804.9L475.3 793.6L476.7 786.7L478 802.1L479.3 803.4L480.7 804.1L482 800.6L483.3 805.5L484.7 804.1L486 786.9L487.3 800.3L488.7 802.1L490 809.1L491.3 803.7L492.7 778.6L494 795.1L495.3 802.3L496.7 783.9L498 803.6L499.3 771.6L500.7 799.8L502 800.2L503.3 798.8L504.7 807.7L506 805.8L507.3 799.7L508.7 797.6L510 806.3L511.3 804.7L512.7 749.2L514 798.8L515.3 804.7L516.7 803.6L518 796.8L519.3 798.4L520.7 810L522 805.3L523.3 805.6L524.7 795.5L526 803.8L527.3 778.3L528.7 799.8L530 774.7L531.3 802.8L532.7 803.4L534 805L535.3 804.2L536.7 805.9L538 -3558.1L539.3 98.8L540.7 606.4L542 723.2L543.3 773L544.7 783.5L546 804.9L547.3 799.2L548.7 798.5L550 780.3L551.3 775.5L552.7 775.3L554 789.8L555.3 805.2L556.7 785.8L558 801L559.3 807.8L560.7 802.1L562 800.7L563.3 806.7L564.7 787.2L566 797.9L567.3 806.7L568.7 799.6L570 796.7L571.3 800L572.7 803.2L574 802.9L575.3 800L576.7 801.6L578 782.5L579.3 799.3L580.7 805.6L582 804.6L583.3 795L584.7 796.4L586 804.9L587.3 803.3L588.7 798.7L590 797.3L591.3 805.6L592.7 793L594 799L595.3 804.1L596.7 803.1L598 796.7L599.3 802.1L600.7 803.8L602 804.5L603.3 796.2L604.7 804.5L606 786L607.3 785.9L608.7 799.5L610 793.2L611.3 796.2L612.7 808L614 796.3L615.3 807.8L616.7 794.9L618 -3544.8L619.3 168.8L620.7 650.8L622 719L623.3 722.2L624.7 450.8L626 416.9L627.3 619.3L628.7 666.6L630 717.5L631.3 767.7L632.7 790.4L634 799.9L635.3 805.7L636.7 799.5L638 765.2L639.3 785.4L640.7 806.1L642 801.3L643.3 806.2L644.7 802.2L646 793.1L647.3 805.2L648.7 800.3L650 755.1L651.3 803.2L652.7 792.5L654 806.5L655.3 805.5L656.7 804.6L658 798.8L659.3 811.5L660.7 811.6L662 801.5L663.3 795.2L664.7 811.2L666 779.4L667.3 800.7L668.7 805L670 803.6L671.3 807.9L672.7 807.7L674 797.2L675.3 815.7L676.7 800.2L678 812.5L679.3 800.4L680.7 787.3L682 806.1L683.3 806L684.7 803L686 803.4L687.3 801.9L688.7 796.7L690 807L691.3 805.9L692.7 810L694 787.7L695.3 772.1L696.7 803.2L698 -3410.9L699.3 81.1L700.7 658.8L702 745.6L703.3 766.9L704.7 783.7L706 764.6L707.3 780.1L708.7 787L710 800.6L711.3 789.9L712.7 798.8L714 805.9L715.3 793.1L716.7 801.2L718 804.2L719.3 787.7L720.7 802L722 804.5L723.3 808.8L724.7 807.4L726 798.8L727.3 791.1L728.7 811.5L730 813.6L731.3 706.8L732.7 777.5L734 786.7L735.3 810.1L736.7 809.1L738 805L739.3 810.1L740.7 804.8L742 799L743.3 802.5L744.7 690.6L746 793L747.3 796.2L748.7 790L750 803.1L751.3 802.7L752.7 801L754 799.7L755.3 797.8L756.7 804.3L758 800.1L759.3 787.9L760.7 793.5L762 809.6L763.3 808L764.7 789.8L766 810.2L767.3 796.8L768.7 796L770 798.4L771.3 808.3L772.7 797.2L774 778.6L775.3 799.4L776.7 801.2L778 -3458.2L779.3 127.1L780.7 665.6L782 739.1L783.3 779.5L784.7 789.8L786 777.9L787.3 788.5L788.7 793.8L790 793.2L791.3 808.5L792.7 804.9L794 803.7L795.3 797L796.7 797.9L798 782.2L799.3 771.2L800.7 759.2L802 804.2L803.3 795.7L804.7 802L806 799.5L807.3 804.2L808.7 804.1L810 806.7L811.3 810L812.7 796.2L814 805.6L815.3 797.9L816.7 808.8L818 804.9L819.3 807.6L820.7 794.6L822 802.6L823.3 812.5L824.7 800.7L826 780.4L827.3 789.4L828.7 796.6L830 802.5L831.3 805L832.7 801.5L834 807.7L835.3 806.2L836.7 769.7L838 798.3L839.3 724.9L840.7 796.2L842 780.7L843.3 805L844.7 798.9L846 798.8L847.3 802.5L848.7 801.7L850 794.2L851.3 791.8L852.7 723.1L854 782.6L855.3 800L856.7 799.9L858 -3483.9L859.3 90.7L860.7 674.8L862 746L863.3 760.1L864.7 788.8L866 782.4L867.3 795.1L868.7 797.8L870 802.3L871.3 804.9L872.7 798.7L874 815.4L875.3 809.1L876.7 805.6L878 779.2L879.3 789.3L880.7 800.9L882 803L883.3 803.5L884.7 812.5L886 777.3L887.3 788.4L888.7 804.8L890 810.7L891.3 711.1L892.7 788.1L894 797.7L895.3 805.4L896.7 804.2L898 806.6L899.3 802.6L900.7 810.5L902 805.7L903.3 807.8L904.7 804.3L906 786.7L907.3 798.8L908.7 805.1L910 804.7L911.3 800.1L912.7 803.2L914 793L915.3 811.4L916.7 796.9L918 812.1L919.3 781.3L920.7 764L922 795.1L923.3 807.8L924.7 806.9L926 807.6L927.3 797.6L928.7 802.2L930 806.1L931.3 792.1L932.7 802.8L934 782.6L935.3 798.3L936.7 804.5L938 -3469.6L939.3 46.6L940.7 672.1L942 706.8L943.3 711.4L944.7 446.4L946 468.6L947.3 625.7L948.7 692.6L950 731.4L951.3 768.7L952.7 791.4L954 740.1L955.3 796.1L956.7 800.9L958 792.8L959.3 797.8L960.7 797.7L962 803L963.3 808.2L964.7 795.3L966 660.9L967.3 767.4L968.7 801.6L970 805.4L971.3 784L972.7 805.9L974 797.6L975.3 798.2L976.7 805.9L978 805.7L979.3 701.7L980.7 779.9L982 807.1L983.3 799.1L984.7 804.6L986 803.2L987.3 805.7L988.7 800.8L990 802.7L991.3 798.5L992.7 808.8L994 770.9L995.3 794.2L996.7 815.2L998 805.7L999.3 792.7L1000.7 798.4L1002 803.5L1003.3 777.7L1004.7 801.5L1006 796.3L1007.3 803.6L1008.7 770.3L1010 806.4L1011.3 803.6L1012.7 807.6L1014 791.9L1015.3 804L1016.7 799.2L1018 -3758.4L1019.3 101.6L1020.7 593.9L1022 735.4L1023.3 761.5L1024.7 776.6L1026 786.3L1027.3 776.9L1028.7 802.6L1030 797.4L1031.3 768.7L1032.7 803.6L1034 797.7L1035.3 804.6L1036.7 802.9L1038 805L1039.3 800.4L1040.7 801L1042 797.9L1043.3 800.5L1044.7 781.9L1046 740.5L1047.3 801.7L1048.7 807.9L1050 811.5L1051.3 801.1L1052.7 802.7L1054 803.1L1055.3 809.4L1056.7 811.7L1058 776.5L1059.3 806.7L1060.7 807.8L1062 785.2L1063.3 798.2L1064.7 800L1066 818L1067.3 802.1L1068.7 808.3L1070 800.9L1071.3 793L1072.7 791.7L1074 795.8L1075.3 805.2L1076.7 786.1L1078 798.7L1079.3 804.8L1080.7 792L1082 804.1L1083.3 803.8L1084.7 801.2L1086 778.8L1087.3 786.9L1088.7 810.5L1090 807.7L1091.3 801.5L1092.7 804.7L1094 807.7L1095.3 805.5L1096.7 797.9L1098 -3476L1099.3 128.4L1100.7 623.5L1102 718.5L1103.3 764.1L1104.7 788.8L1106 794.8L1107.3 794.2L1108.7 809.8L1110 797.7L1111.3 804.1L1112.7 770.6L1114 798.5L1115.3 800L1116.7 809.4L1118 811.6L1119.3 795.6L1120.7 803.4L1122 800.4L1123.3 794.1L1124.7 796.5L1126 777.9L1127.3 747.5L1128.7 804L1130 795L1131.3 810.5L1132.7 810.2L1134 802.8L1135.3 804.6L1136.7 805.7L1138 791.4L1139.3 766.9L1140.7 795.4L1142 804.5L1143.3 805.3L1144.7 800.4L1146 801.5L1147.3 804.9L1148.7 801.6L1150 807.8L1151.3 798.9L1152.7 772.9L1154 801.4L1155.3 805.9L1156.7 805.9L1158 799.5L1159.3 790.7L1160.7 803.6L1162 801.1L1163.3 804.8L1164.7 801.3L1166 757.1L1167.3 795.2L1168.7 800.6L1170 790.3L1171.3 801.2L1172.7 804.6L1174 813.3L1175.3 801.3L1176.7 801.9L1178 -3654.8L1179.3 154.1L1180.7 621.8L1182 728.6L1183.3 765.2L1184.7 782.5L1186 790L1187.3 789.8L1188.7 773.2L1190 773.5L1191.3 777.2L1192.7 770.9L1194 804.1L1195.3 804.6L1196.7 784.9L1198 796.7L1199.3 801.8L1200.7 799.7L1202 804.9L1203.3 806.6L1204.7 799.1L1206 795L1207.3 808.8L1208.7 812L1210 804.5L1211.3 805.7L1212.7 802L1214 808.3L1215.3 810L1216.7 804.9L1218 807.3L1219.3 794.7L1220.7 790.3L1222 797.9L1223.3 808.5L1224.7 811.9L1226 810L1227.3 808.9L1228.7 801.3L1230 802.2L1231.3 800.1L1232.7 759.1L1234 792.9L1235.3 804L1236.7 790.5L1238 794.1L1239.3 803L1240.7 804.6L1242 806.4L1243.3 804.4L1244.7 809.9L1246 809.1L1247.3 772.4L1248.7 811L1250 801.5L1251.3 795.3L1252.7 802L1254 802.7L1255.3 800.7L1256.7 800.1L1258 -3547.6L1259.3 79.8L1260.7 662.7L1262 702.5L1263.3 737.2L1264.7 439.1L1266 334.6L1267.3 614L1268.7 690.7L1270 705.2L1271.3 753.9L1272.7 790.1L1274 793.5L1275.3 799.4L1276.7 778.2L1278 805.2L1279.3 764.8L1280.7 803.4L1282 798L1283.3 806.6L1284.7 797.5L1286 812.9L1287.3 796.5L1288.7 811.2L1290 804.9L1291.3 802.5L1292.7 643.4L1294 799.3L1295.3 801.3L1296.7 797.6L1298 799.4L1299.3 802L1300.7 807.7L1302 798.3L1303.3 803.2L1304.7 797.5L1306 778.2L1307.3 795.7L1308.7 803.7L1310 795.5L1311.3 795.8L1312.7 806.6L1314 799.5L1315.3 800.7L1316.7 790.2L1318 793.8L1319.3 780.3L1320.7 795.4L1322 805.2L1323.3 796.6L1324.7 804.8L1326 805L1327.3 798.3L1328.7 806.2L1330 804.4L1331.3 801.5L1332.7 769.3L1334 794.6L1335.3 803.1L1336.7 791L1338 -3782.4L1339.3 196.2L1340.7 692.8L1342 749.4L1343.3 769.8L1344.7 771.2L1346 799L1347.3 804.3L1348.7 802.3L1350 812L1351.3 791.5L1352.7 786L1354 810L1355.3 804.4L1356.7 768.5L1358 800L1359.3 802.5L1360.7 807.4L1362 804.6L1363.3 808.2L1364.7 809.6L1366 802.7L1367.3 801.2L1368.7 804.1L1370 784.2L1371.3 803.6L1372.7 797.2L1374 805.9L1375.3 808.3L1376.7 787.5L1378 802.5L1379.3 809.4L1380.7 797.5L1382 798.6L1383.3 787.8L1384.7 778.1L1386 808.3L1387.3 811.6L1388.7 793.3L1390 806.1L1391.3 800.8L1392.7 808.3L1394 799.5L1395.3 797.6L1396.7 804.9L1398 781.2L1399.3 778L1400.7 802.5L1402 807.1L1403.3 802.8L1404.7 796.2L1406 804.1L1407.3 802.5L1408.7 801.9L1410 800.2L1411.3 796.7L1412.7 796.1L1414 807.2L1415.3 806L1416.7 800.8L1418 -3824.9L1419.3 27L1420.7 673.5L1422 733.2L1423.3 744.5L1424.7 769L1426 775.4L1427.3 801.5L1428.7 797.5L1430 803.9L1431.3 792.4L1432.7 799L1434 800.4L1435.3 781.5L1436.7 798.9L1438 796.2L1439.3 808.2L1440.7 802.1L1442 807.3L1443.3 808.6L1444.7 806.2L1446 799.9L1447.3 685.3L1448.7 792.9L1450 800.2L1451.3 806.9L1452.7 809.9L1454 812.1L1455.3 794.1L1456.7 805.9L1458 799.1L1459.3 804.9L1460.7 803.9L1462 756.3L1463.3 780.7L1464.7 790.1L1466 791.5L1467.3 806L1468.7 800.4L1470 797.3L1471.3 811L1472.7 806.6L1474 806.2L1475.3 757L1476.7 785.8L1478 805.3L1479.3 803.6L1480.7 807.2L1482 800.6L1483.3 790.8L1484.7 802.4L1486 810.4L1487.3 801.5L1488.7 805.9L1490 781.9L1491.3 757.1L1492.7 798.5L1494 803.3L1495.3 808L1496.7 810.2L1498 -3521.6L1499.3 181.6L1500.7 672.4L1502 740.6L1503.3 739.2L1504.7 784L1506 792L1507.3 776.8L1508.7 804.2L1510 799.9L1511.3 805.1L1512.7 800.3L1514 766.1L1515.3 745.7L1516.7 745.5L1518 795.1L1519.3 798L1520.7 801.9L1522 802.5L1523.3 807.7L1524.7 808.4L1526 791.6L1527.3 802.1L1528.7 769.8L1530 791L1531.3 806.8L1532.7 804.5L1534 800.4L1535.3 812.7L1536.7 808L1538 802L1539.3 797.8L1540.7 805.9L1542 804.8L1543.3 767.4L1544.7 797.1L1546 787.6L1547.3 795.5L1548.7 796.3L1550 798.3L1551.3 797.3L1552.7 804.4L1554 801.3L1555.3 790.3L1556.7 778.8L1558 805.7L1559.3 797.6L1560.7 804L1562 804.1L1563.3 782.5L1564.7 801.5L1566 802L1567.3 799.5L1568.7 793.3L1570 786.8L1571.3 797.9L1572.7 795.3L1574 786.2L1575.3 796.9L1576.7 806.6L1578 -3527.8L1579.3 117.5L1580.7 698.1L1582 694.9L1583.3 751.3L1584.7 462.3L1586 468.6L1587.3 543.8L1588.7 683.1L1590 729.4L1591.3 773.1L1592.7 751.2L1594 779L1595.3 807.9L1596.7 749.1L1598 803.4L1599.3 797.8L1600.7 801.5L1602 758.1L1603.3 816.2L1604.7 787.4L1606 783.8L1607.3 806.9L1608.7 799.6L1610 797.3L1611.3 807L1612.7 812.8L1614 798.1L1615.3 801.9L1616.7 813.3L1618 800.7L1619.3 791.7L1620.7 800.9L1622 796.3L1623.3 790.2L1624.7 811.1L1626 803L1627.3 801.4L1628.7 809.1L1630 813.4L1631.3 801.5L1632.7 790.1L1634 811.4L1635.3 796.8L1636.7 802.9L1638 807.6L1639.3 793.9L1640.7 794.8L1642 806.7L1643.3 805.1L1644.7 807.4L1646 797L1647.3 789.5L1648.7 797.2L1650 800.8L1651.3 801L1652.7 803.5L1654 805.6L1655.3 800.1L1656.7 804.3L1658 -3496.5L1659.3 144.3L1660.7 667.5L1662 704.7L1663.3 777.2L1664.7 787.8L1666 789.3L1667.3 783.9L1668.7 802.7L1670 798.5L1671.3 778.9L1672.7 804.3L1674 799.9L1675.3 797.8L1676.7 802.2L1678 806.4L1679.3 793.9L1680.7 798.8L1682 804.7L1683.3 797.2L1684.7 789.3L1686 795.8L1687.3 805.8L1688.7 809.9L1690 806.8L1691.3 812L1692.7 806.9L1694 816.4L1695.3 798.9L1696.7 803.7L1698 696L1699.3 772.9L1700.7 783.5L1702 800.3L1703.3 806.9L1704.7 807.3L1706 802.3L1707.3 800.8L1708.7 801.3L1710 813.9L1711.3 793.3L1712.7 783.9L1714 801.2L1715.3 800.7L1716.7 800.4L1718 799.1L1719.3 792.6L1720.7 793.7L1722 806.9L1723.3 804L1724.7 787L1726 778.6L1727.3 791.9L1728.7 806.5L1730 807.4L1731.3 798.3L1732.7 804.7L1734 806.8L1735.3 798.6L1736.7 796L1738 -3531.9L1739.3 159.9L1740.7 646.1L1742 737.4L1743.3 764L1744.7 782.2L1746 784.1L1747.3 784L1748.7 789.4L1750 789.8L1751.3 778.2L1752.7 800.1L1754 794.4L1755.3 803.6L1756.7 805.7L1758 807.7L1759.3 797.8L1760.7 797.2L1762 813.5L1763.3 809.4L1764.7 789.9L1766 800.5L1767.3 801.2L1768.7 773.7L1770 802.5L1771.3 799.6L1772.7 808.4L1774 803.4L1775.3 798.9L1776.7 807L1778 783L1779.3 797.7L1780.7 812.4L1782 808.9L1783.3 806.5L1784.7 796.1L1786 799.3L1787.3 806L1788.7 806.9L1790 799.6L1791.3 764.9L1792.7 794L1794 808.3L1795.3 796.3L1796.7 802L1798 806.7L1799.3 808.8" fill="transparent" stroke="#3fb1e3" stroke-width="3" stroke-linejoin="bevel" class="zr36-cls-110"></path>
</g>
<g clip-path="url(#zr36-c1)">
<path d="M200.7 235.7L202 601L203.3 775.1L204.7 796.2L206 798.3L207.3 795L208.7 791.9L210 797.8L211.3 799.4L212.7 795.6L214 802.4L215.3 777.8L216.7 770.5L218 -4118.6L219.3 154.8L220.7 670.8L222 765.1L223.3 787.7L224.7 791.2L226 765.8L227.3 753.8L228.7 786L230 796.7L231.3 802.3L232.7 814.7L234 809.6L235.3 808.1L236.7 798.2L238 793.5L239.3 767L240.7 804.7L242 815.5L243.3 801L244.7 806.7L246 808.9L247.3 804.5L248.7 801.7L250 802.5L251.3 693.3L252.7 786.7L254 796.5L255.3 800.1L256.7 805.7L258 808.9L259.3 772.6L260.7 806.5L262 802.7L263.3 802.6L264.7 806.1L266 780.5L267.3 799.2L268.7 807.8L270 807.8L271.3 815L272.7 801.9L274 808.6L275.3 806.2L276.7 805.9L278 802.2L279.3 783.3L280.7 790L282 811.7L283.3 795L284.7 792.7L286 801.7L287.3 794.3L288.7 799.7L290 798.1L291.3 801.3L292.7 736L294 786L295.3 797L296.7 798.7L298 -3635.1L299.3 182.3L300.7 667.3L302 727.6L303.3 624.3L304.7 460.4L306 462.3L307.3 622.7L308.7 672.7L310 728.6L311.3 762.9L312.7 795L314 654.5L315.3 781.5L316.7 777.1L318 802.9L319.3 809.9L320.7 811.8L322 797.6L323.3 801.1L324.7 812.4L326 809.1L327.3 678.9L328.7 784.1L330 794.4L331.3 800.3L332.7 792.5L334 803L335.3 800.4L336.7 812.1L338 803.7L339.3 796.5L340.7 800.9L342 788.6L343.3 808.6L344.7 793.1L346 794.2L347.3 801.2L348.7 806.1L350 796.2L351.3 795L352.7 799.1L354 795.7L355.3 799.9L356.7 791L358 796.8L359.3 792.2L360.7 803L362 800.9L363.3 797.9L364.7 782.2L366 801.2L367.3 798L368.7 789.9L370 790.4L371.3 803.9L372.7 810.5L374 807.5L375.3 796.1L376.7 800.7L378 -3632.9L379.3 116.5L380.7 680.9L382 697.5L383.3 754L384.7 781.2L386 788.8L387.3 797.2L388.7 782.5L390 797.1L391.3 805.2L392.7 796.7L394 793.7L395.3 804.1L396.7 805.2L398 815.7L399.3 811.4L400.7 795.9L402 804.1L403.3 803.6L404.7 799.3L406 801L407.3 780.9L408.7 794.7L410 811.3L411.3 802.9L412.7 785.6L414 800.2L415.3 804.8L416.7 814.7L418 793.9L419.3 813.3L420.7 786.4L422 789.1L423.3 800.8L424.7 809.6L426 803.4L427.3 810.3L428.7 807.2L430 801.9L431.3 802.9L432.7 816.5L434 795.6L435.3 775.7L436.7 794.2L438 810.8L439.3 782.5L440.7 787.8L442 805.6L443.3 806.7L444.7 793.5L446 799.9L447.3 810.4L448.7 795.4L450 779.5L451.3 798.8L452.7 801.3L454 811.2L455.3 805.9L456.7 808.9L458 -3559.7L459.3 180.7L460.7 688.9L462 627.3L463.3 756.1L464.7 785.6L466 798.8L467.3 802.1L468.7 786.5L470 792.1L471.3 802.4L472.7 804L474 803.3L475.3 798.3L476.7 806.5L478 803.9L479.3 802.5L480.7 813.3L482 803.9L483.3 799.3L484.7 795.7L486 810.4L487.3 805.4L488.7 777.9L490 803.4L491.3 808.9L492.7 808.2L494 812.9L495.3 810.3L496.7 807.5L498 799.3L499.3 790.4L500.7 808.7L502 776.9L503.3 801.5L504.7 810.2L506 802.5L507.3 778.4L508.7 806.4L510 806.2L511.3 810.3L512.7 797.8L514 801.3L515.3 780.8L516.7 790.9L518 807.8L519.3 801.4L520.7 805.9L522 803.7L523.3 799.9L524.7 795.1L526 773.9L527.3 803L528.7 797.3L530 770.1L531.3 810.5L532.7 795.8L534 805.8L535.3 806.7L536.7 800.7L538 -3539.7L539.3 91L540.7 672.8L542 723.5L543.3 729.9L544.7 774.6L546 775.8L547.3 799.3L548.7 791.3L550 801.7L551.3 804.8L552.7 797.6L554 771.6L555.3 782.5L556.7 787.8L558 792L559.3 800.4L560.7 807.9L562 803.6L563.3 805.7L564.7 789.3L566 808.5L567.3 783L568.7 792.9L570 795.1L571.3 792.5L572.7 794.6L574 778.9L575.3 807.4L576.7 808.7L578 794.3L579.3 810.3L580.7 757.9L582 792L583.3 795.7L584.7 804.6L586 814.7L587.3 800.9L588.7 790.5L590 795.5L591.3 811.1L592.7 803.4L594 802.1L595.3 786.5L596.7 795.7L598 801.3L599.3 798.2L600.7 803L602 806.7L603.3 791.4L604.7 799.3L606 793.5L607.3 802L608.7 795.8L610 787.2L611.3 805.1L612.7 801.2L614 803.8L615.3 799L616.7 804.4L618 -3510.3L619.3 178.1L620.7 690L622 703.8L623.3 739.2L624.7 451.8L626 471L627.3 596.9L628.7 666.7L630 746.7L631.3 654.3L632.7 772.2L634 737.6L635.3 787L636.7 797.2L638 806.7L639.3 799.3L640.7 794.1L642 800.1L643.3 800.4L644.7 777.9L646 791.7L647.3 800.4L648.7 792.5L650 807.2L651.3 803L652.7 808.9L654 806.2L655.3 793L656.7 802.5L658 795.7L659.3 800.9L660.7 796.4L662 805.5L663.3 807.8L664.7 807.1L666 780.6L667.3 810.4L668.7 799.4L670 797.8L671.3 799L672.7 787L674 802.8L675.3 808.1L676.7 796.7L678 801.5L679.3 805.7L680.7 811.3L682 800L683.3 800.7L684.7 806.2L686 782.4L687.3 797.1L688.7 803.8L690 803L691.3 806.6L692.7 799.2L694 808.7L695.3 805.5L696.7 799.3L698 -3439.6L699.3 99.4L700.7 652.1L702 733.4L703.3 741.9L704.7 769.4L706 790.1L707.3 791.5L708.7 796.6L710 792.8L711.3 785.1L712.7 799.7L714 806.4L715.3 800.3L716.7 796.2L718 792.5L719.3 804L720.7 796.2L722 805.7L723.3 789.8L724.7 784L726 792L727.3 804.4L728.7 801.3L730 809.2L731.3 793.7L732.7 808.9L734 798.7L735.3 802.3L736.7 788.1L738 802.6L739.3 799.3L740.7 809.4L742 794.1L743.3 792.8L744.7 807.1L746 810L747.3 795.9L748.7 814.8L750 752.3L751.3 792L752.7 799.3L754 778.5L755.3 804.2L756.7 797.2L758 796.7L759.3 801.6L760.7 802.4L762 804.7L763.3 804.9L764.7 788.8L766 793.7L767.3 803.3L768.7 792.8L770 803.3L771.3 792.9L772.7 784.2L774 811L775.3 810L776.7 806.8L778 -3545.9L779.3 155.1L780.7 660.9L782 716.1L783.3 769.5L784.7 781.3L786 790.1L787.3 791.4L788.7 785.3L790 786.9L791.3 792.7L792.7 804.6L794 796.8L795.3 794.9L796.7 802.1L798 805.3L799.3 799.7L800.7 804.8L802 794.7L803.3 778.7L804.7 799L806 799.8L807.3 804.7L808.7 802.9L810 810.3L811.3 793.5L812.7 805.2L814 803.9L815.3 805.8L816.7 789.8L818 804.1L819.3 801.6L820.7 795.6L822 810.9L823.3 797.8L824.7 811.7L826 800.4L827.3 806.7L828.7 807.3L830 784.6L831.3 787L832.7 806.2L834 809.9L835.3 813.1L836.7 807.4L838 808.9L839.3 794.7L840.7 803.3L842 794.1L843.3 804.7L844.7 783.5L846 814.1L847.3 806.5L848.7 798.3L850 792.9L851.3 807.8L852.7 799.7L854 793.4L855.3 795.5L856.7 799.9L858 -3560.1L859.3 128.5L860.7 635.7L862 711.2L863.3 741.5L864.7 774.7L866 798L867.3 799.9L868.7 795.1L870 788.4L871.3 795.2L872.7 790.1L874 800.3L875.3 806.2L876.7 801.5L878 811.9L879.3 806.3L880.7 770.4L882 807.7L883.3 787.2L884.7 790.9L886 794.1L887.3 785.1L888.7 807L890 800.4L891.3 811L892.7 818.9L894 802.7L895.3 809.2L896.7 785.9L898 772.7L899.3 793.3L900.7 800.1L902 804.4L903.3 797.5L904.7 789.2L906 804.1L907.3 797.8L908.7 804.1L910 700L911.3 800.1L912.7 806.3L914 793.6L915.3 800L916.7 782.3L918 806.9L919.3 797.6L920.7 806.8L922 808.8L923.3 799.2L924.7 786.7L926 808.5L927.3 803.7L928.7 809.4L930 804.6L931.3 805.3L932.7 808.9L934 808.3L935.3 800.8L936.7 805L938 -3639.1L939.3 139.3L940.7 662.8L942 707.1L943.3 688.2L944.7 417.7L946 462.1L947.3 623.8L948.7 675.7L950 708.9L951.3 740.7L952.7 779.1L954 790.9L955.3 785.6L956.7 775.7L958 783.7L959.3 806.6L960.7 800.1L962 810.6L963.3 794L964.7 801.5L966 792.2L967.3 777.9L968.7 769.8L970 807.7L971.3 808.9L972.7 802.9L974 803.9L975.3 815.6L976.7 808L978 801.5L979.3 797.8L980.7 802.3L982 795.7L983.3 805.6L984.7 805.7L986 804.7L987.3 792.1L988.7 803L990 798.5L991.3 805.7L992.7 805.5L994 796L995.3 784.5L996.7 795.5L998 805.7L999.3 804.7L1000.7 803.1L1002 799.9L1003.3 804.1L1004.7 806.7L1006 772.6L1007.3 796.2L1008.7 799.7L1010 791.5L1011.3 799L1012.7 808.1L1014 808.1L1015.3 792.5L1016.7 801.6L1018 -3687L1019.3 91.7L1020.7 655.9L1022 708.4L1023.3 752.2L1024.7 776.2L1026 785.2L1027.3 804.9L1028.7 798L1030 804L1031.3 792.7L1032.7 781.5L1034 802.1L1035.3 788.6L1036.7 797.5L1038 804.6L1039.3 812.3L1040.7 814.6L1042 810.7L1043.3 803.6L1044.7 800.2L1046 795.5L1047.3 802.8L1048.7 801.5L1050 811.8L1051.3 805.4L1052.7 809.4L1054 797.7L1055.3 778.2L1056.7 782.5L1058 804L1059.3 788L1060.7 795.9L1062 809.4L1063.3 803L1064.7 816.4L1066 804.6L1067.3 802.5L1068.7 797.8L1070 794.1L1071.3 801.7L1072.7 784L1074 790.1L1075.3 798.8L1076.7 800.9L1078 812.5L1079.3 804.2L1080.7 799.9L1082 803.6L1083.3 806.6L1084.7 799.5L1086 809.5L1087.3 782.7L1088.7 797.7L1090 807.1L1091.3 804.3L1092.7 811L1094 787.9L1095.3 802.4L1096.7 805.3L1098 -3604.5L1099.3 120.1L1100.7 595.6L1102 687L1103.3 745.7L1104.7 769.8L1106 789.8L1107.3 804.3L1108.7 804.5L1110 792.9L1111.3 701.3L1112.7 779.4L1114 800.1L1115.3 807.3L1116.7 771.5L1118 798.1L1119.3 814.8L1120.7 808.6L1122 802.5L1123.3 813.7L1124.7 757.8L1126 751.1L1127.3 801L1128.7 808.7L1130 812.6L1131.3 809.5L1132.7 810.1L1134 812.5L1135.3 803.4L1136.7 814.3L1138 798.7L1139.3 776.5L1140.7 802.4L1142 813.8L1143.3 793.9L1144.7 803.2L1146 801.5L1147.3 802.5L1148.7 806.8L1150 802.4L1151.3 801.6L1152.7 721.5L1154 801.3L1155.3 796.1L1156.7 772.9L1158 808L1159.3 785.9L1160.7 805.2L1162 792L1163.3 806.5L1164.7 805.6L1166 805.4L1167.3 786.6L1168.7 805.2L1170 808.9L1171.3 804.4L1172.7 793.8L1174 805.6L1175.3 803.5L1176.7 803.3L1178 -3524.5L1179.3 94.4L1180.7 676L1182 685.3L1183.3 760.8L1184.7 784.3L1186 796.1L1187.3 794.6L1188.7 797.4L1190 797.5L1191.3 803.9L1192.7 781.6L1194 802.9L1195.3 807.5L1196.7 799L1198 809.3L1199.3 794.2L1200.7 806.7L1202 811.7L1203.3 808.1L1204.7 796.5L1206 774.7L1207.3 798.2L1208.7 807.9L1210 801.7L1211.3 810L1212.7 802.2L1214 800.9L1215.3 795.8L1216.7 814.6L1218 813.2L1219.3 785.8L1220.7 800.3L1222 808.9L1223.3 805.2L1224.7 805.8L1226 802.4L1227.3 809.6L1228.7 799.9L1230 785.2L1231.3 798.6L1232.7 805.2L1234 784.8L1235.3 796.7L1236.7 808.7L1238 806.7L1239.3 804.4L1240.7 802.7L1242 800.4L1243.3 795.6L1244.7 813.1L1246 791.8L1247.3 803.4L1248.7 799.4L1250 813L1251.3 812L1252.7 796.4L1254 804.7L1255.3 792.5L1256.7 801.4L1258 -3525.2L1259.3 164.3L1260.7 675.4L1262 713.6L1263.3 726.8L1264.7 424.6L1266 461.9L1267.3 615.2L1268.7 697.3L1270 726.2L1271.3 769.4L1272.7 790.1L1274 798.3L1275.3 803.6L1276.7 798.7L1278 812.8L1279.3 807.1L1280.7 801.1L1282 781.5L1283.3 805.7L1284.7 804.7L1286 805.3L1287.3 800.7L1288.7 804.6L1290 807.3L1291.3 808L1292.7 800.4L1294 801.7L1295.3 740.8L1296.7 788L1298 812L1299.3 809.9L1300.7 811.4L1302 807.3L1303.3 797.3L1304.7 807.2L1306 797.5L1307.3 795.6L1308.7 765L1310 803.2L1311.3 780L1312.7 803.3L1314 795.9L1315.3 802.2L1316.7 801.2L1318 815.7L1319.3 797.7L1320.7 808.6L1322 778.2L1323.3 781.4L1324.7 790.4L1326 804.1L1327.3 804.5L1328.7 810.4L1330 808.8L1331.3 782.7L1332.7 805.6L1334 809.8L1335.3 794.3L1336.7 741.8L1338 -3596.9L1339.3 145.5L1340.7 673.2L1342 746.6L1343.3 760.5L1344.7 797.2L1346 769.8L1347.3 775.2L1348.7 794.4L1350 796.4L1351.3 782.5L1352.7 808.3L1354 803.6L1355.3 809.7L1356.7 805.7L1358 807.8L1359.3 742.6L1360.7 791.8L1362 806.4L1363.3 798.3L1364.7 793.9L1366 808.9L1367.3 801.8L1368.7 807.3L1370 806.9L1371.3 813.4L1372.7 807.9L1374 789.9L1375.3 803.9L1376.7 796.5L1378 800.3L1379.3 809.8L1380.7 803.1L1382 802.6L1383.3 816.2L1384.7 789L1386 802.2L1387.3 756.6L1388.7 772.7L1390 790L1391.3 806.4L1392.7 810.3L1394 793.8L1395.3 810L1396.7 803L1398 805.1L1399.3 805.8L1400.7 813L1402 788.2L1403.3 801.8L1404.7 804L1406 794L1407.3 801L1408.7 789.6L1410 800.8L1411.3 799.9L1412.7 805.4L1414 802.2L1415.3 781.9L1416.7 787.3L1418 -3447.4L1419.3 51.3L1420.7 647.5L1422 719.6L1423.3 775.9L1424.7 790.2L1426 783.7L1427.3 786.4L1428.7 795.4L1430 771.8L1431.3 795.6L1432.7 801.5L1434 807.8L1435.3 809.6L1436.7 807.5L1438 804L1439.3 789L1440.7 794.7L1442 811.3L1443.3 807L1444.7 794.6L1446 796.1L1447.3 801L1448.7 805.6L1450 794.2L1451.3 804.8L1452.7 795.5L1454 749.5L1455.3 793.5L1456.7 806.7L1458 805.6L1459.3 807.4L1460.7 804.1L1462 806.2L1463.3 809.3L1464.7 806L1466 804.1L1467.3 806.4L1468.7 781.4L1470 791.8L1471.3 797.8L1472.7 798.6L1474 806.5L1475.3 796.5L1476.7 761.3L1478 803.3L1479.3 795.6L1480.7 799.7L1482 807.5L1483.3 789.3L1484.7 805.2L1486 807.3L1487.3 796.2L1488.7 814.9L1490 808L1491.3 806.1L1492.7 794.8L1494 796.8L1495.3 808.2L1496.7 699.1L1498 -3524L1499.3 110.5L1500.7 669.5L1502 733.9L1503.3 757.1L1504.7 777.5L1506 789.8L1507.3 795L1508.7 780.9L1510 797.8L1511.3 778.8L1512.7 806.5L1514 801.9L1515.3 799.3L1516.7 801.6L1518 803.8L1519.3 800.9L1520.7 794.8L1522 781.4L1523.3 787.2L1524.7 805.9L1526 801.4L1527.3 801.4L1528.7 804.8L1530 805.2L1531.3 797.8L1532.7 808.6L1534 804.3L1535.3 797.5L1536.7 792.1L1538 797.5L1539.3 793.8L1540.7 811.9L1542 812.6L1543.3 797.8L1544.7 817.1L1546 802.7L1547.3 809.5L1548.7 788.5L1550 802.3L1551.3 811.7L1552.7 796.6L1554 803.4L1555.3 802.1L1556.7 794.1L1558 794.7L1559.3 810.2L1560.7 803.9L1562 808.3L1563.3 778.7L1564.7 792.4L1566 798.9L1567.3 807.3L1568.7 796.8L1570 802.8L1571.3 794L1572.7 806.5L1574 805.2L1575.3 803.5L1576.7 808.4L1578 -3557.2L1579.3 132.2L1580.7 684.3L1582 708.8L1583.3 750.6L1584.7 458.3L1586 441.7L1587.3 634.1L1588.7 688.7L1590 724.7L1591.3 777.2L1592.7 773.9L1594 793.5L1595.3 786.3L1596.7 750L1598 785.7L1599.3 789L1600.7 793.3L1602 805.9L1603.3 805.7L1604.7 796.5L1606 803L1607.3 795.7L1608.7 791.3L1610 797.1L1611.3 807.1L1612.7 796.3L1614 807.5L1615.3 809.5L1616.7 810.5L1618 817.4L1619.3 801L1620.7 798.1L1622 784.9L1623.3 793L1624.7 803.5L1626 811.3L1627.3 807.1L1628.7 803.8L1630 810.6L1631.3 808.9L1632.7 800.2L1634 815.7L1635.3 768.1L1636.7 780.3L1638 798.5L1639.3 801.1L1640.7 804.5L1642 800.9L1643.3 804.1L1644.7 793.5L1646 799L1647.3 805.1L1648.7 803.3L1650 788.5L1651.3 791.7L1652.7 798.7L1654 809L1655.3 804.6L1656.7 804.2L1658 -3782.5L1659.3 99.9L1660.7 667.1L1662 688.5L1663.3 758.5L1664.7 774L1666 796.1L1667.3 801.5L1668.7 791.1L1670 794.3L1671.3 798.5L1672.7 807.8L1674 767.1L1675.3 789L1676.7 794.8L1678 808.2L1679.3 799.7L1680.7 810.6L1682 800.2L1683.3 802.2L1684.7 805.6L1686 807.2L1687.3 802.8L1688.7 789.8L1690 805.9L1691.3 805.5L1692.7 795.2L1694 800.4L1695.3 793.5L1696.7 795.4L1698 802.6L1699.3 788.4L1700.7 745.5L1702 778.2L1703.3 795.1L1704.7 797.8L1706 761.6L1707.3 805.4L1708.7 805L1710 806L1711.3 793.6L1712.7 805.7L1714 757.5L1715.3 792L1716.7 796.5L1718 807.3L1719.3 792.2L1720.7 809.9L1722 801.4L1723.3 802.9L1724.7 806.9L1726 804.1L1727.3 804.6L1728.7 721L1730 784.9L1731.3 797.1L1732.7 801.7L1734 809.7L1735.3 804.3L1736.7 764.2L1738 -3537.7L1739.3 71.4L1740.7 669.7L1742 691L1743.3 746.6L1744.7 773.6L1746 795.5L1747.3 796.4L1748.7 803.4L1750 797.8L1751.3 806.7L1752.7 785.6L1754 785.6L1755.3 799.9L1756.7 802.8L1758 808.7L1759.3 814.7L1760.7 799.9L1762 797.8L1763.3 807.7L1764.7 821.2L1766 802L1767.3 748.8L1768.7 790.6L1770 798.5L1771.3 807.2L1772.7 801.5L1774 811.4L1775.3 807.6L1776.7 806L1778 799.4L1779.3 792.9L1780.7 812.6L1782 781.1L1783.3 801.5L1784.7 806L1786 806.2L1787.3 781.9L1788.7 799.7L1790 798.3L1791.3 804.4L1792.7 798.8L1794 800.2L1795.3 734.9L1796.7 789.2L1798 807.9L1799.3 805.8" fill="transparent" stroke="#6be6c1" stroke-width="3" stroke-linejoin="bevel" class="zr36-cls-110"></path>
</g>
<g clip-path="url(#zr36-c2)">
<path d="M200.7 277.6L202 747.5L203.3 796.9L204.7 804.1L206 798.3L207.3 759.1L208.7 807.4L210 795L211.3 796.8L212.7 767.7L214 800.4L215.3 791.4L216.7 798.3L218 -4178.8L219.3 119.6L220.7 588.9L222 741.6L223.3 793.2L224.7 803L226 799.5L227.3 797.8L228.7 797L230 806.8L231.3 708L232.7 795.6L234 807.7L235.3 814L236.7 806.8L238 808.4L239.3 797.5L240.7 804L242 816.5L243.3 760.5L244.7 807.2L246 785.6L247.3 806.2L248.7 804L250 813.1L251.3 797.8L252.7 796.5L254 801.3L255.3 807.5L256.7 814.3L258 808.2L259.3 811L260.7 781.3L262 790.6L263.3 807.8L264.7 806.3L266 805.4L267.3 806.2L268.7 786.9L270 809.6L271.3 803.6L272.7 802.1L274 785L275.3 787.9L276.7 798.9L278 798.8L279.3 804.6L280.7 805.2L282 793.6L283.3 793L284.7 801L286 808.5L287.3 712.2L288.7 790.8L290 789L291.3 812.8L292.7 806.7L294 803.2L295.3 787.6L296.7 801.7L298 -3652.8L299.3 144.5L300.7 681.8L302 693L303.3 738.5L304.7 460.8L306 467L307.3 621.5L308.7 703.1L310 734.3L311.3 709.6L312.7 781.5L314 793.3L315.3 799.3L316.7 800.6L318 793.1L319.3 799.1L320.7 802.4L322 786.5L323.3 806.3L324.7 788.3L326 793.9L327.3 800.9L328.7 806.9L330 809.6L331.3 794.4L332.7 799.8L334 793.5L335.3 814.8L336.7 803.7L338 788.6L339.3 806.7L340.7 807.8L342 806.7L343.3 797.8L344.7 805.6L346 807.9L347.3 800L348.7 798.9L350 804.4L351.3 794.1L352.7 786.6L354 790.7L355.3 791.1L356.7 802.7L358 815.4L359.3 805.7L360.7 805.2L362 809.5L363.3 800.4L364.7 815.7L366 804.9L367.3 773L368.7 778.8L370 793L371.3 794.2L372.7 782.9L374 796L375.3 809.2L376.7 799.7L378 -3565L379.3 206.3L380.7 639.6L382 696.4L383.3 779.3L384.7 787.1L386 793L387.3 797.3L388.7 798.5L390 793.3L391.3 780.8L392.7 796L394 792.9L395.3 809.5L396.7 800.1L398 808.3L399.3 807.3L400.7 804.9L402 794.6L403.3 805.8L404.7 780.3L406 808.3L407.3 791.9L408.7 800.3L410 804.2L411.3 808.6L412.7 803.9L414 804.7L415.3 806.8L416.7 808L418 776.4L419.3 786.6L420.7 803.5L422 806.7L423.3 806.6L424.7 807.1L426 792L427.3 794.3L428.7 798.8L430 789.1L431.3 804.6L432.7 785.4L434 784.9L435.3 793.9L436.7 804.8L438 808.3L439.3 802.3L440.7 802.5L442 802L443.3 806.5L444.7 798.8L446 796.4L447.3 788.2L448.7 811L450 794.4L451.3 801.1L452.7 798.6L454 800.6L455.3 801L456.7 796.8L458 -3527.7L459.3 219.9L460.7 612.2L462 735.5L463.3 796.7L464.7 803L466 803L467.3 801.2L468.7 800.9L470 799.2L471.3 800.9L472.7 790.8L474 759.1L475.3 800.7L476.7 794.9L478 801.5L479.3 799.4L480.7 803.8L482 807.6L483.3 801.3L484.7 794.2L486 813.1L487.3 792L488.7 804L490 801.6L491.3 807.3L492.7 800.4L494 809.9L495.3 812.5L496.7 799.2L498 807.6L499.3 802.8L500.7 762.9L502 786.7L503.3 812L504.7 810.3L506 801.8L507.3 807.8L508.7 807.9L510 811.6L511.3 805.8L512.7 801.7L514 768L515.3 798.8L516.7 810.6L518 798.3L519.3 808.2L520.7 807.8L522 807.5L523.3 804.1L524.7 809.3L526 795.5L527.3 809.3L528.7 719.8L530 780.9L531.3 802.5L532.7 801.5L534 802.6L535.3 806.7L536.7 809.2L538 -3590L539.3 201.1L540.7 677.4L542 717.2L543.3 788.1L544.7 782.8L546 784.8L547.3 792.8L548.7 795.8L550 804L551.3 772L552.7 809.1L554 793.1L555.3 788.9L556.7 810.4L558 796.1L559.3 803L560.7 811L562 801L563.3 798.5L564.7 810.2L566 802.5L567.3 787.8L568.7 811.2L570 807.8L571.3 799.3L572.7 799.3L574 806.9L575.3 808.4L576.7 787.4L578 809.2L579.3 717.6L580.7 795.3L582 807.2L583.3 795L584.7 806.7L586 806.3L587.3 812L588.7 796.8L590 803.9L591.3 800.9L592.7 804.2L594 805L595.3 795L596.7 806.7L598 800.4L599.3 802.9L600.7 813.8L602 793.1L603.3 804.2L604.7 805.2L606 807.2L607.3 801L608.7 800.7L610 783.2L611.3 797.6L612.7 809.5L614 811.5L615.3 805.8L616.7 806.7L618 -3520.6L619.3 153.8L620.7 680.9L622 696.6L623.3 719.2L624.7 452.6L626 416.7L627.3 613.9L628.7 673.5L630 743.4L631.3 773.5L632.7 785.1L634 790.6L635.3 800.2L636.7 798.8L638 787.3L639.3 801L640.7 803.5L642 805.2L643.3 795.7L644.7 775.9L646 804.6L647.3 807.8L648.7 808L650 795.7L651.3 795.3L652.7 809.3L654 808L655.3 793.3L656.7 775.6L658 807.6L659.3 788.2L660.7 797.5L662 809.5L663.3 797.2L664.7 798.6L666 815.5L667.3 811.6L668.7 807.3L670 809.1L671.3 792.5L672.7 806.8L674 794.9L675.3 807.9L676.7 800L678 797.6L679.3 806.5L680.7 810.1L682 806.6L683.3 783.9L684.7 810.7L686 805.3L687.3 771.5L688.7 520.1L690 724.6L691.3 769.5L692.7 756.2L694 760.2L695.3 756.1L696.7 755.1L698 -4883.9L699.3 -20.1L700.7 605.3L702 738.7L703.3 778.1L704.7 787.5L706 804.9L707.3 817.3L708.7 805.8L710 790.2L711.3 808.3L712.7 803.2L714 794.9L715.3 812L716.7 808.1L718 810.4L719.3 813.1L720.7 798.3L722 804.5L723.3 789.3L724.7 796.3L726 790.3L727.3 806L728.7 815.7L730 769.3L731.3 801.8L732.7 801.5L734 805.7L735.3 804.4L736.7 780.6L738 789L739.3 805.3L740.7 808.5L742 806.9L743.3 803.6L744.7 809.5L746 803.6L747.3 802.6L748.7 806.2L750 809.2L751.3 790.2L752.7 763.1L754 800.4L755.3 809.4L756.7 802.4L758 799.9L759.3 804.1L760.7 806.9L762 811.2L763.3 804.5L764.7 804.4L766 800.6L767.3 784.8L768.7 801.6L770 799.8L771.3 801.3L772.7 793.2L774 799.9L775.3 799.8L776.7 803.6L778 -3474.9L779.3 165.9L780.7 621.6L782 728.1L783.3 777.3L784.7 778.3L786 797.4L787.3 807L788.7 804.5L790 793.8L791.3 786.5L792.7 741.4L794 802L795.3 809L796.7 801.6L798 810.7L799.3 808.7L800.7 804.5L802 811.5L803.3 822.2L804.7 803L806 785.6L807.3 800.4L808.7 808.9L810 812.1L811.3 808.3L812.7 810.9L814 802.5L815.3 811.9L816.7 811L818 794.8L819.3 695.2L820.7 795.7L822 797.9L823.3 800.6L824.7 800.9L826 807.8L827.3 800.2L828.7 809.1L830 800.9L831.3 810.4L832.7 789.6L834 794.9L835.3 806.9L836.7 813.4L838 795.6L839.3 807.2L840.7 807L842 805.5L843.3 813.6L844.7 796.5L846 803L847.3 773L848.7 799.6L850 795.8L851.3 801.5L852.7 804.4L854 816L855.3 810.9L856.7 803.7L858 -3544.9L859.3 258.4L860.7 688L862 700.1L863.3 789.1L864.7 786.9L866 797.7L867.3 776.1L868.7 792.3L870 799.1L871.3 799.3L872.7 809.1L874 772.8L875.3 804.1L876.7 809.9L878 808.9L879.3 808.6L880.7 807.7L882 807.7L883.3 807.9L884.7 809.8L886 807.6L887.3 789.8L888.7 795.2L890 806.8L891.3 810.1L892.7 807.3L894 789.4L895.3 801.8L896.7 808.7L898 812.2L899.3 795.7L900.7 723.2L902 723.3L903.3 798.7L904.7 806.2L906 804L907.3 803.9L908.7 805.8L910 804L911.3 801.6L912.7 808.2L914 808L915.3 768.7L916.7 802.7L918 807.1L919.3 803L920.7 803.5L922 805.1L923.3 813.7L924.7 802.7L926 804.2L927.3 804.8L928.7 801.4L930 777.1L931.3 793.8L932.7 803.5L934 801.7L935.3 804.8L936.7 798.3L938 -3603.3L939.3 208.4L940.7 690.7L942 716.9L943.3 745.3L944.7 434.1L946 460.2L947.3 619.3L948.7 678.5L950 740.9L951.3 691.7L952.7 774.7L954 789.2L955.3 798.3L956.7 801.5L958 795.1L959.3 801L960.7 795.7L962 793.2L963.3 774.2L964.7 801.6L966 796.3L967.3 778.1L968.7 807.7L970 799.7L971.3 795.1L972.7 805.2L974 807.9L975.3 798.3L976.7 760.7L978 802L979.3 798.8L980.7 815.5L982 786.3L983.3 804.7L984.7 809.9L986 810.4L987.3 802.9L988.7 809.9L990 749.4L991.3 787.2L992.7 797.7L994 808.7L995.3 804.4L996.7 811.4L998 808.3L999.3 804.6L1000.7 807.1L1002 810.5L1003.3 799.3L1004.7 790.6L1006 793.6L1007.3 797.3L1008.7 806.2L1010 803.8L1011.3 798.1L1012.7 795.8L1014 801L1015.3 798.1L1016.7 797L1018 -3703L1019.3 214.4L1020.7 654.9L1022 734.8L1023.3 780.7L1024.7 792.2L1026 803.6L1027.3 799.4L1028.7 769.3L1030 768.9L1031.3 791.4L1032.7 800.6L1034 801L1035.3 806.8L1036.7 796.6L1038 800.7L1039.3 792.6L1040.7 772.5L1042 769.8L1043.3 806.2L1044.7 808.9L1046 813.1L1047.3 806.7L1048.7 810.3L1050 811.1L1051.3 813L1052.7 798.6L1054 808.7L1055.3 806.2L1056.7 786.6L1058 809.3L1059.3 806.8L1060.7 801.1L1062 810.5L1063.3 800L1064.7 801.5L1066 794.5L1067.3 802.6L1068.7 810.4L1070 802.1L1071.3 781.3L1072.7 809.3L1074 805.4L1075.3 808.5L1076.7 801.9L1078 807.8L1079.3 763.5L1080.7 807.3L1082 800.5L1083.3 799.9L1084.7 783.1L1086 758.7L1087.3 805.1L1088.7 796.5L1090 797.2L1091.3 800.4L1092.7 804L1094 805.5L1095.3 807.8L1096.7 798.4L1098 -3735.7L1099.3 152.2L1100.7 670.5L1102 749.4L1103.3 790.9L1104.7 799.1L1106 797.6L1107.3 805.7L1108.7 806.9L1110 711.3L1111.3 794.2L1112.7 795.5L1114 786.6L1115.3 812.2L1116.7 805.7L1118 804.1L1119.3 801.7L1120.7 794.4L1122 801L1123.3 802.9L1124.7 793.3L1126 796.7L1127.3 809.2L1128.7 805.1L1130 788.4L1131.3 808.2L1132.7 816.3L1134 793.6L1135.3 802.3L1136.7 811.4L1138 778.4L1139.3 799.3L1140.7 774.4L1142 809.7L1143.3 790.6L1144.7 804L1146 799.2L1147.3 805.2L1148.7 803.3L1150 798.3L1151.3 726.9L1152.7 786.1L1154 772L1155.3 813.3L1156.7 792.9L1158 804.7L1159.3 802L1160.7 803.9L1162 797.5L1163.3 799.7L1164.7 803L1166 789.8L1167.3 802.2L1168.7 798.7L1170 803.2L1171.3 801.5L1172.7 807.2L1174 808.1L1175.3 805.1L1176.7 802L1178 -3468.2L1179.3 133.2L1180.7 612.9L1182 731.7L1183.3 772.4L1184.7 785.7L1186 798.7L1187.3 786.5L1188.7 796.2L1190 799.8L1191.3 763.4L1192.7 802.4L1194 793.4L1195.3 800.1L1196.7 803.7L1198 806.5L1199.3 792.5L1200.7 807.5L1202 806.3L1203.3 814L1204.7 780.4L1206 800.4L1207.3 794.9L1208.7 795L1210 806.5L1211.3 801.2L1212.7 807.5L1214 799.5L1215.3 808.5L1216.7 802.3L1218 785.7L1219.3 794.1L1220.7 792.9L1222 807.6L1223.3 787.7L1224.7 801.4L1226 807.9L1227.3 809.3L1228.7 801.9L1230 804.8L1231.3 808.4L1232.7 775.5L1234 783L1235.3 814.2L1236.7 801.5L1238 800.1L1239.3 804L1240.7 809.1L1242 802.1L1243.3 795.4L1244.7 802.5L1246 811.5L1247.3 793.2L1248.7 787.5L1250 798L1251.3 799.3L1252.7 795.7L1254 795.7L1255.3 805.7L1256.7 803.4L1258 -3542.8L1259.3 127.4L1260.7 679L1262 701.3L1263.3 765.5L1264.7 391.8L1266 458.9L1267.3 619.6L1268.7 685.3L1270 696.9L1271.3 765.2L1272.7 801.4L1274 787.9L1275.3 800.5L1276.7 803.9L1278 800.2L1279.3 806.7L1280.7 719.9L1282 781.9L1283.3 795.9L1284.7 797.5L1286 804.2L1287.3 802.2L1288.7 795.1L1290 808.9L1291.3 810.8L1292.7 801.3L1294 799.2L1295.3 788.7L1296.7 794.2L1298 795.8L1299.3 795L1300.7 794.3L1302 814.3L1303.3 803.5L1304.7 796.9L1306 807.8L1307.3 802.5L1308.7 758.7L1310 783L1311.3 798L1312.7 811.3L1314 804.3L1315.3 805.2L1316.7 803.9L1318 803L1319.3 782.9L1320.7 805.6L1322 800.4L1323.3 778.8L1324.7 782.4L1326 795.8L1327.3 810.2L1328.7 788.6L1330 806.4L1331.3 802.3L1332.7 786.9L1334 814L1335.3 798.3L1336.7 809.4L1338 -3657.2L1339.3 202.9L1340.7 658.4L1342 738.6L1343.3 787.8L1344.7 789.3L1346 791.2L1347.3 781.4L1348.7 768.2L1350 782.9L1351.3 801.1L1352.7 796.9L1354 809.4L1355.3 806.2L1356.7 804.5L1358 804.6L1359.3 782.1L1360.7 781.1L1362 791L1363.3 807.8L1364.7 812.9L1366 812.1L1367.3 804.1L1368.7 806.6L1370 799.6L1371.3 810.2L1372.7 808.3L1374 768L1375.3 795.5L1376.7 812.2L1378 808.9L1379.3 807.9L1380.7 796.2L1382 804.9L1383.3 808.1L1384.7 794.3L1386 806.5L1387.3 783.1L1388.7 789.5L1390 810.4L1391.3 804.5L1392.7 804.1L1394 809.8L1395.3 811.1L1396.7 809.9L1398 793L1399.3 804.1L1400.7 726.2L1402 788.5L1403.3 807.9L1404.7 802.5L1406 804.3L1407.3 802L1408.7 796L1410 787.6L1411.3 800.4L1412.7 796.2L1414 808.6L1415.3 788.4L1416.7 807.3L1418 -3536.7L1419.3 122.1L1420.7 618.8L1422 751.3L1423.3 772.8L1424.7 792.3L1426 800.6L1427.3 781.4L1428.7 794.9L1430 784.4L1431.3 799.9L1432.7 795.7L1434 803.4L1435.3 806.7L1436.7 803.6L1438 795.5L1439.3 768.9L1440.7 771L1442 793.5L1443.3 799.9L1444.7 799L1446 808.8L1447.3 805.6L1448.7 795L1450 806.5L1451.3 804.9L1452.7 691.9L1454 788.2L1455.3 812L1456.7 795.7L1458 808.6L1459.3 812.9L1460.7 809.8L1462 802.8L1463.3 802.8L1464.7 807.6L1466 805.7L1467.3 781.8L1468.7 785.9L1470 808.8L1471.3 808.5L1472.7 810.4L1474 795L1475.3 810.5L1476.7 793.7L1478 799.9L1479.3 803.5L1480.7 803.9L1482 789.2L1483.3 804.2L1484.7 808.7L1486 802.2L1487.3 805.9L1488.7 797.2L1490 803.1L1491.3 793.2L1492.7 805.5L1494 806.1L1495.3 785.7L1496.7 768L1498 -3582.8L1499.3 -8.2L1500.7 677.4L1502 749.5L1503.3 782.1L1504.7 796L1506 789.3L1507.3 792L1508.7 799.4L1510 800.2L1511.3 811.5L1512.7 808.8L1514 801.7L1515.3 806.1L1516.7 805L1518 802.3L1519.3 795L1520.7 800.8L1522 802.1L1523.3 797.8L1524.7 806.7L1526 806.2L1527.3 800.9L1528.7 803.6L1530 795.9L1531.3 804.3L1532.7 765.1L1534 779.4L1535.3 810.1L1536.7 815.7L1538 809.4L1539.3 804.4L1540.7 811L1542 805.4L1543.3 812.1L1544.7 797.4L1546 805.6L1547.3 783.8L1548.7 788.2L1550 800.7L1551.3 800.5L1552.7 790.1L1554 811.3L1555.3 798.7L1556.7 802.5L1558 802.7L1559.3 807.9L1560.7 808.4L1562 781.9L1563.3 788.3L1564.7 804.1L1566 798.8L1567.3 808L1568.7 807.8L1570 802.2L1571.3 802L1572.7 812.3L1574 802.2L1575.3 791.9L1576.7 798.9L1578 -3530.5L1579.3 133.4L1580.7 685.8L1582 722.7L1583.3 744.6L1584.7 456.2L1586 451.6L1587.3 623.3L1588.7 644.9L1590 719.4L1591.3 753.5L1592.7 787.4L1594 804.1L1595.3 794.5L1596.7 804.2L1598 794.9L1599.3 786.5L1600.7 796.2L1602 802.8L1603.3 806.1L1604.7 786.4L1606 803.7L1607.3 798.1L1608.7 802L1610 800.3L1611.3 785.5L1612.7 800.1L1614 789L1615.3 796.8L1616.7 804.6L1618 802.6L1619.3 810L1620.7 798L1622 798.5L1623.3 796.7L1624.7 802L1626 790.9L1627.3 799L1628.7 802.4L1630 789.5L1631.3 808L1632.7 802.2L1634 800.6L1635.3 761.1L1636.7 808.9L1638 802.8L1639.3 780.8L1640.7 806.5L1642 816.3L1643.3 814.4L1644.7 806.7L1646 807.3L1647.3 805.4L1648.7 802.1L1650 807.4L1651.3 805.8L1652.7 809.4L1654 794.9L1655.3 802.9L1656.7 788.9L1658 -3442.4L1659.3 158.5L1660.7 663.2L1662 759.8L1663.3 786.9L1664.7 791.4L1666 754.7L1667.3 803.3L1668.7 796.6L1670 805.2L1671.3 792.3L1672.7 804.4L1674 794.8L1675.3 804.7L1676.7 796.5L1678 702.8L1679.3 787.2L1680.7 794.3L1682 805.2L1683.3 808.7L1684.7 807.3L1686 806.1L1687.3 800.6L1688.7 800.1L1690 808.3L1691.3 790.2L1692.7 789.8L1694 807.5L1695.3 808L1696.7 806.3L1698 804.2L1699.3 806.2L1700.7 811L1702 815.1L1703.3 809.1L1704.7 802.1L1706 769L1707.3 775.6L1708.7 793.5L1710 796.1L1711.3 799.1L1712.7 807.8L1714 807.2L1715.3 805.4L1716.7 737.1L1718 808.1L1719.3 788.1L1720.7 800.2L1722 800.4L1723.3 796.2L1724.7 806.2L1726 802.1L1727.3 795.6L1728.7 804L1730 804.6L1731.3 802.6L1732.7 799.4L1734 776.4L1735.3 801.5L1736.7 802L1738 -3617.6L1739.3 154.4L1740.7 682.8L1742 762.1L1743.3 793.2L1744.7 765L1746 802.9L1747.3 798.7L1748.7 786.6L1750 796.7L1751.3 800.2L1752.7 794.6L1754 802.2L1755.3 808.9L1756.7 804.2L1758 795.2L1759.3 783.4L1760.7 796.9L1762 806L1763.3 805.7L1764.7 806.3L1766 801.3L1767.3 796.9L1768.7 814.1L1770 803.8L1771.3 776.1L1772.7 794.2L1774 794.8L1775.3 800.9L1776.7 800.6L1778 797.5L1779.3 808.7L1780.7 808.9L1782 789.6L1783.3 808.1L1784.7 717.4L1786 768L1787.3 798.8L1788.7 801.4L1790 806.1L1791.3 807L1792.7 806.2L1794 805.4L1795.3 805.6L1796.7 804.7L1798 803.1L1799.3 786.2" fill="transparent" stroke="#626c91" stroke-width="3" stroke-linejoin="bevel" class="zr36-cls-110"></path>
</g>
<path d="M-224 -5l447.9 0l0 28l-447.9 0Z" transform="translate(1000 5)" fill="rgb(0,0,0)" fill-opacity="0" stroke="#ccc" stroke-width="0" class="zr36-cls-108"></path>
<text dominant-baseline="central" text-anchor="middle" style="font-size:18px;font-family:sans-serif;font-weight:bold;" xml:space="preserve" y="9" transform="translate(1000 5)" fill="#666666">controlBehaviorUpdate per Tick for bench_1_every_60</text>
<defs >
<clipPath id="zr36-c0">
<path d="M198 58.5l16004 0l0 8703l-16004 0Z" fill="#000" class="zr36-cls-109"></path>
</clipPath>
<clipPath id="zr36-c1">
<path d="M198 58.5l16004 0l0 8703l-16004 0Z" fill="#000" class="zr36-cls-109"></path>
</clipPath>
<clipPath id="zr36-c2">
<path d="M198 58.5l16004 0l0 8703l-16004 0Z" fill="#000" class="zr36-cls-109"></path>
</clipPath>
</defs>
<style ><![CDATA[
.zr36-cls-108:hover {
pointer-events:none;
}
.zr36-cls-109:hover {
cursor:pointer;
fill:rgba(0,0,0,1);
}
.zr36-cls-110:hover {
cursor:pointer;
}

]]>

</style>
</svg>