<svg width="2000" height="1000" xmlns="http://www.w3.org/2000/svg" xmlns:xlink="http://www.w3.org/1999/xlink" version="1.1" baseProfile="full" viewBox="0 0 2000 1000">
<rect width="2000" height="1000" x="0" y="0" fill="rgb(252,252,252)" fill-opacity="0"></rect>
<path d="M200 930.5L1800 930.5" fill="transparent" stroke="#eeeeee" class="zr11-cls-33"></path>
<path d="M200 797.5L1800 797.5" fill="transparent" stroke="#eeeeee" class="zr11-cls-33"></path>
<path d="M200 665.5L1800 665.5" fill="transparent" stroke="#eeeeee" class="zr11-cls-33"></path>
<path d="M200 532.5L1800 532.5" fill="transparent" stroke="#eeeeee" class="zr11-cls-33"></path>
<path d="M200 399.5L1800 399.5" fill="transparent" stroke="#eeeeee" class="zr11-cls-33"></path>
<path d="M200 267.5L1800 267.5" fill="transparent" stroke="#eeeeee" class="zr11-cls-33"></path>
<path d="M200 134.5L1800 134.5" fill="transparent" stroke="#eeeeee" class="zr11-cls-33"></path>
<path d="M200 60.5L1800 60.5" fill="transparent" stroke="#eeeeee" class="zr11-cls-33"></path>
<path d="M200.5 930L200.5 60" fill="transparent" stroke="#cccccc" stroke-linecap="round" class="zr11-cls-33"></path>
<text dominant-baseline="central" text-anchor="middle" style="font-size:12px;font-family:sans-serif;" xml:space="preserve" y="-6" transform="translate(200 45)" fill="#cccccc">Min transportLinesUpdate Time (ms)</text>
<path d="M200 930.5L1800 930.5" fill="transparent" stroke="#cccccc" stroke-linecap="round" class="zr11-cls-33"></path>
<text dominant-baseline="central" text-anchor="end" style="font-size:12px;font-family:sans-serif;" transform="translate(192 930)" fill="#999999">0.000</text>
<text dominant-baseline="central" text-anchor="end" style="font-size:12px;font-family:sans-serif;" transform="translate(192 797.381)" fill="#999999">0.050</text>
<text dominant-baseline="central" text-anchor="end" style="font-size:12px;font-family:sans-serif;" transform="translate(192 664.762)" fill="#999999">0.100</text>
<text dominant-baseline="central" text-anchor="end" style="font-size:12px;font-family:sans-serif;" transform="translate(192 532.1431)" fill="#999999">0.150</text>
<text dominant-baseline="central" text-anchor="end" style="font-size:12px;font-family:sans-serif;" transform="translate(192 399.5241)" fill="#999999">0.200</text>
<text dominant-baseline="central" text-anchor="end" style="font-size:12px;font-family:sans-serif;" transform="translate(192 266.9051)" fill="#999999">0.250</text>
<text dominant-baseline="central" text-anchor="end" style="font-size:12px;font-family:sans-serif;" transform="translate(192 134.2861)" fill="#999999">0.300</text>
<text dominant-baseline="central" text-anchor="end" style="font-size:12px;font-family:sans-serif;" transform="translate(192 60)" fill="#999999">0.328</text>
<text dominant-baseline="central" text-anchor="middle" style="font-size:12px;font-family:sans-serif;" y="6" transform="translate(200.6667 938)" fill="#999999">0</text>
<text dominant-baseline="central" text-anchor="middle" style="font-size:12px;font-family:sans-serif;" y="6" transform="translate(236.6667 938)" fill="#999999">27</text>
<text dominant-baseline="central" text-anchor="middle" style="font-size:12px;font-family:sans-serif;" y="6" transform="translate(272.6667 938)" fill="#999999">54</text>
<text dominant-baseline="central" text-anchor="middle" style="font-size:12px;font-family:sans-serif;" y="6" transform="translate(308.6667 938)" fill="#999999">81</text>
<text dominant-baseline="central" text-anchor="middle" style="font-size:12px;font-family:sans-serif;" y="6" transform="translate(344.6667 938)" fill="#999999">108</text>
<text dominant-baseline="central" text-anchor="middle" style="font-size:12px;font-family:sans-serif;" y="6" transform="translate(380.6667 938)" fill="#999999">135</text>
<text dominant-baseline="central" text-anchor="middle" style="font-size:12px;font-family:sans-serif;" y="6" transform="translate(416.6667 938)" fill="#999999">162</text>
<text dominant-baseline="central" text-anchor="middle" style="font-size:12px;font-family:sans-serif;" y="6" transform="translate(452.6667 938)" fill="#999999">189</text>
<text dominant-baseline="central" text-anchor="middle" style="font-size:12px;font-family:sans-serif;" y="6" transform="translate(488.6667 938)" fill="#999999">216</text>
<text dominant-baseline="central" text-anchor="middle" style="font-size:12px;font-family:sans-serif;" y="6" transform="translate(524.6667 938)" fill="#999999">243</text>
<text dominant-baseline="central" text-anchor="middle" style="font-size:12px;font-family:sans-serif;" y="6" transform="translate(560.6667 938)" fill="#999999">270</text>
<text dominant-baseline="central" text-anchor="middle" style="font-size:12px;font-family:sans-serif;" y="6" transform="translate(596.6667 938)" fill="#999999">297</text>
<text dominant-baseline="central" text-anchor="middle" style="font-size:12px;font-family:sans-serif;" y="6" transform="translate(632.6667 938)" fill="#999999">324</text>
<text dominant-baseline="central" text-anchor="middle" style="font-size:12px;font-family:sans-serif;" y="6" transform="translate(668.6667 938)" fill="#999999">351</text>
<text dominant-baseline="central" text-anchor="middle" style="font-size:12px;font-family:sans-serif;" y="6" transform="translate(704.6667 938)" fill="#999999">378</text>
<text dominant-baseline="central" text-anchor="middle" style="font-size:12px;font-family:sans-serif;" y="6" transform="translate(740.6667 938)" fill="#999999">405</text>
<text dominant-baseline="central" text-anchor="middle" style="font-size:12px;font-family:sans-serif;" y="6" transform="translate(776.6667 938)" fill="#999999">432</text>
<text dominant-baseline="central" text-anchor="middle" style="font-size:12px;font-family:sans-serif;" y="6" transform="translate(812.6667 938)" fill="#999999">459</text>
<text dominant-baseline="central" text-anchor="middle" style="font-size:12px;font-family:sans-serif;" y="6" transform="translate(848.6667 938)" fill="#999999">486</text>
<text dominant-baseline="central" text-anchor="middle" style="font-size:12px;font-family:sans-serif;" y="6" transform="translate(884.6667 938)" fill="#999999">513</text>
<text dominant-baseline="central" text-anchor="middle" style="font-size:12px;font-family:sans-serif;" y="6" transform="translate(920.6667 938)" fill="#999999">540</text>
<text dominant-baseline="central" text-anchor="middle" style="font-size:12px;font-family:sans-serif;" y="6" transform="translate(956.6667 938)" fill="#999999">567</text>
<text dominant-baseline="central" text-anchor="middle" style="font-size:12px;font-family:sans-serif;" y="6" transform="translate(992.6667 938)" fill="#999999">594</text>
<text dominant-baseline="central" text-anchor="middle" style="font-size:12px;font-family:sans-serif;" y="6" transform="translate(1028.6667 938)" fill="#999999">621</text>
<text dominant-baseline="central" text-anchor="middle" style="font-size:12px;font-family:sans-serif;" y="6" transform="translate(1064.6667 938)" fill="#999999">648</text>
<text dominant-baseline="central" text-anchor="middle" style="font-size:12px;font-family:sans-serif;" y="6" transform="translate(1100.6667 938)" fill="#999999">675</text>
<text dominant-baseline="central" text-anchor="middle" style="font-size:12px;font-family:sans-serif;" y="6" transform="translate(1136.6667 938)" fill="#999999">702</text>
<text dominant-baseline="central" text-anchor="middle" style="font-size:12px;font-family:sans-serif;" y="6" transform="translate(1172.6667 938)" fill="#999999">729</text>
<text dominant-baseline="central" text-anchor="middle" style="font-size:12px;font-family:sans-serif;" y="6" transform="translate(1208.6667 938)" fill="#999999">756</text>
<text dominant-baseline="central" text-anchor="middle" style="font-size:12px;font-family:sans-serif;" y="6" transform="translate(1244.6667 938)" fill="#999999">783</text>
<text dominant-baseline="central" text-anchor="middle" style="font-size:12px;font-family:sans-serif;" y="6" transform="translate(1280.6667 938)" fill="#999999">810</text>
<text dominant-baseline="central" text-anchor="middle" style="font-size:12px;font-family:sans-serif;" y="6" transform="translate(1316.6667 938)" fill="#999999">837</text>
<text dominant-baseline="central" text-anchor="middle" style="font-size:12px;font-family:sans-serif;" y="6" transform="translate(1352.6667 938)" fill="#999999">864</text>
<text dominant-baseline="central" text-anchor="middle" style="font-size:12px;font-family:sans-serif;" y="6" transform="translate(1388.6667 938)" fill="#999999">891</text>
<text dominant-baseline="central" text-anchor="middle" style="font-size:12px;font-family:sans-serif;" y="6" transform="translate(1424.6667 938)" fill="#999999">918</text>
<text dominant-baseline="central" text-anchor="middle" style="font-size:12px;font-family:sans-serif;" y="6" transform="translate(1460.6667 938)" fill="#999999">945</text>
<text dominant-baseline="central" text-anchor="middle" style="font-size:12px;font-family:sans-serif;" y="6" transform="translate(1496.6667 938)" fill="#999999">972</text>
<text dominant-baseline="central" text-anchor="middle" style="font-size:12px;font-family:sans-serif;" y="6" transform="translate(1532.6667 938)" fill="#999999">999</text>
<text dominant-baseline="central" text-anchor="middle" style="font-size:12px;font-family:sans-serif;" y="6" transform="translate(1568.6667 938)" fill="#999999">1026</text>
<text dominant-baseline="central" text-anchor="middle" style="font-size:12px;font-family:sans-serif;" y="6" transform="translate(1604.6667 938)" fill="#999999">1053</text>
<text dominant-baseline="central" text-anchor="middle" style="font-size:12px;font-family:sans-serif;" y="6" transform="translate(1640.6667 938)" fill="#999999">1080</text>
<text dominant-baseline="central" text-anchor="middle" style="font-size:12px;font-family:sans-serif;" y="6" transform="translate(1676.6667 938)" fill="#999999">1107</text>
<text dominant-baseline="central" text-anchor="middle" style="font-size:12px;font-family:sans-serif;" y="6" transform="translate(1712.6667 938)" fill="#999999">1134</text>
<text dominant-baseline="central" text-anchor="middle" style="font-size:12px;font-family:sans-serif;" y="6" transform="translate(1748.6667 938)" fill="#999999">1161</text>
<text dominant-baseline="central" text-anchor="middle" style="font-size:12px;font-family:sans-serif;" y="6" transform="translate(1784.6667 938)" fill="#999999">1188</text>
<g clip-path="url(#zr11-c0)">
<path d="M200.7 -183.5L202 111.7L203.3 71.2L204.7 679.4L206 513.8L207.3 27.7L208.7 735.6L210 665L211.3 705.6L212.7 618.1L214 724.2L215.3 604L216.7 706.7L218 616.8L219.3 704.5L220.7 614.6L222 725.2L223.3 647L224.7 727.9L226 645.1L227.3 662.4L228.7 621.3L230 734.3L231.3 644.1L232.7 727.4L234 663.2L235.3 748.6L236.7 679.9L238 741.7L239.3 600.6L240.7 740.6L242 666.1L243.3 725.2L244.7 636.4L246 694.2L247.3 623.1L248.7 702.7L250 687.3L251.3 743.8L252.7 713.6L254 758.9L255.3 725.2L256.7 768.7L258 706.7L259.3 738L260.7 678.8L262 760L263.3 688.6L264.7 748.3L266 727.6L267.3 711.2L268.7 696.1L270 718.3L271.3 695.8L272.7 723.1L274 740.1L275.3 775.4L276.7 764.5L278 760L279.3 745.7L280.7 775.9L282 733.7L283.3 768.2L284.7 711.2L286 740.1L287.3 698.7L288.7 752.3L290 748.8L291.3 754.1L292.7 718.1L294 786.2L295.3 765.6L296.7 791.5L298 775.9L299.3 782L300.7 786.2L302 781.5L303.3 740.1L304.7 741.4L306 792.6L307.3 744.3L308.7 774.6L310 773.8L311.3 753.9L312.7 742.5L314 -420.1L315.3 287.1L316.7 153.6L318 437.5L319.3 168.5L320.7 553.1L322 244.9L323.3 554.2L324.7 160.5L326 512L327.3 202.2L328.7 547.8L330 199L331.3 561.8L332.7 207.8L334 482.5L335.3 190L336.7 542L338 220.5L339.3 582L340.7 266.1L342 595.8L343.3 320.7L344.7 531.1L346 192.4L347.3 514.9L348.7 243L350 551.5L351.3 265.8L352.7 577.8L354 245.7L355.3 531.3L356.7 228.7L358 544.3L359.3 275.1L360.7 562.1L362 380.7L363.3 618.1L364.7 386.8L366 527.6L367.3 243.8L368.7 501.6L370 304L371.3 529.5L372.7 385.7L374 553.1L375.3 402.7L376.7 489.7L378 291L379.3 534.8L380.7 317.3L382 517.6L383.3 378L384.7 593.9L386 400.9L387.3 547.8L388.7 323.9L390 568.7L391.3 388.9L392.7 553.9L394 352.8L395.3 544.3L396.7 370.9L398 496.9L399.3 285.5L400.7 542.8L402 439.8L403.3 579.6L404.7 474.6L406 550.2L407.3 477.2L408.7 545.1L410 414.6L411.3 546.2L412.7 413.8L414 548.9L415.3 464.5L416.7 584.1L418 488.6L419.3 465.3L420.7 417.3L422 580.9L423.3 481.7L424.7 554.4L426 525.2L427.3 593.4L428.7 497.4L430 560.3L431.3 434L432.7 592.6L434 459.7L435.3 548.1L436.7 473L438 548.6L439.3 506.7L440.7 499.8L442 481L443.3 538.2L444.7 550.4L446 546.2L447.3 580.4L448.7 581.2L450 586L451.3 540.9L452.7 536.7L454 544.1L455.3 550.4L456.7 576.4L458 614.6L459.3 557.6L460.7 588.9L462 534.8L463.3 535.1L464.7 582.3L466 601.4L467.3 566.4L468.7 608.8L470 577.2L471.3 623.7L472.7 588.1L474 548.3L475.3 531.9L476.7 545.4L478 531.9L479.3 604L480.7 602.7L482 589.7L483.3 554.4L484.7 619.1L486 551.5L487.3 643.8L488.7 605.3L490 695.5L491.3 606.7L492.7 701.9L494 534.5L495.3 643.8L496.7 538.8L498 660.5L499.3 587.6L500.7 720.7L502 590.2L503.3 663.4L504.7 553.9L506 682.3L507.3 545.7L508.7 717.5L510 602.7L511.3 682.5L512.7 632.4L514 710.9L515.3 566.9L516.7 639L518 588.4L519.3 693.7L520.7 420.5L522 331.9L523.3 291.3L524.7 684.7L526 480.7L527.3 60.8L528.7 721L530 652.8L531.3 721.8L532.7 645.1L534 714.9L535.3 659.7L536.7 701.1L538 651.8L539.3 685.2L540.7 632.4L542 712.2L543.3 619.7L544.7 730.5L546 627.4L547.3 648.1L548.7 609.3L550 737.7L551.3 660L552.7 723.9L554 678L555.3 740.4L556.7 677.8L558 712.2L559.3 633.2L560.7 718.9L562 658.7L563.3 706.7L564.7 669.5L566 744.3L567.3 663.7L568.7 711.2L570 687.8L571.3 732.1L572.7 690.5L574 720.5L575.3 698.2L576.7 740.9L578 721.5L579.3 736.9L580.7 711.4L582 718.3L583.3 709.3L584.7 747L586 743.5L587.3 731.1L588.7 704.3L590 730.8L591.3 715.7L592.7 749.1L594 739.8L595.3 744.1L596.7 764.2L598 753.4L599.3 719.1L600.7 735.3L602 732.1L603.3 765.3L604.7 754.1L606 786.8L607.3 733.5L608.7 735.6L610 757.3L611.3 721.3L612.7 754.1L614 754.4L615.3 784.1L616.7 783.6L618 776.2L619.3 814.6L620.7 755.2L622 779.9L623.3 733.7L624.7 752.8L626 758.7L627.3 793.1L628.7 786.5L630 798.2L631.3 763.2L632.7 748.3L634 -421.9L635.3 275.9L636.7 106.4L638 515.7L639.3 182.3L640.7 506.4L642 228.4L643.3 554.7L644.7 191.8L646 519.1L647.3 143L648.7 518.4L650 227.9L651.3 562.6L652.7 285.2L654 493.7L655.3 133.5L656.7 553.6L658 251.5L659.3 546.5L660.7 283.1L662 635.1L663.3 328.4L664.7 565L666 169.6L667.3 509.6L668.7 241.4L670 547L671.3 292.1L672.7 577.5L674 266.1L675.3 489.4L676.7 248.6L678 478.6L679.3 230.3L680.7 572.5L682 374.1L683.3 571.7L684.7 372.2L686 513.8L687.3 273.8L688.7 500L690 312.3L691.3 490.2L692.7 318.9L694 544.6L695.3 374.1L696.7 484.1L698 298.7L699.3 565.6L700.7 337.7L702 594.7L703.3 420.5L704.7 604.3L706 431.4L707.3 561.3L708.7 309.6L710 543.5L711.3 342.8L712.7 561.6L714 379.9L715.3 563.2L716.7 376.2L718 512.8L719.3 348.1L720.7 528.4L722 461.6L723.3 574.8L724.7 459.5L726 611.2L727.3 442.2L728.7 517L730 393.2L731.3 548.9L732.7 408L734 532.7L735.3 484.4L736.7 592.1L738 476.2L739.3 466.6L740.7 407.2L742 556.8L743.3 507.2L744.7 555L746 500.6L747.3 582.5L748.7 544.6L750 562.9L751.3 438L752.7 524.2L754 453.6L755.3 582.5L756.7 517L758 569L759.3 485.2L760.7 477.2L762 475.9L763.3 476.7L764.7 487.6L766 545.1L767.3 593.1L768.7 591.3L770 570.1L771.3 540.1L772.7 495.3L774 532.9L775.3 506.7L776.7 558.4L778 564L779.3 568.7L780.7 586L782 495.3L783.3 552.3L784.7 552.8L786 591.3L787.3 594.5L788.7 613L790 596.9L791.3 612L792.7 582.3L794 585.2L795.3 577.5L796.7 566.9L798 599.2L799.3 604.8L800.7 612L802 617.3L803.3 483.6L804.7 617L806 525.2L807.3 639L808.7 613.3L810 673L811.3 587L812.7 655.2L814 568L815.3 640.9L816.7 599.2L818 612L819.3 535.3L820.7 643.8L822 591.8L823.3 678.8L824.7 540.9L826 668.5L827.3 568.7L828.7 693.9L830 601.1L831.3 671.4L832.7 640.6L834 726.6L835.3 581.5L836.7 670.3L838 604.6L839.3 665L840.7 466.9L842 381.8L843.3 256.6L844.7 669.8L846 506.4L847.3 35.9L848.7 684.7L850 641.4L851.3 745.7L852.7 619.1L854 724.7L855.3 617.8L856.7 705.3L858 595.8L859.3 685.5L860.7 606.7L862 693.1L863.3 642L864.7 730L866 635.1L867.3 705.3L868.7 621.3L870 726.8L871.3 666.6L872.7 706.7L874 654.7L875.3 744.9L876.7 703.2L878 747.5L879.3 625L880.7 721.8L882 666.1L883.3 704.3L884.7 652.8L886 767.1L887.3 672.5L888.7 706.4L890 646.5L891.3 709.3L892.7 656.8L894 765.3L895.3 669.8L896.7 747L898 729.5L899.3 743.3L900.7 681.5L902 745.7L903.3 683.1L904.7 721.3L906 711.4L907.3 735.6L908.7 701.4L910 723.1L911.3 690L912.7 739.3L914 744.3L915.3 749.6L916.7 753.4L918 774.8L919.3 758.4L920.7 715.2L922 736.9L923.3 805.1L924.7 752L926 738.2L927.3 743.5L928.7 761L930 735.6L931.3 709.9L932.7 752.8L934 790L935.3 736.9L936.7 787.8L938 791L939.3 778.8L940.7 800.6L942 771.7L943.3 762.9L944.7 764.8L946 750.4L947.3 786.8L948.7 780.1L950 761.8L951.3 745.4L952.7 722.8L954 -371L955.3 210.7L956.7 53.9L958 466.9L959.3 221.5L960.7 529.8L962 200.9L963.3 544.3L964.7 179.1L966 435.1L967.3 58.4L968.7 504L970 207.2L971.3 558.4L972.7 261.6L974 482.8L975.3 127.4L976.7 497.4L978 196.9L979.3 502.2L980.7 228.2L982 571.1L983.3 234L984.7 501.9L986 166.9L987.3 506.7L988.7 184.7L990 515.2L991.3 264.8L992.7 564.2L994 231.1L995.3 539.8L996.7 216L998 536.9L999.3 312.3L1000.7 598.5L1002 371.7L1003.3 553.6L1004.7 354.7L1006 511.5L1007.3 257.4L1008.7 507.7L1010 293.2L1011.3 522.9L1012.7 382.3L1014 547.3L1015.3 351.3L1016.7 492.9L1018 236.9L1019.3 544.3L1020.7 320.7L1022 539L1023.3 400.3L1024.7 596.9L1026 384.9L1027.3 484.7L1028.7 310.9L1030 573.8L1031.3 324.2L1032.7 554.4L1034 378L1035.3 564L1036.7 403L1038 537.4L1039.3 343.3L1040.7 545.7L1042 433.7L1043.3 507.2L1044.7 409.9L1046 548.3L1047.3 440.6L1048.7 533.2L1050 381L1051.3 526L1052.7 416L1054 536.4L1055.3 493.7L1056.7 556.8L1058 465.6L1059.3 483.3L1060.7 396.1L1062 563.7L1063.3 469.3L1064.7 548.6L1066 500.3L1067.3 576.4L1068.7 523.7L1070 587L1071.3 453.4L1072.7 553.6L1074 517.6L1075.3 574.6L1076.7 453.4L1078 583.1L1079.3 466.6L1080.7 497.7L1082 495.8L1083.3 558.9L1084.7 565L1086 575.6L1087.3 564.2L1088.7 589.7L1090 580.4L1091.3 584.1L1092.7 573.8L1094 571.9L1095.3 557.6L1096.7 581.5L1098 588.1L1099.3 606.9L1100.7 578.3L1102 440.6L1103.3 512.3L1104.7 530.3L1106 575.6L1107.3 586L1108.7 630.8L1110 613L1111.3 652L1112.7 538.8L1114 563.4L1115.3 566.4L1116.7 601.6L1118 580.9L1119.3 623.7L1120.7 610.7L1122 596.3L1123.3 552L1124.7 590.8L1126 535.9L1127.3 675.1L1128.7 592.9L1130 662.6L1131.3 577.2L1132.7 681.5L1134 544.9L1135.3 608.5L1136.7 542.5L1138 650.7L1139.3 559.7L1140.7 655.5L1142 571.7L1143.3 679.6L1144.7 543L1146 651.2L1147.3 539.3L1148.7 695.5L1150 589.4L1151.3 711.4L1152.7 591.8L1154 704.8L1155.3 573L1156.7 674.3L1158 573.8L1159.3 677L1160.7 468.8L1162 374.1L1163.3 300.3L1164.7 704.5L1166 499.3L1167.3 47.8L1168.7 706.4L1170 573.5L1171.3 727.1L1172.7 621.5L1174 748.6L1175.3 594.7L1176.7 717.3L1178 585.5L1179.3 719.1L1180.7 645.1L1182 702.4L1183.3 642L1184.7 734L1186 561.8L1187.3 677.2L1188.7 614.1L1190 731.6L1191.3 588.9L1192.7 749.6L1194 693.9L1195.3 733.5L1196.7 700.6L1198 724.4L1199.3 631.1L1200.7 735.1L1202 670.1L1203.3 729.7L1204.7 659.2L1206 731.3L1207.3 678L1208.7 722.6L1210 676.2L1211.3 724.2L1212.7 705.3L1214 712.5L1215.3 703.8L1216.7 783.3L1218 714.4L1219.3 738.5L1220.7 700L1222 791.8L1223.3 664.5L1224.7 701.1L1226 725L1227.3 781.5L1228.7 696.3L1230 721.8L1231.3 704.3L1232.7 759.5L1234 740.4L1235.3 749.1L1236.7 743L1238 767.1L1239.3 747.5L1240.7 729.2L1242 698.4L1243.3 723.1L1244.7 721.8L1246 747.5L1247.3 732.1L1248.7 769.3L1250 747L1251.3 748.8L1252.7 734.3L1254 772.7L1255.3 750.2L1256.7 776.4L1258 767.7L1259.3 751.2L1260.7 771.7L1262 748.3L1263.3 716.2L1264.7 764.2L1266 738L1267.3 722.8L1268.7 778.5L1270 765.3L1271.3 770.6L1272.7 735.8L1274 -407.9L1275.3 302.4L1276.7 43L1278 433.7L1279.3 192.9L1280.7 564.2L1282 234.8L1283.3 455.5L1284.7 94.8L1286 494.7L1287.3 116.8L1288.7 527.6L1290 209.1L1291.3 557.1L1292.7 257.4L1294 529L1295.3 141.7L1296.7 548.6L1298 236.1L1299.3 579.4L1300.7 270.9L1302 593.9L1303.3 279.6L1304.7 523.7L1306 164L1307.3 552L1308.7 263.7L1310 584.4L1311.3 233.2L1312.7 561.1L1314 279.6L1315.3 493.4L1316.7 230L1318 577.5L1319.3 250.7L1320.7 555.7L1322 366.6L1323.3 563.7L1324.7 299.5L1326 514.9L1327.3 262.7L1328.7 500.3L1330 295L1331.3 538.8L1332.7 362.4L1334 567.7L1335.3 392.4L1336.7 484.9L1338 303.2L1339.3 570.3L1340.7 370.3L1342 529.8L1343.3 429.2L1344.7 579.6L1346 421.5L1347.3 572.7L1348.7 302.4L1350 519.4L1351.3 353.4L1352.7 570.1L1354 422.3L1355.3 595L1356.7 385.2L1358 549.4L1359.3 357.6L1360.7 534.5L1362 435.1L1363.3 576.4L1364.7 478.3L1366 575.4L1367.3 495.5L1368.7 563.7L1370 471.4L1371.3 565.3L1372.7 386.8L1374 546.5L1375.3 464L1376.7 598.2L1378 424.2L1379.3 520.7L1380.7 408.3L1382 556L1383.3 383.1L1384.7 569.5L1386 517L1387.3 585.2L1388.7 524.5L1390 568.2L1391.3 400.9L1392.7 566.6L1394 463.4L1395.3 578.3L1396.7 493.2L1398 589.7L1399.3 514.6L1400.7 578L1402 475.6L1403.3 512.3L1404.7 513L1406 540.1L1407.3 589.7L1408.7 611.2L1410 533.7L1411.3 575.4L1412.7 528.2L1414 544.1L1415.3 456.8L1416.7 564.8L1418 588.9L1419.3 557.3L1420.7 581.2L1422 495L1423.3 498.5L1424.7 579.6L1426 556.3L1427.3 576.4L1428.7 577L1430 608.8L1431.3 608.8L1432.7 550.7L1434 537.7L1435.3 552.3L1436.7 619.4L1438 586.8L1439.3 624.7L1440.7 623.1L1442 590L1443.3 560.8L1444.7 602.7L1446 557.3L1447.3 606.7L1448.7 544.6L1450 695.5L1451.3 570.3L1452.7 669L1454 526.6L1455.3 616.2L1456.7 532.4L1458 665.3L1459.3 569.5L1460.7 666.6L1462 574.8L1463.3 665.3L1464.7 532.9L1466 653.1L1467.3 559.5L1468.7 699.2L1470 585.7L1471.3 693.9L1472.7 607.2L1474 730.5L1475.3 590.2L1476.7 667.9L1478 579.6L1479.3 646.7L1480.7 409.6L1482 382.3L1483.3 252.8L1484.7 652.6L1486 503.8L1487.3 116L1488.7 717L1490 637.2L1491.3 687.8L1492.7 610.1L1494 749.6L1495.3 621.3L1496.7 713.6L1498 577L1499.3 699.2L1500.7 601.9L1502 681.5L1503.3 620.2L1504.7 721L1506 619.1L1507.3 700.3L1508.7 596.3L1510 708.3L1511.3 615.2L1512.7 733.5L1514 668.2L1515.3 721.3L1516.7 618.3L1518 716L1519.3 604.3L1520.7 730.8L1522 666.6L1523.3 699.5L1524.7 679.1L1526 757.9L1527.3 614.1L1528.7 705.3L1530 609.9L1531.3 746.2L1532.7 684.7L1534 749.1L1535.3 691.6L1536.7 754.9L1538 692.1L1539.3 732.7L1540.7 668.7L1542 735.3L1543.3 678.6L1544.7 716.7L1546 677.5L1547.3 733.2L1548.7 717.8L1550 708.5L1551.3 708.8L1552.7 745.7L1554 707.2L1555.3 763.7L1556.7 782L1558 752L1559.3 722.3L1560.7 750.7L1562 712.2L1563.3 745.4L1564.7 742.5L1566 754.4L1567.3 710.1L1568.7 773L1570 743.3L1571.3 723.9L1572.7 753.1L1574 764.2L1575.3 738L1576.7 777.2L1578 768.2L1579.3 769.3L1580.7 751.2L1582 763.2L1583.3 760.8L1584.7 758.7L1586 742.5L1587.3 789.7L1588.7 766.1L1590 787.8L1591.3 765.6L1592.7 747L1594 -365.7L1595.3 269.3L1596.7 59L1598 502.7L1599.3 177.8L1600.7 513L1602 244.9L1603.3 513L1604.7 186.3L1606 515.7L1607.3 197.7L1608.7 545.4L1610 251.3L1611.3 531.1L1612.7 294.8L1614 518.9L1615.3 96.6L1616.7 539L1618 175.9L1619.3 574.3L1620.7 284.7L1622 548.9L1623.3 258.4L1624.7 535.6L1626 194.8L1627.3 461.9L1628.7 148.1L1630 521.3L1631.3 225L1632.7 559.5L1634 261.1L1635.3 474.3L1636.7 183.6L1638 495.5L1639.3 271.7L1640.7 546.5L1642 348.3L1643.3 587L1644.7 356.8L1646 547L1647.3 204.6L1648.7 531.3L1650 254.4L1651.3 503L1652.7 361.6L1654 548.9L1655.3 363.7L1656.7 496.3L1658 286.8L1659.3 447.5L1660.7 326.6L1662 561.3L1663.3 407.7L1664.7 575.1L1666 411.5L1667.3 497.4L1668.7 320L1670 575.9L1671.3 314.9L1672.7 546.7L1674 376.2L1675.3 605.9L1676.7 370.3L1678 531.9L1679.3 332.2L1680.7 546.5L1682 480.2L1683.3 578.8L1684.7 498.5L1686 582.5L1687.3 510.1L1688.7 539.6L1690 429.8L1691.3 541.2L1692.7 465.3L1694 586L1695.3 438.8L1696.7 576.4L1698 533.7L1699.3 497.7L1700.7 406.7L1702 575.1L1703.3 491.8L1704.7 574.1L1706 486.5L1707.3 567.2L1708.7 534.8L1710 553.9L1711.3 382.5L1712.7 558.1L1714 434.8L1715.3 548.1L1716.7 536.1L1718 534.5L1719.3 434.5L1720.7 533.5L1722 509.3L1723.3 485.2L1724.7 554.2L1726 547L1727.3 579.1L1728.7 583.3L1730 587.6L1731.3 524.5L1732.7 493.9L1734 527.1L1735.3 540.4L1736.7 561.3L1738 589.2L1739.3 548.1L1740.7 592.6L1742 496.6L1743.3 574.8L1744.7 566.9L1746 597.9L1747.3 570.9L1748.7 605.9L1750 533.5L1751.3 603.2L1752.7 539L1754 551.2L1755.3 563.7L1756.7 605.3L1758 593.4L1759.3 599L1760.7 613.6L1762 614.1L1763.3 533.2L1764.7 594.7L1766 556.8L1767.3 673.2L1768.7 597.9L1770 696.6L1771.3 601.4L1772.7 704.5L1774 541.4L1775.3 646.7L1776.7 548.6L1778 672.5L1779.3 568.7L1780.7 674.3L1782 590.2L1783.3 674.8L1784.7 534.5L1786 641.4L1787.3 553.6L1788.7 721.8L1790 598.5L1791.3 703.2L1792.7 579.6L1794 719.4L1795.3 549.4L1796.7 642L1798 550.7L1799.3 677.8" fill="transparent" stroke="#3fb1e3" stroke-width="3" stroke-linejoin="bevel" class="zr11-cls-35"></path>
</g>
<path d="M-320.9 -5l641.8 0l0 28l-641.8 0Z" transform="translate(1000 5)" fill="rgb(0,0,0)" fill-opacity="0" stroke="#ccc" stroke-width="0" class="zr11-cls-33"></path>
<text dominant-baseline="central" text-anchor="middle" style="font-size:18px;font-family:sans-serif;font-weight:bold;" xml:space="preserve" y="9" transform="translate(1000 5)" fill="#666666">Min transportLinesUpdate per Tick for bench_4_every_240_staggered_reverse</text>
<defs >
<clipPath id="zr11-c0">
<path d="M198 58.5l16004 0l0 8703l-16004 0Z" fill="#000" class="zr11-cls-34"></path>
</clipPath>
</defs>
<style ><![CDATA[
.zr11-cls-33:hover {
pointer-events:none;
}
.zr11-cls-34:hover {
cursor:pointer;
fill:rgba(0,0,0,1);
}
.zr11-cls-35:hover {
cursor:pointer;
}

]]>

</style>
</svg>