<svg width="2000" height="1000" xmlns="http://www.w3.org/2000/svg" xmlns:xlink="http://www.w3.org/1999/xlink" version="1.1" baseProfile="full" viewBox="0 0 2000 1000">
<rect width="2000" height="1000" x="0" y="0" fill="rgb(252,252,252)" fill-opacity="0"></rect>
<path d="M200 930.5L1800 930.5" fill="transparent" stroke="#eeeeee" class="zr17-cls-51"></path>
<path d="M200 772.5L1800 772.5" fill="transparent" stroke="#eeeeee" class="zr17-cls-51"></path>
<path d="M200 614.5L1800 614.5" fill="transparent" stroke="#eeeeee" class="zr17-cls-51"></path>
<path d="M200 457.5L1800 457.5" fill="transparent" stroke="#eeeeee" class="zr17-cls-51"></path>
<path d="M200 299.5L1800 299.5" fill="transparent" stroke="#eeeeee" class="zr17-cls-51"></path>
<path d="M200 141.5L1800 141.5" fill="transparent" stroke="#eeeeee" class="zr17-cls-51"></path>
<path d="M200 60.5L1800 60.5" fill="transparent" stroke="#eeeeee" class="zr17-cls-51"></path>
<path d="M200.5 930L200.5 60" fill="transparent" stroke="#cccccc" stroke-linecap="round" class="zr17-cls-51"></path>
<text dominant-baseline="central" text-anchor="middle" style="font-size:12px;font-family:sans-serif;" xml:space="preserve" y="-6" transform="translate(200 45)" fill="#cccccc">Min wholeUpdate Time (ms)</text>
<path d="M200 930.5L1800 930.5" fill="transparent" stroke="#cccccc" stroke-linecap="round" class="zr17-cls-51"></path>
<text dominant-baseline="central" text-anchor="end" style="font-size:12px;font-family:sans-serif;" transform="translate(192 930)" fill="#999999">0.000</text>
<text dominant-baseline="central" text-anchor="end" style="font-size:12px;font-family:sans-serif;" transform="translate(192 772.2886)" fill="#999999">1.000</text>
<text dominant-baseline="central" text-anchor="end" style="font-size:12px;font-family:sans-serif;" transform="translate(192 614.5773)" fill="#999999">2.000</text>
<text dominant-baseline="central" text-anchor="end" style="font-size:12px;font-family:sans-serif;" transform="translate(192 456.8659)" fill="#999999">3.000</text>
<text dominant-baseline="central" text-anchor="end" style="font-size:12px;font-family:sans-serif;" transform="translate(192 299.1546)" fill="#999999">4.000</text>
<text dominant-baseline="central" text-anchor="end" style="font-size:12px;font-family:sans-serif;" transform="translate(192 141.4432)" fill="#999999">5.000</text>
<text dominant-baseline="central" text-anchor="end" style="font-size:12px;font-family:sans-serif;" transform="translate(192 60)" fill="#999999">5.516</text>
<text dominant-baseline="central" text-anchor="middle" style="font-size:12px;font-family:sans-serif;" y="6" transform="translate(200.6667 938)" fill="#999999">0</text>
<text dominant-baseline="central" text-anchor="middle" style="font-size:12px;font-family:sans-serif;" y="6" transform="translate(236.6667 938)" fill="#999999">27</text>
<text dominant-baseline="central" text-anchor="middle" style="font-size:12px;font-family:sans-serif;" y="6" transform="translate(272.6667 938)" fill="#999999">54</text>
<text dominant-baseline="central" text-anchor="middle" style="font-size:12px;font-family:sans-serif;" y="6" transform="translate(308.6667 938)" fill="#999999">81</text>
<text dominant-baseline="central" text-anchor="middle" style="font-size:12px;font-family:sans-serif;" y="6" transform="translate(344.6667 938)" fill="#999999">108</text>
<text dominant-baseline="central" text-anchor="middle" style="font-size:12px;font-family:sans-serif;" y="6" transform="translate(380.6667 938)" fill="#999999">135</text>
<text dominant-baseline="central" text-anchor="middle" style="font-size:12px;font-family:sans-serif;" y="6" transform="translate(416.6667 938)" fill="#999999">162</text>
<text dominant-baseline="central" text-anchor="middle" style="font-size:12px;font-family:sans-serif;" y="6" transform="translate(452.6667 938)" fill="#999999">189</text>
<text dominant-baseline="central" text-anchor="middle" style="font-size:12px;font-family:sans-serif;" y="6" transform="translate(488.6667 938)" fill="#999999">216</text>
<text dominant-baseline="central" text-anchor="middle" style="font-size:12px;font-family:sans-serif;" y="6" transform="translate(524.6667 938)" fill="#999999">243</text>
<text dominant-baseline="central" text-anchor="middle" style="font-size:12px;font-family:sans-serif;" y="6" transform="translate(560.6667 938)" fill="#999999">270</text>
<text dominant-baseline="central" text-anchor="middle" style="font-size:12px;font-family:sans-serif;" y="6" transform="translate(596.6667 938)" fill="#999999">297</text>
<text dominant-baseline="central" text-anchor="middle" style="font-size:12px;font-family:sans-serif;" y="6" transform="translate(632.6667 938)" fill="#999999">324</text>
<text dominant-baseline="central" text-anchor="middle" style="font-size:12px;font-family:sans-serif;" y="6" transform="translate(668.6667 938)" fill="#999999">351</text>
<text dominant-baseline="central" text-anchor="middle" style="font-size:12px;font-family:sans-serif;" y="6" transform="translate(704.6667 938)" fill="#999999">378</text>
<text dominant-baseline="central" text-anchor="middle" style="font-size:12px;font-family:sans-serif;" y="6" transform="translate(740.6667 938)" fill="#999999">405</text>
<text dominant-baseline="central" text-anchor="middle" style="font-size:12px;font-family:sans-serif;" y="6" transform="translate(776.6667 938)" fill="#999999">432</text>
<text dominant-baseline="central" text-anchor="middle" style="font-size:12px;font-family:sans-serif;" y="6" transform="translate(812.6667 938)" fill="#999999">459</text>
<text dominant-baseline="central" text-anchor="middle" style="font-size:12px;font-family:sans-serif;" y="6" transform="translate(848.6667 938)" fill="#999999">486</text>
<text dominant-baseline="central" text-anchor="middle" style="font-size:12px;font-family:sans-serif;" y="6" transform="translate(884.6667 938)" fill="#999999">513</text>
<text dominant-baseline="central" text-anchor="middle" style="font-size:12px;font-family:sans-serif;" y="6" transform="translate(920.6667 938)" fill="#999999">540</text>
<text dominant-baseline="central" text-anchor="middle" style="font-size:12px;font-family:sans-serif;" y="6" transform="translate(956.6667 938)" fill="#999999">567</text>
<text dominant-baseline="central" text-anchor="middle" style="font-size:12px;font-family:sans-serif;" y="6" transform="translate(992.6667 938)" fill="#999999">594</text>
<text dominant-baseline="central" text-anchor="middle" style="font-size:12px;font-family:sans-serif;" y="6" transform="translate(1028.6667 938)" fill="#999999">621</text>
<text dominant-baseline="central" text-anchor="middle" style="font-size:12px;font-family:sans-serif;" y="6" transform="translate(1064.6667 938)" fill="#999999">648</text>
<text dominant-baseline="central" text-anchor="middle" style="font-size:12px;font-family:sans-serif;" y="6" transform="translate(1100.6667 938)" fill="#999999">675</text>
<text dominant-baseline="central" text-anchor="middle" style="font-size:12px;font-family:sans-serif;" y="6" transform="translate(1136.6667 938)" fill="#999999">702</text>
<text dominant-baseline="central" text-anchor="middle" style="font-size:12px;font-family:sans-serif;" y="6" transform="translate(1172.6667 938)" fill="#999999">729</text>
<text dominant-baseline="central" text-anchor="middle" style="font-size:12px;font-family:sans-serif;" y="6" transform="translate(1208.6667 938)" fill="#999999">756</text>
<text dominant-baseline="central" text-anchor="middle" style="font-size:12px;font-family:sans-serif;" y="6" transform="translate(1244.6667 938)" fill="#999999">783</text>
<text dominant-baseline="central" text-anchor="middle" style="font-size:12px;font-family:sans-serif;" y="6" transform="translate(1280.6667 938)" fill="#999999">810</text>
<text dominant-baseline="central" text-anchor="middle" style="font-size:12px;font-family:sans-serif;" y="6" transform="translate(1316.6667 938)" fill="#999999">837</text>
<text dominant-baseline="central" text-anchor="middle" style="font-size:12px;font-family:sans-serif;" y="6" transform="translate(1352.6667 938)" fill="#999999">864</text>
<text dominant-baseline="central" text-anchor="middle" style="font-size:12px;font-family:sans-serif;" y="6" transform="translate(1388.6667 938)" fill="#999999">891</text>
<text dominant-baseline="central" text-anchor="middle" style="font-size:12px;font-family:sans-serif;" y="6" transform="translate(1424.6667 938)" fill="#999999">918</text>
<text dominant-baseline="central" text-anchor="middle" style="font-size:12px;font-family:sans-serif;" y="6" transform="translate(1460.6667 938)" fill="#999999">945</text>
<text dominant-baseline="central" text-anchor="middle" style="font-size:12px;font-family:sans-serif;" y="6" transform="translate(1496.6667 938)" fill="#999999">972</text>
<text dominant-baseline="central" text-anchor="middle" style="font-size:12px;font-family:sans-serif;" y="6" transform="translate(1532.6667 938)" fill="#999999">999</text>
<text dominant-baseline="central" text-anchor="middle" style="font-size:12px;font-family:sans-serif;" y="6" transform="translate(1568.6667 938)" fill="#999999">1026</text>
<text dominant-baseline="central" text-anchor="middle" style="font-size:12px;font-family:sans-serif;" y="6" transform="translate(1604.6667 938)" fill="#999999">1053</text>
<text dominant-baseline="central" text-anchor="middle" style="font-size:12px;font-family:sans-serif;" y="6" transform="translate(1640.6667 938)" fill="#999999">1080</text>
<text dominant-baseline="central" text-anchor="middle" style="font-size:12px;font-family:sans-serif;" y="6" transform="translate(1676.6667 938)" fill="#999999">1107</text>
<text dominant-baseline="central" text-anchor="middle" style="font-size:12px;font-family:sans-serif;" y="6" transform="translate(1712.6667 938)" fill="#999999">1134</text>
<text dominant-baseline="central" text-anchor="middle" style="font-size:12px;font-family:sans-serif;" y="6" transform="translate(1748.6667 938)" fill="#999999">1161</text>
<text dominant-baseline="central" text-anchor="middle" style="font-size:12px;font-family:sans-serif;" y="6" transform="translate(1784.6667 938)" fill="#999999">1188</text>
<g clip-path="url(#zr17-c0)">
<path d="M200.7 613.5L202 715.6L203.3 801.9L204.7 787.1L206 829.7L207.3 795.7L208.7 826.9L210 789.7L211.3 827.7L212.7 835L214 882L215.3 885.4L216.7 885.5L218 889.7L219.3 890L220.7 885.5L222 890.5L223.3 881.4L224.7 882.4L226 882.7L227.3 888.5L228.7 880.9L230 884L231.3 889.5L232.7 889.2L234 887.8L235.3 889.4L236.7 887.4L238 886.1L239.3 887.6L240.7 885.1L242 885.9L243.3 890.1L244.7 888L246 886.3L247.3 884L248.7 886.4L250 888.7L251.3 888.8L252.7 889.1L254 889.3L255.3 885.8L256.7 889.9L258 891.7L259.3 886.3L260.7 888.6L262 888.5L263.3 881.5L264.7 884.3L266 884.2L267.3 881.6L268.7 886.7L270 888.7L271.3 889.3L272.7 885.1L274 887.5L275.3 890.2L276.7 890.1L278 885.1L279.3 880L280.7 877.3L282 887.8L283.3 887.5L284.7 888.4L286 889.1L287.3 -78.5L288.7 -1974.4L290 -1664.1L291.3 -2084.3L292.7 -1956.1L294 386.5L295.3 460.8L296.7 547L298 -3600.6L299.3 -1509.6L300.7 36.1L302 474L303.3 330.1L304.7 747.6L306 673.6L307.3 792.9L308.7 674.4L310 781.8L311.3 752.4L312.7 815.2L314 752.3L315.3 805.5L316.7 735.3L318 814.9L319.3 734.5L320.7 811.9L322 729.5L323.3 811.1L324.7 740L326 808.2L327.3 743.2L328.7 807.7L330 741.8L331.3 794.8L332.7 726.3L334 814.1L335.3 753.1L336.7 807.1L338 763.7L339.3 810L340.7 759L342 805.3L343.3 745.5L344.7 814.1L346 721.6L347.3 809.9L348.7 731.7L350 817.2L351.3 744.5L352.7 813.9L354 755.1L355.3 814.2L356.7 759.9L358 795.9L359.3 748.2L360.7 817.3L362 754.2L363.3 814.5L364.7 755.7L366 817L367.3 753.9L368.7 812.7L370 760.7L371.3 823.4L372.7 777.7L374 819.2L375.3 767.5L376.7 820L378 785.5L379.3 814.7L380.7 782.9L382 823.3L383.3 787.5L384.7 822.3L386 770.6L387.3 821.8L388.7 747.4L390 817.3L391.3 773.7L392.7 816.6L394 771.4L395.3 823.9L396.7 789L398 823.9L399.3 787.4L400.7 823.8L402 769.2L403.3 819.8L404.7 777.9L406 819.7L407.3 781.4L408.7 813.3L410 785.5L411.3 826.6L412.7 783.7L414 824.9L415.3 753.2L416.7 820.7L418 762.4L419.3 824.2L420.7 793.1L422 819.1L423.3 788.4L424.7 826L426 790.5L427.3 829.5L428.7 770.7L430 825.6L431.3 782L432.7 828.9L434 782.9L435.3 826.2L436.7 793.8L438 814.7L439.3 786.2L440.7 813L442 772.3L443.3 826.4L444.7 785.3L446 826.8L447.3 786.2L448.7 812.3L450 786.4L451.3 827.1L452.7 776.2L454 818.4L455.3 771.2L456.7 823.7L458 785.3L459.3 815.7L460.7 782.9L462 812.4L463.3 792.5L464.7 826.3L466 765.3L467.3 817.4L468.7 768.6L470 819.1L471.3 786.6L472.7 827.8L474 786.7L475.3 824.2L476.7 790.1L478 824L479.3 772.2L480.7 818.6L482 779.2L483.3 824.3L484.7 777L486 809L487.3 780.9L488.7 821.1L490 789.5L491.3 813.1L492.7 783.1L494 825.9L495.3 789L496.7 827.2L498 787.4L499.3 826.9L500.7 790.5L502 822.1L503.3 784L504.7 813.6L506 773.4L507.3 826.5L508.7 788.6L510 828.7L511.3 796.4L512.7 829.5L514 798.1L515.3 821.2L516.7 786.2L518 825.6L519.3 785.8L520.7 824.8L522 790.1L523.3 833.2L524.7 789.9L526 833.1L527.3 795.1L528.7 825.1L530 798L531.3 829.8L532.7 854.3L534 877.9L535.3 888.8L536.7 890.9L538 882.7L539.3 889.4L540.7 886.4L542 889.3L543.3 888L544.7 885.1L546 889.1L547.3 890.2L548.7 886.4L550 883.5L551.3 891.5L552.7 890.6L554 890.8L555.3 890.2L556.7 885.3L558 889.5L559.3 888.3L560.7 889.8L562 886.9L563.3 884.4L564.7 887L566 883.3L567.3 881.8L568.7 880.6L570 885.5L571.3 886.7L572.7 884.2L574 885.9L575.3 882L576.7 888.4L578 886.9L579.3 888.3L580.7 886.7L582 885.2L583.3 889.6L584.7 885.3L586 885.6L587.3 888.5L588.7 884.2L590 890.3L591.3 889.1L592.7 891.4L594 886.4L595.3 886.7L596.7 890.5L598 887.4L599.3 893.5L600.7 889.4L602 886.2L603.3 887.6L604.7 888L606 879.4L607.3 31.8L608.7 -1951.4L610 -1760L611.3 -2156.9L612.7 -1928.3L614 418.9L615.3 459.1L616.7 523.5L618 -3481.7L619.3 -1420.4L620.7 35L622 463.7L623.3 348.9L624.7 756.6L626 664.4L627.3 802L628.7 726.3L630 799.4L631.3 763.2L632.7 817.6L634 738.4L635.3 811L636.7 730.7L638 816.5L639.3 726.4L640.7 812.4L642 742.1L643.3 815.2L644.7 738L646 811.4L647.3 741.9L648.7 808.8L650 752.9L651.3 817.6L652.7 747.4L654 819.9L655.3 757.4L656.7 815.1L658 768.6L659.3 815.4L660.7 764.2L662 815.2L663.3 750.7L664.7 818L666 760.2L667.3 815.4L668.7 711L670 808L671.3 765.7L672.7 812.6L674 766.9L675.3 817.7L676.7 768.1L678 814.6L679.3 728.3L680.7 820L682 755.4L683.3 818.5L684.7 764.5L686 818.2L687.3 754.7L688.7 815.1L690 769L691.3 824.9L692.7 769.7L694 806L695.3 774.9L696.7 825L698 793.4L699.3 825.2L700.7 793.9L702 825.1L703.3 793.4L704.7 820.7L706 770.7L707.3 818.8L708.7 773.7L710 823.2L711.3 781.8L712.7 826.4L714 793.7L715.3 824.4L716.7 794L718 823.6L719.3 784.6L720.7 816.6L722 783.5L723.3 825.3L724.7 785.9L726 821.1L727.3 779.5L728.7 815.5L730 774.3L731.3 826.8L732.7 761.1L734 825.2L735.3 787.7L736.7 826.7L738 790.3L739.3 829.3L740.7 794L742 822.7L743.3 800.5L744.7 831.6L746 791.4L747.3 823.7L748.7 783.5L750 827.3L751.3 786.7L752.7 825.8L754 785L755.3 830.6L756.7 799L758 827.1L759.3 781.9L760.7 824.8L762 788.6L763.3 822.6L764.7 790.7L766 829.1L767.3 782.7L768.7 822.3L770 790.8L771.3 830.5L772.7 775.8L774 818.1L775.3 785.4L776.7 829.3L778 795L779.3 828.7L780.7 784.3L782 827.3L783.3 796.7L784.7 825.2L786 793.2L787.3 820.5L788.7 780.9L790 818.6L791.3 790.1L792.7 828.1L794 791.9L795.3 828.1L796.7 792.8L798 828L799.3 796L800.7 823L802 790.4L803.3 823.6L804.7 792.7L806 810.6L807.3 793.2L808.7 821.4L810 793.1L811.3 825.9L812.7 786.3L814 832.2L815.3 782.3L816.7 827.5L818 791.1L819.3 826.4L820.7 793.9L822 824.5L823.3 789.3L824.7 830.4L826 797.8L827.3 827.9L828.7 782.5L830 827.3L831.3 787.1L832.7 828.7L834 790.9L835.3 825.9L836.7 797.5L838 818.5L839.3 793.8L840.7 820.6L842 791.1L843.3 828.4L844.7 793L846 830.7L847.3 795.6L848.7 826.8L850 794.7L851.3 826.4L852.7 859.3L854 885.1L855.3 889.7L856.7 888.4L858 884.9L859.3 887.4L860.7 887.5L862 884.8L863.3 887L864.7 887.7L866 884.5L867.3 885.1L868.7 880.7L870 883L871.3 889L872.7 888.9L874 889.2L875.3 887.5L876.7 891.1L878 889.6L879.3 887.3L880.7 889.5L882 885.4L883.3 887.6L884.7 884.3L886 886L887.3 888.6L888.7 884.7L890 891.5L891.3 886.8L892.7 889.2L894 890.2L895.3 890.7L896.7 888L898 888.3L899.3 886.6L900.7 886.5L902 886.6L903.3 887.4L904.7 890.4L906 888.8L907.3 883.9L908.7 883L910 884.5L911.3 885.9L912.7 888L914 886.9L915.3 889L916.7 891.2L918 884L919.3 888.4L920.7 887.7L922 890.1L923.3 891.6L924.7 888.2L926 884.6L927.3 27.8L928.7 -2017L930 -1777.5L931.3 -2202.7L932.7 -1946.8L934 373.4L935.3 452L936.7 556.4L938 -3714.4L939.3 -1471.5L940.7 77.1L942 463.5L943.3 382.2L944.7 752.9L946 666.4L947.3 797.4L948.7 710.8L950 797.9L951.3 765.3L952.7 808.7L954 734.5L955.3 798.6L956.7 715L958 807L959.3 738.6L960.7 810.9L962 748L963.3 816.2L964.7 743.6L966 807.3L967.3 728.2L968.7 803.9L970 728.5L971.3 818.6L972.7 745.1L974 819.5L975.3 764.1L976.7 813.5L978 772.3L979.3 814.3L980.7 763.4L982 810.7L983.3 749.8L984.7 820.8L986 754.5L987.3 819.2L988.7 733.5L990 815.4L991.3 762.8L992.7 818L994 764L995.3 823.2L996.7 773.9L998 817.1L999.3 759.2L1000.7 817.2L1002 751.3L1003.3 814.5L1004.7 757.4L1006 822.3L1007.3 765.9L1008.7 817.7L1010 774.2L1011.3 825.6L1012.7 783.2L1014 813.6L1015.3 767.4L1016.7 826.5L1018 791.6L1019.3 822.4L1020.7 792.8L1022 822.1L1023.3 790L1024.7 824.9L1026 779.3L1027.3 816.6L1028.7 769.2L1030 815.8L1031.3 775.3L1032.7 822.2L1034 773.3L1035.3 824.8L1036.7 795.7L1038 824.9L1039.3 781.3L1040.7 822.2L1042 777L1043.3 822.9L1044.7 785.5L1046 817.8L1047.3 786.2L1048.7 818.2L1050 786.8L1051.3 825L1052.7 782.1L1054 812.3L1055.3 775.6L1056.7 812.6L1058 783.5L1059.3 824.5L1060.7 792.2L1062 819.5L1063.3 793.3L1064.7 822.4L1066 777.1L1067.3 811.1L1068.7 764.7L1070 820.8L1071.3 787.9L1072.7 825.8L1074 782.6L1075.3 827.8L1076.7 794.2L1078 821.9L1079.3 782.6L1080.7 821.9L1082 790.4L1083.3 820.4L1084.7 787.8L1086 823.5L1087.3 786.7L1088.7 818.1L1090 788.1L1091.3 826.3L1092.7 765.2L1094 818.2L1095.3 779.9L1096.7 824.7L1098 788.3L1099.3 825.6L1100.7 787.3L1102 826.1L1103.3 791.8L1104.7 821L1106 763.2L1107.3 811.7L1108.7 775.4L1110 819.9L1111.3 779.6L1112.7 825L1114 780.6L1115.3 820.4L1116.7 776.9L1118 821.7L1119.3 767.7L1120.7 822.4L1122 790.2L1123.3 824L1124.7 784.4L1126 812.7L1127.3 784.8L1128.7 811.5L1130 780.5L1131.3 824.3L1132.7 787.5L1134 822.1L1135.3 781.3L1136.7 823.7L1138 788.4L1139.3 824.1L1140.7 786.8L1142 811L1143.3 773.3L1144.7 816.2L1146 785L1147.3 824.3L1148.7 778.7L1150 815.9L1151.3 790.4L1152.7 823.6L1154 786.3L1155.3 824L1156.7 792.2L1158 812.2L1159.3 778.5L1160.7 823L1162 790.3L1163.3 825.1L1164.7 793.2L1166 825.1L1167.3 783.6L1168.7 815.8L1170 790.3L1171.3 829.2L1172.7 856.2L1174 883.4L1175.3 885.7L1176.7 879.6L1178 880L1179.3 886.5L1180.7 882.6L1182 885.5L1183.3 885.7L1184.7 885.3L1186 887.6L1187.3 887.3L1188.7 882.7L1190 882.2L1191.3 886.3L1192.7 887.6L1194 887.8L1195.3 887L1196.7 885.5L1198 883.4L1199.3 887.4L1200.7 891.7L1202 885.1L1203.3 886.3L1204.7 887.1L1206 885.2L1207.3 885.5L1208.7 883.6L1210 888.3L1211.3 889.3L1212.7 888.6L1214 887.2L1215.3 885L1216.7 886.7L1218 889.9L1219.3 886.2L1220.7 888L1222 885.5L1223.3 890.6L1224.7 889.6L1226 890L1227.3 887.7L1228.7 887.8L1230 879.1L1231.3 884.6L1232.7 880.8L1234 885.3L1235.3 883.2L1236.7 886.1L1238 883.5L1239.3 885.6L1240.7 884.8L1242 887.5L1243.3 883.9L1244.7 888.8L1246 883.2L1247.3 25.7L1248.7 -2154.2L1250 -1934.9L1251.3 -2403.8L1252.7 -2080.4L1254 362.8L1255.3 398.6L1256.7 505.3L1258 -3776.5L1259.3 -1468.4L1260.7 29.9L1262 469.3L1263.3 310.6L1264.7 736.4L1266 636.5L1267.3 776.2L1268.7 705.5L1270 786.9L1271.3 759L1272.7 810.5L1274 744.9L1275.3 806L1276.7 713.3L1278 809.9L1279.3 720.9L1280.7 806.9L1282 727.9L1283.3 812.4L1284.7 732.1L1286 803.6L1287.3 732.1L1288.7 787.5L1290 719.7L1291.3 813.1L1292.7 721L1294 818.5L1295.3 757.5L1296.7 808.5L1298 767.6L1299.3 813.6L1300.7 742.2L1302 811L1303.3 748.4L1304.7 809L1306 747L1307.3 811.8L1308.7 721.6L1310 817.7L1311.3 764.5L1312.7 817.1L1314 775.6L1315.3 811.1L1316.7 764.3L1318 807.3L1319.3 744.9L1320.7 815.2L1322 758.7L1323.3 820.3L1324.7 756.9L1326 820.4L1327.3 754.9L1328.7 802.3L1330 758.6L1331.3 824.6L1332.7 783L1334 824.2L1335.3 779.7L1336.7 822.8L1338 794.1L1339.3 821.6L1340.7 790.1L1342 821.9L1343.3 785.4L1344.7 821.6L1346 774.8L1347.3 816L1348.7 766.8L1350 818.3L1351.3 773.6L1352.7 824.5L1354 778.1L1355.3 818.7L1356.7 789.1L1358 825.7L1359.3 789.7L1360.7 817.3L1362 769.2L1363.3 808.8L1364.7 776.9L1366 816.9L1367.3 773.9L1368.7 813.5L1370 772.9L1371.3 823.1L1372.7 775.9L1374 823.9L1375.3 784.8L1376.7 826.7L1378 775.6L1379.3 817L1380.7 787.9L1382 816.5L1383.3 785.2L1384.7 823L1386 789.9L1387.3 823.4L1388.7 772.3L1390 821.4L1391.3 780.9L1392.7 817.3L1394 772.5L1395.3 815.6L1396.7 785.3L1398 820.8L1399.3 789.6L1400.7 816L1402 779.8L1403.3 822.3L1404.7 775.4L1406 822.7L1407.3 773.4L1408.7 814L1410 774L1411.3 825L1412.7 786.2L1414 819.4L1415.3 791.7L1416.7 828.1L1418 788.8L1419.3 819.8L1420.7 770.8L1422 824.2L1423.3 785.4L1424.7 825.4L1426 793.8L1427.3 826.5L1428.7 786.5L1430 826.3L1431.3 786.8L1432.7 820.9L1434 786.2L1435.3 823.9L1436.7 783.8L1438 827.5L1439.3 795.2L1440.7 817.9L1442 792.6L1443.3 817.6L1444.7 785.4L1446 803.6L1447.3 771.2L1448.7 813.7L1450 789.2L1451.3 831.7L1452.7 795.4L1454 827L1455.3 780.7L1456.7 832L1458 792.7L1459.3 805.3L1460.7 780.8L1462 814.1L1463.3 777.4L1464.7 826.9L1466 796.1L1467.3 829.4L1468.7 779.1L1470 829.7L1471.3 788.4L1472.7 824.1L1474 785L1475.3 823.5L1476.7 793.2L1478 820.4L1479.3 796.8L1480.7 830.8L1482 779.4L1483.3 822.3L1484.7 794.5L1486 822.8L1487.3 788.4L1488.7 815.1L1490 792.5L1491.3 826.9L1492.7 856.6L1494 879L1495.3 887.4L1496.7 888.1L1498 884.2L1499.3 886.4L1500.7 883.9L1502 887.3L1503.3 887.9L1504.7 884.4L1506 882.8L1507.3 888.2L1508.7 882.1L1510 883L1511.3 887.7L1512.7 884.8L1514 881.9L1515.3 887.8L1516.7 888.2L1518 889.2L1519.3 887.3L1520.7 885.8L1522 886.9L1523.3 888.5L1524.7 886.4L1526 884.2L1527.3 884.1L1528.7 885.5L1530 887.4L1531.3 887L1532.7 891L1534 890.3L1535.3 890.4L1536.7 888.2L1538 888.9L1539.3 888.8L1540.7 888.5L1542 883.9L1543.3 886.3L1544.7 891.5L1546 887.1L1547.3 887.8L1548.7 884.5L1550 889.1L1551.3 891L1552.7 888.2L1554 887.3L1555.3 886.6L1556.7 888L1558 885.2L1559.3 889.2L1560.7 887.6L1562 890.2L1563.3 891.7L1564.7 886L1566 885.5L1567.3 11.6L1568.7 -1983.6L1570 -1770.1L1571.3 -2250.4L1572.7 -2027.7L1574 355.8L1575.3 409.4L1576.7 538.6L1578 -3737.4L1579.3 -1489.2L1580.7 61.2L1582 498.1L1583.3 376.6L1584.7 742.1L1586 648.5L1587.3 796L1588.7 721.3L1590 802.6L1591.3 766.5L1592.7 813.6L1594 730.4L1595.3 811.6L1596.7 737.4L1598 815.2L1599.3 742.7L1600.7 814.2L1602 744.6L1603.3 813.3L1604.7 721.1L1606 796L1607.3 729.7L1608.7 803.1L1610 750.7L1611.3 817.1L1612.7 746.4L1614 818.4L1615.3 740.1L1616.7 802.4L1618 766L1619.3 816.2L1620.7 766.7L1622 810.2L1623.3 750.1L1624.7 800.7L1626 730.4L1627.3 797.8L1628.7 721L1630 820.6L1631.3 768.9L1632.7 821.7L1634 776.3L1635.3 819.6L1636.7 775L1638 809.5L1639.3 750.6L1640.7 818.2L1642 757.2L1643.3 819.6L1644.7 765.2L1646 822.7L1647.3 764.2L1648.7 813.8L1650 756.4L1651.3 823.9L1652.7 777.1L1654 819.7L1655.3 777.7L1656.7 826.9L1658 790.2L1659.3 825.5L1660.7 798.2L1662 828L1663.3 791L1664.7 823.5L1666 781.4L1667.3 820L1668.7 781.1L1670 822.5L1671.3 785.1L1672.7 828.3L1674 797L1675.3 826.7L1676.7 792.2L1678 825.6L1679.3 788.7L1680.7 821.9L1682 783L1683.3 823.8L1684.7 776.5L1686 822.7L1687.3 788.5L1688.7 819.4L1690 787L1691.3 819.6L1692.7 779.9L1694 821.3L1695.3 780.9L1696.7 828.1L1698 790.1L1699.3 827L1700.7 790.2L1702 822.7L1703.3 793.7L1704.7 817.8L1706 790L1707.3 823.7L1708.7 781.3L1710 829.2L1711.3 782.1L1712.7 827.1L1714 785.3L1715.3 823L1716.7 798.7L1718 822.4L1719.3 776.8L1720.7 826.4L1722 794.7L1723.3 825.5L1724.7 789.2L1726 827.7L1727.3 783.6L1728.7 815.3L1730 786.5L1731.3 827.2L1732.7 788.3L1734 822.1L1735.3 789.6L1736.7 823.2L1738 778.8L1739.3 832.1L1740.7 790.7L1742 820.7L1743.3 793.2L1744.7 827.2L1746 783.2L1747.3 822.2L1748.7 773.9L1750 825.2L1751.3 794.3L1752.7 829.8L1754 788.9L1755.3 827.6L1756.7 792.1L1758 830.6L1759.3 784.4L1760.7 825.6L1762 790.7L1763.3 828L1764.7 795.4L1766 824.2L1767.3 795.4L1768.7 823.7L1770 788.4L1771.3 831L1772.7 797.3L1774 828.8L1775.3 782.3L1776.7 827.1L1778 774.5L1779.3 829.1L1780.7 790.5L1782 824.2L1783.3 793.4L1784.7 832.3L1786 799.2L1787.3 832.1L1788.7 779.1L1790 822.8L1791.3 787.6L1792.7 827.5L1794 790.1L1795.3 827.3L1796.7 792.3L1798 823.7L1799.3 788.7" fill="transparent" stroke="#3fb1e3" stroke-width="3" stroke-linejoin="bevel" class="zr17-cls-53"></path>
</g>
<path d="M-206.9 -5l413.7 0l0 28l-413.7 0Z" transform="translate(1000 5)" fill="rgb(0,0,0)" fill-opacity="0" stroke="#ccc" stroke-width="0" class="zr17-cls-51"></path>
<text dominant-baseline="central" text-anchor="middle" style="font-size:18px;font-family:sans-serif;font-weight:bold;" xml:space="preserve" y="9" transform="translate(1000 5)" fill="#666666">Min wholeUpdate per Tick for bench_4_every_240</text>
<defs >
<clipPath id="zr17-c0">
<path d="M198 58.5l16004 0l0 8703l-16004 0Z" fill="#000" class="zr17-cls-52"></path>
</clipPath>
</defs>
<style ><![CDATA[
.zr17-cls-51:hover {
pointer-events:none;
}
.zr17-cls-52:hover {
cursor:pointer;
fill:rgba(0,0,0,1);
}
.zr17-cls-53:hover {
cursor:pointer;
}

]]>

</style>
</svg>