<svg width="2000" height="1000" xmlns="http://www.w3.org/2000/svg" xmlns:xlink="http://www.w3.org/1999/xlink" version="1.1" baseProfile="full" viewBox="0 0 2000 1000">
<rect width="2000" height="1000" x="0" y="0" fill="rgb(252,252,252)" fill-opacity="0"></rect>
<path d="M200 930.5L1800 930.5" fill="transparent" stroke="#eeeeee" class="zr19-cls-57"></path>
<path d="M200 797.5L1800 797.5" fill="transparent" stroke="#eeeeee" class="zr19-cls-57"></path>
<path d="M200 665.5L1800 665.5" fill="transparent" stroke="#eeeeee" class="zr19-cls-57"></path>
<path d="M200 532.5L1800 532.5" fill="transparent" stroke="#eeeeee" class="zr19-cls-57"></path>
<path d="M200 399.5L1800 399.5" fill="transparent" stroke="#eeeeee" class="zr19-cls-57"></path>
<path d="M200 267.5L1800 267.5" fill="transparent" stroke="#eeeeee" class="zr19-cls-57"></path>
<path d="M200 134.5L1800 134.5" fill="transparent" stroke="#eeeeee" class="zr19-cls-57"></path>
<path d="M200 60.5L1800 60.5" fill="transparent" stroke="#eeeeee" class="zr19-cls-57"></path>
<path d="M200.5 930L200.5 60" fill="transparent" stroke="#cccccc" stroke-linecap="round" class="zr19-cls-57"></path>
<text dominant-baseline="central" text-anchor="middle" style="font-size:12px;font-family:sans-serif;" xml:space="preserve" y="-6" transform="translate(200 45)" fill="#cccccc">Min transportLinesUpdate Time (ms)</text>
<path d="M200 930.5L1800 930.5" fill="transparent" stroke="#cccccc" stroke-linecap="round" class="zr19-cls-57"></path>
<text dominant-baseline="central" text-anchor="end" style="font-size:12px;font-family:sans-serif;" transform="translate(192 930)" fill="#999999">0.000</text>
<text dominant-baseline="central" text-anchor="end" style="font-size:12px;font-family:sans-serif;" transform="translate(192 797.381)" fill="#999999">0.050</text>
<text dominant-baseline="central" text-anchor="end" style="font-size:12px;font-family:sans-serif;" transform="translate(192 664.762)" fill="#999999">0.100</text>
<text dominant-baseline="central" text-anchor="end" style="font-size:12px;font-family:sans-serif;" transform="translate(192 532.1431)" fill="#999999">0.150</text>
<text dominant-baseline="central" text-anchor="end" style="font-size:12px;font-family:sans-serif;" transform="translate(192 399.5241)" fill="#999999">0.200</text>
<text dominant-baseline="central" text-anchor="end" style="font-size:12px;font-family:sans-serif;" transform="translate(192 266.9051)" fill="#999999">0.250</text>
<text dominant-baseline="central" text-anchor="end" style="font-size:12px;font-family:sans-serif;" transform="translate(192 134.2861)" fill="#999999">0.300</text>
<text dominant-baseline="central" text-anchor="end" style="font-size:12px;font-family:sans-serif;" transform="translate(192 60)" fill="#999999">0.328</text>
<text dominant-baseline="central" text-anchor="middle" style="font-size:12px;font-family:sans-serif;" y="6" transform="translate(200.6667 938)" fill="#999999">0</text>
<text dominant-baseline="central" text-anchor="middle" style="font-size:12px;font-family:sans-serif;" y="6" transform="translate(236.6667 938)" fill="#999999">27</text>
<text dominant-baseline="central" text-anchor="middle" style="font-size:12px;font-family:sans-serif;" y="6" transform="translate(272.6667 938)" fill="#999999">54</text>
<text dominant-baseline="central" text-anchor="middle" style="font-size:12px;font-family:sans-serif;" y="6" transform="translate(308.6667 938)" fill="#999999">81</text>
<text dominant-baseline="central" text-anchor="middle" style="font-size:12px;font-family:sans-serif;" y="6" transform="translate(344.6667 938)" fill="#999999">108</text>
<text dominant-baseline="central" text-anchor="middle" style="font-size:12px;font-family:sans-serif;" y="6" transform="translate(380.6667 938)" fill="#999999">135</text>
<text dominant-baseline="central" text-anchor="middle" style="font-size:12px;font-family:sans-serif;" y="6" transform="translate(416.6667 938)" fill="#999999">162</text>
<text dominant-baseline="central" text-anchor="middle" style="font-size:12px;font-family:sans-serif;" y="6" transform="translate(452.6667 938)" fill="#999999">189</text>
<text dominant-baseline="central" text-anchor="middle" style="font-size:12px;font-family:sans-serif;" y="6" transform="translate(488.6667 938)" fill="#999999">216</text>
<text dominant-baseline="central" text-anchor="middle" style="font-size:12px;font-family:sans-serif;" y="6" transform="translate(524.6667 938)" fill="#999999">243</text>
<text dominant-baseline="central" text-anchor="middle" style="font-size:12px;font-family:sans-serif;" y="6" transform="translate(560.6667 938)" fill="#999999">270</text>
<text dominant-baseline="central" text-anchor="middle" style="font-size:12px;font-family:sans-serif;" y="6" transform="translate(596.6667 938)" fill="#999999">297</text>
<text dominant-baseline="central" text-anchor="middle" style="font-size:12px;font-family:sans-serif;" y="6" transform="translate(632.6667 938)" fill="#999999">324</text>
<text dominant-baseline="central" text-anchor="middle" style="font-size:12px;font-family:sans-serif;" y="6" transform="translate(668.6667 938)" fill="#999999">351</text>
<text dominant-baseline="central" text-anchor="middle" style="font-size:12px;font-family:sans-serif;" y="6" transform="translate(704.6667 938)" fill="#999999">378</text>
<text dominant-baseline="central" text-anchor="middle" style="font-size:12px;font-family:sans-serif;" y="6" transform="translate(740.6667 938)" fill="#999999">405</text>
<text dominant-baseline="central" text-anchor="middle" style="font-size:12px;font-family:sans-serif;" y="6" transform="translate(776.6667 938)" fill="#999999">432</text>
<text dominant-baseline="central" text-anchor="middle" style="font-size:12px;font-family:sans-serif;" y="6" transform="translate(812.6667 938)" fill="#999999">459</text>
<text dominant-baseline="central" text-anchor="middle" style="font-size:12px;font-family:sans-serif;" y="6" transform="translate(848.6667 938)" fill="#999999">486</text>
<text dominant-baseline="central" text-anchor="middle" style="font-size:12px;font-family:sans-serif;" y="6" transform="translate(884.6667 938)" fill="#999999">513</text>
<text dominant-baseline="central" text-anchor="middle" style="font-size:12px;font-family:sans-serif;" y="6" transform="translate(920.6667 938)" fill="#999999">540</text>
<text dominant-baseline="central" text-anchor="middle" style="font-size:12px;font-family:sans-serif;" y="6" transform="translate(956.6667 938)" fill="#999999">567</text>
<text dominant-baseline="central" text-anchor="middle" style="font-size:12px;font-family:sans-serif;" y="6" transform="translate(992.6667 938)" fill="#999999">594</text>
<text dominant-baseline="central" text-anchor="middle" style="font-size:12px;font-family:sans-serif;" y="6" transform="translate(1028.6667 938)" fill="#999999">621</text>
<text dominant-baseline="central" text-anchor="middle" style="font-size:12px;font-family:sans-serif;" y="6" transform="translate(1064.6667 938)" fill="#999999">648</text>
<text dominant-baseline="central" text-anchor="middle" style="font-size:12px;font-family:sans-serif;" y="6" transform="translate(1100.6667 938)" fill="#999999">675</text>
<text dominant-baseline="central" text-anchor="middle" style="font-size:12px;font-family:sans-serif;" y="6" transform="translate(1136.6667 938)" fill="#999999">702</text>
<text dominant-baseline="central" text-anchor="middle" style="font-size:12px;font-family:sans-serif;" y="6" transform="translate(1172.6667 938)" fill="#999999">729</text>
<text dominant-baseline="central" text-anchor="middle" style="font-size:12px;font-family:sans-serif;" y="6" transform="translate(1208.6667 938)" fill="#999999">756</text>
<text dominant-baseline="central" text-anchor="middle" style="font-size:12px;font-family:sans-serif;" y="6" transform="translate(1244.6667 938)" fill="#999999">783</text>
<text dominant-baseline="central" text-anchor="middle" style="font-size:12px;font-family:sans-serif;" y="6" transform="translate(1280.6667 938)" fill="#999999">810</text>
<text dominant-baseline="central" text-anchor="middle" style="font-size:12px;font-family:sans-serif;" y="6" transform="translate(1316.6667 938)" fill="#999999">837</text>
<text dominant-baseline="central" text-anchor="middle" style="font-size:12px;font-family:sans-serif;" y="6" transform="translate(1352.6667 938)" fill="#999999">864</text>
<text dominant-baseline="central" text-anchor="middle" style="font-size:12px;font-family:sans-serif;" y="6" transform="translate(1388.6667 938)" fill="#999999">891</text>
<text dominant-baseline="central" text-anchor="middle" style="font-size:12px;font-family:sans-serif;" y="6" transform="translate(1424.6667 938)" fill="#999999">918</text>
<text dominant-baseline="central" text-anchor="middle" style="font-size:12px;font-family:sans-serif;" y="6" transform="translate(1460.6667 938)" fill="#999999">945</text>
<text dominant-baseline="central" text-anchor="middle" style="font-size:12px;font-family:sans-serif;" y="6" transform="translate(1496.6667 938)" fill="#999999">972</text>
<text dominant-baseline="central" text-anchor="middle" style="font-size:12px;font-family:sans-serif;" y="6" transform="translate(1532.6667 938)" fill="#999999">999</text>
<text dominant-baseline="central" text-anchor="middle" style="font-size:12px;font-family:sans-serif;" y="6" transform="translate(1568.6667 938)" fill="#999999">1026</text>
<text dominant-baseline="central" text-anchor="middle" style="font-size:12px;font-family:sans-serif;" y="6" transform="translate(1604.6667 938)" fill="#999999">1053</text>
<text dominant-baseline="central" text-anchor="middle" style="font-size:12px;font-family:sans-serif;" y="6" transform="translate(1640.6667 938)" fill="#999999">1080</text>
<text dominant-baseline="central" text-anchor="middle" style="font-size:12px;font-family:sans-serif;" y="6" transform="translate(1676.6667 938)" fill="#999999">1107</text>
<text dominant-baseline="central" text-anchor="middle" style="font-size:12px;font-family:sans-serif;" y="6" transform="translate(1712.6667 938)" fill="#999999">1134</text>
<text dominant-baseline="central" text-anchor="middle" style="font-size:12px;font-family:sans-serif;" y="6" transform="translate(1748.6667 938)" fill="#999999">1161</text>
<text dominant-baseline="central" text-anchor="middle" style="font-size:12px;font-family:sans-serif;" y="6" transform="translate(1784.6667 938)" fill="#999999">1188</text>
<g clip-path="url(#zr19-c0)">
<path d="M200.7 336.4L202 396.9L203.3 649.6L204.7 600.6L206 739.3L207.3 708L208.7 729.5L210 669.3L211.3 722.8L212.7 466.4L214 830.8L215.3 850.4L216.7 858.4L218 887L219.3 880.7L220.7 861.3L222 876.2L223.3 855.5L224.7 841.1L226 812.2L227.3 879.6L228.7 840.6L230 843.5L231.3 844.9L232.7 865.5L234 857.1L235.3 870.3L236.7 830.5L238 807.2L239.3 855.2L240.7 815.4L242 816.2L243.3 864L244.7 833.7L246 875.9L247.3 810.9L248.7 863.7L250 841.7L251.3 884.4L252.7 856.3L254 867.4L255.3 831.3L256.7 877.7L258 888.9L259.3 822.6L260.7 846.5L262 869L263.3 774.6L264.7 813.8L266 845.7L267.3 801.9L268.7 893.4L270 869.5L271.3 860.2L272.7 830.3L274 830.3L275.3 861.8L276.7 851L278 836.9L279.3 831.1L280.7 834.8L282 871.1L283.3 832.1L284.7 862.4L286 869.3L287.3 852L288.7 823.9L290 -286.4L291.3 450.7L292.7 -833L294 -198.1L295.3 86.5L296.7 240.6L298 -229.1L299.3 -533.8L300.7 -1585.3L302 -242.9L303.3 -1085.3L304.7 55L306 -758.2L307.3 306.4L308.7 0.9L310 319.7L311.3 398.7L312.7 467.4L314 285.7L315.3 464.8L316.7 9.6L318 503L319.3 27.1L320.7 470.3L322 -48.7L323.3 459.2L324.7 90.3L326 501.9L327.3 137.2L328.7 493.7L330 176.7L331.3 363.5L332.7 14.1L334 475.9L335.3 312L336.7 509.6L338 461.1L339.3 506.1L340.7 421.8L342 536.7L343.3 129L344.7 513.8L346 211.5L347.3 517.8L348.7 136.9L350 531.6L351.3 432.1L352.7 498.7L354 518.9L355.3 522.9L356.7 476.2L358 513.6L359.3 270.6L360.7 540.4L362 309.6L363.3 536.9L364.7 281.5L366 582.8L367.3 343L368.7 575.4L370 275.4L371.3 651L372.7 424.5L374 666.6L375.3 454.7L376.7 667.4L378 640.1L379.3 649.6L380.7 603.2L382 658.4L383.3 632.7L384.7 663.4L386 484.4L387.3 651L388.7 456.6L390 644.1L391.3 447L392.7 666.4L394 627.1L395.3 660.5L396.7 615.7L398 670.6L399.3 638.8L400.7 684.1L402 510.4L403.3 655.5L404.7 503.2L406 657.9L407.3 556.3L408.7 677.5L410 528.7L411.3 680.9L412.7 525.2L414 668.5L415.3 338.8L416.7 689.7L418 503.5L419.3 668.5L420.7 669L422 694.5L423.3 653.1L424.7 660.8L426 651.5L427.3 722.3L428.7 484.7L430 679.9L431.3 555.7L432.7 706.4L434 521.3L435.3 658.1L436.7 652.8L438 669.3L439.3 627.9L440.7 676.7L442 606.7L443.3 685.7L444.7 573.3L446 688.4L447.3 577.5L448.7 693.9L450 591.8L451.3 686L452.7 568L454 686.2L455.3 510.9L456.7 687.6L458 569L459.3 695.8L460.7 552.6L462 649.9L463.3 651L464.7 697.4L466 635.1L467.3 658.4L468.7 596.9L470 717L471.3 601.9L472.7 692.9L474 639L475.3 689.2L476.7 602.2L478 735.3L479.3 628.4L480.7 697.9L482 627.9L483.3 696.6L484.7 682.3L486 706.1L487.3 610.9L488.7 710.1L490 609.9L491.3 661.6L492.7 611.2L494 707.5L495.3 587L496.7 714.4L498 636.6L499.3 701.6L500.7 638.5L502 720.2L503.3 651.8L504.7 692.9L506 676.2L507.3 730.3L508.7 651.5L510 701.1L511.3 663.4L512.7 713.8L514 675.4L515.3 720.5L516.7 617.3L518 738L519.3 632.1L520.7 711.2L522 663.2L523.3 761.3L524.7 689.4L526 740.9L527.3 675.9L528.7 717.8L530 686.8L531.3 739.3L532.7 588.1L534 814.9L535.3 857.3L536.7 884.4L538 807.5L539.3 887.8L540.7 858.7L542 863.7L543.3 875.4L544.7 814.9L546 881.5L547.3 879.6L548.7 890.5L550 834.8L551.3 874L552.7 892.9L554 865.5L555.3 889.9L556.7 814.4L558 856L559.3 855.2L560.7 857.6L562 847.2L563.3 841.9L564.7 864.2L566 838.2L567.3 862.9L568.7 874.8L570 854.1L571.3 832.1L572.7 824.4L574 874.8L575.3 822.8L576.7 864.2L578 849.6L579.3 887.3L580.7 859.7L582 833.5L583.3 848.6L584.7 830.5L586 848.8L587.3 852.3L588.7 873.2L590 881.2L591.3 837.7L592.7 893.1L594 832.1L595.3 822L596.7 851.8L598 878.8L599.3 893.4L600.7 869.3L602 835L603.3 823.9L604.7 862.1L606 851.8L607.3 826.6L608.7 818.1L610 -249.5L611.3 351L612.7 -789L614 -144.5L615.3 173.5L616.7 168L618 -167.3L619.3 -551.4L620.7 -1522.1L622 -151.6L623.3 -851.6L624.7 116.8L626 -702.5L627.3 397.4L628.7 34.8L630 435.1L631.3 432.1L632.7 490.8L634 285.5L635.3 464.8L636.7 -63.8L638 490.8L639.3 13.3L640.7 460.8L642 104.8L643.3 501.9L644.7 90.8L646 489.4L647.3 123.9L648.7 514.9L650 151.8L651.3 526.8L652.7 97.7L654 523.9L655.3 339.6L656.7 499.5L658 497.1L659.3 510.4L660.7 448.9L662 523.1L663.3 146L664.7 516.2L666 277L667.3 524.7L668.7 79.4L670 534.5L671.3 441.4L672.7 530.3L674 510.4L675.3 562.1L676.7 476.2L678 597.4L679.3 272.2L680.7 571.9L682 297.1L683.3 566.1L684.7 357.6L686 602.2L687.3 363.2L688.7 587.6L690 258.2L691.3 680.4L692.7 424.7L694 651.2L695.3 439.6L696.7 647.5L698 638.2L699.3 667.4L700.7 657.9L702 681.7L703.3 649.4L704.7 671.7L706 445.1L707.3 638.8L708.7 473L710 683.6L711.3 451.5L712.7 717.3L714 653.1L715.3 658.1L716.7 631.9L718 692.9L719.3 624.4L720.7 678.3L722 502.7L723.3 674.6L724.7 556L726 666.9L727.3 526.3L728.7 693.4L730 529.2L731.3 676.4L732.7 474.9L734 664L735.3 558.9L736.7 684.4L738 540.6L739.3 684.4L740.7 669.5L742 718.1L743.3 681.5L744.7 730.8L746 631.3L747.3 692.3L748.7 544.9L750 690.2L751.3 573.8L752.7 703.8L754 506.9L755.3 683.1L756.7 673.8L758 701.9L759.3 659.7L760.7 676.7L762 643L763.3 667.1L764.7 563.2L766 718.1L767.3 603.2L768.7 716.2L770 571.9L771.3 704.8L772.7 610.7L774 663.4L775.3 555.7L776.7 697.9L778 610.4L779.3 683.6L780.7 589.2L782 705.9L783.3 641.7L784.7 712L786 634.8L787.3 689.2L788.7 617.5L790 690.2L791.3 603.2L792.7 710.1L794 631.6L795.3 714.4L796.7 607.7L798 711.7L799.3 655.2L800.7 704.8L802 636.4L803.3 669.8L804.7 660.8L806 692.1L807.3 634.3L808.7 706.4L810 601.9L811.3 691.8L812.7 618.3L814 732.4L815.3 577.5L816.7 728.4L818 616.5L819.3 707.7L820.7 634.3L822 748.3L823.3 634.5L824.7 727.4L826 672.7L827.3 716.5L828.7 662.4L830 715.7L831.3 635.9L832.7 731.1L834 668.7L835.3 716L836.7 655.5L838 719.4L839.3 639.6L840.7 701.4L842 667.7L843.3 712.8L844.7 679.1L846 735.8L847.3 683.9L848.7 761.8L850 645.1L851.3 713.3L852.7 594.5L854 867.1L855.3 860.8L856.7 839L858 825L859.3 861.6L860.7 848.3L862 843.3L863.3 848.3L864.7 847L866 839L867.3 881.7L868.7 809.3L870 833.5L871.3 860.8L872.7 866.3L874 864.8L875.3 865.5L876.7 869L878 853.3L879.3 843.8L880.7 864.5L882 807.7L883.3 851.8L884.7 830L886 857.9L887.3 840.3L888.7 848.3L890 874.3L891.3 822.6L892.7 840.1L894 845.1L895.3 862.4L896.7 862.9L898 819.9L899.3 850.2L900.7 840.6L902 887.8L903.3 847.8L904.7 862.1L906 858.4L907.3 844.6L908.7 875.6L910 838.8L911.3 849.9L912.7 863.4L914 827.1L915.3 852L916.7 881.5L918 843L919.3 850.4L920.7 835.6L922 861.6L923.3 888.4L924.7 828.4L926 844.6L927.3 821.5L928.7 808.8L930 -256.4L931.3 406.7L932.7 -779.5L934 -219.8L935.3 139.9L936.7 251.8L938 -232.8L939.3 -533.1L940.7 -1455.8L942 -179.5L943.3 -801.5L944.7 136.9L946 -811L947.3 347.3L948.7 -50.1L950 404L951.3 459.5L952.7 474.9L954 300.3L955.3 458.7L956.7 -47.4L958 457.3L959.3 -11.9L960.7 474.1L962 120.2L963.3 509.3L964.7 113.3L966 458.9L967.3 100.9L968.7 468.8L970 59.2L971.3 489.7L972.7 54.2L974 518.1L975.3 340.4L976.7 500.6L978 491.3L979.3 527.4L980.7 407.2L982 506.7L983.3 134.6L984.7 538.2L986 209.1L987.3 556.8L988.7 129.5L990 545.7L991.3 419.2L992.7 563.2L994 543.3L995.3 573.3L996.7 479.1L998 599L999.3 281.5L1000.7 539L1002 343.8L1003.3 553.9L1004.7 324.7L1006 570.3L1007.3 397.4L1008.7 617.3L1010 251.8L1011.3 662.9L1012.7 496.9L1014 672.5L1015.3 408.5L1016.7 661L1018 631.1L1019.3 661.8L1020.7 648.1L1022 665L1023.3 643.5L1024.7 666.1L1026 475.9L1027.3 651L1028.7 458.4L1030 656.8L1031.3 412L1032.7 675.9L1034 618.9L1035.3 656.8L1036.7 653.6L1038 678L1039.3 619.7L1040.7 700.8L1042 464L1043.3 660.3L1044.7 535.6L1046 677.8L1047.3 570.3L1048.7 686.2L1050 549.9L1051.3 682.3L1052.7 541.7L1054 633.2L1055.3 496.9L1056.7 666.1L1058 511.7L1059.3 680.7L1060.7 639.8L1062 689.4L1063.3 653.9L1064.7 673.8L1066 637.4L1067.3 613.3L1068.7 515.7L1070 654.7L1071.3 560.3L1072.7 688.1L1074 517.3L1075.3 688.9L1076.7 642.7L1078 702.4L1079.3 659.7L1080.7 675.6L1082 636.6L1083.3 672.7L1084.7 552.8L1086 675.6L1087.3 573L1088.7 679.4L1090 550.2L1091.3 708.5L1092.7 590.5L1094 653.6L1095.3 572.5L1096.7 677.8L1098 576.7L1099.3 686.2L1100.7 558.7L1102 683.6L1103.3 659.5L1104.7 699.2L1106 636.6L1107.3 644.6L1108.7 627.1L1110 710.1L1111.3 598.7L1112.7 697.9L1114 587.3L1115.3 700.3L1116.7 570.1L1118 694.2L1119.3 561.3L1120.7 693.7L1122 674L1123.3 680.1L1124.7 651.8L1126 699L1127.3 577.8L1128.7 700L1130 530L1131.3 695.3L1132.7 606.4L1134 696.9L1135.3 554.4L1136.7 705.3L1138 580.9L1139.3 698.2L1140.7 626L1142 711.7L1143.3 597.9L1144.7 708L1146 607.5L1147.3 717.8L1148.7 614.6L1150 734.8L1151.3 638L1152.7 710.6L1154 608.8L1155.3 674L1156.7 627.1L1158 713L1159.3 605.9L1160.7 708.5L1162 631.6L1163.3 697.4L1164.7 646.2L1166 717.3L1167.3 643.5L1168.7 739L1170 644.1L1171.3 743.8L1172.7 565L1174 849.6L1175.3 828.9L1176.7 870.1L1178 872.2L1179.3 834L1180.7 843.3L1182 833.2L1183.3 862.6L1184.7 864.8L1186 859.7L1187.3 875.9L1188.7 878.5L1190 851.5L1191.3 844.6L1192.7 864.8L1194 867.7L1195.3 826L1196.7 801.6L1198 831.9L1199.3 847.5L1200.7 883.6L1202 854.7L1203.3 828.1L1204.7 869.8L1206 852.6L1207.3 854.9L1208.7 861.3L1210 846.7L1211.3 847.8L1212.7 860.2L1214 836.9L1215.3 838.8L1216.7 830.8L1218 870.6L1219.3 838.8L1220.7 835.8L1222 840.1L1223.3 877L1224.7 841.9L1226 862.4L1227.3 823.1L1228.7 872.7L1230 866.6L1231.3 886.2L1232.7 813L1234 829.2L1235.3 886.2L1236.7 863.2L1238 857.9L1239.3 853.6L1240.7 826L1242 839.8L1243.3 835.8L1244.7 873L1246 831.6L1247.3 835.6L1248.7 823.1L1250 -254.8L1251.3 380.2L1252.7 -982.6L1254 -225.4L1255.3 -16.4L1256.7 25.5L1258 -237.6L1259.3 -640.2L1260.7 -1597.5L1262 -345.5L1263.3 -1108.9L1264.7 5.9L1266 -926.7L1267.3 233L1268.7 -77.6L1270 344.4L1271.3 397.9L1272.7 429.5L1274 244.9L1275.3 436.7L1276.7 -144.5L1278 477.8L1279.3 13.1L1280.7 466.6L1282 -35.5L1283.3 477.5L1284.7 75.1L1286 489.4L1287.3 89.2L1288.7 484.7L1290 -36.5L1291.3 478.3L1292.7 34.8L1294 511.5L1295.3 336.7L1296.7 495L1298 470.3L1299.3 507.2L1300.7 372.7L1302 548.9L1303.3 130L1304.7 487.8L1306 146.2L1307.3 494.2L1308.7 67.2L1310 574.6L1311.3 391.8L1312.7 546.2L1314 548.1L1315.3 536.1L1316.7 462.7L1318 544.6L1319.3 197.9L1320.7 546.5L1322 281.8L1323.3 571.1L1324.7 310.7L1326 566.9L1327.3 348.9L1328.7 581.5L1330 143.3L1331.3 627.1L1332.7 457.6L1334 688.9L1335.3 413.6L1336.7 656.8L1338 627.1L1339.3 626L1340.7 626.6L1342 657.6L1343.3 622.6L1344.7 665.3L1346 405.9L1347.3 644.9L1348.7 447.8L1350 675.6L1351.3 401.9L1352.7 670.3L1354 617.3L1355.3 652.6L1356.7 597.1L1358 688.1L1359.3 648.1L1360.7 694.5L1362 526.3L1363.3 606.4L1364.7 459.5L1366 656.3L1367.3 504.8L1368.7 679.4L1370 394L1371.3 645.1L1372.7 535.6L1374 669L1375.3 529L1376.7 677.5L1378 452.8L1379.3 651.5L1380.7 634.3L1382 698.2L1383.3 628.2L1384.7 695.3L1386 631.6L1387.3 688.4L1388.7 531.1L1390 684.4L1391.3 510.7L1392.7 674.3L1394 475.4L1395.3 659.7L1396.7 631.9L1398 678L1399.3 636.1L1400.7 688.4L1402 662.6L1403.3 688.1L1404.7 525.2L1406 677.8L1407.3 548.1L1408.7 680.7L1410 526L1411.3 693.4L1412.7 566.6L1414 714.1L1415.3 581.2L1416.7 692.9L1418 599.5L1419.3 669.8L1420.7 550.4L1422 710.1L1423.3 616.5L1424.7 692.9L1426 660.8L1427.3 671.9L1428.7 619.1L1430 740.1L1431.3 561.8L1432.7 704.5L1434 555.5L1435.3 714.9L1436.7 552L1438 706.4L1439.3 663.4L1440.7 705.1L1442 666.9L1443.3 698.2L1444.7 690.2L1446 643.8L1447.3 517.8L1448.7 717L1450 575.4L1451.3 725.5L1452.7 623.4L1454 717.8L1455.3 628.2L1456.7 722.1L1458 626L1459.3 665.6L1460.7 601.9L1462 704L1463.3 619.9L1464.7 707.2L1466 682.5L1467.3 719.4L1468.7 668.7L1470 709.1L1471.3 667.1L1472.7 723.4L1474 628.4L1475.3 712.2L1476.7 647.3L1478 725.5L1479.3 657.6L1480.7 727.1L1482 677L1483.3 725.5L1484.7 682.8L1486 753.9L1487.3 646.7L1488.7 737.7L1490 650.7L1491.3 729.2L1492.7 577.5L1494 829.2L1495.3 832.7L1496.7 851L1498 823.9L1499.3 851.2L1500.7 864L1502 876.2L1503.3 878.3L1504.7 828.9L1506 805.9L1507.3 870.6L1508.7 812.5L1510 869.3L1511.3 854.7L1512.7 895.3L1514 803.7L1515.3 887.3L1516.7 854.4L1518 866.1L1519.3 856.8L1520.7 854.7L1522 872.7L1523.3 862.6L1524.7 849.9L1526 839L1527.3 811.7L1528.7 848.3L1530 826L1531.3 838L1532.7 879.3L1534 866.1L1535.3 879.3L1536.7 853.3L1538 846.2L1539.3 844.6L1540.7 850.4L1542 812L1543.3 839.3L1544.7 881.2L1546 845.9L1547.3 880.1L1548.7 861.8L1550 882.3L1551.3 888.6L1552.7 865.8L1554 863.2L1555.3 822.6L1556.7 844.3L1558 848.6L1559.3 870.6L1560.7 882.8L1562 873L1563.3 889.7L1564.7 826.6L1566 809.1L1567.3 864L1568.7 855.5L1570 -331.5L1571.3 388.4L1572.7 -872.3L1574 -402.8L1575.3 -5.5L1576.7 161.9L1578 -262.8L1579.3 -524L1580.7 -1498L1582 -140.8L1583.3 -801.2L1584.7 153.9L1586 -803.1L1587.3 347.3L1588.7 29L1590 433.7L1591.3 477.2L1592.7 458.7L1594 336.4L1595.3 475.1L1596.7 -27.5L1598 502.7L1599.3 87.9L1600.7 486L1602 86.3L1603.3 514.4L1604.7 -33.6L1606 444.6L1607.3 -51.4L1608.7 506.1L1610 148.9L1611.3 503L1612.7 116L1614 537.7L1615.3 287.6L1616.7 426.3L1618 471.1L1619.3 525L1620.7 403.8L1622 527.6L1623.3 164L1624.7 548.9L1626 238.5L1627.3 465.6L1628.7 79.4L1630 562.6L1631.3 447L1632.7 545.9L1634 514.1L1635.3 553.4L1636.7 504.3L1638 589.2L1639.3 269.6L1640.7 568.7L1642 313.1L1643.3 583.6L1644.7 377L1646 582L1647.3 379.4L1648.7 602.4L1650 174.3L1651.3 662.6L1652.7 465L1654 654.4L1655.3 455L1656.7 672.7L1658 635.1L1659.3 665.6L1660.7 665.6L1662 679.6L1663.3 645.9L1664.7 670.3L1666 457.1L1667.3 626.6L1668.7 510.9L1670 662.9L1671.3 471.7L1672.7 679.1L1674 641.4L1675.3 664.5L1676.7 642L1678 691L1679.3 651.5L1680.7 704.5L1682 510.4L1683.3 673L1684.7 548.6L1686 684.9L1687.3 566.6L1688.7 681.2L1690 554.4L1691.3 655.2L1692.7 529L1694 682.5L1695.3 544.9L1696.7 684.1L1698 529L1699.3 688.4L1700.7 635.9L1702 708.5L1703.3 654.7L1704.7 719.9L1706 634L1707.3 705.1L1708.7 570.9L1710 693.7L1711.3 567.7L1712.7 692.1L1714 536.9L1715.3 666.6L1716.7 673L1718 730.8L1719.3 641.4L1720.7 689.7L1722 674.6L1723.3 704.8L1724.7 585.5L1726 701.1L1727.3 600L1728.7 687.6L1730 581.2L1731.3 697.4L1732.7 579.6L1734 699.5L1735.3 577.5L1736.7 687L1738 609.6L1739.3 709.6L1740.7 593.1L1742 710.6L1743.3 622.1L1744.7 700.6L1746 645.9L1747.3 666.1L1748.7 649.4L1750 733.2L1751.3 616.2L1752.7 715.4L1754 566.4L1755.3 691.3L1756.7 583.9L1758 704L1759.3 644.1L1760.7 736.1L1762 647.3L1763.3 692.6L1764.7 661.8L1766 697.4L1767.3 627.4L1768.7 715.2L1770 610.4L1771.3 718.9L1772.7 649.9L1774 711.4L1775.3 594.2L1776.7 700.6L1778 594.2L1779.3 710.1L1780.7 615.2L1782 711.4L1783.3 626.8L1784.7 735.3L1786 682.3L1787.3 740.4L1788.7 677L1790 686.2L1791.3 647.8L1792.7 698.4L1794 657.3L1795.3 724.2L1796.7 640.1L1798 725.5L1799.3 643" fill="transparent" stroke="#3fb1e3" stroke-width="3" stroke-linejoin="bevel" class="zr19-cls-59"></path>
</g>
<path d="M-240.5 -5l481.1 0l0 28l-481.1 0Z" transform="translate(1000 5)" fill="rgb(0,0,0)" fill-opacity="0" stroke="#ccc" stroke-width="0" class="zr19-cls-57"></path>
<text dominant-baseline="central" text-anchor="middle" style="font-size:18px;font-family:sans-serif;font-weight:bold;" xml:space="preserve" y="9" transform="translate(1000 5)" fill="#666666">Min transportLinesUpdate per Tick for bench_4_every_240</text>
<defs >
<clipPath id="zr19-c0">
<path d="M198 58.5l16004 0l0 8703l-16004 0Z" fill="#000" class="zr19-cls-58"></path>
</clipPath>
</defs>
<style ><![CDATA[
.zr19-cls-57:hover {
pointer-events:none;
}
.zr19-cls-58:hover {
cursor:pointer;
fill:rgba(0,0,0,1);
}
.zr19-cls-59:hover {
cursor:pointer;
}

]]>

</style>
</svg>