<svg width="2000" height="1000" xmlns="http://www.w3.org/2000/svg" xmlns:xlink="http://www.w3.org/1999/xlink" version="1.1" baseProfile="full" viewBox="0 0 2000 1000">
<rect width="2000" height="1000" x="0" y="0" fill="rgb(252,252,252)" fill-opacity="0"></rect>
<path d="M200 930.5L1800 930.5" fill="transparent" stroke="#eeeeee" class="zr9-cls-27"></path>
<path d="M200 772.5L1800 772.5" fill="transparent" stroke="#eeeeee" class="zr9-cls-27"></path>
<path d="M200 614.5L1800 614.5" fill="transparent" stroke="#eeeeee" class="zr9-cls-27"></path>
<path d="M200 457.5L1800 457.5" fill="transparent" stroke="#eeeeee" class="zr9-cls-27"></path>
<path d="M200 299.5L1800 299.5" fill="transparent" stroke="#eeeeee" class="zr9-cls-27"></path>
<path d="M200 141.5L1800 141.5" fill="transparent" stroke="#eeeeee" class="zr9-cls-27"></path>
<path d="M200 60.5L1800 60.5" fill="transparent" stroke="#eeeeee" class="zr9-cls-27"></path>
<path d="M200.5 930L200.5 60" fill="transparent" stroke="#cccccc" stroke-linecap="round" class="zr9-cls-27"></path>
<text dominant-baseline="central" text-anchor="middle" style="font-size:12px;font-family:sans-serif;" xml:space="preserve" y="-6" transform="translate(200 45)" fill="#cccccc">Min wholeUpdate Time (ms)</text>
<path d="M200 930.5L1800 930.5" fill="transparent" stroke="#cccccc" stroke-linecap="round" class="zr9-cls-27"></path>
<text dominant-baseline="central" text-anchor="end" style="font-size:12px;font-family:sans-serif;" transform="translate(192 930)" fill="#999999">0.000</text>
<text dominant-baseline="central" text-anchor="end" style="font-size:12px;font-family:sans-serif;" transform="translate(192 772.2886)" fill="#999999">1.000</text>
<text dominant-baseline="central" text-anchor="end" style="font-size:12px;font-family:sans-serif;" transform="translate(192 614.5773)" fill="#999999">2.000</text>
<text dominant-baseline="central" text-anchor="end" style="font-size:12px;font-family:sans-serif;" transform="translate(192 456.8659)" fill="#999999">3.000</text>
<text dominant-baseline="central" text-anchor="end" style="font-size:12px;font-family:sans-serif;" transform="translate(192 299.1546)" fill="#999999">4.000</text>
<text dominant-baseline="central" text-anchor="end" style="font-size:12px;font-family:sans-serif;" transform="translate(192 141.4432)" fill="#999999">5.000</text>
<text dominant-baseline="central" text-anchor="end" style="font-size:12px;font-family:sans-serif;" transform="translate(192 60)" fill="#999999">5.516</text>
<text dominant-baseline="central" text-anchor="middle" style="font-size:12px;font-family:sans-serif;" y="6" transform="translate(200.6667 938)" fill="#999999">0</text>
<text dominant-baseline="central" text-anchor="middle" style="font-size:12px;font-family:sans-serif;" y="6" transform="translate(236.6667 938)" fill="#999999">27</text>
<text dominant-baseline="central" text-anchor="middle" style="font-size:12px;font-family:sans-serif;" y="6" transform="translate(272.6667 938)" fill="#999999">54</text>
<text dominant-baseline="central" text-anchor="middle" style="font-size:12px;font-family:sans-serif;" y="6" transform="translate(308.6667 938)" fill="#999999">81</text>
<text dominant-baseline="central" text-anchor="middle" style="font-size:12px;font-family:sans-serif;" y="6" transform="translate(344.6667 938)" fill="#999999">108</text>
<text dominant-baseline="central" text-anchor="middle" style="font-size:12px;font-family:sans-serif;" y="6" transform="translate(380.6667 938)" fill="#999999">135</text>
<text dominant-baseline="central" text-anchor="middle" style="font-size:12px;font-family:sans-serif;" y="6" transform="translate(416.6667 938)" fill="#999999">162</text>
<text dominant-baseline="central" text-anchor="middle" style="font-size:12px;font-family:sans-serif;" y="6" transform="translate(452.6667 938)" fill="#999999">189</text>
<text dominant-baseline="central" text-anchor="middle" style="font-size:12px;font-family:sans-serif;" y="6" transform="translate(488.6667 938)" fill="#999999">216</text>
<text dominant-baseline="central" text-anchor="middle" style="font-size:12px;font-family:sans-serif;" y="6" transform="translate(524.6667 938)" fill="#999999">243</text>
<text dominant-baseline="central" text-anchor="middle" style="font-size:12px;font-family:sans-serif;" y="6" transform="translate(560.6667 938)" fill="#999999">270</text>
<text dominant-baseline="central" text-anchor="middle" style="font-size:12px;font-family:sans-serif;" y="6" transform="translate(596.6667 938)" fill="#999999">297</text>
<text dominant-baseline="central" text-anchor="middle" style="font-size:12px;font-family:sans-serif;" y="6" transform="translate(632.6667 938)" fill="#999999">324</text>
<text dominant-baseline="central" text-anchor="middle" style="font-size:12px;font-family:sans-serif;" y="6" transform="translate(668.6667 938)" fill="#999999">351</text>
<text dominant-baseline="central" text-anchor="middle" style="font-size:12px;font-family:sans-serif;" y="6" transform="translate(704.6667 938)" fill="#999999">378</text>
<text dominant-baseline="central" text-anchor="middle" style="font-size:12px;font-family:sans-serif;" y="6" transform="translate(740.6667 938)" fill="#999999">405</text>
<text dominant-baseline="central" text-anchor="middle" style="font-size:12px;font-family:sans-serif;" y="6" transform="translate(776.6667 938)" fill="#999999">432</text>
<text dominant-baseline="central" text-anchor="middle" style="font-size:12px;font-family:sans-serif;" y="6" transform="translate(812.6667 938)" fill="#999999">459</text>
<text dominant-baseline="central" text-anchor="middle" style="font-size:12px;font-family:sans-serif;" y="6" transform="translate(848.6667 938)" fill="#999999">486</text>
<text dominant-baseline="central" text-anchor="middle" style="font-size:12px;font-family:sans-serif;" y="6" transform="translate(884.6667 938)" fill="#999999">513</text>
<text dominant-baseline="central" text-anchor="middle" style="font-size:12px;font-family:sans-serif;" y="6" transform="translate(920.6667 938)" fill="#999999">540</text>
<text dominant-baseline="central" text-anchor="middle" style="font-size:12px;font-family:sans-serif;" y="6" transform="translate(956.6667 938)" fill="#999999">567</text>
<text dominant-baseline="central" text-anchor="middle" style="font-size:12px;font-family:sans-serif;" y="6" transform="translate(992.6667 938)" fill="#999999">594</text>
<text dominant-baseline="central" text-anchor="middle" style="font-size:12px;font-family:sans-serif;" y="6" transform="translate(1028.6667 938)" fill="#999999">621</text>
<text dominant-baseline="central" text-anchor="middle" style="font-size:12px;font-family:sans-serif;" y="6" transform="translate(1064.6667 938)" fill="#999999">648</text>
<text dominant-baseline="central" text-anchor="middle" style="font-size:12px;font-family:sans-serif;" y="6" transform="translate(1100.6667 938)" fill="#999999">675</text>
<text dominant-baseline="central" text-anchor="middle" style="font-size:12px;font-family:sans-serif;" y="6" transform="translate(1136.6667 938)" fill="#999999">702</text>
<text dominant-baseline="central" text-anchor="middle" style="font-size:12px;font-family:sans-serif;" y="6" transform="translate(1172.6667 938)" fill="#999999">729</text>
<text dominant-baseline="central" text-anchor="middle" style="font-size:12px;font-family:sans-serif;" y="6" transform="translate(1208.6667 938)" fill="#999999">756</text>
<text dominant-baseline="central" text-anchor="middle" style="font-size:12px;font-family:sans-serif;" y="6" transform="translate(1244.6667 938)" fill="#999999">783</text>
<text dominant-baseline="central" text-anchor="middle" style="font-size:12px;font-family:sans-serif;" y="6" transform="translate(1280.6667 938)" fill="#999999">810</text>
<text dominant-baseline="central" text-anchor="middle" style="font-size:12px;font-family:sans-serif;" y="6" transform="translate(1316.6667 938)" fill="#999999">837</text>
<text dominant-baseline="central" text-anchor="middle" style="font-size:12px;font-family:sans-serif;" y="6" transform="translate(1352.6667 938)" fill="#999999">864</text>
<text dominant-baseline="central" text-anchor="middle" style="font-size:12px;font-family:sans-serif;" y="6" transform="translate(1388.6667 938)" fill="#999999">891</text>
<text dominant-baseline="central" text-anchor="middle" style="font-size:12px;font-family:sans-serif;" y="6" transform="translate(1424.6667 938)" fill="#999999">918</text>
<text dominant-baseline="central" text-anchor="middle" style="font-size:12px;font-family:sans-serif;" y="6" transform="translate(1460.6667 938)" fill="#999999">945</text>
<text dominant-baseline="central" text-anchor="middle" style="font-size:12px;font-family:sans-serif;" y="6" transform="translate(1496.6667 938)" fill="#999999">972</text>
<text dominant-baseline="central" text-anchor="middle" style="font-size:12px;font-family:sans-serif;" y="6" transform="translate(1532.6667 938)" fill="#999999">999</text>
<text dominant-baseline="central" text-anchor="middle" style="font-size:12px;font-family:sans-serif;" y="6" transform="translate(1568.6667 938)" fill="#999999">1026</text>
<text dominant-baseline="central" text-anchor="middle" style="font-size:12px;font-family:sans-serif;" y="6" transform="translate(1604.6667 938)" fill="#999999">1053</text>
<text dominant-baseline="central" text-anchor="middle" style="font-size:12px;font-family:sans-serif;" y="6" transform="translate(1640.6667 938)" fill="#999999">1080</text>
<text dominant-baseline="central" text-anchor="middle" style="font-size:12px;font-family:sans-serif;" y="6" transform="translate(1676.6667 938)" fill="#999999">1107</text>
<text dominant-baseline="central" text-anchor="middle" style="font-size:12px;font-family:sans-serif;" y="6" transform="translate(1712.6667 938)" fill="#999999">1134</text>
<text dominant-baseline="central" text-anchor="middle" style="font-size:12px;font-family:sans-serif;" y="6" transform="translate(1748.6667 938)" fill="#999999">1161</text>
<text dominant-baseline="central" text-anchor="middle" style="font-size:12px;font-family:sans-serif;" y="6" transform="translate(1784.6667 938)" fill="#999999">1188</text>
<g clip-path="url(#zr9-c0)">
<path d="M200.7 349.9L202 704.5L203.3 701.9L204.7 525L206 617.2L207.3 609.9L208.7 692.8L210 656.3L211.3 776.2L212.7 733.9L214 782.5L215.3 510L216.7 604.4L218 664.3L219.3 723.8L220.7 641.9L222 789.3L223.3 749.7L224.7 786.4L226 523.5L227.3 611.9L228.7 618.2L230 689.7L231.3 637.9L232.7 791.3L234 750.7L235.3 788.9L236.7 508.8L238 590.6L239.3 626.6L240.7 685.8L242 660.2L243.3 781.3L244.7 746.1L246 780.7L247.3 522.7L248.7 612.1L250 664.7L251.3 705.5L252.7 677.7L254 797.8L255.3 750.2L256.7 795.7L258 520.4L259.3 604L260.7 648.8L262 704.6L263.3 628.8L264.7 795.1L266 745.6L267.3 789.8L268.7 538.1L270 587.2L271.3 654.6L272.7 719.1L274 656.8L275.3 799.5L276.7 755.2L278 781.2L279.3 537.1L280.7 599.1L282 619.1L283.3 732.1L284.7 618.6L286 793.9L287.3 752.9L288.7 799.5L290 556.9L291.3 608.3L292.7 665.9L294 735L295.3 689.4L296.7 782.3L298 761.6L299.3 796.5L300.7 528.5L302 616.1L303.3 636.5L304.7 716L306 666.6L307.3 791.8L308.7 754.2L310 793.1L311.3 558L312.7 543.1L314 680.6L315.3 620.2L316.7 629.9L318 715.7L319.3 747.8L320.7 731.6L322 525.2L323.3 533.3L324.7 626.4L326 617.7L327.3 658.1L328.7 722.3L330 743.7L331.3 730.7L332.7 514.1L334 533.4L335.3 634.4L336.7 633.8L338 666.2L339.3 729.4L340.7 742.5L342 727.5L343.3 540.7L344.7 533.4L346 619.4L347.3 597.4L348.7 635.9L350 727.4L351.3 741.9L352.7 733.8L354 528.1L355.3 516L356.7 650L358 609.4L359.3 649.9L360.7 715.6L362 765.8L363.3 745.6L364.7 531.3L366 539.1L367.3 636.3L368.7 634.4L370 664.1L371.3 708.9L372.7 767.7L374 725.3L375.3 508.3L376.7 532.1L378 645.6L379.3 652.8L380.7 634.7L382 714.5L383.3 764.1L384.7 736.4L386 536.2L387.3 523.5L388.7 661L390 621.3L391.3 638.7L392.7 697.4L394 749.5L395.3 715.3L396.7 519.4L398 547.4L399.3 656.2L400.7 621.9L402 685.5L403.3 740.9L404.7 769L406 717.7L407.3 537.8L408.7 537.6L410 659.6L411.3 635.8L412.7 639L414 710.7L415.3 762.4L416.7 738.9L418 537.8L419.3 543.1L420.7 670.9L422 638.9L423.3 661.3L424.7 722.7L426 762.2L427.3 729L428.7 541.8L430 502L431.3 642.9L432.7 620L434 670.5L435.3 718.6L436.7 769.8L438 732.6L439.3 541L440.7 527.3L442 677.6L443.3 639.2L444.7 698.1L446 727.9L447.3 779.5L448.7 740.1L450 544.2L451.3 531.9L452.7 664.5L454 617.7L455.3 673.9L456.7 740.8L458 780.7L459.3 735.2L460.7 555.6L462 542.6L463.3 678L464.7 648.9L466 681.2L467.3 730.9L468.7 778.5L470 734.5L471.3 530.9L472.7 525.1L474 644.7L475.3 617.7L476.7 676.9L478 722.4L479.3 778.2L480.7 741.3L482 548.8L483.3 549.7L484.7 678.7L486 635.9L487.3 671.3L488.7 721.3L490 781.4L491.3 738.6L492.7 547.9L494 547.6L495.3 674.6L496.7 635.2L498 681.4L499.3 740.3L500.7 792.1L502 735.6L503.3 562.4L504.7 532.1L506 661L507.3 660.7L508.7 701.7L510 725.6L511.3 792.1L512.7 727.5L514 575.2L515.3 530.1L516.7 663.9L518 625.1L519.3 630.9L520.7 680.1L522 746.7L523.3 719.7L524.7 550.1L526 634L527.3 614L528.7 695.2L530 653.5L531.3 787L532.7 748.1L534 788.2L535.3 495.4L536.7 613L538 653.7L539.3 728.6L540.7 663.8L542 792.7L543.3 736.1L544.7 791.7L546 502.8L547.3 582.6L548.7 653.2L550 714.9L551.3 639.1L552.7 781.4L554 755.6L555.3 797L556.7 534.2L558 596.6L559.3 613L560.7 700.6L562 650.7L563.3 789.1L564.7 742.1L566 782.3L567.3 527.8L568.7 617.4L570 659.3L571.3 723.3L572.7 648.4L574 788.2L575.3 735L576.7 789L578 546.2L579.3 594.2L580.7 656.1L582 684.9L583.3 656.7L584.7 780.5L586 756.5L587.3 797.9L588.7 526.4L590 618.6L591.3 638.1L592.7 716.6L594 641.3L595.3 792.1L596.7 747.3L598 776.5L599.3 546.4L600.7 606.5L602 614.9L603.3 725.6L604.7 652.6L606 793.2L607.3 753.1L608.7 794.6L610 542.4L611.3 621.9L612.7 647.7L614 723.9L615.3 690.5L616.7 778.5L618 728.9L619.3 801.2L620.7 538.9L622 601.5L623.3 652.2L624.7 710.5L626 673.1L627.3 797.7L628.7 761.3L630 795.9L631.3 539L632.7 565.2L634 681.1L635.3 586.1L636.7 637.2L638 710.6L639.3 737.9L640.7 724.8L642 542.2L643.3 528.3L644.7 633.3L646 618.8L647.3 619.4L648.7 727L650 749.8L651.3 728.6L652.7 540.6L654 540.1L655.3 635.3L656.7 624.3L658 632.9L659.3 723.7L660.7 759.8L662 731.4L663.3 525.3L664.7 521.4L666 627.6L667.3 616.2L668.7 632.6L670 723.3L671.3 750.8L672.7 728.3L674 527.5L675.3 534.6L676.7 660.2L678 596.7L679.3 655.7L680.7 720.4L682 755L683.3 733.6L684.7 510.9L686 532.1L687.3 624.1L688.7 621L690 641.5L691.3 719.7L692.7 758.3L694 725.1L695.3 507.8L696.7 543.3L698 671L699.3 639.3L700.7 661.5L702 728.2L703.3 769.9L704.7 738.3L706 534.2L707.3 514.1L708.7 642.6L710 651L711.3 660.6L712.7 709.4L714 755.7L715.3 735.3L716.7 525L718 546.5L719.3 670.1L720.7 637.9L722 669L723.3 739.7L724.7 773.6L726 734.3L727.3 502.6L728.7 509.4L730 646L731.3 654.2L732.7 641.1L734 718.7L735.3 772L736.7 742.9L738 533.7L739.3 548.2L740.7 661.9L742 626.5L743.3 681.6L744.7 714.8L746 777.1L747.3 740.9L748.7 548.6L750 535.6L751.3 617.3L752.7 627.5L754 672.5L755.3 740.2L756.7 760.7L758 728L759.3 536.6L760.7 539.9L762 665.2L763.3 621.4L764.7 687.5L766 733.8L767.3 768L768.7 739.8L770 527.4L771.3 537.4L772.7 663.1L774 644.7L775.3 679.7L776.7 734.1L778 785.7L779.3 746.4L780.7 563.1L782 548L783.3 698.7L784.7 659.7L786 671.8L787.3 740.6L788.7 772.4L790 733.2L791.3 558.1L792.7 542.2L794 662.8L795.3 629.3L796.7 660.6L798 725.1L799.3 779.5L800.7 743L802 544.5L803.3 547.4L804.7 697.1L806 629.7L807.3 675.3L808.7 736.4L810 787.4L811.3 730.9L812.7 564.5L814 528.4L815.3 674.6L816.7 621.3L818 669.7L819.3 731.9L820.7 778.3L822 732.5L823.3 566.4L824.7 564.9L826 683.6L827.3 658.3L828.7 689.1L830 736.7L831.3 786.5L832.7 747.2L834 560L835.3 545.3L836.7 692L838 648.5L839.3 625.6L840.7 678.4L842 763.4L843.3 693.6L844.7 538.2L846 636.7L847.3 587.5L848.7 708L850 654.4L851.3 787.4L852.7 741L854 782L855.3 521.1L856.7 579L858 620.9L859.3 700.9L860.7 618L862 787.3L863.3 734.7L864.7 788.7L866 527.3L867.3 613.1L868.7 637.8L870 686.9L871.3 656.3L872.7 789.5L874 751.3L875.3 790.8L876.7 544.9L878 591.6L879.3 641.8L880.7 689.8L882 630.1L883.3 791L884.7 751.1L886 791.1L887.3 516.1L888.7 600.9L890 644.4L891.3 689L892.7 672L894 789.2L895.3 727.1L896.7 791.8L898 540.3L899.3 607.1L900.7 644.6L902 700.2L903.3 623.8L904.7 772.5L906 754.5L907.3 788.3L908.7 541.4L910 603.4L911.3 652.8L912.7 713.4L914 656.8L915.3 790.6L916.7 756.8L918 789.1L919.3 537.7L920.7 599.2L922 643.1L923.3 735.4L924.7 664.6L926 798.7L927.3 753.2L928.7 798.6L930 542.2L931.3 631.9L932.7 657.7L934 696L935.3 680.2L936.7 792.5L938 744.4L939.3 783.1L940.7 569.8L942 588.6L943.3 647.3L944.7 717.1L946 666.7L947.3 788.8L948.7 743.5L950 789.9L951.3 540.6L952.7 538.2L954 676L955.3 599.5L956.7 626.8L958 700.6L959.3 755.6L960.7 738.6L962 527.6L963.3 534.6L964.7 641.8L966 603.9L967.3 622.4L968.7 729.1L970 752.9L971.3 742.7L972.7 540.9L974 529.6L975.3 625.5L976.7 645L978 656.8L979.3 728.6L980.7 747.2L982 708.8L983.3 519.8L984.7 529.4L986 613.3L987.3 600.9L988.7 623.9L990 735.9L991.3 763.7L992.7 737.2L994 499.1L995.3 546.2L996.7 660.8L998 632.1L999.3 686.4L1000.7 743.2L1002 762.5L1003.3 734.2L1004.7 518.6L1006 496.6L1007.3 655L1008.7 641L1010 662.6L1011.3 730.8L1012.7 760.6L1014 721.7L1015.3 521.7L1016.7 532.9L1018 663.2L1019.3 634.4L1020.7 644.8L1022 730.2L1023.3 749L1024.7 728.1L1026 533.2L1027.3 513.3L1028.7 635.5L1030 596.4L1031.3 643.6L1032.7 729.9L1034 766.7L1035.3 724.3L1036.7 539.2L1038 550.9L1039.3 651.1L1040.7 639.3L1042 665.5L1043.3 717.7L1044.7 762.9L1046 723.6L1047.3 528L1048.7 526.9L1050 619.2L1051.3 613.9L1052.7 668L1054 724.3L1055.3 768.2L1056.7 732.2L1058 536.3L1059.3 547.4L1060.7 685.3L1062 641.3L1063.3 654.2L1064.7 716.6L1066 772.5L1067.3 742L1068.7 542L1070 538.3L1071.3 646.5L1072.7 664.4L1074 685.1L1075.3 722L1076.7 768.5L1078 714.8L1079.3 519.7L1080.7 534.3L1082 684.4L1083.3 639.4L1084.7 698.7L1086 740.2L1087.3 768.2L1088.7 737.1L1090 569.6L1091.3 560.5L1092.7 692.9L1094 651.4L1095.3 672.3L1096.7 742.4L1098 783.6L1099.3 741.8L1100.7 576L1102 534.9L1103.3 680.4L1104.7 619.5L1106 674.5L1107.3 735.6L1108.7 786L1110 739.8L1111.3 574.6L1112.7 527.2L1114 656.7L1115.3 639.8L1116.7 691.2L1118 729.6L1119.3 777.8L1120.7 745.1L1122 544.4L1123.3 534.1L1124.7 650.7L1126 634.3L1127.3 676.4L1128.7 731.1L1130 786.8L1131.3 733.6L1132.7 542.2L1134 513.7L1135.3 659.4L1136.7 641.8L1138 688.8L1139.3 729.4L1140.7 764.3L1142 720.5L1143.3 538L1144.7 566.6L1146 709.5L1147.3 625.4L1148.7 696.9L1150 733.4L1151.3 789.4L1152.7 740.2L1154 558.5L1155.3 550.2L1156.7 673.4L1158 657.5L1159.3 622.6L1160.7 691.5L1162 748.9L1163.3 727.7L1164.7 574.3L1166 632.7L1167.3 605.8L1168.7 680.5L1170 661.2L1171.3 779L1172.7 741.9L1174 785L1175.3 534.3L1176.7 567.3L1178 609.6L1179.3 703.4L1180.7 630.7L1182 778.3L1183.3 750.9L1184.7 790.5L1186 508.2L1187.3 597.5L1188.7 625.7L1190 682.1L1191.3 660.3L1192.7 788.2L1194 751.2L1195.3 797.7L1196.7 517.9L1198 584L1199.3 630.7L1200.7 697.5L1202 642L1203.3 789.7L1204.7 727.3L1206 782.5L1207.3 530.2L1208.7 629.2L1210 633L1211.3 698.8L1212.7 670L1214 786.9L1215.3 749.5L1216.7 793.4L1218 527.9L1219.3 585.7L1220.7 657.8L1222 697.8L1223.3 648.9L1224.7 793.8L1226 756.4L1227.3 794.4L1228.7 524.7L1230 612.3L1231.3 641.8L1232.7 713.2L1234 632.7L1235.3 791.1L1236.7 745L1238 778L1239.3 530L1240.7 602.6L1242 615.4L1243.3 676.8L1244.7 633.9L1246 787.5L1247.3 751.9L1248.7 787.8L1250 537.3L1251.3 617.8L1252.7 643.5L1254 713.2L1255.3 634.6L1256.7 797.2L1258 754.4L1259.3 795.4L1260.7 549.6L1262 582.6L1263.3 646.9L1264.7 692.7L1266 643.6L1267.3 785.8L1268.7 752.8L1270 791L1271.3 551.2L1272.7 548.1L1274 676.1L1275.3 604.4L1276.7 613L1278 712.7L1279.3 750.6L1280.7 732.3L1282 529.9L1283.3 502.9L1284.7 624.3L1286 608.8L1287.3 616.6L1288.7 709.5L1290 759.3L1291.3 738.9L1292.7 523.4L1294 508.9L1295.3 632.1L1296.7 618.7L1298 663.5L1299.3 735L1300.7 746.6L1302 737L1303.3 522.3L1304.7 525L1306 637.1L1307.3 636.4L1308.7 658.1L1310 740.1L1311.3 744.9L1312.7 739.5L1314 530.2L1315.3 525.3L1316.7 643.5L1318 606.9L1319.3 668.2L1320.7 734.5L1322 766.2L1323.3 719.9L1324.7 516.9L1326 530.1L1327.3 618.6L1328.7 611.7L1330 630.7L1331.3 719.4L1332.7 767L1334 716.9L1335.3 528.2L1336.7 510.6L1338 654.7L1339.3 649.7L1340.7 686.4L1342 732.4L1343.3 763.5L1344.7 740.1L1346 551.7L1347.3 542.6L1348.7 608.3L1350 647.5L1351.3 643.8L1352.7 724.5L1354 762.9L1355.3 739.4L1356.7 537L1358 547.2L1359.3 663.1L1360.7 641.6L1362 686.3L1363.3 727.6L1364.7 756.6L1366 728.6L1367.3 533.9L1368.7 512.1L1370 663.2L1371.3 634.1L1372.7 662.6L1374 731.5L1375.3 773.9L1376.7 728.4L1378 523.4L1379.3 518.3L1380.7 656.7L1382 613.7L1383.3 673.9L1384.7 725.9L1386 759.6L1387.3 747.4L1388.7 521.9L1390 516.1L1391.3 643.6L1392.7 632.8L1394 648.7L1395.3 716.6L1396.7 758.8L1398 729.4L1399.3 551.7L1400.7 540.6L1402 645.5L1403.3 600.6L1404.7 665.9L1406 731.1L1407.3 783.4L1408.7 738.2L1410 548.7L1411.3 554.4L1412.7 664.1L1414 593.2L1415.3 648.1L1416.7 717.2L1418 765.9L1419.3 739.7L1420.7 569.9L1422 527.4L1423.3 649.7L1424.7 641.9L1426 655.6L1427.3 731.9L1428.7 781.6L1430 731.5L1431.3 554.9L1432.7 549.2L1434 670.4L1435.3 666.1L1436.7 672.3L1438 743L1439.3 788.1L1440.7 739.9L1442 534.5L1443.3 549.7L1444.7 686.6L1446 618.6L1447.3 690.3L1448.7 743.5L1450 794.1L1451.3 741.7L1452.7 568.4L1454 521.8L1455.3 650.7L1456.7 626.8L1458 671.9L1459.3 727.1L1460.7 760.3L1462 734.1L1463.3 565.8L1464.7 553.7L1466 701.5L1467.3 673.7L1468.7 689.3L1470 716.6L1471.3 790.2L1472.7 736.1L1474 556.4L1475.3 547L1476.7 668.5L1478 616.5L1479.3 595.3L1480.7 676.3L1482 753L1483.3 688.9L1484.7 553L1486 639.5L1487.3 603.7L1488.7 685L1490 637.6L1491.3 785.3L1492.7 744.4L1494 785L1495.3 494.9L1496.7 589.5L1498 622L1499.3 724L1500.7 645.9L1502 786.4L1503.3 727.2L1504.7 789.9L1506 528.6L1507.3 592.5L1508.7 630.9L1510 698.5L1511.3 639.7L1512.7 765.2L1514 696.9L1515.3 774.4L1516.7 488L1518 570.9L1519.3 640.4L1520.7 696L1522 621.2L1523.3 773L1524.7 728.9L1526 795.6L1527.3 501.9L1528.7 599.3L1530 641.1L1531.3 699.8L1532.7 634.6L1534 793L1535.3 743.8L1536.7 786.1L1538 525.9L1539.3 602.5L1540.7 645.2L1542 704L1543.3 648.6L1544.7 784.8L1546 747.5L1547.3 787.7L1548.7 529.4L1550 613.4L1551.3 653.3L1552.7 711.9L1554 649.5L1555.3 795.9L1556.7 747.9L1558 788.6L1559.3 546.1L1560.7 621.2L1562 637.9L1563.3 729.8L1564.7 667.3L1566 778L1567.3 753.5L1568.7 780L1570 522.7L1571.3 601.3L1572.7 641.6L1574 695.5L1575.3 656.8L1576.7 797.1L1578 730.2L1579.3 798.6L1580.7 522.3L1582 622.2L1583.3 650.3L1584.7 697.2L1586 654.5L1587.3 797.3L1588.7 745.1L1590 794.9L1591.3 532.6L1592.7 563.7L1594 698.3L1595.3 614.2L1596.7 627.2L1598 724.1L1599.3 736.1L1600.7 727.1L1602 531.1L1603.3 512.6L1604.7 656.3L1606 622.6L1607.3 658.5L1608.7 710.9L1610 742.2L1611.3 718.2L1612.7 513.6L1614 531.2L1615.3 648.8L1616.7 612.5L1618 655.1L1619.3 722.8L1620.7 754.4L1622 699.6L1623.3 507.1L1624.7 498L1626 590.7L1627.3 591.9L1628.7 601.2L1630 709.3L1631.3 739.3L1632.7 735.1L1634 501.6L1635.3 503.8L1636.7 649.5L1638 615.1L1639.3 644.5L1640.7 724.3L1642 757.1L1643.3 734.9L1644.7 541.9L1646 508.6L1647.3 619.7L1648.7 629.4L1650 655.6L1651.3 728L1652.7 756.5L1654 722.7L1655.3 532.5L1656.7 529.9L1658 639L1659.3 607L1660.7 649.9L1662 730.5L1663.3 765.7L1664.7 732.7L1666 518.6L1667.3 526.8L1668.7 642.8L1670 629L1671.3 641.1L1672.7 725.9L1674 761.4L1675.3 729L1676.7 535.6L1678 529.7L1679.3 650.1L1680.7 629.6L1682 687.4L1683.3 716.3L1684.7 762.3L1686 727.9L1687.3 540.6L1688.7 537.9L1690 656.2L1691.3 633.8L1692.7 675.8L1694 725.3L1695.3 769.6L1696.7 739.7L1698 555.9L1699.3 530L1700.7 654.2L1702 617.7L1703.3 657L1704.7 741.2L1706 778L1707.3 737.9L1708.7 537.1L1710 503.4L1711.3 640.8L1712.7 615.4L1714 650.9L1715.3 710.4L1716.7 763.1L1718 728.6L1719.3 539.4L1720.7 544.6L1722 672.4L1723.3 618.5L1724.7 689.1L1726 735.3L1727.3 782.2L1728.7 736.3L1730 526.9L1731.3 526.4L1732.7 671.2L1734 646.3L1735.3 689.1L1736.7 714.8L1738 757.7L1739.3 737.2L1740.7 543.8L1742 567.6L1743.3 684.1L1744.7 650.5L1746 689.2L1747.3 733.7L1748.7 782.4L1750 728.4L1751.3 548.7L1752.7 537.5L1754 692.8L1755.3 652.1L1756.7 667.7L1758 722.8L1759.3 777.6L1760.7 746.3L1762 573.2L1763.3 560.4L1764.7 713.7L1766 652L1767.3 705.8L1768.7 746.5L1770 792.8L1771.3 748.1L1772.7 571.3L1774 540.5L1775.3 679.7L1776.7 661.2L1778 691.2L1779.3 734.8L1780.7 789.1L1782 732.6L1783.3 561.4L1784.7 555.4L1786 663.5L1787.3 643.5L1788.7 691L1790 720L1791.3 787.4L1792.7 740.4L1794 537.9L1795.3 544.4L1796.7 654L1798 624.5L1799.3 623" fill="transparent" stroke="#3fb1e3" stroke-width="3" stroke-linejoin="bevel" class="zr9-cls-29"></path>
</g>
<path d="M-287.2 -5l574.5 0l0 28l-574.5 0Z" transform="translate(1000 5)" fill="rgb(0,0,0)" fill-opacity="0" stroke="#ccc" stroke-width="0" class="zr9-cls-27"></path>
<text dominant-baseline="central" text-anchor="middle" style="font-size:18px;font-family:sans-serif;font-weight:bold;" xml:space="preserve" y="9" transform="translate(1000 5)" fill="#666666">Min wholeUpdate per Tick for bench_4_every_240_staggered_reverse</text>
<defs >
<clipPath id="zr9-c0">
<path d="M198 58.5l16004 0l0 8703l-16004 0Z" fill="#000" class="zr9-cls-28"></path>
</clipPath>
</defs>
<style ><![CDATA[
.zr9-cls-27:hover {
pointer-events:none;
}
.zr9-cls-28:hover {
cursor:pointer;
fill:rgba(0,0,0,1);
}
.zr9-cls-29:hover {
cursor:pointer;
}

]]>

</style>
</svg>