<svg width="2000" height="1000" xmlns="http://www.w3.org/2000/svg" xmlns:xlink="http://www.w3.org/1999/xlink" version="1.1" baseProfile="full" viewBox="0 0 2000 1000">
<rect width="2000" height="1000" x="0" y="0" fill="rgb(252,252,252)" fill-opacity="0"></rect>
<path d="M200 930.5L1800 930.5" fill="transparent" stroke="#eeeeee" class="zr12-cls-36"></path>
<path d="M200 762.5L1800 762.5" fill="transparent" stroke="#eeeeee" class="zr12-cls-36"></path>
<path d="M200 593.5L1800 593.5" fill="transparent" stroke="#eeeeee" class="zr12-cls-36"></path>
<path d="M200 425.5L1800 425.5" fill="transparent" stroke="#eeeeee" class="zr12-cls-36"></path>
<path d="M200 257.5L1800 257.5" fill="transparent" stroke="#eeeeee" class="zr12-cls-36"></path>
<path d="M200 89.5L1800 89.5" fill="transparent" stroke="#eeeeee" class="zr12-cls-36"></path>
<path d="M200 60.5L1800 60.5" fill="transparent" stroke="#eeeeee" class="zr12-cls-36"></path>
<path d="M200.5 930L200.5 60" fill="transparent" stroke="#cccccc" stroke-linecap="round" class="zr12-cls-36"></path>
<text dominant-baseline="central" text-anchor="middle" style="font-size:12px;font-family:sans-serif;" xml:space="preserve" y="-6" transform="translate(200 45)" fill="#cccccc">controlBehaviorUpdate Time (ms)</text>
<path d="M200 930.5L1800 930.5" fill="transparent" stroke="#cccccc" stroke-linecap="round" class="zr12-cls-36"></path>
<text dominant-baseline="central" text-anchor="end" style="font-size:12px;font-family:sans-serif;" transform="translate(192 930)" fill="#999999">0.000</text>
<text dominant-baseline="central" text-anchor="end" style="font-size:12px;font-family:sans-serif;" transform="translate(192 761.853)" fill="#999999">0.200</text>
<text dominant-baseline="central" text-anchor="end" style="font-size:12px;font-family:sans-serif;" transform="translate(192 593.706)" fill="#999999">0.400</text>
<text dominant-baseline="central" text-anchor="end" style="font-size:12px;font-family:sans-serif;" transform="translate(192 425.559)" fill="#999999">0.600</text>
<text dominant-baseline="central" text-anchor="end" style="font-size:12px;font-family:sans-serif;" transform="translate(192 257.412)" fill="#999999">0.800</text>
<text dominant-baseline="central" text-anchor="end" style="font-size:12px;font-family:sans-serif;" transform="translate(192 89.265)" fill="#999999">1.000</text>
<text dominant-baseline="central" text-anchor="end" style="font-size:12px;font-family:sans-serif;" transform="translate(192 60)" fill="#999999">1.035</text>
<text dominant-baseline="central" text-anchor="middle" style="font-size:12px;font-family:sans-serif;" y="6" transform="translate(200.6667 938)" fill="#999999">0</text>
<text dominant-baseline="central" text-anchor="middle" style="font-size:12px;font-family:sans-serif;" y="6" transform="translate(236.6667 938)" fill="#999999">27</text>
<text dominant-baseline="central" text-anchor="middle" style="font-size:12px;font-family:sans-serif;" y="6" transform="translate(272.6667 938)" fill="#999999">54</text>
<text dominant-baseline="central" text-anchor="middle" style="font-size:12px;font-family:sans-serif;" y="6" transform="translate(308.6667 938)" fill="#999999">81</text>
<text dominant-baseline="central" text-anchor="middle" style="font-size:12px;font-family:sans-serif;" y="6" transform="translate(344.6667 938)" fill="#999999">108</text>
<text dominant-baseline="central" text-anchor="middle" style="font-size:12px;font-family:sans-serif;" y="6" transform="translate(380.6667 938)" fill="#999999">135</text>
<text dominant-baseline="central" text-anchor="middle" style="font-size:12px;font-family:sans-serif;" y="6" transform="translate(416.6667 938)" fill="#999999">162</text>
<text dominant-baseline="central" text-anchor="middle" style="font-size:12px;font-family:sans-serif;" y="6" transform="translate(452.6667 938)" fill="#999999">189</text>
<text dominant-baseline="central" text-anchor="middle" style="font-size:12px;font-family:sans-serif;" y="6" transform="translate(488.6667 938)" fill="#999999">216</text>
<text dominant-baseline="central" text-anchor="middle" style="font-size:12px;font-family:sans-serif;" y="6" transform="translate(524.6667 938)" fill="#999999">243</text>
<text dominant-baseline="central" text-anchor="middle" style="font-size:12px;font-family:sans-serif;" y="6" transform="translate(560.6667 938)" fill="#999999">270</text>
<text dominant-baseline="central" text-anchor="middle" style="font-size:12px;font-family:sans-serif;" y="6" transform="translate(596.6667 938)" fill="#999999">297</text>
<text dominant-baseline="central" text-anchor="middle" style="font-size:12px;font-family:sans-serif;" y="6" transform="translate(632.6667 938)" fill="#999999">324</text>
<text dominant-baseline="central" text-anchor="middle" style="font-size:12px;font-family:sans-serif;" y="6" transform="translate(668.6667 938)" fill="#999999">351</text>
<text dominant-baseline="central" text-anchor="middle" style="font-size:12px;font-family:sans-serif;" y="6" transform="translate(704.6667 938)" fill="#999999">378</text>
<text dominant-baseline="central" text-anchor="middle" style="font-size:12px;font-family:sans-serif;" y="6" transform="translate(740.6667 938)" fill="#999999">405</text>
<text dominant-baseline="central" text-anchor="middle" style="font-size:12px;font-family:sans-serif;" y="6" transform="translate(776.6667 938)" fill="#999999">432</text>
<text dominant-baseline="central" text-anchor="middle" style="font-size:12px;font-family:sans-serif;" y="6" transform="translate(812.6667 938)" fill="#999999">459</text>
<text dominant-baseline="central" text-anchor="middle" style="font-size:12px;font-family:sans-serif;" y="6" transform="translate(848.6667 938)" fill="#999999">486</text>
<text dominant-baseline="central" text-anchor="middle" style="font-size:12px;font-family:sans-serif;" y="6" transform="translate(884.6667 938)" fill="#999999">513</text>
<text dominant-baseline="central" text-anchor="middle" style="font-size:12px;font-family:sans-serif;" y="6" transform="translate(920.6667 938)" fill="#999999">540</text>
<text dominant-baseline="central" text-anchor="middle" style="font-size:12px;font-family:sans-serif;" y="6" transform="translate(956.6667 938)" fill="#999999">567</text>
<text dominant-baseline="central" text-anchor="middle" style="font-size:12px;font-family:sans-serif;" y="6" transform="translate(992.6667 938)" fill="#999999">594</text>
<text dominant-baseline="central" text-anchor="middle" style="font-size:12px;font-family:sans-serif;" y="6" transform="translate(1028.6667 938)" fill="#999999">621</text>
<text dominant-baseline="central" text-anchor="middle" style="font-size:12px;font-family:sans-serif;" y="6" transform="translate(1064.6667 938)" fill="#999999">648</text>
<text dominant-baseline="central" text-anchor="middle" style="font-size:12px;font-family:sans-serif;" y="6" transform="translate(1100.6667 938)" fill="#999999">675</text>
<text dominant-baseline="central" text-anchor="middle" style="font-size:12px;font-family:sans-serif;" y="6" transform="translate(1136.6667 938)" fill="#999999">702</text>
<text dominant-baseline="central" text-anchor="middle" style="font-size:12px;font-family:sans-serif;" y="6" transform="translate(1172.6667 938)" fill="#999999">729</text>
<text dominant-baseline="central" text-anchor="middle" style="font-size:12px;font-family:sans-serif;" y="6" transform="translate(1208.6667 938)" fill="#999999">756</text>
<text dominant-baseline="central" text-anchor="middle" style="font-size:12px;font-family:sans-serif;" y="6" transform="translate(1244.6667 938)" fill="#999999">783</text>
<text dominant-baseline="central" text-anchor="middle" style="font-size:12px;font-family:sans-serif;" y="6" transform="translate(1280.6667 938)" fill="#999999">810</text>
<text dominant-baseline="central" text-anchor="middle" style="font-size:12px;font-family:sans-serif;" y="6" transform="translate(1316.6667 938)" fill="#999999">837</text>
<text dominant-baseline="central" text-anchor="middle" style="font-size:12px;font-family:sans-serif;" y="6" transform="translate(1352.6667 938)" fill="#999999">864</text>
<text dominant-baseline="central" text-anchor="middle" style="font-size:12px;font-family:sans-serif;" y="6" transform="translate(1388.6667 938)" fill="#999999">891</text>
<text dominant-baseline="central" text-anchor="middle" style="font-size:12px;font-family:sans-serif;" y="6" transform="translate(1424.6667 938)" fill="#999999">918</text>
<text dominant-baseline="central" text-anchor="middle" style="font-size:12px;font-family:sans-serif;" y="6" transform="translate(1460.6667 938)" fill="#999999">945</text>
<text dominant-baseline="central" text-anchor="middle" style="font-size:12px;font-family:sans-serif;" y="6" transform="translate(1496.6667 938)" fill="#999999">972</text>
<text dominant-baseline="central" text-anchor="middle" style="font-size:12px;font-family:sans-serif;" y="6" transform="translate(1532.6667 938)" fill="#999999">999</text>
<text dominant-baseline="central" text-anchor="middle" style="font-size:12px;font-family:sans-serif;" y="6" transform="translate(1568.6667 938)" fill="#999999">1026</text>
<text dominant-baseline="central" text-anchor="middle" style="font-size:12px;font-family:sans-serif;" y="6" transform="translate(1604.6667 938)" fill="#999999">1053</text>
<text dominant-baseline="central" text-anchor="middle" style="font-size:12px;font-family:sans-serif;" y="6" transform="translate(1640.6667 938)" fill="#999999">1080</text>
<text dominant-baseline="central" text-anchor="middle" style="font-size:12px;font-family:sans-serif;" y="6" transform="translate(1676.6667 938)" fill="#999999">1107</text>
<text dominant-baseline="central" text-anchor="middle" style="font-size:12px;font-family:sans-serif;" y="6" transform="translate(1712.6667 938)" fill="#999999">1134</text>
<text dominant-baseline="central" text-anchor="middle" style="font-size:12px;font-family:sans-serif;" y="6" transform="translate(1748.6667 938)" fill="#999999">1161</text>
<text dominant-baseline="central" text-anchor="middle" style="font-size:12px;font-family:sans-serif;" y="6" transform="translate(1784.6667 938)" fill="#999999">1188</text>
<g clip-path="url(#zr12-c0)">
<path d="M200.7 65.5L202 594.1L203.3 728.2L204.7 286.8L206 705.5L207.3 734.9L208.7 758.3L210 631L211.3 701.6L212.7 698.8L214 766.9L215.3 345.3L216.7 742.8L218 712.7L219.3 739.8L220.7 642.6L222 758.1L223.3 774.4L224.7 765L226 365.1L227.3 743.1L228.7 756.8L230 736L231.3 617.6L232.7 748.7L234 765.2L235.3 762.1L236.7 357.5L238 731L239.3 751.9L240.7 748.4L242 649.3L243.3 735.2L244.7 756.6L246 720.4L247.3 418.7L248.7 723.8L250 761L251.3 724.3L252.7 656L254 762.9L255.3 769L256.7 761.1L258 409.2L259.3 698.5L260.7 749.8L262 749.5L263.3 656L264.7 725.6L266 741.1L267.3 760.7L268.7 439.6L270 740.3L271.3 733.4L272.7 757.9L274 651.4L275.3 726.3L276.7 752.4L278 760.5L279.3 363.6L280.7 707L282 724.4L283.3 726L284.7 622.4L286 753.9L287.3 761.9L288.7 762.8L290 359.4L291.3 720.1L292.7 741.4L294 757.4L295.3 653.1L296.7 763L298 735.6L299.3 773.3L300.7 410.8L302 757.5L303.3 761L304.7 737L306 621.3L307.3 762.7L308.7 759.8L310 764L311.3 299.1L312.7 737.8L314 743.4L315.3 770.4L316.7 522.8L318 733.6L319.3 766.9L320.7 767.6L322 387.3L323.3 660.8L324.7 746.9L326 729.3L327.3 609.3L328.7 725.4L330 734.8L331.3 761.4L332.7 366.6L334 700.7L335.3 720.3L336.7 746.6L338 646.7L339.3 753L340.7 741.3L342 748.5L343.3 368.6L344.7 707.8L346 681.3L347.3 741.2L348.7 594.2L350 749L351.3 749.7L352.7 727.1L354 353.3L355.3 709.8L356.7 741.4L358 712.1L359.3 617.2L360.7 742.2L362 749.9L363.3 757.6L364.7 349.4L366 704.5L367.3 725.6L368.7 713L370 552.9L371.3 750.8L372.7 757.8L374 771.9L375.3 250.5L376.7 693.5L378 739.8L379.3 735.6L380.7 585.9L382 745.5L383.3 752.1L384.7 765L386 434.7L387.3 688.4L388.7 747.5L390 755L391.3 635L392.7 719.1L394 738.1L395.3 740.7L396.7 365.9L398 739.1L399.3 713L400.7 735.4L402 622.5L403.3 760L404.7 764.3L406 742.5L407.3 381.8L408.7 725.1L410 757.2L411.3 746.5L412.7 647.3L414 769.3L415.3 752.4L416.7 764.5L418 349.1L419.3 726L420.7 752.7L422 765L423.3 632L424.7 740.5L426 760L427.3 727.1L428.7 323.7L430 714.9L431.3 727.4L432.7 740.2L434 659.5L435.3 713.8L436.7 758.8L438 767.1L439.3 368.2L440.7 718.3L442 715.1L443.3 719.9L444.7 639.8L446 772.1L447.3 717.9L448.7 746.5L450 357.5L451.3 721.7L452.7 703L454 739.1L455.3 650.4L456.7 769.7L458 771.3L459.3 774.2L460.7 335.3L462 748.1L463.3 748.4L464.7 664.1L466 588.3L467.3 769.6L468.7 760L470 743.4L471.3 379.5L472.7 695.4L474 726.9L475.3 749L476.7 573L478 756.4L479.3 746L480.7 759.7L482 407.1L483.3 711.6L484.7 739.7L486 751.4L487.3 651.9L488.7 766.7L490 736.3L491.3 757L492.7 371.2L494 736.9L495.3 712.6L496.7 728.2L498 644.7L499.3 750.1L500.7 762.3L502 762.9L503.3 384.7L504.7 708.3L506 744.5L507.3 760.3L508.7 616.4L510 757.1L511.3 755.9L512.7 753.1L514 405.3L515.3 721.7L516.7 736L518 757.5L519.3 636.2L520.7 734.3L522 758.6L523.3 742.9L524.7 381.4L526 711.2L527.3 741.3L528.7 753.4L530 666.8L531.3 748.1L532.7 632.6L534 745.7L535.3 358.6L536.7 755.9L538 744.1L539.3 721.4L540.7 642L542 758L543.3 768.5L544.7 774.8L546 357.1L547.3 709L548.7 758.4L550 765.8L551.3 644.3L552.7 726L554 763.4L555.3 774.5L556.7 411.8L558 757.9L559.3 742.4L560.7 747.6L562 646.8L563.3 758.3L564.7 754.5L566 755.5L567.3 368.1L568.7 729L570 759.6L571.3 760.3L572.7 638.6L574 762.3L575.3 762.5L576.7 759.2L578 406.1L579.3 746.6L580.7 732.3L582 767.9L583.3 649.8L584.7 772L586 733.3L587.3 744L588.7 412.4L590 749.3L591.3 754L592.7 741.8L594 612L595.3 745L596.7 759.9L598 766.5L599.3 359.8L600.7 721.2L602 749L603.3 761.4L604.7 538.8L606 741.7L607.3 752.3L608.7 768.4L610 401.3L611.3 763.9L612.7 737.2L614 753.9L615.3 667.8L616.7 752.6L618 768.1L619.3 772.5L620.7 399.3L622 762.6L623.3 762.1L624.7 756.7L626 642.3L627.3 761.3L628.7 762.4L630 762.4L631.3 410.7L632.7 715.1L634 737.4L635.3 729.8L636.7 643.2L638 754.5L639.3 725.1L640.7 745.5L642 420.2L643.3 731.4L644.7 662.9L646 734.6L647.3 651.7L648.7 751.5L650 755.1L651.3 731L652.7 346.9L654 717.5L655.3 760.3L656.7 714.7L658 637.4L659.3 760.3L660.7 764.1L662 747.1L663.3 354L664.7 724L666 734.1L667.3 692.2L668.7 635.2L670 752.5L671.3 763L672.7 758.1L674 325.3L675.3 731.9L676.7 742.1L678 706.8L679.3 622.6L680.7 760.1L682 753.7L683.3 753.6L684.7 306.6L686 681.7L687.3 732.3L688.7 735.5L690 597.7L691.3 747.2L692.7 750.3L694 751.3L695.3 390L696.7 710.7L698 755L699.3 738.9L700.7 537.3L702 737.7L703.3 749.8L704.7 764.2L706 327.3L707.3 727.7L708.7 750.9L710 758.7L711.3 650.1L712.7 733L714 737.3L715.3 735.5L716.7 411.4L718 731.5L719.3 734L720.7 735.4L722 636.3L723.3 766.1L724.7 760.3L726 737.6L727.3 369.5L728.7 717.5L730 753L731.3 733.4L732.7 660.2L734 740.7L735.3 759.5L736.7 765.6L738 346.3L739.3 713.8L740.7 737.8L742 747.1L743.3 631.6L744.7 755.4L746 761.4L747.3 758.4L748.7 408L750 718.9L751.3 742.7L752.7 732.4L754 620.1L755.3 746.3L756.7 755L758 773.6L759.3 369L760.7 700.6L762 718.1L763.3 738.6L764.7 628.8L766 766.4L767.3 763.6L768.7 732.3L770 380.4L771.3 741.7L772.7 738.9L774 729L775.3 636.9L776.7 749.2L778 769.3L779.3 772.9L780.7 320.6L782 726.2L783.3 746.4L784.7 760.5L786 595.6L787.3 755L788.7 762.9L790 768.2L791.3 427.9L792.7 716.3L794 752.5L795.3 745.1L796.7 621.4L798 758.5L799.3 724.4L800.7 753.3L802 361.7L803.3 738.8L804.7 730.2L806 736.4L807.3 645.5L808.7 757.2L810 770.2L811.3 750.3L812.7 401.7L814 732.9L815.3 760.7L816.7 732.9L818 629.5L819.3 718.6L820.7 762.7L822 769.8L823.3 355.4L824.7 725L826 735.1L827.3 746.8L828.7 654.1L830 644.3L831.3 699.1L832.7 769L834 359.8L835.3 743.6L836.7 702.3L838 734.9L839.3 641.7L840.7 757.6L842 640.5L843.3 748.7L844.7 380.2L846 730L847.3 675.7L848.7 750.8L850 637.3L851.3 761.7L852.7 745.2L854 761L855.3 350.8L856.7 732.9L858 765.6L859.3 764.5L860.7 638.9L862 760.6L863.3 774L864.7 770.8L866 349.6L867.3 724.9L868.7 750.2L870 760.8L871.3 640.7L872.7 754.4L874 766.9L875.3 743.3L876.7 402.3L878 744.9L879.3 748.9L880.7 700.6L882 666L883.3 758.7L884.7 764.7L886 760.5L887.3 374.5L888.7 730.3L890 752.4L891.3 745.8L892.7 614.7L894 722.2L895.3 758.5L896.7 769.3L898 439.4L899.3 725.4L900.7 721.2L902 752.7L903.3 620.2L904.7 775.5L906 764.8L907.3 755L908.7 392.1L910 723.6L911.3 734.1L912.7 666.3L914 618.3L915.3 764.5L916.7 774L918 773L919.3 371.9L920.7 744.5L922 757.2L923.3 753.4L924.7 640L926 767.1L927.3 730.1L928.7 747.6L930 366.8L931.3 757.4L932.7 757.9L934 732.3L935.3 636.2L936.7 750.8L938 764.5L939.3 740.9L940.7 401.7L942 732.3L943.3 746.1L944.7 761.7L946 606.7L947.3 730.7L948.7 771.5L950 759.7L951.3 400.3L952.7 736.7L954 732.7L955.3 743.8L956.7 613L958 752.5L959.3 636.8L960.7 705.3L962 341.1L963.3 714.2L964.7 692.2L966 710.5L967.3 606.9L968.7 759.5L970 766.8L971.3 714.6L972.7 317.4L974 736.5L975.3 734.8L976.7 675.9L978 606.6L979.3 753.4L980.7 758.5L982 729.8L983.3 313.2L984.7 704.4L986 724.6L987.3 708.6L988.7 631.2L990 749.8L991.3 765.2L992.7 765.1L994 285.6L995.3 698.5L996.7 737.6L998 701.7L999.3 611.4L1000.7 719.5L1002 756.4L1003.3 767.1L1004.7 191.5L1006 661.8L1007.3 720.9L1008.7 739.5L1010 546.5L1011.3 747.6L1012.7 733.1L1014 758.7L1015.3 214.4L1016.7 664.8L1018 718.7L1019.3 728.1L1020.7 565.1L1022 711.8L1023.3 727.4L1024.7 759L1026 357.5L1027.3 676.4L1028.7 738.6L1030 750L1031.3 532.5L1032.7 736L1034 743.9L1035.3 744.7L1036.7 379.5L1038 692.2L1039.3 690.4L1040.7 729.6L1042 629.8L1043.3 697L1044.7 741.9L1046 762.9L1047.3 334L1048.7 630.3L1050 665.6L1051.3 722.4L1052.7 648.4L1054 757.8L1055.3 724.4L1056.7 717.2L1058 362.7L1059.3 725.8L1060.7 700.5L1062 709.4L1063.3 629.5L1064.7 745.9L1066 759.9L1067.3 663.6L1068.7 333.9L1070 727L1071.3 757.3L1072.7 714.2L1074 631.8L1075.3 755.8L1076.7 753.1L1078 748.5L1079.3 270.4L1080.7 726.6L1082 735.1L1083.3 748.1L1084.7 587.6L1086 754L1087.3 768.8L1088.7 759.9L1090 393L1091.3 692.3L1092.7 733.6L1094 751.3L1095.3 633.1L1096.7 758.5L1098 728.2L1099.3 752L1100.7 367.2L1102 731.4L1103.3 711.2L1104.7 734.9L1106 657.4L1107.3 743.1L1108.7 766.5L1110 764L1111.3 378.1L1112.7 729L1114 734.7L1115.3 713.5L1116.7 616L1118 761.5L1119.3 747.2L1120.7 759.9L1122 342.6L1123.3 703.1L1124.7 737.6L1126 763.2L1127.3 570.4L1128.7 736.6L1130 750.8L1131.3 762.7L1132.7 389.7L1134 700.8L1135.3 709.1L1136.7 748.9L1138 631.4L1139.3 749.9L1140.7 623.7L1142 743.9L1143.3 358.9L1144.7 743.1L1146 764.5L1147.3 672.1L1148.7 647.1L1150 762.9L1151.3 743.9L1152.7 763.7L1154 331.4L1155.3 731.1L1156.7 736.5L1158 746.7L1159.3 567.6L1160.7 754.2L1162 751.4L1163.3 768.1L1164.7 353L1166 699.2L1167.3 727.6L1168.7 749L1170 593.2L1171.3 720.1L1172.7 724.8L1174 754.2L1175.3 395.2L1176.7 733.5L1178 724.1L1179.3 751.8L1180.7 628.8L1182 770.6L1183.3 746.9L1184.7 732.6L1186 354L1187.3 742.5L1188.7 762.8L1190 722.3L1191.3 628.9L1192.7 755.1L1194 733.9L1195.3 770.2L1196.7 399.2L1198 711.2L1199.3 743.4L1200.7 753.7L1202 663.4L1203.3 709L1204.7 769.8L1206 757.5L1207.3 370L1208.7 754L1210 718.7L1211.3 761.5L1212.7 658.9L1214 762.3L1215.3 761.5L1216.7 758.7L1218 346.8L1219.3 739.2L1220.7 768.6L1222 763.5L1223.3 618.1L1224.7 755.7L1226 769.2L1227.3 760L1228.7 386.9L1230 734.2L1231.3 736L1232.7 754.4L1234 642.3L1235.3 759.4L1236.7 749.9L1238 741.6L1239.3 407.3L1240.7 746L1242 736.6L1243.3 715.9L1244.7 640.6L1246 753.1L1247.3 773.7L1248.7 768.7L1250 406.9L1251.3 716.6L1252.7 741.3L1254 755.9L1255.3 647.3L1256.7 761.2L1258 723.8L1259.3 766.4L1260.7 379.9L1262 755.9L1263.3 705.1L1264.7 748.5L1266 661.1L1267.3 753.2L1268.7 735L1270 762.7L1271.3 411.8L1272.7 732.7L1274 755.4L1275.3 752.1L1276.7 567L1278 758.2L1279.3 764.7L1280.7 763.7L1282 415.4L1283.3 724.4L1284.7 743.9L1286 736.3L1287.3 545L1288.7 742.3L1290 762.5L1291.3 753.4L1292.7 397.6L1294 669L1295.3 711.3L1296.7 736L1298 623.9L1299.3 728.8L1300.7 753.7L1302 747.6L1303.3 340.7L1304.7 657.9L1306 748.1L1307.3 757.5L1308.7 659.8L1310 765L1311.3 731L1312.7 745L1314 362.8L1315.3 714.4L1316.7 736.9L1318 734.7L1319.3 633.2L1320.7 769.5L1322 760.6L1323.3 684.8L1324.7 340.6L1326 724.3L1327.3 740.3L1328.7 716.4L1330 637.3L1331.3 752.5L1332.7 757.9L1334 765.1L1335.3 316.7L1336.7 678.1L1338 738.1L1339.3 698L1340.7 625.4L1342 766.5L1343.3 755.9L1344.7 751.6L1346 231.7L1347.3 692.6L1348.7 722.3L1350 765L1351.3 610.6L1352.7 729.7L1354 774.5L1355.3 763.9L1356.7 378.1L1358 698.5L1359.3 739.7L1360.7 745.4L1362 647.3L1363.3 733.9L1364.7 751.8L1366 754L1367.3 392.9L1368.7 704.8L1370 747.5L1371.3 752.7L1372.7 639.4L1374 749.4L1375.3 769.6L1376.7 725.5L1378 364.9L1379.3 732.4L1380.7 750.9L1382 723.2L1383.3 637L1384.7 769.1L1386 761L1387.3 769.7L1388.7 379.5L1390 716.2L1391.3 712.1L1392.7 722L1394 612.9L1395.3 757L1396.7 775.5L1398 766.8L1399.3 391.3L1400.7 704.5L1402 717.5L1403.3 714.4L1404.7 515.9L1406 712.7L1407.3 748.2L1408.7 748L1410 359.9L1411.3 626.6L1412.7 703.1L1414 718.9L1415.3 616.8L1416.7 719.1L1418 748L1419.3 758.5L1420.7 408.8L1422 572.9L1423.3 663.8L1424.7 660.1L1426 477.5L1427.3 585.8L1428.7 657L1430 712.8L1431.3 267.1L1432.7 632.5L1434 691.8L1435.3 698.5L1436.7 565L1438 694.7L1439.3 707.5L1440.7 699.2L1442 239.3L1443.3 652.6L1444.7 711.2L1446 707.3L1447.3 561.3L1448.7 745.8L1450 737L1451.3 733.9L1452.7 365.8L1454 671.5L1455.3 696L1456.7 710.6L1458 599.4L1459.3 691.6L1460.7 715.9L1462 690.5L1463.3 240.1L1464.7 665.1L1466 684.4L1467.3 693.2L1468.7 629.4L1470 734.5L1471.3 753.3L1472.7 730.9L1474 358.1L1475.3 638.2L1476.7 722L1478 690.4L1479.3 578.7L1480.7 737.1L1482 696.7L1483.3 755.5L1484.7 365.2L1486 738.9L1487.3 723.2L1488.7 683L1490 581.4L1491.3 737.3L1492.7 737.9L1494 692.2L1495.3 323.2L1496.7 708.6L1498 736.1L1499.3 715.5L1500.7 591.3L1502 741.4L1503.3 757.6L1504.7 750.8L1506 246.9L1507.3 684.4L1508.7 700.8L1510 703.9L1511.3 607.2L1512.7 724.4L1514 756.1L1515.3 756.1L1516.7 -269L1518 421.3L1519.3 477.9L1520.7 531.9L1522 318.5L1523.3 551.6L1524.7 547.1L1526 717.2L1527.3 348.9L1528.7 704.4L1530 385L1531.3 505.6L1532.7 563.6L1534 742.3L1535.3 751.8L1536.7 752.4L1538 399.9L1539.3 730.7L1540.7 728.7L1542 753L1543.3 616.3L1544.7 742.5L1546 756.8L1547.3 745.5L1548.7 379.4L1550 736L1551.3 746.3L1552.7 705.1L1554 417.3L1555.3 756.1L1556.7 753.4L1558 746.6L1559.3 393.1L1560.7 725.3L1562 703.6L1563.3 741.2L1564.7 641.7L1566 734.8L1567.3 765.1L1568.7 742.9L1570 348.1L1571.3 724.8L1572.7 750.1L1574 728.2L1575.3 636.2L1576.7 755.4L1578 764.3L1579.3 750.3L1580.7 370.9L1582 751.7L1583.3 728.2L1584.7 631.2L1586 640.1L1587.3 759.2L1588.7 749.8L1590 766L1591.3 404.6L1592.7 746.6L1594 752L1595.3 734.9L1596.7 625.1L1598 738L1599.3 722.7L1600.7 760.1L1602 359.5L1603.3 687.3L1604.7 668.7L1606 724.4L1607.3 612.6L1608.7 742.6L1610 706.6L1611.3 745.5L1612.7 252.8L1614 681.7L1615.3 708.5L1616.7 732.8L1618 641.2L1619.3 758.7L1620.7 716.2L1622 742.7L1623.3 288L1624.7 706.8L1626 653.4L1627.3 707.5L1628.7 598.6L1630 713.4L1631.3 686.1L1632.7 731.4L1634 350.5L1635.3 719.3L1636.7 687.3L1638 736.8L1639.3 617.6L1640.7 754.6L1642 721.7L1643.3 701.7L1644.7 372.3L1646 717.4L1647.3 649.9L1648.7 722.3L1650 624.3L1651.3 751.8L1652.7 748.1L1654 703.9L1655.3 353.2L1656.7 721.2L1658 590.4L1659.3 699L1660.7 624.9L1662 757.7L1663.3 728.5L1664.7 768.6L1666 239.4L1667.3 701.3L1668.7 730.2L1670 698L1671.3 595.7L1672.7 758.7L1674 724.3L1675.3 752.2L1676.7 247.9L1678 698.1L1679.3 730.2L1680.7 693.6L1682 580.8L1683.3 729.8L1684.7 736.1L1686 749.9L1687.3 336.8L1688.7 700.3L1690 748.1L1691.3 742.9L1692.7 603.5L1694 742.5L1695.3 728.8L1696.7 751.4L1698 400.8L1699.3 647.8L1700.7 718L1702 727.6L1703.3 620.6L1704.7 712.8L1706 720.9L1707.3 755.1L1708.7 345.1L1710 676L1711.3 717.5L1712.7 725.5L1714 618.3L1715.3 768L1716.7 687.9L1718 752.3L1719.3 378.8L1720.7 711.2L1722 712.7L1723.3 737.4L1724.7 630L1726 765.7L1727.3 771.8L1728.7 759.9L1730 309L1731.3 709.7L1732.7 733.7L1734 708.9L1735.3 591.8L1736.7 761.8L1738 758.7L1739.3 760.6L1740.7 349.6L1742 720L1743.3 756.4L1744.7 728.1L1746 566.5L1747.3 756.5L1748.7 748.4L1750 744.5L1751.3 351.9L1752.7 723.6L1754 724.9L1755.3 753.8L1756.7 633.3L1758 732.8L1759.3 740.4L1760.7 761.3L1762 331.7L1763.3 722.3L1764.7 750.3L1766 745.9L1767.3 670.5L1768.7 765.7L1770 773.5L1771.3 730.8L1772.7 333.9L1774 739.6L1775.3 758.2L1776.7 730.2L1778 622.8L1779.3 771.5L1780.7 755.2L1782 766.6L1783.3 220.5L1784.7 673.3L1786 738.3L1787.3 718.9L1788.7 656.6L1790 731.7L1791.3 753.6L1792.7 743.2L1794 389.9L1795.3 712.8L1796.7 733.6L1798 757.8L1799.3 651.8" fill="transparent" stroke="#3fb1e3" stroke-width="3" stroke-linejoin="bevel" class="zr12-cls-38"></path>
</g>
<g clip-path="url(#zr12-c1)">
<path d="M200.7 100.4L202 640.3L203.3 739.5L204.7 337.9L206 750.2L207.3 754.2L208.7 756.9L210 626.2L211.3 708.4L212.7 759.3L214 757.4L215.3 344.1L216.7 749.6L218 753.3L219.3 709.5L220.7 604.8L222 772.9L223.3 740.4L224.7 760.2L226 323.6L227.3 707.5L228.7 739.3L230 759.9L231.3 623.8L232.7 754.7L234 716.5L235.3 764L236.7 356.6L238 722.9L239.3 731.7L240.7 761.7L242 624.7L243.3 753.2L244.7 768.4L246 762.5L247.3 352.8L248.7 758.4L250 755.9L251.3 765.1L252.7 642.2L254 765.6L255.3 762.8L256.7 762L258 391.5L259.3 763.1L260.7 764.5L262 753.8L263.3 653.7L264.7 758.6L266 772.3L267.3 762.2L268.7 407.7L270 656.2L271.3 738.1L272.7 762.9L274 665.8L275.3 769.3L276.7 769.3L278 764.5L279.3 409.1L280.7 761.2L282 751.2L283.3 761.3L284.7 651.2L286 764.5L287.3 770.2L288.7 768.4L290 426L291.3 739.6L292.7 735.6L294 770.4L295.3 666.8L296.7 751.4L298 765.5L299.3 756.3L300.7 414.5L302 738.6L303.3 717.7L304.7 764.1L306 632.3L307.3 758.2L308.7 747.6L310 764.7L311.3 437.2L312.7 744.9L314 726.8L315.3 743.8L316.7 649L318 761.7L319.3 711L320.7 741.5L322 374.2L323.3 738.3L324.7 734.7L326 753.9L327.3 639.2L328.7 742.5L330 759.5L331.3 737.1L332.7 331.7L334 731.7L335.3 745.2L336.7 728.1L338 643.7L339.3 745L340.7 761.5L342 759.3L343.3 396.5L344.7 714.9L346 730.3L347.3 731.3L348.7 625.1L350 759.2L351.3 766.7L352.7 760.4L354 419.5L355.3 727.6L356.7 745.4L358 748.5L359.3 645.6L360.7 743.4L362 770.4L363.3 770.8L364.7 379L366 736.2L367.3 719.8L368.7 745.6L370 649.2L371.3 751.5L372.7 760.8L374 697.7L375.3 305.9L376.7 688.5L378 681.6L379.3 700.6L380.7 606.2L382 759.2L383.3 766.5L384.7 759.3L386 330.3L387.3 711L388.7 741.4L390 719.8L391.3 609.7L392.7 750.3L394 745.1L395.3 749.3L396.7 259.5L398 721.4L399.3 741.5L400.7 744.8L402 635.3L403.3 750.8L404.7 756.5L406 760.8L407.3 429.1L408.7 733.5L410 752.9L411.3 743.8L412.7 613.6L414 714.5L415.3 758.3L416.7 753.3L418 332L419.3 741.6L420.7 750.2L422 755.3L423.3 639.8L424.7 749.8L426 761.3L427.3 744.4L428.7 396.8L430 742.4L431.3 747.6L432.7 711.1L434 577.9L435.3 757.1L436.7 754.1L438 765.2L439.3 363.1L440.7 731.2L442 746.7L443.3 757.6L444.7 633.2L446 750.6L447.3 754.3L448.7 767.7L450 404.5L451.3 734.1L452.7 755.6L454 742.2L455.3 637.3L456.7 770.2L458 757.6L459.3 756.7L460.7 343.1L462 736.7L463.3 740.1L464.7 709.6L466 645.7L467.3 760.5L468.7 756.9L470 767.5L471.3 362.7L472.7 686.3L474 726L475.3 740.5L476.7 607.7L478 729.1L479.3 766.5L480.7 766.9L482 355.4L483.3 719.4L484.7 744.5L486 741.4L487.3 642.6L488.7 740.4L490 749.5L491.3 764.2L492.7 376.5L494 750.2L495.3 751.3L496.7 754.5L498 629.7L499.3 764.3L500.7 767.4L502 762.7L503.3 377.8L504.7 729.2L506 748.7L507.3 762.4L508.7 641.3L510 745.3L511.3 769.3L512.7 750.3L514 435.7L515.3 738.1L516.7 742.6L518 756.6L519.3 642.4L520.7 750.8L522 748.6L523.3 763.6L524.7 364.2L526 760.1L527.3 761.3L528.7 755.3L530 596.5L531.3 762.3L532.7 771.4L534 760.8L535.3 347.9L536.7 744.9L538 762.5L539.3 758.8L540.7 668.6L542 754L543.3 758.2L544.7 771.3L546 374.2L547.3 725.4L548.7 730.2L550 748.6L551.3 653L552.7 751.9L554 770.1L555.3 763.3L556.7 357.2L558 732.6L559.3 756.9L560.7 754.5L562 614.9L563.3 759.6L564.7 766.9L566 766.1L567.3 404.3L568.7 709.4L570 724.9L571.3 758.7L572.7 668.4L574 756.6L575.3 750.8L576.7 769.2L578 420.3L579.3 740.4L580.7 751.8L582 748L583.3 651.3L584.7 771.8L586 757.1L587.3 769.5L588.7 371.2L590 753.7L591.3 759.8L592.7 759.7L594 646.1L595.3 762.8L596.7 753.6L598 767L599.3 436.5L600.7 740.2L602 704.7L603.3 757.6L604.7 655.2L606 761.1L607.3 764L608.7 725.2L610 410.8L611.3 748.1L612.7 742.2L614 753L615.3 663.7L616.7 767.7L618 755L619.3 758.3L620.7 333.6L622 735.4L623.3 752.7L624.7 760.1L626 639.1L627.3 762.7L628.7 766.2L630 763.3L631.3 345.6L632.7 720.6L634 728.7L635.3 747L636.7 596.6L638 758.2L639.3 763.7L640.7 758.1L642 412.5L643.3 698L644.7 723.3L646 733L647.3 563.2L648.7 726.6L650 753.9L651.3 760.8L652.7 375.4L654 716.5L655.3 736.4L656.7 747.3L658 641.5L659.3 743.7L660.7 751.3L662 773.2L663.3 393.9L664.7 708L666 741.3L667.3 751.3L668.7 649.2L670 757.9L671.3 765.6L672.7 745L674 378.6L675.3 713.7L676.7 736.7L678 704.1L679.3 633.8L680.7 747.7L682 753.2L683.3 774.1L684.7 382.3L686 726.5L687.3 716.8L688.7 664.7L690 629.6L691.3 764.4L692.7 754.1L694 761.9L695.3 333.8L696.7 731.3L698 747.2L699.3 744.6L700.7 635.1L702 748.3L703.3 765L704.7 766.9L706 391.7L707.3 720L708.7 743.2L710 715.7L711.3 600.1L712.7 745.4L714 735.9L715.3 686.9L716.7 355.4L718 720.7L719.3 715.9L720.7 693.8L722 630.5L723.3 741.5L724.7 746.7L726 773.2L727.3 354L728.7 728.3L730 742L731.3 715.4L732.7 632L734 744L735.3 764L736.7 762.6L738 307.3L739.3 733.5L740.7 749.2L742 751.1L743.3 523L744.7 740.8L746 771.4L747.3 775.1L748.7 347L750 726.5L751.3 724.1L752.7 735.1L754 641.5L755.3 764.4L756.7 755.4L758 765.6L759.3 386.3L760.7 719.6L762 729.7L763.3 734.4L764.7 647.2L766 747.1L767.3 765L768.7 759.8L770 374.1L771.3 720.2L772.7 755.1L774 738.3L775.3 612.6L776.7 761.7L778 760.2L779.3 766.6L780.7 366L782 726L783.3 750.9L784.7 747.4L786 654.9L787.3 757.2L788.7 752.9L790 759.8L791.3 375.1L792.7 731.8L794 687L795.3 726.2L796.7 631.1L798 744.4L799.3 761.3L800.7 774.1L802 372.5L803.3 716.3L804.7 744.4L806 760.8L807.3 609.6L808.7 769.3L810 757.6L811.3 745.3L812.7 401.4L814 714L815.3 752.9L816.7 728.6L818 590.3L819.3 730.7L820.7 754.7L822 768.4L823.3 382.5L824.7 731.3L826 741.7L827.3 755.1L828.7 628L830 750L831.3 759.1L832.7 774L834 403.4L835.3 735.6L836.7 757.4L838 771.9L839.3 618.3L840.7 747.5L842 754.3L843.3 727.8L844.7 403.4L846 731L847.3 735.9L848.7 742.1L850 639.5L851.3 747L852.7 746L854 752.5L855.3 378.9L856.7 740L858 752.4L859.3 743.5L860.7 643.3L862 749.6L863.3 758.9L864.7 741.3L866 394.3L867.3 748.8L868.7 760.3L870 764.2L871.3 566.9L872.7 762L874 761.1L875.3 760.9L876.7 395.2L878 712.8L879.3 736.7L880.7 753.1L882 648.4L883.3 765.9L884.7 767.9L886 753.5L887.3 394L888.7 762.4L890 737.1L891.3 600.1L892.7 639.7L894 761.9L895.3 758.9L896.7 766.1L898 402.8L899.3 736L900.7 759.2L902 761.3L903.3 629.5L904.7 761L906 752.6L907.3 762.9L908.7 422.4L910 756.9L911.3 764.6L912.7 750.9L914 649.4L915.3 740.4L916.7 769.5L918 761.4L919.3 408L920.7 752.4L922 766.1L923.3 758.3L924.7 664.8L926 774.8L927.3 766.1L928.7 771.8L930 364.9L931.3 748.6L932.7 759.6L934 741L935.3 660.3L936.7 762.6L938 763.7L939.3 770.4L940.7 453.8L942 737.1L943.3 762.4L944.7 753L946 656.3L947.3 763.9L948.7 764.2L950 760.7L951.3 429.5L952.7 735.2L954 748.8L955.3 761.7L956.7 654.7L958 755.7L959.3 763.5L960.7 767.1L962 436.1L963.3 717.5L964.7 760.8L966 721.1L967.3 572.7L968.7 734.9L970 739.6L971.3 770.3L972.7 360.5L974 705.1L975.3 709.6L976.7 732.2L978 592.9L979.3 760.8L980.7 746.9L982 764.2L983.3 368.2L984.7 712.5L986 727L987.3 720.9L988.7 577.3L990 751.8L991.3 749.5L992.7 766.5L994 402.9L995.3 709.6L996.7 740.2L998 740.8L999.3 657.3L1000.7 760.1L1002 743.7L1003.3 754.5L1004.7 353.8L1006 734.5L1007.3 740.3L1008.7 745.2L1010 627.2L1011.3 764.5L1012.7 768.7L1014 750.3L1015.3 404.3L1016.7 726.1L1018 761.7L1019.3 717.1L1020.7 630.3L1022 757.3L1023.3 762.8L1024.7 771.9L1026 345.3L1027.3 720.1L1028.7 744.5L1030 722.3L1031.3 627.8L1032.7 757.1L1034 759.8L1035.3 772.2L1036.7 391.6L1038 703.6L1039.3 754.9L1040.7 759.9L1042 640.6L1043.3 713L1044.7 693L1046 758.2L1047.3 358.3L1048.7 736.9L1050 722.7L1051.3 745.1L1052.7 591.3L1054 747.1L1055.3 757.9L1056.7 719.3L1058 356.6L1059.3 730.3L1060.7 746.6L1062 725.9L1063.3 625.1L1064.7 759.3L1066 758L1067.3 763L1068.7 384.6L1070 719.2L1071.3 731L1072.7 761.3L1074 634.9L1075.3 752.9L1076.7 739.2L1078 762.9L1079.3 353.7L1080.7 725.3L1082 752.9L1083.3 759.7L1084.7 641.4L1086 761.7L1087.3 762.4L1088.7 754.1L1090 404.5L1091.3 728.3L1092.7 701.3L1094 752.1L1095.3 636.2L1096.7 763.8L1098 766.4L1099.3 777.5L1100.7 424L1102 702.1L1103.3 738.5L1104.7 737.6L1106 650L1107.3 754L1108.7 754.1L1110 767.8L1111.3 411.9L1112.7 697.8L1114 729.8L1115.3 752.4L1116.7 652.4L1118 755.7L1119.3 769.8L1120.7 760.7L1122 336.3L1123.3 711.2L1124.7 732.1L1126 679L1127.3 638.3L1128.7 742.4L1130 762.4L1131.3 767.2L1132.7 391.6L1134 704.4L1135.3 742.9L1136.7 732.3L1138 634.2L1139.3 741.3L1140.7 747.3L1142 747.6L1143.3 364.9L1144.7 731.4L1146 743.7L1147.3 747.9L1148.7 593.6L1150 775.4L1151.3 759.2L1152.7 748.9L1154 403.4L1155.3 719.6L1156.7 748L1158 729.7L1159.3 617.5L1160.7 756.6L1162 753L1163.3 766.2L1164.7 389.2L1166 736.1L1167.3 743.8L1168.7 756.7L1170 641.3L1171.3 731.5L1172.7 759.3L1174 758.7L1175.3 428.3L1176.7 734.1L1178 746.9L1179.3 767.7L1180.7 648.2L1182 766.1L1183.3 768.9L1184.7 767.7L1186 387.4L1187.3 725.1L1188.7 739L1190 760.2L1191.3 640.6L1192.7 761.4L1194 763.6L1195.3 767.2L1196.7 376.5L1198 731.5L1199.3 756.5L1200.7 767.6L1202 649.7L1203.3 745L1204.7 752.9L1206 761.2L1207.3 400.2L1208.7 743.4L1210 710.7L1211.3 736L1212.7 625.1L1214 770.4L1215.3 771.8L1216.7 747.2L1218 404L1219.3 724.1L1220.7 716.6L1222 747.1L1223.3 626.1L1224.7 735.5L1226 747.2L1227.3 761.5L1228.7 385L1230 761L1231.3 746.7L1232.7 762.9L1234 637.3L1235.3 772.4L1236.7 760.7L1238 624.6L1239.3 394.6L1240.7 731.2L1242 760.1L1243.3 748.1L1244.7 646.6L1246 762.6L1247.3 762.4L1248.7 749.8L1250 353.2L1251.3 754.5L1252.7 757.6L1254 762.9L1255.3 649.9L1256.7 759.5L1258 760.6L1259.3 747L1260.7 412.7L1262 739.5L1263.3 759.2L1264.7 761.3L1266 645.4L1267.3 758.2L1268.7 767.7L1270 762.4L1271.3 322.6L1272.7 743.1L1274 757L1275.3 753L1276.7 542.6L1278 761.3L1279.3 752.4L1280.7 757.6L1282 382.6L1283.3 714.4L1284.7 726.9L1286 734.8L1287.3 621.5L1288.7 737.4L1290 754L1291.3 747.1L1292.7 418.4L1294 691.7L1295.3 725.5L1296.7 727.8L1298 582.7L1299.3 768.5L1300.7 710.6L1302 747.2L1303.3 369.1L1304.7 719.9L1306 702.4L1307.3 730.1L1308.7 596.1L1310 751.7L1311.3 694.2L1312.7 728.8L1314 374.9L1315.3 726.1L1316.7 716.5L1318 745.2L1319.3 628.3L1320.7 764.5L1322 761.4L1323.3 753.4L1324.7 366.6L1326 723.9L1327.3 745.2L1328.7 747.3L1330 651.7L1331.3 753.4L1332.7 758.5L1334 766.6L1335.3 384.4L1336.7 711.3L1338 749.4L1339.3 747.5L1340.7 639.3L1342 747.7L1343.3 746.9L1344.7 758.7L1346 415.9L1347.3 719.1L1348.7 724.3L1350 748.9L1351.3 660.8L1352.7 751.9L1354 740.8L1355.3 768.7L1356.7 337.1L1358 733.7L1359.3 723.9L1360.7 744.7L1362 631.5L1363.3 755.7L1364.7 762L1366 764L1367.3 413.3L1368.7 737.8L1370 754.9L1371.3 687L1372.7 627.7L1374 765.3L1375.3 764.3L1376.7 763.3L1378 391.3L1379.3 723L1380.7 753.5L1382 719.7L1383.3 561.4L1384.7 731.6L1386 744.3L1387.3 758.7L1388.7 384.2L1390 687.6L1391.3 737.2L1392.7 751.1L1394 641.5L1395.3 752.1L1396.7 759.7L1398 770.8L1399.3 418.8L1400.7 730.7L1402 749.7L1403.3 743.4L1404.7 609.9L1406 757.8L1407.3 759.8L1408.7 713.5L1410 425.6L1411.3 725.2L1412.7 748.6L1414 725.3L1415.3 650L1416.7 758.3L1418 764.7L1419.3 772.8L1420.7 402.7L1422 721.6L1423.3 760.7L1424.7 758L1426 635.5L1427.3 755L1428.7 761.4L1430 737.6L1431.3 353.7L1432.7 746L1434 746.4L1435.3 744.8L1436.7 653.1L1438 766.4L1439.3 762.4L1440.7 753.4L1442 400.4L1443.3 729.9L1444.7 757.6L1446 739.5L1447.3 632.3L1448.7 764L1450 750.2L1451.3 757.2L1452.7 373.2L1454 717.4L1455.3 745.3L1456.7 763.1L1458 650.4L1459.3 759.7L1460.7 750.6L1462 748.7L1463.3 347.5L1464.7 725.5L1466 734.6L1467.3 734.9L1468.7 653.2L1470 758.1L1471.3 766.3L1472.7 768.1L1474 390L1475.3 721.7L1476.7 748.5L1478 713.8L1479.3 628.8L1480.7 750.2L1482 756.1L1483.3 745.9L1484.7 391.6L1486 757.6L1487.3 756.8L1488.7 764L1490 640.3L1491.3 728.1L1492.7 769.7L1494 762.5L1495.3 384.5L1496.7 751.4L1498 738.6L1499.3 751.2L1500.7 641.2L1502 761.6L1503.3 763.6L1504.7 765.3L1506 397.6L1507.3 732.4L1508.7 730.6L1510 751.3L1511.3 639.4L1512.7 748.7L1514 744.7L1515.3 732.5L1516.7 282.1L1518 728.3L1519.3 751.6L1520.7 739.7L1522 582.3L1523.3 742.3L1524.7 772.9L1526 775.9L1527.3 396L1528.7 749.4L1530 738L1531.3 758.6L1532.7 589.5L1534 760.7L1535.3 762.1L1536.7 734L1538 428.4L1539.3 731.5L1540.7 754L1542 745.9L1543.3 653.2L1544.7 756.5L1546 755L1547.3 755.4L1548.7 421.7L1550 721.7L1551.3 758L1552.7 756.7L1554 662.2L1555.3 764L1556.7 745.3L1558 768.8L1559.3 416.7L1560.7 724.5L1562 735.5L1563.3 739L1564.7 646.1L1566 758.9L1567.3 761.3L1568.7 768.5L1570 248.2L1571.3 758.3L1572.7 743.4L1574 750.3L1575.3 658.5L1576.7 764.9L1578 754.5L1579.3 766.3L1580.7 424.6L1582 763L1583.3 760.4L1584.7 745L1586 641.6L1587.3 758.6L1588.7 763.9L1590 770.9L1591.3 417.2L1592.7 731.3L1594 749.3L1595.3 746.8L1596.7 631.3L1598 739.7L1599.3 749.2L1600.7 767.4L1602 394.5L1603.3 726.8L1604.7 710.4L1606 739.6L1607.3 641.7L1608.7 739.3L1610 748.7L1611.3 764.7L1612.7 337.7L1614 703.8L1615.3 746.5L1616.7 719.4L1618 630.1L1619.3 763.5L1620.7 732.4L1622 745.1L1623.3 380.8L1624.7 738.3L1626 736L1627.3 715.8L1628.7 624.6L1630 735.3L1631.3 767.7L1632.7 728.2L1634 369.9L1635.3 711.2L1636.7 703.9L1638 707.1L1639.3 645.1L1640.7 739.1L1642 753.9L1643.3 624.1L1644.7 373.2L1646 722.8L1647.3 748.9L1648.7 726.5L1650 642.9L1651.3 753.9L1652.7 728.5L1654 752.9L1655.3 319.5L1656.7 717.4L1658 724.9L1659.3 738.7L1660.7 617.6L1662 755.5L1663.3 759.6L1664.7 765.2L1666 377.2L1667.3 730L1668.7 752.4L1670 749.2L1671.3 653.3L1672.7 751.1L1674 764L1675.3 748.7L1676.7 389.5L1678 726.5L1679.3 752.6L1680.7 743.4L1682 642.9L1683.3 761.2L1684.7 761.2L1686 747.1L1687.3 416.7L1688.7 722.3L1690 738.5L1691.3 742.3L1692.7 627.3L1694 763.3L1695.3 760.7L1696.7 764.4L1698 398.8L1699.3 689.3L1700.7 719L1702 733.9L1703.3 638.9L1704.7 732.8L1706 749.3L1707.3 766.3L1708.7 332.4L1710 711L1711.3 722.7L1712.7 744L1714 634.7L1715.3 754.9L1716.7 736.5L1718 746.5L1719.3 413.4L1720.7 730L1722 699.6L1723.3 732.9L1724.7 632.5L1726 754.3L1727.3 757L1728.7 771.4L1730 367.5L1731.3 732.3L1732.7 704.6L1734 753.8L1735.3 645L1736.7 752L1738 761.7L1739.3 738.1L1740.7 367.2L1742 745.8L1743.3 751.5L1744.7 733.7L1746 632L1747.3 747.1L1748.7 769L1750 761.9L1751.3 378.3L1752.7 734.9L1754 761.8L1755.3 758.5L1756.7 647.4L1758 743.9L1759.3 768.7L1760.7 770.9L1762 420L1763.3 718.6L1764.7 751.5L1766 765.5L1767.3 637.3L1768.7 734.3L1770 765.6L1771.3 772.6L1772.7 406.7L1774 727L1775.3 738.1L1776.7 741.8L1778 634.2L1779.3 760.3L1780.7 752.5L1782 769.8L1783.3 396.9L1784.7 720.5L1786 746.3L1787.3 763.2L1788.7 608.8L1790 736.8L1791.3 760.7L1792.7 770.8L1794 380.5L1795.3 735.1L1796.7 720.6L1798 749.2L1799.3 631.5" fill="transparent" stroke="#6be6c1" stroke-width="3" stroke-linejoin="bevel" class="zr12-cls-38"></path>
</g>
<g clip-path="url(#zr12-c2)">
<path d="M200.7 50L202 607L203.3 740.8L204.7 322.7L206 729.4L207.3 736.3L208.7 739.2L210 577.1L211.3 652.9L212.7 681.4L214 743.9L215.3 396.6L216.7 749L218 757.8L219.3 764.3L220.7 663.1L222 764L223.3 761L224.7 769.4L226 403.1L227.3 736.9L228.7 732.6L230 764.5L231.3 652.1L232.7 756.3L234 757.1L235.3 765.6L236.7 440.6L238 695.7L239.3 715.9L240.7 744.4L242 623.4L243.3 753.4L244.7 758.1L246 748.8L247.3 428.8L248.7 743.4L250 762.2L251.3 750.8L252.7 654.9L254 751.3L255.3 762L256.7 748.1L258 388.6L259.3 759.5L260.7 753.7L262 760.8L263.3 639.5L264.7 768.5L266 763.1L267.3 761.7L268.7 377.7L270 743.4L271.3 639.3L272.7 722.6L274 634.5L275.3 761.3L276.7 769.1L278 762.4L279.3 390.8L280.7 723.8L282 737.2L283.3 754L284.7 605.3L286 752.1L287.3 766.6L288.7 771.3L290 357.3L291.3 747L292.7 739.6L294 756.1L295.3 641.2L296.7 773.5L298 766.3L299.3 763.3L300.7 404.3L302 743.1L303.3 739.2L304.7 754.7L306 654.3L307.3 756.6L308.7 759.2L310 761L311.3 375.8L312.7 729.7L314 754.6L315.3 730.7L316.7 654L318 758L319.3 765.3L320.7 764L322 406.7L323.3 710L324.7 759.7L326 757.6L327.3 610.3L328.7 751.8L330 757.6L331.3 758L332.7 403.3L334 712.9L335.3 751.6L336.7 740.6L338 650.1L339.3 758.1L340.7 769.4L342 765.8L343.3 374.3L344.7 726.8L346 751.8L347.3 748.9L348.7 604.8L350 710.1L351.3 733.5L352.7 758.3L354 352L355.3 726.6L356.7 746L358 748.3L359.3 597.3L360.7 749.7L362 754.4L363.3 770.8L364.7 260.3L366 718.1L367.3 741.8L368.7 731.6L370 592.3L371.3 760.2L372.7 756.6L374 762.9L375.3 389.5L376.7 728.8L378 745.4L379.3 740.4L380.7 628L382 755.3L383.3 766.8L384.7 770.3L386 350.5L387.3 711.4L388.7 745.7L390 722.9L391.3 639L392.7 766.1L394 756.1L395.3 768.2L396.7 361.9L398 735.5L399.3 745.1L400.7 750.1L402 652.6L403.3 736L404.7 747.6L406 764.6L407.3 399.9L408.7 719.3L410 766.6L411.3 728.1L412.7 615.2L414 757.8L415.3 755.4L416.7 775.5L418 397.5L419.3 731.3L420.7 752.1L422 758.1L423.3 625.2L424.7 754.4L426 759L427.3 738.8L428.7 364.3L430 699.4L431.3 737L432.7 750.3L434 649.7L435.3 758.9L436.7 749L438 774L439.3 381.8L440.7 724.3L442 702.7L443.3 698.6L444.7 628.7L446 763.6L447.3 763.1L448.7 774.6L450 377.6L451.3 732.1L452.7 760.1L454 602.1L455.3 663.6L456.7 762.9L458 756.1L459.3 755.1L460.7 409.8L462 748.5L463.3 759.4L464.7 757.4L466 623.4L467.3 761.9L468.7 746.9L470 760.7L471.3 332.8L472.7 726.1L474 748.1L475.3 734.9L476.7 616.5L478 760.2L479.3 760.1L480.7 754.2L482 376.5L483.3 750.5L484.7 759.4L486 737.1L487.3 655L488.7 757L490 775.9L491.3 751.6L492.7 404.5L494 721.7L495.3 751.5L496.7 736.2L498 647.6L499.3 760.3L500.7 761.3L502 769.8L503.3 348.1L504.7 719.1L506 739.7L507.3 757.1L508.7 631.6L510 731.1L511.3 744.2L512.7 747.6L514 370.7L515.3 720L516.7 718.1L518 732.8L519.3 646.2L520.7 741L522 759.3L523.3 765.4L524.7 387.9L526 748.9L527.3 733.6L528.7 763.9L530 579.2L531.3 745.9L532.7 761.7L534 762.7L535.3 400.3L536.7 726.4L538 765L539.3 764.8L540.7 646.3L542 760.8L543.3 770.9L544.7 761.2L546 398.9L547.3 754L548.7 752.3L550 743.9L551.3 643.1L552.7 766.1L554 759.8L555.3 755.1L556.7 411.9L558 732.3L559.3 738.5L560.7 763.2L562 636.1L563.3 752.3L564.7 756.5L566 760.2L567.3 387.5L568.7 753L570 650L571.3 617.8L572.7 468.4L574 662.1L575.3 632.3L576.7 670L578 274.4L579.3 570L580.7 602.9L582 710.2L583.3 639.6L584.7 763.2L586 742.3L587.3 765L588.7 -133.7L590 681.4L591.3 710.8L592.7 731.8L594 601.9L595.3 743.1L596.7 743L598 775.7L599.3 382.2L600.7 743.3L602 737.6L603.3 758.9L604.7 630.4L606 765L607.3 767.7L608.7 768.8L610 384.8L611.3 744.3L612.7 756.7L614 753.1L615.3 646.5L616.7 755.1L618 758.5L619.3 760.4L620.7 420.3L622 710.2L623.3 741.6L624.7 761.4L626 657.3L627.3 737.1L628.7 765L630 724.8L631.3 400.5L632.7 757.2L634 757.5L635.3 756.1L636.7 646.6L638 764L639.3 759.8L640.7 765.6L642 423.3L643.3 728.9L644.7 768.2L646 759.4L647.3 611.4L648.7 760.9L650 759.8L651.3 776.9L652.7 416.3L654 727.8L655.3 763.3L656.7 746.6L658 636.6L659.3 748.2L660.7 757.7L662 773.5L663.3 379.1L664.7 726.5L666 751.3L667.3 729.1L668.7 622.6L670 726.6L671.3 721.4L672.7 750L674 332.7L675.3 744.8L676.7 726.5L678 740.8L679.3 637.4L680.7 737.1L682 750.3L683.3 733.5L684.7 336L686 727.8L687.3 757.1L688.7 752.9L690 657L691.3 743.2L692.7 763.5L694 755.8L695.3 386.5L696.7 728.5L698 764.7L699.3 742.3L700.7 617.8L702 754L703.3 761L704.7 757.6L706 373.2L707.3 733.5L708.7 739.8L710 754.8L711.3 658.9L712.7 744.5L714 763.4L715.3 770.9L716.7 327.6L718 720.2L719.3 763.7L720.7 752.2L722 645.5L723.3 766.6L724.7 751.3L726 737.1L727.3 340.2L728.7 718.8L730 748.8L731.3 746.1L732.7 635.7L734 776.1L735.3 759.8L736.7 759.9L738 396.5L739.3 739.4L740.7 760.5L742 739.1L743.3 643.6L744.7 759.3L746 756.9L747.3 778.2L748.7 328L750 670.5L751.3 733.9L752.7 740.1L754 650.5L755.3 756.8L756.7 746.2L758 756.7L759.3 384.4L760.7 710.2L762 713.8L763.3 719.9L764.7 635.5L766 764.8L767.3 758.3L768.7 756.5L770 360.9L771.3 730.4L772.7 739.2L774 735.3L775.3 644.7L776.7 753.1L778 762.3L779.3 760.6L780.7 324.8L782 707L783.3 756.3L784.7 751.3L786 653.1L787.3 761.9L788.7 753.2L790 766.6L791.3 398.4L792.7 739.8L794 750L795.3 738.1L796.7 624.3L798 769.2L799.3 754.5L800.7 760.4L802 403.2L803.3 753.4L804.7 760.8L806 749.2L807.3 635L808.7 762L810 767.1L811.3 759.8L812.7 414.1L814 750.4L815.3 756.6L816.7 768.4L818 643.3L819.3 766.6L820.7 724L822 779.2L823.3 411.9L824.7 718.5L826 762.2L827.3 761.2L828.7 659.3L830 758.2L831.3 747L832.7 719.3L834 394.9L835.3 721.7L836.7 748.5L838 737.6L839.3 645.5L840.7 769.8L842 738.5L843.3 754.7L844.7 370.2L846 748.1L847.3 751.4L848.7 767.7L850 658.4L851.3 761.4L852.7 765.9L854 767.1L855.3 378.7L856.7 729.9L858 725.4L859.3 724.2L860.7 620.4L862 762.7L863.3 747.2L864.7 767.6L866 342.9L867.3 761.8L868.7 742.8L870 751.8L871.3 633.9L872.7 754.2L874 761.6L875.3 755.2L876.7 369L878 742.3L879.3 760.6L880.7 741.3L882 645.4L883.3 759.4L884.7 765L886 753.4L887.3 368.1L888.7 737L890 747.5L891.3 749.5L892.7 657.4L894 750.8L895.3 766L896.7 753.4L898 413.5L899.3 737.1L900.7 734.9L902 756.9L903.3 635.5L904.7 761.5L906 764.8L907.3 762.3L908.7 406.9L910 762L911.3 764.5L912.7 768.2L914 641.9L915.3 768.8L916.7 755.6L918 766.1L919.3 370.2L920.7 727.8L922 750.7L923.3 742.3L924.7 634L926 770.9L927.3 761.3L928.7 745.6L930 380.2L931.3 739.7L932.7 758.4L934 757.3L935.3 631.5L936.7 753.8L938 751.2L939.3 752.5L940.7 361.3L942 728L943.3 752.3L944.7 748.4L946 667.9L947.3 768.6L948.7 765.9L950 750.3L951.3 441L952.7 729L954 769.8L955.3 745.6L956.7 645.2L958 762.6L959.3 767.2L960.7 769.3L962 399.9L963.3 715.5L964.7 722.3L966 712.1L967.3 608.2L968.7 750.2L970 752.9L971.3 775.2L972.7 413.5L974 728.1L975.3 742.6L976.7 760.5L978 638.2L979.3 740.9L980.7 755L982 754.6L983.3 411.8L984.7 721.2L986 730.8L987.3 737.4L988.7 644.3L990 764L991.3 762.2L992.7 769.1L994 310.8L995.3 722.3L996.7 756.6L998 731L999.3 627.6L1000.7 766.3L1002 749.5L1003.3 772.4L1004.7 367.6L1006 736L1007.3 758.1L1008.7 733.3L1010 604.6L1011.3 758.9L1012.7 736.6L1014 755.3L1015.3 372.1L1016.7 687.6L1018 733.3L1019.3 633L1020.7 614.4L1022 754.4L1023.3 761.9L1024.7 775.5L1026 366.5L1027.3 697.9L1028.7 754.5L1030 745.4L1031.3 635.1L1032.7 746.6L1034 749.7L1035.3 764.2L1036.7 345.9L1038 732.5L1039.3 743.4L1040.7 745L1042 621.9L1043.3 756.6L1044.7 762.7L1046 740.7L1047.3 386.5L1048.7 715.4L1050 759L1051.3 719.5L1052.7 639.3L1054 744.6L1055.3 762.9L1056.7 767.8L1058 372.6L1059.3 735.4L1060.7 752.5L1062 741.3L1063.3 635.1L1064.7 756.2L1066 757.1L1067.3 772.2L1068.7 409.1L1070 722.7L1071.3 758.7L1072.7 759.6L1074 651.8L1075.3 744.8L1076.7 729.5L1078 745.7L1079.3 317.5L1080.7 718.6L1082 727.6L1083.3 739.7L1084.7 653L1086 757.5L1087.3 754.5L1088.7 713.3L1090 320.7L1091.3 734.9L1092.7 758.6L1094 739.7L1095.3 625.2L1096.7 772.6L1098 773.5L1099.3 766.9L1100.7 295.5L1102 746.3L1103.3 757.6L1104.7 746.7L1106 640.5L1107.3 748.1L1108.7 766.6L1110 749.8L1111.3 349.2L1112.7 723.8L1114 766.1L1115.3 768.6L1116.7 632L1118 779.6L1119.3 764.2L1120.7 759.8L1122 380.7L1123.3 718.3L1124.7 740.8L1126 764.3L1127.3 646.4L1128.7 766.3L1130 762.4L1131.3 763.4L1132.7 341.5L1134 732.9L1135.3 757L1136.7 760.3L1138 636.1L1139.3 764.8L1140.7 752.3L1142 756.4L1143.3 379.9L1144.7 733.4L1146 753.3L1147.3 732.3L1148.7 662.5L1150 751.4L1151.3 769.6L1152.7 770.1L1154 406L1155.3 733L1156.7 696.4L1158 726.3L1159.3 643L1160.7 765L1162 748.4L1163.3 757.6L1164.7 407L1166 737L1167.3 753L1168.7 727.6L1170 614.1L1171.3 768.1L1172.7 764.3L1174 768.6L1175.3 308.4L1176.7 747.6L1178 748.2L1179.3 765.1L1180.7 620.2L1182 757.9L1183.3 774.9L1184.7 769.2L1186 368L1187.3 749.6L1188.7 761.8L1190 755.3L1191.3 652.7L1192.7 765.1L1194 756.6L1195.3 759.7L1196.7 367L1198 734L1199.3 763.2L1200.7 768.9L1202 651L1203.3 763.9L1204.7 767.5L1206 765.6L1207.3 354.8L1208.7 741.2L1210 692.2L1211.3 763.3L1212.7 670.3L1214 741.2L1215.3 762.2L1216.7 758.4L1218 434.1L1219.3 731L1220.7 756.2L1222 742.4L1223.3 626.3L1224.7 773L1226 774.1L1227.3 770.7L1228.7 413.8L1230 723.3L1231.3 747.7L1232.7 767.8L1234 625.1L1235.3 766.5L1236.7 766.6L1238 765L1239.3 316.5L1240.7 711.9L1242 747.3L1243.3 765.6L1244.7 606.6L1246 767.6L1247.3 755.7L1248.7 739.4L1250 424.4L1251.3 728.2L1252.7 714.6L1254 737.6L1255.3 657.4L1256.7 752.4L1258 768.7L1259.3 776.3L1260.7 305.6L1262 754L1263.3 755.6L1264.7 742.4L1266 661L1267.3 761.1L1268.7 765.6L1270 763.7L1271.3 443.2L1272.7 724.6L1274 764.4L1275.3 751.4L1276.7 655.6L1278 759.3L1279.3 760.6L1280.7 751.3L1282 409.8L1283.3 731.3L1284.7 733L1286 737L1287.3 643.1L1288.7 760.8L1290 763L1291.3 772L1292.7 406.1L1294 729.1L1295.3 760.4L1296.7 740.2L1298 644.2L1299.3 746.6L1300.7 759.3L1302 764.5L1303.3 379.6L1304.7 748.6L1306 763.4L1307.3 752.4L1308.7 656.2L1310 741L1311.3 759.6L1312.7 774L1314 419.8L1315.3 721.9L1316.7 758.8L1318 737.2L1319.3 641.1L1320.7 731.8L1322 712.1L1323.3 756.5L1324.7 373.9L1326 722.4L1327.3 726.8L1328.7 738.1L1330 615.3L1331.3 730.2L1332.7 757.2L1334 731.7L1335.3 313L1336.7 712.2L1338 715.4L1339.3 732L1340.7 611.4L1342 768.2L1343.3 760.8L1344.7 758.7L1346 377L1347.3 747.5L1348.7 742.3L1350 669L1351.3 625.7L1352.7 762.9L1354 746.1L1355.3 771L1356.7 410.2L1358 741.6L1359.3 762.5L1360.7 758.2L1362 646.3L1363.3 756.5L1364.7 771.2L1366 762.6L1367.3 416L1368.7 708.4L1370 729.5L1371.3 751.5L1372.7 631.1L1374 741.9L1375.3 725.4L1376.7 687.4L1378 373.8L1379.3 717L1380.7 737.1L1382 745.2L1383.3 646.8L1384.7 750.8L1386 770.3L1387.3 786.2L1388.7 398.7L1390 730.5L1391.3 755.7L1392.7 765L1394 645.8L1395.3 759.7L1396.7 764.6L1398 767.3L1399.3 360.7L1400.7 722L1402 740.2L1403.3 738.5L1404.7 621.5L1406 758.2L1407.3 761.3L1408.7 764L1410 373.7L1411.3 704.9L1412.7 721.8L1414 729.1L1415.3 642.4L1416.7 753.8L1418 734L1419.3 779.3L1420.7 334.1L1422 738.1L1423.3 737.3L1424.7 735.5L1426 611.9L1427.3 764L1428.7 774.5L1430 759.9L1431.3 358.8L1432.7 727L1434 750L1435.3 746.9L1436.7 648.3L1438 768.7L1439.3 761.3L1440.7 766.9L1442 412.2L1443.3 713.6L1444.7 750.7L1446 743.1L1447.3 643.6L1448.7 761.7L1450 766.6L1451.3 766L1452.7 402.3L1454 729.6L1455.3 721.4L1456.7 765.5L1458 660.5L1459.3 769.9L1460.7 756.4L1462 753.3L1463.3 396.7L1464.7 734.3L1466 744.5L1467.3 741.4L1468.7 637L1470 764.3L1471.3 774.4L1472.7 759.7L1474 406.6L1475.3 737.6L1476.7 767.5L1478 734.1L1479.3 602.8L1480.7 746.8L1482 730.3L1483.3 762.1L1484.7 392.4L1486 711.7L1487.3 742.3L1488.7 742.2L1490 618.5L1491.3 756.7L1492.7 772.5L1494 776L1495.3 388.7L1496.7 754.1L1498 745.1L1499.3 753.7L1500.7 598.8L1502 752.4L1503.3 755.4L1504.7 760.8L1506 387.2L1507.3 743.4L1508.7 758.7L1510 756.1L1511.3 624.6L1512.7 755.3L1514 746.9L1515.3 760.3L1516.7 385.6L1518 740.2L1519.3 740L1520.7 757.7L1522 652.6L1523.3 756.3L1524.7 759L1526 756.3L1527.3 375.4L1528.7 739.5L1530 741.8L1531.3 762L1532.7 636.8L1534 759.8L1535.3 762.4L1536.7 767.7L1538 429.8L1539.3 740.7L1540.7 753.3L1542 761L1543.3 635.5L1544.7 761.9L1546 754.7L1547.3 747.9L1548.7 435.9L1550 740.7L1551.3 750.8L1552.7 746L1554 633.6L1555.3 770.6L1556.7 783.3L1558 773.1L1559.3 445.5L1560.7 760.4L1562 762.6L1563.3 760.9L1564.7 648.7L1566 728.1L1567.3 719.6L1568.7 755.8L1570 346.3L1571.3 755.2L1572.7 730.8L1574 760.7L1575.3 639.3L1576.7 764.5L1578 755.8L1579.3 753.5L1580.7 395.7L1582 741.3L1583.3 758.2L1584.7 758.6L1586 577.2L1587.3 754.9L1588.7 764.6L1590 766.6L1591.3 329.5L1592.7 649.4L1594 752.4L1595.3 734.9L1596.7 635.9L1598 773.5L1599.3 757.8L1600.7 755.1L1602 410.8L1603.3 719.1L1604.7 746.6L1606 733.2L1607.3 632.8L1608.7 770.3L1610 758.5L1611.3 762.4L1612.7 348.6L1614 709.9L1615.3 750.8L1616.7 757.1L1618 637.4L1619.3 747.6L1620.7 756.5L1622 770.3L1623.3 377.5L1624.7 694.3L1626 730.2L1627.3 692.7L1628.7 633.1L1630 739.6L1631.3 757.8L1632.7 766.7L1634 139.2L1635.3 698L1636.7 734.8L1638 734.4L1639.3 614.3L1640.7 763.4L1642 761.6L1643.3 774L1644.7 427.1L1646 714L1647.3 737L1648.7 716.3L1650 637.9L1651.3 732.9L1652.7 761.9L1654 760.4L1655.3 400.3L1656.7 698.3L1658 731.7L1659.3 739.9L1660.7 636.7L1662 753.3L1663.3 723.3L1664.7 755.3L1666 410.3L1667.3 735.2L1668.7 750.5L1670 749L1671.3 656.3L1672.7 767.7L1674 752.8L1675.3 750.7L1676.7 412.4L1678 718.6L1679.3 749.7L1680.7 748L1682 656.3L1683.3 762.3L1684.7 764.5L1686 757.4L1687.3 353.4L1688.7 738.6L1690 733.4L1691.3 744.7L1692.7 638.3L1694 768.1L1695.3 741.4L1696.7 773L1698 351.2L1699.3 736.7L1700.7 745.6L1702 743.4L1703.3 640.8L1704.7 772.7L1706 765.5L1707.3 767.1L1708.7 340.3L1710 730.9L1711.3 752.2L1712.7 758.3L1714 633.5L1715.3 759.5L1716.7 763.9L1718 764.1L1719.3 358L1720.7 737.2L1722 755.3L1723.3 748.1L1724.7 631.1L1726 753.9L1727.3 765.3L1728.7 772.3L1730 388L1731.3 656.4L1732.7 748.7L1734 749L1735.3 643.9L1736.7 724.8L1738 732.5L1739.3 756.6L1740.7 401.8L1742 684.7L1743.3 747.3L1744.7 763.4L1746 637.1L1747.3 760.1L1748.7 725.1L1750 756.6L1751.3 410L1752.7 727.6L1754 662.2L1755.3 734.7L1756.7 631.4L1758 744L1759.3 766.1L1760.7 764.7L1762 375.6L1763.3 749.7L1764.7 757.6L1766 768.6L1767.3 624L1768.7 780.5L1770 760.6L1771.3 752L1772.7 388.1L1774 727.8L1775.3 749.5L1776.7 739.4L1778 619.3L1779.3 759.5L1780.7 761.3L1782 756.9L1783.3 404.3L1784.7 722L1786 758.2L1787.3 742.9L1788.7 641.9L1790 756.2L1791.3 754.1L1792.7 772.2L1794 384.2L1795.3 729.6L1796.7 764.5L1798 763.9L1799.3 627.7" fill="transparent" stroke="#626c91" stroke-width="3" stroke-linejoin="bevel" class="zr12-cls-38"></path>
</g>
<path d="M-309.4 -5l618.8 0l0 28l-618.8 0Z" transform="translate(1000 5)" fill="rgb(0,0,0)" fill-opacity="0" stroke="#ccc" stroke-width="0" class="zr12-cls-36"></path>
<text dominant-baseline="central" text-anchor="middle" style="font-size:18px;font-family:sans-serif;font-weight:bold;" xml:space="preserve" y="9" transform="translate(1000 5)" fill="#666666">controlBehaviorUpdate per Tick for bench_4_every_240_staggered_reverse</text>
<defs >
<clipPath id="zr12-c0">
<path d="M198 58.5l16004 0l0 8703l-16004 0Z" fill="#000" class="zr12-cls-37"></path>
</clipPath>
<clipPath id="zr12-c1">
<path d="M198 58.5l16004 0l0 8703l-16004 0Z" fill="#000" class="zr12-cls-37"></path>
</clipPath>
<clipPath id="zr12-c2">
<path d="M198 58.5l16004 0l0 8703l-16004 0Z" fill="#000" class="zr12-cls-37"></path>
</clipPath>
</defs>
<style ><![CDATA[
.zr12-cls-36:hover {
pointer-events:none;
}
.zr12-cls-37:hover {
cursor:pointer;
fill:rgba(0,0,0,1);
}
.zr12-cls-38:hover {
cursor:pointer;
}

]]>

</style>
</svg>