<svg width="2000" height="1000" xmlns="http://www.w3.org/2000/svg" xmlns:xlink="http://www.w3.org/1999/xlink" version="1.1" baseProfile="full" viewBox="0 0 2000 1000">
<rect width="2000" height="1000" x="0" y="0" fill="rgb(252,252,252)" fill-opacity="0"></rect>
<path d="M200 930.5L1800 930.5" fill="transparent" stroke="#eeeeee" class="zr46-cls-138"></path>
<path d="M200 743.5L1800 743.5" fill="transparent" stroke="#eeeeee" class="zr46-cls-138"></path>
<path d="M200 556.5L1800 556.5" fill="transparent" stroke="#eeeeee" class="zr46-cls-138"></path>
<path d="M200 370.5L1800 370.5" fill="transparent" stroke="#eeeeee" class="zr46-cls-138"></path>
<path d="M200 183.5L1800 183.5" fill="transparent" stroke="#eeeeee" class="zr46-cls-138"></path>
<path d="M200 60.5L1800 60.5" fill="transparent" stroke="#eeeeee" class="zr46-cls-138"></path>
<path d="M200.5 930L200.5 60" fill="transparent" stroke="#cccccc" stroke-linecap="round" class="zr46-cls-138"></path>
<text dominant-baseline="central" text-anchor="middle" style="font-size:12px;font-family:sans-serif;" xml:space="preserve" y="-6" transform="translate(200 45)" fill="#cccccc">entityUpdate Time (ms)</text>
<path d="M200 930.5L1800 930.5" fill="transparent" stroke="#cccccc" stroke-linecap="round" class="zr46-cls-138"></path>
<text dominant-baseline="central" text-anchor="end" style="font-size:12px;font-family:sans-serif;" transform="translate(192 930)" fill="#999999">0.000</text>
<text dominant-baseline="central" text-anchor="end" style="font-size:12px;font-family:sans-serif;" transform="translate(192 743.2702)" fill="#999999">1.000</text>
<text dominant-baseline="central" text-anchor="end" style="font-size:12px;font-family:sans-serif;" transform="translate(192 556.5403)" fill="#999999">2.000</text>
<text dominant-baseline="central" text-anchor="end" style="font-size:12px;font-family:sans-serif;" transform="translate(192 369.8105)" fill="#999999">3.000</text>
<text dominant-baseline="central" text-anchor="end" style="font-size:12px;font-family:sans-serif;" transform="translate(192 183.0807)" fill="#999999">4.000</text>
<text dominant-baseline="central" text-anchor="end" style="font-size:12px;font-family:sans-serif;" transform="translate(192 60)" fill="#999999">4.659</text>
<text dominant-baseline="central" text-anchor="middle" style="font-size:12px;font-family:sans-serif;" y="6" transform="translate(200.6667 938)" fill="#999999">0</text>
<text dominant-baseline="central" text-anchor="middle" style="font-size:12px;font-family:sans-serif;" y="6" transform="translate(236.6667 938)" fill="#999999">27</text>
<text dominant-baseline="central" text-anchor="middle" style="font-size:12px;font-family:sans-serif;" y="6" transform="translate(272.6667 938)" fill="#999999">54</text>
<text dominant-baseline="central" text-anchor="middle" style="font-size:12px;font-family:sans-serif;" y="6" transform="translate(308.6667 938)" fill="#999999">81</text>
<text dominant-baseline="central" text-anchor="middle" style="font-size:12px;font-family:sans-serif;" y="6" transform="translate(344.6667 938)" fill="#999999">108</text>
<text dominant-baseline="central" text-anchor="middle" style="font-size:12px;font-family:sans-serif;" y="6" transform="translate(380.6667 938)" fill="#999999">135</text>
<text dominant-baseline="central" text-anchor="middle" style="font-size:12px;font-family:sans-serif;" y="6" transform="translate(416.6667 938)" fill="#999999">162</text>
<text dominant-baseline="central" text-anchor="middle" style="font-size:12px;font-family:sans-serif;" y="6" transform="translate(452.6667 938)" fill="#999999">189</text>
<text dominant-baseline="central" text-anchor="middle" style="font-size:12px;font-family:sans-serif;" y="6" transform="translate(488.6667 938)" fill="#999999">216</text>
<text dominant-baseline="central" text-anchor="middle" style="font-size:12px;font-family:sans-serif;" y="6" transform="translate(524.6667 938)" fill="#999999">243</text>
<text dominant-baseline="central" text-anchor="middle" style="font-size:12px;font-family:sans-serif;" y="6" transform="translate(560.6667 938)" fill="#999999">270</text>
<text dominant-baseline="central" text-anchor="middle" style="font-size:12px;font-family:sans-serif;" y="6" transform="translate(596.6667 938)" fill="#999999">297</text>
<text dominant-baseline="central" text-anchor="middle" style="font-size:12px;font-family:sans-serif;" y="6" transform="translate(632.6667 938)" fill="#999999">324</text>
<text dominant-baseline="central" text-anchor="middle" style="font-size:12px;font-family:sans-serif;" y="6" transform="translate(668.6667 938)" fill="#999999">351</text>
<text dominant-baseline="central" text-anchor="middle" style="font-size:12px;font-family:sans-serif;" y="6" transform="translate(704.6667 938)" fill="#999999">378</text>
<text dominant-baseline="central" text-anchor="middle" style="font-size:12px;font-family:sans-serif;" y="6" transform="translate(740.6667 938)" fill="#999999">405</text>
<text dominant-baseline="central" text-anchor="middle" style="font-size:12px;font-family:sans-serif;" y="6" transform="translate(776.6667 938)" fill="#999999">432</text>
<text dominant-baseline="central" text-anchor="middle" style="font-size:12px;font-family:sans-serif;" y="6" transform="translate(812.6667 938)" fill="#999999">459</text>
<text dominant-baseline="central" text-anchor="middle" style="font-size:12px;font-family:sans-serif;" y="6" transform="translate(848.6667 938)" fill="#999999">486</text>
<text dominant-baseline="central" text-anchor="middle" style="font-size:12px;font-family:sans-serif;" y="6" transform="translate(884.6667 938)" fill="#999999">513</text>
<text dominant-baseline="central" text-anchor="middle" style="font-size:12px;font-family:sans-serif;" y="6" transform="translate(920.6667 938)" fill="#999999">540</text>
<text dominant-baseline="central" text-anchor="middle" style="font-size:12px;font-family:sans-serif;" y="6" transform="translate(956.6667 938)" fill="#999999">567</text>
<text dominant-baseline="central" text-anchor="middle" style="font-size:12px;font-family:sans-serif;" y="6" transform="translate(992.6667 938)" fill="#999999">594</text>
<text dominant-baseline="central" text-anchor="middle" style="font-size:12px;font-family:sans-serif;" y="6" transform="translate(1028.6667 938)" fill="#999999">621</text>
<text dominant-baseline="central" text-anchor="middle" style="font-size:12px;font-family:sans-serif;" y="6" transform="translate(1064.6667 938)" fill="#999999">648</text>
<text dominant-baseline="central" text-anchor="middle" style="font-size:12px;font-family:sans-serif;" y="6" transform="translate(1100.6667 938)" fill="#999999">675</text>
<text dominant-baseline="central" text-anchor="middle" style="font-size:12px;font-family:sans-serif;" y="6" transform="translate(1136.6667 938)" fill="#999999">702</text>
<text dominant-baseline="central" text-anchor="middle" style="font-size:12px;font-family:sans-serif;" y="6" transform="translate(1172.6667 938)" fill="#999999">729</text>
<text dominant-baseline="central" text-anchor="middle" style="font-size:12px;font-family:sans-serif;" y="6" transform="translate(1208.6667 938)" fill="#999999">756</text>
<text dominant-baseline="central" text-anchor="middle" style="font-size:12px;font-family:sans-serif;" y="6" transform="translate(1244.6667 938)" fill="#999999">783</text>
<text dominant-baseline="central" text-anchor="middle" style="font-size:12px;font-family:sans-serif;" y="6" transform="translate(1280.6667 938)" fill="#999999">810</text>
<text dominant-baseline="central" text-anchor="middle" style="font-size:12px;font-family:sans-serif;" y="6" transform="translate(1316.6667 938)" fill="#999999">837</text>
<text dominant-baseline="central" text-anchor="middle" style="font-size:12px;font-family:sans-serif;" y="6" transform="translate(1352.6667 938)" fill="#999999">864</text>
<text dominant-baseline="central" text-anchor="middle" style="font-size:12px;font-family:sans-serif;" y="6" transform="translate(1388.6667 938)" fill="#999999">891</text>
<text dominant-baseline="central" text-anchor="middle" style="font-size:12px;font-family:sans-serif;" y="6" transform="translate(1424.6667 938)" fill="#999999">918</text>
<text dominant-baseline="central" text-anchor="middle" style="font-size:12px;font-family:sans-serif;" y="6" transform="translate(1460.6667 938)" fill="#999999">945</text>
<text dominant-baseline="central" text-anchor="middle" style="font-size:12px;font-family:sans-serif;" y="6" transform="translate(1496.6667 938)" fill="#999999">972</text>
<text dominant-baseline="central" text-anchor="middle" style="font-size:12px;font-family:sans-serif;" y="6" transform="translate(1532.6667 938)" fill="#999999">999</text>
<text dominant-baseline="central" text-anchor="middle" style="font-size:12px;font-family:sans-serif;" y="6" transform="translate(1568.6667 938)" fill="#999999">1026</text>
<text dominant-baseline="central" text-anchor="middle" style="font-size:12px;font-family:sans-serif;" y="6" transform="translate(1604.6667 938)" fill="#999999">1053</text>
<text dominant-baseline="central" text-anchor="middle" style="font-size:12px;font-family:sans-serif;" y="6" transform="translate(1640.6667 938)" fill="#999999">1080</text>
<text dominant-baseline="central" text-anchor="middle" style="font-size:12px;font-family:sans-serif;" y="6" transform="translate(1676.6667 938)" fill="#999999">1107</text>
<text dominant-baseline="central" text-anchor="middle" style="font-size:12px;font-family:sans-serif;" y="6" transform="translate(1712.6667 938)" fill="#999999">1134</text>
<text dominant-baseline="central" text-anchor="middle" style="font-size:12px;font-family:sans-serif;" y="6" transform="translate(1748.6667 938)" fill="#999999">1161</text>
<text dominant-baseline="central" text-anchor="middle" style="font-size:12px;font-family:sans-serif;" y="6" transform="translate(1784.6667 938)" fill="#999999">1188</text>
<g clip-path="url(#zr46-c0)">
<path d="M200.7 469.1L202 774.1L203.3 645.6L204.7 799.6L206 579.9L207.3 793.1L208.7 666.8L210 809.4L211.3 614L212.7 812.3L214 553.3L215.3 823.9L216.7 587.1L218 797.5L219.3 668.5L220.7 826L222 562.2L223.3 815.6L224.7 643.8L226 816.4L227.3 604.4L228.7 820.2L230 664.3L231.3 823.4L232.7 644.9L234 795.4L235.3 657.8L236.7 822.7L238 634.8L239.3 806.3L240.7 660.7L242 805L243.3 649.9L244.7 791.1L246 623.9L247.3 806.6L248.7 654.5L250 828.2L251.3 665.1L252.7 796.3L254 664L255.3 808.7L256.7 590.8L258 817L259.3 616.6L260.7 803.3L262 396.3L263.3 693.6L264.7 332.1L266 670.6L267.3 314.9L268.7 659.6L270 348L271.3 645.1L272.7 294.2L274 672.7L275.3 319.4L276.7 671.6L278 305.9L279.3 647.9L280.7 232.6L282 665.1L283.3 302.2L284.7 647.4L286 290L287.3 649L288.7 347.9L290 597L291.3 333L292.7 674.8L294 338.6L295.3 644.9L296.7 313.3L298 663L299.3 309.6L300.7 650.6L302 273.3L303.3 630.8L304.7 306.5L306 621.4L307.3 169.4L308.7 637.5L310 337.3L311.3 667.9L312.7 281.4L314 696.1L315.3 297.8L316.7 653.9L318 354.7L319.3 621.8L320.7 339L322 654.5L323.3 308.4L324.7 664.5L326 338.9L327.3 682L328.7 313.1L330 673.9L331.3 389.6L332.7 671.5L334 346.3L335.3 686.3L336.7 269.6L338 661.3L339.3 200.7L340.7 624.7L342 563.2L343.3 773.8L344.7 567.5L346 810.6L347.3 630.2L348.7 767.8L350 638.2L351.3 815.5L352.7 604.8L354 805.1L355.3 637.3L356.7 800.9L358 615.6L359.3 806L360.7 637.4L362 776.9L363.3 648.9L364.7 818.3L366 642.4L367.3 758.5L368.7 650.7L370 771.6L371.3 623.1L372.7 774.2L374 638.2L375.3 778L376.7 439.7L378 761.6L379.3 531.4L380.7 731.2L382 423.4L383.3 727.3L384.7 544.3L386 751.5L387.3 501.5L388.7 786L390 434.4L391.3 797.5L392.7 621.7L394 814.9L395.3 605.6L396.7 815.9L398 629.8L399.3 824.9L400.7 667.2L402 763.2L403.3 646L404.7 805.5L406 677.3L407.3 781.5L408.7 601.2L410 808.2L411.3 677.4L412.7 806.6L414 526.1L415.3 799.3L416.7 597L418 789.3L419.3 522.3L420.7 793.6L422 595.1L423.3 798.1L424.7 625.4L426 801.7L427.3 653.3L428.7 808.6L430 640.4L431.3 785L432.7 600.9L434 800.4L435.3 614.6L436.7 804.7L438 600.6L439.3 763.2L440.7 616.3L442 806.9L443.3 619.8L444.7 777.1L446 613L447.3 796.5L448.7 636L450 800.6L451.3 635.9L452.7 795.4L454 643.7L455.3 798.7L456.7 620L458 803.9L459.3 640.9L460.7 801.9L462 644.3L463.3 786.4L464.7 655L466 806L467.3 653.5L468.7 783.3L470 637.3L471.3 810.2L472.7 612L474 810.8L475.3 607.2L476.7 781.1L478 609.3L479.3 762.6L480.7 648.6L482 803.6L483.3 634.4L484.7 776.6L486 645.3L487.3 812.1L488.7 664L490 811.3L491.3 635.9L492.7 800.7L494 627.5L495.3 815.3L496.7 565.3L498 796.4L499.3 626.9L500.7 815.8L502 598.2L503.3 805.9L504.7 605.6L506 774.7L507.3 612.5L508.7 780.9L510 631.2L511.3 791.5L512.7 638.8L514 808.4L515.3 626.9L516.7 788.1L518 630.4L519.3 811.9L520.7 623.7L522 806L523.3 649.8L524.7 817.4L526 631.8L527.3 788.3L528.7 613.1L530 806.1L531.3 580.1L532.7 792.6L534 622.2L535.3 802.2L536.7 588.3L538 811.3L539.3 636L540.7 799.6L542 621.9L543.3 789.9L544.7 658.9L546 821.9L547.3 647.7L548.7 784.1L550 634.4L551.3 803.4L552.7 651.7L554 796.7L555.3 655.6L556.7 805.5L558 650L559.3 799.6L560.7 658.9L562 814.3L563.3 656.6L564.7 811.1L566 651.4L567.3 786.3L568.7 633.1L570 795.1L571.3 627.9L572.7 796.8L574 650.9L575.3 827L576.7 554.9L578 812.9L579.3 615.9L580.7 783L582 392.8L583.3 681.4L584.7 333.9L586 662.5L587.3 320.9L588.7 654.4L590 339.5L591.3 506.6L592.7 219.9L594 621.9L595.3 343.6L596.7 646.1L598 331.9L599.3 676.4L600.7 282.4L602 673.7L603.3 303.3L604.7 670.7L606 313.3L607.3 636.8L608.7 368.1L610 618.9L611.3 322.9L612.7 650.7L614 340.4L615.3 648.7L616.7 265.8L618 648.3L619.3 310.5L620.7 605.7L622 293.3L623.3 660.3L624.7 347L626 642.6L627.3 184.9L628.7 677.4L630 366L631.3 700.1L632.7 328L634 647.5L635.3 347.3L636.7 669.3L638 345.2L639.3 630.6L640.7 375.4L642 707.5L643.3 307.2L644.7 673L646 369.5L647.3 661L648.7 377.7L650 666L651.3 395.3L652.7 670.6L654 329.1L655.3 692.4L656.7 307.3L658 670.7L659.3 354.2L660.7 657.1L662 572.8L663.3 771.7L664.7 569.2L666 803.5L667.3 622.5L668.7 798.9L670 604.1L671.3 793.6L672.7 614.8L674 787.2L675.3 628.3L676.7 809.4L678 618.2L679.3 796.6L680.7 596.7L682 796L683.3 661.3L684.7 806.6L686 630.9L687.3 798.4L688.7 660.5L690 755.6L691.3 640.7L692.7 795.7L694 668L695.3 786.7L696.7 636.2L698 818L699.3 664.5L700.7 792.7L702 638.2L703.3 820.1L704.7 651.2L706 810.1L707.3 625.5L708.7 798.9L710 643.5L711.3 825.4L712.7 623.6L714 799.3L715.3 629.8L716.7 807.8L718 582.3L719.3 816.4L720.7 669.5L722 825.8L723.3 618.5L724.7 801.3L726 675.9L727.3 806.2L728.7 584.2L730 799L731.3 675.6L732.7 808.8L734 658.8L735.3 788.9L736.7 604.1L738 803.1L739.3 598.3L740.7 793.6L742 626.2L743.3 801.7L744.7 596.8L746 804.3L747.3 622.5L748.7 793.8L750 597.7L751.3 769.9L752.7 561.8L754 804.7L755.3 616.6L756.7 811.6L758 608.4L759.3 818.1L760.7 591.2L762 796.4L763.3 666.4L764.7 800.9L766 643.7L767.3 821.8L768.7 670.1L770 826.4L771.3 609.6L772.7 802.3L774 668.8L775.3 804.8L776.7 616.3L778 825.1L779.3 640.8L780.7 822.7L782 646.8L783.3 822.8L784.7 654.5L786 826.8L787.3 633.6L788.7 805.6L790 654.5L791.3 811.4L792.7 623.4L794 804.4L795.3 665.2L796.7 810L798 640.5L799.3 833L800.7 623.6L802 803.2L803.3 651.8L804.7 794.8L806 611.8L807.3 825.4L808.7 631.7L810 816.8L811.3 659.3L812.7 793.7L814 661L815.3 827L816.7 595.8L818 801.9L819.3 641.1L820.7 796.9L822 660.8L823.3 791.1L824.7 633.7L826 796.4L827.3 639.9L828.7 803.1L830 520.4L831.3 791.4L832.7 544.2L834 803L835.3 611.7L836.7 814.3L838 612.2L839.3 823.7L840.7 651L842 816.5L843.3 640.3L844.7 797.3L846 651L847.3 828.9L848.7 648.1L850 795.3L851.3 653.7L852.7 828.7L854 662.5L855.3 797L856.7 643.5L858 806.6L859.3 646L860.7 813.3L862 616L863.3 808L864.7 670.4L866 801.4L867.3 650.8L868.7 830.3L870 676.7L871.3 810.2L872.7 611.5L874 802.3L875.3 661.3L876.7 828.3L878 571.2L879.3 820.2L880.7 633.9L882 811.7L883.3 608.6L884.7 815.8L886 657.9L887.3 802.4L888.7 641.1L890 818.1L891.3 644.6L892.7 819.5L894 647.2L895.3 811.4L896.7 562.8L898 820.4L899.3 615.9L900.7 788.6L902 364.9L903.3 655.6L904.7 321L906 670.8L907.3 266.7L908.7 657.5L910 289.1L911.3 631.8L912.7 325.4L914 651.3L915.3 316.1L916.7 649.6L918 329.7L919.3 616.8L920.7 326.3L922 651.8L923.3 346.7L924.7 662.6L926 264.7L927.3 641.4L928.7 321.5L930 682.4L931.3 350.7L932.7 640.8L934 374.5L935.3 681.9L936.7 360.3L938 643.6L939.3 309.2L940.7 660.5L942 302.1L943.3 652.5L944.7 275.1L946 652.1L947.3 328.2L948.7 645.6L950 309.3L951.3 686L952.7 336.4L954 651.8L955.3 321.6L956.7 685.9L958 342.8L959.3 648.2L960.7 345.8L962 661.3L963.3 331L964.7 693.7L966 356.4L967.3 684.7L968.7 286.1L970 632.2L971.3 364.4L972.7 492.3L974 326.9L975.3 639.2L976.7 297.8L978 646.3L979.3 354.9L980.7 645.6L982 579.7L983.3 784.4L984.7 617.9L986 748.5L987.3 627.9L988.7 801.3L990 642.8L991.3 802.4L992.7 649.6L994 817.2L995.3 637.4L996.7 788.4L998 629.6L999.3 797.8L1000.7 650.9L1002 794.8L1003.3 637.4L1004.7 801.4L1006 630L1007.3 798.8L1008.7 625.2L1010 814.7L1011.3 626.1L1012.7 795.6L1014 635.9L1015.3 799.3L1016.7 639.2L1018 795.1L1019.3 635L1020.7 806.8L1022 636.6L1023.3 751.5L1024.7 527.1L1026 815L1027.3 636L1028.7 820.1L1030 657.3L1031.3 799.1L1032.7 598.3L1034 794.8L1035.3 658.1L1036.7 814.1L1038 654.6L1039.3 795.5L1040.7 617L1042 801.8L1043.3 654.8L1044.7 809.1L1046 651.9L1047.3 802.7L1048.7 623.8L1050 807.2L1051.3 643.7L1052.7 802.3L1054 657.7L1055.3 825.9L1056.7 541.4L1058 790.1L1059.3 641.2L1060.7 793.8L1062 618.7L1063.3 802L1064.7 622.8L1066 779.1L1067.3 603.2L1068.7 813.2L1070 588.5L1071.3 781.1L1072.7 563.5L1074 787.7L1075.3 588.5L1076.7 806.7L1078 559.6L1079.3 816.7L1080.7 599.4L1082 776.2L1083.3 619.7L1084.7 819.8L1086 564.8L1087.3 793.2L1088.7 605.9L1090 817.5L1091.3 619.7L1092.7 794.8L1094 629.6L1095.3 801.9L1096.7 532L1098 790.6L1099.3 656.7L1100.7 795.5L1102 604.3L1103.3 795.2L1104.7 665.2L1106 825.8L1107.3 593.8L1108.7 770.6L1110 654.8L1111.3 795.8L1112.7 614.3L1114 795.5L1115.3 635.5L1116.7 821L1118 622.1L1119.3 792.5L1120.7 667.1L1122 805L1123.3 618.6L1124.7 800.7L1126 669.3L1127.3 804.6L1128.7 568.7L1130 788.1L1131.3 665.6L1132.7 804.1L1134 633L1135.3 822.4L1136.7 605.8L1138 810.4L1139.3 604L1140.7 806.8L1142 624.2L1143.3 795.5L1144.7 565.3L1146 805.6L1147.3 621.4L1148.7 797L1150 617.6L1151.3 763.3L1152.7 648.8L1154 781.9L1155.3 600.1L1156.7 807.1L1158 653L1159.3 796.7L1160.7 633.9L1162 796.1L1163.3 662L1164.7 782.5L1166 576.7L1167.3 814.2L1168.7 661.4L1170 790.8L1171.3 565.9L1172.7 796.4L1174 663L1175.3 776.2L1176.7 629.8L1178 809.6L1179.3 651.1L1180.7 794.1L1182 520.7L1183.3 794.3L1184.7 647L1186 804.3L1187.3 529.6L1188.7 798.7L1190 576.5L1191.3 798.1L1192.7 626.8L1194 807.7L1195.3 648.1L1196.7 816.7L1198 616.5L1199.3 826L1200.7 677.4L1202 800.7L1203.3 619L1204.7 826.5L1206 677.7L1207.3 786.2L1208.7 629.3L1210 810.8L1211.3 667L1212.7 829.5L1214 607.6L1215.3 797.9L1216.7 607.4L1218 823.1L1219.3 605.9L1220.7 779.6L1222 421.7L1223.3 646L1224.7 330.7L1226 637.7L1227.3 342L1228.7 653.8L1230 274.6L1231.3 662.2L1232.7 248.5L1234 651.9L1235.3 267.1L1236.7 658.5L1238 295.1L1239.3 632.3L1240.7 259.4L1242 641.4L1243.3 336.1L1244.7 633L1246 339.6L1247.3 655.7L1248.7 318.8L1250 653.4L1251.3 308.5L1252.7 623.2L1254 322.9L1255.3 652.8L1256.7 312.2L1258 639L1259.3 215.8L1260.7 632.7L1262 349.5L1263.3 692.3L1264.7 299.8L1266 676L1267.3 306.4L1268.7 647.6L1270 305.7L1271.3 665L1272.7 335.4L1274 645.9L1275.3 366L1276.7 657L1278 290.9L1279.3 659.3L1280.7 340.2L1282 655.9L1283.3 374.6L1284.7 674L1286 360.6L1287.3 682.1L1288.7 336.9L1290 650.1L1291.3 299.1L1292.7 685.4L1294 323.2L1295.3 646.7L1296.7 271.6L1298 664.3L1299.3 356.8L1300.7 661.7L1302 577.8L1303.3 778.9L1304.7 633.1L1306 804.6L1307.3 641.6L1308.7 815L1310 632.7L1311.3 792L1312.7 643.1L1314 788.9L1315.3 589.1L1316.7 811.3L1318 535.8L1319.3 817.2L1320.7 577.2L1322 799.2L1323.3 558.3L1324.7 799.5L1326 597.5L1327.3 775L1328.7 569.8L1330 755.3L1331.3 626.8L1332.7 809.6L1334 630.9L1335.3 782.3L1336.7 622.1L1338 805.5L1339.3 643.2L1340.7 794.3L1342 647.1L1343.3 801.3L1344.7 649.3L1346 814.8L1347.3 646.2L1348.7 794.1L1350 622.5L1351.3 791.6L1352.7 619.1L1354 805.6L1355.3 668L1356.7 813.9L1358 631.1L1359.3 799.6L1360.7 671.4L1362 828.5L1363.3 621.7L1364.7 783.9L1366 666.7L1367.3 823.7L1368.7 538.2L1370 794.8L1371.3 665.6L1372.7 792.5L1374 638.7L1375.3 824.9L1376.7 602.7L1378 775.4L1379.3 600.9L1380.7 806L1382 653.1L1383.3 790.3L1384.7 614.7L1386 788.8L1387.3 655.2L1388.7 771.2L1390 590.3L1391.3 807.8L1392.7 631.1L1394 786.8L1395.3 588.3L1396.7 789.8L1398 603.8L1399.3 779L1400.7 603.6L1402 814.8L1403.3 591.5L1404.7 788.6L1406 609.9L1407.3 794.2L1408.7 612.9L1410 810.9L1411.3 640.2L1412.7 827.9L1414 598.6L1415.3 756.5L1416.7 604.4L1418 821.8L1419.3 619.8L1420.7 807L1422 651.3L1423.3 828.5L1424.7 630.9L1426 801.7L1427.3 616.1L1428.7 809.1L1430 644.3L1431.3 803.2L1432.7 658.5L1434 832.1L1435.3 673.9L1436.7 817.3L1438 649.3L1439.3 806.2L1440.7 640.9L1442 803.2L1443.3 650.4L1444.7 813.5L1446 682.3L1447.3 810.3L1448.7 637.1L1450 822.2L1451.3 674.9L1452.7 825.1L1454 586.5L1455.3 801.1L1456.7 614.2L1458 795.3L1459.3 557.7L1460.7 799.7L1462 649.3L1463.3 815.6L1464.7 609.4L1466 806L1467.3 619.5L1468.7 777.1L1470 617.6L1471.3 815L1472.7 664.1L1474 813.3L1475.3 618.1L1476.7 809.4L1478 661.2L1479.3 779.3L1480.7 609.7L1482 821.5L1483.3 670.2L1484.7 799.6L1486 598.3L1487.3 802.8L1488.7 669.7L1490 827.3L1491.3 641.9L1492.7 823.2L1494 640.2L1495.3 803.5L1496.7 608.3L1498 805.1L1499.3 645.5L1500.7 809.8L1502 633.4L1503.3 823.9L1504.7 673.5L1506 798.5L1507.3 584L1508.7 804L1510 673.8L1511.3 831.4L1512.7 642.5L1514 807L1515.3 645L1516.7 812.2L1518 637.1L1519.3 797.2L1520.7 672.9L1522 800.6L1523.3 661.9L1524.7 801.6L1526 640.7L1527.3 819.6L1528.7 616.1L1530 819.6L1531.3 558.4L1532.7 783.7L1534 566.2L1535.3 805.8L1536.7 578.6L1538 776.4L1539.3 609.5L1540.7 753.9L1542 263.5L1543.3 659.5L1544.7 367.2L1546 665.3L1547.3 287.3L1548.7 661.3L1550 306.7L1551.3 654.4L1552.7 318.2L1554 641.8L1555.3 302.2L1556.7 626.2L1558 358.4L1559.3 626.2L1560.7 332.3L1562 645.7L1563.3 339.2L1564.7 664.3L1566 289.2L1567.3 673.9L1568.7 302L1570 670.3L1571.3 352.6L1572.7 620.3L1574 238.9L1575.3 598L1576.7 269.7L1578 658.5L1579.3 353.8L1580.7 686L1582 279.3L1583.3 676.2L1584.7 332.3L1586 666.3L1587.3 345.5L1588.7 628.5L1590 352.5L1591.3 682L1592.7 351.7L1594 679.2L1595.3 354.3L1596.7 678.4L1598 372.7L1599.3 670.7L1600.7 384.5L1602 693.8L1603.3 328.7L1604.7 660.6L1606 316.3L1607.3 646.5L1608.7 299.9L1610 662L1611.3 320.9L1612.7 651.4L1614 339.7L1615.3 668.8L1616.7 255.3L1618 661.4L1619.3 304.7L1620.7 678L1622 594L1623.3 766.8L1624.7 611L1626 810L1627.3 567.3L1628.7 800.4L1630 518.2L1631.3 794.1L1632.7 621.7L1634 803L1635.3 635L1636.7 772.9L1638 608.2L1639.3 816.3L1640.7 653.1L1642 782.8L1643.3 653.7L1644.7 800.9L1646 637.5L1647.3 782.3L1648.7 638.3L1650 805.5L1651.3 626L1652.7 800.7L1654 607.6L1655.3 821.5L1656.7 595.5L1658 787.9L1659.3 654.7L1660.7 802.7L1662 612.5L1663.3 790.1L1664.7 652.4L1666 821.3L1667.3 604.9L1668.7 790.8L1670 613.3L1671.3 803.5L1672.7 650.3L1674 809.4L1675.3 648.5L1676.7 821.8L1678 599.3L1679.3 824.3L1680.7 616.6L1682 802.4L1683.3 651.4L1684.7 814L1686 616.2L1687.3 821.8L1688.7 643.9L1690 808.6L1691.3 673.8L1692.7 788.1L1694 642.5L1695.3 798.5L1696.7 609.5L1698 799.9L1699.3 633.9L1700.7 791.8L1702 607.4L1703.3 794.3L1704.7 633.5L1706 810.8L1707.3 596.6L1708.7 807.1L1710 619.3L1711.3 809.1L1712.7 606L1714 767L1715.3 633.1L1716.7 811.7L1718 603.3L1719.3 781.5L1720.7 622L1722 787.1L1723.3 608.3L1724.7 787.8L1726 634.3L1727.3 770.4L1728.7 632.5L1730 789.6L1731.3 533.3L1732.7 803L1734 647.2L1735.3 797.5L1736.7 645.9L1738 797.4L1739.3 637.3L1740.7 819.5L1742 647.2L1743.3 772.5L1744.7 653.9L1746 804.5L1747.3 638.9L1748.7 795.5L1750 650.1L1751.3 822.6L1752.7 616.9L1754 782.8L1755.3 650.6L1756.7 797.3L1758 639.4L1759.3 803L1760.7 631.3L1762 814.3L1763.3 643.1L1764.7 826.6L1766 643.6L1767.3 811.4L1768.7 611.2L1770 805.7L1771.3 613.6L1772.7 800.3L1774 530.5L1775.3 802.4L1776.7 586.8L1778 802.5L1779.3 608.6L1780.7 749.2L1782 634.9L1783.3 810.1L1784.7 632.1L1786 788.7L1787.3 644.9L1788.7 800.5L1790 627.1L1791.3 783.9L1792.7 647.3L1794 812.8L1795.3 583.7L1796.7 803.2L1798 614.8L1799.3 817.9" fill="transparent" stroke="#3fb1e3" stroke-width="3" stroke-linejoin="bevel" class="zr46-cls-140"></path>
</g>
<g clip-path="url(#zr46-c1)">
<path d="M200.7 452.3L202 750L203.3 640.9L204.7 802L206 654.2L207.3 819.4L208.7 663.9L210 815.5L211.3 627.2L212.7 809L214 672.1L215.3 831.8L216.7 618.9L218 813.2L219.3 654.2L220.7 810.3L222 641.5L223.3 821.6L224.7 669.2L226 811.2L227.3 622L228.7 806.6L230 676.9L231.3 835.8L232.7 660.2L234 833L235.3 664.7L236.7 810.9L238 612.7L239.3 816.4L240.7 649.4L242 810.1L243.3 633.6L244.7 816L246 636.2L247.3 826.6L248.7 662.4L250 814.6L251.3 679.8L252.7 805.5L254 647.9L255.3 814.3L256.7 616.8L258 812.5L259.3 620.3L260.7 801.9L262 437L263.3 695.2L264.7 348.4L266 653.9L267.3 360.3L268.7 689.6L270 305.6L271.3 677.3L272.7 376.4L274 664.6L275.3 335.1L276.7 652.8L278 384.6L279.3 698.3L280.7 372.7L282 689.2L283.3 378.5L284.7 722.4L286 375.8L287.3 689.5L288.7 371.3L290 679.9L291.3 391.6L292.7 735.7L294 425.7L295.3 729.5L296.7 391.6L298 676.2L299.3 406.3L300.7 675L302 357.1L303.3 667.9L304.7 332.8L306 660.3L307.3 358.6L308.7 700.6L310 376.2L311.3 682.7L312.7 371.3L314 706.9L315.3 396.2L316.7 648.7L318 389.4L319.3 718.8L320.7 420.8L322 744.9L323.3 417.7L324.7 703.2L326 366.5L327.3 710.8L328.7 398.2L330 712L331.3 442.6L332.7 726.6L334 403.9L335.3 691.1L336.7 370.5L338 726.7L339.3 440.5L340.7 717.5L342 634.9L343.3 799.1L344.7 592.1L346 825.1L347.3 659.6L348.7 803.2L350 637.4L351.3 822.1L352.7 668.9L354 812.6L355.3 639.9L356.7 825.4L358 654.1L359.3 809.3L360.7 628.8L362 811.9L363.3 662.8L364.7 826.2L366 619.2L367.3 817.8L368.7 637.7L370 804.3L371.3 629.9L372.7 797.9L374 662L375.3 803.9L376.7 659.3L378 803.9L379.3 662.4L380.7 812.5L382 611.6L383.3 830.4L384.7 664.4L386 805.7L387.3 636L388.7 832.4L390 628.9L391.3 815.2L392.7 660.8L394 832.2L395.3 654.2L396.7 808.7L398 653.9L399.3 807L400.7 669.5L402 810.7L403.3 657.1L404.7 832.1L406 684.2L407.3 814.7L408.7 615.1L410 825.2L411.3 681.7L412.7 813.8L414 629.4L415.3 816.2L416.7 612.7L418 804.8L419.3 653.7L420.7 816.5L422 660L423.3 803.6L424.7 617.6L426 795.1L427.3 658.2L428.7 801.9L430 630L431.3 801.1L432.7 661L434 804.8L435.3 624.9L436.7 792.2L438 652.4L439.3 819.4L440.7 640.8L442 807.4L443.3 648.2L444.7 800.5L446 645.4L447.3 811.8L448.7 623.7L450 803.6L451.3 646L452.7 806L454 651.1L455.3 824.3L456.7 648.6L458 808L459.3 670.6L460.7 823.3L462 653.3L463.3 830.8L464.7 676.9L466 778.7L467.3 616.1L468.7 811.8L470 651.2L471.3 811.7L472.7 647.2L474 811L475.3 678.5L476.7 812.9L478 648.1L479.3 805.4L480.7 642.4L482 818.7L483.3 655.3L484.7 808.8L486 671.6L487.3 832.3L488.7 624.4L490 813.6L491.3 665.2L492.7 813.5L494 657.6L495.3 808.4L496.7 618.8L498 825.3L499.3 614.3L500.7 824.5L502 644.3L503.3 799.5L504.7 650.3L506 824.7L507.3 655.8L508.7 801L510 628.3L511.3 799.2L512.7 616.2L514 800L515.3 645.9L516.7 823.5L518 645.9L519.3 801.2L520.7 645.9L522 799.8L523.3 635.6L524.7 819.7L526 634.1L527.3 826.9L528.7 637.7L530 819.1L531.3 646.9L532.7 815.8L534 678L535.3 814.4L536.7 657.2L538 827.2L539.3 676.5L540.7 812L542 648.2L543.3 805.7L544.7 643.3L546 809.7L547.3 650.1L548.7 809.6L550 636.7L551.3 812L552.7 663.2L554 827.1L555.3 655.6L556.7 830.4L558 658L559.3 834.2L560.7 629.7L562 823.5L563.3 662.1L564.7 833.1L566 674.2L567.3 809.4L568.7 644.4L570 833.7L571.3 688.8L572.7 822.8L574 661.9L575.3 807.6L576.7 619.4L578 825L579.3 595.8L580.7 808.4L582 445L583.3 669L584.7 379.3L586 655.3L587.3 366.7L588.7 656.2L590 346.4L591.3 671.6L592.7 324.4L594 659.8L595.3 310.4L596.7 672.5L598 330.7L599.3 660.1L600.7 349.9L602 668.2L603.3 351.8L604.7 659.1L606 390.4L607.3 703.7L608.7 409.5L610 666.2L611.3 369.5L612.7 702.2L614 369.6L615.3 693.1L616.7 407.1L618 661.5L619.3 403.2L620.7 704.7L622 370.8L623.3 708.3L624.7 383.8L626 674.6L627.3 388.5L628.7 681.9L630 416.4L631.3 743.7L632.7 381.8L634 711.4L635.3 420.2L636.7 737.9L638 380.8L639.3 679L640.7 370.3L642 694.9L643.3 377.3L644.7 688.7L646 399.7L647.3 741.5L648.7 402.9L650 747L651.3 460.1L652.7 710.2L654 388.2L655.3 724.9L656.7 375.2L658 712.2L659.3 433.6L660.7 683.3L662 627.2L663.3 790L664.7 610.2L666 819.9L667.3 628.6L668.7 824.6L670 612.6L671.3 797.6L672.7 626.3L674 807.1L675.3 650.6L676.7 801.3L678 626.1L679.3 811.1L680.7 634.6L682 775.6L683.3 663.7L684.7 827.1L686 652L687.3 821.4L688.7 665L690 807.7L691.3 657.3L692.7 814L694 613.9L695.3 832.2L696.7 660.3L698 812.8L699.3 629.3L700.7 824L702 646.2L703.3 831.8L704.7 666.1L706 800.3L707.3 633.8L708.7 828.3L710 674.2L711.3 797.5L712.7 633.5L714 811L715.3 674.3L716.7 817.7L718 646L719.3 829.8L720.7 679.4L722 832.5L723.3 657.7L724.7 803L726 646.5L727.3 808.8L728.7 646.4L730 803.6L731.3 683.7L732.7 813.2L734 645L735.3 821.2L736.7 582.1L738 824.8L739.3 641.8L740.7 822.7L742 634.1L743.3 819.6L744.7 631.1L746 806L747.3 615.8L748.7 819.5L750 650.1L751.3 825.5L752.7 629.6L754 801.9L755.3 651.3L756.7 827.1L758 636.3L759.3 817.7L760.7 652.1L762 814.8L763.3 639.3L764.7 801.7L766 654L767.3 807.7L768.7 648.4L770 798.9L771.3 643.9L772.7 824.4L774 673L775.3 786.7L776.7 642.5L778 820.4L779.3 651.6L780.7 808.9L782 629.8L783.3 793.9L784.7 644.2L786 827.9L787.3 645.9L788.7 824.6L790 632.5L791.3 808L792.7 658.2L794 822.6L795.3 672.5L796.7 830.1L798 659.4L799.3 825.1L800.7 663.4L802 792.7L803.3 659.5L804.7 832L806 672.3L807.3 809.7L808.7 640L810 816L811.3 687.6L812.7 810.2L814 624.6L815.3 813.8L816.7 619.8L818 799.2L819.3 644.5L820.7 810.2L822 670.1L823.3 824.4L824.7 625.3L826 818.7L827.3 649.4L828.7 806.5L830 591.9L831.3 807.5L832.7 652.1L834 824L835.3 639.7L836.7 808.4L838 669.3L839.3 827.7L840.7 621L842 805.6L843.3 652.8L844.7 808.9L846 649.5L847.3 822.1L848.7 666.9L850 802.4L851.3 639.3L852.7 797.4L854 661.7L855.3 826L856.7 658.9L858 822.9L859.3 621.1L860.7 820.3L862 627.3L863.3 809.9L864.7 649.1L866 804.8L867.3 653.8L868.7 831L870 630.9L871.3 825.8L872.7 626.9L874 818.4L875.3 658.9L876.7 809.1L878 656.1L879.3 810L880.7 677.4L882 808.9L883.3 633.6L884.7 813.3L886 654.1L887.3 808.3L888.7 655.9L890 812.6L891.3 648.4L892.7 812.3L894 652.8L895.3 828.4L896.7 625.1L898 829.1L899.3 642.3L900.7 789.1L902 422.7L903.3 684.3L904.7 393.5L906 692.5L907.3 404.8L908.7 692L910 396.6L911.3 690.1L912.7 397.3L914 715.3L915.3 379.9L916.7 662.5L918 372.8L919.3 680.4L920.7 342.1L922 670.1L923.3 379.6L924.7 690.2L926 321.9L927.3 681.3L928.7 354L930 677.8L931.3 389.9L932.7 707.4L934 418.4L935.3 715.4L936.7 361.7L938 672.6L939.3 407.4L940.7 680.4L942 398.2L943.3 710.3L944.7 401.8L946 680.7L947.3 368.6L948.7 674.7L950 380.3L951.3 707.1L952.7 400.3L954 675L955.3 377.9L956.7 703.5L958 337.6L959.3 710.8L960.7 389.1L962 659.4L963.3 349L964.7 702.5L966 351.7L967.3 675.8L968.7 390.8L970 700.1L971.3 395.5L972.7 681.6L974 377.9L975.3 681.8L976.7 343.1L978 685.6L979.3 408.5L980.7 681.7L982 626.6L983.3 806.3L984.7 631.5L986 798.4L987.3 621.5L988.7 805.3L990 633.6L991.3 803.5L992.7 646.4L994 805.9L995.3 651.4L996.7 796.9L998 645L999.3 806.8L1000.7 658.6L1002 804.5L1003.3 662.4L1004.7 806.3L1006 641L1007.3 806L1008.7 631.3L1010 824.4L1011.3 613.9L1012.7 806.7L1014 661.7L1015.3 805.5L1016.7 654.4L1018 828.9L1019.3 660.8L1020.7 825.6L1022 644.1L1023.3 818.1L1024.7 677L1026 825.5L1027.3 609.2L1028.7 808L1030 674.9L1031.3 803.4L1032.7 645.1L1034 818.8L1035.3 675.1L1036.7 810.9L1038 633L1039.3 815.3L1040.7 661.8L1042 804.1L1043.3 644.7L1044.7 825.1L1046 678.3L1047.3 831.5L1048.7 614.6L1050 804.4L1051.3 652.9L1052.7 813L1054 636.4L1055.3 814.2L1056.7 612.6L1058 820.3L1059.3 617L1060.7 822.8L1062 631.7L1063.3 799.9L1064.7 632L1066 802L1067.3 617.5L1068.7 803.2L1070 654.1L1071.3 792.7L1072.7 641.8L1074 811.9L1075.3 638.6L1076.7 794L1078 643.3L1079.3 814.5L1080.7 649.8L1082 805.1L1083.3 649.3L1084.7 797.9L1086 652.3L1087.3 827.1L1088.7 643.4L1090 823.5L1091.3 624.1L1092.7 829.8L1094 661.4L1095.3 808.6L1096.7 654.1L1098 829.5L1099.3 666.5L1100.7 820.1L1102 647.9L1103.3 829.2L1104.7 662.9L1106 828.4L1107.3 598.8L1108.7 805.8L1110 662.6L1111.3 829.9L1112.7 619.9L1114 827.1L1115.3 643.9L1116.7 829.4L1118 659.6L1119.3 822.6L1120.7 659.8L1122 816.3L1123.3 658.8L1124.7 834.9L1126 653.3L1127.3 809.1L1128.7 663.3L1130 807.5L1131.3 680.9L1132.7 829.6L1134 665.5L1135.3 834.2L1136.7 628.4L1138 795.9L1139.3 647.6L1140.7 822.1L1142 669.8L1143.3 796.1L1144.7 639L1146 804L1147.3 670.3L1148.7 819.7L1150 653.8L1151.3 808.1L1152.7 660.8L1154 827.7L1155.3 623.2L1156.7 815.9L1158 669.1L1159.3 808.6L1160.7 627.8L1162 803L1163.3 644.3L1164.7 806.2L1166 634.4L1167.3 813.6L1168.7 671.7L1170 824.8L1171.3 644.6L1172.7 825.1L1174 659.8L1175.3 809.9L1176.7 647L1178 822.9L1179.3 668.9L1180.7 806L1182 656.7L1183.3 803.6L1184.7 663L1186 810L1187.3 654.9L1188.7 804.6L1190 644L1191.3 797.5L1192.7 649L1194 809.7L1195.3 653.4L1196.7 821.8L1198 651.9L1199.3 798.6L1200.7 678.7L1202 806.9L1203.3 630.1L1204.7 810L1206 682.2L1207.3 809.8L1208.7 655.7L1210 813.5L1211.3 687.2L1212.7 833.7L1214 622.8L1215.3 826.6L1216.7 622.7L1218 807.5L1219.3 630.5L1220.7 818.1L1222 435.3L1223.3 692.1L1224.7 375.9L1226 683.6L1227.3 375.2L1228.7 688.9L1230 382.2L1231.3 655.8L1232.7 366.8L1234 670.7L1235.3 352.7L1236.7 661.2L1238 384.2L1239.3 694.5L1240.7 377.1L1242 680.7L1243.3 377.8L1244.7 670.4L1246 357.9L1247.3 700.9L1248.7 397.8L1250 681.6L1251.3 366.5L1252.7 689.5L1254 394.3L1255.3 701.7L1256.7 384.5L1258 700.3L1259.3 392.2L1260.7 698.5L1262 353.2L1263.3 700.8L1264.7 420.9L1266 708.4L1267.3 375.2L1268.7 684.2L1270 380.8L1271.3 680.6L1272.7 402.7L1274 743.4L1275.3 382.5L1276.7 687.5L1278 364.7L1279.3 702.3L1280.7 408.4L1282 682.1L1283.3 379.2L1284.7 671.2L1286 350.6L1287.3 684.3L1288.7 402.4L1290 680.5L1291.3 414.4L1292.7 711.6L1294 384.4L1295.3 689L1296.7 331L1298 681.2L1299.3 371.8L1300.7 684.7L1302 624.3L1303.3 784.3L1304.7 557.8L1306 808.2L1307.3 650.6L1308.7 801.9L1310 627.7L1311.3 786.3L1312.7 663.1L1314 805L1315.3 654L1316.7 796L1318 647.6L1319.3 798.8L1320.7 619.9L1322 816.4L1323.3 658.2L1324.7 803.1L1326 628.6L1327.3 805.8L1328.7 622.5L1330 804.9L1331.3 659.1L1332.7 813.4L1334 627.1L1335.3 824.9L1336.7 647.4L1338 829.8L1339.3 658.3L1340.7 806.1L1342 632.4L1343.3 813.5L1344.7 671.2L1346 824.3L1347.3 658.5L1348.7 814.7L1350 674.6L1351.3 824.8L1352.7 653.7L1354 831.6L1355.3 672.3L1356.7 832.6L1358 649.5L1359.3 810L1360.7 676.4L1362 825L1363.3 627.6L1364.7 804.3L1366 677.7L1367.3 830.1L1368.7 655L1370 803.1L1371.3 641.7L1372.7 811.8L1374 661L1375.3 831.7L1376.7 569.2L1378 820.2L1379.3 627.9L1380.7 822.8L1382 650.1L1383.3 809.5L1384.7 619.8L1386 797.8L1387.3 617.4L1388.7 799.3L1390 652.2L1391.3 825.2L1392.7 656L1394 801L1395.3 627.8L1396.7 807.8L1398 652.7L1399.3 822.7L1400.7 656.9L1402 808.6L1403.3 613L1404.7 822.3L1406 656.5L1407.3 814.5L1408.7 652.9L1410 821.1L1411.3 637.2L1412.7 810.6L1414 676L1415.3 817.2L1416.7 651.2L1418 801.8L1419.3 673.2L1420.7 810.4L1422 623.6L1423.3 809.4L1424.7 675.3L1426 830.9L1427.3 604.4L1428.7 817.5L1430 673.8L1431.3 811.7L1432.7 590.2L1434 810.8L1435.3 671L1436.7 832L1438 659.2L1439.3 821.3L1440.7 670.5L1442 810.8L1443.3 662L1444.7 833.3L1446 669.5L1447.3 815.1L1448.7 664L1450 811.5L1451.3 671.7L1452.7 816.9L1454 665.5L1455.3 813.5L1456.7 626.2L1458 818.1L1459.3 644.2L1460.7 822.5L1462 644.6L1463.3 805L1464.7 603.6L1466 823L1467.3 631.4L1468.7 816.2L1470 620.5L1471.3 803.5L1472.7 669.3L1474 813.6L1475.3 611.6L1476.7 805.3L1478 647.2L1479.3 803.7L1480.7 626.5L1482 823.8L1483.3 670.2L1484.7 827.3L1486 603.7L1487.3 820.5L1488.7 671.3L1490 808.6L1491.3 647.5L1492.7 804.3L1494 673.5L1495.3 829L1496.7 659.7L1498 790.6L1499.3 671.3L1500.7 810.1L1502 638.2L1503.3 797.3L1504.7 636.5L1506 808.3L1507.3 656.4L1508.7 830.9L1510 626.4L1511.3 813.3L1512.7 656.6L1514 825.2L1515.3 654.2L1516.7 805.6L1518 626L1519.3 830.2L1520.7 652.4L1522 827.4L1523.3 657.7L1524.7 826.3L1526 641.6L1527.3 794.8L1528.7 637.3L1530 812.2L1531.3 656.8L1532.7 811L1534 659.3L1535.3 830.2L1536.7 622.3L1538 810.2L1539.3 633.7L1540.7 809.9L1542 434.1L1543.3 672.6L1544.7 384.7L1546 683.5L1547.3 362.6L1548.7 690.3L1550 375.5L1551.3 661.2L1552.7 332.6L1554 634.4L1555.3 332.7L1556.7 679.8L1558 342.6L1559.3 708L1560.7 384.7L1562 704.7L1563.3 419.9L1564.7 672.2L1566 356.4L1567.3 694.6L1568.7 397.6L1570 709.1L1571.3 375.5L1572.7 700L1574 394L1575.3 691.1L1576.7 395.8L1578 730.5L1579.3 365.3L1580.7 693.4L1582 369.8L1583.3 681.9L1584.7 391.3L1586 680.8L1587.3 354.3L1588.7 693.9L1590 388.3L1591.3 693.8L1592.7 411.4L1594 711.8L1595.3 419.8L1596.7 700.7L1598 373.9L1599.3 678.1L1600.7 428.4L1602 715.9L1603.3 372.7L1604.7 719.8L1606 425.4L1607.3 720.6L1608.7 368.3L1610 692.7L1611.3 394.5L1612.7 692.1L1614 360.2L1615.3 677.9L1616.7 346.4L1618 681.4L1619.3 403.2L1620.7 648.2L1622 616.4L1623.3 802.2L1624.7 588.6L1626 805.7L1627.3 630.1L1628.7 802.4L1630 612.7L1631.3 795.6L1632.7 660.4L1634 819.8L1635.3 650.6L1636.7 806.9L1638 640L1639.3 824.7L1640.7 654.5L1642 798.7L1643.3 657.6L1644.7 816.5L1646 658.7L1647.3 811.5L1648.7 634.1L1650 808.7L1651.3 651.5L1652.7 801.4L1654 646.6L1655.3 811.6L1656.7 639.1L1658 830.1L1659.3 660.5L1660.7 824.5L1662 653.7L1663.3 800.6L1664.7 633.1L1666 809.4L1667.3 641.6L1668.7 813.2L1670 677.9L1671.3 823.1L1672.7 643L1674 798.3L1675.3 665.6L1676.7 799L1678 616.3L1679.3 826.5L1680.7 637.3L1682 801.7L1683.3 653.6L1684.7 806.7L1686 680.2L1687.3 823.4L1688.7 643.7L1690 827.4L1691.3 672.3L1692.7 830.1L1694 646.5L1695.3 766.2L1696.7 592.9L1698 811.3L1699.3 640.8L1700.7 803.3L1702 649.3L1703.3 805.2L1704.7 638.4L1706 796.2L1707.3 642.5L1708.7 788.2L1710 644.3L1711.3 821.6L1712.7 647.5L1714 816.7L1715.3 647.4L1716.7 823L1718 655.4L1719.3 802L1720.7 626.1L1722 808.4L1723.3 633.1L1724.7 804.2L1726 650.6L1727.3 827.5L1728.7 661.9L1730 824.7L1731.3 653.6L1732.7 832.1L1734 670L1735.3 810.8L1736.7 643.2L1738 827.7L1739.3 657.2L1740.7 833L1742 649.6L1743.3 816L1744.7 650.7L1746 797.3L1747.3 652.3L1748.7 827.8L1750 666.3L1751.3 819.3L1752.7 639.6L1754 809.3L1755.3 654L1756.7 831.6L1758 661.2L1759.3 796.9L1760.7 628.4L1762 799.3L1763.3 656L1764.7 831.9L1766 670L1767.3 829.2L1768.7 664.5L1770 814.3L1771.3 640.4L1772.7 809.2L1774 661.4L1775.3 832.2L1776.7 594.3L1778 796.4L1779.3 646.5L1780.7 803.1L1782 645L1783.3 803.5L1784.7 641.1L1786 800.5L1787.3 665.5L1788.7 793.4L1790 646.5L1791.3 800.6L1792.7 664.2L1794 795.4L1795.3 642.6L1796.7 805.5L1798 671.9L1799.3 823.7" fill="transparent" stroke="#6be6c1" stroke-width="3" stroke-linejoin="bevel" class="zr46-cls-140"></path>
</g>
<g clip-path="url(#zr46-c2)">
<path d="M200.7 472.4L202 769.3L203.3 639.7L204.7 814.9L206 588.9L207.3 803.5L208.7 666.2L210 782.9L211.3 614L212.7 793L214 633.6L215.3 753.8L216.7 535L218 815.6L219.3 670.4L220.7 819L222 633.1L223.3 806.2L224.7 644.5L226 818.2L227.3 600.9L228.7 819L230 671.3L231.3 796.1L232.7 626.7L234 796.8L235.3 661.6L236.7 794.5L238 615L239.3 799.3L240.7 663.7L242 798.7L243.3 598.9L244.7 803.2L246 640.3L247.3 790L248.7 628.6L250 802.9L251.3 657L252.7 813.7L254 615.8L255.3 791.4L256.7 594.9L258 813.7L259.3 617.9L260.7 801.4L262 370.5L263.3 676.5L264.7 359L266 664L267.3 357.5L268.7 644.6L270 336.1L271.3 680.1L272.7 302.9L274 664L275.3 329L276.7 583.3L278 293.1L279.3 680.7L280.7 283L282 658L283.3 365.6L284.7 636.9L286 339.2L287.3 610.3L288.7 343.4L290 705.5L291.3 223.6L292.7 657.2L294 258.3L295.3 663.5L296.7 318.3L298 673.1L299.3 282.3L300.7 669.1L302 352.9L303.3 636.3L304.7 356.9L306 648.6L307.3 340.4L308.7 650.7L310 325.8L311.3 667.1L312.7 337.6L314 669.5L315.3 330.3L316.7 598.6L318 355.2L319.3 695L320.7 315.5L322 674L323.3 274L324.7 606.4L326 329.6L327.3 613.1L328.7 332.5L330 622.8L331.3 345.4L332.7 698.7L334 327.1L335.3 674.3L336.7 284.2L338 661.4L339.3 351.8L340.7 598.8L342 613.4L343.3 796.7L344.7 600.1L346 816.2L347.3 662.6L348.7 799.5L350 620.6L351.3 813L352.7 666.5L354 808.2L355.3 613.5L356.7 819L358 667L359.3 821.2L360.7 632.5L362 823L363.3 640.4L364.7 807.5L366 573.5L367.3 803.7L368.7 637.7L370 808.2L371.3 639.6L372.7 823.6L374 630.6L375.3 819.2L376.7 609.9L378 824.9L379.3 624.9L380.7 827.8L382 620.5L383.3 825.8L384.7 668.1L386 800.1L387.3 609.1L388.7 827.1L390 626L391.3 808.8L392.7 657.9L394 821.1L395.3 664.7L396.7 809.8L398 621L399.3 814.6L400.7 652.8L402 822.7L403.3 661.2L404.7 826.7L406 656.8L407.3 808.9L408.7 618.2L410 811.8L411.3 654.2L412.7 816.5L414 662.9L415.3 813.9L416.7 573L418 812.2L419.3 656.3L420.7 820L422 638.8L423.3 816.3L424.7 648L426 812.7L427.3 596.5L428.7 813.1L430 650.7L431.3 822.9L432.7 635.4L434 817L435.3 645.9L436.7 826L438 657.1L439.3 811.6L440.7 640.5L442 812.6L443.3 667.1L444.7 808.4L446 644L447.3 799.5L448.7 670.7L450 809.9L451.3 597.4L452.7 821.9L454 623.2L455.3 799.4L456.7 605L458 803L459.3 648.3L460.7 801.5L462 593.4L463.3 821.7L464.7 646.7L466 782.1L467.3 527.2L468.7 819.5L470 646.9L471.3 804.2L472.7 619.4L474 800.3L475.3 585.8L476.7 781.8L478 630.8L479.3 785.3L480.7 659.4L482 799.8L483.3 631.5L484.7 805.8L486 651L487.3 805L488.7 648L490 825.8L491.3 677L492.7 802L494 632.4L495.3 803.2L496.7 597.7L498 822.5L499.3 617.9L500.7 815.4L502 641.2L503.3 774.1L504.7 628L506 816L507.3 612L508.7 802.7L510 637.9L511.3 819.5L512.7 650.3L514 789.5L515.3 636.3L516.7 820.6L518 650.4L519.3 801.2L520.7 640.2L522 795.9L523.3 644.8L524.7 804.5L526 642.8L527.3 801.3L528.7 643.6L530 792.5L531.3 596.6L532.7 798.6L534 632L535.3 783.8L536.7 627.2L538 801.9L539.3 601.6L540.7 802.4L542 634L543.3 797.8L544.7 661.8L546 796L547.3 640.7L548.7 812.3L550 660L551.3 794.1L552.7 632L554 805.5L555.3 661L556.7 819.1L558 641.2L559.3 828.6L560.7 656.9L562 775.5L563.3 640L564.7 805.2L566 629.2L567.3 809.1L568.7 496.2L570 820.8L571.3 661.1L572.7 820.9L574 636.3L575.3 825.2L576.7 613.5L578 823L579.3 605.7L580.7 792.8L582 403.3L583.3 673.6L584.7 374.6L586 662.8L587.3 357.4L588.7 666.2L590 273.9L591.3 668.2L592.7 268.6L594 654.4L595.3 273.6L596.7 643.5L598 309.8L599.3 662.1L600.7 208.7L602 653.9L603.3 351.8L604.7 603.1L606 309.6L607.3 667.6L608.7 305.2L610 682.5L611.3 307.5L612.7 683.3L614 244.3L615.3 709.6L616.7 373.9L618 681.2L619.3 371.1L620.7 648.5L622 340.2L623.3 658.1L624.7 351.4L626 658.3L627.3 231.9L628.7 690.3L630 320.6L631.3 662.4L632.7 246.2L634 673.6L635.3 351.5L636.7 705.6L638 280.2L639.3 656.7L640.7 323.2L642 678.1L643.3 358L644.7 641.8L646 375.4L647.3 659.7L648.7 328.3L650 663.1L651.3 375.7L652.7 692L654 354.5L655.3 666.6L656.7 188.9L658 606.9L659.3 301L660.7 615.2L662 583.7L663.3 748.7L664.7 594.6L666 810.8L667.3 592.6L668.7 809.1L670 604.6L671.3 796.2L672.7 640.5L674 802.8L675.3 584.6L676.7 797.4L678 645.4L679.3 802L680.7 612L682 816.2L683.3 636.7L684.7 808.2L686 612.6L687.3 795.7L688.7 599.4L690 811.4L691.3 617.9L692.7 817.7L694 655.2L695.3 778.8L696.7 640.2L698 776.1L699.3 602.8L700.7 783.2L702 623.8L703.3 780.6L704.7 615.7L706 793.2L707.3 627.2L708.7 804.3L710 647.3L711.3 799.7L712.7 609.7L714 800.7L715.3 654.7L716.7 753.5L718 577.3L719.3 806.1L720.7 613.1L722 799.9L723.3 648.2L724.7 798.3L726 677.1L727.3 805.5L728.7 645.1L730 809L731.3 667.7L732.7 793L734 618.3L735.3 809L736.7 611.3L738 804.6L739.3 634.9L740.7 797.1L742 657.3L743.3 809.3L744.7 636.1L746 804L747.3 654.1L748.7 785.5L750 628.4L751.3 804.4L752.7 619.4L754 806.4L755.3 594.8L756.7 810.4L758 600.2L759.3 788.9L760.7 642.5L762 796.5L763.3 603.1L764.7 773.9L766 601.9L767.3 817.6L768.7 616.4L770 779.1L771.3 639.7L772.7 821.4L774 622.3L775.3 794.7L776.7 626.2L778 801.8L779.3 638.9L780.7 801.4L782 643.2L783.3 824.1L784.7 628.5L786 801.2L787.3 641.9L788.7 821.5L790 594.6L791.3 801L792.7 644.4L794 822.3L795.3 614.8L796.7 802.1L798 645.2L799.3 817.9L800.7 637.6L802 798.9L803.3 646.8L804.7 802.4L806 628.5L807.3 814.1L808.7 648.5L810 817.4L811.3 655.2L812.7 810.4L814 636.8L815.3 809.6L816.7 577L818 801.9L819.3 623.2L820.7 794.6L822 615.9L823.3 805.5L824.7 637.8L826 803.7L827.3 600.1L828.7 792.5L830 600.6L831.3 800.2L832.7 600.7L834 808.9L835.3 636.9L836.7 813.5L838 595.2L839.3 768L840.7 556.1L842 797.9L843.3 634.4L844.7 825.6L846 636.6L847.3 818.9L848.7 645.6L850 801.5L851.3 637.6L852.7 804.5L854 644.1L855.3 773.9L856.7 598.6L858 820.5L859.3 643.4L860.7 796.2L862 629.9L863.3 823.8L864.7 648.4L866 801.7L867.3 617.4L868.7 823.5L870 580.2L871.3 819L872.7 639.7L874 792.6L875.3 643.4L876.7 821.4L878 646.3L879.3 826.9L880.7 652.9L882 802.8L883.3 653.1L884.7 796.4L886 644.4L887.3 801.9L888.7 610.9L890 798.1L891.3 614.7L892.7 800.3L894 654L895.3 807.8L896.7 609.6L898 788.6L899.3 616.9L900.7 785.1L902 235.1L903.3 674.2L904.7 346.1L906 640.2L907.3 254.3L908.7 654.1L910 323.4L911.3 660L912.7 224.9L914 625.9L915.3 333.4L916.7 654L918 313.9L919.3 638L920.7 233.8L922 628.5L923.3 251L924.7 641L926 312.7L927.3 667L928.7 312.9L930 665L931.3 353.1L932.7 594.9L934 362.7L935.3 648.4L936.7 340.2L938 690.1L939.3 303.2L940.7 640.4L942 258.3L943.3 678.3L944.7 347.6L946 658.8L947.3 311.3L948.7 652.7L950 332.6L951.3 595.3L952.7 300.6L954 634.1L955.3 317.7L956.7 579.2L958 271.9L959.3 674L960.7 351.5L962 667L963.3 320L964.7 635.2L966 392.2L967.3 728.1L968.7 352.1L970 725L971.3 393.2L972.7 613.9L974 293.5L975.3 664.2L976.7 332.5L978 625L979.3 323.7L980.7 716.2L982 532.5L983.3 776.4L984.7 598.4L986 793.9L987.3 616.2L988.7 795.8L990 636.6L991.3 768.3L992.7 640.6L994 799.9L995.3 639.9L996.7 808.4L998 653.4L999.3 821.5L1000.7 600.5L1002 812.1L1003.3 647.2L1004.7 813L1006 615.8L1007.3 809.8L1008.7 619.6L1010 821.5L1011.3 510L1012.7 811.2L1014 659.8L1015.3 827.2L1016.7 623.5L1018 803.3L1019.3 663.8L1020.7 828.7L1022 657.6L1023.3 798L1024.7 643.7L1026 810.5L1027.3 651.2L1028.7 801.2L1030 661.6L1031.3 822.2L1032.7 659.8L1034 814L1035.3 614.3L1036.7 827.5L1038 609.2L1039.3 814.1L1040.7 637.7L1042 808.1L1043.3 634L1044.7 810.3L1046 600.8L1047.3 826.5L1048.7 614.2L1050 806.6L1051.3 656.5L1052.7 816.6L1054 636L1055.3 804.6L1056.7 585.4L1058 791.3L1059.3 628.6L1060.7 802.8L1062 612.9L1063.3 810.1L1064.7 632.8L1066 804.4L1067.3 596.9L1068.7 817.9L1070 651.7L1071.3 807.8L1072.7 616.8L1074 818.7L1075.3 627.7L1076.7 802.1L1078 642.3L1079.3 801.7L1080.7 610.3L1082 807.4L1083.3 628.5L1084.7 822.1L1086 653.8L1087.3 808.7L1088.7 640.3L1090 801.5L1091.3 644L1092.7 827L1094 644.8L1095.3 808.7L1096.7 645.4L1098 805.6L1099.3 652L1100.7 789.5L1102 627.9L1103.3 794L1104.7 646.9L1106 809L1107.3 645.2L1108.7 798.5L1110 553.1L1111.3 805.3L1112.7 619.6L1114 799.1L1115.3 639L1116.7 810.5L1118 640.1L1119.3 824.1L1120.7 665.8L1122 806.3L1123.3 634.5L1124.7 820.1L1126 657.6L1127.3 785.2L1128.7 595L1130 821.5L1131.3 649.8L1132.7 807.3L1134 598.1L1135.3 818.3L1136.7 610.6L1138 780.1L1139.3 625L1140.7 789.7L1142 648.2L1143.3 803L1144.7 594.4L1146 802.4L1147.3 564.8L1148.7 778.7L1150 566.8L1151.3 801.2L1152.7 591.3L1154 807.2L1155.3 608.1L1156.7 800.5L1158 615.5L1159.3 790.7L1160.7 636.7L1162 798.2L1163.3 637.6L1164.7 814.7L1166 649.2L1167.3 774.4L1168.7 644.5L1170 812L1171.3 641.5L1172.7 799.3L1174 645.2L1175.3 800L1176.7 651.9L1178 823.1L1179.3 633.3L1180.7 795.6L1182 645.3L1183.3 805.8L1184.7 639.5L1186 798L1187.3 629.6L1188.7 806.4L1190 603L1191.3 803.2L1192.7 651.9L1194 807.1L1195.3 613.6L1196.7 799.8L1198 617.7L1199.3 808.1L1200.7 560.9L1202 790.3L1203.3 639.5L1204.7 822.4L1206 599.5L1207.3 793L1208.7 636.1L1210 826.4L1211.3 586.7L1212.7 799.6L1214 540.4L1215.3 826.9L1216.7 552.8L1218 817.6L1219.3 621.5L1220.7 787.2L1222 338.9L1223.3 694.3L1224.7 312.4L1226 664L1227.3 354.6L1228.7 634.7L1230 338L1231.3 651.5L1232.7 340.2L1234 633.4L1235.3 341.6L1236.7 674.2L1238 321.1L1239.3 622.1L1240.7 37.5L1242 504.9L1243.3 157.3L1244.7 616.6L1246 -3.5L1247.3 608.5L1248.7 207.3L1250 625.9L1251.3 12.6L1252.7 334.8L1254 144.6L1255.3 593.4L1256.7 127.9L1258 610.8L1259.3 159.2L1260.7 530.2L1262 -49.6L1263.3 537.6L1264.7 21.1L1266 563.1L1267.3 231.9L1268.7 481.1L1270 204.9L1271.3 228L1272.7 -36.1L1274 530.1L1275.3 228.8L1276.7 599.5L1278 244.6L1279.3 631.9L1280.7 -3L1282 542.9L1283.3 59.6L1284.7 491.9L1286 187.9L1287.3 627.7L1288.7 36.3L1290 679.6L1291.3 375L1292.7 659.9L1294 173.4L1295.3 707.3L1296.7 299.1L1298 670.6L1299.3 348.9L1300.7 663.8L1302 500.8L1303.3 741.2L1304.7 561.2L1306 818.8L1307.3 664.4L1308.7 797.5L1310 630.6L1311.3 798.5L1312.7 635.1L1314 800.5L1315.3 505.6L1316.7 816.2L1318 585.5L1319.3 807.5L1320.7 627.4L1322 817.9L1323.3 598L1324.7 803.8L1326 627.6L1327.3 801.2L1328.7 601.6L1330 791.4L1331.3 644.2L1332.7 801.8L1334 641.2L1335.3 817.4L1336.7 650.3L1338 797.8L1339.3 629.7L1340.7 817.3L1342 650.2L1343.3 820.4L1344.7 641.2L1346 796L1347.3 649.2L1348.7 824.3L1350 630L1351.3 798.9L1352.7 609.1L1354 808.3L1355.3 614.3L1356.7 798.5L1358 642.1L1359.3 812.6L1360.7 543.1L1362 802.2L1363.3 630.4L1364.7 786.4L1366 632.8L1367.3 796L1368.7 643.2L1370 828.2L1371.3 608.9L1372.7 803.6L1374 626.3L1375.3 831.2L1376.7 507.7L1378 817.2L1379.3 632.2L1380.7 804.2L1382 614.5L1383.3 764.1L1384.7 623.8L1386 773.9L1387.3 634.1L1388.7 810.9L1390 601.7L1391.3 728.1L1392.7 538.9L1394 811.8L1395.3 567.5L1396.7 785.9L1398 645.3L1399.3 796.4L1400.7 621.5L1402 782.8L1403.3 651.4L1404.7 799.1L1406 559.9L1407.3 812.8L1408.7 626.5L1410 788.5L1411.3 628.5L1412.7 805.6L1414 662.7L1415.3 804.6L1416.7 612.8L1418 815.9L1419.3 663.5L1420.7 806.1L1422 611.8L1423.3 812.1L1424.7 656.8L1426 808.8L1427.3 610.1L1428.7 772.9L1430 663.2L1431.3 801.4L1432.7 632.9L1434 797.2L1435.3 664.6L1436.7 762L1438 575.3L1439.3 802.8L1440.7 670L1442 792.5L1443.3 628.6L1444.7 796.6L1446 671L1447.3 817.1L1448.7 593.7L1450 752.9L1451.3 625.6L1452.7 736.7L1454 483L1455.3 773.4L1456.7 428.6L1458 788.3L1459.3 498.1L1460.7 753.9L1462 506.7L1463.3 770.5L1464.7 572.1L1466 763.1L1467.3 518.9L1468.7 785.9L1470 635.6L1471.3 746L1472.7 644.4L1474 816L1475.3 552.8L1476.7 808L1478 654.5L1479.3 796.8L1480.7 584.4L1482 798.4L1483.3 611.7L1484.7 819.7L1486 598.7L1487.3 795.9L1488.7 657.9L1490 823.4L1491.3 622.5L1492.7 796.7L1494 606.5L1495.3 815.1L1496.7 625.5L1498 798.3L1499.3 622.4L1500.7 790.5L1502 592.3L1503.3 792.7L1504.7 658.9L1506 807.2L1507.3 615.6L1508.7 795.1L1510 610.2L1511.3 760.2L1512.7 611.6L1514 808.5L1515.3 630.6L1516.7 794.5L1518 617.6L1519.3 814.8L1520.7 652.3L1522 780.1L1523.3 612.7L1524.7 777L1526 668.7L1527.3 816.3L1528.7 646.3L1530 823.3L1531.3 674.4L1532.7 814.6L1534 622.9L1535.3 784.7L1536.7 613.2L1538 803L1539.3 604.4L1540.7 799.8L1542 376.2L1543.3 647.7L1544.7 360.3L1546 635.5L1547.3 248.6L1548.7 638.2L1550 327.3L1551.3 644.6L1552.7 167L1554 652L1555.3 305.7L1556.7 642.3L1558 299.1L1559.3 645.3L1560.7 279.8L1562 675.2L1563.3 321.4L1564.7 673.8L1566 333.3L1567.3 623L1568.7 353.1L1570 664.9L1571.3 309.1L1572.7 669.2L1574 279.6L1575.3 664.5L1576.7 284.7L1578 648.7L1579.3 269.6L1580.7 673.8L1582 368.2L1583.3 649.3L1584.7 335L1586 656.9L1587.3 363.5L1588.7 694.3L1590 333.5L1591.3 693.4L1592.7 289.2L1594 655.4L1595.3 367L1596.7 558L1598 369.8L1599.3 725.1L1600.7 320.9L1602 693L1603.3 270.9L1604.7 608.3L1606 337.8L1607.3 674L1608.7 341L1610 643.7L1611.3 363.8L1612.7 681.3L1614 344.5L1615.3 701.3L1616.7 318.3L1618 694.3L1619.3 414.6L1620.7 683.3L1622 624.9L1623.3 819.8L1624.7 600.8L1626 821.3L1627.3 629.2L1628.7 827.2L1630 615.5L1631.3 815.3L1632.7 648L1634 800.2L1635.3 558.2L1636.7 788L1638 608.4L1639.3 808.4L1640.7 619.3L1642 809.6L1643.3 652.6L1644.7 821.9L1646 635.6L1647.3 803.2L1648.7 668.3L1650 817.3L1651.3 627L1652.7 822.1L1654 668.3L1655.3 828.3L1656.7 624.8L1658 803.3L1659.3 670.5L1660.7 793.8L1662 577.3L1663.3 822.1L1664.7 633.9L1666 808.1L1667.3 638.7L1668.7 824.8L1670 651.4L1671.3 824.5L1672.7 621.4L1674 814.7L1675.3 658.4L1676.7 809.6L1678 624.2L1679.3 802.9L1680.7 645.9L1682 810.5L1683.3 660.3L1684.7 794.1L1686 638L1687.3 821.7L1688.7 648L1690 826.9L1691.3 639.1L1692.7 823.1L1694 644.8L1695.3 820.9L1696.7 602.9L1698 815L1699.3 635.9L1700.7 806.7L1702 597.5L1703.3 793.9L1704.7 646.3L1706 803.3L1707.3 621.2L1708.7 817.6L1710 614.5L1711.3 805.5L1712.7 610.7L1714 805.4L1715.3 656.2L1716.7 819.8L1718 654.6L1719.3 809.7L1720.7 636.7L1722 831.1L1723.3 636.6L1724.7 795.3L1726 604.9L1727.3 806.3L1728.7 644.3L1730 800.4L1731.3 634.3L1732.7 801.8L1734 630.5L1735.3 799.3L1736.7 637L1738 802.5L1739.3 634.5L1740.7 808L1742 619.2L1743.3 820.9L1744.7 632.5L1746 831.8L1747.3 627.8L1748.7 829.7L1750 601.9L1751.3 812.8L1752.7 644.5L1754 828.1L1755.3 631.8L1756.7 830.3L1758 660.9L1759.3 811.4L1760.7 558.2L1762 805.1L1763.3 593.7L1764.7 819.4L1766 644.9L1767.3 805.1L1768.7 647L1770 824.1L1771.3 672.9L1772.7 776L1774 646.6L1775.3 810.4L1776.7 613.2L1778 809.1L1779.3 597.8L1780.7 808.6L1782 608.7L1783.3 794.4L1784.7 631.5L1786 804.1L1787.3 624.1L1788.7 803.4L1790 640.3L1791.3 820.4L1792.7 598.5L1794 809.2L1795.3 635.6L1796.7 800.1L1798 624.3L1799.3 809.7" fill="transparent" stroke="#626c91" stroke-width="3" stroke-linejoin="bevel" class="zr46-cls-140"></path>
</g>
<path d="M-263.2 -5l526.4 0l0 28l-526.4 0Z" transform="translate(1000 5)" fill="rgb(0,0,0)" fill-opacity="0" stroke="#ccc" stroke-width="0" class="zr46-cls-138"></path>
<text dominant-baseline="central" text-anchor="middle" style="font-size:18px;font-family:sans-serif;font-weight:bold;" xml:space="preserve" y="9" transform="translate(1000 5)" fill="#666666">entityUpdate per Tick for bench_1_every_60_staggered_reverse</text>
<defs >
<clipPath id="zr46-c0">
<path d="M198 58.5l16004 0l0 8703l-16004 0Z" fill="#000" class="zr46-cls-139"></path>
</clipPath>
<clipPath id="zr46-c1">
<path d="M198 58.5l16004 0l0 8703l-16004 0Z" fill="#000" class="zr46-cls-139"></path>
</clipPath>
<clipPath id="zr46-c2">
<path d="M198 58.5l16004 0l0 8703l-16004 0Z" fill="#000" class="zr46-cls-139"></path>
</clipPath>
</defs>
<style ><![CDATA[
.zr46-cls-138:hover {
pointer-events:none;
}
.zr46-cls-139:hover {
cursor:pointer;
fill:rgba(0,0,0,1);
}
.zr46-cls-140:hover {
cursor:pointer;
}

]]>

</style>
</svg>