<svg width="2000" height="1000" xmlns="http://www.w3.org/2000/svg" xmlns:xlink="http://www.w3.org/1999/xlink" version="1.1" baseProfile="full" viewBox="0 0 2000 1000">
<rect width="2000" height="1000" x="0" y="0" fill="rgb(252,252,252)" fill-opacity="0"></rect>
<path d="M200 930.5L1800 930.5" fill="transparent" stroke="#eeeeee" class="zr21-cls-63"></path>
<path d="M200 762.5L1800 762.5" fill="transparent" stroke="#eeeeee" class="zr21-cls-63"></path>
<path d="M200 593.5L1800 593.5" fill="transparent" stroke="#eeeeee" class="zr21-cls-63"></path>
<path d="M200 425.5L1800 425.5" fill="transparent" stroke="#eeeeee" class="zr21-cls-63"></path>
<path d="M200 257.5L1800 257.5" fill="transparent" stroke="#eeeeee" class="zr21-cls-63"></path>
<path d="M200 89.5L1800 89.5" fill="transparent" stroke="#eeeeee" class="zr21-cls-63"></path>
<path d="M200 60.5L1800 60.5" fill="transparent" stroke="#eeeeee" class="zr21-cls-63"></path>
<path d="M200.5 930L200.5 60" fill="transparent" stroke="#cccccc" stroke-linecap="round" class="zr21-cls-63"></path>
<text dominant-baseline="central" text-anchor="middle" style="font-size:12px;font-family:sans-serif;" xml:space="preserve" y="-6" transform="translate(200 45)" fill="#cccccc">Min controlBehaviorUpdate Time (ms)</text>
<path d="M200 930.5L1800 930.5" fill="transparent" stroke="#cccccc" stroke-linecap="round" class="zr21-cls-63"></path>
<text dominant-baseline="central" text-anchor="end" style="font-size:12px;font-family:sans-serif;" transform="translate(192 930)" fill="#999999">0.000</text>
<text dominant-baseline="central" text-anchor="end" style="font-size:12px;font-family:sans-serif;" transform="translate(192 761.853)" fill="#999999">0.200</text>
<text dominant-baseline="central" text-anchor="end" style="font-size:12px;font-family:sans-serif;" transform="translate(192 593.706)" fill="#999999">0.400</text>
<text dominant-baseline="central" text-anchor="end" style="font-size:12px;font-family:sans-serif;" transform="translate(192 425.559)" fill="#999999">0.600</text>
<text dominant-baseline="central" text-anchor="end" style="font-size:12px;font-family:sans-serif;" transform="translate(192 257.412)" fill="#999999">0.800</text>
<text dominant-baseline="central" text-anchor="end" style="font-size:12px;font-family:sans-serif;" transform="translate(192 89.265)" fill="#999999">1.000</text>
<text dominant-baseline="central" text-anchor="end" style="font-size:12px;font-family:sans-serif;" transform="translate(192 60)" fill="#999999">1.035</text>
<text dominant-baseline="central" text-anchor="middle" style="font-size:12px;font-family:sans-serif;" y="6" transform="translate(200.6667 938)" fill="#999999">0</text>
<text dominant-baseline="central" text-anchor="middle" style="font-size:12px;font-family:sans-serif;" y="6" transform="translate(236.6667 938)" fill="#999999">27</text>
<text dominant-baseline="central" text-anchor="middle" style="font-size:12px;font-family:sans-serif;" y="6" transform="translate(272.6667 938)" fill="#999999">54</text>
<text dominant-baseline="central" text-anchor="middle" style="font-size:12px;font-family:sans-serif;" y="6" transform="translate(308.6667 938)" fill="#999999">81</text>
<text dominant-baseline="central" text-anchor="middle" style="font-size:12px;font-family:sans-serif;" y="6" transform="translate(344.6667 938)" fill="#999999">108</text>
<text dominant-baseline="central" text-anchor="middle" style="font-size:12px;font-family:sans-serif;" y="6" transform="translate(380.6667 938)" fill="#999999">135</text>
<text dominant-baseline="central" text-anchor="middle" style="font-size:12px;font-family:sans-serif;" y="6" transform="translate(416.6667 938)" fill="#999999">162</text>
<text dominant-baseline="central" text-anchor="middle" style="font-size:12px;font-family:sans-serif;" y="6" transform="translate(452.6667 938)" fill="#999999">189</text>
<text dominant-baseline="central" text-anchor="middle" style="font-size:12px;font-family:sans-serif;" y="6" transform="translate(488.6667 938)" fill="#999999">216</text>
<text dominant-baseline="central" text-anchor="middle" style="font-size:12px;font-family:sans-serif;" y="6" transform="translate(524.6667 938)" fill="#999999">243</text>
<text dominant-baseline="central" text-anchor="middle" style="font-size:12px;font-family:sans-serif;" y="6" transform="translate(560.6667 938)" fill="#999999">270</text>
<text dominant-baseline="central" text-anchor="middle" style="font-size:12px;font-family:sans-serif;" y="6" transform="translate(596.6667 938)" fill="#999999">297</text>
<text dominant-baseline="central" text-anchor="middle" style="font-size:12px;font-family:sans-serif;" y="6" transform="translate(632.6667 938)" fill="#999999">324</text>
<text dominant-baseline="central" text-anchor="middle" style="font-size:12px;font-family:sans-serif;" y="6" transform="translate(668.6667 938)" fill="#999999">351</text>
<text dominant-baseline="central" text-anchor="middle" style="font-size:12px;font-family:sans-serif;" y="6" transform="translate(704.6667 938)" fill="#999999">378</text>
<text dominant-baseline="central" text-anchor="middle" style="font-size:12px;font-family:sans-serif;" y="6" transform="translate(740.6667 938)" fill="#999999">405</text>
<text dominant-baseline="central" text-anchor="middle" style="font-size:12px;font-family:sans-serif;" y="6" transform="translate(776.6667 938)" fill="#999999">432</text>
<text dominant-baseline="central" text-anchor="middle" style="font-size:12px;font-family:sans-serif;" y="6" transform="translate(812.6667 938)" fill="#999999">459</text>
<text dominant-baseline="central" text-anchor="middle" style="font-size:12px;font-family:sans-serif;" y="6" transform="translate(848.6667 938)" fill="#999999">486</text>
<text dominant-baseline="central" text-anchor="middle" style="font-size:12px;font-family:sans-serif;" y="6" transform="translate(884.6667 938)" fill="#999999">513</text>
<text dominant-baseline="central" text-anchor="middle" style="font-size:12px;font-family:sans-serif;" y="6" transform="translate(920.6667 938)" fill="#999999">540</text>
<text dominant-baseline="central" text-anchor="middle" style="font-size:12px;font-family:sans-serif;" y="6" transform="translate(956.6667 938)" fill="#999999">567</text>
<text dominant-baseline="central" text-anchor="middle" style="font-size:12px;font-family:sans-serif;" y="6" transform="translate(992.6667 938)" fill="#999999">594</text>
<text dominant-baseline="central" text-anchor="middle" style="font-size:12px;font-family:sans-serif;" y="6" transform="translate(1028.6667 938)" fill="#999999">621</text>
<text dominant-baseline="central" text-anchor="middle" style="font-size:12px;font-family:sans-serif;" y="6" transform="translate(1064.6667 938)" fill="#999999">648</text>
<text dominant-baseline="central" text-anchor="middle" style="font-size:12px;font-family:sans-serif;" y="6" transform="translate(1100.6667 938)" fill="#999999">675</text>
<text dominant-baseline="central" text-anchor="middle" style="font-size:12px;font-family:sans-serif;" y="6" transform="translate(1136.6667 938)" fill="#999999">702</text>
<text dominant-baseline="central" text-anchor="middle" style="font-size:12px;font-family:sans-serif;" y="6" transform="translate(1172.6667 938)" fill="#999999">729</text>
<text dominant-baseline="central" text-anchor="middle" style="font-size:12px;font-family:sans-serif;" y="6" transform="translate(1208.6667 938)" fill="#999999">756</text>
<text dominant-baseline="central" text-anchor="middle" style="font-size:12px;font-family:sans-serif;" y="6" transform="translate(1244.6667 938)" fill="#999999">783</text>
<text dominant-baseline="central" text-anchor="middle" style="font-size:12px;font-family:sans-serif;" y="6" transform="translate(1280.6667 938)" fill="#999999">810</text>
<text dominant-baseline="central" text-anchor="middle" style="font-size:12px;font-family:sans-serif;" y="6" transform="translate(1316.6667 938)" fill="#999999">837</text>
<text dominant-baseline="central" text-anchor="middle" style="font-size:12px;font-family:sans-serif;" y="6" transform="translate(1352.6667 938)" fill="#999999">864</text>
<text dominant-baseline="central" text-anchor="middle" style="font-size:12px;font-family:sans-serif;" y="6" transform="translate(1388.6667 938)" fill="#999999">891</text>
<text dominant-baseline="central" text-anchor="middle" style="font-size:12px;font-family:sans-serif;" y="6" transform="translate(1424.6667 938)" fill="#999999">918</text>
<text dominant-baseline="central" text-anchor="middle" style="font-size:12px;font-family:sans-serif;" y="6" transform="translate(1460.6667 938)" fill="#999999">945</text>
<text dominant-baseline="central" text-anchor="middle" style="font-size:12px;font-family:sans-serif;" y="6" transform="translate(1496.6667 938)" fill="#999999">972</text>
<text dominant-baseline="central" text-anchor="middle" style="font-size:12px;font-family:sans-serif;" y="6" transform="translate(1532.6667 938)" fill="#999999">999</text>
<text dominant-baseline="central" text-anchor="middle" style="font-size:12px;font-family:sans-serif;" y="6" transform="translate(1568.6667 938)" fill="#999999">1026</text>
<text dominant-baseline="central" text-anchor="middle" style="font-size:12px;font-family:sans-serif;" y="6" transform="translate(1604.6667 938)" fill="#999999">1053</text>
<text dominant-baseline="central" text-anchor="middle" style="font-size:12px;font-family:sans-serif;" y="6" transform="translate(1640.6667 938)" fill="#999999">1080</text>
<text dominant-baseline="central" text-anchor="middle" style="font-size:12px;font-family:sans-serif;" y="6" transform="translate(1676.6667 938)" fill="#999999">1107</text>
<text dominant-baseline="central" text-anchor="middle" style="font-size:12px;font-family:sans-serif;" y="6" transform="translate(1712.6667 938)" fill="#999999">1134</text>
<text dominant-baseline="central" text-anchor="middle" style="font-size:12px;font-family:sans-serif;" y="6" transform="translate(1748.6667 938)" fill="#999999">1161</text>
<text dominant-baseline="central" text-anchor="middle" style="font-size:12px;font-family:sans-serif;" y="6" transform="translate(1784.6667 938)" fill="#999999">1188</text>
<g clip-path="url(#zr21-c0)">
<path d="M200.7 283.2L202 722.7L203.3 786.9L204.7 792.1L206 800.6L207.3 803.4L208.7 800.4L210 797.2L211.3 795.7L212.7 793L214 803L215.3 794.1L216.7 808.5L218 803.1L219.3 809.9L220.7 803.5L222 816.8L223.3 804.5L224.7 805.4L226 805.3L227.3 818.6L228.7 808.7L230 816.1L231.3 818.9L232.7 810.7L234 812.1L235.3 814.6L236.7 814.9L238 814.2L239.3 817.6L240.7 815.8L242 816L243.3 817.9L244.7 812.7L246 808.8L247.3 811.6L248.7 818.5L250 812.5L251.3 818.1L252.7 814.4L254 814.1L255.3 813.9L256.7 815.8L258 815.3L259.3 819.4L260.7 816.9L262 819L263.3 811L264.7 813L266 810.3L267.3 805.3L268.7 817.9L270 813.1L271.3 817L272.7 815.3L274 813.1L275.3 817.7L276.7 817.1L278 815.6L279.3 816.8L280.7 814.1L282 812.5L283.3 817L284.7 812.4L286 812.8L287.3 -4322.8L288.7 610.3L290 604.5L291.3 564.9L292.7 98L294 657L295.3 701.2L296.7 716.5L298 451.1L299.3 439.1L300.7 574.5L302 695.9L303.3 673.8L304.7 737.5L306 773L307.3 791.4L308.7 763.1L310 793.3L311.3 802.2L312.7 805.1L314 801.5L315.3 797L316.7 800.9L318 800.8L319.3 797.2L320.7 803.9L322 795.1L323.3 805.8L324.7 806.1L326 794.7L327.3 809.8L328.7 805.2L330 804.5L331.3 801.5L332.7 784L334 803L335.3 807.3L336.7 805.2L338 802L339.3 798.2L340.7 802.5L342 801.5L343.3 804.5L344.7 798.6L346 793L347.3 797L348.7 798.7L350 806.3L351.3 784.1L352.7 805.4L354 797.5L355.3 797.1L356.7 797.2L358 795.1L359.3 804.6L360.7 807L362 803.6L363.3 800.7L364.7 809.2L366 806.1L367.3 809.2L368.7 805.2L370 794.6L371.3 805.2L372.7 809.5L374 805.7L375.3 804L376.7 802.5L378 795.7L379.3 788.9L380.7 802L382 812.3L383.3 808.3L384.7 806.2L386 806.9L387.3 802.6L388.7 805.4L390 806.8L391.3 806.6L392.7 811L394 806.8L395.3 814L396.7 810.1L398 806L399.3 805.1L400.7 808.3L402 784.7L403.3 792.6L404.7 802.3L406 799.5L407.3 804.7L408.7 803.5L410 805.5L411.3 809.5L412.7 805.7L414 799.2L415.3 795.4L416.7 800.5L418 807.8L419.3 811.5L420.7 809.3L422 807.7L423.3 806.9L424.7 808L426 801L427.3 808.5L428.7 803L430 803.6L431.3 798.3L432.7 813.3L434 820L435.3 807.8L436.7 806.2L438 807.4L439.3 805.8L440.7 808.5L442 803.4L443.3 804.6L444.7 806.3L446 804.5L447.3 799.3L448.7 805.3L450 801.5L451.3 809.7L452.7 806.3L454 813.8L455.3 806.4L456.7 808.4L458 806.8L459.3 807.2L460.7 805.1L462 811.7L463.3 801.3L464.7 807.6L466 794L467.3 800.4L468.7 801.1L470 806.5L471.3 797.8L472.7 812.1L474 802.5L475.3 806.7L476.7 806.2L478 802L479.3 804.4L480.7 795.2L482 801.1L483.3 805.5L484.7 801.8L486 804.5L487.3 809.8L488.7 802.5L490 809.4L491.3 790.4L492.7 804.4L494 813.4L495.3 806L496.7 813.1L498 804.1L499.3 802.9L500.7 812L502 812.5L503.3 805.2L504.7 805.4L506 810.7L507.3 813.7L508.7 816.9L510 805L511.3 816L512.7 812.5L514 814.6L515.3 808.2L516.7 815.1L518 801.5L519.3 799.1L520.7 803L522 807.3L523.3 807.2L524.7 805.2L526 813.3L527.3 810.4L528.7 815.5L530 803.8L531.3 794.1L532.7 800.3L534 804.1L535.3 809.9L536.7 817.1L538 806.6L539.3 809.5L540.7 814.1L542 819.8L543.3 810.8L544.7 815L546 820L547.3 819.1L548.7 816.9L550 811L551.3 815.2L552.7 816.4L554 811L555.3 821.4L556.7 806.4L558 809.9L559.3 812.6L560.7 817.3L562 811.6L563.3 809.5L564.7 812L566 815.2L567.3 807.8L568.7 813.9L570 811.5L571.3 812.1L572.7 807.3L574 805.4L575.3 809.8L576.7 812.3L578 809.7L579.3 812.5L580.7 812.3L582 816L583.3 816.6L584.7 814L586 807L587.3 814.4L588.7 815.7L590 816.2L591.3 820.6L592.7 817.4L594 813.4L595.3 813.7L596.7 821.7L598 817L599.3 820.4L600.7 815.8L602 815L603.3 812.5L604.7 817.9L606 822.2L607.3 -3702L608.7 613.6L610 593.6L611.3 564.2L612.7 122.7L614 665.3L615.3 679.5L616.7 711.6L618 454.1L619.3 458.3L620.7 593.2L622 688.8L623.3 698.4L624.7 749.3L626 765.7L627.3 790.7L628.7 793.7L630 799.5L631.3 802L632.7 807.8L634 808.4L635.3 795.7L636.7 803L638 804.2L639.3 805.2L640.7 806.2L642 801.4L643.3 810.6L644.7 801.8L646 801.9L647.3 806.1L648.7 811.6L650 804.2L651.3 808.9L652.7 808.2L654 810.7L655.3 812.5L656.7 809.4L658 804.2L659.3 802L660.7 785.9L662 815.1L663.3 806.8L664.7 808.9L666 807.8L667.3 802.1L668.7 762.4L670 789.3L671.3 795.4L672.7 801.2L674 802.4L675.3 809.2L676.7 813L678 808.3L679.3 813.6L680.7 807L682 807.2L683.3 804.1L684.7 814.7L686 805.6L687.3 810.4L688.7 804.7L690 802.8L691.3 799.1L692.7 801.5L694 799.2L695.3 802.2L696.7 809.9L698 809.9L699.3 814.1L700.7 808.3L702 803.9L703.3 808.8L704.7 796.3L706 797.6L707.3 797.4L708.7 802.5L710 807.1L711.3 808.2L712.7 802.5L714 806.7L715.3 807.3L716.7 806.2L718 808.1L719.3 799.3L720.7 797.6L722 810.5L723.3 810.8L724.7 804.7L726 811.5L727.3 804.2L728.7 808.3L730 806.9L731.3 805.9L732.7 793.5L734 807.9L735.3 796.9L736.7 804.1L738 809.4L739.3 812.7L740.7 799.8L742 807.3L743.3 813.8L744.7 810.1L746 806.4L747.3 808.3L748.7 808.5L750 808.6L751.3 809.6L752.7 800.5L754 805.2L755.3 818.7L756.7 808.8L758 806.8L759.3 793.1L760.7 807.4L762 798.3L763.3 808L764.7 810.6L766 813.7L767.3 806.4L768.7 805.2L770 805.2L771.3 810.6L772.7 806.4L774 799.4L775.3 811.8L776.7 808.9L778 809.2L779.3 808.9L780.7 803.3L782 804.6L783.3 815.6L784.7 807.3L786 807.1L787.3 802L788.7 801L790 811.3L791.3 805.7L792.7 804.5L794 808.9L795.3 807.3L796.7 806.4L798 805.9L799.3 807.1L800.7 802L802 804.3L803.3 806.9L804.7 802.8L806 803.2L807.3 805.3L808.7 802L810 805.7L811.3 802.5L812.7 800.8L814 811.3L815.3 805.8L816.7 806.6L818 806.2L819.3 812.6L820.7 811.1L822 811.2L823.3 806.6L824.7 809.4L826 813.4L827.3 810.3L828.7 801.9L830 810.3L831.3 801.5L832.7 812.5L834 797.5L835.3 811.8L836.7 818.6L838 800.8L839.3 804.9L840.7 815.2L842 803L843.3 808.5L844.7 806.8L846 801.9L847.3 802.9L848.7 809L850 802L851.3 811.3L852.7 814.8L854 809.1L855.3 808.7L856.7 814.1L858 809.4L859.3 814.3L860.7 815.4L862 809.6L863.3 814.8L864.7 819.8L866 804L867.3 804.6L868.7 810.3L870 813.2L871.3 808.3L872.7 809.7L874 813.6L875.3 811L876.7 814.1L878 816.7L879.3 809.6L880.7 814.7L882 810.7L883.3 812.2L884.7 813.1L886 808.5L887.3 814L888.7 813.1L890 815.3L891.3 808.3L892.7 813.1L894 818.5L895.3 817L896.7 808.9L898 817.8L899.3 809.1L900.7 816.1L902 814.9L903.3 810.9L904.7 818.1L906 813.1L907.3 808.6L908.7 809.4L910 803.6L911.3 816.1L912.7 813.8L914 814.7L915.3 817.7L916.7 815.1L918 814.6L919.3 819.9L920.7 818.9L922 816.8L923.3 815.1L924.7 818.8L926 808.7L927.3 -3742.9L928.7 591.8L930 589.2L931.3 545.7L932.7 130.8L934 655.5L935.3 694.3L936.7 715.9L938 452.2L939.3 450L940.7 601.1L942 685.5L943.3 694.1L944.7 741.3L946 768.2L947.3 786.4L948.7 781.3L950 796.7L951.3 804.1L952.7 810.7L954 798.3L955.3 796.5L956.7 799.3L958 805.4L959.3 803.6L960.7 811.8L962 806.3L963.3 805.5L964.7 802.6L966 806.4L967.3 802.3L968.7 812.5L970 807.8L971.3 810L972.7 797.9L974 808.6L975.3 807.8L976.7 804.6L978 806.5L979.3 800.4L980.7 799.7L982 816.7L983.3 806.2L984.7 813.2L986 806.2L987.3 806.2L988.7 793.1L990 794.2L991.3 802.1L992.7 804.1L994 811L995.3 816L996.7 814.9L998 806.1L999.3 804.6L1000.7 806.2L1002 798.9L1003.3 799.1L1004.7 807.8L1006 813.7L1007.3 814.9L1008.7 807.9L1010 817.2L1011.3 815.9L1012.7 803L1014 793.2L1015.3 801.4L1016.7 811.5L1018 795.7L1019.3 803.6L1020.7 802.6L1022 805.4L1023.3 807.3L1024.7 806.4L1026 802L1027.3 803.4L1028.7 799.8L1030 803.1L1031.3 807.2L1032.7 807.4L1034 804.3L1035.3 802L1036.7 806.9L1038 809.4L1039.3 786.3L1040.7 804.3L1042 804.4L1043.3 806.8L1044.7 802.7L1046 802.1L1047.3 805.2L1048.7 807.8L1050 806.3L1051.3 804.6L1052.7 800.8L1054 791.1L1055.3 799.8L1056.7 800.7L1058 803.5L1059.3 801.5L1060.7 806.9L1062 803L1063.3 803.8L1064.7 805.3L1066 785.1L1067.3 801.4L1068.7 793.2L1070 799.4L1071.3 808.5L1072.7 808.9L1074 798.7L1075.3 803.6L1076.7 804.8L1078 799.7L1079.3 780.7L1080.7 804.3L1082 800.5L1083.3 802.9L1084.7 804.7L1086 803.1L1087.3 809.3L1088.7 805.6L1090 813.8L1091.3 791.4L1092.7 795L1094 804.4L1095.3 797.6L1096.7 803.5L1098 798.3L1099.3 808L1100.7 808.7L1102 806.7L1103.3 796.9L1104.7 797.1L1106 796.7L1107.3 799.4L1108.7 793.1L1110 806.1L1111.3 800.7L1112.7 802.7L1114 794.3L1115.3 801.4L1116.7 796.1L1118 804.1L1119.3 792L1120.7 800.7L1122 808.6L1123.3 812.2L1124.7 800.5L1126 803L1127.3 805.4L1128.7 786.6L1130 803.1L1131.3 806L1132.7 807.5L1134 788.5L1135.3 801.1L1136.7 800.8L1138 802.5L1139.3 805.2L1140.7 802.7L1142 791.6L1143.3 798.3L1144.7 793.9L1146 805.7L1147.3 809.7L1148.7 803.5L1150 807.8L1151.3 804.2L1152.7 799.9L1154 795.8L1155.3 803.5L1156.7 807.1L1158 804.1L1159.3 803.6L1160.7 802.1L1162 804.2L1163.3 812L1164.7 810.3L1166 802L1167.3 811.7L1168.7 798.1L1170 797.3L1171.3 809.8L1172.7 806.8L1174 817.3L1175.3 811.9L1176.7 808.9L1178 812.1L1179.3 814.3L1180.7 809.5L1182 812.6L1183.3 818.1L1184.7 811.6L1186 814.4L1187.3 814.1L1188.7 817.2L1190 814L1191.3 807.3L1192.7 805.6L1194 809.5L1195.3 812.8L1196.7 811.1L1198 808.3L1199.3 812.8L1200.7 819.1L1202 807.6L1203.3 812.7L1204.7 814.2L1206 814.9L1207.3 809.7L1208.7 816.9L1210 818.7L1211.3 812L1212.7 817L1214 814.7L1215.3 807.4L1216.7 811.3L1218 812.7L1219.3 815.2L1220.7 813.1L1222 813.6L1223.3 814.3L1224.7 820.5L1226 812L1227.3 813.1L1228.7 820.3L1230 793.2L1231.3 801.4L1232.7 802.3L1234 812.1L1235.3 808.4L1236.7 812.8L1238 813.1L1239.3 810L1240.7 808.5L1242 817.3L1243.3 807.8L1244.7 811L1246 812.8L1247.3 -3745.3L1248.7 572.9L1250 558.6L1251.3 515.4L1252.7 -60L1254 662.1L1255.3 688.2L1256.7 717.1L1258 452.5L1259.3 425.1L1260.7 590.2L1262 659.5L1263.3 681.1L1264.7 715.1L1266 739.2L1267.3 768.6L1268.7 766.7L1270 791.1L1271.3 798.4L1272.7 803.4L1274 803.2L1275.3 787.7L1276.7 793.2L1278 802.4L1279.3 792.5L1280.7 797.4L1282 800.6L1283.3 811.4L1284.7 798.3L1286 802.3L1287.3 784.2L1288.7 801.2L1290 796.1L1291.3 798.7L1292.7 796.7L1294 811.6L1295.3 803.1L1296.7 806.6L1298 803.6L1299.3 800.4L1300.7 806.8L1302 810.1L1303.3 799.3L1304.7 797.1L1306 798.7L1307.3 807.5L1308.7 794.8L1310 807.5L1311.3 806.1L1312.7 801.4L1314 810L1315.3 801.2L1316.7 807.8L1318 793.4L1319.3 794.7L1320.7 798.8L1322 807L1323.3 801.9L1324.7 800.4L1326 807.2L1327.3 803.2L1328.7 809.4L1330 806.7L1331.3 813L1332.7 811.1L1334 811.8L1335.3 811.6L1336.7 807.6L1338 803.4L1339.3 806.2L1340.7 809.5L1342 808.1L1343.3 804.1L1344.7 800L1346 807.3L1347.3 804.8L1348.7 803.3L1350 812.7L1351.3 809.4L1352.7 805.3L1354 797.6L1355.3 794.7L1356.7 799.9L1358 812L1359.3 804.9L1360.7 802.7L1362 800.4L1363.3 804.5L1364.7 801.2L1366 797.2L1367.3 800.1L1368.7 802.2L1370 803.9L1371.3 808.6L1372.7 805.2L1374 806.8L1375.3 808.8L1376.7 817.3L1378 802.5L1379.3 800.9L1380.7 804.9L1382 803.5L1383.3 803.8L1384.7 808.2L1386 802.4L1387.3 804.3L1388.7 805.7L1390 810.3L1391.3 801.2L1392.7 803.4L1394 794.6L1395.3 804.6L1396.7 797.2L1398 806.9L1399.3 803.1L1400.7 812.5L1402 806.7L1403.3 796.7L1404.7 802.9L1406 806.6L1407.3 813.6L1408.7 806.3L1410 791.6L1411.3 805.5L1412.7 811.3L1414 804L1415.3 809.1L1416.7 811.6L1418 813.2L1419.3 793.5L1420.7 807.5L1422 808.6L1423.3 804.5L1424.7 806.2L1426 806.2L1427.3 815.7L1428.7 810.2L1430 812.2L1431.3 800.5L1432.7 793L1434 804.2L1435.3 801.9L1436.7 808.7L1438 804.7L1439.3 806.5L1440.7 807.6L1442 809.8L1443.3 813.4L1444.7 807.3L1446 790.5L1447.3 804.1L1448.7 800.3L1450 808.5L1451.3 812.1L1452.7 808.6L1454 808.2L1455.3 802.2L1456.7 810.2L1458 806.1L1459.3 792.5L1460.7 803L1462 800.7L1463.3 795.6L1464.7 811L1466 814.2L1467.3 811L1468.7 800.4L1470 815.6L1471.3 798.5L1472.7 806.3L1474 793.2L1475.3 801.3L1476.7 808.4L1478 808.2L1479.3 814.6L1480.7 810.7L1482 807.2L1483.3 804.5L1484.7 798.8L1486 804.3L1487.3 811.3L1488.7 807.3L1490 806.2L1491.3 803.2L1492.7 807.1L1494 809.3L1495.3 809.9L1496.7 814.3L1498 805.2L1499.3 808.4L1500.7 811.3L1502 815.8L1503.3 815.8L1504.7 811.7L1506 809L1507.3 814.5L1508.7 817.3L1510 813.8L1511.3 815.4L1512.7 816.8L1514 807.9L1515.3 812.5L1516.7 810.6L1518 814.9L1519.3 810.2L1520.7 811L1522 816.2L1523.3 815.3L1524.7 814.7L1526 810.7L1527.3 810L1528.7 819.8L1530 811.2L1531.3 806.7L1532.7 811.6L1534 815.9L1535.3 812.6L1536.7 808.2L1538 811.9L1539.3 813.6L1540.7 812L1542 816.3L1543.3 809.8L1544.7 816.3L1546 813.1L1547.3 811.9L1548.7 810.8L1550 813.3L1551.3 816.1L1552.7 806.2L1554 808.4L1555.3 811.5L1556.7 813.3L1558 812L1559.3 811.9L1560.7 811.2L1562 815.1L1563.3 813.8L1564.7 811.8L1566 813.1L1567.3 -3832.3L1568.7 573.2L1570 588.9L1571.3 540.9L1572.7 49.8L1574 639.1L1575.3 694.6L1576.7 703.8L1578 455.7L1579.3 476.8L1580.7 593.3L1582 698L1583.3 688.5L1584.7 742.6L1586 755.8L1587.3 795.1L1588.7 792.5L1590 801.8L1591.3 800.1L1592.7 805.2L1594 781.1L1595.3 805.8L1596.7 806.7L1598 808.3L1599.3 800.3L1600.7 809.4L1602 811.4L1603.3 808.7L1604.7 780L1606 784.6L1607.3 802L1608.7 807.1L1610 802L1611.3 807L1612.7 805.8L1614 812.4L1615.3 800L1616.7 803.7L1618 803.2L1619.3 810.2L1620.7 808.9L1622 807.1L1623.3 803L1624.7 798L1626 788.5L1627.3 797.8L1628.7 796.1L1630 807.7L1631.3 806.1L1632.7 806.1L1634 814.3L1635.3 803.7L1636.7 812.6L1638 791.2L1639.3 804.9L1640.7 802.3L1642 809.3L1643.3 810.4L1644.7 807.3L1646 810L1647.3 806L1648.7 800.4L1650 794L1651.3 802.6L1652.7 802.9L1654 806.2L1655.3 802.2L1656.7 803L1658 808L1659.3 803L1660.7 810.7L1662 812.1L1663.3 804L1664.7 805.5L1666 809.3L1667.3 801.5L1668.7 812.6L1670 809.2L1671.3 806.8L1672.7 817.4L1674 811.9L1675.3 814.9L1676.7 805.5L1678 805.3L1679.3 807.1L1680.7 808.9L1682 810.1L1683.3 807.3L1684.7 802.5L1686 815.9L1687.3 810.4L1688.7 808.1L1690 790.6L1691.3 799.3L1692.7 814.9L1694 805.3L1695.3 803.9L1696.7 810.2L1698 820.8L1699.3 808.3L1700.7 807.6L1702 810L1703.3 804.5L1704.7 798.2L1706 801.8L1707.3 803.2L1708.7 803.8L1710 807.1L1711.3 805.1L1712.7 801.5L1714 798.9L1715.3 808L1716.7 811.6L1718 798.8L1719.3 797.2L1720.7 805.4L1722 808.2L1723.3 805.7L1724.7 807.1L1726 817.5L1727.3 800.6L1728.7 808.9L1730 800.8L1731.3 801.3L1732.7 810.5L1734 804.7L1735.3 806.2L1736.7 806.7L1738 810.7L1739.3 814.6L1740.7 802.2L1742 802L1743.3 803.8L1744.7 811L1746 790.9L1747.3 801.8L1748.7 806.7L1750 805L1751.3 802.5L1752.7 807.3L1754 809L1755.3 805.7L1756.7 807.5L1758 815.1L1759.3 807.6L1760.7 803.6L1762 810.5L1763.3 808.7L1764.7 805.9L1766 808.5L1767.3 811.3L1768.7 805L1770 801.2L1771.3 812.8L1772.7 807.3L1774 814.4L1775.3 794.3L1776.7 805.1L1778 801.1L1779.3 814.7L1780.7 801.5L1782 806.7L1783.3 808.7L1784.7 816L1786 812.5L1787.3 809.2L1788.7 789.3L1790 805.9L1791.3 807.9L1792.7 804.7L1794 805.8L1795.3 804.6L1796.7 807.4L1798 809.4L1799.3 808.6" fill="transparent" stroke="#3fb1e3" stroke-width="3" stroke-linejoin="bevel" class="zr21-cls-65"></path>
</g>
<path d="M-246 -5l492 0l0 28l-492 0Z" transform="translate(1000 5)" fill="rgb(0,0,0)" fill-opacity="0" stroke="#ccc" stroke-width="0" class="zr21-cls-63"></path>
<text dominant-baseline="central" text-anchor="middle" style="font-size:18px;font-family:sans-serif;font-weight:bold;" xml:space="preserve" y="9" transform="translate(1000 5)" fill="#666666">Min controlBehaviorUpdate per Tick for bench_4_every_240</text>
<defs >
<clipPath id="zr21-c0">
<path d="M198 58.5l16004 0l0 8703l-16004 0Z" fill="#000" class="zr21-cls-64"></path>
</clipPath>
</defs>
<style ><![CDATA[
.zr21-cls-63:hover {
pointer-events:none;
}
.zr21-cls-64:hover {
cursor:pointer;
fill:rgba(0,0,0,1);
}
.zr21-cls-65:hover {
cursor:pointer;
}

]]>

</style>
</svg>