<svg width="2000" height="1000" xmlns="http://www.w3.org/2000/svg" xmlns:xlink="http://www.w3.org/1999/xlink" version="1.1" baseProfile="full" viewBox="0 0 2000 1000">
<rect width="2000" height="1000" x="0" y="0" fill="rgb(252,252,252)" fill-opacity="0"></rect>
<path d="M200 930.5L1800 930.5" fill="transparent" stroke="#eeeeee" class="zr1-cls-3"></path>
<path d="M200 772.5L1800 772.5" fill="transparent" stroke="#eeeeee" class="zr1-cls-3"></path>
<path d="M200 614.5L1800 614.5" fill="transparent" stroke="#eeeeee" class="zr1-cls-3"></path>
<path d="M200 457.5L1800 457.5" fill="transparent" stroke="#eeeeee" class="zr1-cls-3"></path>
<path d="M200 299.5L1800 299.5" fill="transparent" stroke="#eeeeee" class="zr1-cls-3"></path>
<path d="M200 141.5L1800 141.5" fill="transparent" stroke="#eeeeee" class="zr1-cls-3"></path>
<path d="M200 60.5L1800 60.5" fill="transparent" stroke="#eeeeee" class="zr1-cls-3"></path>
<path d="M200.5 930L200.5 60" fill="transparent" stroke="#cccccc" stroke-linecap="round" class="zr1-cls-3"></path>
<text dominant-baseline="central" text-anchor="middle" style="font-size:12px;font-family:sans-serif;" xml:space="preserve" y="-6" transform="translate(200 45)" fill="#cccccc">Min wholeUpdate Time (ms)</text>
<path d="M200 930.5L1800 930.5" fill="transparent" stroke="#cccccc" stroke-linecap="round" class="zr1-cls-3"></path>
<text dominant-baseline="central" text-anchor="end" style="font-size:12px;font-family:sans-serif;" transform="translate(192 930)" fill="#999999">0.000</text>
<text dominant-baseline="central" text-anchor="end" style="font-size:12px;font-family:sans-serif;" transform="translate(192 772.2886)" fill="#999999">1.000</text>
<text dominant-baseline="central" text-anchor="end" style="font-size:12px;font-family:sans-serif;" transform="translate(192 614.5773)" fill="#999999">2.000</text>
<text dominant-baseline="central" text-anchor="end" style="font-size:12px;font-family:sans-serif;" transform="translate(192 456.8659)" fill="#999999">3.000</text>
<text dominant-baseline="central" text-anchor="end" style="font-size:12px;font-family:sans-serif;" transform="translate(192 299.1546)" fill="#999999">4.000</text>
<text dominant-baseline="central" text-anchor="end" style="font-size:12px;font-family:sans-serif;" transform="translate(192 141.4432)" fill="#999999">5.000</text>
<text dominant-baseline="central" text-anchor="end" style="font-size:12px;font-family:sans-serif;" transform="translate(192 60)" fill="#999999">5.516</text>
<text dominant-baseline="central" text-anchor="middle" style="font-size:12px;font-family:sans-serif;" y="6" transform="translate(200.6667 938)" fill="#999999">0</text>
<text dominant-baseline="central" text-anchor="middle" style="font-size:12px;font-family:sans-serif;" y="6" transform="translate(236.6667 938)" fill="#999999">27</text>
<text dominant-baseline="central" text-anchor="middle" style="font-size:12px;font-family:sans-serif;" y="6" transform="translate(272.6667 938)" fill="#999999">54</text>
<text dominant-baseline="central" text-anchor="middle" style="font-size:12px;font-family:sans-serif;" y="6" transform="translate(308.6667 938)" fill="#999999">81</text>
<text dominant-baseline="central" text-anchor="middle" style="font-size:12px;font-family:sans-serif;" y="6" transform="translate(344.6667 938)" fill="#999999">108</text>
<text dominant-baseline="central" text-anchor="middle" style="font-size:12px;font-family:sans-serif;" y="6" transform="translate(380.6667 938)" fill="#999999">135</text>
<text dominant-baseline="central" text-anchor="middle" style="font-size:12px;font-family:sans-serif;" y="6" transform="translate(416.6667 938)" fill="#999999">162</text>
<text dominant-baseline="central" text-anchor="middle" style="font-size:12px;font-family:sans-serif;" y="6" transform="translate(452.6667 938)" fill="#999999">189</text>
<text dominant-baseline="central" text-anchor="middle" style="font-size:12px;font-family:sans-serif;" y="6" transform="translate(488.6667 938)" fill="#999999">216</text>
<text dominant-baseline="central" text-anchor="middle" style="font-size:12px;font-family:sans-serif;" y="6" transform="translate(524.6667 938)" fill="#999999">243</text>
<text dominant-baseline="central" text-anchor="middle" style="font-size:12px;font-family:sans-serif;" y="6" transform="translate(560.6667 938)" fill="#999999">270</text>
<text dominant-baseline="central" text-anchor="middle" style="font-size:12px;font-family:sans-serif;" y="6" transform="translate(596.6667 938)" fill="#999999">297</text>
<text dominant-baseline="central" text-anchor="middle" style="font-size:12px;font-family:sans-serif;" y="6" transform="translate(632.6667 938)" fill="#999999">324</text>
<text dominant-baseline="central" text-anchor="middle" style="font-size:12px;font-family:sans-serif;" y="6" transform="translate(668.6667 938)" fill="#999999">351</text>
<text dominant-baseline="central" text-anchor="middle" style="font-size:12px;font-family:sans-serif;" y="6" transform="translate(704.6667 938)" fill="#999999">378</text>
<text dominant-baseline="central" text-anchor="middle" style="font-size:12px;font-family:sans-serif;" y="6" transform="translate(740.6667 938)" fill="#999999">405</text>
<text dominant-baseline="central" text-anchor="middle" style="font-size:12px;font-family:sans-serif;" y="6" transform="translate(776.6667 938)" fill="#999999">432</text>
<text dominant-baseline="central" text-anchor="middle" style="font-size:12px;font-family:sans-serif;" y="6" transform="translate(812.6667 938)" fill="#999999">459</text>
<text dominant-baseline="central" text-anchor="middle" style="font-size:12px;font-family:sans-serif;" y="6" transform="translate(848.6667 938)" fill="#999999">486</text>
<text dominant-baseline="central" text-anchor="middle" style="font-size:12px;font-family:sans-serif;" y="6" transform="translate(884.6667 938)" fill="#999999">513</text>
<text dominant-baseline="central" text-anchor="middle" style="font-size:12px;font-family:sans-serif;" y="6" transform="translate(920.6667 938)" fill="#999999">540</text>
<text dominant-baseline="central" text-anchor="middle" style="font-size:12px;font-family:sans-serif;" y="6" transform="translate(956.6667 938)" fill="#999999">567</text>
<text dominant-baseline="central" text-anchor="middle" style="font-size:12px;font-family:sans-serif;" y="6" transform="translate(992.6667 938)" fill="#999999">594</text>
<text dominant-baseline="central" text-anchor="middle" style="font-size:12px;font-family:sans-serif;" y="6" transform="translate(1028.6667 938)" fill="#999999">621</text>
<text dominant-baseline="central" text-anchor="middle" style="font-size:12px;font-family:sans-serif;" y="6" transform="translate(1064.6667 938)" fill="#999999">648</text>
<text dominant-baseline="central" text-anchor="middle" style="font-size:12px;font-family:sans-serif;" y="6" transform="translate(1100.6667 938)" fill="#999999">675</text>
<text dominant-baseline="central" text-anchor="middle" style="font-size:12px;font-family:sans-serif;" y="6" transform="translate(1136.6667 938)" fill="#999999">702</text>
<text dominant-baseline="central" text-anchor="middle" style="font-size:12px;font-family:sans-serif;" y="6" transform="translate(1172.6667 938)" fill="#999999">729</text>
<text dominant-baseline="central" text-anchor="middle" style="font-size:12px;font-family:sans-serif;" y="6" transform="translate(1208.6667 938)" fill="#999999">756</text>
<text dominant-baseline="central" text-anchor="middle" style="font-size:12px;font-family:sans-serif;" y="6" transform="translate(1244.6667 938)" fill="#999999">783</text>
<text dominant-baseline="central" text-anchor="middle" style="font-size:12px;font-family:sans-serif;" y="6" transform="translate(1280.6667 938)" fill="#999999">810</text>
<text dominant-baseline="central" text-anchor="middle" style="font-size:12px;font-family:sans-serif;" y="6" transform="translate(1316.6667 938)" fill="#999999">837</text>
<text dominant-baseline="central" text-anchor="middle" style="font-size:12px;font-family:sans-serif;" y="6" transform="translate(1352.6667 938)" fill="#999999">864</text>
<text dominant-baseline="central" text-anchor="middle" style="font-size:12px;font-family:sans-serif;" y="6" transform="translate(1388.6667 938)" fill="#999999">891</text>
<text dominant-baseline="central" text-anchor="middle" style="font-size:12px;font-family:sans-serif;" y="6" transform="translate(1424.6667 938)" fill="#999999">918</text>
<text dominant-baseline="central" text-anchor="middle" style="font-size:12px;font-family:sans-serif;" y="6" transform="translate(1460.6667 938)" fill="#999999">945</text>
<text dominant-baseline="central" text-anchor="middle" style="font-size:12px;font-family:sans-serif;" y="6" transform="translate(1496.6667 938)" fill="#999999">972</text>
<text dominant-baseline="central" text-anchor="middle" style="font-size:12px;font-family:sans-serif;" y="6" transform="translate(1532.6667 938)" fill="#999999">999</text>
<text dominant-baseline="central" text-anchor="middle" style="font-size:12px;font-family:sans-serif;" y="6" transform="translate(1568.6667 938)" fill="#999999">1026</text>
<text dominant-baseline="central" text-anchor="middle" style="font-size:12px;font-family:sans-serif;" y="6" transform="translate(1604.6667 938)" fill="#999999">1053</text>
<text dominant-baseline="central" text-anchor="middle" style="font-size:12px;font-family:sans-serif;" y="6" transform="translate(1640.6667 938)" fill="#999999">1080</text>
<text dominant-baseline="central" text-anchor="middle" style="font-size:12px;font-family:sans-serif;" y="6" transform="translate(1676.6667 938)" fill="#999999">1107</text>
<text dominant-baseline="central" text-anchor="middle" style="font-size:12px;font-family:sans-serif;" y="6" transform="translate(1712.6667 938)" fill="#999999">1134</text>
<text dominant-baseline="central" text-anchor="middle" style="font-size:12px;font-family:sans-serif;" y="6" transform="translate(1748.6667 938)" fill="#999999">1161</text>
<text dominant-baseline="central" text-anchor="middle" style="font-size:12px;font-family:sans-serif;" y="6" transform="translate(1784.6667 938)" fill="#999999">1188</text>
<g clip-path="url(#zr1-c0)">
<path d="M200.7 353.1L202 496.5L203.3 677.6L204.7 582.4L206 672.8L207.3 580.2L208.7 663.2L210 583.6L211.3 657.3L212.7 568.9L214 653.7L215.3 576.4L216.7 665.1L218 569.4L219.3 655.6L220.7 597.9L222 642.5L223.3 572L224.7 653.8L226 598.8L227.3 650.1L228.7 553.7L230 642.8L231.3 568L232.7 648.5L234 549.5L235.3 656.7L236.7 577.8L238 663.8L239.3 554.1L240.7 649.5L242 575.8L243.3 655.9L244.7 544.4L246 619.2L247.3 565.3L248.7 658.4L250 553.9L251.3 631.1L252.7 566.5L254 639.9L255.3 546.9L256.7 649L258 578.7L259.3 634.6L260.7 553.5L262 625.2L263.3 582.4L264.7 629.3L266 530.2L267.3 645.6L268.7 579L270 665L271.3 697.6L272.7 723.4L274 712.8L275.3 726.6L276.7 714.9L278 714.2L279.3 716.4L280.7 707L282 710.5L283.3 730L284.7 730.7L286 739.5L287.3 715.4L288.7 733.8L290 739.9L291.3 735.4L292.7 722.4L294 724.9L295.3 728.8L296.7 729.2L298 719.3L299.3 724.5L300.7 733.7L302 734.8L303.3 700.4L304.7 714L306 736.2L307.3 726.2L308.7 711.7L310 715L311.3 727.6L312.7 731L314 706.6L315.3 719.2L316.7 729.3L318 722.4L319.3 710.2L320.7 714.5L322 725.8L323.3 725.4L324.7 719.8L326 718.7L327.3 729.7L328.7 723.3L330 702L331.3 720.5L332.7 734.9L334 707.4L335.3 709.4L336.7 710.5L338 723.2L339.3 718.2L340.7 706.2L342 688.4L343.3 726.1L344.7 703.4L346 726.7L347.3 735.9L348.7 746.5L350 741.1L351.3 720.1L352.7 739.7L354 743.7L355.3 737.7L356.7 723.5L358 733.3L359.3 728.8L360.7 735.2L362 720.7L363.3 739L364.7 735.9L366 733.3L367.3 709.7L368.7 728.4L370 732.2L371.3 735.5L372.7 721.8L374 716.5L375.3 728.4L376.7 730.3L378 711.3L379.3 720.3L380.7 718.7L382 731.2L383.3 709.5L384.7 727.8L386 730.2L387.3 721.3L388.7 699.6L390 722.6L391.3 735.3L392.7 714.1L394 695.8L395.3 723.3L396.7 723.8L398 722L399.3 718.4L400.7 723.1L402 735.7L403.3 730.4L404.7 716.8L406 717.3L407.3 712.7L408.7 715.2L410 711.5L411.3 724.8L412.7 732.9L414 722.9L415.3 709.1L416.7 722.6L418 725.4L419.3 709.8L420.7 716L422 716.4L423.3 734L424.7 721.9L426 723.1L427.3 738.3L428.7 744.8L430 731.1L431.3 700.5L432.7 737.4L434 736.9L435.3 738.7L436.7 721L438 727.5L439.3 742.3L440.7 742.7L442 727.1L443.3 736.6L444.7 727.1L446 737.4L447.3 719.2L448.7 742L450 739.2L451.3 736.1L452.7 712.4L454 730.7L455.3 718.1L456.7 736.3L458 724L459.3 730.4L460.7 737L462 734.6L463.3 721.4L464.7 724.8L466 724.1L467.3 725.6L468.7 717.6L470 715L471.3 728.3L472.7 717.8L474 721.5L475.3 725L476.7 738.3L478 727.8L479.3 716.2L480.7 714L482 727.7L483.3 706.8L484.7 718.7L486 709L487.3 713.1L488.7 724.5L490 712.5L491.3 721.5L492.7 731.4L494 721.4L495.3 690.6L496.7 715.9L498 731.1L499.3 713.2L500.7 710.7L502 702.8L503.3 733.7L504.7 715.4L506 714.1L507.3 714L508.7 732.3L510 741.6L511.3 585.4L512.7 676.6L514 579.9L515.3 672.5L516.7 554.5L518 636.5L519.3 579.1L520.7 641.5L522 547.9L523.3 654.9L524.7 555.2L526 634.7L527.3 550.3L528.7 634.3L530 586.9L531.3 642.9L532.7 566.1L534 643.6L535.3 571L536.7 664L538 541.8L539.3 667.5L540.7 590L542 668.8L543.3 555.8L544.7 611.2L546 554.5L547.3 653.2L548.7 539L550 637.1L551.3 576.1L552.7 662.3L554 548.5L555.3 638.9L556.7 559.5L558 634L559.3 549.2L560.7 663.4L562 592.8L563.3 672.7L564.7 535.4L566 625.6L567.3 583.9L568.7 647.1L570 551.8L571.3 663.4L572.7 568.4L574 638.8L575.3 536L576.7 621.6L578 559.7L579.3 601.6L580.7 540.7L582 618.8L583.3 534.2L584.7 625.5L586 539.3L587.3 648.3L588.7 590.9L590 660.1L591.3 697.2L592.7 731.1L594 737.5L595.3 734.8L596.7 722L598 720.2L599.3 739.2L600.7 737.2L602 707.2L603.3 738.6L604.7 738.6L606 730.3L607.3 715.3L608.7 713.1L610 722.5L611.3 736.5L612.7 721.2L614 728.1L615.3 736.4L616.7 729.8L618 707L619.3 707L620.7 729.7L622 734.3L623.3 720.2L624.7 729.9L626 727.3L627.3 716.3L628.7 719.6L630 722L631.3 734.4L632.7 729.2L634 715.8L635.3 717.2L636.7 741.8L638 733.6L639.3 708.3L640.7 702L642 732.9L643.3 706.3L644.7 706L646 703L647.3 727.2L648.7 727.8L650 708.3L651.3 724.6L652.7 736L654 723.9L655.3 709.6L656.7 719.8L658 727.5L659.3 724.8L660.7 711.1L662 705.5L663.3 733.9L664.7 727.1L666 728.3L667.3 730.6L668.7 738.4L670 744.9L671.3 730.3L672.7 719.6L674 740.8L675.3 738.4L676.7 710L678 713.9L679.3 735.3L680.7 718.4L682 718.5L683.3 733.9L684.7 729.8L686 735.7L687.3 719.7L688.7 738.7L690 739.2L691.3 726.3L692.7 714.1L694 725L695.3 732.8L696.7 734.8L698 718.8L699.3 724.1L700.7 731.2L702 734.6L703.3 720.7L704.7 725.5L706 732.8L707.3 730.4L708.7 715.9L710 721.9L711.3 733.7L712.7 710.7L714 705.2L715.3 706.7L716.7 722.1L718 725.7L719.3 708.3L720.7 721.7L722 736.3L723.3 718.9L724.7 710.3L726 714.8L727.3 718.5L728.7 712.3L730 699.8L731.3 702.4L732.7 717.4L734 717.1L735.3 713.5L736.7 709.6L738 731.2L739.3 700.5L740.7 694L742 707.1L743.3 734.8L744.7 718.3L746 722.4L747.3 732.2L748.7 729.9L750 725.7L751.3 709.6L752.7 743.1L754 742.7L755.3 746.8L756.7 721L758 720.3L759.3 737.5L760.7 744.2L762 721.8L763.3 727.5L764.7 725.3L766 721.3L767.3 716.5L768.7 737.7L770 735.6L771.3 741L772.7 725.9L774 733.9L775.3 740.6L776.7 739.5L778 718.8L779.3 733.5L780.7 718L782 731.6L783.3 720.5L784.7 733.5L786 737L787.3 734.1L788.7 713.2L790 722.2L791.3 733.8L792.7 732.4L794 709.4L795.3 724.8L796.7 738.9L798 732.2L799.3 711.7L800.7 726.9L802 734.6L803.3 730.7L804.7 723.5L806 711.1L807.3 718.5L808.7 719.4L810 714.2L811.3 723.2L812.7 739.2L814 719.9L815.3 704.6L816.7 713.5L818 731.4L819.3 721.7L820.7 707.7L822 717.6L823.3 718.9L824.7 715.3L826 716.1L827.3 739.6L828.7 739.3L830 745.6L831.3 581.1L832.7 668.8L834 588.1L835.3 653.8L836.7 537.1L838 659.2L839.3 587.4L840.7 675.4L842 559.8L843.3 660.2L844.7 559.4L846 624.6L847.3 557.8L848.7 679.2L850 596.1L851.3 647.9L852.7 562.6L854 673.4L855.3 597.4L856.7 683.6L858 558.9L859.3 661.5L860.7 585.4L862 656.7L863.3 563.1L864.7 680.2L866 592.8L867.3 666.8L868.7 545.5L870 653.1L871.3 593.4L872.7 681.4L874 559.7L875.3 654.4L876.7 575.3L878 632.8L879.3 565.5L880.7 640L882 575.2L883.3 657.7L884.7 561.2L886 636L887.3 584.4L888.7 639.2L890 563.7L891.3 619.1L892.7 574.4L894 670.8L895.3 553.6L896.7 626.6L898 566.9L899.3 605.8L900.7 532.6L902 628.8L903.3 568.3L904.7 625.4L906 554.3L907.3 659.2L908.7 593.6L910 656.5L911.3 699.6L912.7 726.7L914 732.3L915.3 738.1L916.7 717.6L918 712.7L919.3 711.9L920.7 736.6L922 724.4L923.3 709.2L924.7 736.2L926 741.3L927.3 717.6L928.7 734.5L930 738.5L931.3 734.1L932.7 716.3L934 725.9L935.3 715.1L936.7 739L938 715.6L939.3 734.7L940.7 735.3L942 715.1L943.3 719.3L944.7 717.3L946 739.4L947.3 732.1L948.7 711.1L950 717.5L951.3 732L952.7 732.5L954 709.2L955.3 717L956.7 714.3L958 728.3L959.3 714.6L960.7 729.8L962 738.1L963.3 734.5L964.7 711.5L966 712.5L967.3 733.3L968.7 721.6L970 716.3L971.3 728.2L972.7 727.4L974 720.2L975.3 709.6L976.7 715.7L978 737.9L979.3 730.1L980.7 708L982 710.6L983.3 735.7L984.7 721.8L986 722.1L987.3 739.4L988.7 746.6L990 745L991.3 720.1L992.7 730.1L994 733.6L995.3 735.7L996.7 721.2L998 731.8L999.3 734.6L1000.7 731.2L1002 721.3L1003.3 741.6L1004.7 743.1L1006 737.8L1007.3 695L1008.7 739L1010 738.5L1011.3 719.6L1012.7 709.2L1014 734.3L1015.3 729.7L1016.7 726.7L1018 711.7L1019.3 739.6L1020.7 740.8L1022 729.2L1023.3 715.3L1024.7 724.4L1026 731.6L1027.3 720.1L1028.7 714.7L1030 727.8L1031.3 729.1L1032.7 711.6L1034 720.1L1035.3 728.2L1036.7 734.7L1038 730.5L1039.3 711.6L1040.7 711.8L1042 727.5L1043.3 714.7L1044.7 723.1L1046 720.5L1047.3 724.8L1048.7 721L1050 699.6L1051.3 723.5L1052.7 731.1L1054 720.3L1055.3 703.8L1056.7 701.2L1058 728.9L1059.3 716.3L1060.7 715.4L1062 710.3L1063.3 734.6L1064.7 708.7L1066 699.2L1067.3 713.8L1068.7 721.4L1070 743L1071.3 722.4L1072.7 739.5L1074 735.7L1075.3 738.5L1076.7 722.3L1078 725.5L1079.3 723L1080.7 736.7L1082 722.5L1083.3 719.8L1084.7 741.7L1086 739.8L1087.3 721.5L1088.7 736L1090 733.6L1091.3 739.6L1092.7 723.8L1094 723L1095.3 742.2L1096.7 732.7L1098 715.6L1099.3 729.6L1100.7 739.4L1102 739.9L1103.3 721.4L1104.7 731.6L1106 714.4L1107.3 731.3L1108.7 722.3L1110 726.6L1111.3 736L1112.7 731.5L1114 721.9L1115.3 726.6L1116.7 735L1118 727.3L1119.3 714.7L1120.7 712.3L1122 728.9L1123.3 718.7L1124.7 710.6L1126 718.4L1127.3 734.1L1128.7 718.6L1130 710.4L1131.3 709.2L1132.7 717.7L1134 723.3L1135.3 709.1L1136.7 711.8L1138 734.6L1139.3 721.6L1140.7 703.7L1142 715.6L1143.3 718.4L1144.7 708.2L1146 719.8L1147.3 730L1148.7 736.6L1150 740.9L1151.3 585.9L1152.7 657.4L1154 588.2L1155.3 644.9L1156.7 569.9L1158 655.9L1159.3 585.2L1160.7 660.5L1162 558.4L1163.3 665.2L1164.7 572.8L1166 663.7L1167.3 559.8L1168.7 631.5L1170 572.6L1171.3 658.5L1172.7 563.9L1174 625.9L1175.3 569L1176.7 647L1178 542L1179.3 614.4L1180.7 571.4L1182 657.7L1183.3 564.3L1184.7 667.6L1186 565.3L1187.3 635.6L1188.7 537.7L1190 640.3L1191.3 584.3L1192.7 645.5L1194 551.9L1195.3 636L1196.7 556.5L1198 638.2L1199.3 535.4L1200.7 625.1L1202 577.7L1203.3 651.3L1204.7 555.9L1206 656.8L1207.3 573.6L1208.7 657.7L1210 542.6L1211.3 616.4L1212.7 577.9L1214 621L1215.3 544.5L1216.7 629.2L1218 569.3L1219.3 652L1220.7 561.8L1222 650.2L1223.3 588.9L1224.7 614.6L1226 544.3L1227.3 640L1228.7 599.6L1230 665.6L1231.3 701.5L1232.7 736.9L1234 727L1235.3 728.4L1236.7 708.2L1238 723.9L1239.3 735.7L1240.7 740.2L1242 721L1243.3 721.1L1244.7 740L1246 734L1247.3 706.6L1248.7 732.8L1250 737.3L1251.3 734L1252.7 719.3L1254 732.6L1255.3 727.8L1256.7 730.1L1258 718.3L1259.3 734.3L1260.7 729.2L1262 733L1263.3 704.6L1264.7 718.4L1266 734.1L1267.3 729.1L1268.7 697.2L1270 703.1L1271.3 724.2L1272.7 722.8L1274 712.8L1275.3 722.4L1276.7 737.8L1278 732.4L1279.3 693.3L1280.7 717.2L1282 734.9L1283.3 727.2L1284.7 712L1286 721L1287.3 726.6L1288.7 724.1L1290 703.4L1291.3 710.2L1292.7 727.8L1294 718.4L1295.3 713.9L1296.7 717.3L1298 722L1299.3 725.7L1300.7 718.8L1302 720L1303.3 716.3L1304.7 708.7L1306 723.5L1307.3 731.9L1308.7 742.4L1310 739.4L1311.3 696.7L1312.7 720.9L1314 732.9L1315.3 740.2L1316.7 725.9L1318 738.4L1319.3 739.6L1320.7 722.5L1322 721.5L1323.3 742.8L1324.7 742L1326 737.1L1327.3 716.2L1328.7 719.5L1330 733.9L1331.3 738.3L1332.7 727.9L1334 736L1335.3 743.6L1336.7 734.7L1338 721.8L1339.3 727.6L1340.7 738.3L1342 729.8L1343.3 727.4L1344.7 724.9L1346 734.2L1347.3 726.6L1348.7 712.9L1350 723.1L1351.3 739L1352.7 733.7L1354 722.8L1355.3 710.3L1356.7 736.2L1358 732.5L1359.3 717.7L1360.7 719.4L1362 730.7L1363.3 730.8L1364.7 715.7L1366 723.1L1367.3 724.4L1368.7 723.4L1370 714.4L1371.3 717.4L1372.7 728.4L1374 727.4L1375.3 719.9L1376.7 700L1378 731.3L1379.3 705L1380.7 706.4L1382 707.7L1383.3 737.8L1384.7 714.4L1386 708.3L1387.3 729.2L1388.7 741.2L1390 734.9L1391.3 726.3L1392.7 747.5L1394 745.2L1395.3 736.8L1396.7 720.3L1398 735.1L1399.3 730.7L1400.7 734.2L1402 692.3L1403.3 732.5L1404.7 732.7L1406 726.4L1407.3 723L1408.7 738.7L1410 740.2L1411.3 737.2L1412.7 711.4L1414 726.4L1415.3 731.6L1416.7 729.3L1418 716.7L1419.3 724.9L1420.7 716.2L1422 731.5L1423.3 708.6L1424.7 733.4L1426 737.1L1427.3 731.9L1428.7 719L1430 717L1431.3 736.4L1432.7 731.5L1434 719.3L1435.3 728.7L1436.7 734.1L1438 722.3L1439.3 716.8L1440.7 728.1L1442 726.4L1443.3 731.5L1444.7 719.5L1446 699.1L1447.3 730.5L1448.7 721.9L1450 700.1L1451.3 728.7L1452.7 726.7L1454 717.6L1455.3 712.6L1456.7 722.7L1458 730.7L1459.3 721.8L1460.7 703.5L1462 706.1L1463.3 736.9L1464.7 718.3L1466 726.7L1467.3 720.2L1468.7 744.5L1470 738.3L1471.3 586.5L1472.7 678.1L1474 601.5L1475.3 656.3L1476.7 564.2L1478 641.1L1479.3 546.8L1480.7 637.4L1482 568.4L1483.3 639.6L1484.7 548.3L1486 659.1L1487.3 543.3L1488.7 635.9L1490 553.7L1491.3 623.3L1492.7 547.3L1494 619.4L1495.3 551.6L1496.7 633.2L1498 546.2L1499.3 660.8L1500.7 568L1502 644.8L1503.3 561.1L1504.7 652L1506 580.2L1507.3 658.5L1508.7 552.1L1510 640.8L1511.3 564L1512.7 659.4L1514 538.9L1515.3 638.5L1516.7 555.4L1518 636.6L1519.3 557L1520.7 646L1522 569.7L1523.3 648.4L1524.7 569L1526 628L1527.3 552.1L1528.7 650L1530 555.9L1531.3 617.4L1532.7 563.6L1534 663.6L1535.3 552L1536.7 628.9L1538 576.1L1539.3 642.1L1540.7 546.4L1542 630.1L1543.3 571.1L1544.7 632L1546 569.9L1547.3 625.5L1548.7 606.5L1550 677.7L1551.3 684.3L1552.7 721.5L1554 719.2L1555.3 738.8L1556.7 720.4L1558 713.1L1559.3 730.3L1560.7 734.3L1562 723.4L1563.3 737.7L1564.7 741.1L1566 731.9L1567.3 719.5L1568.7 725.1L1570 733.9L1571.3 736.7L1572.7 714.5L1574 726.5L1575.3 737.3L1576.7 739L1578 717.2L1579.3 727.4L1580.7 735.4L1582 731.9L1583.3 716.4L1584.7 712.1L1586 725.9L1587.3 711.6L1588.7 710.3L1590 724.2L1591.3 726.7L1592.7 726.6L1594 714.8L1595.3 717.1L1596.7 733.4L1598 725L1599.3 717.4L1600.7 723.9L1602 731.3L1603.3 712.6L1604.7 715.8L1606 717.2L1607.3 733.3L1608.7 721.8L1610 705.7L1611.3 717.6L1612.7 729.9L1614 717.7L1615.3 715.2L1616.7 715L1618 730L1619.3 717.7L1620.7 706.8L1622 716.7L1623.3 735.8L1624.7 699.1L1626 710.9L1627.3 722L1628.7 729.8L1630 740.7L1631.3 717.6L1632.7 738.6L1634 743.3L1635.3 720.6L1636.7 723.6L1638 735.8L1639.3 731.3L1640.7 737.1L1642 730.3L1643.3 715.6L1644.7 733.7L1646 738.6L1647.3 709.4L1648.7 738.3L1650 742.3L1651.3 727.1L1652.7 718.7L1654 729.3L1655.3 740.1L1656.7 720.3L1658 717.9L1659.3 735.9L1660.7 734.3L1662 733.7L1663.3 721.4L1664.7 734.5L1666 729.9L1667.3 723.9L1668.7 712.6L1670 718.9L1671.3 726.6L1672.7 733.6L1674 721.2L1675.3 727.8L1676.7 720.1L1678 702.8L1679.3 716.8L1680.7 709.9L1682 738.8L1683.3 727.6L1684.7 701.4L1686 715.6L1687.3 731.7L1688.7 728.5L1690 709.1L1691.3 719.1L1692.7 729.9L1694 716.2L1695.3 714.9L1696.7 703L1698 734L1699.3 721.8L1700.7 712L1702 713.4L1703.3 725.9L1704.7 710.9L1706 728.3L1707.3 728.8L1708.7 744L1710 741.4L1711.3 715.8L1712.7 737L1714 742.3L1715.3 743.5L1716.7 726.2L1718 711.7L1719.3 742.9L1720.7 730.9L1722 712.1L1723.3 732L1724.7 739.8L1726 733.9L1727.3 723.5L1728.7 731.8L1730 738.9L1731.3 740.4L1732.7 716.9L1734 717.6L1735.3 734.4L1736.7 733.6L1738 702.6L1739.3 715.7L1740.7 719.2L1742 728.3L1743.3 715.4L1744.7 730.1L1746 724L1747.3 731.7L1748.7 719.3L1750 728.9L1751.3 732.4L1752.7 714L1754 721.7L1755.3 730.4L1756.7 714.9L1758 737.1L1759.3 707.2L1760.7 710.6L1762 738.4L1763.3 728.7L1764.7 722.9L1766 706L1767.3 726.3L1768.7 714.9L1770 717L1771.3 723.9L1772.7 738.3L1774 723.8L1775.3 713.8L1776.7 707.1L1778 721.9L1779.3 715L1780.7 719.7L1782 718.7L1783.3 732.6L1784.7 723L1786 728.6L1787.3 725.8L1788.7 736.3L1790 744L1791.3 578.1L1792.7 671.4L1794 595L1795.3 651.5L1796.7 561L1798 647.9L1799.3 587" fill="transparent" stroke="#3fb1e3" stroke-width="3" stroke-linejoin="bevel" class="zr1-cls-5"></path>
</g>
<path d="M-247.1 -5l494.2 0l0 28l-494.2 0Z" transform="translate(1000 5)" fill="rgb(0,0,0)" fill-opacity="0" stroke="#ccc" stroke-width="0" class="zr1-cls-3"></path>
<text dominant-baseline="central" text-anchor="middle" style="font-size:18px;font-family:sans-serif;font-weight:bold;" xml:space="preserve" y="9" transform="translate(1000 5)" fill="#666666">Min wholeUpdate per Tick for bench_1_every_60_staggered</text>
<defs >
<clipPath id="zr1-c0">
<path d="M198 58.5l16004 0l0 8703l-16004 0Z" fill="#000" class="zr1-cls-4"></path>
</clipPath>
</defs>
<style ><![CDATA[
.zr1-cls-3:hover {
pointer-events:none;
}
.zr1-cls-4:hover {
cursor:pointer;
fill:rgba(0,0,0,1);
}
.zr1-cls-5:hover {
cursor:pointer;
}

]]>

</style>
</svg>