<svg width="2000" height="1000" xmlns="http://www.w3.org/2000/svg" xmlns:xlink="http://www.w3.org/1999/xlink" version="1.1" baseProfile="full" viewBox="0 0 2000 1000">
<rect width="2000" height="1000" x="0" y="0" fill="rgb(252,252,252)" fill-opacity="0"></rect>
<path d="M200 930.5L1800 930.5" fill="transparent" stroke="#eeeeee" class="zr39-cls-117"></path>
<path d="M200 743.5L1800 743.5" fill="transparent" stroke="#eeeeee" class="zr39-cls-117"></path>
<path d="M200 556.5L1800 556.5" fill="transparent" stroke="#eeeeee" class="zr39-cls-117"></path>
<path d="M200 370.5L1800 370.5" fill="transparent" stroke="#eeeeee" class="zr39-cls-117"></path>
<path d="M200 183.5L1800 183.5" fill="transparent" stroke="#eeeeee" class="zr39-cls-117"></path>
<path d="M200 60.5L1800 60.5" fill="transparent" stroke="#eeeeee" class="zr39-cls-117"></path>
<path d="M200.5 930L200.5 60" fill="transparent" stroke="#cccccc" stroke-linecap="round" class="zr39-cls-117"></path>
<text dominant-baseline="central" text-anchor="middle" style="font-size:12px;font-family:sans-serif;" xml:space="preserve" y="-6" transform="translate(200 45)" fill="#cccccc">Min entityUpdate Time (ms)</text>
<path d="M200 930.5L1800 930.5" fill="transparent" stroke="#cccccc" stroke-linecap="round" class="zr39-cls-117"></path>
<text dominant-baseline="central" text-anchor="end" style="font-size:12px;font-family:sans-serif;" transform="translate(192 930)" fill="#999999">0.000</text>
<text dominant-baseline="central" text-anchor="end" style="font-size:12px;font-family:sans-serif;" transform="translate(192 743.2702)" fill="#999999">1.000</text>
<text dominant-baseline="central" text-anchor="end" style="font-size:12px;font-family:sans-serif;" transform="translate(192 556.5403)" fill="#999999">2.000</text>
<text dominant-baseline="central" text-anchor="end" style="font-size:12px;font-family:sans-serif;" transform="translate(192 369.8105)" fill="#999999">3.000</text>
<text dominant-baseline="central" text-anchor="end" style="font-size:12px;font-family:sans-serif;" transform="translate(192 183.0807)" fill="#999999">4.000</text>
<text dominant-baseline="central" text-anchor="end" style="font-size:12px;font-family:sans-serif;" transform="translate(192 60)" fill="#999999">4.659</text>
<text dominant-baseline="central" text-anchor="middle" style="font-size:12px;font-family:sans-serif;" y="6" transform="translate(200.6667 938)" fill="#999999">0</text>
<text dominant-baseline="central" text-anchor="middle" style="font-size:12px;font-family:sans-serif;" y="6" transform="translate(236.6667 938)" fill="#999999">27</text>
<text dominant-baseline="central" text-anchor="middle" style="font-size:12px;font-family:sans-serif;" y="6" transform="translate(272.6667 938)" fill="#999999">54</text>
<text dominant-baseline="central" text-anchor="middle" style="font-size:12px;font-family:sans-serif;" y="6" transform="translate(308.6667 938)" fill="#999999">81</text>
<text dominant-baseline="central" text-anchor="middle" style="font-size:12px;font-family:sans-serif;" y="6" transform="translate(344.6667 938)" fill="#999999">108</text>
<text dominant-baseline="central" text-anchor="middle" style="font-size:12px;font-family:sans-serif;" y="6" transform="translate(380.6667 938)" fill="#999999">135</text>
<text dominant-baseline="central" text-anchor="middle" style="font-size:12px;font-family:sans-serif;" y="6" transform="translate(416.6667 938)" fill="#999999">162</text>
<text dominant-baseline="central" text-anchor="middle" style="font-size:12px;font-family:sans-serif;" y="6" transform="translate(452.6667 938)" fill="#999999">189</text>
<text dominant-baseline="central" text-anchor="middle" style="font-size:12px;font-family:sans-serif;" y="6" transform="translate(488.6667 938)" fill="#999999">216</text>
<text dominant-baseline="central" text-anchor="middle" style="font-size:12px;font-family:sans-serif;" y="6" transform="translate(524.6667 938)" fill="#999999">243</text>
<text dominant-baseline="central" text-anchor="middle" style="font-size:12px;font-family:sans-serif;" y="6" transform="translate(560.6667 938)" fill="#999999">270</text>
<text dominant-baseline="central" text-anchor="middle" style="font-size:12px;font-family:sans-serif;" y="6" transform="translate(596.6667 938)" fill="#999999">297</text>
<text dominant-baseline="central" text-anchor="middle" style="font-size:12px;font-family:sans-serif;" y="6" transform="translate(632.6667 938)" fill="#999999">324</text>
<text dominant-baseline="central" text-anchor="middle" style="font-size:12px;font-family:sans-serif;" y="6" transform="translate(668.6667 938)" fill="#999999">351</text>
<text dominant-baseline="central" text-anchor="middle" style="font-size:12px;font-family:sans-serif;" y="6" transform="translate(704.6667 938)" fill="#999999">378</text>
<text dominant-baseline="central" text-anchor="middle" style="font-size:12px;font-family:sans-serif;" y="6" transform="translate(740.6667 938)" fill="#999999">405</text>
<text dominant-baseline="central" text-anchor="middle" style="font-size:12px;font-family:sans-serif;" y="6" transform="translate(776.6667 938)" fill="#999999">432</text>
<text dominant-baseline="central" text-anchor="middle" style="font-size:12px;font-family:sans-serif;" y="6" transform="translate(812.6667 938)" fill="#999999">459</text>
<text dominant-baseline="central" text-anchor="middle" style="font-size:12px;font-family:sans-serif;" y="6" transform="translate(848.6667 938)" fill="#999999">486</text>
<text dominant-baseline="central" text-anchor="middle" style="font-size:12px;font-family:sans-serif;" y="6" transform="translate(884.6667 938)" fill="#999999">513</text>
<text dominant-baseline="central" text-anchor="middle" style="font-size:12px;font-family:sans-serif;" y="6" transform="translate(920.6667 938)" fill="#999999">540</text>
<text dominant-baseline="central" text-anchor="middle" style="font-size:12px;font-family:sans-serif;" y="6" transform="translate(956.6667 938)" fill="#999999">567</text>
<text dominant-baseline="central" text-anchor="middle" style="font-size:12px;font-family:sans-serif;" y="6" transform="translate(992.6667 938)" fill="#999999">594</text>
<text dominant-baseline="central" text-anchor="middle" style="font-size:12px;font-family:sans-serif;" y="6" transform="translate(1028.6667 938)" fill="#999999">621</text>
<text dominant-baseline="central" text-anchor="middle" style="font-size:12px;font-family:sans-serif;" y="6" transform="translate(1064.6667 938)" fill="#999999">648</text>
<text dominant-baseline="central" text-anchor="middle" style="font-size:12px;font-family:sans-serif;" y="6" transform="translate(1100.6667 938)" fill="#999999">675</text>
<text dominant-baseline="central" text-anchor="middle" style="font-size:12px;font-family:sans-serif;" y="6" transform="translate(1136.6667 938)" fill="#999999">702</text>
<text dominant-baseline="central" text-anchor="middle" style="font-size:12px;font-family:sans-serif;" y="6" transform="translate(1172.6667 938)" fill="#999999">729</text>
<text dominant-baseline="central" text-anchor="middle" style="font-size:12px;font-family:sans-serif;" y="6" transform="translate(1208.6667 938)" fill="#999999">756</text>
<text dominant-baseline="central" text-anchor="middle" style="font-size:12px;font-family:sans-serif;" y="6" transform="translate(1244.6667 938)" fill="#999999">783</text>
<text dominant-baseline="central" text-anchor="middle" style="font-size:12px;font-family:sans-serif;" y="6" transform="translate(1280.6667 938)" fill="#999999">810</text>
<text dominant-baseline="central" text-anchor="middle" style="font-size:12px;font-family:sans-serif;" y="6" transform="translate(1316.6667 938)" fill="#999999">837</text>
<text dominant-baseline="central" text-anchor="middle" style="font-size:12px;font-family:sans-serif;" y="6" transform="translate(1352.6667 938)" fill="#999999">864</text>
<text dominant-baseline="central" text-anchor="middle" style="font-size:12px;font-family:sans-serif;" y="6" transform="translate(1388.6667 938)" fill="#999999">891</text>
<text dominant-baseline="central" text-anchor="middle" style="font-size:12px;font-family:sans-serif;" y="6" transform="translate(1424.6667 938)" fill="#999999">918</text>
<text dominant-baseline="central" text-anchor="middle" style="font-size:12px;font-family:sans-serif;" y="6" transform="translate(1460.6667 938)" fill="#999999">945</text>
<text dominant-baseline="central" text-anchor="middle" style="font-size:12px;font-family:sans-serif;" y="6" transform="translate(1496.6667 938)" fill="#999999">972</text>
<text dominant-baseline="central" text-anchor="middle" style="font-size:12px;font-family:sans-serif;" y="6" transform="translate(1532.6667 938)" fill="#999999">999</text>
<text dominant-baseline="central" text-anchor="middle" style="font-size:12px;font-family:sans-serif;" y="6" transform="translate(1568.6667 938)" fill="#999999">1026</text>
<text dominant-baseline="central" text-anchor="middle" style="font-size:12px;font-family:sans-serif;" y="6" transform="translate(1604.6667 938)" fill="#999999">1053</text>
<text dominant-baseline="central" text-anchor="middle" style="font-size:12px;font-family:sans-serif;" y="6" transform="translate(1640.6667 938)" fill="#999999">1080</text>
<text dominant-baseline="central" text-anchor="middle" style="font-size:12px;font-family:sans-serif;" y="6" transform="translate(1676.6667 938)" fill="#999999">1107</text>
<text dominant-baseline="central" text-anchor="middle" style="font-size:12px;font-family:sans-serif;" y="6" transform="translate(1712.6667 938)" fill="#999999">1134</text>
<text dominant-baseline="central" text-anchor="middle" style="font-size:12px;font-family:sans-serif;" y="6" transform="translate(1748.6667 938)" fill="#999999">1161</text>
<text dominant-baseline="central" text-anchor="middle" style="font-size:12px;font-family:sans-serif;" y="6" transform="translate(1784.6667 938)" fill="#999999">1188</text>
<g clip-path="url(#zr39-c0)">
<path d="M200.7 801L202 804.3L203.3 870.6L204.7 837L206 872.7L207.3 817.9L208.7 872.2L210 837.5L211.3 872.5L212.7 835.7L214 872.4L215.3 837.5L216.7 869.5L218 835.7L219.3 -2315.9L220.7 395.6L222 844.4L223.3 828.5L224.7 871L226 836.1L227.3 871.9L228.7 837.5L230 870.6L231.3 836.4L232.7 871.9L234 836.4L235.3 872L236.7 835L238 872.2L239.3 828.7L240.7 872.9L242 837.8L243.3 871L244.7 836.4L246 872L247.3 836.8L248.7 872.2L250 837.4L251.3 872.7L252.7 836.8L254 872.5L255.3 838L256.7 872.4L258 837.7L259.3 872.5L260.7 835.5L262 870.5L263.3 836.7L264.7 872.3L266 837.3L267.3 872.7L268.7 836.7L270 871.5L271.3 837.7L272.7 871.9L274 837L275.3 872L276.7 837.1L278 871.8L279.3 837.3L280.7 872.5L282 836.7L283.3 872.2L284.7 837.4L286 872.4L287.3 837.2L288.7 871.6L290 836.6L291.3 872.2L292.7 836.7L294 871.7L295.3 836.7L296.7 872.2L298 836.3L299.3 -2259.5L300.7 463.7L302 607.5L303.3 627.1L304.7 -4197.2L306 -1664.3L307.3 303.7L308.7 549.6L310 656.1L311.3 802.8L312.7 868.5L314 836.3L315.3 871.4L316.7 835.1L318 868.2L319.3 835.9L320.7 872.7L322 837L323.3 872.5L324.7 837.2L326 872.1L327.3 837L328.7 872.4L330 834.6L331.3 872.5L332.7 837.1L334 871.9L335.3 837.2L336.7 872.7L338 837.9L339.3 871.9L340.7 837.4L342 872.2L343.3 838.2L344.7 871.4L346 837.7L347.3 871.8L348.7 837.3L350 872.4L351.3 837.8L352.7 872.6L354 837.3L355.3 871.9L356.7 837.3L358 872.4L359.3 837.5L360.7 872.6L362 837.2L363.3 871.9L364.7 836.9L366 872.4L367.3 836.8L368.7 871.4L370 834.8L371.3 869.1L372.7 836L374 871.7L375.3 837.1L376.7 872.1L378 836.9L379.3 -2278.7L380.7 424.2L382 851.7L383.3 808.8L384.7 872.5L386 836L387.3 871.6L388.7 837.2L390 872.5L391.3 836.4L392.7 872.2L394 835.5L395.3 864.5L396.7 833.4L398 871.8L399.3 836.7L400.7 871.7L402 836.8L403.3 872.7L404.7 837.1L406 872L407.3 837.3L408.7 869.4L410 837.4L411.3 872.8L412.7 837.8L414 872.7L415.3 836.6L416.7 872.7L418 837.6L419.3 871.7L420.7 837.1L422 872.9L423.3 837.3L424.7 872.3L426 836.2L427.3 872.7L428.7 838L430 872.6L431.3 837.5L432.7 872L434 837.1L435.3 871.9L436.7 816.2L438 872.4L439.3 837.3L440.7 871.6L442 836.5L443.3 872.2L444.7 836.8L446 872.6L447.3 836.4L448.7 871.6L450 837.2L451.3 870.6L452.7 837.3L454 872.4L455.3 837.1L456.7 872.2L458 836.2L459.3 -2272L460.7 407.5L462 847.8L463.3 826.3L464.7 871.2L466 835.4L467.3 871.8L468.7 837.1L470 861.1L471.3 836.8L472.7 872.9L474 835.1L475.3 872.3L476.7 833.9L478 872.2L479.3 837.3L480.7 871.5L482 837.4L483.3 871.9L484.7 837.2L486 872.8L487.3 831.6L488.7 871.8L490 837.4L491.3 872.9L492.7 836.4L494 872.2L495.3 837.7L496.7 872.5L498 837.7L499.3 872.6L500.7 836.7L502 870.7L503.3 836.1L504.7 871.9L506 836.8L507.3 872.4L508.7 837.4L510 872.5L511.3 837L512.7 871.7L514 837L515.3 870.8L516.7 835.9L518 870.8L519.3 836.7L520.7 872.1L522 837.4L523.3 872.6L524.7 836.9L526 872.6L527.3 837.9L528.7 872.6L530 835.9L531.3 869.9L532.7 836.6L534 871.5L535.3 837.4L536.7 872.3L538 836.4L539.3 -2230.4L540.7 382.1L542 844.9L543.3 806.5L544.7 859.1L546 827.6L547.3 872.7L548.7 830.7L550 870L551.3 837L552.7 872.4L554 836.2L555.3 871.6L556.7 833.5L558 871.3L559.3 837.3L560.7 872.9L562 834.2L563.3 871.8L564.7 838.2L566 872.2L567.3 836.7L568.7 870.3L570 835.2L571.3 869.5L572.7 837.7L574 872.8L575.3 837.1L576.7 871.7L578 837L579.3 872.7L580.7 837.5L582 871.5L583.3 836L584.7 872.4L586 837.6L587.3 872.6L588.7 836.9L590 872.7L591.3 837.6L592.7 872.7L594 837.7L595.3 872.3L596.7 836.8L598 872L599.3 837.1L600.7 872.2L602 836.9L603.3 872.1L604.7 837.6L606 872.4L607.3 837.3L608.7 872.5L610 836.7L611.3 871.6L612.7 834.8L614 872.6L615.3 837.3L616.7 871.1L618 836.2L619.3 -2207.5L620.7 472.5L622 554.3L623.3 562.9L624.7 -4088.5L626 -1633.3L627.3 312.4L628.7 483.6L630 621.2L631.3 828.4L632.7 870.1L634 836.3L635.3 872.6L636.7 834.9L638 871.6L639.3 834.3L640.7 871L642 837.7L643.3 872.6L644.7 837.5L646 871.6L647.3 837L648.7 872.4L650 834.6L651.3 872.1L652.7 837.3L654 872.6L655.3 830.2L656.7 872.8L658 837.2L659.3 871.9L660.7 836.8L662 872.7L663.3 838.1L664.7 872.2L666 837.3L667.3 872.2L668.7 837.2L670 871.5L671.3 837.4L672.7 871.9L674 833.7L675.3 871.4L676.7 836.9L678 871.3L679.3 836.9L680.7 872.5L682 837.1L683.3 872.1L684.7 837.3L686 871.7L687.3 836.8L688.7 866.5L690 836.6L691.3 858.4L692.7 837L694 872.4L695.3 836.7L696.7 871.8L698 837.5L699.3 -2253.9L700.7 396.1L702 846.7L703.3 810.1L704.7 866L706 833.9L707.3 862.8L708.7 833.6L710 872.9L711.3 834.5L712.7 871L714 837.2L715.3 871.6L716.7 834.6L718 871.4L719.3 837.6L720.7 872.7L722 834.7L723.3 871.9L724.7 837L726 871.9L727.3 837.3L728.7 872.6L730 833.7L731.3 871.9L732.7 837.2L734 872.6L735.3 837.8L736.7 872.7L738 836.7L739.3 871.4L740.7 837.4L742 872.3L743.3 837.7L744.7 872.7L746 836.8L747.3 872.7L748.7 837L750 872.5L751.3 837.5L752.7 871.2L754 836.5L755.3 872.3L756.7 837.2L758 872.2L759.3 837.6L760.7 872.4L762 837.3L763.3 872.4L764.7 837L766 872.5L767.3 836.6L768.7 871.9L770 837.2L771.3 872.2L772.7 836.4L774 871.4L775.3 837L776.7 872.1L778 832.8L779.3 -2225.8L780.7 376.1L782 848.1L783.3 811.3L784.7 872.3L786 836.6L787.3 872.7L788.7 837.4L790 872.7L791.3 837.5L792.7 871.9L794 835.9L795.3 872L796.7 835L798 872.5L799.3 837.3L800.7 872.5L802 836.5L803.3 873L804.7 836.4L806 873L807.3 836.6L808.7 872.2L810 837.7L811.3 872.3L812.7 836.9L814 872.9L815.3 837.5L816.7 872.7L818 837.8L819.3 872.4L820.7 836.3L822 872.1L823.3 836.7L824.7 872.3L826 835.6L827.3 872.7L828.7 836.4L830 872.7L831.3 837.6L832.7 871.4L834 835.2L835.3 871.8L836.7 837.6L838 872.4L839.3 836.9L840.7 872.5L842 816.1L843.3 872.5L844.7 836.2L846 869.1L847.3 836.4L848.7 871.5L850 836.7L851.3 871.6L852.7 836.9L854 872.2L855.3 837.1L856.7 872.1L858 836.2L859.3 -2176.8L860.7 404.5L862 848.1L863.3 809L864.7 871.5L866 831.7L867.3 870.3L868.7 836.1L870 872.2L871.3 837L872.7 872.4L874 835.8L875.3 871.9L876.7 835.2L878 872.1L879.3 837.3L880.7 872.8L882 837.5L883.3 871.7L884.7 837.3L886 872.5L887.3 837.2L888.7 871.6L890 837L891.3 872.9L892.7 837L894 872.1L895.3 837.8L896.7 872.3L898 837.5L899.3 872.7L900.7 837.6L902 872L903.3 837L904.7 872L906 815.8L907.3 872.5L908.7 837.2L910 872.1L911.3 838.1L912.7 872.4L914 837.6L915.3 872.3L916.7 835.8L918 872.6L919.3 837.5L920.7 871.7L922 835.1L923.3 872.4L924.7 837L926 872.4L927.3 833.4L928.7 872.5L930 836.7L931.3 871.6L932.7 837L934 872.2L935.3 836.7L936.7 872L938 836.9L939.3 -2197.2L940.7 445.5L942 551.5L943.3 590.6L944.7 -4130.9L946 -1622.4L947.3 312L948.7 516.6L950 599.2L951.3 816.7L952.7 866.2L954 833.9L955.3 871.6L956.7 835.9L958 872.3L959.3 837.5L960.7 872.8L962 837.8L963.3 872L964.7 837.1L966 872.3L967.3 836.4L968.7 871.9L970 837L971.3 872.9L972.7 837.6L974 873L975.3 837.6L976.7 871.8L978 837.1L979.3 872.1L980.7 837.8L982 872.6L983.3 837.8L984.7 873L986 837.6L987.3 872L988.7 837.8L990 872.6L991.3 837.4L992.7 871.7L994 836.8L995.3 869.9L996.7 837.2L998 872.3L999.3 837L1000.7 872.2L1002 836.9L1003.3 871.8L1004.7 837.3L1006 871.7L1007.3 836.5L1008.7 871.3L1010 834.9L1011.3 871.3L1012.7 836.2L1014 871.4L1015.3 836.8L1016.7 872.4L1018 836.7L1019.3 -2271.6L1020.7 381.4L1022 841.5L1023.3 821.9L1024.7 872L1026 815.5L1027.3 859.3L1028.7 833.2L1030 871.5L1031.3 819L1032.7 869.5L1034 836.4L1035.3 872.5L1036.7 835.7L1038 872.5L1039.3 836.7L1040.7 872.1L1042 836.9L1043.3 871.8L1044.7 836.9L1046 872.4L1047.3 837.9L1048.7 872.8L1050 837.2L1051.3 872.9L1052.7 837.1L1054 872.1L1055.3 837.3L1056.7 872.3L1058 836.6L1059.3 872.6L1060.7 837L1062 871.3L1063.3 836.8L1064.7 872.6L1066 837.7L1067.3 872.5L1068.7 837.4L1070 872.5L1071.3 835.6L1072.7 872.1L1074 821.8L1075.3 872.5L1076.7 836.1L1078 872.4L1079.3 837L1080.7 871.5L1082 836.9L1083.3 871.7L1084.7 837.4L1086 872.1L1087.3 834.7L1088.7 872.2L1090 837.4L1091.3 872L1092.7 836.6L1094 872.4L1095.3 837.3L1096.7 872.5L1098 837L1099.3 -2172.9L1100.7 410.6L1102 844.9L1103.3 831.5L1104.7 863.9L1106 836.9L1107.3 872.4L1108.7 837.5L1110 872.6L1111.3 836.1L1112.7 863.7L1114 835.8L1115.3 872.2L1116.7 835.3L1118 872.7L1119.3 837.2L1120.7 872.7L1122 837.5L1123.3 872.8L1124.7 836.1L1126 871.7L1127.3 837.6L1128.7 872.8L1130 837.7L1131.3 872.5L1132.7 837.9L1134 873L1135.3 837.7L1136.7 872.5L1138 837.9L1139.3 870.4L1140.7 831.8L1142 870.3L1143.3 833.9L1144.7 872.9L1146 836.5L1147.3 872.9L1148.7 837.5L1150 872L1151.3 837.8L1152.7 871.8L1154 833.9L1155.3 872.5L1156.7 835.9L1158 870.9L1159.3 836.9L1160.7 872.4L1162 837.1L1163.3 872.5L1164.7 837.3L1166 871.9L1167.3 835.7L1168.7 872L1170 837.3L1171.3 872L1172.7 836.7L1174 872.4L1175.3 827.6L1176.7 872.3L1178 836.1L1179.3 -2168.8L1180.7 429.1L1182 837.7L1183.3 821.5L1184.7 871.4L1186 836.3L1187.3 872.2L1188.7 836.2L1190 872.6L1191.3 835L1192.7 869.9L1194 833.1L1195.3 872.3L1196.7 834.8L1198 871.4L1199.3 836.5L1200.7 871.9L1202 827.5L1203.3 872.7L1204.7 837.6L1206 868.1L1207.3 835.8L1208.7 870.6L1210 825L1211.3 872.6L1212.7 837.1L1214 872.7L1215.3 837L1216.7 871.9L1218 837.1L1219.3 871.8L1220.7 834.7L1222 872.1L1223.3 836.5L1224.7 872.3L1226 837.3L1227.3 872.6L1228.7 837.6L1230 872.6L1231.3 837.8L1232.7 872.4L1234 836L1235.3 870.5L1236.7 830.6L1238 872.6L1239.3 834.7L1240.7 872.3L1242 837L1243.3 872L1244.7 837.4L1246 872.4L1247.3 837.4L1248.7 871.1L1250 836.9L1251.3 871L1252.7 837.2L1254 871.4L1255.3 837.6L1256.7 871.6L1258 837.1L1259.3 -2220.3L1260.7 450.3L1262 569.1L1263.3 603.7L1264.7 -3902.7L1266 -1630.9L1267.3 311.7L1268.7 545L1270 617.2L1271.3 815.2L1272.7 863.1L1274 829.8L1275.3 872.4L1276.7 835.6L1278 872.6L1279.3 836.1L1280.7 872.9L1282 834.5L1283.3 871.7L1284.7 836.2L1286 872.3L1287.3 837.3L1288.7 872.7L1290 837.2L1291.3 871.9L1292.7 837.6L1294 872.7L1295.3 837.3L1296.7 871.8L1298 836.6L1299.3 871.8L1300.7 837.7L1302 872.7L1303.3 826L1304.7 871.3L1306 838L1307.3 872.7L1308.7 837.8L1310 870L1311.3 835.7L1312.7 872.3L1314 837L1315.3 872L1316.7 837.7L1318 872.4L1319.3 837.6L1320.7 872.4L1322 836.5L1323.3 859.8L1324.7 834.9L1326 871.9L1327.3 830.1L1328.7 872.4L1330 836.4L1331.3 872.6L1332.7 836.8L1334 872.1L1335.3 837.4L1336.7 872.4L1338 836L1339.3 -2286.6L1340.7 384.3L1342 841.4L1343.3 814.8L1344.7 872.7L1346 837.1L1347.3 870.3L1348.7 834.1L1350 871.9L1351.3 836.8L1352.7 872.8L1354 835.8L1355.3 872.1L1356.7 835.5L1358 872L1359.3 836.7L1360.7 871.1L1362 833.6L1363.3 871.8L1364.7 837.2L1366 872.4L1367.3 836.9L1368.7 871.9L1370 837.1L1371.3 872.9L1372.7 837.6L1374 871.2L1375.3 834.1L1376.7 872.4L1378 837.8L1379.3 872.2L1380.7 837.7L1382 872.3L1383.3 837.5L1384.7 872.4L1386 837.4L1387.3 872.2L1388.7 836.9L1390 872L1391.3 836.4L1392.7 872.5L1394 836.8L1395.3 872.7L1396.7 837.3L1398 872.7L1399.3 837.1L1400.7 872.7L1402 836.6L1403.3 871.9L1404.7 837L1406 872L1407.3 837.1L1408.7 872.3L1410 836.3L1411.3 869.4L1412.7 836.2L1414 871.3L1415.3 835L1416.7 871.4L1418 836.9L1419.3 -2208.6L1420.7 382.7L1422 846.7L1423.3 832.4L1424.7 872L1426 837.1L1427.3 872L1428.7 835.1L1430 871.9L1431.3 836.3L1432.7 872.2L1434 837.4L1435.3 872.3L1436.7 835.2L1438 871.9L1439.3 837L1440.7 871L1442 833.5L1443.3 871.5L1444.7 836.8L1446 872.3L1447.3 837.6L1448.7 872.5L1450 837.2L1451.3 871.9L1452.7 837.8L1454 872L1455.3 836.6L1456.7 872.5L1458 837.2L1459.3 872.6L1460.7 837.2L1462 872.7L1463.3 836.7L1464.7 872.5L1466 837.8L1467.3 872.3L1468.7 837.2L1470 871.3L1471.3 837.4L1472.7 872.6L1474 837.3L1475.3 872.6L1476.7 827.7L1478 871.7L1479.3 837.2L1480.7 872.1L1482 836.9L1483.3 871.3L1484.7 837.2L1486 871.6L1487.3 837L1488.7 871.6L1490 836L1491.3 872.2L1492.7 837.2L1494 872.4L1495.3 833.7L1496.7 871.9L1498 835.9L1499.3 -2194.1L1500.7 410.9L1502 850.6L1503.3 814.2L1504.7 860.9L1506 831.8L1507.3 871.5L1508.7 836.4L1510 872.3L1511.3 831.4L1512.7 872.2L1514 837.2L1515.3 872.7L1516.7 836L1518 872.6L1519.3 837.5L1520.7 871.7L1522 836.5L1523.3 871.4L1524.7 837.3L1526 871.7L1527.3 836.9L1528.7 872.5L1530 837.1L1531.3 872.6L1532.7 837.8L1534 871.5L1535.3 836.3L1536.7 872.3L1538 837.5L1539.3 867L1540.7 836.6L1542 872.7L1543.3 837.6L1544.7 869.6L1546 837.6L1547.3 872.6L1548.7 837L1550 872.5L1551.3 837.8L1552.7 872.4L1554 837.1L1555.3 872.5L1556.7 836.9L1558 872L1559.3 837.9L1560.7 872.5L1562 837.4L1563.3 871.7L1564.7 837.3L1566 872.4L1567.3 837.6L1568.7 872.3L1570 836.7L1571.3 872L1572.7 837.3L1574 872.3L1575.3 835.7L1576.7 872.2L1578 827.4L1579.3 -2241.5L1580.7 458.2L1582 591.9L1583.3 570.4L1584.7 -4059.4L1586 -1637.7L1587.3 287.6L1588.7 555.7L1590 619.8L1591.3 814.6L1592.7 858.7L1594 835.9L1595.3 873L1596.7 836.2L1598 869.1L1599.3 835.6L1600.7 871.5L1602 837.1L1603.3 872.5L1604.7 827.1L1606 872.5L1607.3 837.6L1608.7 872.5L1610 837L1611.3 871.3L1612.7 836.4L1614 871.9L1615.3 833.7L1616.7 872.8L1618 836.8L1619.3 872.3L1620.7 837.7L1622 871.5L1623.3 837.7L1624.7 870L1626 836.9L1627.3 871.6L1628.7 836.3L1630 871.7L1631.3 837.3L1632.7 872L1634 837.7L1635.3 872.6L1636.7 834.3L1638 872.6L1639.3 836.9L1640.7 871.4L1642 837.1L1643.3 872.3L1644.7 837.5L1646 872.5L1647.3 837.5L1648.7 872.4L1650 836.9L1651.3 872.4L1652.7 837.4L1654 871.2L1655.3 836.5L1656.7 871.1L1658 836.7L1659.3 -2297.6L1660.7 435.5L1662 857L1663.3 825.1L1664.7 872.2L1666 833.3L1667.3 871.4L1668.7 835.8L1670 871.5L1671.3 836.1L1672.7 872.3L1674 836.8L1675.3 872.6L1676.7 834.8L1678 872.4L1679.3 835.7L1680.7 871.7L1682 837L1683.3 872.3L1684.7 837.3L1686 872.9L1687.3 838.1L1688.7 872.9L1690 837.8L1691.3 872.3L1692.7 837.3L1694 871.6L1695.3 836.7L1696.7 872.6L1698 836.9L1699.3 869.9L1700.7 837.7L1702 872.7L1703.3 837.9L1704.7 871L1706 836.9L1707.3 871.7L1708.7 836.8L1710 871.9L1711.3 837.5L1712.7 872.3L1714 837.9L1715.3 872.6L1716.7 834.5L1718 871L1719.3 835.7L1720.7 871.1L1722 836.9L1723.3 871.4L1724.7 837.3L1726 871.9L1727.3 836.8L1728.7 872.6L1730 833.9L1731.3 870.9L1732.7 837.6L1734 871.2L1735.3 836.8L1736.7 871.9L1738 837L1739.3 -2219.9L1740.7 417.2L1742 844.3L1743.3 806.5L1744.7 863.5L1746 834.4L1747.3 871.3L1748.7 836.6L1750 872.1L1751.3 837L1752.7 872.5L1754 836.3L1755.3 872.3L1756.7 835.1L1758 871L1759.3 836.1L1760.7 871.7L1762 829.8L1763.3 872.4L1764.7 837.7L1766 872.4L1767.3 837.3L1768.7 872.7L1770 837.8L1771.3 872.7L1772.7 835.9L1774 871.6L1775.3 834.4L1776.7 872L1778 837.9L1779.3 872.4L1780.7 836.7L1782 871.7L1783.3 837.7L1784.7 872.5L1786 836.4L1787.3 871.5L1788.7 837L1790 872.4L1791.3 837.7L1792.7 872.7L1794 837.7L1795.3 872.7L1796.7 837.8L1798 871.5L1799.3 837.5" fill="transparent" stroke="#3fb1e3" stroke-width="3" stroke-linejoin="bevel" class="zr39-cls-119"></path>
</g>
<path d="M-199.8 -5l399.7 0l0 28l-399.7 0Z" transform="translate(1000 5)" fill="rgb(0,0,0)" fill-opacity="0" stroke="#ccc" stroke-width="0" class="zr39-cls-117"></path>
<text dominant-baseline="central" text-anchor="middle" style="font-size:18px;font-family:sans-serif;font-weight:bold;" xml:space="preserve" y="9" transform="translate(1000 5)" fill="#666666">Min entityUpdate per Tick for bench_1_every_60</text>
<defs >
<clipPath id="zr39-c0">
<path d="M198 58.5l16004 0l0 8703l-16004 0Z" fill="#000" class="zr39-cls-118"></path>
</clipPath>
</defs>
<style ><![CDATA[
.zr39-cls-117:hover {
pointer-events:none;
}
.zr39-cls-118:hover {
cursor:pointer;
fill:rgba(0,0,0,1);
}
.zr39-cls-119:hover {
cursor:pointer;
}

]]>

</style>
</svg>