<svg width="2000" height="1000" xmlns="http://www.w3.org/2000/svg" xmlns:xlink="http://www.w3.org/1999/xlink" version="1.1" baseProfile="full" viewBox="0 0 2000 1000">
<rect width="2000" height="1000" x="0" y="0" fill="rgb(252,252,252)" fill-opacity="0"></rect>
<path d="M200 930.5L1800 930.5" fill="transparent" stroke="#eeeeee" class="zr25-cls-75"></path>
<path d="M200 772.5L1800 772.5" fill="transparent" stroke="#eeeeee" class="zr25-cls-75"></path>
<path d="M200 614.5L1800 614.5" fill="transparent" stroke="#eeeeee" class="zr25-cls-75"></path>
<path d="M200 457.5L1800 457.5" fill="transparent" stroke="#eeeeee" class="zr25-cls-75"></path>
<path d="M200 299.5L1800 299.5" fill="transparent" stroke="#eeeeee" class="zr25-cls-75"></path>
<path d="M200 141.5L1800 141.5" fill="transparent" stroke="#eeeeee" class="zr25-cls-75"></path>
<path d="M200 60.5L1800 60.5" fill="transparent" stroke="#eeeeee" class="zr25-cls-75"></path>
<path d="M200.5 930L200.5 60" fill="transparent" stroke="#cccccc" stroke-linecap="round" class="zr25-cls-75"></path>
<text dominant-baseline="central" text-anchor="middle" style="font-size:12px;font-family:sans-serif;" xml:space="preserve" y="-6" transform="translate(200 45)" fill="#cccccc">Min wholeUpdate Time (ms)</text>
<path d="M200 930.5L1800 930.5" fill="transparent" stroke="#cccccc" stroke-linecap="round" class="zr25-cls-75"></path>
<text dominant-baseline="central" text-anchor="end" style="font-size:12px;font-family:sans-serif;" transform="translate(192 930)" fill="#999999">0.000</text>
<text dominant-baseline="central" text-anchor="end" style="font-size:12px;font-family:sans-serif;" transform="translate(192 772.2886)" fill="#999999">1.000</text>
<text dominant-baseline="central" text-anchor="end" style="font-size:12px;font-family:sans-serif;" transform="translate(192 614.5773)" fill="#999999">2.000</text>
<text dominant-baseline="central" text-anchor="end" style="font-size:12px;font-family:sans-serif;" transform="translate(192 456.8659)" fill="#999999">3.000</text>
<text dominant-baseline="central" text-anchor="end" style="font-size:12px;font-family:sans-serif;" transform="translate(192 299.1546)" fill="#999999">4.000</text>
<text dominant-baseline="central" text-anchor="end" style="font-size:12px;font-family:sans-serif;" transform="translate(192 141.4432)" fill="#999999">5.000</text>
<text dominant-baseline="central" text-anchor="end" style="font-size:12px;font-family:sans-serif;" transform="translate(192 60)" fill="#999999">5.516</text>
<text dominant-baseline="central" text-anchor="middle" style="font-size:12px;font-family:sans-serif;" y="6" transform="translate(200.6667 938)" fill="#999999">0</text>
<text dominant-baseline="central" text-anchor="middle" style="font-size:12px;font-family:sans-serif;" y="6" transform="translate(236.6667 938)" fill="#999999">27</text>
<text dominant-baseline="central" text-anchor="middle" style="font-size:12px;font-family:sans-serif;" y="6" transform="translate(272.6667 938)" fill="#999999">54</text>
<text dominant-baseline="central" text-anchor="middle" style="font-size:12px;font-family:sans-serif;" y="6" transform="translate(308.6667 938)" fill="#999999">81</text>
<text dominant-baseline="central" text-anchor="middle" style="font-size:12px;font-family:sans-serif;" y="6" transform="translate(344.6667 938)" fill="#999999">108</text>
<text dominant-baseline="central" text-anchor="middle" style="font-size:12px;font-family:sans-serif;" y="6" transform="translate(380.6667 938)" fill="#999999">135</text>
<text dominant-baseline="central" text-anchor="middle" style="font-size:12px;font-family:sans-serif;" y="6" transform="translate(416.6667 938)" fill="#999999">162</text>
<text dominant-baseline="central" text-anchor="middle" style="font-size:12px;font-family:sans-serif;" y="6" transform="translate(452.6667 938)" fill="#999999">189</text>
<text dominant-baseline="central" text-anchor="middle" style="font-size:12px;font-family:sans-serif;" y="6" transform="translate(488.6667 938)" fill="#999999">216</text>
<text dominant-baseline="central" text-anchor="middle" style="font-size:12px;font-family:sans-serif;" y="6" transform="translate(524.6667 938)" fill="#999999">243</text>
<text dominant-baseline="central" text-anchor="middle" style="font-size:12px;font-family:sans-serif;" y="6" transform="translate(560.6667 938)" fill="#999999">270</text>
<text dominant-baseline="central" text-anchor="middle" style="font-size:12px;font-family:sans-serif;" y="6" transform="translate(596.6667 938)" fill="#999999">297</text>
<text dominant-baseline="central" text-anchor="middle" style="font-size:12px;font-family:sans-serif;" y="6" transform="translate(632.6667 938)" fill="#999999">324</text>
<text dominant-baseline="central" text-anchor="middle" style="font-size:12px;font-family:sans-serif;" y="6" transform="translate(668.6667 938)" fill="#999999">351</text>
<text dominant-baseline="central" text-anchor="middle" style="font-size:12px;font-family:sans-serif;" y="6" transform="translate(704.6667 938)" fill="#999999">378</text>
<text dominant-baseline="central" text-anchor="middle" style="font-size:12px;font-family:sans-serif;" y="6" transform="translate(740.6667 938)" fill="#999999">405</text>
<text dominant-baseline="central" text-anchor="middle" style="font-size:12px;font-family:sans-serif;" y="6" transform="translate(776.6667 938)" fill="#999999">432</text>
<text dominant-baseline="central" text-anchor="middle" style="font-size:12px;font-family:sans-serif;" y="6" transform="translate(812.6667 938)" fill="#999999">459</text>
<text dominant-baseline="central" text-anchor="middle" style="font-size:12px;font-family:sans-serif;" y="6" transform="translate(848.6667 938)" fill="#999999">486</text>
<text dominant-baseline="central" text-anchor="middle" style="font-size:12px;font-family:sans-serif;" y="6" transform="translate(884.6667 938)" fill="#999999">513</text>
<text dominant-baseline="central" text-anchor="middle" style="font-size:12px;font-family:sans-serif;" y="6" transform="translate(920.6667 938)" fill="#999999">540</text>
<text dominant-baseline="central" text-anchor="middle" style="font-size:12px;font-family:sans-serif;" y="6" transform="translate(956.6667 938)" fill="#999999">567</text>
<text dominant-baseline="central" text-anchor="middle" style="font-size:12px;font-family:sans-serif;" y="6" transform="translate(992.6667 938)" fill="#999999">594</text>
<text dominant-baseline="central" text-anchor="middle" style="font-size:12px;font-family:sans-serif;" y="6" transform="translate(1028.6667 938)" fill="#999999">621</text>
<text dominant-baseline="central" text-anchor="middle" style="font-size:12px;font-family:sans-serif;" y="6" transform="translate(1064.6667 938)" fill="#999999">648</text>
<text dominant-baseline="central" text-anchor="middle" style="font-size:12px;font-family:sans-serif;" y="6" transform="translate(1100.6667 938)" fill="#999999">675</text>
<text dominant-baseline="central" text-anchor="middle" style="font-size:12px;font-family:sans-serif;" y="6" transform="translate(1136.6667 938)" fill="#999999">702</text>
<text dominant-baseline="central" text-anchor="middle" style="font-size:12px;font-family:sans-serif;" y="6" transform="translate(1172.6667 938)" fill="#999999">729</text>
<text dominant-baseline="central" text-anchor="middle" style="font-size:12px;font-family:sans-serif;" y="6" transform="translate(1208.6667 938)" fill="#999999">756</text>
<text dominant-baseline="central" text-anchor="middle" style="font-size:12px;font-family:sans-serif;" y="6" transform="translate(1244.6667 938)" fill="#999999">783</text>
<text dominant-baseline="central" text-anchor="middle" style="font-size:12px;font-family:sans-serif;" y="6" transform="translate(1280.6667 938)" fill="#999999">810</text>
<text dominant-baseline="central" text-anchor="middle" style="font-size:12px;font-family:sans-serif;" y="6" transform="translate(1316.6667 938)" fill="#999999">837</text>
<text dominant-baseline="central" text-anchor="middle" style="font-size:12px;font-family:sans-serif;" y="6" transform="translate(1352.6667 938)" fill="#999999">864</text>
<text dominant-baseline="central" text-anchor="middle" style="font-size:12px;font-family:sans-serif;" y="6" transform="translate(1388.6667 938)" fill="#999999">891</text>
<text dominant-baseline="central" text-anchor="middle" style="font-size:12px;font-family:sans-serif;" y="6" transform="translate(1424.6667 938)" fill="#999999">918</text>
<text dominant-baseline="central" text-anchor="middle" style="font-size:12px;font-family:sans-serif;" y="6" transform="translate(1460.6667 938)" fill="#999999">945</text>
<text dominant-baseline="central" text-anchor="middle" style="font-size:12px;font-family:sans-serif;" y="6" transform="translate(1496.6667 938)" fill="#999999">972</text>
<text dominant-baseline="central" text-anchor="middle" style="font-size:12px;font-family:sans-serif;" y="6" transform="translate(1532.6667 938)" fill="#999999">999</text>
<text dominant-baseline="central" text-anchor="middle" style="font-size:12px;font-family:sans-serif;" y="6" transform="translate(1568.6667 938)" fill="#999999">1026</text>
<text dominant-baseline="central" text-anchor="middle" style="font-size:12px;font-family:sans-serif;" y="6" transform="translate(1604.6667 938)" fill="#999999">1053</text>
<text dominant-baseline="central" text-anchor="middle" style="font-size:12px;font-family:sans-serif;" y="6" transform="translate(1640.6667 938)" fill="#999999">1080</text>
<text dominant-baseline="central" text-anchor="middle" style="font-size:12px;font-family:sans-serif;" y="6" transform="translate(1676.6667 938)" fill="#999999">1107</text>
<text dominant-baseline="central" text-anchor="middle" style="font-size:12px;font-family:sans-serif;" y="6" transform="translate(1712.6667 938)" fill="#999999">1134</text>
<text dominant-baseline="central" text-anchor="middle" style="font-size:12px;font-family:sans-serif;" y="6" transform="translate(1748.6667 938)" fill="#999999">1161</text>
<text dominant-baseline="central" text-anchor="middle" style="font-size:12px;font-family:sans-serif;" y="6" transform="translate(1784.6667 938)" fill="#999999">1188</text>
<g clip-path="url(#zr25-c0)">
<path d="M200.7 418.5L202 723.8L203.3 709.5L204.7 808.4L206 775.8L207.3 812.4L208.7 634.1L210 714.2L211.3 730.3L212.7 780.9L214 728.8L215.3 830.7L216.7 798.6L218 828.4L219.3 633.7L220.7 675L222 739.6L223.3 771L224.7 718.4L226 822.9L227.3 793.9L228.7 817L230 638.9L231.3 719.6L232.7 731.1L234 778L235.3 744.3L236.7 824.5L238 793.6L239.3 825.1L240.7 637.1L242 689.6L243.3 704.4L244.7 758.1L246 693.4L247.3 819.2L248.7 793.4L250 821.2L251.3 634L252.7 718.1L254 721.7L255.3 765.9L256.7 729.8L258 825.7L259.3 794.5L260.7 822.6L262 637.8L263.3 674.4L264.7 718.6L266 740.7L267.3 712.2L268.7 815.5L270 788L271.3 820.8L272.7 624L274 683L275.3 715.7L276.7 768.6L278 729.8L279.3 803.2L280.7 770.6L282 813.1L283.3 622.1L284.7 680.6L286 736.3L287.3 753.5L288.7 720.9L290 815.1L291.3 768L292.7 822.6L294 631.5L295.3 692.2L296.7 743L298 782.2L299.3 726.2L300.7 822.4L302 790.4L303.3 817.5L304.7 641.5L306 677.5L307.3 704.9L308.7 756.8L310 698.4L311.3 819.7L312.7 794L314 823.6L315.3 632.3L316.7 684L318 724.3L319.3 754.2L320.7 721.9L322 814.4L323.3 786.2L324.7 820.4L326 627.2L327.3 668.5L328.7 711.9L330 764.7L331.3 712.3L332.7 816.2L334 783.4L335.3 818.7L336.7 617.9L338 696.5L339.3 716.7L340.7 759.5L342 725.9L343.3 821.9L344.7 790.2L346 820.3L347.3 625.1L348.7 676.1L350 703.4L351.3 759L352.7 690.5L354 817.7L355.3 760.9L356.7 820L358 605.5L359.3 676L360.7 685.3L362 758.6L363.3 690.7L364.7 813.8L366 786.8L367.3 824.2L368.7 624.9L370 653.1L371.3 699.4L372.7 750.2L374 707.2L375.3 812.3L376.7 776.1L378 811.7L379.3 590.5L380.7 684.9L382 720.8L383.3 771.9L384.7 705.1L386 814.2L387.3 757.7L388.7 815.5L390 613.1L391.3 661.1L392.7 693.5L394 736.7L395.3 705.4L396.7 812.5L398 784.9L399.3 808.7L400.7 630.3L402 713.4L403.3 712.2L404.7 776.5L406 718.1L407.3 824.6L408.7 781.9L410 821.5L411.3 623.2L412.7 677.2L414 662.1L415.3 737.1L416.7 719.2L418 808.5L419.3 781.1L420.7 823L422 597.3L423.3 677.6L424.7 704.2L426 758L427.3 719.8L428.7 811L430 779.4L431.3 814.2L432.7 606.3L434 655.2L435.3 663.6L436.7 748.8L438 717.4L439.3 816.8L440.7 771L442 816.6L443.3 592.8L444.7 684.3L446 709.4L447.3 771.8L448.7 714.8L450 817.1L451.3 775.5L452.7 803.4L454 619.9L455.3 676L456.7 670L458 751.4L459.3 668.5L460.7 810.5L462 760L463.3 814.8L464.7 595.7L466 675.6L467.3 675.5L468.7 755.2L470 712.8L471.3 794.8L472.7 771.8L474 814.8L475.3 609.2L476.7 671.4L478 700.1L479.3 766.1L480.7 690.9L482 811.9L483.3 768.9L484.7 817.8L486 602.9L487.3 681.8L488.7 699.9L490 735.5L491.3 705.5L492.7 814.9L494 759.8L495.3 814.3L496.7 627.7L498 690.4L499.3 721.3L500.7 763L502 713.3L503.3 815.9L504.7 793.1L506 809.4L507.3 643.9L508.7 697.7L510 733L511.3 776.9L512.7 747.9L514 829L515.3 800.4L516.7 829L518 619.3L519.3 695.2L520.7 739.3L522 758.1L523.3 716.5L524.7 825.4L526 797.7L527.3 818.9L528.7 630L530 699.7L531.3 748L532.7 774.1L534 725.5L535.3 815.1L536.7 796.4L538 822.8L539.3 642.6L540.7 686.1L542 718.9L543.3 745.5L544.7 696.9L546 811.6L547.3 790.5L548.7 828.5L550 630.2L551.3 708.6L552.7 736.8L554 783L555.3 731.5L556.7 824.5L558 793.8L559.3 828.5L560.7 620.1L562 686.3L563.3 733.8L564.7 759.2L566 721.1L567.3 821.4L568.7 791.9L570 810.1L571.3 632.2L572.7 692.4L574 713.4L575.3 779.4L576.7 730.1L578 825.5L579.3 793.3L580.7 825L582 632.5L583.3 664.9L584.7 684.4L586 757.9L587.3 722.2L588.7 825.6L590 784.6L591.3 822.1L592.7 608.2L594 699.5L595.3 721L596.7 749.8L598 724.9L599.3 821.4L600.7 789.5L602 816.3L603.3 623.7L604.7 679.8L606 701.7L607.3 742.5L608.7 717.4L610 819L611.3 781.7L612.7 822.9L614 616.9L615.3 710L616.7 719.5L618 747.7L619.3 730L620.7 814.5L622 791.8L623.3 818.6L624.7 640.2L626 687.7L627.3 703.9L628.7 771.1L630 720L631.3 811.6L632.7 768.7L634 811L635.3 599.8L636.7 684.4L638 711.5L639.3 747L640.7 733.3L642 814.5L643.3 790.9L644.7 821.8L646 629L647.3 665.6L648.7 712.4L650 762.6L651.3 709.5L652.7 809.9L654 788.2L655.3 824.5L656.7 638.8L658 703.7L659.3 714.8L660.7 775.9L662 716.3L663.3 821.2L664.7 768.2L666 818.8L667.3 626L668.7 661.5L670 682.1L671.3 744L672.7 689.5L674 808.2L675.3 782.4L676.7 815.5L678 623.9L679.3 673.2L680.7 717.7L682 766.9L683.3 723.1L684.7 818.1L686 779L687.3 816.5L688.7 620.8L690 673.2L691.3 705.7L692.7 772.9L694 714L695.3 804.7L696.7 778L698 820.9L699.3 622.9L700.7 684.9L702 719.4L703.3 776.8L704.7 717L706 815.2L707.3 779.1L708.7 821.9L710 615.3L711.3 654.9L712.7 681.3L714 739.1L715.3 713.9L716.7 807.8L718 775.1L719.3 820.8L720.7 627L722 674.1L723.3 709.8L724.7 770L726 717L727.3 820.2L728.7 773.3L730 816.3L731.3 617.3L732.7 666.4L734 717.8L735.3 751.7L736.7 692.5L738 807.9L739.3 782.9L740.7 822L742 612.3L743.3 703.5L744.7 711.8L746 762.7L747.3 721L748.7 811.7L750 777.8L751.3 816.8L752.7 627.3L754 665.2L755.3 692.3L756.7 743.7L758 692.1L759.3 816.7L760.7 778.1L762 815.4L763.3 600.5L764.7 694L766 703.5L767.3 761.1L768.7 725.9L770 809.7L771.3 784.7L772.7 823.2L774 606.9L775.3 675.6L776.7 699.1L778 776.9L779.3 716.9L780.7 821.6L782 762.8L783.3 821.7L784.7 614.8L786 686.9L787.3 698.1L788.7 736.2L790 694.5L791.3 812.2L792.7 774.9L794 817.3L795.3 620L796.7 681.2L798 671.4L799.3 763L800.7 694.9L802 815.5L803.3 774.7L804.7 818.6L806 612.5L807.3 677.3L808.7 706L810 755.2L811.3 714.6L812.7 821.2L814 766.5L815.3 813.4L816.7 610.2L818 682.1L819.3 709.4L820.7 763L822 702.4L823.3 826.8L824.7 798.8L826 820L827.3 625.3L828.7 703.5L830 755.4L831.3 774.2L832.7 746.3L834 822.9L835.3 796L836.7 827.5L838 635.8L839.3 692.2L840.7 741.4L842 757.3L843.3 735.8L844.7 810.9L846 781.6L847.3 824.4L848.7 643.5L850 722.1L851.3 730.6L852.7 791.1L854 736.6L855.3 813.6L856.7 797.7L858 823.9L859.3 638.9L860.7 697.7L862 718L863.3 774.5L864.7 726L866 822.7L867.3 794.5L868.7 825.2L870 615.6L871.3 697.5L872.7 742.8L874 761.3L875.3 729.8L876.7 826.4L878 799.3L879.3 811.5L880.7 626.3L882 648.1L883.3 703.8L884.7 773.8L886 717.3L887.3 820.3L888.7 793.3L890 824.2L891.3 619.6L892.7 679.1L894 735.4L895.3 765L896.7 712.9L898 821.8L899.3 787.2L900.7 810.9L902 608.7L903.3 664.6L904.7 733L906 763L907.3 716.3L908.7 821.8L910 776.9L911.3 819.1L912.7 639L914 685.1L915.3 732.4L916.7 764L918 709.8L919.3 807.8L920.7 788.8L922 824L923.3 637.7L924.7 684.9L926 702.3L927.3 751.9L928.7 712.7L930 819.2L931.3 785L932.7 825.5L934 624.1L935.3 693.9L936.7 717.8L938 771L939.3 734.4L940.7 821.5L942 783.1L943.3 824.4L944.7 634.2L946 660.5L947.3 706.1L948.7 769.5L950 714.1L951.3 816.7L952.7 786.2L954 804.9L955.3 616.7L956.7 676.6L958 731.3L959.3 754L960.7 707.8L962 821.7L963.3 789.7L964.7 817.9L966 625.1L967.3 680.2L968.7 695.5L970 755L971.3 691.6L972.7 821.3L974 785.4L975.3 817.6L976.7 623.8L978 700.8L979.3 715.7L980.7 760L982 716.8L983.3 821.6L984.7 791.2L986 824L987.3 642.3L988.7 695.5L990 723.1L991.3 750.7L992.7 724.6L994 808.1L995.3 787.3L996.7 822.9L998 610.4L999.3 694.9L1000.7 737.7L1002 758.6L1003.3 734.9L1004.7 811.8L1006 780.6L1007.3 823.3L1008.7 627.7L1010 655.5L1011.3 699.5L1012.7 749.7L1014 719.9L1015.3 820L1016.7 784.4L1018 822.5L1019.3 624.6L1020.7 713L1022 709.9L1023.3 768.4L1024.7 719.5L1026 818.9L1027.3 764.2L1028.7 817.4L1030 621.9L1031.3 651.9L1032.7 722.8L1034 759.6L1035.3 698L1036.7 806.9L1038 782.2L1039.3 820.4L1040.7 621.3L1042 698.3L1043.3 720.9L1044.7 762.6L1046 694.9L1047.3 818.6L1048.7 781.3L1050 816.8L1051.3 619.9L1052.7 668.7L1054 678.6L1055.3 739.4L1056.7 668.2L1058 813.4L1059.3 770.4L1060.7 804.3L1062 599.5L1063.3 683.6L1064.7 684.3L1066 759.1L1067.3 719.2L1068.7 811.4L1070 777.6L1071.3 815L1072.7 613L1074 659.5L1075.3 689.2L1076.7 759L1078 689.5L1079.3 816.7L1080.7 772.9L1082 821.6L1083.3 608.3L1084.7 687.1L1086 702.2L1087.3 737.1L1088.7 709.9L1090 820.7L1091.3 777.1L1092.7 822.2L1094 594.3L1095.3 675.8L1096.7 683.5L1098 743.4L1099.3 691L1100.7 817.5L1102 771.2L1103.3 818.8L1104.7 605.7L1106 675.6L1107.3 709.1L1108.7 745.6L1110 703.8L1111.3 818.7L1112.7 774.4L1114 819.2L1115.3 594.9L1116.7 669.2L1118 696.4L1119.3 746.7L1120.7 699.4L1122 807.8L1123.3 770.8L1124.7 806.1L1126 611.4L1127.3 683.1L1128.7 708.7L1130 760.2L1131.3 708.2L1132.7 819.5L1134 775.1L1135.3 821.6L1136.7 617.9L1138 672L1139.3 686L1140.7 753.2L1142 718.5L1143.3 800.7L1144.7 798.6L1146 825.7L1147.3 638.7L1148.7 708.4L1150 739.5L1151.3 782.6L1152.7 744.2L1154 826.4L1155.3 798.8L1156.7 821.8L1158 626.5L1159.3 680.1L1160.7 728.8L1162 771.6L1163.3 733L1164.7 827.4L1166 797.2L1167.3 821.5L1168.7 636.1L1170 704.5L1171.3 728.7L1172.7 778.6L1174 732.6L1175.3 824.3L1176.7 765.6L1178 818.5L1179.3 640.2L1180.7 664.3L1182 721.2L1183.3 745.8L1184.7 722.9L1186 818.3L1187.3 796.4L1188.7 828.3L1190 630.1L1191.3 695.3L1192.7 731.1L1194 750.5L1195.3 731.6L1196.7 822.5L1198 791.5L1199.3 822.3L1200.7 640.3L1202 665.2L1203.3 713.4L1204.7 762L1206 716.6L1207.3 825.8L1208.7 795.3L1210 827.6L1211.3 627L1212.7 699.3L1214 724.6L1215.3 770.3L1216.7 727L1218 816.1L1219.3 794.8L1220.7 820.7L1222 625L1223.3 679.2L1224.7 706.9L1226 744.2L1227.3 710.2L1228.7 822.6L1230 790.3L1231.3 819.3L1232.7 635.5L1234 685.5L1235.3 712.2L1236.7 752.4L1238 721.7L1239.3 819.5L1240.7 788.3L1242 825.4L1243.3 604L1244.7 669L1246 701.4L1247.3 751.3L1248.7 715L1250 823L1251.3 791L1252.7 822.5L1254 620.9L1255.3 678L1256.7 704L1258 759.5L1259.3 729.4L1260.7 822.2L1262 784.8L1263.3 812.9L1264.7 629.1L1266 669.1L1267.3 691.8L1268.7 748.4L1270 706.7L1271.3 816.7L1272.7 781.8L1274 808.9L1275.3 620.7L1276.7 704.2L1278 721.3L1279.3 765.6L1280.7 726.5L1282 821L1283.3 782.1L1284.7 825.9L1286 612.5L1287.3 659.3L1288.7 660.4L1290 722.1L1291.3 697.7L1292.7 818.4L1294 787.5L1295.3 823.4L1296.7 636.7L1298 700L1299.3 728.7L1300.7 754.9L1302 706.3L1303.3 820.9L1304.7 784.3L1306 823.2L1307.3 631.7L1308.7 679.6L1310 696.7L1311.3 748.2L1312.7 695.5L1314 810.2L1315.3 781.9L1316.7 823.6L1318 613.4L1319.3 687.5L1320.7 730.7L1322 767.6L1323.3 732.2L1324.7 821L1326 785.5L1327.3 813.8L1328.7 621.5L1330 674.6L1331.3 687.6L1332.7 753.3L1334 689.9L1335.3 820.3L1336.7 773.8L1338 822.4L1339.3 621.3L1340.7 680.7L1342 710.3L1343.3 762.7L1344.7 689.2L1346 819.6L1347.3 780.3L1348.7 815.1L1350 623.7L1351.3 662L1352.7 685.3L1354 755.2L1355.3 697.8L1356.7 814.4L1358 781L1359.3 820.3L1360.7 617.2L1362 682.3L1363.3 702.5L1364.7 770.8L1366 718.4L1367.3 810L1368.7 779L1370 821.5L1371.3 598.3L1372.7 673.4L1374 671.7L1375.3 758L1376.7 700.4L1378 812.5L1379.3 757.6L1380.7 812.5L1382 590.8L1383.3 694.7L1384.7 703.9L1386 763.9L1387.3 708L1388.7 816.4L1390 772L1391.3 818.3L1392.7 600.1L1394 667.8L1395.3 696.7L1396.7 735.4L1398 702.2L1399.3 820.1L1400.7 767.2L1402 816.7L1403.3 618.6L1404.7 681.7L1406 705.1L1407.3 770.3L1408.7 725L1410 822.7L1411.3 781.9L1412.7 821.6L1414 598.4L1415.3 685.3L1416.7 704.6L1418 771.9L1419.3 716.5L1420.7 817.6L1422 746.6L1423.3 807.6L1424.7 610.1L1426 708.2L1427.3 703.1L1428.7 768.7L1430 704.8L1431.3 812.9L1432.7 774.7L1434 822.2L1435.3 614L1436.7 668.1L1438 696.4L1439.3 755L1440.7 693.9L1442 806.2L1443.3 769.1L1444.7 819.5L1446 593.9L1447.3 683.2L1448.7 701.1L1450 763.6L1451.3 716.6L1452.7 819.5L1454 775L1455.3 822.6L1456.7 599.8L1458 666.6L1459.3 708.7L1460.7 762.6L1462 702.5L1463.3 815L1464.7 795.9L1466 824.7L1467.3 641.3L1468.7 710L1470 740.7L1471.3 763.3L1472.7 724.7L1474 823L1475.3 797.7L1476.7 825.8L1478 641.7L1479.3 676.1L1480.7 714.7L1482 759.4L1483.3 726.2L1484.7 826.1L1486 797.9L1487.3 826L1488.7 644.6L1490 697.5L1491.3 727.5L1492.7 769.4L1494 730.8L1495.3 814.4L1496.7 797.3L1498 817.3L1499.3 638.9L1500.7 677.5L1502 719.2L1503.3 742L1504.7 719.9L1506 820.6L1507.3 794.1L1508.7 825.6L1510 617.3L1511.3 689.9L1512.7 739.2L1514 759.1L1515.3 735.5L1516.7 821.1L1518 792.2L1519.3 822.1L1520.7 643.8L1522 684L1523.3 720.1L1524.7 769.4L1526 710.9L1527.3 819L1528.7 787L1530 821L1531.3 638.9L1532.7 704.8L1534 724.8L1535.3 759.4L1536.7 728.5L1538 814.9L1539.3 795.5L1540.7 827.8L1542 630.7L1543.3 676.9L1544.7 721.9L1546 764.7L1547.3 716.1L1548.7 820.5L1550 785L1551.3 825.2L1552.7 639.2L1554 708L1555.3 713.6L1556.7 748.9L1558 727L1559.3 825.8L1560.7 792.9L1562 828.8L1563.3 643.4L1564.7 697.6L1566 704.8L1567.3 774.6L1568.7 716.3L1570 815.7L1571.3 775.1L1572.7 817.4L1574 621.5L1575.3 686.2L1576.7 724.5L1578 779.2L1579.3 739.7L1580.7 825.6L1582 788.9L1583.3 819.9L1584.7 626.3L1586 669.7L1587.3 696.7L1588.7 768.7L1590 714L1591.3 816.2L1592.7 791.8L1594 813.6L1595.3 614.8L1596.7 676.5L1598 727.2L1599.3 778.2L1600.7 728.8L1602 802.9L1603.3 773.3L1604.7 817.5L1606 623.1L1607.3 669.2L1608.7 682L1610 744.1L1611.3 704.4L1612.7 821.2L1614 785.5L1615.3 820.8L1616.7 615L1618 701.3L1619.3 711.9L1620.7 763.7L1622 696L1623.3 825.7L1624.7 776.7L1626 815.8L1627.3 625.6L1628.7 651.8L1630 693.5L1631.3 754.3L1632.7 714L1634 811.9L1635.3 787.1L1636.7 814.5L1638 610.7L1639.3 687.7L1640.7 717.7L1642 765.2L1643.3 728.1L1644.7 809.8L1646 784.4L1647.3 814.5L1648.7 625.4L1650 655.2L1651.3 686.6L1652.7 735.8L1654 704.3L1655.3 818.1L1656.7 781L1658 821.3L1659.3 620.6L1660.7 690.9L1662 738.4L1663.3 772.8L1664.7 730.2L1666 810.7L1667.3 781.3L1668.7 823.3L1670 615.3L1671.3 655L1672.7 690L1674 752.4L1675.3 706.9L1676.7 817.4L1678 777.2L1679.3 811.5L1680.7 609.5L1682 692.9L1683.3 697.7L1684.7 759.8L1686 708.4L1687.3 822L1688.7 784L1690 819.1L1691.3 617.3L1692.7 678.9L1694 696.1L1695.3 748.7L1696.7 687.6L1698 808.6L1699.3 771.2L1700.7 818.5L1702 587.9L1703.3 687.3L1704.7 705.1L1706 757L1707.3 723.8L1708.7 819.3L1710 780.7L1711.3 820.4L1712.7 610L1714 642.6L1715.3 691.8L1716.7 762.9L1718 683L1719.3 805.2L1720.7 775.5L1722 813.9L1723.3 602.3L1724.7 695.4L1726 719.1L1727.3 760.1L1728.7 722L1730 820.3L1731.3 774.1L1732.7 812.2L1734 604.6L1735.3 671.6L1736.7 679.9L1738 741.7L1739.3 688.4L1740.7 802.6L1742 773.2L1743.3 819.2L1744.7 611L1746 685.5L1747.3 712.2L1748.7 764.8L1750 704.7L1751.3 819L1752.7 776.8L1754 823L1755.3 620.3L1756.7 679L1758 687.9L1759.3 744.6L1760.7 684.4L1762 808.4L1763.3 771.5L1764.7 817.2L1766 608.3L1767.3 683.1L1768.7 719.4L1770 769.6L1771.3 709L1772.7 820.6L1774 773.4L1775.3 817.6L1776.7 618.4L1778 672.4L1779.3 718L1780.7 761.2L1782 728.8L1783.3 827.6L1784.7 798.7L1786 825.4L1787.3 609.3L1788.7 684.5L1790 739.3L1791.3 777.3L1792.7 740.3L1794 825L1795.3 795L1796.7 817.2L1798 635.3L1799.3 669" fill="transparent" stroke="#3fb1e3" stroke-width="3" stroke-linejoin="bevel" class="zr25-cls-77"></path>
</g>
<path d="M-252.1 -5l504.3 0l0 28l-504.3 0Z" transform="translate(1000 5)" fill="rgb(0,0,0)" fill-opacity="0" stroke="#ccc" stroke-width="0" class="zr25-cls-75"></path>
<text dominant-baseline="central" text-anchor="middle" style="font-size:18px;font-family:sans-serif;font-weight:bold;" xml:space="preserve" y="9" transform="translate(1000 5)" fill="#666666">Min wholeUpdate per Tick for bench_4_every_240_staggered</text>
<defs >
<clipPath id="zr25-c0">
<path d="M198 58.5l16004 0l0 8703l-16004 0Z" fill="#000" class="zr25-cls-76"></path>
</clipPath>
</defs>
<style ><![CDATA[
.zr25-cls-75:hover {
pointer-events:none;
}
.zr25-cls-76:hover {
cursor:pointer;
fill:rgba(0,0,0,1);
}
.zr25-cls-77:hover {
cursor:pointer;
}

]]>

</style>
</svg>