<svg width="2000" height="1000" xmlns="http://www.w3.org/2000/svg" xmlns:xlink="http://www.w3.org/1999/xlink" version="1.1" baseProfile="full" viewBox="0 0 2000 1000">
<rect width="2000" height="1000" x="0" y="0" fill="rgb(252,252,252)" fill-opacity="0"></rect>
<path d="M200 930.5L1800 930.5" fill="transparent" stroke="#eeeeee" class="zr28-cls-84"></path>
<path d="M200 762.5L1800 762.5" fill="transparent" stroke="#eeeeee" class="zr28-cls-84"></path>
<path d="M200 593.5L1800 593.5" fill="transparent" stroke="#eeeeee" class="zr28-cls-84"></path>
<path d="M200 425.5L1800 425.5" fill="transparent" stroke="#eeeeee" class="zr28-cls-84"></path>
<path d="M200 257.5L1800 257.5" fill="transparent" stroke="#eeeeee" class="zr28-cls-84"></path>
<path d="M200 89.5L1800 89.5" fill="transparent" stroke="#eeeeee" class="zr28-cls-84"></path>
<path d="M200 60.5L1800 60.5" fill="transparent" stroke="#eeeeee" class="zr28-cls-84"></path>
<path d="M200.5 930L200.5 60" fill="transparent" stroke="#cccccc" stroke-linecap="round" class="zr28-cls-84"></path>
<text dominant-baseline="central" text-anchor="middle" style="font-size:12px;font-family:sans-serif;" xml:space="preserve" y="-6" transform="translate(200 45)" fill="#cccccc">controlBehaviorUpdate Time (ms)</text>
<path d="M200 930.5L1800 930.5" fill="transparent" stroke="#cccccc" stroke-linecap="round" class="zr28-cls-84"></path>
<text dominant-baseline="central" text-anchor="end" style="font-size:12px;font-family:sans-serif;" transform="translate(192 930)" fill="#999999">0.000</text>
<text dominant-baseline="central" text-anchor="end" style="font-size:12px;font-family:sans-serif;" transform="translate(192 761.853)" fill="#999999">0.200</text>
<text dominant-baseline="central" text-anchor="end" style="font-size:12px;font-family:sans-serif;" transform="translate(192 593.706)" fill="#999999">0.400</text>
<text dominant-baseline="central" text-anchor="end" style="font-size:12px;font-family:sans-serif;" transform="translate(192 425.559)" fill="#999999">0.600</text>
<text dominant-baseline="central" text-anchor="end" style="font-size:12px;font-family:sans-serif;" transform="translate(192 257.412)" fill="#999999">0.800</text>
<text dominant-baseline="central" text-anchor="end" style="font-size:12px;font-family:sans-serif;" transform="translate(192 89.265)" fill="#999999">1.000</text>
<text dominant-baseline="central" text-anchor="end" style="font-size:12px;font-family:sans-serif;" transform="translate(192 60)" fill="#999999">1.035</text>
<text dominant-baseline="central" text-anchor="middle" style="font-size:12px;font-family:sans-serif;" y="6" transform="translate(200.6667 938)" fill="#999999">0</text>
<text dominant-baseline="central" text-anchor="middle" style="font-size:12px;font-family:sans-serif;" y="6" transform="translate(236.6667 938)" fill="#999999">27</text>
<text dominant-baseline="central" text-anchor="middle" style="font-size:12px;font-family:sans-serif;" y="6" transform="translate(272.6667 938)" fill="#999999">54</text>
<text dominant-baseline="central" text-anchor="middle" style="font-size:12px;font-family:sans-serif;" y="6" transform="translate(308.6667 938)" fill="#999999">81</text>
<text dominant-baseline="central" text-anchor="middle" style="font-size:12px;font-family:sans-serif;" y="6" transform="translate(344.6667 938)" fill="#999999">108</text>
<text dominant-baseline="central" text-anchor="middle" style="font-size:12px;font-family:sans-serif;" y="6" transform="translate(380.6667 938)" fill="#999999">135</text>
<text dominant-baseline="central" text-anchor="middle" style="font-size:12px;font-family:sans-serif;" y="6" transform="translate(416.6667 938)" fill="#999999">162</text>
<text dominant-baseline="central" text-anchor="middle" style="font-size:12px;font-family:sans-serif;" y="6" transform="translate(452.6667 938)" fill="#999999">189</text>
<text dominant-baseline="central" text-anchor="middle" style="font-size:12px;font-family:sans-serif;" y="6" transform="translate(488.6667 938)" fill="#999999">216</text>
<text dominant-baseline="central" text-anchor="middle" style="font-size:12px;font-family:sans-serif;" y="6" transform="translate(524.6667 938)" fill="#999999">243</text>
<text dominant-baseline="central" text-anchor="middle" style="font-size:12px;font-family:sans-serif;" y="6" transform="translate(560.6667 938)" fill="#999999">270</text>
<text dominant-baseline="central" text-anchor="middle" style="font-size:12px;font-family:sans-serif;" y="6" transform="translate(596.6667 938)" fill="#999999">297</text>
<text dominant-baseline="central" text-anchor="middle" style="font-size:12px;font-family:sans-serif;" y="6" transform="translate(632.6667 938)" fill="#999999">324</text>
<text dominant-baseline="central" text-anchor="middle" style="font-size:12px;font-family:sans-serif;" y="6" transform="translate(668.6667 938)" fill="#999999">351</text>
<text dominant-baseline="central" text-anchor="middle" style="font-size:12px;font-family:sans-serif;" y="6" transform="translate(704.6667 938)" fill="#999999">378</text>
<text dominant-baseline="central" text-anchor="middle" style="font-size:12px;font-family:sans-serif;" y="6" transform="translate(740.6667 938)" fill="#999999">405</text>
<text dominant-baseline="central" text-anchor="middle" style="font-size:12px;font-family:sans-serif;" y="6" transform="translate(776.6667 938)" fill="#999999">432</text>
<text dominant-baseline="central" text-anchor="middle" style="font-size:12px;font-family:sans-serif;" y="6" transform="translate(812.6667 938)" fill="#999999">459</text>
<text dominant-baseline="central" text-anchor="middle" style="font-size:12px;font-family:sans-serif;" y="6" transform="translate(848.6667 938)" fill="#999999">486</text>
<text dominant-baseline="central" text-anchor="middle" style="font-size:12px;font-family:sans-serif;" y="6" transform="translate(884.6667 938)" fill="#999999">513</text>
<text dominant-baseline="central" text-anchor="middle" style="font-size:12px;font-family:sans-serif;" y="6" transform="translate(920.6667 938)" fill="#999999">540</text>
<text dominant-baseline="central" text-anchor="middle" style="font-size:12px;font-family:sans-serif;" y="6" transform="translate(956.6667 938)" fill="#999999">567</text>
<text dominant-baseline="central" text-anchor="middle" style="font-size:12px;font-family:sans-serif;" y="6" transform="translate(992.6667 938)" fill="#999999">594</text>
<text dominant-baseline="central" text-anchor="middle" style="font-size:12px;font-family:sans-serif;" y="6" transform="translate(1028.6667 938)" fill="#999999">621</text>
<text dominant-baseline="central" text-anchor="middle" style="font-size:12px;font-family:sans-serif;" y="6" transform="translate(1064.6667 938)" fill="#999999">648</text>
<text dominant-baseline="central" text-anchor="middle" style="font-size:12px;font-family:sans-serif;" y="6" transform="translate(1100.6667 938)" fill="#999999">675</text>
<text dominant-baseline="central" text-anchor="middle" style="font-size:12px;font-family:sans-serif;" y="6" transform="translate(1136.6667 938)" fill="#999999">702</text>
<text dominant-baseline="central" text-anchor="middle" style="font-size:12px;font-family:sans-serif;" y="6" transform="translate(1172.6667 938)" fill="#999999">729</text>
<text dominant-baseline="central" text-anchor="middle" style="font-size:12px;font-family:sans-serif;" y="6" transform="translate(1208.6667 938)" fill="#999999">756</text>
<text dominant-baseline="central" text-anchor="middle" style="font-size:12px;font-family:sans-serif;" y="6" transform="translate(1244.6667 938)" fill="#999999">783</text>
<text dominant-baseline="central" text-anchor="middle" style="font-size:12px;font-family:sans-serif;" y="6" transform="translate(1280.6667 938)" fill="#999999">810</text>
<text dominant-baseline="central" text-anchor="middle" style="font-size:12px;font-family:sans-serif;" y="6" transform="translate(1316.6667 938)" fill="#999999">837</text>
<text dominant-baseline="central" text-anchor="middle" style="font-size:12px;font-family:sans-serif;" y="6" transform="translate(1352.6667 938)" fill="#999999">864</text>
<text dominant-baseline="central" text-anchor="middle" style="font-size:12px;font-family:sans-serif;" y="6" transform="translate(1388.6667 938)" fill="#999999">891</text>
<text dominant-baseline="central" text-anchor="middle" style="font-size:12px;font-family:sans-serif;" y="6" transform="translate(1424.6667 938)" fill="#999999">918</text>
<text dominant-baseline="central" text-anchor="middle" style="font-size:12px;font-family:sans-serif;" y="6" transform="translate(1460.6667 938)" fill="#999999">945</text>
<text dominant-baseline="central" text-anchor="middle" style="font-size:12px;font-family:sans-serif;" y="6" transform="translate(1496.6667 938)" fill="#999999">972</text>
<text dominant-baseline="central" text-anchor="middle" style="font-size:12px;font-family:sans-serif;" y="6" transform="translate(1532.6667 938)" fill="#999999">999</text>
<text dominant-baseline="central" text-anchor="middle" style="font-size:12px;font-family:sans-serif;" y="6" transform="translate(1568.6667 938)" fill="#999999">1026</text>
<text dominant-baseline="central" text-anchor="middle" style="font-size:12px;font-family:sans-serif;" y="6" transform="translate(1604.6667 938)" fill="#999999">1053</text>
<text dominant-baseline="central" text-anchor="middle" style="font-size:12px;font-family:sans-serif;" y="6" transform="translate(1640.6667 938)" fill="#999999">1080</text>
<text dominant-baseline="central" text-anchor="middle" style="font-size:12px;font-family:sans-serif;" y="6" transform="translate(1676.6667 938)" fill="#999999">1107</text>
<text dominant-baseline="central" text-anchor="middle" style="font-size:12px;font-family:sans-serif;" y="6" transform="translate(1712.6667 938)" fill="#999999">1134</text>
<text dominant-baseline="central" text-anchor="middle" style="font-size:12px;font-family:sans-serif;" y="6" transform="translate(1748.6667 938)" fill="#999999">1161</text>
<text dominant-baseline="central" text-anchor="middle" style="font-size:12px;font-family:sans-serif;" y="6" transform="translate(1784.6667 938)" fill="#999999">1188</text>
<g clip-path="url(#zr28-c0)">
<path d="M200.7 267.2L202 722.3L203.3 601L204.7 801L206 775.8L207.3 797.3L208.7 563.3L210 795.5L211.3 795.1L212.7 793.5L214 664.7L215.3 789.8L216.7 793.7L218 804.2L219.3 561.7L220.7 797.2L222 781L223.3 765L224.7 721.5L226 800.4L227.3 804.2L228.7 801.4L230 570.1L231.3 786L232.7 772.5L234 792.4L235.3 710.5L236.7 803.6L238 801.4L239.3 804L240.7 539.8L242 763.5L243.3 797.9L244.7 797.8L246 705.7L247.3 801L248.7 793.9L250 798.8L251.3 510.1L252.7 787.7L254 798.8L255.3 787.2L256.7 711L258 791L259.3 801.6L260.7 741.4L262 535.1L263.3 795.7L264.7 798.3L266 793.5L267.3 694.8L268.7 766.6L270 795.7L271.3 788.8L272.7 542.8L274 795.1L275.3 796.7L276.7 765.4L278 730.6L279.3 798.5L280.7 789.3L282 801.1L283.3 528.8L284.7 757.6L286 776.5L287.3 793.8L288.7 701.2L290 796.2L291.3 800.8L292.7 801.8L294 541.5L295.3 796.7L296.7 790.5L298 797.2L299.3 721.4L300.7 804.5L302 670.7L303.3 782.5L304.7 519.6L306 790L307.3 800.9L308.7 784.1L310 671.4L311.3 799.5L312.7 791.4L314 772.4L315.3 531.2L316.7 793.6L318 795.1L319.3 776.9L320.7 704.5L322 806.2L323.3 802.7L324.7 798.9L326 566.1L327.3 805.7L328.7 772L330 794.6L331.3 716.1L332.7 788.8L334 805.1L335.3 808.6L336.7 540.7L338 774.5L339.3 791.4L340.7 800.2L342 703.8L343.3 809.9L344.7 810.1L346 689.5L347.3 490.2L348.7 795.1L350 779.1L351.3 795.3L352.7 721.7L354 767.6L355.3 802.1L356.7 804.5L358 556.5L359.3 797.2L360.7 802.5L362 767.1L363.3 724.2L364.7 781.4L366 804.6L367.3 802.3L368.7 531.8L370 773.3L371.3 785.9L372.7 794L374 710L375.3 780.9L376.7 793L378 800.6L379.3 528L380.7 788.2L382 793.5L383.3 792.5L384.7 725.2L386 785.9L387.3 789.3L388.7 803.3L390 562.4L391.3 803.6L392.7 794.1L394 700.4L395.3 689.5L396.7 789.4L398 799.2L399.3 787.7L400.7 536.2L402 774.1L403.3 720.7L404.7 779.7L406 718.2L407.3 809.8L408.7 811L410 804.5L411.3 511L412.7 769.5L414 789.2L415.3 784.1L416.7 707.5L418 798L419.3 774.1L420.7 794.7L422 554.2L423.3 783.9L424.7 781.9L426 793.5L427.3 714.6L428.7 803.2L430 803L431.3 796L432.7 547.5L434 782L435.3 775L436.7 793.1L438 724.8L439.3 804.5L440.7 805.1L442 793L443.3 552.8L444.7 777.2L446 794.3L447.3 792.7L448.7 711.2L450 801.1L451.3 800.9L452.7 758.9L454 537L455.3 779.8L456.7 796.6L458 809.4L459.3 659.6L460.7 785.8L462 807.2L463.3 812L464.7 509.6L466 779.6L467.3 745L468.7 784.2L470 691.3L471.3 787.5L472.7 803.6L474 796.3L475.3 533.5L476.7 771.5L478 798L479.3 801.4L480.7 713L482 793L483.3 807.2L484.7 770.3L486 498.1L487.3 780.6L488.7 778.6L490 797.4L491.3 496.6L492.7 777.8L494 800.4L495.3 804.4L496.7 568.1L498 800.3L499.3 795.1L500.7 778L502 707L503.3 795.1L504.7 794.1L506 788.6L507.3 545.4L508.7 780.9L510 774L511.3 793.5L512.7 708.1L514 791.1L515.3 806.3L516.7 799.2L518 462.7L519.3 781.9L520.7 781.9L522 788.9L523.3 698.2L524.7 795.8L526 787.9L527.3 715.2L528.7 541.4L530 788L531.3 787.9L532.7 797.9L534 708L535.3 718.5L536.7 791.4L538 801.6L539.3 558.6L540.7 795L542 793.7L543.3 804.3L544.7 683.1L546 802L547.3 806.4L548.7 808.4L550 541.5L551.3 800.5L552.7 789.7L554 779L555.3 723.9L556.7 792.3L558 800.5L559.3 786.1L560.7 551.8L562 768.3L563.3 798.1L564.7 801.5L566 709.5L567.3 797.7L568.7 799.9L570 789.4L571.3 507.2L572.7 790.4L574 800.2L575.3 802.3L576.7 707.4L578 804.3L579.3 799.2L580.7 778.9L582 514.1L583.3 695.9L584.7 781L586 784.8L587.3 653L588.7 790.5L590 794.9L591.3 805.6L592.7 562.1L594 796.1L595.3 796.4L596.7 763.6L598 697.7L599.3 795.7L600.7 801.2L602 793.4L603.3 545.6L604.7 795L606 788.5L607.3 792.4L608.7 716.9L610 797L611.3 790.1L612.7 797.8L614 396.8L615.3 790.9L616.7 797.6L618 785.3L619.3 706.4L620.7 807.5L622 799.8L623.3 803.9L624.7 514.4L626 792.5L627.3 787.6L628.7 798.3L630 717L631.3 768.4L632.7 780L634 793.4L635.3 552.6L636.7 798.8L638 779.7L639.3 776.7L640.7 721L642 791.6L643.3 799.4L644.7 796.8L646 562.2L647.3 733L648.7 787.8L650 790.6L651.3 713.5L652.7 798.7L654 796.5L655.3 788.9L656.7 495.7L658 801.5L659.3 789.3L660.7 802.4L662 720.3L663.3 800.6L664.7 780L666 774L667.3 551.7L668.7 787.5L670 794.1L671.3 794.1L672.7 674.6L674 794.8L675.3 805.5L676.7 806L678 557.3L679.3 790.5L680.7 790.2L682 778.1L683.3 703.2L684.7 794.6L686 800.3L687.3 799.3L688.7 542.5L690 740.9L691.3 780.5L692.7 785.9L694 725.2L695.3 805.4L696.7 800.4L698 805.3L699.3 531.2L700.7 788.7L702 795.9L703.3 793L704.7 727.5L706 797.4L707.3 763.1L708.7 795.4L710 550.4L711.3 777.5L712.7 787.8L714 800.5L715.3 684.3L716.7 764.7L718 792.9L719.3 805.9L720.7 506.2L722 778.8L723.3 767.1L724.7 792.5L726 710.7L727.3 808.8L728.7 801.7L730 800.3L731.3 559.4L732.7 753.6L734 782.5L735.3 796.4L736.7 721.7L738 801.2L739.3 746.9L740.7 794L742 528.6L743.3 777.6L744.7 803.4L746 784.1L747.3 611.4L748.7 780.9L750 802.2L751.3 811.5L752.7 539.4L754 797.2L755.3 778.3L756.7 781.8L758 713L759.3 795.6L760.7 805.7L762 803.5L763.3 533.3L764.7 775.6L766 785.2L767.3 791L768.7 723.7L770 803L771.3 795.1L772.7 801L774 540.6L775.3 794.5L776.7 789.5L778 793L779.3 699.6L780.7 783.8L782 776.2L783.3 780.5L784.7 554.2L786 793L787.3 791.8L788.7 774L790 706.9L791.3 784.8L792.7 793.6L794 805.2L795.3 549.1L796.7 773.2L798 805.8L799.3 791.7L800.7 733.5L802 808.3L803.3 799.4L804.7 802.1L806 535.2L807.3 797.5L808.7 783.1L810 782.5L811.3 734.5L812.7 816.9L814 779.1L815.3 803.9L816.7 557.4L818 802.9L819.3 790.7L820.7 780.2L822 665.9L823.3 800.6L824.7 803.4L826 792.5L827.3 559.9L828.7 798.4L830 791.1L831.3 747.9L832.7 700.3L834 797.2L835.3 805.6L836.7 799.3L838 531.2L839.3 800.4L840.7 750.8L842 774.3L843.3 708.3L844.7 798.4L846 796.2L847.3 792.5L848.7 544.8L850 796.1L851.3 772.9L852.7 780.8L854 719.8L855.3 777.5L856.7 788.2L858 796.9L859.3 551.7L860.7 752.9L862 772.4L863.3 776.6L864.7 698L866 796.2L867.3 802.3L868.7 792.8L870 507.8L871.3 754.8L872.7 763.3L874 783.9L875.3 690.3L876.7 742.9L878 786.3L879.3 782.7L880.7 559.6L882 780.4L883.3 782.8L884.7 765.1L886 676.9L887.3 793.8L888.7 786.4L890 791.3L891.3 542.3L892.7 759.2L894 783.1L895.3 789.8L896.7 714.3L898 794.4L899.3 792.1L900.7 794.8L902 484.8L903.3 786L904.7 791.4L906 792.8L907.3 714L908.7 791.8L910 799.3L911.3 778.7L912.7 533.1L914 789.1L915.3 792.7L916.7 782.5L918 685.2L919.3 795.8L920.7 811.4L922 812L923.3 533L924.7 782.8L926 802L927.3 786.6L928.7 697.7L930 797.2L931.3 805.7L932.7 805.7L934 532.2L935.3 797.8L936.7 780.9L938 800.8L939.3 710.7L940.7 786.8L942 793.6L943.3 798.3L944.7 379.4L946 782.4L947.3 801.7L948.7 792.8L950 693.7L951.3 780.4L952.7 796.2L954 796.5L955.3 531.2L956.7 783L958 804.8L959.3 805.2L960.7 714.1L962 785.8L963.3 782.9L964.7 798.4L966 551.7L967.3 801.5L968.7 780.2L970 771.5L971.3 695L972.7 801.6L974 802L975.3 811.1L976.7 529.1L978 646.8L979.3 790.7L980.7 781.3L982 708.9L983.3 799.3L984.7 813L986 789.8L987.3 542.3L988.7 781.4L990 798.1L991.3 691.9L992.7 698L994 805.7L995.3 809.8L996.7 765.7L998 520.4L999.3 795.6L1000.7 796L1002 796.8L1003.3 728L1004.7 735.8L1006 775.7L1007.3 795.6L1008.7 539.1L1010 795.1L1011.3 801.9L1012.7 761.9L1014 712.8L1015.3 799.2L1016.7 808.3L1018 810.2L1019.3 553.4L1020.7 793.1L1022 780.5L1023.3 801L1024.7 727.1L1026 803L1027.3 804.4L1028.7 794.3L1030 557L1031.3 783.5L1032.7 798.7L1034 793.9L1035.3 699.2L1036.7 798.4L1038 808.5L1039.3 743.8L1040.7 529.3L1042 795.9L1043.3 797.1L1044.7 783.5L1046 676.9L1047.3 771.9L1048.7 796.7L1050 793.6L1051.3 563.3L1052.7 781.3L1054 801.5L1055.3 770.6L1056.7 729.5L1058 810.7L1059.3 794.3L1060.7 797.3L1062 517.7L1063.3 687.3L1064.7 778.9L1066 803L1067.3 718.1L1068.7 790.7L1070 803.4L1071.3 799.4L1072.7 428.4L1074 794L1075.3 792.3L1076.7 781.8L1078 705.1L1079.3 809L1080.7 777.2L1082 793.5L1083.3 517.2L1084.7 783.5L1086 789.3L1087.3 798L1088.7 690.1L1090 803.7L1091.3 799L1092.7 798.6L1094 552.3L1095.3 803L1096.7 754.9L1098 796.9L1099.3 706L1100.7 794L1102 799.7L1103.3 788.3L1104.7 541.3L1106 781.3L1107.3 795.1L1108.7 796.2L1110 722.1L1111.3 800.4L1112.7 789.5L1114 810.4L1115.3 547L1116.7 785.6L1118 797.3L1119.3 794.5L1120.7 710.8L1122 781.9L1123.3 807.2L1124.7 788.7L1126 542.3L1127.3 790L1128.7 805.5L1130 790.2L1131.3 715.9L1132.7 792.5L1134 804.8L1135.3 799.7L1136.7 544.2L1138 677.8L1139.3 756.7L1140.7 754L1142 711.9L1143.3 793.6L1144.7 796.9L1146 802.6L1147.3 481.7L1148.7 798.1L1150 784.5L1151.3 802.5L1152.7 725L1154 801.7L1155.3 798.3L1156.7 778.4L1158 523L1159.3 790.4L1160.7 794.1L1162 805.7L1163.3 713.9L1164.7 808.5L1166 810.7L1167.3 796.7L1168.7 543.9L1170 789.5L1171.3 794.1L1172.7 787.5L1174 711.3L1175.3 768.7L1176.7 792.2L1178 777.4L1179.3 559.7L1180.7 800.6L1182 797.1L1183.3 710.1L1184.7 705.4L1186 790.9L1187.3 802L1188.7 787.8L1190 494.5L1191.3 791L1192.7 783.5L1194 790.7L1195.3 704.6L1196.7 793.8L1198 792.2L1199.3 806.4L1200.7 558.1L1202 791.4L1203.3 792.5L1204.7 785.3L1206 708.7L1207.3 799.7L1208.7 798.6L1210 796.7L1211.3 523.3L1212.7 799.9L1214 789.8L1215.3 790.9L1216.7 707L1218 795.3L1219.3 765.9L1220.7 794.9L1222 551.2L1223.3 796.2L1224.7 800.3L1226 796.7L1227.3 679.7L1228.7 798.4L1230 803.6L1231.3 802.8L1232.7 565.2L1234 802.5L1235.3 804.2L1236.7 790.9L1238 718L1239.3 795L1240.7 799.9L1242 800L1243.3 529.2L1244.7 801L1246 775.6L1247.3 799.5L1248.7 721.8L1250 771.4L1251.3 793.5L1252.7 777.1L1254 543.4L1255.3 798.2L1256.7 789.4L1258 791.5L1259.3 729.7L1260.7 805.4L1262 776L1263.3 714.5L1264.7 540.6L1266 799.8L1267.3 799.1L1268.7 790.7L1270 581.7L1271.3 766.1L1272.7 795.1L1274 793.6L1275.3 529.2L1276.7 792.5L1278 798.7L1279.3 777L1280.7 708.5L1282 797.2L1283.3 797.7L1284.7 792.8L1286 556.5L1287.3 767.1L1288.7 791.9L1290 786.3L1291.3 719.7L1292.7 790.9L1294 787L1295.3 804.1L1296.7 547L1298 793.2L1299.3 797.1L1300.7 793.5L1302 689.7L1303.3 796.2L1304.7 761.4L1306 782.5L1307.3 557.5L1308.7 792.7L1310 797.7L1311.3 785.2L1312.7 689.9L1314 802.9L1315.3 796.3L1316.7 793.1L1318 556.7L1319.3 801.4L1320.7 761.5L1322 800.7L1323.3 722.6L1324.7 788.4L1326 806.5L1327.3 802.7L1328.7 520.4L1330 777.7L1331.3 794.6L1332.7 787.9L1334 702.8L1335.3 793.2L1336.7 795.6L1338 803.6L1339.3 503.8L1340.7 798.9L1342 811L1343.3 795.7L1344.7 702.5L1346 798.3L1347.3 787.4L1348.7 808.4L1350 539.9L1351.3 783.5L1352.7 803.2L1354 736.5L1355.3 711L1356.7 782.7L1358 797L1359.3 798.6L1360.7 550.2L1362 798.5L1363.3 790.2L1364.7 776.1L1366 729L1367.3 791.1L1368.7 796.7L1370 807.3L1371.3 370.6L1372.7 764.1L1374 780.3L1375.3 803.3L1376.7 718.4L1378 795.1L1379.3 781.5L1380.7 797.1L1382 508.3L1383.3 802L1384.7 796.9L1386 791.9L1387.3 681.7L1388.7 794.1L1390 810.5L1391.3 781.8L1392.7 540L1394 780.9L1395.3 765.6L1396.7 791.3L1398 718.4L1399.3 793.2L1400.7 793.2L1402 806.4L1403.3 380.4L1404.7 782L1406 787.5L1407.3 789.3L1408.7 717.6L1410 798.1L1411.3 797.9L1412.7 786L1414 510.1L1415.3 797.9L1416.7 794.6L1418 792.4L1419.3 711.7L1420.7 773.1L1422 803.9L1423.3 809L1424.7 547.5L1426 799.5L1427.3 769.8L1428.7 783.7L1430 731.8L1431.3 798.3L1432.7 803.4L1434 807.2L1435.3 560.2L1436.7 788.6L1438 781.2L1439.3 729.5L1440.7 708.8L1442 795.2L1443.3 800.6L1444.7 810.4L1446 539.1L1447.3 792.2L1448.7 797.3L1450 795.6L1451.3 699.3L1452.7 802.1L1454 769.9L1455.3 771.6L1456.7 556.2L1458 793.8L1459.3 809.9L1460.7 789.7L1462 686.9L1463.3 808.2L1464.7 807.9L1466 803.5L1467.3 558.3L1468.7 788.2L1470 791.4L1471.3 775.3L1472.7 728.5L1474 807.5L1475.3 802L1476.7 798.7L1478 545.6L1479.3 798.8L1480.7 759.5L1482 792.6L1483.3 708.7L1484.7 804.4L1486 810.1L1487.3 810.3L1488.7 555.5L1490 776.2L1491.3 781.2L1492.7 791.9L1494 729.8L1495.3 799.3L1496.7 793.5L1498 805.2L1499.3 509.5L1500.7 795.3L1502 794.9L1503.3 789.4L1504.7 699.3L1506 786.9L1507.3 758.5L1508.7 795.3L1510 534.8L1511.3 610.4L1512.7 799.3L1514 770.8L1515.3 694.3L1516.7 779.1L1518 808.1L1519.3 798.9L1520.7 551.6L1522 796.8L1523.3 781.4L1524.7 772.1L1526 715.7L1527.3 788.4L1528.7 792L1530 797L1531.3 542.3L1532.7 779.6L1534 783.8L1535.3 790.7L1536.7 722.8L1538 801.3L1539.3 795.7L1540.7 809L1542 493.3L1543.3 790L1544.7 795.1L1546 793.7L1547.3 721.8L1548.7 786L1550 775L1551.3 788.1L1552.7 555.3L1554 786.1L1555.3 786.2L1556.7 784.2L1558 674.5L1559.3 804L1560.7 767.8L1562 800.3L1563.3 558.1L1564.7 798.8L1566 779.5L1567.3 788L1568.7 704.9L1570 787.3L1571.3 796.2L1572.7 799.9L1574 544.9L1575.3 772.9L1576.7 792L1578 795.5L1579.3 725.4L1580.7 810.9L1582 809.3L1583.3 803.3L1584.7 546L1586 782.5L1587.3 789.8L1588.7 786.9L1590 709.3L1591.3 795.7L1592.7 805.1L1594 771.1L1595.3 525.7L1596.7 798.8L1598 802L1599.3 803.1L1600.7 715.1L1602 775.1L1603.3 776.6L1604.7 796.6L1606 534.4L1607.3 787.4L1608.7 793.6L1610 764.4L1611.3 692.3L1612.7 785.9L1614 795.9L1615.3 801.6L1616.7 542.9L1618 798.2L1619.3 772.3L1620.7 799.7L1622 707.9L1623.3 790.6L1624.7 799.7L1626 789.8L1627.3 490.2L1628.7 787.2L1630 800.5L1631.3 790.8L1632.7 713.5L1634 806.8L1635.3 810L1636.7 775.5L1638 526.3L1639.3 794L1640.7 797.8L1642 785.3L1643.3 704.3L1644.7 779.3L1646 795.3L1647.3 802.9L1648.7 567.6L1650 797.1L1651.3 802.5L1652.7 785.1L1654 719.3L1655.3 801.9L1656.7 803.3L1658 811.3L1659.3 549.3L1660.7 775.8L1662 789.8L1663.3 799.3L1664.7 719.1L1666 797.8L1667.3 804.2L1668.7 808.5L1670 544.5L1671.3 784.3L1672.7 793.3L1674 802L1675.3 704.8L1676.7 780.9L1678 788.7L1679.3 792L1680.7 557.4L1682 794.1L1683.3 789.7L1684.7 805.7L1686 703.5L1687.3 792L1688.7 808.6L1690 795.8L1691.3 554.7L1692.7 787.9L1694 660.8L1695.3 777.2L1696.7 707.2L1698 799.3L1699.3 787.2L1700.7 783L1702 554.8L1703.3 695.6L1704.7 796.8L1706 786.2L1707.3 727.9L1708.7 803.1L1710 800.7L1711.3 709.6L1712.7 538.9L1714 784.5L1715.3 791.6L1716.7 796.2L1718 669.8L1719.3 788.5L1720.7 811.4L1722 809.9L1723.3 556.9L1724.7 795.5L1726 799.8L1727.3 786.3L1728.7 705.8L1730 768.4L1731.3 766.7L1732.7 811.4L1734 499.4L1735.3 751.8L1736.7 780.6L1738 791L1739.3 715.9L1740.7 800.9L1742 803L1743.3 797.8L1744.7 531.2L1746 791.1L1747.3 780.3L1748.7 786.3L1750 716.8L1751.3 765.9L1752.7 793.1L1754 789.8L1755.3 542.3L1756.7 792.6L1758 663.3L1759.3 769.5L1760.7 690.7L1762 795.3L1763.3 812.5L1764.7 811.6L1766 541.4L1767.3 780.4L1768.7 770.6L1770 792.4L1771.3 730.4L1772.7 806.7L1774 808.9L1775.3 809L1776.7 504.5L1778 799L1779.3 762.3L1780.7 797.6L1782 724L1783.3 800L1784.7 771.5L1786 778.8L1787.3 541L1788.7 805.2L1790 790.6L1791.3 797.7L1792.7 703.4L1794 797.1L1795.3 795.2L1796.7 804.1L1798 536.8L1799.3 794.1" fill="transparent" stroke="#3fb1e3" stroke-width="3" stroke-linejoin="bevel" class="zr28-cls-86"></path>
</g>
<g clip-path="url(#zr28-c1)">
<path d="M200.7 259.1L202 579L203.3 605.6L204.7 775.2L206 783.2L207.3 805.2L208.7 540L210 745L211.3 803.8L212.7 794.5L214 720.6L215.3 755.4L216.7 752.4L218 797.5L219.3 550.7L220.7 801.2L222 779.9L223.3 791.4L224.7 686.9L226 797.9L227.3 801.6L228.7 797.7L230 533.6L231.3 783.1L232.7 795.1L234 805.3L235.3 704.1L236.7 796.4L238 798.4L239.3 788.8L240.7 539.6L242 800.9L243.3 786.3L244.7 798.8L246 708.3L247.3 746.5L248.7 789.3L250 802.8L251.3 562.5L252.7 796.7L254 785.8L255.3 797L256.7 664.4L258 786.7L259.3 789.7L260.7 794.6L262 535.7L263.3 778.8L264.7 773.8L266 778.5L267.3 697.9L268.7 792.4L270 800.7L271.3 785.1L272.7 545.6L274 775.4L275.3 781.9L276.7 800.9L278 703.1L279.3 798.1L280.7 777.7L282 647.5L283.3 536.5L284.7 794.8L286 786.4L287.3 766L288.7 697.5L290 785L291.3 798.6L292.7 792.4L294 551.5L295.3 782.7L296.7 775.7L298 774.6L299.3 712.8L300.7 789.6L302 799.6L303.3 791.1L304.7 540.9L306 787.8L307.3 774.5L308.7 788.2L310 695.9L311.3 795.7L312.7 796.3L314 786.9L315.3 537.5L316.7 780L318 778.8L319.3 794.1L320.7 729.1L322 800.7L323.3 799.2L324.7 776.4L326 549.1L327.3 787.7L328.7 779.4L330 792.4L331.3 721.4L332.7 779.9L334 781.4L335.3 806.5L336.7 540.7L338 787.7L339.3 786.7L340.7 792.1L342 716L343.3 798L344.7 792.6L346 802.5L347.3 524.4L348.7 790.5L350 789L351.3 780.5L352.7 705.4L354 799.7L355.3 795.1L356.7 785.4L358 551.2L359.3 786.2L360.7 778.8L362 800.3L363.3 701.7L364.7 802.3L366 799.9L367.3 784.6L368.7 531.4L370 790.8L371.3 798.6L372.7 790.7L374 709.5L375.3 798.9L376.7 805.2L378 807.8L379.3 552.4L380.7 782L382 777.7L383.3 784.6L384.7 718.2L386 795.1L387.3 806.7L388.7 804.5L390 554L391.3 785.3L392.7 795.4L394 800.9L395.3 707.4L396.7 793L398 784L399.3 798.1L400.7 537.5L402 776.5L403.3 789.3L404.7 788L406 704.7L407.3 807.6L408.7 774.8L410 803.6L411.3 549.7L412.7 801.1L414 783.3L415.3 778.2L416.7 644.2L418 786.9L419.3 791.3L420.7 800L422 548L423.3 788.8L424.7 765.6L426 762L427.3 697.6L428.7 785.6L430 796.2L431.3 795.2L432.7 438.3L434 744.8L435.3 758.6L436.7 774.4L438 635.1L439.3 739.9L440.7 790.3L442 785.6L443.3 513.5L444.7 782.7L446 735.5L447.3 787.7L448.7 676.4L450 777.7L451.3 795.1L452.7 799.4L454 424.9L455.3 739.1L456.7 760.3L458 787.6L459.3 703L460.7 749.2L462 791.5L463.3 789.5L464.7 550.6L466 788L467.3 779.4L468.7 780.9L470 707.5L471.3 802.5L472.7 787.7L474 800.4L475.3 533.6L476.7 776.5L478 796.5L479.3 802.8L480.7 728.9L482 804.5L483.3 653.6L484.7 768.5L486 548.6L487.3 765.7L488.7 795.7L490 794.6L491.3 660.1L492.7 801.4L494 803.2L495.3 808.6L496.7 541.2L498 796.2L499.3 786.4L500.7 801L502 711.9L503.3 796.7L504.7 791.9L506 804.8L507.3 537.5L508.7 768.4L510 800.6L511.3 795.9L512.7 689.6L514 800.3L515.3 797.8L516.7 803L518 411.3L519.3 795L520.7 786.3L522 784.1L523.3 705.2L524.7 770.8L526 790.9L527.3 804.3L528.7 483.1L530 791.3L531.3 797.9L532.7 793.7L534 714.6L535.3 805.8L536.7 799.3L538 785.9L539.3 552.1L540.7 801.8L542 795.1L543.3 797.6L544.7 649.9L546 783.4L547.3 807.5L548.7 809.3L550 553.4L551.3 802.6L552.7 763.5L554 782.9L555.3 694.5L556.7 798.1L558 795.2L559.3 809.1L560.7 563.4L562 796.2L563.3 785.7L564.7 799.8L566 695.4L567.3 803.8L568.7 797.1L570 801.1L571.3 538.1L572.7 788.9L574 792.7L575.3 801.8L576.7 718.7L578 792.4L579.3 795.7L580.7 797.3L582 523.4L583.3 795.9L584.7 797.4L586 782.5L587.3 721.4L588.7 794L590 708.4L591.3 785.6L592.7 506.9L594 809.6L595.3 793.9L596.7 796.2L598 714.4L599.3 786.8L600.7 814.9L602 802.1L603.3 537L604.7 800.4L606 806.2L607.3 774.5L608.7 732.2L610 802.1L611.3 803.8L612.7 799.7L614 556.9L615.3 774.7L616.7 789.5L618 790.6L619.3 714.9L620.7 798.3L622 797.1L623.3 800.8L624.7 516.9L626 791.3L627.3 796.9L628.7 798.5L630 714.1L631.3 786.1L632.7 798.1L634 749.4L635.3 546.7L636.7 795.3L638 793.9L639.3 798.7L640.7 702.2L642 773.4L643.3 782.4L644.7 796.5L646 560L647.3 797L648.7 796.7L650 794.4L651.3 688.8L652.7 803.4L654 812L655.3 805.7L656.7 545.4L658 803.3L659.3 767.5L660.7 775.1L662 711L663.3 782.1L664.7 799.3L666 797.2L667.3 563.2L668.7 783.4L670 791.9L671.3 795.9L672.7 708.9L674 803.4L675.3 810.9L676.7 804.6L678 536.5L679.3 778.2L680.7 802.4L682 803.3L683.3 727.9L684.7 801.4L686 790.9L687.3 788.1L688.7 543.2L690 794.9L691.3 797L692.7 784L694 691.3L695.3 799.3L696.7 803L698 806.5L699.3 568.4L700.7 790.9L702 788.2L703.3 777.1L704.7 724.7L706 802.6L707.3 802L708.7 808.4L710 541L711.3 756.7L712.7 800.8L714 788.7L715.3 711.7L716.7 803L718 799L719.3 796.7L720.7 535.9L722 802L723.3 779L724.7 805.3L726 713.9L727.3 662.8L728.7 781.1L730 805.9L731.3 528.4L732.7 770.9L734 802.3L735.3 742.4L736.7 695.2L738 805.7L739.3 815.5L740.7 811.5L742 550.1L743.3 793.5L744.7 786.2L746 800L747.3 721.4L748.7 797.2L750 806.1L751.3 801.6L752.7 568.8L754 783.3L755.3 787L756.7 800.4L758 700.3L759.3 804.6L760.7 802.8L762 809.4L763.3 549.4L764.7 794.6L766 790.9L767.3 784.6L768.7 724.6L770 793.9L771.3 793.7L772.7 797L774 530.8L775.3 804.3L776.7 801.5L778 808.6L779.3 676.6L780.7 798.2L782 795.7L783.3 801.6L784.7 561.4L786 795L787.3 782.4L788.7 794.4L790 712.9L791.3 795.1L792.7 803.4L794 800.2L795.3 548.6L796.7 738.6L798 799.6L799.3 785.7L800.7 730.5L802 809.5L803.3 792.5L804.7 777.4L806 534.4L807.3 797.2L808.7 788.3L810 774.4L811.3 709.5L812.7 792L814 794.1L815.3 808.2L816.7 516.7L818 783.5L819.3 782.5L820.7 793.1L822 717.1L823.3 783.9L824.7 801.5L826 815.3L827.3 548.3L828.7 785.6L830 793.5L831.3 787L832.7 697.9L834 795.2L835.3 802.5L836.7 806.6L838 493.3L839.3 794.8L840.7 797.2L842 805.8L843.3 720.8L844.7 798.2L846 801.8L847.3 790.2L848.7 551.6L850 791.4L851.3 794.7L852.7 804.5L854 725.2L855.3 726.4L856.7 779.9L858 781.9L859.3 561.2L860.7 805.1L862 806L863.3 788.5L864.7 698.3L866 797.9L867.3 809.1L868.7 804.4L870 557L871.3 787.4L872.7 759.2L874 779.8L875.3 699.1L876.7 793.5L878 787.6L879.3 789.2L880.7 555.8L882 773.2L883.3 798.3L884.7 796.1L886 700.9L887.3 799.3L888.7 799.3L890 791L891.3 533.8L892.7 771.6L894 793.9L895.3 800.7L896.7 725.6L898 804.6L899.3 796L900.7 784.4L902 535.5L903.3 788.3L904.7 788.5L906 798.3L907.3 685.4L908.7 764.5L910 801.1L911.3 801.7L912.7 540.6L914 804.8L915.3 796.7L916.7 787.7L918 696.4L919.3 800.4L920.7 797.1L922 803.6L923.3 540.4L924.7 799.9L926 785.9L927.3 794L928.7 696.5L930 797.5L931.3 804.4L932.7 801.5L934 544.4L935.3 788.8L936.7 801.2L938 789.4L939.3 715.6L940.7 790.1L942 795.1L943.3 809L944.7 548.4L946 805.7L947.3 805.1L948.7 794.2L950 711.5L951.3 777.1L952.7 800.6L954 806.2L955.3 549.9L956.7 796.5L958 801.5L959.3 798.6L960.7 697.1L962 808.5L963.3 806.6L964.7 811L966 559.3L967.3 784L968.7 780.3L970 794.9L971.3 709.6L972.7 813.3L974 808.9L975.3 806.3L976.7 538.9L978 782.3L979.3 796.8L980.7 799.7L982 727.5L983.3 801.9L984.7 785.8L986 809.9L987.3 544.5L988.7 790.4L990 803.2L991.3 790.3L992.7 731.4L994 791.4L995.3 806.9L996.7 802.5L998 522.8L999.3 790.5L1000.7 793.2L1002 790.4L1003.3 705.1L1004.7 797.2L1006 797.5L1007.3 799.8L1008.7 566.2L1010 798.9L1011.3 787.4L1012.7 798.8L1014 691.7L1015.3 799.3L1016.7 813.3L1018 812.8L1019.3 510.3L1020.7 780.4L1022 806.2L1023.3 800.5L1024.7 723.4L1026 797.5L1027.3 799.8L1028.7 770.7L1030 534.9L1031.3 777.5L1032.7 795.6L1034 803L1035.3 668.5L1036.7 790.9L1038 801.5L1039.3 805.6L1040.7 562.3L1042 798.3L1043.3 799L1044.7 774.7L1046 722.3L1047.3 803.6L1048.7 810L1050 816.1L1051.3 551.3L1052.7 678.8L1054 788.6L1055.3 800.5L1056.7 546.9L1058 789.4L1059.3 800.8L1060.7 798.3L1062 545.9L1063.3 790.3L1064.7 807.4L1066 791.2L1067.3 710.1L1068.7 796.1L1070 794.9L1071.3 808.9L1072.7 540L1074 775.9L1075.3 800.4L1076.7 776.7L1078 690L1079.3 802.8L1080.7 809.4L1082 809.1L1083.3 561.6L1084.7 804.6L1086 778.7L1087.3 780.9L1088.7 727.7L1090 812.8L1091.3 808.8L1092.7 809.1L1094 559.4L1095.3 776.8L1096.7 785.3L1098 794.8L1099.3 730.5L1100.7 805.4L1102 806.5L1103.3 810.3L1104.7 544.6L1106 784.7L1107.3 792.9L1108.7 779.3L1110 714.2L1111.3 677.3L1112.7 788.2L1114 800.5L1115.3 564.4L1116.7 806.8L1118 792.6L1119.3 666.5L1120.7 704.3L1122 793.4L1123.3 805.9L1124.7 799.8L1126 577L1127.3 798.8L1128.7 780L1130 800.6L1131.3 732.5L1132.7 813.3L1134 814.3L1135.3 814.9L1136.7 564.6L1138 792.5L1139.3 781.4L1140.7 796L1142 711.6L1143.3 797.7L1144.7 809.8L1146 794.2L1147.3 532.4L1148.7 806.8L1150 791.4L1151.3 798.3L1152.7 726.3L1154 807.9L1155.3 723.5L1156.7 793.6L1158 515.5L1159.3 799.3L1160.7 793.8L1162 791.5L1163.3 690.4L1164.7 783.5L1166 770.3L1167.3 799.1L1168.7 562.9L1170 798L1171.3 797L1172.7 770.7L1174 717.5L1175.3 805.4L1176.7 796.6L1178 796.2L1179.3 557.4L1180.7 800.8L1182 784L1183.3 792.1L1184.7 728.1L1186 798.8L1187.3 805.3L1188.7 806.7L1190 522.7L1191.3 783.8L1192.7 785.7L1194 786.9L1195.3 724.4L1196.7 798.2L1198 797.6L1199.3 801.6L1200.7 520.7L1202 788.8L1203.3 791.5L1204.7 783.5L1206 709.9L1207.3 798.3L1208.7 807.4L1210 784.8L1211.3 544.1L1212.7 794.3L1214 781.9L1215.3 806.9L1216.7 723L1218 779.4L1219.3 788.5L1220.7 796.9L1222 546.3L1223.3 782.7L1224.7 773.9L1226 767.5L1227.3 690.6L1228.7 795.1L1230 800.8L1231.3 810.1L1232.7 549.6L1234 785.9L1235.3 785.1L1236.7 785.8L1238 724.8L1239.3 795.1L1240.7 794.2L1242 799.3L1243.3 555.2L1244.7 791.3L1246 780.4L1247.3 792.6L1248.7 714L1250 808.9L1251.3 799.5L1252.7 802.5L1254 512.3L1255.3 792.3L1256.7 798.5L1258 788.3L1259.3 714.2L1260.7 801.3L1262 788.3L1263.3 786.7L1264.7 523.5L1266 799.2L1267.3 801.5L1268.7 785.1L1270 704.7L1271.3 798.5L1272.7 788.6L1274 798.9L1275.3 546L1276.7 796.6L1278 767.3L1279.3 780.2L1280.7 710.1L1282 802.6L1283.3 810.4L1284.7 808.9L1286 556.8L1287.3 779.3L1288.7 795.2L1290 784.6L1291.3 730.7L1292.7 809.5L1294 801.6L1295.3 809.5L1296.7 518.5L1298 794.6L1299.3 801L1300.7 787.1L1302 722L1303.3 792.6L1304.7 783.5L1306 800.8L1307.3 532L1308.7 796.2L1310 792.3L1311.3 794.6L1312.7 691.4L1314 776.6L1315.3 813.6L1316.7 808.3L1318 524L1319.3 802.5L1320.7 776.1L1322 783.4L1323.3 730.2L1324.7 799.2L1326 808.9L1327.3 809.3L1328.7 514.8L1330 784L1331.3 811.5L1332.7 799.5L1334 731.8L1335.3 798L1336.7 793.5L1338 812.8L1339.3 530.7L1340.7 801.4L1342 801.3L1343.3 791.4L1344.7 689.6L1346 805.3L1347.3 789.3L1348.7 810L1350 538.1L1351.3 757.1L1352.7 789.3L1354 799.3L1355.3 699.9L1356.7 808.2L1358 788.7L1359.3 796.4L1360.7 534.8L1362 805.6L1363.3 759.2L1364.7 783.4L1366 718.2L1367.3 810.9L1368.7 790.3L1370 806L1371.3 565L1372.7 795.2L1374 806.8L1375.3 799.1L1376.7 717.9L1378 792L1379.3 796.5L1380.7 669.5L1382 542.9L1383.3 779L1384.7 790.5L1386 792.7L1387.3 732.2L1388.7 775.5L1390 799.9L1391.3 806.2L1392.7 558.2L1394 800.1L1395.3 800.5L1396.7 763.6L1398 716L1399.3 786.2L1400.7 795.9L1402 800.7L1403.3 532.2L1404.7 776L1406 789.4L1407.3 793.1L1408.7 701.2L1410 810.5L1411.3 794L1412.7 800.8L1414 502.8L1415.3 746.6L1416.7 782.9L1418 806.1L1419.3 722.3L1420.7 803.6L1422 777.2L1423.3 791.4L1424.7 540.2L1426 798.6L1427.3 797.5L1428.7 806.9L1430 688.9L1431.3 788.4L1432.7 803.2L1434 812.1L1435.3 561.5L1436.7 797.6L1438 765.6L1439.3 792.6L1440.7 695.9L1442 781.5L1443.3 800.9L1444.7 816.8L1446 521.1L1447.3 772.4L1448.7 766.7L1450 803.5L1451.3 719.1L1452.7 804.1L1454 795.9L1455.3 726.4L1456.7 543.8L1458 793.2L1459.3 760.5L1460.7 791.6L1462 564.7L1463.3 792.6L1464.7 814L1466 810.8L1467.3 484.8L1468.7 802.2L1470 794.8L1471.3 752.6L1472.7 690.1L1474 798.9L1475.3 792.1L1476.7 796.1L1478 536.5L1479.3 780.2L1480.7 775.8L1482 792.3L1483.3 724.3L1484.7 803.4L1486 805.5L1487.3 804.6L1488.7 539.1L1490 781.4L1491.3 792.6L1492.7 805.2L1494 708.2L1495.3 791.3L1496.7 807.5L1498 795.7L1499.3 432.3L1500.7 781L1502 797.9L1503.3 794.4L1504.7 707.6L1506 808.3L1507.3 788.5L1508.7 784.9L1510 544.8L1511.3 784.4L1512.7 805.8L1514 792.2L1515.3 697.9L1516.7 798.3L1518 799.3L1519.3 789.4L1520.7 555.6L1522 806.3L1523.3 807.7L1524.7 800.5L1526 702.6L1527.3 772.5L1528.7 785.3L1530 801.9L1531.3 559.1L1532.7 797.6L1534 688.3L1535.3 775.1L1536.7 723.2L1538 802.5L1539.3 787.7L1540.7 797.4L1542 527.5L1543.3 753.3L1544.7 787.3L1546 799.3L1547.3 702.2L1548.7 795.4L1550 804.9L1551.3 798.8L1552.7 468.9L1554 782.5L1555.3 787L1556.7 797.1L1558 730.4L1559.3 791.4L1560.7 802.2L1562 780.2L1563.3 539.9L1564.7 790.4L1566 788.6L1567.3 794.2L1568.7 608.6L1570 787.8L1571.3 798.2L1572.7 806.2L1574 566.5L1575.3 787.5L1576.7 799.6L1578 764L1579.3 704.3L1580.7 792.6L1582 789.7L1583.3 795.2L1584.7 547.2L1586 799L1587.3 784.5L1588.7 799.3L1590 734.4L1591.3 811.8L1592.7 786.4L1594 792L1595.3 553.3L1596.7 761.9L1598 794.4L1599.3 778.3L1600.7 712.9L1602 800.3L1603.3 779.6L1604.7 799.8L1606 553.3L1607.3 776.2L1608.7 781.4L1610 787.4L1611.3 648.6L1612.7 764.5L1614 807L1615.3 804.6L1616.7 536.5L1618 800.4L1619.3 802.6L1620.7 788.3L1622 683.3L1623.3 810.4L1624.7 810L1626 802.4L1627.3 562.7L1628.7 805.9L1630 800L1631.3 785.7L1632.7 693.9L1634 785.6L1635.3 809.2L1636.7 799.9L1638 456.8L1639.3 796.7L1640.7 808L1642 768L1643.3 696.4L1644.7 793.8L1646 805.2L1647.3 796.2L1648.7 546.4L1650 793.1L1651.3 800.6L1652.7 780L1654 709.6L1655.3 770.1L1656.7 804.8L1658 801L1659.3 551.2L1660.7 800.1L1662 808.2L1663.3 775L1664.7 720.2L1666 800.2L1667.3 797.2L1668.7 794.9L1670 542.8L1671.3 789.1L1672.7 783.3L1674 793L1675.3 724.6L1676.7 796.9L1678 805L1679.3 802.9L1680.7 520.3L1682 779.2L1683.3 796.9L1684.7 793.5L1686 694.2L1687.3 821.5L1688.7 810.5L1690 802.7L1691.3 553.2L1692.7 783.5L1694 792L1695.3 799.9L1696.7 734.9L1698 784.8L1699.3 803.1L1700.7 808.7L1702 527.3L1703.3 793L1704.7 778.2L1706 773.5L1707.3 723.4L1708.7 804.9L1710 777.8L1711.3 801.7L1712.7 553.7L1714 737.9L1715.3 786.1L1716.7 781.5L1718 708.7L1719.3 800.4L1720.7 801.3L1722 811.2L1723.3 557L1724.7 797.9L1726 764L1727.3 803L1728.7 730.2L1730 801.5L1731.3 792L1732.7 801.5L1734 539.8L1735.3 785.3L1736.7 805.8L1738 799.8L1739.3 704.2L1740.7 789.8L1742 809.7L1743.3 806L1744.7 528.6L1746 804.1L1747.3 793L1748.7 802.7L1750 713.1L1751.3 798.3L1752.7 810.4L1754 797.7L1755.3 529.1L1756.7 784.6L1758 796.4L1759.3 792.5L1760.7 725.3L1762 799.7L1763.3 803.4L1764.7 790.3L1766 544.2L1767.3 791.4L1768.7 791.8L1770 803.6L1771.3 706.7L1772.7 784.4L1774 787.2L1775.3 808.9L1776.7 547L1778 800.7L1779.3 794.1L1780.7 613L1782 696.6L1783.3 772.5L1784.7 794L1786 800.4L1787.3 544.4L1788.7 740.8L1790 760.9L1791.3 802.5L1792.7 724.4L1794 792.9L1795.3 801L1796.7 799.6L1798 554.4L1799.3 783.8" fill="transparent" stroke="#6be6c1" stroke-width="3" stroke-linejoin="bevel" class="zr28-cls-86"></path>
</g>
<g clip-path="url(#zr28-c2)">
<path d="M200.7 181.2L202 730.7L203.3 690.5L204.7 791.7L206 795.3L207.3 804.3L208.7 541.2L210 786.2L211.3 796.5L212.7 799.1L214 710.2L215.3 801.6L216.7 796.2L218 793.1L219.3 519.7L220.7 796.2L222 798.1L223.3 803.8L224.7 714.3L226 803.7L227.3 741L228.7 785L230 570.4L231.3 790.7L232.7 786.8L234 798.6L235.3 723.3L236.7 805.1L238 738.4L239.3 799.6L240.7 562.3L242 778.6L243.3 794.8L244.7 795.6L246 714.1L247.3 804.5L248.7 790.3L250 788.7L251.3 556.8L252.7 785.9L254 773.8L255.3 785.9L256.7 723.6L258 811L259.3 786.7L260.7 786.7L262 549.3L263.3 668.5L264.7 790L266 761.9L267.3 681.1L268.7 791.9L270 794.6L271.3 797.2L272.7 444.6L274 794.7L275.3 797.8L276.7 797.2L278 712.2L279.3 801.8L280.7 794.8L282 685.8L283.3 521.1L284.7 790.2L286 802.1L287.3 799.1L288.7 719.6L290 801.3L291.3 786.1L292.7 796.2L294 570.2L295.3 792.8L296.7 794L298 791.3L299.3 648.2L300.7 794.6L302 793.6L303.3 806.4L304.7 554.4L306 787.2L307.3 798.2L308.7 761.7L310 710.1L311.3 802.9L312.7 803.6L314 803.4L315.3 518.4L316.7 791.9L318 763.5L319.3 790.9L320.7 708.1L322 790.9L323.3 799L324.7 796.7L326 505.3L327.3 742.6L328.7 795L330 794.8L331.3 712.8L332.7 796.7L334 798.9L335.3 789.3L336.7 504L338 784.6L339.3 801.5L340.7 798.1L342 726L343.3 809.6L344.7 799.1L346 805.5L347.3 541.8L348.7 786.7L350 791.1L351.3 793.7L352.7 679.3L354 783L355.3 799.6L356.7 809.6L358 519.6L359.3 804.2L360.7 726.6L362 777.4L363.3 677.9L364.7 795.4L366 809.7L367.3 810.5L368.7 531.9L370 777.7L371.3 791.8L372.7 785.6L374 696.4L375.3 788.1L376.7 809.4L378 802.5L379.3 475.7L380.7 798.2L382 799.1L383.3 787L384.7 710.2L386 795.8L387.3 704.7L388.7 792.1L390 541.8L391.3 779.9L392.7 795.4L394 797.3L395.3 709.6L396.7 802L398 797.6L399.3 798.2L400.7 557.4L402 802.9L403.3 798.3L404.7 793L406 724.4L407.3 804.2L408.7 804.9L410 772.2L411.3 524L412.7 785.2L414 771.2L415.3 788.7L416.7 711L418 796.2L419.3 798.2L420.7 796.1L422 487.9L423.3 796.2L424.7 801L426 795.9L427.3 723.2L428.7 798.8L430 786.2L431.3 794.1L432.7 535L434 789.4L435.3 794.5L436.7 798.8L438 714.4L439.3 767.7L440.7 788.1L442 791.4L443.3 547.8L444.7 802.7L446 806.5L447.3 776.5L448.7 719.9L450 782.1L451.3 791.8L452.7 797.8L454 562.1L455.3 782.7L456.7 781.5L458 799.2L459.3 702.8L460.7 785.3L462 798.5L463.3 803.2L464.7 430.5L466 781.7L467.3 793L468.7 780.7L470 709.1L471.3 797.3L472.7 786.2L474 782.7L475.3 531.4L476.7 797.2L478 806.2L479.3 793.8L480.7 686.3L482 776.1L483.3 796.9L484.7 806.8L486 541.9L487.3 775.6L488.7 744.1L490 776.1L491.3 698L492.7 798.8L494 810.2L495.3 807.8L496.7 565.5L498 785.7L499.3 791.9L500.7 804.2L502 717.6L503.3 796.9L504.7 796.4L506 809.9L507.3 545.9L508.7 787.4L510 788L511.3 795.4L512.7 726L514 796.7L515.3 801.3L516.7 806.7L518 547.9L519.3 785.6L520.7 794.1L522 786.7L523.3 705.3L524.7 791.9L526 799.3L527.3 782.9L528.7 554.6L530 797.8L531.3 799.9L532.7 802.5L534 709.1L535.3 797L536.7 791.9L538 801.5L539.3 550.6L540.7 793.1L542 799.8L543.3 799.1L544.7 670.6L546 789.7L547.3 805.2L548.7 803.2L550 566.2L551.3 787.1L552.7 790.9L554 796.7L555.3 702.5L556.7 794.9L558 799L559.3 798.6L560.7 531.8L562 791.4L563.3 780.9L564.7 794.5L566 719.6L567.3 800.6L568.7 790.4L570 798.5L571.3 523.9L572.7 781.3L574 789.1L575.3 791.3L576.7 698.6L578 791.9L579.3 796.2L580.7 793.1L582 554.9L583.3 755.8L584.7 797.2L586 800.3L587.3 708.3L588.7 799.6L590 791.2L591.3 797.5L592.7 524.8L594 779.4L595.3 792.5L596.7 785.1L598 721.4L599.3 763.7L600.7 777.7L602 811.5L603.3 503.7L604.7 791L606 791.3L607.3 671.3L608.7 681.9L610 795.5L611.3 793.1L612.7 810.4L614 554.4L615.3 802.1L616.7 788.9L618 782.7L619.3 700.6L620.7 774.7L622 794.8L623.3 804.7L624.7 560.9L626 773.4L627.3 784.5L628.7 786.8L630 707.8L631.3 804.3L632.7 797.7L634 797.1L635.3 495.1L636.7 790.2L638 789.4L639.3 785.8L640.7 725.2L642 792.5L643.3 792.9L644.7 782.1L646 552.2L647.3 789.7L648.7 782.1L650 797.5L651.3 710.1L652.7 759.2L654 797.1L655.3 817.3L656.7 580L658 801.6L659.3 802.2L660.7 793.8L662 697.9L663.3 797.1L664.7 798.1L666 800.4L667.3 512.1L668.7 786.3L670 775.6L671.3 748.4L672.7 701.7L674 796.7L675.3 800.4L676.7 805L678 539.6L679.3 764.4L680.7 797.1L682 785.1L683.3 722.8L684.7 801.1L686 799.9L687.3 802.7L688.7 516.9L690 780.9L691.3 794.2L692.7 788.7L694 700.5L695.3 790.9L696.7 766.5L698 776.2L699.3 545.4L700.7 798L702 795L703.3 791.3L704.7 670.1L706 785.2L707.3 801.8L708.7 795.7L710 543.9L711.3 783L712.7 771.8L714 787.7L715.3 726.8L716.7 792.8L718 798L719.3 808L720.7 552.6L722 780.9L723.3 792.5L724.7 800.6L726 731L727.3 791.6L728.7 798.8L730 803.6L731.3 550.7L732.7 787.3L734 799.1L735.3 791.4L736.7 715.8L738 803.1L739.3 782.8L740.7 799.2L742 535.2L743.3 797.1L744.7 812.4L746 800L747.3 667.3L748.7 794.3L750 804.8L751.3 810.4L752.7 559.2L754 795.1L755.3 781L756.7 757.2L758 717L759.3 808.4L760.7 783.8L762 802.2L763.3 566.6L764.7 681.7L766 786.2L767.3 795.6L768.7 730.6L770 806.8L771.3 807.7L772.7 810.5L774 402.7L775.3 781.3L776.7 789.1L778 792.5L779.3 733.2L780.7 812L782 796.6L783.3 783.2L784.7 526.2L786 788.5L787.3 794.5L788.7 766.2L790 729.4L791.3 791.2L792.7 792L794 792.2L795.3 564L796.7 791.9L798 795.4L799.3 767.2L800.7 720.1L802 801.5L803.3 804.9L804.7 798.8L806 553.4L807.3 783.6L808.7 757.9L810 791.1L811.3 710L812.7 802.1L814 808L815.3 788.4L816.7 509.5L818 773.8L819.3 787.7L820.7 792L822 708.7L823.3 804.4L824.7 797.7L826 767.6L827.3 549.5L828.7 786.6L830 795.5L831.3 793.8L832.7 718.3L834 794.8L835.3 756.3L836.7 770.3L838 521.8L839.3 793.6L840.7 801.5L842 779L843.3 706.4L844.7 785.4L846 787L847.3 787.2L848.7 531.9L850 799.9L851.3 787.3L852.7 801.6L854 691.1L855.3 780.4L856.7 797.5L858 799.4L859.3 524.4L860.7 795.1L862 798.9L863.3 793.5L864.7 716.5L866 792.3L867.3 805.6L868.7 780L870 549.1L871.3 806.5L872.7 783.1L874 781.4L875.3 728.6L876.7 799.8L878 804.6L879.3 794.7L880.7 565L882 744.4L883.3 795.9L884.7 799L886 720.2L887.3 792.9L888.7 791.4L890 777L891.3 539.1L892.7 766.4L894 797.8L895.3 789L896.7 714.8L898 790.8L899.3 789.8L900.7 795L902 532.9L903.3 788.4L904.7 791.6L906 798.4L907.3 703.5L908.7 796.6L910 765.6L911.3 783.8L912.7 558.9L914 795.9L915.3 789.9L916.7 793.9L918 619.8L919.3 785.4L920.7 805.5L922 806.6L923.3 560.5L924.7 773.2L926 795.1L927.3 777.5L928.7 712.8L930 800.4L931.3 802L932.7 805.1L934 543.6L935.3 800.4L936.7 778.8L938 800.7L939.3 704.4L940.7 770.4L942 795.8L943.3 804.2L944.7 546.9L946 768.3L947.3 787.6L948.7 793.1L950 711.5L951.3 795.3L952.7 806.3L954 796.4L955.3 517.3L956.7 791.3L958 793.1L959.3 790L960.7 710.6L962 799.7L963.3 763.4L964.7 805.4L966 532.7L967.3 790.3L968.7 796.1L970 798.8L971.3 698.4L972.7 780.6L974 809.8L975.3 806.7L976.7 514.8L978 802.3L979.3 801.1L980.7 775.1L982 721.8L983.3 793L984.7 802.1L986 798.6L987.3 576.1L988.7 797.6L990 781.5L991.3 796.3L992.7 716.6L994 789.5L995.3 802.9L996.7 800.5L998 562.7L999.3 786.2L1000.7 788.8L1002 790.7L1003.3 725.9L1004.7 807.8L1006 803.2L1007.3 812.2L1008.7 515.9L1010 778.8L1011.3 803.6L1012.7 794.1L1014 725.8L1015.3 798.6L1016.7 792.1L1018 803.4L1019.3 535.4L1020.7 794.3L1022 788.2L1023.3 805.9L1024.7 699.3L1026 775.8L1027.3 799.4L1028.7 801.7L1030 512.7L1031.3 790.9L1032.7 793.1L1034 775.1L1035.3 708.3L1036.7 805L1038 785.9L1039.3 798.9L1040.7 546.5L1042 659.9L1043.3 791.1L1044.7 786.2L1046 706.8L1047.3 796.3L1048.7 808.4L1050 803.4L1051.3 470.6L1052.7 791.7L1054 602.3L1055.3 676.5L1056.7 478.7L1058 717.8L1059.3 736.6L1060.7 715.2L1062 442.4L1063.3 655L1064.7 708.1L1066 726.5L1067.3 603.4L1068.7 760.7L1070 786.7L1071.3 795L1072.7 508.6L1074 727.1L1075.3 630.1L1076.7 763L1078 707.6L1079.3 802.8L1080.7 803.4L1082 806L1083.3 508.5L1084.7 800.9L1086 796.2L1087.3 801L1088.7 726.5L1090 779.8L1091.3 783.7L1092.7 801.5L1094 514.3L1095.3 799.2L1096.7 759.4L1098 765.9L1099.3 709.6L1100.7 786L1102 804.3L1103.3 796.6L1104.7 544.4L1106 795.1L1107.3 751.7L1108.7 791.7L1110 725.2L1111.3 789.9L1112.7 807.4L1114 806.5L1115.3 514.8L1116.7 793.1L1118 788.5L1119.3 794.6L1120.7 714.4L1122 774.1L1123.3 771.2L1124.7 789L1126 538.2L1127.3 783.9L1128.7 797L1130 793L1131.3 683.2L1132.7 780.5L1134 792.5L1135.3 781.7L1136.7 530.8L1138 803.4L1139.3 793L1140.7 777.6L1142 682L1143.3 796.1L1144.7 808.6L1146 793.5L1147.3 537.5L1148.7 785.1L1150 786L1151.3 789.4L1152.7 719.6L1154 798.9L1155.3 796.8L1156.7 788.1L1158 505.9L1159.3 785L1160.7 800.9L1162 792.5L1163.3 718.1L1164.7 785.1L1166 798.8L1167.3 769.4L1168.7 548.7L1170 784.8L1171.3 796.4L1172.7 797.9L1174 726.2L1175.3 796.4L1176.7 774.3L1178 795.7L1179.3 540.9L1180.7 778.1L1182 795.5L1183.3 789.3L1184.7 702.9L1186 798.8L1187.3 794L1188.7 801.4L1190 560.8L1191.3 798.8L1192.7 790.2L1194 778.3L1195.3 696.4L1196.7 798.2L1198 801.6L1199.3 792.2L1200.7 553.9L1202 749.3L1203.3 775.9L1204.7 785.8L1206 717.9L1207.3 803L1208.7 795.5L1210 810.1L1211.3 544.5L1212.7 781.9L1214 792.5L1215.3 803L1216.7 729.1L1218 801.5L1219.3 806.2L1220.7 800.4L1222 479.8L1223.3 777.4L1224.7 802.9L1226 792.2L1227.3 706.1L1228.7 791.9L1230 796L1231.3 769.5L1232.7 511.2L1234 788.6L1235.3 772.3L1236.7 798.6L1238 699.1L1239.3 782.6L1240.7 792L1242 767.4L1243.3 552.6L1244.7 772.9L1246 769.7L1247.3 772.3L1248.7 695.1L1250 798.3L1251.3 794.3L1252.7 793.1L1254 555.1L1255.3 795.5L1256.7 787.2L1258 788.9L1259.3 706.9L1260.7 794L1262 798.8L1263.3 796.6L1264.7 553.4L1266 785.4L1267.3 783L1268.7 779.3L1270 720L1271.3 793.1L1272.7 778.1L1274 779.8L1275.3 545.8L1276.7 784.8L1278 793L1279.3 798.5L1280.7 710.2L1282 799.8L1283.3 786.9L1284.7 801.8L1286 545.5L1287.3 762.2L1288.7 781L1290 763L1291.3 708.3L1292.7 792.4L1294 794.7L1295.3 802.5L1296.7 571.3L1298 796L1299.3 769.4L1300.7 782.3L1302 698.8L1303.3 781.5L1304.7 789.6L1306 802.6L1307.3 564.2L1308.7 784.9L1310 802.5L1311.3 793.5L1312.7 704L1314 795.1L1315.3 792.7L1316.7 799.6L1318 524.9L1319.3 774.7L1320.7 794.1L1322 804.2L1323.3 724.5L1324.7 802.5L1326 800.3L1327.3 785.1L1328.7 518.5L1330 792L1331.3 800.7L1332.7 797L1334 703.5L1335.3 795.1L1336.7 801.3L1338 802.5L1339.3 537L1340.7 792.8L1342 799.3L1343.3 753L1344.7 724.3L1346 805.3L1347.3 795.5L1348.7 808.4L1350 553.5L1351.3 802L1352.7 776.7L1354 793.5L1355.3 705.6L1356.7 796.2L1358 805.7L1359.3 802.6L1360.7 556.4L1362 779.6L1363.3 802.7L1364.7 801.8L1366 710.9L1367.3 792.4L1368.7 804.5L1370 806.7L1371.3 509.5L1372.7 794.6L1374 807.6L1375.3 794.2L1376.7 715.9L1378 771.6L1379.3 782.1L1380.7 802.7L1382 532.1L1383.3 804.1L1384.7 759.8L1386 737.1L1387.3 675.6L1388.7 797.2L1390 804.1L1391.3 800.5L1392.7 551.2L1394 777.7L1395.3 777.9L1396.7 787.2L1398 735.4L1399.3 813.6L1400.7 800.8L1402 811.6L1403.3 558.1L1404.7 784.9L1406 789.8L1407.3 797.9L1408.7 705L1410 790.9L1411.3 803.8L1412.7 802.7L1414 520.4L1415.3 796.1L1416.7 773.4L1418 801.3L1419.3 717.6L1420.7 791.6L1422 783L1423.3 804.4L1424.7 552.8L1426 797.2L1427.3 796.7L1428.7 796.9L1430 683.7L1431.3 794.9L1432.7 805.7L1434 790.5L1435.3 540.7L1436.7 767.5L1438 775.6L1439.3 798.3L1440.7 700.4L1442 802.5L1443.3 791.5L1444.7 800.1L1446 535.2L1447.3 777.2L1448.7 798.3L1450 792.1L1451.3 725.7L1452.7 807.5L1454 802.1L1455.3 813.3L1456.7 510.6L1458 784.5L1459.3 803.6L1460.7 790.9L1462 702.2L1463.3 742.1L1464.7 751.7L1466 792.2L1467.3 557.8L1468.7 793.9L1470 798.1L1471.3 793.2L1472.7 653.9L1474 783L1475.3 807L1476.7 801.8L1478 566.8L1479.3 798.8L1480.7 782.6L1482 778.3L1483.3 711.6L1484.7 795.9L1486 798.3L1487.3 804.7L1488.7 554L1490 790.2L1491.3 787.1L1492.7 789.2L1494 711.2L1495.3 796.2L1496.7 783.1L1498 789.6L1499.3 529.5L1500.7 783.2L1502 791.8L1503.3 795.2L1504.7 718.6L1506 801.1L1507.3 798.8L1508.7 810.3L1510 457.1L1511.3 776.8L1512.7 798.9L1514 794.1L1515.3 711.1L1516.7 801.7L1518 789.8L1519.3 656.8L1520.7 552.2L1522 785.2L1523.3 788.8L1524.7 795.2L1526 721.5L1527.3 793.2L1528.7 780.5L1530 798.3L1531.3 545L1532.7 787L1534 787.8L1535.3 794.2L1536.7 696.3L1538 775.4L1539.3 806.2L1540.7 812.7L1542 550.5L1543.3 802.5L1544.7 805.9L1546 772.7L1547.3 684.2L1548.7 791.7L1550 797.8L1551.3 805.7L1552.7 540.7L1554 794.8L1555.3 752L1556.7 752.2L1558 715.7L1559.3 803L1560.7 790.6L1562 804.1L1563.3 538.2L1564.7 806.4L1566 781.5L1567.3 791.4L1568.7 705.3L1570 786.8L1571.3 790.6L1572.7 798.2L1574 402.9L1575.3 778.2L1576.7 787L1578 798.8L1579.3 728.6L1580.7 794.7L1582 796.3L1583.3 798.3L1584.7 472.5L1586 788.4L1587.3 779.8L1588.7 798.8L1590 705.4L1591.3 796.1L1592.7 784L1594 769.6L1595.3 543.2L1596.7 791.2L1598 799.9L1599.3 791.8L1600.7 722.3L1602 757.1L1603.3 792.9L1604.7 797.2L1606 565L1607.3 794.6L1608.7 792.1L1610 782.4L1611.3 707.4L1612.7 795.1L1614 803.3L1615.3 804.6L1616.7 561.1L1618 781.5L1619.3 770.2L1620.7 757.2L1622 712.5L1623.3 811L1624.7 795.7L1626 810.3L1627.3 523.7L1628.7 776.6L1630 788.5L1631.3 794.4L1632.7 732.3L1634 802.1L1635.3 802.4L1636.7 678.6L1638 533L1639.3 794.9L1640.7 798.1L1642 800.8L1643.3 713.1L1644.7 758.7L1646 781.5L1647.3 790.7L1648.7 562.7L1650 793.7L1651.3 795.4L1652.7 792.6L1654 699L1655.3 771.5L1656.7 806.1L1658 803.4L1659.3 542.1L1660.7 794.1L1662 790.7L1663.3 804L1664.7 725.7L1666 792.3L1667.3 800.5L1668.7 735L1670 563L1671.3 779.9L1672.7 793.9L1674 800.2L1675.3 702.5L1676.7 797.2L1678 782.6L1679.3 807.4L1680.7 539L1682 791.2L1683.3 781.9L1684.7 791.6L1686 694.3L1687.3 799.9L1688.7 783.3L1690 794.6L1691.3 531.2L1692.7 800.6L1694 791.6L1695.3 795.2L1696.7 693.8L1698 793L1699.3 781.4L1700.7 804.1L1702 544.4L1703.3 796.1L1704.7 779.8L1706 776.5L1707.3 718.5L1708.7 793.4L1710 803.2L1711.3 802.5L1712.7 560.7L1714 704L1715.3 800.8L1716.7 801.6L1718 710.7L1719.3 783L1720.7 793L1722 806.9L1723.3 531.5L1724.7 793.5L1726 794.3L1727.3 786.6L1728.7 706.4L1730 796.6L1731.3 779.1L1732.7 790.9L1734 553.3L1735.3 790.3L1736.7 799.9L1738 800.7L1739.3 684.3L1740.7 801.1L1742 800.4L1743.3 804.8L1744.7 508L1746 803.2L1747.3 773.3L1748.7 806.2L1750 727L1751.3 798.8L1752.7 796.7L1754 811L1755.3 561.9L1756.7 792L1758 799.7L1759.3 791.9L1760.7 721.7L1762 804.1L1763.3 795.7L1764.7 803.1L1766 548.6L1767.3 800.4L1768.7 798.4L1770 787.5L1771.3 718.8L1772.7 800.5L1774 791.1L1775.3 800L1776.7 558L1778 779.1L1779.3 790.7L1780.7 777.2L1782 707.6L1783.3 790.9L1784.7 795.9L1786 792.7L1787.3 498.7L1788.7 795.1L1790 802.6L1791.3 785.3L1792.7 695.8L1794 796.6L1795.3 799.8L1796.7 795.8L1798 567.4L1799.3 796.2" fill="transparent" stroke="#626c91" stroke-width="3" stroke-linejoin="bevel" class="zr28-cls-86"></path>
</g>
<path d="M-274.3 -5l548.6 0l0 28l-548.6 0Z" transform="translate(1000 5)" fill="rgb(0,0,0)" fill-opacity="0" stroke="#ccc" stroke-width="0" class="zr28-cls-84"></path>
<text dominant-baseline="central" text-anchor="middle" style="font-size:18px;font-family:sans-serif;font-weight:bold;" xml:space="preserve" y="9" transform="translate(1000 5)" fill="#666666">controlBehaviorUpdate per Tick for bench_4_every_240_staggered</text>
<defs >
<clipPath id="zr28-c0">
<path d="M198 58.5l16004 0l0 8703l-16004 0Z" fill="#000" class="zr28-cls-85"></path>
</clipPath>
<clipPath id="zr28-c1">
<path d="M198 58.5l16004 0l0 8703l-16004 0Z" fill="#000" class="zr28-cls-85"></path>
</clipPath>
<clipPath id="zr28-c2">
<path d="M198 58.5l16004 0l0 8703l-16004 0Z" fill="#000" class="zr28-cls-85"></path>
</clipPath>
</defs>
<style ><![CDATA[
.zr28-cls-84:hover {
pointer-events:none;
}
.zr28-cls-85:hover {
cursor:pointer;
fill:rgba(0,0,0,1);
}
.zr28-cls-86:hover {
cursor:pointer;
}

]]>

</style>
</svg>