<svg width="2000" height="1000" xmlns="http://www.w3.org/2000/svg" xmlns:xlink="http://www.w3.org/1999/xlink" version="1.1" baseProfile="full" viewBox="0 0 2000 1000">
<rect width="2000" height="1000" x="0" y="0" fill="rgb(252,252,252)" fill-opacity="0"></rect>
<path d="M200 930.5L1800 930.5" fill="transparent" stroke="#eeeeee" class="zr5-cls-15"></path>
<path d="M200 762.5L1800 762.5" fill="transparent" stroke="#eeeeee" class="zr5-cls-15"></path>
<path d="M200 593.5L1800 593.5" fill="transparent" stroke="#eeeeee" class="zr5-cls-15"></path>
<path d="M200 425.5L1800 425.5" fill="transparent" stroke="#eeeeee" class="zr5-cls-15"></path>
<path d="M200 257.5L1800 257.5" fill="transparent" stroke="#eeeeee" class="zr5-cls-15"></path>
<path d="M200 89.5L1800 89.5" fill="transparent" stroke="#eeeeee" class="zr5-cls-15"></path>
<path d="M200 60.5L1800 60.5" fill="transparent" stroke="#eeeeee" class="zr5-cls-15"></path>
<path d="M200.5 930L200.5 60" fill="transparent" stroke="#cccccc" stroke-linecap="round" class="zr5-cls-15"></path>
<text dominant-baseline="central" text-anchor="middle" style="font-size:12px;font-family:sans-serif;" xml:space="preserve" y="-6" transform="translate(200 45)" fill="#cccccc">Min controlBehaviorUpdate Time (ms)</text>
<path d="M200 930.5L1800 930.5" fill="transparent" stroke="#cccccc" stroke-linecap="round" class="zr5-cls-15"></path>
<text dominant-baseline="central" text-anchor="end" style="font-size:12px;font-family:sans-serif;" transform="translate(192 930)" fill="#999999">0.000</text>
<text dominant-baseline="central" text-anchor="end" style="font-size:12px;font-family:sans-serif;" transform="translate(192 761.853)" fill="#999999">0.200</text>
<text dominant-baseline="central" text-anchor="end" style="font-size:12px;font-family:sans-serif;" transform="translate(192 593.706)" fill="#999999">0.400</text>
<text dominant-baseline="central" text-anchor="end" style="font-size:12px;font-family:sans-serif;" transform="translate(192 425.559)" fill="#999999">0.600</text>
<text dominant-baseline="central" text-anchor="end" style="font-size:12px;font-family:sans-serif;" transform="translate(192 257.412)" fill="#999999">0.800</text>
<text dominant-baseline="central" text-anchor="end" style="font-size:12px;font-family:sans-serif;" transform="translate(192 89.265)" fill="#999999">1.000</text>
<text dominant-baseline="central" text-anchor="end" style="font-size:12px;font-family:sans-serif;" transform="translate(192 60)" fill="#999999">1.035</text>
<text dominant-baseline="central" text-anchor="middle" style="font-size:12px;font-family:sans-serif;" y="6" transform="translate(200.6667 938)" fill="#999999">0</text>
<text dominant-baseline="central" text-anchor="middle" style="font-size:12px;font-family:sans-serif;" y="6" transform="translate(236.6667 938)" fill="#999999">27</text>
<text dominant-baseline="central" text-anchor="middle" style="font-size:12px;font-family:sans-serif;" y="6" transform="translate(272.6667 938)" fill="#999999">54</text>
<text dominant-baseline="central" text-anchor="middle" style="font-size:12px;font-family:sans-serif;" y="6" transform="translate(308.6667 938)" fill="#999999">81</text>
<text dominant-baseline="central" text-anchor="middle" style="font-size:12px;font-family:sans-serif;" y="6" transform="translate(344.6667 938)" fill="#999999">108</text>
<text dominant-baseline="central" text-anchor="middle" style="font-size:12px;font-family:sans-serif;" y="6" transform="translate(380.6667 938)" fill="#999999">135</text>
<text dominant-baseline="central" text-anchor="middle" style="font-size:12px;font-family:sans-serif;" y="6" transform="translate(416.6667 938)" fill="#999999">162</text>
<text dominant-baseline="central" text-anchor="middle" style="font-size:12px;font-family:sans-serif;" y="6" transform="translate(452.6667 938)" fill="#999999">189</text>
<text dominant-baseline="central" text-anchor="middle" style="font-size:12px;font-family:sans-serif;" y="6" transform="translate(488.6667 938)" fill="#999999">216</text>
<text dominant-baseline="central" text-anchor="middle" style="font-size:12px;font-family:sans-serif;" y="6" transform="translate(524.6667 938)" fill="#999999">243</text>
<text dominant-baseline="central" text-anchor="middle" style="font-size:12px;font-family:sans-serif;" y="6" transform="translate(560.6667 938)" fill="#999999">270</text>
<text dominant-baseline="central" text-anchor="middle" style="font-size:12px;font-family:sans-serif;" y="6" transform="translate(596.6667 938)" fill="#999999">297</text>
<text dominant-baseline="central" text-anchor="middle" style="font-size:12px;font-family:sans-serif;" y="6" transform="translate(632.6667 938)" fill="#999999">324</text>
<text dominant-baseline="central" text-anchor="middle" style="font-size:12px;font-family:sans-serif;" y="6" transform="translate(668.6667 938)" fill="#999999">351</text>
<text dominant-baseline="central" text-anchor="middle" style="font-size:12px;font-family:sans-serif;" y="6" transform="translate(704.6667 938)" fill="#999999">378</text>
<text dominant-baseline="central" text-anchor="middle" style="font-size:12px;font-family:sans-serif;" y="6" transform="translate(740.6667 938)" fill="#999999">405</text>
<text dominant-baseline="central" text-anchor="middle" style="font-size:12px;font-family:sans-serif;" y="6" transform="translate(776.6667 938)" fill="#999999">432</text>
<text dominant-baseline="central" text-anchor="middle" style="font-size:12px;font-family:sans-serif;" y="6" transform="translate(812.6667 938)" fill="#999999">459</text>
<text dominant-baseline="central" text-anchor="middle" style="font-size:12px;font-family:sans-serif;" y="6" transform="translate(848.6667 938)" fill="#999999">486</text>
<text dominant-baseline="central" text-anchor="middle" style="font-size:12px;font-family:sans-serif;" y="6" transform="translate(884.6667 938)" fill="#999999">513</text>
<text dominant-baseline="central" text-anchor="middle" style="font-size:12px;font-family:sans-serif;" y="6" transform="translate(920.6667 938)" fill="#999999">540</text>
<text dominant-baseline="central" text-anchor="middle" style="font-size:12px;font-family:sans-serif;" y="6" transform="translate(956.6667 938)" fill="#999999">567</text>
<text dominant-baseline="central" text-anchor="middle" style="font-size:12px;font-family:sans-serif;" y="6" transform="translate(992.6667 938)" fill="#999999">594</text>
<text dominant-baseline="central" text-anchor="middle" style="font-size:12px;font-family:sans-serif;" y="6" transform="translate(1028.6667 938)" fill="#999999">621</text>
<text dominant-baseline="central" text-anchor="middle" style="font-size:12px;font-family:sans-serif;" y="6" transform="translate(1064.6667 938)" fill="#999999">648</text>
<text dominant-baseline="central" text-anchor="middle" style="font-size:12px;font-family:sans-serif;" y="6" transform="translate(1100.6667 938)" fill="#999999">675</text>
<text dominant-baseline="central" text-anchor="middle" style="font-size:12px;font-family:sans-serif;" y="6" transform="translate(1136.6667 938)" fill="#999999">702</text>
<text dominant-baseline="central" text-anchor="middle" style="font-size:12px;font-family:sans-serif;" y="6" transform="translate(1172.6667 938)" fill="#999999">729</text>
<text dominant-baseline="central" text-anchor="middle" style="font-size:12px;font-family:sans-serif;" y="6" transform="translate(1208.6667 938)" fill="#999999">756</text>
<text dominant-baseline="central" text-anchor="middle" style="font-size:12px;font-family:sans-serif;" y="6" transform="translate(1244.6667 938)" fill="#999999">783</text>
<text dominant-baseline="central" text-anchor="middle" style="font-size:12px;font-family:sans-serif;" y="6" transform="translate(1280.6667 938)" fill="#999999">810</text>
<text dominant-baseline="central" text-anchor="middle" style="font-size:12px;font-family:sans-serif;" y="6" transform="translate(1316.6667 938)" fill="#999999">837</text>
<text dominant-baseline="central" text-anchor="middle" style="font-size:12px;font-family:sans-serif;" y="6" transform="translate(1352.6667 938)" fill="#999999">864</text>
<text dominant-baseline="central" text-anchor="middle" style="font-size:12px;font-family:sans-serif;" y="6" transform="translate(1388.6667 938)" fill="#999999">891</text>
<text dominant-baseline="central" text-anchor="middle" style="font-size:12px;font-family:sans-serif;" y="6" transform="translate(1424.6667 938)" fill="#999999">918</text>
<text dominant-baseline="central" text-anchor="middle" style="font-size:12px;font-family:sans-serif;" y="6" transform="translate(1460.6667 938)" fill="#999999">945</text>
<text dominant-baseline="central" text-anchor="middle" style="font-size:12px;font-family:sans-serif;" y="6" transform="translate(1496.6667 938)" fill="#999999">972</text>
<text dominant-baseline="central" text-anchor="middle" style="font-size:12px;font-family:sans-serif;" y="6" transform="translate(1532.6667 938)" fill="#999999">999</text>
<text dominant-baseline="central" text-anchor="middle" style="font-size:12px;font-family:sans-serif;" y="6" transform="translate(1568.6667 938)" fill="#999999">1026</text>
<text dominant-baseline="central" text-anchor="middle" style="font-size:12px;font-family:sans-serif;" y="6" transform="translate(1604.6667 938)" fill="#999999">1053</text>
<text dominant-baseline="central" text-anchor="middle" style="font-size:12px;font-family:sans-serif;" y="6" transform="translate(1640.6667 938)" fill="#999999">1080</text>
<text dominant-baseline="central" text-anchor="middle" style="font-size:12px;font-family:sans-serif;" y="6" transform="translate(1676.6667 938)" fill="#999999">1107</text>
<text dominant-baseline="central" text-anchor="middle" style="font-size:12px;font-family:sans-serif;" y="6" transform="translate(1712.6667 938)" fill="#999999">1134</text>
<text dominant-baseline="central" text-anchor="middle" style="font-size:12px;font-family:sans-serif;" y="6" transform="translate(1748.6667 938)" fill="#999999">1161</text>
<text dominant-baseline="central" text-anchor="middle" style="font-size:12px;font-family:sans-serif;" y="6" transform="translate(1784.6667 938)" fill="#999999">1188</text>
<g clip-path="url(#zr5-c0)">
<path d="M200.7 -9L202 619.3L203.3 538L204.7 719.9L206 531L207.3 694.6L208.7 542.4L210 712.4L211.3 518.6L212.7 705.6L214 552.3L215.3 729.2L216.7 535.9L218 693.7L219.3 553.4L220.7 700.6L222 527.4L223.3 708.6L224.7 531.6L226 711L227.3 539.6L228.7 690.8L230 527L231.3 709.4L232.7 522.2L234 694.5L235.3 546.4L236.7 713.1L238 531.2L239.3 683.4L240.7 525.3L242 719.2L243.3 532.8L244.7 683.4L246 535.9L247.3 698.6L248.7 519.9L250 710.8L251.3 506L252.7 697.8L254 518.2L255.3 684L256.7 548.6L258 697.8L259.3 534.6L260.7 698.2L262 548.6L263.3 723L264.7 521.4L266 677.8L267.3 520L268.7 687.7L270 508.9L271.3 715.6L272.7 538.5L274 728L275.3 540.6L276.7 721.4L278 509.2L279.3 712.1L280.7 546.2L282 728.5L283.3 531.4L284.7 718.4L286 552.1L287.3 718.5L288.7 557.4L290 732.4L291.3 552.8L292.7 733.9L294 532.2L295.3 729.7L296.7 547.1L298 722.7L299.3 547.6L300.7 717.9L302 550.4L303.3 718L304.7 543.3L306 727.3L307.3 550.3L308.7 736L310 545.4L311.3 730.7L312.7 553.6L314 710.6L315.3 536.5L316.7 727.1L318 529.8L319.3 705.4L320.7 534.8L322 728.9L323.3 550.6L324.7 717.1L326 550.3L327.3 713.4L328.7 555.9L330 716.6L331.3 550.7L332.7 731.9L334 532L335.3 723.2L336.7 544L338 725.5L339.3 561L340.7 726.1L342 534.2L343.3 716.9L344.7 541.9L346 728.7L347.3 559.6L348.7 722.6L350 534.6L351.3 720.6L352.7 528.4L354 724.9L355.3 553.2L356.7 722.6L358 551.6L359.3 726.9L360.7 543.9L362 729.6L363.3 546L364.7 734.8L366 545.7L367.3 713.3L368.7 528.5L370 724.2L371.3 560.5L372.7 711.6L374 531.8L375.3 704.3L376.7 557.1L378 727L379.3 540.7L380.7 725.5L382 540.5L383.3 722.5L384.7 551.2L386 725.9L387.3 550.3L388.7 720.1L390 546.8L391.3 724.8L392.7 548.7L394 720.9L395.3 549.1L396.7 720.6L398 529.7L399.3 718.1L400.7 537.3L402 733.1L403.3 560.2L404.7 729.5L406 556.5L407.3 722.8L408.7 560.4L410 704.4L411.3 562.9L412.7 719.8L414 546.6L415.3 723.3L416.7 549.4L418 730.2L419.3 543.1L420.7 718.1L422 563.7L423.3 725.5L424.7 555.8L426 732.3L427.3 559.4L428.7 732.1L430 546.4L431.3 706.3L432.7 547.5L434 728.5L435.3 556.3L436.7 731.1L438 552.3L439.3 723.6L440.7 542L442 724.4L443.3 538.6L444.7 726.5L446 543.6L447.3 722.2L448.7 557.5L450 724.6L451.3 557.8L452.7 729.7L454 545.4L455.3 709.7L456.7 553.5L458 733.8L459.3 543.1L460.7 736.4L462 541.4L463.3 728.3L464.7 540L466 722.4L467.3 541.2L468.7 737.3L470 542.1L471.3 729.3L472.7 559.1L474 722.8L475.3 542.2L476.7 730.7L478 550.8L479.3 720.5L480.7 542.3L482 723.2L483.3 554.9L484.7 729.1L486 558.8L487.3 711.6L488.7 549.7L490 729.3L491.3 560.2L492.7 731.3L494 557.9L495.3 706.2L496.7 542.8L498 724.9L499.3 543L500.7 723.8L502 567.2L503.3 729.7L504.7 546.2L506 732.5L507.3 544.4L508.7 731.8L510 549.8L511.3 734.6L512.7 539.1L514 703.6L515.3 532L516.7 689L518 546.1L519.3 733.6L520.7 542L522 687.6L523.3 547.2L524.7 707.7L526 519.8L527.3 691.6L528.7 508L530 703.8L531.3 522.7L532.7 709.6L534 521L535.3 690.1L536.7 531.3L538 693.6L539.3 535.9L540.7 696.1L542 540.1L543.3 691.9L544.7 498.9L546 700L547.3 544.4L548.7 706.6L550 542.1L551.3 724.5L552.7 547.5L554 713.7L555.3 505.3L556.7 699.7L558 547.5L559.3 690.1L560.7 546.8L562 713.1L563.3 526.2L564.7 673.7L566 501.8L567.3 700.9L568.7 558L570 699.1L571.3 549.1L572.7 702L574 522.7L575.3 700L576.7 536L578 706.3L579.3 509.4L580.7 709.6L582 534L583.3 695.6L584.7 538.6L586 711.1L587.3 525L588.7 713.2L590 529.7L591.3 695.4L592.7 538.2L594 735L595.3 536L596.7 724.4L598 523.1L599.3 728.7L600.7 539.2L602 733.3L603.3 546.4L604.7 723.9L606 552.1L607.3 728.9L608.7 535.7L610 727.6L611.3 551L612.7 725.4L614 546.5L615.3 721.8L616.7 557L618 733.5L619.3 538.5L620.7 726.9L622 544.4L623.3 732.9L624.7 547.7L626 725.9L627.3 526.1L628.7 728.1L630 540.3L631.3 722.7L632.7 540.5L634 729L635.3 541.4L636.7 737.4L638 554.8L639.3 733L640.7 541.1L642 722.8L643.3 535.5L644.7 720L646 544.1L647.3 724.9L648.7 555.4L650 728.6L651.3 551.4L652.7 734.6L654 544.2L655.3 709.3L656.7 558.4L658 727.9L659.3 565.5L660.7 725.1L662 558.2L663.3 728.8L664.7 565.7L666 734.4L667.3 552.5L668.7 728.6L670 558.5L671.3 729.1L672.7 554.9L674 722.4L675.3 559.4L676.7 731.6L678 559.2L679.3 735.7L680.7 540.7L682 725.5L683.3 550.4L684.7 714.9L686 553L687.3 726.6L688.7 562.2L690 731.2L691.3 541.9L692.7 718.2L694 561.8L695.3 731.8L696.7 559L698 731.8L699.3 523L700.7 722.3L702 554.4L703.3 726L704.7 570.8L706 729.7L707.3 543.2L708.7 720.9L710 546L711.3 724.7L712.7 548.6L714 739.1L715.3 541.6L716.7 711.6L718 550.5L719.3 709.1L720.7 558.6L722 738.1L723.3 550.8L724.7 723.7L726 534.7L727.3 707.8L728.7 559.9L730 720.9L731.3 555.2L732.7 721.7L734 540.9L735.3 720.7L736.7 541.1L738 728.6L739.3 554.2L740.7 709.2L742 559L743.3 732.6L744.7 550.4L746 729.1L747.3 554.3L748.7 714.4L750 545.4L751.3 729.2L752.7 556.6L754 726.6L755.3 563.5L756.7 725.1L758 544.7L759.3 700.9L760.7 559.7L762 735.3L763.3 533.3L764.7 715.8L766 569.3L767.3 733L768.7 552.7L770 733.9L771.3 554.8L772.7 732.7L774 548.1L775.3 729.8L776.7 559.7L778 725.4L779.3 548.8L780.7 725.8L782 546L783.3 714.8L784.7 546.7L786 721.2L787.3 554.9L788.7 728.4L790 552.8L791.3 737.3L792.7 555.3L794 722.2L795.3 556.3L796.7 731.6L798 562.7L799.3 722.6L800.7 559.7L802 731.6L803.3 559.9L804.7 733.3L806 553.4L807.3 712.5L808.7 551.8L810 730.6L811.3 558.1L812.7 734.9L814 556.5L815.3 716.9L816.7 558.7L818 730L819.3 559.1L820.7 708.6L822 563.9L823.3 701.4L824.7 550.3L826 730.7L827.3 558.8L828.7 730.1L830 561.4L831.3 685.2L832.7 552.1L834 731.8L835.3 544.9L836.7 685.9L838 542.3L839.3 715.3L840.7 547.5L842 705.6L843.3 521.2L844.7 688.5L846 535.6L847.3 703.5L848.7 538.6L850 727L851.3 532.5L852.7 701.2L854 533.6L855.3 694.3L856.7 538.8L858 700.2L859.3 530.7L860.7 718.2L862 537.8L863.3 702.6L864.7 541.3L866 699.1L867.3 528.5L868.7 693L870 540.8L871.3 703.6L872.7 535.5L874 705.8L875.3 548.6L876.7 696.3L878 544.8L879.3 711.7L880.7 536.8L882 725.9L883.3 546L884.7 709.4L886 536.5L887.3 693.3L888.7 538.9L890 722L891.3 522.3L892.7 723L894 537.5L895.3 706.6L896.7 542.1L898 691.8L899.3 528.2L900.7 696.1L902 543.7L903.3 692.7L904.7 543.6L906 702.8L907.3 540.7L908.7 697.3L910 535.6L911.3 712.9L912.7 542.4L914 722.2L915.3 548.8L916.7 721.3L918 544.4L919.3 714.7L920.7 559.5L922 733.4L923.3 530.1L924.7 717.5L926 551.9L927.3 721L928.7 544.7L930 733.2L931.3 529.4L932.7 726.5L934 546.2L935.3 719.6L936.7 550.1L938 733.3L939.3 547.7L940.7 716.5L942 547L943.3 728.1L944.7 535.7L946 733.1L947.3 544.7L948.7 719L950 541.9L951.3 727.6L952.7 564L954 736.8L955.3 546.4L956.7 723.7L958 552.5L959.3 725.3L960.7 554.9L962 738L963.3 566.9L964.7 706.6L966 553.9L967.3 722.6L968.7 545.5L970 727.6L971.3 555L972.7 724.1L974 540.8L975.3 730.8L976.7 536.5L978 737.7L979.3 569.1L980.7 717.2L982 558.6L983.3 722.3L984.7 559.7L986 728.1L987.3 567.8L988.7 727.7L990 553.4L991.3 729.2L992.7 551.4L994 732.8L995.3 555.7L996.7 725.7L998 541.7L999.3 730.2L1000.7 544.2L1002 731.3L1003.3 550.7L1004.7 736.5L1006 547L1007.3 714.9L1008.7 565L1010 728.7L1011.3 554.7L1012.7 724.2L1014 553.9L1015.3 721.7L1016.7 552.9L1018 731.2L1019.3 556.6L1020.7 728.3L1022 528.5L1023.3 728.6L1024.7 548.6L1026 724.1L1027.3 559.6L1028.7 730.1L1030 554.2L1031.3 731.4L1032.7 545L1034 725.7L1035.3 551.4L1036.7 731.6L1038 553.5L1039.3 719.8L1040.7 531.9L1042 727.2L1043.3 568L1044.7 734.7L1046 547.8L1047.3 723.2L1048.7 543.4L1050 725.6L1051.3 558.7L1052.7 731.8L1054 543.6L1055.3 724.2L1056.7 542.7L1058 728.6L1059.3 566.1L1060.7 731.2L1062 555.5L1063.3 727.4L1064.7 553.6L1066 732.8L1067.3 556.5L1068.7 729.7L1070 553.6L1071.3 716.7L1072.7 530.7L1074 724.1L1075.3 553.3L1076.7 734.7L1078 541.8L1079.3 721.1L1080.7 555.5L1082 725.3L1083.3 544.5L1084.7 731.7L1086 560.9L1087.3 730.9L1088.7 545.3L1090 723.8L1091.3 553.5L1092.7 727.1L1094 556L1095.3 728.1L1096.7 572.7L1098 726.4L1099.3 531.9L1100.7 733.4L1102 563.4L1103.3 731.5L1104.7 554.7L1106 712.2L1107.3 555.5L1108.7 734.5L1110 546.5L1111.3 714.4L1112.7 557.2L1114 728L1115.3 563.9L1116.7 731.8L1118 546.9L1119.3 714.7L1120.7 562.2L1122 732.3L1123.3 545.6L1124.7 732.9L1126 559.5L1127.3 738.1L1128.7 548.2L1130 714.2L1131.3 547.6L1132.7 710.9L1134 554.4L1135.3 726.5L1136.7 560.5L1138 735.5L1139.3 554.9L1140.7 729.7L1142 564.1L1143.3 724.1L1144.7 548.6L1146 737.5L1147.3 534.9L1148.7 725.3L1150 553.6L1151.3 713.6L1152.7 543L1154 700.1L1155.3 543.4L1156.7 705.2L1158 534.4L1159.3 714.5L1160.7 535.2L1162 693.8L1163.3 533.9L1164.7 711.7L1166 535.1L1167.3 706.4L1168.7 542.3L1170 709.7L1171.3 525.1L1172.7 699.4L1174 521.9L1175.3 712.4L1176.7 522.2L1178 709.6L1179.3 533.2L1180.7 712L1182 523.4L1183.3 704.5L1184.7 514.5L1186 707.6L1187.3 539.2L1188.7 684.1L1190 542.8L1191.3 716L1192.7 545.8L1194 718.1L1195.3 534.7L1196.7 684.1L1198 520.2L1199.3 695.6L1200.7 516.7L1202 720.6L1203.3 537.4L1204.7 704.4L1206 534.4L1207.3 690L1208.7 528.7L1210 694L1211.3 544.9L1212.7 705.4L1214 538.3L1215.3 712.4L1216.7 549.5L1218 723L1219.3 534L1220.7 695.8L1222 539.1L1223.3 718.7L1224.7 523.7L1226 696.4L1227.3 541.8L1228.7 721.1L1230 524.3L1231.3 715.9L1232.7 554.6L1234 728.4L1235.3 552.9L1236.7 723L1238 528.6L1239.3 729L1240.7 553.9L1242 735.6L1243.3 548.9L1244.7 734.6L1246 534.7L1247.3 717.8L1248.7 532.8L1250 728.8L1251.3 552.7L1252.7 729.2L1254 547.5L1255.3 731.6L1256.7 543.8L1258 733.9L1259.3 541.9L1260.7 724.2L1262 558.3L1263.3 715.8L1264.7 550.4L1266 738.6L1267.3 545.4L1268.7 724.2L1270 540.1L1271.3 704.4L1272.7 562L1274 727.9L1275.3 548.6L1276.7 730.5L1278 552.2L1279.3 701.2L1280.7 555.9L1282 739.2L1283.3 545.6L1284.7 730.8L1286 552.3L1287.3 722.8L1288.7 551.1L1290 734.4L1291.3 549.6L1292.7 733L1294 550.7L1295.3 716.3L1296.7 555.1L1298 721.1L1299.3 560.2L1300.7 730L1302 560L1303.3 708.5L1304.7 549.9L1306 723.9L1307.3 551.1L1308.7 736.5L1310 550.7L1311.3 723.9L1312.7 548.6L1314 726.2L1315.3 554.1L1316.7 725.5L1318 559.8L1319.3 729.4L1320.7 569.1L1322 713.7L1323.3 551.2L1324.7 732.8L1326 539.9L1327.3 723.7L1328.7 561.9L1330 728.7L1331.3 549L1332.7 724.9L1334 556.7L1335.3 727.6L1336.7 559.6L1338 735.1L1339.3 557.7L1340.7 732.8L1342 539.1L1343.3 732.1L1344.7 539.4L1346 719.1L1347.3 559.8L1348.7 726.1L1350 551.7L1351.3 724.6L1352.7 550.8L1354 722.1L1355.3 552.5L1356.7 731.3L1358 564.8L1359.3 728.2L1360.7 549.6L1362 704.3L1363.3 561.8L1364.7 723.9L1366 560.8L1367.3 728.2L1368.7 559.1L1370 715.3L1371.3 552.8L1372.7 725.3L1374 565.8L1375.3 731L1376.7 550.7L1378 721.8L1379.3 558.8L1380.7 724.6L1382 557.8L1383.3 728.2L1384.7 548.8L1386 724.7L1387.3 545.6L1388.7 730.3L1390 554.2L1391.3 724.8L1392.7 567.9L1394 730.3L1395.3 551.2L1396.7 722L1398 551.3L1399.3 720.5L1400.7 557.9L1402 721.5L1403.3 540.7L1404.7 726.4L1406 552.2L1407.3 730.5L1408.7 535.2L1410 714.2L1411.3 546.1L1412.7 712.8L1414 552.1L1415.3 733.8L1416.7 547.9L1418 722.5L1419.3 547.8L1420.7 715.2L1422 548.4L1423.3 711.6L1424.7 551.1L1426 726.5L1427.3 545.3L1428.7 718.3L1430 540.9L1431.3 732.4L1432.7 540.3L1434 723.7L1435.3 555.6L1436.7 733.7L1438 558.1L1439.3 728.5L1440.7 559.1L1442 732.6L1443.3 564.7L1444.7 730.7L1446 541.7L1447.3 724.2L1448.7 565.8L1450 720.7L1451.3 558.8L1452.7 731.4L1454 523.9L1455.3 724.6L1456.7 553.9L1458 716.1L1459.3 540.9L1460.7 724.9L1462 555.9L1463.3 733.6L1464.7 567.6L1466 731.9L1467.3 539.1L1468.7 734.4L1470 551.5L1471.3 719.7L1472.7 548.7L1474 707.5L1475.3 542.9L1476.7 708L1478 537.9L1479.3 696.9L1480.7 521.4L1482 712.2L1483.3 536L1484.7 678.5L1486 508.6L1487.3 684.2L1488.7 533.5L1490 717L1491.3 526L1492.7 706.2L1494 513.3L1495.3 690.9L1496.7 518.5L1498 706.7L1499.3 524.8L1500.7 694.3L1502 534.8L1503.3 707.4L1504.7 544.4L1506 728L1507.3 524.4L1508.7 701.1L1510 546.5L1511.3 692.1L1512.7 550L1514 676L1515.3 533.6L1516.7 694.3L1518 522.9L1519.3 704.9L1520.7 516.9L1522 687.4L1523.3 525.3L1524.7 711.4L1526 517L1527.3 692.5L1528.7 534.4L1530 702.2L1531.3 532.3L1532.7 692.8L1534 553.9L1535.3 727.9L1536.7 532.5L1538 711.6L1539.3 530.3L1540.7 704.4L1542 520.2L1543.3 697.8L1544.7 540L1546 720.3L1547.3 528.7L1548.7 707.2L1550 538.3L1551.3 719L1552.7 550.3L1554 724.9L1555.3 554.7L1556.7 727.5L1558 548.1L1559.3 713.5L1560.7 549.6L1562 727.6L1563.3 543.9L1564.7 727.7L1566 554.4L1567.3 734.1L1568.7 557.6L1570 706.9L1571.3 556.5L1572.7 728.6L1574 547.2L1575.3 732.7L1576.7 559.5L1578 717.4L1579.3 542.5L1580.7 737.6L1582 538.6L1583.3 723.1L1584.7 551.7L1586 721L1587.3 533.1L1588.7 721.4L1590 551.9L1591.3 729.1L1592.7 553.4L1594 729.7L1595.3 543.2L1596.7 723.7L1598 528.5L1599.3 732.5L1600.7 554.8L1602 738L1603.3 526.1L1604.7 730.3L1606 542.2L1607.3 722.3L1608.7 532.2L1610 727.9L1611.3 518.8L1612.7 728.2L1614 553.7L1615.3 731.5L1616.7 563.5L1618 713.5L1619.3 540.9L1620.7 719.6L1622 566.4L1623.3 717.4L1624.7 557.7L1626 732.3L1627.3 539.1L1628.7 724.9L1630 549.8L1631.3 722.5L1632.7 559.2L1634 705L1635.3 553.9L1636.7 728.2L1638 560.7L1639.3 716.8L1640.7 553.5L1642 726.5L1643.3 534.5L1644.7 730.2L1646 548.1L1647.3 719.1L1648.7 563.5L1650 723.5L1651.3 546.7L1652.7 706.7L1654 555.6L1655.3 719.1L1656.7 555.9L1658 728.1L1659.3 558.2L1660.7 725.5L1662 555L1663.3 732.8L1664.7 550.8L1666 728.6L1667.3 532L1668.7 728.3L1670 564.9L1671.3 722.9L1672.7 558.1L1674 724.6L1675.3 561.3L1676.7 706.1L1678 542.2L1679.3 719.8L1680.7 549L1682 733.1L1683.3 556.3L1684.7 710.3L1686 552.7L1687.3 735.9L1688.7 547.2L1690 716.2L1691.3 532.2L1692.7 714.6L1694 568.5L1695.3 730.2L1696.7 550.5L1698 732.8L1699.3 556.8L1700.7 719.3L1702 557.3L1703.3 717.2L1704.7 551.5L1706 737.3L1707.3 548.2L1708.7 726.5L1710 551.2L1711.3 728.6L1712.7 540.3L1714 731.7L1715.3 561.1L1716.7 718.1L1718 538L1719.3 734.7L1720.7 541.4L1722 720.6L1723.3 544.6L1724.7 739.3L1726 546L1727.3 735.4L1728.7 541.7L1730 732.8L1731.3 550.6L1732.7 724.2L1734 531.1L1735.3 715.1L1736.7 556.3L1738 718.3L1739.3 553L1740.7 724.6L1742 548.4L1743.3 725.8L1744.7 557.5L1746 724.9L1747.3 556L1748.7 719.1L1750 547.3L1751.3 727.5L1752.7 550.7L1754 732.5L1755.3 555.5L1756.7 715.9L1758 558.7L1759.3 731.8L1760.7 551.8L1762 727.1L1763.3 557.3L1764.7 727.6L1766 550.2L1767.3 717.2L1768.7 558.9L1770 729.5L1771.3 557.4L1772.7 732.3L1774 542.8L1775.3 719.6L1776.7 524.5L1778 712.2L1779.3 556.2L1780.7 734.9L1782 564.4L1783.3 721.7L1784.7 567.4L1786 733.4L1787.3 535.7L1788.7 711.4L1790 556L1791.3 697.2L1792.7 522.1L1794 688.7L1795.3 529.9L1796.7 703.8L1798 532.8L1799.3 716.9" fill="transparent" stroke="#3fb1e3" stroke-width="3" stroke-linejoin="bevel" class="zr5-cls-17"></path>
</g>
<path d="M-286.3 -5l572.5 0l0 28l-572.5 0Z" transform="translate(1000 5)" fill="rgb(0,0,0)" fill-opacity="0" stroke="#ccc" stroke-width="0" class="zr5-cls-15"></path>
<text dominant-baseline="central" text-anchor="middle" style="font-size:18px;font-family:sans-serif;font-weight:bold;" xml:space="preserve" y="9" transform="translate(1000 5)" fill="#666666">Min controlBehaviorUpdate per Tick for bench_1_every_60_staggered</text>
<defs >
<clipPath id="zr5-c0">
<path d="M198 58.5l16004 0l0 8703l-16004 0Z" fill="#000" class="zr5-cls-16"></path>
</clipPath>
</defs>
<style ><![CDATA[
.zr5-cls-15:hover {
pointer-events:none;
}
.zr5-cls-16:hover {
cursor:pointer;
fill:rgba(0,0,0,1);
}
.zr5-cls-17:hover {
cursor:pointer;
}

]]>

</style>
</svg>