<svg width="2000" height="1000" xmlns="http://www.w3.org/2000/svg" xmlns:xlink="http://www.w3.org/1999/xlink" version="1.1" baseProfile="full" viewBox="0 0 2000 1000">
<rect width="2000" height="1000" x="0" y="0" fill="rgb(252,252,252)" fill-opacity="0"></rect>
<path d="M200 930.5L1800 930.5" fill="transparent" stroke="#eeeeee" class="zr13-cls-39"></path>
<path d="M200 762.5L1800 762.5" fill="transparent" stroke="#eeeeee" class="zr13-cls-39"></path>
<path d="M200 593.5L1800 593.5" fill="transparent" stroke="#eeeeee" class="zr13-cls-39"></path>
<path d="M200 425.5L1800 425.5" fill="transparent" stroke="#eeeeee" class="zr13-cls-39"></path>
<path d="M200 257.5L1800 257.5" fill="transparent" stroke="#eeeeee" class="zr13-cls-39"></path>
<path d="M200 89.5L1800 89.5" fill="transparent" stroke="#eeeeee" class="zr13-cls-39"></path>
<path d="M200 60.5L1800 60.5" fill="transparent" stroke="#eeeeee" class="zr13-cls-39"></path>
<path d="M200.5 930L200.5 60" fill="transparent" stroke="#cccccc" stroke-linecap="round" class="zr13-cls-39"></path>
<text dominant-baseline="central" text-anchor="middle" style="font-size:12px;font-family:sans-serif;" xml:space="preserve" y="-6" transform="translate(200 45)" fill="#cccccc">Min controlBehaviorUpdate Time (ms)</text>
<path d="M200 930.5L1800 930.5" fill="transparent" stroke="#cccccc" stroke-linecap="round" class="zr13-cls-39"></path>
<text dominant-baseline="central" text-anchor="end" style="font-size:12px;font-family:sans-serif;" transform="translate(192 930)" fill="#999999">0.000</text>
<text dominant-baseline="central" text-anchor="end" style="font-size:12px;font-family:sans-serif;" transform="translate(192 761.853)" fill="#999999">0.200</text>
<text dominant-baseline="central" text-anchor="end" style="font-size:12px;font-family:sans-serif;" transform="translate(192 593.706)" fill="#999999">0.400</text>
<text dominant-baseline="central" text-anchor="end" style="font-size:12px;font-family:sans-serif;" transform="translate(192 425.559)" fill="#999999">0.600</text>
<text dominant-baseline="central" text-anchor="end" style="font-size:12px;font-family:sans-serif;" transform="translate(192 257.412)" fill="#999999">0.800</text>
<text dominant-baseline="central" text-anchor="end" style="font-size:12px;font-family:sans-serif;" transform="translate(192 89.265)" fill="#999999">1.000</text>
<text dominant-baseline="central" text-anchor="end" style="font-size:12px;font-family:sans-serif;" transform="translate(192 60)" fill="#999999">1.035</text>
<text dominant-baseline="central" text-anchor="middle" style="font-size:12px;font-family:sans-serif;" y="6" transform="translate(200.6667 938)" fill="#999999">0</text>
<text dominant-baseline="central" text-anchor="middle" style="font-size:12px;font-family:sans-serif;" y="6" transform="translate(236.6667 938)" fill="#999999">27</text>
<text dominant-baseline="central" text-anchor="middle" style="font-size:12px;font-family:sans-serif;" y="6" transform="translate(272.6667 938)" fill="#999999">54</text>
<text dominant-baseline="central" text-anchor="middle" style="font-size:12px;font-family:sans-serif;" y="6" transform="translate(308.6667 938)" fill="#999999">81</text>
<text dominant-baseline="central" text-anchor="middle" style="font-size:12px;font-family:sans-serif;" y="6" transform="translate(344.6667 938)" fill="#999999">108</text>
<text dominant-baseline="central" text-anchor="middle" style="font-size:12px;font-family:sans-serif;" y="6" transform="translate(380.6667 938)" fill="#999999">135</text>
<text dominant-baseline="central" text-anchor="middle" style="font-size:12px;font-family:sans-serif;" y="6" transform="translate(416.6667 938)" fill="#999999">162</text>
<text dominant-baseline="central" text-anchor="middle" style="font-size:12px;font-family:sans-serif;" y="6" transform="translate(452.6667 938)" fill="#999999">189</text>
<text dominant-baseline="central" text-anchor="middle" style="font-size:12px;font-family:sans-serif;" y="6" transform="translate(488.6667 938)" fill="#999999">216</text>
<text dominant-baseline="central" text-anchor="middle" style="font-size:12px;font-family:sans-serif;" y="6" transform="translate(524.6667 938)" fill="#999999">243</text>
<text dominant-baseline="central" text-anchor="middle" style="font-size:12px;font-family:sans-serif;" y="6" transform="translate(560.6667 938)" fill="#999999">270</text>
<text dominant-baseline="central" text-anchor="middle" style="font-size:12px;font-family:sans-serif;" y="6" transform="translate(596.6667 938)" fill="#999999">297</text>
<text dominant-baseline="central" text-anchor="middle" style="font-size:12px;font-family:sans-serif;" y="6" transform="translate(632.6667 938)" fill="#999999">324</text>
<text dominant-baseline="central" text-anchor="middle" style="font-size:12px;font-family:sans-serif;" y="6" transform="translate(668.6667 938)" fill="#999999">351</text>
<text dominant-baseline="central" text-anchor="middle" style="font-size:12px;font-family:sans-serif;" y="6" transform="translate(704.6667 938)" fill="#999999">378</text>
<text dominant-baseline="central" text-anchor="middle" style="font-size:12px;font-family:sans-serif;" y="6" transform="translate(740.6667 938)" fill="#999999">405</text>
<text dominant-baseline="central" text-anchor="middle" style="font-size:12px;font-family:sans-serif;" y="6" transform="translate(776.6667 938)" fill="#999999">432</text>
<text dominant-baseline="central" text-anchor="middle" style="font-size:12px;font-family:sans-serif;" y="6" transform="translate(812.6667 938)" fill="#999999">459</text>
<text dominant-baseline="central" text-anchor="middle" style="font-size:12px;font-family:sans-serif;" y="6" transform="translate(848.6667 938)" fill="#999999">486</text>
<text dominant-baseline="central" text-anchor="middle" style="font-size:12px;font-family:sans-serif;" y="6" transform="translate(884.6667 938)" fill="#999999">513</text>
<text dominant-baseline="central" text-anchor="middle" style="font-size:12px;font-family:sans-serif;" y="6" transform="translate(920.6667 938)" fill="#999999">540</text>
<text dominant-baseline="central" text-anchor="middle" style="font-size:12px;font-family:sans-serif;" y="6" transform="translate(956.6667 938)" fill="#999999">567</text>
<text dominant-baseline="central" text-anchor="middle" style="font-size:12px;font-family:sans-serif;" y="6" transform="translate(992.6667 938)" fill="#999999">594</text>
<text dominant-baseline="central" text-anchor="middle" style="font-size:12px;font-family:sans-serif;" y="6" transform="translate(1028.6667 938)" fill="#999999">621</text>
<text dominant-baseline="central" text-anchor="middle" style="font-size:12px;font-family:sans-serif;" y="6" transform="translate(1064.6667 938)" fill="#999999">648</text>
<text dominant-baseline="central" text-anchor="middle" style="font-size:12px;font-family:sans-serif;" y="6" transform="translate(1100.6667 938)" fill="#999999">675</text>
<text dominant-baseline="central" text-anchor="middle" style="font-size:12px;font-family:sans-serif;" y="6" transform="translate(1136.6667 938)" fill="#999999">702</text>
<text dominant-baseline="central" text-anchor="middle" style="font-size:12px;font-family:sans-serif;" y="6" transform="translate(1172.6667 938)" fill="#999999">729</text>
<text dominant-baseline="central" text-anchor="middle" style="font-size:12px;font-family:sans-serif;" y="6" transform="translate(1208.6667 938)" fill="#999999">756</text>
<text dominant-baseline="central" text-anchor="middle" style="font-size:12px;font-family:sans-serif;" y="6" transform="translate(1244.6667 938)" fill="#999999">783</text>
<text dominant-baseline="central" text-anchor="middle" style="font-size:12px;font-family:sans-serif;" y="6" transform="translate(1280.6667 938)" fill="#999999">810</text>
<text dominant-baseline="central" text-anchor="middle" style="font-size:12px;font-family:sans-serif;" y="6" transform="translate(1316.6667 938)" fill="#999999">837</text>
<text dominant-baseline="central" text-anchor="middle" style="font-size:12px;font-family:sans-serif;" y="6" transform="translate(1352.6667 938)" fill="#999999">864</text>
<text dominant-baseline="central" text-anchor="middle" style="font-size:12px;font-family:sans-serif;" y="6" transform="translate(1388.6667 938)" fill="#999999">891</text>
<text dominant-baseline="central" text-anchor="middle" style="font-size:12px;font-family:sans-serif;" y="6" transform="translate(1424.6667 938)" fill="#999999">918</text>
<text dominant-baseline="central" text-anchor="middle" style="font-size:12px;font-family:sans-serif;" y="6" transform="translate(1460.6667 938)" fill="#999999">945</text>
<text dominant-baseline="central" text-anchor="middle" style="font-size:12px;font-family:sans-serif;" y="6" transform="translate(1496.6667 938)" fill="#999999">972</text>
<text dominant-baseline="central" text-anchor="middle" style="font-size:12px;font-family:sans-serif;" y="6" transform="translate(1532.6667 938)" fill="#999999">999</text>
<text dominant-baseline="central" text-anchor="middle" style="font-size:12px;font-family:sans-serif;" y="6" transform="translate(1568.6667 938)" fill="#999999">1026</text>
<text dominant-baseline="central" text-anchor="middle" style="font-size:12px;font-family:sans-serif;" y="6" transform="translate(1604.6667 938)" fill="#999999">1053</text>
<text dominant-baseline="central" text-anchor="middle" style="font-size:12px;font-family:sans-serif;" y="6" transform="translate(1640.6667 938)" fill="#999999">1080</text>
<text dominant-baseline="central" text-anchor="middle" style="font-size:12px;font-family:sans-serif;" y="6" transform="translate(1676.6667 938)" fill="#999999">1107</text>
<text dominant-baseline="central" text-anchor="middle" style="font-size:12px;font-family:sans-serif;" y="6" transform="translate(1712.6667 938)" fill="#999999">1134</text>
<text dominant-baseline="central" text-anchor="middle" style="font-size:12px;font-family:sans-serif;" y="6" transform="translate(1748.6667 938)" fill="#999999">1161</text>
<text dominant-baseline="central" text-anchor="middle" style="font-size:12px;font-family:sans-serif;" y="6" transform="translate(1784.6667 938)" fill="#999999">1188</text>
<g clip-path="url(#zr13-c0)">
<path d="M200.7 100.4L202 640.3L203.3 740.8L204.7 337.9L206 750.2L207.3 754.2L208.7 758.3L210 631L211.3 708.4L212.7 759.3L214 766.9L215.3 396.6L216.7 749.6L218 757.8L219.3 764.3L220.7 663.1L222 772.9L223.3 774.4L224.7 769.4L226 403.1L227.3 743.1L228.7 756.8L230 764.5L231.3 652.1L232.7 756.3L234 765.2L235.3 765.6L236.7 440.6L238 731L239.3 751.9L240.7 761.7L242 649.3L243.3 753.4L244.7 768.4L246 762.5L247.3 428.8L248.7 758.4L250 762.2L251.3 765.1L252.7 656L254 765.6L255.3 769L256.7 762L258 409.2L259.3 763.1L260.7 764.5L262 760.8L263.3 656L264.7 768.5L266 772.3L267.3 762.2L268.7 439.6L270 743.4L271.3 738.1L272.7 762.9L274 665.8L275.3 769.3L276.7 769.3L278 764.5L279.3 409.1L280.7 761.2L282 751.2L283.3 761.3L284.7 651.2L286 764.5L287.3 770.2L288.7 771.3L290 426L291.3 747L292.7 741.4L294 770.4L295.3 666.8L296.7 773.5L298 766.3L299.3 773.3L300.7 414.5L302 757.5L303.3 761L304.7 764.1L306 654.3L307.3 762.7L308.7 759.8L310 764.7L311.3 437.2L312.7 744.9L314 754.6L315.3 770.4L316.7 654L318 761.7L319.3 766.9L320.7 767.6L322 406.7L323.3 738.3L324.7 759.7L326 757.6L327.3 639.2L328.7 751.8L330 759.5L331.3 761.4L332.7 403.3L334 731.7L335.3 751.6L336.7 746.6L338 650.1L339.3 758.1L340.7 769.4L342 765.8L343.3 396.5L344.7 726.8L346 751.8L347.3 748.9L348.7 625.1L350 759.2L351.3 766.7L352.7 760.4L354 419.5L355.3 727.6L356.7 746L358 748.5L359.3 645.6L360.7 749.7L362 770.4L363.3 770.8L364.7 379L366 736.2L367.3 741.8L368.7 745.6L370 649.2L371.3 760.2L372.7 760.8L374 771.9L375.3 389.5L376.7 728.8L378 745.4L379.3 740.4L380.7 628L382 759.2L383.3 766.8L384.7 770.3L386 434.7L387.3 711.4L388.7 747.5L390 755L391.3 639L392.7 766.1L394 756.1L395.3 768.2L396.7 365.9L398 739.1L399.3 745.1L400.7 750.1L402 652.6L403.3 760L404.7 764.3L406 764.6L407.3 429.1L408.7 733.5L410 766.6L411.3 746.5L412.7 647.3L414 769.3L415.3 758.3L416.7 775.5L418 397.5L419.3 741.6L420.7 752.7L422 765L423.3 639.8L424.7 754.4L426 761.3L427.3 744.4L428.7 396.8L430 742.4L431.3 747.6L432.7 750.3L434 659.5L435.3 758.9L436.7 758.8L438 774L439.3 381.8L440.7 731.2L442 746.7L443.3 757.6L444.7 639.8L446 772.1L447.3 763.1L448.7 774.6L450 404.5L451.3 734.1L452.7 760.1L454 742.2L455.3 663.6L456.7 770.2L458 771.3L459.3 774.2L460.7 409.8L462 748.5L463.3 759.4L464.7 757.4L466 645.7L467.3 769.6L468.7 760L470 767.5L471.3 379.5L472.7 726.1L474 748.1L475.3 749L476.7 616.5L478 760.2L479.3 766.5L480.7 766.9L482 407.1L483.3 750.5L484.7 759.4L486 751.4L487.3 655L488.7 766.7L490 775.9L491.3 764.2L492.7 404.5L494 750.2L495.3 751.5L496.7 754.5L498 647.6L499.3 764.3L500.7 767.4L502 769.8L503.3 384.7L504.7 729.2L506 748.7L507.3 762.4L508.7 641.3L510 757.1L511.3 769.3L512.7 753.1L514 435.7L515.3 738.1L516.7 742.6L518 757.5L519.3 646.2L520.7 750.8L522 759.3L523.3 765.4L524.7 387.9L526 760.1L527.3 761.3L528.7 763.9L530 666.8L531.3 762.3L532.7 771.4L534 762.7L535.3 400.3L536.7 755.9L538 765L539.3 764.8L540.7 668.6L542 760.8L543.3 770.9L544.7 774.8L546 398.9L547.3 754L548.7 758.4L550 765.8L551.3 653L552.7 766.1L554 770.1L555.3 774.5L556.7 411.9L558 757.9L559.3 756.9L560.7 763.2L562 646.8L563.3 759.6L564.7 766.9L566 766.1L567.3 404.3L568.7 753L570 759.6L571.3 760.3L572.7 668.4L574 762.3L575.3 762.5L576.7 769.2L578 420.3L579.3 746.6L580.7 751.8L582 767.9L583.3 651.3L584.7 772L586 757.1L587.3 769.5L588.7 412.4L590 753.7L591.3 759.8L592.7 759.7L594 646.1L595.3 762.8L596.7 759.9L598 775.7L599.3 436.5L600.7 743.3L602 749L603.3 761.4L604.7 655.2L606 765L607.3 767.7L608.7 768.8L610 410.8L611.3 763.9L612.7 756.7L614 753.9L615.3 667.8L616.7 767.7L618 768.1L619.3 772.5L620.7 420.3L622 762.6L623.3 762.1L624.7 761.4L626 657.3L627.3 762.7L628.7 766.2L630 763.3L631.3 410.7L632.7 757.2L634 757.5L635.3 756.1L636.7 646.6L638 764L639.3 763.7L640.7 765.6L642 423.3L643.3 731.4L644.7 768.2L646 759.4L647.3 651.7L648.7 760.9L650 759.8L651.3 776.9L652.7 416.3L654 727.8L655.3 763.3L656.7 747.3L658 641.5L659.3 760.3L660.7 764.1L662 773.5L663.3 393.9L664.7 726.5L666 751.3L667.3 751.3L668.7 649.2L670 757.9L671.3 765.6L672.7 758.1L674 378.6L675.3 744.8L676.7 742.1L678 740.8L679.3 637.4L680.7 760.1L682 753.7L683.3 774.1L684.7 382.3L686 727.8L687.3 757.1L688.7 752.9L690 657L691.3 764.4L692.7 763.5L694 761.9L695.3 390L696.7 731.3L698 764.7L699.3 744.6L700.7 635.1L702 754L703.3 765L704.7 766.9L706 391.7L707.3 733.5L708.7 750.9L710 758.7L711.3 658.9L712.7 745.4L714 763.4L715.3 770.9L716.7 411.4L718 731.5L719.3 763.7L720.7 752.2L722 645.5L723.3 766.6L724.7 760.3L726 773.2L727.3 369.5L728.7 728.3L730 753L731.3 746.1L732.7 660.2L734 776.1L735.3 764L736.7 765.6L738 396.5L739.3 739.4L740.7 760.5L742 751.1L743.3 643.6L744.7 759.3L746 771.4L747.3 778.2L748.7 408L750 726.5L751.3 742.7L752.7 740.1L754 650.5L755.3 764.4L756.7 755.4L758 773.6L759.3 386.3L760.7 719.6L762 729.7L763.3 738.6L764.7 647.2L766 766.4L767.3 765L768.7 759.8L770 380.4L771.3 741.7L772.7 755.1L774 738.3L775.3 644.7L776.7 761.7L778 769.3L779.3 772.9L780.7 366L782 726.2L783.3 756.3L784.7 760.5L786 654.9L787.3 761.9L788.7 762.9L790 768.2L791.3 427.9L792.7 739.8L794 752.5L795.3 745.1L796.7 631.1L798 769.2L799.3 761.3L800.7 774.1L802 403.2L803.3 753.4L804.7 760.8L806 760.8L807.3 645.5L808.7 769.3L810 770.2L811.3 759.8L812.7 414.1L814 750.4L815.3 760.7L816.7 768.4L818 643.3L819.3 766.6L820.7 762.7L822 779.2L823.3 411.9L824.7 731.3L826 762.2L827.3 761.2L828.7 659.3L830 758.2L831.3 759.1L832.7 774L834 403.4L835.3 743.6L836.7 757.4L838 771.9L839.3 645.5L840.7 769.8L842 754.3L843.3 754.7L844.7 403.4L846 748.1L847.3 751.4L848.7 767.7L850 658.4L851.3 761.7L852.7 765.9L854 767.1L855.3 378.9L856.7 740L858 765.6L859.3 764.5L860.7 643.3L862 762.7L863.3 774L864.7 770.8L866 394.3L867.3 761.8L868.7 760.3L870 764.2L871.3 640.7L872.7 762L874 766.9L875.3 760.9L876.7 402.3L878 744.9L879.3 760.6L880.7 753.1L882 666L883.3 765.9L884.7 767.9L886 760.5L887.3 394L888.7 762.4L890 752.4L891.3 749.5L892.7 657.4L894 761.9L895.3 766L896.7 769.3L898 439.4L899.3 737.1L900.7 759.2L902 761.3L903.3 635.5L904.7 775.5L906 764.8L907.3 762.9L908.7 422.4L910 762L911.3 764.6L912.7 768.2L914 649.4L915.3 768.8L916.7 774L918 773L919.3 408L920.7 752.4L922 766.1L923.3 758.3L924.7 664.8L926 774.8L927.3 766.1L928.7 771.8L930 380.2L931.3 757.4L932.7 759.6L934 757.3L935.3 660.3L936.7 762.6L938 764.5L939.3 770.4L940.7 453.8L942 737.1L943.3 762.4L944.7 761.7L946 667.9L947.3 768.6L948.7 771.5L950 760.7L951.3 441L952.7 736.7L954 769.8L955.3 761.7L956.7 654.7L958 762.6L959.3 767.2L960.7 769.3L962 436.1L963.3 717.5L964.7 760.8L966 721.1L967.3 608.2L968.7 759.5L970 766.8L971.3 775.2L972.7 413.5L974 736.5L975.3 742.6L976.7 760.5L978 638.2L979.3 760.8L980.7 758.5L982 764.2L983.3 411.8L984.7 721.2L986 730.8L987.3 737.4L988.7 644.3L990 764L991.3 765.2L992.7 769.1L994 402.9L995.3 722.3L996.7 756.6L998 740.8L999.3 657.3L1000.7 766.3L1002 756.4L1003.3 772.4L1004.7 367.6L1006 736L1007.3 758.1L1008.7 745.2L1010 627.2L1011.3 764.5L1012.7 768.7L1014 758.7L1015.3 404.3L1016.7 726.1L1018 761.7L1019.3 728.1L1020.7 630.3L1022 757.3L1023.3 762.8L1024.7 775.5L1026 366.5L1027.3 720.1L1028.7 754.5L1030 750L1031.3 635.1L1032.7 757.1L1034 759.8L1035.3 772.2L1036.7 391.6L1038 732.5L1039.3 754.9L1040.7 759.9L1042 640.6L1043.3 756.6L1044.7 762.7L1046 762.9L1047.3 386.5L1048.7 736.9L1050 759L1051.3 745.1L1052.7 648.4L1054 757.8L1055.3 762.9L1056.7 767.8L1058 372.6L1059.3 735.4L1060.7 752.5L1062 741.3L1063.3 635.1L1064.7 759.3L1066 759.9L1067.3 772.2L1068.7 409.1L1070 727L1071.3 758.7L1072.7 761.3L1074 651.8L1075.3 755.8L1076.7 753.1L1078 762.9L1079.3 353.7L1080.7 726.6L1082 752.9L1083.3 759.7L1084.7 653L1086 761.7L1087.3 768.8L1088.7 759.9L1090 404.5L1091.3 734.9L1092.7 758.6L1094 752.1L1095.3 636.2L1096.7 772.6L1098 773.5L1099.3 777.5L1100.7 424L1102 746.3L1103.3 757.6L1104.7 746.7L1106 657.4L1107.3 754L1108.7 766.6L1110 767.8L1111.3 411.9L1112.7 729L1114 766.1L1115.3 768.6L1116.7 652.4L1118 779.6L1119.3 769.8L1120.7 760.7L1122 380.7L1123.3 718.3L1124.7 740.8L1126 764.3L1127.3 646.4L1128.7 766.3L1130 762.4L1131.3 767.2L1132.7 391.6L1134 732.9L1135.3 757L1136.7 760.3L1138 636.1L1139.3 764.8L1140.7 752.3L1142 756.4L1143.3 379.9L1144.7 743.1L1146 764.5L1147.3 747.9L1148.7 662.5L1150 775.4L1151.3 769.6L1152.7 770.1L1154 406L1155.3 733L1156.7 748L1158 746.7L1159.3 643L1160.7 765L1162 753L1163.3 768.1L1164.7 407L1166 737L1167.3 753L1168.7 756.7L1170 641.3L1171.3 768.1L1172.7 764.3L1174 768.6L1175.3 428.3L1176.7 747.6L1178 748.2L1179.3 767.7L1180.7 648.2L1182 770.6L1183.3 774.9L1184.7 769.2L1186 387.4L1187.3 749.6L1188.7 762.8L1190 760.2L1191.3 652.7L1192.7 765.1L1194 763.6L1195.3 770.2L1196.7 399.2L1198 734L1199.3 763.2L1200.7 768.9L1202 663.4L1203.3 763.9L1204.7 769.8L1206 765.6L1207.3 400.2L1208.7 754L1210 718.7L1211.3 763.3L1212.7 670.3L1214 770.4L1215.3 771.8L1216.7 758.7L1218 434.1L1219.3 739.2L1220.7 768.6L1222 763.5L1223.3 626.3L1224.7 773L1226 774.1L1227.3 770.7L1228.7 413.8L1230 761L1231.3 747.7L1232.7 767.8L1234 642.3L1235.3 772.4L1236.7 766.6L1238 765L1239.3 407.3L1240.7 746L1242 760.1L1243.3 765.6L1244.7 646.6L1246 767.6L1247.3 773.7L1248.7 768.7L1250 424.4L1251.3 754.5L1252.7 757.6L1254 762.9L1255.3 657.4L1256.7 761.2L1258 768.7L1259.3 776.3L1260.7 412.7L1262 755.9L1263.3 759.2L1264.7 761.3L1266 661.1L1267.3 761.1L1268.7 767.7L1270 763.7L1271.3 443.2L1272.7 743.1L1274 764.4L1275.3 753L1276.7 655.6L1278 761.3L1279.3 764.7L1280.7 763.7L1282 415.4L1283.3 731.3L1284.7 743.9L1286 737L1287.3 643.1L1288.7 760.8L1290 763L1291.3 772L1292.7 418.4L1294 729.1L1295.3 760.4L1296.7 740.2L1298 644.2L1299.3 768.5L1300.7 759.3L1302 764.5L1303.3 379.6L1304.7 748.6L1306 763.4L1307.3 757.5L1308.7 659.8L1310 765L1311.3 759.6L1312.7 774L1314 419.8L1315.3 726.1L1316.7 758.8L1318 745.2L1319.3 641.1L1320.7 769.5L1322 761.4L1323.3 756.5L1324.7 373.9L1326 724.3L1327.3 745.2L1328.7 747.3L1330 651.7L1331.3 753.4L1332.7 758.5L1334 766.6L1335.3 384.4L1336.7 712.2L1338 749.4L1339.3 747.5L1340.7 639.3L1342 768.2L1343.3 760.8L1344.7 758.7L1346 415.9L1347.3 747.5L1348.7 742.3L1350 765L1351.3 660.8L1352.7 762.9L1354 774.5L1355.3 771L1356.7 410.2L1358 741.6L1359.3 762.5L1360.7 758.2L1362 647.3L1363.3 756.5L1364.7 771.2L1366 764L1367.3 416L1368.7 737.8L1370 754.9L1371.3 752.7L1372.7 639.4L1374 765.3L1375.3 769.6L1376.7 763.3L1378 391.3L1379.3 732.4L1380.7 753.5L1382 745.2L1383.3 646.8L1384.7 769.1L1386 770.3L1387.3 786.2L1388.7 398.7L1390 730.5L1391.3 755.7L1392.7 765L1394 645.8L1395.3 759.7L1396.7 775.5L1398 770.8L1399.3 418.8L1400.7 730.7L1402 749.7L1403.3 743.4L1404.7 621.5L1406 758.2L1407.3 761.3L1408.7 764L1410 425.6L1411.3 725.2L1412.7 748.6L1414 729.1L1415.3 650L1416.7 758.3L1418 764.7L1419.3 779.3L1420.7 408.8L1422 738.1L1423.3 760.7L1424.7 758L1426 635.5L1427.3 764L1428.7 774.5L1430 759.9L1431.3 358.8L1432.7 746L1434 750L1435.3 746.9L1436.7 653.1L1438 768.7L1439.3 762.4L1440.7 766.9L1442 412.2L1443.3 729.9L1444.7 757.6L1446 743.1L1447.3 643.6L1448.7 764L1450 766.6L1451.3 766L1452.7 402.3L1454 729.6L1455.3 745.3L1456.7 765.5L1458 660.5L1459.3 769.9L1460.7 756.4L1462 753.3L1463.3 396.7L1464.7 734.3L1466 744.5L1467.3 741.4L1468.7 653.2L1470 764.3L1471.3 774.4L1472.7 768.1L1474 406.6L1475.3 737.6L1476.7 767.5L1478 734.1L1479.3 628.8L1480.7 750.2L1482 756.1L1483.3 762.1L1484.7 392.4L1486 757.6L1487.3 756.8L1488.7 764L1490 640.3L1491.3 756.7L1492.7 772.5L1494 776L1495.3 388.7L1496.7 754.1L1498 745.1L1499.3 753.7L1500.7 641.2L1502 761.6L1503.3 763.6L1504.7 765.3L1506 397.6L1507.3 743.4L1508.7 758.7L1510 756.1L1511.3 639.4L1512.7 755.3L1514 756.1L1515.3 760.3L1516.7 385.6L1518 740.2L1519.3 751.6L1520.7 757.7L1522 652.6L1523.3 756.3L1524.7 772.9L1526 775.9L1527.3 396L1528.7 749.4L1530 741.8L1531.3 762L1532.7 636.8L1534 760.7L1535.3 762.4L1536.7 767.7L1538 429.8L1539.3 740.7L1540.7 754L1542 761L1543.3 653.2L1544.7 761.9L1546 756.8L1547.3 755.4L1548.7 435.9L1550 740.7L1551.3 758L1552.7 756.7L1554 662.2L1555.3 770.6L1556.7 783.3L1558 773.1L1559.3 445.5L1560.7 760.4L1562 762.6L1563.3 760.9L1564.7 648.7L1566 758.9L1567.3 765.1L1568.7 768.5L1570 348.1L1571.3 758.3L1572.7 750.1L1574 760.7L1575.3 658.5L1576.7 764.9L1578 764.3L1579.3 766.3L1580.7 424.6L1582 763L1583.3 760.4L1584.7 758.6L1586 641.6L1587.3 759.2L1588.7 764.6L1590 770.9L1591.3 417.2L1592.7 746.6L1594 752.4L1595.3 746.8L1596.7 635.9L1598 773.5L1599.3 757.8L1600.7 767.4L1602 410.8L1603.3 726.8L1604.7 746.6L1606 739.6L1607.3 641.7L1608.7 770.3L1610 758.5L1611.3 764.7L1612.7 348.6L1614 709.9L1615.3 750.8L1616.7 757.1L1618 641.2L1619.3 763.5L1620.7 756.5L1622 770.3L1623.3 380.8L1624.7 738.3L1626 736L1627.3 715.8L1628.7 633.1L1630 739.6L1631.3 767.7L1632.7 766.7L1634 369.9L1635.3 719.3L1636.7 734.8L1638 736.8L1639.3 645.1L1640.7 763.4L1642 761.6L1643.3 774L1644.7 427.1L1646 722.8L1647.3 748.9L1648.7 726.5L1650 642.9L1651.3 753.9L1652.7 761.9L1654 760.4L1655.3 400.3L1656.7 721.2L1658 731.7L1659.3 739.9L1660.7 636.7L1662 757.7L1663.3 759.6L1664.7 768.6L1666 410.3L1667.3 735.2L1668.7 752.4L1670 749.2L1671.3 656.3L1672.7 767.7L1674 764L1675.3 752.2L1676.7 412.4L1678 726.5L1679.3 752.6L1680.7 748L1682 656.3L1683.3 762.3L1684.7 764.5L1686 757.4L1687.3 416.7L1688.7 738.6L1690 748.1L1691.3 744.7L1692.7 638.3L1694 768.1L1695.3 760.7L1696.7 773L1698 400.8L1699.3 736.7L1700.7 745.6L1702 743.4L1703.3 640.8L1704.7 772.7L1706 765.5L1707.3 767.1L1708.7 345.1L1710 730.9L1711.3 752.2L1712.7 758.3L1714 634.7L1715.3 768L1716.7 763.9L1718 764.1L1719.3 413.4L1720.7 737.2L1722 755.3L1723.3 748.1L1724.7 632.5L1726 765.7L1727.3 771.8L1728.7 772.3L1730 388L1731.3 732.3L1732.7 748.7L1734 753.8L1735.3 645L1736.7 761.8L1738 761.7L1739.3 760.6L1740.7 401.8L1742 745.8L1743.3 756.4L1744.7 763.4L1746 637.1L1747.3 760.1L1748.7 769L1750 761.9L1751.3 410L1752.7 734.9L1754 761.8L1755.3 758.5L1756.7 647.4L1758 744L1759.3 768.7L1760.7 770.9L1762 420L1763.3 749.7L1764.7 757.6L1766 768.6L1767.3 670.5L1768.7 780.5L1770 773.5L1771.3 772.6L1772.7 406.7L1774 739.6L1775.3 758.2L1776.7 741.8L1778 634.2L1779.3 771.5L1780.7 761.3L1782 769.8L1783.3 404.3L1784.7 722L1786 758.2L1787.3 763.2L1788.7 656.6L1790 756.2L1791.3 760.7L1792.7 772.2L1794 389.9L1795.3 735.1L1796.7 764.5L1798 763.9L1799.3 651.8" fill="transparent" stroke="#3fb1e3" stroke-width="3" stroke-linejoin="bevel" class="zr13-cls-41"></path>
</g>
<path d="M-326.4 -5l652.8 0l0 28l-652.8 0Z" transform="translate(1000 5)" fill="rgb(0,0,0)" fill-opacity="0" stroke="#ccc" stroke-width="0" class="zr13-cls-39"></path>
<text dominant-baseline="central" text-anchor="middle" style="font-size:18px;font-family:sans-serif;font-weight:bold;" xml:space="preserve" y="9" transform="translate(1000 5)" fill="#666666">Min controlBehaviorUpdate per Tick for bench_4_every_240_staggered_reverse</text>
<defs >
<clipPath id="zr13-c0">
<path d="M198 58.5l16004 0l0 8703l-16004 0Z" fill="#000" class="zr13-cls-40"></path>
</clipPath>
</defs>
<style ><![CDATA[
.zr13-cls-39:hover {
pointer-events:none;
}
.zr13-cls-40:hover {
cursor:pointer;
fill:rgba(0,0,0,1);
}
.zr13-cls-41:hover {
cursor:pointer;
}

]]>

</style>
</svg>