<svg width="2000" height="1000" xmlns="http://www.w3.org/2000/svg" xmlns:xlink="http://www.w3.org/1999/xlink" version="1.1" baseProfile="full" viewBox="0 0 2000 1000">
<rect width="2000" height="1000" x="0" y="0" fill="rgb(252,252,252)" fill-opacity="0"></rect>
<path d="M200 930.5L1800 930.5" fill="transparent" stroke="#eeeeee" class="zr31-cls-93"></path>
<path d="M200 743.5L1800 743.5" fill="transparent" stroke="#eeeeee" class="zr31-cls-93"></path>
<path d="M200 556.5L1800 556.5" fill="transparent" stroke="#eeeeee" class="zr31-cls-93"></path>
<path d="M200 370.5L1800 370.5" fill="transparent" stroke="#eeeeee" class="zr31-cls-93"></path>
<path d="M200 183.5L1800 183.5" fill="transparent" stroke="#eeeeee" class="zr31-cls-93"></path>
<path d="M200 60.5L1800 60.5" fill="transparent" stroke="#eeeeee" class="zr31-cls-93"></path>
<path d="M200.5 930L200.5 60" fill="transparent" stroke="#cccccc" stroke-linecap="round" class="zr31-cls-93"></path>
<text dominant-baseline="central" text-anchor="middle" style="font-size:12px;font-family:sans-serif;" xml:space="preserve" y="-6" transform="translate(200 45)" fill="#cccccc">Min entityUpdate Time (ms)</text>
<path d="M200 930.5L1800 930.5" fill="transparent" stroke="#cccccc" stroke-linecap="round" class="zr31-cls-93"></path>
<text dominant-baseline="central" text-anchor="end" style="font-size:12px;font-family:sans-serif;" transform="translate(192 930)" fill="#999999">0.000</text>
<text dominant-baseline="central" text-anchor="end" style="font-size:12px;font-family:sans-serif;" transform="translate(192 743.2702)" fill="#999999">1.000</text>
<text dominant-baseline="central" text-anchor="end" style="font-size:12px;font-family:sans-serif;" transform="translate(192 556.5403)" fill="#999999">2.000</text>
<text dominant-baseline="central" text-anchor="end" style="font-size:12px;font-family:sans-serif;" transform="translate(192 369.8105)" fill="#999999">3.000</text>
<text dominant-baseline="central" text-anchor="end" style="font-size:12px;font-family:sans-serif;" transform="translate(192 183.0807)" fill="#999999">4.000</text>
<text dominant-baseline="central" text-anchor="end" style="font-size:12px;font-family:sans-serif;" transform="translate(192 60)" fill="#999999">4.659</text>
<text dominant-baseline="central" text-anchor="middle" style="font-size:12px;font-family:sans-serif;" y="6" transform="translate(200.6667 938)" fill="#999999">0</text>
<text dominant-baseline="central" text-anchor="middle" style="font-size:12px;font-family:sans-serif;" y="6" transform="translate(236.6667 938)" fill="#999999">27</text>
<text dominant-baseline="central" text-anchor="middle" style="font-size:12px;font-family:sans-serif;" y="6" transform="translate(272.6667 938)" fill="#999999">54</text>
<text dominant-baseline="central" text-anchor="middle" style="font-size:12px;font-family:sans-serif;" y="6" transform="translate(308.6667 938)" fill="#999999">81</text>
<text dominant-baseline="central" text-anchor="middle" style="font-size:12px;font-family:sans-serif;" y="6" transform="translate(344.6667 938)" fill="#999999">108</text>
<text dominant-baseline="central" text-anchor="middle" style="font-size:12px;font-family:sans-serif;" y="6" transform="translate(380.6667 938)" fill="#999999">135</text>
<text dominant-baseline="central" text-anchor="middle" style="font-size:12px;font-family:sans-serif;" y="6" transform="translate(416.6667 938)" fill="#999999">162</text>
<text dominant-baseline="central" text-anchor="middle" style="font-size:12px;font-family:sans-serif;" y="6" transform="translate(452.6667 938)" fill="#999999">189</text>
<text dominant-baseline="central" text-anchor="middle" style="font-size:12px;font-family:sans-serif;" y="6" transform="translate(488.6667 938)" fill="#999999">216</text>
<text dominant-baseline="central" text-anchor="middle" style="font-size:12px;font-family:sans-serif;" y="6" transform="translate(524.6667 938)" fill="#999999">243</text>
<text dominant-baseline="central" text-anchor="middle" style="font-size:12px;font-family:sans-serif;" y="6" transform="translate(560.6667 938)" fill="#999999">270</text>
<text dominant-baseline="central" text-anchor="middle" style="font-size:12px;font-family:sans-serif;" y="6" transform="translate(596.6667 938)" fill="#999999">297</text>
<text dominant-baseline="central" text-anchor="middle" style="font-size:12px;font-family:sans-serif;" y="6" transform="translate(632.6667 938)" fill="#999999">324</text>
<text dominant-baseline="central" text-anchor="middle" style="font-size:12px;font-family:sans-serif;" y="6" transform="translate(668.6667 938)" fill="#999999">351</text>
<text dominant-baseline="central" text-anchor="middle" style="font-size:12px;font-family:sans-serif;" y="6" transform="translate(704.6667 938)" fill="#999999">378</text>
<text dominant-baseline="central" text-anchor="middle" style="font-size:12px;font-family:sans-serif;" y="6" transform="translate(740.6667 938)" fill="#999999">405</text>
<text dominant-baseline="central" text-anchor="middle" style="font-size:12px;font-family:sans-serif;" y="6" transform="translate(776.6667 938)" fill="#999999">432</text>
<text dominant-baseline="central" text-anchor="middle" style="font-size:12px;font-family:sans-serif;" y="6" transform="translate(812.6667 938)" fill="#999999">459</text>
<text dominant-baseline="central" text-anchor="middle" style="font-size:12px;font-family:sans-serif;" y="6" transform="translate(848.6667 938)" fill="#999999">486</text>
<text dominant-baseline="central" text-anchor="middle" style="font-size:12px;font-family:sans-serif;" y="6" transform="translate(884.6667 938)" fill="#999999">513</text>
<text dominant-baseline="central" text-anchor="middle" style="font-size:12px;font-family:sans-serif;" y="6" transform="translate(920.6667 938)" fill="#999999">540</text>
<text dominant-baseline="central" text-anchor="middle" style="font-size:12px;font-family:sans-serif;" y="6" transform="translate(956.6667 938)" fill="#999999">567</text>
<text dominant-baseline="central" text-anchor="middle" style="font-size:12px;font-family:sans-serif;" y="6" transform="translate(992.6667 938)" fill="#999999">594</text>
<text dominant-baseline="central" text-anchor="middle" style="font-size:12px;font-family:sans-serif;" y="6" transform="translate(1028.6667 938)" fill="#999999">621</text>
<text dominant-baseline="central" text-anchor="middle" style="font-size:12px;font-family:sans-serif;" y="6" transform="translate(1064.6667 938)" fill="#999999">648</text>
<text dominant-baseline="central" text-anchor="middle" style="font-size:12px;font-family:sans-serif;" y="6" transform="translate(1100.6667 938)" fill="#999999">675</text>
<text dominant-baseline="central" text-anchor="middle" style="font-size:12px;font-family:sans-serif;" y="6" transform="translate(1136.6667 938)" fill="#999999">702</text>
<text dominant-baseline="central" text-anchor="middle" style="font-size:12px;font-family:sans-serif;" y="6" transform="translate(1172.6667 938)" fill="#999999">729</text>
<text dominant-baseline="central" text-anchor="middle" style="font-size:12px;font-family:sans-serif;" y="6" transform="translate(1208.6667 938)" fill="#999999">756</text>
<text dominant-baseline="central" text-anchor="middle" style="font-size:12px;font-family:sans-serif;" y="6" transform="translate(1244.6667 938)" fill="#999999">783</text>
<text dominant-baseline="central" text-anchor="middle" style="font-size:12px;font-family:sans-serif;" y="6" transform="translate(1280.6667 938)" fill="#999999">810</text>
<text dominant-baseline="central" text-anchor="middle" style="font-size:12px;font-family:sans-serif;" y="6" transform="translate(1316.6667 938)" fill="#999999">837</text>
<text dominant-baseline="central" text-anchor="middle" style="font-size:12px;font-family:sans-serif;" y="6" transform="translate(1352.6667 938)" fill="#999999">864</text>
<text dominant-baseline="central" text-anchor="middle" style="font-size:12px;font-family:sans-serif;" y="6" transform="translate(1388.6667 938)" fill="#999999">891</text>
<text dominant-baseline="central" text-anchor="middle" style="font-size:12px;font-family:sans-serif;" y="6" transform="translate(1424.6667 938)" fill="#999999">918</text>
<text dominant-baseline="central" text-anchor="middle" style="font-size:12px;font-family:sans-serif;" y="6" transform="translate(1460.6667 938)" fill="#999999">945</text>
<text dominant-baseline="central" text-anchor="middle" style="font-size:12px;font-family:sans-serif;" y="6" transform="translate(1496.6667 938)" fill="#999999">972</text>
<text dominant-baseline="central" text-anchor="middle" style="font-size:12px;font-family:sans-serif;" y="6" transform="translate(1532.6667 938)" fill="#999999">999</text>
<text dominant-baseline="central" text-anchor="middle" style="font-size:12px;font-family:sans-serif;" y="6" transform="translate(1568.6667 938)" fill="#999999">1026</text>
<text dominant-baseline="central" text-anchor="middle" style="font-size:12px;font-family:sans-serif;" y="6" transform="translate(1604.6667 938)" fill="#999999">1053</text>
<text dominant-baseline="central" text-anchor="middle" style="font-size:12px;font-family:sans-serif;" y="6" transform="translate(1640.6667 938)" fill="#999999">1080</text>
<text dominant-baseline="central" text-anchor="middle" style="font-size:12px;font-family:sans-serif;" y="6" transform="translate(1676.6667 938)" fill="#999999">1107</text>
<text dominant-baseline="central" text-anchor="middle" style="font-size:12px;font-family:sans-serif;" y="6" transform="translate(1712.6667 938)" fill="#999999">1134</text>
<text dominant-baseline="central" text-anchor="middle" style="font-size:12px;font-family:sans-serif;" y="6" transform="translate(1748.6667 938)" fill="#999999">1161</text>
<text dominant-baseline="central" text-anchor="middle" style="font-size:12px;font-family:sans-serif;" y="6" transform="translate(1784.6667 938)" fill="#999999">1188</text>
<g clip-path="url(#zr31-c0)">
<path d="M200.7 572.3L202 771.4L203.3 773.2L204.7 853.7L206 810.3L207.3 867.3L208.7 693.5L210 743.1L211.3 751.8L212.7 820L214 777.1L215.3 866.3L216.7 829.8L218 866L219.3 699.2L220.7 688.4L222 771.1L223.3 811.8L224.7 770.1L226 867.1L227.3 832.1L228.7 866L230 705.1L231.3 741L232.7 760.4L234 817.4L235.3 786.3L236.7 867L238 830.8L239.3 867.7L240.7 700.8L242 708.9L243.3 731.2L244.7 794.2L246 748.4L247.3 865.8L248.7 831.8L250 866.8L251.3 695.6L252.7 740L254 782.2L255.3 801.2L256.7 777.2L258 865.7L259.3 830.9L260.7 867.4L262 705.6L263.3 700.6L264.7 757.2L266 788L267.3 767.5L268.7 864.7L270 827.1L271.3 867.6L272.7 692.9L274 706.3L275.3 746.5L276.7 804.3L278 784.4L279.3 854L280.7 829.6L282 867.4L283.3 700.9L284.7 703.9L286 771L287.3 792.4L288.7 762.8L290 863.2L291.3 809.9L292.7 864.9L294 698.3L295.3 715.9L296.7 778.6L298 820.4L299.3 787L300.7 865.2L302 832.5L303.3 865.5L304.7 709.9L306 695.8L307.3 744.6L308.7 793.7L310 760.8L311.3 864.4L312.7 832.6L314 867.4L315.3 708.2L316.7 705.6L318 759.1L319.3 794.3L320.7 772.4L322 862.5L323.3 828.6L324.7 865.1L326 697.2L327.3 680L328.7 746.7L330 800.8L331.3 764.5L332.7 864.4L334 832.1L335.3 867.5L336.7 698.6L338 724.3L339.3 755L340.7 803.5L342 779.9L343.3 866.1L344.7 830.2L346 866.1L347.3 698.9L348.7 695.5L350 741.8L351.3 797.9L352.7 750L354 862.7L355.3 816.6L356.7 866.2L358 682.2L359.3 710.1L360.7 733.5L362 807.4L363.3 752.2L364.7 864.4L366 831.6L367.3 867.1L368.7 702.1L370 682L371.3 739.9L372.7 792L374 777.4L375.3 862.9L376.7 825.5L378 865.2L379.3 662.5L380.7 713.7L382 760L383.3 818.2L384.7 766.3L386 862.8L387.3 820.1L388.7 865.9L390 698L391.3 677.7L392.7 743.3L394 800.8L395.3 762.8L396.7 864.1L398 832.2L399.3 867.4L400.7 702.8L402 739L403.3 750.9L404.7 818.5L406 779.2L407.3 866.5L408.7 827.8L410 867.6L411.3 703.3L412.7 697.5L414 707.1L415.3 784.3L416.7 778L418 853.2L419.3 833.2L420.7 868L422 682.3L423.3 702.1L424.7 748.5L426 794.8L427.3 777.1L428.7 857.1L430 832.6L431.3 865.7L432.7 692.8L434 688.8L435.3 706.2L436.7 791.1L438 780L439.3 861.2L440.7 822.7L442 863.4L443.3 682.2L444.7 713.2L446 749.7L447.3 819.9L448.7 779.8L450 864L451.3 832.2L452.7 867.9L454 700.1L455.3 701.8L456.7 720.2L458 789.7L459.3 739.6L460.7 864.6L462 816.5L463.3 866.9L464.7 685.3L466 709.6L467.3 730.6L468.7 807.3L470 786.5L471.3 861.1L472.7 827.1L474 864.3L475.3 695.6L476.7 695.6L478 747.8L479.3 809.6L480.7 760.3L482 862.9L483.3 827.6L484.7 865.3L486 696.3L487.3 720.9L488.7 761.3L490 785.2L491.3 777.9L492.7 866.1L494 815.4L495.3 863.5L496.7 709.7L498 720.3L499.3 759.2L500.7 792.8L502 764.3L503.3 852.2L504.7 828.5L506 867L507.3 708.1L508.7 725L510 756.3L511.3 808.4L512.7 788.3L514 866.8L515.3 832.2L516.7 866.3L518 695.9L519.3 712.6L520.7 764L522 792.2L523.3 767L524.7 865.9L526 832.2L527.3 866.9L528.7 693L530 722.6L531.3 776.4L532.7 808.6L534 776.7L535.3 862.6L536.7 832L538 866L539.3 704.4L540.7 702.5L542 743.8L543.3 775.9L544.7 747.4L546 861.2L547.3 828.7L548.7 866.2L550 690.9L551.3 728.7L552.7 765.8L554 817.7L555.3 772.9L556.7 865.9L558 832.1L559.3 867.3L560.7 676.4L562 700.4L563.3 771.7L564.7 795.8L566 774.2L567.3 864.4L568.7 829.7L570 853.1L571.3 698.9L572.7 715L574 744.7L575.3 817.9L576.7 782.2L578 863.7L579.3 830.2L580.7 866.6L582 704.3L583.3 689.2L584.7 713.2L586 793.5L587.3 772.8L588.7 865.2L590 829.8L591.3 864.3L592.7 669.3L594 722.9L595.3 754.2L596.7 782.7L598 776.4L599.3 863L600.7 829.3L602 865.8L603.3 690.4L604.7 695.1L606 733.4L607.3 807.7L608.7 763.4L610 864.7L611.3 827.7L612.7 866.9L614 690.9L615.3 734.7L616.7 754.8L618 804.9L619.3 785L620.7 867L622 832.5L623.3 865L624.7 707.9L626 713.6L627.3 753.8L628.7 812.9L630 774.4L631.3 862.7L632.7 813.8L634 867.4L635.3 669.8L636.7 711.5L638 739.2L639.3 791.7L640.7 785.8L642 866.1L643.3 832.9L644.7 867.1L646 699.1L647.3 684L648.7 747.3L650 800L651.3 760.7L652.7 852.9L654 829.5L655.3 866.8L656.7 705.1L658 730.1L659.3 748.7L660.7 819.4L662 774.5L663.3 863.2L664.7 809.7L666 866.3L667.3 703.5L668.7 677.6L670 716.3L671.3 776.6L672.7 741.8L674 852.8L675.3 831.4L676.7 866.9L678 704.2L679.3 701L680.7 758.3L682 807.3L683.3 777.9L684.7 865.1L686 830.1L687.3 861.5L688.7 694.5L690 695.9L691.3 751L692.7 812.9L694 780.8L695.3 859.4L696.7 825.6L698 864.6L699.3 691.8L700.7 709.2L702 759.4L703.3 815.9L704.7 772.6L706 864.4L707.3 829.3L708.7 866L710 697.4L711.3 673L712.7 721.4L714 793L715.3 770.9L716.7 860.9L718 827.1L719.3 867.1L720.7 703.3L722 700.7L723.3 759.6L724.7 812.3L726 784.9L727.3 866.9L728.7 826.8L730 864.1L731.3 695.4L732.7 700.4L734 762.3L735.3 792.3L736.7 759.5L738 853L739.3 828.9L740.7 865.7L742 698.8L743.3 731.1L744.7 752.4L746 800.7L747.3 786.5L748.7 862.5L750 830.5L751.3 867.6L752.7 703.4L754 683.1L755.3 739L756.7 787L758 761L759.3 864L760.7 829.8L762 866.1L763.3 690.3L764.7 738.6L766 752.7L767.3 805.2L768.7 783.9L770 866.2L771.3 832.6L772.7 864.9L774 695.2L775.3 696.7L776.7 743.8L778 815.2L779.3 779.4L780.7 867L782 827.3L783.3 867.6L784.7 695.9L786 715.5L787.3 753.1L788.7 799.9L790 784L791.3 864.7L792.7 829.8L794 864.6L795.3 697.5L796.7 703.7L798 715.4L799.3 812.4L800.7 756.9L802 862.3L803.3 831.9L804.7 867.5L806 700.2L807.3 726.8L808.7 757.3L810 801L811.3 780.5L812.7 864.9L814 828.4L815.3 867.1L816.7 707.5L818 708.1L819.3 748.5L820.7 805L822 759.4L823.3 865.2L824.7 830.1L826 866L827.3 686.4L828.7 726.3L830 783.3L831.3 819.7L832.7 790.7L834 865L835.3 833L836.7 866.7L838 707.8L839.3 714.2L840.7 774.6L842 817.2L843.3 780.8L844.7 866.9L846 830.8L847.3 866L848.7 706.3L850 743.6L851.3 754.5L852.7 821.2L854 786.7L855.3 866L856.7 830.6L858 865.3L859.3 709L860.7 716L862 749.5L863.3 814.2L864.7 772.7L866 864.6L867.3 830.4L868.7 866.5L870 675.8L871.3 706.3L872.7 774.6L874 796.2L875.3 778.8L876.7 866.3L878 832.3L879.3 853.2L880.7 689L882 672.1L883.3 733.3L884.7 811.1L886 760.5L887.3 863.6L888.7 832.7L890 866.6L891.3 682.7L892.7 703.7L894 765.2L895.3 804.4L896.7 757.5L898 863.6L899.3 826.6L900.7 864.2L902 686L903.3 680.4L904.7 764.8L906 796.1L907.3 766.2L908.7 866.7L910 823.4L911.3 865.5L912.7 707L914 705.2L915.3 762.2L916.7 803.8L918 777.6L919.3 864.1L920.7 829.5L922 867.1L923.3 701.9L924.7 698.8L926 732.4L927.3 790.1L928.7 767.4L930 865L931.3 826L932.7 867.3L934 698.5L935.3 712.4L936.7 747.5L938 815.3L939.3 784.3L940.7 866.5L942 829.1L943.3 867.4L944.7 702.3L946 678L947.3 741.8L948.7 809.3L950 774L951.3 864.9L952.7 831.3L954 867L955.3 684.4L956.7 705.4L958 765.3L959.3 805.6L960.7 754.8L962 864.6L963.3 829.9L964.7 865L966 701.5L967.3 701.3L968.7 726.2L970 790.2L971.3 754.1L972.7 865.3L974 830.7L975.3 866.9L976.7 702.7L978 726.5L979.3 746.1L980.7 813.9L982 780L983.3 865.3L984.7 831.8L986 867.6L987.3 708.9L988.7 714.8L990 769.2L991.3 807.7L992.7 779.3L994 859.7L995.3 833.1L996.7 868L998 689.6L999.3 718.7L1000.7 777L1002 795.2L1003.3 786.6L1004.7 865.1L1006 828.7L1007.3 867.1L1008.7 696.3L1010 670.4L1011.3 743.5L1012.7 798.4L1014 778.2L1015.3 866.6L1016.7 832L1018 866.3L1019.3 699.1L1020.7 736.5L1022 750.7L1023.3 818.2L1024.7 775.1L1026 865.1L1027.3 808.9L1028.7 867.4L1030 701.2L1031.3 678.5L1032.7 768.4L1034 803L1035.3 763.7L1036.7 859.1L1038 829.3L1039.3 865.3L1040.7 693.6L1042 723.8L1043.3 761.9L1044.7 804.9L1046 771.4L1047.3 865.2L1048.7 830.3L1050 866.8L1051.3 692L1052.7 696.9L1054 716L1055.3 787.2L1056.7 764.3L1058 860.7L1059.3 826.9L1060.7 852.5L1062 688.2L1063.3 716L1064.7 738L1066 805.7L1067.3 780.6L1068.7 865L1070 829.1L1071.3 865.8L1072.7 690.1L1074 682.9L1075.3 733.4L1076.7 802L1078 762.2L1079.3 862.5L1080.7 830.2L1082 865.4L1083.3 682.2L1084.7 711.9L1086 752.3L1087.3 795L1088.7 770.3L1090 866.4L1091.3 826.7L1092.7 866.5L1094 679.1L1095.3 694.8L1096.7 729.2L1098 793.4L1099.3 753.3L1100.7 863.8L1102 826.9L1103.3 866.4L1104.7 688.1L1106 719.5L1107.3 757L1108.7 788.7L1110 773.7L1111.3 862.6L1112.7 828.8L1114 864.9L1115.3 684.3L1116.7 694.7L1118 743.7L1119.3 795.4L1120.7 764.8L1122 862.2L1123.3 827.3L1124.7 864.5L1126 695.1L1127.3 717L1128.7 759.5L1130 804.2L1131.3 771.2L1132.7 863.8L1134 828.6L1135.3 866.6L1136.7 701.9L1138 709.7L1139.3 721.3L1140.7 787.9L1142 767.5L1143.3 851L1144.7 831.1L1146 867.2L1147.3 700.6L1148.7 723.4L1150 763.8L1151.3 818.1L1152.7 785.8L1154 865.4L1155.3 831.6L1156.7 867L1158 698.7L1159.3 694.4L1160.7 761.1L1162 813.6L1163.3 779L1164.7 864.7L1166 831.6L1167.3 866.9L1168.7 703L1170 730.4L1171.3 754.5L1172.7 815.8L1174 784.9L1175.3 864.9L1176.7 816.1L1178 866.4L1179.3 704.7L1180.7 684L1182 744.9L1183.3 795.3L1184.7 772.3L1186 861.3L1187.3 830.1L1188.7 867L1190 700.2L1191.3 720.1L1192.7 763.5L1194 782.1L1195.3 775.9L1196.7 864.1L1198 830.9L1199.3 865.1L1200.7 700.7L1202 698.4L1203.3 743.6L1204.7 804.4L1206 769.2L1207.3 866.5L1208.7 831.8L1210 867.1L1211.3 692.6L1212.7 718.8L1214 752.4L1215.3 801.7L1216.7 768.7L1218 864.2L1219.3 830.1L1220.7 866L1222 697.1L1223.3 697.2L1224.7 734.9L1226 778.4L1227.3 757.7L1228.7 864.5L1230 830.6L1231.3 866.5L1232.7 698.4L1234 710.7L1235.3 736.8L1236.7 804.4L1238 773.4L1239.3 860.5L1240.7 829.9L1242 866.6L1243.3 674.6L1244.7 682L1246 738.2L1247.3 801.7L1248.7 773.1L1250 865.2L1251.3 830.8L1252.7 866.7L1254 698.7L1255.3 721.4L1256.7 739L1258 799.7L1259.3 775.1L1260.7 864L1262 829.5L1263.3 863.1L1264.7 699.3L1266 687.8L1267.3 728.3L1268.7 786.7L1270 764.4L1271.3 865.1L1272.7 830.9L1274 866.5L1275.3 692.6L1276.7 724.8L1278 758.4L1279.3 803.9L1280.7 778.3L1282 864.6L1283.3 829.7L1284.7 866.5L1286 688.6L1287.3 679.3L1288.7 709.4L1290 779.1L1291.3 760.2L1292.7 865.4L1294 830.7L1295.3 867L1296.7 703L1298 722.7L1299.3 761.8L1300.7 793.4L1302 770.5L1303.3 865.9L1304.7 830.8L1306 866.8L1307.3 700.8L1308.7 696L1310 731.2L1311.3 795.9L1312.7 750L1314 866.3L1315.3 831.5L1316.7 867L1318 693.6L1319.3 714L1320.7 774.1L1322 802.7L1323.3 783.4L1324.7 865L1326 831.7L1327.3 866L1328.7 700L1330 704.9L1331.3 726.1L1332.7 790.7L1334 749.6L1335.3 865.4L1336.7 817.5L1338 865.9L1339.3 699.1L1340.7 703.3L1342 750.3L1343.3 803.1L1344.7 745.5L1346 865.7L1347.3 831.1L1348.7 866.8L1350 705.3L1351.3 679.4L1352.7 726.1L1354 798.5L1355.3 752.8L1356.7 860L1358 831.3L1359.3 866.5L1360.7 697.3L1362 709.2L1363.3 746.5L1364.7 811.7L1366 782.7L1367.3 864.8L1368.7 828.3L1370 866.1L1371.3 666.3L1372.7 696.4L1374 716.8L1375.3 797.3L1376.7 766.5L1378 862.9L1379.3 820.9L1380.7 866.3L1382 686.9L1383.3 721.9L1384.7 757L1386 811.9L1387.3 765L1388.7 867.4L1390 827.3L1391.3 866.9L1392.7 673.6L1394 696.8L1395.3 753L1396.7 784.3L1398 771.6L1399.3 866.9L1400.7 832.5L1402 866.7L1403.3 699.3L1404.7 725.6L1406 752.7L1407.3 813.6L1408.7 786.9L1410 865.6L1411.3 833L1412.7 867.9L1414 693.6L1415.3 712.6L1416.7 762.3L1418 813.1L1419.3 780.2L1420.7 866.7L1422 808L1423.3 864.3L1424.7 694L1426 737.9L1427.3 760.3L1428.7 813.3L1430 779.6L1431.3 862.8L1432.7 830.2L1434 866.7L1435.3 693.7L1436.7 690L1438 757L1439.3 800.4L1440.7 766L1442 865L1443.3 827.5L1444.7 867.2L1446 681.9L1447.3 714.8L1448.7 748.8L1450 800.9L1451.3 778L1452.7 865.9L1454 831.1L1455.3 867.5L1456.7 694.9L1458 696.1L1459.3 743.7L1460.7 799.1L1462 759.9L1463.3 866.8L1464.7 826.5L1466 865.7L1467.3 704.8L1468.7 727.4L1470 767.5L1471.3 802.6L1472.7 776L1474 865.6L1475.3 831.4L1476.7 866.6L1478 705.5L1479.3 695.4L1480.7 744.8L1482 794.7L1483.3 768.5L1484.7 865.5L1486 830.8L1487.3 866.7L1488.7 707.6L1490 723.6L1491.3 757.9L1492.7 807.9L1494 780.4L1495.3 855.4L1496.7 830.5L1498 866.2L1499.3 705.5L1500.7 690.3L1502 745.6L1503.3 774.7L1504.7 763.8L1506 863.9L1507.3 831.2L1508.7 866.8L1510 704.1L1511.3 708.2L1512.7 776.6L1514 815.4L1515.3 782.6L1516.7 866.2L1518 830.2L1519.3 863.9L1520.7 703.5L1522 700.6L1523.3 748.7L1524.7 799.8L1526 766.6L1527.3 866.7L1528.7 831.8L1530 866.7L1531.3 699.4L1532.7 726.1L1534 756.5L1535.3 803.1L1536.7 781.9L1538 862.5L1539.3 830.8L1540.7 865.4L1542 700.1L1543.3 698.3L1544.7 750.3L1546 809.1L1547.3 773.6L1548.7 863.8L1550 823L1551.3 866.8L1552.7 706.2L1554 738.7L1555.3 751.2L1556.7 782.8L1558 780.8L1559.3 867.1L1560.7 832.7L1562 867.4L1563.3 711.2L1564.7 716.5L1566 739.7L1567.3 813.3L1568.7 763.9L1570 864.7L1571.3 825.9L1572.7 865.9L1574 704.9L1575.3 715.6L1576.7 757.3L1578 817.6L1579.3 786.3L1580.7 864.1L1582 829.6L1583.3 867L1584.7 698.8L1586 695.7L1587.3 736.2L1588.7 808.8L1590 770.9L1591.3 866.5L1592.7 830L1594 865.4L1595.3 691.8L1596.7 697.9L1598 760.9L1599.3 819.5L1600.7 784.3L1602 850.6L1603.3 825.9L1604.7 864.2L1606 695.3L1607.3 689.6L1608.7 716.3L1610 794.5L1611.3 762.6L1612.7 865.9L1614 832.9L1615.3 867.3L1616.7 685.2L1618 724.1L1619.3 744.3L1620.7 806.4L1622 769.1L1623.3 867.2L1624.7 832.7L1626 867.2L1627.3 703.7L1628.7 685.8L1630 727.6L1631.3 789.6L1632.7 772.1L1634 862.1L1635.3 831.9L1636.7 868L1638 695.1L1639.3 717.7L1640.7 751.1L1642 805.6L1643.3 780.6L1644.7 859.8L1646 830.4L1647.3 867L1648.7 692.4L1650 671.1L1651.3 723.4L1652.7 775.1L1654 766.1L1655.3 861.7L1656.7 828.5L1658 867.4L1659.3 693.7L1660.7 718.5L1662 780.7L1663.3 814.4L1664.7 786.3L1666 862.9L1667.3 828.4L1668.7 866.7L1670 698.8L1671.3 680.1L1672.7 731.1L1674 786.9L1675.3 762.6L1676.7 863.9L1678 831.1L1679.3 862.1L1680.7 693.1L1682 720L1683.3 737.4L1684.7 804.7L1686 776.5L1687.3 865.3L1688.7 829.6L1690 866.4L1691.3 697.7L1692.7 700.9L1694 742.6L1695.3 795.9L1696.7 764.3L1698 862.8L1699.3 827.8L1700.7 866L1702 672.5L1703.3 723.2L1704.7 756.6L1706 802.8L1707.3 782.9L1708.7 867.4L1710 830.8L1711.3 868.1L1712.7 688.7L1714 680.2L1715.3 737.8L1716.7 803.3L1718 747.1L1719.3 858.8L1720.7 829.2L1722 867.3L1723.3 677.4L1724.7 720.5L1726 769.3L1727.3 805.5L1728.7 786.3L1730 867.5L1731.3 829.9L1732.7 861.8L1734 690.3L1735.3 697.2L1736.7 735.1L1738 804L1739.3 753.8L1740.7 861.5L1742 827.9L1743.3 866.6L1744.7 694.3L1746 710.1L1747.3 760.5L1748.7 805.7L1750 773.6L1751.3 864.5L1752.7 829.1L1754 867.1L1755.3 699.5L1756.7 702.9L1758 733.8L1759.3 794.1L1760.7 749L1762 859.9L1763.3 828.8L1764.7 865.9L1766 696.4L1767.3 711.1L1768.7 766.5L1770 818.4L1771.3 776.2L1772.7 866.7L1774 830.5L1775.3 864.3L1776.7 700.4L1778 707.7L1779.3 748.6L1780.7 794.5L1782 774.4L1783.3 864.8L1784.7 832.2L1786 864.6L1787.3 672.4L1788.7 702.8L1790 761.2L1791.3 815.3L1792.7 779.4L1794 865.3L1795.3 831.4L1796.7 867.3L1798 701.1L1799.3 677.9" fill="transparent" stroke="#3fb1e3" stroke-width="3" stroke-linejoin="bevel" class="zr31-cls-95"></path>
</g>
<path d="M-250.2 -5l500.3 0l0 28l-500.3 0Z" transform="translate(1000 5)" fill="rgb(0,0,0)" fill-opacity="0" stroke="#ccc" stroke-width="0" class="zr31-cls-93"></path>
<text dominant-baseline="central" text-anchor="middle" style="font-size:18px;font-family:sans-serif;font-weight:bold;" xml:space="preserve" y="9" transform="translate(1000 5)" fill="#666666">Min entityUpdate per Tick for bench_4_every_240_staggered</text>
<defs >
<clipPath id="zr31-c0">
<path d="M198 58.5l16004 0l0 8703l-16004 0Z" fill="#000" class="zr31-cls-94"></path>
</clipPath>
</defs>
<style ><![CDATA[
.zr31-cls-93:hover {
pointer-events:none;
}
.zr31-cls-94:hover {
cursor:pointer;
fill:rgba(0,0,0,1);
}
.zr31-cls-95:hover {
cursor:pointer;
}

]]>

</style>
</svg>