<svg width="2000" height="1000" xmlns="http://www.w3.org/2000/svg" xmlns:xlink="http://www.w3.org/1999/xlink" version="1.1" baseProfile="full" viewBox="0 0 2000 1000">
<rect width="2000" height="1000" x="0" y="0" fill="rgb(252,252,252)" fill-opacity="0"></rect>
<path d="M200 930.5L1800 930.5" fill="transparent" stroke="#eeeeee" class="zr27-cls-81"></path>
<path d="M200 797.5L1800 797.5" fill="transparent" stroke="#eeeeee" class="zr27-cls-81"></path>
<path d="M200 665.5L1800 665.5" fill="transparent" stroke="#eeeeee" class="zr27-cls-81"></path>
<path d="M200 532.5L1800 532.5" fill="transparent" stroke="#eeeeee" class="zr27-cls-81"></path>
<path d="M200 399.5L1800 399.5" fill="transparent" stroke="#eeeeee" class="zr27-cls-81"></path>
<path d="M200 267.5L1800 267.5" fill="transparent" stroke="#eeeeee" class="zr27-cls-81"></path>
<path d="M200 134.5L1800 134.5" fill="transparent" stroke="#eeeeee" class="zr27-cls-81"></path>
<path d="M200 60.5L1800 60.5" fill="transparent" stroke="#eeeeee" class="zr27-cls-81"></path>
<path d="M200.5 930L200.5 60" fill="transparent" stroke="#cccccc" stroke-linecap="round" class="zr27-cls-81"></path>
<text dominant-baseline="central" text-anchor="middle" style="font-size:12px;font-family:sans-serif;" xml:space="preserve" y="-6" transform="translate(200 45)" fill="#cccccc">Min transportLinesUpdate Time (ms)</text>
<path d="M200 930.5L1800 930.5" fill="transparent" stroke="#cccccc" stroke-linecap="round" class="zr27-cls-81"></path>
<text dominant-baseline="central" text-anchor="end" style="font-size:12px;font-family:sans-serif;" transform="translate(192 930)" fill="#999999">0.000</text>
<text dominant-baseline="central" text-anchor="end" style="font-size:12px;font-family:sans-serif;" transform="translate(192 797.381)" fill="#999999">0.050</text>
<text dominant-baseline="central" text-anchor="end" style="font-size:12px;font-family:sans-serif;" transform="translate(192 664.762)" fill="#999999">0.100</text>
<text dominant-baseline="central" text-anchor="end" style="font-size:12px;font-family:sans-serif;" transform="translate(192 532.1431)" fill="#999999">0.150</text>
<text dominant-baseline="central" text-anchor="end" style="font-size:12px;font-family:sans-serif;" transform="translate(192 399.5241)" fill="#999999">0.200</text>
<text dominant-baseline="central" text-anchor="end" style="font-size:12px;font-family:sans-serif;" transform="translate(192 266.9051)" fill="#999999">0.250</text>
<text dominant-baseline="central" text-anchor="end" style="font-size:12px;font-family:sans-serif;" transform="translate(192 134.2861)" fill="#999999">0.300</text>
<text dominant-baseline="central" text-anchor="end" style="font-size:12px;font-family:sans-serif;" transform="translate(192 60)" fill="#999999">0.328</text>
<text dominant-baseline="central" text-anchor="middle" style="font-size:12px;font-family:sans-serif;" y="6" transform="translate(200.6667 938)" fill="#999999">0</text>
<text dominant-baseline="central" text-anchor="middle" style="font-size:12px;font-family:sans-serif;" y="6" transform="translate(236.6667 938)" fill="#999999">27</text>
<text dominant-baseline="central" text-anchor="middle" style="font-size:12px;font-family:sans-serif;" y="6" transform="translate(272.6667 938)" fill="#999999">54</text>
<text dominant-baseline="central" text-anchor="middle" style="font-size:12px;font-family:sans-serif;" y="6" transform="translate(308.6667 938)" fill="#999999">81</text>
<text dominant-baseline="central" text-anchor="middle" style="font-size:12px;font-family:sans-serif;" y="6" transform="translate(344.6667 938)" fill="#999999">108</text>
<text dominant-baseline="central" text-anchor="middle" style="font-size:12px;font-family:sans-serif;" y="6" transform="translate(380.6667 938)" fill="#999999">135</text>
<text dominant-baseline="central" text-anchor="middle" style="font-size:12px;font-family:sans-serif;" y="6" transform="translate(416.6667 938)" fill="#999999">162</text>
<text dominant-baseline="central" text-anchor="middle" style="font-size:12px;font-family:sans-serif;" y="6" transform="translate(452.6667 938)" fill="#999999">189</text>
<text dominant-baseline="central" text-anchor="middle" style="font-size:12px;font-family:sans-serif;" y="6" transform="translate(488.6667 938)" fill="#999999">216</text>
<text dominant-baseline="central" text-anchor="middle" style="font-size:12px;font-family:sans-serif;" y="6" transform="translate(524.6667 938)" fill="#999999">243</text>
<text dominant-baseline="central" text-anchor="middle" style="font-size:12px;font-family:sans-serif;" y="6" transform="translate(560.6667 938)" fill="#999999">270</text>
<text dominant-baseline="central" text-anchor="middle" style="font-size:12px;font-family:sans-serif;" y="6" transform="translate(596.6667 938)" fill="#999999">297</text>
<text dominant-baseline="central" text-anchor="middle" style="font-size:12px;font-family:sans-serif;" y="6" transform="translate(632.6667 938)" fill="#999999">324</text>
<text dominant-baseline="central" text-anchor="middle" style="font-size:12px;font-family:sans-serif;" y="6" transform="translate(668.6667 938)" fill="#999999">351</text>
<text dominant-baseline="central" text-anchor="middle" style="font-size:12px;font-family:sans-serif;" y="6" transform="translate(704.6667 938)" fill="#999999">378</text>
<text dominant-baseline="central" text-anchor="middle" style="font-size:12px;font-family:sans-serif;" y="6" transform="translate(740.6667 938)" fill="#999999">405</text>
<text dominant-baseline="central" text-anchor="middle" style="font-size:12px;font-family:sans-serif;" y="6" transform="translate(776.6667 938)" fill="#999999">432</text>
<text dominant-baseline="central" text-anchor="middle" style="font-size:12px;font-family:sans-serif;" y="6" transform="translate(812.6667 938)" fill="#999999">459</text>
<text dominant-baseline="central" text-anchor="middle" style="font-size:12px;font-family:sans-serif;" y="6" transform="translate(848.6667 938)" fill="#999999">486</text>
<text dominant-baseline="central" text-anchor="middle" style="font-size:12px;font-family:sans-serif;" y="6" transform="translate(884.6667 938)" fill="#999999">513</text>
<text dominant-baseline="central" text-anchor="middle" style="font-size:12px;font-family:sans-serif;" y="6" transform="translate(920.6667 938)" fill="#999999">540</text>
<text dominant-baseline="central" text-anchor="middle" style="font-size:12px;font-family:sans-serif;" y="6" transform="translate(956.6667 938)" fill="#999999">567</text>
<text dominant-baseline="central" text-anchor="middle" style="font-size:12px;font-family:sans-serif;" y="6" transform="translate(992.6667 938)" fill="#999999">594</text>
<text dominant-baseline="central" text-anchor="middle" style="font-size:12px;font-family:sans-serif;" y="6" transform="translate(1028.6667 938)" fill="#999999">621</text>
<text dominant-baseline="central" text-anchor="middle" style="font-size:12px;font-family:sans-serif;" y="6" transform="translate(1064.6667 938)" fill="#999999">648</text>
<text dominant-baseline="central" text-anchor="middle" style="font-size:12px;font-family:sans-serif;" y="6" transform="translate(1100.6667 938)" fill="#999999">675</text>
<text dominant-baseline="central" text-anchor="middle" style="font-size:12px;font-family:sans-serif;" y="6" transform="translate(1136.6667 938)" fill="#999999">702</text>
<text dominant-baseline="central" text-anchor="middle" style="font-size:12px;font-family:sans-serif;" y="6" transform="translate(1172.6667 938)" fill="#999999">729</text>
<text dominant-baseline="central" text-anchor="middle" style="font-size:12px;font-family:sans-serif;" y="6" transform="translate(1208.6667 938)" fill="#999999">756</text>
<text dominant-baseline="central" text-anchor="middle" style="font-size:12px;font-family:sans-serif;" y="6" transform="translate(1244.6667 938)" fill="#999999">783</text>
<text dominant-baseline="central" text-anchor="middle" style="font-size:12px;font-family:sans-serif;" y="6" transform="translate(1280.6667 938)" fill="#999999">810</text>
<text dominant-baseline="central" text-anchor="middle" style="font-size:12px;font-family:sans-serif;" y="6" transform="translate(1316.6667 938)" fill="#999999">837</text>
<text dominant-baseline="central" text-anchor="middle" style="font-size:12px;font-family:sans-serif;" y="6" transform="translate(1352.6667 938)" fill="#999999">864</text>
<text dominant-baseline="central" text-anchor="middle" style="font-size:12px;font-family:sans-serif;" y="6" transform="translate(1388.6667 938)" fill="#999999">891</text>
<text dominant-baseline="central" text-anchor="middle" style="font-size:12px;font-family:sans-serif;" y="6" transform="translate(1424.6667 938)" fill="#999999">918</text>
<text dominant-baseline="central" text-anchor="middle" style="font-size:12px;font-family:sans-serif;" y="6" transform="translate(1460.6667 938)" fill="#999999">945</text>
<text dominant-baseline="central" text-anchor="middle" style="font-size:12px;font-family:sans-serif;" y="6" transform="translate(1496.6667 938)" fill="#999999">972</text>
<text dominant-baseline="central" text-anchor="middle" style="font-size:12px;font-family:sans-serif;" y="6" transform="translate(1532.6667 938)" fill="#999999">999</text>
<text dominant-baseline="central" text-anchor="middle" style="font-size:12px;font-family:sans-serif;" y="6" transform="translate(1568.6667 938)" fill="#999999">1026</text>
<text dominant-baseline="central" text-anchor="middle" style="font-size:12px;font-family:sans-serif;" y="6" transform="translate(1604.6667 938)" fill="#999999">1053</text>
<text dominant-baseline="central" text-anchor="middle" style="font-size:12px;font-family:sans-serif;" y="6" transform="translate(1640.6667 938)" fill="#999999">1080</text>
<text dominant-baseline="central" text-anchor="middle" style="font-size:12px;font-family:sans-serif;" y="6" transform="translate(1676.6667 938)" fill="#999999">1107</text>
<text dominant-baseline="central" text-anchor="middle" style="font-size:12px;font-family:sans-serif;" y="6" transform="translate(1712.6667 938)" fill="#999999">1134</text>
<text dominant-baseline="central" text-anchor="middle" style="font-size:12px;font-family:sans-serif;" y="6" transform="translate(1748.6667 938)" fill="#999999">1161</text>
<text dominant-baseline="central" text-anchor="middle" style="font-size:12px;font-family:sans-serif;" y="6" transform="translate(1784.6667 938)" fill="#999999">1188</text>
<g clip-path="url(#zr27-c0)">
<path d="M200.7 570.1L202 729.5L203.3 764.2L204.7 782L206 747.3L207.3 758.4L208.7 769.5L210 788.4L211.3 763.4L212.7 764L214 752.3L215.3 810.4L216.7 799.5L218 786.2L219.3 765.8L220.7 797.9L222 722.8L223.3 769.8L224.7 733.7L226 766.3L227.3 758.4L228.7 779.9L230 737.7L231.3 770.6L232.7 722.3L234 760.5L235.3 744.1L236.7 769.3L238 742.2L239.3 776.7L240.7 745.9L242 787.3L243.3 660.5L244.7 740.1L246 706.1L247.3 755.2L248.7 723.9L250 736.4L251.3 736.1L252.7 772.4L254 715.7L255.3 735.8L256.7 721.3L258 776.7L259.3 736.4L260.7 773.5L262 740.1L263.3 808.8L264.7 649.6L266 745.7L267.3 683.3L268.7 715.7L270 706.1L271.3 737.2L272.7 691L274 727.9L275.3 700.3L276.7 730.8L278 706.9L279.3 747.8L280.7 721.8L282 726.8L283.3 710.9L284.7 753.1L286 581.7L287.3 738L288.7 703.2L290 743L291.3 647L292.7 724.2L294 673.5L295.3 701.1L296.7 660.5L298 729.5L299.3 674L300.7 726.6L302 651.2L303.3 714.6L304.7 691.6L306 743.5L307.3 598.5L308.7 696.3L310 614.9L311.3 676.4L312.7 662.4L314 717.3L315.3 652.8L316.7 694.5L318 627.6L319.3 735.8L320.7 658.9L322 730.5L323.3 632.7L324.7 721.8L326 663.4L327.3 726.3L328.7 528.2L330 670.9L331.3 601.1L332.7 710.6L334 575.4L335.3 704.5L336.7 605.6L338 666.4L339.3 583.1L340.7 705.1L342 618.6L343.3 678.8L344.7 638L346 725L347.3 636.1L348.7 708L350 525L351.3 675.6L352.7 571.4L354 708L355.3 578.8L356.7 701.4L358 616.8L359.3 641.7L360.7 542.5L362 699.8L363.3 526.3L364.7 685.5L366 571.4L367.3 717.3L368.7 602.2L370 683.1L371.3 466.4L372.7 659.5L374 531.1L375.3 664L376.7 519.4L378 697.7L379.3 558.9L380.7 620.5L382 539L383.3 673.8L384.7 522.3L386 681.2L387.3 580.9L388.7 655.2L390 549.1L391.3 713.8L392.7 480.4L394 652.8L395.3 488.9L396.7 671.9L398 540.4L399.3 676.4L400.7 546.7L402 645.7L403.3 481.7L404.7 640.9L406 527.4L407.3 717L408.7 531.6L410 659.5L411.3 572.5L412.7 654.9L414 353.6L415.3 646.7L416.7 490L418 662.6L419.3 488.9L420.7 673.5L422 483.6L423.3 654.9L424.7 449.1L426 656L427.3 509.6L428.7 700.3L430 499L431.3 678L432.7 452.8L434 625.5L435.3 312.3L436.7 617.3L438 484.4L439.3 638.2L440.7 423.1L442 650.7L443.3 451.5L444.7 571.9L446 448.9L447.3 640.6L448.7 441.7L450 657.9L451.3 479.1L452.7 652.3L454 491L455.3 631.9L456.7 379.4L458 611.7L459.3 383.9L460.7 587.3L462 412.5L463.3 647.3L464.7 468.5L466 585.7L467.3 362.4L468.7 610.9L470 397.4L471.3 624.4L472.7 423.1L474 639.8L475.3 424.7L476.7 596.6L478 316.8L479.3 629.8L480.7 411.5L482 640.9L483.3 355.2L484.7 643.5L486 418.4L487.3 611.4L488.7 377.8L490 613L491.3 334L492.7 607.2L494 377.5L495.3 650.4L496.7 442.5L498 681.5L499.3 641.4L500.7 790L502 789.2L503.3 824.2L504.7 828.9L506 767.4L507.3 788.1L508.7 767.1L510 766.1L511.3 804.5L512.7 807.7L514 796.1L515.3 811.2L516.7 791.3L518 836.4L519.3 781.5L520.7 766.3L522 757.6L523.3 775.9L524.7 773L526 778.5L527.3 794.5L528.7 756L530 747.5L531.3 747L532.7 791L534 749.1L535.3 782.8L536.7 772.2L538 785.4L539.3 765.3L540.7 765.8L542 725L543.3 745.4L544.7 754.4L546 763.7L547.3 741.9L548.7 792.9L550 747.8L551.3 754.7L552.7 787.8L554 780.1L555.3 738.8L556.7 762.1L558 744.3L559.3 780.7L560.7 770.6L562 788.9L563.3 730L564.7 763.2L566 698.7L567.3 772.7L568.7 714.4L570 723.4L571.3 707.5L572.7 749.1L574 692.3L575.3 764.2L576.7 743.8L578 780.7L579.3 736.9L580.7 757.9L582 714.6L583.3 709.1L584.7 616.5L586 728.4L587.3 672.5L588.7 760.2L590 669L591.3 749.6L592.7 696.3L594 715.4L595.3 680.4L596.7 735.3L598 739.3L599.3 761.3L600.7 699.5L602 758.4L603.3 688.1L604.7 749.6L606 627.4L607.3 725.2L608.7 695.8L610 720.7L611.3 633.5L612.7 725.2L614 658.4L615.3 722.8L616.7 628.7L618 741.4L619.3 649.1L620.7 743.8L622 654.7L623.3 755.5L624.7 679.6L626 717L627.3 584.7L628.7 699L630 633.7L631.3 707.2L632.7 634.3L634 710.1L635.3 645.4L636.7 678.3L638 658.1L639.3 714.1L640.7 633.5L642 717.5L643.3 646.2L644.7 706.7L646 642.5L647.3 726.8L648.7 570.1L650 701.4L651.3 599.2L652.7 709.3L654 622.6L655.3 703.2L656.7 638.8L658 718.9L659.3 609.3L660.7 674L662 625.8L663.3 719.7L664.7 596.6L666 710.4L667.3 621.3L668.7 714.9L670 525.5L671.3 685.5L672.7 565.3L674 683.1L675.3 588.1L676.7 706.4L678 600L679.3 643.8L680.7 562.6L682 704.8L683.3 567.4L684.7 675.1L686 592.9L687.3 687.3L688.7 582.8L690 706.7L691.3 467.2L692.7 694.5L694 539.6L695.3 645.9L696.7 542.8L698 699.8L699.3 588.6L700.7 661.8L702 514.1L703.3 695.3L704.7 553.1L706 715.7L707.3 571.4L708.7 698.7L710 539.6L711.3 698.7L712.7 416.5L714 643.5L715.3 487.3L716.7 675.1L718 526.8L719.3 685.2L720.7 553.4L722 651.2L723.3 508.8L724.7 641.4L726 504.6L727.3 686.2L728.7 504.8L730 676.2L731.3 536.1L732.7 672.2L734 401.6L735.3 646.5L736.7 459.5L738 680.1L739.3 500.3L740.7 649.9L742 506.1L743.3 626.8L744.7 475.9L746 658.1L747.3 500.6L748.7 674.8L750 493.7L751.3 665.8L752.7 500L754 666.9L755.3 413.3L756.7 636.9L758 389.4L759.3 609.1L760.7 473.5L762 643.5L763.3 475.6L764.7 647.8L766 414.6L767.3 651.5L768.7 492.9L770 658.4L771.3 507.2L772.7 690.8L774 514.1L775.3 616.2L776.7 349.4L778 634.8L779.3 432.7L780.7 632.4L782 438L783.3 666.1L784.7 428.4L786 606.1L787.3 416.2L788.7 606.1L790 432.7L791.3 612L792.7 410.9L794 662.4L795.3 439.8L796.7 647.5L798 388.6L799.3 627.9L800.7 359.5L802 636.6L803.3 410.4L804.7 655.5L806 432.7L807.3 567.7L808.7 340.1L810 611.4L811.3 403.5L812.7 669.3L814 410.7L815.3 639.3L816.7 455.8L818 616.2L819.3 623.9L820.7 795L822 783.9L823.3 785.4L824.7 819.7L826 792.3L827.3 805.6L828.7 792.9L830 800.8L831.3 803L832.7 814.1L834 780.4L835.3 814.4L836.7 794.5L838 790.5L839.3 732.7L840.7 772.7L842 746.7L843.3 748L844.7 789.2L846 762.9L847.3 788.6L848.7 760.8L850 760.5L851.3 771.4L852.7 778.8L854 793.4L855.3 798.2L856.7 786.5L858 778.3L859.3 787L860.7 781.5L862 709.9L863.3 798.7L864.7 734.8L866 756L867.3 749.9L868.7 814.6L870 769.5L871.3 787.6L872.7 751.5L874 761L875.3 743.8L876.7 767.1L878 757.6L879.3 788.4L880.7 751.5L882 773.5L883.3 668.5L884.7 753.6L886 735.1L887.3 753.6L888.7 704L890 756.3L891.3 722.1L892.7 755.5L894 704.8L895.3 764.8L896.7 734.5L898 763.4L899.3 719.1L900.7 775.9L902 749.6L903.3 743.3L904.7 647.3L906 721L907.3 673.8L908.7 739.8L910 681.2L911.3 734.5L912.7 675.9L914 732.9L915.3 685.2L916.7 728.9L918 688.1L919.3 727.1L920.7 669.3L922 747.3L923.3 716L924.7 799.8L926 598.7L927.3 731.1L928.7 641.4L930 721.8L931.3 680.9L932.7 761.8L934 687.8L935.3 714.4L936.7 633.7L938 719.9L939.3 679.4L940.7 748.8L942 665L943.3 727.9L944.7 688.1L946 737.7L947.3 576.7L948.7 708.3L950 637.7L951.3 705.9L952.7 619.4L954 752.8L955.3 640.1L956.7 711.7L958 625.8L959.3 736.9L960.7 640.4L962 717L963.3 624.2L964.7 744.9L966 649.1L967.3 727.6L968.7 556L970 665.6L971.3 588.4L972.7 702.2L974 600.8L975.3 714.6L976.7 639L978 684.7L979.3 614.1L980.7 696.6L982 599.8L983.3 699.2L984.7 625L986 720.7L987.3 630.8L988.7 699.5L990 509.1L991.3 701.9L992.7 572.7L994 685.2L995.3 556.5L996.7 707.2L998 594.5L999.3 691.8L1000.7 547L1002 668.2L1003.3 595L1004.7 696.1L1006 587.8L1007.3 703.5L1008.7 608L1010 698.7L1011.3 505.4L1012.7 689.2L1014 544.6L1015.3 686.8L1016.7 572.2L1018 701.1L1019.3 576.2L1020.7 701.9L1022 530.8L1023.3 687L1024.7 526.3L1026 684.1L1027.3 561.6L1028.7 688.6L1030 559.5L1031.3 693.4L1032.7 435.9L1034 657.1L1035.3 510.4L1036.7 670.1L1038 538.8L1039.3 682.3L1040.7 540.6L1042 670.1L1043.3 513.8L1044.7 665.3L1046 456.3L1047.3 692.3L1048.7 515.4L1050 683.9L1051.3 558.4L1052.7 664.2L1054 408.3L1055.3 640.1L1056.7 449.1L1058 649.9L1059.3 465L1060.7 675.6L1062 482.3L1063.3 635.1L1064.7 455L1066 653.6L1067.3 474.1L1068.7 672.7L1070 510.9L1071.3 674.8L1072.7 514.6L1074 656.8L1075.3 370.1L1076.7 669.3L1078 416.5L1079.3 641.7L1080.7 448.1L1082 647.8L1083.3 508L1084.7 630.3L1086 477.8L1087.3 638.5L1088.7 421.3L1090 652.8L1091.3 472.5L1092.7 656.8L1094 503.5L1095.3 661.6L1096.7 349.4L1098 630L1099.3 387.9L1100.7 636.6L1102 435.6L1103.3 647.3L1104.7 467.7L1106 569.3L1107.3 370.3L1108.7 610.4L1110 387.1L1111.3 658.7L1112.7 416.5L1114 641.2L1115.3 419.2L1116.7 614.9L1118 364.5L1119.3 625.8L1120.7 394.2L1122 629.2L1123.3 408.8L1124.7 641.4L1126 396.6L1127.3 625.2L1128.7 378.6L1130 632.7L1131.3 411.2L1132.7 652.6L1134 412L1135.3 670.1L1136.7 446.5L1138 620.2L1139.3 617.5L1140.7 790.8L1142 793.1L1143.3 777.5L1144.7 830.8L1146 786.2L1147.3 804.3L1148.7 788.6L1150 786.2L1151.3 790.5L1152.7 793.7L1154 795L1155.3 823.9L1156.7 797.1L1158 805.6L1159.3 795.8L1160.7 729.2L1162 794.2L1163.3 793.1L1164.7 776.2L1166 775.1L1167.3 734.8L1168.7 753.4L1170 740.9L1171.3 783.1L1172.7 777L1174 753.1L1175.3 794.2L1176.7 741.9L1178 789.2L1179.3 760.2L1180.7 796.1L1182 751.8L1183.3 760.2L1184.7 752.6L1186 751L1187.3 753.9L1188.7 770.1L1190 757.1L1191.3 717.8L1192.7 727.9L1194 762.4L1195.3 751.5L1196.7 770.3L1198 738.2L1199.3 813.8L1200.7 755.5L1202 748.3L1203.3 640.6L1204.7 738.2L1206 718.3L1207.3 761L1208.7 724.2L1210 769.3L1211.3 733.7L1212.7 733.5L1214 721.8L1215.3 783.6L1216.7 730L1218 741.4L1219.3 731.3L1220.7 738.8L1222 730L1223.3 766.6L1224.7 600.8L1226 739L1227.3 673.5L1228.7 749.4L1230 707.2L1231.3 747.3L1232.7 693.1L1234 723.4L1235.3 688.9L1236.7 752.3L1238 677.2L1239.3 734.8L1240.7 681.5L1242 765L1243.3 703L1244.7 748L1246 623.9L1247.3 684.4L1248.7 663.4L1250 732.1L1251.3 688.4L1252.7 713.3L1254 651L1255.3 705.6L1256.7 617L1258 725.2L1259.3 669.3L1260.7 755.5L1262 683.6L1263.3 745.9L1264.7 670.9L1266 721.3L1267.3 591.6L1268.7 715.7L1270 632.7L1271.3 699L1272.7 636.9L1274 724.7L1275.3 643L1276.7 729.5L1278 632.1L1279.3 691.3L1280.7 652.3L1282 738L1283.3 651.2L1284.7 751.2L1286 635.1L1287.3 708.3L1288.7 534L1290 684.4L1291.3 572.7L1292.7 705.3L1294 596.9L1295.3 704.3L1296.7 619.7L1298 673.5L1299.3 606.9L1300.7 712.8L1302 610.7L1303.3 698.4L1304.7 608L1306 695.5L1307.3 634.8L1308.7 713.3L1310 517L1311.3 670.3L1312.7 570.9L1314 662.4L1315.3 582.3L1316.7 693.4L1318 591.8L1319.3 671.7L1320.7 576.4L1322 694.7L1323.3 610.9L1324.7 690L1326 575.9L1327.3 709.9L1328.7 578.3L1330 689.4L1331.3 486.8L1332.7 680.9L1334 528.2L1335.3 692.3L1336.7 549.9L1338 677L1339.3 566.6L1340.7 677.5L1342 528.2L1343.3 669.3L1344.7 543.3L1346 673L1347.3 583.6L1348.7 715.7L1350 559.7L1351.3 686.8L1352.7 471.4L1354 656.3L1355.3 518.6L1356.7 711.4L1358 527.4L1359.3 676.2L1360.7 565L1362 653.6L1363.3 452L1364.7 664.8L1366 525.2L1367.3 691.3L1368.7 513.6L1370 688.9L1371.3 528.4L1372.7 696.3L1374 397.1L1375.3 656.8L1376.7 472.7L1378 640.1L1379.3 466.1L1380.7 661.8L1382 492.4L1383.3 630.3L1384.7 475.1L1386 677.5L1387.3 483.9L1388.7 686.8L1390 462.1L1391.3 664.5L1392.7 515.7L1394 637.7L1395.3 391.8L1396.7 643L1398 418.4L1399.3 669.5L1400.7 435.9L1402 629.2L1403.3 487.1L1404.7 604.8L1406 385.7L1407.3 621.8L1408.7 474.3L1410 675.9L1411.3 460.3L1412.7 679.9L1414 466.6L1415.3 609.9L1416.7 363.2L1418 611.7L1419.3 417.8L1420.7 632.7L1422 385.2L1423.3 639.3L1424.7 397.7L1426 611.2L1427.3 406.2L1428.7 645.9L1430 428.4L1431.3 645.1L1432.7 407L1434 675.4L1435.3 431.6L1436.7 605.9L1438 369.8L1439.3 607.2L1440.7 358.4L1442 589.4L1443.3 370.9L1444.7 641.2L1446 416.2L1447.3 542.5L1448.7 349.1L1450 660.5L1451.3 408L1452.7 663.7L1454 403L1455.3 669.8L1456.7 366.1L1458 604L1459.3 614.6L1460.7 818.3L1462 804.3L1463.3 784.1L1464.7 818.9L1466 793.9L1467.3 787.8L1468.7 788.1L1470 800.6L1471.3 775.6L1472.7 777L1474 775.4L1475.3 810.6L1476.7 786L1478 780.7L1479.3 799.8L1480.7 762.1L1482 750.4L1483.3 737.7L1484.7 786.5L1486 789.4L1487.3 803.2L1488.7 791.3L1490 763.2L1491.3 755.5L1492.7 751.5L1494 765.8L1495.3 817L1496.7 780.9L1498 785.4L1499.3 775.6L1500.7 782.3L1502 737.4L1503.3 748L1504.7 743.8L1506 770.1L1507.3 749.9L1508.7 767.9L1510 756.5L1511.3 775.9L1512.7 742.7L1514 763.4L1515.3 747L1516.7 795.5L1518 762.4L1519.3 774.3L1520.7 766.9L1522 775.4L1523.3 691.3L1524.7 765.8L1526 691L1527.3 736.9L1528.7 733.5L1530 727.9L1531.3 740.1L1532.7 718.6L1534 697.7L1535.3 741.9L1536.7 700.6L1538 773L1539.3 736.6L1540.7 771.9L1542 724.7L1543.3 784.4L1544.7 644.9L1546 740.4L1547.3 687.3L1548.7 768.7L1550 695L1551.3 749.4L1552.7 729.2L1554 714.9L1555.3 690L1556.7 742.2L1558 681.5L1559.3 753.1L1560.7 676.4L1562 764.8L1563.3 730.3L1564.7 756.5L1566 663.7L1567.3 710.1L1568.7 681.5L1570 712.5L1571.3 654.2L1572.7 729.2L1574 647.5L1575.3 710.9L1576.7 632.9L1578 707.2L1579.3 675.1L1580.7 752.6L1582 663.2L1583.3 739.8L1584.7 677.2L1586 708L1587.3 610.1L1588.7 712L1590 624.7L1591.3 710.1L1592.7 648.3L1594 700L1595.3 630L1596.7 696.6L1598 605.1L1599.3 709.1L1600.7 643.5L1602 734.3L1603.3 600.3L1604.7 721L1606 641.7L1607.3 726.6L1608.7 543.5L1610 696.6L1611.3 559.2L1612.7 703L1614 600.3L1615.3 699L1616.7 605.9L1618 693.4L1619.3 588.6L1620.7 726.6L1622 522.9L1623.3 713.8L1624.7 584.7L1626 750.4L1627.3 599L1628.7 718.1L1630 515.2L1631.3 714.9L1632.7 569.3L1634 697.1L1635.3 577.8L1636.7 685.7L1638 571.9L1639.3 659.7L1640.7 578.3L1642 697.9L1643.3 598.2L1644.7 692.9L1646 564.8L1647.3 718.3L1648.7 588.6L1650 688.1L1651.3 496.9L1652.7 664L1654 513.3L1655.3 681.2L1656.7 547.5L1658 674.3L1659.3 574.1L1660.7 666.4L1662 553.6L1663.3 699.5L1664.7 543.5L1666 689.2L1667.3 573.5L1668.7 697.7L1670 572.2L1671.3 625L1672.7 430.6L1674 667.4L1675.3 516.8L1676.7 665L1678 539.3L1679.3 658.4L1680.7 528.4L1682 650.4L1683.3 485.2L1684.7 670.3L1686 512L1687.3 694.5L1688.7 545.7L1690 705.3L1691.3 500.6L1692.7 690.2L1694 403.5L1695.3 647.3L1696.7 500.6L1698 659.7L1699.3 481.5L1700.7 676.2L1702 481.7L1703.3 643.8L1704.7 462.9L1706 663.7L1707.3 491.6L1708.7 682.5L1710 493.7L1711.3 686.2L1712.7 535.9L1714 671.1L1715.3 374.3L1716.7 621L1718 434L1719.3 648.6L1720.7 476.2L1722 654.9L1723.3 495.3L1724.7 648.3L1726 453.1L1727.3 669.3L1728.7 470.3L1730 663.7L1731.3 458.4L1732.7 646.5L1734 461.6L1735.3 639.3L1736.7 338.8L1738 636.6L1739.3 362.9L1740.7 615.7L1742 405.9L1743.3 650.4L1744.7 437.7L1746 592.9L1747.3 381.2L1748.7 622.1L1750 397.9L1751.3 661.8L1752.7 427.6L1754 665.3L1755.3 474.1L1756.7 631.6L1758 349.9L1759.3 627.6L1760.7 400.1L1762 642.5L1763.3 456.6L1764.7 632.9L1766 416.2L1767.3 621.8L1768.7 379.1L1770 637.4L1771.3 369.8L1772.7 642.2L1774 429.5L1775.3 642.2L1776.7 438.8L1778 624.2L1779.3 639.3L1780.7 777L1782 803.2L1783.3 805.9L1784.7 781.7L1786 786.2L1787.3 785.2L1788.7 773.2L1790 798.7L1791.3 771.9L1792.7 812.2L1794 809.3L1795.3 767.1L1796.7 771.1L1798 804L1799.3 796.1" fill="transparent" stroke="#3fb1e3" stroke-width="3" stroke-linejoin="bevel" class="zr27-cls-83"></path>
</g>
<path d="M-285.8 -5l571.6 0l0 28l-571.6 0Z" transform="translate(1000 5)" fill="rgb(0,0,0)" fill-opacity="0" stroke="#ccc" stroke-width="0" class="zr27-cls-81"></path>
<text dominant-baseline="central" text-anchor="middle" style="font-size:18px;font-family:sans-serif;font-weight:bold;" xml:space="preserve" y="9" transform="translate(1000 5)" fill="#666666">Min transportLinesUpdate per Tick for bench_4_every_240_staggered</text>
<defs >
<clipPath id="zr27-c0">
<path d="M198 58.5l16004 0l0 8703l-16004 0Z" fill="#000" class="zr27-cls-82"></path>
</clipPath>
</defs>
<style ><![CDATA[
.zr27-cls-81:hover {
pointer-events:none;
}
.zr27-cls-82:hover {
cursor:pointer;
fill:rgba(0,0,0,1);
}
.zr27-cls-83:hover {
cursor:pointer;
}

]]>

</style>
</svg>