<svg width="2000" height="1000" xmlns="http://www.w3.org/2000/svg" xmlns:xlink="http://www.w3.org/1999/xlink" version="1.1" baseProfile="full" viewBox="0 0 2000 1000">
<rect width="2000" height="1000" x="0" y="0" fill="rgb(252,252,252)" fill-opacity="0"></rect>
<path d="M200 930.5L1800 930.5" fill="transparent" stroke="#eeeeee" class="zr29-cls-87"></path>
<path d="M200 762.5L1800 762.5" fill="transparent" stroke="#eeeeee" class="zr29-cls-87"></path>
<path d="M200 593.5L1800 593.5" fill="transparent" stroke="#eeeeee" class="zr29-cls-87"></path>
<path d="M200 425.5L1800 425.5" fill="transparent" stroke="#eeeeee" class="zr29-cls-87"></path>
<path d="M200 257.5L1800 257.5" fill="transparent" stroke="#eeeeee" class="zr29-cls-87"></path>
<path d="M200 89.5L1800 89.5" fill="transparent" stroke="#eeeeee" class="zr29-cls-87"></path>
<path d="M200 60.5L1800 60.5" fill="transparent" stroke="#eeeeee" class="zr29-cls-87"></path>
<path d="M200.5 930L200.5 60" fill="transparent" stroke="#cccccc" stroke-linecap="round" class="zr29-cls-87"></path>
<text dominant-baseline="central" text-anchor="middle" style="font-size:12px;font-family:sans-serif;" xml:space="preserve" y="-6" transform="translate(200 45)" fill="#cccccc">Min controlBehaviorUpdate Time (ms)</text>
<path d="M200 930.5L1800 930.5" fill="transparent" stroke="#cccccc" stroke-linecap="round" class="zr29-cls-87"></path>
<text dominant-baseline="central" text-anchor="end" style="font-size:12px;font-family:sans-serif;" transform="translate(192 930)" fill="#999999">0.000</text>
<text dominant-baseline="central" text-anchor="end" style="font-size:12px;font-family:sans-serif;" transform="translate(192 761.853)" fill="#999999">0.200</text>
<text dominant-baseline="central" text-anchor="end" style="font-size:12px;font-family:sans-serif;" transform="translate(192 593.706)" fill="#999999">0.400</text>
<text dominant-baseline="central" text-anchor="end" style="font-size:12px;font-family:sans-serif;" transform="translate(192 425.559)" fill="#999999">0.600</text>
<text dominant-baseline="central" text-anchor="end" style="font-size:12px;font-family:sans-serif;" transform="translate(192 257.412)" fill="#999999">0.800</text>
<text dominant-baseline="central" text-anchor="end" style="font-size:12px;font-family:sans-serif;" transform="translate(192 89.265)" fill="#999999">1.000</text>
<text dominant-baseline="central" text-anchor="end" style="font-size:12px;font-family:sans-serif;" transform="translate(192 60)" fill="#999999">1.035</text>
<text dominant-baseline="central" text-anchor="middle" style="font-size:12px;font-family:sans-serif;" y="6" transform="translate(200.6667 938)" fill="#999999">0</text>
<text dominant-baseline="central" text-anchor="middle" style="font-size:12px;font-family:sans-serif;" y="6" transform="translate(236.6667 938)" fill="#999999">27</text>
<text dominant-baseline="central" text-anchor="middle" style="font-size:12px;font-family:sans-serif;" y="6" transform="translate(272.6667 938)" fill="#999999">54</text>
<text dominant-baseline="central" text-anchor="middle" style="font-size:12px;font-family:sans-serif;" y="6" transform="translate(308.6667 938)" fill="#999999">81</text>
<text dominant-baseline="central" text-anchor="middle" style="font-size:12px;font-family:sans-serif;" y="6" transform="translate(344.6667 938)" fill="#999999">108</text>
<text dominant-baseline="central" text-anchor="middle" style="font-size:12px;font-family:sans-serif;" y="6" transform="translate(380.6667 938)" fill="#999999">135</text>
<text dominant-baseline="central" text-anchor="middle" style="font-size:12px;font-family:sans-serif;" y="6" transform="translate(416.6667 938)" fill="#999999">162</text>
<text dominant-baseline="central" text-anchor="middle" style="font-size:12px;font-family:sans-serif;" y="6" transform="translate(452.6667 938)" fill="#999999">189</text>
<text dominant-baseline="central" text-anchor="middle" style="font-size:12px;font-family:sans-serif;" y="6" transform="translate(488.6667 938)" fill="#999999">216</text>
<text dominant-baseline="central" text-anchor="middle" style="font-size:12px;font-family:sans-serif;" y="6" transform="translate(524.6667 938)" fill="#999999">243</text>
<text dominant-baseline="central" text-anchor="middle" style="font-size:12px;font-family:sans-serif;" y="6" transform="translate(560.6667 938)" fill="#999999">270</text>
<text dominant-baseline="central" text-anchor="middle" style="font-size:12px;font-family:sans-serif;" y="6" transform="translate(596.6667 938)" fill="#999999">297</text>
<text dominant-baseline="central" text-anchor="middle" style="font-size:12px;font-family:sans-serif;" y="6" transform="translate(632.6667 938)" fill="#999999">324</text>
<text dominant-baseline="central" text-anchor="middle" style="font-size:12px;font-family:sans-serif;" y="6" transform="translate(668.6667 938)" fill="#999999">351</text>
<text dominant-baseline="central" text-anchor="middle" style="font-size:12px;font-family:sans-serif;" y="6" transform="translate(704.6667 938)" fill="#999999">378</text>
<text dominant-baseline="central" text-anchor="middle" style="font-size:12px;font-family:sans-serif;" y="6" transform="translate(740.6667 938)" fill="#999999">405</text>
<text dominant-baseline="central" text-anchor="middle" style="font-size:12px;font-family:sans-serif;" y="6" transform="translate(776.6667 938)" fill="#999999">432</text>
<text dominant-baseline="central" text-anchor="middle" style="font-size:12px;font-family:sans-serif;" y="6" transform="translate(812.6667 938)" fill="#999999">459</text>
<text dominant-baseline="central" text-anchor="middle" style="font-size:12px;font-family:sans-serif;" y="6" transform="translate(848.6667 938)" fill="#999999">486</text>
<text dominant-baseline="central" text-anchor="middle" style="font-size:12px;font-family:sans-serif;" y="6" transform="translate(884.6667 938)" fill="#999999">513</text>
<text dominant-baseline="central" text-anchor="middle" style="font-size:12px;font-family:sans-serif;" y="6" transform="translate(920.6667 938)" fill="#999999">540</text>
<text dominant-baseline="central" text-anchor="middle" style="font-size:12px;font-family:sans-serif;" y="6" transform="translate(956.6667 938)" fill="#999999">567</text>
<text dominant-baseline="central" text-anchor="middle" style="font-size:12px;font-family:sans-serif;" y="6" transform="translate(992.6667 938)" fill="#999999">594</text>
<text dominant-baseline="central" text-anchor="middle" style="font-size:12px;font-family:sans-serif;" y="6" transform="translate(1028.6667 938)" fill="#999999">621</text>
<text dominant-baseline="central" text-anchor="middle" style="font-size:12px;font-family:sans-serif;" y="6" transform="translate(1064.6667 938)" fill="#999999">648</text>
<text dominant-baseline="central" text-anchor="middle" style="font-size:12px;font-family:sans-serif;" y="6" transform="translate(1100.6667 938)" fill="#999999">675</text>
<text dominant-baseline="central" text-anchor="middle" style="font-size:12px;font-family:sans-serif;" y="6" transform="translate(1136.6667 938)" fill="#999999">702</text>
<text dominant-baseline="central" text-anchor="middle" style="font-size:12px;font-family:sans-serif;" y="6" transform="translate(1172.6667 938)" fill="#999999">729</text>
<text dominant-baseline="central" text-anchor="middle" style="font-size:12px;font-family:sans-serif;" y="6" transform="translate(1208.6667 938)" fill="#999999">756</text>
<text dominant-baseline="central" text-anchor="middle" style="font-size:12px;font-family:sans-serif;" y="6" transform="translate(1244.6667 938)" fill="#999999">783</text>
<text dominant-baseline="central" text-anchor="middle" style="font-size:12px;font-family:sans-serif;" y="6" transform="translate(1280.6667 938)" fill="#999999">810</text>
<text dominant-baseline="central" text-anchor="middle" style="font-size:12px;font-family:sans-serif;" y="6" transform="translate(1316.6667 938)" fill="#999999">837</text>
<text dominant-baseline="central" text-anchor="middle" style="font-size:12px;font-family:sans-serif;" y="6" transform="translate(1352.6667 938)" fill="#999999">864</text>
<text dominant-baseline="central" text-anchor="middle" style="font-size:12px;font-family:sans-serif;" y="6" transform="translate(1388.6667 938)" fill="#999999">891</text>
<text dominant-baseline="central" text-anchor="middle" style="font-size:12px;font-family:sans-serif;" y="6" transform="translate(1424.6667 938)" fill="#999999">918</text>
<text dominant-baseline="central" text-anchor="middle" style="font-size:12px;font-family:sans-serif;" y="6" transform="translate(1460.6667 938)" fill="#999999">945</text>
<text dominant-baseline="central" text-anchor="middle" style="font-size:12px;font-family:sans-serif;" y="6" transform="translate(1496.6667 938)" fill="#999999">972</text>
<text dominant-baseline="central" text-anchor="middle" style="font-size:12px;font-family:sans-serif;" y="6" transform="translate(1532.6667 938)" fill="#999999">999</text>
<text dominant-baseline="central" text-anchor="middle" style="font-size:12px;font-family:sans-serif;" y="6" transform="translate(1568.6667 938)" fill="#999999">1026</text>
<text dominant-baseline="central" text-anchor="middle" style="font-size:12px;font-family:sans-serif;" y="6" transform="translate(1604.6667 938)" fill="#999999">1053</text>
<text dominant-baseline="central" text-anchor="middle" style="font-size:12px;font-family:sans-serif;" y="6" transform="translate(1640.6667 938)" fill="#999999">1080</text>
<text dominant-baseline="central" text-anchor="middle" style="font-size:12px;font-family:sans-serif;" y="6" transform="translate(1676.6667 938)" fill="#999999">1107</text>
<text dominant-baseline="central" text-anchor="middle" style="font-size:12px;font-family:sans-serif;" y="6" transform="translate(1712.6667 938)" fill="#999999">1134</text>
<text dominant-baseline="central" text-anchor="middle" style="font-size:12px;font-family:sans-serif;" y="6" transform="translate(1748.6667 938)" fill="#999999">1161</text>
<text dominant-baseline="central" text-anchor="middle" style="font-size:12px;font-family:sans-serif;" y="6" transform="translate(1784.6667 938)" fill="#999999">1188</text>
<g clip-path="url(#zr29-c0)">
<path d="M200.7 267.2L202 730.7L203.3 690.5L204.7 801L206 795.3L207.3 805.2L208.7 563.3L210 795.5L211.3 803.8L212.7 799.1L214 720.6L215.3 801.6L216.7 796.2L218 804.2L219.3 561.7L220.7 801.2L222 798.1L223.3 803.8L224.7 721.5L226 803.7L227.3 804.2L228.7 801.4L230 570.4L231.3 790.7L232.7 795.1L234 805.3L235.3 723.3L236.7 805.1L238 801.4L239.3 804L240.7 562.3L242 800.9L243.3 797.9L244.7 798.8L246 714.1L247.3 804.5L248.7 793.9L250 802.8L251.3 562.5L252.7 796.7L254 798.8L255.3 797L256.7 723.6L258 811L259.3 801.6L260.7 794.6L262 549.3L263.3 795.7L264.7 798.3L266 793.5L267.3 697.9L268.7 792.4L270 800.7L271.3 797.2L272.7 545.6L274 795.1L275.3 797.8L276.7 800.9L278 730.6L279.3 801.8L280.7 794.8L282 801.1L283.3 536.5L284.7 794.8L286 802.1L287.3 799.1L288.7 719.6L290 801.3L291.3 800.8L292.7 801.8L294 570.2L295.3 796.7L296.7 794L298 797.2L299.3 721.4L300.7 804.5L302 799.6L303.3 806.4L304.7 554.4L306 790L307.3 800.9L308.7 788.2L310 710.1L311.3 802.9L312.7 803.6L314 803.4L315.3 537.5L316.7 793.6L318 795.1L319.3 794.1L320.7 729.1L322 806.2L323.3 802.7L324.7 798.9L326 566.1L327.3 805.7L328.7 795L330 794.8L331.3 721.4L332.7 796.7L334 805.1L335.3 808.6L336.7 540.7L338 787.7L339.3 801.5L340.7 800.2L342 726L343.3 809.9L344.7 810.1L346 805.5L347.3 541.8L348.7 795.1L350 791.1L351.3 795.3L352.7 721.7L354 799.7L355.3 802.1L356.7 809.6L358 556.5L359.3 804.2L360.7 802.5L362 800.3L363.3 724.2L364.7 802.3L366 809.7L367.3 810.5L368.7 531.9L370 790.8L371.3 798.6L372.7 794L374 710L375.3 798.9L376.7 809.4L378 807.8L379.3 552.4L380.7 798.2L382 799.1L383.3 792.5L384.7 725.2L386 795.8L387.3 806.7L388.7 804.5L390 562.4L391.3 803.6L392.7 795.4L394 800.9L395.3 709.6L396.7 802L398 799.2L399.3 798.2L400.7 557.4L402 802.9L403.3 798.3L404.7 793L406 724.4L407.3 809.8L408.7 811L410 804.5L411.3 549.7L412.7 801.1L414 789.2L415.3 788.7L416.7 711L418 798L419.3 798.2L420.7 800L422 554.2L423.3 796.2L424.7 801L426 795.9L427.3 723.2L428.7 803.2L430 803L431.3 796L432.7 547.5L434 789.4L435.3 794.5L436.7 798.8L438 724.8L439.3 804.5L440.7 805.1L442 793L443.3 552.8L444.7 802.7L446 806.5L447.3 792.7L448.7 719.9L450 801.1L451.3 800.9L452.7 799.4L454 562.1L455.3 782.7L456.7 796.6L458 809.4L459.3 703L460.7 785.8L462 807.2L463.3 812L464.7 550.6L466 788L467.3 793L468.7 784.2L470 709.1L471.3 802.5L472.7 803.6L474 800.4L475.3 533.6L476.7 797.2L478 806.2L479.3 802.8L480.7 728.9L482 804.5L483.3 807.2L484.7 806.8L486 548.6L487.3 780.6L488.7 795.7L490 797.4L491.3 698L492.7 801.4L494 810.2L495.3 808.6L496.7 568.1L498 800.3L499.3 795.1L500.7 804.2L502 717.6L503.3 796.9L504.7 796.4L506 809.9L507.3 545.9L508.7 787.4L510 800.6L511.3 795.9L512.7 726L514 800.3L515.3 806.3L516.7 806.7L518 547.9L519.3 795L520.7 794.1L522 788.9L523.3 705.3L524.7 795.8L526 799.3L527.3 804.3L528.7 554.6L530 797.8L531.3 799.9L532.7 802.5L534 714.6L535.3 805.8L536.7 799.3L538 801.6L539.3 558.6L540.7 801.8L542 799.8L543.3 804.3L544.7 683.1L546 802L547.3 807.5L548.7 809.3L550 566.2L551.3 802.6L552.7 790.9L554 796.7L555.3 723.9L556.7 798.1L558 800.5L559.3 809.1L560.7 563.4L562 796.2L563.3 798.1L564.7 801.5L566 719.6L567.3 803.8L568.7 799.9L570 801.1L571.3 538.1L572.7 790.4L574 800.2L575.3 802.3L576.7 718.7L578 804.3L579.3 799.2L580.7 797.3L582 554.9L583.3 795.9L584.7 797.4L586 800.3L587.3 721.4L588.7 799.6L590 794.9L591.3 805.6L592.7 562.1L594 809.6L595.3 796.4L596.7 796.2L598 721.4L599.3 795.7L600.7 814.9L602 811.5L603.3 545.6L604.7 800.4L606 806.2L607.3 792.4L608.7 732.2L610 802.1L611.3 803.8L612.7 810.4L614 556.9L615.3 802.1L616.7 797.6L618 790.6L619.3 714.9L620.7 807.5L622 799.8L623.3 804.7L624.7 560.9L626 792.5L627.3 796.9L628.7 798.5L630 717L631.3 804.3L632.7 798.1L634 797.1L635.3 552.6L636.7 798.8L638 793.9L639.3 798.7L640.7 725.2L642 792.5L643.3 799.4L644.7 796.8L646 562.2L647.3 797L648.7 796.7L650 797.5L651.3 713.5L652.7 803.4L654 812L655.3 817.3L656.7 580L658 803.3L659.3 802.2L660.7 802.4L662 720.3L663.3 800.6L664.7 799.3L666 800.4L667.3 563.2L668.7 787.5L670 794.1L671.3 795.9L672.7 708.9L674 803.4L675.3 810.9L676.7 806L678 557.3L679.3 790.5L680.7 802.4L682 803.3L683.3 727.9L684.7 801.4L686 800.3L687.3 802.7L688.7 543.2L690 794.9L691.3 797L692.7 788.7L694 725.2L695.3 805.4L696.7 803L698 806.5L699.3 568.4L700.7 798L702 795.9L703.3 793L704.7 727.5L706 802.6L707.3 802L708.7 808.4L710 550.4L711.3 783L712.7 800.8L714 800.5L715.3 726.8L716.7 803L718 799L719.3 808L720.7 552.6L722 802L723.3 792.5L724.7 805.3L726 731L727.3 808.8L728.7 801.7L730 805.9L731.3 559.4L732.7 787.3L734 802.3L735.3 796.4L736.7 721.7L738 805.7L739.3 815.5L740.7 811.5L742 550.1L743.3 797.1L744.7 812.4L746 800L747.3 721.4L748.7 797.2L750 806.1L751.3 811.5L752.7 568.8L754 797.2L755.3 787L756.7 800.4L758 717L759.3 808.4L760.7 805.7L762 809.4L763.3 566.6L764.7 794.6L766 790.9L767.3 795.6L768.7 730.6L770 806.8L771.3 807.7L772.7 810.5L774 540.6L775.3 804.3L776.7 801.5L778 808.6L779.3 733.2L780.7 812L782 796.6L783.3 801.6L784.7 561.4L786 795L787.3 794.5L788.7 794.4L790 729.4L791.3 795.1L792.7 803.4L794 805.2L795.3 564L796.7 791.9L798 805.8L799.3 791.7L800.7 733.5L802 809.5L803.3 804.9L804.7 802.1L806 553.4L807.3 797.5L808.7 788.3L810 791.1L811.3 734.5L812.7 816.9L814 808L815.3 808.2L816.7 557.4L818 802.9L819.3 790.7L820.7 793.1L822 717.1L823.3 804.4L824.7 803.4L826 815.3L827.3 559.9L828.7 798.4L830 795.5L831.3 793.8L832.7 718.3L834 797.2L835.3 805.6L836.7 806.6L838 531.2L839.3 800.4L840.7 801.5L842 805.8L843.3 720.8L844.7 798.4L846 801.8L847.3 792.5L848.7 551.6L850 799.9L851.3 794.7L852.7 804.5L854 725.2L855.3 780.4L856.7 797.5L858 799.4L859.3 561.2L860.7 805.1L862 806L863.3 793.5L864.7 716.5L866 797.9L867.3 809.1L868.7 804.4L870 557L871.3 806.5L872.7 783.1L874 783.9L875.3 728.6L876.7 799.8L878 804.6L879.3 794.7L880.7 565L882 780.4L883.3 798.3L884.7 799L886 720.2L887.3 799.3L888.7 799.3L890 791.3L891.3 542.3L892.7 771.6L894 797.8L895.3 800.7L896.7 725.6L898 804.6L899.3 796L900.7 795L902 535.5L903.3 788.4L904.7 791.6L906 798.4L907.3 714L908.7 796.6L910 801.1L911.3 801.7L912.7 558.9L914 804.8L915.3 796.7L916.7 793.9L918 696.4L919.3 800.4L920.7 811.4L922 812L923.3 560.5L924.7 799.9L926 802L927.3 794L928.7 712.8L930 800.4L931.3 805.7L932.7 805.7L934 544.4L935.3 800.4L936.7 801.2L938 800.8L939.3 715.6L940.7 790.1L942 795.8L943.3 809L944.7 548.4L946 805.7L947.3 805.1L948.7 794.2L950 711.5L951.3 795.3L952.7 806.3L954 806.2L955.3 549.9L956.7 796.5L958 804.8L959.3 805.2L960.7 714.1L962 808.5L963.3 806.6L964.7 811L966 559.3L967.3 801.5L968.7 796.1L970 798.8L971.3 709.6L972.7 813.3L974 809.8L975.3 811.1L976.7 538.9L978 802.3L979.3 801.1L980.7 799.7L982 727.5L983.3 801.9L984.7 813L986 809.9L987.3 576.1L988.7 797.6L990 803.2L991.3 796.3L992.7 731.4L994 805.7L995.3 809.8L996.7 802.5L998 562.7L999.3 795.6L1000.7 796L1002 796.8L1003.3 728L1004.7 807.8L1006 803.2L1007.3 812.2L1008.7 566.2L1010 798.9L1011.3 803.6L1012.7 798.8L1014 725.8L1015.3 799.3L1016.7 813.3L1018 812.8L1019.3 553.4L1020.7 794.3L1022 806.2L1023.3 805.9L1024.7 727.1L1026 803L1027.3 804.4L1028.7 801.7L1030 557L1031.3 790.9L1032.7 798.7L1034 803L1035.3 708.3L1036.7 805L1038 808.5L1039.3 805.6L1040.7 562.3L1042 798.3L1043.3 799L1044.7 786.2L1046 722.3L1047.3 803.6L1048.7 810L1050 816.1L1051.3 563.3L1052.7 791.7L1054 801.5L1055.3 800.5L1056.7 729.5L1058 810.7L1059.3 800.8L1060.7 798.3L1062 545.9L1063.3 790.3L1064.7 807.4L1066 803L1067.3 718.1L1068.7 796.1L1070 803.4L1071.3 808.9L1072.7 540L1074 794L1075.3 800.4L1076.7 781.8L1078 707.6L1079.3 809L1080.7 809.4L1082 809.1L1083.3 561.6L1084.7 804.6L1086 796.2L1087.3 801L1088.7 727.7L1090 812.8L1091.3 808.8L1092.7 809.1L1094 559.4L1095.3 803L1096.7 785.3L1098 796.9L1099.3 730.5L1100.7 805.4L1102 806.5L1103.3 810.3L1104.7 544.6L1106 795.1L1107.3 795.1L1108.7 796.2L1110 725.2L1111.3 800.4L1112.7 807.4L1114 810.4L1115.3 564.4L1116.7 806.8L1118 797.3L1119.3 794.6L1120.7 714.4L1122 793.4L1123.3 807.2L1124.7 799.8L1126 577L1127.3 798.8L1128.7 805.5L1130 800.6L1131.3 732.5L1132.7 813.3L1134 814.3L1135.3 814.9L1136.7 564.6L1138 803.4L1139.3 793L1140.7 796L1142 711.9L1143.3 797.7L1144.7 809.8L1146 802.6L1147.3 537.5L1148.7 806.8L1150 791.4L1151.3 802.5L1152.7 726.3L1154 807.9L1155.3 798.3L1156.7 793.6L1158 523L1159.3 799.3L1160.7 800.9L1162 805.7L1163.3 718.1L1164.7 808.5L1166 810.7L1167.3 799.1L1168.7 562.9L1170 798L1171.3 797L1172.7 797.9L1174 726.2L1175.3 805.4L1176.7 796.6L1178 796.2L1179.3 559.7L1180.7 800.8L1182 797.1L1183.3 792.1L1184.7 728.1L1186 798.8L1187.3 805.3L1188.7 806.7L1190 560.8L1191.3 798.8L1192.7 790.2L1194 790.7L1195.3 724.4L1196.7 798.2L1198 801.6L1199.3 806.4L1200.7 558.1L1202 791.4L1203.3 792.5L1204.7 785.8L1206 717.9L1207.3 803L1208.7 807.4L1210 810.1L1211.3 544.5L1212.7 799.9L1214 792.5L1215.3 806.9L1216.7 729.1L1218 801.5L1219.3 806.2L1220.7 800.4L1222 551.2L1223.3 796.2L1224.7 802.9L1226 796.7L1227.3 706.1L1228.7 798.4L1230 803.6L1231.3 810.1L1232.7 565.2L1234 802.5L1235.3 804.2L1236.7 798.6L1238 724.8L1239.3 795.1L1240.7 799.9L1242 800L1243.3 555.2L1244.7 801L1246 780.4L1247.3 799.5L1248.7 721.8L1250 808.9L1251.3 799.5L1252.7 802.5L1254 555.1L1255.3 798.2L1256.7 798.5L1258 791.5L1259.3 729.7L1260.7 805.4L1262 798.8L1263.3 796.6L1264.7 553.4L1266 799.8L1267.3 801.5L1268.7 790.7L1270 720L1271.3 798.5L1272.7 795.1L1274 798.9L1275.3 546L1276.7 796.6L1278 798.7L1279.3 798.5L1280.7 710.2L1282 802.6L1283.3 810.4L1284.7 808.9L1286 556.8L1287.3 779.3L1288.7 795.2L1290 786.3L1291.3 730.7L1292.7 809.5L1294 801.6L1295.3 809.5L1296.7 571.3L1298 796L1299.3 801L1300.7 793.5L1302 722L1303.3 796.2L1304.7 789.6L1306 802.6L1307.3 564.2L1308.7 796.2L1310 802.5L1311.3 794.6L1312.7 704L1314 802.9L1315.3 813.6L1316.7 808.3L1318 556.7L1319.3 802.5L1320.7 794.1L1322 804.2L1323.3 730.2L1324.7 802.5L1326 808.9L1327.3 809.3L1328.7 520.4L1330 792L1331.3 811.5L1332.7 799.5L1334 731.8L1335.3 798L1336.7 801.3L1338 812.8L1339.3 537L1340.7 801.4L1342 811L1343.3 795.7L1344.7 724.3L1346 805.3L1347.3 795.5L1348.7 810L1350 553.5L1351.3 802L1352.7 803.2L1354 799.3L1355.3 711L1356.7 808.2L1358 805.7L1359.3 802.6L1360.7 556.4L1362 805.6L1363.3 802.7L1364.7 801.8L1366 729L1367.3 810.9L1368.7 804.5L1370 807.3L1371.3 565L1372.7 795.2L1374 807.6L1375.3 803.3L1376.7 718.4L1378 795.1L1379.3 796.5L1380.7 802.7L1382 542.9L1383.3 804.1L1384.7 796.9L1386 792.7L1387.3 732.2L1388.7 797.2L1390 810.5L1391.3 806.2L1392.7 558.2L1394 800.1L1395.3 800.5L1396.7 791.3L1398 735.4L1399.3 813.6L1400.7 800.8L1402 811.6L1403.3 558.1L1404.7 784.9L1406 789.8L1407.3 797.9L1408.7 717.6L1410 810.5L1411.3 803.8L1412.7 802.7L1414 520.4L1415.3 797.9L1416.7 794.6L1418 806.1L1419.3 722.3L1420.7 803.6L1422 803.9L1423.3 809L1424.7 552.8L1426 799.5L1427.3 797.5L1428.7 806.9L1430 731.8L1431.3 798.3L1432.7 805.7L1434 812.1L1435.3 561.5L1436.7 797.6L1438 781.2L1439.3 798.3L1440.7 708.8L1442 802.5L1443.3 800.9L1444.7 816.8L1446 539.1L1447.3 792.2L1448.7 798.3L1450 803.5L1451.3 725.7L1452.7 807.5L1454 802.1L1455.3 813.3L1456.7 556.2L1458 793.8L1459.3 809.9L1460.7 791.6L1462 702.2L1463.3 808.2L1464.7 814L1466 810.8L1467.3 558.3L1468.7 802.2L1470 798.1L1471.3 793.2L1472.7 728.5L1474 807.5L1475.3 807L1476.7 801.8L1478 566.8L1479.3 798.8L1480.7 782.6L1482 792.6L1483.3 724.3L1484.7 804.4L1486 810.1L1487.3 810.3L1488.7 555.5L1490 790.2L1491.3 792.6L1492.7 805.2L1494 729.8L1495.3 799.3L1496.7 807.5L1498 805.2L1499.3 529.5L1500.7 795.3L1502 797.9L1503.3 795.2L1504.7 718.6L1506 808.3L1507.3 798.8L1508.7 810.3L1510 544.8L1511.3 784.4L1512.7 805.8L1514 794.1L1515.3 711.1L1516.7 801.7L1518 808.1L1519.3 798.9L1520.7 555.6L1522 806.3L1523.3 807.7L1524.7 800.5L1526 721.5L1527.3 793.2L1528.7 792L1530 801.9L1531.3 559.1L1532.7 797.6L1534 787.8L1535.3 794.2L1536.7 723.2L1538 802.5L1539.3 806.2L1540.7 812.7L1542 550.5L1543.3 802.5L1544.7 805.9L1546 799.3L1547.3 721.8L1548.7 795.4L1550 804.9L1551.3 805.7L1552.7 555.3L1554 794.8L1555.3 787L1556.7 797.1L1558 730.4L1559.3 804L1560.7 802.2L1562 804.1L1563.3 558.1L1564.7 806.4L1566 788.6L1567.3 794.2L1568.7 705.3L1570 787.8L1571.3 798.2L1572.7 806.2L1574 566.5L1575.3 787.5L1576.7 799.6L1578 798.8L1579.3 728.6L1580.7 810.9L1582 809.3L1583.3 803.3L1584.7 547.2L1586 799L1587.3 789.8L1588.7 799.3L1590 734.4L1591.3 811.8L1592.7 805.1L1594 792L1595.3 553.3L1596.7 798.8L1598 802L1599.3 803.1L1600.7 722.3L1602 800.3L1603.3 792.9L1604.7 799.8L1606 565L1607.3 794.6L1608.7 793.6L1610 787.4L1611.3 707.4L1612.7 795.1L1614 807L1615.3 804.6L1616.7 561.1L1618 800.4L1619.3 802.6L1620.7 799.7L1622 712.5L1623.3 811L1624.7 810L1626 810.3L1627.3 562.7L1628.7 805.9L1630 800.5L1631.3 794.4L1632.7 732.3L1634 806.8L1635.3 810L1636.7 799.9L1638 533L1639.3 796.7L1640.7 808L1642 800.8L1643.3 713.1L1644.7 793.8L1646 805.2L1647.3 802.9L1648.7 567.6L1650 797.1L1651.3 802.5L1652.7 792.6L1654 719.3L1655.3 801.9L1656.7 806.1L1658 811.3L1659.3 551.2L1660.7 800.1L1662 808.2L1663.3 804L1664.7 725.7L1666 800.2L1667.3 804.2L1668.7 808.5L1670 563L1671.3 789.1L1672.7 793.9L1674 802L1675.3 724.6L1676.7 797.2L1678 805L1679.3 807.4L1680.7 557.4L1682 794.1L1683.3 796.9L1684.7 805.7L1686 703.5L1687.3 821.5L1688.7 810.5L1690 802.7L1691.3 554.7L1692.7 800.6L1694 792L1695.3 799.9L1696.7 734.9L1698 799.3L1699.3 803.1L1700.7 808.7L1702 554.8L1703.3 796.1L1704.7 796.8L1706 786.2L1707.3 727.9L1708.7 804.9L1710 803.2L1711.3 802.5L1712.7 560.7L1714 784.5L1715.3 800.8L1716.7 801.6L1718 710.7L1719.3 800.4L1720.7 811.4L1722 811.2L1723.3 557L1724.7 797.9L1726 799.8L1727.3 803L1728.7 730.2L1730 801.5L1731.3 792L1732.7 811.4L1734 553.3L1735.3 790.3L1736.7 805.8L1738 800.7L1739.3 715.9L1740.7 801.1L1742 809.7L1743.3 806L1744.7 531.2L1746 804.1L1747.3 793L1748.7 806.2L1750 727L1751.3 798.8L1752.7 810.4L1754 811L1755.3 561.9L1756.7 792.6L1758 799.7L1759.3 792.5L1760.7 725.3L1762 804.1L1763.3 812.5L1764.7 811.6L1766 548.6L1767.3 800.4L1768.7 798.4L1770 803.6L1771.3 730.4L1772.7 806.7L1774 808.9L1775.3 809L1776.7 558L1778 800.7L1779.3 794.1L1780.7 797.6L1782 724L1783.3 800L1784.7 795.9L1786 800.4L1787.3 544.4L1788.7 805.2L1790 802.6L1791.3 802.5L1792.7 724.4L1794 797.1L1795.3 801L1796.7 804.1L1798 567.4L1799.3 796.2" fill="transparent" stroke="#3fb1e3" stroke-width="3" stroke-linejoin="bevel" class="zr29-cls-89"></path>
</g>
<path d="M-291.3 -5l582.6 0l0 28l-582.6 0Z" transform="translate(1000 5)" fill="rgb(0,0,0)" fill-opacity="0" stroke="#ccc" stroke-width="0" class="zr29-cls-87"></path>
<text dominant-baseline="central" text-anchor="middle" style="font-size:18px;font-family:sans-serif;font-weight:bold;" xml:space="preserve" y="9" transform="translate(1000 5)" fill="#666666">Min controlBehaviorUpdate per Tick for bench_4_every_240_staggered</text>
<defs >
<clipPath id="zr29-c0">
<path d="M198 58.5l16004 0l0 8703l-16004 0Z" fill="#000" class="zr29-cls-88"></path>
</clipPath>
</defs>
<style ><![CDATA[
.zr29-cls-87:hover {
pointer-events:none;
}
.zr29-cls-88:hover {
cursor:pointer;
fill:rgba(0,0,0,1);
}
.zr29-cls-89:hover {
cursor:pointer;
}

]]>

</style>
</svg>