<svg width="2000" height="1000" xmlns="http://www.w3.org/2000/svg" xmlns:xlink="http://www.w3.org/1999/xlink" version="1.1" baseProfile="full" viewBox="0 0 2000 1000">
<rect width="2000" height="1000" x="0" y="0" fill="rgb(252,252,252)" fill-opacity="0"></rect>
<path d="M200 930.5L1800 930.5" fill="transparent" stroke="#eeeeee" class="zr34-cls-102"></path>
<path d="M200 797.5L1800 797.5" fill="transparent" stroke="#eeeeee" class="zr34-cls-102"></path>
<path d="M200 665.5L1800 665.5" fill="transparent" stroke="#eeeeee" class="zr34-cls-102"></path>
<path d="M200 532.5L1800 532.5" fill="transparent" stroke="#eeeeee" class="zr34-cls-102"></path>
<path d="M200 399.5L1800 399.5" fill="transparent" stroke="#eeeeee" class="zr34-cls-102"></path>
<path d="M200 267.5L1800 267.5" fill="transparent" stroke="#eeeeee" class="zr34-cls-102"></path>
<path d="M200 134.5L1800 134.5" fill="transparent" stroke="#eeeeee" class="zr34-cls-102"></path>
<path d="M200 60.5L1800 60.5" fill="transparent" stroke="#eeeeee" class="zr34-cls-102"></path>
<path d="M200.5 930L200.5 60" fill="transparent" stroke="#cccccc" stroke-linecap="round" class="zr34-cls-102"></path>
<text dominant-baseline="central" text-anchor="middle" style="font-size:12px;font-family:sans-serif;" xml:space="preserve" y="-6" transform="translate(200 45)" fill="#cccccc">transportLinesUpdate Time (ms)</text>
<path d="M200 930.5L1800 930.5" fill="transparent" stroke="#cccccc" stroke-linecap="round" class="zr34-cls-102"></path>
<text dominant-baseline="central" text-anchor="end" style="font-size:12px;font-family:sans-serif;" transform="translate(192 930)" fill="#999999">0.000</text>
<text dominant-baseline="central" text-anchor="end" style="font-size:12px;font-family:sans-serif;" transform="translate(192 797.381)" fill="#999999">0.050</text>
<text dominant-baseline="central" text-anchor="end" style="font-size:12px;font-family:sans-serif;" transform="translate(192 664.762)" fill="#999999">0.100</text>
<text dominant-baseline="central" text-anchor="end" style="font-size:12px;font-family:sans-serif;" transform="translate(192 532.1431)" fill="#999999">0.150</text>
<text dominant-baseline="central" text-anchor="end" style="font-size:12px;font-family:sans-serif;" transform="translate(192 399.5241)" fill="#999999">0.200</text>
<text dominant-baseline="central" text-anchor="end" style="font-size:12px;font-family:sans-serif;" transform="translate(192 266.9051)" fill="#999999">0.250</text>
<text dominant-baseline="central" text-anchor="end" style="font-size:12px;font-family:sans-serif;" transform="translate(192 134.2861)" fill="#999999">0.300</text>
<text dominant-baseline="central" text-anchor="end" style="font-size:12px;font-family:sans-serif;" transform="translate(192 60)" fill="#999999">0.328</text>
<text dominant-baseline="central" text-anchor="middle" style="font-size:12px;font-family:sans-serif;" y="6" transform="translate(200.6667 938)" fill="#999999">0</text>
<text dominant-baseline="central" text-anchor="middle" style="font-size:12px;font-family:sans-serif;" y="6" transform="translate(236.6667 938)" fill="#999999">27</text>
<text dominant-baseline="central" text-anchor="middle" style="font-size:12px;font-family:sans-serif;" y="6" transform="translate(272.6667 938)" fill="#999999">54</text>
<text dominant-baseline="central" text-anchor="middle" style="font-size:12px;font-family:sans-serif;" y="6" transform="translate(308.6667 938)" fill="#999999">81</text>
<text dominant-baseline="central" text-anchor="middle" style="font-size:12px;font-family:sans-serif;" y="6" transform="translate(344.6667 938)" fill="#999999">108</text>
<text dominant-baseline="central" text-anchor="middle" style="font-size:12px;font-family:sans-serif;" y="6" transform="translate(380.6667 938)" fill="#999999">135</text>
<text dominant-baseline="central" text-anchor="middle" style="font-size:12px;font-family:sans-serif;" y="6" transform="translate(416.6667 938)" fill="#999999">162</text>
<text dominant-baseline="central" text-anchor="middle" style="font-size:12px;font-family:sans-serif;" y="6" transform="translate(452.6667 938)" fill="#999999">189</text>
<text dominant-baseline="central" text-anchor="middle" style="font-size:12px;font-family:sans-serif;" y="6" transform="translate(488.6667 938)" fill="#999999">216</text>
<text dominant-baseline="central" text-anchor="middle" style="font-size:12px;font-family:sans-serif;" y="6" transform="translate(524.6667 938)" fill="#999999">243</text>
<text dominant-baseline="central" text-anchor="middle" style="font-size:12px;font-family:sans-serif;" y="6" transform="translate(560.6667 938)" fill="#999999">270</text>
<text dominant-baseline="central" text-anchor="middle" style="font-size:12px;font-family:sans-serif;" y="6" transform="translate(596.6667 938)" fill="#999999">297</text>
<text dominant-baseline="central" text-anchor="middle" style="font-size:12px;font-family:sans-serif;" y="6" transform="translate(632.6667 938)" fill="#999999">324</text>
<text dominant-baseline="central" text-anchor="middle" style="font-size:12px;font-family:sans-serif;" y="6" transform="translate(668.6667 938)" fill="#999999">351</text>
<text dominant-baseline="central" text-anchor="middle" style="font-size:12px;font-family:sans-serif;" y="6" transform="translate(704.6667 938)" fill="#999999">378</text>
<text dominant-baseline="central" text-anchor="middle" style="font-size:12px;font-family:sans-serif;" y="6" transform="translate(740.6667 938)" fill="#999999">405</text>
<text dominant-baseline="central" text-anchor="middle" style="font-size:12px;font-family:sans-serif;" y="6" transform="translate(776.6667 938)" fill="#999999">432</text>
<text dominant-baseline="central" text-anchor="middle" style="font-size:12px;font-family:sans-serif;" y="6" transform="translate(812.6667 938)" fill="#999999">459</text>
<text dominant-baseline="central" text-anchor="middle" style="font-size:12px;font-family:sans-serif;" y="6" transform="translate(848.6667 938)" fill="#999999">486</text>
<text dominant-baseline="central" text-anchor="middle" style="font-size:12px;font-family:sans-serif;" y="6" transform="translate(884.6667 938)" fill="#999999">513</text>
<text dominant-baseline="central" text-anchor="middle" style="font-size:12px;font-family:sans-serif;" y="6" transform="translate(920.6667 938)" fill="#999999">540</text>
<text dominant-baseline="central" text-anchor="middle" style="font-size:12px;font-family:sans-serif;" y="6" transform="translate(956.6667 938)" fill="#999999">567</text>
<text dominant-baseline="central" text-anchor="middle" style="font-size:12px;font-family:sans-serif;" y="6" transform="translate(992.6667 938)" fill="#999999">594</text>
<text dominant-baseline="central" text-anchor="middle" style="font-size:12px;font-family:sans-serif;" y="6" transform="translate(1028.6667 938)" fill="#999999">621</text>
<text dominant-baseline="central" text-anchor="middle" style="font-size:12px;font-family:sans-serif;" y="6" transform="translate(1064.6667 938)" fill="#999999">648</text>
<text dominant-baseline="central" text-anchor="middle" style="font-size:12px;font-family:sans-serif;" y="6" transform="translate(1100.6667 938)" fill="#999999">675</text>
<text dominant-baseline="central" text-anchor="middle" style="font-size:12px;font-family:sans-serif;" y="6" transform="translate(1136.6667 938)" fill="#999999">702</text>
<text dominant-baseline="central" text-anchor="middle" style="font-size:12px;font-family:sans-serif;" y="6" transform="translate(1172.6667 938)" fill="#999999">729</text>
<text dominant-baseline="central" text-anchor="middle" style="font-size:12px;font-family:sans-serif;" y="6" transform="translate(1208.6667 938)" fill="#999999">756</text>
<text dominant-baseline="central" text-anchor="middle" style="font-size:12px;font-family:sans-serif;" y="6" transform="translate(1244.6667 938)" fill="#999999">783</text>
<text dominant-baseline="central" text-anchor="middle" style="font-size:12px;font-family:sans-serif;" y="6" transform="translate(1280.6667 938)" fill="#999999">810</text>
<text dominant-baseline="central" text-anchor="middle" style="font-size:12px;font-family:sans-serif;" y="6" transform="translate(1316.6667 938)" fill="#999999">837</text>
<text dominant-baseline="central" text-anchor="middle" style="font-size:12px;font-family:sans-serif;" y="6" transform="translate(1352.6667 938)" fill="#999999">864</text>
<text dominant-baseline="central" text-anchor="middle" style="font-size:12px;font-family:sans-serif;" y="6" transform="translate(1388.6667 938)" fill="#999999">891</text>
<text dominant-baseline="central" text-anchor="middle" style="font-size:12px;font-family:sans-serif;" y="6" transform="translate(1424.6667 938)" fill="#999999">918</text>
<text dominant-baseline="central" text-anchor="middle" style="font-size:12px;font-family:sans-serif;" y="6" transform="translate(1460.6667 938)" fill="#999999">945</text>
<text dominant-baseline="central" text-anchor="middle" style="font-size:12px;font-family:sans-serif;" y="6" transform="translate(1496.6667 938)" fill="#999999">972</text>
<text dominant-baseline="central" text-anchor="middle" style="font-size:12px;font-family:sans-serif;" y="6" transform="translate(1532.6667 938)" fill="#999999">999</text>
<text dominant-baseline="central" text-anchor="middle" style="font-size:12px;font-family:sans-serif;" y="6" transform="translate(1568.6667 938)" fill="#999999">1026</text>
<text dominant-baseline="central" text-anchor="middle" style="font-size:12px;font-family:sans-serif;" y="6" transform="translate(1604.6667 938)" fill="#999999">1053</text>
<text dominant-baseline="central" text-anchor="middle" style="font-size:12px;font-family:sans-serif;" y="6" transform="translate(1640.6667 938)" fill="#999999">1080</text>
<text dominant-baseline="central" text-anchor="middle" style="font-size:12px;font-family:sans-serif;" y="6" transform="translate(1676.6667 938)" fill="#999999">1107</text>
<text dominant-baseline="central" text-anchor="middle" style="font-size:12px;font-family:sans-serif;" y="6" transform="translate(1712.6667 938)" fill="#999999">1134</text>
<text dominant-baseline="central" text-anchor="middle" style="font-size:12px;font-family:sans-serif;" y="6" transform="translate(1748.6667 938)" fill="#999999">1161</text>
<text dominant-baseline="central" text-anchor="middle" style="font-size:12px;font-family:sans-serif;" y="6" transform="translate(1784.6667 938)" fill="#999999">1188</text>
<g clip-path="url(#zr34-c0)">
<path d="M200.7 342.8L202 557.6L203.3 725.5L204.7 606.4L206 691.6L207.3 638.8L208.7 710.6L210 687L211.3 682.3L212.7 713.3L214 715.4L215.3 721.3L216.7 741.2L218 682.3L219.3 733.5L220.7 -544.2L222 389.2L223.3 551.2L224.7 577.2L226 218.9L227.3 606.1L228.7 234L230 577.2L231.3 411.7L232.7 597.9L234 465.8L235.3 642.7L236.7 346.2L238 634L239.3 648.6L240.7 177.8L242 470.6L243.3 614.1L244.7 545.1L246 684.4L247.3 543L248.7 671.4L250 578L251.3 673L252.7 572.2L254 473.3L255.3 511.5L256.7 691L258 590.8L259.3 701.9L260.7 526.3L262 670.1L263.3 577.2L264.7 660.5L266 703.2L267.3 680.1L268.7 535.9L270 700.6L271.3 659.5L272.7 721.8L274 644.1L275.3 684.7L276.7 671.1L278 751.8L279.3 652L280.7 719.9L282 659.2L283.3 730L284.7 593.4L286 749.6L287.3 710.9L288.7 756.5L290 734.3L291.3 740.6L292.7 686.8L294 736.1L295.3 709.3L296.7 719.1L298 746.7L299.3 699.8L300.7 -47.4L302 444.9L303.3 527.6L304.7 386.3L306 -389.3L307.3 144.1L308.7 -195.7L310 353.1L311.3 128.5L312.7 515.7L314 368.8L315.3 572.2L316.7 62.7L318 579.9L319.3 646.5L320.7 698.2L322 450.7L323.3 676.2L324.7 552.8L326 642.5L327.3 532.1L328.7 603.5L330 452.8L331.3 652.8L332.7 562.4L334 676.4L335.3 591.6L336.7 639.6L338 594.7L339.3 665L340.7 580.9L342 432.7L343.3 505.1L344.7 669.5L346 693.9L347.3 689.7L348.7 619.4L350 700.8L351.3 631.3L352.7 695.5L354 673L355.3 462.1L356.7 619.7L358 690L359.3 614.9L360.7 744.3L362 729.2L363.3 747.3L364.7 670.6L366 705.3L367.3 688.6L368.7 738.5L370 694.5L371.3 701.9L372.7 712L374 719.7L375.3 746.2L376.7 762.4L378 783.6L379.3 685.7L380.7 5.9L382 392.6L383.3 172.5L384.7 548.6L386 305.6L387.3 634.3L388.7 383.1L390 617L391.3 445.9L392.7 650.7L394 334L395.3 600L396.7 316.8L398 635.9L399.3 619.1L400.7 658.9L402 515.4L403.3 649.9L404.7 548.6L406 661.8L407.3 507.7L408.7 694.5L410 538.8L411.3 671.1L412.7 573L414 621.8L415.3 581.2L416.7 692.9L418 600.6L419.3 675.6L420.7 429.2L422 675.6L423.3 553.4L424.7 717.5L426 705.3L427.3 687L428.7 619.7L430 710.1L431.3 663.7L432.7 684.7L434 662.6L435.3 667.4L436.7 616L438 718.1L439.3 618.3L440.7 723.6L442 711.7L443.3 729.2L444.7 668.7L446 761.6L447.3 679.6L448.7 734.8L450 640.1L451.3 764L452.7 706.9L454 752L455.3 716.5L456.7 752.8L458 737.7L459.3 709.9L460.7 -23.8L462 382.5L463.3 530.6L464.7 582.5L466 330.8L467.3 644.6L468.7 408.8L470 602.7L471.3 475.6L472.7 305.6L474 431.1L475.3 613.3L476.7 320L478 646.5L479.3 653.9L480.7 642.7L482 561.1L483.3 671.1L484.7 557.6L486 587.3L487.3 429.5L488.7 629.5L490 549.4L491.3 697.9L492.7 523.9L494 679.9L495.3 604.3L496.7 642.5L498 601.9L499.3 535.1L500.7 505.1L502 682.8L503.3 545.1L504.7 697.7L506 711.7L507.3 698.7L508.7 648.6L510 704L511.3 666.4L512.7 675.4L514 595L515.3 684.7L516.7 686.8L518 717.3L519.3 648.6L520.7 719.7L522 691.8L523.3 728.4L524.7 715.7L526 747.8L527.3 712.2L528.7 707.7L530 694.5L531.3 733.5L532.7 749.9L534 774L535.3 700L536.7 752L538 756.8L539.3 573L540.7 18.1L542 407.7L543.3 506.1L544.7 586.3L546 330.8L547.3 540.4L548.7 403.2L550 638.8L551.3 475.4L552.7 430L554 391.6L555.3 604L556.7 308.5L558 649.4L559.3 666.1L560.7 645.4L562 530.3L563.3 635.9L564.7 546.5L566 613.3L567.3 481.2L568.7 671.9L570 555.5L571.3 657.3L572.7 594.5L574 712.5L575.3 560.5L576.7 673L578 585.2L579.3 645.7L580.7 575.4L582 678.6L583.3 553.1L584.7 713.3L586 675.9L587.3 687.3L588.7 645.7L590 710.6L591.3 543.5L592.7 579.9L594 621L595.3 727.9L596.7 646.7L598 737.7L599.3 613.8L600.7 718.9L602 763.7L603.3 757.9L604.7 694.2L606 713.6L607.3 575.1L608.7 658.1L610 715.4L611.3 742.2L612.7 727.4L614 760.8L615.3 751.8L616.7 741.4L618 722.8L619.3 704.3L620.7 77.5L622 323.4L623.3 495.8L624.7 498.7L626 -352.7L627.3 -85.6L628.7 -106.5L630 370.1L631.3 203L632.7 539.6L634 385.5L635.3 587.3L636.7 319.4L638 588.4L639.3 611.7L640.7 643.3L642 518.4L643.3 670.9L644.7 516L646 680.4L647.3 546.7L648.7 679.4L650 567.4L651.3 671.4L652.7 530L654 535.3L655.3 605.3L656.7 675.1L658 596.3L659.3 653.4L660.7 618.1L662 706.9L663.3 601.9L664.7 695.8L666 692.1L667.3 660L668.7 642L670 713.8L671.3 652.8L672.7 721.5L674 680.4L675.3 727.6L676.7 641.7L678 723.4L679.3 628.7L680.7 703L682 694.7L683.3 723.9L684.7 691.8L686 737.2L687.3 712.5L688.7 754.4L690 739.3L691.3 733.5L692.7 723.9L694 733.5L695.3 694.2L696.7 747.5L698 707.5L699.3 741.7L700.7 26.6L702 438.2L703.3 540.9L704.7 540.9L706 339L707.3 603.2L708.7 281L710 608.5L711.3 433.2L712.7 633.7L714 448.9L715.3 641.2L716.7 303.8L718 665.8L719.3 371.7L720.7 662.6L722 509.6L723.3 670.3L724.7 538.2L726 665.6L727.3 509.1L728.7 690.5L730 597.7L731.3 671.9L732.7 443.6L734 606.1L735.3 432.4L736.7 643L738 572.2L739.3 708.8L740.7 595.3L742 667.1L743.3 552.8L744.7 711.2L746 645.9L747.3 655.5L748.7 626.3L750 720.5L751.3 632.7L752.7 722.8L754 661.6L755.3 694.5L756.7 695.3L758 704L759.3 637.7L760.7 699.8L762 753.1L763.3 754.1L764.7 687.6L766 675.1L767.3 742.5L768.7 723.6L770 725.2L771.3 738L772.7 748L774 583.1L775.3 672.7L776.7 770.9L778 720.7L779.3 268L780.7 -32.8L782 425L783.3 549.6L784.7 565.3L786 -5.2L787.3 552.3L788.7 387.9L790 602.7L791.3 442.8L792.7 627.1L794 471.4L795.3 635.9L796.7 356.3L798 663.4L799.3 632.4L800.7 663.7L802 550.2L803.3 666.9L804.7 581.7L806 609.6L807.3 577.5L808.7 681.2L810 600.6L811.3 604L812.7 575.6L814 689.7L815.3 549.6L816.7 698.4L818 580.4L819.3 675.6L820.7 595.8L822 697.9L823.3 567.4L824.7 726.8L826 684.7L827.3 655.7L828.7 604.6L830 720.2L831.3 653.4L832.7 711.2L834 666.1L835.3 734.8L836.7 658.7L838 694.2L839.3 644.3L840.7 709.6L842 516.2L843.3 713.3L844.7 653.4L846 713.8L847.3 705.6L848.7 684.4L850 674.6L851.3 750.2L852.7 706.4L854 745.1L855.3 699L856.7 780.4L858 754.9L859.3 723.4L860.7 -10L862 446.2L863.3 516.2L864.7 573L866 223.4L867.3 606.9L868.7 383.1L870 583.3L871.3 466.1L872.7 660.3L874 471.4L875.3 651.5L876.7 355L878 669.3L879.3 597.9L880.7 656.3L882 526L883.3 652.8L884.7 553.9L886 656L887.3 559.5L888.7 654.9L890 574.1L891.3 671.1L892.7 444.9L894 686.5L895.3 562.1L896.7 677L898 585.2L899.3 662.6L900.7 573.3L902 689.7L903.3 591.3L904.7 669.3L906 308L907.3 694.5L908.7 605.3L910 688.4L911.3 603.2L912.7 719.9L914 669.8L915.3 687.6L916.7 672.5L918 728.9L919.3 638.8L920.7 673L922 718.1L923.3 700.6L924.7 648.3L926 749.1L927.3 675.6L928.7 740.9L930 709.3L931.3 759.7L932.7 725.5L934 449.4L935.3 728.4L936.7 743.5L938 734L939.3 674.6L940.7 -55.4L942 414.9L943.3 476.7L944.7 476.7L946 -368.9L947.3 107L948.7 -382.4L950 395L951.3 178.6L952.7 574.3L954 322.1L955.3 534L956.7 211.2L958 635.3L959.3 665.3L960.7 695.8L962 496.6L963.3 661L964.7 530L966 633.7L967.3 456.3L968.7 675.4L970 566.4L971.3 683.9L972.7 553.9L974 673.8L975.3 574.6L976.7 684.9L978 597.4L979.3 705.9L980.7 523.4L982 694.7L983.3 601.9L984.7 701.9L986 734.3L987.3 682.3L988.7 656.8L990 711.4L991.3 652.8L992.7 737.4L994 647L995.3 701.9L996.7 645.9L998 722.1L999.3 622.3L1000.7 717L1002 732.4L1003.3 741.9L1004.7 701.6L1006 746.5L1007.3 691.6L1008.7 494.7L1010 609.6L1011.3 746.2L1012.7 710.1L1014 767.9L1015.3 604.6L1016.7 749.6L1018 747L1019.3 641.4L1020.7 -31.2L1022 386L1023.3 499.5L1024.7 558.4L1026 305.4L1027.3 582.3L1028.7 372.5L1030 628.7L1031.3 434.8L1032.7 623.1L1034 446.2L1035.3 615.7L1036.7 370.9L1038 640.4L1039.3 647.8L1040.7 675.9L1042 543.5L1043.3 649.6L1044.7 565.3L1046 621.3L1047.3 513.8L1048.7 662.4L1050 571.7L1051.3 659.2L1052.7 574.8L1054 664.5L1055.3 571.7L1056.7 672.2L1058 570.9L1059.3 617L1060.7 578.3L1062 695.5L1063.3 599.8L1064.7 672.7L1066 719.7L1067.3 694.5L1068.7 661.3L1070 686L1071.3 652.8L1072.7 579.1L1074 640.4L1075.3 684.7L1076.7 658.1L1078 704.5L1079.3 637.2L1080.7 719.7L1082 708.5L1083.3 764.2L1084.7 703.5L1086 725.8L1087.3 662.9L1088.7 740.9L1090 687.6L1091.3 764.5L1092.7 745.1L1094 737.2L1095.3 706.4L1096.7 753.6L1098 737.4L1099.3 704L1100.7 46.8L1102 321.3L1103.3 527.9L1104.7 536.1L1106 352L1107.3 624.2L1108.7 423.1L1110 617.5L1111.3 398.2L1112.7 640.9L1114 318.6L1115.3 633.7L1116.7 373.8L1118 663.7L1119.3 671.4L1120.7 655.7L1122 519.9L1123.3 648.1L1124.7 568L1126 525L1127.3 461.3L1128.7 644.6L1130 553.9L1131.3 674L1132.7 581.2L1134 683.1L1135.3 595.5L1136.7 693.1L1138 573.5L1139.3 503.8L1140.7 414.1L1142 681.5L1143.3 562.1L1144.7 691.6L1146 696.9L1147.3 674L1148.7 651.5L1150 715.4L1151.3 649.6L1152.7 598.2L1154 564.2L1155.3 717.5L1156.7 680.7L1158 715.7L1159.3 639.8L1160.7 730.3L1162 742.2L1163.3 760.2L1164.7 712.2L1166 736.9L1167.3 649.4L1168.7 717.3L1170 670.1L1171.3 712.8L1172.7 736.9L1174 729.5L1175.3 724.7L1176.7 768.7L1178 774.8L1179.3 699.8L1180.7 70.6L1182 381.8L1183.3 522.3L1184.7 557.9L1186 291.3L1187.3 578.6L1188.7 396.9L1190 489.7L1191.3 432.9L1192.7 625.2L1194 435.1L1195.3 653.1L1196.7 331.1L1198 616L1199.3 656.5L1200.7 657.9L1202 530.6L1203.3 674.6L1204.7 549.9L1206 598.7L1207.3 551L1208.7 677L1210 564L1211.3 664L1212.7 589.4L1214 691.8L1215.3 593.4L1216.7 690.8L1218 596.9L1219.3 656.3L1220.7 583.9L1222 678.3L1223.3 577.8L1224.7 713.6L1226 671.4L1227.3 716.2L1228.7 643L1230 680.4L1231.3 644.9L1232.7 722.6L1234 642.2L1235.3 667.1L1236.7 653.6L1238 727.1L1239.3 660.3L1240.7 745.1L1242 732.1L1243.3 758.9L1244.7 686L1246 745.7L1247.3 427.9L1248.7 690.8L1250 641.7L1251.3 744.1L1252.7 709.6L1254 719.4L1255.3 742.2L1256.7 745.9L1258 734.3L1259.3 631.1L1260.7 -111.1L1262 351.8L1263.3 505.4L1264.7 442.5L1266 -326.2L1267.3 -56.2L1268.7 -202L1270 81L1271.3 31.1L1272.7 555L1274 329.8L1275.3 583.1L1276.7 251.5L1278 629.5L1279.3 643.5L1280.7 664.8L1282 472.2L1283.3 658.1L1284.7 544.9L1286 659.2L1287.3 567.2L1288.7 662.4L1290 542.5L1291.3 670.6L1292.7 532.1L1294 228.7L1295.3 545.7L1296.7 679.9L1298 577L1299.3 679.1L1300.7 594.2L1302 614.1L1303.3 499L1304.7 689.4L1306 679.4L1307.3 661L1308.7 573.8L1310 703.5L1311.3 627.1L1312.7 707.5L1314 681.5L1315.3 691L1316.7 673L1318 703.5L1319.3 553.4L1320.7 697.4L1322 666.4L1323.3 739L1324.7 677L1326 736.6L1327.3 685.7L1328.7 739.8L1330 714.4L1331.3 746.7L1332.7 730.8L1334 729.5L1335.3 736.9L1336.7 731.3L1338 641.4L1339.3 682.3L1340.7 3L1342 469.8L1343.3 579.9L1344.7 470.6L1346 152.1L1347.3 658.7L1348.7 297.1L1350 614.9L1351.3 466.9L1352.7 640.6L1354 459.5L1355.3 651.2L1356.7 308.5L1358 635.1L1359.3 654.9L1360.7 657.6L1362 486.8L1363.3 656.8L1364.7 563.4L1366 657.3L1367.3 534L1368.7 655.7L1370 361.6L1371.3 649.1L1372.7 513.8L1374 690.8L1375.3 591.6L1376.7 697.9L1378 598.2L1379.3 707.5L1380.7 639.3L1382 693.9L1383.3 578L1384.7 676.7L1386 696.6L1387.3 660L1388.7 648.3L1390 718.1L1391.3 688.6L1392.7 701.9L1394 634.5L1395.3 697.1L1396.7 666.9L1398 516.2L1399.3 610.4L1400.7 709.3L1402 731.9L1403.3 739.3L1404.7 697.1L1406 739.6L1407.3 693.1L1408.7 740.6L1410 706.1L1411.3 741.7L1412.7 709.1L1414 706.9L1415.3 739.6L1416.7 759.7L1418 757.1L1419.3 718.1L1420.7 20.5L1422 430.6L1423.3 215.7L1424.7 507.5L1426 335.9L1427.3 613.6L1428.7 415.7L1430 619.4L1431.3 446.2L1432.7 652.6L1434 429.5L1435.3 474.3L1436.7 299L1438 642.5L1439.3 668.2L1440.7 678.3L1442 544.6L1443.3 672.5L1444.7 564.5L1446 656L1447.3 548.1L1448.7 613L1450 549.1L1451.3 663.7L1452.7 561.6L1454 668.2L1455.3 597.1L1456.7 635.1L1458 603.8L1459.3 680.4L1460.7 596.6L1462 673.2L1463.3 549.1L1464.7 692.1L1466 693.9L1467.3 689.4L1468.7 616L1470 692.6L1471.3 628.7L1472.7 721.5L1474 661.8L1475.3 706.7L1476.7 622.1L1478 729.2L1479.3 660L1480.7 712.5L1482 747.8L1483.3 760L1484.7 706.1L1486 750.2L1487.3 696.9L1488.7 712.2L1490 721L1491.3 687.3L1492.7 696.1L1494 705.9L1495.3 742.5L1496.7 763.2L1498 722.6L1499.3 652.3L1500.7 34.6L1502 429.8L1503.3 553.4L1504.7 517.8L1506 354.7L1507.3 633.7L1508.7 403.5L1510 618.1L1511.3 457.9L1512.7 646.2L1514 503L1515.3 615.4L1516.7 181.5L1518 656.8L1519.3 665.6L1520.7 685.2L1522 513.6L1523.3 668.5L1524.7 548.6L1526 636.1L1527.3 557.9L1528.7 657.3L1530 478.3L1531.3 669L1532.7 539.8L1534 697.9L1535.3 541.4L1536.7 670.3L1538 601.1L1539.3 616L1540.7 568.5L1542 690.8L1543.3 541.2L1544.7 639.3L1546 697.4L1547.3 691.8L1548.7 635.1L1550 689.7L1551.3 638.2L1552.7 697.1L1554 648.8L1555.3 684.7L1556.7 388.6L1558 725.8L1559.3 643.3L1560.7 644.9L1562 729.5L1563.3 771.9L1564.7 674.8L1566 755.5L1567.3 692.3L1568.7 654.7L1570 711.2L1571.3 740.6L1572.7 705.1L1574 753.9L1575.3 680.1L1576.7 727.6L1578 758.1L1579.3 693.4L1580.7 54.7L1582 471.7L1583.3 474.3L1584.7 534.5L1586 -413.7L1587.3 109.1L1588.7 -500.2L1590 357.9L1591.3 159.7L1592.7 152.9L1594 71.4L1595.3 609.3L1596.7 268.2L1598 619.9L1599.3 632.4L1600.7 663.7L1602 521.8L1603.3 635.3L1604.7 565.8L1606 579.9L1607.3 493.7L1608.7 680.4L1610 557.1L1611.3 651.5L1612.7 568L1614 718.9L1615.3 555.2L1616.7 703.2L1618 604.6L1619.3 648.6L1620.7 574.1L1622 588.9L1623.3 563.7L1624.7 726L1626 690.8L1627.3 708.3L1628.7 647L1630 698.2L1631.3 674.8L1632.7 670.3L1634 634.8L1635.3 704.5L1636.7 651.8L1638 684.4L1639.3 664L1640.7 705.3L1642 716.2L1643.3 744.3L1644.7 696.6L1646 733.7L1647.3 658.4L1648.7 696.6L1650 732.7L1651.3 734.5L1652.7 746.5L1654 724.7L1655.3 739L1656.7 755.7L1658 717.3L1659.3 650.7L1660.7 32.4L1662 438.8L1663.3 531.9L1664.7 570.6L1666 336.9L1667.3 648.1L1668.7 418.6L1670 618.9L1671.3 464.2L1672.7 625.2L1674 447L1675.3 629.5L1676.7 400.9L1678 641.4L1679.3 671.9L1680.7 672.2L1682 546.2L1683.3 643.8L1684.7 554.4L1686 594.7L1687.3 559.5L1688.7 672.5L1690 613L1691.3 671.9L1692.7 591.6L1694 670.3L1695.3 584.7L1696.7 677.8L1698 598.7L1699.3 645.9L1700.7 561.1L1702 607.2L1703.3 584.7L1704.7 690.5L1706 702.7L1707.3 673.2L1708.7 624.4L1710 722.3L1711.3 661L1712.7 407.7L1714 614.1L1715.3 696.1L1716.7 656.5L1718 714.9L1719.3 654.7L1720.7 727.4L1722 725.5L1723.3 747.3L1724.7 693.7L1726 762.1L1727.3 674L1728.7 684.4L1730 694.5L1731.3 723.6L1732.7 720.7L1734 749.4L1735.3 709.9L1736.7 728.7L1738 735.6L1739.3 662.6L1740.7 27.7L1742 428.7L1743.3 491L1744.7 559.2L1746 319.4L1747.3 567.2L1748.7 333.2L1750 569.5L1751.3 146L1752.7 616.8L1754 421.3L1755.3 619.4L1756.7 357.1L1758 637.7L1759.3 668.5L1760.7 663.2L1762 541.2L1763.3 626.8L1764.7 535.9L1766 654.4L1767.3 479.4L1768.7 673L1770 564.5L1771.3 680.7L1772.7 555L1774 702.7L1775.3 599.8L1776.7 672.2L1778 563.2L1779.3 677L1780.7 575.6L1782 692.6L1783.3 577.2L1784.7 659.2L1786 682.3L1787.3 709.6L1788.7 653.1L1790 712.5L1791.3 641.7L1792.7 662.6L1794 606.1L1795.3 724.7L1796.7 658.1L1798 707.5L1799.3 661" fill="transparent" stroke="#3fb1e3" stroke-width="3" stroke-linejoin="bevel" class="zr34-cls-104"></path>
</g>
<g clip-path="url(#zr34-c1)">
<path d="M200.7 332.2L202 599.2L203.3 702.4L204.7 595.5L206 737.2L207.3 622.6L208.7 737.4L210 667.4L211.3 731.3L212.7 710.6L214 702.7L215.3 694.7L216.7 740.9L218 698.7L219.3 698.4L220.7 -161.5L222 469.3L223.3 573.8L224.7 574.3L226 266.9L227.3 553.6L228.7 421.3L230 586.5L231.3 459.2L232.7 654.4L234 523.4L235.3 654.4L236.7 376.4L238 629.8L239.3 644.6L240.7 653.9L242 484.4L243.3 644.9L244.7 544.9L246 679.9L247.3 542L248.7 686L250 574.8L251.3 690.8L252.7 494.7L254 599.2L255.3 573.8L256.7 637.4L258 502.7L259.3 668.7L260.7 510.9L262 704.5L263.3 543.3L264.7 706.1L266 606.7L267.3 664L268.7 599.5L270 696.9L271.3 654.2L272.7 720.2L274 679.9L275.3 715.2L276.7 665.3L278 721.5L279.3 630.8L280.7 660.5L282 720.5L283.3 755.5L284.7 678.8L286 729.5L287.3 702.4L288.7 745.4L290 699.5L291.3 747.5L292.7 727.4L294 722.1L295.3 666.6L296.7 762.4L298 678.8L299.3 705.6L300.7 -1.3L302 407.2L303.3 527.6L304.7 526.8L306 -348.7L307.3 116.5L308.7 -135.2L310 350.7L311.3 113.6L312.7 471.7L314 356.6L315.3 554.7L316.7 -10.8L318 637.2L319.3 674.3L320.7 688.1L322 536.9L323.3 638.8L324.7 568.2L326 658.1L327.3 558.4L328.7 643L330 551.8L331.3 620.5L332.7 559.2L334 678.8L335.3 580.2L336.7 677.2L338 593.4L339.3 682L340.7 580.2L342 700.3L343.3 568.5L344.7 719.7L346 678L347.3 710.9L348.7 619.1L350 698.4L351.3 649.6L352.7 731.1L354 648.6L355.3 736.4L356.7 627.9L358 613.8L359.3 621L360.7 729.7L362 727.1L363.3 754.4L364.7 578.8L366 728.7L367.3 717.5L368.7 744.3L370 409.3L371.3 741.4L372.7 746.7L374 757.9L375.3 698.2L376.7 766.6L378 763.7L379.3 582.5L380.7 31.4L382 408L383.3 513.3L384.7 584.7L386 325.3L387.3 610.9L388.7 355.2L390 608.3L391.3 452.8L392.7 601.6L394 177L395.3 595L396.7 339L398 636.6L399.3 675.1L400.7 675.4L402 519.7L403.3 633.5L404.7 546.7L406 678.3L407.3 519.9L408.7 687.3L410 589.2L411.3 661.8L412.7 587.6L414 567.4L415.3 576.4L416.7 686.2L418 570.9L419.3 678.3L420.7 604.3L422 624.7L423.3 553.9L424.7 717.3L426 709.9L427.3 688.1L428.7 643.8L430 716.5L431.3 617.8L432.7 679.6L434 694.5L435.3 699.5L436.7 585.2L438 696.3L439.3 637.4L440.7 690.8L442 730.3L443.3 759.5L444.7 726.6L446 705.6L447.3 703L448.7 729.5L450 708L451.3 712.2L452.7 694.2L454 744.3L455.3 746.7L456.7 774.8L458 718.3L459.3 727.1L460.7 -11.1L462 443L463.3 484.1L464.7 543.8L466 300.1L467.3 615.2L468.7 429.5L470 624.4L471.3 458.1L472.7 625.8L474 467.2L475.3 341.2L476.7 317.8L478 579.6L479.3 623.7L480.7 689.7L482 543.8L483.3 667.7L484.7 560.5L486 649.6L487.3 551.2L488.7 291.6L490 498.2L491.3 672.7L492.7 552L494 678L495.3 553.1L496.7 583.3L498 624.4L499.3 658.9L500.7 593.4L502 667.7L503.3 572.2L504.7 674.6L506 708.3L507.3 663.7L508.7 623.1L510 720.5L511.3 650.4L512.7 715.7L514 677.8L515.3 728.2L516.7 608.8L518 727.4L519.3 659.5L520.7 748.6L522 717.8L523.3 743.8L524.7 651.8L526 737.4L527.3 691.8L528.7 788.9L530 454.2L531.3 741.7L532.7 754.7L534 745.4L535.3 740.1L536.7 764.8L538 771.7L539.3 702.7L540.7 -116.1L542 408L543.3 424.7L544.7 501.1L546 308.3L547.3 606.9L548.7 343.3L550 588.9L551.3 450.4L552.7 550.4L554 485.2L555.3 584.4L556.7 249.1L558 650.4L559.3 650.4L560.7 634L562 545.7L563.3 670.6L564.7 525L566 657.9L567.3 516L568.7 622.9L570 528.7L571.3 653.1L572.7 559.2L574 689.2L575.3 588.9L576.7 681.2L578 626L579.3 709.9L580.7 614.9L582 636.1L583.3 552L584.7 713L586 704.3L587.3 702.2L588.7 627.9L590 711.7L591.3 653.6L592.7 713.6L594 659.5L595.3 724.2L596.7 647L598 709.6L599.3 631.1L600.7 718.9L602 718.1L603.3 750.4L604.7 687.3L606 732.9L607.3 712L608.7 741.4L610 473.8L611.3 713.6L612.7 712.2L614 737.2L615.3 733.2L616.7 785.7L618 769L619.3 694.7L620.7 76.2L622 459.7L623.3 518.6L624.7 510.1L626 -384.8L627.3 131.9L628.7 -131.5L630 339L631.3 124.5L632.7 466.4L634 229.2L635.3 557.1L636.7 238.3L638 638L639.3 620.5L640.7 678L642 508L643.3 653.6L644.7 234.5L646 631.3L647.3 527.9L648.7 661.3L650 563.2L651.3 675.6L652.7 595.5L654 683.1L655.3 602.2L656.7 674.3L658 621.8L659.3 565.3L660.7 595.5L662 687.6L663.3 586.5L664.7 705.9L666 696.1L667.3 697.7L668.7 644.1L670 721.5L671.3 645.9L672.7 693.7L674 655.5L675.3 696.6L676.7 651.8L678 711.7L679.3 643.8L680.7 662.1L682 751.5L683.3 764.2L684.7 683.3L686 752.3L687.3 660.8L688.7 726.8L690 670.3L691.3 749.6L692.7 700.6L694 718.6L695.3 750.7L696.7 739L698 754.7L699.3 636.6L700.7 -93.3L702 403.8L703.3 515.7L704.7 439.6L706 312L707.3 604.8L708.7 421.5L710 612L711.3 324.7L712.7 610.1L714 403.8L715.3 624.4L716.7 357.1L718 675.6L719.3 639L720.7 665.8L722 525L723.3 653.4L724.7 452.6L726 608.3L727.3 570.3L728.7 674.3L730 584.1L731.3 633.7L732.7 566.6L734 686.2L735.3 557.9L736.7 268.5L738 547.5L739.3 661.3L740.7 579.1L742 669.8L743.3 546.7L744.7 668.2L746 713L747.3 684.9L748.7 635.1L750 704L751.3 581.5L752.7 686.8L754 639L755.3 723.9L756.7 701.1L758 712.2L759.3 659.5L760.7 733.7L762 703.8L763.3 765.6L764.7 709.9L766 690.2L767.3 642.2L768.7 722.3L770 692.3L771.3 734.8L772.7 749.4L774 764.5L775.3 762.1L776.7 737.4L778 739L779.3 674L780.7 43.8L782 439L783.3 543.3L784.7 586.8L786 185.2L787.3 616.2L788.7 387.3L790 575.4L791.3 345.7L792.7 533.5L794 454.7L795.3 642.7L796.7 304.8L798 648.1L799.3 658.7L800.7 658.9L802 563.2L803.3 567.2L804.7 509.6L806 606.7L807.3 552.6L808.7 678.8L810 540.4L811.3 661.8L812.7 553.4L814 670.9L815.3 602.7L816.7 277.8L818 552.6L819.3 691L820.7 612.5L822 663.4L823.3 569.5L824.7 711.7L826 697.1L827.3 689.2L828.7 644.6L830 744.3L831.3 573.5L832.7 704.5L834 651.2L835.3 716.2L836.7 679.9L838 595.5L839.3 627.1L840.7 728.9L842 713.8L843.3 730.5L844.7 635.6L846 732.9L847.3 693.7L848.7 672.7L850 690.8L851.3 731.6L852.7 710.6L854 768.7L855.3 684.9L856.7 755.7L858 718.9L859.3 682.3L860.7 25.8L862 313.3L863.3 496.6L864.7 551.5L866 321L867.3 593.1L868.7 425.8L870 273.3L871.3 390.5L872.7 624.2L874 452.6L875.3 608.8L876.7 334.3L878 661.3L879.3 656.8L880.7 687L882 496.3L883.3 320.5L884.7 505.1L886 553.1L887.3 484.7L888.7 667.9L890 568.2L891.3 684.1L892.7 584.9L894 674.3L895.3 547.3L896.7 683.3L898 507.5L899.3 686.5L900.7 586.5L902 704.8L903.3 566.1L904.7 713L906 682.8L907.3 716L908.7 655.7L910 711.4L911.3 571.4L912.7 721.8L914 625.5L915.3 682.3L916.7 664.2L918 670.9L919.3 650.2L920.7 738.8L922 740.6L923.3 761L924.7 362.1L926 722.8L927.3 690L928.7 745.1L930 708.3L931.3 739.8L932.7 727.1L934 751L935.3 727.4L936.7 769.5L938 726.6L939.3 709.9L940.7 19.4L942 424.2L943.3 525.5L944.7 518.1L946 -347.9L947.3 127.1L948.7 -142.4L950 383.3L951.3 105.9L952.7 568.5L954 377.2L955.3 491L956.7 128.5L958 616.5L959.3 651.2L960.7 670.9L962 514.9L963.3 640.6L964.7 512L966 663.4L967.3 526L968.7 662.4L970 558.1L971.3 613.6L972.7 569.5L974 598.5L975.3 606.4L976.7 666.1L978 608.5L979.3 656.3L980.7 626.8L982 580.4L983.3 546.7L984.7 706.9L986 713L987.3 697.4L988.7 630.8L990 692.6L991.3 648.6L992.7 721.3L994 640.9L995.3 680.9L996.7 523.7L998 723.1L999.3 633.5L1000.7 713.3L1002 728.7L1003.3 752L1004.7 694.2L1006 734L1007.3 706.4L1008.7 734L1010 725.5L1011.3 724.7L1012.7 700.6L1014 748L1015.3 714.9L1016.7 716.7L1018 744.6L1019.3 706.1L1020.7 -27.2L1022 373.8L1023.3 469.5L1024.7 536.1L1026 320L1027.3 621.3L1028.7 385.7L1030 623.9L1031.3 450.4L1032.7 318.9L1034 412.5L1035.3 639.3L1036.7 266.1L1038 656.5L1039.3 642.5L1040.7 696.1L1042 560L1043.3 676.7L1044.7 555.7L1046 233.5L1047.3 504.8L1048.7 647L1050 558.9L1051.3 686.8L1052.7 561.1L1054 559.2L1055.3 592.1L1056.7 631.9L1058 571.4L1059.3 699L1060.7 429.2L1062 701.6L1063.3 577.8L1064.7 695.3L1066 677.5L1067.3 691.8L1068.7 503L1070 708.8L1071.3 647.8L1072.7 720.5L1074 594.2L1075.3 720.2L1076.7 685.5L1078 702.4L1079.3 659.2L1080.7 691.8L1082 699.5L1083.3 762.9L1084.7 746.5L1086 732.1L1087.3 707.5L1088.7 737.2L1090 631.1L1091.3 771.7L1092.7 718.1L1094 752.6L1095.3 719.7L1096.7 761.6L1098 740.1L1099.3 725L1100.7 -4.7L1102 330.8L1103.3 484.7L1104.7 547.5L1106 286L1107.3 478.3L1108.7 397.9L1110 630L1111.3 412.3L1112.7 569.3L1114 387.3L1115.3 656.3L1116.7 336.7L1118 605.6L1119.3 659.2L1120.7 666.1L1122 503L1123.3 649.1L1124.7 580.4L1126 599.8L1127.3 482.3L1128.7 667.9L1130 507.5L1131.3 671.1L1132.7 575.6L1134 677.8L1135.3 597.1L1136.7 688.1L1138 601.6L1139.3 691.6L1140.7 536.1L1142 693.9L1143.3 567.4L1144.7 687.3L1146 731.1L1147.3 690.8L1148.7 646.2L1150 740.4L1151.3 653.4L1152.7 713.6L1154 588.4L1155.3 720.7L1156.7 633.5L1158 712.8L1159.3 665.6L1160.7 748L1162 701.9L1163.3 779.9L1164.7 713L1166 748.8L1167.3 683.9L1168.7 738L1170 696.6L1171.3 749.1L1172.7 728.4L1174 779.9L1175.3 728.7L1176.7 752.6L1178 733.7L1179.3 692.3L1180.7 75.1L1182 377.8L1183.3 531.9L1184.7 564.2L1186 347.8L1187.3 634.5L1188.7 383.3L1190 593.1L1191.3 418.1L1192.7 617L1194 363.5L1195.3 635.3L1196.7 355L1198 650.7L1199.3 678.3L1200.7 655.2L1202 543L1203.3 672.7L1204.7 435.3L1206 667.1L1207.3 476.2L1208.7 655.2L1210 562.9L1211.3 694.7L1212.7 547.5L1214 657.1L1215.3 571.9L1216.7 668.5L1218 622.1L1219.3 687.8L1220.7 549.9L1222 695.3L1223.3 566.6L1224.7 724.4L1226 709.1L1227.3 709.3L1228.7 661.6L1230 708.5L1231.3 624.7L1232.7 719.9L1234 653.9L1235.3 683.6L1236.7 652.6L1238 716L1239.3 642L1240.7 732.1L1242 726L1243.3 753.6L1244.7 696.1L1246 711.2L1247.3 684.9L1248.7 693.7L1250 692.1L1251.3 708.8L1252.7 755.5L1254 738L1255.3 753.1L1256.7 741.2L1258 745.4L1259.3 732.9L1260.7 52.6L1262 433.7L1263.3 508.5L1264.7 518.1L1266 -335.5L1267.3 133.5L1268.7 -101.2L1270 423.9L1271.3 123.1L1272.7 578L1274 354.7L1275.3 620.5L1276.7 327.9L1278 651.8L1279.3 658.9L1280.7 660L1282 69.3L1283.3 605.9L1284.7 529.5L1286 665L1287.3 531.6L1288.7 661.8L1290 562.1L1291.3 668.7L1292.7 552.6L1294 654.2L1295.3 252.8L1296.7 634.3L1298 563.2L1299.3 701.4L1300.7 617.3L1302 675.6L1303.3 609.9L1304.7 687.6L1306 652.8L1307.3 674.3L1308.7 262.7L1310 664.2L1311.3 651L1312.7 725.8L1314 649.4L1315.3 695.8L1316.7 661L1318 639L1319.3 660L1320.7 718.6L1322 689.7L1323.3 719.1L1324.7 674.8L1326 735.1L1327.3 628.4L1328.7 738L1330 750.4L1331.3 732.7L1332.7 696.1L1334 785.4L1335.3 717.8L1336.7 751.5L1338 696.3L1339.3 695.5L1340.7 -157.7L1342 432.9L1343.3 544.6L1344.7 614.1L1346 328.2L1347.3 62.4L1348.7 326.3L1350 612.8L1351.3 410.9L1352.7 634.3L1354 477.5L1355.3 635.3L1356.7 382.5L1358 641.2L1359.3 641.7L1360.7 621.5L1362 503L1363.3 634.3L1364.7 506.1L1366 662.6L1367.3 512.3L1368.7 690L1370 561.8L1371.3 687.6L1372.7 557.3L1374 635.6L1375.3 596.9L1376.7 696.3L1378 568L1379.3 711.7L1380.7 605.6L1382 699.5L1383.3 594.7L1384.7 706.7L1386 703.2L1387.3 719.1L1388.7 562.4L1390 729.2L1391.3 644.3L1392.7 711.4L1394 641.4L1395.3 730.5L1396.7 675.4L1398 713L1399.3 651.2L1400.7 713L1402 716.7L1403.3 706.7L1404.7 705.3L1406 749.4L1407.3 672.5L1408.7 716.2L1410 699L1411.3 742.5L1412.7 733.7L1414 746.2L1415.3 724.2L1416.7 749.9L1418 744.1L1419.3 708.3L1420.7 -37.1L1422 404L1423.3 518.9L1424.7 518.4L1426 267.7L1427.3 617.3L1428.7 342.8L1430 650.2L1431.3 426.8L1432.7 630.3L1434 443L1435.3 624.2L1436.7 341.4L1438 656L1439.3 643.5L1440.7 683.1L1442 501.6L1443.3 666.9L1444.7 538.2L1446 642.7L1447.3 549.1L1448.7 697.1L1450 581.2L1451.3 654.9L1452.7 560.8L1454 685.5L1455.3 482.8L1456.7 645.7L1458 607.5L1459.3 705.1L1460.7 591.6L1462 688.6L1463.3 591.3L1464.7 704.3L1466 700.8L1467.3 683.9L1468.7 652L1470 701.1L1471.3 525.8L1472.7 677.2L1474 678.6L1475.3 692.1L1476.7 666.6L1478 714.6L1479.3 643L1480.7 734.3L1482 722.1L1483.3 426.3L1484.7 681.5L1486 731.9L1487.3 543L1488.7 739.8L1490 735.3L1491.3 759.7L1492.7 731.3L1494 732.9L1495.3 738.2L1496.7 757.9L1498 728.2L1499.3 692.3L1500.7 29.5L1502 438.2L1503.3 552L1504.7 562.9L1506 281.5L1507.3 600.8L1508.7 415.7L1510 618.3L1511.3 469.8L1512.7 591L1514 421L1515.3 652.3L1516.7 300.3L1518 634.8L1519.3 673.5L1520.7 680.9L1522 113.1L1523.3 365.3L1524.7 530.6L1526 670.3L1527.3 525.5L1528.7 681.5L1530 575.4L1531.3 658.1L1532.7 553.6L1534 678.6L1535.3 480.7L1536.7 658.7L1538 538L1539.3 669L1540.7 587.3L1542 664.8L1543.3 613.8L1544.7 664.5L1546 677.5L1547.3 689.4L1548.7 632.9L1550 646.5L1551.3 617L1552.7 714.4L1554 660.3L1555.3 718.1L1556.7 680.1L1558 717L1559.3 641.4L1560.7 730L1562 700.6L1563.3 738.2L1564.7 660L1566 708.8L1567.3 710.1L1568.7 743L1570 696.9L1571.3 741.7L1572.7 749.4L1574 794.2L1575.3 723.4L1576.7 780.9L1578 765.8L1579.3 703.8L1580.7 59.8L1582 431.6L1583.3 499.8L1584.7 546.7L1586 -337.3L1587.3 88.9L1588.7 -133.9L1590 416L1591.3 125.5L1592.7 541.2L1594 332.4L1595.3 588.6L1596.7 54.2L1598 594.7L1599.3 617L1600.7 678.6L1602 480.2L1603.3 629L1604.7 532.7L1606 625.8L1607.3 543.3L1608.7 641.2L1610 472.2L1611.3 663.4L1612.7 560.3L1614 684.1L1615.3 579.9L1616.7 690.2L1618 589.4L1619.3 685.5L1620.7 622.1L1622 431.4L1623.3 498.5L1624.7 688.4L1626 703L1627.3 709.1L1628.7 662.1L1630 760.8L1631.3 649.4L1632.7 667.4L1634 630L1635.3 706.1L1636.7 621.8L1638 624.7L1639.3 602.2L1640.7 710.1L1642 748.6L1643.3 764L1644.7 708.3L1646 765.8L1647.3 711.7L1648.7 714.1L1650 730.8L1651.3 697.4L1652.7 678.8L1654 746.7L1655.3 717.8L1656.7 756.5L1658 743.5L1659.3 702.2L1660.7 38.8L1662 438L1663.3 498.2L1664.7 551L1666 342.2L1667.3 620.5L1668.7 436.4L1670 563.2L1671.3 437.5L1672.7 634.8L1674 497.7L1675.3 553.4L1676.7 339.3L1678 608.3L1679.3 635.3L1680.7 677L1682 554.2L1683.3 640.1L1684.7 544.6L1686 674.6L1687.3 582.8L1688.7 608L1690 521L1691.3 675.6L1692.7 571.7L1694 697.4L1695.3 576.7L1696.7 652.6L1698 536.7L1699.3 657.3L1700.7 612.2L1702 571.4L1703.3 460L1704.7 678L1706 677L1707.3 689.7L1708.7 629.5L1710 687.6L1711.3 648.6L1712.7 693.1L1714 684.1L1715.3 692.9L1716.7 623.7L1718 715.4L1719.3 638L1720.7 716.7L1722 758.7L1723.3 745.1L1724.7 747.8L1726 719.1L1727.3 701.6L1728.7 707.5L1730 692.9L1731.3 538.8L1732.7 737.4L1734 737.2L1735.3 724.2L1736.7 753.1L1738 735.6L1739.3 711.4L1740.7 15.7L1742 428.7L1743.3 458.7L1744.7 551.2L1746 326.1L1747.3 628.2L1748.7 361.3L1750 605.3L1751.3 443L1752.7 648.8L1754 441.7L1755.3 575.4L1756.7 291.3L1758 648.3L1759.3 671.7L1760.7 690L1762 544.9L1763.3 683.1L1764.7 577.2L1766 661L1767.3 535.6L1768.7 594.7L1770 562.9L1771.3 655.7L1772.7 492.6L1774 730L1775.3 583.3L1776.7 673.2L1778 511.2L1779.3 692.9L1780.7 615.2L1782 685.2L1783.3 539.6L1784.7 621.5L1786 691.6L1787.3 700.3L1788.7 608L1790 692.6L1791.3 643.8L1792.7 725L1794 611.2L1795.3 732.1L1796.7 625.2L1798 705.1L1799.3 639.3" fill="transparent" stroke="#6be6c1" stroke-width="3" stroke-linejoin="bevel" class="zr34-cls-104"></path>
</g>
<g clip-path="url(#zr34-c2)">
<path d="M200.7 313.9L202 626.3L203.3 728.2L204.7 623.9L206 724.2L207.3 684.1L208.7 719.9L210 686.2L211.3 734.5L212.7 717L214 735.3L215.3 737.4L216.7 720.2L218 743.3L219.3 678.8L220.7 -178.4L222 362.7L223.3 551.2L224.7 587.8L226 296.6L227.3 660L228.7 440.4L230 598.7L231.3 466.9L232.7 599.8L234 458.9L235.3 675.9L236.7 378.3L238 664.2L239.3 673.2L240.7 666.4L242 560.5L243.3 638.5L244.7 508.3L246 605.9L247.3 553.4L248.7 655.5L250 581.2L251.3 693.9L252.7 590.5L254 648.8L255.3 599.8L256.7 664.5L258 573.5L259.3 718.3L260.7 526.8L262 666.9L263.3 599.2L264.7 733.7L266 721.8L267.3 693.9L268.7 638L270 725L271.3 652.3L272.7 708.3L274 668.5L275.3 676.2L276.7 658.4L278 708.3L279.3 573.5L280.7 710.9L282 718.3L283.3 717.5L284.7 719.4L286 741.2L287.3 718.6L288.7 670.1L290 709.1L291.3 693.7L292.7 734.3L294 723.1L295.3 716.2L296.7 769L298 749.9L299.3 725.2L300.7 17.3L302 407L303.3 495L304.7 512.3L306 -580.3L307.3 130L308.7 -162.2L310 443L311.3 184.9L312.7 457.1L314 4.8L315.3 614.9L316.7 298.7L318 635.9L319.3 630.8L320.7 670.6L322 579.6L323.3 674.8L324.7 558.9L326 625.8L327.3 505.6L328.7 663.2L330 594.5L331.3 677.5L332.7 583.3L334 671.9L335.3 598.7L336.7 679.6L338 591.3L339.3 636.4L340.7 548.6L342 702.2L343.3 584.7L344.7 712.2L346 716.2L347.3 701.4L348.7 632.7L350 647L351.3 691.6L352.7 705.3L354 617.5L355.3 711.2L356.7 673.8L358 739.6L359.3 669.3L360.7 716.2L362 740.1L363.3 741.4L364.7 634L366 765.8L367.3 418.1L368.7 704.8L370 687.8L371.3 749.4L372.7 692.3L374 711.4L375.3 736.1L376.7 746.5L378 765L379.3 695L380.7 -77.6L382 404.8L383.3 554.7L384.7 508.5L386 303.8L387.3 615.7L388.7 381.8L390 623.4L391.3 462.7L392.7 565.6L394 453.9L395.3 633.5L396.7 292.4L398 664.8L399.3 683.9L400.7 584.1L402 539L403.3 622.6L404.7 537.4L406 654.4L407.3 475.1L408.7 691.6L410 569.5L411.3 677.5L412.7 594.2L414 701.9L415.3 565L416.7 688.6L418 604.8L419.3 669.8L420.7 583.1L422 716L423.3 581.5L424.7 707.7L426 710.1L427.3 702.7L428.7 671.9L430 723.9L431.3 649.9L432.7 728.4L434 662.9L435.3 697.1L436.7 616.8L438 720.7L439.3 650.7L440.7 721.3L442 730.5L443.3 747L444.7 705.9L446 744.1L447.3 656.5L448.7 729.7L450 710.6L451.3 760.2L452.7 728.2L454 736.9L455.3 719.4L456.7 744.9L458 732.1L459.3 704L460.7 14.4L462 411.7L463.3 578L464.7 596.3L466 344.9L467.3 644.3L468.7 422.9L470 630L471.3 469L472.7 614.9L474 338L475.3 606.7L476.7 380.7L478 649.1L479.3 655.7L480.7 679.6L482 552.8L483.3 669.3L484.7 545.7L486 633.5L487.3 504.6L488.7 669.5L490 579.1L491.3 676.7L492.7 585.7L494 692.3L495.3 596.3L496.7 690.5L498 590.2L499.3 700.3L500.7 613L502 610.4L503.3 576.7L504.7 705.9L506 665.6L507.3 719.7L508.7 631.1L510 725L511.3 677L512.7 716L514 657.3L515.3 719.4L516.7 611.4L518 718.1L519.3 611.7L520.7 714.1L522 739.3L523.3 724.4L524.7 719.9L526 735.6L527.3 720.7L528.7 737.2L530 617L531.3 747.8L532.7 727.4L534 730.8L535.3 731.3L536.7 757.9L538 753.6L539.3 698.4L540.7 -1.5L542 -3.1L543.3 533.2L544.7 556L546 361.1L547.3 645.1L548.7 427.9L550 639.3L551.3 364.5L552.7 572.7L554 267.2L555.3 598.2L556.7 327.6L558 462.7L559.3 616.5L560.7 671.9L562 548.9L563.3 647.3L564.7 521.3L566 655.5L567.3 553.9L568.7 663.2L570 571.1L571.3 656.8L572.7 574.3L574 695.3L575.3 601.1L576.7 707.5L578 489.2L579.3 707.5L580.7 355.2L582 680.1L583.3 532.7L584.7 679.4L586 699L587.3 715.4L588.7 621.3L590 689.2L591.3 659.5L592.7 693.9L594 654.7L595.3 403L596.7 629L598 742.2L599.3 636.4L600.7 744.9L602 754.1L603.3 695.8L604.7 646.5L606 746.5L607.3 710.4L608.7 731.9L610 490L611.3 732.7L612.7 717.5L614 736.6L615.3 753.6L616.7 791.8L618 745.7L619.3 700.3L620.7 -41.8L622 462.4L623.3 468.5L624.7 435.9L626 -333.6L627.3 108.3L628.7 -135.7L630 473.5L631.3 210.4L632.7 236.7L634 307.8L635.3 527.6L636.7 314.1L638 636.1L639.3 671.1L640.7 674.3L642 518.9L643.3 678.8L644.7 568.2L646 646.5L647.3 524.7L648.7 642.2L650 574.1L651.3 647.5L652.7 573.8L654 666.6L655.3 598.2L656.7 695L658 601.9L659.3 660.5L660.7 557.3L662 686L663.3 570.1L664.7 711.2L666 716.7L667.3 707.5L668.7 632.9L670 723.1L671.3 663.4L672.7 717.8L674 649.4L675.3 716.7L676.7 679.9L678 709.3L679.3 639.6L680.7 734.5L682 711.2L683.3 727.9L684.7 702.7L686 744.6L687.3 691.8L688.7 666.1L690 361.9L691.3 675.4L692.7 633.7L694 708.3L695.3 665.6L696.7 725.8L698 697.9L699.3 606.1L700.7 -427L702 305.1L703.3 538L704.7 582.5L706 314.6L707.3 613.8L708.7 428.2L710 529.8L711.3 411.7L712.7 640.6L714 495.3L715.3 634L716.7 367.7L718 645.1L719.3 676.7L720.7 653.1L722 515.2L723.3 689.4L724.7 499.3L726 665.8L727.3 538.8L728.7 681.2L730 590.2L731.3 662.1L732.7 568.5L734 692.6L735.3 592.6L736.7 696.3L738 472.5L739.3 687.6L740.7 626.6L742 695L743.3 609.6L744.7 706.4L746 726.6L747.3 704.5L748.7 649.6L750 726.3L751.3 655.5L752.7 685.5L754 639L755.3 726.8L756.7 714.4L758 728.7L759.3 658.4L760.7 728.9L762 740.1L763.3 738L764.7 709.9L766 746.7L767.3 680.9L768.7 722.3L770 703.5L771.3 754.9L772.7 712.2L774 757.6L775.3 737.4L776.7 748L778 754.9L779.3 735.1L780.7 -33.1L782 357.1L783.3 570.1L784.7 592.9L786 301.1L787.3 639.8L788.7 405.6L790 609.6L791.3 463.4L792.7 534.8L794 416.8L795.3 663.2L796.7 320.7L798 651L799.3 652.8L800.7 666.6L802 558.7L803.3 697.1L804.7 575.9L806 312L807.3 528.2L808.7 671.9L810 478.3L811.3 647L812.7 583.3L814 655.5L815.3 617.8L816.7 709.1L818 623.1L819.3 695.3L820.7 551L822 613L823.3 574.1L824.7 689.2L826 685.2L827.3 700.6L828.7 644.6L830 707.7L831.3 612.8L832.7 716.5L834 646.5L835.3 705.3L836.7 679.1L838 664.5L839.3 651.5L840.7 749.9L842 725.8L843.3 748.6L844.7 726.6L846 736.1L847.3 705.3L848.7 643L850 704L851.3 756.8L852.7 734.3L854 781.7L855.3 727.4L856.7 762.1L858 742.2L859.3 736.6L860.7 -4.2L862 177.3L863.3 329L864.7 554.7L866 353.6L867.3 622.6L868.7 425L870 614.6L871.3 465.8L872.7 664L874 391.3L875.3 634.8L876.7 272.5L878 653.6L879.3 664.2L880.7 660.5L882 535.9L883.3 692.3L884.7 568.5L886 674.3L887.3 556L888.7 613.3L890 563.7L891.3 693.4L892.7 604.8L894 696.9L895.3 551.8L896.7 685.7L898 598.5L899.3 677.2L900.7 624.2L902 654.4L903.3 498.7L904.7 666.9L906 683.1L907.3 698.7L908.7 665.3L910 696.3L911.3 674.8L912.7 678L914 641.2L915.3 680.4L916.7 630.8L918 707.7L919.3 647L920.7 721L922 724.4L923.3 745.9L924.7 697.4L926 748L927.3 705.6L928.7 751.2L930 596.9L931.3 731.1L932.7 729.7L934 761.8L935.3 714.1L936.7 771.4L938 734L939.3 729.2L940.7 -10L942 414.6L943.3 518.4L944.7 519.7L946 -295.4L947.3 140.4L948.7 -112.7L950 384.1L951.3 -35.5L952.7 513.8L954 295.8L955.3 601.9L956.7 261.1L958 636.1L959.3 635.1L960.7 672.5L962 552L963.3 564.2L964.7 483.9L966 623.1L967.3 564L968.7 658.7L970 559.7L971.3 662.4L972.7 580.9L974 712L975.3 605.1L976.7 547L978 438.8L979.3 706.7L980.7 619.9L982 711.2L983.3 570.3L984.7 710.9L986 725.8L987.3 669.5L988.7 652.6L990 723.4L991.3 602.7L992.7 663.2L994 616.5L995.3 698.2L996.7 679.4L998 725.5L999.3 638L1000.7 708.3L1002 734.3L1003.3 747.3L1004.7 697.1L1006 715.7L1007.3 721.3L1008.7 769L1010 697.9L1011.3 747L1012.7 675.9L1014 748.8L1015.3 740.1L1016.7 721.5L1018 711.2L1019.3 678L1020.7 12L1022 415.4L1023.3 564.2L1024.7 574.3L1026 339L1027.3 636.9L1028.7 432.9L1030 561.1L1031.3 294.2L1032.7 647L1034 450.2L1035.3 617L1036.7 361.6L1038 678L1039.3 673.5L1040.7 656.5L1042 519.7L1043.3 612.8L1044.7 543.8L1046 673.2L1047.3 553.4L1048.7 687.3L1050 594.7L1051.3 701.9L1052.7 584.1L1054 684.4L1055.3 593.1L1056.7 521L1058 584.7L1059.3 685.2L1060.7 618.9L1062 721.5L1063.3 585.2L1064.7 717L1066 710.4L1067.3 694.7L1068.7 671.9L1070 712.8L1071.3 624.2L1072.7 707.7L1074 687.6L1075.3 735.6L1076.7 653.6L1078 730.8L1079.3 661.8L1080.7 726.6L1082 728.9L1083.3 741.2L1084.7 692.6L1086 720.2L1087.3 671.9L1088.7 717.3L1090 677L1091.3 746.2L1092.7 730.8L1094 761L1095.3 757.3L1096.7 767.7L1098 747L1099.3 709.6L1100.7 -41L1102 384.9L1103.3 537.2L1104.7 593.9L1106 268.5L1107.3 624.4L1108.7 456.6L1110 608L1111.3 298.5L1112.7 636.1L1114 449.7L1115.3 642L1116.7 382L1118 645.7L1119.3 654.4L1120.7 659.7L1122 541.4L1123.3 678L1124.7 441.7L1126 640.9L1127.3 576.2L1128.7 674.8L1130 587.3L1131.3 648.1L1132.7 568.5L1134 651.2L1135.3 598.7L1136.7 662.1L1138 596.9L1139.3 642.7L1140.7 537.4L1142 689.4L1143.3 577.2L1144.7 713L1146 679.6L1147.3 711.4L1148.7 656L1150 713.8L1151.3 661.3L1152.7 661L1154 604.3L1155.3 734.3L1156.7 673L1158 726L1159.3 656.3L1160.7 726.8L1162 736.4L1163.3 741.4L1164.7 709.1L1166 729.7L1167.3 672.5L1168.7 743L1170 705.3L1171.3 749.6L1172.7 750.7L1174 756.5L1175.3 723.4L1176.7 760.8L1178 754.1L1179.3 594.5L1180.7 13.1L1182 278.6L1183.3 540.6L1184.7 561.6L1186 314.4L1187.3 623.7L1188.7 413.8L1190 530.6L1191.3 454.2L1192.7 604L1194 478.3L1195.3 648.6L1196.7 298.5L1198 657.6L1199.3 661L1200.7 651.2L1202 533.2L1203.3 676.4L1204.7 526.6L1206 625.2L1207.3 548.1L1208.7 647.8L1210 527.1L1211.3 681.2L1212.7 599.8L1214 646.2L1215.3 575.1L1216.7 666.9L1218 603L1219.3 662.4L1220.7 608L1222 660.8L1223.3 570.9L1224.7 632.7L1226 695.5L1227.3 732.1L1228.7 655.7L1230 682.8L1231.3 627.1L1232.7 705.6L1234 644.9L1235.3 698.4L1236.7 678.6L1238 727.4L1239.3 638.5L1240.7 734.3L1242 712.2L1243.3 740.9L1244.7 706.4L1246 737.4L1247.3 682.3L1248.7 700.8L1250 708.5L1251.3 733.5L1252.7 740.1L1254 771.9L1255.3 701.4L1256.7 754.7L1258 768.5L1259.3 506.7L1260.7 -12.9L1262 435.1L1263.3 499.8L1264.7 509.9L1266 -552.7L1267.3 -49L1268.7 -103.9L1270 442.5L1271.3 155.2L1272.7 536.9L1274 348.6L1275.3 585.5L1276.7 332.9L1278 645.1L1279.3 661.8L1280.7 631.3L1282 453.9L1283.3 665L1284.7 542L1286 668.2L1287.3 575.1L1288.7 650.2L1290 584.7L1291.3 657.1L1292.7 590.5L1294 672.5L1295.3 531.1L1296.7 669L1298 603.8L1299.3 687.3L1300.7 582.3L1302 701.4L1303.3 609.6L1304.7 713.8L1306 656.8L1307.3 701.6L1308.7 650.7L1310 661L1311.3 587.3L1312.7 708.8L1314 678.6L1315.3 722.3L1316.7 685.2L1318 738.2L1319.3 655.7L1320.7 726L1322 703L1323.3 405.4L1324.7 664.2L1326 726.8L1327.3 702.4L1328.7 757.6L1330 691.8L1331.3 746.7L1332.7 712.5L1334 756.5L1335.3 752L1336.7 761.3L1338 709.1L1339.3 690.5L1340.7 -70.2L1342 405.1L1343.3 532.7L1344.7 617.5L1346 330.3L1347.3 613.8L1348.7 259.2L1350 599.8L1351.3 425.3L1352.7 623.7L1354 450.4L1355.3 627.6L1356.7 376.4L1358 644.3L1359.3 664.8L1360.7 445.4L1362 394.5L1363.3 652L1364.7 541.2L1366 660.5L1367.3 569L1368.7 640.1L1370 547.5L1371.3 685.5L1372.7 465.3L1374 506.4L1375.3 484.7L1376.7 675.4L1378 598.2L1379.3 698.4L1380.7 571.1L1382 689.4L1383.3 580.7L1384.7 678.6L1386 700.8L1387.3 716.5L1388.7 373.5L1390 702.4L1391.3 640.1L1392.7 685.2L1394 616.8L1395.3 719.7L1396.7 692.3L1398 739L1399.3 625L1400.7 682.8L1402 707.2L1403.3 684.1L1404.7 707.7L1406 671.9L1407.3 722.1L1408.7 737.7L1410 690.5L1411.3 733.2L1412.7 718.6L1414 747L1415.3 528.7L1416.7 770.1L1418 739L1419.3 731.3L1420.7 -10.8L1422 402.7L1423.3 558.4L1424.7 577.2L1426 319.4L1427.3 570.1L1428.7 347L1430 612L1431.3 407L1432.7 640.1L1434 463.2L1435.3 634.8L1436.7 353.9L1438 635.9L1439.3 664.8L1440.7 634.8L1442 483.1L1443.3 660.3L1444.7 529.8L1446 644.9L1447.3 558.7L1448.7 665L1450 578L1451.3 676.2L1452.7 547.8L1454 652.6L1455.3 585.7L1456.7 622.1L1458 560L1459.3 697.4L1460.7 597.4L1462 707.5L1463.3 571.1L1464.7 706.1L1466 689.4L1467.3 709.6L1468.7 574.3L1470 707.5L1471.3 672.5L1472.7 735.3L1474 655.5L1475.3 718.9L1476.7 675.4L1478 721.5L1479.3 627.1L1480.7 739.6L1482 563.7L1483.3 714.6L1484.7 691.6L1486 736.4L1487.3 712.5L1488.7 735.8L1490 705.9L1491.3 751L1492.7 728.2L1494 749.1L1495.3 717L1496.7 732.1L1498 733.5L1499.3 706.7L1500.7 -83.2L1502 434.3L1503.3 566.9L1504.7 578.8L1506 346.7L1507.3 574.3L1508.7 429.5L1510 623.7L1511.3 486L1512.7 625.5L1514 495.5L1515.3 645.9L1516.7 357.6L1518 634.8L1519.3 669.8L1520.7 580.7L1522 533.2L1523.3 669.8L1524.7 562.1L1526 678.8L1527.3 553.4L1528.7 687.3L1530 570.9L1531.3 680.4L1532.7 578L1534 657.6L1535.3 545.7L1536.7 686L1538 583.3L1539.3 706.9L1540.7 609.6L1542 701.6L1543.3 617.5L1544.7 720.5L1546 701.4L1547.3 669L1548.7 592.6L1550 715.2L1551.3 662.9L1552.7 662.4L1554 648.1L1555.3 721L1556.7 708.3L1558 721L1559.3 630.5L1560.7 777.5L1562 772.4L1563.3 736.4L1564.7 699.2L1566 710.1L1567.3 679.6L1568.7 755.5L1570 694.2L1571.3 754.7L1572.7 705.9L1574 731.3L1575.3 745.4L1576.7 769.5L1578 728.9L1579.3 711.4L1580.7 -339.2L1582 431.6L1583.3 485.5L1584.7 143.6L1586 -364.6L1587.3 143.8L1588.7 -250.6L1590 328.7L1591.3 133.2L1592.7 572.2L1594 331.9L1595.3 617.5L1596.7 268L1598 641.4L1599.3 572.7L1600.7 633.2L1602 515.4L1603.3 661.8L1604.7 524.2L1606 590.2L1607.3 560.8L1608.7 676.4L1610 578L1611.3 653.1L1612.7 470.9L1614 654.9L1615.3 616.5L1616.7 652.6L1618 593.4L1619.3 685.2L1620.7 615.2L1622 670.3L1623.3 579.6L1624.7 694.2L1626 663.2L1627.3 640.9L1628.7 647.5L1630 693.7L1631.3 516.8L1632.7 710.1L1634 654.2L1635.3 720.7L1636.7 640.1L1638 734.3L1639.3 548.3L1640.7 721.8L1642 733.7L1643.3 750.2L1644.7 707.7L1646 759.7L1647.3 702.4L1648.7 741.2L1650 706.7L1651.3 723.1L1652.7 749.6L1654 764.2L1655.3 719.4L1656.7 777.2L1658 728.4L1659.3 717.8L1660.7 -58.8L1662 439L1663.3 544.1L1664.7 586.3L1666 142L1667.3 590L1668.7 423.7L1670 606.7L1671.3 416L1672.7 626L1674 487.8L1675.3 651L1676.7 373.8L1678 658.1L1679.3 595.5L1680.7 499.8L1682 510.4L1683.3 652.8L1684.7 550.4L1686 649.1L1687.3 568L1688.7 667.7L1690 574.8L1691.3 626.8L1692.7 427.9L1694 644.6L1695.3 574.1L1696.7 695.3L1698 597.9L1699.3 710.4L1700.7 603L1702 682.8L1703.3 604.6L1704.7 718.9L1706 682.8L1707.3 665.3L1708.7 631.3L1710 718.9L1711.3 658.7L1712.7 709.3L1714 692.6L1715.3 722.1L1716.7 670.3L1718 680.4L1719.3 575.4L1720.7 712.8L1722 669.8L1723.3 749.6L1724.7 686L1726 719.9L1727.3 690.8L1728.7 761.3L1730 709.3L1731.3 733.7L1732.7 706.7L1734 549.9L1735.3 707.7L1736.7 765.8L1738 739.8L1739.3 630.8L1740.7 -33.1L1742 411.7L1743.3 581.5L1744.7 595.3L1746 284.1L1747.3 652L1748.7 446.7L1750 585.2L1751.3 431.4L1752.7 630.5L1754 434.5L1755.3 642.2L1756.7 365L1758 286.8L1759.3 618.1L1760.7 671.1L1762 510.7L1763.3 661.3L1764.7 560.8L1766 678.6L1767.3 550.7L1768.7 677.8L1770 557.3L1771.3 672.2L1772.7 517.8L1774 627.6L1775.3 603.5L1776.7 671.7L1778 599.5L1779.3 687.3L1780.7 603L1782 693.7L1783.3 564.8L1784.7 711.7L1786 651.8L1787.3 678.3L1788.7 630.3L1790 724.4L1791.3 656.5L1792.7 664.5L1794 652.3L1795.3 721L1796.7 684.1L1798 717.8L1799.3 656.8" fill="transparent" stroke="#626c91" stroke-width="3" stroke-linejoin="bevel" class="zr34-cls-104"></path>
</g>
<path d="M-218.5 -5l437 0l0 28l-437 0Z" transform="translate(1000 5)" fill="rgb(0,0,0)" fill-opacity="0" stroke="#ccc" stroke-width="0" class="zr34-cls-102"></path>
<text dominant-baseline="central" text-anchor="middle" style="font-size:18px;font-family:sans-serif;font-weight:bold;" xml:space="preserve" y="9" transform="translate(1000 5)" fill="#666666">transportLinesUpdate per Tick for bench_1_every_60</text>
<defs >
<clipPath id="zr34-c0">
<path d="M198 58.5l16004 0l0 8703l-16004 0Z" fill="#000" class="zr34-cls-103"></path>
</clipPath>
<clipPath id="zr34-c1">
<path d="M198 58.5l16004 0l0 8703l-16004 0Z" fill="#000" class="zr34-cls-103"></path>
</clipPath>
<clipPath id="zr34-c2">
<path d="M198 58.5l16004 0l0 8703l-16004 0Z" fill="#000" class="zr34-cls-103"></path>
</clipPath>
</defs>
<style ><![CDATA[
.zr34-cls-102:hover {
pointer-events:none;
}
.zr34-cls-103:hover {
cursor:pointer;
fill:rgba(0,0,0,1);
}
.zr34-cls-104:hover {
cursor:pointer;
}

]]>

</style>
</svg>