<svg width="2000" height="1000" xmlns="http://www.w3.org/2000/svg" xmlns:xlink="http://www.w3.org/1999/xlink" version="1.1" baseProfile="full" viewBox="0 0 2000 1000">
<rect width="2000" height="1000" x="0" y="0" fill="rgb(252,252,252)" fill-opacity="0"></rect>
<path d="M200 930.5L1800 930.5" fill="transparent" stroke="#eeeeee" class="zr26-cls-78"></path>
<path d="M200 797.5L1800 797.5" fill="transparent" stroke="#eeeeee" class="zr26-cls-78"></path>
<path d="M200 665.5L1800 665.5" fill="transparent" stroke="#eeeeee" class="zr26-cls-78"></path>
<path d="M200 532.5L1800 532.5" fill="transparent" stroke="#eeeeee" class="zr26-cls-78"></path>
<path d="M200 399.5L1800 399.5" fill="transparent" stroke="#eeeeee" class="zr26-cls-78"></path>
<path d="M200 267.5L1800 267.5" fill="transparent" stroke="#eeeeee" class="zr26-cls-78"></path>
<path d="M200 134.5L1800 134.5" fill="transparent" stroke="#eeeeee" class="zr26-cls-78"></path>
<path d="M200 60.5L1800 60.5" fill="transparent" stroke="#eeeeee" class="zr26-cls-78"></path>
<path d="M200.5 930L200.5 60" fill="transparent" stroke="#cccccc" stroke-linecap="round" class="zr26-cls-78"></path>
<text dominant-baseline="central" text-anchor="middle" style="font-size:12px;font-family:sans-serif;" xml:space="preserve" y="-6" transform="translate(200 45)" fill="#cccccc">transportLinesUpdate Time (ms)</text>
<path d="M200 930.5L1800 930.5" fill="transparent" stroke="#cccccc" stroke-linecap="round" class="zr26-cls-78"></path>
<text dominant-baseline="central" text-anchor="end" style="font-size:12px;font-family:sans-serif;" transform="translate(192 930)" fill="#999999">0.000</text>
<text dominant-baseline="central" text-anchor="end" style="font-size:12px;font-family:sans-serif;" transform="translate(192 797.381)" fill="#999999">0.050</text>
<text dominant-baseline="central" text-anchor="end" style="font-size:12px;font-family:sans-serif;" transform="translate(192 664.762)" fill="#999999">0.100</text>
<text dominant-baseline="central" text-anchor="end" style="font-size:12px;font-family:sans-serif;" transform="translate(192 532.1431)" fill="#999999">0.150</text>
<text dominant-baseline="central" text-anchor="end" style="font-size:12px;font-family:sans-serif;" transform="translate(192 399.5241)" fill="#999999">0.200</text>
<text dominant-baseline="central" text-anchor="end" style="font-size:12px;font-family:sans-serif;" transform="translate(192 266.9051)" fill="#999999">0.250</text>
<text dominant-baseline="central" text-anchor="end" style="font-size:12px;font-family:sans-serif;" transform="translate(192 134.2861)" fill="#999999">0.300</text>
<text dominant-baseline="central" text-anchor="end" style="font-size:12px;font-family:sans-serif;" transform="translate(192 60)" fill="#999999">0.328</text>
<text dominant-baseline="central" text-anchor="middle" style="font-size:12px;font-family:sans-serif;" y="6" transform="translate(200.6667 938)" fill="#999999">0</text>
<text dominant-baseline="central" text-anchor="middle" style="font-size:12px;font-family:sans-serif;" y="6" transform="translate(236.6667 938)" fill="#999999">27</text>
<text dominant-baseline="central" text-anchor="middle" style="font-size:12px;font-family:sans-serif;" y="6" transform="translate(272.6667 938)" fill="#999999">54</text>
<text dominant-baseline="central" text-anchor="middle" style="font-size:12px;font-family:sans-serif;" y="6" transform="translate(308.6667 938)" fill="#999999">81</text>
<text dominant-baseline="central" text-anchor="middle" style="font-size:12px;font-family:sans-serif;" y="6" transform="translate(344.6667 938)" fill="#999999">108</text>
<text dominant-baseline="central" text-anchor="middle" style="font-size:12px;font-family:sans-serif;" y="6" transform="translate(380.6667 938)" fill="#999999">135</text>
<text dominant-baseline="central" text-anchor="middle" style="font-size:12px;font-family:sans-serif;" y="6" transform="translate(416.6667 938)" fill="#999999">162</text>
<text dominant-baseline="central" text-anchor="middle" style="font-size:12px;font-family:sans-serif;" y="6" transform="translate(452.6667 938)" fill="#999999">189</text>
<text dominant-baseline="central" text-anchor="middle" style="font-size:12px;font-family:sans-serif;" y="6" transform="translate(488.6667 938)" fill="#999999">216</text>
<text dominant-baseline="central" text-anchor="middle" style="font-size:12px;font-family:sans-serif;" y="6" transform="translate(524.6667 938)" fill="#999999">243</text>
<text dominant-baseline="central" text-anchor="middle" style="font-size:12px;font-family:sans-serif;" y="6" transform="translate(560.6667 938)" fill="#999999">270</text>
<text dominant-baseline="central" text-anchor="middle" style="font-size:12px;font-family:sans-serif;" y="6" transform="translate(596.6667 938)" fill="#999999">297</text>
<text dominant-baseline="central" text-anchor="middle" style="font-size:12px;font-family:sans-serif;" y="6" transform="translate(632.6667 938)" fill="#999999">324</text>
<text dominant-baseline="central" text-anchor="middle" style="font-size:12px;font-family:sans-serif;" y="6" transform="translate(668.6667 938)" fill="#999999">351</text>
<text dominant-baseline="central" text-anchor="middle" style="font-size:12px;font-family:sans-serif;" y="6" transform="translate(704.6667 938)" fill="#999999">378</text>
<text dominant-baseline="central" text-anchor="middle" style="font-size:12px;font-family:sans-serif;" y="6" transform="translate(740.6667 938)" fill="#999999">405</text>
<text dominant-baseline="central" text-anchor="middle" style="font-size:12px;font-family:sans-serif;" y="6" transform="translate(776.6667 938)" fill="#999999">432</text>
<text dominant-baseline="central" text-anchor="middle" style="font-size:12px;font-family:sans-serif;" y="6" transform="translate(812.6667 938)" fill="#999999">459</text>
<text dominant-baseline="central" text-anchor="middle" style="font-size:12px;font-family:sans-serif;" y="6" transform="translate(848.6667 938)" fill="#999999">486</text>
<text dominant-baseline="central" text-anchor="middle" style="font-size:12px;font-family:sans-serif;" y="6" transform="translate(884.6667 938)" fill="#999999">513</text>
<text dominant-baseline="central" text-anchor="middle" style="font-size:12px;font-family:sans-serif;" y="6" transform="translate(920.6667 938)" fill="#999999">540</text>
<text dominant-baseline="central" text-anchor="middle" style="font-size:12px;font-family:sans-serif;" y="6" transform="translate(956.6667 938)" fill="#999999">567</text>
<text dominant-baseline="central" text-anchor="middle" style="font-size:12px;font-family:sans-serif;" y="6" transform="translate(992.6667 938)" fill="#999999">594</text>
<text dominant-baseline="central" text-anchor="middle" style="font-size:12px;font-family:sans-serif;" y="6" transform="translate(1028.6667 938)" fill="#999999">621</text>
<text dominant-baseline="central" text-anchor="middle" style="font-size:12px;font-family:sans-serif;" y="6" transform="translate(1064.6667 938)" fill="#999999">648</text>
<text dominant-baseline="central" text-anchor="middle" style="font-size:12px;font-family:sans-serif;" y="6" transform="translate(1100.6667 938)" fill="#999999">675</text>
<text dominant-baseline="central" text-anchor="middle" style="font-size:12px;font-family:sans-serif;" y="6" transform="translate(1136.6667 938)" fill="#999999">702</text>
<text dominant-baseline="central" text-anchor="middle" style="font-size:12px;font-family:sans-serif;" y="6" transform="translate(1172.6667 938)" fill="#999999">729</text>
<text dominant-baseline="central" text-anchor="middle" style="font-size:12px;font-family:sans-serif;" y="6" transform="translate(1208.6667 938)" fill="#999999">756</text>
<text dominant-baseline="central" text-anchor="middle" style="font-size:12px;font-family:sans-serif;" y="6" transform="translate(1244.6667 938)" fill="#999999">783</text>
<text dominant-baseline="central" text-anchor="middle" style="font-size:12px;font-family:sans-serif;" y="6" transform="translate(1280.6667 938)" fill="#999999">810</text>
<text dominant-baseline="central" text-anchor="middle" style="font-size:12px;font-family:sans-serif;" y="6" transform="translate(1316.6667 938)" fill="#999999">837</text>
<text dominant-baseline="central" text-anchor="middle" style="font-size:12px;font-family:sans-serif;" y="6" transform="translate(1352.6667 938)" fill="#999999">864</text>
<text dominant-baseline="central" text-anchor="middle" style="font-size:12px;font-family:sans-serif;" y="6" transform="translate(1388.6667 938)" fill="#999999">891</text>
<text dominant-baseline="central" text-anchor="middle" style="font-size:12px;font-family:sans-serif;" y="6" transform="translate(1424.6667 938)" fill="#999999">918</text>
<text dominant-baseline="central" text-anchor="middle" style="font-size:12px;font-family:sans-serif;" y="6" transform="translate(1460.6667 938)" fill="#999999">945</text>
<text dominant-baseline="central" text-anchor="middle" style="font-size:12px;font-family:sans-serif;" y="6" transform="translate(1496.6667 938)" fill="#999999">972</text>
<text dominant-baseline="central" text-anchor="middle" style="font-size:12px;font-family:sans-serif;" y="6" transform="translate(1532.6667 938)" fill="#999999">999</text>
<text dominant-baseline="central" text-anchor="middle" style="font-size:12px;font-family:sans-serif;" y="6" transform="translate(1568.6667 938)" fill="#999999">1026</text>
<text dominant-baseline="central" text-anchor="middle" style="font-size:12px;font-family:sans-serif;" y="6" transform="translate(1604.6667 938)" fill="#999999">1053</text>
<text dominant-baseline="central" text-anchor="middle" style="font-size:12px;font-family:sans-serif;" y="6" transform="translate(1640.6667 938)" fill="#999999">1080</text>
<text dominant-baseline="central" text-anchor="middle" style="font-size:12px;font-family:sans-serif;" y="6" transform="translate(1676.6667 938)" fill="#999999">1107</text>
<text dominant-baseline="central" text-anchor="middle" style="font-size:12px;font-family:sans-serif;" y="6" transform="translate(1712.6667 938)" fill="#999999">1134</text>
<text dominant-baseline="central" text-anchor="middle" style="font-size:12px;font-family:sans-serif;" y="6" transform="translate(1748.6667 938)" fill="#999999">1161</text>
<text dominant-baseline="central" text-anchor="middle" style="font-size:12px;font-family:sans-serif;" y="6" transform="translate(1784.6667 938)" fill="#999999">1188</text>
<g clip-path="url(#zr26-c0)">
<path d="M200.7 570.1L202 725L203.3 764.2L204.7 750.2L206 469.8L207.3 758.4L208.7 754.9L210 768.7L211.3 739.8L212.7 764L214 742.7L215.3 726.3L216.7 730.8L218 781.7L219.3 764L220.7 782.8L222 722.8L223.3 769.8L224.7 725.8L226 744.3L227.3 758.4L228.7 767.4L230 686.8L231.3 770.6L232.7 722.3L234 728.9L235.3 744.1L236.7 766.9L238 742.2L239.3 758.7L240.7 739.3L242 787.3L243.3 660.5L244.7 707.2L246 706.1L247.3 755.2L248.7 723.9L250 736.4L251.3 736.1L252.7 697.1L254 672.5L255.3 735.8L256.7 721.3L258 776.7L259.3 736.4L260.7 773.5L262 668.5L263.3 753.6L264.7 649.6L266 745.7L267.3 683.3L268.7 467.2L270 653.1L271.3 686.5L272.7 677.2L274 727.9L275.3 700.3L276.7 728.2L278 696.6L279.3 738.2L280.7 721.8L282 723.1L283.3 710.9L284.7 684.4L286 537.2L287.3 699.5L288.7 633.5L290 743L291.3 647L292.7 724.2L294 650.2L295.3 701.1L296.7 616L298 729.5L299.3 666.1L300.7 716.7L302 625.5L303.3 708.8L304.7 660L306 693.9L307.3 549.4L308.7 684.9L310 614.9L311.3 676.4L312.7 602.7L314 704.3L315.3 628.4L316.7 694.5L318 617L319.3 735.8L320.7 605.1L322 730.5L323.3 622.9L324.7 687.3L326 649.4L327.3 726.3L328.7 234.5L330 659.2L331.3 578.6L332.7 687L334 575.4L335.3 704.5L336.7 604.3L338 560L339.3 583.1L340.7 704L342 599L343.3 673.8L344.7 638L346 725L347.3 492.9L348.7 708L350 525L351.3 675.6L352.7 543.3L354 432.4L355.3 525.8L356.7 701.4L358 616.8L359.3 641.7L360.7 508.8L362 683.9L363.3 439.6L364.7 685.5L366 523.4L367.3 695.5L368.7 555L370 683.1L371.3 396.9L372.7 588.4L374 527.1L375.3 619.4L376.7 475.6L378 657.9L379.3 558.9L380.7 619.7L382 517.3L383.3 673.8L384.7 503.2L386 663.4L387.3 580.9L388.7 606.7L390 533.7L391.3 671.7L392.7 480.4L394 635.6L395.3 459.2L396.7 544.1L398 488.9L399.3 624.7L400.7 493.7L402 567.4L403.3 468L404.7 634L406 420.2L407.3 668.2L408.7 531.6L410 659.5L411.3 540.9L412.7 574.6L414 353.6L415.3 608.3L416.7 431.1L418 627.4L419.3 427.4L420.7 568.2L422 449.4L423.3 654.9L424.7 449.1L426 634L427.3 439.8L428.7 667.1L430 429.8L431.3 678L432.7 452.8L434 581.7L435.3 309.1L436.7 617.3L438 368.5L439.3 638.2L440.7 423.1L442 650.7L443.3 433.2L444.7 473.5L446 377L447.3 508L448.7 441.7L450 643.5L451.3 479.1L452.7 652.3L454 261.6L455.3 630.3L456.7 290L458 611.7L459.3 383.9L460.7 552.3L462 395L463.3 647.3L464.7 468.5L466 585.7L467.3 362.4L468.7 610.9L470 369.8L471.3 589.7L472.7 386.8L474 639.8L475.3 424.7L476.7 573.8L478 242L479.3 615.7L480.7 411.5L482 640.9L483.3 355.2L484.7 626.8L486 254.2L487.3 593.1L488.7 377.8L490 606.7L491.3 330L492.7 543.3L494 349.1L495.3 650.4L496.7 413.1L498 681.5L499.3 641.4L500.7 790L502 783.9L503.3 757.9L504.7 791L506 767.4L507.3 788.1L508.7 757.6L510 766.1L511.3 797.1L512.7 782.8L514 796.1L515.3 778.5L516.7 773L518 760L519.3 675.4L520.7 715.2L522 718.9L523.3 654.7L524.7 764L526 776.2L527.3 794.5L528.7 740.6L530 747.5L531.3 737.2L532.7 791L534 743L535.3 767.7L536.7 762.9L538 777.5L539.3 755.7L540.7 765.8L542 715.4L543.3 745.4L544.7 730.3L546 763.7L547.3 728.7L548.7 784.4L550 747.8L551.3 741.4L552.7 787.8L554 721L555.3 718.3L556.7 721L558 729.2L559.3 780.7L560.7 743.5L562 712.2L563.3 657.6L564.7 734.3L566 695.5L567.3 772.7L568.7 714.4L570 667.9L571.3 686.8L572.7 699.2L574 692.3L575.3 764.2L576.7 718.6L578 780.7L579.3 702.2L580.7 737.7L582 625.2L583.3 709.1L584.7 616.5L586 728.4L587.3 672.5L588.7 650.2L590 656.5L591.3 741.7L592.7 678.3L594 715.4L595.3 680.4L596.7 732.1L598 669.5L599.3 761.3L600.7 699.5L602 729.5L603.3 649.6L604.7 735.6L606 605.9L607.3 700.3L608.7 695.8L610 719.1L611.3 626L612.7 721.3L614 649.9L615.3 633.5L616.7 628.7L618 663.2L619.3 631.9L620.7 688.9L622 654.4L623.3 755.5L624.7 559.5L626 704.5L627.3 570.1L628.7 680.9L630 622.6L631.3 642L632.7 634.3L634 648.6L635.3 521.5L636.7 678.3L638 622.1L639.3 658.1L640.7 610.4L642 717.5L643.3 603.5L644.7 706.7L646 635.6L647.3 709.3L648.7 372.7L650 690.2L651.3 582.3L652.7 709.3L654 582.5L655.3 698.2L656.7 573.5L658 639L659.3 609.3L660.7 674L662 594.2L663.3 693.7L664.7 596.6L666 701.1L667.3 564.2L668.7 705.6L670 525.5L671.3 670.3L672.7 565.3L674 583.1L675.3 533.2L676.7 674.6L678 600L679.3 634.3L680.7 522.3L682 678.6L683.3 545.7L684.7 658.1L686 568.5L687.3 666.6L688.7 582.8L690 706.7L691.3 353.4L692.7 667.4L694 539.6L695.3 645.9L696.7 542.8L698 668.2L699.3 588.6L700.7 661.8L702 471.7L703.3 655.7L704.7 539.6L706 715.7L707.3 571.4L708.7 646.2L710 539L711.3 690.5L712.7 416.5L714 614.6L715.3 344.9L716.7 601.1L718 496.6L719.3 660.5L720.7 522.6L722 634.8L723.3 451.8L724.7 626.8L726 481.2L727.3 686.2L728.7 454.2L730 676.2L731.3 535.1L732.7 358.7L734 352.6L735.3 646.5L736.7 435.3L738 635.9L739.3 456L740.7 626.6L742 416.8L743.3 585.5L744.7 451.2L746 638.5L747.3 441.2L748.7 607.7L750 402.2L751.3 665.8L752.7 477.2L754 658.7L755.3 379.4L756.7 204L758 361.1L759.3 609.1L760.7 451.5L762 643.5L763.3 411.2L764.7 630L766 414.6L767.3 606.1L768.7 427.6L770 658.4L771.3 438L772.7 679.1L774 170.4L775.3 616.2L776.7 349.4L778 633.7L779.3 386.8L780.7 512L782 366.1L783.3 641.4L784.7 428.4L786 587.3L787.3 406.4L788.7 278.3L790 372.7L791.3 610.9L792.7 410.9L794 603L795.3 422.1L796.7 647.5L798 255.8L799.3 606.9L800.7 359.5L802 636.6L803.3 372.5L804.7 603.5L806 416.2L807.3 546.2L808.7 340.1L810 605.6L811.3 403.5L812.7 669.3L814 407.7L815.3 601.4L816.7 396.3L818 616.2L819.3 623.9L820.7 795L822 783.9L823.3 783.3L824.7 819.7L826 767.9L827.3 796.9L828.7 792.9L830 800.8L831.3 803L832.7 800.8L834 780.4L835.3 767.1L836.7 754.9L838 769.8L839.3 715.4L840.7 741.2L842 734L843.3 741.2L844.7 741.4L846 756.3L847.3 788.6L848.7 760.2L850 749.1L851.3 586.5L852.7 752.6L854 778L855.3 770.1L856.7 769.3L858 762.6L859.3 787L860.7 523.1L862 709.9L863.3 715.7L864.7 734.8L866 732.9L867.3 749.9L868.7 767.4L870 731.6L871.3 723.9L872.7 674.3L874 722.1L875.3 700.8L876.7 767.1L878 680.4L879.3 747.8L880.7 729.7L882 773.5L883.3 568.2L884.7 729.7L886 608.3L887.3 737.2L888.7 642.5L890 740.4L891.3 705.3L892.7 755.5L894 638.8L895.3 717.8L896.7 691L898 750.4L899.3 710.9L900.7 775.9L902 709.6L903.3 743.3L904.7 604L906 721L907.3 647.3L908.7 739.8L910 653.4L911.3 616.5L912.7 585.5L914 723.1L915.3 552L916.7 728.9L918 657.3L919.3 706.7L920.7 652.3L922 747.3L923.3 679.6L924.7 724.7L926 598.7L927.3 731.1L928.7 641.2L930 721.8L931.3 680.7L932.7 717L934 687.8L935.3 692.3L936.7 538L938 718.3L939.3 646.2L940.7 748.8L942 650.7L943.3 725.5L944.7 669.5L946 658.9L947.3 576.7L948.7 708.3L950 603.2L951.3 701.1L952.7 608.3L954 696.3L955.3 539.8L956.7 675.6L958 578.8L959.3 736.9L960.7 628.4L962 717L963.3 532.9L964.7 744.9L966 618.3L967.3 696.9L968.7 555.7L970 600.6L971.3 471.7L972.7 702.2L974 600.8L975.3 714.6L976.7 639L978 684.7L979.3 487.6L980.7 676.4L982 540.6L983.3 675.4L984.7 625L986 714.9L987.3 626.8L988.7 587.8L990 477.5L991.3 701.9L992.7 497.1L994 685.2L995.3 556.5L996.7 678.8L998 558.1L999.3 657.9L1000.7 527.9L1002 656.5L1003.3 566.9L1004.7 688.9L1006 409.3L1007.3 644.9L1008.7 573.5L1010 676.7L1011.3 408L1012.7 689.2L1014 432.4L1015.3 686.8L1016.7 533.5L1018 701.1L1019.3 573.3L1020.7 635.1L1022 514.9L1023.3 674.6L1024.7 521.5L1026 670.3L1027.3 561.6L1028.7 688.6L1030 559.5L1031.3 693.4L1032.7 403.5L1034 647.3L1035.3 470.1L1036.7 667.7L1038 538.8L1039.3 682.3L1040.7 436.9L1042 657.1L1043.3 513.8L1044.7 665.3L1046 456.3L1047.3 670.3L1048.7 407.5L1050 683.9L1051.3 518.9L1052.7 637.2L1054 408.3L1055.3 624.2L1056.7 377.2L1058 649.9L1059.3 465L1060.7 661.6L1062 482.3L1063.3 635.1L1064.7 292.9L1066 651.2L1067.3 474.1L1068.7 630.3L1070 473.8L1071.3 674.8L1072.7 498.2L1074 603.8L1075.3 370.1L1076.7 669.3L1078 369L1079.3 641.7L1080.7 448.1L1082 580.4L1083.3 271.1L1084.7 612.5L1086 337.7L1087.3 633.7L1088.7 396.3L1090 588.4L1091.3 436.9L1092.7 642L1094 440.6L1095.3 629.2L1096.7 349.4L1098 585.7L1099.3 384.7L1100.7 589.4L1102 425.8L1103.3 625.5L1104.7 430.6L1106 323.9L1107.3 296.6L1108.7 610.4L1110 387.1L1111.3 658.7L1112.7 416.5L1114 635.9L1115.3 204.6L1116.7 614.9L1118 330.6L1119.3 600.3L1120.7 384.4L1122 574.6L1123.3 262.7L1124.7 610.4L1126 367.2L1127.3 611.4L1128.7 378.6L1130 614.9L1131.3 337.7L1132.7 632.4L1134 391L1135.3 641.2L1136.7 446.5L1138 620.2L1139.3 519.7L1140.7 765.6L1142 793.1L1143.3 751.5L1144.7 830.8L1146 772.4L1147.3 804.3L1148.7 743.5L1150 754.1L1151.3 790.5L1152.7 793.7L1154 777.8L1155.3 821.5L1156.7 797.1L1158 751.8L1159.3 795.8L1160.7 729.2L1162 794.2L1163.3 752.8L1164.7 774L1166 757.1L1167.3 405.6L1168.7 750.2L1170 734.5L1171.3 744.6L1172.7 777L1174 753.1L1175.3 780.9L1176.7 693.4L1178 761.6L1179.3 736.9L1180.7 796.1L1182 695.5L1183.3 760.2L1184.7 706.1L1186 740.4L1187.3 737.2L1188.7 732.1L1190 749.1L1191.3 697.4L1192.7 699L1194 742.2L1195.3 751.5L1196.7 770.3L1198 710.6L1199.3 813.8L1200.7 755.5L1202 742.7L1203.3 606.9L1204.7 714.1L1206 718.3L1207.3 750.2L1208.7 719.7L1210 743.5L1211.3 733.7L1212.7 722.6L1214 699.2L1215.3 783.6L1216.7 699L1218 741.4L1219.3 725L1220.7 724.2L1222 705.1L1223.3 730.3L1224.7 600.8L1226 739L1227.3 673.5L1228.7 745.7L1230 707.2L1231.3 747.3L1232.7 693.1L1234 723.4L1235.3 688.9L1236.7 752.3L1238 655.5L1239.3 734.8L1240.7 681.5L1242 765L1243.3 703L1244.7 748L1246 588.6L1247.3 684.4L1248.7 620.5L1250 701.9L1251.3 618.9L1252.7 703L1254 647.8L1255.3 693.9L1256.7 607.7L1258 720.7L1259.3 636.6L1260.7 693.1L1262 683.6L1263.3 745.9L1264.7 564.5L1266 721.3L1267.3 591.6L1268.7 652.6L1270 632.7L1271.3 660.8L1272.7 630L1274 679.4L1275.3 608.5L1276.7 704L1278 632.1L1279.3 691.3L1280.7 285.2L1282 738L1283.3 651.2L1284.7 722.6L1286 616.5L1287.3 703.8L1288.7 334.3L1290 684.4L1291.3 530.6L1292.7 705.3L1294 540.1L1295.3 669.5L1296.7 602.4L1298 673.5L1299.3 566.4L1300.7 706.7L1302 553.1L1303.3 698.4L1304.7 590L1306 625L1307.3 566.6L1308.7 713.3L1310 517L1311.3 641.7L1312.7 556.3L1314 662.4L1315.3 562.6L1316.7 660.5L1318 553.4L1319.3 646.2L1320.7 576.4L1322 595.5L1323.3 556L1324.7 689.2L1326 539.3L1327.3 700.8L1328.7 569.8L1330 657.3L1331.3 486.8L1332.7 680.9L1334 528.2L1335.3 692.3L1336.7 549.9L1338 661.6L1339.3 566.6L1340.7 654.9L1342 500.8L1343.3 669.3L1344.7 543.3L1346 659.2L1347.3 312.3L1348.7 617.8L1350 547L1351.3 653.6L1352.7 467.7L1354 584.7L1355.3 279.1L1356.7 670.1L1358 516L1359.3 653.4L1360.7 502.7L1362 653.6L1363.3 390.5L1364.7 613L1366 470.9L1367.3 691.3L1368.7 506.1L1370 688.9L1371.3 519.7L1372.7 619.1L1374 397.1L1375.3 595.8L1376.7 429.5L1378 631.6L1379.3 466.1L1380.7 596.3L1382 403.2L1383.3 630.3L1384.7 475.1L1386 606.4L1387.3 483.9L1388.7 629.5L1390 374.1L1391.3 664.5L1392.7 497.7L1394 637.7L1395.3 182.8L1396.7 534L1398 418.4L1399.3 622.1L1400.7 406.4L1402 616.8L1403.3 487.1L1404.7 496.1L1406 371.7L1407.3 621.8L1408.7 412L1410 639.3L1411.3 328.2L1412.7 509.1L1414 376.2L1415.3 604.6L1416.7 300.1L1418 611.7L1419.3 400.3L1420.7 583.6L1422 334.3L1423.3 639.3L1424.7 397.7L1426 595.3L1427.3 370.1L1428.7 622.1L1430 295.8L1431.3 645.1L1432.7 370.3L1434 675.4L1435.3 431.6L1436.7 605.9L1438 156.3L1439.3 607.2L1440.7 358.4L1442 575.1L1443.3 370.1L1444.7 635.3L1446 416.2L1447.3 542.5L1448.7 349.1L1450 660.5L1451.3 390L1452.7 603.2L1454 381L1455.3 495L1456.7 343.3L1458 604L1459.3 614.6L1460.7 818.3L1462 742.2L1463.3 757.3L1464.7 818.9L1466 793.9L1467.3 777.2L1468.7 764.8L1470 800.6L1471.3 775.6L1472.7 764.8L1474 661.8L1475.3 810.6L1476.7 740.6L1478 772.2L1479.3 799.8L1480.7 762.1L1482 729.7L1483.3 737.7L1484.7 786.5L1486 789.4L1487.3 803.2L1488.7 791.3L1490 728.4L1491.3 752.3L1492.7 750.7L1494 740.9L1495.3 817L1496.7 780.9L1498 785.4L1499.3 775.6L1500.7 782.3L1502 692.3L1503.3 748L1504.7 696.3L1506 754.4L1507.3 565.3L1508.7 736.4L1510 756.5L1511.3 709.9L1512.7 706.4L1514 731.6L1515.3 747L1516.7 756.8L1518 762.4L1519.3 774.3L1520.7 757.9L1522 775.4L1523.3 663.7L1524.7 597.9L1526 691L1527.3 736.9L1528.7 697.7L1530 727.9L1531.3 709.6L1532.7 717L1534 676.4L1535.3 741.9L1536.7 700.6L1538 773L1539.3 730.5L1540.7 771.9L1542 710.4L1543.3 733.7L1544.7 642L1546 719.4L1547.3 687.3L1548.7 768.7L1550 681.2L1551.3 711.2L1552.7 702.4L1554 714.9L1555.3 670.3L1556.7 742.2L1558 676.2L1559.3 741.9L1560.7 653.6L1562 703.8L1563.3 730.3L1564.7 756.5L1566 663.7L1567.3 575.9L1568.7 681.5L1570 575.4L1571.3 654.2L1572.7 729.2L1574 634L1575.3 694.7L1576.7 613.8L1578 693.1L1579.3 675.1L1580.7 752.6L1582 663.2L1583.3 735.8L1584.7 677.2L1586 618.1L1587.3 571.9L1588.7 704.3L1590 619.4L1591.3 699.5L1592.7 647.5L1594 693.1L1595.3 558.1L1596.7 663.2L1598 591.8L1599.3 701.4L1600.7 643.5L1602 734.3L1603.3 544.3L1604.7 721L1606 641.7L1607.3 687.8L1608.7 518.1L1610 696.6L1611.3 508.8L1612.7 678L1614 600.3L1615.3 687.3L1616.7 572.5L1618 693.4L1619.3 558.4L1620.7 673L1622 522.9L1623.3 692.9L1624.7 571.1L1626 750.4L1627.3 599L1628.7 578.8L1630 515.2L1631.3 661.3L1632.7 565.8L1634 696.1L1635.3 537.2L1636.7 485.7L1638 503.2L1639.3 632.7L1640.7 500.8L1642 679.1L1643.3 546.2L1644.7 666.4L1646 499L1647.3 718.3L1648.7 588.6L1650 688.1L1651.3 453.4L1652.7 452.3L1654 491L1655.3 681.2L1656.7 546.7L1658 653.1L1659.3 574.1L1660.7 666.4L1662 461.6L1663.3 699.5L1664.7 514.4L1666 684.1L1667.3 551.5L1668.7 697.7L1670 572.2L1671.3 559.7L1672.7 430.6L1674 654.4L1675.3 512.5L1676.7 577.2L1678 539.3L1679.3 633.2L1680.7 504L1682 650.4L1683.3 485.2L1684.7 670.3L1686 506.9L1687.3 645.7L1688.7 545.7L1690 688.6L1691.3 437.2L1692.7 690.2L1694 374.9L1695.3 571.9L1696.7 438L1698 659.7L1699.3 467.2L1700.7 634.5L1702 469.8L1703.3 619.4L1704.7 409.3L1706 663.7L1707.3 491.6L1708.7 682.5L1710 493.7L1711.3 686.2L1712.7 345.9L1714 671.1L1715.3 353.9L1716.7 611.2L1718 405.9L1719.3 592.4L1720.7 429.8L1722 654.9L1723.3 495.3L1724.7 648.3L1726 453.1L1727.3 669.3L1728.7 400.6L1730 637.2L1731.3 354.4L1732.7 642L1734 461.6L1735.3 612L1736.7 20.2L1738 614.1L1739.3 362.9L1740.7 615.7L1742 401.4L1743.3 606.4L1744.7 435.1L1746 585.2L1747.3 337.7L1748.7 605.9L1750 354.2L1751.3 653.1L1752.7 243.3L1754 593.1L1755.3 393.7L1756.7 612.5L1758 86.5L1759.3 484.9L1760.7 346.7L1762 567.4L1763.3 315.4L1764.7 540.9L1766 416.2L1767.3 593.1L1768.7 292.1L1770 605.6L1771.3 366.4L1772.7 602.4L1774 410.4L1775.3 642.2L1776.7 438.8L1778 615.2L1779.3 639.3L1780.7 751.8L1782 762.4L1783.3 785.7L1784.7 779.6L1786 765.3L1787.3 785.2L1788.7 773.2L1790 773L1791.3 766.1L1792.7 783.1L1794 744.6L1795.3 746.7L1796.7 771.1L1798 804L1799.3 796.1" fill="transparent" stroke="#3fb1e3" stroke-width="3" stroke-linejoin="bevel" class="zr26-cls-80"></path>
</g>
<g clip-path="url(#zr26-c1)">
<path d="M200.7 539L202 729.5L203.3 742.5L204.7 782L206 744.1L207.3 747.8L208.7 769.5L210 788.4L211.3 763.4L212.7 694.5L214 752.3L215.3 770.1L216.7 614.1L218 707.2L219.3 759.7L220.7 770.1L222 675.9L223.3 739.8L224.7 597.4L226 766.3L227.3 718.6L228.7 779.9L230 737.7L231.3 718.1L232.7 687.6L234 728.4L235.3 718.3L236.7 768.5L238 731.1L239.3 776.7L240.7 743.8L242 729.2L243.3 650.7L244.7 740.1L246 696.1L247.3 717L248.7 631.9L250 696.9L251.3 717.8L252.7 714.4L254 715.7L255.3 719.9L256.7 627.6L258 757.3L259.3 677.2L260.7 768.5L262 699L263.3 739.3L264.7 632.1L266 682.8L267.3 609.3L268.7 684.4L270 706.1L271.3 734.8L272.7 691L274 401.9L275.3 621.8L276.7 730.8L278 666.6L279.3 745.7L280.7 649.4L282 726.8L283.3 529.2L284.7 640.6L286 539.6L287.3 697.1L288.7 590.5L290 699.2L291.3 605.6L292.7 724.2L294 612L295.3 678.3L296.7 623.7L298 494.5L299.3 626.6L300.7 726.6L302 630.8L303.3 709.9L304.7 628.7L306 743.5L307.3 500.3L308.7 677.8L310 539.8L311.3 673L312.7 579.4L314 717.3L315.3 515.4L316.7 637.4L318 626.6L319.3 637.4L320.7 603.2L322 705.6L323.3 632.7L324.7 721.8L326 588.9L327.3 709.6L328.7 513.8L330 653.4L331.3 551.2L332.7 710.6L334 461.1L335.3 597.9L336.7 590.8L338 637.7L339.3 560L340.7 705.1L342 502.2L343.3 668.5L344.7 580.7L346 666.9L347.3 636.1L348.7 691.8L350 501.4L351.3 659.7L352.7 436.9L354 708L355.3 578.8L356.7 673L358 543L359.3 603.2L360.7 542.5L362 699.8L363.3 526.3L364.7 665L366 557.9L367.3 227.9L368.7 494.5L370 655.7L371.3 466.4L372.7 654.9L374 513.3L375.3 638L376.7 514.6L378 697.7L379.3 528.2L380.7 616L382 516.5L383.3 622.1L384.7 480.4L386 681.2L387.3 507.5L388.7 655.2L390 549.1L391.3 713.8L392.7 386.8L394 632.4L395.3 486.5L396.7 649.6L398 497.1L399.3 676.4L400.7 436.7L402 619.4L403.3 394L404.7 640.9L406 527.4L407.3 717L408.7 526L410 617.8L411.3 480.4L412.7 654.9L414 312.8L415.3 592.9L416.7 261.9L418 600.6L419.3 360.5L420.7 647L422 414.6L423.3 608.5L424.7 369L426 556L427.3 349.7L428.7 631.1L430 370.9L431.3 647.3L432.7 414.6L434 514.1L435.3 185.5L436.7 555.2L438 255.8L439.3 534L440.7 232.4L442 571.9L443.3 271.4L444.7 549.4L446 226.3L447.3 486L448.7 270.4L450 597.9L451.3 286L452.7 593.7L454 369.8L455.3 501.1L456.7 -100.4L458 562.9L459.3 235.3L460.7 254.7L462 133.5L463.3 588.6L464.7 271.1L466 573.8L467.3 254.2L468.7 573L470 130L471.3 622.9L472.7 252.3L474 608.8L475.3 338.8L476.7 406.4L478 190L479.3 588.6L480.7 347L482 633.2L483.3 352L484.7 573.5L486 286.8L487.3 611.4L488.7 282.8L490 613L491.3 299L492.7 607.2L494 341.7L495.3 574.8L496.7 278.6L498 617.5L499.3 635.3L500.7 776.4L502 755.5L503.3 786.5L504.7 828.9L506 740.1L507.3 782.8L508.7 767.1L510 746.2L511.3 804.5L512.7 807.7L514 777.8L515.3 811.2L516.7 791.3L518 836.4L519.3 779.9L520.7 744.9L522 757.6L523.3 775.9L524.7 745.7L526 747.3L527.3 763.7L528.7 753.9L530 711.4L531.3 747L532.7 754.1L534 707.7L535.3 782.8L536.7 770.3L538 737.4L539.3 718.9L540.7 761L542 725L543.3 712L544.7 754.4L546 743.5L547.3 741.9L548.7 792.9L550 726.8L551.3 751.8L552.7 722.3L554 780.1L555.3 738.8L556.7 762.1L558 712.8L559.3 778L560.7 767.7L562 788.9L563.3 730L564.7 763.2L566 698.7L567.3 741.7L568.7 695L570 723.4L571.3 703L572.7 749.1L574 589.4L575.3 757.6L576.7 743.8L578 711.2L579.3 736.9L580.7 757.9L582 697.4L583.3 706.7L584.7 582L586 700.8L587.3 657.1L588.7 760.2L590 669L591.3 691.6L592.7 696.3L594 688.1L595.3 662.9L596.7 720.7L598 739.3L599.3 681.2L600.7 670.9L602 706.9L603.3 688.1L604.7 749.6L606 627.4L607.3 713.6L608.7 661.8L610 720.7L611.3 633.5L612.7 725.2L614 658.4L615.3 722.8L616.7 578.3L618 696.9L619.3 649.1L620.7 692.3L622 647L623.3 730.3L624.7 679.6L626 564.2L627.3 584.7L628.7 640.9L630 623.4L631.3 700.3L632.7 611.4L634 710.1L635.3 580.4L636.7 647.5L638 658.1L639.3 677.5L640.7 633.5L642 648.6L643.3 558.7L644.7 703.5L646 642.5L647.3 726.3L648.7 540.4L650 697.1L651.3 599.2L652.7 686.5L654 622.6L655.3 703.2L656.7 638.8L658 681.2L659.3 587.3L660.7 588.6L662 625.8L663.3 719.7L664.7 588.1L666 710.4L667.3 621.3L668.7 714.9L670 519.7L671.3 685.5L672.7 562.1L674 683.1L675.3 540.9L676.7 706.4L678 578.8L679.3 643.8L680.7 534.5L682 660.3L683.3 566.4L684.7 675.1L686 571.4L687.3 653.4L688.7 567.4L690 682.3L691.3 467.2L692.7 599.5L694 504.3L695.3 640.6L696.7 505.4L698 699.8L699.3 571.7L700.7 658.9L702 514.1L703.3 613.3L704.7 518.6L706 697.1L707.3 513.8L708.7 698.7L710 539.6L711.3 698.7L712.7 408.8L714 643.5L715.3 487.3L716.7 634.8L718 499.3L719.3 671.4L720.7 537.7L722 626.6L723.3 508.8L724.7 641.4L726 504.6L727.3 649.6L728.7 438.5L730 653.1L731.3 502.4L732.7 672.2L734 350.7L735.3 640.9L736.7 378L738 680.1L739.3 493.2L740.7 649.9L742 506.1L743.3 617.5L744.7 475.9L746 658.1L747.3 431.9L748.7 674.8L750 493.7L751.3 633.5L752.7 451L754 561.6L755.3 275.9L756.7 630.3L758 322.1L759.3 586.5L760.7 473.5L762 632.9L763.3 316.2L764.7 632.1L766 403.8L767.3 651.5L768.7 463.4L770 632.1L771.3 451.2L772.7 658.1L774 457.6L775.3 606.9L776.7 329.5L778 634.8L779.3 394.2L780.7 519.7L782 275.9L783.3 666.1L784.7 392.6L786 598.2L787.3 416.2L788.7 480.7L790 307.5L791.3 612L792.7 395L794 652L795.3 425L796.7 580.7L798 244.9L799.3 627.9L800.7 284.1L802 635.6L803.3 386.3L804.7 640.1L806 188.7L807.3 567.7L808.7 296.1L810 611.4L811.3 368.8L812.7 536.7L814 330L815.3 639.3L816.7 376.2L818 601.1L819.3 582.3L820.7 703.5L822 765.3L823.3 774.6L824.7 811.2L826 792.3L827.3 805.6L828.7 738.5L830 640.6L831.3 729.5L832.7 788.9L834 774.8L835.3 814.4L836.7 794.5L838 780.7L839.3 732.7L840.7 731.6L842 746.7L843.3 747.5L844.7 789.2L846 762.9L847.3 765.8L848.7 760.8L850 760.5L851.3 762.1L852.7 755.2L854 764.5L855.3 798.2L856.7 768.2L858 778.3L859.3 764.2L860.7 764.2L862 687.8L863.3 750.2L864.7 722.6L866 730.5L867.3 676.2L868.7 773.2L870 762.4L871.3 698.2L872.7 714.9L874 725.8L875.3 743.8L876.7 748.3L878 726.3L879.3 788.4L880.7 751.5L882 736.4L883.3 668.5L884.7 753.6L886 700.3L887.3 753.6L888.7 699.8L890 756.3L891.3 712.8L892.7 725.2L894 698.4L895.3 764.8L896.7 704.5L898 745.9L899.3 719.1L900.7 724.4L902 642.2L903.3 700L904.7 647.3L906 712.8L907.3 673.8L908.7 687.6L910 668.2L911.3 666.9L912.7 675.9L914 701.4L915.3 685.2L916.7 715.2L918 662.1L919.3 631.6L920.7 664L922 717L923.3 716L924.7 799.8L926 561.8L927.3 676.4L928.7 641.4L930 716L931.3 653.1L932.7 688.1L934 656.8L935.3 636.6L936.7 633.7L938 669.8L939.3 679.4L940.7 692.3L942 651.2L943.3 510.1L944.7 658.1L946 699.5L947.3 574.8L948.7 685.7L950 601.1L951.3 705.1L952.7 542.8L954 752.8L955.3 640.1L956.7 711.7L958 617.3L959.3 674.8L960.7 574.8L962 700L963.3 624.2L964.7 726.3L966 632.9L967.3 727.6L968.7 545.4L970 602.2L971.3 570.6L972.7 641.4L974 581.2L975.3 697.4L976.7 629.5L978 504.6L979.3 571.7L980.7 696.6L982 599.8L983.3 694.7L984.7 603L986 720.7L987.3 374.9L988.7 697.7L990 509.1L991.3 675.6L992.7 556.3L994 349.7L995.3 542.8L996.7 707.2L998 594.5L999.3 669.5L1000.7 547L1002 668.2L1003.3 545.7L1004.7 680.9L1006 541.2L1007.3 703.5L1008.7 594.2L1010 698.7L1011.3 99L1012.7 648.3L1014 517L1015.3 660.5L1016.7 548.6L1018 677L1019.3 576.2L1020.7 639.3L1022 484.4L1023.3 687L1024.7 526.3L1026 684.1L1027.3 532.1L1028.7 666.6L1030 505.6L1031.3 592.6L1032.7 419.2L1034 657.1L1035.3 510.4L1036.7 596.9L1038 493.7L1039.3 678.6L1040.7 540.6L1042 670.1L1043.3 502.4L1044.7 648.1L1046 426L1047.3 692.3L1048.7 515.4L1050 683.9L1051.3 558.4L1052.7 664.2L1054 276.5L1055.3 640.1L1056.7 449.1L1058 608L1059.3 460.8L1060.7 675.6L1062 467.2L1063.3 596.1L1064.7 455L1066 653.6L1067.3 460.8L1068.7 672.7L1070 510.9L1071.3 609.9L1072.7 514.6L1074 656.8L1075.3 280.7L1076.7 588.4L1078 416.5L1079.3 567.2L1080.7 412L1082 647.8L1083.3 508L1084.7 630.3L1086 477.8L1087.3 592.6L1088.7 342.2L1090 652.8L1091.3 472.5L1092.7 656.8L1094 503.5L1095.3 636.9L1096.7 347.3L1098 630L1099.3 387.9L1100.7 636.6L1102 435.6L1103.3 631.6L1104.7 467.7L1106 569.3L1107.3 370.3L1108.7 604.6L1110 373L1111.3 591.8L1112.7 309.6L1114 625L1115.3 417.8L1116.7 609.3L1118 364.5L1119.3 625.8L1120.7 224.2L1122 609.6L1123.3 408.8L1124.7 641.4L1126 396.6L1127.3 625.2L1128.7 298.5L1130 632.7L1131.3 357.1L1132.7 652.6L1134 412L1135.3 670.1L1136.7 434L1138 557.9L1139.3 617.5L1140.7 790.8L1142 772.7L1143.3 777.5L1144.7 795.5L1146 786.2L1147.3 518.1L1148.7 788.6L1150 786.2L1151.3 782.3L1152.7 779.1L1154 795L1155.3 823.9L1156.7 774.6L1158 789.4L1159.3 770.9L1160.7 717L1162 748.8L1163.3 793.1L1164.7 711.4L1166 775.1L1167.3 734.8L1168.7 752.8L1170 740.9L1171.3 783.1L1172.7 767.7L1174 717.3L1175.3 794.2L1176.7 741.9L1178 789.2L1179.3 739.6L1180.7 787.8L1182 751.8L1183.3 729.5L1184.7 752.6L1186 751L1187.3 753.9L1188.7 770.1L1190 749.1L1191.3 692.9L1192.7 727.9L1194 762.4L1195.3 700L1196.7 754.4L1198 738.2L1199.3 753.4L1200.7 753.9L1202 748.3L1203.3 630.3L1204.7 738.2L1206 705.3L1207.3 761L1208.7 724.2L1210 769.3L1211.3 664.2L1212.7 726L1214 718.6L1215.3 752.6L1216.7 711.4L1218 728.9L1219.3 645.9L1220.7 738.8L1222 714.4L1223.3 766.6L1224.7 595L1226 717L1227.3 641.2L1228.7 749.4L1230 621.5L1231.3 690.2L1232.7 680.4L1234 714.9L1235.3 663.2L1236.7 651.2L1238 677.2L1239.3 712.2L1240.7 652.3L1242 757.3L1243.3 698.4L1244.7 370.1L1246 590.2L1247.3 656.8L1248.7 663.4L1250 732.1L1251.3 688.4L1252.7 713.3L1254 648.1L1255.3 705.6L1256.7 617L1258 725.2L1259.3 669.3L1260.7 728.9L1262 613L1263.3 672.5L1264.7 662.9L1266 701.9L1267.3 574.1L1268.7 715.7L1270 625L1271.3 694.5L1272.7 628.2L1274 724.7L1275.3 643L1276.7 729.5L1278 611.4L1279.3 664.8L1280.7 601.6L1282 633.5L1283.3 632.4L1284.7 751.2L1286 635.1L1287.3 708.3L1288.7 533.5L1290 678.3L1291.3 572.7L1292.7 704.5L1294 596.9L1295.3 704.3L1296.7 617.3L1298 659.7L1299.3 594.2L1300.7 712.8L1302 610.7L1303.3 689.2L1304.7 543.8L1306 693.1L1307.3 594.7L1308.7 700L1310 497.7L1311.3 630L1312.7 570.9L1314 405.9L1315.3 582.3L1316.7 693.4L1318 556.8L1319.3 647.3L1320.7 537.7L1322 649.4L1323.3 559.7L1324.7 690L1326 557.1L1327.3 709.9L1328.7 578.3L1330 623.7L1331.3 431.4L1332.7 660.3L1334 519.1L1335.3 666.4L1336.7 535.9L1338 675.1L1339.3 562.9L1340.7 650.2L1342 528.2L1343.3 664L1344.7 535.6L1346 673L1347.3 553.6L1348.7 664.5L1350 559.7L1351.3 671.1L1352.7 365.3L1354 656.3L1355.3 518.6L1356.7 658.7L1358 495.5L1359.3 614.1L1360.7 545.7L1362 586.8L1363.3 452L1364.7 590.5L1366 481.7L1367.3 674L1368.7 445.1L1370 679.9L1371.3 528.4L1372.7 696.3L1374 390.2L1375.3 656.8L1376.7 472.7L1378 640.1L1379.3 456L1380.7 661.8L1382 319.4L1383.3 623.7L1384.7 416.8L1386 677.5L1387.3 440.9L1388.7 686.8L1390 396.9L1391.3 647.3L1392.7 504.6L1394 632.9L1395.3 391.8L1396.7 643L1398 353.4L1399.3 626.8L1400.7 391L1402 601.4L1403.3 437.2L1404.7 604.8L1406 385.7L1407.3 600.3L1408.7 427.9L1410 675.9L1411.3 456.8L1412.7 679.9L1414 466.6L1415.3 559.2L1416.7 182L1418 564.2L1419.3 417.8L1420.7 596.3L1422 385.2L1423.3 563.7L1424.7 354.7L1426 611.2L1427.3 406.2L1428.7 621.5L1430 418.6L1431.3 588.9L1432.7 263.7L1434 667.9L1435.3 430.6L1436.7 601.9L1438 369.8L1439.3 591.3L1440.7 341.2L1442 555.2L1443.3 348.9L1444.7 641.2L1446 367.4L1447.3 220.5L1448.7 266.1L1450 546.2L1451.3 306.4L1452.7 635.1L1454 403L1455.3 630.5L1456.7 246.7L1458 587.3L1459.3 607.7L1460.7 782.8L1462 804.3L1463.3 743.3L1464.7 792.9L1466 706.9L1467.3 787.8L1468.7 720.7L1470 756.8L1471.3 772.2L1472.7 732.9L1474 775.4L1475.3 772.2L1476.7 773.5L1478 777.2L1479.3 790.8L1480.7 738.5L1482 724.7L1483.3 692.3L1484.7 751L1486 766.6L1487.3 762.6L1488.7 745.4L1490 763.2L1491.3 742.7L1492.7 751.5L1494 696.3L1495.3 778L1496.7 757.1L1498 756L1499.3 765.8L1500.7 727.6L1502 737.4L1503.3 743.5L1504.7 711.2L1506 746.5L1507.3 724.2L1508.7 766.9L1510 723.6L1511.3 775.9L1512.7 723.4L1514 763.4L1515.3 723.6L1516.7 795.5L1518 751.2L1519.3 750.2L1520.7 766.9L1522 718.3L1523.3 675.4L1524.7 733.7L1526 604L1527.3 678.6L1528.7 714.6L1530 708.3L1531.3 740.1L1532.7 698.7L1534 697.7L1535.3 680.1L1536.7 627.6L1538 721.5L1539.3 736.6L1540.7 767.7L1542 724.7L1543.3 784.4L1544.7 571.9L1546 717.8L1547.3 662.9L1548.7 730L1550 688.9L1551.3 749.4L1552.7 679.1L1554 686.8L1555.3 675.6L1556.7 717.5L1558 681.5L1559.3 753.1L1560.7 676.4L1562 764.8L1563.3 634.5L1564.7 709.3L1566 583.6L1567.3 694.5L1568.7 627.1L1570 689.7L1571.3 615.4L1572.7 718.9L1574 635.1L1575.3 710.9L1576.7 632.9L1578 707.2L1579.3 570.3L1580.7 725.2L1582 601.6L1583.3 739.8L1584.7 622.3L1586 663.7L1587.3 537.7L1588.7 709.6L1590 569.5L1591.3 691.3L1592.7 648.3L1594 700L1595.3 630L1596.7 656L1598 605.1L1599.3 709.1L1600.7 595.3L1602 649.4L1603.3 600.3L1604.7 714.9L1606 597.9L1607.3 726.6L1608.7 484.9L1610 649.1L1611.3 559.2L1612.7 597.7L1614 521.3L1615.3 688.6L1616.7 579.6L1618 681.7L1619.3 588.6L1620.7 726.6L1622 503.8L1623.3 712.5L1624.7 535.1L1626 717.8L1627.3 564.8L1628.7 718.1L1630 411.7L1631.3 671.9L1632.7 560L1634 654.7L1635.3 513L1636.7 683.3L1638 571.9L1639.3 593.1L1640.7 562.6L1642 676.2L1643.3 562.9L1644.7 692.9L1646 564.8L1647.3 713.6L1648.7 486.3L1650 679.9L1651.3 420.2L1652.7 647.3L1654 513.3L1655.3 297.1L1656.7 437.2L1658 634L1659.3 569L1660.7 646.2L1662 524.5L1663.3 696.1L1664.7 449.9L1666 689.2L1667.3 501.1L1668.7 683.6L1670 520.2L1671.3 625L1672.7 127.4L1674 667.4L1675.3 485.7L1676.7 665L1678 522.3L1679.3 657.9L1680.7 501.4L1682 605.3L1683.3 453.4L1684.7 654.9L1686 465L1687.3 694.5L1688.7 541.7L1690 705.3L1691.3 423.1L1692.7 633.2L1694 245.7L1695.3 634.5L1696.7 430L1698 632.9L1699.3 416L1700.7 676.2L1702 415.2L1703.3 643.8L1704.7 416.5L1706 648.3L1707.3 328.4L1708.7 632.4L1710 448.6L1711.3 651.2L1712.7 484.4L1714 667.7L1715.3 152.1L1716.7 613.8L1718 388.1L1719.3 621.3L1720.7 442.5L1722 653.9L1723.3 438.5L1724.7 613L1726 411.2L1727.3 533.2L1728.7 439L1730 663.7L1731.3 457.1L1732.7 646.5L1734 403.2L1735.3 639.3L1736.7 331.9L1738 635.3L1739.3 166.4L1740.7 603L1742 319.4L1743.3 647.8L1744.7 437.7L1746 517.8L1747.3 381.2L1748.7 582.8L1750 397.9L1751.3 619.9L1752.7 427.6L1754 624.4L1755.3 421.5L1756.7 591.6L1758 291.6L1759.3 621L1760.7 366.4L1762 615.7L1763.3 326.6L1764.7 613.8L1766 196.9L1767.3 621.8L1768.7 343.3L1770 637.4L1771.3 369.8L1772.7 578L1774 172.2L1775.3 630.8L1776.7 394.7L1778 610.4L1779.3 637.7L1780.7 777L1782 772.7L1783.3 758.9L1784.7 753.9L1786 786.2L1787.3 747.3L1788.7 744.3L1790 752L1791.3 731.1L1792.7 812.2L1794 809.3L1795.3 767.1L1796.7 769.5L1798 762.1L1799.3 446.5" fill="transparent" stroke="#6be6c1" stroke-width="3" stroke-linejoin="bevel" class="zr26-cls-80"></path>
</g>
<g clip-path="url(#zr26-c2)">
<path d="M200.7 500.8L202 645.4L203.3 718.6L204.7 767.9L206 747.3L207.3 739.8L208.7 756.3L210 695.8L211.3 750.4L212.7 763.4L214 711.2L215.3 810.4L216.7 799.5L218 786.2L219.3 765.8L220.7 797.9L222 653.1L223.3 719.9L224.7 733.7L226 728.9L227.3 744.3L228.7 754.7L230 716.5L231.3 745.7L232.7 716L234 760.5L235.3 736.9L236.7 769.3L238 704L239.3 710.1L240.7 745.9L242 774.3L243.3 651.8L244.7 708.8L246 625.8L247.3 747.5L248.7 723.9L250 726L251.3 715.2L252.7 772.4L254 674.3L255.3 700.6L256.7 598.2L258 754.1L259.3 729.7L260.7 752.6L262 740.1L263.3 808.8L264.7 579.9L266 716.7L267.3 658.4L268.7 715.7L270 636.4L271.3 737.2L272.7 662.1L274 682L275.3 646.5L276.7 710.1L278 706.9L279.3 747.8L280.7 682.8L282 717.8L283.3 611.2L284.7 753.1L286 581.7L287.3 738L288.7 703.2L290 719.1L291.3 287.1L292.7 669.3L294 673.5L295.3 679.9L296.7 660.5L298 702.7L299.3 674L300.7 650.7L302 651.2L303.3 714.6L304.7 691.6L306 685.5L307.3 598.5L308.7 696.3L310 555L311.3 673L312.7 662.4L314 714.9L315.3 652.8L316.7 688.9L318 627.6L319.3 682.5L320.7 658.9L322 707.2L323.3 609.1L324.7 715.7L326 663.4L327.3 707.5L328.7 528.2L330 670.9L331.3 601.1L332.7 658.9L334 562.4L335.3 692.3L336.7 605.6L338 666.4L339.3 573.5L340.7 683.1L342 618.6L343.3 678.8L344.7 628.2L346 717.5L347.3 601.6L348.7 693.1L350 510.7L351.3 675.6L352.7 571.4L354 600L355.3 466.9L356.7 673.8L358 592.4L359.3 611.2L360.7 518.9L362 645.7L363.3 525.8L364.7 608.3L366 571.4L367.3 717.3L368.7 602.2L370 632.1L371.3 393.2L372.7 659.5L374 531.1L375.3 664L376.7 519.4L378 654.4L379.3 531.6L380.7 620.5L382 539L383.3 665.6L384.7 522.3L386 655.5L387.3 524.7L388.7 568.2L390 532.4L391.3 645.4L392.7 424.2L394 652.8L395.3 488.9L396.7 671.9L398 540.4L399.3 629.8L400.7 546.7L402 645.7L403.3 481.7L404.7 617.5L406 497.4L407.3 676.2L408.7 508.5L410 632.9L411.3 572.5L412.7 636.9L414 131.4L415.3 646.7L416.7 490L418 662.6L419.3 488.9L420.7 673.5L422 483.6L423.3 580.7L424.7 278.3L426 656L427.3 509.6L428.7 700.3L430 499L431.3 651L432.7 393.4L434 625.5L435.3 312.3L436.7 603.2L438 484.4L439.3 316.8L440.7 319.7L442 648.6L443.3 451.5L444.7 571.9L446 448.9L447.3 640.6L448.7 411.2L450 657.9L451.3 403.2L452.7 643.3L454 491L455.3 631.9L456.7 379.4L458 567.4L459.3 286.3L460.7 587.3L462 412.5L463.3 609.9L464.7 423.4L466 499.5L467.3 239.3L468.7 571.9L470 397.4L471.3 624.4L472.7 423.1L474 600L475.3 403.5L476.7 596.6L478 316.8L479.3 629.8L480.7 395.3L482 588.1L483.3 340.1L484.7 643.5L486 418.4L487.3 552.6L488.7 279.9L490 500.3L491.3 334L492.7 581.5L494 377.5L495.3 640.4L496.7 442.5L498 612.5L499.3 615.2L500.7 759.5L502 789.2L503.3 824.2L504.7 806.4L506 765.3L507.3 780.7L508.7 758.1L510 676.4L511.3 762.4L512.7 796.9L514 787.3L515.3 792.9L516.7 783.6L518 787.3L519.3 781.5L520.7 766.3L522 756.8L523.3 772.7L524.7 773L526 778.5L527.3 794.2L528.7 756L530 740.4L531.3 728.9L532.7 782.5L534 749.1L535.3 742.2L536.7 772.2L538 785.4L539.3 765.3L540.7 759.2L542 723.9L543.3 717.8L544.7 683.3L546 712.2L547.3 728.2L548.7 764L550 737.2L551.3 754.7L552.7 678.8L554 748L555.3 721.8L556.7 760L558 744.3L559.3 742.7L560.7 770.6L562 731.6L563.3 683.9L564.7 712.8L566 649.1L567.3 756.8L568.7 714.1L570 722.1L571.3 707.5L572.7 722.6L574 690.5L575.3 728.2L576.7 700.8L578 744.9L579.3 710.1L580.7 732.4L582 714.6L583.3 695.8L584.7 571.7L586 710.9L587.3 650.2L588.7 711.7L590 660.8L591.3 749.6L592.7 582.8L594 685.7L595.3 666.9L596.7 735.3L598 651L599.3 704L600.7 658.1L602 758.4L603.3 677.2L604.7 743.8L606 593.9L607.3 725.2L608.7 514.4L610 695.5L611.3 620.2L612.7 711.2L614 645.1L615.3 699L616.7 622.6L618 741.4L619.3 631.9L620.7 743.8L622 654.7L623.3 725.8L624.7 644.1L626 717L627.3 476.2L628.7 699L630 633.7L631.3 707.2L632.7 607.5L634 682.5L635.3 645.4L636.7 613L638 601.1L639.3 714.1L640.7 632.4L642 694.7L643.3 646.2L644.7 682L646 522.1L647.3 726.8L648.7 570.1L650 701.4L651.3 597.9L652.7 702.4L654 553.4L655.3 684.4L656.7 612L658 718.9L659.3 566.4L660.7 622.6L662 606.4L663.3 606.9L664.7 587.3L666 707.2L667.3 612.5L668.7 646.7L670 448.3L671.3 652.8L672.7 555.5L674 676.7L675.3 588.1L676.7 654.2L678 588.4L679.3 639L680.7 562.6L682 704.8L683.3 567.4L684.7 670.3L686 592.9L687.3 687.3L688.7 577.5L690 667.4L691.3 448.9L692.7 694.5L694 519.7L695.3 643.5L696.7 540.9L698 656.8L699.3 440.9L700.7 637.2L702 496.6L703.3 695.3L704.7 553.1L706 628.4L707.3 536.1L708.7 684.1L710 461.3L711.3 651.8L712.7 374.1L714 596.3L715.3 464.2L716.7 675.1L718 526.8L719.3 685.2L720.7 553.4L722 651.2L723.3 406.4L724.7 631.9L726 453.9L727.3 661L728.7 504.8L730 667.9L731.3 536.1L732.7 608.8L734 401.6L735.3 631.9L736.7 459.5L738 627.1L739.3 500.3L740.7 634L742 472.5L743.3 626.8L744.7 450.7L746 648.1L747.3 500.6L748.7 604.8L750 445.9L751.3 665.3L752.7 500L754 666.9L755.3 413.3L756.7 636.9L758 389.4L759.3 602.2L760.7 472.7L762 640.9L763.3 475.6L764.7 647.8L766 280.2L767.3 608.3L768.7 492.9L770 605.3L771.3 507.2L772.7 690.8L774 514.1L775.3 569L776.7 308.5L778 634.5L779.3 432.7L780.7 632.4L782 438L783.3 620.5L784.7 356.6L786 606.1L787.3 340.6L788.7 606.1L790 432.7L791.3 556.5L792.7 315.7L794 662.4L795.3 439.8L796.7 638.8L798 388.6L799.3 618.1L800.7 329.2L802 623.7L803.3 410.4L804.7 655.5L806 432.7L807.3 482.5L808.7 239.6L810 420.5L811.3 326.1L812.7 659.5L814 410.7L815.3 620.5L816.7 455.8L818 389.2L819.3 618.3L820.7 717L822 748.8L823.3 785.4L824.7 775.1L826 788.9L827.3 764.2L828.7 782L830 730L831.3 788.1L832.7 814.1L834 774.6L835.3 799.8L836.7 778.5L838 790.5L839.3 688.9L840.7 772.7L842 722.8L843.3 748L844.7 659.2L846 723.9L847.3 780.7L848.7 745.7L850 733.5L851.3 771.4L852.7 778.8L854 793.4L855.3 742.5L856.7 786.5L858 777.8L859.3 753.1L860.7 781.5L862 699.8L863.3 798.7L864.7 722.8L866 756L867.3 690.2L868.7 814.6L870 769.5L871.3 787.6L872.7 751.5L874 761L875.3 731.1L876.7 749.6L878 757.6L879.3 760.8L880.7 739.8L882 751.2L883.3 618.1L884.7 696.9L886 735.1L887.3 724.4L888.7 704L890 746.2L891.3 722.1L892.7 507.7L894 704.8L895.3 739.6L896.7 734.5L898 763.4L899.3 709.1L900.7 761.8L902 749.6L903.3 695L904.7 645.1L906 697.7L907.3 672.2L908.7 699.2L910 681.2L911.3 734.5L912.7 664.2L914 732.9L915.3 672.5L916.7 724.4L918 688.1L919.3 727.1L920.7 669.3L922 688.4L923.3 691L924.7 730.3L926 597.9L927.3 705.6L928.7 575.1L930 711.7L931.3 680.9L932.7 761.8L934 678.6L935.3 714.4L936.7 372.7L938 719.9L939.3 677L940.7 705.9L942 665L943.3 727.9L944.7 688.1L946 737.7L947.3 569.5L948.7 670.6L950 637.7L951.3 705.9L952.7 619.4L954 707.7L955.3 334.8L956.7 666.6L958 625.8L959.3 693.4L960.7 640.4L962 713L963.3 543L964.7 680.9L966 649.1L967.3 668.2L968.7 556L970 665.6L971.3 588.4L972.7 667.9L974 429L975.3 696.9L976.7 629.2L978 614.4L979.3 614.1L980.7 272.5L982 590.5L983.3 699.2L984.7 622.6L986 715.4L987.3 630.8L988.7 699.5L990 505.4L991.3 600.6L992.7 572.7L994 670.1L995.3 553.1L996.7 647.3L998 577L999.3 691.8L1000.7 487.8L1002 651L1003.3 595L1004.7 696.1L1006 587.8L1007.3 673.2L1008.7 608L1010 647.8L1011.3 505.4L1012.7 665.6L1014 544.6L1015.3 674L1016.7 572.2L1018 661.8L1019.3 574.3L1020.7 701.9L1022 530.8L1023.3 663.4L1024.7 453.1L1026 609.9L1027.3 515.7L1028.7 586.3L1030 539L1031.3 670.3L1032.7 435.9L1034 654.2L1035.3 434.5L1036.7 670.1L1038 509.3L1039.3 661L1040.7 486L1042 633.2L1043.3 367.2L1044.7 641.2L1046 390.2L1047.3 649.1L1048.7 453.4L1050 646.2L1051.3 529.2L1052.7 537.4L1054 289.7L1055.3 421.5L1056.7 -246.3L1058 321.8L1059.3 -75.8L1060.7 300.3L1062 -56.4L1063.3 417.8L1064.7 -25.9L1066 377L1067.3 -55.1L1068.7 429.5L1070 218.6L1071.3 643.3L1072.7 247.3L1074 645.4L1075.3 -316.6L1076.7 379.9L1078 192.4L1079.3 616.8L1080.7 322.9L1082 592.9L1083.3 316.2L1084.7 591.3L1086 333.7L1087.3 638.5L1088.7 421.3L1090 648.3L1091.3 277.2L1092.7 609.9L1094 374.9L1095.3 661.6L1096.7 319.2L1098 559.5L1099.3 131.4L1100.7 589.7L1102 396.1L1103.3 647.3L1104.7 440.6L1106 518.6L1107.3 150.5L1108.7 555.5L1110 213.3L1111.3 642L1112.7 376.2L1114 641.2L1115.3 419.2L1116.7 566.4L1118 126.1L1119.3 609.3L1120.7 394.2L1122 629.2L1123.3 328.2L1124.7 595.8L1126 340.9L1127.3 595L1128.7 308.8L1130 573.3L1131.3 411.2L1132.7 611.7L1134 271.7L1135.3 618.6L1136.7 401.6L1138 614.1L1139.3 563.7L1140.7 757.1L1142 764.2L1143.3 765.3L1144.7 790.2L1146 766.1L1147.3 792.6L1148.7 457.1L1150 758.7L1151.3 767.7L1152.7 772.2L1154 786L1155.3 779.9L1156.7 774.8L1158 805.6L1159.3 793.1L1160.7 716.7L1162 766.6L1163.3 748.3L1164.7 776.2L1166 752L1167.3 449.9L1168.7 753.4L1170 729.2L1171.3 753.1L1172.7 738.8L1174 695.5L1175.3 771.4L1176.7 722.6L1178 761.6L1179.3 760.2L1180.7 751.5L1182 684.4L1183.3 734L1184.7 700.8L1186 714.6L1187.3 720.7L1188.7 751.5L1190 757.1L1191.3 717.8L1192.7 716L1194 365.6L1195.3 739.3L1196.7 742.5L1198 674.6L1199.3 752.3L1200.7 731.1L1202 745.4L1203.3 640.6L1204.7 630.3L1206 699L1207.3 730.8L1208.7 705.9L1210 764.8L1211.3 707.2L1212.7 733.5L1214 721.8L1215.3 738.8L1216.7 730L1218 727.6L1219.3 731.3L1220.7 652.6L1222 730L1223.3 748.8L1224.7 599L1226 722.6L1227.3 664.2L1228.7 739.3L1230 675.6L1231.3 519.9L1232.7 629.8L1234 690.2L1235.3 590.8L1236.7 719.7L1238 637.4L1239.3 676.4L1240.7 643.5L1242 742.2L1243.3 586.5L1244.7 703.2L1246 623.9L1247.3 380.2L1248.7 582.5L1250 706.4L1251.3 663.2L1252.7 705.3L1254 651L1255.3 643.5L1256.7 513.6L1258 710.1L1259.3 643.5L1260.7 755.5L1262 648.6L1263.3 715.7L1264.7 670.9L1266 702.7L1267.3 584.7L1268.7 709.9L1270 592.9L1271.3 699L1272.7 636.9L1274 688.9L1275.3 567.7L1276.7 701.4L1278 586.5L1279.3 681.7L1280.7 652.3L1282 713.8L1283.3 631.1L1284.7 689.7L1286 623.7L1287.3 698.7L1288.7 534L1290 643.5L1291.3 450.2L1292.7 683.1L1294 482.8L1295.3 690.2L1296.7 619.7L1298 662.6L1299.3 606.9L1300.7 605.9L1302 588.4L1303.3 674.6L1304.7 608L1306 695.5L1307.3 634.8L1308.7 666.9L1310 511.7L1311.3 670.3L1312.7 531.1L1314 576.7L1315.3 574.1L1316.7 666.4L1318 591.8L1319.3 671.7L1320.7 549.6L1322 694.7L1323.3 610.9L1324.7 672.2L1326 575.9L1327.3 431.6L1328.7 529.8L1330 689.4L1331.3 436.7L1332.7 656.5L1334 504.3L1335.3 644.3L1336.7 505.6L1338 677L1339.3 539L1340.7 677.5L1342 499L1343.3 660.8L1344.7 423.7L1346 664.2L1347.3 583.6L1348.7 715.7L1350 550.4L1351.3 686.8L1352.7 471.4L1354 596.3L1355.3 509.6L1356.7 711.4L1358 527.4L1359.3 676.2L1360.7 565L1362 582.8L1363.3 444.6L1364.7 664.8L1366 525.2L1367.3 679.9L1368.7 513.6L1370 672.2L1371.3 336.1L1372.7 675.1L1374 293.4L1375.3 654.9L1376.7 425.5L1378 618.9L1379.3 388.1L1380.7 624.4L1382 492.4L1383.3 603L1384.7 466.1L1386 669.8L1387.3 405.9L1388.7 606.9L1390 462.1L1391.3 658.9L1392.7 515.7L1394 609.1L1395.3 308.3L1396.7 547.5L1398 387.3L1399.3 669.5L1400.7 435.9L1402 629.2L1403.3 459.2L1404.7 522.1L1406 328.4L1407.3 603L1408.7 474.3L1410 627.6L1411.3 460.3L1412.7 625.5L1414 84.4L1415.3 609.9L1416.7 363.2L1418 607.2L1419.3 397.9L1420.7 632.7L1422 149.9L1423.3 610.9L1424.7 395.3L1426 423.4L1427.3 249.4L1428.7 645.9L1430 428.4L1431.3 598.2L1432.7 407L1434 638.2L1435.3 351.8L1436.7 598.7L1438 267.7L1439.3 538.2L1440.7 325.5L1442 589.4L1443.3 370.9L1444.7 612.2L1446 338.5L1447.3 465L1448.7 289.5L1450 614.4L1451.3 408L1452.7 663.7L1454 392.6L1455.3 669.8L1456.7 366.1L1458 582L1459.3 590.5L1460.7 770.3L1462 779.9L1463.3 784.1L1464.7 773.8L1466 775.1L1467.3 705.6L1468.7 788.1L1470 753.1L1471.3 764.5L1472.7 777L1474 766.1L1475.3 780.4L1476.7 786L1478 780.7L1479.3 752L1480.7 745.1L1482 750.4L1483.3 735.6L1484.7 773.5L1486 751.2L1487.3 751.8L1488.7 765.6L1490 740.1L1491.3 755.5L1492.7 732.1L1494 765.8L1495.3 749.9L1496.7 761.3L1498 748.8L1499.3 774.3L1500.7 725L1502 673.8L1503.3 727.9L1504.7 743.8L1506 770.1L1507.3 749.9L1508.7 767.9L1510 749.6L1511.3 704.8L1512.7 742.7L1514 741.4L1515.3 715.4L1516.7 774L1518 657.9L1519.3 726.8L1520.7 710.1L1522 735.1L1523.3 691.3L1524.7 765.8L1526 684.7L1527.3 724.4L1528.7 733.5L1530 693.1L1531.3 715.7L1532.7 718.6L1534 693.1L1535.3 726.3L1536.7 694.2L1538 732.9L1539.3 676.2L1540.7 767.4L1542 716L1543.3 719.1L1544.7 644.9L1546 740.4L1547.3 643.8L1548.7 726.3L1550 695L1551.3 641.4L1552.7 729.2L1554 705.9L1555.3 690L1556.7 684.1L1558 644.3L1559.3 697.9L1560.7 674.6L1562 754.1L1563.3 701.6L1564.7 705.9L1566 312.8L1567.3 710.1L1568.7 619.9L1570 712.5L1571.3 634.8L1572.7 673.5L1574 647.5L1575.3 664.5L1576.7 629.8L1578 702.2L1579.3 665L1580.7 730L1582 611.2L1583.3 684.1L1584.7 623.1L1586 708L1587.3 610.1L1588.7 712L1590 624.7L1591.3 710.1L1592.7 636.9L1594 688.6L1595.3 573L1596.7 696.6L1598 599.5L1599.3 687.3L1600.7 588.4L1602 663.7L1603.3 548.3L1604.7 690.2L1606 628.7L1607.3 660L1608.7 543.5L1610 662.1L1611.3 512.3L1612.7 703L1614 584.7L1615.3 699L1616.7 605.9L1618 690.8L1619.3 401.9L1620.7 672.2L1622 495.8L1623.3 713.8L1624.7 584.7L1626 706.7L1627.3 597.1L1628.7 600.3L1630 477.8L1631.3 714.9L1632.7 569.3L1634 697.1L1635.3 577.8L1636.7 685.7L1638 495.8L1639.3 659.7L1640.7 578.3L1642 697.9L1643.3 598.2L1644.7 687.3L1646 491.3L1647.3 695L1648.7 573.5L1650 669.5L1651.3 496.9L1652.7 664L1654 402.2L1655.3 672.2L1656.7 547.5L1658 674.3L1659.3 573L1660.7 664.8L1662 553.6L1663.3 663.7L1664.7 543.5L1666 675.6L1667.3 573.5L1668.7 694.7L1670 456L1671.3 43L1672.7 404.6L1674 645.4L1675.3 516.8L1676.7 662.4L1678 534.5L1679.3 658.4L1680.7 528.4L1682 638.5L1683.3 471.9L1684.7 643.5L1686 512L1687.3 666.9L1688.7 539L1690 665.8L1691.3 500.6L1692.7 620.2L1694 403.5L1695.3 647.3L1696.7 500.6L1698 614.6L1699.3 481.5L1700.7 655.5L1702 481.7L1703.3 602.4L1704.7 462.9L1706 487.6L1707.3 478L1708.7 627.6L1710 474.6L1711.3 648.3L1712.7 535.9L1714 632.1L1715.3 374.3L1716.7 621L1718 434L1719.3 648.6L1720.7 476.2L1722 620.2L1723.3 470.9L1724.7 604.3L1726 390L1727.3 648.8L1728.7 470.3L1730 651L1731.3 458.4L1732.7 588.4L1734 447.3L1735.3 610.9L1736.7 338.8L1738 636.6L1739.3 6.4L1740.7 609.3L1742 405.9L1743.3 650.4L1744.7 413.6L1746 592.9L1747.3 241.4L1748.7 622.1L1750 360L1751.3 661.8L1752.7 418.1L1754 665.3L1755.3 474.1L1756.7 631.6L1758 349.9L1759.3 627.6L1760.7 400.1L1762 642.5L1763.3 456.6L1764.7 632.9L1766 88.9L1767.3 600.6L1768.7 379.1L1770 573.3L1771.3 361.3L1772.7 642.2L1774 429.5L1775.3 619.7L1776.7 422.6L1778 624.2L1779.3 589.2L1780.7 661.6L1782 803.2L1783.3 805.9L1784.7 781.7L1786 759.7L1787.3 756L1788.7 728.9L1790 798.7L1791.3 771.9L1792.7 777L1794 727.6L1795.3 757.6L1796.7 769.3L1798 774.3L1799.3 776.7" fill="transparent" stroke="#626c91" stroke-width="3" stroke-linejoin="bevel" class="zr26-cls-80"></path>
</g>
<path d="M-268.8 -5l537.6 0l0 28l-537.6 0Z" transform="translate(1000 5)" fill="rgb(0,0,0)" fill-opacity="0" stroke="#ccc" stroke-width="0" class="zr26-cls-78"></path>
<text dominant-baseline="central" text-anchor="middle" style="font-size:18px;font-family:sans-serif;font-weight:bold;" xml:space="preserve" y="9" transform="translate(1000 5)" fill="#666666">transportLinesUpdate per Tick for bench_4_every_240_staggered</text>
<defs >
<clipPath id="zr26-c0">
<path d="M198 58.5l16004 0l0 8703l-16004 0Z" fill="#000" class="zr26-cls-79"></path>
</clipPath>
<clipPath id="zr26-c1">
<path d="M198 58.5l16004 0l0 8703l-16004 0Z" fill="#000" class="zr26-cls-79"></path>
</clipPath>
<clipPath id="zr26-c2">
<path d="M198 58.5l16004 0l0 8703l-16004 0Z" fill="#000" class="zr26-cls-79"></path>
</clipPath>
</defs>
<style ><![CDATA[
.zr26-cls-78:hover {
pointer-events:none;
}
.zr26-cls-79:hover {
cursor:pointer;
fill:rgba(0,0,0,1);
}
.zr26-cls-80:hover {
cursor:pointer;
}

]]>

</style>
</svg>