<svg width="2000" height="1000" xmlns="http://www.w3.org/2000/svg" xmlns:xlink="http://www.w3.org/1999/xlink" version="1.1" baseProfile="full" viewBox="0 0 2000 1000">
<rect width="2000" height="1000" x="0" y="0" fill="rgb(252,252,252)" fill-opacity="0"></rect>
<path d="M200 930.5L1800 930.5" fill="transparent" stroke="#eeeeee" class="zr47-cls-141"></path>
<path d="M200 743.5L1800 743.5" fill="transparent" stroke="#eeeeee" class="zr47-cls-141"></path>
<path d="M200 556.5L1800 556.5" fill="transparent" stroke="#eeeeee" class="zr47-cls-141"></path>
<path d="M200 370.5L1800 370.5" fill="transparent" stroke="#eeeeee" class="zr47-cls-141"></path>
<path d="M200 183.5L1800 183.5" fill="transparent" stroke="#eeeeee" class="zr47-cls-141"></path>
<path d="M200 60.5L1800 60.5" fill="transparent" stroke="#eeeeee" class="zr47-cls-141"></path>
<path d="M200.5 930L200.5 60" fill="transparent" stroke="#cccccc" stroke-linecap="round" class="zr47-cls-141"></path>
<text dominant-baseline="central" text-anchor="middle" style="font-size:12px;font-family:sans-serif;" xml:space="preserve" y="-6" transform="translate(200 45)" fill="#cccccc">Min entityUpdate Time (ms)</text>
<path d="M200 930.5L1800 930.5" fill="transparent" stroke="#cccccc" stroke-linecap="round" class="zr47-cls-141"></path>
<text dominant-baseline="central" text-anchor="end" style="font-size:12px;font-family:sans-serif;" transform="translate(192 930)" fill="#999999">0.000</text>
<text dominant-baseline="central" text-anchor="end" style="font-size:12px;font-family:sans-serif;" transform="translate(192 743.2702)" fill="#999999">1.000</text>
<text dominant-baseline="central" text-anchor="end" style="font-size:12px;font-family:sans-serif;" transform="translate(192 556.5403)" fill="#999999">2.000</text>
<text dominant-baseline="central" text-anchor="end" style="font-size:12px;font-family:sans-serif;" transform="translate(192 369.8105)" fill="#999999">3.000</text>
<text dominant-baseline="central" text-anchor="end" style="font-size:12px;font-family:sans-serif;" transform="translate(192 183.0807)" fill="#999999">4.000</text>
<text dominant-baseline="central" text-anchor="end" style="font-size:12px;font-family:sans-serif;" transform="translate(192 60)" fill="#999999">4.659</text>
<text dominant-baseline="central" text-anchor="middle" style="font-size:12px;font-family:sans-serif;" y="6" transform="translate(200.6667 938)" fill="#999999">0</text>
<text dominant-baseline="central" text-anchor="middle" style="font-size:12px;font-family:sans-serif;" y="6" transform="translate(236.6667 938)" fill="#999999">27</text>
<text dominant-baseline="central" text-anchor="middle" style="font-size:12px;font-family:sans-serif;" y="6" transform="translate(272.6667 938)" fill="#999999">54</text>
<text dominant-baseline="central" text-anchor="middle" style="font-size:12px;font-family:sans-serif;" y="6" transform="translate(308.6667 938)" fill="#999999">81</text>
<text dominant-baseline="central" text-anchor="middle" style="font-size:12px;font-family:sans-serif;" y="6" transform="translate(344.6667 938)" fill="#999999">108</text>
<text dominant-baseline="central" text-anchor="middle" style="font-size:12px;font-family:sans-serif;" y="6" transform="translate(380.6667 938)" fill="#999999">135</text>
<text dominant-baseline="central" text-anchor="middle" style="font-size:12px;font-family:sans-serif;" y="6" transform="translate(416.6667 938)" fill="#999999">162</text>
<text dominant-baseline="central" text-anchor="middle" style="font-size:12px;font-family:sans-serif;" y="6" transform="translate(452.6667 938)" fill="#999999">189</text>
<text dominant-baseline="central" text-anchor="middle" style="font-size:12px;font-family:sans-serif;" y="6" transform="translate(488.6667 938)" fill="#999999">216</text>
<text dominant-baseline="central" text-anchor="middle" style="font-size:12px;font-family:sans-serif;" y="6" transform="translate(524.6667 938)" fill="#999999">243</text>
<text dominant-baseline="central" text-anchor="middle" style="font-size:12px;font-family:sans-serif;" y="6" transform="translate(560.6667 938)" fill="#999999">270</text>
<text dominant-baseline="central" text-anchor="middle" style="font-size:12px;font-family:sans-serif;" y="6" transform="translate(596.6667 938)" fill="#999999">297</text>
<text dominant-baseline="central" text-anchor="middle" style="font-size:12px;font-family:sans-serif;" y="6" transform="translate(632.6667 938)" fill="#999999">324</text>
<text dominant-baseline="central" text-anchor="middle" style="font-size:12px;font-family:sans-serif;" y="6" transform="translate(668.6667 938)" fill="#999999">351</text>
<text dominant-baseline="central" text-anchor="middle" style="font-size:12px;font-family:sans-serif;" y="6" transform="translate(704.6667 938)" fill="#999999">378</text>
<text dominant-baseline="central" text-anchor="middle" style="font-size:12px;font-family:sans-serif;" y="6" transform="translate(740.6667 938)" fill="#999999">405</text>
<text dominant-baseline="central" text-anchor="middle" style="font-size:12px;font-family:sans-serif;" y="6" transform="translate(776.6667 938)" fill="#999999">432</text>
<text dominant-baseline="central" text-anchor="middle" style="font-size:12px;font-family:sans-serif;" y="6" transform="translate(812.6667 938)" fill="#999999">459</text>
<text dominant-baseline="central" text-anchor="middle" style="font-size:12px;font-family:sans-serif;" y="6" transform="translate(848.6667 938)" fill="#999999">486</text>
<text dominant-baseline="central" text-anchor="middle" style="font-size:12px;font-family:sans-serif;" y="6" transform="translate(884.6667 938)" fill="#999999">513</text>
<text dominant-baseline="central" text-anchor="middle" style="font-size:12px;font-family:sans-serif;" y="6" transform="translate(920.6667 938)" fill="#999999">540</text>
<text dominant-baseline="central" text-anchor="middle" style="font-size:12px;font-family:sans-serif;" y="6" transform="translate(956.6667 938)" fill="#999999">567</text>
<text dominant-baseline="central" text-anchor="middle" style="font-size:12px;font-family:sans-serif;" y="6" transform="translate(992.6667 938)" fill="#999999">594</text>
<text dominant-baseline="central" text-anchor="middle" style="font-size:12px;font-family:sans-serif;" y="6" transform="translate(1028.6667 938)" fill="#999999">621</text>
<text dominant-baseline="central" text-anchor="middle" style="font-size:12px;font-family:sans-serif;" y="6" transform="translate(1064.6667 938)" fill="#999999">648</text>
<text dominant-baseline="central" text-anchor="middle" style="font-size:12px;font-family:sans-serif;" y="6" transform="translate(1100.6667 938)" fill="#999999">675</text>
<text dominant-baseline="central" text-anchor="middle" style="font-size:12px;font-family:sans-serif;" y="6" transform="translate(1136.6667 938)" fill="#999999">702</text>
<text dominant-baseline="central" text-anchor="middle" style="font-size:12px;font-family:sans-serif;" y="6" transform="translate(1172.6667 938)" fill="#999999">729</text>
<text dominant-baseline="central" text-anchor="middle" style="font-size:12px;font-family:sans-serif;" y="6" transform="translate(1208.6667 938)" fill="#999999">756</text>
<text dominant-baseline="central" text-anchor="middle" style="font-size:12px;font-family:sans-serif;" y="6" transform="translate(1244.6667 938)" fill="#999999">783</text>
<text dominant-baseline="central" text-anchor="middle" style="font-size:12px;font-family:sans-serif;" y="6" transform="translate(1280.6667 938)" fill="#999999">810</text>
<text dominant-baseline="central" text-anchor="middle" style="font-size:12px;font-family:sans-serif;" y="6" transform="translate(1316.6667 938)" fill="#999999">837</text>
<text dominant-baseline="central" text-anchor="middle" style="font-size:12px;font-family:sans-serif;" y="6" transform="translate(1352.6667 938)" fill="#999999">864</text>
<text dominant-baseline="central" text-anchor="middle" style="font-size:12px;font-family:sans-serif;" y="6" transform="translate(1388.6667 938)" fill="#999999">891</text>
<text dominant-baseline="central" text-anchor="middle" style="font-size:12px;font-family:sans-serif;" y="6" transform="translate(1424.6667 938)" fill="#999999">918</text>
<text dominant-baseline="central" text-anchor="middle" style="font-size:12px;font-family:sans-serif;" y="6" transform="translate(1460.6667 938)" fill="#999999">945</text>
<text dominant-baseline="central" text-anchor="middle" style="font-size:12px;font-family:sans-serif;" y="6" transform="translate(1496.6667 938)" fill="#999999">972</text>
<text dominant-baseline="central" text-anchor="middle" style="font-size:12px;font-family:sans-serif;" y="6" transform="translate(1532.6667 938)" fill="#999999">999</text>
<text dominant-baseline="central" text-anchor="middle" style="font-size:12px;font-family:sans-serif;" y="6" transform="translate(1568.6667 938)" fill="#999999">1026</text>
<text dominant-baseline="central" text-anchor="middle" style="font-size:12px;font-family:sans-serif;" y="6" transform="translate(1604.6667 938)" fill="#999999">1053</text>
<text dominant-baseline="central" text-anchor="middle" style="font-size:12px;font-family:sans-serif;" y="6" transform="translate(1640.6667 938)" fill="#999999">1080</text>
<text dominant-baseline="central" text-anchor="middle" style="font-size:12px;font-family:sans-serif;" y="6" transform="translate(1676.6667 938)" fill="#999999">1107</text>
<text dominant-baseline="central" text-anchor="middle" style="font-size:12px;font-family:sans-serif;" y="6" transform="translate(1712.6667 938)" fill="#999999">1134</text>
<text dominant-baseline="central" text-anchor="middle" style="font-size:12px;font-family:sans-serif;" y="6" transform="translate(1748.6667 938)" fill="#999999">1161</text>
<text dominant-baseline="central" text-anchor="middle" style="font-size:12px;font-family:sans-serif;" y="6" transform="translate(1784.6667 938)" fill="#999999">1188</text>
<g clip-path="url(#zr47-c0)">
<path d="M200.7 472.4L202 774.1L203.3 645.6L204.7 814.9L206 654.2L207.3 819.4L208.7 666.8L210 815.5L211.3 627.2L212.7 812.3L214 672.1L215.3 831.8L216.7 618.9L218 815.6L219.3 670.4L220.7 826L222 641.5L223.3 821.6L224.7 669.2L226 818.2L227.3 622L228.7 820.2L230 676.9L231.3 835.8L232.7 660.2L234 833L235.3 664.7L236.7 822.7L238 634.8L239.3 816.4L240.7 663.7L242 810.1L243.3 649.9L244.7 816L246 640.3L247.3 826.6L248.7 662.4L250 828.2L251.3 679.8L252.7 813.7L254 664L255.3 814.3L256.7 616.8L258 817L259.3 620.3L260.7 803.3L262 437L263.3 695.2L264.7 359L266 670.6L267.3 360.3L268.7 689.6L270 348L271.3 680.1L272.7 376.4L274 672.7L275.3 335.1L276.7 671.6L278 384.6L279.3 698.3L280.7 372.7L282 689.2L283.3 378.5L284.7 722.4L286 375.8L287.3 689.5L288.7 371.3L290 705.5L291.3 391.6L292.7 735.7L294 425.7L295.3 729.5L296.7 391.6L298 676.2L299.3 406.3L300.7 675L302 357.1L303.3 667.9L304.7 356.9L306 660.3L307.3 358.6L308.7 700.6L310 376.2L311.3 682.7L312.7 371.3L314 706.9L315.3 396.2L316.7 653.9L318 389.4L319.3 718.8L320.7 420.8L322 744.9L323.3 417.7L324.7 703.2L326 366.5L327.3 710.8L328.7 398.2L330 712L331.3 442.6L332.7 726.6L334 403.9L335.3 691.1L336.7 370.5L338 726.7L339.3 440.5L340.7 717.5L342 634.9L343.3 799.1L344.7 600.1L346 825.1L347.3 662.6L348.7 803.2L350 638.2L351.3 822.1L352.7 668.9L354 812.6L355.3 639.9L356.7 825.4L358 667L359.3 821.2L360.7 637.4L362 823L363.3 662.8L364.7 826.2L366 642.4L367.3 817.8L368.7 650.7L370 808.2L371.3 639.6L372.7 823.6L374 662L375.3 819.2L376.7 659.3L378 824.9L379.3 662.4L380.7 827.8L382 620.5L383.3 830.4L384.7 668.1L386 805.7L387.3 636L388.7 832.4L390 628.9L391.3 815.2L392.7 660.8L394 832.2L395.3 664.7L396.7 815.9L398 653.9L399.3 824.9L400.7 669.5L402 822.7L403.3 661.2L404.7 832.1L406 684.2L407.3 814.7L408.7 618.2L410 825.2L411.3 681.7L412.7 816.5L414 662.9L415.3 816.2L416.7 612.7L418 812.2L419.3 656.3L420.7 820L422 660L423.3 816.3L424.7 648L426 812.7L427.3 658.2L428.7 813.1L430 650.7L431.3 822.9L432.7 661L434 817L435.3 645.9L436.7 826L438 657.1L439.3 819.4L440.7 640.8L442 812.6L443.3 667.1L444.7 808.4L446 645.4L447.3 811.8L448.7 670.7L450 809.9L451.3 646L452.7 821.9L454 651.1L455.3 824.3L456.7 648.6L458 808L459.3 670.6L460.7 823.3L462 653.3L463.3 830.8L464.7 676.9L466 806L467.3 653.5L468.7 819.5L470 651.2L471.3 811.7L472.7 647.2L474 811L475.3 678.5L476.7 812.9L478 648.1L479.3 805.4L480.7 659.4L482 818.7L483.3 655.3L484.7 808.8L486 671.6L487.3 832.3L488.7 664L490 825.8L491.3 677L492.7 813.5L494 657.6L495.3 815.3L496.7 618.8L498 825.3L499.3 626.9L500.7 824.5L502 644.3L503.3 805.9L504.7 650.3L506 824.7L507.3 655.8L508.7 802.7L510 637.9L511.3 819.5L512.7 650.3L514 808.4L515.3 645.9L516.7 823.5L518 650.4L519.3 811.9L520.7 645.9L522 806L523.3 649.8L524.7 819.7L526 642.8L527.3 826.9L528.7 643.6L530 819.1L531.3 646.9L532.7 815.8L534 678L535.3 814.4L536.7 657.2L538 827.2L539.3 676.5L540.7 812L542 648.2L543.3 805.7L544.7 661.8L546 821.9L547.3 650.1L548.7 812.3L550 660L551.3 812L552.7 663.2L554 827.1L555.3 661L556.7 830.4L558 658L559.3 834.2L560.7 658.9L562 823.5L563.3 662.1L564.7 833.1L566 674.2L567.3 809.4L568.7 644.4L570 833.7L571.3 688.8L572.7 822.8L574 661.9L575.3 827L576.7 619.4L578 825L579.3 615.9L580.7 808.4L582 445L583.3 681.4L584.7 379.3L586 662.8L587.3 366.7L588.7 666.2L590 346.4L591.3 671.6L592.7 324.4L594 659.8L595.3 343.6L596.7 672.5L598 331.9L599.3 676.4L600.7 349.9L602 673.7L603.3 351.8L604.7 670.7L606 390.4L607.3 703.7L608.7 409.5L610 682.5L611.3 369.5L612.7 702.2L614 369.6L615.3 709.6L616.7 407.1L618 681.2L619.3 403.2L620.7 704.7L622 370.8L623.3 708.3L624.7 383.8L626 674.6L627.3 388.5L628.7 690.3L630 416.4L631.3 743.7L632.7 381.8L634 711.4L635.3 420.2L636.7 737.9L638 380.8L639.3 679L640.7 375.4L642 707.5L643.3 377.3L644.7 688.7L646 399.7L647.3 741.5L648.7 402.9L650 747L651.3 460.1L652.7 710.2L654 388.2L655.3 724.9L656.7 375.2L658 712.2L659.3 433.6L660.7 683.3L662 627.2L663.3 790L664.7 610.2L666 819.9L667.3 628.6L668.7 824.6L670 612.6L671.3 797.6L672.7 640.5L674 807.1L675.3 650.6L676.7 809.4L678 645.4L679.3 811.1L680.7 634.6L682 816.2L683.3 663.7L684.7 827.1L686 652L687.3 821.4L688.7 665L690 811.4L691.3 657.3L692.7 817.7L694 668L695.3 832.2L696.7 660.3L698 818L699.3 664.5L700.7 824L702 646.2L703.3 831.8L704.7 666.1L706 810.1L707.3 633.8L708.7 828.3L710 674.2L711.3 825.4L712.7 633.5L714 811L715.3 674.3L716.7 817.7L718 646L719.3 829.8L720.7 679.4L722 832.5L723.3 657.7L724.7 803L726 677.1L727.3 808.8L728.7 646.4L730 809L731.3 683.7L732.7 813.2L734 658.8L735.3 821.2L736.7 611.3L738 824.8L739.3 641.8L740.7 822.7L742 657.3L743.3 819.6L744.7 636.1L746 806L747.3 654.1L748.7 819.5L750 650.1L751.3 825.5L752.7 629.6L754 806.4L755.3 651.3L756.7 827.1L758 636.3L759.3 818.1L760.7 652.1L762 814.8L763.3 666.4L764.7 801.7L766 654L767.3 821.8L768.7 670.1L770 826.4L771.3 643.9L772.7 824.4L774 673L775.3 804.8L776.7 642.5L778 825.1L779.3 651.6L780.7 822.7L782 646.8L783.3 824.1L784.7 654.5L786 827.9L787.3 645.9L788.7 824.6L790 654.5L791.3 811.4L792.7 658.2L794 822.6L795.3 672.5L796.7 830.1L798 659.4L799.3 833L800.7 663.4L802 803.2L803.3 659.5L804.7 832L806 672.3L807.3 825.4L808.7 648.5L810 817.4L811.3 687.6L812.7 810.4L814 661L815.3 827L816.7 619.8L818 801.9L819.3 644.5L820.7 810.2L822 670.1L823.3 824.4L824.7 637.8L826 818.7L827.3 649.4L828.7 806.5L830 600.6L831.3 807.5L832.7 652.1L834 824L835.3 639.7L836.7 814.3L838 669.3L839.3 827.7L840.7 651L842 816.5L843.3 652.8L844.7 825.6L846 651L847.3 828.9L848.7 666.9L850 802.4L851.3 653.7L852.7 828.7L854 662.5L855.3 826L856.7 658.9L858 822.9L859.3 646L860.7 820.3L862 629.9L863.3 823.8L864.7 670.4L866 804.8L867.3 653.8L868.7 831L870 676.7L871.3 825.8L872.7 639.7L874 818.4L875.3 661.3L876.7 828.3L878 656.1L879.3 826.9L880.7 677.4L882 811.7L883.3 653.1L884.7 815.8L886 657.9L887.3 808.3L888.7 655.9L890 818.1L891.3 648.4L892.7 819.5L894 654L895.3 828.4L896.7 625.1L898 829.1L899.3 642.3L900.7 789.1L902 422.7L903.3 684.3L904.7 393.5L906 692.5L907.3 404.8L908.7 692L910 396.6L911.3 690.1L912.7 397.3L914 715.3L915.3 379.9L916.7 662.5L918 372.8L919.3 680.4L920.7 342.1L922 670.1L923.3 379.6L924.7 690.2L926 321.9L927.3 681.3L928.7 354L930 682.4L931.3 389.9L932.7 707.4L934 418.4L935.3 715.4L936.7 361.7L938 690.1L939.3 407.4L940.7 680.4L942 398.2L943.3 710.3L944.7 401.8L946 680.7L947.3 368.6L948.7 674.7L950 380.3L951.3 707.1L952.7 400.3L954 675L955.3 377.9L956.7 703.5L958 342.8L959.3 710.8L960.7 389.1L962 667L963.3 349L964.7 702.5L966 392.2L967.3 728.1L968.7 390.8L970 725L971.3 395.5L972.7 681.6L974 377.9L975.3 681.8L976.7 343.1L978 685.6L979.3 408.5L980.7 716.2L982 626.6L983.3 806.3L984.7 631.5L986 798.4L987.3 627.9L988.7 805.3L990 642.8L991.3 803.5L992.7 649.6L994 817.2L995.3 651.4L996.7 808.4L998 653.4L999.3 821.5L1000.7 658.6L1002 812.1L1003.3 662.4L1004.7 813L1006 641L1007.3 809.8L1008.7 631.3L1010 824.4L1011.3 626.1L1012.7 811.2L1014 661.7L1015.3 827.2L1016.7 654.4L1018 828.9L1019.3 663.8L1020.7 828.7L1022 657.6L1023.3 818.1L1024.7 677L1026 825.5L1027.3 651.2L1028.7 820.1L1030 674.9L1031.3 822.2L1032.7 659.8L1034 818.8L1035.3 675.1L1036.7 827.5L1038 654.6L1039.3 815.3L1040.7 661.8L1042 808.1L1043.3 654.8L1044.7 825.1L1046 678.3L1047.3 831.5L1048.7 623.8L1050 807.2L1051.3 656.5L1052.7 816.6L1054 657.7L1055.3 825.9L1056.7 612.6L1058 820.3L1059.3 641.2L1060.7 822.8L1062 631.7L1063.3 810.1L1064.7 632.8L1066 804.4L1067.3 617.5L1068.7 817.9L1070 654.1L1071.3 807.8L1072.7 641.8L1074 818.7L1075.3 638.6L1076.7 806.7L1078 643.3L1079.3 816.7L1080.7 649.8L1082 807.4L1083.3 649.3L1084.7 822.1L1086 653.8L1087.3 827.1L1088.7 643.4L1090 823.5L1091.3 644L1092.7 829.8L1094 661.4L1095.3 808.7L1096.7 654.1L1098 829.5L1099.3 666.5L1100.7 820.1L1102 647.9L1103.3 829.2L1104.7 665.2L1106 828.4L1107.3 645.2L1108.7 805.8L1110 662.6L1111.3 829.9L1112.7 619.9L1114 827.1L1115.3 643.9L1116.7 829.4L1118 659.6L1119.3 824.1L1120.7 667.1L1122 816.3L1123.3 658.8L1124.7 834.9L1126 669.3L1127.3 809.1L1128.7 663.3L1130 821.5L1131.3 680.9L1132.7 829.6L1134 665.5L1135.3 834.2L1136.7 628.4L1138 810.4L1139.3 647.6L1140.7 822.1L1142 669.8L1143.3 803L1144.7 639L1146 805.6L1147.3 670.3L1148.7 819.7L1150 653.8L1151.3 808.1L1152.7 660.8L1154 827.7L1155.3 623.2L1156.7 815.9L1158 669.1L1159.3 808.6L1160.7 636.7L1162 803L1163.3 662L1164.7 814.7L1166 649.2L1167.3 814.2L1168.7 671.7L1170 824.8L1171.3 644.6L1172.7 825.1L1174 663L1175.3 809.9L1176.7 651.9L1178 823.1L1179.3 668.9L1180.7 806L1182 656.7L1183.3 805.8L1184.7 663L1186 810L1187.3 654.9L1188.7 806.4L1190 644L1191.3 803.2L1192.7 651.9L1194 809.7L1195.3 653.4L1196.7 821.8L1198 651.9L1199.3 826L1200.7 678.7L1202 806.9L1203.3 639.5L1204.7 826.5L1206 682.2L1207.3 809.8L1208.7 655.7L1210 826.4L1211.3 687.2L1212.7 833.7L1214 622.8L1215.3 826.9L1216.7 622.7L1218 823.1L1219.3 630.5L1220.7 818.1L1222 435.3L1223.3 694.3L1224.7 375.9L1226 683.6L1227.3 375.2L1228.7 688.9L1230 382.2L1231.3 662.2L1232.7 366.8L1234 670.7L1235.3 352.7L1236.7 674.2L1238 384.2L1239.3 694.5L1240.7 377.1L1242 680.7L1243.3 377.8L1244.7 670.4L1246 357.9L1247.3 700.9L1248.7 397.8L1250 681.6L1251.3 366.5L1252.7 689.5L1254 394.3L1255.3 701.7L1256.7 384.5L1258 700.3L1259.3 392.2L1260.7 698.5L1262 353.2L1263.3 700.8L1264.7 420.9L1266 708.4L1267.3 375.2L1268.7 684.2L1270 380.8L1271.3 680.6L1272.7 402.7L1274 743.4L1275.3 382.5L1276.7 687.5L1278 364.7L1279.3 702.3L1280.7 408.4L1282 682.1L1283.3 379.2L1284.7 674L1286 360.6L1287.3 684.3L1288.7 402.4L1290 680.5L1291.3 414.4L1292.7 711.6L1294 384.4L1295.3 707.3L1296.7 331L1298 681.2L1299.3 371.8L1300.7 684.7L1302 624.3L1303.3 784.3L1304.7 633.1L1306 818.8L1307.3 664.4L1308.7 815L1310 632.7L1311.3 798.5L1312.7 663.1L1314 805L1315.3 654L1316.7 816.2L1318 647.6L1319.3 817.2L1320.7 627.4L1322 817.9L1323.3 658.2L1324.7 803.8L1326 628.6L1327.3 805.8L1328.7 622.5L1330 804.9L1331.3 659.1L1332.7 813.4L1334 641.2L1335.3 824.9L1336.7 650.3L1338 829.8L1339.3 658.3L1340.7 817.3L1342 650.2L1343.3 820.4L1344.7 671.2L1346 824.3L1347.3 658.5L1348.7 824.3L1350 674.6L1351.3 824.8L1352.7 653.7L1354 831.6L1355.3 672.3L1356.7 832.6L1358 649.5L1359.3 812.6L1360.7 676.4L1362 828.5L1363.3 630.4L1364.7 804.3L1366 677.7L1367.3 830.1L1368.7 655L1370 828.2L1371.3 665.6L1372.7 811.8L1374 661L1375.3 831.7L1376.7 602.7L1378 820.2L1379.3 632.2L1380.7 822.8L1382 653.1L1383.3 809.5L1384.7 623.8L1386 797.8L1387.3 655.2L1388.7 810.9L1390 652.2L1391.3 825.2L1392.7 656L1394 811.8L1395.3 627.8L1396.7 807.8L1398 652.7L1399.3 822.7L1400.7 656.9L1402 814.8L1403.3 651.4L1404.7 822.3L1406 656.5L1407.3 814.5L1408.7 652.9L1410 821.1L1411.3 640.2L1412.7 827.9L1414 676L1415.3 817.2L1416.7 651.2L1418 821.8L1419.3 673.2L1420.7 810.4L1422 651.3L1423.3 828.5L1424.7 675.3L1426 830.9L1427.3 616.1L1428.7 817.5L1430 673.8L1431.3 811.7L1432.7 658.5L1434 832.1L1435.3 673.9L1436.7 832L1438 659.2L1439.3 821.3L1440.7 670.5L1442 810.8L1443.3 662L1444.7 833.3L1446 682.3L1447.3 817.1L1448.7 664L1450 822.2L1451.3 674.9L1452.7 825.1L1454 665.5L1455.3 813.5L1456.7 626.2L1458 818.1L1459.3 644.2L1460.7 822.5L1462 649.3L1463.3 815.6L1464.7 609.4L1466 823L1467.3 631.4L1468.7 816.2L1470 635.6L1471.3 815L1472.7 669.3L1474 816L1475.3 618.1L1476.7 809.4L1478 661.2L1479.3 803.7L1480.7 626.5L1482 823.8L1483.3 670.2L1484.7 827.3L1486 603.7L1487.3 820.5L1488.7 671.3L1490 827.3L1491.3 647.5L1492.7 823.2L1494 673.5L1495.3 829L1496.7 659.7L1498 805.1L1499.3 671.3L1500.7 810.1L1502 638.2L1503.3 823.9L1504.7 673.5L1506 808.3L1507.3 656.4L1508.7 830.9L1510 673.8L1511.3 831.4L1512.7 656.6L1514 825.2L1515.3 654.2L1516.7 812.2L1518 637.1L1519.3 830.2L1520.7 672.9L1522 827.4L1523.3 661.9L1524.7 826.3L1526 668.7L1527.3 819.6L1528.7 646.3L1530 823.3L1531.3 674.4L1532.7 814.6L1534 659.3L1535.3 830.2L1536.7 622.3L1538 810.2L1539.3 633.7L1540.7 809.9L1542 434.1L1543.3 672.6L1544.7 384.7L1546 683.5L1547.3 362.6L1548.7 690.3L1550 375.5L1551.3 661.2L1552.7 332.6L1554 652L1555.3 332.7L1556.7 679.8L1558 358.4L1559.3 708L1560.7 384.7L1562 704.7L1563.3 419.9L1564.7 673.8L1566 356.4L1567.3 694.6L1568.7 397.6L1570 709.1L1571.3 375.5L1572.7 700L1574 394L1575.3 691.1L1576.7 395.8L1578 730.5L1579.3 365.3L1580.7 693.4L1582 369.8L1583.3 681.9L1584.7 391.3L1586 680.8L1587.3 363.5L1588.7 694.3L1590 388.3L1591.3 693.8L1592.7 411.4L1594 711.8L1595.3 419.8L1596.7 700.7L1598 373.9L1599.3 725.1L1600.7 428.4L1602 715.9L1603.3 372.7L1604.7 719.8L1606 425.4L1607.3 720.6L1608.7 368.3L1610 692.7L1611.3 394.5L1612.7 692.1L1614 360.2L1615.3 701.3L1616.7 346.4L1618 694.3L1619.3 414.6L1620.7 683.3L1622 624.9L1623.3 819.8L1624.7 611L1626 821.3L1627.3 630.1L1628.7 827.2L1630 615.5L1631.3 815.3L1632.7 660.4L1634 819.8L1635.3 650.6L1636.7 806.9L1638 640L1639.3 824.7L1640.7 654.5L1642 809.6L1643.3 657.6L1644.7 821.9L1646 658.7L1647.3 811.5L1648.7 668.3L1650 817.3L1651.3 651.5L1652.7 822.1L1654 668.3L1655.3 828.3L1656.7 639.1L1658 830.1L1659.3 670.5L1660.7 824.5L1662 653.7L1663.3 822.1L1664.7 652.4L1666 821.3L1667.3 641.6L1668.7 824.8L1670 677.9L1671.3 824.5L1672.7 650.3L1674 814.7L1675.3 665.6L1676.7 821.8L1678 624.2L1679.3 826.5L1680.7 645.9L1682 810.5L1683.3 660.3L1684.7 814L1686 680.2L1687.3 823.4L1688.7 648L1690 827.4L1691.3 673.8L1692.7 830.1L1694 646.5L1695.3 820.9L1696.7 609.5L1698 815L1699.3 640.8L1700.7 806.7L1702 649.3L1703.3 805.2L1704.7 646.3L1706 810.8L1707.3 642.5L1708.7 817.6L1710 644.3L1711.3 821.6L1712.7 647.5L1714 816.7L1715.3 656.2L1716.7 823L1718 655.4L1719.3 809.7L1720.7 636.7L1722 831.1L1723.3 636.6L1724.7 804.2L1726 650.6L1727.3 827.5L1728.7 661.9L1730 824.7L1731.3 653.6L1732.7 832.1L1734 670L1735.3 810.8L1736.7 645.9L1738 827.7L1739.3 657.2L1740.7 833L1742 649.6L1743.3 820.9L1744.7 653.9L1746 831.8L1747.3 652.3L1748.7 829.7L1750 666.3L1751.3 822.6L1752.7 644.5L1754 828.1L1755.3 654L1756.7 831.6L1758 661.2L1759.3 811.4L1760.7 631.3L1762 814.3L1763.3 656L1764.7 831.9L1766 670L1767.3 829.2L1768.7 664.5L1770 824.1L1771.3 672.9L1772.7 809.2L1774 661.4L1775.3 832.2L1776.7 613.2L1778 809.1L1779.3 646.5L1780.7 808.6L1782 645L1783.3 810.1L1784.7 641.1L1786 804.1L1787.3 665.5L1788.7 803.4L1790 646.5L1791.3 820.4L1792.7 664.2L1794 812.8L1795.3 642.6L1796.7 805.5L1798 671.9L1799.3 823.7" fill="transparent" stroke="#3fb1e3" stroke-width="3" stroke-linejoin="bevel" class="zr47-cls-143"></path>
</g>
<path d="M-280.2 -5l560.4 0l0 28l-560.4 0Z" transform="translate(1000 5)" fill="rgb(0,0,0)" fill-opacity="0" stroke="#ccc" stroke-width="0" class="zr47-cls-141"></path>
<text dominant-baseline="central" text-anchor="middle" style="font-size:18px;font-family:sans-serif;font-weight:bold;" xml:space="preserve" y="9" transform="translate(1000 5)" fill="#666666">Min entityUpdate per Tick for bench_1_every_60_staggered_reverse</text>
<defs >
<clipPath id="zr47-c0">
<path d="M198 58.5l16004 0l0 8703l-16004 0Z" fill="#000" class="zr47-cls-142"></path>
</clipPath>
</defs>
<style ><![CDATA[
.zr47-cls-141:hover {
pointer-events:none;
}
.zr47-cls-142:hover {
cursor:pointer;
fill:rgba(0,0,0,1);
}
.zr47-cls-143:hover {
cursor:pointer;
}

]]>

</style>
</svg>