<svg width="2000" height="1000" xmlns="http://www.w3.org/2000/svg" xmlns:xlink="http://www.w3.org/1999/xlink" version="1.1" baseProfile="full" viewBox="0 0 2000 1000">
<rect width="2000" height="1000" x="0" y="0" fill="rgb(252,252,252)" fill-opacity="0"></rect>
<path d="M200 930.5L1800 930.5" fill="transparent" stroke="#eeeeee" class="zr44-cls-132"></path>
<path d="M200 762.5L1800 762.5" fill="transparent" stroke="#eeeeee" class="zr44-cls-132"></path>
<path d="M200 593.5L1800 593.5" fill="transparent" stroke="#eeeeee" class="zr44-cls-132"></path>
<path d="M200 425.5L1800 425.5" fill="transparent" stroke="#eeeeee" class="zr44-cls-132"></path>
<path d="M200 257.5L1800 257.5" fill="transparent" stroke="#eeeeee" class="zr44-cls-132"></path>
<path d="M200 89.5L1800 89.5" fill="transparent" stroke="#eeeeee" class="zr44-cls-132"></path>
<path d="M200 60.5L1800 60.5" fill="transparent" stroke="#eeeeee" class="zr44-cls-132"></path>
<path d="M200.5 930L200.5 60" fill="transparent" stroke="#cccccc" stroke-linecap="round" class="zr44-cls-132"></path>
<text dominant-baseline="central" text-anchor="middle" style="font-size:12px;font-family:sans-serif;" xml:space="preserve" y="-6" transform="translate(200 45)" fill="#cccccc">controlBehaviorUpdate Time (ms)</text>
<path d="M200 930.5L1800 930.5" fill="transparent" stroke="#cccccc" stroke-linecap="round" class="zr44-cls-132"></path>
<text dominant-baseline="central" text-anchor="end" style="font-size:12px;font-family:sans-serif;" transform="translate(192 930)" fill="#999999">0.000</text>
<text dominant-baseline="central" text-anchor="end" style="font-size:12px;font-family:sans-serif;" transform="translate(192 761.853)" fill="#999999">0.200</text>
<text dominant-baseline="central" text-anchor="end" style="font-size:12px;font-family:sans-serif;" transform="translate(192 593.706)" fill="#999999">0.400</text>
<text dominant-baseline="central" text-anchor="end" style="font-size:12px;font-family:sans-serif;" transform="translate(192 425.559)" fill="#999999">0.600</text>
<text dominant-baseline="central" text-anchor="end" style="font-size:12px;font-family:sans-serif;" transform="translate(192 257.412)" fill="#999999">0.800</text>
<text dominant-baseline="central" text-anchor="end" style="font-size:12px;font-family:sans-serif;" transform="translate(192 89.265)" fill="#999999">1.000</text>
<text dominant-baseline="central" text-anchor="end" style="font-size:12px;font-family:sans-serif;" transform="translate(192 60)" fill="#999999">1.035</text>
<text dominant-baseline="central" text-anchor="middle" style="font-size:12px;font-family:sans-serif;" y="6" transform="translate(200.6667 938)" fill="#999999">0</text>
<text dominant-baseline="central" text-anchor="middle" style="font-size:12px;font-family:sans-serif;" y="6" transform="translate(236.6667 938)" fill="#999999">27</text>
<text dominant-baseline="central" text-anchor="middle" style="font-size:12px;font-family:sans-serif;" y="6" transform="translate(272.6667 938)" fill="#999999">54</text>
<text dominant-baseline="central" text-anchor="middle" style="font-size:12px;font-family:sans-serif;" y="6" transform="translate(308.6667 938)" fill="#999999">81</text>
<text dominant-baseline="central" text-anchor="middle" style="font-size:12px;font-family:sans-serif;" y="6" transform="translate(344.6667 938)" fill="#999999">108</text>
<text dominant-baseline="central" text-anchor="middle" style="font-size:12px;font-family:sans-serif;" y="6" transform="translate(380.6667 938)" fill="#999999">135</text>
<text dominant-baseline="central" text-anchor="middle" style="font-size:12px;font-family:sans-serif;" y="6" transform="translate(416.6667 938)" fill="#999999">162</text>
<text dominant-baseline="central" text-anchor="middle" style="font-size:12px;font-family:sans-serif;" y="6" transform="translate(452.6667 938)" fill="#999999">189</text>
<text dominant-baseline="central" text-anchor="middle" style="font-size:12px;font-family:sans-serif;" y="6" transform="translate(488.6667 938)" fill="#999999">216</text>
<text dominant-baseline="central" text-anchor="middle" style="font-size:12px;font-family:sans-serif;" y="6" transform="translate(524.6667 938)" fill="#999999">243</text>
<text dominant-baseline="central" text-anchor="middle" style="font-size:12px;font-family:sans-serif;" y="6" transform="translate(560.6667 938)" fill="#999999">270</text>
<text dominant-baseline="central" text-anchor="middle" style="font-size:12px;font-family:sans-serif;" y="6" transform="translate(596.6667 938)" fill="#999999">297</text>
<text dominant-baseline="central" text-anchor="middle" style="font-size:12px;font-family:sans-serif;" y="6" transform="translate(632.6667 938)" fill="#999999">324</text>
<text dominant-baseline="central" text-anchor="middle" style="font-size:12px;font-family:sans-serif;" y="6" transform="translate(668.6667 938)" fill="#999999">351</text>
<text dominant-baseline="central" text-anchor="middle" style="font-size:12px;font-family:sans-serif;" y="6" transform="translate(704.6667 938)" fill="#999999">378</text>
<text dominant-baseline="central" text-anchor="middle" style="font-size:12px;font-family:sans-serif;" y="6" transform="translate(740.6667 938)" fill="#999999">405</text>
<text dominant-baseline="central" text-anchor="middle" style="font-size:12px;font-family:sans-serif;" y="6" transform="translate(776.6667 938)" fill="#999999">432</text>
<text dominant-baseline="central" text-anchor="middle" style="font-size:12px;font-family:sans-serif;" y="6" transform="translate(812.6667 938)" fill="#999999">459</text>
<text dominant-baseline="central" text-anchor="middle" style="font-size:12px;font-family:sans-serif;" y="6" transform="translate(848.6667 938)" fill="#999999">486</text>
<text dominant-baseline="central" text-anchor="middle" style="font-size:12px;font-family:sans-serif;" y="6" transform="translate(884.6667 938)" fill="#999999">513</text>
<text dominant-baseline="central" text-anchor="middle" style="font-size:12px;font-family:sans-serif;" y="6" transform="translate(920.6667 938)" fill="#999999">540</text>
<text dominant-baseline="central" text-anchor="middle" style="font-size:12px;font-family:sans-serif;" y="6" transform="translate(956.6667 938)" fill="#999999">567</text>
<text dominant-baseline="central" text-anchor="middle" style="font-size:12px;font-family:sans-serif;" y="6" transform="translate(992.6667 938)" fill="#999999">594</text>
<text dominant-baseline="central" text-anchor="middle" style="font-size:12px;font-family:sans-serif;" y="6" transform="translate(1028.6667 938)" fill="#999999">621</text>
<text dominant-baseline="central" text-anchor="middle" style="font-size:12px;font-family:sans-serif;" y="6" transform="translate(1064.6667 938)" fill="#999999">648</text>
<text dominant-baseline="central" text-anchor="middle" style="font-size:12px;font-family:sans-serif;" y="6" transform="translate(1100.6667 938)" fill="#999999">675</text>
<text dominant-baseline="central" text-anchor="middle" style="font-size:12px;font-family:sans-serif;" y="6" transform="translate(1136.6667 938)" fill="#999999">702</text>
<text dominant-baseline="central" text-anchor="middle" style="font-size:12px;font-family:sans-serif;" y="6" transform="translate(1172.6667 938)" fill="#999999">729</text>
<text dominant-baseline="central" text-anchor="middle" style="font-size:12px;font-family:sans-serif;" y="6" transform="translate(1208.6667 938)" fill="#999999">756</text>
<text dominant-baseline="central" text-anchor="middle" style="font-size:12px;font-family:sans-serif;" y="6" transform="translate(1244.6667 938)" fill="#999999">783</text>
<text dominant-baseline="central" text-anchor="middle" style="font-size:12px;font-family:sans-serif;" y="6" transform="translate(1280.6667 938)" fill="#999999">810</text>
<text dominant-baseline="central" text-anchor="middle" style="font-size:12px;font-family:sans-serif;" y="6" transform="translate(1316.6667 938)" fill="#999999">837</text>
<text dominant-baseline="central" text-anchor="middle" style="font-size:12px;font-family:sans-serif;" y="6" transform="translate(1352.6667 938)" fill="#999999">864</text>
<text dominant-baseline="central" text-anchor="middle" style="font-size:12px;font-family:sans-serif;" y="6" transform="translate(1388.6667 938)" fill="#999999">891</text>
<text dominant-baseline="central" text-anchor="middle" style="font-size:12px;font-family:sans-serif;" y="6" transform="translate(1424.6667 938)" fill="#999999">918</text>
<text dominant-baseline="central" text-anchor="middle" style="font-size:12px;font-family:sans-serif;" y="6" transform="translate(1460.6667 938)" fill="#999999">945</text>
<text dominant-baseline="central" text-anchor="middle" style="font-size:12px;font-family:sans-serif;" y="6" transform="translate(1496.6667 938)" fill="#999999">972</text>
<text dominant-baseline="central" text-anchor="middle" style="font-size:12px;font-family:sans-serif;" y="6" transform="translate(1532.6667 938)" fill="#999999">999</text>
<text dominant-baseline="central" text-anchor="middle" style="font-size:12px;font-family:sans-serif;" y="6" transform="translate(1568.6667 938)" fill="#999999">1026</text>
<text dominant-baseline="central" text-anchor="middle" style="font-size:12px;font-family:sans-serif;" y="6" transform="translate(1604.6667 938)" fill="#999999">1053</text>
<text dominant-baseline="central" text-anchor="middle" style="font-size:12px;font-family:sans-serif;" y="6" transform="translate(1640.6667 938)" fill="#999999">1080</text>
<text dominant-baseline="central" text-anchor="middle" style="font-size:12px;font-family:sans-serif;" y="6" transform="translate(1676.6667 938)" fill="#999999">1107</text>
<text dominant-baseline="central" text-anchor="middle" style="font-size:12px;font-family:sans-serif;" y="6" transform="translate(1712.6667 938)" fill="#999999">1134</text>
<text dominant-baseline="central" text-anchor="middle" style="font-size:12px;font-family:sans-serif;" y="6" transform="translate(1748.6667 938)" fill="#999999">1161</text>
<text dominant-baseline="central" text-anchor="middle" style="font-size:12px;font-family:sans-serif;" y="6" transform="translate(1784.6667 938)" fill="#999999">1188</text>
<g clip-path="url(#zr44-c0)">
<path d="M200.7 -12.5L202 108.3L203.3 459.3L204.7 290L206 529L207.3 358.1L208.7 571.8L210 396L211.3 483.8L212.7 351.7L214 557.5L215.3 396.3L216.7 539.3L218 294L219.3 619.3L220.7 390.4L222 583.5L223.3 354.4L224.7 606.9L226 374.7L227.3 593L228.7 398.3L230 633.6L231.3 347.8L232.7 497.3L234 380.5L235.3 623.6L236.7 409.2L238 602.3L239.3 367.9L240.7 628.2L242 400.9L243.3 662.3L244.7 347.7L246 628.8L247.3 407.1L248.7 621.9L250 308.4L251.3 624.7L252.7 426.7L254 655.6L255.3 385.5L256.7 593.8L258 411.9L259.3 620.8L260.7 394.8L262 556.5L263.3 349.7L264.7 528.3L266 308.8L267.3 451.7L268.7 343.2L270 537.9L271.3 328.3L272.7 538.2L274 239.6L275.3 547.1L276.7 330.5L278 542.1L279.3 274.6L280.7 465.6L282 259.8L283.3 519.5L284.7 333.5L286 456.3L287.3 328.9L288.7 563.1L290 243.5L291.3 552.1L292.7 307.1L294 585.2L295.3 335.2L296.7 551.7L298 273.3L299.3 499.5L300.7 289.5L302 539.8L303.3 321.6L304.7 557.5L306 312.6L307.3 526.2L308.7 279.3L310 586.4L311.3 329.6L312.7 502.1L314 322.2L315.3 510.9L316.7 330.9L318 512.4L319.3 321.6L320.7 598.8L322 131L323.3 561.3L324.7 363.2L326 558.8L327.3 361.7L328.7 558.5L330 335.6L331.3 560.3L332.7 346.2L334 566.2L335.3 357.2L336.7 514.8L338 357L339.3 537L340.7 247.9L342 507.2L343.3 326.1L344.7 616.5L346 240.2L347.3 606.1L348.7 375.1L350 642.6L351.3 206.5L352.7 571.5L354 379.6L355.3 585.3L356.7 310.3L358 617.1L359.3 389.8L360.7 654.8L362 322.8L363.3 587.8L364.7 394.8L366 580.4L367.3 356.3L368.7 646L370 392.9L371.3 517L372.7 323.7L374 616.7L375.3 -188.9L376.7 156.4L378 -343.4L379.3 114.7L380.7 -58.9L382 393.4L383.3 -126L384.7 451.3L386 250L387.3 520.8L388.7 -120.6L390 558.2L391.3 342.8L392.7 628.3L394 395L395.3 606.7L396.7 403.6L398 589.8L399.3 403.7L400.7 573.9L402 404.1L403.3 641.4L404.7 412.6L406 644.7L407.3 344.4L408.7 631.3L410 392.7L411.3 600.3L412.7 287.3L414 604.8L415.3 404.3L416.7 627.8L418 365.2L419.3 603.1L420.7 362.5L422 530.7L423.3 376.1L424.7 610L426 386.5L427.3 578.7L428.7 377.1L430 575.4L431.3 346L432.7 520L434 357.9L435.3 586.5L436.7 382.3L438 579.5L439.3 269.1L440.7 553.6L442 211.8L443.3 527.1L444.7 360.8L446 618.8L447.3 242.6L448.7 592.2L450 347.8L451.3 618.3L452.7 305.1L454 614.1L455.3 325.3L456.7 592.9L458 320.5L459.3 623.2L460.7 364.4L462 580.6L463.3 337.9L464.7 616.6L466 373.1L467.3 612L468.7 290.9L470 611.8L471.3 363.8L472.7 591.2L474 221.8L475.3 620.6L476.7 318.6L478 637.1L479.3 308.8L480.7 618.2L482 407.7L483.3 635L484.7 316.5L486 606.4L487.3 420.5L488.7 661.8L490 327.9L491.3 568.6L492.7 398.9L494 622.3L495.3 420L496.7 626.5L498 408.4L499.3 592.3L500.7 339.3L502 580.9L503.3 372.8L504.7 558.2L506 349.8L507.3 595.9L508.7 334.5L510 531.9L511.3 345.8L512.7 629.2L514 387.6L515.3 509L516.7 386.8L518 615.5L519.3 387.7L520.7 548.6L522 264.7L523.3 628L524.7 419.6L526 515.1L527.3 390.2L528.7 618.8L530 404.3L531.3 550.5L532.7 386.4L534 571.2L535.3 380.4L536.7 594.6L538 394.3L539.3 646.8L540.7 381.7L542 557.6L543.3 380.6L544.7 657.3L546 390L547.3 525.8L548.7 357.8L550 635.5L551.3 398L552.7 619.8L554 240.8L555.3 650.9L556.7 362.8L558 563.1L559.3 347.6L560.7 645.7L562 300.3L563.3 654.2L564.7 297.9L566 618.5L567.3 413.6L568.7 623.2L570 229.3L571.3 601.9L572.7 365L574 652.4L575.3 411.1L576.7 630.3L578 392.3L579.3 616.2L580.7 350.7L582 543.4L583.3 370L584.7 525L586 337.4L587.3 518L588.7 367.5L590 603.8L591.3 317.2L592.7 518.2L594 303.8L595.3 573.6L596.7 269L598 558.2L599.3 346.4L600.7 536.8L602 339.4L603.3 550.4L604.7 306.5L606 518.8L607.3 331.4L608.7 599.3L610 291.1L611.3 532.1L612.7 227.6L614 533.4L615.3 308.6L616.7 484.2L618 331.5L619.3 541.8L620.7 334.6L622 499L623.3 278.5L624.7 593.8L626 311.2L627.3 552.9L628.7 294.2L630 574.5L631.3 376.5L632.7 545.5L634 231.3L635.3 471.7L636.7 345L638 572.4L639.3 350.6L640.7 588.2L642 385.5L643.3 505.7L644.7 363.1L646 544.9L647.3 381.8L648.7 601.2L650 340.1L651.3 589.4L652.7 378.4L654 578.7L655.3 365.8L656.7 527.7L658 393.4L659.3 503.5L660.7 360.6L662 526.4L663.3 334.7L664.7 568.7L666 347.4L667.3 600.8L668.7 194.1L670 591.3L671.3 391.7L672.7 609.8L674 316.3L675.3 636.3L676.7 393.3L678 636.6L679.3 380.9L680.7 569L682 385L683.3 522.3L684.7 385.7L686 628.8L687.3 388.8L688.7 625.6L690 370.6L691.3 568L692.7 404L694 563.1L695.3 352.6L696.7 627.6L698 364.4L699.3 644.4L700.7 355.5L702 618.8L703.3 385.4L704.7 642.5L706 307.1L707.3 650.7L708.7 416.1L710 646.1L711.3 284.1L712.7 637L714 410.6L715.3 651.8L716.7 353.2L718 606.9L719.3 363.3L720.7 594.7L722 413.5L723.3 594.5L724.7 402.1L726 649.2L727.3 410.2L728.7 585.5L730 398.3L731.3 668.4L732.7 355.9L734 547.3L735.3 352.8L736.7 619.9L738 407.4L739.3 507L740.7 380L742 630.3L743.3 396.6L744.7 599.7L746 376L747.3 604.6L748.7 394.9L750 613.1L751.3 374.8L752.7 558.6L754 371.5L755.3 568.4L756.7 381.7L758 604.5L759.3 268.9L760.7 579.2L762 388.4L763.3 657.8L764.7 294.7L766 622L767.3 374.9L768.7 655.1L770 408.4L771.3 635.5L772.7 415.4L774 644.4L775.3 413.4L776.7 632.5L778 385.3L779.3 641.3L780.7 405.3L782 612.7L783.3 379.2L784.7 639.2L786 415.8L787.3 610.8L788.7 394.9L790 644.5L791.3 388.6L792.7 584.8L794 398L795.3 620.9L796.7 396.5L798 643L799.3 378.5L800.7 631.5L802 403.2L803.3 590L804.7 401.1L806 630.1L807.3 391.7L808.7 587.2L810 422L811.3 600.1L812.7 408.8L814 627.8L815.3 403.4L816.7 504.4L818 388.1L819.3 646.2L820.7 360.3L822 548.6L823.3 405.3L824.7 647.3L826 402.8L827.3 568.6L828.7 374.4L830 577.8L831.3 407.7L832.7 584.1L834 394.4L835.3 642.9L836.7 399.3L838 633.5L839.3 404.5L840.7 656.6L842 404.5L843.3 617.6L844.7 390.5L846 630.5L847.3 416.5L848.7 583.4L850 394.6L851.3 660.1L852.7 420.9L854 583.3L855.3 364L856.7 569.3L858 389.5L859.3 547.4L860.7 383.2L862 600.3L863.3 396.9L864.7 643.5L866 391.7L867.3 635.7L868.7 378.6L870 632.8L871.3 318L872.7 617L874 410.7L875.3 601.4L876.7 380.9L878 593.1L879.3 418.1L880.7 635.7L882 376L883.3 618.3L884.7 408.1L886 649.4L887.3 405L888.7 520.7L890 412.4L891.3 656.9L892.7 308.4L894 644.7L895.3 407.1L896.7 643L898 377.3L899.3 585.4L900.7 367L902 597.2L903.3 169.4L904.7 481.6L906 301.4L907.3 523.6L908.7 338.6L910 525.4L911.3 335.1L912.7 553.3L914 339.9L915.3 451.1L916.7 307.4L918 585.9L919.3 313.8L920.7 585.9L922 102.8L923.3 549.9L924.7 310.2L926 523.5L927.3 306.3L928.7 518.5L930 304.5L931.3 402.9L932.7 289.8L934 549.2L935.3 290.6L936.7 561.7L938 268.4L939.3 516.1L940.7 327.7L942 569.7L943.3 319.7L944.7 522.9L946 329.1L947.3 566.3L948.7 327.9L950 585.5L951.3 168.5L952.7 542.5L954 319.2L955.3 532.9L956.7 343.6L958 521.4L959.3 364.3L960.7 580.1L962 347L963.3 605.2L964.7 198L966 562.7L967.3 378.6L968.7 534.4L970 222.8L971.3 424.8L972.7 291.7L974 550.9L975.3 297.1L976.7 545.4L978 144.5L979.3 550.7L980.7 163.9L982 566.6L983.3 348.5L984.7 595.1L986 372L987.3 629.9L988.7 381.1L990 594.6L991.3 360.5L992.7 612.6L994 361.4L995.3 620.4L996.7 351.4L998 639.6L999.3 390.9L1000.7 590.9L1002 374.1L1003.3 616.6L1004.7 396.3L1006 500.1L1007.3 358.1L1008.7 500L1010 394L1011.3 544.6L1012.7 382.3L1014 626.5L1015.3 400L1016.7 579.2L1018 354.4L1019.3 592.8L1020.7 382.4L1022 510.4L1023.3 329.6L1024.7 600.3L1026 407.6L1027.3 603L1028.7 342.5L1030 572.9L1031.3 375.5L1032.7 538.2L1034 399.6L1035.3 633.1L1036.7 393.9L1038 553.4L1039.3 310.1L1040.7 628.9L1042 419.6L1043.3 657.1L1044.7 261.2L1046 635.7L1047.3 399.3L1048.7 592.7L1050 272.5L1051.3 625L1052.7 416.6L1054 624.5L1055.3 407.1L1056.7 628.6L1058 397.9L1059.3 654.4L1060.7 181.5L1062 551.2L1063.3 361.2L1064.7 561.7L1066 333.6L1067.3 604.2L1068.7 404.4L1070 539.2L1071.3 332.6L1072.7 568.9L1074 390L1075.3 584.2L1076.7 263.8L1078 592L1079.3 408.5L1080.7 609.9L1082 397.4L1083.3 589.7L1084.7 363L1086 618.2L1087.3 365.2L1088.7 646.1L1090 276.6L1091.3 604.2L1092.7 385.3L1094 593.6L1095.3 371.5L1096.7 565.2L1098 375.4L1099.3 655.2L1100.7 233.5L1102 629.4L1103.3 340.2L1104.7 595.1L1106 189.9L1107.3 585.8L1108.7 410.2L1110 629.3L1111.3 168L1112.7 615.6L1114 367.2L1115.3 642.2L1116.7 218.4L1118 615.1L1119.3 387L1120.7 645.8L1122 259.7L1123.3 627.3L1124.7 415.5L1126 652.6L1127.3 405L1128.7 590L1130 358.7L1131.3 626.8L1132.7 428.3L1134 611.6L1135.3 398.8L1136.7 612.3L1138 360.6L1139.3 624.1L1140.7 401.5L1142 564.1L1143.3 396L1144.7 587.3L1146 369.1L1147.3 590.8L1148.7 234L1150 592.2L1151.3 261.8L1152.7 624.5L1154 299.8L1155.3 619.3L1156.7 380.4L1158 633.7L1159.3 287.6L1160.7 629.4L1162 381.8L1163.3 641.7L1164.7 302.6L1166 628.3L1167.3 360.2L1168.7 615.7L1170 255.2L1171.3 620.6L1172.7 388.9L1174 647.4L1175.3 300L1176.7 615.5L1178 407.1L1179.3 620.6L1180.7 331.5L1182 595.3L1183.3 321L1184.7 541.4L1186 273.3L1187.3 590.3L1188.7 381L1190 604.7L1191.3 398.6L1192.7 650.8L1194 398.5L1195.3 583.3L1196.7 417.4L1198 575.1L1199.3 423.5L1200.7 636.7L1202 363.5L1203.3 637.5L1204.7 396L1206 589.3L1207.3 279.8L1208.7 633.8L1210 391.4L1211.3 663.8L1212.7 250.7L1214 624.8L1215.3 414.6L1216.7 659.1L1218 365.2L1219.3 559.3L1220.7 398.6L1222 556.1L1223.3 267L1224.7 583.9L1226 315.8L1227.3 599.6L1228.7 273.9L1230 501.1L1231.3 279.4L1232.7 529.6L1234 336.9L1235.3 504.3L1236.7 310.1L1238 523.9L1239.3 351.2L1240.7 488.9L1242 322.8L1243.3 583.2L1244.7 342.3L1246 597.5L1247.3 284.3L1248.7 541.8L1250 319.7L1251.3 576.1L1252.7 338L1254 538.7L1255.3 367.7L1256.7 498.3L1258 322.3L1259.3 535.4L1260.7 284.2L1262 563.4L1263.3 334.9L1264.7 501.8L1266 345.6L1267.3 563.9L1268.7 342.3L1270 504.7L1271.3 339.6L1272.7 599.9L1274 339.2L1275.3 596.8L1276.7 378.5L1278 509.4L1279.3 323.7L1280.7 560.7L1282 313.7L1283.3 462.5L1284.7 331.6L1286 591L1287.3 162.1L1288.7 572.7L1290 345.3L1291.3 579L1292.7 245.6L1294 450.7L1295.3 328.9L1296.7 589.5L1298 354.3L1299.3 567.6L1300.7 281.5L1302 597.4L1303.3 382.8L1304.7 557.6L1306 381.3L1307.3 576.1L1308.7 408.7L1310 511.7L1311.3 363.5L1312.7 618.3L1314 400.4L1315.3 579.5L1316.7 364.7L1318 593.9L1319.3 408.8L1320.7 566.4L1322 377.7L1323.3 554.4L1324.7 55.7L1326 543.1L1327.3 190.5L1328.7 521.4L1330 250.3L1331.3 565.6L1332.7 385.4L1334 483.5L1335.3 360L1336.7 643.1L1338 355.6L1339.3 575.4L1340.7 397.9L1342 645.1L1343.3 401.9L1344.7 574L1346 390.5L1347.3 652.9L1348.7 369.8L1350 525.9L1351.3 363.5L1352.7 649.7L1354 401.2L1355.3 650.9L1356.7 220.7L1358 632.3L1359.3 372.6L1360.7 641.3L1362 190.7L1363.3 516.9L1364.7 374.9L1366 626.9L1367.3 401.1L1368.7 599.4L1370 369L1371.3 648.4L1372.7 434.6L1374 602L1375.3 365.1L1376.7 618.4L1378 312.4L1379.3 607.7L1380.7 367.3L1382 607.1L1383.3 231.3L1384.7 600.4L1386 375.3L1387.3 569.2L1388.7 171.3L1390 597.5L1391.3 390.3L1392.7 510.3L1394 341.5L1395.3 607.6L1396.7 328.3L1398 508.1L1399.3 370.6L1400.7 618.4L1402 420.7L1403.3 607.9L1404.7 375.8L1406 597.7L1407.3 399.5L1408.7 619.5L1410 396.6L1411.3 655.8L1412.7 385.4L1414 605.8L1415.3 252.2L1416.7 638.4L1418 305.1L1419.3 619.3L1420.7 403.1L1422 647.2L1423.3 403.3L1424.7 634.3L1426 396.9L1427.3 590.2L1428.7 418.7L1430 610.6L1431.3 400.6L1432.7 643.1L1434 405L1435.3 588.5L1436.7 362.4L1438 591.1L1439.3 392.2L1440.7 588.2L1442 390.2L1443.3 636.7L1444.7 430L1446 650.9L1447.3 302.2L1448.7 635.6L1450 387L1451.3 629.7L1452.7 372.3L1454 629.5L1455.3 426.7L1456.7 589.9L1458 271.3L1459.3 570.4L1460.7 366.6L1462 632.5L1463.3 187.3L1464.7 590.8L1466 381.8L1467.3 563L1468.7 278.5L1470 614.2L1471.3 379.3L1472.7 625.5L1474 311L1475.3 605.6L1476.7 395.7L1478 619.3L1479.3 379L1480.7 624.6L1482 396.1L1483.3 648.9L1484.7 194.2L1486 622.9L1487.3 373.3L1488.7 663.1L1490 287.2L1491.3 615.8L1492.7 388.1L1494 623.4L1495.3 256.3L1496.7 573L1498 401.6L1499.3 629.4L1500.7 398.5L1502 622.9L1503.3 396.5L1504.7 627.5L1506 398.7L1507.3 608.7L1508.7 374.5L1510 680.7L1511.3 389.8L1512.7 586.4L1514 408.2L1515.3 581.8L1516.7 397.7L1518 582.3L1519.3 386.2L1520.7 632.5L1522 399.6L1523.3 665.2L1524.7 303L1526 644.4L1527.3 415.6L1528.7 605.6L1530 249.1L1531.3 584.6L1532.7 393L1534 595.6L1535.3 262.5L1536.7 596.3L1538 327L1539.3 573.3L1540.7 357.7L1542 559.4L1543.3 228.8L1544.7 508.5L1546 377.5L1547.3 527.3L1548.7 324.4L1550 566.7L1551.3 335.9L1552.7 514.8L1554 320.3L1555.3 581L1556.7 190.8L1558 582.7L1559.3 301.3L1560.7 526L1562 215L1563.3 540.7L1564.7 358.8L1566 578.1L1567.3 324.3L1568.7 535.8L1570 332.8L1571.3 563.9L1572.7 340.2L1574 566.9L1575.3 230.9L1576.7 526.8L1578 247.6L1579.3 506.7L1580.7 283.1L1582 417.5L1583.3 302.1L1584.7 530.8L1586 348.6L1587.3 575.5L1588.7 308.9L1590 602.1L1591.3 199.4L1592.7 540L1594 361.3L1595.3 586.6L1596.7 382.3L1598 491.6L1599.3 324.3L1600.7 584L1602 156L1603.3 582.8L1604.7 376.2L1606 563.9L1607.3 333.3L1608.7 503.2L1610 339.4L1611.3 580.6L1612.7 348.1L1614 577.2L1615.3 359.3L1616.7 547.8L1618 346L1619.3 525.9L1620.7 303.4L1622 492.6L1623.3 174.3L1624.7 598.6L1626 393.9L1627.3 497.4L1628.7 342.5L1630 566.4L1631.3 174.2L1632.7 523.4L1634 353.5L1635.3 624.9L1636.7 326.4L1638 601.2L1639.3 409.8L1640.7 567.2L1642 362.5L1643.3 616.2L1644.7 407.9L1646 636L1647.3 365.4L1648.7 641.9L1650 386.8L1651.3 633.3L1652.7 347.4L1654 610L1655.3 411.3L1656.7 597.2L1658 317.5L1659.3 628.3L1660.7 387.8L1662 629.6L1663.3 361.6L1664.7 627L1666 305L1667.3 619.2L1668.7 370.2L1670 633.6L1671.3 413L1672.7 652.8L1674 221.8L1675.3 596.1L1676.7 386.1L1678 603.7L1679.3 410.8L1680.7 595L1682 392.1L1683.3 635.8L1684.7 425L1686 630.6L1687.3 375.6L1688.7 666L1690 399.2L1691.3 578.2L1692.7 365.8L1694 636.2L1695.3 412.3L1696.7 535.9L1698 337.1L1699.3 617.5L1700.7 347.4L1702 582.4L1703.3 378.7L1704.7 557L1706 379.9L1707.3 589.3L1708.7 371.2L1710 612.9L1711.3 398.4L1712.7 595.1L1714 363L1715.3 576.9L1716.7 347.5L1718 584.1L1719.3 297.4L1720.7 619.4L1722 295L1723.3 589.3L1724.7 392.6L1726 624.3L1727.3 364.5L1728.7 618.8L1730 405.7L1731.3 567.3L1732.7 373.4L1734 617.9L1735.3 390.4L1736.7 544.4L1738 347.3L1739.3 612.4L1740.7 394.3L1742 614.6L1743.3 352.2L1744.7 594.8L1746 398L1747.3 601.8L1748.7 281.5L1750 631L1751.3 385.5L1752.7 623.6L1754 271L1755.3 647.5L1756.7 386.6L1758 633.6L1759.3 197.3L1760.7 577L1762 364.4L1763.3 585.6L1764.7 229L1766 535.1L1767.3 413.6L1768.7 588.7L1770 367.7L1771.3 605.3L1772.7 286.6L1774 604L1775.3 380.1L1776.7 631.5L1778 370.7L1779.3 620.2L1780.7 293.2L1782 590.5L1783.3 390L1784.7 474.4L1786 390.8L1787.3 649.3L1788.7 396.6L1790 537.5L1791.3 387.4L1792.7 639.8L1794 398.7L1795.3 560.1L1796.7 401.3L1798 615.6L1799.3 398" fill="transparent" stroke="#3fb1e3" stroke-width="3" stroke-linejoin="bevel" class="zr44-cls-134"></path>
</g>
<g clip-path="url(#zr44-c1)">
<path d="M200.7 -25.6L202 173.4L203.3 556.5L204.7 336.4L206 608.4L207.3 381.6L208.7 662.9L210 400.1L211.3 570.1L212.7 389.8L214 644.1L215.3 292.9L216.7 591.8L218 286.6L219.3 634L220.7 409.3L222 599.2L223.3 423.9L224.7 662.1L226 398.9L227.3 565.5L228.7 406.5L230 660.6L231.3 380.9L232.7 644L234 367.2L235.3 650.5L236.7 396.6L238 638.9L239.3 421.2L240.7 634.5L242 408.8L243.3 667.4L244.7 404L246 615L247.3 391.8L248.7 667.3L250 415.3L251.3 642.6L252.7 347.8L254 631.4L255.3 402.6L256.7 579.2L258 371.4L259.3 601.5L260.7 401.6L262 502.2L263.3 347L264.7 598.2L266 248.9L267.3 559.1L268.7 360.2L270 532L271.3 346.4L272.7 570L274 331.6L275.3 548.2L276.7 330.9L278 564.5L279.3 346.1L280.7 579.2L282 358.8L283.3 550.4L284.7 350.7L286 520.1L287.3 356.5L288.7 550.2L290 266.6L291.3 550.1L292.7 392.7L294 565.5L295.3 378.2L296.7 617.2L298 357.3L299.3 588.9L300.7 379.9L302 597.7L303.3 351.7L304.7 550.9L306 330.1L307.3 617L308.7 237.7L310 596.2L311.3 388.1L312.7 564.9L314 380.3L315.3 505.3L316.7 356.2L318 525.1L319.3 359.6L320.7 591.4L322 364.9L323.3 564.9L324.7 380.5L326 606.1L327.3 272.1L328.7 570.7L330 370.1L331.3 570.9L332.7 399.2L334 574.5L335.3 289.3L336.7 580.8L338 361.3L339.3 563.9L340.7 378.6L342 644.6L343.3 394.9L344.7 595.1L346 380.9L347.3 604.8L348.7 371.1L350 634.7L351.3 396L352.7 633.5L354 405.2L355.3 571.6L356.7 424.3L358 645.2L359.3 394.3L360.7 568.3L362 412.4L363.3 636.2L364.7 407.7L366 502.7L367.3 397.3L368.7 619L370 404.8L371.3 588.7L372.7 362L374 647.6L375.3 413.2L376.7 618.8L378 348.5L379.3 633.2L380.7 427.7L382 618.9L383.3 334.8L384.7 634L386 404.4L387.3 610.6L388.7 386.2L390 626.5L391.3 379.2L392.7 663.2L394 433.4L395.3 632.8L396.7 371.9L398 590.4L399.3 398.7L400.7 660.4L402 392.1L403.3 650.3L404.7 438.8L406 644.4L407.3 396.9L408.7 636.3L410 405.5L411.3 661L412.7 414L414 641.1L415.3 419.3L416.7 655.8L418 398.8L419.3 591.5L420.7 375.4L422 587.7L423.3 407.2L424.7 605.5L426 393.9L427.3 661.1L428.7 408.7L430 638.1L431.3 389.7L432.7 638.9L434 394.5L435.3 610.8L436.7 357.6L438 621.8L439.3 377.8L440.7 600.2L442 308.5L443.3 602.4L444.7 401L446 639.4L447.3 379.8L448.7 615.3L450 366.6L451.3 614.4L452.7 395.3L454 640.5L455.3 401.6L456.7 644.8L458 409.9L459.3 616.1L460.7 399.4L462 630.5L463.3 401.3L464.7 662.8L466 362L467.3 631.9L468.7 413.4L470 669.5L471.3 380.1L472.7 612.4L474 391.2L475.3 665.9L476.7 424.3L478 629.3L479.3 385.5L480.7 593.7L482 417.7L483.3 630.6L484.7 408.8L486 655.2L487.3 427.6L488.7 646.3L490 410.7L491.3 665.8L492.7 416.2L494 655.1L495.3 290.5L496.7 625L498 421.1L499.3 587.6L500.7 345.3L502 632.3L503.3 379.4L504.7 659.6L506 410.7L507.3 639L508.7 391.6L510 557.1L511.3 387.6L512.7 634.9L514 378.9L515.3 645.7L516.7 411.8L518 641L519.3 331.1L520.7 652.2L522 382.5L523.3 603.4L524.7 394.4L526 664.2L527.3 408.5L528.7 595.7L530 378.3L531.3 650.3L532.7 410.8L534 664.6L535.3 367.5L536.7 626.6L538 421.9L539.3 670.1L540.7 398.8L542 630.1L543.3 380.7L544.7 587.8L546 392.9L547.3 641.6L548.7 399L550 659.7L551.3 432.6L552.7 579.8L554 353.8L555.3 642.6L556.7 408.4L558 644.5L559.3 332.9L560.7 642L562 409.9L563.3 644L564.7 407L566 634.8L567.3 428.5L568.7 645L570 409.7L571.3 652.7L572.7 408.5L574 648.8L575.3 416.9L576.7 619.1L578 332.3L579.3 635.3L580.7 408.6L582 524.5L583.3 384.4L584.7 578L586 182.8L587.3 558.6L588.7 355.1L590 535.9L591.3 339.7L592.7 562L594 376.4L595.3 602.9L596.7 352.2L598 605.4L599.3 331.1L600.7 562.4L602 363.1L603.3 607.3L604.7 383.1L606 528L607.3 365.1L608.7 616.3L610 333.3L611.3 594.9L612.7 394.2L614 599.1L615.3 358.3L616.7 582.3L618 356.8L619.3 602.5L620.7 377L622 582.8L623.3 372.2L624.7 582.4L626 340.6L627.3 576.6L628.7 329L630 593.9L631.3 400.9L632.7 538.8L634 375.5L635.3 605.1L636.7 312.6L638 614L639.3 358.1L640.7 616.1L642 368.6L643.3 581.7L644.7 372.3L646 593.6L647.3 382.7L648.7 574.3L650 399.7L651.3 604.4L652.7 386L654 626L655.3 423.8L656.7 596.7L658 400.7L659.3 557.1L660.7 354.4L662 616.6L663.3 368.3L664.7 631.2L666 378.7L667.3 638.8L668.7 411.4L670 559.7L671.3 422L672.7 655.3L674 424.9L675.3 632L676.7 401.6L678 658.7L679.3 418.3L680.7 610.8L682 399.2L683.3 626.2L684.7 382.6L686 636.8L687.3 364L688.7 628L690 409.1L691.3 669.5L692.7 302.6L694 646.8L695.3 409.8L696.7 644L698 382.6L699.3 617.7L700.7 390.9L702 623.2L703.3 425.7L704.7 605L706 365.4L707.3 646.3L708.7 406.2L710 642.6L711.3 389.2L712.7 651.8L714 415.8L715.3 658.1L716.7 394.6L718 655.6L719.3 411.5L720.7 654.4L722 428.6L723.3 606.9L724.7 420L726 588.7L727.3 410.8L728.7 576.7L730 382.8L731.3 659.9L732.7 446.2L734 664.6L735.3 367.3L736.7 615.4L738 407.3L739.3 577.4L740.7 330.7L742 645.8L743.3 408.4L744.7 641.5L746 405.5L747.3 637.4L748.7 405L750 646.5L751.3 401.3L752.7 636.3L754 400.9L755.3 595.1L756.7 416.9L758 605L759.3 410.2L760.7 633.1L762 428.4L763.3 614.9L764.7 380.8L766 669.3L767.3 405.3L768.7 480.2L770 320.6L771.3 663.2L772.7 392.9L774 629.8L775.3 385.9L776.7 648.8L778 415.6L779.3 668L780.7 378.1L782 589.1L783.3 402.1L784.7 612.2L786 412.4L787.3 646.6L788.7 409.2L790 662.5L791.3 418.4L792.7 624.4L794 405L795.3 653.3L796.7 385.5L798 636.2L799.3 394.7L800.7 642L802 417.7L803.3 634.1L804.7 399.4L806 640.7L807.3 409.5L808.7 672.9L810 422.5L811.3 550.3L812.7 413L814 624.3L815.3 391.9L816.7 632.6L818 395L819.3 644.3L820.7 420.2L822 658.5L823.3 367.7L824.7 640.2L826 388.9L827.3 662.5L828.7 363.9L830 649.7L831.3 415L832.7 658.9L834 257.2L835.3 638.3L836.7 409.4L838 660.1L839.3 394.4L840.7 623L842 410.9L843.3 641.9L844.7 419L846 646.3L847.3 392.5L848.7 631.9L850 425.6L851.3 632L852.7 376.9L854 644.6L855.3 413.2L856.7 595.6L858 347.4L859.3 580.3L860.7 407.1L862 622.3L863.3 224.2L864.7 649.4L866 407.6L867.3 651.1L868.7 391L870 643.4L871.3 386.2L872.7 634.9L874 429.3L875.3 647L876.7 393.5L878 647.8L879.3 422L880.7 652.7L882 392.9L883.3 665.2L884.7 412.4L886 575.3L887.3 356L888.7 656L890 392.3L891.3 636L892.7 389.2L894 648.8L895.3 425.6L896.7 653.1L898 420L899.3 586.6L900.7 397.4L902 568.8L903.3 291L904.7 592.9L906 386L907.3 592.4L908.7 388L910 539.1L911.3 365.7L912.7 584.8L914 367L915.3 582.5L916.7 342.2L918 528.3L919.3 380.9L920.7 615.3L922 368L923.3 577L924.7 335.9L926 554.9L927.3 341L928.7 585.6L930 341.2L931.3 606.1L932.7 318.5L934 591.1L935.3 376.3L936.7 579.8L938 286.1L939.3 530.3L940.7 363.3L942 606.6L943.3 333.4L944.7 597.1L946 362.8L947.3 583.3L948.7 327.7L950 574.3L951.3 361.8L952.7 606L954 264.2L955.3 565L956.7 387L958 573.3L959.3 387.9L960.7 585.9L962 372.3L963.3 606.4L964.7 351.4L966 585.1L967.3 386.8L968.7 552.7L970 356L971.3 608.6L972.7 337.1L974 601.4L975.3 386L976.7 593.6L978 337.7L979.3 587.1L980.7 358.6L982 604.6L983.3 383.6L984.7 566.9L986 406.4L987.3 639.9L988.7 412.7L990 613.9L991.3 413.6L992.7 639.1L994 413.9L995.3 494.4L996.7 398.2L998 636.8L999.3 379.2L1000.7 641.6L1002 398.9L1003.3 646.4L1004.7 413L1006 636.5L1007.3 341.7L1008.7 605.2L1010 385.6L1011.3 622L1012.7 260.6L1014 622.2L1015.3 399.7L1016.7 615.8L1018 425.1L1019.3 646.5L1020.7 414.5L1022 592.5L1023.3 435.6L1024.7 623L1026 346.3L1027.3 621.3L1028.7 404.4L1030 626.2L1031.3 371L1032.7 600.7L1034 403.6L1035.3 663.5L1036.7 400.3L1038 609L1039.3 356.5L1040.7 622.7L1042 425.1L1043.3 625.3L1044.7 396.4L1046 644.5L1047.3 424.2L1048.7 575L1050 402.5L1051.3 650.1L1052.7 411.3L1054 583.6L1055.3 367.2L1056.7 641.5L1058 421.4L1059.3 601.2L1060.7 367.1L1062 618.3L1063.3 421.3L1064.7 643.7L1066 370.8L1067.3 642.6L1068.7 405.2L1070 662.6L1071.3 347.2L1072.7 607.2L1074 400.9L1075.3 627.5L1076.7 326.3L1078 623.2L1079.3 410.4L1080.7 628.2L1082 406.7L1083.3 612.9L1084.7 390.1L1086 662.6L1087.3 418.7L1088.7 636.2L1090 390.7L1091.3 660.3L1092.7 370.9L1094 618.6L1095.3 398.6L1096.7 664.3L1098 401.9L1099.3 603L1100.7 374L1102 661.8L1103.3 415.8L1104.7 636.8L1106 386L1107.3 612.5L1108.7 391.4L1110 601.3L1111.3 389.5L1112.7 622.8L1114 422.5L1115.3 659.1L1116.7 402.7L1118 603.8L1119.3 406.9L1120.7 650L1122 416.7L1123.3 640.2L1124.7 328.9L1126 636.2L1127.3 424.8L1128.7 609.2L1130 401.6L1131.3 598.9L1132.7 403.3L1134 638.4L1135.3 407.3L1136.7 672.1L1138 410.1L1139.3 618.3L1140.7 408.6L1142 606.1L1143.3 391.4L1144.7 616.2L1146 384L1147.3 617.8L1148.7 350.5L1150 625.6L1151.3 406.7L1152.7 627L1154 359.4L1155.3 613.2L1156.7 417.1L1158 651.6L1159.3 305.7L1160.7 606.7L1162 409.1L1163.3 611.3L1164.7 393.8L1166 617.4L1167.3 418.9L1168.7 637.3L1170 422L1171.3 621.2L1172.7 385.2L1174 652.1L1175.3 431.9L1176.7 631.5L1178 417.9L1179.3 640.2L1180.7 403.4L1182 624.6L1183.3 342.2L1184.7 633.7L1186 411.4L1187.3 631.2L1188.7 331.8L1190 661.5L1191.3 413.3L1192.7 659.1L1194 409.8L1195.3 617L1196.7 421.3L1198 656.3L1199.3 396.2L1200.7 608.7L1202 374.2L1203.3 649.3L1204.7 404.5L1206 670.1L1207.3 350.2L1208.7 650.5L1210 404.3L1211.3 662.1L1212.7 415.4L1214 602.2L1215.3 431.7L1216.7 640.9L1218 413.6L1219.3 622.7L1220.7 395.4L1222 599.9L1223.3 341.8L1224.7 581.8L1226 390.2L1227.3 581.3L1228.7 360.8L1230 604.8L1231.3 321.3L1232.7 614.7L1234 370L1235.3 602.1L1236.7 320.6L1238 583.9L1239.3 382.4L1240.7 532.2L1242 381.2L1243.3 589.3L1244.7 294.8L1246 587.7L1247.3 377.6L1248.7 580.1L1250 352.9L1251.3 474.5L1252.7 307.2L1254 571.6L1255.3 351.2L1256.7 576.8L1258 388.1L1259.3 601.9L1260.7 368.6L1262 580.3L1263.3 348.7L1264.7 599.3L1266 368.2L1267.3 590.8L1268.7 356.7L1270 570.1L1271.3 393.2L1272.7 601.4L1274 350.3L1275.3 582.5L1276.7 378.8L1278 587.1L1279.3 380.5L1280.7 585.7L1282 359.7L1283.3 584.6L1284.7 366.9L1286 628.2L1287.3 380.3L1288.7 580.5L1290 370.7L1291.3 581.2L1292.7 393.1L1294 612.4L1295.3 402.6L1296.7 542.7L1298 374.8L1299.3 614.9L1300.7 343L1302 625.1L1303.3 377.1L1304.7 573L1306 298.6L1307.3 657.4L1308.7 388.9L1310 603.9L1311.3 403.4L1312.7 660.9L1314 413.2L1315.3 532L1316.7 388.2L1318 630.5L1319.3 400L1320.7 534.3L1322 403.1L1323.3 657.1L1324.7 404.2L1326 633.3L1327.3 305.3L1328.7 661.2L1330 424.9L1331.3 658.9L1332.7 327.4L1334 629.9L1335.3 382.9L1336.7 646.8L1338 387.2L1339.3 615.6L1340.7 395L1342 661.9L1343.3 410.6L1344.7 623.6L1346 375.5L1347.3 658.4L1348.7 385.6L1350 641.6L1351.3 378.1L1352.7 621.1L1354 419.3L1355.3 660.5L1356.7 420L1358 650.7L1359.3 400.7L1360.7 622.1L1362 420.1L1363.3 617.2L1364.7 409.5L1366 624.7L1367.3 419.3L1368.7 607L1370 365.4L1371.3 657.3L1372.7 414.5L1374 636.3L1375.3 407.9L1376.7 596.7L1378 382.7L1379.3 622.3L1380.7 235L1382 629.1L1383.3 371.7L1384.7 637.3L1386 373.2L1387.3 614.2L1388.7 394.8L1390 592.1L1391.3 263.9L1392.7 614.3L1394 401.9L1395.3 639.4L1396.7 373.8L1398 623.3L1399.3 407.8L1400.7 596.6L1402 401.2L1403.3 617.6L1404.7 418.6L1406 652.6L1407.3 390.2L1408.7 624L1410 419.3L1411.3 642.4L1412.7 417.4L1414 623.5L1415.3 392.2L1416.7 607.7L1418 425.9L1419.3 669L1420.7 381.8L1422 636.4L1423.3 389.1L1424.7 633.3L1426 341.5L1427.3 603.5L1428.7 393.9L1430 640.5L1431.3 408.1L1432.7 625.2L1434 387.1L1435.3 632.1L1436.7 427.8L1438 620.1L1439.3 372.1L1440.7 647.7L1442 367.8L1443.3 672.1L1444.7 290.5L1446 647.4L1447.3 392.8L1448.7 641.2L1450 415.5L1451.3 634L1452.7 398.5L1454 650.4L1455.3 398.9L1456.7 645.3L1458 418.7L1459.3 666.9L1460.7 371.5L1462 656.1L1463.3 398.9L1464.7 581.6L1466 387.6L1467.3 469.5L1468.7 401.5L1470 599.2L1471.3 391.5L1472.7 630.3L1474 346.5L1475.3 628.3L1476.7 396.6L1478 659.6L1479.3 390L1480.7 648.1L1482 390.9L1483.3 622.1L1484.7 344.3L1486 595.9L1487.3 404.6L1488.7 657.2L1490 283.3L1491.3 640.8L1492.7 426.5L1494 656.9L1495.3 417.5L1496.7 610.3L1498 395.2L1499.3 670.5L1500.7 409.4L1502 581.1L1503.3 384.3L1504.7 640.9L1506 412.2L1507.3 598L1508.7 385L1510 640.3L1511.3 428L1512.7 630.3L1514 289.8L1515.3 624.9L1516.7 414.3L1518 642.4L1519.3 393.7L1520.7 638.9L1522 416.8L1523.3 656.1L1524.7 355.1L1526 645.1L1527.3 416.9L1528.7 653.2L1530 425.7L1531.3 621.5L1532.7 374.9L1534 628.3L1535.3 383.3L1536.7 637.3L1538 423.1L1539.3 630.7L1540.7 417.8L1542 617.5L1543.3 365.4L1544.7 609.4L1546 369.7L1547.3 587.3L1548.7 367.9L1550 565.3L1551.3 341.9L1552.7 573.4L1554 325.7L1555.3 574L1556.7 346.1L1558 529L1559.3 367.6L1560.7 556.8L1562 385.7L1563.3 590.8L1564.7 339.4L1566 573.4L1567.3 386.9L1568.7 566L1570 365.1L1571.3 531.1L1572.7 346.4L1574 624.9L1575.3 361.3L1576.7 611L1578 389.2L1579.3 582.9L1580.7 371.6L1582 499.9L1583.3 365.7L1584.7 605.6L1586 345.7L1587.3 604.6L1588.7 398.1L1590 595.9L1591.3 380.7L1592.7 598.6L1594 326.4L1595.3 573.8L1596.7 410.9L1598 596.4L1599.3 354.6L1600.7 578.8L1602 273.5L1603.3 582.9L1604.7 392.3L1606 592.5L1607.3 400.8L1608.7 609.8L1610 367.3L1611.3 616.8L1612.7 425.3L1614 589.2L1615.3 314.8L1616.7 581.3L1618 425.9L1619.3 589.3L1620.7 278.7L1622 555.1L1623.3 384.2L1624.7 613L1626 395L1627.3 628.3L1628.7 337.4L1630 572.4L1631.3 343.7L1632.7 638.5L1634 400.9L1635.3 540L1636.7 370.7L1638 602L1639.3 390.1L1640.7 475.8L1642 367.1L1643.3 657L1644.7 397.1L1646 619.4L1647.3 369.1L1648.7 608.6L1650 339.3L1651.3 623.6L1652.7 375.1L1654 633.1L1655.3 434.6L1656.7 641.2L1658 399.1L1659.3 637.8L1660.7 390.1L1662 624.7L1663.3 411.5L1664.7 612.4L1666 373.7L1667.3 661.4L1668.7 417.2L1670 596.9L1671.3 401.7L1672.7 661.4L1674 430.8L1675.3 642L1676.7 332.8L1678 629.1L1679.3 392.9L1680.7 615.5L1682 402.8L1683.3 636.7L1684.7 427L1686 660L1687.3 418.8L1688.7 643.1L1690 411.6L1691.3 606L1692.7 429.8L1694 661.1L1695.3 412.4L1696.7 667.5L1698 439.2L1699.3 623.6L1700.7 353.8L1702 649.6L1703.3 369.5L1704.7 576.6L1706 318L1707.3 634.9L1708.7 382.7L1710 633.8L1711.3 285.9L1712.7 625.1L1714 381.7L1715.3 585.2L1716.7 288.9L1718 626.8L1719.3 386.5L1720.7 578.3L1722 410.8L1723.3 641L1724.7 404.5L1726 642.9L1727.3 377.5L1728.7 627.7L1730 415.3L1731.3 660L1732.7 387.1L1734 602.6L1735.3 412.9L1736.7 657.9L1738 430L1739.3 660.5L1740.7 383.9L1742 656.9L1743.3 408.7L1744.7 660.1L1746 416.2L1747.3 640.1L1748.7 385.8L1750 598.1L1751.3 407.1L1752.7 635L1754 421.2L1755.3 645.3L1756.7 404.2L1758 650.4L1759.3 311.4L1760.7 610.2L1762 425.5L1763.3 650.6L1764.7 389.9L1766 629.2L1767.3 408.5L1768.7 640.4L1770 424.5L1771.3 631.2L1772.7 433.8L1774 639.9L1775.3 398.6L1776.7 622.9L1778 402.2L1779.3 657.4L1780.7 393.6L1782 572.8L1783.3 390.6L1784.7 594.1L1786 398.4L1787.3 551.8L1788.7 378.5L1790 611.9L1791.3 405.8L1792.7 568.1L1794 384.2L1795.3 660.8L1796.7 407.6L1798 653.8L1799.3 362" fill="transparent" stroke="#6be6c1" stroke-width="3" stroke-linejoin="bevel" class="zr44-cls-134"></path>
</g>
<g clip-path="url(#zr44-c2)">
<path d="M200.7 35.2L202 127.9L203.3 510.8L204.7 134.9L206 544L207.3 342.6L208.7 620.3L210 231.3L211.3 614.1L212.7 327.5L214 649.3L215.3 328.8L216.7 582.7L218 376.9L219.3 568.7L220.7 382.9L222 632.5L223.3 349.6L224.7 663.5L226 312.3L227.3 615.9L228.7 403.3L230 656.5L231.3 349.5L232.7 628.9L234 396.8L235.3 642.3L236.7 255L238 590.1L239.3 279.9L240.7 639.6L242 265.5L243.3 569.8L244.7 375.9L246 609.6L247.3 214.3L248.7 619.5L250 391.8L251.3 528L252.7 179L254 554.8L255.3 388.7L256.7 592.9L258 307.4L259.3 592.3L260.7 387.3L262 514.8L263.3 348.5L264.7 556.5L266 284.7L267.3 581.7L268.7 285.4L270 540.2L271.3 223.2L272.7 538.7L274 289.5L275.3 508L276.7 238L278 492.6L279.3 265.5L280.7 535.4L282 338L283.3 566.6L284.7 222.2L286 501.8L287.3 242L288.7 497.3L290 161.7L291.3 475.3L292.7 321.6L294 520.9L295.3 315.3L296.7 530.4L298 228.5L299.3 510.9L300.7 255.1L302 581.7L303.3 265L304.7 574.3L306 215.3L307.3 538.1L308.7 317.1L310 540L311.3 324.3L312.7 464.7L314 331.9L315.3 576.6L316.7 289.2L318 598.8L319.3 248.8L320.7 547.4L322 343.8L323.3 540.2L324.7 354.1L326 530.6L327.3 355.1L328.7 562.8L330 322.7L331.3 543.4L332.7 393.9L334 545L335.3 371.8L336.7 581.4L338 378.3L339.3 499.2L340.7 300.6L342 628L343.3 231.9L344.7 600.8L346 389L347.3 629.9L348.7 344.4L350 613.6L351.3 387.6L352.7 584.5L354 325.8L355.3 596L356.7 360.2L358 584L359.3 226.7L360.7 629.4L362 389.2L363.3 571L364.7 295.2L366 622.5L367.3 368L368.7 643.5L370 285.2L371.3 586.1L372.7 391.2L374 583.7L375.3 413.3L376.7 588.8L378 411.6L379.3 588.8L380.7 417.4L382 606.6L383.3 407.8L384.7 629L386 394.5L387.3 642L388.7 402.1L390 647L391.3 412.1L392.7 621.3L394 357.2L395.3 629.1L396.7 400.3L398 527.7L399.3 396.2L400.7 644.3L402 383.9L403.3 649.7L404.7 203.3L406 625.4L407.3 400.8L408.7 604.9L410 396.4L411.3 585.5L412.7 431.6L414 644.2L415.3 401.5L416.7 634.7L418 418.2L419.3 654.6L420.7 403.2L422 588.7L423.3 390.2L424.7 662.1L426 399.2L427.3 446.3L428.7 384.9L430 634.8L431.3 389.3L432.7 595.1L434 379.2L435.3 580.5L436.7 412.3L438 545L439.3 384.3L440.7 632.5L442 389.6L443.3 582.8L444.7 392.1L446 644.5L447.3 400.1L448.7 637.1L450 311.3L451.3 586L452.7 336.6L454 620.9L455.3 338.5L456.7 608.5L458 341.9L459.3 656.2L460.7 364.5L462 595.1L463.3 338L464.7 584L466 338L467.3 565L468.7 413.4L470 544.9L471.3 349.6L472.7 596.7L474 368.9L475.3 496.4L476.7 235L478 611.5L479.3 349.6L480.7 567.1L482 400.8L483.3 612.5L484.7 410.8L486 634.9L487.3 352.6L488.7 613.5L490 398.1L491.3 579.4L492.7 337.1L494 606.5L495.3 406.4L496.7 633.1L498 265.7L499.3 603L500.7 390.4L502 628L503.3 319.9L504.7 622.5L506 379.7L507.3 603.8L508.7 345.1L510 631L511.3 378.7L512.7 636.7L514 379L515.3 644.7L516.7 386.7L518 631.4L519.3 341.8L520.7 595.9L522 382L523.3 561.8L524.7 338L526 493.8L527.3 359.6L528.7 579L530 326.7L531.3 586.1L532.7 295.5L534 518.2L535.3 330.7L536.7 600.3L538 394.5L539.3 545.1L540.7 396.1L542 578.8L543.3 359.6L544.7 544.9L546 367.5L547.3 647.6L548.7 377.1L550 498.6L551.3 378.7L552.7 618.3L554 353.3L555.3 566.4L556.7 395.5L558 639.2L559.3 402.9L560.7 634.4L562 362.8L563.3 632.8L564.7 411.9L566 618.8L567.3 280.9L568.7 589.1L570 321.1L571.3 626.9L572.7 282.5L574 604.4L575.3 433.4L576.7 618.1L578 206L579.3 553.9L580.7 366.8L582 509.3L583.3 339.5L584.7 566.1L586 320.2L587.3 554.2L588.7 127.9L590 520.8L591.3 336.7L592.7 511.1L594 294.7L595.3 512.7L596.7 268.5L598 558.1L599.3 252.6L600.7 389.8L602 334.4L603.3 560L604.7 316.3L606 561.5L607.3 201.3L608.7 503.5L610 342.9L611.3 546.5L612.7 339.9L614 376.6L615.3 326.2L616.7 395.9L618 331.6L619.3 543.6L620.7 176.4L622 546L623.3 97.3L624.7 551.8L626 334.3L627.3 542.9L628.7 321L630 538.3L631.3 340.2L632.7 572.4L634 343.2L635.3 549.8L636.7 336.4L638 551L639.3 347.7L640.7 533.8L642 309.5L643.3 494.4L644.7 354.4L646 514.4L647.3 305.9L648.7 575L650 319.5L651.3 560.2L652.7 374L654 545.9L655.3 358.1L656.7 563.4L658 215.6L659.3 568.3L660.7 306.6L662 533.4L663.3 348.2L664.7 543.9L666 363.4L667.3 579.8L668.7 310.3L670 598.6L671.3 353.2L672.7 605L674 332.3L675.3 567.2L676.7 368.2L678 626.1L679.3 310.6L680.7 637L682 386.4L683.3 621.1L684.7 265.2L686 618.8L687.3 384.7L688.7 628.3L690 269.6L691.3 575.5L692.7 360.9L694 637.6L695.3 357.8L696.7 624.1L698 318.8L699.3 504.7L700.7 347.8L702 620.7L703.3 397.7L704.7 571.8L706 385.8L707.3 646.3L708.7 372L710 582L711.3 380.7L712.7 622.4L714 390.2L715.3 633.2L716.7 238.2L718 583.2L719.3 55.1L720.7 610.5L722 374.5L723.3 610.7L724.7 378.1L726 518.3L727.3 366.7L728.7 660.5L730 392.4L731.3 576.8L732.7 350.9L734 639.9L735.3 351.5L736.7 648.6L738 366.5L739.3 588.5L740.7 373.1L742 632.5L743.3 341.1L744.7 638.6L746 347.2L747.3 535.8L748.7 350.1L750 594.8L751.3 397.4L752.7 574.6L754 262.5L755.3 556.1L756.7 340.1L758 552.2L759.3 233.7L760.7 602.3L762 384.4L763.3 609L764.7 383.4L766 594.6L767.3 379L768.7 594.5L770 352.2L771.3 595.3L772.7 312.3L774 565L775.3 370.1L776.7 633.3L778 234.9L779.3 624.2L780.7 416.8L782 630.4L783.3 412.8L784.7 622.1L786 390.1L787.3 609.9L788.7 416.6L790 596L791.3 391.7L792.7 588.5L794 389.8L795.3 600.6L796.7 368.5L798 592.4L799.3 395.9L800.7 550.3L802 377.6L803.3 581.9L804.7 330.6L806 532.2L807.3 363.6L808.7 635.7L810 382.8L811.3 654.6L812.7 376.4L814 650.2L815.3 405L816.7 609.1L818 230L819.3 628.8L820.7 388.1L822 521.6L823.3 358.3L824.7 613.8L826 380.2L827.3 529.1L828.7 352L830 604.4L831.3 395.6L832.7 598.5L834 355.6L835.3 602L836.7 392.6L838 566.9L839.3 267.6L840.7 554.4L842 276.7L843.3 597L844.7 394.5L846 612L847.3 289.2L848.7 624.1L850 411L851.3 650.2L852.7 277.8L854 633.3L855.3 382.8L856.7 610.5L858 216.3L859.3 588.7L860.7 379L862 630.4L863.3 306.7L864.7 584L866 385.4L867.3 603L868.7 326.3L870 587L871.3 276.9L872.7 643.1L874 318.8L875.3 625.7L876.7 398.4L878 631.6L879.3 406.6L880.7 628.3L882 385.7L883.3 633.5L884.7 356.1L886 570.3L887.3 396L888.7 616.3L890 412.4L891.3 610.8L892.7 415.9L894 638L895.3 390.5L896.7 594.7L898 306.9L899.3 580.8L900.7 361.4L902 520.9L903.3 312.6L904.7 533.2L906 333.8L907.3 436.1L908.7 303.2L910 561.5L911.3 303.7L912.7 522.7L914 322L915.3 550.7L916.7 140.5L918 487.6L919.3 349.6L920.7 516.5L922 170L923.3 510.1L924.7 333.3L926 519L927.3 267.6L928.7 492.1L930 229.5L931.3 496.9L932.7 188.1L934 586L935.3 283L936.7 576.6L938 309.4L939.3 503.2L940.7 322.5L942 515.4L943.3 293L944.7 401.9L946 301L947.3 586.2L948.7 313.5L950 542.3L951.3 179.3L952.7 481.6L954 289L955.3 555.8L956.7 285.2L958 511.2L959.3 319.9L960.7 541.6L962 317L963.3 537.1L964.7 198.1L966 560.2L967.3 363.5L968.7 512.5L970 362.1L971.3 547.7L972.7 337.4L974 602L975.3 334.5L976.7 606L978 239.9L979.3 536.5L980.7 356.6L982 528.3L983.3 365.8L984.7 601.8L986 99.2L987.3 614.2L988.7 356.4L990 597L991.3 323.7L992.7 608.3L994 382.3L995.3 434.7L996.7 362.6L998 640L999.3 345.5L1000.7 589.4L1002 351.3L1003.3 618.6L1004.7 392.8L1006 571.8L1007.3 376.5L1008.7 581.9L1010 379.4L1011.3 569.1L1012.7 371.2L1014 636.9L1015.3 409.1L1016.7 602.4L1018 378.6L1019.3 648.7L1020.7 406.5L1022 628L1023.3 370.2L1024.7 632L1026 376.5L1027.3 640.2L1028.7 373.9L1030 619.8L1031.3 411.8L1032.7 660.4L1034 288L1035.3 638.2L1036.7 400.5L1038 638.3L1039.3 409.3L1040.7 624.8L1042 380.5L1043.3 595.1L1044.7 397.3L1046 612.3L1047.3 417.2L1048.7 619.7L1050 399.8L1051.3 608.2L1052.7 393.5L1054 635.2L1055.3 401.4L1056.7 499.3L1058 373.3L1059.3 628.6L1060.7 381.7L1062 563.3L1063.3 381.5L1064.7 593.7L1066 385.1L1067.3 597.5L1068.7 401.3L1070 653.6L1071.3 410.7L1072.7 622.4L1074 401.6L1075.3 629.5L1076.7 364.7L1078 607.2L1079.3 382.5L1080.7 616.7L1082 407.8L1083.3 554.9L1084.7 388.4L1086 597.7L1087.3 405.1L1088.7 595.2L1090 390.4L1091.3 624.5L1092.7 380.8L1094 508.1L1095.3 376.7L1096.7 596.2L1098 382.8L1099.3 491L1100.7 265.1L1102 609L1103.3 308.2L1104.7 553.7L1106 378.7L1107.3 619.6L1108.7 262.9L1110 564.6L1111.3 173.1L1112.7 633L1114 282.5L1115.3 546.7L1116.7 399.3L1118 605.4L1119.3 381.5L1120.7 639.4L1122 285.2L1123.3 617.6L1124.7 366.5L1126 586.1L1127.3 239.7L1128.7 600.9L1130 413.1L1131.3 584.7L1132.7 170L1134 595.8L1135.3 295.9L1136.7 529.6L1138 323.1L1139.3 552.7L1140.7 400.3L1142 527.2L1143.3 357L1144.7 601.4L1146 368.7L1147.3 543.4L1148.7 387.1L1150 605.7L1151.3 397.3L1152.7 531.7L1154 377L1155.3 633.8L1156.7 175.6L1158 576.1L1159.3 365.3L1160.7 576.5L1162 262.2L1163.3 619.2L1164.7 371L1166 581.7L1167.3 313.8L1168.7 592.3L1170 395.4L1171.3 585.8L1172.7 327.4L1174 613.5L1175.3 405L1176.7 642.8L1178 262.7L1179.3 614.8L1180.7 392L1182 646.3L1183.3 268.7L1184.7 599.7L1186 396.4L1187.3 662.6L1188.7 249.1L1190 582.2L1191.3 389.4L1192.7 621.7L1194 339.7L1195.3 599L1196.7 369.8L1198 621.3L1199.3 396.5L1200.7 560.8L1202 347.7L1203.3 557L1204.7 407.2L1206 602.8L1207.3 352.8L1208.7 639.4L1210 348.5L1211.3 592.8L1212.7 393.4L1214 575.3L1215.3 375L1216.7 591.4L1218 272.3L1219.3 648.2L1220.7 263.5L1222 558.4L1223.3 354.7L1224.7 564.7L1226 351.2L1227.3 563.3L1228.7 326.7L1230 493.9L1231.3 324L1232.7 365.6L1234 299.9L1235.3 558.1L1236.7 218.1L1238 518.6L1239.3 295.2L1240.7 -1477.1L1242 -212.3L1243.3 200.6L1244.7 66.2L1246 59.2L1247.3 -56.1L1248.7 388.1L1250 49.5L1251.3 357.9L1252.7 -834.9L1254 183.1L1255.3 111L1256.7 371.7L1258 55.3L1259.3 366.1L1260.7 37.7L1262 220.3L1263.3 2.5L1264.7 373.6L1266 -148.7L1267.3 468.9L1268.7 248.6L1270 354.5L1271.3 -399.5L1272.7 185.8L1274 46.3L1275.3 430.9L1276.7 209.2L1278 503.2L1279.3 116.2L1280.7 275.7L1282 -54.3L1283.3 453.4L1284.7 211.2L1286 537.1L1287.3 84.6L1288.7 424.7L1290 192L1291.3 530.1L1292.7 339.6L1294 489L1295.3 320.9L1296.7 528.3L1298 286L1299.3 464.5L1300.7 329.4L1302 568.7L1303.3 260.6L1304.7 601.3L1306 359L1307.3 567.6L1308.7 314.9L1310 566.4L1311.3 383.1L1312.7 275.2L1314 349.6L1315.3 564.5L1316.7 402.6L1318 568.6L1319.3 361.5L1320.7 632.4L1322 378.5L1323.3 564.1L1324.7 371.9L1326 612.6L1327.3 233.9L1328.7 541.4L1330 343.1L1331.3 570.7L1332.7 245.1L1334 617.3L1335.3 376.2L1336.7 637L1338 137.4L1339.3 621.6L1340.7 275.7L1342 617L1343.3 247.3L1344.7 608.2L1346 371.1L1347.3 650L1348.7 160.8L1350 570.8L1351.3 264.2L1352.7 625.1L1354 228.7L1355.3 562.1L1356.7 377.5L1358 640.5L1359.3 332.4L1360.7 562.9L1362 406.3L1363.3 626.3L1364.7 361.7L1366 593.1L1367.3 366.2L1368.7 635.6L1370 399.6L1371.3 587.6L1372.7 425.5L1374 631.9L1375.3 412.9L1376.7 497.9L1378 333.6L1379.3 619.1L1380.7 258.9L1382 579.6L1383.3 370.8L1384.7 607.7L1386 304L1387.3 602.8L1388.7 385.9L1390 539.4L1391.3 151.3L1392.7 569.8L1394 375.3L1395.3 574.7L1396.7 345.5L1398 648.9L1399.3 309.5L1400.7 599.1L1402 373.9L1403.3 637.4L1404.7 240.8L1406 553.3L1407.3 348L1408.7 589.8L1410 250L1411.3 602.4L1412.7 386.1L1414 617.2L1415.3 278L1416.7 614.9L1418 367.3L1419.3 629.1L1420.7 207.8L1422 573.7L1423.3 383.3L1424.7 581.9L1426 269.1L1427.3 592.9L1428.7 311.2L1430 632.6L1431.3 168.9L1432.7 603.8L1434 382.5L1435.3 607.4L1436.7 285.5L1438 603.4L1439.3 374.1L1440.7 658.7L1442 283.3L1443.3 596.1L1444.7 369.8L1446 639.7L1447.3 418L1448.7 -757.6L1450 -36.9L1451.3 113.5L1452.7 -49.5L1454 267.3L1455.3 -185L1456.7 506.9L1458 185.5L1459.3 457.6L1460.7 172.3L1462 236.8L1463.3 94.2L1464.7 568.7L1466 279.4L1467.3 567.7L1468.7 375.9L1470 527.1L1471.3 248.1L1472.7 571.8L1474 348.5L1475.3 561L1476.7 352.5L1478 620.6L1479.3 381.5L1480.7 604.6L1482 386.4L1483.3 612.8L1484.7 390.8L1486 555.5L1487.3 386L1488.7 645.8L1490 374.4L1491.3 568.8L1492.7 391.8L1494 583.1L1495.3 166.8L1496.7 596.4L1498 246.1L1499.3 632.2L1500.7 263L1502 572.9L1503.3 381.2L1504.7 641.4L1506 258.4L1507.3 618.6L1508.7 339.2L1510 571.3L1511.3 321.7L1512.7 584.5L1514 377.4L1515.3 589.3L1516.7 346.1L1518 605.6L1519.3 262.8L1520.7 621L1522 353.3L1523.3 583.6L1524.7 383.2L1526 542.3L1527.3 372.3L1528.7 613.6L1530 302.6L1531.3 655.6L1532.7 314.8L1534 608.1L1535.3 291.9L1536.7 616.5L1538 216.1L1539.3 619.3L1540.7 371.5L1542 538.6L1543.3 327.3L1544.7 556L1546 308.9L1547.3 561.2L1548.7 335.4L1550 588.9L1551.3 161.3L1552.7 482.3L1554 230.8L1555.3 520.3L1556.7 311.9L1558 532.8L1559.3 319.7L1560.7 499.4L1562 267.5L1563.3 433.5L1564.7 280.7L1566 536.2L1567.3 255.3L1568.7 582L1570 154.4L1571.3 564.4L1572.7 227L1574 475.2L1575.3 312.8L1576.7 496.5L1578 319.6L1579.3 517.9L1580.7 339L1582 402.8L1583.3 299.3L1584.7 588.7L1586 229.5L1587.3 545.5L1588.7 355.4L1590 514.3L1591.3 341.3L1592.7 549.7L1594 291.7L1595.3 588.2L1596.7 274.6L1598 579.4L1599.3 200.5L1600.7 518.2L1602 344.3L1603.3 518.7L1604.7 281L1606 536.3L1607.3 337.9L1608.7 550.5L1610 309.5L1611.3 603.4L1612.7 168.7L1614 590.3L1615.3 346.1L1616.7 617.8L1618 376L1619.3 506.1L1620.7 327.2L1622 612.1L1623.3 394.5L1624.7 614.6L1626 401L1627.3 605.8L1628.7 404.2L1630 623.4L1631.3 383.6L1632.7 608.8L1634 275.2L1635.3 515.2L1636.7 355.9L1638 620.8L1639.3 199.2L1640.7 584.6L1642 364.2L1643.3 644L1644.7 289L1646 597.2L1647.3 395L1648.7 655.1L1650 275.4L1651.3 627.8L1652.7 367.1L1654 597.7L1655.3 381.8L1656.7 612.4L1658 386.6L1659.3 651.9L1660.7 414L1662 550.7L1663.3 325L1664.7 586.3L1666 393.9L1667.3 636.3L1668.7 366.4L1670 641.6L1671.3 396.7L1672.7 578L1674 388.9L1675.3 632.4L1676.7 409.3L1678 636.8L1679.3 362.4L1680.7 634.5L1682 370.2L1683.3 598.2L1684.7 375L1686 622.2L1687.3 436.6L1688.7 657L1690 363.3L1691.3 608.4L1692.7 413.8L1694 550.7L1695.3 389.8L1696.7 636.3L1698 379.2L1699.3 649.8L1700.7 372.6L1702 601.5L1703.3 366.5L1704.7 618.3L1706 363.9L1707.3 586.9L1708.7 374.7L1710 588.3L1711.3 268.7L1712.7 611.6L1714 403.9L1715.3 632L1716.7 314.9L1718 633L1719.3 418.4L1720.7 650.1L1722 128.6L1723.3 584.5L1724.7 382.3L1726 609.3L1727.3 163.2L1728.7 601.2L1730 411.5L1731.3 642.3L1732.7 311.9L1734 623.1L1735.3 384.9L1736.7 607.9L1738 324.3L1739.3 603.4L1740.7 374.9L1742 566L1743.3 189.1L1744.7 604.3L1746 366L1747.3 627.4L1748.7 342L1750 584.1L1751.3 373.2L1752.7 627.7L1754 402.9L1755.3 600.1L1756.7 406.3L1758 595.4L1759.3 383.3L1760.7 620.1L1762 351.9L1763.3 611.2L1764.7 305.2L1766 614.6L1767.3 380.2L1768.7 589L1770 386.6L1771.3 510.1L1772.7 396.1L1774 632.4L1775.3 412.4L1776.7 522.1L1778 355.4L1779.3 634.4L1780.7 391.8L1782 550.2L1783.3 377.3L1784.7 622.5L1786 414.1L1787.3 588.7L1788.7 333.2L1790 627.4L1791.3 404.2L1792.7 597.6L1794 371.2L1795.3 630.7L1796.7 395.1L1798 610.5L1799.3 377" fill="transparent" stroke="#626c91" stroke-width="3" stroke-linejoin="bevel" class="zr44-cls-134"></path>
</g>
<path d="M-304.3 -5l608.7 0l0 28l-608.7 0Z" transform="translate(1000 5)" fill="rgb(0,0,0)" fill-opacity="0" stroke="#ccc" stroke-width="0" class="zr44-cls-132"></path>
<text dominant-baseline="central" text-anchor="middle" style="font-size:18px;font-family:sans-serif;font-weight:bold;" xml:space="preserve" y="9" transform="translate(1000 5)" fill="#666666">controlBehaviorUpdate per Tick for bench_1_every_60_staggered_reverse</text>
<defs >
<clipPath id="zr44-c0">
<path d="M198 58.5l16004 0l0 8703l-16004 0Z" fill="#000" class="zr44-cls-133"></path>
</clipPath>
<clipPath id="zr44-c1">
<path d="M198 58.5l16004 0l0 8703l-16004 0Z" fill="#000" class="zr44-cls-133"></path>
</clipPath>
<clipPath id="zr44-c2">
<path d="M198 58.5l16004 0l0 8703l-16004 0Z" fill="#000" class="zr44-cls-133"></path>
</clipPath>
</defs>
<style ><![CDATA[
.zr44-cls-132:hover {
pointer-events:none;
}
.zr44-cls-133:hover {
cursor:pointer;
fill:rgba(0,0,0,1);
}
.zr44-cls-134:hover {
cursor:pointer;
}

]]>

</style>
</svg>