<svg width="2000" height="1000" xmlns="http://www.w3.org/2000/svg" xmlns:xlink="http://www.w3.org/1999/xlink" version="1.1" baseProfile="full" viewBox="0 0 2000 1000">
<rect width="2000" height="1000" x="0" y="0" fill="rgb(252,252,252)" fill-opacity="0"></rect>
<path d="M200 930.5L1800 930.5" fill="transparent" stroke="#eeeeee" class="zr2-cls-6"></path>
<path d="M200 797.5L1800 797.5" fill="transparent" stroke="#eeeeee" class="zr2-cls-6"></path>
<path d="M200 665.5L1800 665.5" fill="transparent" stroke="#eeeeee" class="zr2-cls-6"></path>
<path d="M200 532.5L1800 532.5" fill="transparent" stroke="#eeeeee" class="zr2-cls-6"></path>
<path d="M200 399.5L1800 399.5" fill="transparent" stroke="#eeeeee" class="zr2-cls-6"></path>
<path d="M200 267.5L1800 267.5" fill="transparent" stroke="#eeeeee" class="zr2-cls-6"></path>
<path d="M200 134.5L1800 134.5" fill="transparent" stroke="#eeeeee" class="zr2-cls-6"></path>
<path d="M200 60.5L1800 60.5" fill="transparent" stroke="#eeeeee" class="zr2-cls-6"></path>
<path d="M200.5 930L200.5 60" fill="transparent" stroke="#cccccc" stroke-linecap="round" class="zr2-cls-6"></path>
<text dominant-baseline="central" text-anchor="middle" style="font-size:12px;font-family:sans-serif;" xml:space="preserve" y="-6" transform="translate(200 45)" fill="#cccccc">transportLinesUpdate Time (ms)</text>
<path d="M200 930.5L1800 930.5" fill="transparent" stroke="#cccccc" stroke-linecap="round" class="zr2-cls-6"></path>
<text dominant-baseline="central" text-anchor="end" style="font-size:12px;font-family:sans-serif;" transform="translate(192 930)" fill="#999999">0.000</text>
<text dominant-baseline="central" text-anchor="end" style="font-size:12px;font-family:sans-serif;" transform="translate(192 797.381)" fill="#999999">0.050</text>
<text dominant-baseline="central" text-anchor="end" style="font-size:12px;font-family:sans-serif;" transform="translate(192 664.762)" fill="#999999">0.100</text>
<text dominant-baseline="central" text-anchor="end" style="font-size:12px;font-family:sans-serif;" transform="translate(192 532.1431)" fill="#999999">0.150</text>
<text dominant-baseline="central" text-anchor="end" style="font-size:12px;font-family:sans-serif;" transform="translate(192 399.5241)" fill="#999999">0.200</text>
<text dominant-baseline="central" text-anchor="end" style="font-size:12px;font-family:sans-serif;" transform="translate(192 266.9051)" fill="#999999">0.250</text>
<text dominant-baseline="central" text-anchor="end" style="font-size:12px;font-family:sans-serif;" transform="translate(192 134.2861)" fill="#999999">0.300</text>
<text dominant-baseline="central" text-anchor="end" style="font-size:12px;font-family:sans-serif;" transform="translate(192 60)" fill="#999999">0.328</text>
<text dominant-baseline="central" text-anchor="middle" style="font-size:12px;font-family:sans-serif;" y="6" transform="translate(200.6667 938)" fill="#999999">0</text>
<text dominant-baseline="central" text-anchor="middle" style="font-size:12px;font-family:sans-serif;" y="6" transform="translate(236.6667 938)" fill="#999999">27</text>
<text dominant-baseline="central" text-anchor="middle" style="font-size:12px;font-family:sans-serif;" y="6" transform="translate(272.6667 938)" fill="#999999">54</text>
<text dominant-baseline="central" text-anchor="middle" style="font-size:12px;font-family:sans-serif;" y="6" transform="translate(308.6667 938)" fill="#999999">81</text>
<text dominant-baseline="central" text-anchor="middle" style="font-size:12px;font-family:sans-serif;" y="6" transform="translate(344.6667 938)" fill="#999999">108</text>
<text dominant-baseline="central" text-anchor="middle" style="font-size:12px;font-family:sans-serif;" y="6" transform="translate(380.6667 938)" fill="#999999">135</text>
<text dominant-baseline="central" text-anchor="middle" style="font-size:12px;font-family:sans-serif;" y="6" transform="translate(416.6667 938)" fill="#999999">162</text>
<text dominant-baseline="central" text-anchor="middle" style="font-size:12px;font-family:sans-serif;" y="6" transform="translate(452.6667 938)" fill="#999999">189</text>
<text dominant-baseline="central" text-anchor="middle" style="font-size:12px;font-family:sans-serif;" y="6" transform="translate(488.6667 938)" fill="#999999">216</text>
<text dominant-baseline="central" text-anchor="middle" style="font-size:12px;font-family:sans-serif;" y="6" transform="translate(524.6667 938)" fill="#999999">243</text>
<text dominant-baseline="central" text-anchor="middle" style="font-size:12px;font-family:sans-serif;" y="6" transform="translate(560.6667 938)" fill="#999999">270</text>
<text dominant-baseline="central" text-anchor="middle" style="font-size:12px;font-family:sans-serif;" y="6" transform="translate(596.6667 938)" fill="#999999">297</text>
<text dominant-baseline="central" text-anchor="middle" style="font-size:12px;font-family:sans-serif;" y="6" transform="translate(632.6667 938)" fill="#999999">324</text>
<text dominant-baseline="central" text-anchor="middle" style="font-size:12px;font-family:sans-serif;" y="6" transform="translate(668.6667 938)" fill="#999999">351</text>
<text dominant-baseline="central" text-anchor="middle" style="font-size:12px;font-family:sans-serif;" y="6" transform="translate(704.6667 938)" fill="#999999">378</text>
<text dominant-baseline="central" text-anchor="middle" style="font-size:12px;font-family:sans-serif;" y="6" transform="translate(740.6667 938)" fill="#999999">405</text>
<text dominant-baseline="central" text-anchor="middle" style="font-size:12px;font-family:sans-serif;" y="6" transform="translate(776.6667 938)" fill="#999999">432</text>
<text dominant-baseline="central" text-anchor="middle" style="font-size:12px;font-family:sans-serif;" y="6" transform="translate(812.6667 938)" fill="#999999">459</text>
<text dominant-baseline="central" text-anchor="middle" style="font-size:12px;font-family:sans-serif;" y="6" transform="translate(848.6667 938)" fill="#999999">486</text>
<text dominant-baseline="central" text-anchor="middle" style="font-size:12px;font-family:sans-serif;" y="6" transform="translate(884.6667 938)" fill="#999999">513</text>
<text dominant-baseline="central" text-anchor="middle" style="font-size:12px;font-family:sans-serif;" y="6" transform="translate(920.6667 938)" fill="#999999">540</text>
<text dominant-baseline="central" text-anchor="middle" style="font-size:12px;font-family:sans-serif;" y="6" transform="translate(956.6667 938)" fill="#999999">567</text>
<text dominant-baseline="central" text-anchor="middle" style="font-size:12px;font-family:sans-serif;" y="6" transform="translate(992.6667 938)" fill="#999999">594</text>
<text dominant-baseline="central" text-anchor="middle" style="font-size:12px;font-family:sans-serif;" y="6" transform="translate(1028.6667 938)" fill="#999999">621</text>
<text dominant-baseline="central" text-anchor="middle" style="font-size:12px;font-family:sans-serif;" y="6" transform="translate(1064.6667 938)" fill="#999999">648</text>
<text dominant-baseline="central" text-anchor="middle" style="font-size:12px;font-family:sans-serif;" y="6" transform="translate(1100.6667 938)" fill="#999999">675</text>
<text dominant-baseline="central" text-anchor="middle" style="font-size:12px;font-family:sans-serif;" y="6" transform="translate(1136.6667 938)" fill="#999999">702</text>
<text dominant-baseline="central" text-anchor="middle" style="font-size:12px;font-family:sans-serif;" y="6" transform="translate(1172.6667 938)" fill="#999999">729</text>
<text dominant-baseline="central" text-anchor="middle" style="font-size:12px;font-family:sans-serif;" y="6" transform="translate(1208.6667 938)" fill="#999999">756</text>
<text dominant-baseline="central" text-anchor="middle" style="font-size:12px;font-family:sans-serif;" y="6" transform="translate(1244.6667 938)" fill="#999999">783</text>
<text dominant-baseline="central" text-anchor="middle" style="font-size:12px;font-family:sans-serif;" y="6" transform="translate(1280.6667 938)" fill="#999999">810</text>
<text dominant-baseline="central" text-anchor="middle" style="font-size:12px;font-family:sans-serif;" y="6" transform="translate(1316.6667 938)" fill="#999999">837</text>
<text dominant-baseline="central" text-anchor="middle" style="font-size:12px;font-family:sans-serif;" y="6" transform="translate(1352.6667 938)" fill="#999999">864</text>
<text dominant-baseline="central" text-anchor="middle" style="font-size:12px;font-family:sans-serif;" y="6" transform="translate(1388.6667 938)" fill="#999999">891</text>
<text dominant-baseline="central" text-anchor="middle" style="font-size:12px;font-family:sans-serif;" y="6" transform="translate(1424.6667 938)" fill="#999999">918</text>
<text dominant-baseline="central" text-anchor="middle" style="font-size:12px;font-family:sans-serif;" y="6" transform="translate(1460.6667 938)" fill="#999999">945</text>
<text dominant-baseline="central" text-anchor="middle" style="font-size:12px;font-family:sans-serif;" y="6" transform="translate(1496.6667 938)" fill="#999999">972</text>
<text dominant-baseline="central" text-anchor="middle" style="font-size:12px;font-family:sans-serif;" y="6" transform="translate(1532.6667 938)" fill="#999999">999</text>
<text dominant-baseline="central" text-anchor="middle" style="font-size:12px;font-family:sans-serif;" y="6" transform="translate(1568.6667 938)" fill="#999999">1026</text>
<text dominant-baseline="central" text-anchor="middle" style="font-size:12px;font-family:sans-serif;" y="6" transform="translate(1604.6667 938)" fill="#999999">1053</text>
<text dominant-baseline="central" text-anchor="middle" style="font-size:12px;font-family:sans-serif;" y="6" transform="translate(1640.6667 938)" fill="#999999">1080</text>
<text dominant-baseline="central" text-anchor="middle" style="font-size:12px;font-family:sans-serif;" y="6" transform="translate(1676.6667 938)" fill="#999999">1107</text>
<text dominant-baseline="central" text-anchor="middle" style="font-size:12px;font-family:sans-serif;" y="6" transform="translate(1712.6667 938)" fill="#999999">1134</text>
<text dominant-baseline="central" text-anchor="middle" style="font-size:12px;font-family:sans-serif;" y="6" transform="translate(1748.6667 938)" fill="#999999">1161</text>
<text dominant-baseline="central" text-anchor="middle" style="font-size:12px;font-family:sans-serif;" y="6" transform="translate(1784.6667 938)" fill="#999999">1188</text>
<g clip-path="url(#zr2-c0)">
<path d="M200.7 494.2L202 684.9L203.3 630.3L204.7 723.6L206 696.6L207.3 738L208.7 637.2L210 715.4L211.3 310.1L212.7 741.9L214 608.5L215.3 681.2L216.7 649.4L218 706.7L219.3 567.4L220.7 690.8L222 587.3L223.3 704L224.7 556.5L226 687.6L227.3 573.3L228.7 653.4L230 502.4L231.3 671.9L232.7 531.6L234 609.9L235.3 438.2L236.7 642L238 401.1L239.3 570.9L240.7 351.8L242 577.8L243.3 422.6L244.7 458.9L246 351L247.3 577.5L248.7 356L250 581.5L251.3 348.9L252.7 580.9L254 366.9L255.3 586.8L256.7 270.1L258 606.1L259.3 234.3L260.7 588.4L262 291.6L263.3 617.8L264.7 324.7L266 597.4L267.3 578.6L268.7 763.7L270 764.8L271.3 747.8L272.7 743L274 746.2L275.3 794.2L276.7 752.8L278 684.7L279.3 674L280.7 738L282 739.6L283.3 689.7L284.7 698.2L286 668.2L287.3 734.5L288.7 658.9L290 734.8L291.3 685.5L292.7 756.5L294 664.5L295.3 647.3L296.7 648.1L298 711.2L299.3 615.4L300.7 691.8L302 597.7L303.3 600.8L304.7 588.9L306 699.2L307.3 625L308.7 683.9L310 548.6L311.3 395L312.7 547L314 690.8L315.3 490.5L316.7 626.3L318 550.2L319.3 646.5L320.7 494.7L322 618.9L323.3 464L324.7 661.6L326 475.1L327.3 619.4L328.7 487.3L330 630.8L331.3 408.3L332.7 622.3L334 432.7L335.3 433.2L336.7 379.6L338 588.6L339.3 394.5L340.7 623.4L342 -49L343.3 569L344.7 362.1L346 641.7L347.3 639.3L348.7 788.6L350 783.9L351.3 757.9L352.7 790L354 756L355.3 742.5L356.7 754.1L358 735.1L359.3 767.4L360.7 730L362 732.7L363.3 712.2L364.7 769.5L366 716L367.3 655.7L368.7 587.3L370 705.3L371.3 658.4L372.7 729.2L374 664.5L375.3 666.9L376.7 624.7L378 700.6L379.3 649.6L380.7 699.2L382 599.8L383.3 603.8L384.7 575.1L386 700L387.3 640.6L388.7 636.6L390 568L391.3 625.5L392.7 566.4L394 667.4L395.3 446.5L396.7 534.8L398 551L399.3 567.7L400.7 451L402 651.2L403.3 531.1L404.7 580.4L406 492.9L407.3 553.4L408.7 503.8L410 642.7L411.3 445.1L412.7 618.6L414 455.5L415.3 589.2L416.7 409.9L418 587.6L419.3 438.5L420.7 623.1L422 408.8L423.3 590L424.7 424.5L426 576.4L427.3 644.1L428.7 794.5L430 783.1L431.3 746.7L432.7 711.4L434 756.3L435.3 740.1L436.7 747.5L438 748.3L439.3 696.9L440.7 735.1L442 772.4L443.3 705.6L444.7 738.5L446 708.5L447.3 727.9L448.7 698.4L450 718.9L451.3 672.7L452.7 728.4L454 658.4L455.3 707.5L456.7 571.9L458 709.6L459.3 631.3L460.7 715.7L462 628.4L463.3 699.5L464.7 534.5L466 676.4L467.3 631.6L468.7 654.7L470 561.3L471.3 665.6L472.7 456.6L474 634L475.3 547.8L476.7 673.8L478 507.7L479.3 686L480.7 423.7L482 626.3L483.3 508.3L484.7 625.5L486 444.1L487.3 619.1L488.7 434.5L490 587.6L491.3 376.4L492.7 626.3L494 400.3L495.3 473.8L496.7 330.8L498 597.9L499.3 299L500.7 582L502 317.8L503.3 594.5L504.7 266.1L506 586.5L507.3 619.7L508.7 779.3L510 788.9L511.3 762.6L512.7 737.2L514 661L515.3 737.4L516.7 659.2L518 678.8L519.3 737.2L520.7 671.1L522 704.3L523.3 666.6L524.7 717.5L526 660.5L527.3 636.9L528.7 603.5L530 692.9L531.3 624.7L532.7 691.6L534 575.4L535.3 625.5L536.7 536.9L538 677.8L539.3 505.6L540.7 659.5L542 525L543.3 662.4L544.7 431.4L546 570.1L547.3 486.8L548.7 562.9L550 445.7L551.3 593.9L552.7 436.4L554 614.1L555.3 432.9L556.7 509.1L558 356.8L559.3 574.1L560.7 360.5L562 569.3L563.3 316.8L564.7 564.5L566 226.6L567.3 578.3L568.7 204.3L570 525.2L571.3 238.8L572.7 570.6L574 112.3L575.3 564L576.7 146.2L578 477L579.3 48.6L580.7 475.9L582 183.1L583.3 486.5L584.7 143L586 508L587.3 555.2L588.7 754.4L590 726.6L591.3 720.5L592.7 736.1L594 743.3L595.3 763.4L596.7 771.1L598 716.2L599.3 730.5L600.7 747.8L602 752.8L603.3 693.4L604.7 670.1L606 641.7L607.3 729.7L608.7 653.4L610 748.3L611.3 613L612.7 644.6L614 621.8L615.3 710.9L616.7 662.1L618 688.4L619.3 542L620.7 703L622 631.9L623.3 720.5L624.7 571.1L626 679.1L627.3 544.1L628.7 674L630 522.1L631.3 665.3L632.7 605.1L634 694.5L635.3 427.6L636.7 633.2L638 565.8L639.3 677.8L640.7 508.8L642 651.5L643.3 444.3L644.7 645.7L646 436.9L647.3 591.3L648.7 478.3L650 642L651.3 281.8L652.7 614.1L654 464.8L655.3 477.8L656.7 395.5L658 593.4L659.3 330.6L660.7 599.2L662 379.6L663.3 593.9L664.7 428.2L666 642.7L667.3 551.8L668.7 796.9L670 816.7L671.3 751L672.7 723.1L674 774.3L675.3 706.1L676.7 722.1L678 725.2L679.3 748.3L680.7 726.3L682 742.7L683.3 681.7L684.7 713L686 705.9L687.3 754.4L688.7 643.3L690 727.9L691.3 634.8L692.7 749.4L694 653.6L695.3 734.5L696.7 686L698 683.3L699.3 600.3L700.7 683.6L702 623.4L703.3 706.9L704.7 604.3L706 699L707.3 611.7L708.7 632.7L710 546.5L711.3 691.8L712.7 572.5L714 669.3L715.3 534.3L716.7 608.3L718 560.3L719.3 613L720.7 530.8L722 604.3L723.3 514.6L724.7 582.8L726 482.5L727.3 636.4L728.7 424.7L730 657.1L731.3 429.5L732.7 618.3L734 473.5L735.3 642.5L736.7 407.7L738 617L739.3 438.5L740.7 572.5L742 414.4L743.3 588.9L744.7 418.9L746 591.6L747.3 642.7L748.7 746.2L750 798.2L751.3 743L752.7 750.7L754 745.7L755.3 744.3L756.7 721.5L758 731.3L759.3 775.4L760.7 731.1L762 748.3L763.3 721L764.7 705.9L766 708.5L767.3 771.1L768.7 690.8L770 700.6L771.3 709.9L772.7 716.7L774 661.6L775.3 724.7L776.7 668.2L778 709.6L779.3 647.5L780.7 673.5L782 651.8L783.3 709.9L784.7 606.9L786 694.7L787.3 612L788.7 657.1L790 521.5L791.3 634.8L792.7 600.6L794 682.3L795.3 462.1L796.7 673L798 535.9L799.3 627.4L800.7 518.9L802 661.6L803.3 562.4L804.7 691.6L806 407L807.3 603.2L808.7 472.7L810 649.6L811.3 445.9L812.7 635.6L814 484.4L815.3 610.1L816.7 389.4L818 603L819.3 469.3L820.7 588.1L822 403.2L823.3 577L824.7 374.9L826 640.9L827.3 652.6L828.7 755.7L830 758.9L831.3 727.6L832.7 725L834 712.8L835.3 709.3L836.7 721.8L838 715.7L839.3 791.5L840.7 688.1L842 723.1L843.3 693.4L844.7 722.6L846 708.5L847.3 669.3L848.7 621L850 718.3L851.3 644.3L852.7 689.2L854 575.4L855.3 701.4L856.7 580.7L858 710.1L859.3 569.8L860.7 647.8L862 558.1L863.3 715.4L864.7 531.3L866 677.8L867.3 539.8L868.7 616L870 439.6L871.3 648.3L872.7 486.5L874 667.9L875.3 382.8L876.7 658.4L878 360.3L879.3 644.1L880.7 306.7L882 654.2L883.3 438.8L884.7 661.8L886 330.6L887.3 622.6L888.7 405.1L890 610.1L891.3 270.6L892.7 595.3L894 445.4L895.3 620.5L896.7 157.6L898 580.4L899.3 256.8L900.7 532.4L902 229.2L903.3 591L904.7 225.5L906 493.9L907.3 560L908.7 761.3L910 760.8L911.3 752.6L912.7 743.3L914 779.1L915.3 747L916.7 749.4L918 719.9L919.3 717.3L920.7 729.7L922 740.1L923.3 689.7L924.7 736.9L926 693.1L927.3 711.4L928.7 654.7L930 719.7L931.3 683.3L932.7 712.5L934 637.4L935.3 671.4L936.7 626.6L938 686.2L939.3 614.4L940.7 708L942 643.5L943.3 715.7L944.7 558.9L946 661L947.3 562.6L948.7 691.6L950 546.2L951.3 671.9L952.7 414.6L954 649.6L955.3 491.6L956.7 641.2L958 555.7L959.3 669.5L960.7 451.2L962 581.7L963.3 493.9L964.7 660.8L966 375.7L967.3 604.8L968.7 362.4L970 644.1L971.3 423.7L972.7 576.7L974 462.4L975.3 629.8L976.7 277L978 593.4L979.3 388.1L980.7 597.9L982 359.7L983.3 593.1L984.7 288.4L986 581.5L987.3 615.2L988.7 762.9L990 769.5L991.3 762.9L992.7 739.6L994 663.2L995.3 751.5L996.7 742.2L998 733.5L999.3 706.9L1000.7 706.9L1002 754.1L1003.3 674.3L1004.7 732.4L1006 731.6L1007.3 739.6L1008.7 663.4L1010 722.6L1011.3 680.9L1012.7 699.2L1014 575.6L1015.3 697.1L1016.7 460.3L1018 678.8L1019.3 595L1020.7 684.1L1022 634.5L1023.3 706.4L1024.7 509.3L1026 678.8L1027.3 565.6L1028.7 603L1030 566.6L1031.3 684.7L1032.7 526.8L1034 635.6L1035.3 403.5L1036.7 634.3L1038 532.4L1039.3 654.9L1040.7 465.6L1042 607.2L1043.3 398.5L1044.7 648.8L1046 425.3L1047.3 623.1L1048.7 447.5L1050 612L1051.3 309.6L1052.7 561.6L1054 454.4L1055.3 602.2L1056.7 259.2L1058 599.2L1059.3 413.6L1060.7 606.7L1062 342L1063.3 597.9L1064.7 138L1066 595.8L1067.3 622.1L1068.7 756.3L1070 764.2L1071.3 764.2L1072.7 764.2L1074 722.8L1075.3 761.6L1076.7 778.5L1078 714.4L1079.3 743.5L1080.7 387.6L1082 721L1083.3 686.2L1084.7 702.2L1086 741.7L1087.3 682L1088.7 638.8L1090 702.4L1091.3 687.6L1092.7 711.2L1094 653.9L1095.3 714.9L1096.7 668.2L1098 678.8L1099.3 576.7L1100.7 696.1L1102 632.1L1103.3 709.9L1104.7 613.6L1106 249.4L1107.3 605.1L1108.7 672.7L1110 593.4L1111.3 662.1L1112.7 581.7L1114 706.7L1115.3 484.7L1116.7 641.4L1118 544.3L1119.3 663.2L1120.7 488.9L1122 623.4L1123.3 440.6L1124.7 594.2L1126 452L1127.3 599.8L1128.7 461.9L1130 635.9L1131.3 374.9L1132.7 576.7L1134 436.1L1135.3 618.6L1136.7 354.7L1138 612.5L1139.3 223.4L1140.7 617.3L1142 313.6L1143.3 577.8L1144.7 340.6L1146 501.6L1147.3 610.1L1148.7 768.2L1150 790.2L1151.3 767.1L1152.7 363.7L1154 744.9L1155.3 754.9L1156.7 708L1158 649.4L1159.3 771.7L1160.7 724.4L1162 739L1163.3 657.6L1164.7 701.1L1166 649.4L1167.3 743.3L1168.7 605.6L1170 648.1L1171.3 653.6L1172.7 727.6L1174 577.8L1175.3 674.6L1176.7 612.5L1178 645.4L1179.3 183.4L1180.7 647.3L1182 577L1183.3 686.2L1184.7 442.8L1186 610.7L1187.3 501.4L1188.7 667.1L1190 479.4L1191.3 638.8L1192.7 512L1194 653.9L1195.3 436.4L1196.7 604.8L1198 428.7L1199.3 634.8L1200.7 356.6L1202 625.2L1203.3 415.4L1204.7 640.9L1206 317L1207.3 497.9L1208.7 349.1L1210 510.9L1211.3 307.2L1212.7 551.2L1214 379.9L1215.3 498.5L1216.7 230L1218 585.7L1219.3 274.1L1220.7 566.1L1222 299L1223.3 605.1L1224.7 334L1226 457.1L1227.3 593.7L1228.7 744.1L1230 740.9L1231.3 752.3L1232.7 761.6L1234 747.3L1235.3 786L1236.7 772.7L1238 681.5L1239.3 709.1L1240.7 739.6L1242 737.2L1243.3 718.6L1244.7 675.1L1246 734.8L1247.3 641.2L1248.7 607.7L1250 706.4L1251.3 709.3L1252.7 734.3L1254 653.4L1255.3 628.7L1256.7 629.5L1258 670.9L1259.3 626.3L1260.7 670.1L1262 642L1263.3 404.6L1264.7 506.4L1266 636.9L1267.3 614.4L1268.7 683.6L1270 541.4L1271.3 629.2L1272.7 425.5L1274 694.5L1275.3 558.9L1276.7 642.2L1278 588.9L1279.3 667.9L1280.7 431.4L1282 655.7L1283.3 558.9L1284.7 654.4L1286 498.2L1287.3 242.5L1288.7 470.9L1290 598.2L1291.3 408.8L1292.7 618.1L1294 445.9L1295.3 526.8L1296.7 366.1L1298 625L1299.3 351.8L1300.7 648.6L1302 431.9L1303.3 532.4L1304.7 400.1L1306 617.8L1307.3 602.2L1308.7 797.4L1310 786.8L1311.3 679.6L1312.7 741.9L1314 771.4L1315.3 761.8L1316.7 766.9L1318 746.2L1319.3 728.2L1320.7 735.1L1322 766.9L1323.3 731.9L1324.7 736.6L1326 735.6L1327.3 733.5L1328.7 671.4L1330 721L1331.3 702.2L1332.7 740.6L1334 669.5L1335.3 731.1L1336.7 660L1338 716.7L1339.3 597.7L1340.7 676.2L1342 636.6L1343.3 681.7L1344.7 567.2L1346 624.4L1347.3 619.7L1348.7 667.4L1350 569.5L1351.3 645.1L1352.7 544.3L1354 642.2L1355.3 533.2L1356.7 644.1L1358 568.5L1359.3 664.8L1360.7 498.7L1362 517L1363.3 523.4L1364.7 658.7L1366 422.9L1367.3 638.2L1368.7 478.6L1370 584.9L1371.3 447.5L1372.7 544.3L1374 479.4L1375.3 632.7L1376.7 355.8L1378 544.9L1379.3 312L1380.7 593.9L1382 323.1L1383.3 627.4L1384.7 415.4L1386 527.6L1387.3 636.1L1388.7 793.1L1390 799L1391.3 744.1L1392.7 745.1L1394 745.9L1395.3 753.1L1396.7 734.3L1398 738.8L1399.3 729.7L1400.7 704.8L1402 715.4L1403.3 706.1L1404.7 702.7L1406 682.5L1407.3 749.9L1408.7 651.2L1410 466.9L1411.3 688.6L1412.7 682.5L1414 628.2L1415.3 704.3L1416.7 659.5L1418 677.2L1419.3 579.6L1420.7 680.1L1422 612.8L1423.3 712.2L1424.7 537.7L1426 709.1L1427.3 541.4L1428.7 668.7L1430 481.2L1431.3 657.3L1432.7 600.3L1434 686.8L1435.3 388.9L1436.7 646.7L1438 500.6L1439.3 669.8L1440.7 494.5L1442 640.4L1443.3 462.7L1444.7 649.9L1446 442.5L1447.3 575.1L1448.7 480.4L1450 575.1L1451.3 233L1452.7 609.6L1454 477.8L1455.3 639.6L1456.7 422.3L1458 592.4L1459.3 275.7L1460.7 610.4L1462 386.8L1463.3 647.8L1464.7 422.3L1466 619.7L1467.3 604.6L1468.7 768.2L1470 794.7L1471.3 771.1L1472.7 728.9L1474 725.2L1475.3 732.4L1476.7 792.9L1478 702.2L1479.3 716.2L1480.7 684.9L1482 733.7L1483.3 671.7L1484.7 673.8L1486 688.6L1487.3 719.4L1488.7 566.6L1490 666.4L1491.3 620.7L1492.7 631.6L1494 453.9L1495.3 602.2L1496.7 377.2L1498 647.5L1499.3 487.8L1500.7 681.5L1502 499.5L1503.3 675.1L1504.7 468L1506 652.8L1507.3 511.5L1508.7 663.7L1510 519.1L1511.3 674.8L1512.7 514.9L1514 689.7L1515.3 415.7L1516.7 622.3L1518 464.5L1519.3 616.8L1520.7 376.2L1522 605.6L1523.3 424.7L1524.7 546.2L1526 343.3L1527.3 590.5L1528.7 370.3L1530 608.3L1531.3 321.3L1532.7 587L1534 346.7L1535.3 629.5L1536.7 329.2L1538 589.4L1539.3 284.7L1540.7 592.6L1542 276.5L1543.3 287.9L1544.7 270.1L1546 587.8L1547.3 570.6L1548.7 779.9L1550 774L1551.3 759.2L1552.7 735.3L1554 744.3L1555.3 745.7L1556.7 709.1L1558 706.1L1559.3 730.5L1560.7 706.7L1562 770.3L1563.3 620.5L1564.7 674.3L1566 645.9L1567.3 749.6L1568.7 669.5L1570 703.8L1571.3 207L1572.7 726.6L1574 633.5L1575.3 705.6L1576.7 663.4L1578 693.9L1579.3 579.4L1580.7 402.4L1582 621L1583.3 640.6L1584.7 602.7L1586 650.2L1587.3 597.1L1588.7 657.1L1590 520.2L1591.3 624.2L1592.7 583.9L1594 644.1L1595.3 499L1596.7 627.6L1598 535.9L1599.3 628.7L1600.7 516L1602 654.2L1603.3 461.3L1604.7 575.1L1606 404L1607.3 656L1608.7 500.8L1610 638.8L1611.3 343.6L1612.7 589.7L1614 437.5L1615.3 653.9L1616.7 352.3L1618 594.7L1619.3 100.3L1620.7 593.4L1622 348.1L1623.3 632.1L1624.7 379.9L1626 610.7L1627.3 593.4L1628.7 767.7L1630 771.4L1631.3 764.2L1632.7 743.5L1634 756.5L1635.3 740.4L1636.7 760L1638 726L1639.3 727.4L1640.7 730.8L1642 752L1643.3 645.1L1644.7 703.2L1646 725L1647.3 719.7L1648.7 688.6L1650 741.7L1651.3 485.5L1652.7 706.7L1654 645.4L1655.3 704.8L1656.7 620.7L1658 675.9L1659.3 590.2L1660.7 689.4L1662 624.7L1663.3 653.4L1664.7 605.9L1666 677.5L1667.3 631.9L1668.7 632.9L1670 561.1L1671.3 666.6L1672.7 586.3L1674 664.5L1675.3 551.2L1676.7 581.5L1678 521.5L1679.3 640.4L1680.7 520.5L1682 612.8L1683.3 520.5L1684.7 608.8L1686 422.6L1687.3 646.5L1688.7 551.8L1690 624.2L1691.3 461.1L1692.7 575.6L1694 437.7L1695.3 637.4L1696.7 405.6L1698 593.7L1699.3 463.7L1700.7 597.9L1702 364.5L1703.3 615.4L1704.7 401.9L1706 630.8L1707.3 652L1708.7 784.9L1710 736.6L1711.3 761.8L1712.7 750.4L1714 782.8L1715.3 772.4L1716.7 720.7L1718 710.1L1719.3 777.2L1720.7 708.5L1722 736.4L1723.3 686L1724.7 705.1L1726 721.8L1727.3 721.8L1728.7 704.3L1730 679.4L1731.3 682.3L1732.7 665.8L1734 602.7L1735.3 687.6L1736.7 640.1L1738 752.3L1739.3 636.6L1740.7 667.1L1742 635.1L1743.3 687.8L1744.7 522.1L1746 686.2L1747.3 595.5L1748.7 709.6L1750 564.5L1751.3 619.4L1752.7 591.8L1754 664.8L1755.3 545.4L1756.7 653.1L1758 466.4L1759.3 642.7L1760.7 526.8L1762 658.9L1763.3 478.3L1764.7 567.2L1766 443.6L1767.3 539L1768.7 479.1L1770 648.3L1771.3 392.9L1772.7 183.4L1774 399L1775.3 629L1776.7 397.9L1778 551.8L1779.3 385.7L1780.7 478.8L1782 375.4L1783.3 602.4L1784.7 397.7L1786 646.5L1787.3 652.6L1788.7 783.3L1790 756.5L1791.3 728.7L1792.7 739.3L1794 692.9L1795.3 735.1L1796.7 768.2L1798 667.9L1799.3 730.8" fill="transparent" stroke="#3fb1e3" stroke-width="3" stroke-linejoin="bevel" class="zr2-cls-8"></path>
</g>
<g clip-path="url(#zr2-c1)">
<path d="M200.7 368.8L202 687.8L203.3 642.2L204.7 697.1L206 704.3L207.3 696.1L208.7 625.8L210 596.6L211.3 692.3L212.7 724.2L214 569.5L215.3 438.8L216.7 656.3L218 666.9L219.3 580.9L220.7 686.8L222 510.1L223.3 674.8L224.7 505.1L226 572.7L227.3 549.1L228.7 666.4L230 482.3L231.3 608.8L232.7 498.7L234 654.2L235.3 399.5L236.7 593.1L238 457.6L239.3 606.4L240.7 393.4L242 641.7L243.3 408.5L244.7 621.8L246 220.5L247.3 635.9L248.7 327.1L250 597.9L251.3 209.3L252.7 596.6L254 337.2L255.3 568.7L256.7 216.5L258 569L259.3 315.2L260.7 562.4L262 200.9L263.3 583.3L264.7 292.9L266 574.1L267.3 614.9L268.7 771.9L270 790.5L271.3 770.9L272.7 729.7L274 755.5L275.3 759.2L276.7 733.7L278 709.6L279.3 711.4L280.7 576.2L282 728.4L283.3 678L284.7 692.6L286 710.4L287.3 744.1L288.7 662.9L290 721.8L291.3 644.6L292.7 706.7L294 649.1L295.3 652L296.7 599L298 697.4L299.3 640.6L300.7 677.8L302 627.4L303.3 705.9L304.7 460.3L306 695.5L307.3 590.8L308.7 657.3L310 540.6L311.3 626.8L312.7 475.6L314 591.3L315.3 459.7L316.7 662.1L318 553.6L319.3 663.7L320.7 390.8L322 632.7L323.3 485.5L324.7 669.8L326 459.2L327.3 527.6L328.7 77.3L330 617L331.3 407L332.7 648.6L334 481.5L335.3 633.5L336.7 291.6L338 589.4L339.3 305.9L340.7 631.6L342 362.1L343.3 617.3L344.7 257.6L346 613.3L347.3 638.2L348.7 784.1L350 812.5L351.3 780.1L352.7 720.7L354 790L355.3 757.6L356.7 758.1L358 727.1L359.3 750.7L360.7 726.3L362 731.9L363.3 699.2L364.7 750.4L366 673.2L367.3 720.5L368.7 659.5L370 668.7L371.3 683.9L372.7 727.9L374 631.3L375.3 688.1L376.7 662.1L378 695.3L379.3 588.4L380.7 666.4L382 629.5L383.3 691.8L384.7 578.3L386 255.2L387.3 536.9L388.7 658.1L390 565L391.3 645.1L392.7 601.9L394 674L395.3 422.3L396.7 629.8L398 530.6L399.3 634.3L400.7 499L402 234L403.3 480.4L404.7 565.6L406 435.1L407.3 623.1L408.7 484.9L410 506.9L411.3 410.7L412.7 632.7L414 467.7L415.3 635.3L416.7 408.5L418 270.4L419.3 405.9L420.7 605.1L422 393.7L423.3 617.3L424.7 399L426 620.5L427.3 619.4L428.7 753.1L430 766.9L431.3 772.2L432.7 721.8L434 479.6L435.3 749.1L436.7 758.1L438 723.4L439.3 725L440.7 737.2L442 746.7L443.3 682.5L444.7 728.7L446 749.1L447.3 711.2L448.7 679.9L450 727.4L451.3 648.8L452.7 670.9L454 650.2L455.3 687L456.7 661L458 716.7L459.3 636.9L460.7 681.5L462 650.7L463.3 693.1L464.7 573.3L466 657.6L467.3 594.5L468.7 678.3L470 544.3L471.3 676.7L472.7 590.5L474 687L475.3 536.9L476.7 636.9L478 545.1L479.3 680.1L480.7 567.7L482 614.6L483.3 531.1L484.7 610.1L486 460L487.3 597.1L488.7 489.4L490 649.1L491.3 429L492.7 560L494 399.5L495.3 598.2L496.7 396.1L498 590.8L499.3 423.4L500.7 594.5L502 362.1L503.3 592.6L504.7 372.7L506 566.4L507.3 610.1L508.7 742.7L510 779.9L511.3 738L512.7 730.8L514 753.4L515.3 731.1L516.7 669.5L518 651.5L519.3 712.5L520.7 685.2L522 712.2L523.3 697.7L524.7 734.5L526 543.3L527.3 657.6L528.7 621.8L530 485.7L531.3 468L532.7 697.4L534 613.3L535.3 596.3L536.7 620.2L538 705.9L539.3 540.4L540.7 548.6L542 552.6L543.3 658.1L544.7 496.1L546 568.2L547.3 559.2L548.7 667.1L550 532.1L551.3 606.7L552.7 493.2L554 626.8L555.3 421L556.7 607.5L558 456.6L559.3 625.2L560.7 286L562 545.9L563.3 442.8L564.7 587.8L566 125.5L567.3 609.1L568.7 410.4L570 581.5L571.3 136.4L572.7 579.9L574 326.1L575.3 603.2L576.7 258.9L578 527.9L579.3 261.6L580.7 515.4L582 241.4L583.3 535.9L584.7 262.7L586 526.3L587.3 589.4L588.7 766.1L590 761.6L591.3 712.5L592.7 717.8L594 748.8L595.3 753.4L596.7 754.9L598 742.7L599.3 730.8L600.7 747.8L602 684.1L603.3 700.6L604.7 740.9L606 655.2L607.3 734.3L608.7 670.9L610 704L611.3 634.5L612.7 705.1L614 642.7L615.3 704L616.7 651.8L618 688.6L619.3 625.5L620.7 674L622 656.5L623.3 701.9L624.7 609.3L626 658.4L627.3 601.1L628.7 690L630 576.2L631.3 669L632.7 524.5L634 666.6L635.3 534.5L636.7 682L638 598.5L639.3 680.7L640.7 449.7L642 659.2L643.3 512.5L644.7 665.3L646 487.8L647.3 618.3L648.7 455.8L650 638.5L651.3 474.1L652.7 622.3L654 483.3L655.3 620.5L656.7 307.5L658 621.8L659.3 444.9L660.7 609.6L662 451.2L663.3 548.6L664.7 318.9L666 555.2L667.3 625.8L668.7 735.3L670 794.7L671.3 779.6L672.7 301.1L674 743.5L675.3 756L676.7 746.2L678 725L679.3 753.9L680.7 731.6L682 720.7L683.3 698.4L684.7 705.9L686 716L687.3 733.5L688.7 641.7L690 485.7L691.3 658.4L692.7 713.8L694 639.8L695.3 690.2L696.7 614.1L698 660.8L699.3 610.7L700.7 624.7L702 553.4L703.3 658.4L704.7 527.4L706 589.7L707.3 543.3L708.7 612.2L710 438L711.3 627.1L712.7 416.8L714 625L715.3 442.5L716.7 632.7L718 473.5L719.3 627.6L720.7 210.1L722 562.4L723.3 367.7L724.7 596.3L726 363.5L727.3 619.1L728.7 335.9L730 607.5L731.3 290.2L732.7 583.6L734 304.3L735.3 516.8L736.7 208.3L738 587.3L739.3 230.6L740.7 601.9L742 37.7L743.3 587.3L744.7 287.3L746 547L747.3 606.1L748.7 790L750 705.6L751.3 770.1L752.7 752L754 768.2L755.3 738.2L756.7 766.1L758 710.6L759.3 748.6L760.7 760.2L762 684.7L763.3 718.3L764.7 697.1L766 708.3L767.3 695.5L768.7 665L770 739.8L771.3 691.3L772.7 711.7L774 645.7L775.3 655.7L776.7 636.6L778 686.8L779.3 615.7L780.7 657.6L782 638.5L783.3 675.6L784.7 586.5L786 690.2L787.3 603.8L788.7 667.4L790 570.3L791.3 667.9L792.7 543.5L794 633.7L795.3 518.1L796.7 638.8L798 525.5L799.3 653.1L800.7 331.9L802 647L803.3 558.7L804.7 681.7L806 499.8L807.3 611.4L808.7 460.8L810 499.3L811.3 451L812.7 615.4L814 496.6L815.3 609.3L816.7 377L818 600.3L819.3 441.2L820.7 629L822 423.1L823.3 613.8L824.7 303.8L826 613.6L827.3 651.5L828.7 787L830 803.7L831.3 762.4L832.7 720.5L834 705.1L835.3 772.4L836.7 752.6L838 707.2L839.3 689.2L840.7 687.3L842 711.4L843.3 632.9L844.7 712.5L846 613L847.3 683.3L848.7 666.1L850 689.2L851.3 642.5L852.7 714.9L854 622.9L855.3 578.3L856.7 620.5L858 691.6L859.3 599.2L860.7 678L862 567.7L863.3 676.2L864.7 526L866 626.6L867.3 542L868.7 678.8L870 393.2L871.3 646.5L872.7 488.4L874 599.8L875.3 452.8L876.7 617.8L878 483.1L879.3 627.6L880.7 407.5L882 619.7L883.3 384.1L884.7 590L886 364.2L887.3 611.2L888.7 372.2L890 653.4L891.3 324.7L892.7 559.5L894 207.2L895.3 614.6L896.7 253.6L898 629.2L899.3 300.6L900.7 586.8L902 300.9L903.3 593.4L904.7 264.3L906 573.5L907.3 609.6L908.7 759.2L910 770.9L911.3 728.4L912.7 727.6L914 761.8L915.3 740.9L916.7 704.5L918 681.2L919.3 726.6L920.7 765.3L922 754.4L923.3 734.3L924.7 714.9L926 706.9L927.3 690.2L928.7 698.2L930 665.6L931.3 697.7L932.7 719.1L934 546.5L935.3 706.1L936.7 683.6L938 725.8L939.3 629L940.7 705.9L942 575.1L943.3 713L944.7 610.1L946 685.2L947.3 633.2L948.7 709.1L950 473.3L951.3 644.6L952.7 569.8L954 653.1L955.3 526.6L956.7 662.9L958 460.3L959.3 671.9L960.7 522.3L962 627.6L963.3 516.5L964.7 669L966 331.1L967.3 637.7L968.7 489.4L970 627.9L971.3 450.7L972.7 616L974 376.7L975.3 613L976.7 386.5L978 591L979.3 465.3L980.7 636.6L982 259.7L983.3 626L984.7 418.4L986 618.9L987.3 628.4L988.7 740.6L990 779.6L991.3 749.6L992.7 752.8L994 728.2L995.3 785.4L996.7 749.1L998 723.6L999.3 725.2L1000.7 772.2L1002 730L1003.3 662.6L1004.7 747.3L1006 696.9L1007.3 458.4L1008.7 672.7L1010 704L1011.3 694.5L1012.7 728.9L1014 668.2L1015.3 740.1L1016.7 642.5L1018 716.2L1019.3 647.5L1020.7 677.2L1022 684.9L1023.3 676.2L1024.7 586L1026 680.1L1027.3 626.8L1028.7 687.3L1030 610.7L1031.3 671.9L1032.7 423.9L1034 699.5L1035.3 524.7L1036.7 642L1038 606.4L1039.3 664.2L1040.7 402.4L1042 597.9L1043.3 530L1044.7 678.6L1046 486.5L1047.3 624.2L1048.7 383.6L1050 641.4L1051.3 414.4L1052.7 622.1L1054 481.7L1055.3 609.6L1056.7 274.1L1058 604.6L1059.3 372.2L1060.7 595.8L1062 425.8L1063.3 539.8L1064.7 357.4L1066 551.2L1067.3 636.6L1068.7 751L1070 759.7L1071.3 763.4L1072.7 691.3L1074 771.1L1075.3 745.7L1076.7 741.2L1078 743.5L1079.3 740.9L1080.7 398.5L1082 738.2L1083.3 701.1L1084.7 705.3L1086 702.4L1087.3 759.5L1088.7 687.6L1090 660.8L1091.3 708L1092.7 723.9L1094 662.9L1095.3 714.1L1096.7 670.6L1098 658.1L1099.3 644.9L1100.7 717.3L1102 642L1103.3 705.9L1104.7 629.8L1106 665L1107.3 533.2L1108.7 631.9L1110 586.5L1111.3 671.1L1112.7 577.8L1114 677.2L1115.3 417.8L1116.7 648.8L1118 556.8L1119.3 638L1120.7 523.1L1122 669.3L1123.3 435.1L1124.7 640.1L1126 478.8L1127.3 648.6L1128.7 517.3L1130 637.2L1131.3 338.8L1132.7 603L1134 475.4L1135.3 602.2L1136.7 407.5L1138 641.7L1139.3 317.8L1140.7 596.9L1142 404.3L1143.3 541.7L1144.7 371.4L1146 612.8L1147.3 577L1148.7 774.6L1150 782.3L1151.3 768.5L1152.7 722.8L1154 774.6L1155.3 735.1L1156.7 726.8L1158 714.1L1159.3 768.5L1160.7 731.1L1162 751.2L1163.3 692.6L1164.7 706.4L1166 695L1167.3 729.2L1168.7 586L1170 449.4L1171.3 643L1172.7 708L1174 592.4L1175.3 648.1L1176.7 607.7L1178 705.1L1179.3 555.5L1180.7 516.2L1182 586L1183.3 721.8L1184.7 513.3L1186 640.6L1187.3 534.5L1188.7 195.3L1190 503.8L1191.3 625L1192.7 516.5L1194 650.7L1195.3 417.6L1196.7 630.8L1198 464L1199.3 635.6L1200.7 303L1202 625.5L1203.3 407.7L1204.7 562.9L1206 261.3L1207.3 606.7L1208.7 393.7L1210 617.5L1211.3 273.3L1212.7 586.8L1214 346.2L1215.3 577L1216.7 265.3L1218 536.4L1219.3 306.4L1220.7 631.6L1222 214.4L1223.3 565.3L1224.7 207.8L1226 527.1L1227.3 513.8L1228.7 764.5L1230 779.9L1231.3 722.1L1232.7 755.7L1234 765.8L1235.3 745.4L1236.7 723.1L1238 710.9L1239.3 668.7L1240.7 726L1242 769.8L1243.3 685.5L1244.7 671.9L1246 703L1247.3 731.6L1248.7 674.8L1250 689.7L1251.3 710.4L1252.7 723.1L1254 646.7L1255.3 686.5L1256.7 647.3L1258 618.9L1259.3 608L1260.7 669.5L1262 645.9L1263.3 701.4L1264.7 389.2L1266 665.3L1267.3 640.1L1268.7 687.6L1270 569L1271.3 657.1L1272.7 506.9L1274 675.6L1275.3 486.3L1276.7 665.8L1278 573.5L1279.3 673L1280.7 469L1282 634.8L1283.3 528.2L1284.7 669L1286 508.8L1287.3 633.2L1288.7 502.7L1290 631.1L1291.3 439.6L1292.7 591.6L1294 492.4L1295.3 636.4L1296.7 288.9L1298 594.5L1299.3 425.3L1300.7 647.5L1302 441.7L1303.3 615.7L1304.7 330.6L1306 626.3L1307.3 653.9L1308.7 761.3L1310 787.6L1311.3 784.4L1312.7 722.8L1314 726.6L1315.3 754.7L1316.7 764.2L1318 731.9L1319.3 716.2L1320.7 599.2L1322 726L1323.3 683.1L1324.7 732.7L1326 695.3L1327.3 741.9L1328.7 686L1330 693.9L1331.3 671.7L1332.7 729.2L1334 665.8L1335.3 727.4L1336.7 675.4L1338 665.8L1339.3 563.4L1340.7 653.4L1342 620.5L1343.3 718.6L1344.7 609.9L1346 611.2L1347.3 618.3L1348.7 691L1350 564.8L1351.3 676.4L1352.7 602.7L1354 693.9L1355.3 539L1356.7 661.8L1358 555.7L1359.3 689.7L1360.7 498.2L1362 639.6L1363.3 528.4L1364.7 657.6L1366 477L1367.3 561.6L1368.7 473.3L1370 658.4L1371.3 432.4L1372.7 620.7L1374 474.6L1375.3 652.3L1376.7 441.2L1378 626.8L1379.3 317.8L1380.7 444.1L1382 403L1383.3 620.7L1384.7 405.9L1386 617.8L1387.3 565.8L1388.7 740.1L1390 770.6L1391.3 767.9L1392.7 757.6L1394 747.3L1395.3 763.2L1396.7 741.4L1398 750.4L1399.3 749.4L1400.7 753.6L1402 740.6L1403.3 721.5L1404.7 740.1L1406 713.3L1407.3 744.6L1408.7 715.2L1410 709.1L1411.3 667.4L1412.7 319.2L1414 592.9L1415.3 707.2L1416.7 625L1418 703.8L1419.3 608.8L1420.7 470.1L1422 641.2L1423.3 677L1424.7 607.7L1426 668.7L1427.3 612.2L1428.7 673.2L1430 469.5L1431.3 686L1432.7 504.6L1434 682.5L1435.3 543.3L1436.7 667.9L1438 448.6L1439.3 676.4L1440.7 497.1L1442 651L1443.3 526L1444.7 649.9L1446 370.9L1447.3 614.9L1448.7 492.4L1450 649.6L1451.3 484.9L1452.7 602.2L1454 402.2L1455.3 632.7L1456.7 404.6L1458 574.1L1459.3 417.3L1460.7 618.9L1462 310.1L1463.3 609.3L1464.7 386.8L1466 632.9L1467.3 630L1468.7 781.2L1470 502.2L1471.3 771.9L1472.7 743.5L1474 709.6L1475.3 758.1L1476.7 751.2L1478 704.8L1479.3 750.2L1480.7 697.7L1482 751L1483.3 683.1L1484.7 658.4L1486 686.5L1487.3 720.7L1488.7 667.1L1490 691.6L1491.3 620.7L1492.7 648.1L1494 620.2L1495.3 593.9L1496.7 599.2L1498 681.2L1499.3 544.6L1500.7 671.7L1502 564.2L1503.3 529L1504.7 531.9L1506 651.8L1507.3 474.1L1508.7 626.6L1510 476.7L1511.3 664.5L1512.7 431.4L1514 630.5L1515.3 412.5L1516.7 637.7L1518 448.1L1519.3 639.6L1520.7 401.9L1522 619.4L1523.3 382.3L1524.7 635.3L1526 334.3L1527.3 278L1528.7 390L1530 606.9L1531.3 295.3L1532.7 488.6L1534 343.3L1535.3 606.1L1536.7 237.2L1538 563.4L1539.3 321.3L1540.7 596.9L1542 258.7L1543.3 587L1544.7 261.3L1546 614.4L1547.3 565L1548.7 769L1550 752L1551.3 778L1552.7 697.1L1554 717L1555.3 712L1556.7 758.7L1558 713.3L1559.3 743L1560.7 761.3L1562 700L1563.3 708.8L1564.7 745.7L1566 728.2L1567.3 761L1568.7 670.1L1570 707.7L1571.3 493.4L1572.7 729.2L1574 664.2L1575.3 683.1L1576.7 645.4L1578 726L1579.3 535.1L1580.7 677.5L1582 639.8L1583.3 705.1L1584.7 588.1L1586 648.8L1587.3 570.3L1588.7 661.6L1590 540.9L1591.3 664L1592.7 579.9L1594 684.9L1595.3 459.5L1596.7 616L1598 538.8L1599.3 696.6L1600.7 526.8L1602 624.7L1603.3 405.6L1604.7 637.4L1606 486L1607.3 637.7L1608.7 515.2L1610 645.4L1611.3 297.7L1612.7 590L1614 420.7L1615.3 597.9L1616.7 428.4L1618 614.9L1619.3 317.3L1620.7 601.1L1622 403.8L1623.3 622.1L1624.7 426.3L1626 647L1627.3 566.1L1628.7 664.8L1630 786.2L1631.3 783.3L1632.7 760.8L1634 782L1635.3 769.8L1636.7 751L1638 751L1639.3 730.5L1640.7 736.6L1642 780.1L1643.3 724.7L1644.7 678.8L1646 703.2L1647.3 737.4L1648.7 679.1L1650 740.4L1651.3 721.8L1652.7 687L1654 620.7L1655.3 727.4L1656.7 667.4L1658 712.2L1659.3 613.3L1660.7 553.4L1662 612L1663.3 704L1664.7 616.5L1666 689.4L1667.3 619.7L1668.7 693.4L1670 551.5L1671.3 683.1L1672.7 614.4L1674 678.6L1675.3 536.7L1676.7 646.7L1678 562.4L1679.3 666.1L1680.7 508.8L1682 661L1683.3 521.8L1684.7 660.5L1686 413.3L1687.3 611.4L1688.7 451.2L1690 605.9L1691.3 440.4L1692.7 619.1L1694 353.6L1695.3 544.6L1696.7 396.3L1698 614.4L1699.3 448.3L1700.7 620.7L1702 292.6L1703.3 586.8L1704.7 403.8L1706 633.7L1707.3 616L1708.7 803L1710 769.5L1711.3 784.9L1712.7 769L1714 779.1L1715.3 735.1L1716.7 787L1718 746.5L1719.3 728.7L1720.7 749.1L1722 747.5L1723.3 719.9L1724.7 729.2L1726 727.9L1727.3 721.5L1728.7 623.9L1730 718.6L1731.3 714.4L1732.7 754.7L1734 634.5L1735.3 657.6L1736.7 679.4L1738 709.1L1739.3 629L1740.7 667.4L1742 626.6L1743.3 661.3L1744.7 593.1L1746 661L1747.3 568.7L1748.7 665.8L1750 613.3L1751.3 665.3L1752.7 559.5L1754 691L1755.3 552.6L1756.7 657.9L1758 603.5L1759.3 675.9L1760.7 480.4L1762 665.6L1763.3 536.1L1764.7 665.6L1766 465.8L1767.3 647L1768.7 435.9L1770 584.7L1771.3 427.6L1772.7 640.4L1774 461.6L1775.3 641.7L1776.7 281L1778 600L1779.3 432.4L1780.7 615.4L1782 438.8L1783.3 534.5L1784.7 376.7L1786 606.1L1787.3 649.1L1788.7 798.2L1790 804.8L1791.3 772.7L1792.7 643.5L1794 755.2L1795.3 737.7L1796.7 732.1L1798 660L1799.3 727.6" fill="transparent" stroke="#6be6c1" stroke-width="3" stroke-linejoin="bevel" class="zr2-cls-8"></path>
</g>
<g clip-path="url(#zr2-c2)">
<path d="M200.7 425.8L202 577.5L203.3 609.3L204.7 688.4L206 490L207.3 724.4L208.7 631.3L210 712.2L211.3 293.2L212.7 692.1L214 596.6L215.3 661.6L216.7 571.1L218 690.5L219.3 444.3L220.7 683.9L222 508.8L223.3 634.3L224.7 519.1L226 683.3L227.3 449.4L228.7 640.1L230 449.4L231.3 648.8L232.7 428.7L234 595.8L235.3 408.3L236.7 599.5L238 476.2L239.3 602.4L240.7 347.3L242 225.3L243.3 324.2L244.7 590.5L246 315.4L247.3 496.9L248.7 286.5L250 605.1L251.3 316L252.7 463.4L254 260L255.3 574.8L256.7 127.4L258 528.4L259.3 265.3L260.7 613L262 51L263.3 564L264.7 255.2L266 599.5L267.3 544.9L268.7 763.2L270 788.1L271.3 749.1L272.7 736.9L274 744.3L275.3 763.4L276.7 747.8L278 736.1L279.3 703L280.7 731.6L282 779.1L283.3 703.2L284.7 748.8L286 676.2L287.3 712L288.7 638.8L290 693.9L291.3 665.8L292.7 730L294 625.2L295.3 639.8L296.7 622.3L298 669.3L299.3 578L300.7 651.8L302 643L303.3 698.7L304.7 520.2L306 677.8L307.3 568.7L308.7 678L310 573.8L311.3 657.3L312.7 499.3L314 654.7L315.3 492.6L316.7 638.2L318 564.8L319.3 678.6L320.7 188.4L322 644.6L323.3 388.1L324.7 664.8L326 399.3L327.3 384.4L328.7 445.4L330 583.6L331.3 413.1L332.7 609.3L334 440.9L335.3 356.6L336.7 262.7L338 581.2L339.3 291.3L340.7 579.4L342 375.9L343.3 505.4L344.7 218.4L346 606.4L347.3 621.5L348.7 723.4L350 772.2L351.3 767.7L352.7 730.5L354 730.5L355.3 757.1L356.7 715.2L358 706.1L359.3 703.2L360.7 724.2L362 753.4L363.3 719.4L364.7 727.4L366 695L367.3 728.4L368.7 629L370 675.9L371.3 691L372.7 684.9L374 645.9L375.3 644.1L376.7 605.1L378 671.1L379.3 580.7L380.7 646.2L382 606.9L383.3 603.5L384.7 579.4L386 674.6L387.3 612.2L388.7 670.9L390 535.3L391.3 602.7L392.7 563.2L394 651.8L395.3 469.3L396.7 630.8L398 533.7L399.3 553.9L400.7 487.1L402 630L403.3 521.5L404.7 551.5L406 458.7L407.3 517.3L408.7 423.7L410 665.8L411.3 439L412.7 585.5L414 376.7L415.3 566.6L416.7 393.2L418 585.7L419.3 375.7L420.7 614.4L422 378.3L423.3 590.2L424.7 410.4L426 605.9L427.3 632.9L428.7 757.9L430 795.8L431.3 742.2L432.7 752.3L434 773L435.3 725.2L436.7 737.2L438 743L439.3 708L440.7 704.5L442 758.4L443.3 703.5L444.7 689.2L446 740.1L447.3 752.6L448.7 620.5L450 699.2L451.3 685.2L452.7 754.9L454 655.5L455.3 707.5L456.7 592.4L458 673.2L459.3 573.5L460.7 691.6L462 636.1L463.3 734.8L464.7 474.3L466 697.9L467.3 596.6L468.7 683.9L470 571.7L471.3 668.2L472.7 463.4L474 692.3L475.3 514.4L476.7 682L478 554.4L479.3 682L480.7 360.3L482 658.4L483.3 508.3L484.7 643.3L486 473.5L487.3 627.4L488.7 490.2L490 625L491.3 436.1L492.7 620.5L494 397.1L495.3 642.7L496.7 382L498 621.5L499.3 417L500.7 617.8L502 412.5L503.3 617.5L504.7 385.7L506 615.7L507.3 612.2L508.7 745.9L510 767.1L511.3 808.8L512.7 732.7L514 748.8L515.3 724.7L516.7 717.5L518 651.5L519.3 717.8L520.7 699L522 750.4L523.3 662.4L524.7 724.2L526 635.6L527.3 687.6L528.7 630.3L530 695.5L531.3 546.2L532.7 731.1L534 614.4L535.3 624.4L536.7 644.3L538 685.5L539.3 539.6L540.7 656L542 622.9L543.3 699L544.7 547L546 566.1L547.3 550.4L548.7 647L550 488.9L551.3 664.5L552.7 545.1L554 666.9L555.3 414.6L556.7 590.8L558 460.8L559.3 544.6L560.7 312L562 624.7L563.3 481.5L564.7 271.4L566 361.1L567.3 599.2L568.7 386.3L570 448.9L571.3 328.7L572.7 613.3L574 352.8L575.3 552.3L576.7 300.6L578 498.5L579.3 235.3L580.7 575.4L582 227.1L583.3 595.3L584.7 -37.6L586 499L587.3 521.3L588.7 780.1L590 760L591.3 764.2L592.7 748.8L594 729.5L595.3 770.9L596.7 747L598 746.5L599.3 762.1L600.7 749.1L602 751.5L603.3 689.4L604.7 693.1L606 617L607.3 732.4L608.7 671.9L610 683.1L611.3 688.9L612.7 624.4L614 624.7L615.3 644.9L616.7 611.2L618 698.4L619.3 576.4L620.7 654.4L622 587.6L623.3 699.2L624.7 550.2L626 556.5L627.3 585.2L628.7 656L630 541.2L631.3 618.9L632.7 568L634 697.4L635.3 510.1L636.7 609.1L638 496.6L639.3 667.7L640.7 480.2L642 663.2L643.3 514.6L644.7 601.6L646 451.8L647.3 624.7L648.7 521.8L650 662.4L651.3 422.1L652.7 557.6L654 451.5L655.3 616.2L656.7 399.3L658 614.1L659.3 458.1L660.7 568.2L662 392.9L663.3 582.3L664.7 404.6L666 644.3L667.3 639L668.7 766.1L670 791L671.3 786.2L672.7 757.6L674 766.3L675.3 780.9L676.7 760.2L678 710.4L679.3 759.2L680.7 731.6L682 780.7L683.3 697.4L684.7 714.6L686 679.4L687.3 730L688.7 663.4L690 711.7L691.3 717L692.7 728.4L694 598.2L695.3 710.4L696.7 657.9L698 723.9L699.3 611.7L700.7 658.1L702 556.3L703.3 689.2L704.7 605.3L706 669.5L707.3 612.2L708.7 590L710 396.1L711.3 649.4L712.7 572.7L714 682L715.3 429.2L716.7 646.7L718 470.3L719.3 640.6L720.7 473.8L722 573L723.3 502.7L724.7 641.7L726 266.9L727.3 629.5L728.7 417.6L730 622.1L731.3 419.4L732.7 599.2L734 362.1L735.3 625.2L736.7 391.3L738 588.4L739.3 407.7L740.7 595.5L742 343.6L743.3 606.1L744.7 344.1L746 638L747.3 620.7L748.7 767.7L750 776.2L751.3 765.6L752.7 740.1L754 745.1L755.3 760.5L756.7 778.5L758 691.6L759.3 761L760.7 744.6L762 764.2L763.3 707.2L764.7 753.1L766 543L767.3 749.9L768.7 696.6L770 736.6L771.3 707.2L772.7 729.7L774 668.5L775.3 694.2L776.7 652.8L778 700.8L779.3 649.9L780.7 668.5L782 627.6L783.3 704.8L784.7 587.8L786 685.2L787.3 607.7L788.7 679.1L790 573.3L791.3 568.2L792.7 542L794 629.8L795.3 562.4L796.7 637.7L798 552.8L799.3 704.8L800.7 498.5L802 644.9L803.3 550.2L804.7 647.3L806 475.1L807.3 634.5L808.7 510.7L810 614.4L811.3 455.2L812.7 615.4L814 458.1L815.3 644.1L816.7 396.1L818 599.8L819.3 401.1L820.7 623.7L822 374.6L823.3 542.5L824.7 350.5L826 608.8L827.3 645.9L828.7 760L830 753.1L831.3 392.4L832.7 730.3L834 681.2L835.3 698.2L836.7 700.3L838 725L839.3 720.2L840.7 700.6L842 698.2L843.3 636.1L844.7 722.3L846 674L847.3 721L848.7 651.5L850 672.5L851.3 599.5L852.7 710.1L854 599.8L855.3 690.5L856.7 542.8L858 681.7L859.3 596.3L860.7 692.3L862 583.1L863.3 694.7L864.7 558.9L866 681.2L867.3 511.5L868.7 448.9L870 431.6L871.3 643L872.7 511.5L874 645.1L875.3 438.8L876.7 631.3L878 459.5L879.3 604.8L880.7 418.4L882 633.2L883.3 459.5L884.7 628.2L886 316.5L887.3 590.8L888.7 337.2L890 590.5L891.3 332.4L892.7 608.5L894 194L895.3 615.7L896.7 175.7L898 591.3L899.3 267.7L900.7 515.4L902 283.3L903.3 562.9L904.7 277.5L906 565.6L907.3 593.7L908.7 760.8L910 766.3L911.3 765.3L912.7 729.7L914 747.3L915.3 741.7L916.7 743.3L918 698.7L919.3 764L920.7 736.1L922 742.5L923.3 690L924.7 711.7L926 738.2L927.3 752.6L928.7 716L930 710.1L931.3 700.8L932.7 291.8L934 653.9L935.3 691.3L936.7 682.8L938 700.8L939.3 617L940.7 703.2L942 613L943.3 694.7L944.7 606.9L946 704L947.3 597.9L948.7 703.8L950 540.1L951.3 658.4L952.7 567.7L954 688.6L955.3 499.8L956.7 657.1L958 520.2L959.3 666.1L960.7 545.1L962 620.5L963.3 554.7L964.7 628.4L966 373.8L967.3 613.6L968.7 503.5L970 652.6L971.3 446.2L972.7 630.5L974 318.6L975.3 640.1L976.7 388.9L978 617.8L979.3 425L980.7 595.3L982 297.9L983.3 592.4L984.7 408.3L986 613.3L987.3 636.1L988.7 783.6L990 781.5L991.3 774L992.7 745.1L994 711.7L995.3 782.3L996.7 756.3L998 752.6L999.3 717.5L1000.7 743L1002 741.4L1003.3 739.6L1004.7 698.4L1006 673.8L1007.3 720.2L1008.7 654.4L1010 705.9L1011.3 700.8L1012.7 697.1L1014 675.9L1015.3 671.9L1016.7 618.6L1018 673.2L1019.3 599.5L1020.7 678.8L1022 653.9L1023.3 300.1L1024.7 569L1026 663.4L1027.3 597.7L1028.7 688.9L1030 563.2L1031.3 614.1L1032.7 586L1034 665.6L1035.3 482L1036.7 638L1038 569.8L1039.3 626.3L1040.7 462.1L1042 650.7L1043.3 540.4L1044.7 662.4L1046 497.4L1047.3 445.4L1048.7 492.1L1050 627.1L1051.3 422.3L1052.7 625.8L1054 466.1L1055.3 480.4L1056.7 386.5L1058 622.9L1059.3 421.5L1060.7 566.1L1062 399L1063.3 565.6L1064.7 337.7L1066 596.6L1067.3 636.1L1068.7 787.8L1070 744.1L1071.3 777.2L1072.7 778.5L1074 766.3L1075.3 742.7L1076.7 769.5L1078 754.7L1079.3 786.5L1080.7 738L1082 763.2L1083.3 700L1084.7 750.7L1086 739.6L1087.3 728.2L1088.7 626.6L1090 735.1L1091.3 654.9L1092.7 741.4L1094 647.5L1095.3 688.6L1096.7 577L1098 688.1L1099.3 634.5L1100.7 699L1102 636.9L1103.3 673.8L1104.7 593.4L1106 659.5L1107.3 607.2L1108.7 704.5L1110 549.6L1111.3 642.5L1112.7 201.1L1114 670.3L1115.3 448.6L1116.7 605.6L1118 536.7L1119.3 562.1L1120.7 317.3L1122 617.3L1123.3 511.5L1124.7 644.6L1126 388.1L1127.3 620.5L1128.7 200.6L1130 619.1L1131.3 425.3L1132.7 609.1L1134 484.4L1135.3 631.6L1136.7 288.1L1138 626.3L1139.3 448.9L1140.7 621.3L1142 347L1143.3 625L1144.7 301.7L1146 577.5L1147.3 636.9L1148.7 785.7L1150 794.5L1151.3 806.4L1152.7 760.8L1154 747.5L1155.3 693.1L1156.7 761L1158 673.2L1159.3 736.6L1160.7 721.5L1162 749.1L1163.3 665.6L1164.7 705.1L1166 678.8L1167.3 725.8L1168.7 644.6L1170 692.6L1171.3 626.8L1172.7 696.1L1174 574.1L1175.3 660.3L1176.7 605.3L1178 665.3L1179.3 565.6L1180.7 648.8L1182 573.3L1183.3 673.8L1184.7 540.6L1186 660.8L1187.3 539.8L1188.7 695.8L1190 484.7L1191.3 667.1L1192.7 460L1194 674.8L1195.3 413.3L1196.7 574.6L1198 439.3L1199.3 587L1200.7 418.6L1202 614.9L1203.3 373L1204.7 601.9L1206 382.8L1207.3 627.4L1208.7 390.5L1210 574.8L1211.3 329.2L1212.7 583.9L1214 338.8L1215.3 589.4L1216.7 293.4L1218 588.4L1219.3 338L1220.7 521L1222 285.7L1223.3 586.3L1224.7 -57L1226 534.8L1227.3 558.4L1228.7 732.4L1230 698.7L1231.3 752.8L1232.7 772.7L1234 748.8L1235.3 745.4L1236.7 761.8L1238 658.4L1239.3 761L1240.7 721L1242 761L1243.3 711.7L1244.7 726.3L1246 675.9L1247.3 699.2L1248.7 641.4L1250 718.9L1251.3 697.9L1252.7 708L1254 616.5L1255.3 673.5L1256.7 650.4L1258 678.3L1259.3 660.8L1260.7 688.4L1262 619.9L1263.3 683.1L1264.7 521.5L1266 646.7L1267.3 590L1268.7 686.2L1270 569.5L1271.3 672.7L1272.7 590.5L1274 671.4L1275.3 443.3L1276.7 612.5L1278 540.1L1279.3 606.4L1280.7 449.4L1282 666.4L1283.3 539.3L1284.7 579.4L1286 60.3L1287.3 566.6L1288.7 497.7L1290 645.1L1291.3 419.9L1292.7 632.1L1294 414.6L1295.3 593.9L1296.7 364.2L1298 597.7L1299.3 419.9L1300.7 632.4L1302 316L1303.3 618.6L1304.7 382L1306 623.7L1307.3 672.5L1308.7 767.7L1310 756.8L1311.3 784.4L1312.7 714.9L1314 758.1L1315.3 771.4L1316.7 754.4L1318 679.1L1319.3 764L1320.7 752.8L1322 730.8L1323.3 713.6L1324.7 744.1L1326 745.9L1327.3 701.1L1328.7 699.8L1330 715.2L1331.3 690L1332.7 722.1L1334 656.5L1335.3 695L1336.7 666.1L1338 728.2L1339.3 608.8L1340.7 678.6L1342 634L1343.3 680.4L1344.7 598.2L1346 665.8L1347.3 600L1348.7 691.3L1350 569.8L1351.3 633.5L1352.7 565.6L1354 679.4L1355.3 453.9L1356.7 648.1L1358 574.6L1359.3 339L1360.7 494.2L1362 650.7L1363.3 551.8L1364.7 653.6L1366 415.4L1367.3 514.6L1368.7 393.2L1370 618.3L1371.3 353.6L1372.7 589.7L1374 318.4L1375.3 525.5L1376.7 316.2L1378 608.5L1379.3 415.2L1380.7 607.7L1382 319.7L1383.3 593.9L1384.7 308.3L1386 610.1L1387.3 616.5L1388.7 788.9L1390 659.7L1391.3 754.9L1392.7 722.6L1394 744.6L1395.3 749.6L1396.7 688.9L1398 638.8L1399.3 720.5L1400.7 744.9L1402 737.2L1403.3 675.6L1404.7 746.2L1406 710.1L1407.3 725.2L1408.7 514.9L1410 714.1L1411.3 637.2L1412.7 692.9L1414 586.3L1415.3 702.4L1416.7 651.8L1418 718.6L1419.3 556.8L1420.7 674.6L1422 547.3L1423.3 642L1424.7 539.8L1426 670.6L1427.3 577.2L1428.7 675.6L1430 455.8L1431.3 647L1432.7 554.2L1434 640.1L1435.3 507.5L1436.7 629.8L1438 458.4L1439.3 643L1440.7 466.9L1442 612L1443.3 473L1444.7 666.1L1446 286.3L1447.3 619.4L1448.7 456.8L1450 600.8L1451.3 401.9L1452.7 600.6L1454 249.7L1455.3 581.5L1456.7 317.3L1458 609.9L1459.3 375.4L1460.7 196.4L1462 312.5L1463.3 587.3L1464.7 326.6L1466 612.8L1467.3 532.9L1468.7 758.9L1470 775.1L1471.3 792.6L1472.7 745.1L1474 765L1475.3 725L1476.7 745.4L1478 612.2L1479.3 701.1L1480.7 655.5L1482 721.5L1483.3 572.2L1484.7 616.2L1486 632.4L1487.3 582L1488.7 589.2L1490 661L1491.3 600.3L1492.7 660.3L1494 143.8L1495.3 663.2L1496.7 505.9L1498 656.3L1499.3 461.3L1500.7 634.8L1502 569.3L1503.3 682.3L1504.7 286.5L1506 599L1507.3 443.8L1508.7 556.8L1510 363.2L1511.3 582.8L1512.7 265.3L1514 615.2L1515.3 389.2L1516.7 529.8L1518 146.8L1519.3 587.8L1520.7 361.3L1522 609.9L1523.3 290L1524.7 611.4L1526 277.5L1527.3 612.5L1528.7 334.3L1530 580.7L1531.3 277.2L1532.7 465.3L1534 272.7L1535.3 581.2L1536.7 145.4L1538 455.5L1539.3 14.1L1540.7 487.8L1542 104.8L1543.3 560.8L1544.7 -13.2L1546 433.5L1547.3 557.6L1548.7 755.5L1550 752L1551.3 747.5L1552.7 726.3L1554 754.9L1555.3 726.8L1556.7 757.9L1558 704.5L1559.3 667.1L1560.7 714.4L1562 719.7L1563.3 700L1564.7 716.7L1566 692.9L1567.3 718.1L1568.7 641.7L1570 698.4L1571.3 688.4L1572.7 692.6L1574 579.9L1575.3 364.8L1576.7 577.2L1578 656L1579.3 608.5L1580.7 676.4L1582 634L1583.3 662.1L1584.7 493.2L1586 661.8L1587.3 537.2L1588.7 697.4L1590 536.1L1591.3 582.8L1592.7 521.3L1594 662.1L1595.3 492.6L1596.7 631.9L1598 537.4L1599.3 610.7L1600.7 469.3L1602 647.8L1603.3 445.4L1604.7 634L1606 394.2L1607.3 583.9L1608.7 410.1L1610 609.9L1611.3 447L1612.7 610.9L1614 440.9L1615.3 555.2L1616.7 378.8L1618 622.1L1619.3 431.6L1620.7 583.1L1622 404.3L1623.3 552.6L1624.7 315.2L1626 649.9L1627.3 610.9L1628.7 760.5L1630 780.4L1631.3 763.2L1632.7 729.7L1634 719.4L1635.3 752.8L1636.7 734.5L1638 744.6L1639.3 707.7L1640.7 761L1642 768.7L1643.3 708L1644.7 729.2L1646 745.7L1647.3 723.4L1648.7 682.5L1650 709.6L1651.3 705.9L1652.7 717.5L1654 636.9L1655.3 722.3L1656.7 572.2L1658 713.3L1659.3 635.3L1660.7 661.8L1662 625.8L1663.3 695.8L1664.7 415.2L1666 662.6L1667.3 555L1668.7 675.6L1670 544.1L1671.3 672.2L1672.7 456L1674 673.2L1675.3 529L1676.7 656.3L1678 555.7L1679.3 633.5L1680.7 402.4L1682 624.4L1683.3 485.5L1684.7 621.5L1686 469.3L1687.3 633.5L1688.7 455L1690 604.3L1691.3 415.2L1692.7 602.2L1694 401.6L1695.3 645.4L1696.7 326.6L1698 591.6L1699.3 446.2L1700.7 616.8L1702 405.6L1703.3 599.8L1704.7 348.3L1706 492.1L1707.3 644.1L1708.7 768.2L1710 772.2L1711.3 752.3L1712.7 737.7L1714 750.2L1715.3 770.1L1716.7 741.2L1718 703L1719.3 775.4L1720.7 690L1722 705.3L1723.3 677.5L1724.7 740.9L1726 695.3L1727.3 719.1L1728.7 617.8L1730 698.2L1731.3 676.4L1732.7 727.4L1734 633.7L1735.3 692.6L1736.7 624.2L1738 690.8L1739.3 624.4L1740.7 616.5L1742 627.9L1743.3 713.8L1744.7 474.9L1746 587L1747.3 576.7L1748.7 718.1L1750 579.1L1751.3 621.3L1752.7 551L1754 668.7L1755.3 387.6L1756.7 656.3L1758 483.1L1759.3 635.6L1760.7 265L1762 543.3L1763.3 458.9L1764.7 635.1L1766 342.8L1767.3 538L1768.7 434L1770 616.5L1771.3 394L1772.7 584.1L1774 406.7L1775.3 404.6L1776.7 43.8L1778 484.1L1779.3 238.3L1780.7 567.7L1782 78.3L1783.3 492.1L1784.7 4.1L1786 537.4L1787.3 549.4L1788.7 764.5L1790 771.9L1791.3 758.9L1792.7 743.5L1794 710.6L1795.3 741.2L1796.7 726.8L1798 574.1L1799.3 659.7" fill="transparent" stroke="#626c91" stroke-width="3" stroke-linejoin="bevel" class="zr2-cls-8"></path>
</g>
<path d="M-263.7 -5l527.5 0l0 28l-527.5 0Z" transform="translate(1000 5)" fill="rgb(0,0,0)" fill-opacity="0" stroke="#ccc" stroke-width="0" class="zr2-cls-6"></path>
<text dominant-baseline="central" text-anchor="middle" style="font-size:18px;font-family:sans-serif;font-weight:bold;" xml:space="preserve" y="9" transform="translate(1000 5)" fill="#666666">transportLinesUpdate per Tick for bench_1_every_60_staggered</text>
<defs >
<clipPath id="zr2-c0">
<path d="M198 58.5l16004 0l0 8703l-16004 0Z" fill="#000" class="zr2-cls-7"></path>
</clipPath>
<clipPath id="zr2-c1">
<path d="M198 58.5l16004 0l0 8703l-16004 0Z" fill="#000" class="zr2-cls-7"></path>
</clipPath>
<clipPath id="zr2-c2">
<path d="M198 58.5l16004 0l0 8703l-16004 0Z" fill="#000" class="zr2-cls-7"></path>
</clipPath>
</defs>
<style ><![CDATA[
.zr2-cls-6:hover {
pointer-events:none;
}
.zr2-cls-7:hover {
cursor:pointer;
fill:rgba(0,0,0,1);
}
.zr2-cls-8:hover {
cursor:pointer;
}

]]>

</style>
</svg>