<svg width="2000" height="1000" xmlns="http://www.w3.org/2000/svg" xmlns:xlink="http://www.w3.org/1999/xlink" version="1.1" baseProfile="full" viewBox="0 0 2000 1000">
<rect width="2000" height="1000" x="0" y="0" fill="rgb(252,252,252)" fill-opacity="0"></rect>
<path d="M200 930.5L1800 930.5" fill="transparent" stroke="#eeeeee" class="zr35-cls-105"></path>
<path d="M200 797.5L1800 797.5" fill="transparent" stroke="#eeeeee" class="zr35-cls-105"></path>
<path d="M200 665.5L1800 665.5" fill="transparent" stroke="#eeeeee" class="zr35-cls-105"></path>
<path d="M200 532.5L1800 532.5" fill="transparent" stroke="#eeeeee" class="zr35-cls-105"></path>
<path d="M200 399.5L1800 399.5" fill="transparent" stroke="#eeeeee" class="zr35-cls-105"></path>
<path d="M200 267.5L1800 267.5" fill="transparent" stroke="#eeeeee" class="zr35-cls-105"></path>
<path d="M200 134.5L1800 134.5" fill="transparent" stroke="#eeeeee" class="zr35-cls-105"></path>
<path d="M200 60.5L1800 60.5" fill="transparent" stroke="#eeeeee" class="zr35-cls-105"></path>
<path d="M200.5 930L200.5 60" fill="transparent" stroke="#cccccc" stroke-linecap="round" class="zr35-cls-105"></path>
<text dominant-baseline="central" text-anchor="middle" style="font-size:12px;font-family:sans-serif;" xml:space="preserve" y="-6" transform="translate(200 45)" fill="#cccccc">Min transportLinesUpdate Time (ms)</text>
<path d="M200 930.5L1800 930.5" fill="transparent" stroke="#cccccc" stroke-linecap="round" class="zr35-cls-105"></path>
<text dominant-baseline="central" text-anchor="end" style="font-size:12px;font-family:sans-serif;" transform="translate(192 930)" fill="#999999">0.000</text>
<text dominant-baseline="central" text-anchor="end" style="font-size:12px;font-family:sans-serif;" transform="translate(192 797.381)" fill="#999999">0.050</text>
<text dominant-baseline="central" text-anchor="end" style="font-size:12px;font-family:sans-serif;" transform="translate(192 664.762)" fill="#999999">0.100</text>
<text dominant-baseline="central" text-anchor="end" style="font-size:12px;font-family:sans-serif;" transform="translate(192 532.1431)" fill="#999999">0.150</text>
<text dominant-baseline="central" text-anchor="end" style="font-size:12px;font-family:sans-serif;" transform="translate(192 399.5241)" fill="#999999">0.200</text>
<text dominant-baseline="central" text-anchor="end" style="font-size:12px;font-family:sans-serif;" transform="translate(192 266.9051)" fill="#999999">0.250</text>
<text dominant-baseline="central" text-anchor="end" style="font-size:12px;font-family:sans-serif;" transform="translate(192 134.2861)" fill="#999999">0.300</text>
<text dominant-baseline="central" text-anchor="end" style="font-size:12px;font-family:sans-serif;" transform="translate(192 60)" fill="#999999">0.328</text>
<text dominant-baseline="central" text-anchor="middle" style="font-size:12px;font-family:sans-serif;" y="6" transform="translate(200.6667 938)" fill="#999999">0</text>
<text dominant-baseline="central" text-anchor="middle" style="font-size:12px;font-family:sans-serif;" y="6" transform="translate(236.6667 938)" fill="#999999">27</text>
<text dominant-baseline="central" text-anchor="middle" style="font-size:12px;font-family:sans-serif;" y="6" transform="translate(272.6667 938)" fill="#999999">54</text>
<text dominant-baseline="central" text-anchor="middle" style="font-size:12px;font-family:sans-serif;" y="6" transform="translate(308.6667 938)" fill="#999999">81</text>
<text dominant-baseline="central" text-anchor="middle" style="font-size:12px;font-family:sans-serif;" y="6" transform="translate(344.6667 938)" fill="#999999">108</text>
<text dominant-baseline="central" text-anchor="middle" style="font-size:12px;font-family:sans-serif;" y="6" transform="translate(380.6667 938)" fill="#999999">135</text>
<text dominant-baseline="central" text-anchor="middle" style="font-size:12px;font-family:sans-serif;" y="6" transform="translate(416.6667 938)" fill="#999999">162</text>
<text dominant-baseline="central" text-anchor="middle" style="font-size:12px;font-family:sans-serif;" y="6" transform="translate(452.6667 938)" fill="#999999">189</text>
<text dominant-baseline="central" text-anchor="middle" style="font-size:12px;font-family:sans-serif;" y="6" transform="translate(488.6667 938)" fill="#999999">216</text>
<text dominant-baseline="central" text-anchor="middle" style="font-size:12px;font-family:sans-serif;" y="6" transform="translate(524.6667 938)" fill="#999999">243</text>
<text dominant-baseline="central" text-anchor="middle" style="font-size:12px;font-family:sans-serif;" y="6" transform="translate(560.6667 938)" fill="#999999">270</text>
<text dominant-baseline="central" text-anchor="middle" style="font-size:12px;font-family:sans-serif;" y="6" transform="translate(596.6667 938)" fill="#999999">297</text>
<text dominant-baseline="central" text-anchor="middle" style="font-size:12px;font-family:sans-serif;" y="6" transform="translate(632.6667 938)" fill="#999999">324</text>
<text dominant-baseline="central" text-anchor="middle" style="font-size:12px;font-family:sans-serif;" y="6" transform="translate(668.6667 938)" fill="#999999">351</text>
<text dominant-baseline="central" text-anchor="middle" style="font-size:12px;font-family:sans-serif;" y="6" transform="translate(704.6667 938)" fill="#999999">378</text>
<text dominant-baseline="central" text-anchor="middle" style="font-size:12px;font-family:sans-serif;" y="6" transform="translate(740.6667 938)" fill="#999999">405</text>
<text dominant-baseline="central" text-anchor="middle" style="font-size:12px;font-family:sans-serif;" y="6" transform="translate(776.6667 938)" fill="#999999">432</text>
<text dominant-baseline="central" text-anchor="middle" style="font-size:12px;font-family:sans-serif;" y="6" transform="translate(812.6667 938)" fill="#999999">459</text>
<text dominant-baseline="central" text-anchor="middle" style="font-size:12px;font-family:sans-serif;" y="6" transform="translate(848.6667 938)" fill="#999999">486</text>
<text dominant-baseline="central" text-anchor="middle" style="font-size:12px;font-family:sans-serif;" y="6" transform="translate(884.6667 938)" fill="#999999">513</text>
<text dominant-baseline="central" text-anchor="middle" style="font-size:12px;font-family:sans-serif;" y="6" transform="translate(920.6667 938)" fill="#999999">540</text>
<text dominant-baseline="central" text-anchor="middle" style="font-size:12px;font-family:sans-serif;" y="6" transform="translate(956.6667 938)" fill="#999999">567</text>
<text dominant-baseline="central" text-anchor="middle" style="font-size:12px;font-family:sans-serif;" y="6" transform="translate(992.6667 938)" fill="#999999">594</text>
<text dominant-baseline="central" text-anchor="middle" style="font-size:12px;font-family:sans-serif;" y="6" transform="translate(1028.6667 938)" fill="#999999">621</text>
<text dominant-baseline="central" text-anchor="middle" style="font-size:12px;font-family:sans-serif;" y="6" transform="translate(1064.6667 938)" fill="#999999">648</text>
<text dominant-baseline="central" text-anchor="middle" style="font-size:12px;font-family:sans-serif;" y="6" transform="translate(1100.6667 938)" fill="#999999">675</text>
<text dominant-baseline="central" text-anchor="middle" style="font-size:12px;font-family:sans-serif;" y="6" transform="translate(1136.6667 938)" fill="#999999">702</text>
<text dominant-baseline="central" text-anchor="middle" style="font-size:12px;font-family:sans-serif;" y="6" transform="translate(1172.6667 938)" fill="#999999">729</text>
<text dominant-baseline="central" text-anchor="middle" style="font-size:12px;font-family:sans-serif;" y="6" transform="translate(1208.6667 938)" fill="#999999">756</text>
<text dominant-baseline="central" text-anchor="middle" style="font-size:12px;font-family:sans-serif;" y="6" transform="translate(1244.6667 938)" fill="#999999">783</text>
<text dominant-baseline="central" text-anchor="middle" style="font-size:12px;font-family:sans-serif;" y="6" transform="translate(1280.6667 938)" fill="#999999">810</text>
<text dominant-baseline="central" text-anchor="middle" style="font-size:12px;font-family:sans-serif;" y="6" transform="translate(1316.6667 938)" fill="#999999">837</text>
<text dominant-baseline="central" text-anchor="middle" style="font-size:12px;font-family:sans-serif;" y="6" transform="translate(1352.6667 938)" fill="#999999">864</text>
<text dominant-baseline="central" text-anchor="middle" style="font-size:12px;font-family:sans-serif;" y="6" transform="translate(1388.6667 938)" fill="#999999">891</text>
<text dominant-baseline="central" text-anchor="middle" style="font-size:12px;font-family:sans-serif;" y="6" transform="translate(1424.6667 938)" fill="#999999">918</text>
<text dominant-baseline="central" text-anchor="middle" style="font-size:12px;font-family:sans-serif;" y="6" transform="translate(1460.6667 938)" fill="#999999">945</text>
<text dominant-baseline="central" text-anchor="middle" style="font-size:12px;font-family:sans-serif;" y="6" transform="translate(1496.6667 938)" fill="#999999">972</text>
<text dominant-baseline="central" text-anchor="middle" style="font-size:12px;font-family:sans-serif;" y="6" transform="translate(1532.6667 938)" fill="#999999">999</text>
<text dominant-baseline="central" text-anchor="middle" style="font-size:12px;font-family:sans-serif;" y="6" transform="translate(1568.6667 938)" fill="#999999">1026</text>
<text dominant-baseline="central" text-anchor="middle" style="font-size:12px;font-family:sans-serif;" y="6" transform="translate(1604.6667 938)" fill="#999999">1053</text>
<text dominant-baseline="central" text-anchor="middle" style="font-size:12px;font-family:sans-serif;" y="6" transform="translate(1640.6667 938)" fill="#999999">1080</text>
<text dominant-baseline="central" text-anchor="middle" style="font-size:12px;font-family:sans-serif;" y="6" transform="translate(1676.6667 938)" fill="#999999">1107</text>
<text dominant-baseline="central" text-anchor="middle" style="font-size:12px;font-family:sans-serif;" y="6" transform="translate(1712.6667 938)" fill="#999999">1134</text>
<text dominant-baseline="central" text-anchor="middle" style="font-size:12px;font-family:sans-serif;" y="6" transform="translate(1748.6667 938)" fill="#999999">1161</text>
<text dominant-baseline="central" text-anchor="middle" style="font-size:12px;font-family:sans-serif;" y="6" transform="translate(1784.6667 938)" fill="#999999">1188</text>
<g clip-path="url(#zr35-c0)">
<path d="M200.7 342.8L202 626.3L203.3 728.2L204.7 623.9L206 737.2L207.3 684.1L208.7 737.4L210 687L211.3 734.5L212.7 717L214 735.3L215.3 737.4L216.7 741.2L218 743.3L219.3 733.5L220.7 -161.5L222 469.3L223.3 573.8L224.7 587.8L226 296.6L227.3 660L228.7 440.4L230 598.7L231.3 466.9L232.7 654.4L234 523.4L235.3 675.9L236.7 378.3L238 664.2L239.3 673.2L240.7 666.4L242 560.5L243.3 644.9L244.7 545.1L246 684.4L247.3 553.4L248.7 686L250 581.2L251.3 693.9L252.7 590.5L254 648.8L255.3 599.8L256.7 691L258 590.8L259.3 718.3L260.7 526.8L262 704.5L263.3 599.2L264.7 733.7L266 721.8L267.3 693.9L268.7 638L270 725L271.3 659.5L272.7 721.8L274 679.9L275.3 715.2L276.7 671.1L278 751.8L279.3 652L280.7 719.9L282 720.5L283.3 755.5L284.7 719.4L286 749.6L287.3 718.6L288.7 756.5L290 734.3L291.3 747.5L292.7 734.3L294 736.1L295.3 716.2L296.7 769L298 749.9L299.3 725.2L300.7 17.3L302 444.9L303.3 527.6L304.7 526.8L306 -348.7L307.3 144.1L308.7 -135.2L310 443L311.3 184.9L312.7 515.7L314 368.8L315.3 614.9L316.7 298.7L318 637.2L319.3 674.3L320.7 698.2L322 579.6L323.3 676.2L324.7 568.2L326 658.1L327.3 558.4L328.7 663.2L330 594.5L331.3 677.5L332.7 583.3L334 678.8L335.3 598.7L336.7 679.6L338 594.7L339.3 682L340.7 580.9L342 702.2L343.3 584.7L344.7 719.7L346 716.2L347.3 710.9L348.7 632.7L350 700.8L351.3 691.6L352.7 731.1L354 673L355.3 736.4L356.7 673.8L358 739.6L359.3 669.3L360.7 744.3L362 740.1L363.3 754.4L364.7 670.6L366 765.8L367.3 717.5L368.7 744.3L370 694.5L371.3 749.4L372.7 746.7L374 757.9L375.3 746.2L376.7 766.6L378 783.6L379.3 695L380.7 31.4L382 408L383.3 554.7L384.7 584.7L386 325.3L387.3 634.3L388.7 383.1L390 623.4L391.3 462.7L392.7 650.7L394 453.9L395.3 633.5L396.7 339L398 664.8L399.3 683.9L400.7 675.4L402 539L403.3 649.9L404.7 548.6L406 678.3L407.3 519.9L408.7 694.5L410 589.2L411.3 677.5L412.7 594.2L414 701.9L415.3 581.2L416.7 692.9L418 604.8L419.3 678.3L420.7 604.3L422 716L423.3 581.5L424.7 717.5L426 710.1L427.3 702.7L428.7 671.9L430 723.9L431.3 663.7L432.7 728.4L434 694.5L435.3 699.5L436.7 616.8L438 720.7L439.3 650.7L440.7 723.6L442 730.5L443.3 759.5L444.7 726.6L446 761.6L447.3 703L448.7 734.8L450 710.6L451.3 764L452.7 728.2L454 752L455.3 746.7L456.7 774.8L458 737.7L459.3 727.1L460.7 14.4L462 443L463.3 578L464.7 596.3L466 344.9L467.3 644.6L468.7 429.5L470 630L471.3 475.6L472.7 625.8L474 467.2L475.3 613.3L476.7 380.7L478 649.1L479.3 655.7L480.7 689.7L482 561.1L483.3 671.1L484.7 560.5L486 649.6L487.3 551.2L488.7 669.5L490 579.1L491.3 697.9L492.7 585.7L494 692.3L495.3 604.3L496.7 690.5L498 624.4L499.3 700.3L500.7 613L502 682.8L503.3 576.7L504.7 705.9L506 711.7L507.3 719.7L508.7 648.6L510 725L511.3 677L512.7 716L514 677.8L515.3 728.2L516.7 686.8L518 727.4L519.3 659.5L520.7 748.6L522 739.3L523.3 743.8L524.7 719.9L526 747.8L527.3 720.7L528.7 788.9L530 694.5L531.3 747.8L532.7 754.7L534 774L535.3 740.1L536.7 764.8L538 771.7L539.3 702.7L540.7 18.1L542 408L543.3 533.2L544.7 586.3L546 361.1L547.3 645.1L548.7 427.9L550 639.3L551.3 475.4L552.7 572.7L554 485.2L555.3 604L556.7 327.6L558 650.4L559.3 666.1L560.7 671.9L562 548.9L563.3 670.6L564.7 546.5L566 657.9L567.3 553.9L568.7 671.9L570 571.1L571.3 657.3L572.7 594.5L574 712.5L575.3 601.1L576.7 707.5L578 626L579.3 709.9L580.7 614.9L582 680.1L583.3 553.1L584.7 713.3L586 704.3L587.3 715.4L588.7 645.7L590 711.7L591.3 659.5L592.7 713.6L594 659.5L595.3 727.9L596.7 647L598 742.2L599.3 636.4L600.7 744.9L602 763.7L603.3 757.9L604.7 694.2L606 746.5L607.3 712L608.7 741.4L610 715.4L611.3 742.2L612.7 727.4L614 760.8L615.3 753.6L616.7 791.8L618 769L619.3 704.3L620.7 77.5L622 462.4L623.3 518.6L624.7 510.1L626 -333.6L627.3 131.9L628.7 -106.5L630 473.5L631.3 210.4L632.7 539.6L634 385.5L635.3 587.3L636.7 319.4L638 638L639.3 671.1L640.7 678L642 518.9L643.3 678.8L644.7 568.2L646 680.4L647.3 546.7L648.7 679.4L650 574.1L651.3 675.6L652.7 595.5L654 683.1L655.3 605.3L656.7 695L658 621.8L659.3 660.5L660.7 618.1L662 706.9L663.3 601.9L664.7 711.2L666 716.7L667.3 707.5L668.7 644.1L670 723.1L671.3 663.4L672.7 721.5L674 680.4L675.3 727.6L676.7 679.9L678 723.4L679.3 643.8L680.7 734.5L682 751.5L683.3 764.2L684.7 702.7L686 752.3L687.3 712.5L688.7 754.4L690 739.3L691.3 749.6L692.7 723.9L694 733.5L695.3 750.7L696.7 747.5L698 754.7L699.3 741.7L700.7 26.6L702 438.2L703.3 540.9L704.7 582.5L706 339L707.3 613.8L708.7 428.2L710 612L711.3 433.2L712.7 640.6L714 495.3L715.3 641.2L716.7 367.7L718 675.6L719.3 676.7L720.7 665.8L722 525L723.3 689.4L724.7 538.2L726 665.8L727.3 570.3L728.7 690.5L730 597.7L731.3 671.9L732.7 568.5L734 692.6L735.3 592.6L736.7 696.3L738 572.2L739.3 708.8L740.7 626.6L742 695L743.3 609.6L744.7 711.2L746 726.6L747.3 704.5L748.7 649.6L750 726.3L751.3 655.5L752.7 722.8L754 661.6L755.3 726.8L756.7 714.4L758 728.7L759.3 659.5L760.7 733.7L762 753.1L763.3 765.6L764.7 709.9L766 746.7L767.3 742.5L768.7 723.6L770 725.2L771.3 754.9L772.7 749.4L774 764.5L775.3 762.1L776.7 770.9L778 754.9L779.3 735.1L780.7 43.8L782 439L783.3 570.1L784.7 592.9L786 301.1L787.3 639.8L788.7 405.6L790 609.6L791.3 463.4L792.7 627.1L794 471.4L795.3 663.2L796.7 356.3L798 663.4L799.3 658.7L800.7 666.6L802 563.2L803.3 697.1L804.7 581.7L806 609.6L807.3 577.5L808.7 681.2L810 600.6L811.3 661.8L812.7 583.3L814 689.7L815.3 617.8L816.7 709.1L818 623.1L819.3 695.3L820.7 612.5L822 697.9L823.3 574.1L824.7 726.8L826 697.1L827.3 700.6L828.7 644.6L830 744.3L831.3 653.4L832.7 716.5L834 666.1L835.3 734.8L836.7 679.9L838 694.2L839.3 651.5L840.7 749.9L842 725.8L843.3 748.6L844.7 726.6L846 736.1L847.3 705.6L848.7 684.4L850 704L851.3 756.8L852.7 734.3L854 781.7L855.3 727.4L856.7 780.4L858 754.9L859.3 736.6L860.7 25.8L862 446.2L863.3 516.2L864.7 573L866 353.6L867.3 622.6L868.7 425.8L870 614.6L871.3 466.1L872.7 664L874 471.4L875.3 651.5L876.7 355L878 669.3L879.3 664.2L880.7 687L882 535.9L883.3 692.3L884.7 568.5L886 674.3L887.3 559.5L888.7 667.9L890 574.1L891.3 693.4L892.7 604.8L894 696.9L895.3 562.1L896.7 685.7L898 598.5L899.3 686.5L900.7 624.2L902 704.8L903.3 591.3L904.7 713L906 683.1L907.3 716L908.7 665.3L910 711.4L911.3 674.8L912.7 721.8L914 669.8L915.3 687.6L916.7 672.5L918 728.9L919.3 650.2L920.7 738.8L922 740.6L923.3 761L924.7 697.4L926 749.1L927.3 705.6L928.7 751.2L930 709.3L931.3 759.7L932.7 729.7L934 761.8L935.3 728.4L936.7 771.4L938 734L939.3 729.2L940.7 19.4L942 424.2L943.3 525.5L944.7 519.7L946 -295.4L947.3 140.4L948.7 -112.7L950 395L951.3 178.6L952.7 574.3L954 377.2L955.3 601.9L956.7 261.1L958 636.1L959.3 665.3L960.7 695.8L962 552L963.3 661L964.7 530L966 663.4L967.3 564L968.7 675.4L970 566.4L971.3 683.9L972.7 580.9L974 712L975.3 606.4L976.7 684.9L978 608.5L979.3 706.7L980.7 626.8L982 711.2L983.3 601.9L984.7 710.9L986 734.3L987.3 697.4L988.7 656.8L990 723.4L991.3 652.8L992.7 737.4L994 647L995.3 701.9L996.7 679.4L998 725.5L999.3 638L1000.7 717L1002 734.3L1003.3 752L1004.7 701.6L1006 746.5L1007.3 721.3L1008.7 769L1010 725.5L1011.3 747L1012.7 710.1L1014 767.9L1015.3 740.1L1016.7 749.6L1018 747L1019.3 706.1L1020.7 12L1022 415.4L1023.3 564.2L1024.7 574.3L1026 339L1027.3 636.9L1028.7 432.9L1030 628.7L1031.3 450.4L1032.7 647L1034 450.2L1035.3 639.3L1036.7 370.9L1038 678L1039.3 673.5L1040.7 696.1L1042 560L1043.3 676.7L1044.7 565.3L1046 673.2L1047.3 553.4L1048.7 687.3L1050 594.7L1051.3 701.9L1052.7 584.1L1054 684.4L1055.3 593.1L1056.7 672.2L1058 584.7L1059.3 699L1060.7 618.9L1062 721.5L1063.3 599.8L1064.7 717L1066 719.7L1067.3 694.7L1068.7 671.9L1070 712.8L1071.3 652.8L1072.7 720.5L1074 687.6L1075.3 735.6L1076.7 685.5L1078 730.8L1079.3 661.8L1080.7 726.6L1082 728.9L1083.3 764.2L1084.7 746.5L1086 732.1L1087.3 707.5L1088.7 740.9L1090 687.6L1091.3 771.7L1092.7 745.1L1094 761L1095.3 757.3L1096.7 767.7L1098 747L1099.3 725L1100.7 46.8L1102 384.9L1103.3 537.2L1104.7 593.9L1106 352L1107.3 624.4L1108.7 456.6L1110 630L1111.3 412.3L1112.7 640.9L1114 449.7L1115.3 656.3L1116.7 382L1118 663.7L1119.3 671.4L1120.7 666.1L1122 541.4L1123.3 678L1124.7 580.4L1126 640.9L1127.3 576.2L1128.7 674.8L1130 587.3L1131.3 674L1132.7 581.2L1134 683.1L1135.3 598.7L1136.7 693.1L1138 601.6L1139.3 691.6L1140.7 537.4L1142 693.9L1143.3 577.2L1144.7 713L1146 731.1L1147.3 711.4L1148.7 656L1150 740.4L1151.3 661.3L1152.7 713.6L1154 604.3L1155.3 734.3L1156.7 680.7L1158 726L1159.3 665.6L1160.7 748L1162 742.2L1163.3 779.9L1164.7 713L1166 748.8L1167.3 683.9L1168.7 743L1170 705.3L1171.3 749.6L1172.7 750.7L1174 779.9L1175.3 728.7L1176.7 768.7L1178 774.8L1179.3 699.8L1180.7 75.1L1182 381.8L1183.3 540.6L1184.7 564.2L1186 347.8L1187.3 634.5L1188.7 413.8L1190 593.1L1191.3 454.2L1192.7 625.2L1194 478.3L1195.3 653.1L1196.7 355L1198 657.6L1199.3 678.3L1200.7 657.9L1202 543L1203.3 676.4L1204.7 549.9L1206 667.1L1207.3 551L1208.7 677L1210 564L1211.3 694.7L1212.7 599.8L1214 691.8L1215.3 593.4L1216.7 690.8L1218 622.1L1219.3 687.8L1220.7 608L1222 695.3L1223.3 577.8L1224.7 724.4L1226 709.1L1227.3 732.1L1228.7 661.6L1230 708.5L1231.3 644.9L1232.7 722.6L1234 653.9L1235.3 698.4L1236.7 678.6L1238 727.4L1239.3 660.3L1240.7 745.1L1242 732.1L1243.3 758.9L1244.7 706.4L1246 745.7L1247.3 684.9L1248.7 700.8L1250 708.5L1251.3 744.1L1252.7 755.5L1254 771.9L1255.3 753.1L1256.7 754.7L1258 768.5L1259.3 732.9L1260.7 52.6L1262 435.1L1263.3 508.5L1264.7 518.1L1266 -326.2L1267.3 133.5L1268.7 -101.2L1270 442.5L1271.3 155.2L1272.7 578L1274 354.7L1275.3 620.5L1276.7 332.9L1278 651.8L1279.3 661.8L1280.7 664.8L1282 472.2L1283.3 665L1284.7 544.9L1286 668.2L1287.3 575.1L1288.7 662.4L1290 584.7L1291.3 670.6L1292.7 590.5L1294 672.5L1295.3 545.7L1296.7 679.9L1298 603.8L1299.3 701.4L1300.7 617.3L1302 701.4L1303.3 609.9L1304.7 713.8L1306 679.4L1307.3 701.6L1308.7 650.7L1310 703.5L1311.3 651L1312.7 725.8L1314 681.5L1315.3 722.3L1316.7 685.2L1318 738.2L1319.3 660L1320.7 726L1322 703L1323.3 739L1324.7 677L1326 736.6L1327.3 702.4L1328.7 757.6L1330 750.4L1331.3 746.7L1332.7 730.8L1334 785.4L1335.3 752L1336.7 761.3L1338 709.1L1339.3 695.5L1340.7 3L1342 469.8L1343.3 579.9L1344.7 617.5L1346 330.3L1347.3 658.7L1348.7 326.3L1350 614.9L1351.3 466.9L1352.7 640.6L1354 477.5L1355.3 651.2L1356.7 382.5L1358 644.3L1359.3 664.8L1360.7 657.6L1362 503L1363.3 656.8L1364.7 563.4L1366 662.6L1367.3 569L1368.7 690L1370 561.8L1371.3 687.6L1372.7 557.3L1374 690.8L1375.3 596.9L1376.7 697.9L1378 598.2L1379.3 711.7L1380.7 639.3L1382 699.5L1383.3 594.7L1384.7 706.7L1386 703.2L1387.3 719.1L1388.7 648.3L1390 729.2L1391.3 688.6L1392.7 711.4L1394 641.4L1395.3 730.5L1396.7 692.3L1398 739L1399.3 651.2L1400.7 713L1402 731.9L1403.3 739.3L1404.7 707.7L1406 749.4L1407.3 722.1L1408.7 740.6L1410 706.1L1411.3 742.5L1412.7 733.7L1414 747L1415.3 739.6L1416.7 770.1L1418 757.1L1419.3 731.3L1420.7 20.5L1422 430.6L1423.3 558.4L1424.7 577.2L1426 335.9L1427.3 617.3L1428.7 415.7L1430 650.2L1431.3 446.2L1432.7 652.6L1434 463.2L1435.3 634.8L1436.7 353.9L1438 656L1439.3 668.2L1440.7 683.1L1442 544.6L1443.3 672.5L1444.7 564.5L1446 656L1447.3 558.7L1448.7 697.1L1450 581.2L1451.3 676.2L1452.7 561.6L1454 685.5L1455.3 597.1L1456.7 645.7L1458 607.5L1459.3 705.1L1460.7 597.4L1462 707.5L1463.3 591.3L1464.7 706.1L1466 700.8L1467.3 709.6L1468.7 652L1470 707.5L1471.3 672.5L1472.7 735.3L1474 678.6L1475.3 718.9L1476.7 675.4L1478 729.2L1479.3 660L1480.7 739.6L1482 747.8L1483.3 760L1484.7 706.1L1486 750.2L1487.3 712.5L1488.7 739.8L1490 735.3L1491.3 759.7L1492.7 731.3L1494 749.1L1495.3 742.5L1496.7 763.2L1498 733.5L1499.3 706.7L1500.7 34.6L1502 438.2L1503.3 566.9L1504.7 578.8L1506 354.7L1507.3 633.7L1508.7 429.5L1510 623.7L1511.3 486L1512.7 646.2L1514 503L1515.3 652.3L1516.7 357.6L1518 656.8L1519.3 673.5L1520.7 685.2L1522 533.2L1523.3 669.8L1524.7 562.1L1526 678.8L1527.3 557.9L1528.7 687.3L1530 575.4L1531.3 680.4L1532.7 578L1534 697.9L1535.3 545.7L1536.7 686L1538 601.1L1539.3 706.9L1540.7 609.6L1542 701.6L1543.3 617.5L1544.7 720.5L1546 701.4L1547.3 691.8L1548.7 635.1L1550 715.2L1551.3 662.9L1552.7 714.4L1554 660.3L1555.3 721L1556.7 708.3L1558 725.8L1559.3 643.3L1560.7 777.5L1562 772.4L1563.3 771.9L1564.7 699.2L1566 755.5L1567.3 710.1L1568.7 755.5L1570 711.2L1571.3 754.7L1572.7 749.4L1574 794.2L1575.3 745.4L1576.7 780.9L1578 765.8L1579.3 711.4L1580.7 59.8L1582 471.7L1583.3 499.8L1584.7 546.7L1586 -337.3L1587.3 143.8L1588.7 -133.9L1590 416L1591.3 159.7L1592.7 572.2L1594 332.4L1595.3 617.5L1596.7 268.2L1598 641.4L1599.3 632.4L1600.7 678.6L1602 521.8L1603.3 661.8L1604.7 565.8L1606 625.8L1607.3 560.8L1608.7 680.4L1610 578L1611.3 663.4L1612.7 568L1614 718.9L1615.3 616.5L1616.7 703.2L1618 604.6L1619.3 685.5L1620.7 622.1L1622 670.3L1623.3 579.6L1624.7 726L1626 703L1627.3 709.1L1628.7 662.1L1630 760.8L1631.3 674.8L1632.7 710.1L1634 654.2L1635.3 720.7L1636.7 651.8L1638 734.3L1639.3 664L1640.7 721.8L1642 748.6L1643.3 764L1644.7 708.3L1646 765.8L1647.3 711.7L1648.7 741.2L1650 732.7L1651.3 734.5L1652.7 749.6L1654 764.2L1655.3 739L1656.7 777.2L1658 743.5L1659.3 717.8L1660.7 38.8L1662 439L1663.3 544.1L1664.7 586.3L1666 342.2L1667.3 648.1L1668.7 436.4L1670 618.9L1671.3 464.2L1672.7 634.8L1674 497.7L1675.3 651L1676.7 400.9L1678 658.1L1679.3 671.9L1680.7 677L1682 554.2L1683.3 652.8L1684.7 554.4L1686 674.6L1687.3 582.8L1688.7 672.5L1690 613L1691.3 675.6L1692.7 591.6L1694 697.4L1695.3 584.7L1696.7 695.3L1698 598.7L1699.3 710.4L1700.7 612.2L1702 682.8L1703.3 604.6L1704.7 718.9L1706 702.7L1707.3 689.7L1708.7 631.3L1710 722.3L1711.3 661L1712.7 709.3L1714 692.6L1715.3 722.1L1716.7 670.3L1718 715.4L1719.3 654.7L1720.7 727.4L1722 758.7L1723.3 749.6L1724.7 747.8L1726 762.1L1727.3 701.6L1728.7 761.3L1730 709.3L1731.3 733.7L1732.7 737.4L1734 749.4L1735.3 724.2L1736.7 765.8L1738 739.8L1739.3 711.4L1740.7 27.7L1742 428.7L1743.3 581.5L1744.7 595.3L1746 326.1L1747.3 652L1748.7 446.7L1750 605.3L1751.3 443L1752.7 648.8L1754 441.7L1755.3 642.2L1756.7 365L1758 648.3L1759.3 671.7L1760.7 690L1762 544.9L1763.3 683.1L1764.7 577.2L1766 678.6L1767.3 550.7L1768.7 677.8L1770 564.5L1771.3 680.7L1772.7 555L1774 730L1775.3 603.5L1776.7 673.2L1778 599.5L1779.3 692.9L1780.7 615.2L1782 693.7L1783.3 577.2L1784.7 711.7L1786 691.6L1787.3 709.6L1788.7 653.1L1790 724.4L1791.3 656.5L1792.7 725L1794 652.3L1795.3 732.1L1796.7 684.1L1798 717.8L1799.3 661" fill="transparent" stroke="#3fb1e3" stroke-width="3" stroke-linejoin="bevel" class="zr35-cls-107"></path>
</g>
<path d="M-235.5 -5l471 0l0 28l-471 0Z" transform="translate(1000 5)" fill="rgb(0,0,0)" fill-opacity="0" stroke="#ccc" stroke-width="0" class="zr35-cls-105"></path>
<text dominant-baseline="central" text-anchor="middle" style="font-size:18px;font-family:sans-serif;font-weight:bold;" xml:space="preserve" y="9" transform="translate(1000 5)" fill="#666666">Min transportLinesUpdate per Tick for bench_1_every_60</text>
<defs >
<clipPath id="zr35-c0">
<path d="M198 58.5l16004 0l0 8703l-16004 0Z" fill="#000" class="zr35-cls-106"></path>
</clipPath>
</defs>
<style ><![CDATA[
.zr35-cls-105:hover {
pointer-events:none;
}
.zr35-cls-106:hover {
cursor:pointer;
fill:rgba(0,0,0,1);
}
.zr35-cls-107:hover {
cursor:pointer;
}

]]>

</style>
</svg>