<svg width="2000" height="1000" xmlns="http://www.w3.org/2000/svg" xmlns:xlink="http://www.w3.org/1999/xlink" version="1.1" baseProfile="full" viewBox="0 0 2000 1000">
<rect width="2000" height="1000" x="0" y="0" fill="rgb(252,252,252)" fill-opacity="0"></rect>
<path d="M200 930.5L1800 930.5" fill="transparent" stroke="#eeeeee" class="zr10-cls-30"></path>
<path d="M200 797.5L1800 797.5" fill="transparent" stroke="#eeeeee" class="zr10-cls-30"></path>
<path d="M200 665.5L1800 665.5" fill="transparent" stroke="#eeeeee" class="zr10-cls-30"></path>
<path d="M200 532.5L1800 532.5" fill="transparent" stroke="#eeeeee" class="zr10-cls-30"></path>
<path d="M200 399.5L1800 399.5" fill="transparent" stroke="#eeeeee" class="zr10-cls-30"></path>
<path d="M200 267.5L1800 267.5" fill="transparent" stroke="#eeeeee" class="zr10-cls-30"></path>
<path d="M200 134.5L1800 134.5" fill="transparent" stroke="#eeeeee" class="zr10-cls-30"></path>
<path d="M200 60.5L1800 60.5" fill="transparent" stroke="#eeeeee" class="zr10-cls-30"></path>
<path d="M200.5 930L200.5 60" fill="transparent" stroke="#cccccc" stroke-linecap="round" class="zr10-cls-30"></path>
<text dominant-baseline="central" text-anchor="middle" style="font-size:12px;font-family:sans-serif;" xml:space="preserve" y="-6" transform="translate(200 45)" fill="#cccccc">transportLinesUpdate Time (ms)</text>
<path d="M200 930.5L1800 930.5" fill="transparent" stroke="#cccccc" stroke-linecap="round" class="zr10-cls-30"></path>
<text dominant-baseline="central" text-anchor="end" style="font-size:12px;font-family:sans-serif;" transform="translate(192 930)" fill="#999999">0.000</text>
<text dominant-baseline="central" text-anchor="end" style="font-size:12px;font-family:sans-serif;" transform="translate(192 797.381)" fill="#999999">0.050</text>
<text dominant-baseline="central" text-anchor="end" style="font-size:12px;font-family:sans-serif;" transform="translate(192 664.762)" fill="#999999">0.100</text>
<text dominant-baseline="central" text-anchor="end" style="font-size:12px;font-family:sans-serif;" transform="translate(192 532.1431)" fill="#999999">0.150</text>
<text dominant-baseline="central" text-anchor="end" style="font-size:12px;font-family:sans-serif;" transform="translate(192 399.5241)" fill="#999999">0.200</text>
<text dominant-baseline="central" text-anchor="end" style="font-size:12px;font-family:sans-serif;" transform="translate(192 266.9051)" fill="#999999">0.250</text>
<text dominant-baseline="central" text-anchor="end" style="font-size:12px;font-family:sans-serif;" transform="translate(192 134.2861)" fill="#999999">0.300</text>
<text dominant-baseline="central" text-anchor="end" style="font-size:12px;font-family:sans-serif;" transform="translate(192 60)" fill="#999999">0.328</text>
<text dominant-baseline="central" text-anchor="middle" style="font-size:12px;font-family:sans-serif;" y="6" transform="translate(200.6667 938)" fill="#999999">0</text>
<text dominant-baseline="central" text-anchor="middle" style="font-size:12px;font-family:sans-serif;" y="6" transform="translate(236.6667 938)" fill="#999999">27</text>
<text dominant-baseline="central" text-anchor="middle" style="font-size:12px;font-family:sans-serif;" y="6" transform="translate(272.6667 938)" fill="#999999">54</text>
<text dominant-baseline="central" text-anchor="middle" style="font-size:12px;font-family:sans-serif;" y="6" transform="translate(308.6667 938)" fill="#999999">81</text>
<text dominant-baseline="central" text-anchor="middle" style="font-size:12px;font-family:sans-serif;" y="6" transform="translate(344.6667 938)" fill="#999999">108</text>
<text dominant-baseline="central" text-anchor="middle" style="font-size:12px;font-family:sans-serif;" y="6" transform="translate(380.6667 938)" fill="#999999">135</text>
<text dominant-baseline="central" text-anchor="middle" style="font-size:12px;font-family:sans-serif;" y="6" transform="translate(416.6667 938)" fill="#999999">162</text>
<text dominant-baseline="central" text-anchor="middle" style="font-size:12px;font-family:sans-serif;" y="6" transform="translate(452.6667 938)" fill="#999999">189</text>
<text dominant-baseline="central" text-anchor="middle" style="font-size:12px;font-family:sans-serif;" y="6" transform="translate(488.6667 938)" fill="#999999">216</text>
<text dominant-baseline="central" text-anchor="middle" style="font-size:12px;font-family:sans-serif;" y="6" transform="translate(524.6667 938)" fill="#999999">243</text>
<text dominant-baseline="central" text-anchor="middle" style="font-size:12px;font-family:sans-serif;" y="6" transform="translate(560.6667 938)" fill="#999999">270</text>
<text dominant-baseline="central" text-anchor="middle" style="font-size:12px;font-family:sans-serif;" y="6" transform="translate(596.6667 938)" fill="#999999">297</text>
<text dominant-baseline="central" text-anchor="middle" style="font-size:12px;font-family:sans-serif;" y="6" transform="translate(632.6667 938)" fill="#999999">324</text>
<text dominant-baseline="central" text-anchor="middle" style="font-size:12px;font-family:sans-serif;" y="6" transform="translate(668.6667 938)" fill="#999999">351</text>
<text dominant-baseline="central" text-anchor="middle" style="font-size:12px;font-family:sans-serif;" y="6" transform="translate(704.6667 938)" fill="#999999">378</text>
<text dominant-baseline="central" text-anchor="middle" style="font-size:12px;font-family:sans-serif;" y="6" transform="translate(740.6667 938)" fill="#999999">405</text>
<text dominant-baseline="central" text-anchor="middle" style="font-size:12px;font-family:sans-serif;" y="6" transform="translate(776.6667 938)" fill="#999999">432</text>
<text dominant-baseline="central" text-anchor="middle" style="font-size:12px;font-family:sans-serif;" y="6" transform="translate(812.6667 938)" fill="#999999">459</text>
<text dominant-baseline="central" text-anchor="middle" style="font-size:12px;font-family:sans-serif;" y="6" transform="translate(848.6667 938)" fill="#999999">486</text>
<text dominant-baseline="central" text-anchor="middle" style="font-size:12px;font-family:sans-serif;" y="6" transform="translate(884.6667 938)" fill="#999999">513</text>
<text dominant-baseline="central" text-anchor="middle" style="font-size:12px;font-family:sans-serif;" y="6" transform="translate(920.6667 938)" fill="#999999">540</text>
<text dominant-baseline="central" text-anchor="middle" style="font-size:12px;font-family:sans-serif;" y="6" transform="translate(956.6667 938)" fill="#999999">567</text>
<text dominant-baseline="central" text-anchor="middle" style="font-size:12px;font-family:sans-serif;" y="6" transform="translate(992.6667 938)" fill="#999999">594</text>
<text dominant-baseline="central" text-anchor="middle" style="font-size:12px;font-family:sans-serif;" y="6" transform="translate(1028.6667 938)" fill="#999999">621</text>
<text dominant-baseline="central" text-anchor="middle" style="font-size:12px;font-family:sans-serif;" y="6" transform="translate(1064.6667 938)" fill="#999999">648</text>
<text dominant-baseline="central" text-anchor="middle" style="font-size:12px;font-family:sans-serif;" y="6" transform="translate(1100.6667 938)" fill="#999999">675</text>
<text dominant-baseline="central" text-anchor="middle" style="font-size:12px;font-family:sans-serif;" y="6" transform="translate(1136.6667 938)" fill="#999999">702</text>
<text dominant-baseline="central" text-anchor="middle" style="font-size:12px;font-family:sans-serif;" y="6" transform="translate(1172.6667 938)" fill="#999999">729</text>
<text dominant-baseline="central" text-anchor="middle" style="font-size:12px;font-family:sans-serif;" y="6" transform="translate(1208.6667 938)" fill="#999999">756</text>
<text dominant-baseline="central" text-anchor="middle" style="font-size:12px;font-family:sans-serif;" y="6" transform="translate(1244.6667 938)" fill="#999999">783</text>
<text dominant-baseline="central" text-anchor="middle" style="font-size:12px;font-family:sans-serif;" y="6" transform="translate(1280.6667 938)" fill="#999999">810</text>
<text dominant-baseline="central" text-anchor="middle" style="font-size:12px;font-family:sans-serif;" y="6" transform="translate(1316.6667 938)" fill="#999999">837</text>
<text dominant-baseline="central" text-anchor="middle" style="font-size:12px;font-family:sans-serif;" y="6" transform="translate(1352.6667 938)" fill="#999999">864</text>
<text dominant-baseline="central" text-anchor="middle" style="font-size:12px;font-family:sans-serif;" y="6" transform="translate(1388.6667 938)" fill="#999999">891</text>
<text dominant-baseline="central" text-anchor="middle" style="font-size:12px;font-family:sans-serif;" y="6" transform="translate(1424.6667 938)" fill="#999999">918</text>
<text dominant-baseline="central" text-anchor="middle" style="font-size:12px;font-family:sans-serif;" y="6" transform="translate(1460.6667 938)" fill="#999999">945</text>
<text dominant-baseline="central" text-anchor="middle" style="font-size:12px;font-family:sans-serif;" y="6" transform="translate(1496.6667 938)" fill="#999999">972</text>
<text dominant-baseline="central" text-anchor="middle" style="font-size:12px;font-family:sans-serif;" y="6" transform="translate(1532.6667 938)" fill="#999999">999</text>
<text dominant-baseline="central" text-anchor="middle" style="font-size:12px;font-family:sans-serif;" y="6" transform="translate(1568.6667 938)" fill="#999999">1026</text>
<text dominant-baseline="central" text-anchor="middle" style="font-size:12px;font-family:sans-serif;" y="6" transform="translate(1604.6667 938)" fill="#999999">1053</text>
<text dominant-baseline="central" text-anchor="middle" style="font-size:12px;font-family:sans-serif;" y="6" transform="translate(1640.6667 938)" fill="#999999">1080</text>
<text dominant-baseline="central" text-anchor="middle" style="font-size:12px;font-family:sans-serif;" y="6" transform="translate(1676.6667 938)" fill="#999999">1107</text>
<text dominant-baseline="central" text-anchor="middle" style="font-size:12px;font-family:sans-serif;" y="6" transform="translate(1712.6667 938)" fill="#999999">1134</text>
<text dominant-baseline="central" text-anchor="middle" style="font-size:12px;font-family:sans-serif;" y="6" transform="translate(1748.6667 938)" fill="#999999">1161</text>
<text dominant-baseline="central" text-anchor="middle" style="font-size:12px;font-family:sans-serif;" y="6" transform="translate(1784.6667 938)" fill="#999999">1188</text>
<g clip-path="url(#zr10-c0)">
<path d="M200.7 -183.5L202 32.7L203.3 36.1L204.7 633.2L206 513.8L207.3 19.4L208.7 700.8L210 608.3L211.3 647.5L212.7 567.2L214 724.2L215.3 591.3L216.7 700.6L218 590L219.3 610.7L220.7 535.9L222 721.3L223.3 643.5L224.7 698.2L226 645.1L227.3 631.6L228.7 621.3L230 734.3L231.3 644.1L232.7 697.7L234 654.2L235.3 748.6L236.7 679.9L238 741.7L239.3 590.5L240.7 682L242 642.2L243.3 725.2L244.7 636.4L246 528.4L247.3 578.6L248.7 628.4L250 628.7L251.3 743.8L252.7 713.6L254 716.5L255.3 653.9L256.7 736.9L258 703.5L259.3 738L260.7 667.4L262 737.4L263.3 621.3L264.7 731.3L266 615.4L267.3 711.2L268.7 696.1L270 718.3L271.3 690.5L272.7 723.1L274 581.2L275.3 762.1L276.7 733.2L278 758.7L279.3 408L280.7 715.4L282 666.6L283.3 717.8L284.7 666.1L286 722.6L287.3 698.7L288.7 744.3L290 731.1L291.3 427.9L292.7 701.1L294 734.3L295.3 750.2L296.7 754.4L298 752.3L299.3 740.9L300.7 764L302 765.3L303.3 708.8L304.7 496.6L306 737.2L307.3 735.1L308.7 718.3L310 767.9L311.3 753.9L312.7 696.1L314 -420.1L315.3 287.1L316.7 153.6L318 398.5L319.3 148.3L320.7 553.1L322 244.9L323.3 554.2L324.7 48.9L326 512L327.3 90.3L328.7 504L330 32.2L331.3 558.4L332.7 207.8L334 482.5L335.3 -148.5L336.7 474.3L338 193.7L339.3 582L340.7 266.1L342 486.8L343.3 252.3L344.7 512.3L346 178.8L347.3 445.1L348.7 197.7L350 505.1L351.3 242.5L352.7 574.6L354 145.4L355.3 474.1L356.7 177L358 544.3L359.3 269L360.7 491.3L362 303.5L363.3 564L364.7 373.3L366 391.6L367.3 144.9L368.7 501.6L370 124.2L371.3 477L372.7 304.8L374 553.1L375.3 402.7L376.7 416.5L378 291L379.3 534.8L380.7 317.3L382 504.3L383.3 374.1L384.7 549.6L386 400.9L387.3 547.8L388.7 280.4L390 568.7L391.3 388.9L392.7 553.9L394 243.8L395.3 524.5L396.7 358.9L398 446.5L399.3 134.6L400.7 504L402 439.8L403.3 579.6L404.7 454.2L406 512L407.3 420.5L408.7 495.3L410 414.6L411.3 512.3L412.7 314.1L414 523.9L415.3 464.5L416.7 555.2L418 469L419.3 429.2L420.7 417.3L422 554.2L423.3 237.5L424.7 526.3L426 466.4L427.3 593.4L428.7 476.4L430 520.2L431.3 407.7L432.7 512.8L434 445.4L435.3 502.4L436.7 473L438 548.6L439.3 506.7L440.7 499.8L442 386L443.3 489.2L444.7 496.1L446 546.2L447.3 571.7L448.7 476.4L450 525.8L451.3 503.5L452.7 502.2L454 460.5L455.3 486.3L456.7 576.4L458 606.9L459.3 557.6L460.7 588.9L462 468.2L463.3 533.7L464.7 582.3L466 425.5L467.3 523.1L468.7 608.8L470 572.7L471.3 557.3L472.7 414.6L474 522.1L475.3 508L476.7 545.1L478 467.4L479.3 604L480.7 524.5L482 570.3L483.3 497.4L484.7 552.8L486 510.4L487.3 622.1L488.7 578.8L490 695.5L491.3 456.6L492.7 675.6L494 534.5L495.3 643.8L496.7 432.7L498 620.5L499.3 496.9L500.7 669.5L502 521.5L503.3 662.6L504.7 508.5L506 590.2L507.3 545.7L508.7 649.4L510 570.3L511.3 666.4L512.7 555.5L514 710.9L515.3 566.9L516.7 583.3L518 513.3L519.3 677.2L520.7 12.3L522 331.9L523.3 273.8L524.7 654.9L526 462.7L527.3 -101.8L528.7 695.3L530 593.1L531.3 721.8L532.7 632.7L534 693.7L535.3 629.8L536.7 701.1L538 585.5L539.3 629.2L540.7 502.4L542 692.3L543.3 595.5L544.7 721L546 600.3L547.3 648.1L548.7 593.1L550 735.3L551.3 660L552.7 697.7L554 519.4L555.3 740.4L556.7 660L558 698.2L559.3 633.2L560.7 687.6L562 658.1L563.3 694.5L564.7 660.8L566 744.3L567.3 332.4L568.7 612.5L570 626.8L571.3 732.1L572.7 674.3L574 720.5L575.3 688.1L576.7 740.9L578 721.5L579.3 734.8L580.7 661.6L582 685.5L583.3 669.3L584.7 708.3L586 715.7L587.3 701.9L588.7 685.5L590 706.7L591.3 683.6L592.7 749.1L594 676.4L595.3 744.1L596.7 764.2L598 753.4L599.3 716.7L600.7 731.1L602 626.3L603.3 765.3L604.7 727.4L606 735.1L607.3 691.8L608.7 735.6L610 757.3L611.3 721.3L612.7 754.1L614 734.3L615.3 743.8L616.7 759.5L618 764.5L619.3 814.6L620.7 755.2L622 779.9L623.3 733.7L624.7 752.8L626 758.7L627.3 626L628.7 764L630 745.9L631.3 754.7L632.7 737.2L634 -548.7L635.3 275.9L636.7 106.4L638 515.7L639.3 182.3L640.7 481L642 198.7L643.3 540.4L644.7 118.4L646 490.8L647.3 143L648.7 512.8L650 227.9L651.3 562.6L652.7 -23.8L654 435.1L655.3 126.6L656.7 437.2L658 188.9L659.3 527.1L660.7 283.1L662 635.1L663.3 136.7L664.7 487.6L666 155L667.3 484.4L668.7 219.4L670 525L671.3 203.5L672.7 569.8L674 245.4L675.3 413.8L676.7 189.2L678 478.6L679.3 121.3L680.7 503L682 374.1L683.3 559.2L684.7 341.2L686 429.2L687.3 207.5L688.7 500L690 312.3L691.3 460.5L692.7 312.5L694 538.8L695.3 358.9L696.7 240.4L698 250.7L699.3 538.8L700.7 337.7L702 460.8L703.3 345.4L704.7 575.1L706 377.8L707.3 561.3L708.7 309.6L710 543.5L711.3 326.3L712.7 561.6L714 281L715.3 526.8L716.7 326.8L718 475.1L719.3 299.8L720.7 487.1L722 448.3L723.3 574.8L724.7 459.5L726 611.2L727.3 375.7L728.7 517L730 393.2L731.3 176.2L732.7 398.7L734 532.7L735.3 484.4L736.7 592.1L738 445.4L739.3 431.1L740.7 336.7L742 524.7L743.3 341.7L744.7 527.4L746 475.4L747.3 526.6L748.7 534.5L750 548.3L751.3 373.3L752.7 510.1L754 447.5L755.3 186L756.7 481.5L758 524.5L759.3 456.6L760.7 477.2L762 387.6L763.3 476.7L764.7 464.5L766 545.1L767.3 593.1L768.7 591.3L770 540.9L771.3 437.7L772.7 349.7L774 527.1L775.3 496.9L776.7 518.4L778 556.5L779.3 565.8L780.7 586L782 465.6L783.3 529.2L784.7 547L786 591.3L787.3 520.2L788.7 613L790 574.6L791.3 600L792.7 582.3L794 545.9L795.3 577.5L796.7 566.9L798 546.7L799.3 -44L800.7 362.7L802 556L803.3 470.6L804.7 608.8L806 481.2L807.3 626.8L808.7 613.3L810 673L811.3 587L812.7 655.2L814 557.1L815.3 630.5L816.7 544.1L818 -9.5L819.3 514.4L820.7 594.2L822 591.8L823.3 638.8L824.7 499.3L826 634.3L827.3 568.7L828.7 693.9L830 590.8L831.3 661L832.7 594.7L834 714.9L835.3 538.8L836.7 656.3L838 566.6L839.3 647L840.7 453.9L842 368.8L843.3 166.9L844.7 645.7L846 506.4L847.3 -130.2L848.7 661.6L850 586L851.3 689.2L852.7 615.2L854 678L855.3 617.8L856.7 705.3L858 540.4L859.3 685.5L860.7 606.7L862 674L863.3 639.3L864.7 730L866 567.7L867.3 692.3L868.7 610.7L870 726.8L871.3 658.1L872.7 706.7L874 654.7L875.3 593.7L876.7 645.1L878 717.8L879.3 604.6L880.7 714.6L882 622.3L883.3 672.5L884.7 645.4L886 693.7L887.3 672.5L888.7 641.2L890 640.4L891.3 709.3L892.7 656.8L894 738.5L895.3 658.7L896.7 740.4L898 729.5L899.3 743.3L900.7 681.5L902 722.3L903.3 683.1L904.7 698.4L906 711.4L907.3 735.6L908.7 322.6L910 702.4L911.3 650.4L912.7 694.5L914 681.7L915.3 732.7L916.7 733.5L918 774.8L919.3 704.8L920.7 693.1L922 722.3L923.3 745.9L924.7 752L926 724.2L927.3 713.3L928.7 711.2L930 727.6L931.3 675.9L932.7 752.8L934 790L935.3 706.1L936.7 768.5L938 767.4L939.3 763.4L940.7 744.6L942 749.4L943.3 699.8L944.7 756L946 750.4L947.3 745.1L948.7 760.8L950 761L951.3 745.4L952.7 704.5L954 -759.8L955.3 155L956.7 53.9L958 466.9L959.3 221.5L960.7 437.2L962 105.4L963.3 326.1L964.7 26.1L966 404.8L967.3 58.4L968.7 504L970 207.2L971.3 496.6L972.7 82L974 342L975.3 110.1L976.7 408.8L978 141.7L979.3 465L980.7 228.2L982 526.6L983.3 20L984.7 444.3L986 163.5L987.3 472.7L988.7 87.9L990 489.2L991.3 139.9L992.7 494.5L994 -28.6L995.3 300.6L996.7 59.2L998 449.7L999.3 66.9L1000.7 485.7L1002 324.7L1003.3 490.5L1004.7 354.7L1006 350.7L1007.3 203L1008.7 492.6L1010 222.6L1011.3 403.5L1012.7 221L1014 501.9L1015.3 323.9L1016.7 288.1L1018 191L1019.3 481L1020.7 263.2L1022 384.7L1023.3 301.9L1024.7 290.2L1026 302.2L1027.3 29.5L1028.7 225.8L1030 484.7L1031.3 309.9L1032.7 407.7L1034 323.7L1035.3 491.6L1036.7 403L1038 490.8L1039.3 235.3L1040.7 438.8L1042 369.6L1043.3 505.9L1044.7 344.1L1046 518.9L1047.3 422.6L1048.7 518.9L1050 241.7L1051.3 443.8L1052.7 416L1054 498.5L1055.3 493.7L1056.7 492.4L1058 384.9L1059.3 454.4L1060.7 396.1L1062 409.6L1063.3 391L1064.7 548.6L1066 463.7L1067.3 532.7L1068.7 377.2L1070 513L1071.3 373.5L1072.7 531.6L1074 327.1L1075.3 574.6L1076.7 453.4L1078 549.6L1079.3 453.4L1080.7 419.9L1082 425.8L1083.3 497.4L1084.7 565L1086 463.7L1087.3 526.6L1088.7 589.7L1090 545.1L1091.3 495.5L1092.7 470.1L1094 530.6L1095.3 518.9L1096.7 564.5L1098 573.5L1099.3 412L1100.7 501.6L1102 393.2L1103.3 475.4L1104.7 429.2L1106 547.8L1107.3 586L1108.7 630.8L1110 608L1111.3 281.2L1112.7 497.9L1114 563.4L1115.3 537.2L1116.7 498.7L1118 539.8L1119.3 583.6L1120.7 576.4L1122 553.1L1123.3 425.5L1124.7 541.4L1126 446.7L1127.3 675.1L1128.7 432.7L1130 662.6L1131.3 534.8L1132.7 655.7L1134 544.9L1135.3 537.4L1136.7 483.3L1138 616.8L1139.3 489.4L1140.7 655.5L1142 504.8L1143.3 647L1144.7 505.1L1146 651.2L1147.3 519.4L1148.7 643.3L1150 547.5L1151.3 696.6L1152.7 588.6L1154 704.8L1155.3 545.4L1156.7 674.3L1158 518.9L1159.3 677L1160.7 394.2L1162 351.3L1163.3 145.2L1164.7 704.5L1166 499.3L1167.3 -34.1L1168.7 674L1170 530.6L1171.3 695.5L1172.7 563.7L1174 653.4L1175.3 579.1L1176.7 690L1178 188.1L1179.3 694.7L1180.7 553.4L1182 658.1L1183.3 623.4L1184.7 734L1186 539.8L1187.3 569.3L1188.7 601.9L1190 664.2L1191.3 565L1192.7 748L1194 659.7L1195.3 716.2L1196.7 679.9L1198 698.2L1199.3 581.5L1200.7 717.3L1202 632.7L1203.3 729.7L1204.7 609.9L1206 731.3L1207.3 526.3L1208.7 705.1L1210 675.4L1211.3 715.2L1212.7 697.9L1214 699L1215.3 685.7L1216.7 783.3L1218 694.7L1219.3 677.5L1220.7 625.8L1222 791.8L1223.3 664.5L1224.7 684.7L1226 698.7L1227.3 741.7L1228.7 696.3L1230 721.8L1231.3 675.9L1232.7 747.5L1234 702.7L1235.3 708.3L1236.7 712L1238 767.1L1239.3 698.7L1240.7 729.2L1242 698.4L1243.3 716.7L1244.7 721.5L1246 716.7L1247.3 732.1L1248.7 738.8L1250 716.2L1251.3 690.2L1252.7 697.9L1254 756.3L1255.3 750.2L1256.7 731.1L1258 430.8L1259.3 751.2L1260.7 752L1262 744.1L1263.3 716.2L1264.7 748.8L1266 738L1267.3 722.8L1268.7 739.8L1270 765L1271.3 754.1L1272.7 735.8L1274 -483.7L1275.3 302.4L1276.7 27.1L1278 433.7L1279.3 186L1280.7 516.8L1282 228.7L1283.3 437.5L1284.7 94.8L1286 458.7L1287.3 107.2L1288.7 404.3L1290 191.6L1291.3 521.3L1292.7 206.7L1294 442.5L1295.3 52.9L1296.7 430.3L1298 150.5L1299.3 560.3L1300.7 140.9L1302 516L1303.3 279.6L1304.7 523.7L1306 -207.6L1307.3 505.9L1308.7 263.7L1310 584.4L1311.3 -34.4L1312.7 506.4L1314 140.1L1315.3 402.4L1316.7 -75.8L1318 463.7L1319.3 250.7L1320.7 555.7L1322 366.6L1323.3 563.7L1324.7 41.2L1326 481.2L1327.3 210.9L1328.7 500.3L1330 263.2L1331.3 493.9L1332.7 362.4L1334 567.7L1335.3 359.2L1336.7 314.6L1338 231.9L1339.3 521L1340.7 153.9L1342 510.1L1343.3 429.2L1344.7 545.7L1346 412L1347.3 271.4L1348.7 266.9L1350 499L1351.3 293.4L1352.7 525.5L1354 397.9L1355.3 545.7L1356.7 352.6L1358 439.8L1359.3 248.9L1360.7 527.6L1362 386.3L1363.3 558.9L1364.7 370.3L1366 564.5L1367.3 475.6L1368.7 541.7L1370 206.2L1371.3 528.2L1372.7 386.8L1374 546.5L1375.3 464L1376.7 598.2L1378 340.4L1379.3 471.4L1380.7 395.5L1382 288.4L1383.3 383.1L1384.7 560.5L1386 517L1387.3 566.6L1388.7 501.1L1390 528.4L1391.3 400.9L1392.7 461.9L1394 336.7L1395.3 560.8L1396.7 493.2L1398 573L1399.3 489.2L1400.7 389.2L1402 431.6L1403.3 438.8L1404.7 497.9L1406 424.7L1407.3 539.8L1408.7 542L1410 484.7L1411.3 469L1412.7 338.3L1414 452.8L1415.3 456.8L1416.7 326.8L1418 482L1419.3 499.3L1420.7 539.8L1422 495L1423.3 150.5L1424.7 349.9L1426 407.2L1427.3 311.5L1428.7 408.3L1430 340.4L1431.3 497.7L1432.7 356.3L1434 422.3L1435.3 320.2L1436.7 492.4L1438 339.3L1439.3 442.8L1440.7 386.3L1442 437.5L1443.3 116L1444.7 543.3L1446 470.3L1447.3 593.1L1448.7 461.9L1450 567.7L1451.3 455L1452.7 618.3L1454 454.7L1455.3 579.6L1456.7 436.9L1458 620.2L1459.3 438L1460.7 570.6L1462 310.4L1463.3 534.5L1464.7 273.8L1466 604.8L1467.3 414.1L1468.7 686.2L1470 509.6L1471.3 663.2L1472.7 576.4L1474 679.4L1475.3 468.2L1476.7 597.7L1478 484.1L1479.3 638.2L1480.7 237.7L1482 235.9L1483.3 212.8L1484.7 629.5L1486 445.9L1487.3 -51.1L1488.7 702.7L1490 455.2L1491.3 687.8L1492.7 508L1494 714.4L1495.3 550.2L1496.7 594.2L1498 557.9L1499.3 630.8L1500.7 527.6L1502 676.2L1503.3 571.7L1504.7 705.3L1506 533.5L1507.3 585.7L1508.7 596.3L1510 706.4L1511.3 579.1L1512.7 696.1L1514 525.2L1515.3 721.3L1516.7 612L1518 350.2L1519.3 261.9L1520.7 465.8L1522 246.2L1523.3 633.2L1524.7 362.4L1526 612.2L1527.3 477L1528.7 670.9L1530 609.9L1531.3 576.2L1532.7 449.4L1534 737.2L1535.3 637.4L1536.7 740.1L1538 686.5L1539.3 714.6L1540.7 641.7L1542 735.3L1543.3 590.5L1544.7 716.7L1546 677.5L1547.3 733.2L1548.7 652.8L1550 689.4L1551.3 644.1L1552.7 745.7L1554 667.7L1555.3 745.1L1556.7 737.2L1558 749.1L1559.3 722.3L1560.7 739.6L1562 693.9L1563.3 729.7L1564.7 708.8L1566 696.6L1567.3 675.6L1568.7 773L1570 698.2L1571.3 723.9L1572.7 699.2L1574 761L1575.3 620.2L1576.7 735.8L1578 768.2L1579.3 769.3L1580.7 751.2L1582 763.2L1583.3 708.5L1584.7 751.8L1586 726L1587.3 709.1L1588.7 766.1L1590 721.8L1591.3 696.9L1592.7 726.8L1594 -379.5L1595.3 237.5L1596.7 38.8L1598 460.5L1599.3 -17.7L1600.7 452.6L1602 222.1L1603.3 508.8L1604.7 -179.5L1606 395.3L1607.3 -28.6L1608.7 529.8L1610 -44.5L1611.3 499.8L1612.7 71.2L1614 259.2L1615.3 -171.8L1616.7 450.2L1618 106.2L1619.3 489.2L1620.7 90.3L1622 453.6L1623.3 -1L1624.7 402.4L1626 -149.3L1627.3 395L1628.7 79.6L1630 509.1L1631.3 157.9L1632.7 479.6L1634 167.7L1635.3 474.3L1636.7 82.8L1638 468.2L1639.3 271.7L1640.7 535.1L1642 348.3L1643.3 489.2L1644.7 279.1L1646 496.6L1647.3 119.4L1648.7 378L1650 178.3L1651.3 467.7L1652.7 290L1654 517L1655.3 138.5L1656.7 423.9L1658 230.3L1659.3 445.1L1660.7 287.9L1662 518.9L1663.3 297.9L1664.7 575.1L1666 411.5L1667.3 407.5L1668.7 164L1670 523.1L1671.3 159.5L1672.7 511.2L1674 332.4L1675.3 427.9L1676.7 344.4L1678 417.8L1679.3 308.8L1680.7 498.2L1682 312.5L1683.3 496.9L1684.7 320.2L1686 512L1687.3 426.6L1688.7 478.8L1690 323.1L1691.3 512.8L1692.7 462.4L1694 373.5L1695.3 425L1696.7 517L1698 418.6L1699.3 -26.4L1700.7 270.4L1702 499.3L1703.3 470.6L1704.7 543.3L1706 380.7L1707.3 492.6L1708.7 460.3L1710 486.8L1711.3 357.6L1712.7 468.8L1714 434.8L1715.3 531.9L1716.7 145.7L1718 444.1L1719.3 434.5L1720.7 456.6L1722 432.1L1723.3 485.2L1724.7 501.9L1726 547L1727.3 572.2L1728.7 583.3L1730 546.2L1731.3 479.1L1732.7 473.5L1734 513.3L1735.3 443.6L1736.7 560.3L1738 541.4L1739.3 543L1740.7 589.4L1742 436.9L1743.3 501.4L1744.7 508.5L1746 365.6L1747.3 500.3L1748.7 604L1750 533.5L1751.3 550.4L1752.7 536.1L1754 517.6L1755.3 530.6L1756.7 582.5L1758 383.9L1759.3 539.6L1760.7 559.7L1762 564L1763.3 476.7L1764.7 594.7L1766 543.8L1767.3 637.2L1768.7 597.9L1770 678.3L1771.3 590.5L1772.7 671.9L1774 508.8L1775.3 632.1L1776.7 548.6L1778 583.9L1779.3 510.9L1780.7 674.3L1782 565.3L1783.3 639.3L1784.7 455.5L1786 576.4L1787.3 542L1788.7 687.6L1790 551.8L1791.3 558.1L1792.7 566.6L1794 652.3L1795.3 549.4L1796.7 610.4L1798 526.3L1799.3 677.8" fill="transparent" stroke="#3fb1e3" stroke-width="3" stroke-linejoin="bevel" class="zr10-cls-32"></path>
</g>
<g clip-path="url(#zr10-c1)">
<path d="M200.7 -257.5L202 111.7L203.3 71.2L204.7 679.4L206 425L207.3 27.7L208.7 735.6L210 665L211.3 705.6L212.7 548.1L214 687.6L215.3 604L216.7 694.7L218 601.9L219.3 687.6L220.7 614.6L222 667.9L223.3 647L224.7 699L226 632.7L227.3 596.1L228.7 593.4L230 705.3L231.3 597.4L232.7 678.8L234 575.1L235.3 722.1L236.7 625.2L238 637.7L239.3 600.6L240.7 682L242 666.1L243.3 362.9L244.7 621L246 676.4L247.3 596.9L248.7 584.7L250 687.3L251.3 726L252.7 660.8L254 758.9L255.3 725.2L256.7 768.7L258 706.7L259.3 728.4L260.7 678.8L262 760L263.3 688.6L264.7 719.9L266 727.6L267.3 677.5L268.7 672.5L270 666.1L271.3 690.2L272.7 710.4L274 740.1L275.3 775.4L276.7 738L278 760L279.3 745.7L280.7 775.9L282 733.7L283.3 768.2L284.7 711.2L286 740.1L287.3 693.1L288.7 752.3L290 748.8L291.3 754.1L292.7 645.4L294 786.2L295.3 765.6L296.7 791.5L298 775.6L299.3 782L300.7 786.2L302 741.4L303.3 740.1L304.7 722.6L306 759.7L307.3 744.3L308.7 774.6L310 734L311.3 751.8L312.7 742.5L314 -821.9L315.3 109.6L316.7 7.2L318 437.5L319.3 168.5L320.7 399.3L322 152.6L323.3 467.2L324.7 160.5L326 450.2L327.3 202.2L328.7 547.8L330 199L331.3 561.8L332.7 187.1L334 473.5L335.3 190L336.7 542L338 220.5L339.3 549.9L340.7 253.1L342 595.8L343.3 320.7L344.7 527.6L346 174.3L347.3 514.9L348.7 243L350 551.5L351.3 265.8L352.7 577.8L354 245.7L355.3 531.3L356.7 228.7L358 526L359.3 275.1L360.7 562.1L362 380.7L363.3 618.1L364.7 375.1L366 527.6L367.3 243.8L368.7 476.2L370 304L371.3 529.5L372.7 385.7L374 462.7L375.3 133.5L376.7 381L378 151.3L379.3 396.3L380.7 193.2L382 517.6L383.3 378L384.7 561.3L386 397.1L387.3 437.5L388.7 323.9L390 525.2L391.3 160L392.7 525L394 326.1L395.3 532.1L396.7 329L398 359.5L399.3 285.5L400.7 542.8L402 410.9L403.3 521L404.7 474.6L406 550.2L407.3 477.2L408.7 545.1L410 414.1L411.3 546.2L412.7 413.8L414 548.9L415.3 426L416.7 541.7L418 460.5L419.3 430L420.7 387.9L422 562.1L423.3 481.7L424.7 540.9L426 525.2L427.3 586.5L428.7 497.4L430 560.3L431.3 434L432.7 592.6L434 459.7L435.3 548.1L436.7 466.6L438 531.9L439.3 496.1L440.7 382.3L442 481L443.3 538.2L444.7 550.4L446 534.8L447.3 580.4L448.7 581.2L450 586L451.3 527.6L452.7 523.9L454 544.1L455.3 550.4L456.7 566.9L458 614.6L459.3 487.6L460.7 546.2L462 467.7L463.3 535.1L464.7 567.2L466 525.8L467.3 566.4L468.7 572.7L470 570.9L471.3 623.7L472.7 502.4L474 548.3L475.3 521.8L476.7 545.4L478 483.6L479.3 583.3L480.7 602.7L482 589.7L483.3 554.4L484.7 589.7L486 551.5L487.3 635.6L488.7 605.3L490 685.2L491.3 571.7L492.7 665.3L494 496.9L495.3 602.7L496.7 538.8L498 660.5L499.3 587.6L500.7 720.7L502 590.2L503.3 658.7L504.7 553.9L506 682.3L507.3 544.3L508.7 717.5L510 602.7L511.3 682.5L512.7 632.4L514 683.9L515.3 512.3L516.7 481.2L518 588.4L519.3 693.7L520.7 390.2L522 314.1L523.3 291.3L524.7 684.7L526 480.7L527.3 60.8L528.7 721L530 652.8L531.3 669.3L532.7 645.1L534 650.4L535.3 659.7L536.7 698.7L538 651.8L539.3 685.2L540.7 632.4L542 711.7L543.3 619.7L544.7 730.5L546 627.4L547.3 641.7L548.7 609.3L550 737.7L551.3 633.5L552.7 723.9L554 678L555.3 729.7L556.7 672.5L558 706.1L559.3 588.6L560.7 718.9L562 309.3L563.3 657.3L564.7 669.5L566 695.5L567.3 624.4L568.7 711.2L570 687.8L571.3 688.4L572.7 690.5L574 701.4L575.3 698.2L576.7 692.6L578 692.3L579.3 736.9L580.7 711.4L582 718.3L583.3 709.3L584.7 747L586 743.5L587.3 731.1L588.7 702.4L590 730.8L591.3 715.7L592.7 742.7L594 739.8L595.3 700L596.7 660.8L598 578.6L599.3 643L600.7 735.3L602 732.1L603.3 718.9L604.7 754.1L606 786.8L607.3 716L608.7 717L610 717.3L611.3 706.1L612.7 682.5L614 754.4L615.3 784.1L616.7 774.3L618 776.2L619.3 789.4L620.7 732.7L622 719.7L623.3 722.1L624.7 734.3L626 699.8L627.3 793.1L628.7 786.5L630 798.2L631.3 763.2L632.7 748.3L634 -660.9L635.3 183.6L636.7 8.6L638 385.7L639.3 143L640.7 497.7L642 228.4L643.3 554.7L644.7 -25.1L646 414.6L647.3 19.2L648.7 374.1L650 107.2L651.3 550.7L652.7 280.7L654 493.7L655.3 133.5L656.7 553.6L658 251.5L659.3 546.5L660.7 282L662 580.7L663.3 328.4L664.7 565L666 169.6L667.3 509.6L668.7 241.4L670 547L671.3 292.1L672.7 577.5L674 266.1L675.3 489.4L676.7 248.6L678 452.6L679.3 230.3L680.7 572.5L682 332.2L683.3 571.7L684.7 372.2L686 513.8L687.3 273.8L688.7 495.8L690 255.8L691.3 490.2L692.7 318.9L694 544.6L695.3 374.1L696.7 484.1L698 298.7L699.3 565.6L700.7 298.2L702 594.7L703.3 420.5L704.7 604.3L706 431.4L707.3 499.3L708.7 248.1L710 518.1L711.3 308L712.7 478L714 379.9L715.3 455.5L716.7 292.1L718 473.5L719.3 348.1L720.7 415.7L722 434.8L723.3 542L724.7 442.8L726 600.3L727.3 442.2L728.7 487.3L730 390L731.3 548.9L732.7 296.1L734 426.8L735.3 441.7L736.7 569.8L738 449.7L739.3 399.5L740.7 407.2L742 528.4L743.3 507.2L744.7 537.7L746 496.9L747.3 563.2L748.7 544.6L750 562.9L751.3 438L752.7 524.2L754 453.6L755.3 582.5L756.7 517L758 569L759.3 485.2L760.7 409.1L762 475.9L763.3 465L764.7 437.7L766 540.9L767.3 561.1L768.7 569.8L770 570.1L771.3 523.9L772.7 495.3L774 532.9L775.3 506.7L776.7 558.4L778 562.6L779.3 568.7L780.7 561.3L782 467.4L783.3 552.3L784.7 552.8L786 549.1L787.3 594.5L788.7 612L790 569.5L791.3 612L792.7 579.4L794 585.2L795.3 482L796.7 521L798 599.2L799.3 604.8L800.7 612L802 617.3L803.3 457.6L804.7 529.8L806 524.5L807.3 639L808.7 514.9L810 666.4L811.3 550.4L812.7 617.5L814 568L815.3 577.5L816.7 442.8L818 612L819.3 498.7L820.7 621.8L822 579.6L823.3 678.8L824.7 540.9L826 668.5L827.3 503L828.7 662.1L830 585.5L831.3 670.9L832.7 640.6L834 726.6L835.3 581.5L836.7 670.3L838 604.6L839.3 665L840.7 466.9L842 381.8L843.3 256.6L844.7 669.8L846 448.9L847.3 -26.4L848.7 684.7L850 641.4L851.3 745.7L852.7 619.1L854 724.7L855.3 602.7L856.7 679.9L858 595.8L859.3 666.1L860.7 585.7L862 693.1L863.3 642L864.7 723.9L866 635.1L867.3 705.3L868.7 559.5L870 698.7L871.3 666.6L872.7 664L874 640.4L875.3 744.9L876.7 703.2L878 747.5L879.3 582L880.7 721.8L882 651L883.3 704.3L884.7 652.8L886 715.4L887.3 620.5L888.7 677.8L890 646.5L891.3 684.9L892.7 627.4L894 765.3L895.3 666.4L896.7 747L898 704L899.3 725.8L900.7 630.8L902 745.7L903.3 661.8L904.7 721.3L906 698.2L907.3 710.6L908.7 701.1L910 723.1L911.3 690L912.7 739.3L914 744.3L915.3 749.6L916.7 753.4L918 765L919.3 758.4L920.7 715.2L922 736.9L923.3 805.1L924.7 723.4L926 738.2L927.3 743.5L928.7 761L930 724.7L931.3 695.3L932.7 717.5L934 775.1L935.3 736.9L936.7 787.8L938 791L939.3 778.8L940.7 800.6L942 771.7L943.3 762.9L944.7 764.8L946 726.6L947.3 786.8L948.7 780.1L950 761.8L951.3 734.3L952.7 722.8L954 -371L955.3 210.7L956.7 27.9L958 430.6L959.3 186L960.7 529.8L962 200.9L963.3 544.3L964.7 179.1L966 418.6L967.3 -98.3L968.7 454.4L970 160.3L971.3 538.5L972.7 171.2L974 442.8L975.3 127.4L976.7 480.7L978 167.4L979.3 490L980.7 186L982 525.8L983.3 234L984.7 458.1L986 166.9L987.3 452.3L988.7 99.8L990 491.8L991.3 264.8L992.7 539.6L994 217L995.3 511.2L996.7 216L998 536.9L999.3 312.3L1000.7 598.5L1002 371.7L1003.3 553.6L1004.7 301.7L1006 511.5L1007.3 257.4L1008.7 502.7L1010 293.2L1011.3 522.9L1012.7 382.3L1014 547.3L1015.3 351.3L1016.7 492.9L1018 236.9L1019.3 544.3L1020.7 248.1L1022 539L1023.3 400.3L1024.7 596.9L1026 374.6L1027.3 484.7L1028.7 310.9L1030 573.8L1031.3 258.7L1032.7 554.4L1034 378L1035.3 564L1036.7 392.6L1038 526L1039.3 343.3L1040.7 545.7L1042 433.7L1043.3 507.2L1044.7 409.9L1046 434.8L1047.3 440.6L1048.7 533.2L1050 381L1051.3 492.9L1052.7 395.5L1054 456.6L1055.3 447.8L1056.7 549.1L1058 286.8L1059.3 457.1L1060.7 357.4L1062 563.7L1063.3 469.3L1064.7 536.1L1066 469.5L1067.3 548.6L1068.7 523.7L1070 477.5L1071.3 448.1L1072.7 545.4L1074 517.6L1075.3 556.3L1076.7 432.1L1078 583.1L1079.3 466.6L1080.7 497.7L1082 495.8L1083.3 558.9L1084.7 543.3L1086 575.6L1087.3 564.2L1088.7 556.8L1090 580.4L1091.3 584.1L1092.7 573.8L1094 571.9L1095.3 557.6L1096.7 581.5L1098 588.1L1099.3 606.9L1100.7 578.3L1102 401.6L1103.3 512.3L1104.7 530.3L1106 565.6L1107.3 580.9L1108.7 614.9L1110 575.4L1111.3 652L1112.7 538.8L1114 527.1L1115.3 566.4L1116.7 553.4L1118 580.9L1119.3 623.7L1120.7 610.7L1122 596.3L1123.3 552L1124.7 590.8L1126 535.9L1127.3 597.7L1128.7 569L1130 647L1131.3 577.2L1132.7 667.4L1134 539.3L1135.3 580.7L1136.7 542.5L1138 622.9L1139.3 535.9L1140.7 605.6L1142 513.3L1143.3 639L1144.7 496.9L1146 588.9L1147.3 539.3L1148.7 695.5L1150 550.2L1151.3 711.4L1152.7 591.8L1154 697.4L1155.3 573L1156.7 653.4L1158 573.8L1159.3 671.4L1160.7 468.8L1162 374.1L1163.3 300.3L1164.7 692.1L1166 487.3L1167.3 47.8L1168.7 706.4L1170 573.5L1171.3 727.1L1172.7 589.7L1174 716.5L1175.3 594.7L1176.7 717.3L1178 585.5L1179.3 687L1180.7 645.1L1182 702.4L1183.3 642L1184.7 692.1L1186 532.7L1187.3 677.2L1188.7 579.4L1190 731.6L1191.3 588.1L1192.7 749.6L1194 679.4L1195.3 733.5L1196.7 700.6L1198 691.8L1199.3 631.1L1200.7 735.1L1202 670.1L1203.3 718.6L1204.7 623.9L1206 718.1L1207.3 678L1208.7 690.5L1210 655.2L1211.3 724.2L1212.7 700.3L1214 676.2L1215.3 703.8L1216.7 756.8L1218 714.4L1219.3 727.4L1220.7 700L1222 704.3L1223.3 617.5L1224.7 350.2L1226 725L1227.3 781.5L1228.7 675.9L1230 694.5L1231.3 680.9L1232.7 737.4L1234 740.4L1235.3 721.8L1236.7 743L1238 699.8L1239.3 713.6L1240.7 726.6L1242 675.9L1243.3 701.9L1244.7 721.8L1246 747.5L1247.3 728.7L1248.7 735.3L1250 747L1251.3 748.8L1252.7 734.3L1254 772.7L1255.3 731.6L1256.7 776.4L1258 765.8L1259.3 748.8L1260.7 771.7L1262 722.6L1263.3 691.8L1264.7 758.9L1266 724.4L1267.3 704.5L1268.7 778.5L1270 731.6L1271.3 770.6L1272.7 695.3L1274 -407.9L1275.3 295L1276.7 43L1278 403L1279.3 192.9L1280.7 564.2L1282 234.8L1283.3 382.5L1284.7 70.9L1286 494.7L1287.3 116.8L1288.7 527.6L1290 186L1291.3 532.1L1292.7 257.4L1294 529L1295.3 -20.6L1296.7 418.4L1298 57.6L1299.3 450.7L1300.7 270.9L1302 394L1303.3 232.4L1304.7 447.3L1306 164L1307.3 448.6L1308.7 170.9L1310 477L1311.3 233.2L1312.7 527.6L1314 209.1L1315.3 450.4L1316.7 230L1318 488.6L1319.3 236.1L1320.7 542.5L1322 349.4L1323.3 555.7L1324.7 -54.8L1326 495.3L1327.3 262.7L1328.7 493.9L1330 295L1331.3 538.8L1332.7 349.7L1334 561.1L1335.3 392.4L1336.7 484.9L1338 303.2L1339.3 570.3L1340.7 370.3L1342 529.8L1343.3 384.7L1344.7 579.6L1346 421.5L1347.3 572.7L1348.7 302.4L1350 519.4L1351.3 353.4L1352.7 570.1L1354 422.3L1355.3 595L1356.7 385.2L1358 549.4L1359.3 353.6L1360.7 463.7L1362 425.5L1363.3 576.4L1364.7 449.4L1366 575.4L1367.3 495.5L1368.7 563.7L1370 471.4L1371.3 565.3L1372.7 165.3L1374 491.3L1375.3 437.7L1376.7 510.9L1378 424.2L1379.3 520.7L1380.7 408.3L1382 556L1383.3 379.4L1384.7 451.5L1386 484.1L1387.3 580.4L1388.7 486.8L1390 568.2L1391.3 338.8L1392.7 552.6L1394 463.4L1395.3 578.3L1396.7 410.7L1398 536.7L1399.3 514.6L1400.7 578L1402 475.6L1403.3 512.3L1404.7 513L1406 540.1L1407.3 589.7L1408.7 611.2L1410 531.9L1411.3 575.4L1412.7 528.2L1414 544.1L1415.3 342L1416.7 564.8L1418 588.9L1419.3 546.2L1420.7 581.2L1422 346.2L1423.3 493.2L1424.7 579.6L1426 556.3L1427.3 576.4L1428.7 534.3L1430 608.8L1431.3 608.8L1432.7 550.7L1434 537.4L1435.3 552.3L1436.7 619.4L1438 586.8L1439.3 624.7L1440.7 623.1L1442 471.7L1443.3 560.8L1444.7 586.5L1446 542.8L1447.3 606.7L1448.7 544.6L1450 690.2L1451.3 570.3L1452.7 669L1454 526.6L1455.3 616.2L1456.7 532.4L1458 657.6L1459.3 569.5L1460.7 662.1L1462 506.7L1463.3 665.3L1464.7 455.8L1466 617.5L1467.3 542L1468.7 667.7L1470 585.7L1471.3 693.9L1472.7 572.5L1474 524.2L1475.3 449.1L1476.7 667.9L1478 574.1L1479.3 642.5L1480.7 409.6L1482 382.3L1483.3 252.8L1484.7 652.6L1486 503.8L1487.3 116L1488.7 717L1490 637.2L1491.3 687.3L1492.7 610.1L1494 749.6L1495.3 613.8L1496.7 713.6L1498 545.9L1499.3 675.9L1500.7 601.9L1502 681.5L1503.3 620.2L1504.7 721L1506 619.1L1507.3 700.3L1508.7 587L1510 695.5L1511.3 601.6L1512.7 696.1L1514 668.2L1515.3 688.1L1516.7 618.3L1518 716L1519.3 565.6L1520.7 691.8L1522 653.9L1523.3 681.5L1524.7 636.6L1526 757.9L1527.3 575.6L1528.7 705.3L1530 599.2L1531.3 746.2L1532.7 684.7L1534 728.9L1535.3 691.6L1536.7 754.9L1538 692.1L1539.3 721.8L1540.7 668.7L1542 721.5L1543.3 678.6L1544.7 691.3L1546 604.8L1547.3 623.9L1548.7 717.8L1550 708.5L1551.3 693.9L1552.7 739.6L1554 707.2L1555.3 752L1556.7 782L1558 752L1559.3 652.3L1560.7 750.7L1562 712.2L1563.3 307L1564.7 720.2L1566 754.4L1567.3 710.1L1568.7 744.6L1570 743.3L1571.3 661.3L1572.7 753.1L1574 764.2L1575.3 738L1576.7 777.2L1578 738.5L1579.3 764.5L1580.7 728.2L1582 758.1L1583.3 760.8L1584.7 758.7L1586 742.5L1587.3 789.7L1588.7 760.5L1590 787.8L1591.3 765.6L1592.7 747L1594 -365.7L1595.3 269.3L1596.7 59L1598 502.7L1599.3 177.8L1600.7 513L1602 244.9L1603.3 487.6L1604.7 186.3L1606 515.7L1607.3 197.7L1608.7 545.4L1610 39.6L1611.3 531.1L1612.7 294.8L1614 518.9L1615.3 54.7L1616.7 539L1618 175.9L1619.3 574.3L1620.7 284.7L1622 478.3L1623.3 258.4L1624.7 535.6L1626 194.8L1627.3 430L1628.7 148.1L1630 521.3L1631.3 200.1L1632.7 325.3L1634 166.1L1635.3 423.4L1636.7 131.1L1638 380.7L1639.3 255L1640.7 546.5L1642 294.5L1643.3 587L1644.7 271.1L1646 490L1647.3 204.6L1648.7 531.3L1650 254.4L1651.3 503L1652.7 361.6L1654 548.9L1655.3 363.7L1656.7 477L1658 286.8L1659.3 441.2L1660.7 326.6L1662 551.8L1663.3 407.7L1664.7 547.5L1666 388.4L1667.3 497.4L1668.7 320L1670 575.9L1671.3 314.9L1672.7 546.7L1674 340.1L1675.3 605.9L1676.7 370.3L1678 519.9L1679.3 332.2L1680.7 546.5L1682 480.2L1683.3 575.6L1684.7 498.5L1686 582.5L1687.3 464.2L1688.7 539.6L1690 429.8L1691.3 541.2L1692.7 465.3L1694 586L1695.3 438.2L1696.7 576.4L1698 533.7L1699.3 477L1700.7 406.7L1702 527.1L1703.3 491.8L1704.7 573.8L1706 318.6L1707.3 530.8L1708.7 534.8L1710 525.5L1711.3 324.7L1712.7 509.6L1714 406.2L1715.3 548.1L1716.7 536.1L1718 423.4L1719.3 426.6L1720.7 533.5L1722 509.3L1723.3 442.8L1724.7 554.2L1726 545.7L1727.3 579.1L1728.7 555.7L1730 549.1L1731.3 524.5L1732.7 493.9L1734 527.1L1735.3 540.4L1736.7 561.3L1738 589.2L1739.3 548.1L1740.7 592.6L1742 496.6L1743.3 574.8L1744.7 566.9L1746 579.4L1747.3 460L1748.7 605.9L1750 501.6L1751.3 603.2L1752.7 534.3L1754 551.2L1755.3 563.7L1756.7 605.3L1758 593.4L1759.3 599L1760.7 613.6L1762 614.1L1763.3 533.2L1764.7 587.6L1766 556.8L1767.3 673.2L1768.7 590.8L1770 684.9L1771.3 601.4L1772.7 704.5L1774 541.4L1775.3 646.7L1776.7 537.7L1778 672.5L1779.3 568.7L1780.7 659.7L1782 590.2L1783.3 640.1L1784.7 518.6L1786 641.4L1787.3 553.6L1788.7 721.8L1790 530.3L1791.3 703.2L1792.7 579.6L1794 691.3L1795.3 499.3L1796.7 642L1798 550.7L1799.3 634.5" fill="transparent" stroke="#6be6c1" stroke-width="3" stroke-linejoin="bevel" class="zr10-cls-32"></path>
</g>
<g clip-path="url(#zr10-c2)">
<path d="M200.7 -194.6L202 82L203.3 -12.9L204.7 650.7L206 456.8L207.3 -60.1L208.7 705.1L210 570.9L211.3 645.4L212.7 618.1L214 664.5L215.3 589.4L216.7 706.7L218 616.8L219.3 704.5L220.7 579.6L222 725.2L223.3 577L224.7 727.9L226 627.6L227.3 662.4L228.7 604.3L230 693.4L231.3 610.9L232.7 727.4L234 663.2L235.3 701.4L236.7 661.3L238 730.5L239.3 593.1L240.7 740.6L242 637.2L243.3 671.7L244.7 626.8L246 694.2L247.3 623.1L248.7 702.7L250 641.4L251.3 692.1L252.7 694.7L254 724.7L255.3 699.8L256.7 731.1L258 691.8L259.3 715.4L260.7 670.6L262 746.7L263.3 679.4L264.7 748.3L266 702.7L267.3 690L268.7 637.2L270 694.5L271.3 695.8L272.7 714.1L274 732.1L275.3 734.3L276.7 764.5L278 758.7L279.3 728.2L280.7 668.2L282 703.5L283.3 722.8L284.7 658.1L286 703.2L287.3 687.3L288.7 720.7L290 722.8L291.3 739.6L292.7 718.1L294 715.4L295.3 733.2L296.7 755.2L298 775.9L299.3 497.4L300.7 754.1L302 781.5L303.3 676.2L304.7 741.4L306 792.6L307.3 741.2L308.7 708L310 773.8L311.3 749.9L312.7 514.4L314 -440.2L315.3 177.3L316.7 -27.8L318 322.3L319.3 137.2L320.7 474.1L322 191.3L323.3 497.4L324.7 97.2L326 495.8L327.3 146.5L328.7 484.7L330 43.8L331.3 507.7L332.7 175.1L334 456L335.3 130.8L336.7 525.5L338 189.5L339.3 452L340.7 204.6L342 571.9L343.3 245.7L344.7 531.1L346 192.4L347.3 493.4L348.7 206.4L350 458.4L351.3 111.2L352.7 553.4L354 223.4L355.3 416.8L356.7 188.1L358 512.8L359.3 257.1L360.7 493.7L362 298.5L363.3 524.7L364.7 386.8L366 372.7L367.3 181.2L368.7 493.9L370 278L371.3 477.5L372.7 325.8L374 506.1L375.3 325L376.7 489.7L378 103.5L379.3 495.5L380.7 259.5L382 353.6L383.3 364.2L384.7 593.9L386 352.6L387.3 471.9L388.7 283.3L390 558.4L391.3 266.1L392.7 535.6L394 352.8L395.3 544.3L396.7 370.9L398 496.9L399.3 265.3L400.7 485.2L402 421.8L403.3 564.2L404.7 385.2L406 494.7L407.3 454.2L408.7 484.4L410 316.8L411.3 535.6L412.7 386.5L414 476.4L415.3 395.5L416.7 584.1L418 488.6L419.3 465.3L420.7 361.6L422 580.9L423.3 480.4L424.7 554.4L426 486.8L427.3 582.3L428.7 380.2L430 529.8L431.3 211.5L432.7 493.9L434 443.6L435.3 523.7L436.7 468.8L438 542.5L439.3 490.5L440.7 461.1L442 377.5L443.3 388.6L444.7 539.6L446 528.4L447.3 497.9L448.7 570.6L450 569.3L451.3 540.9L452.7 536.7L454 537.4L455.3 477.5L456.7 521.5L458 587.8L459.3 547.5L460.7 545.9L462 534.8L463.3 481.5L464.7 543L466 601.4L467.3 486.8L468.7 598.7L470 577.2L471.3 592.6L472.7 588.1L474 547L475.3 531.9L476.7 510.7L478 531.9L479.3 595.5L480.7 559.2L482 531.9L483.3 500.6L484.7 619.1L486 489.4L487.3 643.8L488.7 551.2L490 669.5L491.3 606.7L492.7 701.9L494 353.6L495.3 578L496.7 523.4L498 620.7L499.3 545.1L500.7 680.9L502 577.2L503.3 663.4L504.7 542L506 620.2L507.3 512.5L508.7 610.7L510 488.9L511.3 675.4L512.7 562.1L514 598.2L515.3 541.7L516.7 639L518 500.8L519.3 669L520.7 420.5L522 248.1L523.3 271.1L524.7 679.6L526 474.1L527.3 54.2L528.7 618.1L530 537.4L531.3 718.9L532.7 613L534 714.9L535.3 625L536.7 674.3L538 564.2L539.3 682L540.7 591L542 712.2L543.3 607.2L544.7 713.8L546 605.9L547.3 639.6L548.7 594.5L550 712.2L551.3 587.3L552.7 687.8L554 625.5L555.3 710.6L556.7 677.8L558 712.2L559.3 587.8L560.7 666.6L562 658.7L563.3 706.7L564.7 637.4L566 716.2L567.3 663.7L568.7 664L570 664.5L571.3 510.9L572.7 563.2L574 700.6L575.3 600.8L576.7 709.9L578 601.4L579.3 722.1L580.7 454.7L582 668.5L583.3 577.8L584.7 714.4L586 647.3L587.3 709.1L588.7 704.3L590 398.5L591.3 426.8L592.7 689.2L594 657.9L595.3 722.1L596.7 675.6L598 664.8L599.3 719.1L600.7 734.8L602 670.9L603.3 755.7L604.7 677.5L606 748.3L607.3 733.5L608.7 735.1L610 733.2L611.3 710.6L612.7 707.7L614 745.1L615.3 710.6L616.7 783.6L618 748.3L619.3 769.8L620.7 751.8L622 753.6L623.3 691L624.7 748.8L626 709.9L627.3 752L628.7 738.5L630 753.9L631.3 720.2L632.7 674.8L634 -421.9L635.3 178.6L636.7 -29.4L638 358.1L639.3 145.7L640.7 506.4L642 192.6L643.3 500.3L644.7 191.8L646 519.1L647.3 37.2L648.7 518.4L650 160L651.3 508L652.7 285.2L654 488.9L655.3 93.7L656.7 525.2L658 138.8L659.3 514.6L660.7 197.7L662 593.4L663.3 271.4L664.7 516.2L666 -4.7L667.3 505.9L668.7 135.9L670 461.3L671.3 161.3L672.7 440.4L674 189.7L675.3 466.4L676.7 111.5L678 470.6L679.3 227.6L680.7 479.9L682 316L683.3 491L684.7 257.1L686 499.3L687.3 171.2L688.7 431.9L690 271.9L691.3 484.7L692.7 277.5L694 524.5L695.3 333.5L696.7 460.8L698 277.8L699.3 549.4L700.7 318.1L702 560.3L703.3 340.1L704.7 546.5L706 365L707.3 421.8L708.7 283.3L710 533.2L711.3 342.8L712.7 561.6L714 365.3L715.3 563.2L716.7 376.2L718 512.8L719.3 308L720.7 528.4L722 461.6L723.3 544.9L724.7 454.4L726 584.7L727.3 358.1L728.7 480.7L730 313.3L731.3 531.1L732.7 408L734 526.6L735.3 484.1L736.7 580.2L738 476.2L739.3 466.6L740.7 369L742 556.8L743.3 435.9L744.7 555L746 500.6L747.3 582.5L748.7 537.7L750 512.8L751.3 361.1L752.7 475.1L754 421.5L755.3 529.5L756.7 486.5L758 550.2L759.3 442L760.7 361.3L762 446.5L763.3 379.9L764.7 487.6L766 523.1L767.3 564.5L768.7 580.4L770 388.6L771.3 540.1L772.7 484.1L774 508L775.3 485.5L776.7 530L778 564L779.3 555.2L780.7 555.2L782 495.3L783.3 496.6L784.7 531.3L786 559.7L787.3 563.2L788.7 591L790 596.9L791.3 582.8L792.7 544.1L794 329.2L795.3 557.3L796.7 541.2L798 499.5L799.3 601.4L800.7 536.1L802 590L803.3 483.6L804.7 617L806 525.2L807.3 612.2L808.7 551.5L810 625L811.3 586.5L812.7 641.7L814 554.4L815.3 640.9L816.7 599.2L818 607.7L819.3 535.3L820.7 643.8L822 591.6L823.3 633.2L824.7 537.2L826 616L827.3 566.6L828.7 689.2L830 601.1L831.3 671.4L832.7 547.5L834 678.6L835.3 534.3L836.7 652.8L838 546.5L839.3 643L840.7 421.8L842 370.9L843.3 159.5L844.7 648.3L846 496.3L847.3 35.9L848.7 670.6L850 617.8L851.3 695.3L852.7 612.5L854 714.4L855.3 617L856.7 700.3L858 529L859.3 588.6L860.7 586.5L862 680.7L863.3 631.9L864.7 683.1L866 588.6L867.3 648.1L868.7 621.3L870 709.6L871.3 633.7L872.7 648.8L874 647.3L875.3 715.2L876.7 642.2L878 666.9L879.3 625L880.7 681.2L882 666.1L883.3 686.8L884.7 648.3L886 767.1L887.3 656.8L888.7 706.4L890 642.7L891.3 695L892.7 656.5L894 728.2L895.3 669.8L896.7 724.4L898 698.4L899.3 736.1L900.7 623.7L902 699.5L903.3 539.6L904.7 713.6L906 690.8L907.3 711.4L908.7 701.4L910 718.3L911.3 648.3L912.7 739L914 726.3L915.3 697.9L916.7 738L918 749.9L919.3 716.7L920.7 704.3L922 679.4L923.3 689.2L924.7 716.2L926 709.1L927.3 716.5L928.7 749.6L930 735.6L931.3 709.9L932.7 674.8L934 744.6L935.3 720.5L936.7 748.8L938 759.5L939.3 712.8L940.7 743.5L942 727.1L943.3 735.8L944.7 710.4L946 725.2L947.3 748.8L948.7 739.8L950 755.2L951.3 723.1L952.7 705.9L954 -371.3L955.3 182.3L956.7 -7.4L958 376.2L959.3 110.9L960.7 521.3L962 192.9L963.3 474.9L964.7 104.6L966 435.1L967.3 14.7L968.7 476.7L970 147.3L971.3 558.4L972.7 261.6L974 482.8L975.3 86.5L976.7 497.4L978 196.9L979.3 502.2L980.7 162.7L982 571.1L983.3 203.5L984.7 501.9L986 16.3L987.3 506.7L988.7 184.7L990 515.2L991.3 248.3L992.7 564.2L994 231.1L995.3 539.8L996.7 181.2L998 525L999.3 94.2L1000.7 509.1L1002 310.9L1003.3 516.8L1004.7 338.5L1006 466.4L1007.3 220.5L1008.7 507.7L1010 86.5L1011.3 434.3L1012.7 251.3L1014 519.7L1015.3 297.1L1016.7 375.4L1018 177.3L1019.3 510.4L1020.7 320.7L1022 533.2L1023.3 346.5L1024.7 390.2L1026 384.9L1027.3 483.3L1028.7 298.7L1030 479.9L1031.3 324.2L1032.7 525.5L1034 342L1035.3 522.6L1036.7 375.4L1038 537.4L1039.3 339L1040.7 497.7L1042 383.6L1043.3 484.7L1044.7 324.2L1046 548.3L1047.3 389.2L1048.7 522.9L1050 370.1L1051.3 526L1052.7 355.8L1054 536.4L1055.3 445.1L1056.7 556.8L1058 465.6L1059.3 483.3L1060.7 372.5L1062 537.7L1063.3 449.4L1064.7 481L1066 500.3L1067.3 576.4L1068.7 515.2L1070 587L1071.3 453.4L1072.7 553.6L1074 496.1L1075.3 564L1076.7 217.3L1078 512.3L1079.3 352.6L1080.7 497.7L1082 461.9L1083.3 465.6L1084.7 476.2L1086 565.6L1087.3 552L1088.7 443.6L1090 405.1L1091.3 447L1092.7 489.4L1094 523.1L1095.3 444.3L1096.7 516.8L1098 561.3L1099.3 531.3L1100.7 526L1102 440.6L1103.3 473.5L1104.7 518.1L1106 575.6L1107.3 523.7L1108.7 581.7L1110 613L1111.3 622.9L1112.7 501.4L1114 532.1L1115.3 561.8L1116.7 601.6L1118 521.8L1119.3 595.8L1120.7 567.7L1122 568.5L1123.3 528.2L1124.7 530.3L1126 391L1127.3 662.1L1128.7 592.9L1130 642L1131.3 555.7L1132.7 681.5L1134 500.6L1135.3 608.5L1136.7 499L1138 650.7L1139.3 559.7L1140.7 642.5L1142 571.7L1143.3 679.6L1144.7 543L1146 630.8L1147.3 482L1148.7 604.3L1150 589.4L1151.3 708.3L1152.7 563.7L1154 689.4L1155.3 570.1L1156.7 639L1158 490.2L1159.3 625.8L1160.7 419.9L1162 301.4L1163.3 247.5L1164.7 423.9L1166 469.5L1167.3 -58.3L1168.7 682.8L1170 530.3L1171.3 616.2L1172.7 621.5L1174 748.6L1175.3 594.5L1176.7 710.6L1178 574.1L1179.3 719.1L1180.7 545.4L1182 660.3L1183.3 579.9L1184.7 683.3L1186 561.8L1187.3 639.8L1188.7 614.1L1190 683.6L1191.3 588.9L1192.7 702.7L1194 693.9L1195.3 712.5L1196.7 648.6L1198 724.4L1199.3 604.6L1200.7 701.9L1202 658.4L1203.3 701.6L1204.7 659.2L1206 714.9L1207.3 660.8L1208.7 722.6L1210 676.2L1211.3 669.3L1212.7 705.3L1214 712.5L1215.3 648.3L1216.7 727.4L1218 683.9L1219.3 738.5L1220.7 658.4L1222 734.8L1223.3 537.4L1224.7 701.1L1226 712.2L1227.3 732.4L1228.7 682.5L1230 636.6L1231.3 704.3L1232.7 759.5L1234 685.7L1235.3 749.1L1236.7 722.6L1238 757.1L1239.3 747.5L1240.7 724.2L1242 519.7L1243.3 723.1L1244.7 702.2L1246 669.8L1247.3 600.3L1248.7 769.3L1250 714.9L1251.3 711.7L1252.7 729.7L1254 731.3L1255.3 705.9L1256.7 748L1258 767.7L1259.3 743.8L1260.7 763.2L1262 748.3L1263.3 710.1L1264.7 764.2L1266 690.8L1267.3 642L1268.7 711.7L1270 765.3L1271.3 741.4L1272.7 735.1L1274 -450.8L1275.3 135.1L1276.7 -38.6L1278 341.2L1279.3 102.2L1280.7 460.3L1282 133.8L1283.3 455.5L1284.7 77.3L1286 410.4L1287.3 14.4L1288.7 513.6L1290 209.1L1291.3 557.1L1292.7 180.7L1294 489.7L1295.3 141.7L1296.7 548.6L1298 236.1L1299.3 579.4L1300.7 242.8L1302 593.9L1303.3 269L1304.7 478.8L1306 122.6L1307.3 552L1308.7 216L1310 501.9L1311.3 215.4L1312.7 561.1L1314 279.6L1315.3 493.4L1316.7 179.9L1318 577.5L1319.3 193.7L1320.7 519.4L1322 240.4L1323.3 480.2L1324.7 299.5L1326 514.9L1327.3 244.1L1328.7 439.3L1330 229L1331.3 401.9L1332.7 293.7L1334 532.4L1335.3 106.7L1336.7 454.4L1338 235.1L1339.3 430L1340.7 233L1342 409.6L1343.3 379.6L1344.7 578.6L1346 347.8L1347.3 521.5L1348.7 299.8L1350 500.6L1351.3 223.9L1352.7 498.2L1354 279.9L1355.3 538.8L1356.7 354.4L1358 477.5L1359.3 357.6L1360.7 534.5L1362 435.1L1363.3 552.6L1364.7 478.3L1366 543.5L1367.3 414.9L1368.7 515.7L1370 321.8L1371.3 519.4L1372.7 353.6L1374 451.2L1375.3 368.8L1376.7 473.8L1378 357.1L1379.3 432.9L1380.7 283.1L1382 496.3L1383.3 383.1L1384.7 569.5L1386 460.8L1387.3 585.2L1388.7 524.5L1390 536.4L1391.3 396.9L1392.7 566.6L1394 419.7L1395.3 530.3L1396.7 478L1398 589.7L1399.3 504.6L1400.7 343L1402 426.3L1403.3 479.6L1404.7 423.1L1406 474.1L1407.3 528.4L1408.7 564.5L1410 533.7L1411.3 478.6L1412.7 434.3L1414 449.7L1415.3 449.9L1416.7 549.6L1418 526.8L1419.3 557.3L1420.7 566.4L1422 394.5L1423.3 498.5L1424.7 536.9L1426 472.7L1427.3 499.3L1428.7 577L1430 583.9L1431.3 584.7L1432.7 495.5L1434 537.7L1435.3 536.9L1436.7 565.3L1438 576.7L1439.3 613.3L1440.7 583.6L1442 590L1443.3 428.2L1444.7 602.7L1446 557.3L1447.3 567.4L1448.7 544.6L1450 695.5L1451.3 535.3L1452.7 653.9L1454 518.4L1455.3 612.8L1456.7 506.7L1458 665.3L1459.3 564.8L1460.7 666.6L1462 574.8L1463.3 664.8L1464.7 532.9L1466 653.1L1467.3 559.5L1468.7 699.2L1470 573L1471.3 660.3L1472.7 607.2L1474 730.5L1475.3 590.2L1476.7 630.5L1478 579.6L1479.3 646.7L1480.7 359.7L1482 246.5L1483.3 221.8L1484.7 634.3L1486 464.2L1487.3 -139.4L1488.7 676.7L1490 506.1L1491.3 679.9L1492.7 519.9L1494 730.3L1495.3 621.3L1496.7 702.7L1498 577L1499.3 699.2L1500.7 587.3L1502 656.8L1503.3 565L1504.7 713.3L1506 608.3L1507.3 642.7L1508.7 577.5L1510 708.3L1511.3 615.2L1512.7 733.5L1514 647.8L1515.3 699.5L1516.7 611.4L1518 706.7L1519.3 604.3L1520.7 730.8L1522 666.6L1523.3 699.5L1524.7 679.1L1526 716.7L1527.3 614.1L1528.7 666.9L1530 601.1L1531.3 691.8L1532.7 677.2L1534 749.1L1535.3 685.5L1536.7 724.7L1538 690.5L1539.3 732.7L1540.7 582L1542 720.7L1543.3 639L1544.7 709.3L1546 665.3L1547.3 481.5L1548.7 650.4L1550 684.1L1551.3 708.8L1552.7 732.4L1554 680.7L1555.3 763.7L1556.7 712.2L1558 751.2L1559.3 695.3L1560.7 743.8L1562 658.7L1563.3 745.4L1564.7 742.5L1566 678L1567.3 671.7L1568.7 734.8L1570 617.8L1571.3 716.7L1572.7 717L1574 669L1575.3 735.3L1576.7 760.5L1578 751.8L1579.3 732.1L1580.7 710.6L1582 734.8L1583.3 709.1L1584.7 745.1L1586 728.4L1587.3 710.9L1588.7 753.9L1590 768.5L1591.3 697.7L1592.7 714.1L1594 -625.1L1595.3 204.6L1596.7 -42.6L1598 433.7L1599.3 112L1600.7 478.8L1602 201.1L1603.3 513L1604.7 53.1L1606 503L1607.3 117L1608.7 544.3L1610 251.3L1611.3 511.7L1612.7 207.2L1614 386L1615.3 96.6L1616.7 488.1L1618 131.9L1619.3 520.5L1620.7 232.4L1622 548.9L1623.3 123.4L1624.7 437.7L1626 29.3L1627.3 461.9L1628.7 -88.8L1630 484.7L1631.3 225L1632.7 559.5L1634 261.1L1635.3 354.4L1636.7 183.6L1638 495.5L1639.3 215.2L1640.7 544.3L1642 294.2L1643.3 510.1L1644.7 356.8L1646 547L1647.3 153.1L1648.7 440.1L1650 149.9L1651.3 475.4L1652.7 234.3L1654 527.6L1655.3 354.4L1656.7 496.3L1658 26.1L1659.3 447.5L1660.7 313.9L1662 561.3L1663.3 171.9L1664.7 487.3L1666 336.9L1667.3 497.1L1668.7 285.5L1670 522.9L1671.3 259.7L1672.7 521L1674 376.2L1675.3 573.3L1676.7 360.5L1678 531.9L1679.3 316.2L1680.7 527.6L1682 417.3L1683.3 578.8L1684.7 456L1686 554.2L1687.3 510.1L1688.7 523.4L1690 296.6L1691.3 469L1692.7 425L1694 525.5L1695.3 438.8L1696.7 560.8L1698 463.4L1699.3 497.7L1700.7 350.5L1702 575.1L1703.3 477.8L1704.7 574.1L1706 486.5L1707.3 567.2L1708.7 503.5L1710 553.9L1711.3 382.5L1712.7 558.1L1714 390L1715.3 517.6L1716.7 487.3L1718 534.5L1719.3 377.2L1720.7 490L1722 436.4L1723.3 469.8L1724.7 516L1726 471.9L1727.3 559.5L1728.7 562.9L1730 587.6L1731.3 442.8L1732.7 467.2L1734 517.8L1735.3 509.1L1736.7 410.9L1738 517.3L1739.3 542.8L1740.7 547.3L1742 487.3L1743.3 541.7L1744.7 516L1746 597.9L1747.3 570.9L1748.7 596.6L1750 517.8L1751.3 546.5L1752.7 539L1754 535.9L1755.3 497.7L1756.7 567.2L1758 517.3L1759.3 565L1760.7 578.8L1762 567.4L1763.3 500L1764.7 563.7L1766 538L1767.3 652.6L1768.7 565.3L1770 696.6L1771.3 572.5L1772.7 670.9L1774 513.8L1775.3 605.1L1776.7 542.2L1778 570.6L1779.3 498.5L1780.7 614.9L1782 570.3L1783.3 674.8L1784.7 534.5L1786 637.4L1787.3 514.1L1788.7 622.1L1790 598.5L1791.3 696.9L1792.7 543.8L1794 719.4L1795.3 474.6L1796.7 595.8L1798 503.2L1799.3 595.8" fill="transparent" stroke="#626c91" stroke-width="3" stroke-linejoin="bevel" class="zr10-cls-32"></path>
</g>
<path d="M-303.9 -5l607.8 0l0 28l-607.8 0Z" transform="translate(1000 5)" fill="rgb(0,0,0)" fill-opacity="0" stroke="#ccc" stroke-width="0" class="zr10-cls-30"></path>
<text dominant-baseline="central" text-anchor="middle" style="font-size:18px;font-family:sans-serif;font-weight:bold;" xml:space="preserve" y="9" transform="translate(1000 5)" fill="#666666">transportLinesUpdate per Tick for bench_4_every_240_staggered_reverse</text>
<defs >
<clipPath id="zr10-c0">
<path d="M198 58.5l16004 0l0 8703l-16004 0Z" fill="#000" class="zr10-cls-31"></path>
</clipPath>
<clipPath id="zr10-c1">
<path d="M198 58.5l16004 0l0 8703l-16004 0Z" fill="#000" class="zr10-cls-31"></path>
</clipPath>
<clipPath id="zr10-c2">
<path d="M198 58.5l16004 0l0 8703l-16004 0Z" fill="#000" class="zr10-cls-31"></path>
</clipPath>
</defs>
<style ><![CDATA[
.zr10-cls-30:hover {
pointer-events:none;
}
.zr10-cls-31:hover {
cursor:pointer;
fill:rgba(0,0,0,1);
}
.zr10-cls-32:hover {
cursor:pointer;
}

]]>

</style>
</svg>