<svg width="1000" height="1000" xmlns="http://www.w3.org/2000/svg" xmlns:xlink="http://www.w3.org/1999/xlink" version="1.1" baseProfile="full" viewBox="0 0 1000 1000">
<rect width="1000" height="1000" x="0" y="0" fill="rgb(252,252,252)" fill-opacity="0"></rect>
<path d="M138.5 60L138.5 783.4" fill="transparent" stroke="#eeeeee" class="zr1-cls-2"></path>
<path d="M265.5 60L265.5 783.4" fill="transparent" stroke="#eeeeee" class="zr1-cls-2"></path>
<path d="M392.5 60L392.5 783.4" fill="transparent" stroke="#eeeeee" class="zr1-cls-2"></path>
<path d="M519.5 60L519.5 783.4" fill="transparent" stroke="#eeeeee" class="zr1-cls-2"></path>
<path d="M646.5 60L646.5 783.4" fill="transparent" stroke="#eeeeee" class="zr1-cls-2"></path>
<path d="M773.5 60L773.5 783.4" fill="transparent" stroke="#eeeeee" class="zr1-cls-2"></path>
<path d="M900.5 60L900.5 783.4" fill="transparent" stroke="#eeeeee" class="zr1-cls-2"></path>
<path d="M138.5 783.4L138.5 60" fill="transparent" stroke="#cccccc" stroke-linecap="round" class="zr1-cls-2"></path>
<text dominant-baseline="central" text-anchor="middle" style="font-size:12px;font-family:sans-serif;" y="-6" transform="translate(138.24 45)" fill="#cccccc">UPS</text>
<path d="M138.2 783.5L900 783.5" fill="transparent" stroke="#cccccc" stroke-linecap="round" class="zr1-cls-2"></path>
<text dominant-baseline="central" text-anchor="end" style="font-size:12px;font-family:sans-serif;" transform="translate(130.24 783.4417)" fill="#999999">380</text>
<text dominant-baseline="central" text-anchor="end" style="font-size:12px;font-family:sans-serif;" transform="translate(130.24 638.7533)" fill="#999999">468.8</text>
<text dominant-baseline="central" text-anchor="end" style="font-size:12px;font-family:sans-serif;" transform="translate(130.24 494.065)" fill="#999999">557.6</text>
<text dominant-baseline="central" text-anchor="end" style="font-size:12px;font-family:sans-serif;" transform="translate(130.24 349.3767)" fill="#999999">646.4</text>
<text dominant-baseline="central" text-anchor="end" style="font-size:12px;font-family:sans-serif;" transform="translate(130.24 204.6883)" fill="#999999">735.2</text>
<text dominant-baseline="central" text-anchor="end" style="font-size:12px;font-family:sans-serif;" transform="translate(130.24 60)" fill="#999999">824</text>
<text dominant-baseline="central" text-anchor="end" style="font-size:12px;font-family:sans-serif;" transform="matrix(0.707,-0.707,0.707,0.707,201.72,791.4417)" fill="#999999">1_every_60_staggered_reverse</text>
<text dominant-baseline="central" text-anchor="end" style="font-size:12px;font-family:sans-serif;" transform="matrix(0.707,-0.707,0.707,0.707,328.68,791.4417)" fill="#999999">4_every_240_staggered_reverse</text>
<text dominant-baseline="central" text-anchor="end" style="font-size:12px;font-family:sans-serif;" transform="matrix(0.707,-0.707,0.707,0.707,455.64,791.4417)" fill="#999999">1_every_60_staggered</text>
<text dominant-baseline="central" text-anchor="end" style="font-size:12px;font-family:sans-serif;" transform="matrix(0.707,-0.707,0.707,0.707,582.6,791.4417)" fill="#999999">1_every_60</text>
<text dominant-baseline="central" text-anchor="end" style="font-size:12px;font-family:sans-serif;" transform="matrix(0.707,-0.707,0.707,0.707,709.56,791.4417)" fill="#999999">4_every_240</text>
<text dominant-baseline="central" text-anchor="end" style="font-size:12px;font-family:sans-serif;" transform="matrix(0.707,-0.707,0.707,0.707,836.52,791.4417)" fill="#999999">4_every_240_staggered</text>
<path d="M176.7 749.3L226.7 749.3L226.7 659.5L176.7 659.5ZM201.7 749.3M201.7 659.5M176.7 749.3L226.7 749.3M176.7 659.5L226.7 659.5M176.7 733.9L226.7 733.9" fill="#fff" stroke="#3FB1E3" ecmeta_series_index="0" ecmeta_data_index="0" ecmeta_ssr_type="chart" class="zr1-cls-3"></path>
<path d="M303.7 518.5L353.7 518.5L353.7 475.8L303.7 475.8ZM328.7 518.5M328.7 475.8M303.7 518.5L353.7 518.5M303.7 475.8L353.7 475.8M303.7 492.2L353.7 492.2" fill="#fff" stroke="#3FB1E3" ecmeta_series_index="0" ecmeta_data_index="1" ecmeta_ssr_type="chart" class="zr1-cls-3"></path>
<path d="M430.6 379.8L480.6 379.8L480.6 358.7L430.6 358.7ZM455.6 379.8M455.6 358.7M430.6 379.8L480.6 379.8M430.6 358.7L480.6 358.7M430.6 366.9L480.6 366.9" fill="#fff" stroke="#3FB1E3" ecmeta_series_index="0" ecmeta_data_index="2" ecmeta_ssr_type="chart" class="zr1-cls-3"></path>
<path d="M557.6 303.4L607.6 303.4L607.6 297L557.6 297ZM582.6 303.4M582.6 297M557.6 303.4L607.6 303.4M557.6 297L607.6 297M557.6 301L607.6 301" fill="#fff" stroke="#3FB1E3" ecmeta_series_index="0" ecmeta_data_index="3" ecmeta_ssr_type="chart" class="zr1-cls-3"></path>
<path d="M684.6 252.1L734.6 252.1L734.6 190L684.6 190ZM709.6 252.1M709.6 190M684.6 252.1L734.6 252.1M684.6 190L734.6 190M684.6 207.8L734.6 207.8" fill="#fff" stroke="#3FB1E3" ecmeta_series_index="0" ecmeta_data_index="4" ecmeta_ssr_type="chart" class="zr1-cls-3"></path>
<path d="M811.5 160.1L861.5 160.1L861.5 124L811.5 124ZM836.5 160.1M836.5 124M811.5 160.1L861.5 160.1M811.5 124L861.5 124M811.5 154.5L861.5 154.5" fill="#fff" stroke="#3FB1E3" ecmeta_series_index="0" ecmeta_data_index="5" ecmeta_ssr_type="chart" class="zr1-cls-3"></path>
<path d="M-194.5 -5l389.1 0l0 28l-389.1 0Z" transform="translate(500 5)" fill="rgb(0,0,0)" fill-opacity="0" stroke="#ccc" stroke-width="0" class="zr1-cls-2"></path>
<text dominant-baseline="central" text-anchor="middle" style="font-size:18px;font-family:sans-serif;font-weight:bold;" xml:space="preserve" y="9" transform="translate(500 5)" fill="#666666">Benchmark Results - Effective UPS Distribution</text>
<style ><![CDATA[
.zr1-cls-2:hover {
pointer-events:none;
}
.zr1-cls-3:hover {
cursor:pointer;
fill:rgba(255,255,255,1);
stroke-width:2;
}

]]>

</style>
</svg>