<svg width="2000" height="1000" xmlns="http://www.w3.org/2000/svg" xmlns:xlink="http://www.w3.org/1999/xlink" version="1.1" baseProfile="full" viewBox="0 0 2000 1000">
<rect width="2000" height="1000" x="0" y="0" fill="rgb(252,252,252)" fill-opacity="0"></rect>
<path d="M200 930.5L1800 930.5" fill="transparent" stroke="#eeeeee" class="zr1-cls-3"></path>
<path d="M200 794.5L1800 794.5" fill="transparent" stroke="#eeeeee" class="zr1-cls-3"></path>
<path d="M200 613.5L1800 613.5" fill="transparent" stroke="#eeeeee" class="zr1-cls-3"></path>
<path d="M200 432.5L1800 432.5" fill="transparent" stroke="#eeeeee" class="zr1-cls-3"></path>
<path d="M200 250.5L1800 250.5" fill="transparent" stroke="#eeeeee" class="zr1-cls-3"></path>
<path d="M200 69.5L1800 69.5" fill="transparent" stroke="#eeeeee" class="zr1-cls-3"></path>
<path d="M200 60.5L1800 60.5" fill="transparent" stroke="#eeeeee" class="zr1-cls-3"></path>
<path d="M200.5 930L200.5 60" fill="transparent" stroke="#cccccc" stroke-linecap="round" class="zr1-cls-3"></path>
<text dominant-baseline="central" text-anchor="middle" style="font-size:12px;font-family:sans-serif;" xml:space="preserve" y="-6" transform="translate(200 45)" fill="#cccccc">Min wholeUpdate Time (ms)</text>
<path d="M200 930.5L1800 930.5" fill="transparent" stroke="#cccccc" stroke-linecap="round" class="zr1-cls-3"></path>
<text dominant-baseline="central" text-anchor="end" style="font-size:12px;font-family:sans-serif;" transform="translate(192 930)" fill="#999999">0.125</text>
<text dominant-baseline="central" text-anchor="end" style="font-size:12px;font-family:sans-serif;" transform="translate(192 794.6056)" fill="#999999">0.200</text>
<text dominant-baseline="central" text-anchor="end" style="font-size:12px;font-family:sans-serif;" transform="translate(192 613.2729)" fill="#999999">0.300</text>
<text dominant-baseline="central" text-anchor="end" style="font-size:12px;font-family:sans-serif;" transform="translate(192 431.9401)" fill="#999999">0.400</text>
<text dominant-baseline="central" text-anchor="end" style="font-size:12px;font-family:sans-serif;" transform="translate(192 250.6074)" fill="#999999">0.500</text>
<text dominant-baseline="central" text-anchor="end" style="font-size:12px;font-family:sans-serif;" transform="translate(192 69.2746)" fill="#999999">0.600</text>
<text dominant-baseline="central" text-anchor="middle" style="font-size:12px;font-family:sans-serif;" y="6" transform="translate(200.2222 938)" fill="#999999">0</text>
<text dominant-baseline="central" text-anchor="middle" style="font-size:12px;font-family:sans-serif;" y="6" transform="translate(235.3333 938)" fill="#999999">79</text>
<text dominant-baseline="central" text-anchor="middle" style="font-size:12px;font-family:sans-serif;" y="6" transform="translate(270.4444 938)" fill="#999999">158</text>
<text dominant-baseline="central" text-anchor="middle" style="font-size:12px;font-family:sans-serif;" y="6" transform="translate(305.5556 938)" fill="#999999">237</text>
<text dominant-baseline="central" text-anchor="middle" style="font-size:12px;font-family:sans-serif;" y="6" transform="translate(340.6667 938)" fill="#999999">316</text>
<text dominant-baseline="central" text-anchor="middle" style="font-size:12px;font-family:sans-serif;" y="6" transform="translate(375.7778 938)" fill="#999999">395</text>
<text dominant-baseline="central" text-anchor="middle" style="font-size:12px;font-family:sans-serif;" y="6" transform="translate(410.8889 938)" fill="#999999">474</text>
<text dominant-baseline="central" text-anchor="middle" style="font-size:12px;font-family:sans-serif;" y="6" transform="translate(446 938)" fill="#999999">553</text>
<text dominant-baseline="central" text-anchor="middle" style="font-size:12px;font-family:sans-serif;" y="6" transform="translate(481.1111 938)" fill="#999999">632</text>
<text dominant-baseline="central" text-anchor="middle" style="font-size:12px;font-family:sans-serif;" y="6" transform="translate(516.2222 938)" fill="#999999">711</text>
<text dominant-baseline="central" text-anchor="middle" style="font-size:12px;font-family:sans-serif;" y="6" transform="translate(551.3333 938)" fill="#999999">790</text>
<text dominant-baseline="central" text-anchor="middle" style="font-size:12px;font-family:sans-serif;" y="6" transform="translate(586.4444 938)" fill="#999999">869</text>
<text dominant-baseline="central" text-anchor="middle" style="font-size:12px;font-family:sans-serif;" y="6" transform="translate(621.5556 938)" fill="#999999">948</text>
<text dominant-baseline="central" text-anchor="middle" style="font-size:12px;font-family:sans-serif;" y="6" transform="translate(656.6667 938)" fill="#999999">1027</text>
<text dominant-baseline="central" text-anchor="middle" style="font-size:12px;font-family:sans-serif;" y="6" transform="translate(691.7778 938)" fill="#999999">1106</text>
<text dominant-baseline="central" text-anchor="middle" style="font-size:12px;font-family:sans-serif;" y="6" transform="translate(726.8889 938)" fill="#999999">1185</text>
<text dominant-baseline="central" text-anchor="middle" style="font-size:12px;font-family:sans-serif;" y="6" transform="translate(762 938)" fill="#999999">1264</text>
<text dominant-baseline="central" text-anchor="middle" style="font-size:12px;font-family:sans-serif;" y="6" transform="translate(797.1111 938)" fill="#999999">1343</text>
<text dominant-baseline="central" text-anchor="middle" style="font-size:12px;font-family:sans-serif;" y="6" transform="translate(832.2222 938)" fill="#999999">1422</text>
<text dominant-baseline="central" text-anchor="middle" style="font-size:12px;font-family:sans-serif;" y="6" transform="translate(867.3333 938)" fill="#999999">1501</text>
<text dominant-baseline="central" text-anchor="middle" style="font-size:12px;font-family:sans-serif;" y="6" transform="translate(902.4444 938)" fill="#999999">1580</text>
<text dominant-baseline="central" text-anchor="middle" style="font-size:12px;font-family:sans-serif;" y="6" transform="translate(937.5556 938)" fill="#999999">1659</text>
<text dominant-baseline="central" text-anchor="middle" style="font-size:12px;font-family:sans-serif;" y="6" transform="translate(972.6667 938)" fill="#999999">1738</text>
<text dominant-baseline="central" text-anchor="middle" style="font-size:12px;font-family:sans-serif;" y="6" transform="translate(1007.7778 938)" fill="#999999">1817</text>
<text dominant-baseline="central" text-anchor="middle" style="font-size:12px;font-family:sans-serif;" y="6" transform="translate(1042.8889 938)" fill="#999999">1896</text>
<text dominant-baseline="central" text-anchor="middle" style="font-size:12px;font-family:sans-serif;" y="6" transform="translate(1078 938)" fill="#999999">1975</text>
<text dominant-baseline="central" text-anchor="middle" style="font-size:12px;font-family:sans-serif;" y="6" transform="translate(1113.1111 938)" fill="#999999">2054</text>
<text dominant-baseline="central" text-anchor="middle" style="font-size:12px;font-family:sans-serif;" y="6" transform="translate(1148.2222 938)" fill="#999999">2133</text>
<text dominant-baseline="central" text-anchor="middle" style="font-size:12px;font-family:sans-serif;" y="6" transform="translate(1183.3333 938)" fill="#999999">2212</text>
<text dominant-baseline="central" text-anchor="middle" style="font-size:12px;font-family:sans-serif;" y="6" transform="translate(1218.4444 938)" fill="#999999">2291</text>
<text dominant-baseline="central" text-anchor="middle" style="font-size:12px;font-family:sans-serif;" y="6" transform="translate(1253.5556 938)" fill="#999999">2370</text>
<text dominant-baseline="central" text-anchor="middle" style="font-size:12px;font-family:sans-serif;" y="6" transform="translate(1288.6667 938)" fill="#999999">2449</text>
<text dominant-baseline="central" text-anchor="middle" style="font-size:12px;font-family:sans-serif;" y="6" transform="translate(1323.7778 938)" fill="#999999">2528</text>
<text dominant-baseline="central" text-anchor="middle" style="font-size:12px;font-family:sans-serif;" y="6" transform="translate(1358.8889 938)" fill="#999999">2607</text>
<text dominant-baseline="central" text-anchor="middle" style="font-size:12px;font-family:sans-serif;" y="6" transform="translate(1394 938)" fill="#999999">2686</text>
<text dominant-baseline="central" text-anchor="middle" style="font-size:12px;font-family:sans-serif;" y="6" transform="translate(1429.1111 938)" fill="#999999">2765</text>
<text dominant-baseline="central" text-anchor="middle" style="font-size:12px;font-family:sans-serif;" y="6" transform="translate(1464.2222 938)" fill="#999999">2844</text>
<text dominant-baseline="central" text-anchor="middle" style="font-size:12px;font-family:sans-serif;" y="6" transform="translate(1499.3333 938)" fill="#999999">2923</text>
<text dominant-baseline="central" text-anchor="middle" style="font-size:12px;font-family:sans-serif;" y="6" transform="translate(1534.4444 938)" fill="#999999">3002</text>
<text dominant-baseline="central" text-anchor="middle" style="font-size:12px;font-family:sans-serif;" y="6" transform="translate(1569.5556 938)" fill="#999999">3081</text>
<text dominant-baseline="central" text-anchor="middle" style="font-size:12px;font-family:sans-serif;" y="6" transform="translate(1604.6667 938)" fill="#999999">3160</text>
<text dominant-baseline="central" text-anchor="middle" style="font-size:12px;font-family:sans-serif;" y="6" transform="translate(1639.7778 938)" fill="#999999">3239</text>
<text dominant-baseline="central" text-anchor="middle" style="font-size:12px;font-family:sans-serif;" y="6" transform="translate(1674.8889 938)" fill="#999999">3318</text>
<text dominant-baseline="central" text-anchor="middle" style="font-size:12px;font-family:sans-serif;" y="6" transform="translate(1710 938)" fill="#999999">3397</text>
<text dominant-baseline="central" text-anchor="middle" style="font-size:12px;font-family:sans-serif;" y="6" transform="translate(1745.1111 938)" fill="#999999">3476</text>
<text dominant-baseline="central" text-anchor="middle" style="font-size:12px;font-family:sans-serif;" y="6" transform="translate(1780.2222 938)" fill="#999999">3555</text>
<g clip-path="url(#zr1-c0)">
<path d="M200.2 -670.9L200.7 82L201.1 233.7L201.6 453.3L202 468.6L202.4 360.7L202.9 494.7L203.3 470.9L203.8 493.2L204.2 -62.4L204.7 246.6L205.1 384.8L205.6 313.3L206 239.5L206.4 171L206.9 200.2L207.3 428.7L207.8 391.1L208.2 257.9L208.7 337.5L209.1 324.2L209.6 318.2L210 263.1L210.4 467.1L210.9 326.4L211.3 209.6L211.8 202.7L212.2 371L212.7 339.5L213.1 431.4L213.6 304.8L214 259.7L214.4 364.3L214.9 390.8L215.3 373L215.8 389.5L216.2 445.2L216.7 386.6L217.1 459.9L217.6 434.3L218 499.8L218.4 381.9L218.9 425L219.3 460.2L219.8 461.7L220.2 407.1L220.7 103L221.1 428.3L221.6 481.8L222 464.2L222.4 445.9L222.9 457.7L223.3 605.1L223.8 536L224.2 413.6L224.7 478.9L225.1 547.1L225.6 479.8L226 231.7L226.4 212.2L226.9 225.6L227.3 305L227.8 370.6L228.2 217.8L228.7 348.7L229.1 392.8L229.6 351.2L230 348.2L230.4 508.6L230.9 499.9L231.3 477.1L231.8 501.4L232.2 400.4L232.7 487.1L233.1 359.4L233.6 309L234 424.5L234.4 456.2L234.9 409.6L235.3 428.1L235.8 468.4L236.2 544.4L236.7 465.1L237.1 512.6L237.6 514.1L238 566.9L238.4 522.1L238.9 559.6L239.3 493.4L239.8 562.5L240.2 344.5L240.7 292.3L241.1 527L241.6 473.1L242 491.4L242.4 373L242.9 464.9L243.3 534.2L243.8 552.3L244.2 440.8L244.7 544L245.1 550.2L245.6 560.3L246 497.2L246.4 616.4L246.9 587.5L247.3 362.9L247.8 317.3L248.2 370.1L248.7 442.8L249.1 462.8L249.6 419.2L250 442.8L250.4 341.3L250.9 439.4L251.3 438.5L251.8 460.2L252.2 458.4L252.7 409.8L253.1 424.1L253.6 510.8L254 462.8L254.4 356.5L254.9 289L255.3 459.3L255.8 482.5L256.2 489.6L256.7 420.9L257.1 289.8L257.6 396.6L258 384.2L258.4 403.7L258.9 498.9L259.3 459.3L259.8 478.7L260.2 447.7L260.7 515.5L261.1 520.6L261.6 373.7L262 297.9L262.4 352.2L262.9 389L263.3 402L263.8 398.2L264.2 349.6L264.7 398.9L265.1 444.3L265.6 496.7L266 488.9L266.4 533.7L266.9 521.3L267.3 484.5L267.8 519L268.2 512.6L268.7 565.6L269.1 386.8L269.6 303L270 401.1L270.4 298.7L270.9 444.5L271.3 466.2L271.8 531.5L272.2 482.5L272.7 527.1L273.1 436.5L273.6 486.5L274 315L274.4 563.6L274.9 600.8L275.3 481.6L275.8 546.7L276.2 339.3L276.7 321.3L277.1 538.2L277.6 504.8L278 497.4L278.4 440.5L278.9 420.3L279.3 526.2L279.8 365.6L280.2 516.3L280.7 490L281.1 593L281.6 519.2L282 567.6L282.4 544.7L282.9 474.9L283.3 282.7L283.8 298.7L284.2 495L284.7 350.5L285.1 407.1L285.6 387.9L286 463.1L286.4 485.6L286.9 416.9L287.3 455L287.8 464.9L288.2 529.9L288.7 491.4L289.1 529.5L289.6 609.1L290 490L290.4 413.8L290.9 -668.2L291.3 -211.1L291.8 -132.9L292.2 -165.9L292.7 23.9L293.1 171.2L293.6 321L294 190.8L294.4 134.6L294.9 54.9L295.3 413.1L295.8 441.4L296.2 384.6L296.7 524.6L297.1 496.3L297.6 576.8L298 389.1L298.4 408.2L298.9 517.5L299.3 522.4L299.8 489.8L300.2 371.2L300.7 611.3L301.1 554.5L301.6 409.5L302 439.7L302.4 466.8L302.9 527.9L303.3 511.4L303.8 550.5L304.2 525.1L304.7 462.2L305.1 266.6L305.6 276.2L306 412L306.4 465.1L306.9 431.8L307.3 389L307.8 462.2L308.2 466.2L308.7 370.8L309.1 376.5L309.6 396.8L310 453L310.4 520.4L310.9 457.3L311.3 529.3L311.8 504.7L312.2 194L312.7 271.3L313.1 464.4L313.6 509L314 356.3L314.4 357.6L314.9 447L315.3 494L315.8 509L316.7 427L317.1 618.2L317.6 447.5L318 554L318.4 567.8L318.9 497.6L319.3 343.1L319.8 200.7L320.2 444.8L320.7 395.5L321.1 408.2L321.6 163.7L322 225L322.4 394.4L322.9 363.2L323.3 245.5L323.8 307.7L324.2 461L324.7 285.6L325.1 361.2L325.6 331.8L326 437.2L326.4 270.4L326.9 344.5L327.3 81.4L327.8 424.3L328.2 321.9L328.7 412.5L329.1 314.3L329.6 435L330 304.6L330.4 407.3L330.9 497.9L331.3 510.5L331.8 532.8L332.2 569.2L332.7 503.7L333.1 500.8L333.6 487.4L334 361.9L334.4 353.2L334.9 521.5L335.3 438.1L335.8 379.2L336.2 372.1L336.7 414L337.1 469.3L337.6 453.7L338 531.9L338.4 591.5L338.9 541.1L339.3 433.8L339.8 434.7L340.2 477.1L340.7 496.3L341.1 360.3L341.6 195.8L342 398.4L342.4 309.4L342.9 305L343.3 258L343.8 404L344.2 371.2L344.7 365.4L345.1 463.7L345.6 538.4L346 536.8L346.4 545.6L346.9 467.7L347.3 502.3L347.8 520.2L348.2 336L348.7 372.5L349.1 470.2L349.6 431.6L350 452.8L350.4 445.4L350.9 297.6L351.3 471.5L351.8 362.1L352.2 464.8L352.7 493.8L353.1 537.3L353.6 534.6L354 496.1L354.4 486.5L354.9 495.8L355.3 324.4L355.8 197.7L356.2 497L356.7 516.8L357.1 453.7L357.6 306.6L358 437.6L358.4 558.1L358.9 516.1L359.3 284.5L359.8 509.9L360.2 550.7L360.7 531.9L361.1 508.5L361.6 586.3L362 487.2L362.4 336.2L362.9 415.3L363.3 374.8L363.8 443.4L364.2 436.7L364.7 412.2L365.1 393.5L365.6 424.1L366 457.1L366.4 461.1L366.9 504.8L367.3 442.6L367.8 509.9L368.2 501.4L368.7 548.4L369.1 435.9L369.6 559.2L370 295.6L370.4 355.4L370.9 437.4L371.3 332.8L371.8 446.8L372.2 330.8L372.7 436.8L373.1 432.8L373.6 316.2L374 368.8L374.4 386.8L374.9 484.2L375.3 380.6L375.8 475.3L376.2 345.6L376.7 285.8L377.1 230.1L377.6 274.7L378 446.1L378.4 417.8L378.9 459.3L379.3 414.7L379.8 497.8L380.2 517.3L380.7 280.3L381.1 487.8L381.6 480.9L382 538.9L382.4 492.5L382.9 551.4L383.3 553.4L383.8 451.2L384.2 388.4L384.7 397.3L385.1 500.1L385.6 447.2L386 532.6L386.4 524.1L386.9 443.9L387.3 570.3L387.8 608L388.2 544.9L388.7 537.5L389.1 581.7L389.6 576.3L390 556.3L390.4 512.8L390.9 570.8L391.3 330.8L391.8 334.7L392.2 421.1L392.7 443.4L393.6 469.5L394 414L394.4 523.9L394.9 429.8L395.3 433.4L395.8 455.2L396.2 560.9L396.7 512.6L397.1 492L397.6 515.7L398 528.4L398.4 392.4L398.9 278.2L399.3 496.5L399.8 500.1L400.2 389.1L400.7 478.4L401.1 406.2L401.6 478.9L402 343.8L402.4 417.3L402.9 421.2L403.3 511.4L403.8 537.5L404.2 518.8L404.7 552.7L405.1 467.3L405.6 437.2L406 248.6L406.4 -658.6L406.9 -257.5L407.3 36.6L407.8 3.5L408.2 146.2L408.7 270.4L409.1 347.1L409.6 241.2L410 107L410.4 297L410.9 440.3L411.3 429.8L411.8 463.3L412.2 529L412.7 472.2L413.1 328.6L413.6 352.2L414 457.5L414.4 453.9L414.9 449.2L415.3 474.4L415.8 560L416.2 466.2L416.7 507.4L417.1 593.9L417.6 612.7L418 626L418.4 515.5L418.9 597.5L419.3 595.5L419.8 555.6L420.2 396.2L420.7 313.3L421.1 456.8L421.6 395.3L422 403.7L422.4 338.9L422.9 400.2L423.3 532.8L423.8 469.3L424.2 390.8L424.7 429.9L425.1 576.5L425.6 461.9L426 525.7L426.4 587.3L426.9 516.3L427.3 338.7L427.8 231.7L428.2 417.3L428.7 452.1L429.1 434.7L429.6 479.3L430 461.5L430.4 567.2L430.9 552.3L431.3 490.3L431.8 512.8L432.2 519.7L432.7 448.3L433.1 551.8L433.6 489.4L434 343.4L434.4 308.3L434.9 337.3L435.3 447.2L435.8 422.3L436.2 394.9L436.7 179.9L437.1 287.6L437.6 426L438 368.5L438.4 284.5L438.9 382.4L439.3 493L439.8 408.9L440.2 361.9L440.7 383L441.1 499.4L441.6 437.7L442 293.4L442.4 389L442.9 403.7L443.3 376.1L443.8 360L444.2 325.9L444.7 471.1L445.1 378.4L445.6 302.5L446 474.6L446.4 548.4L446.9 451.7L447.3 480.9L447.8 517L448.2 471.7L449.1 323.9L449.6 334L450 450.6L450.4 505.2L450.9 477.5L451.3 403.5L451.8 458.1L452.2 435.4L452.7 550.9L453.1 564.5L453.6 533.7L454 567.8L454.4 425L454.9 521.2L455.3 506.1L455.8 455.5L456.2 292.1L456.7 243L457.1 400L457.6 357.8L458 282.7L458.4 266.2L458.9 367L459.3 356.7L459.8 345.6L460.2 424L460.7 470.6L461.1 408.7L461.6 480L462 491.4L462.4 481.3L462.9 496L463.3 361.4L463.8 280.2L464.2 424.5L464.7 412.2L465.1 427.2L465.6 405.3L466 262.8L466.4 478.7L466.9 423.4L467.3 443.4L468.2 578.1L468.7 595L469.1 528.4L469.6 497.9L470 520.1L470.4 365.8L470.9 310.1L471.3 481.6L471.8 428.1L472.2 502.1L472.7 346.5L473.1 422.9L473.6 524.6L474 494.9L474.4 430.1L474.9 490.1L475.3 595.3L475.8 519.2L476.2 517L476.7 546.9L477.1 508.3L477.6 454.1L478 328L478.4 387.5L479.3 387.2L479.8 423.4L480.2 445L480.7 471.7L481.1 475.3L481.6 437L482 440.3L482.4 437L482.9 499.4L483.8 484L484.2 491.8L484.7 519.2L485.1 316.8L485.6 373.6L486 474L486.4 484.3L486.9 469.7L487.3 50.6L487.8 389.3L488.2 402.6L488.7 331.7L489.1 471.1L489.6 480.2L490 520.1L490.4 475.3L490.9 559.6L491.3 536L491.8 468L492.2 319L492.7 287.2L493.1 426.3L493.6 392.8L494 453.7L494.4 476L494.9 472.4L495.3 521L495.8 530.6L496.2 527.1L496.7 400.4L497.1 540.6L497.6 500.5L498 541.5L498.4 534L498.9 534.8L499.3 393.5L499.8 401.8L500.2 483.1L500.7 493.4L501.1 504.3L501.6 500.3L502 445.9L502.4 562.7L502.9 485.4L503.3 568.5L503.8 536.8L504.2 598.4L504.7 588.1L505.1 494.7L505.6 532L506 542.9L506.4 344.7L506.9 364.8L507.3 543.6L507.8 494.9L508.2 485.6L508.7 464.8L509.1 396.6L509.6 492L510 411.3L510.4 418.2L510.9 558.3L511.3 604.6L511.8 571.6L512.2 521.7L512.7 539.8L513.1 521.9L513.6 481.8L514 342.4L514.4 410.9L514.9 519.3L515.3 382.1L515.8 414.7L516.2 399.8L516.7 439.4L517.1 374.8L517.6 359.2L518 478.4L518.4 507.6L518.9 517.9L519.3 445.5L519.8 543.6L520.2 524.6L520.7 508.3L521.1 402L521.6 -547.1L522 -165L522.4 17.6L522.9 -151.8L523.3 154.3L523.8 191.3L524.2 346.5L524.7 236.1L525.1 51L525.6 23.2L526 305.9L526.4 431L526.9 470.9L527.3 596.2L527.8 439.9L528.2 402L528.7 359.2L529.1 522.6L529.6 466.6L530 501.4L530.4 509.2L530.9 548.4L531.3 486.5L531.8 581.9L532.2 591.3L532.7 580.6L533.1 584.1L533.6 600.9L534 572.3L534.4 587.5L534.9 472.2L535.3 412.5L535.8 192.4L536.2 389.9L536.7 333.7L537.1 522.1L537.6 346L538 453.3L538.4 475.6L538.9 476.9L539.3 351.1L539.8 465.5L540.2 542.6L540.7 322.6L541.1 509.6L542 480.9L542.4 236.8L542.9 299L543.3 448.8L543.8 467.3L544.2 351.8L544.7 382.3L545.1 355.6L545.6 495.4L546 507.2L546.4 454.8L546.9 469.1L547.3 546.7L547.8 472L548.2 503.4L548.7 580.5L549.1 486.5L549.6 493L550 176.6L550.4 407.5L550.9 449L551.3 349.3L551.8 300.8L552.2 168.1L552.7 378.1L553.1 305.2L553.6 323.3L554 376.3L554.4 422.9L554.9 356.5L555.3 327.3L555.8 412.5L556.2 439.6L556.7 447L557.1 80.9L557.6 254.1L558 377.9L558.4 413.8L558.9 386.4L559.3 305.9L559.8 451.3L560.2 476.2L560.7 302.5L561.1 402.9L561.6 543.8L562 538.7L562.4 403.7L562.9 551.8L563.3 496.9L563.8 571.2L564.2 335.8L564.7 440.6L565.1 480.9L565.6 462.6L566 394.8L566.4 469.5L566.9 434.5L567.3 579.2L567.8 446.3L568.2 506.6L568.7 532.8L569.1 671.3L569.6 540.6L570 521.2L570.4 497.4L570.9 464.9L571.3 350.3L571.8 220.7L572.2 290.7L572.7 370.3L573.1 344.7L573.6 362.3L574 244.1L574.4 358.5L574.9 369.6L575.3 338.2L575.8 455.5L576.2 537.8L576.7 506.1L577.1 576.1L577.6 480.7L578 446.1L578.4 337.1L578.9 319.5L579.3 498.7L579.8 496L580.7 440.5L581.1 398.6L581.6 528.2L582 474.2L582.4 486.5L582.9 490.3L583.3 569.9L583.8 420L584.2 483.3L584.7 540.6L585.1 476.5L585.6 487.8L586 262.8L586.4 366.3L586.9 484.5L587.3 451L587.8 408.2L588.2 410.7L588.7 547.4L589.1 522.8L589.6 511.2L590 479.8L590.4 563.4L590.9 501.2L591.3 530.8L591.8 526.6L592.2 490.1L592.7 492.9L593.1 374.6L593.6 293.2L594 310.4L594.4 420.7L594.9 476.5L595.3 426L595.8 494.9L596.2 525L596.7 509.6L597.1 477.6L597.6 507.7L598 468.2L598.4 504.7L598.9 557.2L599.3 524.4L599.8 551.6L600.2 376.6L600.7 275.1L601.1 448.8L601.6 433.6L602 360.3L602.4 408.4L602.9 333.5L603.3 414.9L603.8 424.3L604.2 482.9L604.7 459.1L605.1 541.6L605.6 488L606 497.9L606.4 507L606.9 495.4L607.3 290.9L607.8 317.5L608.2 431L608.7 390.1L609.1 464.2L609.6 502.5L610 511.5L610.4 560.9L610.9 540.7L611.3 554.3L611.8 591.2L612.2 558.9L612.7 531.1L613.1 558.1L613.6 634.1L614 564L614.4 384.2L614.9 315.5L615.3 491.6L615.8 478L616.2 462.2L616.7 408.9L617.1 444.6L617.6 486.5L618 504.8L618.4 540.4L618.9 573L619.3 572.1L619.8 520.4L620.2 567.8L620.7 508.1L621.1 532.2L621.6 449.7L622 346.5L622.4 353.6L622.9 527.3L623.3 517.5L623.8 491.6L624.2 483.8L624.7 561.2L625.1 508.5L625.6 426.5L626 409.8L626.4 544L626.9 495.4L627.3 545.3L627.8 603.5L628.2 441.4L628.7 489.1L629.1 316.2L629.6 336L630 522.8L630.4 340.5L630.9 430.3L631.3 360.7L631.8 466.8L632.2 402.4L632.7 343.6L633.1 486.9L633.6 489.1L634 522.1L634.4 571.4L634.9 560.7L635.3 544.9L635.8 567.8L636.2 351.6L636.7 -610.7L637.1 -85.9L637.6 -67.6L638 -47.1L638.4 27.9L638.9 114.6L639.3 359.6L639.8 268L640.2 64.4L640.7 151.2L641.1 295.6L641.6 388.6L642 497L642.4 526.8L642.9 461.3L643.3 385.5L643.8 409.5L644.2 528L644.7 425.4L645.1 504.5L645.6 488.5L646 474.4L646.4 540.9L646.9 534.6L647.3 385.9L647.8 592.4L648.2 571.2L648.7 455.2L649.1 534.8L649.6 521.9L650 428.5L650.4 378.3L650.9 296.3L651.3 439L651.8 474.4L652.2 435L652.7 397.3L653.1 366.3L653.6 499.8L654 487.1L654.4 429.6L654.9 481.3L655.3 537.8L655.8 555.8L656.2 457.7L656.7 483.6L657.1 556.5L657.6 418.2L658 325.3L658.4 305L658.9 433.6L659.3 390.4L659.8 366.5L660.2 383.9L660.7 525.1L661.1 461.7L661.6 423.2L662 460.4L662.4 533.3L662.9 496L663.3 412.2L663.8 569L664.2 513.5L664.7 450.6L665.1 268.4L665.6 312.4L666 378.1L666.4 392.6L666.9 250.6L667.3 252.6L667.8 322.1L668.2 374.6L668.7 326.8L669.1 379.9L669.6 313.2L670 311.4L670.4 350.9L670.9 433.2L671.3 320.1L671.8 467.1L672.2 168.8L672.7 235.6L673.1 393L673.6 429.6L674 355.4L674.4 291.8L674.9 401.5L675.3 483.6L675.8 230.5L676.2 438.8L676.7 449.9L677.1 453.3L677.6 464.9L678 537.1L678.4 450.3L678.9 499.9L679.3 347.3L679.8 354.5L680.2 429.9L680.7 353.4L681.1 487.1L681.6 461.3L682 469.5L682.4 553.1L682.9 537.8L683.3 471.3L683.8 576.8L684.2 615.6L684.7 589.2L685.1 508.5L685.6 504.8L686 462L686.4 259.1L686.9 297.6L687.3 344L687.8 390.6L688.2 362.5L688.7 272.2L689.1 180.8L689.6 369.4L690 425.8L690.4 389L690.9 430.7L691.3 464L691.8 514.1L692.2 500.3L692.7 519.2L693.1 509.7L693.6 353.8L694 269.8L694.4 366.1L694.9 509.2L695.3 390.8L695.8 478.4L696.2 249L696.7 416L697.1 413.6L697.6 403.1L698 531.5L698.4 506.3L698.9 528.8L699.3 545.3L699.8 534.4L700.2 523.2L700.7 306.1L701.1 308.5L701.6 274.2L702 505.7L702.4 486.2L702.9 527.5L703.3 396.2L703.8 524.1L704.2 504.1L705.1 471.1L705.6 591.5L706 536L706.4 449.9L706.9 560.9L707.3 464L707.8 590.2L708.2 314.6L708.7 265.5L709.1 428.9L709.6 414L710 450.1L710.4 290.3L710.9 478.2L711.3 437.2L711.8 452.2L712.2 415.8L712.7 379.5L713.1 526.6L713.6 462.4L714 509.4L714.4 493.2L714.9 523.7L715.3 386.4L715.8 357.6L716.2 483.3L716.7 392.8L717.1 537.7L717.6 400.2L718 364.3L718.4 391.7L718.9 426.5L719.3 391.7L719.8 538.2L720.2 412.4L720.7 487.2L721.1 494.3L721.6 511L722 428.9L722.4 287.8L722.9 283.4L723.3 467.1L723.8 437.7L724.2 476.7L724.7 416.2L725.1 448.3L725.6 486.2L726 530.8L726.4 503L726.9 556.2L727.3 555.4L727.8 498.9L728.2 512.6L728.7 598L729.1 490.1L729.6 542L730 347.6L730.4 424.9L730.9 486.7L731.3 534.8L731.8 546.5L732.2 444.1L732.7 379.2L733.1 511.2L733.6 452.4L734 493.4L734.4 545.3L734.9 541.1L735.3 544.2L735.8 565.2L736.2 520.6L736.7 496L737.1 292.3L737.6 368.1L738 516.1L738.4 520.4L738.9 482.4L739.3 402.4L739.8 520.8L740.2 524.1L740.7 393.9L741.1 441.9L741.6 547.1L742 525.9L742.4 487.2L742.9 546.4L743.3 448.6L743.8 435.7L744.2 260.6L744.7 265.5L745.1 387.9L745.6 342.4L746 433.6L746.4 403.3L746.9 497L747.3 394.4L747.8 355.6L748.2 477.3L748.7 455.9L749.1 512.6L749.6 477.6L750 537.8L750.4 517.9L750.9 472.6L751.3 354.1L751.8 -860.1L752.2 -334.2L752.7 -99L753.1 -203.1L753.6 142L754 -54.2L754.4 318.8L754.9 307.9L755.3 108.1L755.8 76L756.2 361.6L756.7 490.3L757.1 422.7L757.6 560.5L758 571.9L758.4 338L758.9 270L759.3 549.8L759.8 488.9L760.2 454.8L760.7 410.2L761.1 493.2L761.6 555.6L762 562.3L762.4 547.1L762.9 572.7L763.3 480.5L763.8 583.9L764.2 486L764.7 536.2L765.1 443.4L765.6 502.5L766 262.9L766.4 220.7L766.9 395.1L767.3 423.4L767.8 336.7L768.2 349.8L768.7 509.7L769.1 466.6L769.6 322.8L770 496.5L770.4 566.7L770.9 495.8L771.3 486.5L771.8 574.6L772.2 496.5L772.7 436.8L773.1 227.6L773.6 256.4L774 457L774.4 464.8L774.9 348.7L775.3 418L775.8 476L776.2 518.1L776.7 472.6L777.1 528L777.6 557.8L778 562.1L778.4 428.5L778.9 536.4L779.3 488.9L779.8 437.9L780.2 316.4L780.7 274L781.1 328L781.6 341.6L782 342.7L782.4 213.4L782.9 329.5L783.3 427.4L783.8 326.6L784.2 298.8L784.7 272.5L785.1 299.4L785.6 296.3L786 301.9L786.4 453.2L786.9 432.1L787.3 277.3L787.8 187.7L788.2 421.1L788.7 365.4L789.1 402.9L789.6 298.7L790 259.7L790.4 384.6L790.9 328.9L791.3 390.8L791.8 473.6L792.2 445.2L792.7 451.5L793.1 481.1L793.6 581.2L794 503.9L794.4 382.1L794.9 422.5L795.3 446.3L795.8 420.2L796.2 459.1L796.7 446.4L797.1 456.2L797.6 539.1L798 470.6L798.4 449.3L798.9 489.4L799.3 548.5L799.8 575.4L800.2 482.4L800.7 518.6L801.1 492L801.6 356.3L802 298.5L802.4 364.7L802.9 392.6L803.3 202.9L803.8 353.1L804.2 185.3L804.7 368.3L805.1 359.2L805.6 318.4L806 431.4L806.4 491.6L806.9 472.2L807.3 260.9L807.8 472.7L808.2 430.7L808.7 463.1L809.1 350.9L809.6 297.8L810 451.5L810.4 349.6L810.9 413.3L811.3 350.9L811.8 502.3L812.2 478.4L812.7 365.8L813.1 471.7L813.6 496L814 446.8L814.4 530.9L814.9 532.8L815.3 505L815.8 479.6L816.2 303.7L816.7 107.5L817.1 460.4L817.6 486.2L818 427L818.4 359.6L818.9 524.2L819.3 582.3L819.8 527.3L820.2 498.7L820.7 528.6L821.1 643.9L821.6 536.2L822 555.8L822.4 524.4L822.9 514.3L823.3 337.6L823.8 334.4L824.2 480.4L824.7 429.2L825.1 377L825.6 369.6L826 376.1L826.4 322.1L826.9 441.9L827.3 404.9L827.8 435.2L828.2 485.6L828.7 451.5L829.1 503.2L829.6 508.5L830 572.7L830.4 372.3L830.9 351.6L831.3 434.3L831.8 520.6L832.2 492.3L832.7 388.6L833.1 196L833.6 380.6L834 404.6L834.4 304.8L834.9 495.8L835.3 452.8L835.8 421.2L836.2 487.6L836.7 524.6L837.1 463.1L837.6 271.5L838 325.1L838.4 398.9L838.9 367L839.3 385L839.8 428L840.2 437.7L840.7 435L841.1 519.3L841.6 472.6L842 462.2L842.4 517.5L842.9 480.7L843.3 527.3L843.8 553.3L844.2 577.9L844.7 497L845.1 334.6L845.6 356.5L846 482.5L846.4 417.8L846.9 446.8L847.3 454.4L847.8 422.1L848.2 515L848.7 475.3L849.1 430.3L849.6 544.9L850 551.3L850.4 536.6L850.9 530.2L851.3 466L851.8 539.1L852.2 258.9L852.7 342L853.1 520.8L853.6 452.2L854 505.7L854.4 469.3L854.9 435.2L855.3 519.7L855.8 346.2L856.2 471.7L856.7 506.3L857.1 589.5L857.6 531.1L858 512.1L858.4 486.5L858.9 426.3L859.3 309.4L859.8 393.9L860.2 470.9L860.7 204.2L861.1 319.9L861.6 356.5L862 363L862.4 350.9L862.9 483.3L863.3 413.8L863.8 497L864.2 562L864.7 540.6L865.1 515.4L866 511L866.4 329.1L866.9 -756L867.3 -429.4L867.8 -270.5L868.2 -142.2L868.7 101L869.1 108.1L869.6 303.9L870 237.7L870.4 107.4L870.9 73.3L871.3 365.4L871.8 406L872.2 481.6L872.7 514.3L873.1 571.7L873.6 343.3L874 297.9L874.4 483.3L874.9 444.5L875.3 498.7L875.8 455.3L876.2 457.3L876.7 555.8L877.1 553.3L877.6 554.5L878.4 549.6L878.9 505.7L879.3 490.3L879.8 524.6L880.2 546.7L880.7 451.5L881.1 302.8L881.6 329.7L882 393L882.4 425L882.9 401.7L883.3 412.7L883.8 519L884.2 454.1L884.7 367.2L885.1 506.5L885.6 514.3L886 571.4L886.4 455.9L886.9 533.8L887.3 496.7L887.8 469.5L888.2 260.2L888.7 258.6L889.1 345.8L889.6 425.6L890 378.8L890.4 383L890.9 522.4L891.3 483.3L891.8 433.8L892.2 537.7L892.7 459.7L893.1 500.5L893.6 446.8L894 533.1L894.4 501.4L894.9 462.9L895.3 190L895.8 300.3L896.2 450.4L896.7 348.5L897.1 278.2L897.6 221.1L898 240.1L898.4 443.7L898.9 247.9L899.3 307.5L899.8 270L900.2 409.6L900.7 370.1L901.1 422L901.6 438.8L902 425.2L902.4 200.2L902.9 267.5L903.3 392.2L904.2 430.3L904.7 379.2L905.1 340.7L905.6 438.1L906 394.2L906.4 341.1L906.9 378.8L907.3 559.8L907.8 439.6L908.2 543.1L908.7 391.5L909.1 424.3L909.6 344.7L910 367.6L910.4 488.9L910.9 449.9L911.3 451.5L911.8 424L912.2 515.4L912.7 496.7L913.1 534L913.6 512.5L914 264.2L914.4 629.2L914.9 523.7L915.3 473.5L915.8 482.7L916.2 469.3L916.7 476.9L917.1 215.4L917.6 314.3L918 345.6L918.4 281.3L918.9 310.4L919.3 221.1L919.8 319.7L920.2 386.4L920.7 309.2L921.1 454.8L921.6 466L922 509.6L922.4 477.6L922.9 462.4L923.3 397.7L923.8 530.9L924.2 376.8L924.7 368.3L925.1 488.3L925.6 428.5L926 476.7L926.4 394.9L926.9 408.5L927.3 526.1L927.8 435.2L928.2 462L928.7 509.2L929.1 517.5L929.6 528.2L930 515L930.4 545.1L930.9 538.6L931.3 414.4L931.8 317.5L932.2 539.8L932.7 540.7L933.1 435.2L933.6 410.4L934 503.6L934.4 500.5L934.9 554.2L935.3 492.7L935.8 499.6L936.2 564.3L936.7 518.6L937.1 584.3L937.6 488L938 571.9L938.4 414L938.9 257L939.3 398.2L939.8 403.3L940.2 386.1L941.1 460.4L941.6 440.3L942 433.4L942.4 472L942.9 501.9L943.3 468.8L943.8 496.9L944.2 474L944.7 492.1L945.1 420.9L945.6 337.1L946 325.9L946.4 535.1L946.9 442.5L947.3 402.7L947.8 386.1L948.2 292.7L948.7 452.8L949.1 449.7L949.6 323.5L950 386.8L950.4 464.6L950.9 460L951.3 465.8L951.8 528.6L952.2 394.6L952.7 381.3L953.1 218.3L953.6 351.8L954 398.9L954.4 341.6L954.9 428.9L955.3 446.1L955.8 533.8L956.2 475.5L956.7 501.2L957.1 542L957.6 493L958 498.5L958.4 461.9L958.9 564.9L959.3 550.5L959.8 577.6L960.2 299.7L960.7 330.4L961.1 500.8L961.6 461.5L962 474.4L962.4 486.3L962.9 439.4L963.3 431.9L963.8 451.5L964.2 482.9L964.7 513L965.1 596.4L965.6 483.8L966 548L966.4 502.5L966.9 543.5L967.3 88.3L967.8 334L968.2 536.4L968.7 403.5L969.1 431L969.6 442.8L970 394.4L970.4 504.3L970.9 301.2L971.3 464.6L971.8 460.6L972.2 579.4L972.7 546.2L973.1 494.9L973.6 441.4L974 446.8L974.4 330.6L974.9 336.7L975.3 481.1L975.8 378.1L976.2 316.2L976.7 281.6L977.1 352.2L977.6 420L978 450.4L978.4 342.5L978.9 432.7L979.3 555.4L979.8 479.3L980.2 513.4L980.7 583.9L981.1 482.2L981.6 361.2L982 -644.8L982.4 -457.5L982.9 -45.1L983.3 -70.7L983.8 130.7L984.2 92.5L984.7 351.6L985.1 183.7L985.6 66.2L986 37.2L986.4 355.6L986.9 471.1L987.3 466.8L987.8 568.1L988.2 530L988.7 495L989.1 258.9L989.6 376.6L990 475.1L990.4 499.2L990.9 463.5L991.3 503.9L991.8 537.1L992.2 551.6L992.7 479.1L993.1 554.5L993.6 531.7L994 542.4L994.4 544.7L994.9 585.5L995.3 535.5L995.8 530.9L996.2 290.7L996.7 255.9L997.1 356L997.6 365.4L998 347.1L998.4 326.9L998.9 364.1L999.3 348.3L999.8 407.1L1000.2 423.6L1000.7 453.5L1001.1 547.6L1001.6 485.4L1002 555.6L1002.9 539.8L1003.3 299.7L1003.8 331.3L1004.2 464.4L1004.7 370.5L1005.1 388.6L1005.6 426.7L1006 413.1L1006.4 464.4L1006.9 420L1007.3 525.1L1007.8 518.8L1008.2 457.1L1008.7 443.5L1009.1 520.4L1009.6 559.8L1010 495.8L1010.4 232.8L1010.9 313.3L1011.3 414.5L1011.8 382.8L1012.2 361.8L1012.7 174.8L1013.1 238.3L1013.6 421.8L1014 373.4L1014.4 262.8L1014.9 283.4L1015.3 447.2L1015.8 391.1L1016.2 365L1016.7 402.4L1017.1 307.5L1017.6 312.1L1018 263.5L1018.4 324.2L1018.9 399.1L1019.3 350L1019.8 424.5L1020.2 256.4L1020.7 196.6L1021.1 355.8L1021.6 312.1L1022 440.5L1022.4 526.1L1022.9 525.3L1023.3 477.6L1023.8 541.1L1024.2 448.6L1024.7 502.7L1025.1 299.4L1025.6 363.9L1026 473.8L1026.4 389.3L1026.9 486.9L1027.3 421.4L1027.8 488L1028.2 541.5L1028.7 470.6L1029.1 502.8L1029.6 580.5L1030 505.9L1030.4 468.9L1030.9 533.7L1031.3 503.7L1031.8 495.4L1032.2 313.7L1032.7 214.2L1033.1 307.7L1033.6 350L1034 348.7L1034.4 200.9L1034.9 405.8L1035.3 422.1L1035.8 390.8L1036.2 476.4L1036.7 487.4L1037.1 452.4L1037.6 442.6L1038 419.2L1038.4 402.6L1038.9 475.3L1039.3 312.3L1039.8 327.1L1040.2 455.7L1040.7 390.1L1041.1 432.8L1041.6 481.4L1042 408L1042.4 498.7L1042.9 450.4L1043.3 478.7L1043.8 539.5L1044.2 495.8L1044.7 489.1L1045.1 589.5L1045.6 542.2L1046 536.9L1046.4 360.1L1046.9 176.6L1047.3 459.3L1047.8 454.2L1048.2 452.8L1048.7 398.6L1049.1 439.2L1049.6 542.9L1050 581.9L1050.4 483.4L1050.9 478.7L1051.3 597.3L1051.8 554.7L1052.2 520.4L1052.7 507L1053.1 486.3L1053.6 321.7L1054 317.7L1054.4 416.3L1054.9 399.5L1055.3 416.9L1055.8 413.4L1056.2 448.6L1056.7 471.7L1057.1 414.2L1057.6 441.9L1058 500.8L1058.4 457.3L1058.9 545.6L1059.3 504.5L1059.8 559.6L1060.2 473.5L1060.7 555.2L1061.1 321.1L1061.6 309.5L1062 468L1062.4 465.3L1062.9 402.4L1063.3 268.7L1063.8 394.6L1064.2 445.7L1064.7 372.8L1065.1 425.8L1065.6 469.1L1066 520.4L1066.4 481.1L1066.9 513.7L1067.3 488.7L1067.8 412.7L1068.2 235.4L1068.7 271.3L1069.1 378.3L1069.6 485.1L1070 430.9L1070.4 432.1L1070.9 565.8L1071.3 563.2L1071.8 461.7L1072.2 526.4L1072.7 492.5L1073.1 465.5L1073.6 518.8L1074 283.4L1074.4 537.1L1074.9 526.2L1075.3 355.6L1075.8 307L1076.2 517.5L1076.7 404.4L1077.1 345.8L1077.6 450.8L1078 426.5L1078.4 525.1L1078.9 454.4L1079.3 489.8L1079.8 512.1L1080.2 545.6L1080.7 509L1081.1 424.7L1081.6 475.1L1082 505L1082.4 363.2L1082.9 298.5L1083.3 435.4L1083.8 405.3L1084.2 400.8L1084.7 360.1L1085.1 457L1085.6 450.4L1086 391.9L1086.4 470.7L1086.9 448.1L1087.3 617.3L1087.8 474.9L1088.2 491.1L1088.7 568.7L1089.1 492L1089.6 339.3L1090 308.6L1090.4 419.8L1090.9 404.7L1091.3 391.3L1091.8 462.4L1092.2 383.9L1092.7 429.9L1093.1 344.9L1093.6 363.8L1094 419.6L1094.4 442.6L1094.9 519.9L1095.3 556.9L1095.8 588.6L1096.2 566.7L1096.7 472.6L1097.1 215.1L1097.6 -892.2L1098 -426.1L1098.4 -181.1L1098.9 -68.5L1099.3 178.4L1099.8 187.3L1100.2 308.5L1100.7 173.7L1101.1 117L1101.6 160.5L1102 323L1102.4 383.3L1102.9 528.6L1103.3 514.4L1103.8 548.5L1104.2 330.9L1104.7 362.9L1105.1 533.5L1105.6 490.3L1106 404L1106.4 497.4L1106.9 551.1L1107.3 585L1107.8 530.8L1108.2 596L1108.7 516.8L1109.1 544.4L1109.6 505.7L1110 533.7L1110.4 582.6L1110.9 505.6L1111.3 340.2L1111.8 299L1112.2 329.1L1112.7 383L1113.1 412.7L1113.6 279.3L1114 400L1114.4 445.5L1114.9 518.3L1115.3 441.7L1115.8 409.1L1116.2 569.2L1116.7 434.5L1117.1 468.4L1117.6 562.9L1118 502.1L1118.4 322.2L1118.9 292L1119.3 491.8L1119.8 447.5L1120.2 354.1L1120.7 344.2L1121.1 436.3L1121.6 531.1L1122 472.2L1122.4 504.1L1122.9 487.4L1123.3 515L1123.8 448.8L1124.2 550.9L1124.7 561.8L1125.1 480.9L1125.6 320.2L1126 274.9L1126.4 475.5L1126.9 330.2L1127.3 130.4L1127.8 276.9L1128.2 223.8L1128.7 305.7L1129.1 255.9L1129.6 210.7L1130 351.8L1130.4 419.1L1130.9 410.5L1131.3 379.4L1131.8 413.3L1132.2 431.8L1132.7 436.5L1133.1 214.2L1133.6 310.1L1134 426.3L1134.4 281.1L1134.9 336.9L1135.3 303.2L1135.8 433L1136.2 364.8L1136.7 302.1L1137.1 448.3L1137.6 500.1L1138 509L1138.4 529.5L1138.9 549.3L1139.3 590.8L1139.8 574.6L1140.2 413.6L1140.7 288.7L1141.1 514.1L1141.6 431.2L1142 487.6L1142.4 450.4L1142.9 480.7L1143.3 521.2L1143.8 533.3L1144.2 535.8L1144.7 454.4L1145.1 598.4L1145.6 520.4L1146 527.7L1146.4 436.7L1146.9 473.3L1147.3 271.5L1147.8 258.2L1148.2 358.5L1148.7 352.2L1149.1 267.5L1149.6 226.3L1150 264.6L1150.4 365.6L1150.9 401.3L1151.3 428.7L1151.8 489.2L1152.2 557.2L1152.7 496.1L1153.1 431.9L1153.6 472.7L1154 430.3L1154.4 340.9L1154.9 328.2L1155.3 453.5L1155.8 449L1156.2 482.9L1156.7 459.7L1157.1 426.3L1157.6 401.8L1158 479.1L1158.4 459L1158.9 400.8L1159.3 503.2L1159.8 565.4L1160.2 558.7L1160.7 438.3L1161.1 523.9L1161.6 401.8L1162 280.5L1162.4 454.1L1162.9 478.7L1163.3 550.4L1163.8 402.4L1164.2 424.7L1164.7 560.1L1165.1 557.2L1165.6 472.6L1166 498.3L1166.4 559.1L1166.9 626.9L1167.3 495.4L1167.8 506.5L1168.2 551.6L1168.7 538.9L1169.1 343.1L1169.6 401.7L1170 438.6L1170.4 427.2L1170.9 459.1L1171.3 393.3L1171.8 435.2L1172.7 427.4L1173.1 498.5L1173.6 485.3L1174 489.1L1174.4 435.2L1174.9 515.4L1175.3 488.9L1175.8 503.6L1176.2 274.5L1176.7 329.3L1177.1 483.3L1177.6 484.2L1178 489.2L1178.4 364.1L1178.9 424.3L1179.3 505.6L1179.8 271.6L1180.2 363.4L1180.7 260.8L1181.1 475.6L1181.6 435.9L1182 458.8L1182.4 514.1L1182.9 351.1L1183.3 251.5L1183.8 264.9L1184.2 431L1184.7 374.3L1185.1 371.2L1185.6 443.7L1186 476.4L1186.4 584.8L1186.9 515.4L1187.3 495.4L1187.8 526.1L1188.2 527.9L1188.7 546.5L1189.1 596.6L1189.6 521.5L1190 501L1190.4 339.1L1190.9 419.1L1191.3 482.5L1191.8 463.9L1192.2 452.6L1192.7 438.8L1193.1 496.1L1193.6 546L1194 505.2L1194.4 432.3L1194.9 530L1195.3 558L1195.8 614.7L1196.2 565L1196.7 538.2L1197.6 361.8L1198 365.6L1198.4 466.4L1198.9 519.3L1199.3 459.9L1199.8 446.1L1200.2 425.6L1200.7 481.6L1201.1 380.4L1201.6 493.4L1202 540L1202.4 630.5L1202.9 560.3L1203.3 538.7L1203.8 565.8L1204.2 570.5L1204.7 488.7L1205.1 309.7L1205.6 374.1L1206 504.3L1206.4 336.9L1206.9 428.1L1207.3 374.8L1207.8 460.4L1208.2 302.1L1208.7 386.1L1209.1 502.7L1209.6 507.4L1210 558.5L1210.4 524.2L1210.9 595.5L1211.3 597.5L1211.8 554.3L1212.2 367.9L1212.7 -650.4L1213.1 -192.2L1213.6 -51.5L1214 -204.5L1214.4 48.2L1214.9 260.6L1215.3 347.4L1215.8 243.9L1216.2 49.7L1216.7 147.4L1217.1 266.2L1217.6 376.8L1218 506.5L1218.4 569.8L1218.9 579.9L1219.3 417.6L1219.8 383.7L1220.2 519.7L1220.7 509.2L1221.1 479.8L1221.6 522.8L1222 492.1L1222.4 559.2L1222.9 562.1L1223.3 554.2L1223.8 578.5L1224.2 532.2L1224.7 435.4L1225.1 478L1225.6 576.8L1226 389.1L1226.4 337.5L1226.9 270.9L1227.3 423.1L1227.8 351.4L1228.2 510.1L1228.7 291.8L1229.1 317.5L1229.6 443.5L1230 420.7L1230.4 437.9L1230.9 416.7L1231.3 535.8L1231.8 483.4L1232.2 468L1232.7 460.2L1233.1 531.7L1233.6 268.9L1234 113.9L1234.4 480.5L1234.9 478.5L1235.3 462.8L1235.8 364.3L1236.2 414.2L1236.7 477.6L1237.1 521.9L1237.6 430.5L1238 461.5L1238.4 535.7L1238.9 532.6L1239.3 504.3L1239.8 522.6L1240.2 472.2L1240.7 413.3L1241.1 348.2L1241.6 363L1242 372.8L1242.4 338L1242.9 248.8L1243.3 213.6L1243.8 342.9L1244.2 408L1244.7 270.4L1245.1 359.2L1245.6 312.4L1246 398.2L1246.4 218.1L1246.9 425.6L1247.3 334.4L1247.8 470.2L1248.2 166.3L1248.7 275.1L1249.1 397.5L1249.6 371L1250 405.6L1250.4 287.6L1250.9 359.6L1251.3 457.7L1251.8 287.6L1252.2 414.7L1252.7 511.9L1253.1 494.1L1253.6 450.6L1254 507.7L1254.4 492.9L1254.9 563.8L1255.3 366.1L1255.8 388.8L1256.2 490L1256.7 410.5L1257.1 445.4L1257.6 486.5L1258 507L1258.4 509.4L1258.9 496.1L1259.3 495.4L1259.8 528.8L1260.2 624.9L1260.7 480L1261.1 525.3L1261.6 476L1262 447.4L1262.4 297.4L1262.9 252.8L1263.3 301L1263.8 330.4L1264.2 366.7L1264.7 383.9L1265.1 274.5L1265.6 453.9L1266 342L1266.4 407.3L1266.9 448.6L1267.3 492.9L1267.8 436.1L1268.2 509.6L1268.7 507.7L1269.1 466.8L1269.6 284.9L1270 271.6L1270.4 487.4L1270.9 480L1271.3 448.6L1271.8 472.6L1272.2 380.4L1272.7 444.3L1273.1 407.6L1273.6 537.7L1274 514.6L1274.4 536.2L1274.9 505.4L1275.3 542L1275.8 548.4L1276.2 489.1L1276.7 488.3L1277.1 185.9L1277.6 389.5L1278 467.7L1278.4 524.8L1278.9 335.1L1279.3 390.6L1279.8 554.7L1280.2 498.5L1280.7 524.2L1281.1 506.3L1281.6 525.1L1282 507.4L1282.4 500.1L1282.9 583.5L1283.3 535.3L1283.8 552.3L1284.2 378.8L1284.7 250.2L1285.1 446.6L1285.6 449.9L1286 385.5L1286.4 354.9L1286.9 419.1L1287.3 114.1L1287.8 483.3L1288.2 471.1L1288.7 449.7L1289.1 505.9L1289.6 488.7L1290 497.8L1290.4 478.2L1290.9 427.2L1291.3 351.6L1291.8 377.9L1292.2 543.8L1292.7 445.7L1293.1 423.8L1293.6 307.9L1294 421.8L1294.4 413.3L1294.9 420.7L1295.3 393.5L1295.8 441.7L1296.2 486L1296.7 364.3L1297.1 513.5L1297.6 508.5L1298 482L1298.4 315.9L1298.9 275.1L1299.3 434.3L1299.8 392L1300.2 474.6L1300.7 440.3L1301.1 478.9L1301.6 537.3L1302 546.2L1302.4 511L1302.9 588.2L1303.3 553.1L1303.8 506.8L1304.2 459L1304.7 538.6L1305.1 461.5L1305.6 424.7L1306 319.3L1306.4 507.6L1306.9 408.4L1307.3 496.7L1307.8 431.9L1308.2 343.3L1308.7 454.2L1309.1 520.1L1309.6 460.6L1310 459L1310.4 542L1310.9 589.9L1311.3 505.2L1311.8 538.4L1312.2 579L1312.7 404L1313.1 427.8L1313.6 420.3L1314 461.7L1314.4 496.7L1314.9 523.3L1315.3 500.5L1315.8 485.6L1316.2 505.9L1316.7 423.6L1317.1 433.4L1317.6 523.9L1318 526.8L1318.4 502.7L1318.9 547.4L1319.3 434.8L1319.8 478.4L1320.2 369.6L1320.7 311.4L1321.1 415.8L1321.6 182.8L1322 423.6L1322.4 348.9L1322.9 478.5L1323.3 416.2L1323.8 391.7L1324.2 446.4L1324.7 523.3L1325.1 546.5L1325.6 518.3L1326 638.8L1326.4 546L1326.9 557.8L1327.3 414.5L1327.8 -655.1L1328.2 -249.5L1328.7 -118.4L1329.1 -87.9L1329.6 28.8L1330 212.3L1330.4 344.2L1330.9 297.6L1331.3 126L1331.8 3.3L1332.2 328.6L1332.7 432.3L1333.1 500.1L1333.6 503.9L1334 560.7L1334.4 369.6L1334.9 328.9L1335.3 538.7L1335.8 486L1336.2 562.5L1336.7 451.9L1337.1 538.7L1337.6 553.4L1338 600.9L1338.4 465.5L1338.9 600.9L1339.3 568.1L1339.8 569.6L1340.2 571.6L1340.7 393.5L1341.1 529.3L1341.6 370.1L1342 285.1L1342.4 453.9L1342.9 407.5L1343.3 465.7L1343.8 358.1L1344.2 418.3L1344.7 422.9L1345.1 483.4L1345.6 416.5L1346 433.8L1346.4 559.6L1346.9 526.6L1347.3 447.2L1347.8 531.9L1348.2 504.5L1348.7 477.3L1349.1 267.8L1349.6 230.3L1350 354.9L1350.4 410.4L1350.9 430.1L1351.3 394.8L1351.8 520.4L1352.2 485.1L1352.7 462.9L1353.1 521.5L1353.6 600.4L1354 500.5L1354.4 475.8L1354.9 559.2L1355.3 491.6L1355.8 504.5L1356.2 266.2L1356.7 354L1357.1 362.3L1357.6 340.7L1358 305.4L1358.4 290.5L1358.9 346.5L1359.3 374.1L1359.8 308.3L1360.2 432.5L1360.7 431.8L1361.1 377.4L1361.6 341.5L1362 459.3L1362.4 409.1L1362.9 485.6L1363.3 220.1L1363.8 247.2L1364.2 406.6L1364.7 379.5L1365.1 363L1365.6 355.1L1366 328.2L1366.4 408.2L1366.9 309.2L1367.3 496.7L1367.8 529.1L1368.2 560.9L1368.7 501.8L1369.1 544.9L1369.6 548.4L1370 601.5L1370.4 413.4L1370.9 429.4L1371.3 394.4L1371.8 424.5L1372.2 496.3L1372.7 410.9L1373.1 418L1373.6 547.8L1374 523.9L1374.4 515.7L1374.9 440.5L1375.3 610.6L1375.8 570.3L1376.2 504.7L1376.7 492.9L1377.1 436.7L1377.6 297L1378 365L1378.4 344.5L1378.9 354.9L1379.3 386.8L1379.8 409.6L1380.2 260.8L1380.7 397.3L1381.1 346.9L1381.6 360.9L1382 411.8L1382.4 497.9L1382.9 480.9L1383.3 537.7L1383.8 521.7L1384.2 336.6L1384.7 477.6L1385.1 246.6L1385.6 399.1L1386 438.3L1386.4 491.4L1386.9 448.4L1387.3 334.4L1387.8 507.6L1388.2 483.3L1388.7 410.5L1389.1 503.4L1389.6 511.7L1390.4 508.5L1390.9 583.5L1391.3 529.5L1391.8 565.4L1392.2 331.8L1392.7 240.6L1393.1 387.5L1393.6 456.1L1394 323.1L1394.4 375.7L1394.9 523.3L1395.3 480.9L1395.8 502.7L1396.2 516.4L1396.7 586.8L1397.1 569.8L1397.6 500.5L1398 535.7L1398.4 517.5L1398.9 534.8L1399.3 383.7L1399.8 275.1L1400.2 428.7L1400.7 486.7L1401.1 356.3L1401.6 368.7L1402 456.4L1402.4 486.2L1402.9 487.8L1403.3 402.7L1403.8 497.6L1404.2 524.4L1404.7 469.5L1405.1 473.1L1405.6 422.3L1406 501.2L1406.4 241.4L1406.9 314.8L1407.3 532L1407.8 484.9L1408.2 426.1L1408.7 389L1409.1 226.1L1409.6 468.6L1410 366.5L1410.4 435.7L1410.9 440.8L1411.3 513.2L1411.8 537.7L1412.2 519.5L1412.7 490L1413.1 349.1L1413.6 272.5L1414 354.7L1414.4 492.9L1414.9 343.3L1415.3 456.6L1415.8 409.1L1416.2 468.4L1416.7 482.7L1417.1 471.7L1417.6 459L1418 572.3L1418.4 512.6L1418.9 557.6L1419.3 507.9L1419.8 619.4L1420.2 563.4L1420.7 536.6L1421.1 345.6L1421.6 420.9L1422 434.7L1422.4 468.9L1422.9 489.1L1423.3 460.2L1423.8 495.8L1424.2 500.7L1424.7 550.2L1425.1 519.5L1425.6 576.8L1426 513L1426.4 484L1426.9 551.8L1427.3 511.2L1427.8 531.5L1428.2 328.8L1428.7 366.8L1429.1 437.4L1429.6 421.4L1430 451.5L1430.4 495.4L1430.9 470.9L1431.3 461.9L1431.8 442.1L1432.2 502.5L1432.7 579.9L1433.1 501.6L1433.6 518.8L1434 612.4L1434.4 537.7L1434.9 527.5L1435.3 316.6L1435.8 357.4L1436.2 497.4L1436.7 394.9L1437.1 316.4L1437.6 348.5L1438 400.6L1438.4 337.5L1438.9 340.7L1439.3 431.4L1439.8 442.5L1440.2 511.7L1440.7 476.4L1441.1 521.7L1441.6 523.7L1442 584.3L1442.4 344.7L1442.9 -668.6L1443.3 -236.1L1443.8 -25L1444.2 11.4L1444.7 230.5L1445.1 84.3L1445.6 324L1446 293.6L1446.4 169L1446.9 75.8L1447.3 199.8L1447.8 464.2L1448.2 467.3L1448.7 448.8L1449.1 544.9L1449.6 371.9L1450 396.8L1450.4 528.4L1450.9 527.3L1451.3 530L1451.8 535.3L1452.2 497L1452.7 603.1L1453.1 566.5L1453.6 552.9L1454 557.4L1454.4 560.7L1454.9 470.9L1455.3 505.6L1455.8 510.5L1456.2 453.5L1456.7 455.3L1457.1 246.6L1457.6 296.3L1458 437.6L1458.4 483.3L1458.9 402.7L1459.3 422.5L1459.8 495.8L1460.2 485.3L1460.7 345.4L1461.1 536L1461.6 529L1462 526.1L1462.4 486.5L1462.9 567.6L1463.3 500.1L1463.8 445.9L1464.2 335.7L1464.7 316.2L1465.1 380.6L1465.6 421.8L1466 407.1L1466.4 462.6L1466.9 548.4L1467.3 447.7L1467.8 493L1468.2 569.6L1468.7 505.9L1469.1 534.2L1469.6 412L1470 608.2L1470.4 504.8L1470.9 462.9L1471.3 333.5L1471.8 257.9L1472.2 423.1L1472.7 328.9L1473.1 274.2L1473.6 251L1474 386.4L1474.4 457.5L1474.9 311.4L1475.3 414.4L1475.8 409.8L1476.2 440.5L1476.7 417.1L1477.1 438.1L1477.6 400L1478 446.1L1478.4 239.2L1479.3 348L1479.8 420.3L1480.2 445.4L1480.7 267.7L1481.1 364.1L1481.6 478L1482 376.5L1482.4 393.1L1482.9 536.6L1483.3 566.5L1483.8 480.7L1484.2 551.8L1484.7 540.4L1485.1 522.8L1485.6 362.7L1486 420.7L1486.4 492.5L1486.9 476.5L1487.3 528.8L1487.8 433L1488.2 511.5L1488.7 510.6L1489.1 496.7L1489.6 572.5L1490 529.3L1490.4 576.1L1490.9 590.4L1491.3 544.7L1491.8 521.2L1492.2 516.1L1492.7 499L1493.1 208.4L1493.6 299.9L1494 267.5L1494.4 293.4L1494.9 295L1495.3 247.5L1495.8 344.7L1496.2 381.9L1496.7 218.3L1497.1 434.7L1497.6 414.4L1498 495.4L1498.4 487.1L1498.9 543.6L1499.3 386.8L1499.8 510.8L1500.2 282.7L1500.7 259.3L1501.1 440.6L1501.6 368.8L1502 448.8L1502.4 328.9L1502.9 553.8L1503.3 482.9L1503.8 409.8L1504.2 485.3L1504.7 493L1505.1 548.4L1505.6 468.9L1506 517.2L1506.4 496.3L1506.9 516.6L1507.3 372.3L1507.8 207.6L1508.2 417.4L1508.7 446.4L1509.1 497.2L1509.6 384.1L1510 434.5L1510.4 506.3L1510.9 437.2L1511.3 464.2L1511.8 549.3L1512.2 550.4L1512.7 468.2L1513.1 558.9L1513.6 581.9L1514 526.1L1514.4 349.1L1514.9 335.8L1515.3 453.5L1515.8 456.4L1516.2 432.1L1516.7 410.5L1517.1 438.6L1517.6 431.9L1518 348L1518.4 400.4L1518.9 492L1519.3 422.3L1519.8 528.6L1520.2 468.9L1520.7 487.8L1521.1 516.6L1521.6 366.7L1522 368.7L1522.4 542.7L1522.9 496.3L1523.3 483.4L1523.8 462.6L1524.2 299.7L1524.7 474.6L1525.1 472.2L1525.6 351.6L1526 443.9L1526.4 462.6L1526.9 536L1527.3 506.8L1527.8 521.3L1528.2 401.8L1528.7 303.9L1529.1 387.3L1529.6 390.1L1530 414.7L1530.4 415.4L1530.9 368.7L1531.3 449.3L1531.8 527.9L1532.2 539.1L1532.7 376.3L1533.1 575L1533.6 524.1L1534 512.8L1534.4 523.5L1534.9 513.4L1535.3 567.8L1535.8 500.7L1536.2 353.8L1536.7 402.7L1537.1 502.7L1537.6 387.7L1538 454.1L1538.4 461.7L1538.9 555.8L1539.3 533.5L1539.8 447.9L1540.2 520.6L1540.7 538.2L1541.6 486.2L1542 565.4L1542.4 552.9L1542.9 561.8L1543.3 399.7L1543.8 247.9L1544.2 495L1544.7 462L1545.1 562.1L1545.6 421.6L1546 542.7L1546.4 491.8L1546.9 457.9L1547.3 466L1547.8 555.8L1548.2 554.9L1548.7 541.8L1549.1 616.7L1549.6 521.5L1550 502.3L1550.4 355.8L1550.9 338.6L1551.3 495.4L1551.8 337.3L1552.2 278.5L1552.7 350.5L1553.1 432.7L1553.6 387.9L1554 225.4L1554.4 364.5L1554.9 436.5L1555.3 518.6L1555.8 536.8L1556.2 554.5L1556.7 544.4L1557.1 577.7L1557.6 427L1558 -647.2L1558.4 -434.6L1558.9 -95.2L1559.3 -35.5L1559.8 173.4L1560.2 159L1560.7 402.4L1561.1 234.1L1561.6 163L1562 64L1562.4 414.4L1562.9 411.6L1563.3 433.8L1563.8 476.7L1564.2 596.8L1564.7 399.8L1565.1 371.2L1565.6 532L1566 455L1566.4 530.9L1566.9 452.1L1567.3 536.2L1567.8 611.1L1568.2 572.3L1568.7 533.8L1569.1 450.4L1569.6 618.5L1570 607.5L1570.4 552.3L1570.9 600L1571.3 511L1571.8 367.6L1572.2 214.2L1572.7 281.4L1573.1 421.2L1573.6 438.5L1574 403.8L1574.4 407.6L1574.9 461.9L1575.3 435.7L1575.8 313.9L1576.2 428.5L1576.7 520.8L1577.1 442.5L1577.6 487.6L1578 577.7L1578.4 567.6L1578.9 470.9L1579.3 270.9L1579.8 298.3L1580.2 494.7L1580.7 472L1581.1 331.5L1581.6 410.2L1582 460L1582.4 485.6L1582.9 474L1583.3 575.6L1583.8 540.2L1584.2 524.2L1584.7 435.4L1585.1 564.7L1585.6 559.4L1586 480.9L1586.4 328.8L1586.9 333.7L1587.3 413.3L1587.8 279.1L1588.2 288L1588.7 300.3L1589.1 344.5L1589.6 410.5L1590 264.9L1590.4 373.6L1590.9 335.5L1591.3 427.8L1591.8 317L1592.2 365.6L1592.7 325.3L1593.1 432.1L1593.6 275.1L1594 309L1594.4 391L1594.9 386.6L1595.3 431.9L1595.8 434.5L1596.2 269.6L1596.7 455.7L1597.1 416.9L1597.6 379.9L1598 477.8L1598.4 554.3L1598.9 535.3L1599.3 467.7L1599.8 519L1600.2 494.3L1600.7 357.6L1601.1 330.2L1601.6 466.2L1602 456.1L1602.4 439.2L1602.9 463.1L1603.3 475.3L1603.8 531.1L1604.2 516.8L1604.7 463.7L1605.1 492L1605.6 599.9L1606 527.5L1606.4 458.8L1606.9 533.1L1607.3 218.7L1607.8 424.5L1608.2 206.5L1608.7 247.7L1609.1 312.3L1609.6 210.2L1610 307.2L1610.4 152.1L1610.9 333.5L1611.3 401.7L1611.8 346.4L1612.2 425L1612.7 458.4L1613.1 513L1613.6 431.4L1614 521.9L1614.4 499.4L1614.9 473.5L1615.3 332.2L1615.8 303.2L1616.2 465.3L1616.7 383.5L1617.1 421.8L1617.6 468L1618 493.6L1618.4 479.3L1618.9 464.4L1619.3 534.6L1619.8 493L1620.2 548.5L1620.7 524.1L1621.1 480.4L1621.6 564.3L1622 532.6L1622.4 343.1L1622.9 230.7L1623.3 411.1L1623.8 440.1L1624.2 479.8L1624.7 355.6L1625.1 474.4L1625.6 502.3L1626 555.1L1626.4 563.8L1626.9 562.7L1627.3 628L1627.8 520.1L1628.2 518.4L1628.7 568.1L1629.1 581.7L1629.6 343.3L1630 248.8L1630.4 454.2L1630.9 417.3L1631.3 404L1631.8 383.7L1632.2 470.4L1632.7 427L1633.1 431.8L1633.6 471.1L1634 531.7L1634.4 503.7L1634.9 585.3L1635.3 421.1L1635.8 474.7L1636.2 536.8L1636.7 389.5L1637.1 379.4L1637.6 484.3L1638 408.4L1638.4 441.6L1638.9 395.9L1639.3 256.6L1639.8 369.4L1640.2 449.9L1640.7 381.7L1641.1 440.3L1641.6 505L1642 530.9L1642.4 435.6L1642.9 512.6L1643.3 446.6L1643.8 451.2L1644.2 193.5L1644.7 372.6L1645.1 427.6L1645.6 377.5L1646 362.1L1646.4 422.7L1646.9 542.4L1647.3 450.3L1647.8 502.5L1648.2 486.7L1648.7 533.3L1649.1 583L1649.6 584.4L1650 634.7L1650.4 583.2L1650.9 597.9L1651.3 312.4L1651.8 355.1L1652.2 521.7L1652.7 437L1653.1 476.7L1654 509L1654.4 497.4L1654.9 415.6L1655.3 472.6L1655.8 603.5L1656.2 568.5L1656.7 511.7L1657.1 599.5L1657.6 528.6L1658 546.7L1658.4 375.5L1658.9 283.8L1659.3 493.6L1659.8 468.9L1660.2 489.6L1660.7 208.7L1661.1 452.1L1661.6 502.7L1662 483.3L1662.4 478.5L1662.9 510.3L1663.3 577.7L1663.8 498.3L1664.2 569.9L1664.7 502.3L1665.1 457.1L1665.6 381.5L1666 351.8L1666.4 502.1L1666.9 493.2L1667.3 388.4L1667.8 416L1668.2 380.3L1668.7 468.2L1669.1 456.8L1669.6 324L1670 427.4L1670.4 559.2L1670.9 569.4L1671.3 544.2L1671.8 571.9L1672.2 470.2L1672.7 319.9L1673.1 -349.1L1673.6 -342.4L1674 -96.1L1674.4 -57.3L1674.9 115.7L1675.3 179.9L1675.8 353.1L1676.2 220.5L1676.7 80.9L1677.1 23.6L1677.6 385.3L1678 441.9L1678.4 503.2L1678.9 495.8L1679.3 506.6L1679.8 487.1L1680.2 377.2L1680.7 346.7L1681.1 542.4L1681.6 449.3L1682 475.6L1682.4 462.8L1682.9 565.9L1683.3 568.1L1683.8 558.5L1684.2 548.4L1684.7 576.5L1685.1 595.5L1685.6 547.4L1686 575.4L1686.4 545.3L1686.9 519.2L1687.3 287.2L1687.8 312.8L1688.2 363.9L1688.7 329.8L1689.1 371.6L1689.6 333.3L1690 479.3L1690.4 534L1690.9 407.6L1691.3 419.2L1691.8 511.5L1692.2 522.1L1692.7 367.9L1693.1 512.3L1693.6 487.4L1694 477.6L1694.4 310.4L1694.9 337.6L1695.3 448.8L1695.8 435.9L1696.2 400L1696.7 355.2L1697.1 416.5L1697.6 483.3L1698 528.2L1698.4 539.7L1698.9 494.1L1699.3 568.7L1699.8 408.2L1700.2 554.7L1700.7 577.4L1701.1 579.4L1701.6 342.2L1702 331.1L1702.4 403.1L1702.9 427.6L1703.3 483.8L1703.8 232.8L1704.2 246.3L1704.7 449.9L1705.1 414.7L1705.6 381.3L1706 361.9L1706.4 458.4L1706.9 411.1L1707.3 439.7L1707.8 377L1708.2 476.5L1708.7 237.4L1709.1 314.4L1709.6 376.5L1710 382.8L1710.4 357.6L1710.9 407.3L1711.3 416.2L1711.8 457.3L1712.2 342L1712.7 350L1713.1 372.8L1713.6 514.1L1714 367L1714.4 580.8L1714.9 542L1715.3 548.2L1715.8 502.5L1716.2 358L1716.7 308.3L1717.1 375.5L1717.6 418.2L1718 453.5L1718.4 429.9L1718.9 487.2L1719.3 479.1L1719.8 463.7L1720.2 543.5L1720.7 503.9L1721.1 573.7L1721.6 443L1722 523.2L1722.4 481.3L1722.9 540.6L1723.3 136.5L1723.8 215.6L1724.2 366.1L1724.7 319L1725.1 268.7L1725.6 195.3L1726 313.5L1726.4 415.1L1726.9 408.2L1727.3 292.9L1727.8 424.3L1728.2 420L1728.7 477.5L1729.1 468.8L1729.6 456.2L1730 471.7L1730.4 322.2L1730.9 360.9L1731.3 502.3L1731.8 351.6L1732.2 446.4L1732.7 426.7L1733.1 404.7L1733.6 475.1L1734 464.9L1734.4 404L1734.9 526.1L1735.3 527.1L1735.8 558.3L1736.2 525.1L1736.7 455L1737.1 495.6L1737.6 305.6L1738 277.6L1738.4 491.4L1738.9 439L1739.3 446.3L1739.8 323.3L1740.2 450.6L1740.7 510.5L1741.1 532.4L1741.6 503.4L1742 453L1742.4 528L1742.9 549.6L1743.3 529.7L1743.8 582.6L1744.2 560L1744.7 428.7L1745.1 389.7L1745.6 498.7L1746 319L1746.4 486.7L1746.9 402.9L1747.3 432.8L1747.8 563.8L1748.2 413.6L1748.7 427.8L1749.1 457.3L1749.6 461L1750 462.2L1750.4 456.6L1750.9 469.5L1751.3 506.5L1751.8 601.1L1752.2 368.1L1752.7 365.8L1753.1 416.3L1753.6 394L1754 396L1754.4 404.6L1754.9 475.8L1755.3 341.1L1755.8 377.7L1756.2 484.9L1756.7 447L1757.1 493L1757.6 464.9L1758 405.6L1758.4 389L1758.9 393.7L1759.3 235.4L1759.8 289.8L1760.2 350.3L1760.7 446.4L1761.1 468.4L1761.6 386.1L1762 532.4L1762.4 506.6L1762.9 470L1763.3 474.4L1763.8 542L1764.2 531.5L1764.7 468.2L1765.1 509.7L1765.6 538.7L1766 544L1766.4 400.6L1766.9 347.8L1767.3 312.1L1767.8 494L1768.2 463.9L1768.7 421.4L1769.1 467.5L1769.6 513.7L1770 562.9L1770.4 492.7L1770.9 506.8L1771.3 583.5L1771.8 492.5L1772.2 529L1772.7 537.8L1773.1 559.8L1773.6 367L1774 382.4L1774.4 540.9L1774.9 549.4L1775.3 460.2L1775.8 496.9L1776.2 494.3L1776.7 477.3L1777.1 458.6L1777.6 501.8L1778 541.6L1778.4 584.8L1778.9 542L1779.3 512.3L1779.8 551.1L1780.2 500.8L1780.7 334.9L1781.1 306.6L1781.6 425.8L1782 413.3L1782.4 476.5L1782.9 485.3L1783.3 428.5L1783.8 459.3L1784.2 339.6L1784.7 274.5L1785.1 433.4L1785.6 507.6L1786 567.4L1786.4 608.9L1786.9 575.6L1787.3 541.5L1787.8 517L1788.2 374.8L1788.7 -566.1L1789.1 -147.8L1789.6 -56.9L1790 -95.4L1790.4 113.5L1790.9 243.5L1791.3 313.9L1791.8 225.9L1792.2 169L1792.7 76.7L1793.1 346.5L1793.6 426.5L1794 461.9L1794.4 563.2L1794.9 578.5L1795.3 408.4L1795.8 431.8L1796.2 504.7L1796.7 508.1L1797.1 502.3L1797.6 454.1L1798 605.1L1798.4 546.2L1798.9 533.8L1799.3 505.2L1799.8 592.8" fill="transparent" stroke="#3fb1e3" stroke-width="3" stroke-linejoin="bevel" class="zr1-cls-5"></path>
</g>
<path d="M-252.9 -5l505.9 0l0 28l-505.9 0Z" transform="translate(1000 5)" fill="rgb(0,0,0)" fill-opacity="0" stroke="#ccc" stroke-width="0" class="zr1-cls-3"></path>
<text dominant-baseline="central" text-anchor="middle" style="font-size:18px;font-family:sans-serif;font-weight:bold;" xml:space="preserve" y="9" transform="translate(1000 5)" fill="#666666">Min wholeUpdate per Tick for benchmark_biolab_uncontrolled</text>
<defs >
<clipPath id="zr1-c0">
<path d="M198 58.5l16004 0l0 8703l-16004 0Z" fill="#000" class="zr1-cls-4"></path>
</clipPath>
</defs>
<style ><![CDATA[
.zr1-cls-3:hover {
pointer-events:none;
}
.zr1-cls-4:hover {
cursor:pointer;
fill:rgba(0,0,0,1);
}
.zr1-cls-5:hover {
cursor:pointer;
}

]]>

</style>
</svg>