<svg width="2000" height="1000" xmlns="http://www.w3.org/2000/svg" xmlns:xlink="http://www.w3.org/1999/xlink" version="1.1" baseProfile="full" viewBox="0 0 2000 1000">
<rect width="2000" height="1000" x="0" y="0" fill="rgb(252,252,252)" fill-opacity="0"></rect>
<path d="M200 930.5L1800 930.5" fill="transparent" stroke="#eeeeee" class="zr5-cls-15"></path>
<path d="M200 826.5L1800 826.5" fill="transparent" stroke="#eeeeee" class="zr5-cls-15"></path>
<path d="M200 605.5L1800 605.5" fill="transparent" stroke="#eeeeee" class="zr5-cls-15"></path>
<path d="M200 384.5L1800 384.5" fill="transparent" stroke="#eeeeee" class="zr5-cls-15"></path>
<path d="M200 164.5L1800 164.5" fill="transparent" stroke="#eeeeee" class="zr5-cls-15"></path>
<path d="M200 60.5L1800 60.5" fill="transparent" stroke="#eeeeee" class="zr5-cls-15"></path>
<path d="M200.5 930L200.5 60" fill="transparent" stroke="#cccccc" stroke-linecap="round" class="zr5-cls-15"></path>
<text dominant-baseline="central" text-anchor="middle" style="font-size:12px;font-family:sans-serif;" xml:space="preserve" y="-6" transform="translate(200 45)" fill="#cccccc">Min controlBehaviorUpdate Time (ms)</text>
<path d="M200 930.5L1800 930.5" fill="transparent" stroke="#cccccc" stroke-linecap="round" class="zr5-cls-15"></path>
<text dominant-baseline="central" text-anchor="end" style="font-size:12px;font-family:sans-serif;" transform="translate(192 930)" fill="#999999">0.011</text>
<text dominant-baseline="central" text-anchor="end" style="font-size:12px;font-family:sans-serif;" transform="translate(192 826.0185)" fill="#999999">0.020</text>
<text dominant-baseline="central" text-anchor="end" style="font-size:12px;font-family:sans-serif;" transform="translate(192 605.2945)" fill="#999999">0.040</text>
<text dominant-baseline="central" text-anchor="end" style="font-size:12px;font-family:sans-serif;" transform="translate(192 384.5705)" fill="#999999">0.060</text>
<text dominant-baseline="central" text-anchor="end" style="font-size:12px;font-family:sans-serif;" transform="translate(192 163.8464)" fill="#999999">0.080</text>
<text dominant-baseline="central" text-anchor="end" style="font-size:12px;font-family:sans-serif;" transform="translate(192 60)" fill="#999999">0.089</text>
<text dominant-baseline="central" text-anchor="middle" style="font-size:12px;font-family:sans-serif;" y="6" transform="translate(200.2222 938)" fill="#999999">0</text>
<text dominant-baseline="central" text-anchor="middle" style="font-size:12px;font-family:sans-serif;" y="6" transform="translate(235.3333 938)" fill="#999999">79</text>
<text dominant-baseline="central" text-anchor="middle" style="font-size:12px;font-family:sans-serif;" y="6" transform="translate(270.4444 938)" fill="#999999">158</text>
<text dominant-baseline="central" text-anchor="middle" style="font-size:12px;font-family:sans-serif;" y="6" transform="translate(305.5556 938)" fill="#999999">237</text>
<text dominant-baseline="central" text-anchor="middle" style="font-size:12px;font-family:sans-serif;" y="6" transform="translate(340.6667 938)" fill="#999999">316</text>
<text dominant-baseline="central" text-anchor="middle" style="font-size:12px;font-family:sans-serif;" y="6" transform="translate(375.7778 938)" fill="#999999">395</text>
<text dominant-baseline="central" text-anchor="middle" style="font-size:12px;font-family:sans-serif;" y="6" transform="translate(410.8889 938)" fill="#999999">474</text>
<text dominant-baseline="central" text-anchor="middle" style="font-size:12px;font-family:sans-serif;" y="6" transform="translate(446 938)" fill="#999999">553</text>
<text dominant-baseline="central" text-anchor="middle" style="font-size:12px;font-family:sans-serif;" y="6" transform="translate(481.1111 938)" fill="#999999">632</text>
<text dominant-baseline="central" text-anchor="middle" style="font-size:12px;font-family:sans-serif;" y="6" transform="translate(516.2222 938)" fill="#999999">711</text>
<text dominant-baseline="central" text-anchor="middle" style="font-size:12px;font-family:sans-serif;" y="6" transform="translate(551.3333 938)" fill="#999999">790</text>
<text dominant-baseline="central" text-anchor="middle" style="font-size:12px;font-family:sans-serif;" y="6" transform="translate(586.4444 938)" fill="#999999">869</text>
<text dominant-baseline="central" text-anchor="middle" style="font-size:12px;font-family:sans-serif;" y="6" transform="translate(621.5556 938)" fill="#999999">948</text>
<text dominant-baseline="central" text-anchor="middle" style="font-size:12px;font-family:sans-serif;" y="6" transform="translate(656.6667 938)" fill="#999999">1027</text>
<text dominant-baseline="central" text-anchor="middle" style="font-size:12px;font-family:sans-serif;" y="6" transform="translate(691.7778 938)" fill="#999999">1106</text>
<text dominant-baseline="central" text-anchor="middle" style="font-size:12px;font-family:sans-serif;" y="6" transform="translate(726.8889 938)" fill="#999999">1185</text>
<text dominant-baseline="central" text-anchor="middle" style="font-size:12px;font-family:sans-serif;" y="6" transform="translate(762 938)" fill="#999999">1264</text>
<text dominant-baseline="central" text-anchor="middle" style="font-size:12px;font-family:sans-serif;" y="6" transform="translate(797.1111 938)" fill="#999999">1343</text>
<text dominant-baseline="central" text-anchor="middle" style="font-size:12px;font-family:sans-serif;" y="6" transform="translate(832.2222 938)" fill="#999999">1422</text>
<text dominant-baseline="central" text-anchor="middle" style="font-size:12px;font-family:sans-serif;" y="6" transform="translate(867.3333 938)" fill="#999999">1501</text>
<text dominant-baseline="central" text-anchor="middle" style="font-size:12px;font-family:sans-serif;" y="6" transform="translate(902.4444 938)" fill="#999999">1580</text>
<text dominant-baseline="central" text-anchor="middle" style="font-size:12px;font-family:sans-serif;" y="6" transform="translate(937.5556 938)" fill="#999999">1659</text>
<text dominant-baseline="central" text-anchor="middle" style="font-size:12px;font-family:sans-serif;" y="6" transform="translate(972.6667 938)" fill="#999999">1738</text>
<text dominant-baseline="central" text-anchor="middle" style="font-size:12px;font-family:sans-serif;" y="6" transform="translate(1007.7778 938)" fill="#999999">1817</text>
<text dominant-baseline="central" text-anchor="middle" style="font-size:12px;font-family:sans-serif;" y="6" transform="translate(1042.8889 938)" fill="#999999">1896</text>
<text dominant-baseline="central" text-anchor="middle" style="font-size:12px;font-family:sans-serif;" y="6" transform="translate(1078 938)" fill="#999999">1975</text>
<text dominant-baseline="central" text-anchor="middle" style="font-size:12px;font-family:sans-serif;" y="6" transform="translate(1113.1111 938)" fill="#999999">2054</text>
<text dominant-baseline="central" text-anchor="middle" style="font-size:12px;font-family:sans-serif;" y="6" transform="translate(1148.2222 938)" fill="#999999">2133</text>
<text dominant-baseline="central" text-anchor="middle" style="font-size:12px;font-family:sans-serif;" y="6" transform="translate(1183.3333 938)" fill="#999999">2212</text>
<text dominant-baseline="central" text-anchor="middle" style="font-size:12px;font-family:sans-serif;" y="6" transform="translate(1218.4444 938)" fill="#999999">2291</text>
<text dominant-baseline="central" text-anchor="middle" style="font-size:12px;font-family:sans-serif;" y="6" transform="translate(1253.5556 938)" fill="#999999">2370</text>
<text dominant-baseline="central" text-anchor="middle" style="font-size:12px;font-family:sans-serif;" y="6" transform="translate(1288.6667 938)" fill="#999999">2449</text>
<text dominant-baseline="central" text-anchor="middle" style="font-size:12px;font-family:sans-serif;" y="6" transform="translate(1323.7778 938)" fill="#999999">2528</text>
<text dominant-baseline="central" text-anchor="middle" style="font-size:12px;font-family:sans-serif;" y="6" transform="translate(1358.8889 938)" fill="#999999">2607</text>
<text dominant-baseline="central" text-anchor="middle" style="font-size:12px;font-family:sans-serif;" y="6" transform="translate(1394 938)" fill="#999999">2686</text>
<text dominant-baseline="central" text-anchor="middle" style="font-size:12px;font-family:sans-serif;" y="6" transform="translate(1429.1111 938)" fill="#999999">2765</text>
<text dominant-baseline="central" text-anchor="middle" style="font-size:12px;font-family:sans-serif;" y="6" transform="translate(1464.2222 938)" fill="#999999">2844</text>
<text dominant-baseline="central" text-anchor="middle" style="font-size:12px;font-family:sans-serif;" y="6" transform="translate(1499.3333 938)" fill="#999999">2923</text>
<text dominant-baseline="central" text-anchor="middle" style="font-size:12px;font-family:sans-serif;" y="6" transform="translate(1534.4444 938)" fill="#999999">3002</text>
<text dominant-baseline="central" text-anchor="middle" style="font-size:12px;font-family:sans-serif;" y="6" transform="translate(1569.5556 938)" fill="#999999">3081</text>
<text dominant-baseline="central" text-anchor="middle" style="font-size:12px;font-family:sans-serif;" y="6" transform="translate(1604.6667 938)" fill="#999999">3160</text>
<text dominant-baseline="central" text-anchor="middle" style="font-size:12px;font-family:sans-serif;" y="6" transform="translate(1639.7778 938)" fill="#999999">3239</text>
<text dominant-baseline="central" text-anchor="middle" style="font-size:12px;font-family:sans-serif;" y="6" transform="translate(1674.8889 938)" fill="#999999">3318</text>
<text dominant-baseline="central" text-anchor="middle" style="font-size:12px;font-family:sans-serif;" y="6" transform="translate(1710 938)" fill="#999999">3397</text>
<text dominant-baseline="central" text-anchor="middle" style="font-size:12px;font-family:sans-serif;" y="6" transform="translate(1745.1111 938)" fill="#999999">3476</text>
<text dominant-baseline="central" text-anchor="middle" style="font-size:12px;font-family:sans-serif;" y="6" transform="translate(1780.2222 938)" fill="#999999">3555</text>
<g clip-path="url(#zr5-c0)">
<path d="M200.2 738.8L200.7 720.1L201.1 713.4L201.6 739.9L202 858L202.4 766.4L202.9 875.7L203.3 709L203.8 680.3L204.2 707.9L204.7 794L205.1 781.9L205.6 682.5L206 671.5L206.4 712.3L206.9 848.1L207.3 821.6L207.8 862.4L208.2 796.2L208.7 795.1L209.1 883.4L209.6 869.1L210 874.6L210.4 777.5L210.9 589.8L211.3 719L211.8 841.5L212.2 751L212.7 792.9L213.1 621.8L213.6 723.4L214 858L214.4 721.2L214.9 818.3L215.3 796.2L215.8 699.1L216.2 602L216.7 680.3L217.1 866.9L217.6 819.4L218 787.4L218.4 659.4L218.9 876.8L219.3 868L219.8 675.9L220.2 870.2L220.7 704.6L221.1 735.5L221.6 730L222 722.3L222.4 717.9L222.9 757.6L223.3 737.7L223.8 798.4L224.2 882.3L224.7 797.3L225.1 769.7L225.6 699.1L226 871.3L226.4 635.1L226.9 869.1L227.3 843.7L227.8 760.9L228.2 824.9L228.7 797.3L229.1 863.5L229.6 862.4L230 875.7L230.4 770.8L230.9 876.8L231.3 732.2L231.8 884.5L232.2 749.9L232.7 770.8L233.1 668.2L233.6 741L234 836L234.4 588.7L234.9 830.4L235.3 861.3L235.8 671.5L236.2 807.3L236.7 863.5L237.1 827.1L237.6 715.7L238 794L238.4 727.8L238.9 647.2L239.3 707.9L239.8 695.8L240.2 792.9L240.7 763.1L241.1 795.1L241.6 638.4L242 693.6L242.4 720.1L242.9 874.6L243.3 664.9L243.8 791.8L244.2 860.2L244.7 704.6L245.1 776.4L245.6 863.5L246 647.2L246.4 837.1L246.9 649.4L247.3 861.3L247.8 743.2L248.2 808.4L248.7 682.5L249.1 853.6L249.6 754.3L250 879L250.4 774.1L250.9 634L251.3 860.2L251.8 625.2L252.2 890L252.7 733.3L253.1 808.4L253.6 832.6L254 744.4L254.4 754.3L254.9 789.6L255.3 866.9L255.8 885.6L256.2 690.3L256.7 863.5L257.1 713.4L257.6 753.2L258 735.5L258.4 710.1L258.9 812.8L259.3 663.8L259.8 714.6L260.2 774.1L260.7 823.8L261.1 874.6L261.6 842.6L262 663.8L262.4 763.1L262.9 711.2L263.3 879L263.8 756.5L264.2 755.4L264.7 789.6L265.1 775.3L265.6 572.2L266 820.5L266.4 826L266.9 852.5L267.3 722.3L267.8 801.7L268.2 667.1L268.7 707.9L269.1 852.5L269.6 812.8L270 803.9L270.4 703.5L270.9 780.8L271.3 796.2L271.8 722.3L272.2 745.5L272.7 673.7L273.1 783L273.6 746.6L274 841.5L274.4 797.3L274.9 841.5L275.3 767.5L275.8 787.4L276.2 851.4L276.7 726.7L277.1 883.4L277.6 754.3L278 734.4L278.4 850.3L278.9 715.7L279.3 771.9L279.8 765.3L280.2 668.2L280.7 833.7L281.1 809.5L281.6 762L282 747.7L282.4 877.9L282.9 850.3L283.3 785.2L283.8 808.4L284.2 510.4L284.7 743.2L285.1 661.6L285.6 784.1L286 711.2L286.4 674.8L286.9 799.5L287.3 712.3L287.8 749.9L288.2 677L288.7 717.9L289.1 638.4L289.6 787.4L290 726.7L290.4 632.9L290.9 690.3L291.3 866.9L291.8 854.7L292.2 688.1L292.7 820.5L293.1 626.3L293.6 849.2L294 664.9L294.4 754.3L294.9 721.2L295.3 842.6L295.8 870.2L296.2 869.1L296.7 728.9L297.1 653.9L297.6 749.9L298 883.4L298.4 815L298.9 841.5L299.3 838.2L299.8 694.7L300.2 730L300.7 816.1L301.1 748.8L301.6 674.8L302 747.7L302.4 845.9L302.9 739.9L303.3 649.4L303.8 861.3L304.2 523.6L304.7 859.1L305.1 738.8L305.6 748.8L306 784.1L306.4 648.3L306.9 745.5L307.3 699.1L307.8 599.8L308.2 734.4L308.7 819.4L309.1 787.4L309.6 841.5L310 845.9L310.4 819.4L310.9 732.2L311.3 744.4L311.8 762L312.2 834.8L312.7 780.8L313.1 823.8L313.6 776.4L314 798.4L314.4 724.5L314.9 538L315.3 764.2L315.8 847L316.2 845.9L316.7 587.6L317.1 847L317.6 837.1L318 663.8L318.4 799.5L318.9 630.7L319.3 738.8L319.8 702.4L320.2 760.9L320.7 694.7L321.1 839.3L321.6 749.9L322 692.5L322.4 797.3L322.9 742.1L323.3 722.3L323.8 802.8L324.7 887.8L325.1 850.3L325.6 748.8L326 816.1L326.4 674.8L326.9 861.3L327.3 760.9L327.8 810.6L328.2 714.6L328.7 679.2L329.1 812.8L329.6 634L330 870.2L330.4 852.5L330.9 838.2L331.3 774.1L331.8 789.6L332.2 861.3L332.7 831.5L333.1 713.4L333.6 829.3L334 734.4L334.4 627.4L334.9 787.4L335.3 730L335.8 680.3L336.2 692.5L336.7 766.4L337.1 693.6L337.6 628.5L338 698L338.4 746.6L338.9 803.9L339.3 756.5L339.8 789.6L340.2 809.5L340.7 727.8L341.6 837.1L342 776.4L342.4 879L342.9 764.2L343.3 698L343.8 838.2L344.2 779.7L344.7 722.3L345.1 777.5L345.6 805L346 646.1L346.4 834.8L346.9 876.8L347.3 741L347.8 715.7L348.2 726.7L348.7 868L349.1 879L349.6 747.7L350 671.5L350.4 675.9L350.9 830.4L351.3 683.7L351.8 738.8L352.2 636.2L352.7 692.5L353.1 745.5L353.6 735.5L354 765.3L354.4 839.3L354.9 656.1L355.3 646.1L355.8 732.2L356.2 798.4L356.7 829.3L357.1 704.6L357.6 843.7L358 739.9L358.4 855.8L358.9 705.7L359.3 779.7L359.8 673.7L360.2 651.6L360.7 868L361.1 682.5L361.6 854.7L362 830.4L362.4 733.3L362.9 760.9L363.3 662.7L363.8 885.6L364.2 714.6L364.7 749.9L365.1 826L365.6 689.2L366 712.3L366.4 703.5L366.9 775.3L367.3 747.7L367.8 854.7L368.2 687L368.7 675.9L369.1 788.5L369.6 860.2L370 806.2L370.4 805L370.9 713.4L371.3 679.2L371.8 766.4L372.2 790.7L372.7 728.9L373.1 881.2L373.6 787.4L374 873.5L374.4 616.3L374.9 834.8L375.3 801.7L375.8 828.2L376.2 741L376.7 826L377.1 811.7L377.6 790.7L378 774.1L378.4 812.8L378.9 717.9L379.3 747.7L379.8 815L380.2 817.2L380.7 858L381.1 773L381.6 883.4L382 698L382.4 656.1L382.9 632.9L383.3 723.4L383.8 832.6L384.2 847L384.7 815L385.1 539.1L385.6 685.9L386 836L386.4 741L386.9 596.5L387.3 847L387.8 764.2L388.2 839.3L388.7 710.1L389.1 870.2L389.6 854.7L390 738.8L390.4 746.6L390.9 866.9L391.3 773L391.8 698L392.2 776.4L392.7 696.9L393.1 725.6L393.6 572.2L394 807.3L394.4 664.9L394.9 756.5L395.3 854.7L395.8 769.7L396.2 779.7L396.7 789.6L397.1 849.2L397.6 871.3L398 852.5L398.4 790.7L398.9 786.3L399.3 710.1L399.8 815L400.2 798.4L400.7 715.7L401.1 667.1L401.6 821.6L402 716.8L402.4 841.5L402.9 803.9L403.3 715.7L403.8 773L404.2 845.9L404.7 715.7L405.1 776.4L405.6 745.5L406 820.5L406.4 845.9L406.9 829.3L407.3 863.5L407.8 865.7L408.2 801.7L408.7 865.7L409.1 833.7L409.6 796.2L410 713.4L410.4 869.1L410.9 891.1L411.3 780.8L411.8 606.4L412.2 690.3L412.7 680.3L413.1 616.3L413.6 727.8L414 684.8L414.4 794L414.9 748.8L415.3 861.3L415.8 717.9L416.2 764.2L416.7 666L417.1 848.1L417.6 800.6L418 851.4L418.4 735.5L418.9 688.1L419.3 866.9L419.8 679.2L420.2 692.5L420.7 755.4L421.1 856.9L421.6 682.5L422 710.1L422.4 794L422.9 666L423.3 847L423.8 855.8L424.2 757.6L424.7 801.7L425.1 683.7L425.6 551.2L426 641.7L426.4 780.8L426.9 778.6L427.3 567.8L427.8 768.6L428.2 636.2L428.7 788.5L429.1 824.9L429.6 831.5L430 766.4L430.4 813.9L430.9 855.8L431.3 690.3L431.8 738.8L432.2 786.3L432.7 872.4L433.1 747.7L433.6 858L434 789.6L434.4 742.1L434.9 720.1L435.3 698L435.8 820.5L436.2 776.4L436.7 701.3L437.1 819.4L437.6 860.2L438 848.1L438.4 815L438.9 873.5L439.3 865.7L439.8 700.2L440.2 815L440.7 620.7L441.1 787.4L441.6 705.7L442 855.8L442.4 868L442.9 759.8L443.3 852.5L443.8 773L444.2 680.3L444.7 863.5L445.1 716.8L445.6 728.9L446 818.3L446.4 791.8L446.9 856.9L447.3 862.4L447.8 801.7L448.2 687L448.7 840.4L449.1 776.4L449.6 741L450 673.7L450.4 819.4L450.9 894.4L451.3 810.6L451.8 791.8L452.2 859.1L452.7 888.9L453.1 744.4L453.6 781.9L454 735.5L454.4 683.7L454.9 848.1L455.3 742.1L455.8 797.3L456.2 684.8L456.7 862.4L457.1 853.6L457.6 880.1L458 839.3L458.4 774.1L458.9 659.4L459.3 728.9L459.8 771.9L460.2 833.7L460.7 616.3L461.1 666L461.6 647.2L462 775.3L462.4 877.9L462.9 836L463.3 770.8L463.8 865.7L464.2 781.9L464.7 849.2L465.1 751L465.6 752.1L466 681.4L466.4 606.4L466.9 647.2L467.3 653.9L467.8 855.8L468.2 840.4L468.7 876.8L469.1 724.5L469.6 701.3L470 845.9L470.4 756.5L471.3 886.7L471.8 827.1L472.2 735.5L472.7 747.7L473.1 840.4L473.6 879L474 833.7L474.4 796.2L474.9 717.9L475.3 693.6L475.8 784.1L476.2 690.3L476.7 757.6L477.1 682.5L477.6 722.3L478 866.9L478.4 741L478.9 627.4L479.3 727.8L479.8 627.4L480.2 709L480.7 379.1L481.1 839.3L481.6 599.8L482 809.5L482.4 806.2L482.9 773L483.3 874.6L483.8 808.4L484.2 715.7L484.7 823.8L485.1 717.9L485.6 876.8L486 838.2L486.4 853.6L486.9 883.4L487.3 791.8L487.8 669.3L488.2 744.4L488.7 789.6L489.1 854.7L489.6 755.4L490 748.8L490.4 873.5L490.9 823.8L491.3 748.8L491.8 824.9L492.2 642.8L492.7 824.9L493.1 781.9L493.6 741L494 826L494.4 806.2L494.9 790.7L495.3 756.5L495.8 798.4L496.2 689.2L496.7 801.7L497.1 760.9L497.6 806.2L498 638.4L498.4 578.8L498.9 862.4L499.3 687L499.8 797.3L500.2 791.8L500.7 703.5L501.1 860.2L501.6 826L502 823.8L502.4 863.5L502.9 723.4L503.3 776.4L503.8 842.6L504.2 845.9L504.7 699.1L505.1 723.4L505.6 827.1L506 701.3L506.4 791.8L506.9 766.4L507.3 824.9L507.8 864.6L508.2 728.9L508.7 742.1L509.1 854.7L509.6 554.5L510 710.1L510.4 751L510.9 836L511.3 765.3L511.8 851.4L512.2 762L512.7 677L513.1 848.1L513.6 744.4L514 851.4L514.4 744.4L514.9 788.5L515.3 864.6L515.8 842.6L516.2 704.6L516.7 762L517.1 856.9L517.6 840.4L518 879L518.4 673.7L518.9 826L519.3 789.6L519.8 771.9L520.2 880.1L520.7 791.8L521.1 805L521.6 683.7L522 712.3L522.4 873.5L522.9 863.5L523.3 720.1L523.8 822.7L524.2 712.3L524.7 663.8L525.1 811.7L525.6 830.4L526 822.7L526.4 874.6L526.9 520.3L527.3 887.8L527.8 791.8L528.2 861.3L528.7 786.3L529.1 754.3L529.6 852.5L530 661.6L530.4 730L530.9 745.5L531.3 753.2L531.8 821.6L532.2 756.5L532.7 790.7L533.1 653.9L533.6 784.1L534 794L534.4 871.3L534.9 713.4L535.3 712.3L535.8 823.8L536.2 789.6L536.7 760.9L537.1 873.5L537.6 850.3L538 886.7L538.4 843.7L538.9 620.7L539.3 775.3L539.8 615.2L540.2 838.2L540.7 815L541.1 745.5L541.6 844.8L542 882.3L542.4 819.4L542.9 658.3L543.3 756.5L543.8 868L544.2 723.4L544.7 792.9L545.1 831.5L545.6 770.8L546 843.7L546.4 820.5L546.9 872.4L547.3 744.4L547.8 689.2L548.2 760.9L548.7 856.9L549.1 587.6L549.6 758.7L550 720.1L550.4 709L550.9 873.5L551.3 685.9L551.8 755.4L552.2 674.8L552.7 689.2L553.1 725.6L553.6 849.2L554 827.1L554.4 845.9L554.9 717.9L555.3 809.5L555.8 768.6L556.2 695.8L556.7 726.7L557.1 827.1L557.6 706.8L558 811.7L558.4 743.2L558.9 716.8L559.3 646.1L559.8 854.7L560.2 749.9L560.7 602L561.1 741L561.6 791.8L562 812.8L562.4 722.3L562.9 834.8L563.3 755.4L563.8 847L564.2 715.7L564.7 815L565.1 714.6L565.6 853.6L566 702.4L566.4 757.6L566.9 897.8L567.3 858L567.8 773L568.2 880.1L568.7 763.1L569.1 870.2L569.6 704.6L570 755.4L570.4 787.4L570.9 774.1L571.3 789.6L571.8 625.2L572.2 865.7L572.7 828.2L573.1 830.4L573.6 861.3L574 773L574.4 800.6L574.9 743.2L575.3 741L575.8 845.9L576.2 682.5L576.7 546.8L577.1 845.9L577.6 855.8L578 720.1L578.4 741L578.9 770.8L579.3 826L579.8 811.7L580.2 848.1L580.7 657.2L581.1 853.6L581.6 859.1L582 888.9L582.4 773L582.9 614.1L583.3 802.8L583.8 701.3L584.2 866.9L584.7 797.3L585.1 828.2L585.6 618.5L586 593.2L586.4 863.5L586.9 693.6L587.3 789.6L587.8 817.2L588.2 669.3L588.7 690.3L589.1 874.6L589.6 803.9L590 698L590.4 744.4L590.9 852.5L591.3 818.3L591.8 710.1L592.2 684.8L592.7 746.6L593.1 798.4L593.6 881.2L594 798.4L594.4 695.8L594.9 696.9L595.3 646.1L595.8 769.7L596.2 852.5L596.7 634L597.1 815L597.6 730L598 823.8L598.4 874.6L598.9 842.6L599.3 850.3L599.8 777.5L600.2 869.1L600.7 803.9L601.1 813.9L601.6 753.2L602 786.3L602.4 823.8L602.9 869.1L603.3 687L603.8 847L604.2 865.7L604.7 677L605.1 751L605.6 852.5L606 641.7L606.4 865.7L606.9 787.4L607.3 707.9L607.8 876.8L608.2 860.2L608.7 664.9L609.1 873.5L609.6 863.5L610 780.8L610.4 837.1L610.9 861.3L611.3 758.7L611.8 844.8L612.2 863.5L612.7 764.2L613.1 794L613.6 831.5L614 883.4L614.4 827.1L615.3 733.3L615.8 877.9L616.2 832.6L616.7 743.2L617.1 859.1L617.6 733.3L618 760.9L618.4 866.9L618.9 864.6L619.3 737.7L619.8 810.6L620.2 879L620.7 630.7L621.1 684.8L621.6 762L622 707.9L622.4 662.7L622.9 747.7L623.3 748.8L623.8 845.9L624.2 830.4L624.7 873.5L625.1 839.3L625.6 588.7L626 732.2L626.4 754.3L626.9 860.2L627.3 733.3L627.8 861.3L628.2 844.8L628.7 843.7L629.1 743.2L629.6 717.9L630 851.4L630.4 738.8L630.9 741L631.3 813.9L631.8 673.7L632.2 879L632.7 815L633.1 820.5L633.6 475.1L634 891.1L634.4 876.8L634.9 725.6L635.3 831.5L635.8 828.2L636.2 773L636.7 834.8L637.1 810.6L637.6 692.5L638 655L638.4 843.7L638.9 754.3L639.3 800.6L639.8 854.7L640.2 636.2L640.7 743.2L641.1 805L641.6 607.5L642 719L642.4 872.4L642.9 693.6L643.3 763.1L643.8 798.4L644.2 851.4L644.7 726.7L645.1 862.4L645.6 632.9L646 525.8L646.4 734.4L646.9 819.4L647.3 732.2L647.8 768.6L648.2 690.3L648.7 863.5L649.1 851.4L649.6 777.5L650 749.9L650.4 854.7L650.9 862.4L651.3 839.3L651.8 850.3L652.2 798.4L652.7 783L653.1 728.9L653.6 682.5L654 730L654.4 801.7L654.9 757.6L655.3 760.9L655.8 807.3L656.2 626.3L656.7 617.4L657.1 715.7L657.6 823.8L658 765.3L658.4 779.7L658.9 901.1L659.3 586.5L659.8 823.8L660.2 572.2L660.7 683.7L661.1 728.9L661.6 702.4L662 594.3L662.4 660.5L662.9 774.1L663.3 631.8L663.8 803.9L664.2 735.5L664.7 780.8L665.1 745.5L665.6 623L666 712.3L666.4 615.2L666.9 726.7L667.3 707.9L667.8 733.3L668.2 852.5L668.7 788.5L669.1 731.1L669.6 706.8L670 744.4L670.4 877.9L670.9 693.6L671.3 735.5L671.8 799.5L672.2 712.3L672.7 549L673.1 725.6L673.6 645L674 748.8L674.4 719L674.9 677L675.3 766.4L675.8 751L676.2 830.4L676.7 699.1L677.1 626.3L677.6 769.7L678 796.2L678.4 605.3L678.9 713.4L679.3 873.5L679.8 610.8L680.2 563.4L680.7 765.3L681.1 701.3L681.6 860.2L682 863.5L682.4 744.4L682.9 694.7L683.3 754.3L683.8 882.3L684.2 837.1L684.7 725.6L685.1 832.6L685.6 820.5L686 796.2L686.4 731.1L686.9 851.4L687.3 768.6L687.8 695.8L688.2 742.1L688.7 774.1L689.1 821.6L689.6 758.7L690 872.4L690.4 589.8L690.9 863.5L691.3 710.1L691.8 730L692.2 840.4L692.7 866.9L693.1 843.7L693.6 806.2L694 573.3L694.4 774.1L694.9 699.1L695.3 741L695.8 853.6L696.2 780.8L696.7 733.3L697.1 659.4L697.6 701.3L698 737.7L698.4 852.5L698.9 707.9L699.3 674.8L699.8 646.1L700.2 842.6L700.7 570L701.1 694.7L701.6 813.9L702 848.1L702.4 836L702.9 862.4L703.3 689.2L703.8 845.9L704.2 547.9L704.7 678.1L705.1 858L705.6 833.7L706 733.3L706.4 739.9L706.9 836L707.3 641.7L707.8 837.1L708.2 673.7L708.7 847L709.1 682.5L709.6 774.1L710 852.5L710.4 664.9L710.9 824.9L711.3 742.1L711.8 829.3L712.2 744.4L712.7 738.8L713.1 840.4L713.6 754.3L714 657.2L714.4 795.1L714.9 742.1L715.3 801.7L715.8 638.4L716.2 677L716.7 738.8L717.1 756.5L717.6 745.5L718 820.5L718.4 723.4L718.9 714.6L719.3 546.8L719.8 903.3L720.2 600.9L720.7 873.5L721.1 689.2L721.6 734.4L722 623L722.4 808.4L722.9 747.7L723.3 864.6L723.8 558.9L724.2 845.9L724.7 826L725.1 553.4L725.6 776.4L726 713.4L726.4 714.6L726.9 562.3L727.3 748.8L727.8 875.7L728.2 785.2L728.7 861.3L729.1 859.1L729.6 791.8L730 770.8L730.4 738.8L730.9 851.4L731.3 766.4L731.8 852.5L732.2 722.3L732.7 823.8L733.1 808.4L733.6 781.9L734 678.1L734.4 836L734.9 685.9L735.3 829.3L735.8 794L736.2 692.5L737.1 659.4L737.6 610.8L738 748.8L738.4 881.2L738.9 734.4L739.3 864.6L739.8 913.2L740.2 734.4L740.7 871.3L741.1 844.8L741.6 838.2L742 721.2L742.4 573.3L742.9 815L743.3 856.9L743.8 683.7L744.2 895.5L744.7 671.5L745.1 808.4L745.6 854.7L746 812.8L746.4 845.9L746.9 865.7L747.3 841.5L747.8 880.1L748.2 767.5L748.7 885.6L749.1 785.2L749.6 691.4L750 555.6L750.4 810.6L750.9 713.4L751.3 567.8L751.8 669.3L752.2 631.8L752.7 646.1L753.1 807.3L753.6 551.2L754 745.5L754.4 770.8L754.9 875.7L755.3 705.7L755.8 852.5L756.2 866.9L756.7 870.2L757.1 770.8L757.6 864.6L758 848.1L758.4 770.8L758.9 796.2L759.3 738.8L759.8 733.3L760.2 848.1L760.7 722.3L761.1 603.1L761.6 660.5L762 746.6L762.4 632.9L762.9 827.1L763.3 709L763.8 898.9L764.2 719L764.7 833.7L765.1 840.4L765.6 827.1L766 741L766.4 800.6L766.9 820.5L767.3 849.2L767.8 685.9L768.2 800.6L768.7 844.8L769.1 859.1L769.6 694.7L770 811.7L770.4 690.3L770.9 855.8L771.3 721.2L771.8 679.2L772.2 794L772.7 751L773.1 699.1L773.6 842.6L774 861.3L774.4 886.7L774.9 731.1L775.3 638.4L775.8 816.1L776.2 890L776.7 834.8L777.1 808.4L777.6 810.6L778 844.8L778.4 847L778.9 681.4L779.3 844.8L779.8 614.1L780.2 705.7L780.7 619.6L781.1 720.1L781.6 743.2L782 824.9L782.4 882.3L782.9 864.6L783.3 739.9L783.8 744.4L784.2 592.1L784.7 858L785.1 759.8L785.6 689.2L786 738.8L786.4 894.4L786.9 510.4L787.3 803.9L787.8 760.9L788.2 657.2L788.7 593.2L789.1 858L789.6 717.9L790 687L790.4 778.6L790.9 860.2L791.3 864.6L791.8 850.3L792.2 763.1L792.7 737.7L793.1 727.8L793.6 803.9L794 765.3L794.4 746.6L794.9 779.7L795.3 692.5L795.8 858L796.2 777.5L796.7 573.3L797.1 791.8L797.6 714.6L798 872.4L798.4 587.6L798.9 796.2L799.3 736.6L799.8 829.3L800.2 845.9L800.7 709L801.1 679.2L801.6 861.3L802 705.7L802.4 720.1L802.9 868L803.3 736.6L803.8 577.7L804.2 854.7L804.7 815L805.6 872.4L806 651.6L806.4 739.9L806.9 798.4L807.3 802.8L807.8 645L808.2 739.9L808.7 787.4L809.1 880.1L809.6 735.5L810 640.6L810.4 743.2L810.9 830.4L811.3 743.2L811.8 667.1L812.2 762L812.7 549L813.1 645L813.6 743.2L814 776.4L814.4 789.6L814.9 670.4L815.3 806.2L815.8 816.1L816.2 849.2L816.7 707.9L817.1 730L817.6 845.9L818 727.8L818.4 879L818.9 849.2L819.3 838.2L819.8 796.2L820.2 849.2L820.7 657.2L821.1 881.2L821.6 874.6L822 838.2L822.4 879L822.9 760.9L823.3 834.8L823.8 848.1L824.2 869.1L824.7 853.6L825.1 637.3L825.6 765.3L826 658.3L826.4 659.4L826.9 645L827.3 552.3L827.8 815L828.2 788.5L828.7 661.6L829.1 743.2L829.6 753.2L830 871.3L830.4 738.8L830.9 734.4L831.3 721.2L831.8 879L832.2 790.7L832.7 662.7L833.1 805L833.6 766.4L834 876.8L834.4 706.8L834.9 873.5L835.3 869.1L835.8 795.1L836.2 842.6L836.7 742.1L837.1 707.9L837.6 702.4L838 770.8L838.4 805L838.9 727.8L839.3 801.7L839.8 808.4L840.2 799.5L840.7 695.8L841.1 844.8L841.6 741L842 671.5L842.4 783L842.9 796.2L843.3 789.6L843.8 677L844.2 839.3L844.7 870.2L845.1 859.1L845.6 854.7L846 801.7L846.4 752.1L846.9 719L847.3 701.3L847.8 643.9L848.2 860.2L848.7 870.2L849.1 840.4L849.6 832.6L850 759.8L850.4 741L850.9 863.5L851.3 645L851.8 755.4L852.2 838.2L852.7 786.3L853.1 809.5L853.6 751L854 858L854.4 680.3L854.9 727.8L855.3 799.5L855.8 781.9L856.2 865.7L856.7 773L857.1 863.5L857.6 560L858 735.5L858.4 726.7L858.9 760.9L859.3 722.3L859.8 733.3L860.2 703.5L860.7 735.5L861.1 779.7L861.6 629.6L862 810.6L862.4 817.2L862.9 848.1L863.3 735.5L863.8 758.7L864.2 778.6L864.7 640.6L865.1 759.8L865.6 845.9L866 634L866.4 769.7L866.9 770.8L867.3 582.1L867.8 506L868.2 742.1L868.7 842.6L869.1 818.3L869.6 795.1L870 855.8L870.4 737.7L870.9 752.1L871.3 434.2L871.8 715.7L872.2 850.3L872.7 565.6L873.1 757.6L873.6 736.6L874 545.7L874.4 832.6L874.9 671.5L875.3 816.1L875.8 739.9L876.2 812.8L876.7 733.3L877.1 841.5L877.6 820.5L878 674.8L878.4 717.9L878.9 620.7L879.3 568.9L879.8 713.4L880.2 763.1L880.7 635.1L881.1 749.9L881.6 730L882 596.5L882.4 728.9L882.9 590.9L883.3 648.3L883.8 821.6L884.2 631.8L884.7 819.4L885.1 892.2L885.6 866.9L886 874.6L886.4 753.2L886.9 588.7L887.3 806.2L887.8 865.7L888.2 847L888.7 827.1L889.1 836L889.6 813.9L890 866.9L890.4 763.1L890.9 797.3L891.3 703.5L891.8 725.6L892.2 881.2L892.7 803.9L893.1 583.2L893.6 868L894 717.9L894.4 645L894.9 777.5L895.3 837.1L895.8 813.9L896.2 756.5L896.7 788.5L897.1 838.2L897.6 735.5L898 794L898.4 751L898.9 839.3L899.3 873.5L899.8 698L900.2 829.3L900.7 775.3L901.1 869.1L901.6 775.3L902 864.6L902.4 871.3L902.9 694.7L903.3 675.9L903.8 822.7L904.2 589.8L904.7 693.6L905.1 668.2L905.6 762L906 907.7L906.4 744.4L906.9 596.5L907.3 839.3L907.8 806.2L908.2 844.8L908.7 779.7L909.1 643.9L909.6 813.9L910 820.5L910.4 768.6L910.9 850.3L911.3 707.9L911.8 564.5L912.2 762L912.7 755.4L913.1 796.2L913.6 769.7L914 779.7L914.4 741L914.9 672.6L915.3 859.1L915.8 774.1L916.2 893.3L916.7 813.9L917.1 753.2L917.6 787.4L918 875.7L918.4 805L918.9 715.7L919.3 680.3L919.8 850.3L920.2 696.9L920.7 682.5L921.1 821.6L921.6 803.9L922 822.7L922.4 685.9L922.9 776.4L923.3 873.5L923.8 887.8L924.2 836L924.7 743.2L925.1 858L925.6 758.7L926 831.5L926.4 745.5L926.9 651.6L927.3 826L927.8 670.4L928.2 834.8L928.7 798.4L929.1 759.8L929.6 647.2L930 709L930.4 853.6L930.9 570L931.3 831.5L931.8 753.2L932.2 703.5L932.7 860.2L933.1 805L933.6 876.8L934 784.1L934.4 884.5L934.9 865.7L935.3 822.7L935.8 733.3L936.2 834.8L936.7 856.9L937.1 851.4L937.6 754.3L938 768.6L938.4 891.1L938.9 864.6L939.3 646.1L939.8 719L940.2 624.1L940.7 695.8L941.1 610.8L941.6 774.1L942 791.8L942.4 802.8L942.9 884.5L943.3 625.2L943.8 710.1L944.2 536.9L944.7 707.9L945.1 731.1L945.6 888.9L946 801.7L946.4 822.7L946.9 855.8L947.3 799.5L947.8 836L948.2 526.9L948.7 849.2L949.1 779.7L949.6 798.4L950 626.3L950.4 866.9L950.9 823.8L951.3 713.4L951.8 728.9L952.2 836L952.7 819.4L953.1 711.2L953.6 716.8L954 655L954.4 859.1L954.9 877.9L955.3 823.8L955.8 678.1L956.2 705.7L956.7 841.5L957.1 700.2L957.6 812.8L958 830.4L958.4 837.1L958.9 845.9L959.3 904.4L959.8 806.2L960.2 726.7L960.7 666L961.1 741L961.6 775.3L962 879L962.4 658.3L962.9 790.7L963.3 829.3L963.8 757.6L964.2 711.2L964.7 808.4L965.1 836L965.6 607.5L966 888.9L966.4 808.4L966.9 858L967.3 836L967.8 709L968.2 842.6L968.7 792.9L969.1 876.8L969.6 821.6L970 754.3L970.4 722.3L970.9 607.5L971.3 862.4L971.8 845.9L972.2 816.1L972.7 696.9L973.1 811.7L973.6 680.3L974 713.4L974.4 865.7L974.9 745.5L975.3 726.7L975.8 655L976.2 786.3L976.7 819.4L977.1 767.5L977.6 852.5L978 853.6L978.4 785.2L978.9 670.4L979.3 876.8L979.8 842.6L980.2 783L980.7 765.3L981.1 749.9L981.6 684.8L982 775.3L982.4 714.6L982.9 870.2L983.3 588.7L983.8 715.7L984.2 768.6L984.7 739.9L985.1 677L985.6 603.1L986 682.5L986.4 781.9L986.9 785.2L987.3 732.2L987.8 828.2L988.2 775.3L988.7 774.1L989.1 703.5L989.6 701.3L990 781.9L990.4 724.5L990.9 713.4L991.3 823.8L991.8 785.2L992.2 829.3L992.7 769.7L993.1 671.5L993.6 692.5L994 642.8L994.4 887.8L994.9 859.1L995.3 758.7L995.8 827.1L996.2 641.7L996.7 748.8L997.1 742.1L997.6 741L998 844.8L998.4 649.4L998.9 769.7L999.3 626.3L999.8 716.8L1000.2 860.2L1000.7 904.4L1001.1 666L1001.6 787.4L1002 828.2L1002.4 695.8L1002.9 744.4L1003.3 756.5L1003.8 829.3L1004.2 834.8L1004.7 724.5L1005.1 700.2L1005.6 849.2L1006 829.3L1006.4 856.9L1006.9 720.1L1007.3 692.5L1007.8 705.7L1008.2 868L1008.7 844.8L1009.1 860.2L1009.6 853.6L1010 744.4L1010.4 596.5L1010.9 688.1L1011.3 785.2L1011.8 861.3L1012.2 685.9L1012.7 839.3L1013.1 765.3L1013.6 753.2L1014 853.6L1014.4 813.9L1014.9 774.1L1015.3 682.5L1015.8 766.4L1016.2 584.3L1016.7 821.6L1017.1 707.9L1017.6 809.5L1018 763.1L1018.4 671.5L1018.9 550.1L1019.3 731.1L1019.8 715.7L1020.2 819.4L1020.7 615.2L1021.1 767.5L1021.6 831.5L1022 834.8L1022.4 855.8L1022.9 837.1L1023.3 778.6L1023.8 855.8L1024.2 754.3L1024.7 671.5L1025.1 701.3L1025.6 759.8L1026 730L1026.4 722.3L1026.9 799.5L1027.3 816.1L1027.8 842.6L1028.2 695.8L1028.7 755.4L1029.1 764.2L1029.6 734.4L1030 738.8L1030.4 668.2L1030.9 715.7L1031.3 833.7L1031.8 866.9L1032.2 685.9L1032.7 831.5L1033.1 767.5L1033.6 864.6L1034 742.1L1034.4 838.2L1034.9 822.7L1035.3 827.1L1035.8 734.4L1036.2 831.5L1036.7 842.6L1037.1 860.2L1037.6 710.1L1038 858L1038.4 501.6L1038.9 756.5L1039.3 872.4L1039.8 732.2L1040.2 896.7L1040.7 887.8L1041.1 698L1041.6 813.9L1042 779.7L1042.4 897.8L1042.9 798.4L1043.3 827.1L1043.8 842.6L1044.2 734.4L1044.7 870.2L1045.1 716.8L1046 747.7L1046.4 864.6L1046.9 780.8L1047.3 777.5L1047.8 584.3L1048.2 767.5L1048.7 853.6L1049.1 751L1049.6 808.4L1050 735.5L1050.4 828.2L1050.9 882.3L1051.3 783L1051.8 897.8L1052.2 657.2L1052.7 847L1053.1 766.4L1053.6 853.6L1054 720.1L1054.4 860.2L1054.9 712.3L1055.3 839.3L1055.8 728.9L1056.2 816.1L1056.7 873.5L1057.1 702.4L1057.6 775.3L1058 535.8L1058.4 849.2L1058.9 716.8L1059.3 685.9L1059.8 863.5L1060.2 682.5L1060.7 651.6L1061.1 747.7L1061.6 839.3L1062 859.1L1062.4 885.6L1062.9 536.9L1063.3 683.7L1063.8 721.2L1064.2 632.9L1064.7 811.7L1065.1 691.4L1065.6 823.8L1066 854.7L1066.4 756.5L1066.9 682.5L1067.3 753.2L1067.8 752.1L1068.2 715.7L1068.7 855.8L1069.1 660.5L1069.6 838.2L1070 678.1L1070.4 813.9L1070.9 850.3L1071.3 853.6L1071.8 736.6L1072.2 871.3L1072.7 783L1073.1 844.8L1073.6 839.3L1074 780.8L1074.4 751L1074.9 863.5L1075.3 843.7L1075.8 703.5L1076.2 847L1076.7 833.7L1077.1 719L1077.6 621.8L1078 864.6L1078.4 821.6L1078.9 861.3L1079.3 749.9L1079.8 725.6L1080.2 869.1L1080.7 892.2L1081.1 692.5L1081.6 680.3L1082 734.4L1082.4 823.8L1082.9 722.3L1083.3 866.9L1083.8 699.1L1084.2 871.3L1084.7 841.5L1085.1 873.5L1085.6 850.3L1086 673.7L1086.4 727.8L1086.9 768.6L1087.3 845.9L1087.8 713.4L1088.2 755.4L1088.7 724.5L1089.1 785.2L1089.6 647.2L1090 822.7L1090.4 843.7L1090.9 852.5L1091.3 860.2L1091.8 661.6L1092.2 720.1L1092.7 829.3L1093.1 856.9L1093.6 823.8L1094 833.7L1094.4 810.6L1094.9 858L1095.3 907.7L1095.8 850.3L1096.2 742.1L1096.7 779.7L1097.1 629.6L1097.6 706.8L1098 787.4L1098.4 751L1098.9 552.3L1099.3 849.2L1099.8 783L1100.2 640.6L1100.7 777.5L1101.1 853.6L1101.6 711.2L1102 743.2L1102.4 722.3L1102.9 794L1103.3 765.3L1103.8 836L1104.2 728.9L1104.7 836L1105.1 845.9L1105.6 827.1L1106 743.2L1106.4 834.8L1106.9 759.8L1107.3 815L1107.8 739.9L1108.2 706.8L1108.7 673.7L1109.1 600.9L1109.6 849.2L1110 845.9L1110.4 861.3L1110.9 823.8L1111.3 768.6L1111.8 672.6L1112.2 765.3L1112.7 837.1L1113.1 840.4L1113.6 834.8L1114 692.5L1114.4 689.2L1114.9 840.4L1115.3 873.5L1115.8 749.9L1116.2 747.7L1116.7 826L1117.1 758.7L1117.6 741L1118 699.1L1118.4 841.5L1118.9 609.7L1119.3 673.7L1119.8 766.4L1120.7 647.2L1121.1 873.5L1121.6 678.1L1122 641.7L1122.4 800.6L1122.9 673.7L1123.3 630.7L1123.8 795.1L1124.2 770.8L1124.7 739.9L1125.1 802.8L1125.6 711.2L1126 821.6L1126.4 752.1L1126.9 754.3L1127.3 850.3L1127.8 870.2L1128.2 727.8L1128.7 687L1129.1 735.5L1129.6 838.2L1130 819.4L1130.4 852.5L1130.9 836L1131.3 823.8L1131.8 778.6L1132.2 843.7L1132.7 623L1133.1 833.7L1133.6 609.7L1134 705.7L1134.4 737.7L1134.9 625.2L1135.3 826L1135.8 817.2L1136.2 840.4L1136.7 845.9L1137.1 797.3L1137.6 661.6L1138 852.5L1138.4 848.1L1138.9 808.4L1139.3 881.2L1139.8 821.6L1140.2 840.4L1140.7 555.6L1141.1 828.2L1141.6 742.1L1142 795.1L1142.4 762L1142.9 833.7L1143.3 807.3L1143.8 742.1L1144.2 649.4L1144.7 681.4L1145.1 834.8L1145.6 720.1L1146 908.8L1146.4 763.1L1146.9 725.6L1147.3 671.5L1147.8 798.4L1148.2 746.6L1148.7 834.8L1149.1 815L1149.6 734.4L1150 698L1150.4 616.3L1150.9 733.3L1151.3 706.8L1151.8 764.2L1152.2 738.8L1152.7 856.9L1153.1 865.7L1153.6 647.2L1154 844.8L1154.4 821.6L1154.9 862.4L1155.3 749.9L1155.8 779.7L1156.2 787.4L1156.7 731.1L1157.1 706.8L1157.6 817.2L1158 751L1158.4 531.4L1158.9 803.9L1159.3 858L1159.8 866.9L1160.2 748.8L1160.7 775.3L1161.1 881.2L1161.6 798.4L1162 775.3L1162.4 848.1L1162.9 698L1163.3 869.1L1163.8 647.2L1164.2 849.2L1164.7 885.6L1165.1 863.5L1165.6 649.4L1166 842.6L1166.4 863.5L1166.9 866.9L1167.3 668.2L1167.8 751L1168.2 774.1L1168.7 799.5L1169.1 634L1169.6 837.1L1170 736.6L1170.4 652.8L1170.9 837.1L1171.3 797.3L1171.8 692.5L1172.2 619.6L1172.7 818.3L1173.1 749.9L1173.6 881.2L1174 886.7L1174.4 602L1174.9 838.2L1175.3 648.3L1175.8 838.2L1176.2 806.2L1176.7 743.2L1177.1 752.1L1177.6 866.9L1178 817.2L1178.4 662.7L1178.9 724.5L1179.3 869.1L1179.8 871.3L1180.2 745.5L1180.7 803.9L1181.1 574.4L1181.6 712.3L1182 648.3L1182.4 822.7L1182.9 776.4L1183.3 643.9L1183.8 783L1184.2 797.3L1184.7 855.8L1185.1 819.4L1185.6 886.7L1186 813.9L1186.4 719L1186.9 858L1187.3 681.4L1187.8 874.6L1188.2 831.5L1188.7 844.8L1189.1 831.5L1189.6 712.3L1190 688.1L1190.4 518.1L1190.9 732.2L1191.3 710.1L1191.8 779.7L1192.2 799.5L1192.7 787.4L1193.1 699.1L1193.6 795.1L1194 824.9L1194.4 739.9L1194.9 811.7L1195.3 751L1195.8 837.1L1196.2 817.2L1196.7 842.6L1197.1 853.6L1197.6 731.1L1198 817.2L1198.4 581L1198.9 881.2L1199.3 800.6L1199.8 611.9L1200.2 774.1L1200.7 771.9L1201.1 683.7L1201.6 730L1202 696.9L1202.4 852.5L1202.9 783L1203.3 728.9L1203.8 746.6L1204.2 872.4L1204.7 707.9L1205.1 821.6L1205.6 828.2L1206 816.1L1206.4 803.9L1206.9 843.7L1207.3 641.7L1207.8 648.3L1208.2 651.6L1208.7 892.2L1209.1 830.4L1209.6 759.8L1210.4 748.8L1210.9 702.4L1211.3 704.6L1211.8 843.7L1212.2 803.9L1212.7 855.8L1213.1 823.8L1213.6 852.5L1214 693.6L1214.4 785.2L1214.9 893.3L1215.3 785.2L1215.8 693.6L1216.2 868L1216.7 749.9L1217.1 849.2L1217.6 854.7L1218 827.1L1218.4 716.8L1218.9 786.3L1219.3 813.9L1219.8 847L1220.2 700.2L1220.7 696.9L1221.1 660.5L1221.6 757.6L1222 602L1222.4 808.4L1222.9 725.6L1223.3 812.8L1223.8 872.4L1224.2 752.1L1224.7 811.7L1225.1 645L1225.6 801.7L1226 717.9L1226.4 843.7L1226.9 876.8L1227.3 789.6L1227.8 680.3L1228.2 623L1228.7 836L1229.1 706.8L1229.6 640.6L1230 832.6L1230.4 712.3L1230.9 786.3L1231.3 712.3L1231.8 723.4L1232.2 770.8L1232.7 764.2L1233.1 763.1L1233.6 712.3L1234 671.5L1234.4 657.2L1234.9 812.8L1235.3 884.5L1235.8 822.7L1236.2 653.9L1236.7 839.3L1237.1 871.3L1237.6 778.6L1238 882.3L1238.4 649.4L1238.9 690.3L1239.3 716.8L1239.8 839.3L1240.2 617.4L1240.7 734.4L1241.1 720.1L1241.6 810.6L1242 713.4L1242.4 582.1L1242.9 868L1243.3 798.4L1243.8 868L1244.2 747.7L1244.7 832.6L1245.1 713.4L1245.6 848.1L1246 783L1246.4 635.1L1246.9 677L1247.3 832.6L1247.8 649.4L1248.2 864.6L1248.7 721.2L1249.1 866.9L1249.6 790.7L1250 765.3L1250.4 759.8L1250.9 755.4L1251.3 744.4L1251.8 841.5L1252.2 756.5L1252.7 672.6L1253.1 739.9L1253.6 690.3L1254 588.7L1254.4 618.5L1254.9 695.8L1255.3 741L1255.8 666L1256.2 864.6L1256.7 778.6L1257.1 851.4L1257.6 728.9L1258 725.6L1258.4 770.8L1258.9 819.4L1259.3 526.9L1259.8 802.8L1260.2 754.3L1260.7 667.1L1261.1 859.1L1261.6 847L1262 803.9L1262.4 636.2L1262.9 837.1L1263.3 843.7L1263.8 822.7L1264.2 666L1264.7 755.4L1265.1 828.2L1265.6 773L1266 741L1266.4 694.7L1266.9 830.4L1267.3 704.6L1267.8 833.7L1268.2 664.9L1268.7 760.9L1269.1 774.1L1269.6 853.6L1270 763.1L1270.4 678.1L1270.9 768.6L1271.3 595.4L1271.8 777.5L1272.2 802.8L1272.7 731.1L1273.1 869.1L1273.6 762L1274 850.3L1274.4 719L1274.9 630.7L1275.3 712.3L1275.8 734.4L1276.2 775.3L1276.7 752.1L1277.1 625.2L1277.6 869.1L1278 595.4L1278.4 859.1L1278.9 671.5L1279.3 700.2L1279.8 812.8L1280.2 824.9L1280.7 838.2L1281.1 784.1L1281.6 815L1282 841.5L1282.4 739.9L1282.9 672.6L1283.3 866.9L1283.8 827.1L1284.2 682.5L1284.7 736.6L1285.1 745.5L1285.6 776.4L1286 849.2L1286.4 656.1L1286.9 776.4L1287.3 726.7L1287.8 803.9L1288.2 625.2L1288.7 823.8L1289.1 807.3L1289.6 614.1L1290 744.4L1290.4 787.4L1290.9 693.6L1291.3 698L1291.8 882.3L1292.2 850.3L1292.7 870.2L1293.1 844.8L1293.6 807.3L1294 788.5L1294.4 602L1294.9 791.8L1295.3 730L1295.8 859.1L1296.2 743.2L1296.7 847L1297.1 649.4L1297.6 872.4L1298 735.5L1298.4 668.2L1298.9 773L1299.3 678.1L1299.8 710.1L1300.2 743.2L1300.7 752.1L1301.1 862.4L1301.6 751L1302 822.7L1302.4 672.6L1302.9 842.6L1303.3 844.8L1303.8 490.5L1304.2 765.3L1304.7 787.4L1305.1 855.8L1305.6 848.1L1306 790.7L1306.4 759.8L1306.9 776.4L1307.3 849.2L1307.8 681.4L1308.2 769.7L1308.7 727.8L1309.1 666L1309.6 783L1310 732.2L1310.4 875.7L1310.9 655L1311.3 834.8L1311.8 647.2L1312.2 789.6L1312.7 751L1313.1 808.4L1313.6 786.3L1314 752.1L1314.4 836L1314.9 877.9L1315.3 781.9L1315.8 725.6L1316.2 860.2L1316.7 684.8L1317.1 785.2L1317.6 795.1L1318 657.2L1318.4 809.5L1318.9 792.9L1319.3 763.1L1319.8 848.1L1320.2 735.5L1320.7 659.4L1321.1 759.8L1321.6 660.5L1322 726.7L1322.4 858L1322.9 710.1L1323.3 823.8L1323.8 756.5L1324.2 768.6L1324.7 690.3L1325.1 789.6L1325.6 725.6L1326 863.5L1326.4 786.3L1326.9 653.9L1327.3 808.4L1327.8 711.2L1328.2 542.4L1328.7 781.9L1329.1 552.3L1329.6 696.9L1330 681.4L1330.4 639.5L1330.9 787.4L1331.3 870.2L1331.8 784.1L1332.2 781.9L1332.7 799.5L1333.1 747.7L1333.6 730L1334 799.5L1334.4 769.7L1334.9 841.5L1335.3 589.8L1335.8 888.9L1336.2 709L1336.7 687L1337.1 717.9L1337.6 785.2L1338 881.2L1338.4 635.1L1338.9 760.9L1339.3 731.1L1339.8 870.2L1340.2 894.4L1340.7 735.5L1341.1 798.4L1341.6 713.4L1342 883.4L1342.4 754.3L1342.9 642.8L1343.3 749.9L1343.8 827.1L1344.2 679.2L1344.7 786.3L1345.1 843.7L1345.6 707.9L1346 724.5L1346.4 754.3L1346.9 845.9L1347.3 755.4L1347.8 737.7L1348.2 637.3L1348.7 815L1349.1 760.9L1349.6 709L1350 816.1L1350.4 874.6L1350.9 856.9L1351.3 721.2L1351.8 839.3L1352.2 858L1352.7 719L1353.1 675.9L1353.6 864.6L1354 841.5L1354.4 784.1L1354.9 861.3L1355.3 770.8L1355.8 880.1L1356.2 657.2L1356.7 658.3L1357.1 594.3L1357.6 754.3L1358 826L1358.4 868L1358.9 802.8L1359.3 796.2L1359.8 730L1360.2 799.5L1360.7 831.5L1361.1 742.1L1361.6 848.1L1362 865.7L1362.4 722.3L1362.9 717.9L1363.3 752.1L1363.8 649.4L1364.2 873.5L1364.7 756.5L1365.1 757.6L1365.6 667.1L1366 849.2L1366.4 710.1L1366.9 834.8L1367.3 879L1367.8 707.9L1368.2 674.8L1368.7 625.2L1369.1 789.6L1369.6 734.4L1370 769.7L1370.4 751L1370.9 778.6L1371.3 668.2L1371.8 776.4L1372.2 705.7L1372.7 812.8L1373.1 668.2L1373.6 764.2L1374 838.2L1374.4 707.9L1374.9 797.3L1375.3 716.8L1375.8 529.1L1376.2 881.2L1376.7 879L1377.1 839.3L1377.6 613L1378 862.4L1378.4 712.3L1378.9 875.7L1379.3 744.4L1379.8 830.4L1380.2 783L1380.7 780.8L1381.1 805L1381.6 861.3L1382 787.4L1382.4 590.9L1382.9 798.4L1383.3 872.4L1383.8 783L1384.2 756.5L1384.7 781.9L1385.1 812.8L1385.6 786.3L1386 731.1L1386.4 875.7L1386.9 792.9L1387.3 742.1L1387.8 819.4L1388.2 753.2L1388.7 771.9L1389.1 736.6L1389.6 816.1L1390 690.3L1390.4 844.8L1390.9 852.5L1391.3 819.4L1391.8 765.3L1392.2 701.3L1392.7 719L1393.1 768.6L1393.6 849.2L1394 777.5L1394.4 745.5L1394.9 852.5L1395.3 701.3L1395.8 866.9L1396.2 576.6L1396.7 733.3L1397.1 847L1397.6 726.7L1398 767.5L1398.4 673.7L1398.9 852.5L1399.3 767.5L1399.8 630.7L1400.2 833.7L1400.7 759.8L1401.1 852.5L1401.6 716.8L1402 849.2L1402.4 861.3L1402.9 631.8L1403.3 785.2L1403.8 839.3L1404.2 811.7L1404.7 861.3L1405.1 745.5L1405.6 776.4L1406 732.2L1406.4 713.4L1406.9 662.7L1407.3 635.1L1407.8 783L1408.2 854.7L1408.7 842.6L1409.1 848.1L1409.6 851.4L1410 767.5L1410.4 827.1L1410.9 716.8L1411.3 661.6L1411.8 737.7L1412.2 709L1412.7 723.4L1413.1 674.8L1413.6 481.7L1414 879L1414.4 859.1L1414.9 849.2L1415.3 674.8L1415.8 658.3L1416.2 879L1416.7 646.1L1417.1 747.7L1417.6 726.7L1418 707.9L1418.4 871.3L1418.9 831.5L1419.3 802.8L1419.8 842.6L1420.2 848.1L1420.7 745.5L1421.1 795.1L1421.6 752.1L1422 727.8L1422.4 902.2L1422.9 725.6L1423.3 868L1423.8 668.2L1424.2 821.6L1424.7 739.9L1425.1 848.1L1425.6 851.4L1426 706.8L1426.4 850.3L1426.9 870.2L1427.3 650.5L1427.8 828.2L1428.2 839.3L1428.7 854.7L1429.1 688.1L1429.6 678.1L1430 795.1L1430.4 788.5L1430.9 841.5L1431.3 847L1431.8 841.5L1432.2 832.6L1432.7 776.4L1433.1 710.1L1433.6 751L1434 839.3L1434.4 778.6L1434.9 823.8L1435.3 746.6L1435.8 627.4L1436.2 692.5L1436.7 734.4L1437.1 752.1L1437.6 817.2L1438 778.6L1438.4 742.1L1438.9 877.9L1439.3 756.5L1439.8 702.4L1440.2 851.4L1440.7 843.7L1441.1 719L1441.6 738.8L1442 789.6L1442.4 816.1L1442.9 860.2L1443.3 631.8L1443.8 722.3L1444.2 783L1444.7 739.9L1445.1 779.7L1445.6 780.8L1446 824.9L1446.4 805L1446.9 736.6L1447.3 629.6L1447.8 850.3L1448.2 707.9L1448.7 652.8L1449.1 773L1449.6 853.6L1450 724.5L1450.4 794L1450.9 836L1451.3 850.3L1451.8 864.6L1452.2 704.6L1453.1 672.6L1453.6 720.1L1454 849.2L1454.4 781.9L1454.9 751L1455.3 571.1L1455.8 618.5L1456.2 746.6L1456.7 727.8L1457.1 817.2L1457.6 773L1458 833.7L1458.4 859.1L1458.9 856.9L1459.3 785.2L1459.8 821.6L1460.2 866.9L1460.7 789.6L1461.1 774.1L1461.6 801.7L1462 837.1L1462.4 843.7L1462.9 741L1463.3 746.6L1463.8 754.3L1464.2 877.9L1464.7 859.1L1465.1 797.3L1465.6 848.1L1466 759.8L1466.4 874.6L1466.9 755.4L1467.3 856.9L1467.8 707.9L1468.2 816.1L1468.7 779.7L1469.1 777.5L1469.6 854.7L1470 864.6L1470.4 762L1470.9 733.3L1471.3 778.6L1471.8 606.4L1472.2 753.2L1472.7 618.5L1473.1 710.1L1473.6 762L1474 884.5L1474.4 758.7L1474.9 734.4L1475.3 873.5L1475.8 733.3L1476.2 813.9L1476.7 726.7L1477.1 734.4L1477.6 771.9L1478 752.1L1478.4 805L1478.9 875.7L1479.3 704.6L1479.8 860.2L1480.2 864.6L1480.7 716.8L1481.1 732.2L1481.6 790.7L1482 724.5L1482.4 819.4L1482.9 758.7L1483.3 827.1L1483.8 589.8L1484.2 780.8L1484.7 755.4L1485.1 794L1485.6 863.5L1486 850.3L1486.4 817.2L1486.9 693.6L1487.3 897.8L1487.8 855.8L1488.2 742.1L1488.7 714.6L1489.1 733.3L1489.6 723.4L1490 830.4L1490.4 736.6L1490.9 706.8L1491.3 775.3L1491.8 829.3L1492.2 705.7L1492.7 783L1493.1 716.8L1493.6 748.8L1494 858L1494.4 811.7L1494.9 668.2L1495.3 836L1495.8 831.5L1496.2 779.7L1496.7 796.2L1497.1 765.3L1497.6 794L1498 546.8L1498.4 826L1498.9 674.8L1499.3 842.6L1499.8 870.2L1500.2 838.2L1500.7 836L1501.1 760.9L1501.6 575.5L1502 863.5L1502.4 787.4L1502.9 868L1503.3 668.2L1503.8 826L1504.2 785.2L1504.7 869.1L1505.1 872.4L1505.6 637.3L1506 730L1506.4 839.3L1506.9 735.5L1507.3 851.4L1507.8 827.1L1508.2 693.6L1508.7 678.1L1509.1 762L1509.6 681.4L1510 868L1510.4 749.9L1510.9 863.5L1511.3 774.1L1511.8 874.6L1512.2 859.1L1512.7 619.6L1513.1 747.7L1513.6 836L1514 837.1L1514.4 636.2L1514.9 802.8L1515.3 851.4L1515.8 734.4L1516.2 749.9L1516.7 668.2L1517.1 753.2L1517.6 802.8L1518 762L1518.4 812.8L1518.9 710.1L1519.3 831.5L1519.8 712.3L1520.2 709L1520.7 786.3L1521.1 705.7L1521.6 861.3L1522 854.7L1522.4 755.4L1522.9 731.1L1523.3 733.3L1523.8 755.4L1524.2 706.8L1524.7 709L1525.1 734.4L1525.6 774.1L1526 735.5L1526.4 702.4L1526.9 898.9L1527.3 803.9L1527.8 787.4L1528.2 830.4L1528.7 767.5L1529.1 762L1529.6 864.6L1530 758.7L1530.4 688.1L1530.9 837.1L1531.3 828.2L1531.8 795.1L1532.2 826L1532.7 719L1533.1 741L1533.6 882.3L1534 837.1L1534.4 845.9L1534.9 822.7L1535.3 884.5L1535.8 702.4L1536.2 851.4L1536.7 683.7L1537.1 767.5L1537.6 651.6L1538 728.9L1538.4 753.2L1538.9 787.4L1539.3 796.2L1539.8 736.6L1540.2 796.2L1540.7 822.7L1541.1 672.6L1541.6 807.3L1542 881.2L1542.4 672.6L1542.9 877.9L1543.3 769.7L1543.8 836L1544.2 780.8L1544.7 807.3L1545.1 827.1L1545.6 856.9L1546 855.8L1546.4 795.1L1546.9 709L1547.3 743.2L1547.8 724.5L1548.2 797.3L1548.7 778.6L1549.1 876.8L1549.6 869.1L1550 705.7L1550.4 687L1550.9 747.7L1551.3 732.2L1551.8 832.6L1552.2 734.4L1552.7 840.4L1553.1 886.7L1553.6 746.6L1554 714.6L1554.4 737.7L1554.9 822.7L1555.3 748.8L1555.8 886.7L1556.2 717.9L1556.7 816.1L1557.1 849.2L1557.6 629.6L1558 787.4L1558.4 775.3L1558.9 797.3L1559.3 700.2L1559.8 842.6L1560.2 858L1560.7 771.9L1561.1 843.7L1561.6 818.3L1562 747.7L1562.4 687L1562.9 805L1563.3 679.2L1563.8 589.8L1564.2 747.7L1564.7 842.6L1565.1 845.9L1565.6 798.4L1566 831.5L1566.4 795.1L1566.9 786.3L1567.3 903.3L1567.8 884.5L1568.2 841.5L1568.7 830.4L1569.1 802.8L1569.6 735.5L1570 701.3L1570.4 693.6L1570.9 712.3L1571.3 799.5L1571.8 813.9L1572.2 743.2L1572.7 807.3L1573.1 788.5L1573.6 819.4L1574 659.4L1574.4 790.7L1574.9 864.6L1575.3 827.1L1575.8 866.9L1576.2 691.4L1576.7 870.2L1577.1 683.7L1577.6 808.4L1578 834.8L1578.4 806.2L1578.9 662.7L1579.3 717.9L1579.8 795.1L1580.2 834.8L1580.7 859.1L1581.1 696.9L1581.6 874.6L1582 699.1L1582.4 797.3L1582.9 714.6L1583.3 830.4L1583.8 805L1584.2 778.6L1584.7 738.8L1585.1 805L1585.6 859.1L1586 730L1586.4 694.7L1586.9 843.7L1587.3 749.9L1587.8 859.1L1588.2 811.7L1588.7 797.3L1589.1 868L1589.6 682.5L1590 776.4L1590.4 764.2L1590.9 727.8L1591.3 764.2L1591.8 705.7L1592.2 820.5L1592.7 739.9L1593.1 678.1L1593.6 816.1L1594 875.7L1594.4 791.8L1594.9 839.3L1595.3 794L1595.8 824.9L1596.2 711.2L1596.7 695.8L1597.1 739.9L1597.6 624.1L1598 853.6L1598.4 649.4L1598.9 780.8L1599.3 863.5L1599.8 865.7L1600.2 766.4L1600.7 738.8L1601.1 570L1601.6 780.8L1602 830.4L1602.4 749.9L1602.9 774.1L1603.3 884.5L1603.8 748.8L1604.2 855.8L1604.7 866.9L1605.1 588.7L1605.6 743.2L1606 677L1606.4 802.8L1606.9 693.6L1607.3 636.2L1607.8 849.2L1608.2 759.8L1608.7 661.6L1609.1 896.7L1609.6 837.1L1610 691.4L1610.4 586.5L1610.9 753.2L1611.3 821.6L1611.8 752.1L1612.2 558.9L1612.7 698L1613.1 875.7L1613.6 794L1614 724.5L1614.4 871.3L1614.9 892.2L1615.3 649.4L1615.8 745.5L1616.2 583.2L1616.7 668.2L1617.1 684.8L1617.6 730L1618 832.6L1618.4 649.4L1618.9 832.6L1619.3 730L1619.8 795.1L1620.2 722.3L1620.7 884.5L1621.1 575.5L1621.6 906.6L1622 758.7L1622.4 789.6L1622.9 712.3L1623.3 834.8L1623.8 756.5L1624.2 596.5L1624.7 763.1L1625.1 803.9L1625.6 790.7L1626 786.3L1626.4 854.7L1626.9 871.3L1627.3 796.2L1627.8 811.7L1628.2 732.2L1628.7 756.5L1629.1 741L1629.6 681.4L1630 634L1630.4 741L1630.9 736.6L1631.3 780.8L1631.8 596.5L1632.2 727.8L1632.7 763.1L1633.1 841.5L1633.6 842.6L1634 702.4L1634.4 721.2L1634.9 849.2L1635.3 609.7L1635.8 726.7L1636.2 771.9L1636.7 836L1637.1 741L1637.6 763.1L1638 634L1638.4 739.9L1638.9 748.8L1639.3 832.6L1639.8 745.5L1640.2 703.5L1640.7 704.6L1641.1 807.3L1641.6 794L1642 817.2L1642.4 717.9L1642.9 833.7L1643.3 726.7L1643.8 574.4L1644.2 811.7L1644.7 798.4L1645.1 687L1645.6 756.5L1646 820.5L1646.4 722.3L1646.9 728.9L1647.3 809.5L1647.8 727.8L1648.2 560L1648.7 646.1L1649.1 829.3L1649.6 756.5L1650 888.9L1650.4 789.6L1650.9 741L1651.3 704.6L1651.8 752.1L1652.2 768.6L1652.7 818.3L1653.1 746.6L1653.6 868L1654 858L1654.4 821.6L1654.9 819.4L1655.3 791.8L1655.8 790.7L1656.2 842.6L1656.7 866.9L1657.1 801.7L1657.6 760.9L1658 858L1658.4 870.2L1658.9 758.7L1659.3 590.9L1659.8 741L1660.2 783L1660.7 807.3L1661.1 638.4L1661.6 853.6L1662 827.1L1662.4 831.5L1662.9 754.3L1663.3 795.1L1663.8 844.8L1664.2 775.3L1664.7 752.1L1665.1 797.3L1665.6 880.1L1666 870.2L1666.4 883.4L1666.9 869.1L1667.3 733.3L1667.8 820.5L1668.2 647.2L1668.7 831.5L1669.1 635.1L1669.6 838.2L1670 799.5L1670.4 741L1670.9 844.8L1671.3 826L1671.8 621.8L1672.2 795.1L1672.7 810.6L1673.1 749.9L1673.6 746.6L1674 598.7L1674.4 526.9L1674.9 755.4L1675.3 723.4L1675.8 529.1L1676.2 829.3L1676.7 812.8L1677.1 853.6L1677.6 647.2L1678 862.4L1678.4 710.1L1678.9 651.6L1679.3 666L1679.8 719L1680.2 843.7L1680.7 712.3L1681.1 873.5L1681.6 872.4L1682 699.1L1682.4 816.1L1682.9 773L1683.3 813.9L1683.8 902.2L1684.2 641.7L1684.7 820.5L1685.1 829.3L1685.6 882.3L1686 765.3L1686.4 858L1686.9 886.7L1687.3 777.5L1687.8 779.7L1688.2 815L1688.7 656.1L1689.1 827.1L1689.6 754.3L1690 865.7L1690.4 849.2L1690.9 866.9L1691.3 769.7L1691.8 732.2L1692.2 809.5L1692.7 570L1693.1 823.8L1693.6 872.4L1694 652.8L1694.4 796.2L1694.9 749.9L1695.3 739.9L1695.8 791.8L1696.2 710.1L1696.7 703.5L1697.1 575.5L1697.6 848.1L1698 739.9L1698.4 868L1698.9 735.5L1699.3 850.3L1699.8 794L1700.2 747.7L1700.7 715.7L1701.1 848.1L1701.6 734.4L1702 795.1L1702.4 827.1L1702.9 858L1703.3 764.2L1703.8 590.9L1704.2 673.7L1704.7 858L1705.1 837.1L1705.6 769.7L1706 811.7L1706.4 862.4L1706.9 642.8L1707.3 746.6L1707.8 808.4L1708.2 731.1L1708.7 630.7L1709.1 704.6L1709.6 834.8L1710 877.9L1710.4 863.5L1710.9 829.3L1711.3 876.8L1711.8 877.9L1712.2 797.3L1712.7 760.9L1713.1 753.2L1713.6 840.4L1714 524.7L1714.4 800.6L1714.9 869.1L1715.3 870.2L1715.8 701.3L1716.2 843.7L1716.7 751L1717.1 762L1717.6 865.7L1718 744.4L1718.4 693.6L1718.9 839.3L1719.3 903.3L1719.8 851.4L1720.2 829.3L1720.7 795.1L1721.1 787.4L1721.6 756.5L1722 651.6L1722.4 884.5L1722.9 730L1723.3 743.2L1723.8 900L1724.2 872.4L1724.7 701.3L1725.1 691.4L1725.6 716.8L1726 724.5L1726.4 706.8L1726.9 684.8L1727.3 694.7L1727.8 862.4L1728.2 756.5L1728.7 738.8L1729.1 838.2L1729.6 682.5L1730 734.4L1730.4 747.7L1730.9 803.9L1731.3 744.4L1731.8 763.1L1732.2 754.3L1732.7 775.3L1733.1 727.8L1733.6 651.6L1734 830.4L1734.4 728.9L1734.9 764.2L1735.3 805L1735.8 631.8L1736.2 803.9L1736.7 792.9L1737.1 831.5L1737.6 758.7L1738.4 721.2L1738.9 802.8L1739.3 820.5L1739.8 754.3L1740.2 858L1740.7 798.4L1741.1 700.2L1741.6 797.3L1742 550.1L1742.4 723.4L1742.9 859.1L1743.3 879L1743.8 778.6L1744.2 858L1744.7 725.6L1745.1 675.9L1745.6 880.1L1746 712.3L1746.4 874.6L1746.9 856.9L1747.3 757.6L1747.8 908.8L1748.2 799.5L1748.7 872.4L1749.1 852.5L1749.6 713.4L1750 616.3L1750.4 813.9L1750.9 828.2L1751.3 607.5L1751.8 859.1L1752.2 847L1752.7 738.8L1753.1 854.7L1753.6 688.1L1754 855.8L1754.4 774.1L1754.9 850.3L1755.3 792.9L1755.8 683.7L1756.2 868L1756.7 677L1757.1 849.2L1757.6 727.8L1758 739.9L1758.4 800.6L1758.9 756.5L1759.3 841.5L1759.8 762L1760.2 855.8L1760.7 847L1761.1 870.2L1761.6 872.4L1762 758.7L1762.4 751L1762.9 861.3L1763.3 802.8L1763.8 852.5L1764.2 605.3L1764.7 779.7L1765.1 774.1L1765.6 864.6L1766 746.6L1766.4 766.4L1766.9 675.9L1767.3 783L1767.8 896.7L1768.2 827.1L1769.1 842.6L1769.6 865.7L1770 671.5L1770.4 874.6L1770.9 850.3L1771.3 768.6L1771.8 851.4L1772.2 742.1L1772.7 764.2L1773.1 809.5L1773.6 801.7L1774 753.2L1774.4 841.5L1774.9 751L1775.3 685.9L1775.8 880.1L1776.2 850.3L1776.7 781.9L1777.1 862.4L1777.6 823.8L1778 703.5L1778.4 705.7L1778.9 706.8L1779.3 691.4L1779.8 636.2L1780.2 830.4L1780.7 785.2L1781.1 880.1L1781.6 745.5L1782 826L1782.4 717.9L1782.9 795.1L1783.3 818.3L1783.8 812.8L1784.2 673.7L1784.7 597.6L1785.1 721.2L1785.6 770.8L1786 731.1L1786.4 759.8L1786.9 841.5L1787.3 674.8L1787.8 808.4L1788.2 769.7L1788.7 798.4L1789.1 854.7L1789.6 870.2L1790 691.4L1790.4 705.7L1790.9 557.8L1791.3 696.9L1791.8 642.8L1792.2 739.9L1792.7 758.7L1793.1 791.8L1793.6 577.7L1794 775.3L1794.4 731.1L1794.9 787.4L1795.3 872.4L1795.8 681.4L1796.2 847L1796.7 626.3L1797.1 568.9L1797.6 771.9L1798 826L1798.4 885.6L1798.9 617.4L1799.3 767.5L1799.8 908.8" fill="transparent" stroke="#3fb1e3" stroke-width="3" stroke-linejoin="bevel" class="zr5-cls-17"></path>
</g>
<path d="M-292.1 -5l584.2 0l0 28l-584.2 0Z" transform="translate(1000 5)" fill="rgb(0,0,0)" fill-opacity="0" stroke="#ccc" stroke-width="0" class="zr5-cls-15"></path>
<text dominant-baseline="central" text-anchor="middle" style="font-size:18px;font-family:sans-serif;font-weight:bold;" xml:space="preserve" y="9" transform="translate(1000 5)" fill="#666666">Min controlBehaviorUpdate per Tick for benchmark_biolab_uncontrolled</text>
<defs >
<clipPath id="zr5-c0">
<path d="M198 58.5l16004 0l0 8703l-16004 0Z" fill="#000" class="zr5-cls-16"></path>
</clipPath>
</defs>
<style ><![CDATA[
.zr5-cls-15:hover {
pointer-events:none;
}
.zr5-cls-16:hover {
cursor:pointer;
fill:rgba(0,0,0,1);
}
.zr5-cls-17:hover {
cursor:pointer;
}

]]>

</style>
</svg>