<svg width="2000" height="1000" xmlns="http://www.w3.org/2000/svg" xmlns:xlink="http://www.w3.org/1999/xlink" version="1.1" baseProfile="full" viewBox="0 0 2000 1000">
<rect width="2000" height="1000" x="0" y="0" fill="rgb(252,252,252)" fill-opacity="0"></rect>
<path d="M200 930.5L1800 930.5" fill="transparent" stroke="#eeeeee" class="zr19-cls-57"></path>
<path d="M200 790.5L1800 790.5" fill="transparent" stroke="#eeeeee" class="zr19-cls-57"></path>
<path d="M200 637.5L1800 637.5" fill="transparent" stroke="#eeeeee" class="zr19-cls-57"></path>
<path d="M200 485.5L1800 485.5" fill="transparent" stroke="#eeeeee" class="zr19-cls-57"></path>
<path d="M200 333.5L1800 333.5" fill="transparent" stroke="#eeeeee" class="zr19-cls-57"></path>
<path d="M200 180.5L1800 180.5" fill="transparent" stroke="#eeeeee" class="zr19-cls-57"></path>
<path d="M200 60.5L1800 60.5" fill="transparent" stroke="#eeeeee" class="zr19-cls-57"></path>
<path d="M200.5 930L200.5 60" fill="transparent" stroke="#cccccc" stroke-linecap="round" class="zr19-cls-57"></path>
<text dominant-baseline="central" text-anchor="middle" style="font-size:12px;font-family:sans-serif;" xml:space="preserve" y="-6" transform="translate(200 45)" fill="#cccccc">Min transportLinesUpdate Time (ms)</text>
<path d="M200 930.5L1800 930.5" fill="transparent" stroke="#cccccc" stroke-linecap="round" class="zr19-cls-57"></path>
<text dominant-baseline="central" text-anchor="end" style="font-size:12px;font-family:sans-serif;" transform="translate(192 930)" fill="#999999">0.011</text>
<text dominant-baseline="central" text-anchor="end" style="font-size:12px;font-family:sans-serif;" transform="translate(192 789.9983)" fill="#999999">0.020</text>
<text dominant-baseline="central" text-anchor="end" style="font-size:12px;font-family:sans-serif;" transform="translate(192 637.6055)" fill="#999999">0.030</text>
<text dominant-baseline="central" text-anchor="end" style="font-size:12px;font-family:sans-serif;" transform="translate(192 485.2126)" fill="#999999">0.040</text>
<text dominant-baseline="central" text-anchor="end" style="font-size:12px;font-family:sans-serif;" transform="translate(192 332.8198)" fill="#999999">0.050</text>
<text dominant-baseline="central" text-anchor="end" style="font-size:12px;font-family:sans-serif;" transform="translate(192 180.4269)" fill="#999999">0.060</text>
<text dominant-baseline="central" text-anchor="end" style="font-size:12px;font-family:sans-serif;" transform="translate(192 60)" fill="#999999">0.068</text>
<text dominant-baseline="central" text-anchor="middle" style="font-size:12px;font-family:sans-serif;" y="6" transform="translate(200.2222 938)" fill="#999999">0</text>
<text dominant-baseline="central" text-anchor="middle" style="font-size:12px;font-family:sans-serif;" y="6" transform="translate(235.3333 938)" fill="#999999">79</text>
<text dominant-baseline="central" text-anchor="middle" style="font-size:12px;font-family:sans-serif;" y="6" transform="translate(270.4444 938)" fill="#999999">158</text>
<text dominant-baseline="central" text-anchor="middle" style="font-size:12px;font-family:sans-serif;" y="6" transform="translate(305.5556 938)" fill="#999999">237</text>
<text dominant-baseline="central" text-anchor="middle" style="font-size:12px;font-family:sans-serif;" y="6" transform="translate(340.6667 938)" fill="#999999">316</text>
<text dominant-baseline="central" text-anchor="middle" style="font-size:12px;font-family:sans-serif;" y="6" transform="translate(375.7778 938)" fill="#999999">395</text>
<text dominant-baseline="central" text-anchor="middle" style="font-size:12px;font-family:sans-serif;" y="6" transform="translate(410.8889 938)" fill="#999999">474</text>
<text dominant-baseline="central" text-anchor="middle" style="font-size:12px;font-family:sans-serif;" y="6" transform="translate(446 938)" fill="#999999">553</text>
<text dominant-baseline="central" text-anchor="middle" style="font-size:12px;font-family:sans-serif;" y="6" transform="translate(481.1111 938)" fill="#999999">632</text>
<text dominant-baseline="central" text-anchor="middle" style="font-size:12px;font-family:sans-serif;" y="6" transform="translate(516.2222 938)" fill="#999999">711</text>
<text dominant-baseline="central" text-anchor="middle" style="font-size:12px;font-family:sans-serif;" y="6" transform="translate(551.3333 938)" fill="#999999">790</text>
<text dominant-baseline="central" text-anchor="middle" style="font-size:12px;font-family:sans-serif;" y="6" transform="translate(586.4444 938)" fill="#999999">869</text>
<text dominant-baseline="central" text-anchor="middle" style="font-size:12px;font-family:sans-serif;" y="6" transform="translate(621.5556 938)" fill="#999999">948</text>
<text dominant-baseline="central" text-anchor="middle" style="font-size:12px;font-family:sans-serif;" y="6" transform="translate(656.6667 938)" fill="#999999">1027</text>
<text dominant-baseline="central" text-anchor="middle" style="font-size:12px;font-family:sans-serif;" y="6" transform="translate(691.7778 938)" fill="#999999">1106</text>
<text dominant-baseline="central" text-anchor="middle" style="font-size:12px;font-family:sans-serif;" y="6" transform="translate(726.8889 938)" fill="#999999">1185</text>
<text dominant-baseline="central" text-anchor="middle" style="font-size:12px;font-family:sans-serif;" y="6" transform="translate(762 938)" fill="#999999">1264</text>
<text dominant-baseline="central" text-anchor="middle" style="font-size:12px;font-family:sans-serif;" y="6" transform="translate(797.1111 938)" fill="#999999">1343</text>
<text dominant-baseline="central" text-anchor="middle" style="font-size:12px;font-family:sans-serif;" y="6" transform="translate(832.2222 938)" fill="#999999">1422</text>
<text dominant-baseline="central" text-anchor="middle" style="font-size:12px;font-family:sans-serif;" y="6" transform="translate(867.3333 938)" fill="#999999">1501</text>
<text dominant-baseline="central" text-anchor="middle" style="font-size:12px;font-family:sans-serif;" y="6" transform="translate(902.4444 938)" fill="#999999">1580</text>
<text dominant-baseline="central" text-anchor="middle" style="font-size:12px;font-family:sans-serif;" y="6" transform="translate(937.5556 938)" fill="#999999">1659</text>
<text dominant-baseline="central" text-anchor="middle" style="font-size:12px;font-family:sans-serif;" y="6" transform="translate(972.6667 938)" fill="#999999">1738</text>
<text dominant-baseline="central" text-anchor="middle" style="font-size:12px;font-family:sans-serif;" y="6" transform="translate(1007.7778 938)" fill="#999999">1817</text>
<text dominant-baseline="central" text-anchor="middle" style="font-size:12px;font-family:sans-serif;" y="6" transform="translate(1042.8889 938)" fill="#999999">1896</text>
<text dominant-baseline="central" text-anchor="middle" style="font-size:12px;font-family:sans-serif;" y="6" transform="translate(1078 938)" fill="#999999">1975</text>
<text dominant-baseline="central" text-anchor="middle" style="font-size:12px;font-family:sans-serif;" y="6" transform="translate(1113.1111 938)" fill="#999999">2054</text>
<text dominant-baseline="central" text-anchor="middle" style="font-size:12px;font-family:sans-serif;" y="6" transform="translate(1148.2222 938)" fill="#999999">2133</text>
<text dominant-baseline="central" text-anchor="middle" style="font-size:12px;font-family:sans-serif;" y="6" transform="translate(1183.3333 938)" fill="#999999">2212</text>
<text dominant-baseline="central" text-anchor="middle" style="font-size:12px;font-family:sans-serif;" y="6" transform="translate(1218.4444 938)" fill="#999999">2291</text>
<text dominant-baseline="central" text-anchor="middle" style="font-size:12px;font-family:sans-serif;" y="6" transform="translate(1253.5556 938)" fill="#999999">2370</text>
<text dominant-baseline="central" text-anchor="middle" style="font-size:12px;font-family:sans-serif;" y="6" transform="translate(1288.6667 938)" fill="#999999">2449</text>
<text dominant-baseline="central" text-anchor="middle" style="font-size:12px;font-family:sans-serif;" y="6" transform="translate(1323.7778 938)" fill="#999999">2528</text>
<text dominant-baseline="central" text-anchor="middle" style="font-size:12px;font-family:sans-serif;" y="6" transform="translate(1358.8889 938)" fill="#999999">2607</text>
<text dominant-baseline="central" text-anchor="middle" style="font-size:12px;font-family:sans-serif;" y="6" transform="translate(1394 938)" fill="#999999">2686</text>
<text dominant-baseline="central" text-anchor="middle" style="font-size:12px;font-family:sans-serif;" y="6" transform="translate(1429.1111 938)" fill="#999999">2765</text>
<text dominant-baseline="central" text-anchor="middle" style="font-size:12px;font-family:sans-serif;" y="6" transform="translate(1464.2222 938)" fill="#999999">2844</text>
<text dominant-baseline="central" text-anchor="middle" style="font-size:12px;font-family:sans-serif;" y="6" transform="translate(1499.3333 938)" fill="#999999">2923</text>
<text dominant-baseline="central" text-anchor="middle" style="font-size:12px;font-family:sans-serif;" y="6" transform="translate(1534.4444 938)" fill="#999999">3002</text>
<text dominant-baseline="central" text-anchor="middle" style="font-size:12px;font-family:sans-serif;" y="6" transform="translate(1569.5556 938)" fill="#999999">3081</text>
<text dominant-baseline="central" text-anchor="middle" style="font-size:12px;font-family:sans-serif;" y="6" transform="translate(1604.6667 938)" fill="#999999">3160</text>
<text dominant-baseline="central" text-anchor="middle" style="font-size:12px;font-family:sans-serif;" y="6" transform="translate(1639.7778 938)" fill="#999999">3239</text>
<text dominant-baseline="central" text-anchor="middle" style="font-size:12px;font-family:sans-serif;" y="6" transform="translate(1674.8889 938)" fill="#999999">3318</text>
<text dominant-baseline="central" text-anchor="middle" style="font-size:12px;font-family:sans-serif;" y="6" transform="translate(1710 938)" fill="#999999">3397</text>
<text dominant-baseline="central" text-anchor="middle" style="font-size:12px;font-family:sans-serif;" y="6" transform="translate(1745.1111 938)" fill="#999999">3476</text>
<text dominant-baseline="central" text-anchor="middle" style="font-size:12px;font-family:sans-serif;" y="6" transform="translate(1780.2222 938)" fill="#999999">3555</text>
<g clip-path="url(#zr19-c0)">
<path d="M200.2 -398.7L200.7 410.5L201.1 619.3L201.6 546.2L202 480.6L202.4 564.5L202.9 593.4L203.3 558.4L203.8 442.5L204.2 591.9L204.7 569L205.1 570.6L205.6 619.3L206 596.5L206.4 684.8L206.9 616.3L207.3 593.4L207.8 626.9L208.2 658.9L208.7 623.9L209.1 678.8L209.6 579.7L210 695.5L210.4 630L210.9 524.8L211.3 660.5L211.8 648.3L212.2 620.8L212.7 709.2L213.1 584.3L213.6 697L214 640.7L214.4 541.6L214.9 637.6L215.3 697L215.8 634.6L216.2 706.2L216.7 613.2L217.1 579.7L217.6 655.9L218 479.1L218.4 681.8L218.9 721.4L219.3 672.7L219.8 721.4L220.2 662L220.7 736.7L221.1 633L221.6 620.8L222 686.4L222.4 724.5L222.9 689.4L223.3 745.8L223.8 668.1L224.2 762.6L224.7 690.9L225.1 665L225.6 700.1L226 729L226.4 698.6L226.9 758L227.3 630L227.8 715.3L228.2 721.4L228.7 663.5L229.1 611.7L229.6 582.7L230 570.6L230.4 762.6L230.9 599.5L231.3 687.9L231.8 686.4L232.2 486.7L232.7 721.4L233.1 751.9L233.6 425.8L234 575.1L234.4 520.3L234.9 578.2L235.3 588.8L235.8 434.9L236.2 610.2L236.7 552.3L237.1 550.7L237.6 622.4L238 537L238.4 677.2L238.9 591.9L239.3 555.3L239.8 451.7L240.2 590.4L240.7 585.8L241.1 601L241.6 523.3L242 617.8L242.4 576.6L242.9 553.8L243.3 587.3L243.8 640.7L244.2 585.8L244.7 613.2L245.1 541.6L245.6 634.6L246 579.7L246.4 518.7L246.9 598L247.3 645.2L247.8 587.3L248.2 640.7L248.7 543.1L249.1 622.4L249.6 476.1L250 543.1L250.4 530.9L250.9 613.2L251.3 646.7L251.8 648.3L252.2 535.5L252.7 649.8L253.1 616.3L253.6 509.6L254 599.5L254.4 649.8L254.9 616.3L255.3 630L255.8 509.6L256.2 639.1L256.7 591.9L257.1 594.9L257.6 549.2L258 681.8L258.4 579.7L258.9 666.6L259.3 607.1L259.8 640.7L260.2 672.7L260.7 541.6L261.1 503.5L261.6 649.8L262 616.3L262.4 599.5L262.9 570.6L263.3 671.1L263.8 602.6L264.2 477.6L264.7 529.4L265.1 642.2L265.6 588.8L266 649.8L266.4 633L266.9 645.2L267.3 573.6L267.8 576.6L268.2 631.5L268.7 642.2L269.1 436.4L269.6 694L270 614.7L270.4 620.8L270.9 494.4L271.3 570.6L271.8 634.6L272.2 658.9L272.7 517.2L273.1 620.8L273.6 502L274 680.3L274.4 546.2L274.9 570.6L275.3 657.4L275.8 651.3L276.2 712.3L276.7 735.1L277.1 530.9L277.6 712.3L278 594.9L278.4 576.6L278.9 543.1L279.3 732.1L279.8 666.6L280.2 761L280.7 508.1L281.1 736.7L281.6 719.9L282 611.7L282.4 674.2L282.9 590.4L283.3 604.1L283.8 710.8L284.2 697L284.7 698.6L285.1 614.7L285.6 534L286 634.6L286.4 543.1L286.9 741.2L287.3 712.3L287.8 630L288.2 694L288.7 722.9L289.1 623.9L289.6 738.2L290 686.4L290.4 695.5L290.9 733.6L291.3 727.5L291.8 646.7L292.2 745.8L292.7 594.9L293.1 741.2L293.6 736.7L294 712.3L294.4 678.8L294.9 646.7L295.3 678.8L295.8 645.2L296.2 594.9L296.7 662L297.1 581.2L297.6 709.2L298 599.5L298.4 541.6L298.9 567.5L299.3 524.8L299.8 508.1L300.2 562.9L300.7 614.7L301.1 602.6L301.6 540.1L302 473L302.4 409L302.9 662L303.3 497.4L303.8 628.5L304.2 639.1L304.7 683.3L305.1 630L305.6 619.3L306.4 640.7L306.9 524.8L307.3 570.6L307.8 611.7L308.2 623.9L308.7 625.4L309.1 655.9L309.6 637.6L310 538.6L310.4 540.1L310.9 555.3L311.3 614.7L311.8 665L312.2 637.6L312.7 628.5L313.1 625.4L313.6 570.6L314 509.6L314.4 540.1L314.9 614.7L315.3 579.7L315.8 645.2L316.2 665L316.7 648.3L317.1 646.7L317.6 521.8L318 671.1L318.4 636.1L318.9 658.9L319.3 655.9L319.8 593.4L320.2 662L320.7 631.5L321.1 584.3L321.6 690.9L322 652.8L322.4 675.7L322.9 672.7L323.3 599.5L323.8 689.4L324.2 710.8L324.7 561.4L325.1 684.8L325.6 666.6L326 579.7L326.4 662L326.9 669.6L327.3 668.1L327.8 721.4L328.2 566L328.7 649.8L329.1 663.5L329.6 724.5L330 678.8L330.4 663.5L330.9 677.2L331.3 648.3L331.8 578.2L332.2 744.3L332.7 643.7L333.1 736.7L333.6 692.5L334 689.4L334.4 704.7L334.9 754.9L335.3 616.3L335.8 761L336.2 634.6L336.7 751.9L337.1 707.7L337.6 722.9L338 727.5L338.4 756.5L338.9 643.7L339.3 759.5L339.8 678.8L340.2 727.5L340.7 707.7L341.1 639.1L341.6 706.2L342 773.2L342.4 646.7L342.9 729L343.3 732.1L343.8 756.5L344.2 726L344.7 671.1L345.1 748.9L345.6 750.4L346 669.6L346.4 724.5L346.9 735.1L347.3 637.6L347.8 762.6L348.2 672.7L348.7 514.2L349.1 598L349.6 505L350 601L350.4 566L350.9 567.5L351.3 620.8L351.8 471.5L352.2 538.6L352.7 663.5L353.1 436.4L353.6 526.4L354 529.4L354.4 605.6L354.9 590.4L355.3 564.5L355.8 537L356.2 623.9L356.7 506.5L357.1 572.1L357.6 497.4L358 633L358.4 500.5L358.9 628.5L359.3 613.2L359.8 683.3L360.2 511.1L360.7 657.4L361.1 617.8L361.6 534L362 605.6L362.4 556.8L362.9 535.5L363.3 613.2L363.8 438L364.2 655.9L364.7 526.4L365.1 631.5L365.6 634.6L366 611.7L366.4 564.5L366.9 662L367.3 537L367.8 529.4L368.2 605.6L368.7 643.7L369.1 611.7L369.6 450.2L370 628.5L370.4 654.4L370.9 532.5L371.3 646.7L371.8 517.2L372.2 613.2L372.7 651.3L373.1 584.3L373.6 630L374 665L374.4 543.1L374.9 619.3L375.3 651.3L375.8 657.4L376.2 625.4L376.7 660.5L377.1 634.6L377.6 654.4L378 471.5L378.4 671.1L378.9 630L379.3 671.1L379.8 637.6L380.2 601L380.7 506.5L381.1 523.3L381.6 431.9L382 671.1L382.4 537L382.9 677.2L383.3 576.6L383.8 619.3L384.2 549.2L384.7 698.6L385.1 549.2L385.6 658.9L386 581.2L386.4 623.9L386.9 524.8L387.3 628.5L387.8 535.5L388.2 690.9L388.7 540.1L389.1 636.1L389.6 593.4L390 660.5L390.4 497.4L390.9 607.1L391.3 625.4L391.8 654.4L392.2 431.9L392.7 649.8L393.1 588.8L393.6 750.4L394 674.2L394.4 681.8L394.9 658.9L395.3 698.6L395.8 570.6L396.2 718.4L396.7 495.9L397.1 701.6L397.6 655.9L398 649.8L398.4 655.9L398.9 697L399.3 584.3L399.8 657.4L400.2 697L400.7 709.2L401.1 700.1L401.6 637.6L402 697L402.4 695.5L402.9 530.9L403.3 707.7L403.8 625.4L404.2 715.3L404.7 675.7L405.1 655.9L405.6 716.8L406 713.8L406.4 611.7L406.9 697L407.3 709.2L407.8 570.6L408.2 729L408.7 537L409.1 669.6L410 623.9L410.4 674.2L410.9 622.4L411.3 674.2L411.8 710.8L412.2 451.7L412.7 669.6L413.1 582.7L413.6 553.8L414 546.2L414.4 604.1L414.9 570.6L415.3 607.1L415.8 552.3L416.2 626.9L416.7 576.6L417.1 361.8L417.6 517.2L418 607.1L418.4 649.8L418.9 651.3L419.3 596.5L419.8 579.7L420.2 602.6L420.7 529.4L421.1 655.9L421.6 646.7L422 616.3L422.4 630L422.9 564.5L423.3 675.7L423.8 608.7L424.2 511.1L424.7 585.8L425.1 581.2L425.6 590.4L426 671.1L426.4 556.8L426.9 681.8L427.3 613.2L427.8 611.7L428.2 651.3L428.7 713.8L429.1 607.1L429.6 671.1L430 576.6L430.4 692.5L430.9 666.6L431.3 556.8L431.8 649.8L432.2 695.5L432.7 643.7L433.1 703.1L433.6 564.5L434 598L434.4 645.2L434.9 639.1L435.3 646.7L435.8 668.1L436.2 660.5L436.7 706.2L437.1 626.9L437.6 721.4L438 660.5L438.4 559.9L438.9 672.7L439.3 721.4L439.8 674.2L440.2 730.6L440.7 611.7L441.1 697L441.6 665L442 534L442.4 686.4L442.9 677.2L443.3 662L443.8 678.8L444.2 626.9L444.7 593.4L445.1 694L445.6 607.1L446 689.4L446.4 751.9L446.9 668.1L447.3 751.9L447.8 660.5L448.2 733.6L448.7 713.8L449.1 633L449.6 686.4L450 715.3L450.4 701.6L450.9 748.9L451.3 646.7L451.8 722.9L452.2 695.5L452.7 663.5L453.1 712.3L453.6 761L454 718.4L454.4 758L454.9 660.5L455.3 767.1L455.8 729L456.2 687.9L456.7 640.7L457.1 768.7L457.6 701.6L458 765.6L458.4 710.8L458.9 773.2L459.3 739.7L459.8 690.9L460.7 741.2L461.1 738.2L461.6 751.9L462 675.7L462.4 692.5L462.9 735.1L463.3 622.4L463.8 526.4L464.2 462.4L464.7 588.8L465.1 591.9L465.6 556.8L466 476.1L466.4 562.9L466.9 572.1L467.3 524.8L467.8 655.9L468.2 561.4L468.7 570.6L469.1 514.2L469.6 569L470 547.7L470.4 497.4L470.9 558.4L471.3 582.7L471.8 459.3L472.2 620.8L472.7 512.6L473.1 648.3L473.6 599.5L474 538.6L474.4 639.1L474.9 651.3L475.3 596.5L475.8 649.8L476.2 579.7L476.7 625.4L477.1 556.8L477.6 579.7L478 561.4L478.4 637.6L478.9 543.1L479.3 645.2L479.8 517.2L480.2 630L480.7 611.7L481.1 558.4L481.6 622.4L482 646.7L482.4 613.2L482.9 617.8L483.3 573.6L483.8 651.3L484.2 611.7L484.7 544.6L485.1 436.4L485.6 642.2L486 637.6L486.4 649.8L486.9 607.1L487.3 684.8L487.8 662L488.2 576.6L488.7 608.7L489.1 663.5L489.6 662L490 666.6L490.4 462.4L490.9 655.9L491.3 651.3L491.8 585.8L492.2 662L492.7 637.6L493.1 672.7L493.6 649.8L494 613.2L494.4 643.7L494.9 633L495.3 544.6L495.8 639.1L496.2 658.9L496.7 663.5L497.1 625.4L497.6 517.2L498 677.2L498.4 666.6L498.9 576.6L499.3 642.2L499.8 625.4L500.2 509.6L500.7 704.7L501.1 633L501.6 672.7L502 652.8L502.4 488.3L502.9 678.8L503.3 690.9L503.8 608.7L504.2 732.1L504.7 498.9L505.1 697L505.6 680.3L506 616.3L506.4 587.3L506.9 677.2L507.3 683.3L507.8 669.6L508.2 562.9L508.7 617.8L509.1 569L509.6 591.9L510 605.6L510.9 677.2L511.3 742.8L511.8 468.4L512.2 689.4L512.7 692.5L513.1 576.6L513.6 497.4L514 709.2L514.4 630L514.9 718.4L515.3 683.3L515.8 690.9L516.2 762.6L516.7 562.9L517.1 628.5L517.6 683.3L518 716.8L518.4 684.8L518.9 614.7L519.3 677.2L519.8 738.2L520.2 666.6L520.7 741.2L521.1 681.8L521.6 736.7L522 715.3L522.4 719.9L522.9 623.9L523.3 751.9L523.8 578.2L524.2 779.3L524.7 599.5L525.1 735.1L525.6 640.7L526 660.5L526.4 623.9L526.9 681.8L527.3 425.8L527.8 582.7L528.2 515.7L528.7 666.6L529.1 422.7L529.6 633L530 634.6L530.4 640.7L530.9 381.6L531.3 677.2L531.8 614.7L532.2 626.9L532.7 377L533.1 587.3L533.6 652.8L534 544.6L534.4 489.8L534.9 651.3L535.3 593.4L535.8 678.8L536.2 491.3L536.7 625.4L537.1 628.5L537.6 622.4L538 552.3L538.4 654.4L538.9 666.6L539.3 643.7L539.8 576.6L540.2 630L540.7 415.1L541.1 643.7L541.6 530.9L542 623.9L542.4 643.7L542.9 690.9L543.3 537L543.8 630L544.2 663.5L544.7 690.9L545.1 406L545.6 643.7L546 626.9L546.4 620.8L546.9 506.5L547.3 619.3L547.8 549.2L548.2 681.8L548.7 502L549.1 698.6L549.6 657.4L550 697L550.4 550.7L550.9 631.5L551.3 590.4L551.8 695.5L552.2 575.1L552.7 704.7L553.1 692.5L553.6 655.9L554 677.2L554.4 665L554.9 578.2L555.3 698.6L555.8 588.8L556.2 628.5L556.7 622.4L557.1 642.2L557.6 524.8L558 677.2L558.4 663.5L558.9 671.1L559.3 601L559.8 666.6L560.2 677.2L560.7 657.4L561.1 512.6L561.6 639.1L562 579.7L562.4 674.2L562.9 540.1L563.3 698.6L563.8 718.4L564.7 680.3L565.1 657.4L565.6 706.2L566 662L566.4 622.4L566.9 669.6L567.3 722.9L567.8 765.6L568.2 741.2L568.7 727.5L569.1 719.9L569.6 721.4L570 633L570.4 745.8L570.9 747.3L571.3 719.9L571.8 739.7L572.2 689.4L572.7 732.1L573.1 724.5L573.6 468.4L574 748.9L574.4 765.6L574.9 758L575.8 715.3L576.2 762.6L576.7 753.4L577.1 585.8L577.6 649.8L578 733.6L578.4 767.1L578.9 553.8L579.3 546.2L579.8 610.2L580.2 538.6L580.7 495.9L581.1 497.4L581.6 611.7L582 523.3L582.4 616.3L582.9 556.8L583.3 549.2L583.8 604.1L584.2 500.5L584.7 578.2L585.1 598L585.6 575.1L586 639.1L586.4 566L586.9 651.3L587.3 547.7L587.8 480.6L588.2 573.6L588.7 645.2L589.1 628.5L589.6 605.6L590 584.3L590.4 640.7L590.9 617.8L591.3 573.6L591.8 527.9L592.2 573.6L592.7 517.2L593.1 622.4L593.6 518.7L594 671.1L594.4 636.1L594.9 576.6L595.3 599.5L595.8 610.2L596.2 614.7L596.7 663.5L597.1 585.8L597.6 649.8L598 582.7L598.4 579.7L598.9 604.1L599.3 643.7L599.8 582.7L600.2 604.1L600.7 573.6L601.1 584.3L601.6 626.9L602 566L602.4 637.6L602.9 532.5L603.3 649.8L603.8 535.5L604.2 585.8L604.7 652.8L605.1 645.2L605.6 547.7L606 578.2L606.4 567.5L606.9 550.7L607.3 579.7L607.8 590.4L608.2 666.6L608.7 642.2L609.1 623.9L609.6 596.5L610 681.8L610.4 607.1L610.9 674.2L611.3 569L611.8 523.3L612.2 646.7L612.7 447.1L613.1 634.6L613.6 692.5L614 640.7L614.4 706.2L614.9 508.1L615.3 712.3L615.8 658.9L616.2 602.6L616.7 634.6L617.1 611.7L617.6 640.7L618 703.1L618.4 543.1L618.9 657.4L619.3 561.4L619.8 448.6L620.2 599.5L620.7 712.3L621.1 581.2L621.6 713.8L622 623.9L622.4 716.8L622.9 651.3L623.3 611.7L623.8 698.6L624.2 582.7L624.7 596.5L625.1 652.8L625.6 642.2L626 715.3L626.4 663.5L626.9 633L627.3 703.1L627.8 729L628.2 677.2L628.7 680.3L629.1 604.1L629.6 736.7L630 687.9L630.4 640.7L630.9 639.1L631.3 739.7L631.8 701.6L632.2 742.8L632.7 645.2L633.1 761L633.6 506.5L634 637.6L634.4 686.4L634.9 726L635.3 671.1L635.8 736.7L636.2 567.5L636.7 738.2L637.1 575.1L637.6 652.8L638 683.3L638.4 712.3L638.9 684.8L639.3 633L639.8 598L640.2 721.4L640.7 654.4L641.1 674.2L641.6 599.5L642 724.5L642.4 599.5L642.9 665L643.3 521.8L643.8 655.9L644.2 626.9L644.7 591.9L645.1 617.8L645.6 637.6L646 453.2L646.4 666.6L646.9 587.3L647.3 681.8L647.8 626.9L648.2 514.2L648.7 680.3L649.1 672.7L649.6 447.1L650 698.6L650.4 561.4L650.9 686.4L651.3 619.3L651.8 591.9L652.2 651.3L652.7 649.8L653.1 614.7L653.6 665L654 599.5L654.4 631.5L654.9 473L655.3 570.6L655.8 631.5L656.2 654.4L656.7 561.4L657.1 680.3L657.6 645.2L658 652.8L658.4 534L658.9 594.9L659.3 544.6L659.8 658.9L660.2 649.8L660.7 686.4L661.1 559.9L661.6 695.5L662 694L662.4 611.7L662.9 547.7L663.3 710.8L663.8 532.5L664.2 698.6L664.7 639.1L665.1 665L665.6 579.7L666 610.2L666.4 588.8L666.9 686.4L667.3 660.5L667.8 701.6L668.2 532.5L668.7 662L669.1 684.8L669.6 634.6L670 700.1L670.4 697L670.9 550.7L671.3 703.1L671.8 594.9L672.2 666.6L672.7 677.2L673.1 590.4L673.6 561.4L674 703.1L674.4 517.2L674.9 697L675.3 657.4L675.8 706.2L676.2 579.7L676.7 649.8L677.1 719.9L677.6 692.5L678 598L678.4 715.3L678.9 669.6L679.3 733.6L679.8 578.2L680.2 645.2L680.7 721.4L681.1 739.7L681.6 651.3L682 671.1L682.4 623.9L682.9 762.6L683.3 754.9L683.8 626.9L684.2 709.2L684.7 753.4L685.1 730.6L685.6 758L686 718.4L686.4 736.7L686.9 741.2L687.3 657.4L687.8 686.4L688.2 718.4L688.7 729L689.6 674.2L690 751.9L690.4 765.6L690.9 662L691.3 764.1L691.8 739.7L692.2 718.4L692.7 623.9L693.1 660.5L693.6 745.8L694 587.3L694.4 509.6L694.9 626.9L695.3 575.1L695.8 642.2L696.2 457.8L696.7 549.2L697.1 541.6L697.6 532.5L698 511.1L698.4 668.1L698.9 535.5L699.3 604.1L699.8 569L700.2 587.3L700.7 591.9L701.1 626.9L701.6 509.6L702 636.1L702.4 608.7L702.9 549.2L703.3 620.8L703.8 570.6L704.2 590.4L704.7 556.8L705.1 540.1L705.6 645.2L706 613.2L706.4 639.1L706.9 608.7L707.3 587.3L708.2 639.1L708.7 547.7L709.1 671.1L709.6 617.8L710 651.3L710.4 622.4L710.9 626.9L711.3 613.2L711.8 645.2L712.2 526.4L712.7 660.5L713.1 610.2L713.6 634.6L714 625.4L714.4 591.9L714.9 495.9L715.3 541.6L715.8 555.3L716.2 590.4L716.7 680.3L717.1 684.8L717.6 494.4L718 524.8L718.4 636.1L718.9 652.8L719.3 518.7L719.8 663.5L720.2 578.2L720.7 631.5L721.1 604.1L721.6 619.3L722 646.7L722.4 540.1L722.9 564.5L723.3 662L723.8 628.5L724.2 570.6L724.7 623.9L725.1 587.3L725.6 625.4L726 666.6L726.4 505L726.9 645.2L727.3 651.3L727.8 535.5L728.2 649.8L728.7 537L729.1 660.5L729.6 681.8L730 593.4L730.4 630L730.9 666.6L731.3 566L731.8 591.9L732.2 535.5L732.7 683.3L733.1 549.2L733.6 610.2L734 692.5L734.4 669.6L734.9 713.8L735.3 662L735.8 517.2L736.2 675.7L736.7 613.2L737.1 502L737.6 651.3L738 663.5L738.4 712.3L738.9 697L739.3 610.2L739.8 663.5L740.2 643.7L740.7 471.5L741.1 684.8L741.6 698.6L742 695.5L742.4 581.2L742.9 678.8L743.3 652.8L743.8 637.6L744.2 470L744.7 700.1L745.1 611.7L745.6 716.8L746 687.9L746.4 694L746.9 683.3L747.3 748.9L747.8 614.7L748.2 750.4L748.7 698.6L749.1 741.2L749.6 552.3L750 599.5L750.4 527.9L750.9 742.8L751.3 622.4L751.8 738.2L752.2 700.1L752.7 733.6L753.1 709.2L753.6 657.4L754 654.4L754.4 733.6L754.9 538.6L755.3 721.4L755.8 497.4L756.2 712.3L756.7 617.8L757.1 669.6L757.6 617.8L758 512.6L758.4 614.7L758.9 636.1L759.3 649.8L759.8 640.7L760.2 541.6L760.7 594.9L761.1 517.2L761.6 671.1L762 553.8L762.4 630L762.9 591.9L763.3 637.6L763.8 524.8L764.2 651.3L764.7 556.8L765.1 680.3L765.6 561.4L766 666.6L766.4 581.2L766.9 687.9L767.3 626.9L767.8 616.3L768.2 614.7L768.7 662L769.1 559.9L769.6 678.8L770 555.3L770.4 671.1L770.9 529.4L771.3 617.8L771.8 654.4L772.2 648.3L772.7 367.9L773.1 672.7L773.6 649.8L774 652.8L774.4 526.4L774.9 628.5L775.3 518.7L775.8 665L776.2 599.5L776.7 652.8L777.1 594.9L777.6 668.1L778 582.7L778.4 631.5L778.9 643.7L779.3 686.4L779.8 561.4L780.2 683.3L780.7 677.2L781.1 689.4L781.6 559.9L782 642.2L782.4 671.1L782.9 709.2L783.3 614.7L783.8 680.3L784.2 626.9L784.7 694L785.1 492.8L785.6 651.3L786 552.3L786.4 695.5L786.9 599.5L787.3 704.7L787.8 637.6L788.2 694L788.7 584.3L789.1 643.7L789.6 555.3L790 671.1L790.4 524.8L790.9 716.8L791.3 623.9L791.8 713.8L792.2 570.6L792.7 655.9L793.1 515.7L793.6 710.8L794 485.2L794.4 719.9L794.9 689.4L795.3 719.9L795.8 707.7L796.2 684.8L796.7 660.5L797.1 721.4L797.6 470L798 756.5L798.4 730.6L798.9 756.5L799.3 677.2L799.8 716.8L800.2 707.7L800.7 753.4L801.1 657.4L801.6 732.1L802 753.4L802.4 724.5L802.9 741.2L803.3 649.8L803.8 744.3L804.2 745.8L804.7 648.3L805.1 750.4L805.6 724.5L806 736.7L806.4 751.9L806.9 666.6L807.3 721.4L807.8 680.3L808.2 716.8L808.7 727.5L809.1 790L809.6 521.8L810 611.7L810.4 540.1L810.9 628.5L811.3 581.2L811.8 399.9L812.2 537L812.7 511.1L813.1 569L813.6 655.9L814 445.6L814.4 662L814.9 570.6L815.3 456.3L815.8 401.4L816.2 625.4L816.7 598L817.1 639.1L817.6 547.7L818 665L818.4 602.6L818.9 538.6L819.3 604.1L819.8 648.3L820.2 634.6L820.7 587.3L821.1 564.5L821.6 498.9L822 633L822.4 562.9L822.9 593.4L823.3 607.1L823.8 579.7L824.2 634.6L824.7 550.7L825.1 633L825.6 616.3L826 424.3L826.4 569L826.9 593.4L827.3 566L827.8 585.8L828.2 534L828.7 637.6L829.1 524.8L829.6 407.5L830 649.8L830.4 617.8L830.9 598L831.3 654.4L831.8 544.6L832.2 654.4L832.7 540.1L833.1 584.3L833.6 639.1L834 642.2L834.4 562.9L834.9 631.5L835.3 543.1L835.8 649.8L836.2 665L836.7 526.4L837.1 514.2L837.6 628.5L838 639.1L838.4 672.7L838.9 639.1L839.3 695.5L839.8 643.7L840.2 506.5L840.7 588.8L841.1 689.4L841.6 534L842 666.6L842.4 640.7L842.9 660.5L843.3 640.7L843.8 492.8L844.2 686.4L844.7 678.8L845.1 672.7L845.6 692.5L846 616.3L846.4 668.1L846.9 579.7L847.3 582.7L847.8 540.1L848.2 654.4L849.1 582.7L849.6 569L850 596.5L850.4 529.4L850.9 572.1L851.3 550.7L851.8 674.2L852.2 480.6L852.7 671.1L853.1 535.5L853.6 643.7L854 544.6L854.4 634.6L854.9 655.9L855.3 697L855.8 689.4L856.2 756.5L856.7 540.1L857.1 738.2L857.6 584.3L858 495.9L858.4 669.6L858.9 716.8L859.3 697L859.8 703.1L860.2 674.2L861.1 707.7L861.6 561.4L862 698.6L862.4 642.2L862.9 719.9L863.3 613.2L863.8 678.8L864.2 712.3L864.7 732.1L865.1 489.8L865.6 715.3L866 712.3L866.4 715.3L866.9 610.2L867.3 729L867.8 701.6L868.2 767.1L868.7 506.5L869.1 777.8L869.6 724.5L870 709.2L870.4 681.8L870.9 675.7L871.3 677.2L871.8 651.3L872.2 579.7L872.7 690.9L873.1 511.1L873.6 669.6L874 601L874.4 517.2L874.9 584.3L875.3 639.1L875.8 500.5L876.2 657.4L876.7 622.4L877.1 576.6L877.6 617.8L878 466.9L878.4 620.8L878.9 598L879.3 570.6L879.8 654.4L880.2 604.1L880.7 683.3L881.1 623.9L881.6 558.4L882 645.2L882.4 564.5L882.9 494.4L883.3 576.6L883.8 630L884.2 517.2L884.7 594.9L885.1 630L885.6 619.3L886 675.7L886.4 566L886.9 686.4L887.3 590.4L887.8 645.2L888.2 648.3L888.7 559.9L889.1 649.8L889.6 569L890 564.5L890.4 665L890.9 613.2L891.3 587.3L891.8 623.9L892.2 665L892.7 652.8L893.1 599.5L893.6 562.9L894 623.9L894.4 639.1L894.9 575.1L895.3 637.6L895.8 529.4L896.2 654.4L896.7 598L897.1 602.6L897.6 683.3L898 677.2L898.4 692.5L898.9 634.6L899.3 655.9L899.8 681.8L900.2 715.3L900.7 579.7L901.1 698.6L901.6 669.6L902 684.8L902.4 680.3L902.9 558.4L903.3 675.7L903.8 674.2L904.2 594.9L904.7 605.6L905.1 681.8L905.6 712.3L906 684.8L906.4 686.4L906.9 657.4L907.3 738.2L907.8 608.7L908.2 741.2L908.7 689.4L909.1 718.4L909.6 674.2L910 636.1L910.4 689.4L910.9 730.6L911.3 594.9L911.8 732.1L912.2 655.9L912.7 738.2L913.1 724.5L914 736.7L914.4 762.6L914.9 655.9L915.3 750.4L915.8 718.4L916.2 756.5L916.7 713.8L917.1 707.7L917.6 713.8L918 776.3L918.4 649.8L918.9 762.6L919.3 710.8L919.8 630L920.2 727.5L920.7 739.7L921.1 744.3L921.6 727.5L922 637.6L922.4 754.9L922.9 713.8L923.3 684.8L923.8 756.5L924.2 735.1L924.7 526.4L925.1 532.5L925.6 476.1L926 616.3L926.4 573.6L926.9 425.8L927.3 608.7L927.8 607.1L928.2 515.7L928.7 602.6L929.1 345L929.6 594.9L930 567.5L930.4 630L930.9 559.9L931.3 518.7L931.8 585.8L932.2 508.1L932.7 433.4L933.1 576.6L933.6 514.2L934 564.5L934.4 608.7L934.9 585.8L935.3 590.4L935.8 643.7L936.2 482.2L936.7 652.8L937.1 611.7L937.6 657.4L938 611.7L938.4 601L938.9 594.9L939.3 646.7L939.8 534L940.2 611.7L940.7 623.9L941.1 655.9L941.6 599.5L942 594.9L942.4 521.8L942.9 617.8L943.3 549.2L943.8 605.6L944.2 628.5L944.7 649.8L945.1 585.8L945.6 473L946 655.9L946.4 611.7L946.9 555.3L947.3 660.5L947.8 578.2L948.2 649.8L948.7 628.5L949.1 594.9L949.6 541.6L950 616.3L950.4 578.2L950.9 602.6L951.3 613.2L951.8 622.4L952.2 628.5L952.7 438L953.1 549.2L953.6 669.6L954 549.2L954.4 558.4L954.9 633L955.3 665L955.8 636.1L956.2 546.2L956.7 640.7L957.1 689.4L957.6 544.6L958 658.9L958.4 681.8L958.9 648.3L959.3 642.2L959.8 628.5L960.2 636.1L960.7 677.2L961.1 427.3L961.6 675.7L962 634.6L962.4 684.8L962.9 559.9L963.3 637.6L963.8 646.7L964.2 686.4L964.7 406L965.1 680.3L965.6 544.6L966 665L966.4 543.1L966.9 634.6L967.3 694L967.8 698.6L968.2 488.3L968.7 614.7L969.1 598L969.6 681.8L970 598L970.4 658.9L970.9 678.8L971.3 748.9L971.8 415.1L972.2 762.6L972.7 698.6L973.1 657.4L973.6 692.5L974 495.9L974.4 681.8L974.9 666.6L975.3 626.9L975.8 677.2L976.2 716.8L976.7 694L977.1 672.7L977.6 631.5L978 750.4L978.4 674.2L978.9 625.4L979.3 710.8L979.8 713.8L980.2 727.5L981.1 680.3L981.6 765.6L982 715.3L982.4 642.2L982.9 663.5L983.3 756.5L983.8 643.7L984.2 788.5L984.7 546.2L985.1 695.5L985.6 684.8L986 631.5L986.4 707.7L986.9 669.6L987.3 672.7L987.8 690.9L988.2 389.2L988.7 690.9L989.1 616.3L989.6 553.8L990 628.5L990.4 535.5L990.9 559.9L991.3 517.2L991.8 575.1L992.2 637.6L992.7 630L993.1 575.1L993.6 654.4L994 700.1L994.4 500.5L994.9 529.4L995.3 602.6L995.8 594.9L996.2 643.7L996.7 569L997.1 643.7L997.6 658.9L998 602.6L998.4 669.6L998.9 570.6L999.3 692.5L999.8 651.3L1000.2 559.9L1000.7 588.8L1001.1 645.2L1001.6 637.6L1002 684.8L1002.4 572.1L1002.9 517.2L1003.3 639.1L1003.8 457.8L1004.2 616.3L1004.7 695.5L1005.1 658.9L1005.6 631.5L1006 605.6L1006.4 665L1006.9 654.4L1007.3 511.1L1007.8 654.4L1008.2 671.1L1008.7 625.4L1009.1 570.6L1009.6 588.8L1010 553.8L1010.4 637.6L1010.9 570.6L1011.3 607.1L1011.8 698.6L1012.2 649.8L1012.7 637.6L1013.1 633L1013.6 706.2L1014 674.2L1014.4 500.5L1014.9 645.2L1015.3 712.3L1015.8 671.1L1016.2 730.6L1016.7 639.1L1017.1 745.8L1017.6 642.2L1018 617.8L1018.4 628.5L1018.9 672.7L1019.3 694L1019.8 692.5L1020.2 610.2L1020.7 710.8L1021.1 625.4L1021.6 623.9L1022 521.8L1022.4 738.2L1022.9 642.2L1023.3 739.7L1023.8 642.2L1024.2 727.5L1024.7 722.9L1025.1 689.4L1025.6 686.4L1026 768.7L1026.4 704.7L1026.9 745.8L1027.3 636.1L1027.8 739.7L1028.2 724.5L1028.7 657.4L1029.1 729L1029.6 747.3L1030 739.7L1030.4 780.9L1030.9 658.9L1031.3 753.4L1031.8 732.1L1032.2 642.2L1032.7 665L1033.1 735.1L1033.6 700.1L1034 733.6L1034.4 703.1L1034.9 771.7L1035.3 742.8L1035.8 655.9L1036.2 726L1036.7 668.1L1037.1 767.1L1037.6 761L1038 678.8L1038.4 695.5L1038.9 756.5L1039.3 607.1L1039.8 389.2L1040.2 591.9L1040.7 498.9L1041.1 594.9L1041.6 537L1042 534L1042.4 611.7L1042.9 412.1L1043.3 596.5L1043.8 640.7L1044.2 439.5L1044.7 626.9L1045.1 498.9L1045.6 607.1L1046 489.8L1046.4 526.4L1046.9 587.3L1047.3 643.7L1047.8 575.1L1048.2 604.1L1048.7 559.9L1049.1 575.1L1049.6 631.5L1050 537L1050.4 608.7L1050.9 660.5L1051.3 607.1L1051.8 662L1052.2 550.7L1052.7 658.9L1053.1 637.6L1053.6 505L1054 569L1054.4 566L1054.9 581.2L1055.3 556.8L1055.8 541.6L1056.2 511.1L1056.7 598L1057.1 529.4L1057.6 605.6L1058 651.3L1058.4 616.3L1058.9 613.2L1059.3 573.6L1059.8 652.8L1060.2 628.5L1060.7 553.8L1061.1 617.8L1061.6 584.3L1062 561.4L1062.4 617.8L1062.9 601L1063.3 675.7L1063.8 511.1L1064.2 616.3L1064.7 623.9L1065.1 649.8L1065.6 523.3L1066 645.2L1066.4 594.9L1066.9 479.1L1067.3 492.8L1067.8 534L1068.2 581.2L1068.7 651.3L1069.1 534L1069.6 573.6L1070 567.5L1070.4 634.6L1070.9 569L1071.3 610.2L1071.8 474.5L1072.2 657.4L1072.7 497.4L1073.1 686.4L1073.6 593.4L1074 677.2L1074.4 642.2L1074.9 581.2L1075.3 616.3L1075.8 660.5L1076.2 561.4L1076.7 690.9L1077.1 521.8L1077.6 665L1078 662L1078.4 527.9L1078.9 570.6L1079.3 703.1L1079.8 634.6L1080.2 697L1080.7 561.4L1081.1 660.5L1081.6 538.6L1082 579.7L1082.4 642.2L1082.9 716.8L1083.3 719.9L1083.8 681.8L1084.2 567.5L1084.7 733.6L1085.1 706.2L1085.6 613.2L1086 710.8L1086.4 703.1L1086.9 634.6L1087.3 753.4L1087.8 540.1L1088.2 505L1088.7 660.5L1089.1 613.2L1089.6 646.7L1090 698.6L1090.4 668.1L1090.9 703.1L1091.3 657.4L1091.8 709.2L1092.2 690.9L1092.7 569L1093.1 727.5L1093.6 663.5L1094 655.9L1094.4 703.1L1094.9 701.6L1095.3 690.9L1095.8 735.1L1096.2 596.5L1096.7 733.6L1097.1 703.1L1097.6 759.5L1098 675.7L1098.4 658.9L1098.9 662L1099.3 694L1099.8 645.2L1100.2 712.3L1100.7 681.8L1101.1 690.9L1101.6 657.4L1102 596.5L1102.4 657.4L1102.9 662L1103.3 456.3L1103.8 579.7L1104.2 598L1104.7 681.8L1105.1 619.3L1105.6 520.3L1106 594.9L1106.4 645.2L1106.9 549.2L1107.3 680.3L1107.8 636.1L1108.2 645.2L1108.7 617.8L1109.1 655.9L1109.6 663.5L1110 706.2L1110.4 578.2L1110.9 540.1L1111.3 631.5L1111.8 692.5L1112.2 657.4L1112.7 645.2L1113.1 630L1113.6 601L1114 518.7L1114.4 646.7L1114.9 628.5L1115.3 652.8L1115.8 628.5L1116.2 547.7L1116.7 645.2L1117.1 549.2L1117.6 523.3L1118 561.4L1118.4 549.2L1118.9 623.9L1119.3 590.4L1119.8 535.5L1120.2 639.1L1120.7 562.9L1121.1 566L1121.6 587.3L1122 634.6L1122.4 619.3L1122.9 660.5L1123.3 558.4L1123.8 674.2L1124.2 585.8L1124.7 541.6L1125.1 585.8L1125.6 671.1L1126 716.8L1126.4 681.8L1126.9 646.7L1127.3 697L1127.8 648.3L1128.2 562.9L1128.7 668.1L1129.1 660.5L1129.6 713.8L1130 695.5L1130.4 665L1130.9 672.7L1131.3 738.2L1131.8 594.9L1132.2 675.7L1132.7 684.8L1133.1 712.3L1133.6 690.9L1134 674.2L1134.4 663.5L1134.9 625.4L1135.3 593.4L1135.8 701.6L1136.2 697L1136.7 753.4L1137.1 707.7L1137.6 709.2L1138 671.1L1138.4 684.8L1138.9 613.2L1139.3 736.7L1139.8 697L1140.2 726L1140.7 689.4L1141.1 710.8L1141.6 683.3L1142 710.8L1142.4 524.8L1142.9 710.8L1143.3 736.7L1143.8 770.2L1144.2 684.8L1144.7 710.8L1145.1 739.7L1145.6 759.5L1146 622.4L1146.4 756.5L1146.9 724.5L1147.3 744.3L1147.8 715.3L1148.2 703.1L1149.1 758L1149.6 630L1150 741.2L1150.4 745.8L1150.9 662L1151.3 730.6L1151.8 674.2L1152.2 726L1152.7 671.1L1153.1 633L1153.6 648.3L1154 735.1L1154.4 782.4L1154.9 495.9L1155.3 520.3L1155.8 605.6L1156.2 582.7L1156.7 489.8L1157.1 530.9L1157.6 579.7L1158 601L1158.4 553.8L1158.9 623.9L1159.3 562.9L1159.8 639.1L1160.2 497.4L1160.7 584.3L1161.1 396.8L1161.6 575.1L1162 428.8L1162.4 561.4L1162.9 556.8L1163.3 602.6L1163.8 459.3L1164.2 646.7L1164.7 622.4L1165.1 648.3L1165.6 594.9L1166 625.4L1166.4 604.1L1166.9 662L1167.3 508.1L1167.8 575.1L1168.2 593.4L1168.7 637.6L1169.1 614.7L1169.6 602.6L1170 526.4L1170.4 634.6L1170.9 530.9L1171.3 631.5L1171.8 604.1L1172.2 637.6L1172.7 544.6L1173.1 607.1L1173.6 649.8L1174 643.7L1174.4 505L1174.9 628.5L1175.3 559.9L1175.8 604.1L1176.2 573.6L1176.7 585.8L1177.1 581.2L1177.6 657.4L1178 534L1178.4 649.8L1178.9 605.6L1179.3 596.5L1179.8 581.2L1180.2 550.7L1180.7 628.5L1181.1 665L1181.6 428.8L1182 665L1182.4 631.5L1182.9 657.4L1183.3 643.7L1183.8 631.5L1184.2 591.9L1184.7 622.4L1185.1 520.3L1185.6 642.2L1186 626.9L1186.4 665L1186.9 623.9L1187.3 616.3L1187.8 666.6L1188.2 678.8L1188.7 477.6L1189.1 695.5L1189.6 527.9L1190 666.6L1190.4 549.2L1190.9 630L1191.3 540.1L1191.8 630L1192.2 512.6L1192.7 611.7L1193.1 633L1193.6 674.2L1194 683.3L1194.4 643.7L1194.9 669.6L1195.3 626.9L1195.8 593.4L1196.2 660.5L1196.7 631.5L1197.1 651.3L1197.6 626.9L1198 663.5L1198.4 668.1L1198.9 646.7L1199.3 523.3L1199.8 701.6L1200.2 646.7L1200.7 721.4L1201.1 706.2L1201.6 630L1202 619.3L1202.4 738.2L1202.9 454.7L1203.3 625.4L1203.8 701.6L1204.2 695.5L1204.7 662L1205.1 633L1205.6 733.6L1206 687.9L1206.4 483.7L1206.9 690.9L1207.3 710.8L1207.8 692.5L1208.2 687.9L1208.7 646.7L1209.1 698.6L1209.6 672.7L1210 628.5L1210.4 662L1210.9 709.2L1211.3 576.6L1211.8 745.8L1212.2 666.6L1212.7 735.1L1213.1 704.7L1213.6 678.8L1214 663.5L1214.4 750.4L1214.9 701.6L1215.3 770.2L1215.8 619.3L1216.2 729L1216.7 645.2L1217.1 605.6L1217.6 622.4L1218 666.6L1218.4 651.3L1218.9 639.1L1219.3 532.5L1219.8 657.4L1220.2 506.5L1220.7 553.8L1221.1 503.5L1221.6 620.8L1222 617.8L1222.4 678.8L1222.9 457.8L1223.3 494.4L1223.8 523.3L1224.2 552.3L1224.7 566L1225.1 704.7L1225.6 660.5L1226 700.1L1226.4 599.5L1226.9 692.5L1227.3 631.5L1227.8 569L1228.2 450.2L1228.7 636.1L1229.1 643.7L1229.6 663.5L1230 576.6L1230.4 683.3L1230.9 671.1L1231.3 572.1L1231.8 610.2L1232.2 652.8L1232.7 569L1233.1 655.9L1233.6 517.2L1234 681.8L1234.4 581.2L1234.9 559.9L1235.3 581.2L1235.8 680.3L1236.2 636.1L1236.7 671.1L1237.1 633L1237.6 651.3L1238 497.4L1238.4 611.7L1238.9 555.3L1239.3 674.2L1239.8 639.1L1240.2 684.8L1240.7 540.1L1241.1 671.1L1241.6 540.1L1242 591.9L1242.4 633L1242.9 648.3L1243.3 713.8L1243.8 690.9L1244.2 611.7L1244.7 713.8L1245.1 532.5L1245.6 604.1L1246 529.4L1246.4 703.1L1246.9 623.9L1247.3 671.1L1247.8 607.1L1248.2 683.3L1248.7 639.1L1249.1 630L1249.6 654.4L1250 704.7L1250.4 584.3L1250.9 722.9L1251.3 625.4L1251.8 706.2L1252.2 553.8L1252.7 637.6L1253.1 652.8L1253.6 727.5L1254 704.7L1254.4 713.8L1254.9 628.5L1255.3 727.5L1255.8 678.8L1256.2 602.6L1256.7 639.1L1257.1 718.4L1257.6 689.4L1258 719.9L1258.4 674.2L1258.9 722.9L1259.8 643.7L1260.2 721.4L1260.7 718.4L1261.1 694L1261.6 713.8L1262 665L1262.4 721.4L1263.3 648.3L1263.8 733.6L1264.2 739.7L1264.7 741.2L1265.1 748.9L1265.6 709.2L1266 741.2L1266.4 748.9L1266.9 654.4L1267.3 727.5L1267.8 695.5L1268.2 733.6L1268.7 680.3L1269.1 534L1269.6 742.8L1270 556.8L1270.4 381.6L1270.9 529.4L1271.3 547.7L1271.8 672.7L1272.2 532.5L1272.7 582.7L1273.1 630L1273.6 547.7L1274 526.4L1274.4 642.2L1274.9 601L1275.3 594.9L1275.8 453.2L1276.2 549.2L1277.1 495.9L1277.6 509.6L1278 645.2L1278.4 555.3L1278.9 549.2L1279.3 585.8L1279.8 566L1280.2 578.2L1280.7 547.7L1281.1 468.4L1281.6 626.9L1282 628.5L1282.4 642.2L1282.9 584.3L1283.3 508.1L1283.8 634.6L1284.2 613.2L1284.7 526.4L1285.1 620.8L1285.6 613.2L1286 626.9L1286.4 649.8L1286.9 556.8L1287.3 587.3L1287.8 657.4L1288.2 517.2L1288.7 648.3L1289.1 613.2L1289.6 643.7L1290 594.9L1290.4 463.9L1290.9 637.6L1291.3 658.9L1291.8 549.2L1292.2 675.7L1292.7 601L1293.1 689.4L1293.6 604.1L1294 534L1294.4 599.5L1294.9 660.5L1295.3 559.9L1295.8 642.2L1296.2 537L1296.7 662L1297.1 613.2L1297.6 573.6L1298 623.9L1298.4 672.7L1298.9 463.9L1299.3 684.8L1299.8 652.8L1300.2 561.4L1300.7 552.3L1301.1 604.1L1301.6 626.9L1302 561.4L1302.4 538.6L1302.9 687.9L1303.3 674.2L1303.8 695.5L1304.2 645.2L1304.7 506.5L1305.1 543.1L1305.6 572.1L1306 591.9L1306.4 672.7L1306.9 497.4L1307.3 669.6L1307.8 640.7L1308.2 622.4L1308.7 663.5L1309.1 503.5L1309.6 573.6L1310 715.3L1310.4 645.2L1310.9 514.2L1311.3 654.4L1311.8 651.3L1312.2 639.1L1312.7 686.4L1313.1 559.9L1313.6 575.1L1314 495.9L1314.4 735.1L1314.9 614.7L1315.3 550.7L1315.8 716.8L1316.2 695.5L1316.7 622.4L1317.1 733.6L1317.6 703.1L1318 710.8L1318.4 690.9L1318.9 663.5L1319.3 658.9L1319.8 721.4L1320.2 591.9L1320.7 729L1321.1 698.6L1321.6 750.4L1322 655.9L1322.4 623.9L1322.9 526.4L1323.3 715.3L1323.8 602.6L1324.2 584.3L1324.7 570.6L1325.1 765.6L1325.6 643.7L1326 694L1326.4 658.9L1326.9 748.9L1327.3 610.2L1327.8 780.9L1328.2 703.1L1328.7 738.2L1329.1 684.8L1329.6 619.3L1330 715.3L1330.4 741.2L1330.9 555.3L1331.3 716.8L1331.8 564.5L1332.2 675.7L1332.7 591.9L1333.1 695.5L1333.6 626.9L1334 646.7L1334.4 470L1334.9 654.4L1335.3 626.9L1335.8 655.9L1336.2 538.6L1336.7 591.9L1337.1 567.5L1337.6 665L1338 544.6L1338.4 677.2L1338.9 631.5L1339.3 506.5L1339.8 663.5L1340.2 489.8L1340.7 655.9L1341.1 665L1341.6 515.7L1342 645.2L1342.4 553.8L1342.9 672.7L1343.3 622.4L1343.8 616.3L1344.2 617.8L1344.7 652.8L1345.1 599.5L1345.6 643.7L1346 663.5L1346.9 658.9L1347.3 613.2L1348.2 668.1L1348.7 576.6L1349.1 701.6L1349.6 648.3L1350 671.1L1350.4 640.7L1350.9 617.8L1351.3 610.2L1351.8 681.8L1352.2 462.4L1352.7 686.4L1353.1 665L1353.6 674.2L1354 558.4L1354.4 643.7L1354.9 502L1355.3 593.4L1355.8 509.6L1356.2 698.6L1356.7 681.8L1357.1 701.6L1357.6 707.7L1358 587.3L1358.4 677.2L1358.9 675.7L1359.3 434.9L1359.8 690.9L1360.2 672.7L1360.7 695.5L1361.1 689.4L1361.6 643.7L1362 582.7L1362.4 678.8L1362.9 617.8L1363.3 709.2L1363.8 645.2L1364.2 710.8L1364.7 622.4L1365.1 694L1365.6 695.5L1366 694L1366.4 579.7L1366.9 698.6L1367.3 704.7L1367.8 710.8L1368.2 681.8L1368.7 613.2L1369.1 694L1369.6 658.9L1370 401.4L1370.4 727.5L1370.9 570.6L1371.3 704.7L1371.8 695.5L1372.2 678.8L1372.7 697L1373.1 703.1L1373.6 521.8L1374 738.2L1374.4 715.3L1374.9 745.8L1375.3 686.4L1375.8 703.1L1376.2 742.8L1376.7 754.9L1377.1 607.1L1377.6 736.7L1378 745.8L1378.4 753.4L1378.9 730.6L1379.3 700.1L1379.8 736.7L1380.2 675.7L1380.7 509.6L1381.1 678.8L1381.6 750.4L1382 738.2L1382.4 768.7L1382.9 684.8L1383.3 762.6L1383.8 663.5L1384.2 697L1384.7 773.2L1385.1 556.8L1385.6 594.9L1386 596.5L1386.4 541.6L1386.9 636.1L1387.3 520.3L1387.8 470L1388.2 480.6L1388.7 654.4L1389.1 628.5L1389.6 534L1390 566L1390.4 614.7L1390.9 562.9L1391.3 506.5L1391.8 569L1392.2 634.6L1392.7 572.1L1393.1 613.2L1393.6 534L1394 617.8L1394.4 541.6L1394.9 581.2L1395.3 598L1395.8 620.8L1396.2 523.3L1396.7 614.7L1397.1 575.1L1397.6 639.1L1398 483.7L1398.4 520.3L1398.9 625.4L1399.3 663.5L1399.8 617.8L1400.2 436.4L1400.7 587.3L1401.1 633L1401.6 584.3L1402 527.9L1402.4 604.1L1402.9 660.5L1403.3 645.2L1403.8 668.1L1404.2 523.3L1404.7 538.6L1405.1 601L1405.6 569L1406 614.7L1406.4 663.5L1406.9 634.6L1407.3 677.2L1407.8 567.5L1408.2 655.9L1408.7 637.6L1409.1 567.5L1409.6 625.4L1410 498.9L1410.4 652.8L1411.3 572.1L1411.8 596.5L1412.2 567.5L1412.7 479.1L1413.1 526.4L1413.6 666.6L1414 626.9L1414.4 575.1L1414.9 558.4L1415.3 665L1415.8 520.3L1416.2 614.7L1416.7 625.4L1417.1 692.5L1417.6 687.9L1418 616.3L1418.4 617.8L1418.9 588.8L1419.3 672.7L1419.8 613.2L1420.2 637.6L1420.7 535.5L1421.1 672.7L1421.6 695.5L1422 587.3L1422.4 675.7L1422.9 680.3L1423.3 599.5L1423.8 636.1L1424.2 700.1L1424.7 607.1L1425.1 697L1425.6 579.7L1426 619.3L1426.4 581.2L1426.9 570.6L1427.3 643.7L1427.8 718.4L1428.2 626.9L1428.7 684.8L1429.1 628.5L1429.6 742.8L1430 535.5L1430.4 628.5L1430.9 530.9L1431.3 730.6L1431.8 698.6L1432.2 648.3L1432.7 657.4L1433.1 748.9L1433.6 535.5L1434 523.3L1434.4 665L1434.9 770.2L1435.3 701.6L1435.8 750.4L1436.2 633L1436.7 756.5L1437.1 690.9L1437.6 591.9L1438 590.4L1438.4 719.9L1438.9 706.2L1439.3 758L1439.8 579.7L1440.2 669.6L1440.7 648.3L1441.1 689.4L1441.6 690.9L1442 770.2L1442.4 698.6L1442.9 721.4L1443.3 652.8L1443.8 671.1L1444.2 716.8L1444.7 643.7L1445.1 732.1L1445.6 774.8L1446 668.1L1446.4 716.8L1446.9 614.7L1447.3 741.2L1447.8 599.5L1448.2 607.1L1448.7 630L1449.1 625.4L1449.6 566L1450 628.5L1450.4 466.9L1450.9 639.1L1451.3 566L1451.8 544.6L1452.2 611.7L1452.7 687.9L1453.1 569L1453.6 550.7L1454 488.3L1454.4 567.5L1454.9 637.6L1455.3 613.2L1455.8 655.9L1456.2 697L1456.7 648.3L1457.1 690.9L1457.6 559.9L1458 657.4L1458.4 546.2L1458.9 549.2L1459.3 579.7L1459.8 642.2L1460.2 587.3L1460.7 651.3L1461.1 524.8L1461.6 668.1L1462 534L1462.4 553.8L1462.9 517.2L1463.3 668.1L1463.8 610.2L1464.2 694L1464.7 593.4L1465.1 689.4L1465.6 532.5L1466 598L1466.4 492.8L1466.9 694L1467.3 645.2L1467.8 690.9L1468.2 630L1468.7 680.3L1469.1 674.2L1469.6 590.4L1470 567.5L1470.4 651.3L1470.9 665L1471.3 690.9L1471.8 616.3L1472.2 674.2L1472.7 686.4L1473.1 599.5L1473.6 605.6L1474 686.4L1474.4 636.1L1474.9 675.7L1475.3 543.1L1475.8 648.3L1476.2 625.4L1476.7 613.2L1477.1 601L1477.6 645.2L1478 613.2L1478.4 689.4L1478.9 530.9L1479.3 709.2L1479.8 654.4L1480.2 616.3L1480.7 713.8L1481.1 712.3L1481.6 588.8L1482 722.9L1482.4 520.3L1482.9 718.4L1483.3 662L1483.8 630L1484.2 710.8L1484.7 727.5L1485.1 567.5L1485.6 690.9L1486 658.9L1486.4 719.9L1486.9 692.5L1487.3 637.6L1487.8 561.4L1488.2 703.1L1488.7 750.4L1489.1 736.7L1489.6 713.8L1490 722.9L1490.9 640.7L1491.3 686.4L1491.8 730.6L1492.2 758L1492.7 729L1493.1 648.3L1493.6 753.4L1494 759.5L1494.4 652.8L1494.9 721.4L1495.3 741.2L1495.8 764.1L1496.2 762.6L1496.7 686.4L1497.1 753.4L1497.6 758L1498 666.6L1498.4 744.3L1498.9 669.6L1499.3 785.4L1499.8 729L1500.2 730.6L1500.7 552.3L1501.1 622.4L1501.6 459.3L1502 601L1502.4 561.4L1502.9 652.8L1503.3 611.7L1503.8 616.3L1504.2 517.2L1504.7 581.2L1505.1 491.3L1505.6 616.3L1506 566L1506.4 622.4L1506.9 576.6L1507.3 476.1L1507.8 566L1508.2 587.3L1508.7 532.5L1509.6 489.8L1510 665L1510.4 497.4L1510.9 608.7L1511.3 604.1L1511.8 643.7L1512.2 415.1L1512.7 648.3L1513.1 573.6L1513.6 628.5L1514 594.9L1514.4 620.8L1514.9 599.5L1515.3 626.9L1515.8 527.9L1516.2 628.5L1516.7 561.4L1517.1 648.3L1517.6 614.7L1518 630L1518.4 569L1518.9 640.7L1519.3 509.6L1519.8 642.2L1520.2 573.6L1520.7 642.2L1521.1 631.5L1521.6 601L1522 620.8L1522.4 655.9L1522.9 550.7L1523.3 637.6L1523.8 651.3L1524.2 570.6L1524.7 520.3L1525.1 626.9L1525.6 625.4L1526 649.8L1526.4 582.7L1526.9 669.6L1527.3 655.9L1528.2 623.9L1528.7 639.1L1529.1 646.7L1529.6 652.8L1530 556.8L1530.4 651.3L1530.9 628.5L1531.3 666.6L1531.8 578.2L1532.2 623.9L1532.7 648.3L1533.1 671.1L1533.6 576.6L1534 654.4L1534.4 640.7L1534.9 665L1535.3 610.2L1535.8 625.4L1536.2 652.8L1536.7 671.1L1537.1 483.7L1537.6 527.9L1538 559.9L1538.4 646.7L1538.9 671.1L1539.3 631.5L1539.8 630L1540.2 674.2L1540.7 532.5L1541.1 678.8L1541.6 697L1542 674.2L1542.4 611.7L1542.9 651.3L1543.3 591.9L1543.8 573.6L1544.2 581.2L1544.7 692.5L1545.1 602.6L1545.6 710.8L1546 648.3L1546.4 687.9L1546.9 607.1L1547.3 732.1L1547.8 611.7L1548.2 754.9L1548.7 681.8L1549.1 684.8L1549.6 535.5L1550 569L1550.4 669.6L1550.9 622.4L1551.3 616.3L1551.8 698.6L1552.2 716.8L1552.7 622.4L1553.1 724.5L1553.6 675.7L1554 726L1554.4 697L1554.9 605.6L1555.3 704.7L1555.8 744.3L1556.2 671.1L1556.7 742.8L1557.1 658.9L1557.6 726L1558 645.2L1558.4 681.8L1559.3 724.5L1559.8 593.4L1560.2 648.3L1560.7 666.6L1561.1 637.6L1561.6 671.1L1562 582.7L1562.4 657.4L1562.9 631.5L1563.3 669.6L1563.8 695.5L1564.2 604.1L1564.7 553.8L1565.1 610.2L1565.6 585.8L1566 588.8L1566.4 672.7L1566.9 598L1567.3 671.1L1567.8 599.5L1568.2 651.3L1568.7 616.3L1569.1 457.8L1569.6 642.2L1570 613.2L1570.4 646.7L1570.9 666.6L1571.3 598L1571.8 482.2L1572.2 628.5L1572.7 591.9L1573.1 645.2L1573.6 700.1L1574 637.6L1574.4 706.2L1574.9 587.3L1575.3 683.3L1575.8 617.8L1576.2 579.7L1576.7 619.3L1577.1 681.8L1577.6 633L1578 710.8L1578.4 578.2L1578.9 594.9L1579.3 630L1579.8 546.2L1580.2 628.5L1580.7 703.1L1581.1 630L1581.6 695.5L1582 630L1582.4 584.3L1582.9 623.9L1583.3 611.7L1583.8 652.8L1584.2 672.7L1584.7 617.8L1585.1 689.4L1585.6 567.5L1586 576.6L1586.4 662L1586.9 439.5L1587.3 648.3L1587.8 678.8L1588.2 672.7L1588.7 613.2L1589.1 643.7L1589.6 733.6L1590 668.1L1590.4 637.6L1590.9 662L1591.3 729L1591.8 668.1L1592.2 631.5L1593.1 684.8L1593.6 646.7L1594 633L1594.4 669.6L1594.9 707.7L1595.3 645.2L1595.8 748.9L1596.2 614.7L1596.7 701.6L1597.1 660.5L1597.6 511.1L1598 678.8L1598.4 747.3L1598.9 687.9L1599.3 707.7L1599.8 613.2L1600.2 733.6L1600.7 672.7L1601.1 623.9L1601.6 630L1602 747.3L1602.4 715.3L1602.9 741.2L1603.3 602.6L1603.8 754.9L1604.2 724.5L1604.7 684.8L1605.1 616.3L1605.6 748.9L1606 709.2L1606.4 773.2L1606.9 672.7L1607.3 739.7L1607.8 710.8L1608.2 654.4L1608.7 722.9L1609.1 773.2L1609.6 690.9L1610 713.8L1610.4 655.9L1610.9 765.6L1611.3 744.3L1611.8 610.2L1612.2 718.4L1612.7 741.2L1613.1 729L1613.6 730.6L1614 646.7L1614.4 695.5L1614.9 735.1L1615.3 611.7L1615.8 549.2L1616.2 640.7L1616.7 601L1617.1 617.8L1617.6 562.9L1618 488.3L1618.4 579.7L1618.9 438L1619.3 498.9L1619.8 646.7L1620.2 471.5L1620.7 669.6L1621.1 505L1621.6 596.5L1622 468.4L1622.4 523.3L1622.9 602.6L1623.3 634.6L1623.8 582.7L1624.2 637.6L1624.7 561.4L1625.1 623.9L1625.6 626.9L1626 579.7L1626.4 648.3L1626.9 658.9L1627.3 588.8L1627.8 508.1L1628.2 453.2L1628.7 645.2L1629.1 593.4L1629.6 581.2L1630 630L1630.4 652.8L1630.9 576.6L1631.3 506.5L1631.8 549.2L1632.2 654.4L1632.7 622.4L1633.1 572.1L1633.6 559.9L1634 594.9L1634.4 655.9L1634.9 608.7L1635.3 544.6L1635.8 611.7L1636.2 581.2L1636.7 479.1L1637.1 622.4L1637.6 662L1638 639.1L1638.4 517.2L1638.9 523.3L1639.3 657.4L1639.8 649.8L1640.2 584.3L1640.7 622.4L1641.1 678.8L1641.6 633L1642 662L1642.4 431.9L1642.9 575.1L1643.3 500.5L1643.8 445.6L1644.2 488.3L1644.7 631.5L1645.1 605.6L1645.6 637.6L1646 511.1L1646.4 581.2L1646.9 591.9L1647.3 558.4L1647.8 616.3L1648.2 689.4L1648.7 703.1L1649.1 662L1649.6 489.8L1650 607.1L1650.4 540.1L1650.9 497.4L1651.3 573.6L1651.8 669.6L1652.2 572.1L1652.7 672.7L1653.1 477.6L1653.6 569L1654 623.9L1654.4 527.9L1654.9 558.4L1655.3 689.4L1655.8 538.6L1656.2 681.8L1656.7 553.8L1657.1 697L1657.6 715.3L1658 620.8L1658.4 562.9L1658.9 683.3L1659.3 591.9L1659.8 684.8L1660.2 625.4L1660.7 710.8L1661.1 704.7L1661.6 500.5L1662 736.7L1662.4 694L1662.9 587.3L1663.3 738.2L1663.8 649.8L1664.2 689.4L1664.7 654.4L1665.1 596.5L1665.6 710.8L1666 690.9L1666.4 706.2L1666.9 704.7L1667.3 695.5L1667.8 668.1L1668.2 727.5L1668.7 511.1L1669.1 713.8L1669.6 666.6L1670 741.2L1670.4 663.5L1670.9 654.4L1671.3 687.9L1671.8 712.3L1672.2 633L1672.7 764.1L1673.1 707.7L1673.6 745.8L1674 753.4L1674.4 698.6L1674.9 690.9L1675.3 759.5L1675.8 546.2L1676.2 674.2L1676.7 655.9L1677.1 694L1677.6 680.3L1678 622.4L1678.4 662L1678.9 692.5L1679.3 329.8L1679.8 636.1L1680.2 619.3L1680.7 637.6L1681.1 602.6L1681.6 633L1682 579.7L1682.4 454.7L1682.9 511.1L1683.3 671.1L1683.8 601L1684.2 532.5L1684.7 474.5L1685.1 578.2L1685.6 471.5L1686 660.5L1686.4 543.1L1686.9 658.9L1687.3 619.3L1687.8 646.7L1688.2 657.4L1688.7 520.3L1689.1 614.7L1689.6 622.4L1690 535.5L1690.4 669.6L1690.9 584.3L1691.3 683.3L1691.8 626.9L1692.2 465.4L1692.7 572.1L1693.1 700.1L1693.6 552.3L1694 594.9L1694.4 646.7L1694.9 683.3L1695.3 617.8L1695.8 537L1696.2 642.2L1696.7 502L1697.1 506.5L1697.6 567.5L1698 631.5L1698.4 657.4L1698.9 655.9L1699.3 515.7L1699.8 643.7L1700.2 690.9L1700.7 517.2L1701.1 578.2L1701.6 631.5L1702 655.9L1702.4 654.4L1702.9 640.7L1703.3 657.4L1703.8 727.5L1704.2 549.2L1704.7 706.2L1705.1 645.2L1705.6 727.5L1706 660.5L1706.4 517.2L1706.9 623.9L1707.3 694L1707.8 594.9L1708.2 729L1708.7 657.4L1709.1 692.5L1709.6 622.4L1710 668.1L1710.4 680.3L1710.9 741.2L1711.3 535.5L1711.8 707.7L1712.2 675.7L1712.7 724.5L1713.1 710.8L1713.6 706.2L1714 692.5L1714.4 747.3L1714.9 585.8L1715.3 718.4L1715.8 694L1716.2 762.6L1716.7 719.9L1717.1 718.4L1717.6 634.6L1718 738.2L1718.4 570.6L1718.9 709.2L1719.3 662L1719.8 758L1720.2 736.7L1720.7 687.9L1721.1 662L1721.6 750.4L1722 610.2L1722.4 748.9L1722.9 712.3L1723.3 747.3L1723.8 726L1724.2 719.9L1724.7 716.8L1725.1 742.8L1725.6 610.2L1726 735.1L1726.4 718.4L1726.9 756.5L1727.3 710.8L1727.8 751.9L1728.2 721.4L1728.7 716.8L1729.1 623.9L1729.6 651.3L1730 738.2L1730.4 657.4L1730.9 444.1L1731.3 406L1731.8 498.9L1732.2 562.9L1732.7 508.1L1733.1 509.6L1733.6 579.7L1734 622.4L1734.4 526.4L1734.9 622.4L1735.3 558.4L1735.8 576.6L1736.2 444.1L1736.7 626.9L1737.1 514.2L1737.6 495.9L1738 543.1L1738.4 495.9L1738.9 553.8L1739.3 593.4L1739.8 494.4L1740.2 649.8L1740.7 622.4L1741.1 634.6L1741.6 593.4L1742 607.1L1742.4 594.9L1742.9 636.1L1743.3 517.2L1743.8 628.5L1744.2 599.5L1744.7 614.7L1745.1 623.9L1745.6 581.2L1746 598L1746.4 684.8L1746.9 514.2L1747.3 611.7L1747.8 626.9L1748.2 663.5L1748.7 436.4L1749.1 646.7L1749.6 622.4L1750 604.1L1750.4 535.5L1750.9 657.4L1751.3 622.4L1751.8 642.2L1752.2 620.8L1752.7 633L1753.1 594.9L1753.6 654.4L1754 511.1L1754.4 631.5L1754.9 625.4L1755.3 530.9L1755.8 639.1L1756.2 549.2L1756.7 628.5L1757.1 620.8L1757.6 462.4L1758 569L1758.4 534L1758.9 590.4L1759.3 630L1759.8 607.1L1760.2 608.7L1760.7 675.7L1761.1 584.3L1761.6 602.6L1762 655.9L1762.4 636.1L1762.9 655.9L1763.3 651.3L1763.8 672.7L1764.2 666.6L1764.7 517.2L1765.1 633L1765.6 591.9L1766 636.1L1766.4 642.2L1766.9 633L1767.3 442.5L1767.8 649.8L1768.2 444.1L1768.7 658.9L1769.1 626.9L1769.6 640.7L1770 657.4L1770.4 649.8L1770.9 645.2L1771.3 625.4L1771.8 485.2L1772.2 672.7L1772.7 626.9L1773.1 668.1L1773.6 598L1774 677.2L1774.4 684.8L1774.9 692.5L1775.3 521.8L1775.8 733.6L1776.2 692.5L1776.7 745.8L1777.1 732.1L1777.6 579.7L1778 669.6L1778.4 718.4L1778.9 520.3L1779.3 660.5L1779.8 604.1L1780.2 633L1780.7 628.5L1781.1 584.3L1781.6 719.9L1782 628.5L1782.4 561.4L1782.9 646.7L1783.3 712.3L1783.8 684.8L1784.2 671.1L1784.7 660.5L1785.1 747.3L1785.6 662L1786 666.6L1786.4 713.8L1786.9 733.6L1787.3 690.9L1787.8 700.1L1788.2 588.8L1788.7 729L1789.1 607.1L1789.6 639.1L1790 637.6L1790.4 764.1L1790.9 596.5L1791.3 703.1L1791.8 599.5L1792.2 655.9L1792.7 660.5L1793.1 555.3L1793.6 639.1L1794 671.1L1794.4 613.2L1794.9 648.3L1795.3 549.2L1795.8 630L1796.2 590.4L1796.7 444.1L1797.1 611.7L1797.6 625.4L1798 628.5L1798.4 652.8L1798.9 575.1L1799.3 651.3L1799.8 482.2" fill="transparent" stroke="#3fb1e3" stroke-width="3" stroke-linejoin="bevel" class="zr19-cls-59"></path>
</g>
<path d="M-288.6 -5l577.2 0l0 28l-577.2 0Z" transform="translate(1000 5)" fill="rgb(0,0,0)" fill-opacity="0" stroke="#ccc" stroke-width="0" class="zr19-cls-57"></path>
<text dominant-baseline="central" text-anchor="middle" style="font-size:18px;font-family:sans-serif;font-weight:bold;" xml:space="preserve" y="9" transform="translate(1000 5)" fill="#666666">Min transportLinesUpdate per Tick for benchmark_biolab_synchronous</text>
<defs >
<clipPath id="zr19-c0">
<path d="M198 58.5l16004 0l0 8703l-16004 0Z" fill="#000" class="zr19-cls-58"></path>
</clipPath>
</defs>
<style ><![CDATA[
.zr19-cls-57:hover {
pointer-events:none;
}
.zr19-cls-58:hover {
cursor:pointer;
fill:rgba(0,0,0,1);
}
.zr19-cls-59:hover {
cursor:pointer;
}

]]>

</style>
</svg>