<svg width="2000" height="1000" xmlns="http://www.w3.org/2000/svg" xmlns:xlink="http://www.w3.org/1999/xlink" version="1.1" baseProfile="full" viewBox="0 0 2000 1000">
<rect width="2000" height="1000" x="0" y="0" fill="rgb(252,252,252)" fill-opacity="0"></rect>
<path d="M200 930.5L1800 930.5" fill="transparent" stroke="#eeeeee" class="zr21-cls-63"></path>
<path d="M200 826.5L1800 826.5" fill="transparent" stroke="#eeeeee" class="zr21-cls-63"></path>
<path d="M200 605.5L1800 605.5" fill="transparent" stroke="#eeeeee" class="zr21-cls-63"></path>
<path d="M200 384.5L1800 384.5" fill="transparent" stroke="#eeeeee" class="zr21-cls-63"></path>
<path d="M200 164.5L1800 164.5" fill="transparent" stroke="#eeeeee" class="zr21-cls-63"></path>
<path d="M200 60.5L1800 60.5" fill="transparent" stroke="#eeeeee" class="zr21-cls-63"></path>
<path d="M200.5 930L200.5 60" fill="transparent" stroke="#cccccc" stroke-linecap="round" class="zr21-cls-63"></path>
<text dominant-baseline="central" text-anchor="middle" style="font-size:12px;font-family:sans-serif;" xml:space="preserve" y="-6" transform="translate(200 45)" fill="#cccccc">Min controlBehaviorUpdate Time (ms)</text>
<path d="M200 930.5L1800 930.5" fill="transparent" stroke="#cccccc" stroke-linecap="round" class="zr21-cls-63"></path>
<text dominant-baseline="central" text-anchor="end" style="font-size:12px;font-family:sans-serif;" transform="translate(192 930)" fill="#999999">0.011</text>
<text dominant-baseline="central" text-anchor="end" style="font-size:12px;font-family:sans-serif;" transform="translate(192 826.0185)" fill="#999999">0.020</text>
<text dominant-baseline="central" text-anchor="end" style="font-size:12px;font-family:sans-serif;" transform="translate(192 605.2945)" fill="#999999">0.040</text>
<text dominant-baseline="central" text-anchor="end" style="font-size:12px;font-family:sans-serif;" transform="translate(192 384.5705)" fill="#999999">0.060</text>
<text dominant-baseline="central" text-anchor="end" style="font-size:12px;font-family:sans-serif;" transform="translate(192 163.8464)" fill="#999999">0.080</text>
<text dominant-baseline="central" text-anchor="end" style="font-size:12px;font-family:sans-serif;" transform="translate(192 60)" fill="#999999">0.089</text>
<text dominant-baseline="central" text-anchor="middle" style="font-size:12px;font-family:sans-serif;" y="6" transform="translate(200.2222 938)" fill="#999999">0</text>
<text dominant-baseline="central" text-anchor="middle" style="font-size:12px;font-family:sans-serif;" y="6" transform="translate(235.3333 938)" fill="#999999">79</text>
<text dominant-baseline="central" text-anchor="middle" style="font-size:12px;font-family:sans-serif;" y="6" transform="translate(270.4444 938)" fill="#999999">158</text>
<text dominant-baseline="central" text-anchor="middle" style="font-size:12px;font-family:sans-serif;" y="6" transform="translate(305.5556 938)" fill="#999999">237</text>
<text dominant-baseline="central" text-anchor="middle" style="font-size:12px;font-family:sans-serif;" y="6" transform="translate(340.6667 938)" fill="#999999">316</text>
<text dominant-baseline="central" text-anchor="middle" style="font-size:12px;font-family:sans-serif;" y="6" transform="translate(375.7778 938)" fill="#999999">395</text>
<text dominant-baseline="central" text-anchor="middle" style="font-size:12px;font-family:sans-serif;" y="6" transform="translate(410.8889 938)" fill="#999999">474</text>
<text dominant-baseline="central" text-anchor="middle" style="font-size:12px;font-family:sans-serif;" y="6" transform="translate(446 938)" fill="#999999">553</text>
<text dominant-baseline="central" text-anchor="middle" style="font-size:12px;font-family:sans-serif;" y="6" transform="translate(481.1111 938)" fill="#999999">632</text>
<text dominant-baseline="central" text-anchor="middle" style="font-size:12px;font-family:sans-serif;" y="6" transform="translate(516.2222 938)" fill="#999999">711</text>
<text dominant-baseline="central" text-anchor="middle" style="font-size:12px;font-family:sans-serif;" y="6" transform="translate(551.3333 938)" fill="#999999">790</text>
<text dominant-baseline="central" text-anchor="middle" style="font-size:12px;font-family:sans-serif;" y="6" transform="translate(586.4444 938)" fill="#999999">869</text>
<text dominant-baseline="central" text-anchor="middle" style="font-size:12px;font-family:sans-serif;" y="6" transform="translate(621.5556 938)" fill="#999999">948</text>
<text dominant-baseline="central" text-anchor="middle" style="font-size:12px;font-family:sans-serif;" y="6" transform="translate(656.6667 938)" fill="#999999">1027</text>
<text dominant-baseline="central" text-anchor="middle" style="font-size:12px;font-family:sans-serif;" y="6" transform="translate(691.7778 938)" fill="#999999">1106</text>
<text dominant-baseline="central" text-anchor="middle" style="font-size:12px;font-family:sans-serif;" y="6" transform="translate(726.8889 938)" fill="#999999">1185</text>
<text dominant-baseline="central" text-anchor="middle" style="font-size:12px;font-family:sans-serif;" y="6" transform="translate(762 938)" fill="#999999">1264</text>
<text dominant-baseline="central" text-anchor="middle" style="font-size:12px;font-family:sans-serif;" y="6" transform="translate(797.1111 938)" fill="#999999">1343</text>
<text dominant-baseline="central" text-anchor="middle" style="font-size:12px;font-family:sans-serif;" y="6" transform="translate(832.2222 938)" fill="#999999">1422</text>
<text dominant-baseline="central" text-anchor="middle" style="font-size:12px;font-family:sans-serif;" y="6" transform="translate(867.3333 938)" fill="#999999">1501</text>
<text dominant-baseline="central" text-anchor="middle" style="font-size:12px;font-family:sans-serif;" y="6" transform="translate(902.4444 938)" fill="#999999">1580</text>
<text dominant-baseline="central" text-anchor="middle" style="font-size:12px;font-family:sans-serif;" y="6" transform="translate(937.5556 938)" fill="#999999">1659</text>
<text dominant-baseline="central" text-anchor="middle" style="font-size:12px;font-family:sans-serif;" y="6" transform="translate(972.6667 938)" fill="#999999">1738</text>
<text dominant-baseline="central" text-anchor="middle" style="font-size:12px;font-family:sans-serif;" y="6" transform="translate(1007.7778 938)" fill="#999999">1817</text>
<text dominant-baseline="central" text-anchor="middle" style="font-size:12px;font-family:sans-serif;" y="6" transform="translate(1042.8889 938)" fill="#999999">1896</text>
<text dominant-baseline="central" text-anchor="middle" style="font-size:12px;font-family:sans-serif;" y="6" transform="translate(1078 938)" fill="#999999">1975</text>
<text dominant-baseline="central" text-anchor="middle" style="font-size:12px;font-family:sans-serif;" y="6" transform="translate(1113.1111 938)" fill="#999999">2054</text>
<text dominant-baseline="central" text-anchor="middle" style="font-size:12px;font-family:sans-serif;" y="6" transform="translate(1148.2222 938)" fill="#999999">2133</text>
<text dominant-baseline="central" text-anchor="middle" style="font-size:12px;font-family:sans-serif;" y="6" transform="translate(1183.3333 938)" fill="#999999">2212</text>
<text dominant-baseline="central" text-anchor="middle" style="font-size:12px;font-family:sans-serif;" y="6" transform="translate(1218.4444 938)" fill="#999999">2291</text>
<text dominant-baseline="central" text-anchor="middle" style="font-size:12px;font-family:sans-serif;" y="6" transform="translate(1253.5556 938)" fill="#999999">2370</text>
<text dominant-baseline="central" text-anchor="middle" style="font-size:12px;font-family:sans-serif;" y="6" transform="translate(1288.6667 938)" fill="#999999">2449</text>
<text dominant-baseline="central" text-anchor="middle" style="font-size:12px;font-family:sans-serif;" y="6" transform="translate(1323.7778 938)" fill="#999999">2528</text>
<text dominant-baseline="central" text-anchor="middle" style="font-size:12px;font-family:sans-serif;" y="6" transform="translate(1358.8889 938)" fill="#999999">2607</text>
<text dominant-baseline="central" text-anchor="middle" style="font-size:12px;font-family:sans-serif;" y="6" transform="translate(1394 938)" fill="#999999">2686</text>
<text dominant-baseline="central" text-anchor="middle" style="font-size:12px;font-family:sans-serif;" y="6" transform="translate(1429.1111 938)" fill="#999999">2765</text>
<text dominant-baseline="central" text-anchor="middle" style="font-size:12px;font-family:sans-serif;" y="6" transform="translate(1464.2222 938)" fill="#999999">2844</text>
<text dominant-baseline="central" text-anchor="middle" style="font-size:12px;font-family:sans-serif;" y="6" transform="translate(1499.3333 938)" fill="#999999">2923</text>
<text dominant-baseline="central" text-anchor="middle" style="font-size:12px;font-family:sans-serif;" y="6" transform="translate(1534.4444 938)" fill="#999999">3002</text>
<text dominant-baseline="central" text-anchor="middle" style="font-size:12px;font-family:sans-serif;" y="6" transform="translate(1569.5556 938)" fill="#999999">3081</text>
<text dominant-baseline="central" text-anchor="middle" style="font-size:12px;font-family:sans-serif;" y="6" transform="translate(1604.6667 938)" fill="#999999">3160</text>
<text dominant-baseline="central" text-anchor="middle" style="font-size:12px;font-family:sans-serif;" y="6" transform="translate(1639.7778 938)" fill="#999999">3239</text>
<text dominant-baseline="central" text-anchor="middle" style="font-size:12px;font-family:sans-serif;" y="6" transform="translate(1674.8889 938)" fill="#999999">3318</text>
<text dominant-baseline="central" text-anchor="middle" style="font-size:12px;font-family:sans-serif;" y="6" transform="translate(1710 938)" fill="#999999">3397</text>
<text dominant-baseline="central" text-anchor="middle" style="font-size:12px;font-family:sans-serif;" y="6" transform="translate(1745.1111 938)" fill="#999999">3476</text>
<text dominant-baseline="central" text-anchor="middle" style="font-size:12px;font-family:sans-serif;" y="6" transform="translate(1780.2222 938)" fill="#999999">3555</text>
<g clip-path="url(#zr21-c0)">
<path d="M200.2 -413.3L200.7 561.1L201.1 593.2L201.6 618.5L202 617.4L202.4 521.4L202.9 482.8L203.3 511.5L203.8 485L204.2 555.6L204.7 543.5L205.1 478.4L205.6 538L206 477.3L206.4 579.9L206.9 595.4L207.3 551.2L207.8 594.3L208.2 497.1L208.7 577.7L209.1 566.7L209.6 662.7L210 510.4L210.4 636.2L210.9 634L211.3 564.5L211.8 504.9L212.2 566.7L212.7 595.4L213.1 571.1L213.6 557.8L214 493.8L214.4 511.5L214.9 583.2L215.3 590.9L215.8 519.2L216.2 568.9L216.7 477.3L217.1 535.8L217.6 575.5L218 658.3L218.4 485L218.9 577.7L219.3 502.7L219.8 529.1L220.2 555.6L220.7 539.1L221.1 455.2L221.6 490.5L222 639.5L222.4 579.9L222.9 544.6L223.3 684.8L223.8 549L224.2 550.1L224.7 568.9L225.1 547.9L225.6 657.2L226 584.3L226.4 635.1L226.9 570L227.3 657.2L227.8 570L228.2 575.5L228.7 611.9L229.1 595.4L229.6 687L230 532.5L230.4 662.7L230.9 557.8L231.3 532.5L231.8 544.6L232.2 466.2L232.7 -2696.7L233.1 406.6L233.6 453L234 337.1L234.4 290.8L234.9 504.9L235.3 439.8L235.8 137.4L236.2 180.4L236.7 523.6L237.1 679.2L237.6 504.9L238 587.6L238.4 586.5L238.9 639.5L239.3 579.9L239.8 538L240.2 531.4L240.7 522.5L241.1 599.8L241.6 545.7L242 582.1L242.4 557.8L242.9 547.9L243.3 567.8L243.8 557.8L244.2 507.1L244.7 619.6L245.1 549L245.6 530.2L246 561.1L246.4 553.4L246.9 615.2L247.8 557.8L248.2 529.1L248.7 593.2L249.1 589.8L249.6 629.6L250 582.1L250.4 521.4L250.9 650.5L251.3 585.4L251.8 653.9L252.2 565.6L252.7 533.6L253.1 640.6L253.6 620.7L254 517L254.4 541.3L254.9 599.8L255.3 560L255.8 672.6L256.2 664.9L256.7 544.6L257.1 563.4L257.6 701.3L258 471.8L258.4 578.8L258.9 656.1L259.3 532.5L259.8 609.7L260.2 533.6L260.7 552.3L261.1 620.7L261.6 531.4L262 623L262.4 652.8L262.9 577.7L263.3 542.4L263.8 492.7L264.2 556.7L264.7 563.4L265.1 669.3L265.6 536.9L266 587.6L266.4 525.8L266.9 529.1L267.3 574.4L267.8 567.8L268.2 592.1L268.7 660.5L269.1 564.5L269.6 616.3L270 560L270.4 585.4L270.9 534.7L271.3 524.7L271.8 558.9L272.2 515.9L272.7 589.8L273.1 550.1L273.6 614.1L274 651.6L274.4 528L274.9 698L275.3 638.4L275.8 551.2L276.2 529.1L276.7 507.1L277.1 681.4L277.6 565.6L278 595.4L278.4 553.4L278.9 650.5L279.3 572.2L279.8 616.3L280.2 602L280.7 587.6L281.1 534.7L281.6 573.3L282 616.3L282.4 558.9L282.9 551.2L283.3 594.3L283.8 646.1L284.2 675.9L284.7 547.9L285.1 478.4L285.6 570L286 562.3L286.4 567.8L286.9 608.6L287.3 566.7L287.8 575.5L288.2 534.7L288.7 558.9L289.1 552.3L289.6 530.2L290 582.1L290.4 571.1L290.9 551.2L291.3 555.6L291.8 576.6L292.2 615.2L292.7 598.7L293.1 -829.4L293.6 406.6L294 365.8L294.4 432L294.9 437.5L295.8 607.5L296.2 305.1L296.7 123L297.1 -78.9L297.6 433.1L298 471.8L298.4 333.8L298.9 571.1L299.3 504.9L299.8 549L300.2 315L300.7 498.2L301.1 675.9L301.6 629.6L302 539.1L302.4 646.1L302.9 509.3L303.3 530.2L303.8 668.2L304.2 479.5L304.7 501.6L305.1 587.6L305.6 524.7L306 589.8L306.4 563.4L306.9 529.1L307.3 522.5L307.8 593.2L308.2 579.9L308.7 643.9L309.1 561.1L309.6 520.3L310 634L310.4 571.1L310.9 589.8L311.3 535.8L311.8 595.4L312.2 511.5L312.7 543.5L313.1 638.4L313.6 574.4L314 562.3L314.4 611.9L314.9 553.4L315.3 662.7L315.8 656.1L316.2 546.8L316.7 660.5L317.1 556.7L317.6 607.5L318 519.2L318.4 608.6L318.9 711.2L319.3 514.8L319.8 494.9L320.2 540.2L320.7 506L321.1 568.9L321.6 551.2L322 674.8L322.4 694.7L322.9 606.4L323.3 589.8L323.8 594.3L324.2 617.4L324.7 681.4L325.1 618.5L325.6 546.8L326 562.3L326.4 541.3L326.9 640.6L327.3 620.7L327.8 568.9L328.2 547.9L328.7 462.9L329.1 521.4L329.6 584.3L330 649.4L330.4 595.4L331.3 652.8L331.8 546.8L332.2 615.2L332.7 667.1L333.1 625.2L333.6 637.3L334 606.4L334.4 692.5L334.9 482.8L335.3 643.9L335.8 564.5L336.2 664.9L336.7 507.1L337.1 677L337.6 532.5L338 557.8L338.4 532.5L338.9 549L339.3 507.1L339.8 578.8L340.2 571.1L340.7 586.5L341.1 640.6L341.6 618.5L342 627.4L342.4 583.2L342.9 545.7L343.3 619.6L343.8 583.2L344.2 687L344.7 563.4L345.1 607.5L345.6 636.2L346 574.4L346.4 512.6L346.9 551.2L347.3 490.5L347.8 -848.2L348.2 370.2L348.7 279.7L349.1 361.4L349.6 393.4L350 509.3L350.4 511.5L350.9 188.1L351.3 257.7L351.8 553.4L352.2 434.2L352.7 574.4L353.1 593.2L353.6 461.8L354 545.7L354.4 640.6L354.9 685.9L355.3 544.6L355.8 647.2L356.2 582.1L356.7 509.3L357.1 553.4L357.6 550.1L358 582.1L358.4 563.4L358.9 603.1L359.3 592.1L359.8 579.9L360.2 486.1L360.7 590.9L361.1 611.9L361.6 550.1L362.4 538L362.9 605.3L363.3 606.4L363.8 594.3L364.2 720.1L364.7 578.8L365.1 545.7L365.6 549L366 595.4L366.4 594.3L366.9 616.3L367.3 501.6L367.8 600.9L368.2 571.1L368.7 618.5L369.1 522.5L369.6 576.6L370 629.6L370.4 699.1L370.9 581L371.3 664.9L371.8 584.3L372.2 561.1L372.7 628.5L373.1 538L373.6 631.8L374 638.4L374.4 503.8L374.9 646.1L375.3 618.5L375.8 621.8L376.2 555.6L376.7 535.8L377.1 571.1L377.6 602L378 691.4L378.4 508.2L378.9 677L379.3 664.9L379.8 620.7L380.2 546.8L380.7 617.4L381.1 599.8L381.6 573.3L382 639.5L382.4 589.8L382.9 631.8L383.3 576.6L383.8 553.4L384.2 631.8L384.7 683.7L385.1 544.6L385.6 583.2L386 568.9L386.4 529.1L386.9 624.1L387.3 497.1L387.8 566.7L388.2 504.9L388.7 643.9L389.1 623L389.6 503.8L390 608.6L390.4 488.3L390.9 550.1L391.3 572.2L391.8 619.6L392.2 486.1L392.7 534.7L393.1 525.8L393.6 502.7L394 593.2L394.4 568.9L394.9 589.8L395.3 520.3L395.8 557.8L396.2 625.2L396.7 513.7L397.1 595.4L397.6 511.5L398 530.2L398.4 587.6L398.9 667.1L399.3 564.5L399.8 566.7L400.2 533.6L400.7 529.1L401.1 605.3L401.6 589.8L402 575.5L402.4 587.6L402.9 624.1L403.8 507.1L404.2 640.6L404.7 604.2L405.1 560L405.6 542.4L406 530.2L406.4 479.5L406.9 619.6L407.3 583.2L407.8 553.4L408.2 -414.5L408.7 423.2L409.1 393.4L409.6 375.7L410 342.6L410.4 652.8L410.9 443.1L411.3 287.5L411.8 251L412.2 -24.9L412.7 551.2L413.1 368L413.6 541.3L414 533.6L414.4 577.7L414.9 536.9L415.3 380.2L415.8 538L416.2 600.9L416.7 664.9L417.1 611.9L417.6 574.4L418 590.9L418.4 630.7L418.9 571.1L419.3 517L419.8 586.5L420.2 661.6L420.7 592.1L421.1 604.2L421.6 689.2L422 487.2L422.4 570L422.9 518.1L423.3 570L423.8 518.1L424.2 514.8L424.7 459.6L425.1 531.4L425.6 550.1L426 534.7L426.4 566.7L426.9 522.5L427.3 563.4L427.8 618.5L428.2 604.2L428.7 605.3L429.1 562.3L429.6 568.9L430 638.4L430.4 583.2L431.3 578.8L431.8 521.4L432.2 531.4L432.7 550.1L433.1 653.9L433.6 656.1L434 562.3L434.4 557.8L434.9 583.2L435.3 549L435.8 598.7L436.2 550.1L436.7 597.6L437.1 659.4L437.6 525.8L438 480.6L438.4 540.2L438.9 558.9L439.3 530.2L439.8 564.5L440.2 680.3L440.7 614.1L441.1 611.9L441.6 573.3L442 614.1L442.4 526.9L442.9 519.2L443.3 592.1L443.8 595.4L444.2 618.5L444.7 628.5L445.6 605.3L446 562.3L446.4 668.2L446.9 573.3L447.3 623L447.8 573.3L448.2 522.5L448.7 595.4L449.1 700.2L449.6 616.3L450 582.1L450.4 575.5L450.9 595.4L451.3 511.5L451.8 567.8L452.2 542.4L452.7 586.5L453.1 582.1L453.6 578.8L454 645L454.4 556.7L454.9 581L455.3 642.8L455.8 504.9L456.2 660.5L456.7 636.2L457.1 577.7L457.6 507.1L458 613L458.4 598.7L458.9 671.5L459.3 586.5L459.8 641.7L460.2 617.4L460.7 614.1L461.1 603.1L461.6 530.2L462 606.4L462.4 507.1L462.9 -1113L463.3 372.4L463.8 445.3L464.2 423.2L464.7 410L465.1 485L465.6 522.5L466 267.6L466.4 179.3L466.9 481.7L467.3 565.6L467.8 604.2L468.2 627.4L468.7 690.3L469.1 586.5L469.6 660.5L470 563.4L470.4 642.8L470.9 445.3L471.3 526.9L471.8 483.9L472.2 639.5L472.7 621.8L473.1 626.3L473.6 680.3L474 597.6L474.4 564.5L474.9 673.7L475.3 500.5L475.8 581L476.2 670.4L477.1 518.1L477.6 553.4L478 642.8L478.4 513.7L478.9 563.4L479.3 589.8L479.8 587.6L480.2 524.7L480.7 701.3L481.1 562.3L481.6 693.6L482 595.4L482.4 575.5L482.9 679.2L483.3 680.3L483.8 655L484.2 604.2L484.7 690.3L485.1 605.3L485.6 562.3L486 539.1L486.4 540.2L486.9 508.2L487.3 535.8L487.8 593.2L488.2 585.4L488.7 539.1L489.1 551.2L489.6 579.9L490 587.6L490.4 598.7L490.9 658.3L491.3 552.3L491.8 662.7L492.2 674.8L492.7 582.1L493.1 592.1L493.6 581L494 494.9L494.4 623L494.9 561.1L495.3 536.9L495.8 635.1L496.2 566.7L496.7 621.8L497.1 590.9L497.6 614.1L498 592.1L498.4 568.9L498.9 683.7L499.3 575.5L499.8 645L500.2 509.3L500.7 481.7L501.1 501.6L501.6 560L502 704.6L502.4 596.5L502.9 562.3L503.3 590.9L503.8 566.7L504.2 616.3L504.7 593.2L505.1 572.2L505.6 599.8L506 567.8L506.4 581L506.9 566.7L507.3 652.8L507.8 590.9L508.2 572.2L508.7 598.7L509.1 575.5L509.6 669.3L510 553.4L510.4 582.1L510.9 579.9L511.3 557.8L511.8 561.1L512.2 596.5L512.7 545.7L513.1 635.1L513.6 594.3L514 692.5L514.4 561.1L514.9 536.9L515.3 581L515.8 562.3L516.2 579.9L516.7 652.8L517.1 610.8L517.6 595.4L518 624.1L518.4 587.6L518.9 514.8L519.3 616.3L519.8 625.2L520.2 578.8L520.7 566.7L521.1 595.4L522 554.5L522.4 604.2L522.9 582.1L523.3 588.7L523.8 -347.1L524.2 426.5L524.7 456.3L525.1 344.8L525.6 365.8L526 585.4L526.4 607.5L526.9 326.1L527.3 205.8L527.8 52.4L528.2 511.5L528.7 532.5L529.1 493.8L529.6 482.8L530 539.1L530.4 632.9L530.9 316.1L531.3 567.8L531.8 530.2L532.2 568.9L532.7 583.2L533.1 582.1L533.6 679.2L534 620.7L534.4 556.7L534.9 588.7L535.3 592.1L535.8 687L536.2 625.2L536.7 587.6L537.1 565.6L537.6 589.8L538 509.3L538.4 528L538.9 667.1L539.3 560L539.8 535.8L540.2 540.2L540.7 605.3L541.1 662.7L541.6 642.8L542 671.5L542.4 625.2L542.9 564.5L543.3 604.2L543.8 578.8L544.2 610.8L544.7 552.3L545.1 615.2L545.6 596.5L546 544.6L546.4 594.3L546.9 563.4L547.3 515.9L547.8 646.1L548.2 619.6L548.7 595.4L549.1 603.1L549.6 600.9L550 544.6L550.4 528L550.9 618.5L551.3 595.4L551.8 534.7L552.2 673.7L552.7 563.4L553.1 691.4L553.6 621.8L554 582.1L554.4 524.7L554.9 593.2L555.3 555.6L555.8 602L556.2 641.7L556.7 596.5L557.1 613L557.6 542.4L558 562.3L558.4 618.5L558.9 540.2L559.3 611.9L559.8 470.7L560.2 571.1L560.7 619.6L561.1 547.9L561.6 556.7L562 587.6L562.4 571.1L562.9 560L563.3 659.4L563.8 564.5L564.2 568.9L564.7 607.5L565.1 515.9L565.6 585.4L566 563.4L566.4 543.5L566.9 671.5L567.3 698L567.8 603.1L568.2 611.9L568.7 497.1L569.1 693.6L569.6 543.5L570 513.7L570.4 524.7L570.9 560L571.3 587.6L571.8 562.3L572.2 451.9L572.7 481.7L573.1 608.6L573.6 630.7L574 575.5L574.4 582.1L574.9 552.3L575.3 632.9L575.8 663.8L576.2 701.3L576.7 576.6L577.1 685.9L577.6 486.1L578 -1040.2L578.4 451.9L578.9 328.3L579.3 365.8L579.8 440.9L580.2 512.6L580.7 493.8L581.1 283L581.6 129.6L582 584.3L582.4 562.3L582.9 652.8L583.3 524.7L583.8 619.6L584.2 539.1L584.7 544.6L585.1 563.4L585.6 556.7L586 498.2L586.4 485L586.9 656.1L587.3 497.1L587.8 526.9L588.2 613L588.7 542.4L589.1 620.7L589.6 684.8L590 493.8L590.4 561.1L590.9 596.5L591.3 578.8L591.8 553.4L592.2 572.2L592.7 608.6L593.1 662.7L593.6 542.4L594 615.2L594.4 635.1L594.9 560L595.3 671.5L595.8 564.5L596.2 657.2L596.7 678.1L597.1 611.9L597.6 636.2L598 679.2L598.4 549L598.9 544.6L599.3 541.3L599.8 459.6L600.2 546.8L600.7 609.7L601.1 565.6L601.6 587.6L602 605.3L602.4 508.2L602.9 606.4L603.3 586.5L603.8 560L604.2 534.7L604.7 671.5L605.1 554.5L605.6 660.5L606 544.6L606.4 552.3L606.9 584.3L607.3 556.7L607.8 573.3L608.2 533.6L608.7 536.9L609.1 560L609.6 564.5L610 685.9L610.4 576.6L610.9 583.2L611.3 562.3L611.8 608.6L612.2 526.9L612.7 503.8L613.1 677L613.6 584.3L614 526.9L614.4 662.7L614.9 597.6L615.3 660.5L615.8 552.3L616.2 558.9L616.7 596.5L617.1 572.2L617.6 584.3L618 561.1L618.4 615.2L618.9 518.1L619.3 538L619.8 526.9L620.2 590.9L620.7 564.5L621.1 583.2L621.6 588.7L622 573.3L622.4 540.2L622.9 549L623.3 544.6L623.8 661.6L624.2 619.6L624.7 604.2L625.1 638.4L625.6 565.6L626 547.9L626.4 595.4L626.9 575.5L627.3 679.2L627.8 534.7L628.2 542.4L628.7 518.1L629.1 472.9L629.6 621.8L630 571.1L630.4 611.9L630.9 450.8L631.3 579.9L631.8 529.1L632.2 538L632.7 588.7L633.1 524.7L633.6 521.4L634 586.5L634.4 525.8L634.9 536.9L635.3 588.7L635.8 594.3L636.2 551.2L636.7 568.9L637.1 533.6L637.6 557.8L638 529.1L638.4 519.2L638.9 -315.1L639.3 417.7L639.8 435.3L640.2 419.9L640.7 450.8L641.1 574.4L641.6 462.9L642 284.1L642.4 253.2L642.9 17.1L643.3 432L643.8 472.9L644.2 454.1L644.7 487.2L645.1 549L645.6 608.6L646 293L646.4 488.3L646.9 596.5L647.3 592.1L647.8 538L648.2 567.8L648.7 498.2L649.1 534.7L649.6 578.8L650 546.8L650.4 590.9L650.9 617.4L651.3 514.8L651.8 611.9L652.2 564.5L652.7 579.9L653.1 631.8L653.6 608.6L654 515.9L654.4 603.1L654.9 491.6L655.3 536.9L655.8 529.1L656.2 595.4L656.7 675.9L657.1 572.2L657.6 567.8L658 502.7L658.4 544.6L658.9 570L659.3 608.6L659.8 596.5L660.2 549L660.7 610.8L661.1 557.8L661.6 668.2L662 529.1L662.4 487.2L662.9 685.9L663.3 683.7L663.8 643.9L664.2 530.2L664.7 609.7L665.1 583.2L665.6 589.8L666 577.7L666.4 642.8L666.9 608.6L667.3 521.4L667.8 497.1L668.2 508.2L668.7 696.9L669.1 585.4L669.6 614.1L670 558.9L670.4 593.2L670.9 590.9L671.3 606.4L671.8 610.8L672.2 609.7L672.7 565.6L673.1 684.8L673.6 522.5L674 538L674.4 627.4L674.9 605.3L675.3 646.1L675.8 606.4L676.2 547.9L676.7 571.1L677.1 542.4L677.6 610.8L678 616.3L678.4 699.1L678.9 556.7L679.3 606.4L679.8 605.3L680.2 656.1L680.7 529.1L681.1 542.4L681.6 482.8L682 491.6L682.4 608.6L682.9 512.6L683.3 543.5L683.8 540.2L684.2 579.9L684.7 560L685.1 536.9L685.6 551.2L686 545.7L686.4 539.1L686.9 572.2L687.3 545.7L687.8 586.5L688.2 543.5L688.7 567.8L689.1 616.3L689.6 542.4L690 624.1L690.4 519.2L690.9 593.2L691.8 587.6L692.2 610.8L692.7 577.7L693.1 -912.2L693.6 432L694 412.2L694.4 447.5L694.9 368L695.3 514.8L695.8 465.1L696.2 263.2L696.7 199.2L697.1 460.7L697.6 629.6L698 534.7L698.4 566.7L698.9 538L699.3 663.8L699.8 494.9L700.2 531.4L700.7 606.4L701.1 534.7L701.6 605.3L702 535.8L702.4 543.5L702.9 564.5L703.3 476.2L703.8 571.1L704.2 582.1L704.7 508.2L705.1 544.6L705.6 541.3L706 570L706.4 613L706.9 652.8L707.3 589.8L707.8 543.5L708.2 541.3L708.7 523.6L709.1 593.2L709.6 619.6L710 526.9L710.9 581L711.3 525.8L711.8 596.5L712.2 648.3L712.7 692.5L713.1 550.1L713.6 683.7L714 678.1L714.4 553.4L714.9 684.8L715.3 508.2L715.8 585.4L716.2 687L716.7 624.1L717.1 572.2L717.6 521.4L718 578.8L718.4 574.4L718.9 623L719.3 514.8L719.8 538L720.2 595.4L720.7 565.6L721.1 611.9L721.6 680.3L722 556.7L722.4 624.1L722.9 617.4L723.3 588.7L723.8 668.2L724.2 583.2L724.7 683.7L725.1 656.1L725.6 554.5L726 581L726.4 489.4L726.9 596.5L727.3 609.7L727.8 498.2L728.2 700.2L728.7 577.7L729.1 586.5L729.6 595.4L730 524.7L730.4 643.9L730.9 568.9L731.3 541.3L731.8 595.4L732.2 557.8L732.7 670.4L733.1 579.9L733.6 558.9L734 581L734.4 566.7L734.9 589.8L735.3 613L735.8 567.8L736.2 540.2L736.7 578.8L737.1 502.7L737.6 571.1L738 711.2L738.4 558.9L738.9 581L739.3 568.9L739.8 606.4L740.2 524.7L740.7 641.7L741.1 512.6L741.6 658.3L742 526.9L742.4 602L742.9 504.9L743.3 455.2L743.8 597.6L744.2 609.7L744.7 572.2L745.1 536.9L745.6 606.4L746.4 590.9L746.9 578.8L747.3 651.6L747.8 648.3L748.2 540.2L748.7 589.8L749.1 596.5L749.6 575.5L750 573.3L750.4 483.9L750.9 564.5L751.3 518.1L751.8 536.9L752.2 670.4L752.7 565.6L753.1 502.7L753.6 536.9L754 -272.1L754.4 410L754.9 465.1L755.3 460.7L755.8 445.3L756.2 522.5L756.7 610.8L757.1 288.6L757.6 178.2L758 39.1L758.4 481.7L758.9 530.2L759.3 444.2L759.8 588.7L760.2 528L760.7 523.6L761.1 433.1L761.6 557.8L762 541.3L762.4 553.4L762.9 524.7L763.3 567.8L763.8 539.1L764.2 595.4L764.7 558.9L765.1 535.8L765.6 457.4L766 585.4L766.4 534.7L766.9 489.4L767.3 512.6L767.8 485L768.2 624.1L768.7 679.2L769.1 675.9L769.6 509.3L770 549L770.4 661.6L770.9 606.4L771.3 563.4L771.8 556.7L772.2 524.7L772.7 668.2L773.1 560L773.6 588.7L774 540.2L774.4 617.4L774.9 557.8L775.3 528L775.8 542.4L776.2 539.1L776.7 501.6L777.1 590.9L777.6 610.8L778 503.8L778.4 592.1L778.9 702.4L779.3 542.4L779.8 550.1L780.2 691.4L780.7 563.4L781.1 551.2L781.6 525.8L782 566.7L782.4 589.8L782.9 547.9L783.3 562.3L783.8 512.6L784.2 598.7L784.7 564.5L785.1 630.7L785.6 597.6L786 613L786.4 667.1L786.9 557.8L787.3 632.9L787.8 610.8L788.2 640.6L788.7 567.8L789.1 521.4L789.6 562.3L790 683.7L790.4 540.2L790.9 587.6L791.3 504.9L791.8 502.7L792.2 629.6L792.7 674.8L793.1 608.6L793.6 565.6L794 629.6L794.4 680.3L794.9 518.1L795.3 594.3L795.8 528L796.2 602L796.7 545.7L797.1 684.8L797.6 562.3L798 582.1L798.4 613L798.9 603.1L799.3 685.9L799.8 609.7L800.2 547.9L800.7 503.8L801.1 534.7L801.6 542.4L802 517L802.4 530.2L802.9 532.5L803.3 631.8L803.8 606.4L804.2 615.2L804.7 513.7L805.1 543.5L805.6 610.8L806 605.3L806.4 635.1L806.9 549L807.3 583.2L807.8 637.3L808.2 597.6L808.7 -938.7L809.1 436.4L809.6 376.8L810 444.2L810.4 315L810.9 566.7L811.3 661.6L811.8 277.5L812.2 237.8L812.7 480.6L813.1 565.6L813.6 564.5L814 613L814.4 450.8L814.9 594.3L815.3 530.2L815.8 524.7L816.2 613L816.7 616.3L817.1 611.9L817.6 689.2L818 544.6L818.4 519.2L818.9 605.3L819.3 614.1L819.8 532.5L820.2 554.5L820.7 524.7L821.1 478.4L821.6 668.2L822 571.1L822.4 532.5L822.9 609.7L823.3 523.6L823.8 502.7L824.2 531.4L824.7 502.7L825.1 605.3L825.6 567.8L826 483.9L826.4 536.9L826.9 568.9L827.3 497.1L827.8 549L828.2 562.3L828.7 586.5L829.1 562.3L829.6 567.8L830 608.6L830.4 669.3L830.9 674.8L831.3 571.1L831.8 547.9L832.2 597.6L832.7 541.3L833.1 585.4L833.6 674.8L834 570L834.4 522.5L834.9 498.2L835.3 572.2L835.8 545.7L836.2 684.8L836.7 533.6L837.1 579.9L837.6 606.4L838 646.1L838.4 558.9L838.9 689.2L839.3 545.7L839.8 581L840.2 684.8L840.7 674.8L841.1 630.7L841.6 662.7L842 605.3L842.4 577.7L842.9 618.5L843.3 664.9L843.8 563.4L844.2 570L844.7 561.1L845.1 680.3L845.6 533.6L846 598.7L846.4 534.7L846.9 563.4L847.3 597.6L847.8 609.7L848.2 551.2L848.7 515.9L849.1 490.5L849.6 585.4L850 503.8L850.4 519.2L850.9 497.1L851.3 538L851.8 506L852.2 475.1L852.7 558.9L853.1 604.2L853.6 561.1L854 578.8L854.4 582.1L854.9 560L855.3 688.1L855.8 647.2L856.2 538L856.7 693.6L857.1 582.1L857.6 672.6L858 581L858.4 674.8L858.9 648.3L859.3 682.5L859.8 625.2L860.2 507.1L860.7 677L861.1 578.8L861.6 690.3L862 602L862.4 609.7L862.9 524.7L863.3 583.2L863.8 573.3L864.2 508.2L864.7 575.5L865.1 562.3L865.6 681.4L866 551.2L866.4 582.1L866.9 597.6L867.3 592.1L867.8 513.7L868.2 581L868.7 639.5L869.1 -440.9L869.6 583.2L870 478.4L870.4 398.9L870.9 568.9L871.3 564.5L871.8 604.2L872.2 280.8L872.7 171.6L873.1 -34.8L873.6 315L874 423.2L874.4 459.6L874.9 582.1L875.3 532.5L875.8 561.1L876.2 355.9L876.7 575.5L877.1 563.4L877.6 636.2L878 587.6L878.4 579.9L878.9 581L879.3 515.9L879.8 585.4L880.2 510.4L880.7 533.6L881.1 511.5L881.6 574.4L882 481.7L882.4 645L882.9 539.1L883.3 647.2L883.8 539.1L884.2 673.7L884.7 544.6L885.1 576.6L885.6 535.8L886 510.4L886.4 485L886.9 479.5L887.3 641.7L887.8 564.5L888.2 538L888.7 600.9L889.1 577.7L889.6 513.7L890 511.5L890.4 629.6L890.9 539.1L891.3 674.8L891.8 604.2L892.2 547.9L892.7 528L893.1 588.7L893.6 593.2L894 497.1L894.4 530.2L894.9 551.2L895.3 511.5L895.8 560L896.2 607.5L896.7 551.2L897.1 554.5L897.6 617.4L898 587.6L898.4 599.8L898.9 596.5L899.3 670.4L899.8 669.3L900.2 607.5L900.7 583.2L901.1 606.4L901.6 503.8L902 655L902.4 673.7L902.9 566.7L903.3 582.1L903.8 667.1L904.2 606.4L904.7 550.1L905.1 604.2L905.6 547.9L906 683.7L906.4 577.7L906.9 562.3L907.3 536.9L907.8 549L908.2 688.1L908.7 576.6L909.1 562.3L909.6 481.7L910 558.9L910.4 619.6L910.9 536.9L911.3 610.8L911.8 532.5L912.2 544.6L912.7 621.8L913.1 599.8L913.6 494.9L914 543.5L914.4 567.8L914.9 547.9L915.3 579.9L915.8 594.3L916.2 576.6L916.7 608.6L917.1 501.6L917.6 603.1L918 552.3L918.4 593.2L918.9 680.3L919.3 589.8L919.8 561.1L920.2 641.7L920.7 541.3L921.1 599.8L921.6 575.5L922 541.3L922.4 673.7L922.9 600.9L923.3 617.4L923.8 -870.2L924.2 338.2L924.7 398.9L925.1 450.8L925.6 417.7L926 585.4L926.4 566.7L926.9 245.5L927.3 188.1L927.8 670.4L928.2 550.1L928.7 511.5L929.1 479.5L929.6 468.4L930 546.8L930.4 540.2L930.9 550.1L931.3 562.3L931.8 503.8L932.2 592.1L932.7 536.9L933.1 576.6L933.6 583.2L934 596.5L934.4 538L934.9 520.3L935.3 626.3L935.8 552.3L936.2 623L936.7 594.3L937.1 494.9L937.6 557.8L938 488.3L938.4 534.7L938.9 595.4L939.3 494.9L939.8 583.2L940.2 553.4L940.7 655L941.1 597.6L941.6 573.3L942 472.9L942.4 568.9L942.9 652.8L943.3 561.1L943.8 677L944.2 603.1L944.7 570L945.1 567.8L945.6 546.8L946 531.4L946.4 542.4L946.9 553.4L947.3 560L947.8 498.2L948.2 514.8L948.7 553.4L949.1 558.9L949.6 597.6L950 679.2L950.4 577.7L950.9 547.9L951.3 520.3L951.8 563.4L952.2 643.9L952.7 549L953.1 531.4L953.6 576.6L954 555.6L954.4 674.8L954.9 662.7L955.3 549L955.8 544.6L956.2 496L956.7 603.1L957.1 572.2L957.6 507.1L958 529.1L958.4 572.2L958.9 579.9L959.3 544.6L959.8 613L960.2 610.8L960.7 550.1L961.1 552.3L961.6 555.6L962 679.2L962.4 531.4L962.9 678.1L963.3 615.2L963.8 558.9L964.2 643.9L964.7 564.5L965.1 703.5L965.6 596.5L966 551.2L966.4 535.8L966.9 539.1L967.3 540.2L967.8 579.9L968.2 546.8L968.7 623L969.1 540.2L969.6 585.4L970 606.4L970.4 554.5L970.9 558.9L971.3 521.4L971.8 567.8L972.7 515.9L973.1 596.5L973.6 517L974 535.8L974.4 546.8L974.9 692.5L975.3 501.6L975.8 660.5L976.2 476.2L976.7 673.7L977.1 585.4L977.6 542.4L978 628.5L978.4 509.3L978.9 466.2L979.3 610.8L979.8 626.3L980.2 649.4L980.7 619.6L981.1 518.1L981.6 593.2L982 513.7L982.4 556.7L982.9 618.5L983.3 577.7L983.8 530.2L984.2 -422.2L984.7 411.1L985.1 542.4L985.6 489.4L986 398.9L986.4 500.5L986.9 549L987.3 283L987.8 209.1L988.2 65.6L988.7 599.8L989.1 557.8L989.6 513.7L990 547.9L990.4 525.8L990.9 517L991.3 236.7L991.8 533.6L992.2 456.3L992.7 553.4L993.1 645L993.6 589.8L994 715.7L994.4 491.6L994.9 518.1L995.3 494.9L995.8 687L996.2 502.7L996.7 506L997.1 626.3L997.6 604.2L998 586.5L998.4 504.9L998.9 549L999.3 512.6L999.8 573.3L1000.2 625.2L1000.7 636.2L1001.1 607.5L1001.6 668.2L1002 553.4L1002.4 594.3L1002.9 614.1L1003.3 653.9L1003.8 605.3L1004.2 663.8L1004.7 472.9L1005.1 547.9L1005.6 530.2L1006 461.8L1006.4 514.8L1006.9 554.5L1007.3 562.3L1007.8 530.2L1008.2 520.3L1008.7 608.6L1009.1 541.3L1009.6 523.6L1010 596.5L1010.4 593.2L1010.9 554.5L1011.3 609.7L1011.8 613L1012.2 626.3L1012.7 625.2L1013.1 573.3L1013.6 637.3L1014 545.7L1014.4 610.8L1014.9 541.3L1015.3 701.3L1015.8 553.4L1016.2 477.3L1016.7 584.3L1017.1 460.7L1017.6 626.3L1018 518.1L1018.4 669.3L1018.9 536.9L1019.3 689.2L1019.8 702.4L1020.2 604.2L1020.7 534.7L1021.1 621.8L1021.6 571.1L1022 637.3L1022.4 610.8L1022.9 506L1023.3 588.7L1023.8 552.3L1024.2 616.3L1024.7 544.6L1025.1 635.1L1025.6 649.4L1026 542.4L1026.4 592.1L1027.3 553.4L1027.8 561.1L1028.2 594.3L1029.1 592.1L1029.6 705.7L1030 609.7L1030.4 611.9L1030.9 534.7L1031.3 498.2L1031.8 490.5L1032.2 539.1L1032.7 555.6L1033.1 522.5L1033.6 572.2L1034 526.9L1034.4 496L1034.9 564.5L1035.3 539.1L1035.8 575.5L1036.2 674.8L1036.7 564.5L1037.1 574.4L1037.6 442L1038 549L1038.4 565.6L1038.9 -918.8L1039.3 459.6L1039.8 450.8L1040.2 531.4L1040.7 363.6L1041.1 550.1L1041.6 502.7L1042 253.2L1042.4 183.7L1042.9 582.1L1043.3 619.6L1043.8 542.4L1044.2 598.7L1044.7 546.8L1045.1 536.9L1045.6 575.5L1046 551.2L1046.4 677L1046.9 662.7L1047.3 554.5L1047.8 589.8L1048.2 574.4L1048.7 565.6L1049.1 624.1L1049.6 628.5L1050 574.4L1050.4 570L1050.9 573.3L1051.3 681.4L1051.8 607.5L1052.2 549L1052.7 660.5L1053.1 490.5L1053.6 540.2L1054 538L1054.4 700.2L1054.9 589.8L1055.3 583.2L1055.8 592.1L1056.2 618.5L1056.7 565.6L1057.1 609.7L1057.6 589.8L1058 560L1058.4 632.9L1058.9 594.3L1059.3 536.9L1059.8 617.4L1060.2 645L1060.7 579.9L1061.1 470.7L1061.6 688.1L1062 538L1062.4 532.5L1062.9 578.8L1063.3 556.7L1063.8 551.2L1064.2 657.2L1064.7 529.1L1065.1 684.8L1065.6 555.6L1066 613L1066.4 493.8L1066.9 546.8L1067.3 564.5L1067.8 532.5L1068.2 511.5L1068.7 663.8L1069.1 561.1L1069.6 570L1070 520.3L1070.4 682.5L1070.9 579.9L1071.3 692.5L1071.8 554.5L1072.2 588.7L1073.1 599.8L1073.6 528L1074 526.9L1074.4 572.2L1074.9 553.4L1075.3 611.9L1075.8 666L1076.2 648.3L1076.7 533.6L1077.1 609.7L1077.6 579.9L1078 613L1078.4 540.2L1078.9 602L1079.3 538L1079.8 547.9L1080.2 605.3L1080.7 557.8L1081.1 485L1081.6 567.8L1082 573.3L1082.4 587.6L1082.9 668.2L1083.3 541.3L1083.8 595.4L1084.2 521.4L1084.7 592.1L1085.1 567.8L1085.6 597.6L1086 585.4L1086.4 560L1086.9 572.2L1087.3 592.1L1087.8 573.3L1088.2 605.3L1088.7 575.5L1089.1 557.8L1089.6 565.6L1090 571.1L1090.4 613L1090.9 530.2L1091.3 587.6L1091.8 600.9L1092.2 683.7L1092.7 674.8L1093.1 489.4L1093.6 512.6L1094 584.3L1094.4 513.7L1094.9 687L1095.3 689.2L1095.8 555.6L1096.2 602L1096.7 685.9L1097.1 514.8L1097.6 624.1L1098 529.1L1098.4 604.2L1098.9 574.4L1099.3 -415.6L1099.8 430.9L1100.2 381.3L1100.7 395.6L1101.1 445.3L1101.6 446.4L1102 581L1102.4 219L1102.9 220.1L1103.3 -163.9L1103.8 437.5L1104.2 394.5L1104.7 393.4L1105.1 614.1L1105.6 526.9L1106 556.7L1106.4 273.1L1106.9 491.6L1107.3 519.2L1107.8 507.1L1108.2 613L1108.7 684.8L1109.1 587.6L1109.6 565.6L1110 675.9L1110.4 543.5L1110.9 597.6L1111.3 681.4L1111.8 645L1112.2 578.8L1112.7 677L1113.1 592.1L1113.6 475.1L1114 556.7L1114.4 550.1L1114.9 554.5L1115.3 552.3L1115.8 668.2L1116.2 549L1116.7 511.5L1117.1 525.8L1117.6 544.6L1118 603.1L1118.4 550.1L1118.9 645L1119.3 661.6L1119.8 619.6L1120.2 566.7L1120.7 616.3L1121.1 571.1L1121.6 606.4L1122 532.5L1122.4 634L1122.9 618.5L1123.3 543.5L1123.8 572.2L1124.2 603.1L1124.7 586.5L1125.1 620.7L1125.6 594.3L1126 692.5L1126.4 575.5L1126.9 478.4L1127.3 462.9L1127.8 566.7L1128.2 523.6L1128.7 485L1129.1 606.4L1129.6 522.5L1130 565.6L1130.4 606.4L1130.9 599.8L1131.3 683.7L1131.8 597.6L1132.2 669.3L1132.7 578.8L1133.1 522.5L1133.6 562.3L1134 547.9L1134.4 584.3L1134.9 490.5L1135.3 536.9L1135.8 573.3L1136.2 564.5L1136.7 682.5L1137.1 503.8L1137.6 572.2L1138 526.9L1138.4 585.4L1138.9 492.7L1139.3 534.7L1139.8 535.8L1140.2 508.2L1140.7 643.9L1141.1 567.8L1141.6 509.3L1142 554.5L1142.4 577.7L1142.9 639.5L1143.3 474L1143.8 547.9L1144.2 630.7L1144.7 598.7L1145.1 579.9L1145.6 598.7L1146 585.4L1146.4 509.3L1146.9 599.8L1147.3 597.6L1147.8 530.2L1148.2 526.9L1148.7 588.7L1149.6 567.8L1150 572.2L1150.4 605.3L1150.9 496L1151.3 557.8L1151.8 540.2L1152.2 570L1152.7 535.8L1153.1 531.4L1153.6 628.5L1154 -872.5L1154.4 407.7L1154.9 277.5L1155.3 424.3L1155.8 361.4L1156.2 492.7L1156.7 466.2L1157.1 252.1L1157.6 316.1L1158 519.2L1158.4 514.8L1158.9 492.7L1159.3 577.7L1159.8 560L1160.2 585.4L1160.7 532.5L1161.1 597.6L1161.6 509.3L1162 518.1L1162.4 572.2L1162.9 512.6L1163.3 508.2L1163.8 586.5L1164.2 554.5L1164.7 504.9L1165.1 486.1L1165.6 558.9L1166 584.3L1166.4 642.8L1166.9 609.7L1167.3 566.7L1167.8 593.2L1168.2 566.7L1168.7 509.3L1169.1 513.7L1169.6 639.5L1170 575.5L1170.4 540.2L1170.9 604.2L1171.3 508.2L1171.8 579.9L1172.2 619.6L1172.7 565.6L1173.1 577.7L1173.6 598.7L1174 586.5L1174.4 566.7L1174.9 542.4L1175.3 494.9L1175.8 499.3L1176.2 627.4L1176.7 698L1177.1 562.3L1177.6 608.6L1178 529.1L1178.4 659.4L1178.9 551.2L1179.3 666L1179.8 586.5L1180.2 683.7L1180.7 668.2L1181.1 620.7L1181.6 626.3L1182 671.5L1182.4 567.8L1182.9 564.5L1183.3 638.4L1183.8 624.1L1184.2 564.5L1184.7 572.2L1185.1 502.7L1185.6 560L1186 582.1L1186.4 653.9L1186.9 565.6L1187.3 668.2L1187.8 627.4L1188.2 616.3L1188.7 553.4L1189.1 494.9L1189.6 592.1L1190 613L1190.4 581L1190.9 696.9L1191.3 518.1L1191.8 597.6L1192.2 682.5L1192.7 617.4L1193.1 662.7L1193.6 648.3L1194 669.3L1194.4 630.7L1194.9 602L1195.3 549L1195.8 541.3L1196.2 581L1196.7 611.9L1197.1 528L1197.6 636.2L1198 551.2L1198.4 625.2L1198.9 551.2L1199.3 579.9L1199.8 534.7L1200.2 592.1L1200.7 502.7L1201.1 564.5L1201.6 544.6L1202 627.4L1202.4 598.7L1202.9 614.1L1203.3 510.4L1203.8 690.3L1204.2 585.4L1204.7 572.2L1205.1 592.1L1205.6 653.9L1206 553.4L1206.4 614.1L1206.9 566.7L1207.3 677L1207.8 536.9L1208.2 564.5L1208.7 567.8L1209.1 570L1209.6 561.1L1210 536.9L1210.4 555.6L1210.9 618.5L1211.3 598.7L1211.8 496L1212.2 565.6L1212.7 566.7L1213.1 543.5L1213.6 603.1L1214 604.2L1214.4 576.6L1214.9 -402.3L1215.3 465.1L1215.8 430.9L1216.2 445.3L1216.7 448.6L1217.1 544.6L1217.6 557.8L1218 448.6L1218.4 310.6L1218.9 -52.5L1219.3 489.4L1219.8 478.4L1220.2 394.5L1220.7 476.2L1221.1 530.2L1221.6 518.1L1222 248.8L1222.4 532.5L1222.9 579.9L1223.3 588.7L1223.8 613L1224.2 562.3L1224.7 573.3L1225.1 636.2L1225.6 637.3L1226 530.2L1226.4 617.4L1226.9 481.7L1227.3 683.7L1227.8 597.6L1228.2 642.8L1228.7 610.8L1229.1 648.3L1229.6 602L1230 567.8L1230.4 581L1230.9 596.5L1231.3 586.5L1231.8 560L1232.2 542.4L1232.7 531.4L1233.1 551.2L1233.6 600.9L1234 639.5L1234.4 550.1L1234.9 656.1L1235.3 549L1235.8 558.9L1236.2 539.1L1236.7 623L1237.1 680.3L1237.6 593.2L1238 597.6L1238.4 711.2L1238.9 695.8L1239.3 615.2L1239.8 574.4L1240.2 492.7L1240.7 649.4L1241.1 563.4L1241.6 570L1242 673.7L1242.4 662.7L1242.9 538L1243.3 586.5L1243.8 551.2L1244.2 563.4L1244.7 560L1245.1 538L1245.6 597.6L1246 690.3L1246.4 629.6L1246.9 596.5L1247.3 549L1247.8 609.7L1248.2 613L1248.7 572.2L1249.1 634L1249.6 524.7L1250 671.5L1250.4 587.6L1250.9 589.8L1251.3 487.2L1251.8 573.3L1252.2 664.9L1252.7 514.8L1253.1 573.3L1253.6 467.3L1254 561.1L1254.4 696.9L1254.9 599.8L1255.3 658.3L1255.8 575.5L1256.2 643.9L1256.7 611.9L1257.1 581L1257.6 701.3L1258 530.2L1258.4 571.1L1258.9 541.3L1259.3 500.5L1259.8 702.4L1260.2 673.7L1260.7 585.4L1261.1 524.7L1261.6 680.3L1262 592.1L1262.4 590.9L1262.9 607.5L1263.3 589.8L1263.8 641.7L1264.2 602L1264.7 598.7L1265.1 589.8L1265.6 510.4L1266 494.9L1266.4 611.9L1266.9 607.5L1267.3 544.6L1267.8 577.7L1268.2 592.1L1268.7 509.3L1269.1 -993.9L1269.6 385.7L1270 361.4L1270.4 344.8L1270.9 382.4L1271.3 435.3L1271.8 566.7L1272.2 254.3L1272.7 371.3L1273.1 658.3L1273.6 575.5L1274 526.9L1274.4 689.2L1274.9 528L1275.3 555.6L1275.8 694.7L1276.2 594.3L1276.7 554.5L1277.1 583.2L1277.6 690.3L1278 679.2L1278.4 525.8L1278.9 573.3L1279.3 514.8L1279.8 631.8L1280.2 534.7L1280.7 492.7L1281.1 568.9L1281.6 586.5L1282 511.5L1282.4 450.8L1282.9 533.6L1283.3 566.7L1283.8 511.5L1284.2 589.8L1284.7 576.6L1285.1 613L1285.6 582.1L1286 664.9L1286.4 573.3L1286.9 673.7L1287.3 590.9L1287.8 491.6L1288.2 613L1288.7 578.8L1289.1 595.4L1289.6 688.1L1290 573.3L1290.4 691.4L1290.9 557.8L1291.3 595.4L1291.8 564.5L1292.2 539.1L1292.7 542.4L1293.1 579.9L1293.6 478.4L1294 514.8L1294.4 571.1L1294.9 524.7L1295.3 552.3L1295.8 595.4L1296.2 647.2L1296.7 474L1297.1 528L1297.6 500.5L1298 554.5L1298.4 528L1298.9 596.5L1299.3 609.7L1299.8 577.7L1300.2 600.9L1300.7 545.7L1301.1 524.7L1301.6 567.8L1302 524.7L1302.4 564.5L1302.9 549L1303.3 555.6L1303.8 669.3L1304.2 626.3L1304.7 557.8L1305.1 698L1305.6 672.6L1306 544.6L1306.4 587.6L1306.9 501.6L1307.3 466.2L1307.8 573.3L1308.2 525.8L1308.7 632.9L1309.1 584.3L1309.6 551.2L1310 607.5L1310.4 541.3L1310.9 669.3L1311.3 577.7L1311.8 650.5L1312.2 592.1L1312.7 575.5L1313.1 651.6L1313.6 578.8L1314 541.3L1314.4 563.4L1314.9 577.7L1315.3 553.4L1315.8 619.6L1316.2 618.5L1316.7 619.6L1317.1 534.7L1317.6 506L1318 691.4L1318.4 630.7L1318.9 597.6L1319.3 545.7L1319.8 564.5L1320.2 502.7L1320.7 589.8L1321.1 629.6L1321.6 540.2L1322 596.5L1322.4 509.3L1322.9 568.9L1323.3 555.6L1323.8 699.1L1324.2 508.2L1324.7 660.5L1325.1 586.5L1325.6 535.8L1326 621.8L1326.4 456.3L1326.9 659.4L1327.3 590.9L1327.8 561.1L1328.2 626.3L1328.7 539.1L1329.1 662.7L1329.6 673.7L1330 -463L1330.4 430.9L1330.9 397.8L1331.3 392.3L1331.8 318.4L1332.2 553.4L1332.7 480.6L1333.1 291.9L1333.6 201.4L1334 -96.6L1334.4 477.3L1334.9 419.9L1335.3 579.9L1335.8 596.5L1336.2 489.4L1336.7 594.3L1337.1 397.8L1337.6 550.1L1338 594.3L1338.4 699.1L1338.9 538L1339.3 593.2L1339.8 625.2L1340.2 536.9L1340.7 662.7L1341.1 457.4L1341.6 522.5L1342 485L1342.4 478.4L1342.9 555.6L1343.3 567.8L1343.8 556.7L1344.2 628.5L1344.7 531.4L1345.1 514.8L1345.6 566.7L1346 606.4L1346.4 675.9L1346.9 573.3L1347.3 566.7L1347.8 678.1L1348.2 542.4L1348.7 700.2L1349.1 645L1349.6 656.1L1350 689.2L1350.4 582.1L1350.9 584.3L1351.3 526.9L1351.8 581L1352.2 503.8L1352.7 489.4L1353.1 496L1353.6 458.5L1354 542.4L1354.4 565.6L1354.9 531.4L1355.3 448.6L1355.8 707.9L1356.2 542.4L1356.7 623L1357.1 615.2L1357.6 595.4L1358 519.2L1358.4 578.8L1358.9 564.5L1359.3 695.8L1359.8 532.5L1360.2 578.8L1360.7 598.7L1361.1 649.4L1361.6 574.4L1362 551.2L1362.4 631.8L1362.9 620.7L1363.3 543.5L1363.8 572.2L1364.2 579.9L1364.7 572.2L1365.1 500.5L1365.6 600.9L1366 616.3L1366.4 605.3L1366.9 631.8L1367.3 642.8L1367.8 541.3L1368.2 613L1368.7 566.7L1369.1 560L1369.6 682.5L1370 570L1370.4 593.2L1370.9 678.1L1371.3 620.7L1371.8 688.1L1372.2 637.3L1372.7 579.9L1373.1 627.4L1373.6 597.6L1374 570L1374.4 551.2L1375.3 595.4L1375.8 540.2L1376.2 618.5L1376.7 649.4L1377.1 538L1377.6 557.8L1378 624.1L1378.4 614.1L1378.9 552.3L1379.3 595.4L1379.8 586.5L1380.2 536.9L1380.7 502.7L1381.1 588.7L1381.6 518.1L1382 629.6L1382.4 506L1382.9 680.3L1383.3 598.7L1383.8 528L1384.2 -990.5L1384.7 434.2L1385.1 454.1L1385.6 390.1L1386 468.4L1386.4 501.6L1386.9 434.2L1387.3 162.7L1387.8 177.1L1388.2 589.8L1388.7 568.9L1389.1 509.3L1389.6 531.4L1390 565.6L1390.4 570L1390.9 520.3L1391.3 688.1L1391.8 535.8L1392.2 503.8L1392.7 532.5L1393.1 649.4L1393.6 549L1394 593.2L1394.4 572.2L1394.9 545.7L1395.3 620.7L1395.8 519.2L1396.2 579.9L1396.7 605.3L1397.1 604.2L1397.6 529.1L1398 554.5L1398.4 675.9L1398.9 688.1L1399.3 608.6L1399.8 566.7L1400.2 568.9L1400.7 596.5L1401.1 585.4L1401.6 561.1L1402 541.3L1402.4 543.5L1402.9 619.6L1403.3 581L1403.8 603.1L1404.2 540.2L1404.7 538L1405.1 578.8L1405.6 685.9L1406 583.2L1406.4 682.5L1406.9 681.4L1407.3 554.5L1407.8 689.2L1408.2 664.9L1408.7 555.6L1409.1 699.1L1409.6 510.4L1410 556.7L1410.4 605.3L1410.9 679.2L1411.3 595.4L1411.8 572.2L1412.2 584.3L1412.7 663.8L1413.1 545.7L1413.6 531.4L1414 549L1414.4 590.9L1414.9 526.9L1415.3 669.3L1415.8 564.5L1416.2 588.7L1416.7 538L1417.1 518.1L1417.6 599.8L1418 682.5L1418.4 564.5L1418.9 568.9L1419.3 557.8L1419.8 602L1420.2 543.5L1420.7 681.4L1421.1 596.5L1421.6 616.3L1422 535.8L1422.4 646.1L1422.9 526.9L1423.3 567.8L1423.8 587.6L1424.2 694.7L1424.7 636.2L1425.1 566.7L1425.6 671.5L1426 627.4L1426.4 551.2L1426.9 611.9L1427.3 551.2L1427.8 577.7L1428.2 598.7L1428.7 653.9L1429.1 564.5L1429.6 557.8L1430 598.7L1430.4 661.6L1430.9 504.9L1431.3 694.7L1431.8 613L1432.2 498.2L1432.7 564.5L1433.1 543.5L1433.6 586.5L1434 663.8L1434.4 565.6L1434.9 617.4L1435.3 641.7L1435.8 634L1436.2 691.4L1436.7 546.8L1437.1 560L1437.6 577.7L1438 555.6L1438.4 608.6L1438.9 666L1439.3 594.3L1439.8 578.8L1440.2 470.7L1440.7 578.8L1441.1 535.8L1441.6 568.9L1442 651.6L1442.4 641.7L1442.9 556.7L1443.3 610.8L1443.8 571.1L1444.2 533.6L1444.7 553.4L1445.1 -305.2L1445.6 498.2L1446 514.8L1446.4 435.3L1446.9 372.4L1447.3 653.9L1447.8 540.2L1448.2 248.8L1448.7 279.7L1449.1 -34.8L1449.6 570L1450 424.3L1450.4 407.7L1450.9 464L1451.3 477.3L1451.8 557.8L1452.2 281.9L1452.7 565.6L1453.1 592.1L1453.6 606.4L1454 526.9L1454.4 552.3L1454.9 634L1455.3 540.2L1455.8 639.5L1456.2 614.1L1456.7 572.2L1457.1 512.6L1457.6 540.2L1458 634L1458.4 606.4L1458.9 650.5L1459.3 667.1L1459.8 567.8L1460.2 572.2L1460.7 652.8L1461.1 638.4L1461.6 566.7L1462 554.5L1462.4 592.1L1462.9 692.5L1463.3 586.5L1463.8 538L1464.2 572.2L1464.7 570L1465.1 567.8L1465.6 620.7L1466 653.9L1466.4 583.2L1466.9 555.6L1467.3 679.2L1467.8 609.7L1468.2 585.4L1468.7 616.3L1469.1 674.8L1469.6 545.7L1470 701.3L1470.4 472.9L1470.9 541.3L1471.3 624.1L1471.8 604.2L1472.2 504.9L1472.7 560L1473.1 690.3L1473.6 703.5L1474 587.6L1474.4 625.2L1474.9 712.3L1475.3 509.3L1475.8 494.9L1476.2 570L1476.7 560L1477.1 536.9L1477.6 491.6L1478 692.5L1478.4 570L1478.9 500.5L1479.3 594.3L1479.8 611.9L1480.2 581L1480.7 525.8L1481.1 526.9L1481.6 575.5L1482 597.6L1482.4 694.7L1482.9 642.8L1483.3 582.1L1483.8 619.6L1484.2 570L1484.7 592.1L1485.1 574.4L1485.6 620.7L1486 696.9L1486.4 596.5L1486.9 556.7L1487.3 602L1487.8 576.6L1488.2 555.6L1488.7 575.5L1489.1 602L1489.6 534.7L1490 511.5L1490.4 574.4L1490.9 616.3L1491.3 546.8L1491.8 647.2L1492.2 573.3L1492.7 545.7L1493.1 634L1493.6 587.6L1494 609.7L1494.4 664.9L1494.9 531.4L1495.3 595.4L1495.8 626.3L1496.2 619.6L1496.7 587.6L1497.1 594.3L1497.6 603.1L1498 555.6L1498.4 538L1498.9 503.8L1499.3 599.8L1499.8 -927.6L1500.2 451.9L1500.7 413.3L1501.1 414.4L1501.6 382.4L1502 561.1L1502.4 578.8L1502.9 306.2L1503.3 252.1L1503.8 658.3L1504.2 567.8L1504.7 489.4L1505.1 532.5L1505.6 623L1506 436.4L1506.4 597.6L1506.9 533.6L1507.3 585.4L1507.8 579.9L1508.2 632.9L1508.7 657.2L1509.1 650.5L1509.6 526.9L1510 568.9L1510.4 660.5L1510.9 561.1L1511.3 546.8L1511.8 624.1L1512.2 570L1512.7 507.1L1513.1 498.2L1513.6 566.7L1514 570L1514.4 602L1514.9 533.6L1515.3 536.9L1515.8 598.7L1516.2 679.2L1516.7 562.3L1517.1 694.7L1517.6 599.8L1518 512.6L1518.4 574.4L1518.9 623L1519.3 563.4L1519.8 529.1L1520.2 565.6L1520.7 590.9L1521.1 607.5L1521.6 568.9L1522 616.3L1522.4 544.6L1522.9 514.8L1523.3 659.4L1523.8 592.1L1524.2 526.9L1524.7 597.6L1525.1 538L1525.6 524.7L1526 561.1L1526.4 629.6L1526.9 526.9L1527.3 682.5L1527.8 605.3L1528.2 594.3L1528.7 642.8L1529.1 587.6L1529.6 583.2L1530 615.2L1530.4 518.1L1530.9 587.6L1531.3 585.4L1531.8 658.3L1532.2 576.6L1532.7 501.6L1533.1 533.6L1533.6 592.1L1534 596.5L1534.4 571.1L1534.9 684.8L1535.3 574.4L1535.8 562.3L1536.2 534.7L1536.7 551.2L1537.1 510.4L1537.6 519.2L1538 581L1538.4 588.7L1538.9 540.2L1539.3 688.1L1539.8 557.8L1540.2 610.8L1540.7 578.8L1541.1 549L1541.6 648.3L1542 657.2L1542.4 605.3L1542.9 560L1543.3 681.4L1543.8 549L1544.2 616.3L1544.7 558.9L1545.1 595.4L1545.6 561.1L1546 589.8L1546.4 615.2L1546.9 586.5L1547.3 544.6L1547.8 677L1548.2 609.7L1548.7 571.1L1549.1 593.2L1549.6 528L1550 554.5L1550.4 637.3L1550.9 545.7L1551.3 596.5L1551.8 610.8L1552.2 688.1L1552.7 623L1553.1 575.5L1553.6 579.9L1554 592.1L1554.4 627.4L1554.9 461.8L1555.3 620.7L1555.8 561.1L1556.2 536.9L1556.7 582.1L1557.1 694.7L1557.6 615.2L1558 585.4L1558.4 530.2L1558.9 478.4L1559.3 598.7L1559.8 595.4L1560.2 -374.7L1560.7 395.6L1561.1 427.6L1561.6 440.9L1562 394.5L1562.4 488.3L1562.9 565.6L1563.3 187L1563.8 205.8L1564.2 197L1564.7 381.3L1565.1 446.4L1565.6 417.7L1566 576.6L1566.4 577.7L1566.9 613L1567.3 350.4L1567.8 598.7L1568.2 556.7L1568.7 648.3L1569.1 572.2L1569.6 565.6L1570 605.3L1570.4 560L1570.9 578.8L1571.3 637.3L1571.8 606.4L1572.2 586.5L1572.7 570L1573.1 529.1L1573.6 565.6L1574 581L1574.4 636.2L1574.9 561.1L1575.3 597.6L1575.8 511.5L1576.2 567.8L1576.7 587.6L1577.1 539.1L1577.6 674.8L1578 479.5L1578.4 543.5L1578.9 579.9L1579.3 643.9L1579.8 592.1L1580.2 539.1L1580.7 711.2L1581.1 635.1L1581.6 613L1582 599.8L1582.4 520.3L1582.9 684.8L1583.3 662.7L1583.8 584.3L1584.2 493.8L1584.7 514.8L1585.1 631.8L1585.6 508.2L1586 696.9L1586.4 646.1L1586.9 471.8L1587.3 544.6L1587.8 574.4L1588.2 543.5L1588.7 693.6L1589.1 575.5L1589.6 515.9L1590 589.8L1590.4 491.6L1590.9 698L1591.3 489.4L1591.8 565.6L1592.2 596.5L1592.7 541.3L1593.1 594.3L1593.6 520.3L1594 588.7L1594.4 652.8L1594.9 688.1L1595.3 579.9L1595.8 597.6L1596.2 611.9L1596.7 677L1597.1 553.4L1597.6 470.7L1598 521.4L1598.4 563.4L1598.9 570L1599.3 571.1L1599.8 598.7L1600.2 575.5L1600.7 442L1601.1 581L1601.6 575.5L1602 547.9L1602.4 586.5L1602.9 518.1L1603.3 666L1603.8 561.1L1604.2 522.5L1604.7 547.9L1605.1 524.7L1605.6 614.1L1606 584.3L1606.4 506L1606.9 540.2L1607.3 581L1607.8 563.4L1608.7 604.2L1609.1 528L1609.6 619.6L1610 533.6L1610.4 631.8L1610.9 462.9L1611.3 605.3L1611.8 544.6L1612.2 563.4L1612.7 546.8L1613.1 614.1L1613.6 513.7L1614 539.1L1614.4 604.2L1614.9 -981.7L1615.3 443.1L1615.8 377.9L1616.2 365.8L1616.7 401.1L1617.1 511.5L1617.6 632.9L1618 217.9L1618.4 215.7L1618.9 629.6L1619.3 587.6L1619.8 607.5L1620.2 476.2L1620.7 648.3L1621.1 547.9L1621.6 655L1622 550.1L1622.4 480.6L1622.9 673.7L1623.3 544.6L1623.8 555.6L1624.2 582.1L1624.7 556.7L1625.1 667.1L1625.6 603.1L1626 512.6L1626.4 617.4L1626.9 616.3L1627.3 514.8L1627.8 581L1628.2 533.6L1628.7 501.6L1629.1 571.1L1629.6 588.7L1630 545.7L1630.4 602L1630.9 564.5L1631.3 618.5L1631.8 673.7L1632.2 519.2L1632.7 526.9L1633.1 536.9L1633.6 525.8L1634 523.6L1634.4 647.2L1634.9 550.1L1635.3 502.7L1635.8 504.9L1636.2 607.5L1636.7 543.5L1637.1 617.4L1637.6 611.9L1638 609.7L1638.4 598.7L1638.9 619.6L1639.3 599.8L1639.8 594.3L1640.2 568.9L1640.7 554.5L1641.1 507.1L1641.6 542.4L1642 541.3L1642.4 553.4L1642.9 558.9L1643.3 500.5L1643.8 528L1644.2 529.1L1644.7 542.4L1645.1 549L1645.6 553.4L1646 545.7L1646.4 554.5L1646.9 611.9L1647.3 546.8L1647.8 570L1648.2 538L1648.7 556.7L1649.1 574.4L1649.6 619.6L1650 550.1L1650.4 555.6L1650.9 564.5L1651.3 512.6L1651.8 558.9L1652.2 504.9L1652.7 588.7L1653.1 576.6L1653.6 534.7L1654 530.2L1654.4 552.3L1654.9 670.4L1655.3 578.8L1655.8 625.2L1656.2 679.2L1656.7 534.7L1657.1 596.5L1657.6 561.1L1658 600.9L1658.4 695.8L1658.9 542.4L1659.3 596.5L1659.8 520.3L1660.2 691.4L1660.7 554.5L1661.1 637.3L1661.6 581L1662 588.7L1662.4 581L1662.9 515.9L1663.3 624.1L1663.8 657.2L1664.2 539.1L1664.7 585.4L1665.1 544.6L1665.6 572.2L1666 670.4L1666.4 668.2L1666.9 632.9L1667.3 583.2L1667.8 590.9L1668.2 557.8L1668.7 476.2L1669.1 578.8L1669.6 588.7L1670 529.1L1670.4 647.2L1670.9 531.4L1671.3 533.6L1671.8 607.5L1672.2 573.3L1672.7 530.2L1673.1 684.8L1673.6 588.7L1674 543.5L1674.4 623L1674.9 575.5L1675.3 -562.3L1675.8 373.5L1676.2 355.9L1676.7 479.5L1677.1 515.9L1677.6 466.2L1678 545.7L1678.4 229L1678.9 217.9L1679.3 -35.9L1679.8 508.2L1680.2 498.2L1680.7 448.6L1681.1 486.1L1681.6 670.4L1682 555.6L1682.4 348.2L1682.9 503.8L1683.3 661.6L1683.8 615.2L1684.2 606.4L1684.7 549L1685.1 603.1L1685.6 511.5L1686 492.7L1686.4 529.1L1686.9 588.7L1687.3 572.2L1687.8 544.6L1688.2 583.2L1688.7 588.7L1689.1 585.4L1689.6 556.7L1690 544.6L1690.4 604.2L1690.9 586.5L1691.3 562.3L1691.8 536.9L1692.2 608.6L1692.7 635.1L1693.1 615.2L1693.6 592.1L1694 629.6L1694.4 543.5L1694.9 600.9L1695.3 682.5L1695.8 518.1L1696.2 575.5L1696.7 499.3L1697.1 520.3L1697.6 599.8L1698 550.1L1698.4 572.2L1698.9 581L1699.3 577.7L1699.8 519.2L1700.2 595.4L1700.7 616.3L1701.1 561.1L1701.6 583.2L1702 563.4L1702.4 600.9L1702.9 529.1L1703.3 613L1703.8 523.6L1704.2 556.7L1704.7 570L1705.1 645L1705.6 534.7L1706 605.3L1706.4 573.3L1706.9 590.9L1707.3 675.9L1707.8 502.7L1708.2 631.8L1708.7 479.5L1709.1 507.1L1709.6 584.3L1710 570L1710.4 590.9L1710.9 593.2L1711.3 603.1L1711.8 457.4L1712.2 541.3L1712.7 655L1713.1 545.7L1713.6 546.8L1714 528L1714.4 521.4L1714.9 596.5L1715.3 551.2L1715.8 599.8L1716.2 602L1716.7 526.9L1717.1 585.4L1717.6 552.3L1718 579.9L1718.4 545.7L1718.9 639.5L1719.3 593.2L1719.8 492.7L1720.2 609.7L1720.7 619.6L1721.1 531.4L1721.6 600.9L1722 507.1L1722.4 547.9L1722.9 491.6L1723.3 526.9L1723.8 584.3L1724.2 558.9L1724.7 605.3L1725.1 598.7L1725.6 523.6L1726 640.6L1726.4 564.5L1726.9 645L1727.3 553.4L1727.8 604.2L1728.2 465.1L1728.7 489.4L1729.1 551.2L1729.6 568.9L1730 -970.7L1730.4 496L1730.9 397.8L1731.3 424.3L1731.8 506L1732.2 662.7L1732.7 570L1733.1 202.5L1733.6 148.4L1734 465.1L1734.4 535.8L1734.9 570L1735.3 532.5L1735.8 616.3L1736.2 566.7L1736.7 572.2L1737.1 679.2L1737.6 478.4L1738 545.7L1738.4 681.4L1738.9 499.3L1739.3 534.7L1739.8 536.9L1740.2 523.6L1740.7 551.2L1741.1 549L1741.6 573.3L1742 582.1L1742.4 518.1L1742.9 551.2L1743.3 595.4L1743.8 649.4L1744.2 573.3L1744.7 547.9L1745.1 567.8L1745.6 542.4L1746 550.1L1746.4 670.4L1746.9 628.5L1747.3 581L1747.8 637.3L1748.2 666L1748.7 560L1749.1 538L1749.6 667.1L1750 677L1750.4 626.3L1750.9 519.2L1751.3 694.7L1751.8 700.2L1752.2 519.2L1752.7 607.5L1753.1 543.5L1753.6 688.1L1754 509.3L1754.4 682.5L1754.9 670.4L1755.3 544.6L1755.8 693.6L1756.2 558.9L1756.7 519.2L1757.1 672.6L1757.6 562.3L1758 576.6L1758.4 638.4L1758.9 542.4L1759.3 565.6L1759.8 672.6L1760.2 585.4L1760.7 492.7L1761.1 525.8L1761.6 567.8L1762.4 607.5L1762.9 618.5L1763.3 561.1L1763.8 508.2L1764.2 489.4L1764.7 671.5L1765.1 596.5L1765.6 605.3L1766 544.6L1766.4 533.6L1766.9 590.9L1767.3 550.1L1767.8 534.7L1768.2 602L1768.7 611.9L1769.1 604.2L1769.6 677L1770 557.8L1770.4 643.9L1770.9 550.1L1771.3 624.1L1771.8 523.6L1772.2 631.8L1772.7 628.5L1773.1 574.4L1773.6 546.8L1774 529.1L1774.4 657.2L1774.9 585.4L1775.3 555.6L1775.8 596.5L1776.2 636.2L1776.7 668.2L1777.1 595.4L1777.6 602L1778 549L1778.4 586.5L1778.9 590.9L1779.3 609.7L1779.8 620.7L1780.2 576.6L1780.7 606.4L1781.1 573.3L1781.6 658.3L1782 587.6L1782.4 592.1L1782.9 528L1783.3 613L1783.8 532.5L1784.2 647.2L1784.7 625.2L1785.1 679.2L1785.6 659.4L1786 625.2L1786.4 679.2L1786.9 618.5L1787.3 535.8L1787.8 558.9L1788.2 617.4L1788.7 600.9L1789.1 659.4L1789.6 627.4L1790 437.5L1790.4 -317.3L1790.9 439.8L1791.3 390.1L1791.8 385.7L1792.2 460.7L1792.7 504.9L1793.1 460.7L1793.6 226.8L1794 204.7L1794.4 -11.6L1794.9 352.6L1795.3 508.2L1795.8 436.4L1796.2 470.7L1796.7 685.9L1797.1 568.9L1797.6 290.8L1798 550.1L1798.4 635.1L1798.9 567.8L1799.3 595.4L1799.8 629.6" fill="transparent" stroke="#3fb1e3" stroke-width="3" stroke-linejoin="bevel" class="zr21-cls-65"></path>
</g>
<path d="M-294.1 -5l588.2 0l0 28l-588.2 0Z" transform="translate(1000 5)" fill="rgb(0,0,0)" fill-opacity="0" stroke="#ccc" stroke-width="0" class="zr21-cls-63"></path>
<text dominant-baseline="central" text-anchor="middle" style="font-size:18px;font-family:sans-serif;font-weight:bold;" xml:space="preserve" y="9" transform="translate(1000 5)" fill="#666666">Min controlBehaviorUpdate per Tick for benchmark_biolab_synchronous</text>
<defs >
<clipPath id="zr21-c0">
<path d="M198 58.5l16004 0l0 8703l-16004 0Z" fill="#000" class="zr21-cls-64"></path>
</clipPath>
</defs>
<style ><![CDATA[
.zr21-cls-63:hover {
pointer-events:none;
}
.zr21-cls-64:hover {
cursor:pointer;
fill:rgba(0,0,0,1);
}
.zr21-cls-65:hover {
cursor:pointer;
}

]]>

</style>
</svg>