<svg width="2000" height="1000" xmlns="http://www.w3.org/2000/svg" xmlns:xlink="http://www.w3.org/1999/xlink" version="1.1" baseProfile="full" viewBox="0 0 2000 1000">
<rect width="2000" height="1000" x="0" y="0" fill="rgb(252,252,252)" fill-opacity="0"></rect>
<path d="M200 930.5L1800 930.5" fill="transparent" stroke="#eeeeee" class="zr9-cls-27"></path>
<path d="M200 794.5L1800 794.5" fill="transparent" stroke="#eeeeee" class="zr9-cls-27"></path>
<path d="M200 613.5L1800 613.5" fill="transparent" stroke="#eeeeee" class="zr9-cls-27"></path>
<path d="M200 432.5L1800 432.5" fill="transparent" stroke="#eeeeee" class="zr9-cls-27"></path>
<path d="M200 250.5L1800 250.5" fill="transparent" stroke="#eeeeee" class="zr9-cls-27"></path>
<path d="M200 69.5L1800 69.5" fill="transparent" stroke="#eeeeee" class="zr9-cls-27"></path>
<path d="M200 60.5L1800 60.5" fill="transparent" stroke="#eeeeee" class="zr9-cls-27"></path>
<path d="M200.5 930L200.5 60" fill="transparent" stroke="#cccccc" stroke-linecap="round" class="zr9-cls-27"></path>
<text dominant-baseline="central" text-anchor="middle" style="font-size:12px;font-family:sans-serif;" xml:space="preserve" y="-6" transform="translate(200 45)" fill="#cccccc">Min wholeUpdate Time (ms)</text>
<path d="M200 930.5L1800 930.5" fill="transparent" stroke="#cccccc" stroke-linecap="round" class="zr9-cls-27"></path>
<text dominant-baseline="central" text-anchor="end" style="font-size:12px;font-family:sans-serif;" transform="translate(192 930)" fill="#999999">0.125</text>
<text dominant-baseline="central" text-anchor="end" style="font-size:12px;font-family:sans-serif;" transform="translate(192 794.6056)" fill="#999999">0.200</text>
<text dominant-baseline="central" text-anchor="end" style="font-size:12px;font-family:sans-serif;" transform="translate(192 613.2729)" fill="#999999">0.300</text>
<text dominant-baseline="central" text-anchor="end" style="font-size:12px;font-family:sans-serif;" transform="translate(192 431.9401)" fill="#999999">0.400</text>
<text dominant-baseline="central" text-anchor="end" style="font-size:12px;font-family:sans-serif;" transform="translate(192 250.6074)" fill="#999999">0.500</text>
<text dominant-baseline="central" text-anchor="end" style="font-size:12px;font-family:sans-serif;" transform="translate(192 69.2746)" fill="#999999">0.600</text>
<text dominant-baseline="central" text-anchor="middle" style="font-size:12px;font-family:sans-serif;" y="6" transform="translate(200.2222 938)" fill="#999999">0</text>
<text dominant-baseline="central" text-anchor="middle" style="font-size:12px;font-family:sans-serif;" y="6" transform="translate(235.3333 938)" fill="#999999">79</text>
<text dominant-baseline="central" text-anchor="middle" style="font-size:12px;font-family:sans-serif;" y="6" transform="translate(270.4444 938)" fill="#999999">158</text>
<text dominant-baseline="central" text-anchor="middle" style="font-size:12px;font-family:sans-serif;" y="6" transform="translate(305.5556 938)" fill="#999999">237</text>
<text dominant-baseline="central" text-anchor="middle" style="font-size:12px;font-family:sans-serif;" y="6" transform="translate(340.6667 938)" fill="#999999">316</text>
<text dominant-baseline="central" text-anchor="middle" style="font-size:12px;font-family:sans-serif;" y="6" transform="translate(375.7778 938)" fill="#999999">395</text>
<text dominant-baseline="central" text-anchor="middle" style="font-size:12px;font-family:sans-serif;" y="6" transform="translate(410.8889 938)" fill="#999999">474</text>
<text dominant-baseline="central" text-anchor="middle" style="font-size:12px;font-family:sans-serif;" y="6" transform="translate(446 938)" fill="#999999">553</text>
<text dominant-baseline="central" text-anchor="middle" style="font-size:12px;font-family:sans-serif;" y="6" transform="translate(481.1111 938)" fill="#999999">632</text>
<text dominant-baseline="central" text-anchor="middle" style="font-size:12px;font-family:sans-serif;" y="6" transform="translate(516.2222 938)" fill="#999999">711</text>
<text dominant-baseline="central" text-anchor="middle" style="font-size:12px;font-family:sans-serif;" y="6" transform="translate(551.3333 938)" fill="#999999">790</text>
<text dominant-baseline="central" text-anchor="middle" style="font-size:12px;font-family:sans-serif;" y="6" transform="translate(586.4444 938)" fill="#999999">869</text>
<text dominant-baseline="central" text-anchor="middle" style="font-size:12px;font-family:sans-serif;" y="6" transform="translate(621.5556 938)" fill="#999999">948</text>
<text dominant-baseline="central" text-anchor="middle" style="font-size:12px;font-family:sans-serif;" y="6" transform="translate(656.6667 938)" fill="#999999">1027</text>
<text dominant-baseline="central" text-anchor="middle" style="font-size:12px;font-family:sans-serif;" y="6" transform="translate(691.7778 938)" fill="#999999">1106</text>
<text dominant-baseline="central" text-anchor="middle" style="font-size:12px;font-family:sans-serif;" y="6" transform="translate(726.8889 938)" fill="#999999">1185</text>
<text dominant-baseline="central" text-anchor="middle" style="font-size:12px;font-family:sans-serif;" y="6" transform="translate(762 938)" fill="#999999">1264</text>
<text dominant-baseline="central" text-anchor="middle" style="font-size:12px;font-family:sans-serif;" y="6" transform="translate(797.1111 938)" fill="#999999">1343</text>
<text dominant-baseline="central" text-anchor="middle" style="font-size:12px;font-family:sans-serif;" y="6" transform="translate(832.2222 938)" fill="#999999">1422</text>
<text dominant-baseline="central" text-anchor="middle" style="font-size:12px;font-family:sans-serif;" y="6" transform="translate(867.3333 938)" fill="#999999">1501</text>
<text dominant-baseline="central" text-anchor="middle" style="font-size:12px;font-family:sans-serif;" y="6" transform="translate(902.4444 938)" fill="#999999">1580</text>
<text dominant-baseline="central" text-anchor="middle" style="font-size:12px;font-family:sans-serif;" y="6" transform="translate(937.5556 938)" fill="#999999">1659</text>
<text dominant-baseline="central" text-anchor="middle" style="font-size:12px;font-family:sans-serif;" y="6" transform="translate(972.6667 938)" fill="#999999">1738</text>
<text dominant-baseline="central" text-anchor="middle" style="font-size:12px;font-family:sans-serif;" y="6" transform="translate(1007.7778 938)" fill="#999999">1817</text>
<text dominant-baseline="central" text-anchor="middle" style="font-size:12px;font-family:sans-serif;" y="6" transform="translate(1042.8889 938)" fill="#999999">1896</text>
<text dominant-baseline="central" text-anchor="middle" style="font-size:12px;font-family:sans-serif;" y="6" transform="translate(1078 938)" fill="#999999">1975</text>
<text dominant-baseline="central" text-anchor="middle" style="font-size:12px;font-family:sans-serif;" y="6" transform="translate(1113.1111 938)" fill="#999999">2054</text>
<text dominant-baseline="central" text-anchor="middle" style="font-size:12px;font-family:sans-serif;" y="6" transform="translate(1148.2222 938)" fill="#999999">2133</text>
<text dominant-baseline="central" text-anchor="middle" style="font-size:12px;font-family:sans-serif;" y="6" transform="translate(1183.3333 938)" fill="#999999">2212</text>
<text dominant-baseline="central" text-anchor="middle" style="font-size:12px;font-family:sans-serif;" y="6" transform="translate(1218.4444 938)" fill="#999999">2291</text>
<text dominant-baseline="central" text-anchor="middle" style="font-size:12px;font-family:sans-serif;" y="6" transform="translate(1253.5556 938)" fill="#999999">2370</text>
<text dominant-baseline="central" text-anchor="middle" style="font-size:12px;font-family:sans-serif;" y="6" transform="translate(1288.6667 938)" fill="#999999">2449</text>
<text dominant-baseline="central" text-anchor="middle" style="font-size:12px;font-family:sans-serif;" y="6" transform="translate(1323.7778 938)" fill="#999999">2528</text>
<text dominant-baseline="central" text-anchor="middle" style="font-size:12px;font-family:sans-serif;" y="6" transform="translate(1358.8889 938)" fill="#999999">2607</text>
<text dominant-baseline="central" text-anchor="middle" style="font-size:12px;font-family:sans-serif;" y="6" transform="translate(1394 938)" fill="#999999">2686</text>
<text dominant-baseline="central" text-anchor="middle" style="font-size:12px;font-family:sans-serif;" y="6" transform="translate(1429.1111 938)" fill="#999999">2765</text>
<text dominant-baseline="central" text-anchor="middle" style="font-size:12px;font-family:sans-serif;" y="6" transform="translate(1464.2222 938)" fill="#999999">2844</text>
<text dominant-baseline="central" text-anchor="middle" style="font-size:12px;font-family:sans-serif;" y="6" transform="translate(1499.3333 938)" fill="#999999">2923</text>
<text dominant-baseline="central" text-anchor="middle" style="font-size:12px;font-family:sans-serif;" y="6" transform="translate(1534.4444 938)" fill="#999999">3002</text>
<text dominant-baseline="central" text-anchor="middle" style="font-size:12px;font-family:sans-serif;" y="6" transform="translate(1569.5556 938)" fill="#999999">3081</text>
<text dominant-baseline="central" text-anchor="middle" style="font-size:12px;font-family:sans-serif;" y="6" transform="translate(1604.6667 938)" fill="#999999">3160</text>
<text dominant-baseline="central" text-anchor="middle" style="font-size:12px;font-family:sans-serif;" y="6" transform="translate(1639.7778 938)" fill="#999999">3239</text>
<text dominant-baseline="central" text-anchor="middle" style="font-size:12px;font-family:sans-serif;" y="6" transform="translate(1674.8889 938)" fill="#999999">3318</text>
<text dominant-baseline="central" text-anchor="middle" style="font-size:12px;font-family:sans-serif;" y="6" transform="translate(1710 938)" fill="#999999">3397</text>
<text dominant-baseline="central" text-anchor="middle" style="font-size:12px;font-family:sans-serif;" y="6" transform="translate(1745.1111 938)" fill="#999999">3476</text>
<text dominant-baseline="central" text-anchor="middle" style="font-size:12px;font-family:sans-serif;" y="6" transform="translate(1780.2222 938)" fill="#999999">3555</text>
<g clip-path="url(#zr9-c0)">
<path d="M200.2 -47L200.7 509.6L201.1 659L201.6 656.6L202 716.3L202.4 715.2L202.9 725.5L203.3 665.9L203.8 729.9L204.2 692.7L204.7 759.2L205.1 740.4L205.6 697.4L206 698.3L206.4 718.1L206.9 664.8L207.3 690.3L207.8 705.2L208.2 731.1L208.7 584.6L209.1 654.4L209.6 190.8L210 721.5L210.4 752.9L210.9 743.8L211.3 635.8L211.8 769.8L212.2 680L212.7 735.7L213.1 697.2L213.6 727.7L214 743.8L214.4 759.6L214.9 731.1L215.3 791.3L215.8 668L216.2 755.8L216.7 617.3L217.1 726.2L217.6 729.1L218 735.1L218.4 304.1L218.9 769.2L219.3 698.5L219.8 771.6L220.2 714.1L220.7 731.5L221.1 719.5L221.6 751.8L222 646.6L222.4 509.2L222.9 592.1L223.3 647.2L223.8 696.9L224.2 578.6L224.7 605.5L225.1 500.8L225.6 569.8L226 564.7L226.4 654.4L226.9 415.8L227.3 443.5L227.8 543.8L228.2 467.1L228.7 524.6L229.1 611.1L229.6 566.9L230 331.1L230.4 376.6L230.9 504.1L231.3 448.3L231.8 580.8L232.2 501.2L232.7 413.6L233.1 380.6L233.6 385.3L234 490.7L234.4 590.6L234.9 542L235.3 458.8L235.8 390.2L236.2 497.8L236.7 507.9L237.1 671.1L237.6 401.3L238 420.2L238.4 401.3L238.9 457.1L239.3 453.9L239.8 600.4L240.2 482.2L240.7 346.4L241.1 379.9L241.6 490L242 460L242.4 633.4L242.9 560.3L243.3 404.9L243.8 431.9L244.2 494.3L244.7 458.1L245.1 643L245.6 511.4L246 450.3L246.4 367.6L246.9 429.2L247.3 473.6L247.8 667.5L248.2 519.2L248.7 406.6L249.1 329.7L249.6 519.2L250 447.2L250.4 612.7L250.9 545.6L251.3 482.4L251.8 331.5L252.2 453.2L252.7 353.4L253.1 684.5L253.6 504.5L254 413.3L254.4 353.1L254.9 511.5L255.3 435.6L255.8 667.1L256.2 507L256.7 464.6L257.1 438.8L257.6 505.9L258 477.8L258.4 675.3L258.9 433.2L259.3 481.4L259.8 447.2L260.2 497.6L260.7 458.1L261.1 600.4L261.6 547.3L262 433.2L262.4 379L262.9 171.9L263.3 431L263.8 635.2L264.2 498.7L264.7 523.9L265.1 484.7L265.6 575.9L266 545.3L266.4 661.3L266.9 550.5L267.3 610.4L267.8 554L268.2 667.5L268.7 593.3L269.1 702.3L269.6 661.7L270 715.4L270.4 654.6L270.9 727.7L271.3 683.3L271.8 741.7L272.2 720.6L272.7 725.5L273.1 719.5L273.6 656.4L274 730.4L274.4 751.1L274.9 692.3L275.3 729.7L275.8 564.5L276.2 725.7L276.7 726.4L277.1 757.3L277.6 742.7L278 749.1L278.4 696.1L278.9 731L279.3 676L279.8 787.5L280.2 691.2L280.7 662.1L281.1 736.6L281.6 715L282 728.4L282.4 820L282.9 701.6L283.3 746.4L283.8 734.8L284.2 748L284.7 704.5L285.1 715.4L285.6 716.6L286 719.9L286.4 684.9L286.9 748L287.3 736.2L287.8 654.4L288.2 739.3L288.7 670.4L289.1 705.8L289.6 781.2L290 682.2L290.4 666.4L290.9 704.8L291.3 733.7L291.8 712.3L292.2 701.8L292.7 754.5L293.1 752.7L293.6 720.8L294 758.3L294.4 687.3L294.9 649.9L295.3 708.5L295.8 722.8L296.2 713.9L296.7 725.5L297.1 671.8L297.6 734L298 700.3L298.4 733.1L298.9 721.7L299.3 703.8L299.8 700.3L300.2 735.5L300.7 706.5L301.1 740.4L301.6 710.1L302 597.1L302.4 668L302.9 733.3L303.3 749.8L303.8 792.1L304.2 734.4L304.7 677.1L305.1 738L305.6 717L306 688.7L306.4 729.3L306.9 697.6L307.3 715.4L307.8 731.7L308.2 767.6L308.7 760.5L309.1 770.1L309.6 658.2L310 716.3L310.4 741.1L310.9 754.7L311.3 715L311.8 771.4L312.2 696.9L312.7 661.5L313.1 688.7L313.6 760.7L314 731.3L314.4 727.9L314.9 728.6L315.3 741.1L315.8 762L316.2 455.5L316.7 647.9L317.1 774.5L317.6 719.2L318 783L318.4 723L318.9 670.2L319.3 682.7L319.8 756.3L320.2 715.4L320.7 705.9L321.1 748.4L321.6 797.1L322 699.8L322.4 736.8L322.9 741.8L323.3 720.3L323.8 611.5L324.2 773.4L324.7 706.3L325.1 773.6L325.6 721L326 758.5L326.4 692.9L326.9 699.6L327.3 670.4L327.8 741.3L328.2 715.7L328.7 750L329.1 709.7L329.6 748.2L330 713L330.4 786.3L330.9 588.4L331.3 792.2L331.8 736.8L332.7 731.5L333.1 695.1L333.6 452.1L334 729.5L334.4 648.8L334.9 788.1L335.3 704.8L335.8 781.5L336.2 779.4L336.7 643.7L337.1 549.6L337.6 627.8L338 622.5L338.4 581.9L338.9 778.5L339.3 664.8L339.8 539.3L340.2 493L340.7 594.2L341.1 613.6L341.6 734.9L342 618.7L342.4 499.9L342.9 459.5L343.3 492.7L343.8 577.7L344.2 622.3L344.7 598L345.1 473.5L345.6 337.5L346 475.3L346.4 512.1L346.9 671.3L347.3 554.2L347.8 528.6L348.2 349.3L348.7 493.8L349.1 525.7L349.6 633.8L350 554.9L350.4 479.8L350.9 369.4L351.3 523L351.8 571.4L352.2 671.5L352.7 467.3L353.1 443L353.6 434.5L354 484L354.4 504.5L354.9 601.7L355.3 545.8L355.8 517.9L356.2 431.8L356.7 492.5L357.1 504.1L357.6 660.8L358 549.8L358.4 450.8L358.9 434.8L359.3 436.1L359.8 452.8L360.2 634.1L360.7 484.7L361.1 497.6L361.6 402L362 513L362.4 501L362.9 654.8L363.3 558.1L363.8 427.4L364.2 323.3L364.7 436.3L365.1 474.2L365.6 620.5L366 517.7L366.4 498.9L366.9 322.4L367.3 551.3L367.8 526.8L368.2 617.1L368.7 481.8L369.1 450.6L369.6 196.4L370 492.7L370.4 472.9L370.9 645.2L371.3 455.9L371.8 510.5L372.2 437L372.7 519L373.1 439.2L373.6 554L374 422.7L374.4 498.3L374.9 380.1L375.3 494.1L375.8 478.2L376.2 643.4L376.7 486.9L377.1 376.3L378 442.3L378.4 539.7L378.9 685.1L379.3 604L379.8 574.1L380.2 481.4L380.7 554.7L381.1 559.2L381.6 478.5L382 584.4L382.4 605.3L382.9 516.8L383.3 622.3L383.8 613.5L384.2 705L384.7 628.3L385.1 668.9L385.6 600.2L386 732.8L386.4 721.2L386.9 766.7L387.3 680.9L387.8 767.9L388.2 714.1L388.7 694.9L389.1 746.2L389.6 736L390 700.7L390.4 768.5L390.9 538.4L391.3 672.2L391.8 758.7L392.2 648.3L392.7 621.3L393.1 711.2L393.6 733.1L394 770.3L394.4 730.6L394.9 735.5L395.3 753.3L395.8 664L396.2 709.2L396.7 748.4L397.1 716.1L397.6 717L398 703L398.4 717.7L398.9 733.7L399.8 734.9L400.2 737.7L400.7 747.3L401.6 761.8L402 750.4L402.4 771.2L402.9 682.9L403.3 747.8L403.8 728.2L404.2 750.5L404.7 742.9L405.1 710.3L405.6 732.2L406 736L406.4 705.6L406.9 737.1L407.3 707.7L407.8 699.9L408.7 692.3L409.1 740.7L409.6 738.2L410 677.1L410.4 755.4L410.9 737.3L411.3 721.7L411.8 751.1L412.2 688.9L412.7 673.3L413.1 701.9L413.6 685.6L414 626.7L414.4 657.5L414.9 668.2L415.3 726.1L415.8 736.6L416.2 706.5L416.7 696.9L417.1 748.7L417.6 656.6L418 767.9L418.4 716.8L418.9 780.3L419.3 725.9L419.8 738.8L420.2 716.6L420.7 762L421.1 737.3L421.6 754.7L422 722.6L422.4 748.9L422.9 571L423.3 749.3L423.8 752.5L424.2 776.1L424.7 581.5L425.1 753.8L425.6 734.2L426 758.3L426.4 685.6L426.9 778.5L427.3 750.9L427.8 758.7L428.2 744.6L428.7 725.2L429.1 771.4L429.6 707.7L430 730.2L430.4 781.2L430.9 737.7L431.3 802.2L431.8 658.8L432.2 777.7L432.7 671.8L433.1 772.7L433.6 713.2L434 725.5L434.4 681.5L434.9 753.1L435.3 671.5L435.8 750.5L436.2 717.9L436.7 705.8L437.1 686.9L437.6 742L438 659.2L438.4 738.8L438.9 637.2L439.3 759.8L439.8 667.1L440.2 731.5L440.7 666L441.1 701.2L441.6 740.6L442 725L442.4 750.5L442.9 800.6L443.3 725.3L443.8 797.7L444.2 709.7L444.7 744.4L445.1 715.4L445.6 737.5L446 633.4L446.4 707.4L446.9 726.6L447.3 756.9L447.8 668L448.2 708.5L448.7 631.4L449.1 596.2L449.6 736L450 692.5L450.4 701.6L450.9 713.9L451.3 779.2L451.8 759.1L452.2 703L452.7 634.5L453.1 517.2L453.6 626.1L454 610.6L454.4 744.6L454.9 640.8L455.3 620.7L455.8 595.3L456.2 568.8L456.7 535.8L457.1 674.7L457.6 565.8L458 544.9L458.4 528.4L458.9 492L459.3 466.6L459.8 687.3L460.2 563.6L460.7 446.4L461.6 460.4L462 515.2L462.4 650.3L462.9 563.2L463.3 480L463.8 347.8L464.2 456.4L464.7 497.9L465.1 587.3L465.6 598.4L466 416.2L466.4 353.6L466.9 487.8L467.3 531.1L467.8 542.9L468.2 561.2L468.7 497.2L469.1 442.6L469.6 443.9L470 467.5L470.4 599.7L470.9 554.9L471.3 483.4L471.8 439.9L472.2 442.5L472.7 534.8L473.1 592.4L473.6 504.8L474 392.6L474.4 442.5L474.9 448.8L475.3 540.6L475.8 672.8L476.2 363L476.7 474.9L477.1 340.7L477.6 476.4L478 462L478.4 656.4L478.9 558.5L479.3 469.1L479.8 335.5L480.2 537.8L480.7 470.9L481.1 581.7L481.6 570.5L482 461.9L482.4 407.6L482.9 481.8L483.3 444.1L483.8 625.1L484.2 511.2L484.7 473.6L485.1 313L485.6 476.5L486 511.7L486.4 630L486.9 519.3L487.3 428.1L487.8 437.2L488.2 451.2L488.7 498.5L489.1 485.8L489.6 559.2L490 474.2L490.4 426L490.9 473.6L491.3 465.8L491.8 622.5L492.2 548L492.7 483.4L493.1 393L493.6 508.8L494 463.7L494.4 601.5L495.3 592.1L495.8 503.6L496.2 577.2L496.7 466.9L497.1 647.5L497.6 583L498 646.5L498.4 567.6L498.9 600.9L499.3 655.9L499.8 717L500.2 662.6L500.7 684.5L501.1 610.4L501.6 760.9L502 746.2L502.4 593.9L502.9 693.2L503.3 712.3L503.8 627.1L504.2 748.5L504.7 612.5L505.1 727.5L505.6 735.7L506 558.5L506.4 691.8L506.9 772.5L507.3 645.2L507.8 729.3L508.2 673.5L508.7 775.6L509.1 674.4L509.6 696.3L510 705L510.4 728.4L510.9 657.3L511.3 754L511.8 670.8L512.2 775.6L512.7 670.2L513.1 710.3L513.6 697.6L514 696.3L514.4 729.1L514.9 772.8L515.3 700.9L515.8 761.6L516.2 701L516.7 763.1L517.1 721.3L517.6 707.4L518 611.8L518.4 738L518.9 696.5L519.3 712.3L519.8 725.9L520.2 707.6L520.7 664.6L521.1 729.9L521.6 718.1L522 743.3L522.4 713L522.9 764.7L523.3 694.1L523.8 706.3L524.2 710.3L524.7 755.4L525.1 658.1L525.6 681.3L526 661.5L526.4 754.7L526.9 674L527.3 699.4L527.8 672.8L528.2 630.9L528.7 663.1L529.1 728.2L529.6 513.9L530 707.7L530.4 667.3L530.9 713.5L531.3 687.8L531.8 777.6L532.2 702.3L532.7 714.6L533.1 746.7L533.6 709.7L534 679.3L534.4 710.8L534.9 688.9L535.3 735.9L535.8 770.1L536.2 679.3L536.7 631.4L537.1 702.7L537.6 706.8L538 733.7L538.4 695.4L538.9 764L539.3 784.6L539.8 692.2L540.2 699.6L540.7 709.9L541.1 698.5L541.6 721.9L542 739.3L542.4 767L542.9 731L543.3 750L543.8 747.8L544.2 711L544.7 684.4L545.1 744L545.6 726.8L546 748.9L546.4 729L546.9 668.9L547.3 727.1L547.8 734.4L548.2 748.5L548.7 702.9L549.1 708.3L549.6 718.3L550 690.5L550.4 739.8L550.9 697.2L551.3 694.5L551.8 726.6L552.2 731.3L552.7 746.2L553.1 729L553.6 751.4L554 703.9L554.4 772.5L554.9 753.1L555.3 728.4L555.8 724.1L556.2 740.4L556.7 718.8L557.1 670.4L557.6 673.8L558 665.1L558.4 656.4L558.9 681.3L559.3 747.6L559.8 691.1L560.2 733.5L560.7 737.1L561.1 659L561.6 725.7L562 729.1L562.4 688.7L562.9 755.4L563.3 683.3L563.8 729L564.2 477.8L564.7 715.9L565.1 719.5L565.6 739.7L566 630.9L566.4 706.5L566.9 794.2L567.3 748.9L567.8 676.4L568.2 569.8L568.7 645.7L569.1 562.9L569.6 743.7L570 646.6L570.4 616L570.9 560.9L571.3 565.2L571.8 596.6L572.2 740.6L572.7 565.2L573.1 546.5L573.6 471.1L574 496.1L574.4 548.5L574.9 610.9L575.3 561.8L575.8 416.7L576.2 328.2L576.7 412.4L577.1 483.4L577.6 647L578 530.4L578.4 464.9L578.9 314.4L579.3 479.4L579.8 493.8L580.2 613.3L580.7 528.8L581.1 498.9L581.6 416.2L582 472.7L582.4 519.2L582.9 292L583.3 563.4L583.8 466.6L584.2 368.5L584.7 491.1L585.1 456.8L585.6 644.6L586 505.4L586.4 417.6L586.9 364.8L587.3 481.3L587.8 496L588.2 620.9L588.7 507.4L589.1 376.3L589.6 422.9L590 408.5L590.4 442.6L590.9 603.7L591.3 534.6L591.8 388.6L592.2 391.3L592.7 445.7L593.1 487.2L593.6 619.1L594 513.7L594.4 463.5L594.9 354.3L595.3 510.6L595.8 493.4L596.2 661.3L596.7 552.9L597.1 423.1L597.6 400.8L598 485.4L598.4 457L598.9 634.7L599.3 516.4L599.8 446.3L600.2 364.1L600.7 430.5L601.1 423.8L601.6 643.2L602 469.7L602.4 473.5L602.9 405.3L603.3 472.4L603.8 442.5L604.2 631.2L604.7 498.3L605.1 429.8L605.6 375.5L606 468.9L606.4 467.7L606.9 607.3L607.3 497.6L607.8 484.2L608.2 300.8L608.7 426.9L609.1 377.5L609.6 632.7L610 597.5L610.4 641L610.9 490.7L611.3 651.5L611.8 511L612.2 642.5L612.7 579.9L613.1 646.5L613.6 500.1L614 624.9L614.4 600.8L614.9 678.4L615.3 637.2L615.8 686.7L616.2 608L616.7 720.6L617.1 685.8L617.6 775.7L618 660.8L618.4 771L618.9 634.1L619.3 769L619.8 682.4L620.2 746.6L620.7 697.4L621.1 594.8L621.6 684.2L622 775.9L622.4 678L622.9 739.5L623.3 693.4L623.8 736L624.2 678L625.1 641L625.6 765L626 644.5L626.4 810.6L626.9 726.1L627.3 709.4L627.8 738.8L628.2 709.2L628.7 679.3L629.1 750.4L629.6 676.7L630 734.4L630.4 702.5L630.9 712.8L631.3 737.8L631.8 765.6L632.2 680.4L632.7 715.7L633.1 676L633.6 735.5L634 724.2L634.4 734.9L634.9 691.8L635.3 708.3L635.8 709.9L636.2 531.1L636.7 720.3L637.1 715.9L637.6 683.1L638 703.4L638.4 747.8L638.9 737.1L639.3 720.8L639.8 744.9L640.2 698.3L640.7 621.1L641.1 694.1L641.6 719.2L642 686L642.4 776.1L642.9 706.8L643.3 699.9L643.8 680.5L644.2 750.4L644.7 661.5L645.1 734.6L645.6 740.6L646 680.4L646.4 692.2L646.9 749.5L647.3 771.4L647.8 655.9L648.2 706.1L648.7 729.7L649.1 741.8L649.6 734.8L650 689.8L650.4 743.5L650.9 751.8L651.3 709.2L651.8 710.1L652.2 736.6L652.7 781L653.1 754.3L653.6 757.1L654 723L654.4 736.9L654.9 712.1L655.3 723.3L655.8 760.5L656.2 711.2L656.7 710.3L657.1 737.8L657.6 721.9L658 731.7L658.4 770.5L658.9 738.9L659.3 732.2L659.8 746L660.2 740.7L660.7 753.3L661.1 722.1L661.6 752L662 692.9L662.4 766L662.9 701.4L663.3 760.3L663.8 748.2L664.2 702.9L664.7 683.8L665.1 703.8L665.6 759.8L666 676L666.4 729.9L666.9 742.7L667.3 736.6L667.8 711L668.2 727.1L668.7 768.3L669.1 707L669.6 739.8L670 725.5L670.4 694.5L670.9 697.8L671.3 725.2L671.8 777.9L672.2 689.8L672.7 755.1L673.1 659.9L673.6 758L674 715.2L674.4 721.9L674.9 705.2L675.3 714.5L675.8 663L676.2 737.7L676.7 614.4L677.1 775.4L677.6 647.4L678 771.2L678.4 696.1L678.9 710.1L679.3 549.3L679.8 774.8L680.2 717.2L680.7 738.2L681.1 708.7L681.6 710.5L682 747.5L682.4 704.7L682.9 565.4L683.3 654.8L683.8 625.6L684.2 596.2L684.7 767.4L685.1 648.8L685.6 613.5L686 523.7L686.4 554.2L686.9 579.4L687.3 696L687.8 612.5L688.2 440.1L688.7 474.2L689.1 534.9L689.6 338.2L690 670L690.4 569.4L690.9 454.4L691.3 378.3L691.8 481.6L692.2 492.3L692.7 622L693.1 573.4L693.6 443.2L694 407.5L694.4 395.9L694.9 461.3L695.3 591.3L695.8 513L696.2 444.1L696.7 342.9L697.1 408.4L697.6 454.8L698 595.3L698.4 564.3L698.9 515.2L699.3 378.1L699.8 506.3L700.2 503.9L700.7 604.2L701.1 558.5L701.6 482.4L702 413.4L702.4 469.7L702.9 472.7L703.3 603.1L703.8 558.9L704.2 487.8L704.7 406.6L705.1 398.4L705.6 452.1L706 626.3L706.4 483.8L706.9 416.3L707.3 362.5L707.8 548.9L708.2 461.7L708.7 619.8L709.1 538.9L709.6 482.5L710 308.5L710.4 534L710.9 483.6L711.3 618.5L711.8 545.1L712.2 450.6L712.7 259.7L713.1 550.9L713.6 463.5L714 641.9L714.4 560.9L714.9 461.1L715.3 353.1L715.8 459L716.2 492.1L716.7 622.5L717.1 504.8L717.6 443.2L718 363.4L718.4 479.6L718.9 482.9L719.3 618L719.8 521L720.2 517.9L720.7 342.2L721.1 456.2L721.6 520.8L722 664.2L722.4 510.3L722.9 468.8L723.3 400.8L723.8 435.9L724.2 484.5L724.7 634.3L725.1 585.5L725.6 587L726 554.5L726.4 621.1L726.9 528.6L727.3 618.4L727.8 598.2L728.2 617.6L728.7 536.4L729.1 678.7L729.6 643.9L730 748.2L730.4 649.4L730.9 729.1L731.3 591.7L731.8 756.5L732.2 688.5L732.7 702.5L733.1 683.6L733.6 727L734 615.3L734.4 745.1L734.9 685.1L735.3 710.6L735.8 668.4L736.2 596L736.7 680.9L737.1 771.8L737.6 707.6L738 716.8L738.4 707.4L738.9 714.5L739.3 737.3L739.8 787.9L740.2 702.5L740.7 748.9L741.1 611.3L741.6 725L742 684.9L742.4 749.1L742.9 558L743.3 712.6L743.8 726.2L744.2 655.9L744.7 705.6L745.6 718.4L746 725.3L746.4 744.9L746.9 737.7L747.3 717.4L747.8 777.6L748.2 740.7L748.7 622.7L749.1 672.6L749.6 744.6L750 695.4L750.4 763.8L750.9 701.6L751.3 705.6L751.8 731.7L752.2 701.4L752.7 633.6L753.1 734.6L753.6 719.2L754 781.2L754.4 744.4L754.9 711.7L755.3 685.1L755.8 653.7L756.2 738.9L756.7 678.9L757.1 723.2L757.6 736.9L758 723L758.4 719.4L758.9 717.2L759.3 746L759.8 729.3L760.2 688.2L760.7 721.7L761.1 688.2L761.6 698.5L762 723.7L762.4 736.6L762.9 676L763.3 736.6L763.8 731.5L764.2 748.9L764.7 759.4L765.1 686.3L765.6 731.3L766 703.9L766.4 723.5L766.9 731.1L767.3 730.1L767.8 710.5L768.2 743.5L768.7 651.9L769.1 748.2L769.6 686.3L770 683.8L770.4 725.2L770.9 767.8L771.3 733.5L771.8 766.5L772.2 748.7L772.7 796.2L773.1 748.2L773.6 728.8L774 645.4L774.4 747.1L774.9 726.8L775.3 797.7L775.8 744L776.2 740.2L776.7 661L777.1 744.2L777.6 748L778 698.3L778.4 715L778.9 745.1L779.3 701.2L779.8 745.3L780.2 666.9L780.7 756.3L781.1 743.7L781.6 745.1L782 716.5L782.4 751.3L782.9 712.6L783.3 753.4L783.8 780.8L784.2 725.3L784.7 604.9L785.1 784.5L785.6 689.3L786 698.7L786.4 732.6L786.9 709.7L787.3 686.7L787.8 745.8L788.2 700.3L788.7 665.1L789.1 667.3L789.6 760.2L790 721.3L790.4 678.2L790.9 719.5L791.3 792.2L791.8 635.6L792.2 783.9L792.7 656.6L793.1 757.6L793.6 712.6L794 761.1L794.4 534.4L794.9 734.8L795.3 740.6L795.8 793.3L796.2 551.8L796.7 841L797.1 755.8L797.6 732.4L798 719.2L798.4 663.5L798.9 613.6L799.3 677.8L799.8 779.7L800.2 582.8L800.7 649.4L801.1 589.5L801.6 539.5L802 586.6L802.4 729.5L802.9 574.8L803.3 510.5L803.8 505.4L804.2 483.3L804.7 525.3L805.1 594.6L805.6 565.6L806 400.4L806.4 451.3L806.9 490.9L807.3 517.7L807.8 659.2L808.2 556.7L808.7 458.6L809.1 407.5L809.6 449.7L810 461.1L810.4 569.9L810.9 528L811.3 497.2L811.8 338.6L812.2 499.9L812.7 467.1L813.1 603.7L813.6 529.5L814 410L814.4 278.4L814.9 489.4L815.3 519.3L815.8 615.4L816.2 513.4L816.7 488.3L817.1 419.6L817.6 499L818 494.9L818.4 647.9L818.9 572.1L819.3 516.1L819.8 435.2L820.2 501.2L820.7 439.9L821.1 605.3L821.6 520.2L822 507.4L822.4 438.6L822.9 346L823.3 451.3L823.8 681.1L824.2 487.4L824.7 364.8L825.1 435.4L825.6 516.3L826 485.8L826.4 617.4L826.9 540.7L827.3 500.1L827.8 285.1L828.2 519.9L828.7 449.7L829.1 639L829.6 519.7L830 503.2L830.4 346.7L830.9 513L831.3 521L831.8 663L832.2 511.4L832.7 504.5L833.1 353.8L833.6 439.6L834 457.3L834.4 655.2L834.9 480.4L835.3 509.9L835.8 351.1L836.2 499.9L836.7 497.4L837.1 652.8L837.6 566.9L838 508.5L838.4 387.2L838.9 458.2L839.3 501.8L839.8 679.5L840.2 607.8L840.7 571.2L841.1 540L841.6 608.7L842 516.1L842.4 672.4L842.9 580.1L843.8 597.5L844.2 683.3L844.7 597.1L845.1 668.8L845.6 637.6L846 727.3L846.4 558.9L846.9 719L847.3 669.3L847.8 725.3L848.2 667.9L848.7 746L849.1 603.3L849.6 554.7L850 703.8L850.4 726.2L850.9 719.2L851.3 739.1L851.8 602.8L852.2 696.7L852.7 741.7L853.1 750.4L853.6 696.1L854 708.5L854.4 720.4L854.9 767.9L855.3 676.6L855.8 721L856.2 725.7L856.7 620.9L857.1 732.6L857.6 722.1L858 729.5L858.4 746.6L858.9 708.1L859.3 720.1L859.8 735.1L860.2 709.4L860.7 705.6L861.1 707.7L861.6 712.8L862 711.9L862.4 713.4L862.9 751.1L863.3 698.7L863.8 695.6L864.2 703.6L864.7 672.9L865.1 705.8L865.6 746L866 640.5L866.4 759.8L866.9 713.9L867.3 723L867.8 745.1L868.2 703L868.7 718.4L869.1 741.3L869.6 692L870 765.2L870.4 739.3L870.9 628L871.3 777.4L871.8 776.3L872.2 717.5L872.7 697.4L873.1 711.4L873.6 733.9L874 758.7L874.4 766L874.9 723L875.3 733.1L875.8 726.2L876.2 752.2L876.7 747.3L877.1 749.8L877.6 752.9L878 731.1L878.4 761.4L878.9 744.4L879.3 719.2L879.8 740.7L880.2 719.5L880.7 716.3L881.1 704.7L881.6 741.5L882 744.9L882.4 705.8L882.9 733.5L883.3 776.1L883.8 771.4L884.2 761.6L884.7 700.5L885.1 716.3L885.6 725.2L886 718.1L886.4 747.3L886.9 755.4L887.3 706.5L887.8 755.8L888.2 696.5L888.7 719.2L889.1 685.6L889.6 749.1L890 729.3L890.4 739.1L890.9 742.7L891.3 752.2L891.8 760.7L892.2 786.4L892.7 561.6L893.1 741.8L893.6 650.3L894 776.5L894.4 692.3L894.9 694.5L895.3 663.5L895.8 738.4L896.2 715.2L896.7 749.1L897.1 684.7L897.6 770.7L898 674L898.4 746.9L898.9 661.3L899.3 764.1L899.8 628.1L900.2 736.2L900.7 711.9L901.1 815.6L901.6 707.2L902 727.5L902.4 666.6L902.9 552.3L903.3 676.6L903.8 737.3L904.2 671.7L904.7 766.9L905.1 700.7L905.6 783.2L906 692.3L906.4 720.4L906.9 630L907.3 757.8L907.8 729.9L908.2 786.1L908.7 752.9L909.1 768.5L909.6 521.3L910 731.9L910.4 690.2L910.9 746.9L911.3 717.9L911.8 749.3L912.2 800.6L912.7 680.2L913.1 569.9L913.6 596L914 622.2L914.4 600L914.9 770.5L915.3 585.2L915.8 662.2L916.2 600.6L916.7 587.2L917.1 549.1L917.6 707.2L918 583.5L918.4 529.3L918.9 493.6L919.3 512.5L919.8 536L920.2 639.2L920.7 540.2L921.1 381L921.6 379.9L922 503.6L922.4 550.7L922.9 665.3L923.3 587.2L923.8 525.1L924.2 416.9L924.7 481.1L925.1 476L925.6 618.5L926 526.4L926.4 488L926.9 394L927.3 459.3L927.8 466.6L928.2 613.8L928.7 398L929.1 431.2L929.6 293.2L930 459.5L930.4 539.8L930.9 615.6L931.3 539.3L931.8 515.9L932.2 366.8L932.7 439.7L933.1 497.9L933.6 640.8L934 544L934.4 520.8L934.9 384.6L935.3 546.5L935.8 387.9L936.2 654.1L936.7 491.4L937.1 521.5L937.6 432.1L938 462.6L938.4 530.8L938.9 654.1L939.3 532.8L939.8 473.6L940.2 338.7L940.7 542L941.1 523.7L941.6 639.4L942 496.3L942.4 474.9L942.9 336.6L943.3 539.8L943.8 389.9L944.2 615.8L944.7 546.2L945.1 528.2L945.6 421.2L946 520.4L946.4 480.5L946.9 653.3L947.3 499L948.2 388.6L948.7 510.8L949.1 449.7L949.6 610.9L950 492.7L950.4 394.6L950.9 442.1L951.3 428.1L951.8 521.5L952.2 603.3L952.7 511L953.1 482.5L953.6 397.8L954 422L954.4 462L954.9 631L955.8 579.7L956.2 312.8L956.7 588.8L957.1 509.4L957.6 658.6L958 563L958.4 623.8L958.9 505L959.3 625.8L959.8 618.2L960.2 647.7L960.7 592.4L961.1 697.8L961.6 654.8L962 722.6L962.4 745.3L962.9 731.5L963.3 726.2L963.8 767.9L964.2 742.6L964.7 687.8L965.1 744.7L965.6 694.9L966 672.6L966.4 724.1L966.9 530.2L967.3 714.1L967.8 725.3L968.7 671.3L969.1 692L969.6 695.4L970 747.1L970.4 756.5L970.9 721.5L971.3 715.7L971.8 672.8L972.2 764.5L972.7 742L973.1 720.3L973.6 704.8L974 687.6L974.4 717.2L974.9 695.4L975.3 750.4L975.8 722.3L976.2 734.9L976.7 703.8L977.1 732.8L977.6 719.7L978 754.9L978.4 767.9L978.9 658.1L979.3 740L979.8 727.1L980.2 710.1L980.7 767.2L981.1 701L981.6 726.6L982 729.7L982.4 685.3L982.9 730.1L983.3 696.3L983.8 718.1L984.2 709.6L985.1 718.1L986 675.5L986.4 728.4L986.9 759.4L987.3 766.1L987.8 732.4L988.2 703.9L988.7 737.3L989.1 705.6L989.6 689.8L990 666.4L990.4 752.4L990.9 729L991.3 775.6L991.8 715.9L992.2 690.2L992.7 709.9L993.1 659.9L993.6 681.5L994 770.3L994.4 702.1L994.9 733.9L995.3 729.1L995.8 725L996.2 703.4L996.7 716.3L997.1 734.6L997.6 778.1L998 709.2L998.4 768.5L998.9 702.9L999.3 709.9L999.8 724.8L1000.2 749.3L1000.7 592.2L1001.1 760.9L1001.6 691.6L1002 752L1002.4 749.8L1002.9 742.2L1003.3 735.1L1003.8 771.6L1004.2 739.7L1004.7 672L1005.1 630.9L1005.6 753.4L1006 733.3L1006.4 765.6L1006.9 658.6L1007.3 765.6L1007.8 571L1008.2 739.1L1008.7 673.1L1009.1 748.2L1009.6 469.5L1010 764.9L1010.4 722.4L1010.9 751.6L1011.3 602.2L1011.8 713.2L1012.2 681.8L1012.7 760.2L1013.1 683.6L1013.6 719.4L1014 742.4L1014.4 707.9L1014.9 639L1015.3 762.5L1015.8 727.7L1016.2 726.6L1016.7 698.1L1017.1 723.9L1017.6 709.6L1018 719.5L1018.4 691.8L1018.9 771.8L1019.3 718.1L1019.8 787.9L1020.2 740.2L1020.7 734.6L1021.1 644.5L1021.6 715.5L1022 645L1022.4 744.7L1022.9 680L1023.3 736.2L1023.8 728.2L1024.2 724.8L1024.7 460L1025.1 765L1025.6 689.3L1026 782.5L1026.4 727.9L1026.9 770.5L1027.3 828.3L1027.8 723.9L1028.2 592.4L1028.7 512.1L1029.1 603.5L1029.6 631.8L1030 749.8L1030.4 665L1030.9 638.5L1031.3 552.5L1031.8 570.8L1032.2 592.6L1032.7 636.8L1033.1 502.1L1033.6 556L1034 472.7L1034.4 481.4L1034.9 546.5L1035.3 626L1035.8 555.6L1036.2 506.6L1036.7 322.6L1037.1 518.8L1037.6 477.3L1038 639.6L1038.4 580.5L1038.9 509.2L1039.3 395.5L1039.8 457.3L1040.2 446.3L1040.7 601.5L1041.1 451L1041.6 496.5L1042 406.4L1042.4 500.3L1042.9 422.5L1043.3 657.3L1043.8 466.2L1044.2 519.7L1044.7 375.4L1045.1 504.1L1045.6 452.1L1046 624.9L1046.4 480.2L1046.9 516.1L1047.3 351.6L1047.8 507.4L1048.2 453L1048.7 615.6L1049.1 519.9L1049.6 488.9L1050 319.3L1050.4 458.4L1050.9 463.3L1051.3 674.6L1051.8 555.4L1052.2 518.4L1052.7 406.6L1053.1 434.7L1053.6 441L1054 624.5L1054.4 512.5L1054.9 503.7L1055.3 375.4L1055.8 555.4L1056.2 469.8L1056.7 572.8L1057.1 511.4L1057.6 512.1L1058 344.7L1058.4 546.7L1058.9 454.4L1059.3 585.2L1059.8 546.7L1060.2 490.1L1060.7 371.2L1061.1 484.2L1061.6 433.8L1062 623.8L1062.4 518.4L1062.9 178.3L1063.3 393.1L1063.8 505.6L1064.2 486L1064.7 623.4L1065.1 490.3L1065.6 505.9L1066 361.2L1066.4 490L1066.9 497.4L1067.3 627.1L1067.8 508.5L1068.2 393L1068.7 382.3L1069.1 450.3L1069.6 455.3L1070 631.6L1070.4 602.8L1070.9 650.4L1071.3 515.5L1071.8 572.1L1072.2 572.8L1072.7 515.7L1073.1 628L1073.6 593.3L1074 453.9L1074.4 708.8L1074.9 640.7L1075.3 695.8L1075.8 712.8L1076.2 707.9L1076.7 609.6L1077.1 676.7L1077.6 714.1L1078 738.4L1078.4 692.3L1078.9 708.3L1079.3 721.7L1079.8 645.2L1080.2 699.8L1080.7 682L1081.1 693.2L1081.6 738.8L1082 517.9L1082.4 719.4L1082.9 680.4L1083.3 743.7L1083.8 737.8L1084.2 726.1L1084.7 750.2L1085.1 705L1085.6 689.8L1086 718.6L1086.4 740.2L1086.9 679.6L1087.3 721L1087.8 732.4L1088.2 711.2L1088.7 704.1L1089.1 733.5L1089.6 734.2L1090 648.5L1090.4 804.4L1090.9 747.6L1091.3 781L1091.8 707.7L1092.2 780.6L1092.7 714.5L1093.1 740.7L1093.6 708.3L1094 676.9L1094.4 679.6L1094.9 755.1L1095.3 709.2L1095.8 704.3L1096.2 690.2L1096.7 708.3L1097.1 713.2L1097.6 721.7L1098 739.8L1098.4 767.6L1098.9 690.7L1099.3 769.6L1099.8 727L1100.2 729.1L1100.7 745.6L1101.1 688.3L1101.6 721L1102 758L1102.4 725.3L1102.9 746.4L1103.3 720.3L1103.8 747.3L1104.2 719.2L1104.7 694.3L1105.1 758.2L1105.6 762L1106 670.4L1106.4 763.8L1106.9 677.5L1107.3 749.5L1107.8 727.9L1108.2 729.5L1108.7 686.7L1109.1 728.2L1109.6 671.8L1110 706.3L1110.4 692.3L1110.9 756.3L1111.3 656.4L1111.8 748L1112.2 664.4L1112.7 715.2L1113.1 708.7L1113.6 771L1114 741.5L1114.4 736.4L1114.9 721.2L1115.3 765L1115.8 677.3L1116.2 630.5L1116.7 660.2L1117.1 737.8L1118 739.1L1118.4 698.7L1118.9 752.5L1119.3 626.3L1119.8 711.2L1120.2 665.5L1120.7 683.8L1121.1 627.6L1121.6 776.1L1122 743.8L1122.4 747.3L1122.9 613.6L1123.3 775.2L1123.8 627.1L1124.2 791.7L1124.7 690.9L1125.1 751.3L1125.6 663.9L1126 708.7L1126.4 730.4L1126.9 690.3L1127.3 660.8L1127.8 738.9L1128.2 742.4L1128.7 739.5L1129.1 702.9L1129.6 755.1L1130 667.1L1130.4 807.3L1130.9 692.3L1131.3 747.3L1132.2 784.8L1132.7 680L1133.1 771.8L1133.6 695.8L1134 725.2L1134.4 655.2L1134.9 701L1135.3 676.2L1135.8 764.1L1136.2 676.9L1136.7 771.2L1137.1 612.9L1137.6 764.5L1138 661L1138.4 777.2L1138.9 720.8L1139.3 740.7L1139.8 711.9L1140.2 606.4L1140.7 675.5L1141.1 716.6L1141.6 672.4L1142 649.2L1142.4 833L1142.9 778.3L1143.3 738.4L1143.8 595.7L1144.2 515.2L1144.7 630L1145.1 655.5L1145.6 741.5L1146 663.5L1146.4 631.4L1146.9 510.8L1147.3 561.6L1147.8 574.1L1148.2 728.4L1148.7 605.5L1149.1 563.4L1149.6 507.4L1150 497.2L1150.4 524.6L1150.9 673.7L1151.3 560.7L1151.8 359.4L1152.2 365.8L1152.7 394.4L1153.1 515.2L1153.6 532.2L1154 514.4L1154.4 426.7L1154.9 398.4L1155.3 471.8L1155.8 439.7L1156.2 564.1L1156.7 500.8L1157.1 474.4L1157.6 343.4L1158 466L1158.4 509.6L1158.9 544.5L1159.3 565.2L1159.8 466L1160.2 355.4L1160.7 403.1L1161.1 463.5L1161.6 625.8L1162 540.2L1162.4 475.8L1162.9 414.9L1163.3 447.5L1163.8 480.9L1164.2 601.3L1164.7 481.1L1165.1 505.9L1165.6 420.5L1166 360.5L1166.4 486.9L1166.9 601.5L1167.3 518.6L1167.8 492.1L1168.2 384.8L1168.7 407.3L1169.1 503.7L1169.6 383.2L1170 504.5L1170.4 398.9L1170.9 405.6L1171.3 506.6L1171.8 497.2L1172.2 646.6L1172.7 476.2L1173.1 405.6L1173.6 386.8L1174 493.4L1174.4 477.6L1174.9 577L1175.3 532.8L1175.8 474.7L1176.2 404L1176.7 500.8L1177.1 427.8L1177.6 605.7L1178 527.3L1178.4 504.5L1178.9 394.4L1179.3 395.7L1179.8 522.8L1180.2 599.3L1180.7 542.6L1181.1 484.5L1181.6 381.9L1182 488.2L1182.4 427.8L1182.9 650.3L1183.3 544.4L1183.8 508.1L1184.2 360.3L1184.7 476L1185.1 436.5L1185.6 667.5L1186 631.8L1186.4 581.4L1186.9 510.5L1187.3 585L1187.8 540L1188.2 673.5L1188.7 600.4L1189.1 589.5L1189.6 537.5L1190 590.1L1190.4 636.7L1190.9 702.7L1191.3 614L1191.8 678.9L1192.2 616.4L1192.7 737.1L1193.1 679.3L1193.6 746.9L1194 712.3L1194.4 769.2L1194.9 617.8L1195.3 751.1L1195.8 694.1L1196.2 741.1L1196.7 728.2L1197.1 568.5L1197.6 693.6L1198 734.8L1198.4 711.9L1198.9 746.6L1199.3 700.5L1199.8 736.8L1200.2 700.9L1200.7 714.8L1201.1 684.2L1201.6 767.9L1202 674.7L1202.4 741.8L1202.9 697L1203.3 772.7L1203.8 706.5L1204.2 747.5L1204.7 693.1L1205.1 734.2L1205.6 661.3L1206 728.2L1206.4 660.4L1206.9 749.6L1207.3 685.4L1207.8 767.8L1208.2 713L1208.7 705.4L1209.1 618L1209.6 771.8L1210 725.5L1210.4 770.3L1210.9 697.8L1211.3 744.9L1211.8 673.5L1212.2 743.5L1212.7 702.9L1213.1 752L1213.6 696.9L1214 734L1214.4 708.7L1214.9 753.3L1215.3 656.4L1215.8 785L1216.2 626.3L1216.7 737.3L1217.1 692L1217.6 747.1L1218 706.8L1218.4 729.9L1218.9 713.5L1219.3 722.8L1219.8 688L1220.2 729.1L1220.7 717L1221.1 729.5L1221.6 688.7L1222 725.2L1222.4 695.1L1222.9 566.3L1223.3 771.9L1223.8 650.8L1224.2 688.3L1224.7 701L1225.1 698.5L1225.6 700.3L1226 715.7L1226.4 735.1L1226.9 696L1227.3 766.1L1227.8 729.3L1228.2 749.1L1228.7 726.8L1229.1 686L1229.6 730.6L1230 725L1230.4 721.5L1230.9 688.5L1231.3 707.4L1231.8 738.4L1232.2 756.9L1232.7 752L1233.1 643.4L1233.6 723.9L1234 673.3L1234.4 710.6L1234.9 717.4L1235.3 732.8L1235.8 709L1236.2 783L1236.7 749.8L1237.1 692.5L1237.6 736.6L1238 669.8L1238.4 722.6L1238.9 760.5L1239.3 743.7L1239.8 744.9L1240.2 600.2L1240.7 726.8L1241.1 738L1241.6 796.6L1242 715.5L1242.4 750.7L1242.9 741.5L1243.3 721.2L1243.8 690.9L1244.2 739.5L1244.7 723L1245.1 671.3L1245.6 721.7L1246 722.8L1246.4 751.4L1246.9 761.8L1247.3 717.2L1247.8 753.1L1248.2 694.9L1248.7 733.9L1249.1 748.7L1249.6 754.7L1250 617.3L1250.4 750.5L1250.9 645.2L1251.3 749.6L1251.8 780.3L1252.2 645L1252.7 740L1253.1 712.5L1253.6 686.7L1254 730.2L1254.4 711.7L1254.9 747.3L1255.3 562L1255.8 727.7L1256.2 639L1256.7 722.1L1257.1 679.1L1257.6 795.1L1258 775.9L1258.4 700.5L1258.9 629.4L1259.3 627.2L1259.8 581.7L1260.2 647.5L1260.7 721.7L1261.1 636.8L1261.6 635.2L1262 569.9L1262.4 520.8L1262.9 554.3L1263.3 671.1L1263.8 511.4L1264.2 468L1264.7 454.6L1265.1 435L1265.6 581.7L1266 641.7L1266.4 569.8L1266.9 391.7L1267.3 370.8L1267.8 442.1L1268.2 494.5L1268.7 621.8L1269.1 494.5L1269.6 436.5L1270 328L1270.4 484.5L1270.9 525L1271.3 535.7L1271.8 540.7L1272.2 454.8L1272.7 325.5L1273.1 412.2L1273.6 538.7L1274 577.6L1274.4 538L1274.9 500.8L1275.3 401.7L1275.8 433.6L1276.2 330L1276.7 643L1277.1 569L1277.6 454.8L1278 328.8L1278.4 445.5L1278.9 492.3L1279.3 646.5L1279.8 545.6L1280.2 385L1280.7 313.2L1281.1 374.3L1281.6 500.8L1282 594.6L1282.4 513L1282.9 474L1283.3 397.7L1283.8 485.4L1284.2 495.2L1284.7 653.9L1285.1 494.5L1285.6 464L1286 346L1286.4 529.3L1286.9 423.4L1287.3 662.8L1287.8 578.1L1288.2 412.9L1288.7 402.7L1289.1 414.5L1289.6 468.8L1290 612L1290.4 494.5L1290.9 463.5L1291.3 347.8L1291.8 479.6L1292.2 555.6L1292.7 637L1293.1 496.5L1293.6 531.9L1294 361.2L1294.4 429L1294.9 435.2L1295.3 635L1295.8 480.7L1296.2 496.9L1296.7 296.1L1297.1 434.8L1297.6 503.2L1298 625.4L1298.4 542.2L1298.9 538L1299.3 339.6L1299.8 471.1L1300.2 497.4L1300.7 651.9L1301.1 558.5L1301.6 598.6L1302 460.6L1302.4 565.2L1302.9 456.4L1303.3 631.4L1303.8 593L1304.2 561.8L1304.7 481.6L1305.1 589.2L1305.6 622.9L1306 724.1L1306.4 644.1L1306.9 694.1L1307.3 592.6L1307.8 713.4L1308.2 641L1308.7 736L1309.1 670.6L1309.6 755.4L1310 649L1310.4 736.6L1310.9 701.2L1311.3 732L1311.8 692.9L1312.2 718.8L1312.7 603.5L1313.1 612.4L1313.6 709.2L1314 743.7L1314.4 676.2L1314.9 785L1315.3 758.9L1315.8 736.4L1316.2 690.5L1316.7 724.4L1317.1 598.6L1317.6 747.6L1318 705.4L1318.4 700.1L1318.9 679.8L1319.3 687.4L1319.8 720.6L1320.2 745.3L1320.7 665.5L1321.1 723.3L1321.6 655.2L1322 750.2L1322.4 700.5L1322.9 768.3L1323.3 704.8L1323.8 768.9L1324.2 657L1324.7 787.2L1325.1 696.3L1325.6 746.4L1326 724.4L1326.4 761.8L1326.9 737.5L1327.3 671.5L1327.8 707.7L1328.2 773.6L1328.7 698.9L1329.1 767L1329.6 555.6L1330 713.2L1330.4 712.3L1330.9 756.3L1331.3 733L1331.8 710.3L1332.2 727L1332.7 747.6L1333.1 715.2L1333.6 779.9L1334 714.1L1334.4 708.1L1334.9 684.7L1335.3 707.9L1335.8 670.2L1336.2 687.4L1336.7 703.6L1337.1 732.4L1337.6 740.6L1338 708.3L1338.4 712.3L1338.9 678.7L1339.3 755.4L1339.8 704.8L1340.2 740.9L1340.7 746.2L1341.1 718.1L1341.6 719.4L1342 709.4L1342.4 737.7L1342.9 723L1343.3 695.8L1343.8 738L1344.2 782.3L1344.7 737.7L1345.1 688L1345.6 764.7L1346 723L1346.4 664.6L1346.9 772.3L1347.3 717.5L1347.8 742L1348.2 729.7L1348.7 743.7L1349.1 726.6L1349.6 728.1L1350 723.7L1350.4 737.1L1350.9 721.3L1351.3 743.5L1351.8 733.3L1352.2 749.5L1352.7 703.2L1353.1 597.3L1353.6 718.8L1354 764.9L1354.4 724.8L1354.9 760L1355.3 756.2L1355.8 741.3L1356.2 762.3L1356.7 718.1L1357.1 710.3L1357.6 720.3L1358 685.6L1358.4 731.7L1358.9 734L1359.3 717.4L1359.8 708.5L1360.2 661.1L1360.7 674.7L1361.1 754.5L1361.6 731.1L1362 769.2L1362.4 756.9L1362.9 785.4L1363.3 678.2L1363.8 704.8L1364.2 710.5L1364.7 800.4L1365.1 746.7L1365.6 791.3L1366 687.4L1366.4 777.7L1366.9 721L1367.3 717.2L1367.8 639.7L1368.2 759.4L1368.7 628.5L1369.1 778.5L1369.6 738L1370 740.7L1370.4 709.4L1370.9 773.2L1371.3 585.7L1371.8 719.2L1372.2 704.1L1372.7 741.1L1373.1 781.2L1373.6 809.3L1374 800L1374.4 781.7L1374.9 555.2L1375.3 599.3L1375.8 622.9L1376.2 620.7L1376.7 682.7L1377.1 536.6L1377.6 552.3L1378 608.7L1378.4 589.5L1378.9 634.9L1379.3 717.9L1379.8 622.7L1380.2 482.4L1380.7 471.3L1381.1 494.3L1381.6 543.6L1382 597.1L1382.4 593.3L1382.9 406L1383.3 363.2L1383.8 477.1L1384.2 450.8L1384.7 630.1L1385.1 558.7L1385.6 475.8L1386 391.7L1386.4 497.9L1386.9 508.6L1387.3 623.4L1387.8 509.9L1388.2 470.7L1388.7 405.5L1389.1 429.9L1389.6 512.5L1390 608.4L1390.4 521.5L1390.9 505.9L1391.3 379L1391.8 429.8L1392.2 480.2L1392.7 642.8L1393.1 514.6L1393.6 505.2L1394 433L1394.4 400.4L1394.9 450.1L1395.3 647.7L1395.8 535.5L1396.2 443.7L1396.7 404.4L1397.1 495.2L1397.6 445.9L1398 654.4L1398.4 578.1L1398.9 524.8L1399.3 383L1399.8 534.4L1400.2 509.6L1400.7 637.8L1401.1 525.5L1401.6 532.8L1402 387.9L1402.4 483.8L1402.9 516.3L1403.3 699.6L1403.8 463.9L1404.2 500.8L1404.7 400.6L1405.1 480.5L1405.6 489.4L1406 613.3L1406.4 484L1406.9 506.1L1407.3 389L1407.8 524.2L1408.2 509.2L1408.7 613.5L1409.1 534.2L1409.6 431L1410 407.1L1410.4 526.6L1410.9 396.4L1411.3 652.8L1411.8 536L1412.2 495L1412.7 368.1L1413.1 483.6L1413.6 474L1414 645.2L1414.4 505.4L1414.9 511.9L1415.3 372.5L1415.8 520.2L1416.2 466.4L1416.7 603.3L1417.1 478.4L1417.6 628.5L1418 449.3L1418.4 614.7L1418.9 642.5L1419.3 595L1419.8 563.8L1420.2 616L1420.7 585.2L1421.1 595L1421.6 617.1L1422 699.9L1422.4 648.8L1422.9 688.2L1423.3 663.9L1423.8 741.8L1424.2 700.3L1424.7 729L1425.1 610.6L1425.6 760.9L1426 681.8L1426.4 738.8L1426.9 685.1L1427.3 693.8L1427.8 680.4L1428.2 653.5L1428.7 714.5L1429.1 728.2L1429.6 706.5L1430 723.7L1430.4 703.8L1430.9 760.7L1431.3 731.1L1431.8 773.9L1432.2 655.3L1432.7 737.3L1433.1 703.8L1433.6 783.2L1434 718.1L1434.4 754.3L1434.9 675.8L1435.3 794.8L1435.8 711L1436.2 613.8L1436.7 648.1L1437.1 744.4L1437.6 644.6L1438 760L1438.4 670L1438.9 757.3L1439.3 645.7L1439.8 685.1L1440.2 694.1L1440.7 711.9L1441.1 665.9L1441.6 815.6L1442 714.6L1442.4 738.2L1442.9 722.3L1443.3 717.2L1443.8 719.5L1444.2 776.8L1444.7 708.5L1445.1 742.6L1445.6 720.3L1446 813.6L1446.4 723.5L1446.9 697.8L1447.3 736L1447.8 733L1448.2 696L1448.7 733.3L1449.1 680.4L1449.6 756.3L1450 736.9L1450.4 753.3L1450.9 652.1L1451.3 708.5L1451.8 738.4L1452.2 734.8L1452.7 753.8L1453.1 673.3L1453.6 754.5L1454 674.9L1454.4 688.5L1454.9 737.3L1455.3 692.5L1455.8 712.6L1456.2 686.2L1456.7 738L1457.1 720.4L1457.6 704.3L1458 708.3L1458.4 740.4L1458.9 707.2L1459.3 763.1L1459.8 682.5L1460.2 729.1L1460.7 757.6L1461.1 653.9L1461.6 728.1L1462 701.8L1462.4 728.1L1463.3 754.2L1463.8 680.9L1464.2 717L1464.7 736.6L1465.1 692.3L1465.6 762.1L1466 752L1466.4 743.5L1466.9 729.3L1467.3 770.1L1467.8 734.6L1468.2 676.4L1468.7 744.2L1469.1 716.6L1469.6 695.1L1470 767.8L1470.4 726.8L1470.9 749.6L1471.3 713.4L1471.8 782.8L1472.2 642.3L1472.7 689.8L1473.1 672.2L1473.6 775.9L1474 748.5L1474.4 737.1L1474.9 773.9L1475.3 761.6L1475.8 591.5L1476.2 739.8L1476.7 713.9L1477.1 724.8L1477.6 719L1478 696.3L1478.4 705.8L1478.9 720.3L1479.3 725.7L1479.8 737.1L1480.2 675.8L1480.7 746.9L1481.1 685.6L1481.6 777.7L1482 726.6L1482.4 714.8L1482.9 672L1483.3 802.4L1483.8 730.6L1484.2 781L1484.7 755.3L1485.1 739.3L1485.6 668.8L1486 782.8L1486.4 565.9L1486.9 701.4L1487.3 692.9L1487.8 719.9L1488.2 725.2L1488.7 730.1L1489.1 750.4L1489.6 599.3L1490 547.8L1490.4 657.2L1490.9 642.6L1491.3 596.6L1491.8 772.7L1492.2 608.2L1492.7 670.4L1493.1 596.2L1493.6 552L1494 538L1494.4 702.3L1494.9 561.2L1495.3 547.4L1495.8 520.6L1496.2 521.3L1496.7 514.3L1497.1 604.6L1497.6 603.8L1498 491.1L1498.4 414L1498.9 494.5L1499.3 508.1L1499.8 637.2L1500.2 555.2L1500.7 482.2L1501.1 426.5L1501.6 465.1L1502 492.7L1502.4 635.6L1502.9 533.7L1503.3 419.6L1503.8 412.4L1504.2 450.8L1504.7 520.8L1505.1 561.8L1505.6 587.7L1506 531.9L1506.4 432.8L1506.9 435.2L1507.3 541.1L1507.8 620.2L1508.2 568.5L1508.7 498.9L1509.1 380.1L1509.6 480.9L1510 473.3L1510.4 619.8L1510.9 485.8L1511.3 474.7L1511.8 359.8L1512.2 503.9L1512.7 498.5L1513.1 666.9L1513.6 517.9L1514 543.3L1514.4 463.3L1514.9 506.8L1515.3 499.4L1515.8 672L1516.2 530.9L1516.7 495.8L1517.1 347.8L1517.6 477.6L1518 468.6L1518.4 640.1L1518.9 485.8L1519.3 537.7L1519.8 377.9L1520.2 499.2L1520.7 466L1521.1 576.6L1521.6 507.2L1522 528L1522.4 405.5L1522.9 439.2L1523.3 482.7L1523.8 650.4L1524.2 569.9L1524.7 526.2L1525.1 379.9L1525.6 416.5L1526 407.5L1526.4 562.7L1526.9 550.4L1527.3 537.5L1527.8 392.8L1528.2 490.1L1529.1 647.9L1529.6 530.4L1530 529L1530.4 365.4L1530.9 478.2L1531.3 468L1531.8 691.4L1532.2 579.2L1532.7 592.2L1533.1 429.9L1533.6 532.2L1534 524.6L1534.4 588.6L1534.9 639.2L1535.3 622.2L1535.8 552.3L1536.2 636.8L1536.7 583L1537.1 658.2L1537.6 627.1L1538 767.8L1538.4 638.5L1538.9 715.2L1539.3 682.7L1539.8 719L1540.2 656.1L1540.7 751.1L1541.1 710.3L1541.6 757.4L1542 692L1542.4 804.6L1542.9 496L1543.3 600.2L1543.8 723.5L1544.2 742.4L1544.7 654.6L1545.1 721.2L1545.6 685.3L1546 772.7L1546.4 687.6L1546.9 756.3L1547.3 696.5L1547.8 666.8L1548.2 677.8L1548.7 734.6L1549.1 723L1549.6 791L1550 699L1550.9 666.2L1551.3 725.7L1551.8 719.7L1552.2 725.5L1552.7 694.3L1553.1 768.9L1553.6 724.4L1554 746L1554.4 726.8L1554.9 699.6L1555.3 768.1L1555.8 774.7L1556.2 753.6L1556.7 787.5L1557.1 720.3L1557.6 715L1558 735.1L1558.4 724.6L1558.9 693.6L1559.3 736.6L1559.8 703.9L1560.2 760L1560.7 699.4L1561.1 719.2L1561.6 706.7L1562 700.7L1562.4 752.7L1562.9 735.5L1563.3 707.9L1563.8 745.8L1564.2 680.9L1564.7 758.7L1565.1 701.2L1565.6 675.5L1566 716.3L1566.4 666.2L1566.9 690.5L1567.3 705.6L1567.8 728.6L1568.2 725.3L1568.7 678L1569.1 648.5L1569.6 741.3L1570 761.6L1570.4 745.1L1570.9 733.1L1571.3 758L1571.8 701.8L1572.2 746.7L1572.7 758.3L1573.1 734L1573.6 726.6L1574 708.5L1574.4 778.3L1574.9 710.6L1575.3 729.9L1575.8 756.3L1576.2 639L1576.7 765.2L1577.1 718.8L1577.6 721.3L1578 753.6L1578.4 727.1L1578.9 760.5L1579.3 769.8L1579.8 783.4L1580.2 749.3L1580.7 723.2L1581.1 734.9L1581.6 677.5L1582 714.1L1582.4 726.4L1582.9 719.2L1583.3 757.4L1583.8 705.2L1584.2 746.7L1584.7 726.1L1585.1 762.5L1585.6 730.8L1586 732L1586.4 742.2L1586.9 776.5L1587.3 758.5L1587.8 762.9L1588.2 713.9L1588.7 763.2L1589.1 715.9L1589.6 759.4L1590 710.3L1590.4 727L1590.9 682.2L1591.3 721L1591.8 729.7L1592.2 781.9L1592.7 707.7L1593.1 703.8L1593.6 677.8L1594 779.9L1594.4 695.2L1594.9 705.4L1595.3 682L1595.8 716.8L1596.2 571L1596.7 773.6L1597.1 688.3L1597.6 774.1L1598 647.2L1598.4 758L1598.9 730.4L1599.3 754.9L1599.8 695.4L1600.2 733.9L1600.7 644.1L1601.1 692L1601.6 491.8L1602 757.4L1602.4 732L1602.9 720.8L1603.3 660.8L1603.8 812.7L1604.2 777.7L1604.7 799L1605.1 575.2L1605.6 632.1L1606 683.6L1606.4 548.7L1606.9 749.8L1607.3 626.3L1607.8 602.4L1608.2 574.8L1608.7 558.7L1609.1 558L1609.6 723.2L1610 606.6L1610.4 461.1L1610.9 527.5L1611.3 490.9L1611.8 581L1612.2 552.2L1612.7 604.9L1613.1 496.3L1613.6 334.2L1614 487.6L1614.4 492.7L1614.9 607.3L1615.3 468.8L1616.2 436.8L1616.7 361.2L1617.1 401.8L1617.6 591.7L1618 596.8L1618.4 458.6L1618.9 457.1L1619.3 471.5L1619.8 430.7L1620.2 646.6L1620.7 473.3L1621.1 494.9L1621.6 381.3L1622 465.3L1622.4 455.3L1622.9 625.8L1623.3 565L1623.8 371L1624.2 383.5L1624.7 485.3L1625.1 404.4L1625.6 600.9L1626 569.6L1626.4 482.9L1626.9 307.2L1627.3 543.1L1627.8 477.5L1628.2 641.9L1628.7 599.1L1629.1 476.9L1629.6 333.7L1630 455.9L1630.4 492.9L1630.9 595L1631.3 491.6L1631.8 485.3L1632.2 385.7L1632.7 497.6L1633.1 403.5L1633.6 658.8L1634 469.5L1634.4 481.3L1634.9 346.9L1635.3 404.2L1635.8 410.5L1636.2 626.7L1636.7 515L1637.1 435.4L1637.6 406L1638 410.4L1638.4 466.8L1638.9 603.5L1639.3 549.1L1639.8 490L1640.2 360.7L1640.7 481.4L1641.1 403.8L1641.6 653.9L1642 572.8L1642.4 499.9L1642.9 318.8L1643.3 458.1L1643.8 464.4L1644.2 633.6L1644.7 567L1645.1 488.2L1645.6 421.6L1646 455L1646.4 394.4L1646.9 628L1647.3 490.7L1647.8 553.4L1648.2 394.4L1648.7 565.2L1649.1 506.6L1649.6 460.8L1650 614.5L1650.4 627.2L1650.9 516.3L1651.3 637.8L1651.8 593.7L1652.2 725.7L1652.7 621.1L1653.1 729.7L1653.6 577.6L1654 726.4L1654.4 675.8L1654.9 738.2L1655.3 671.8L1655.8 700.7L1656.2 704.1L1656.7 710.6L1657.1 691.4L1657.6 743.3L1658 686.9L1658.4 744.4L1658.9 563.8L1659.3 744.6L1659.8 740.6L1660.2 702.7L1660.7 708.5L1661.1 720.6L1661.6 700.3L1662 760.3L1662.4 723.7L1662.9 722.3L1663.3 733.3L1663.8 752.9L1664.2 706.5L1664.7 750.5L1665.1 649.7L1665.6 763.2L1666 724.1L1666.4 734.2L1666.9 727.1L1667.3 729L1667.8 721.7L1668.2 784.8L1668.7 725.9L1669.1 727.7L1669.6 701.9L1670 694.7L1670.4 710.5L1670.9 784.8L1671.3 731.5L1671.8 770.9L1672.2 708.8L1672.7 759.2L1673.1 681.1L1673.6 701L1674 737.7L1674.4 706.3L1674.9 716.6L1675.3 746.7L1675.8 727.5L1676.2 717.2L1676.7 757.4L1677.1 614.7L1677.6 743.3L1678 733.1L1678.4 717L1678.9 736.9L1679.3 719.9L1679.8 729.5L1680.2 685.6L1680.7 672L1681.1 740.2L1681.6 744.4L1682 725L1682.4 752L1682.9 711.4L1683.3 739.8L1683.8 688.9L1684.2 650.3L1684.7 748.4L1685.1 798.1L1685.6 765.2L1686 749.6L1686.4 716.8L1686.9 720.6L1687.3 685.8L1687.8 740.7L1688.2 682.7L1688.7 740.4L1689.1 750L1689.6 733.7L1690 736.2L1690.4 777L1690.9 757.4L1691.3 752.9L1691.8 633L1692.2 747.1L1692.7 705L1693.1 765.2L1693.6 712.6L1694 722.8L1694.4 695.6L1694.9 784.8L1695.3 746.4L1695.8 738.9L1696.2 752.4L1696.7 713L1697.1 687.6L1697.6 715L1698 727.9L1698.4 686.5L1698.9 643.7L1699.3 686.7L1699.8 735.1L1700.2 712.3L1700.7 684.4L1701.1 749.8L1701.6 712.5L1702 761.1L1702.4 700.9L1702.9 575L1703.3 762.7L1703.8 738L1704.2 704.3L1704.7 722.3L1705.1 676.2L1705.6 761.4L1706 669.5L1706.4 744.2L1706.9 748.9L1707.3 793.2L1707.8 727.5L1708.2 731.1L1708.7 698.7L1709.1 747.8L1709.6 691.2L1710 747.6L1710.4 700.7L1710.9 799.5L1711.3 723.2L1711.8 779.9L1712.2 678.6L1712.7 689.6L1713.1 606.7L1713.6 697.2L1714 677.5L1714.4 779.9L1714.9 703.8L1715.3 737.1L1715.8 659.7L1716.2 685.6L1716.7 494L1717.1 717L1717.6 718.1L1718 804.6L1718.4 742.6L1718.9 761.1L1719.3 812.9L1719.8 712.3L1720.2 495.8L1720.7 507.7L1721.1 626.9L1721.6 594.4L1722 712.3L1722.4 637L1722.9 567.9L1723.3 528.6L1723.8 606.2L1724.2 631.4L1724.7 667.1L1725.1 593L1725.6 523.2L1726 478.4L1726.4 473.8L1726.9 567.9L1727.3 666L1727.8 514.4L1728.2 499.6L1728.7 363.9L1729.1 466.4L1729.6 479.1L1730 682L1730.4 518.4L1730.9 434.8L1731.3 411.1L1731.8 468.6L1732.2 501L1732.7 639.9L1733.1 570.1L1733.6 497.2L1734 400L1734.4 522.1L1734.9 404.2L1735.3 673.1L1735.8 412.7L1736.2 443.4L1736.7 343.8L1737.1 455.2L1737.6 501.8L1738 628.9L1738.4 536.4L1738.9 488.2L1739.3 383.2L1739.8 545.3L1740.2 503.6L1740.7 616.5L1741.1 481.4L1741.6 478.2L1742 363.2L1742.4 499.6L1742.9 484.5L1743.3 622.3L1743.8 511.9L1744.2 446.6L1744.7 397.1L1745.1 428.7L1745.6 437L1746 638.1L1746.4 496L1746.9 487.8L1747.3 369.4L1747.8 514.3L1748.2 453.5L1748.7 649.9L1749.1 446.4L1749.6 534.9L1750 397.5L1750.4 496.1L1750.9 452.4L1751.3 551.4L1751.8 561.2L1752.2 496L1752.7 347.3L1753.1 494.5L1753.6 459.3L1754 703L1754.4 518.1L1754.9 525L1755.3 400.6L1755.8 505L1756.2 274.9L1756.7 634.5L1757.1 485.4L1757.6 484.7L1758 419.2L1758.4 520.1L1758.9 444.3L1759.3 633.2L1759.8 533.1L1760.2 459.1L1760.7 381.2L1761.1 553.3L1761.6 464L1762 616.4L1762.4 542.2L1762.9 641.4L1763.3 495.2L1763.8 541.1L1764.2 563.6L1764.7 698L1765.1 608L1765.6 630L1766 538.2L1766.4 659.3L1766.9 618L1767.3 690L1767.8 715.7L1768.2 743.3L1768.7 569.8L1769.1 683.4L1769.6 708.7L1770 744.9L1770.4 700.1L1770.9 676.2L1771.3 722.4L1771.8 774.3L1772.2 743.5L1772.7 742L1773.1 667.1L1773.6 708.7L1774 595.3L1774.4 697.4L1774.9 681.1L1775.3 732.2L1775.8 713.4L1776.2 742.2L1776.7 673.3L1777.1 713L1777.6 698.7L1778 715.5L1778.4 713.5L1778.9 784.6L1779.3 748.5L1779.8 784.8L1780.2 711L1780.7 755.6L1781.1 715.7L1781.6 735.5L1782 680.7L1782.4 722.6L1782.9 698.3L1783.3 759.4L1783.8 705.6L1784.2 756.9L1784.7 742L1785.1 645.7L1785.6 719L1786 716.5L1786.4 736.8L1786.9 735.7L1787.3 708.3L1787.8 748.4L1788.2 736.4L1788.7 730.6L1789.1 721L1789.6 698.1L1790 711L1790.4 726.6L1790.9 686.5L1791.3 701L1791.8 747.3L1792.2 649.5L1792.7 682.4L1793.1 770.5L1793.6 725.2L1794 707.2L1794.4 690.5L1794.9 692.9L1795.3 715.2L1795.8 722.4L1796.2 757.8L1796.7 694L1797.1 724.2L1797.6 712.8L1798 742.2L1798.4 703.2L1798.9 762.9L1799.3 728.2L1799.8 691.6" fill="transparent" stroke="#3fb1e3" stroke-width="3" stroke-linejoin="bevel" class="zr9-cls-29"></path>
</g>
<path d="M-194.2 -5l388.4 0l0 28l-388.4 0Z" transform="translate(1000 5)" fill="rgb(0,0,0)" fill-opacity="0" stroke="#ccc" stroke-width="0" class="zr9-cls-27"></path>
<text dominant-baseline="central" text-anchor="middle" style="font-size:18px;font-family:sans-serif;font-weight:bold;" xml:space="preserve" y="9" transform="translate(1000 5)" fill="#666666">Min wholeUpdate per Tick for benchmark_abuc</text>
<defs >
<clipPath id="zr9-c0">
<path d="M198 58.5l16004 0l0 8703l-16004 0Z" fill="#000" class="zr9-cls-28"></path>
</clipPath>
</defs>
<style ><![CDATA[
.zr9-cls-27:hover {
pointer-events:none;
}
.zr9-cls-28:hover {
cursor:pointer;
fill:rgba(0,0,0,1);
}
.zr9-cls-29:hover {
cursor:pointer;
}

]]>

</style>
</svg>