<svg width="2000" height="1000" xmlns="http://www.w3.org/2000/svg" xmlns:xlink="http://www.w3.org/1999/xlink" version="1.1" baseProfile="full" viewBox="0 0 2000 1000">
<rect width="2000" height="1000" x="0" y="0" fill="rgb(252,252,252)" fill-opacity="0"></rect>
<path d="M200 930.5L1800 930.5" fill="transparent" stroke="#eeeeee" class="zr11-cls-33"></path>
<path d="M200 790.5L1800 790.5" fill="transparent" stroke="#eeeeee" class="zr11-cls-33"></path>
<path d="M200 637.5L1800 637.5" fill="transparent" stroke="#eeeeee" class="zr11-cls-33"></path>
<path d="M200 485.5L1800 485.5" fill="transparent" stroke="#eeeeee" class="zr11-cls-33"></path>
<path d="M200 333.5L1800 333.5" fill="transparent" stroke="#eeeeee" class="zr11-cls-33"></path>
<path d="M200 180.5L1800 180.5" fill="transparent" stroke="#eeeeee" class="zr11-cls-33"></path>
<path d="M200 60.5L1800 60.5" fill="transparent" stroke="#eeeeee" class="zr11-cls-33"></path>
<path d="M200.5 930L200.5 60" fill="transparent" stroke="#cccccc" stroke-linecap="round" class="zr11-cls-33"></path>
<text dominant-baseline="central" text-anchor="middle" style="font-size:12px;font-family:sans-serif;" xml:space="preserve" y="-6" transform="translate(200 45)" fill="#cccccc">Min transportLinesUpdate Time (ms)</text>
<path d="M200 930.5L1800 930.5" fill="transparent" stroke="#cccccc" stroke-linecap="round" class="zr11-cls-33"></path>
<text dominant-baseline="central" text-anchor="end" style="font-size:12px;font-family:sans-serif;" transform="translate(192 930)" fill="#999999">0.011</text>
<text dominant-baseline="central" text-anchor="end" style="font-size:12px;font-family:sans-serif;" transform="translate(192 789.9983)" fill="#999999">0.020</text>
<text dominant-baseline="central" text-anchor="end" style="font-size:12px;font-family:sans-serif;" transform="translate(192 637.6055)" fill="#999999">0.030</text>
<text dominant-baseline="central" text-anchor="end" style="font-size:12px;font-family:sans-serif;" transform="translate(192 485.2126)" fill="#999999">0.040</text>
<text dominant-baseline="central" text-anchor="end" style="font-size:12px;font-family:sans-serif;" transform="translate(192 332.8198)" fill="#999999">0.050</text>
<text dominant-baseline="central" text-anchor="end" style="font-size:12px;font-family:sans-serif;" transform="translate(192 180.4269)" fill="#999999">0.060</text>
<text dominant-baseline="central" text-anchor="end" style="font-size:12px;font-family:sans-serif;" transform="translate(192 60)" fill="#999999">0.068</text>
<text dominant-baseline="central" text-anchor="middle" style="font-size:12px;font-family:sans-serif;" y="6" transform="translate(200.2222 938)" fill="#999999">0</text>
<text dominant-baseline="central" text-anchor="middle" style="font-size:12px;font-family:sans-serif;" y="6" transform="translate(235.3333 938)" fill="#999999">79</text>
<text dominant-baseline="central" text-anchor="middle" style="font-size:12px;font-family:sans-serif;" y="6" transform="translate(270.4444 938)" fill="#999999">158</text>
<text dominant-baseline="central" text-anchor="middle" style="font-size:12px;font-family:sans-serif;" y="6" transform="translate(305.5556 938)" fill="#999999">237</text>
<text dominant-baseline="central" text-anchor="middle" style="font-size:12px;font-family:sans-serif;" y="6" transform="translate(340.6667 938)" fill="#999999">316</text>
<text dominant-baseline="central" text-anchor="middle" style="font-size:12px;font-family:sans-serif;" y="6" transform="translate(375.7778 938)" fill="#999999">395</text>
<text dominant-baseline="central" text-anchor="middle" style="font-size:12px;font-family:sans-serif;" y="6" transform="translate(410.8889 938)" fill="#999999">474</text>
<text dominant-baseline="central" text-anchor="middle" style="font-size:12px;font-family:sans-serif;" y="6" transform="translate(446 938)" fill="#999999">553</text>
<text dominant-baseline="central" text-anchor="middle" style="font-size:12px;font-family:sans-serif;" y="6" transform="translate(481.1111 938)" fill="#999999">632</text>
<text dominant-baseline="central" text-anchor="middle" style="font-size:12px;font-family:sans-serif;" y="6" transform="translate(516.2222 938)" fill="#999999">711</text>
<text dominant-baseline="central" text-anchor="middle" style="font-size:12px;font-family:sans-serif;" y="6" transform="translate(551.3333 938)" fill="#999999">790</text>
<text dominant-baseline="central" text-anchor="middle" style="font-size:12px;font-family:sans-serif;" y="6" transform="translate(586.4444 938)" fill="#999999">869</text>
<text dominant-baseline="central" text-anchor="middle" style="font-size:12px;font-family:sans-serif;" y="6" transform="translate(621.5556 938)" fill="#999999">948</text>
<text dominant-baseline="central" text-anchor="middle" style="font-size:12px;font-family:sans-serif;" y="6" transform="translate(656.6667 938)" fill="#999999">1027</text>
<text dominant-baseline="central" text-anchor="middle" style="font-size:12px;font-family:sans-serif;" y="6" transform="translate(691.7778 938)" fill="#999999">1106</text>
<text dominant-baseline="central" text-anchor="middle" style="font-size:12px;font-family:sans-serif;" y="6" transform="translate(726.8889 938)" fill="#999999">1185</text>
<text dominant-baseline="central" text-anchor="middle" style="font-size:12px;font-family:sans-serif;" y="6" transform="translate(762 938)" fill="#999999">1264</text>
<text dominant-baseline="central" text-anchor="middle" style="font-size:12px;font-family:sans-serif;" y="6" transform="translate(797.1111 938)" fill="#999999">1343</text>
<text dominant-baseline="central" text-anchor="middle" style="font-size:12px;font-family:sans-serif;" y="6" transform="translate(832.2222 938)" fill="#999999">1422</text>
<text dominant-baseline="central" text-anchor="middle" style="font-size:12px;font-family:sans-serif;" y="6" transform="translate(867.3333 938)" fill="#999999">1501</text>
<text dominant-baseline="central" text-anchor="middle" style="font-size:12px;font-family:sans-serif;" y="6" transform="translate(902.4444 938)" fill="#999999">1580</text>
<text dominant-baseline="central" text-anchor="middle" style="font-size:12px;font-family:sans-serif;" y="6" transform="translate(937.5556 938)" fill="#999999">1659</text>
<text dominant-baseline="central" text-anchor="middle" style="font-size:12px;font-family:sans-serif;" y="6" transform="translate(972.6667 938)" fill="#999999">1738</text>
<text dominant-baseline="central" text-anchor="middle" style="font-size:12px;font-family:sans-serif;" y="6" transform="translate(1007.7778 938)" fill="#999999">1817</text>
<text dominant-baseline="central" text-anchor="middle" style="font-size:12px;font-family:sans-serif;" y="6" transform="translate(1042.8889 938)" fill="#999999">1896</text>
<text dominant-baseline="central" text-anchor="middle" style="font-size:12px;font-family:sans-serif;" y="6" transform="translate(1078 938)" fill="#999999">1975</text>
<text dominant-baseline="central" text-anchor="middle" style="font-size:12px;font-family:sans-serif;" y="6" transform="translate(1113.1111 938)" fill="#999999">2054</text>
<text dominant-baseline="central" text-anchor="middle" style="font-size:12px;font-family:sans-serif;" y="6" transform="translate(1148.2222 938)" fill="#999999">2133</text>
<text dominant-baseline="central" text-anchor="middle" style="font-size:12px;font-family:sans-serif;" y="6" transform="translate(1183.3333 938)" fill="#999999">2212</text>
<text dominant-baseline="central" text-anchor="middle" style="font-size:12px;font-family:sans-serif;" y="6" transform="translate(1218.4444 938)" fill="#999999">2291</text>
<text dominant-baseline="central" text-anchor="middle" style="font-size:12px;font-family:sans-serif;" y="6" transform="translate(1253.5556 938)" fill="#999999">2370</text>
<text dominant-baseline="central" text-anchor="middle" style="font-size:12px;font-family:sans-serif;" y="6" transform="translate(1288.6667 938)" fill="#999999">2449</text>
<text dominant-baseline="central" text-anchor="middle" style="font-size:12px;font-family:sans-serif;" y="6" transform="translate(1323.7778 938)" fill="#999999">2528</text>
<text dominant-baseline="central" text-anchor="middle" style="font-size:12px;font-family:sans-serif;" y="6" transform="translate(1358.8889 938)" fill="#999999">2607</text>
<text dominant-baseline="central" text-anchor="middle" style="font-size:12px;font-family:sans-serif;" y="6" transform="translate(1394 938)" fill="#999999">2686</text>
<text dominant-baseline="central" text-anchor="middle" style="font-size:12px;font-family:sans-serif;" y="6" transform="translate(1429.1111 938)" fill="#999999">2765</text>
<text dominant-baseline="central" text-anchor="middle" style="font-size:12px;font-family:sans-serif;" y="6" transform="translate(1464.2222 938)" fill="#999999">2844</text>
<text dominant-baseline="central" text-anchor="middle" style="font-size:12px;font-family:sans-serif;" y="6" transform="translate(1499.3333 938)" fill="#999999">2923</text>
<text dominant-baseline="central" text-anchor="middle" style="font-size:12px;font-family:sans-serif;" y="6" transform="translate(1534.4444 938)" fill="#999999">3002</text>
<text dominant-baseline="central" text-anchor="middle" style="font-size:12px;font-family:sans-serif;" y="6" transform="translate(1569.5556 938)" fill="#999999">3081</text>
<text dominant-baseline="central" text-anchor="middle" style="font-size:12px;font-family:sans-serif;" y="6" transform="translate(1604.6667 938)" fill="#999999">3160</text>
<text dominant-baseline="central" text-anchor="middle" style="font-size:12px;font-family:sans-serif;" y="6" transform="translate(1639.7778 938)" fill="#999999">3239</text>
<text dominant-baseline="central" text-anchor="middle" style="font-size:12px;font-family:sans-serif;" y="6" transform="translate(1674.8889 938)" fill="#999999">3318</text>
<text dominant-baseline="central" text-anchor="middle" style="font-size:12px;font-family:sans-serif;" y="6" transform="translate(1710 938)" fill="#999999">3397</text>
<text dominant-baseline="central" text-anchor="middle" style="font-size:12px;font-family:sans-serif;" y="6" transform="translate(1745.1111 938)" fill="#999999">3476</text>
<text dominant-baseline="central" text-anchor="middle" style="font-size:12px;font-family:sans-serif;" y="6" transform="translate(1780.2222 938)" fill="#999999">3555</text>
<g clip-path="url(#zr11-c0)">
<path d="M200.2 -46.6L200.7 486.7L201.1 703.1L201.6 741.2L202 722.9L202.4 671.1L202.9 716.8L203.3 623.9L203.8 631.5L204.2 707.7L204.7 736.7L205.1 761L205.6 709.2L206 712.3L206.4 636.1L206.9 774.8L207.3 709.2L207.8 503.5L208.2 692.5L208.7 735.1L209.1 675.7L209.6 669.6L210 413.6L210.4 753.4L210.9 782.4L211.3 564.5L211.8 610.2L212.2 733.6L212.7 686.4L213.1 797.6L213.6 770.2L214 796.1L214.4 808.3L214.9 809.8L215.3 802.2L215.8 803.7L216.2 800.7L216.7 753.4L217.1 663.5L217.6 823.5L218 796.1L218.4 806.8L218.9 797.6L219.3 610.2L219.8 820.5L220.2 620.8L220.7 782.4L221.1 634.6L221.6 855.5L222 870.8L222.4 -208.2L222.9 710.8L223.3 672.7L223.8 719.9L224.2 689.4L224.7 761L225.1 677.2L225.6 742.8L226 637.6L226.4 742.8L226.9 684.8L227.3 593.4L227.8 614.7L228.2 588.8L228.7 639.1L229.1 617.8L229.6 623.9L230 628.5L230.4 636.1L230.9 639.1L231.3 608.7L231.8 625.4L232.2 648.3L232.7 628.5L233.1 498.9L233.6 628.5L234 546.2L234.4 639.1L234.9 630L235.3 625.4L235.8 593.4L236.2 645.2L236.7 646.7L237.1 663.5L237.6 646.7L238 642.2L238.4 628.5L239.3 626.9L239.8 620.8L240.2 495.9L240.7 591.9L241.1 646.7L241.6 663.5L242 631.5L242.4 645.2L242.9 617.8L243.3 658.9L243.8 610.2L244.2 564.5L244.7 633L245.1 637.6L245.6 590.4L246 637.6L246.4 604.1L246.9 625.4L247.3 633L247.8 652.8L248.2 639.1L248.7 643.7L249.1 622.4L249.6 626.9L250.4 617.8L250.9 616.3L251.3 613.2L251.8 581.2L252.2 573.6L252.7 556.8L253.1 593.4L253.6 614.7L254 594.9L254.4 601L254.9 620.8L255.3 479.1L255.8 622.4L256.2 642.2L256.7 645.2L257.1 634.6L257.6 623.9L258 628.5L258.4 569L258.9 482.2L259.3 555.3L259.8 451.7L260.2 511.1L260.7 534L261.1 610.2L261.6 553.8L262 605.6L262.4 508.1L262.9 495.9L263.3 613.2L263.8 620.8L264.2 601L264.7 578.2L265.1 607.1L265.6 428.8L266 636.1L266.4 562.9L266.9 561.4L267.3 459.3L267.8 521.8L268.2 502L268.7 424.3L269.1 483.7L269.6 578.2L270 419.7L270.4 573.6L270.9 617.8L271.3 639.1L271.8 626.9L272.2 660.5L272.7 643.7L273.1 636.1L273.6 588.8L274 645.2L274.4 649.8L274.9 479.1L275.3 607.1L275.8 573.6L276.2 654.4L276.7 596.5L277.1 594.9L277.6 567.5L278 535.5L278.4 518.7L278.9 657.4L279.3 527.9L279.8 591.9L280.2 559.9L280.7 476.1L281.1 633L281.6 489.8L282 591.9L282.4 663.5L282.9 669.6L283.3 630L284.2 671.1L284.7 512.6L285.1 665L285.6 553.8L286 671.1L286.4 537L286.9 683.3L287.3 652.8L287.8 602.6L288.2 550.7L288.7 687.9L289.1 573.6L289.6 555.3L290 581.2L290.4 156L290.9 495.9L291.3 549.2L291.8 622.4L292.2 619.3L292.7 701.6L293.1 524.8L293.6 655.9L294 581.2L294.4 578.2L294.9 704.7L295.3 639.1L295.8 547.7L296.2 649.8L296.7 566L297.1 543.1L297.6 530.9L298 715.3L298.4 678.8L298.9 671.1L299.3 697L299.8 716.8L300.2 657.4L300.7 675.7L301.1 742.8L301.6 620.8L302 716.8L302.4 730.6L302.9 701.6L303.3 748.9L303.8 715.3L304.2 730.6L304.7 712.3L305.1 692.5L305.6 742.8L306 692.5L306.4 668.1L306.9 686.4L307.3 727.5L307.8 628.5L308.2 750.4L308.7 707.7L309.1 739.7L309.6 742.8L310 736.7L310.4 636.1L310.9 738.2L311.3 695.5L311.8 707.7L312.2 733.6L312.7 608.7L313.1 765.6L313.6 657.4L314 716.8L314.4 765.6L314.9 713.8L315.3 710.8L315.8 738.2L316.2 747.3L316.7 754.9L317.1 736.7L317.6 773.2L318 754.9L318.4 602.6L318.9 750.4L319.3 783.9L319.8 669.6L320.2 745.8L320.7 777.8L321.1 750.4L321.6 724.5L322 680.3L322.4 751.9L322.9 758L323.3 668.1L323.8 585.8L324.2 771.7L324.7 707.7L325.1 643.7L325.6 704.7L326 819L326.4 605.6L326.9 782.4L327.3 697L327.8 756.5L328.2 809.8L328.7 777.8L329.1 776.3L329.6 796.1L330 748.9L330.4 791.5L330.9 479.1L331.3 660.5L331.8 797.6L332.2 800.7L332.7 825L333.1 552.3L333.6 645.2L334 637.6L334.4 623.9L334.9 838.8L335.3 826.6L335.8 800.7L336.2 732.1L336.7 37.2L337.1 463.9L337.6 602.6L338 732.1L338.4 706.2L338.9 729L339.3 707.7L339.8 735.1L340.2 690.9L340.7 733.6L341.1 671.1L341.6 761L342 698.6L342.4 637.6L342.9 658.9L343.3 663.5L343.8 631.5L344.2 616.3L344.7 601L345.1 655.9L345.6 628.5L346 633L346.4 658.9L346.9 643.7L347.3 660.5L347.8 643.7L348.7 652.8L349.1 637.6L349.6 617.8L350 642.2L350.4 657.4L350.9 564.5L351.3 657.4L351.8 663.5L352.2 601L352.7 666.6L353.1 645.2L353.6 610.2L354 662L354.4 582.7L354.9 552.3L355.3 523.3L355.8 669.6L356.2 630L356.7 660.5L357.1 633L357.6 669.6L358 636.1L358.4 626.9L358.9 643.7L359.3 626.9L359.8 631.5L360.2 663.5L360.7 512.6L361.1 652.8L361.6 546.2L362 634.6L362.4 486.7L362.9 611.7L363.3 494.4L363.8 637.6L364.2 249L364.7 620.8L365.1 495.9L365.6 540.1L366 442.5L366.4 625.4L366.9 544.6L367.3 643.7L367.8 623.9L368.2 648.3L368.7 505L369.1 637.6L369.6 636.1L370 631.5L370.4 491.3L370.9 614.7L371.3 489.8L371.8 625.4L372.2 425.8L372.7 630L373.1 544.6L373.6 607.1L374 441L374.4 610.2L374.9 415.1L375.3 610.2L375.8 485.2L376.2 625.4L376.7 477.6L377.1 605.6L377.6 471.5L378 607.1L378.4 489.8L378.9 599.5L379.3 457.8L379.8 558.4L380.2 569L380.7 370.9L381.1 578.2L381.6 572.1L382 495.9L382.4 569L382.9 482.2L383.3 406L383.8 524.8L384.2 607.1L384.7 462.4L385.1 614.7L385.6 537L386 572.1L386.4 639.1L386.9 540.1L387.3 636.1L387.8 628.5L388.2 564.5L388.7 535.5L389.1 649.8L389.6 611.7L390 642.2L390.4 530.9L390.9 508.1L391.3 538.6L391.8 559.9L392.2 616.3L392.7 505L393.6 569L394 480.6L394.4 511.1L394.9 566L395.3 502L395.8 613.2L396.2 601L396.7 657.4L397.1 668.1L397.6 573.6L398 540.1L398.4 526.4L398.9 657.4L399.3 633L399.8 668.1L400.2 649.8L400.7 620.8L401.1 549.2L401.6 692.5L402 617.8L402.4 630L402.9 660.5L403.3 596.5L403.8 608.7L404.2 713.8L404.7 544.6L405.1 540.1L405.6 598L406 613.2L406.4 541.6L406.9 620.8L407.3 561.4L407.8 572.1L408.2 684.8L408.7 562.9L409.1 601L409.6 486.7L410 529.4L410.4 524.8L410.9 584.3L411.3 721.4L411.8 607.1L412.2 654.4L412.7 698.6L413.1 724.5L413.6 474.5L414 204.8L414.4 552.3L414.9 697L415.3 719.9L415.8 657.4L416.2 727.5L416.7 591.9L417.1 671.1L417.6 715.3L418 732.1L418.4 718.4L418.9 724.5L419.3 671.1L419.8 654.4L420.2 712.3L420.7 716.8L421.1 681.8L421.6 648.3L422 754.9L422.4 729L422.9 739.7L423.3 678.8L423.8 742.8L424.2 745.8L424.7 663.5L425.1 751.9L425.6 761L426 773.2L426.4 634.6L426.9 764.1L427.3 732.1L427.8 748.9L428.2 745.8L428.7 684.8L429.1 761L429.6 735.1L430 704.7L430.4 695.5L430.9 648.3L431.3 773.2L431.8 675.7L432.2 738.2L432.7 744.3L433.1 765.6L433.6 780.9L434 715.3L434.4 683.3L434.9 512.6L435.3 758L435.8 642.2L436.2 785.4L436.7 561.4L437.1 764.1L437.6 788.5L438 744.3L438.4 808.3L438.9 599.5L439.3 761L439.8 724.5L440.2 761L440.7 783.9L441.1 779.3L441.6 774.8L442 733.6L442.4 788.5L442.9 782.4L443.3 773.2L443.8 823.5L444.2 572.1L444.7 783.9L445.1 823.5L445.6 805.2L446 790L446.4 782.4L446.9 788.5L447.3 794.6L447.8 572.1L448.2 779.3L448.7 793L449.1 819L449.6 847.9L450 741.2L450.4 791.5L450.9 785.4L451.3 745.8L451.8 841.8L452.2 864.7L452.7 855.5L453.1 587.3L453.6 722.9L454 694L454.4 735.1L454.9 636.1L455.3 759.5L455.8 713.8L456.2 703.1L456.7 692.5L457.1 751.9L457.6 712.3L458 640.7L458.4 614.7L458.9 654.4L459.3 657.4L459.8 585.8L460.2 628.5L460.7 636.1L461.1 613.2L461.6 636.1L462 620.8L462.4 654.4L462.9 628.5L463.3 655.9L463.8 642.2L464.2 625.4L464.7 655.9L465.1 642.2L465.6 578.2L466 657.4L466.4 558.4L466.9 590.4L467.3 669.6L467.8 645.2L468.2 642.2L468.7 636.1L469.1 584.3L469.6 633L470 610.2L470.4 631.5L470.9 668.1L471.3 634.6L471.8 549.2L472.2 614.7L472.7 625.4L473.1 648.3L473.6 637.6L474 628.5L474.4 495.9L474.9 666.6L475.3 631.5L475.8 662L476.2 559.9L476.7 616.3L477.1 604.1L477.6 616.3L478 529.4L478.4 636.1L478.9 605.6L479.3 569L479.8 608.7L480.2 587.3L480.7 502L481.1 633L481.6 582.7L482 594.9L482.4 598L482.9 553.8L483.3 514.2L483.8 626.9L484.2 549.2L484.7 614.7L485.1 479.1L485.6 623.9L486 502L486.4 604.1L486.9 520.3L487.3 588.8L487.8 617.8L488.2 581.2L488.7 625.4L489.1 425.8L489.6 630L490 616.3L490.4 465.4L490.9 491.3L491.3 535.5L491.8 572.1L492.2 511.1L492.7 569L493.1 552.3L493.6 550.7L494 485.2L494.4 616.3L494.9 489.8L495.3 387.7L495.8 479.1L496.2 622.4L496.7 479.1L497.1 477.6L497.6 453.2L498 538.6L498.4 502L498.9 492.8L499.3 648.3L499.8 581.2L500.2 538.6L500.7 505L501.1 506.5L501.6 541.6L502 619.3L502.4 -520.6L502.9 640.7L503.3 590.4L503.8 619.3L504.2 508.1L504.7 622.4L505.1 476.1L505.6 474.5L506 643.7L506.4 601L506.9 652.8L507.3 540.1L507.8 491.3L508.2 518.7L508.7 459.3L509.1 666.6L509.6 483.7L510 555.3L510.4 642.2L510.9 646.7L511.3 643.7L511.8 655.9L512.2 498.9L512.7 559.9L513.1 591.9L513.6 547.7L514 559.9L514.4 474.5L514.9 530.9L515.3 585.8L515.8 657.4L516.2 518.7L516.7 680.3L517.1 538.6L517.6 625.4L518 556.8L518.4 683.3L518.9 611.7L519.3 566L519.8 690.9L520.2 555.3L520.7 613.2L521.1 654.4L521.6 570.6L522 636.1L522.4 535.5L522.9 713.8L523.3 599.5L523.8 684.8L524.2 534L524.7 593.4L525.1 684.8L525.6 680.3L526 623.9L526.4 579.7L526.9 558.4L527.3 642.2L527.8 555.3L528.2 719.9L528.7 712.3L529.1 724.5L529.6 616.3L530 671.1L530.4 726L530.9 683.3L531.3 738.2L531.8 736.7L532.2 620.8L532.7 718.4L533.1 721.4L533.6 680.3L534 712.3L534.4 739.7L534.9 596.5L535.3 706.2L535.8 607.1L536.2 742.8L536.7 581.2L537.1 733.6L537.6 713.8L538 716.8L538.4 736.7L538.9 634.6L539.3 686.4L539.8 738.2L540.2 744.3L540.7 704.7L541.1 722.9L541.6 741.2L542 751.9L542.4 779.3L542.9 758L543.3 537L543.8 761L544.2 729L544.7 655.9L545.1 777.8L545.6 655.9L546 756.5L546.4 739.7L546.9 710.8L547.3 770.2L547.8 707.7L548.2 751.9L548.7 742.8L549.1 710.8L549.6 716.8L550 692.5L550.4 750.4L550.9 681.8L551.3 671.1L551.8 617.8L552.2 788.5L553.1 690.9L553.6 768.7L554 773.2L554.4 750.4L554.9 770.2L555.3 689.4L555.8 805.2L556.2 716.8L556.7 771.7L557.1 713.8L557.6 616.3L558 759.5L558.4 716.8L558.9 800.7L559.3 779.3L559.8 739.7L560.2 811.3L560.7 751.9L561.1 802.2L561.6 793L562 811.3L562.4 787L562.9 788.5L563.3 598L563.8 777.8L564.2 794.6L564.7 782.4L565.1 747.3L565.6 750.4L566 739.7L566.4 787L566.9 747.3L567.3 895.1L567.8 876.9L568.2 532.5L568.7 742.8L569.1 671.1L569.6 744.3L570 730.6L570.4 741.2L570.9 701.6L571.3 732.1L571.8 654.4L572.2 730.6L572.7 704.7L573.1 616.3L573.6 593.4L574 630L574.4 640.7L575.3 570.6L575.8 651.3L576.2 599.5L576.7 651.3L577.1 643.7L577.6 625.4L578 651.3L578.4 639.1L578.9 550.7L579.3 634.6L579.8 613.2L580.2 642.2L580.7 628.5L581.1 655.9L581.6 619.3L582 636.1L582.4 530.9L582.9 652.8L583.3 613.2L583.8 662L584.2 614.7L584.7 642.2L585.1 648.3L585.6 662L586 640.7L586.4 639.1L586.9 582.7L587.3 623.9L587.8 614.7L588.2 631.5L588.7 558.4L589.1 623.9L589.6 613.2L590 593.4L590.4 485.2L590.9 655.9L591.8 623.9L592.2 553.8L592.7 555.3L593.1 511.1L593.6 646.7L594 640.7L594.4 675.7L594.9 620.8L595.3 640.7L595.8 535.5L596.2 588.8L596.7 613.2L597.1 591.9L597.6 517.2L598 608.7L598.4 594.9L598.9 520.3L599.3 587.3L599.8 611.7L600.2 488.3L600.7 631.5L601.1 457.8L601.6 622.4L602 491.3L602.4 680.3L602.9 576.6L603.3 613.2L603.8 594.9L604.2 494.4L604.7 639.1L605.1 564.5L605.6 480.6L606 582.7L606.4 374L606.9 558.4L607.3 454.7L607.8 591.9L608.2 390.7L608.7 626.9L609.1 593.4L609.6 579.7L610 535.5L610.4 625.4L610.9 604.1L611.3 608.7L611.8 562.9L612.2 518.7L612.7 547.7L613.1 602.6L613.6 505L614 500.5L614.4 456.3L614.9 598L615.3 616.3L615.8 596.5L616.2 491.3L616.7 616.3L617.1 622.4L617.6 613.2L618 608.7L618.4 575.1L618.9 512.6L619.3 645.2L619.8 512.6L620.2 485.2L620.7 617.8L621.1 625.4L621.6 492.8L622 674.2L622.4 494.4L622.9 537L623.3 468.4L623.8 608.7L624.2 534L624.7 498.9L625.1 526.4L625.6 570.6L626 566L626.4 642.2L626.9 587.3L627.3 642.2L627.8 556.8L628.2 631.5L628.7 491.3L629.1 602.6L629.6 505L630 524.8L630.4 585.8L630.9 666.6L631.3 593.4L631.8 631.5L632.2 541.6L632.7 614.7L633.1 591.9L633.6 601L634 473L634.4 555.3L634.9 526.4L635.3 564.5L635.8 607.1L636.2 550.7L636.7 535.5L637.1 570.6L637.6 587.3L638 562.9L638.4 599.5L638.9 534L639.3 633L639.8 572.1L640.2 512.6L640.7 601L641.1 567.5L641.6 556.8L642 480.6L642.4 698.6L642.9 575.1L643.3 686.4L643.8 697L644.2 756.5L644.7 707.7L645.1 634.6L645.6 608.7L646 662L646.4 722.9L646.9 689.4L647.3 718.4L647.8 701.6L648.2 687.9L648.7 700.1L649.1 680.3L649.6 713.8L650 706.2L650.4 662L650.9 719.9L651.3 713.8L651.8 655.9L652.2 741.2L652.7 753.4L653.6 756.5L654 732.1L654.4 730.6L654.9 738.2L655.3 744.3L655.8 722.9L656.2 750.4L657.1 666.6L657.6 747.3L658 701.6L658.4 751.9L658.9 619.3L659.3 770.2L659.8 750.4L660.2 756.5L660.7 753.4L661.1 759.5L661.6 648.3L662 771.7L662.4 683.3L662.9 739.7L663.3 756.5L663.8 729L664.2 569L664.7 655.9L665.1 741.2L665.6 793L666 771.7L666.4 729L666.9 690.9L667.3 780.9L667.8 617.8L668.2 764.1L668.7 753.4L669.1 613.2L669.6 750.4L670 736.7L670.4 788.5L670.9 689.4L671.3 602.6L671.8 761L672.2 782.4L672.7 796.1L673.1 672.7L673.6 686.4L674 787L674.9 790L675.3 666.6L675.8 780.9L676.2 797.6L676.7 820.5L677.1 797.6L677.6 806.8L678 764.1L678.4 805.2L678.9 825L679.3 866.2L679.8 814.4L680.2 806.8L680.7 812.9L681.1 837.2L681.6 294.7L682 724.5L682.4 447.1L682.9 466.9L683.3 611.7L683.8 767.1L684.2 692.5L684.7 701.6L685.1 694L685.6 782.4L686 718.4L686.4 695.5L686.9 658.9L687.3 750.4L687.8 721.4L688.2 622.4L688.7 630L689.1 668.1L689.6 643.7L690 663.5L690.4 628.5L690.9 640.7L691.3 614.7L691.8 649.8L692.2 633L692.7 658.9L693.1 642.2L693.6 640.7L694 623.9L694.4 636.1L694.9 543.1L695.3 658.9L695.8 619.3L696.2 652.8L696.7 622.4L697.1 663.5L697.6 558.4L698 651.3L698.4 593.4L698.9 616.3L699.3 628.5L699.8 582.7L700.2 655.9L700.7 652.8L701.1 651.3L701.6 649.8L702 640.7L702.4 651.3L702.9 646.7L703.3 625.4L703.8 502L704.2 508.1L704.7 642.2L705.1 683.3L705.6 626.9L706 625.4L706.4 566L706.9 648.3L707.3 604.1L707.8 617.8L708.2 643.7L708.7 639.1L709.1 549.2L709.6 610.2L710 581.2L710.4 648.3L710.9 518.7L711.3 622.4L711.8 527.9L712.2 640.7L712.7 605.6L713.1 604.1L713.6 620.8L714 514.2L714.4 605.6L714.9 640.7L715.3 604.1L715.8 623.9L716.2 607.1L716.7 604.1L717.1 477.6L717.6 587.3L718 495.9L718.4 587.3L718.9 518.7L719.3 616.3L719.8 604.1L720.2 521.8L720.7 633L721.1 576.6L721.6 532.5L722 626.9L722.4 480.6L722.9 614.7L723.3 594.9L723.8 579.7L724.2 500.5L724.7 628.5L725.1 492.8L725.6 605.6L726 486.7L726.4 651.3L726.9 468.4L727.3 614.7L727.8 569L728.2 614.7L728.7 512.6L729.1 514.2L729.6 448.6L730 616.3L730.4 552.3L730.9 594.9L731.3 514.2L731.8 623.9L732.2 526.4L732.7 529.4L733.1 427.3L733.6 517.2L734.4 527.9L734.9 657.4L735.3 623.9L735.8 511.1L736.2 508.1L736.7 492.8L737.1 648.3L737.6 494.4L738 470L738.4 617.8L738.9 620.8L739.3 616.3L739.8 651.3L740.2 489.8L740.7 645.2L741.1 520.3L741.6 671.1L742 591.9L742.4 648.3L742.9 532.5L743.3 465.4L743.8 547.7L744.2 605.6L744.7 530.9L745.1 488.3L745.6 652.8L746 489.8L746.4 625.4L746.9 594.9L747.3 569L747.8 681.8L748.2 570.6L748.7 505L749.1 529.4L749.6 546.2L750 524.8L750.4 598L750.9 668.1L751.3 544.6L751.8 701.6L752.2 567.5L752.7 518.7L753.1 514.2L753.6 517.2L754 591.9L754.4 695.5L754.9 694L755.3 556.8L755.8 410.5L756.2 718.4L756.7 570.6L757.1 663.5L757.6 575.1L758 534L758.4 675.7L758.9 639.1L759.3 636.1L759.8 683.3L760.2 623.9L760.7 683.3L761.1 709.2L761.6 695.5L762 738.2L762.4 636.1L762.9 745.8L763.3 706.2L763.8 707.7L764.2 758L764.7 736.7L765.1 745.8L765.6 724.5L766 738.2L766.4 722.9L766.9 707.7L767.3 689.4L767.8 739.7L768.2 732.1L768.7 707.7L769.1 643.7L769.6 735.1L770 738.2L770.4 729L770.9 706.2L771.3 599.5L771.8 756.5L772.2 747.3L772.7 742.8L773.1 762.6L773.6 710.8L774 745.8L774.4 654.4L774.9 759.5L775.3 768.7L775.8 665L776.2 722.9L776.7 616.3L777.1 793L777.6 698.6L778 773.2L778.4 701.6L778.9 706.2L779.3 697L779.8 750.4L780.2 764.1L780.7 785.4L781.1 623.9L781.6 805.2L782 797.6L782.4 756.5L782.9 636.1L783.3 774.8L783.8 805.2L784.2 598L784.7 788.5L785.1 742.8L785.6 602.6L786 745.8L786.4 754.9L786.9 791.5L787.3 780.9L787.8 660.5L788.2 654.4L788.7 599.5L789.1 785.4L789.6 687.9L790 799.1L790.4 808.3L790.9 803.7L791.3 771.7L791.8 768.7L792.2 817.4L792.7 756.5L793.1 745.8L793.6 540.1L794 826.6L794.9 802.2L795.3 835.7L795.8 579.7L796.2 811.3L796.7 828.1L797.1 759.5L797.6 857.1L798 855.5L798.4 630L798.9 747.3L799.3 722.9L799.8 732.1L800.2 695.5L800.7 767.1L801.1 706.2L801.6 718.4L802 590.4L802.4 745.8L802.9 729L803.3 617.8L803.8 620.8L804.2 683.3L804.7 648.3L805.1 646.7L805.6 541.6L806 675.7L806.4 662L806.9 636.1L807.3 605.6L807.8 674.2L808.2 610.2L808.7 643.7L809.1 684.8L809.6 642.2L810 657.4L810.4 617.8L810.9 630L811.3 652.8L811.8 445.6L812.2 608.7L812.7 660.5L813.1 631.5L813.6 671.1L814 648.3L814.4 634.6L814.9 636.1L815.3 637.6L815.8 616.3L816.2 652.8L816.7 663.5L817.1 604.1L817.6 665L818 668.1L818.4 669.6L818.9 662L819.3 683.3L819.8 625.4L820.2 652.8L820.7 639.1L821.1 602.6L821.6 485.2L822 646.7L822.4 491.3L822.9 628.5L823.3 630L823.8 636.1L824.2 630L824.7 610.2L825.1 631.5L825.6 616.3L826 651.3L826.4 625.4L826.9 611.7L827.3 628.5L827.8 526.4L828.2 628.5L828.7 517.2L829.1 614.7L829.6 488.3L830 628.5L830.4 492.8L830.9 619.3L831.3 508.1L831.8 643.7L832.2 537L832.7 636.1L833.1 477.6L833.6 544.6L834 500.5L834.4 567.5L834.9 585.8L835.3 628.5L835.8 430.4L836.2 633L836.7 447.1L837.1 532.5L837.6 626.9L838 483.7L838.4 470L838.9 529.4L839.3 639.1L839.8 613.2L840.2 532.5L840.7 572.1L841.1 489.8L841.6 477.6L842 570.6L842.9 518.7L843.3 471.5L843.8 585.8L844.2 622.4L844.7 508.1L845.1 613.2L845.6 552.3L846 633L846.4 26.5L846.9 613.2L847.3 535.5L847.8 497.4L848.2 598L848.7 648.3L849.1 189.6L849.6 654.4L850 485.2L850.4 530.9L850.9 630L851.3 648.3L851.8 651.3L852.2 553.8L852.7 520.3L853.1 559.9L853.6 622.4L854 523.3L854.4 646.7L854.9 640.7L855.3 518.7L855.8 495.9L856.2 665L856.7 517.2L857.1 489.8L857.6 657.4L858 521.8L858.4 672.7L858.9 559.9L859.3 666.6L859.8 505L860.2 529.4L860.7 590.4L861.1 610.2L861.6 674.2L862 646.7L862.4 550.7L862.9 503.5L863.3 584.3L863.8 608.7L864.2 572.1L864.7 546.2L865.1 540.1L865.6 678.8L866 198.7L866.4 658.9L866.9 518.7L867.3 594.9L867.8 625.4L868.2 534L868.7 537L869.1 643.7L869.6 712.3L870 564.5L870.4 680.3L870.9 631.5L871.3 590.4L871.8 608.7L872.2 710.8L872.7 591.9L873.1 678.8L873.6 718.4L874 742.8L874.4 683.3L874.9 747.3L875.3 727.5L875.8 729L876.2 648.3L876.7 736.7L877.1 730.6L877.6 758L878 721.4L878.4 727.5L878.9 681.8L879.3 610.2L879.8 684.8L880.2 689.4L880.7 742.8L881.1 730.6L881.6 741.2L882 745.8L882.4 762.6L882.9 671.1L883.3 712.3L883.8 722.9L884.2 758L884.7 721.4L885.1 736.7L885.6 759.5L886 648.3L886.4 722.9L886.9 729L887.3 593.4L887.8 754.9L888.2 742.8L888.7 564.5L889.1 768.7L889.6 739.7L890 762.6L890.4 747.3L890.9 695.5L891.3 780.9L891.8 729L892.2 658.9L892.7 217L893.1 698.6L893.6 770.2L894 783.9L894.4 611.7L894.9 785.4L895.3 652.8L895.8 748.9L896.2 721.4L896.7 790L897.1 700.1L897.6 780.9L898 754.9L898.4 779.3L898.9 326.7L899.3 773.2L899.8 601L900.2 785.4L900.7 812.9L901.1 776.3L901.6 787L902 768.7L902.4 820.5L902.9 761L903.3 783.9L903.8 768.7L904.2 765.6L904.7 815.9L905.1 819L905.6 796.1L906 802.2L906.4 819L906.9 808.3L907.3 782.4L907.8 707.7L908.2 814.4L908.7 722.9L909.1 815.9L909.6 832.7L910 547.7L910.4 811.3L910.9 808.3L911.3 791.5L911.8 665L912.2 709.2L912.7 802.2L913.1 419.7L913.6 601L914 758L914.4 707.7L914.9 767.1L915.3 709.2L915.8 750.4L916.2 700.1L916.7 747.3L917.1 681.8L917.6 686.4L918 726L918.4 655.9L918.9 620.8L919.3 655.9L919.8 465.4L920.2 654.4L920.7 561.4L921.1 657.4L921.6 658.9L922 631.5L922.4 666.6L922.9 652.8L923.3 637.6L923.8 639.1L924.2 570.6L924.7 663.5L925.1 633L925.6 639.1L926 559.9L926.4 660.5L926.9 610.2L927.3 646.7L927.8 649.8L928.2 610.2L928.7 620.8L929.1 645.2L929.6 572.1L930 665L930.4 514.2L930.9 620.8L931.3 619.3L931.8 642.2L932.2 630L932.7 649.8L933.1 552.3L933.6 658.9L934 613.2L934.4 662L934.9 505L935.3 646.7L935.8 628.5L936.2 640.7L936.7 633L937.1 655.9L937.6 654.4L938 602.6L938.4 645.2L938.9 649.8L939.3 666.6L939.8 634.6L940.2 623.9L940.7 628.5L941.1 558.4L941.6 630L942 486.7L942.4 642.2L942.9 572.1L943.3 607.1L943.8 537L944.2 619.3L944.7 626.9L945.1 611.7L945.6 622.4L946 584.3L946.4 520.3L946.9 643.7L947.3 640.7L947.8 622.4L948.2 409L948.7 591.9L949.1 468.4L949.6 630L950 549.2L950.4 -81.7L950.9 613.2L951.3 625.4L951.8 654.4L952.2 590.4L952.7 569L953.1 611.7L953.6 479.1L954 389.2L954.4 514.2L954.9 625.4L955.3 512.6L955.8 604.1L956.2 450.2L956.7 610.2L957.1 567.5L957.6 506.5L958 198.7L958.4 512.6L958.9 444.1L959.3 610.2L959.8 651.3L960.2 602.6L960.7 576.6L961.1 608.7L961.6 633L962 593.4L962.4 642.2L962.9 508.1L963.3 604.1L963.8 553.8L964.2 631.5L964.7 479.1L965.1 549.2L965.6 588.8L966 530.9L966.4 549.2L966.9 588.8L967.3 503.5L967.8 657.4L968.2 538.6L968.7 535.5L969.1 518.7L969.6 625.4L970 652.8L970.4 538.6L970.9 543.1L971.3 544.6L971.8 526.4L972.2 518.7L972.7 683.3L973.1 601L973.6 535.5L974 631.5L974.4 497.4L974.9 534L975.3 575.1L975.8 681.8L976.2 675.7L976.7 590.4L977.1 526.4L977.6 690.9L978 639.1L978.4 637.6L978.9 599.5L979.3 605.6L979.8 681.8L980.2 607.1L980.7 646.7L981.1 576.6L981.6 680.3L982 587.3L982.4 569L982.9 590.4L983.3 684.8L983.8 578.2L984.2 588.8L984.7 505L985.1 674.2L985.6 572.1L986 680.3L986.4 543.1L986.9 619.3L987.3 561.4L988.2 567.5L988.7 555.3L989.1 666.6L989.6 716.8L990 610.2L990.4 719.9L990.9 729L991.3 722.9L991.8 727.5L992.2 697L992.7 704.7L993.6 722.9L994 663.5L994.4 700.1L994.9 707.7L995.3 741.2L995.8 721.4L996.2 707.7L996.7 751.9L997.1 697L997.6 761L998 750.4L998.4 715.3L998.9 713.8L999.3 770.2L999.8 738.2L1000.2 706.2L1000.7 642.2L1001.1 726L1001.6 758L1002 759.5L1002.4 698.6L1002.9 726L1003.3 742.8L1003.8 750.4L1004.2 765.6L1004.7 631.5L1005.1 246L1005.6 680.3L1006 745.8L1006.4 666.6L1006.9 724.5L1007.3 698.6L1007.8 654.4L1008.2 680.3L1008.7 709.2L1009.1 759.5L1009.6 764.1L1010 735.1L1010.4 779.3L1010.9 768.7L1011.3 739.7L1011.8 730.6L1012.2 747.3L1012.7 642.2L1013.1 779.3L1013.6 770.2L1014 799.1L1014.4 660.5L1014.9 771.7L1015.3 811.3L1015.8 758L1016.2 642.2L1016.7 754.9L1017.1 779.3L1017.6 591.9L1018 750.4L1018.4 747.3L1018.9 799.1L1019.3 742.8L1019.8 806.8L1020.2 788.5L1020.7 815.9L1021.1 799.1L1021.6 777.8L1022 847.9L1022.4 785.4L1022.9 727.5L1023.3 815.9L1023.8 826.6L1024.2 796.1L1024.7 543.1L1025.1 809.8L1025.6 581.2L1026 788.5L1026.4 806.8L1026.9 838.8L1027.3 761L1027.8 735.1L1028.2 881.4L1028.7 570.6L1029.1 742.8L1029.6 695.5L1030 724.5L1030.4 694L1030.9 756.5L1031.3 716.8L1031.8 727.5L1032.2 665L1032.7 750.4L1033.1 724.5L1033.6 643.7L1034 628.5L1034.4 630L1034.9 587.3L1035.3 573.6L1035.8 626.9L1036.2 657.4L1036.7 639.1L1037.1 637.6L1038 633L1038.4 620.8L1038.9 616.3L1039.3 636.1L1039.8 645.2L1040.2 637.6L1040.7 633L1041.1 -160.9L1041.6 623.9L1042 662L1042.4 663.5L1042.9 601L1043.3 657.4L1043.8 631.5L1044.2 648.3L1044.7 599.5L1045.1 594.9L1045.6 642.2L1046 616.3L1046.4 555.3L1046.9 671.1L1047.3 663.5L1047.8 620.8L1048.2 658.9L1048.7 660.5L1049.1 643.7L1049.6 623.9L1050 477.6L1050.4 587.3L1050.9 654.4L1051.3 626.9L1051.8 599.5L1052.2 591.9L1052.7 639.1L1053.1 559.9L1053.6 482.2L1054 585.8L1054.4 447.1L1054.9 642.2L1055.3 517.2L1055.8 643.7L1056.2 508.1L1056.7 541.6L1057.1 498.9L1057.6 620.8L1058 584.3L1058.4 633L1058.9 540.1L1059.3 623.9L1059.8 604.1L1060.2 660.5L1060.7 611.7L1061.1 614.7L1061.6 460.8L1062 636.1L1062.4 543.1L1062.9 593.4L1063.3 512.6L1063.8 646.7L1064.2 559.9L1064.7 503.5L1065.1 590.4L1065.6 608.7L1066 604.1L1066.9 483.7L1067.3 559.9L1067.8 561.4L1068.2 620.8L1068.7 594.9L1069.1 608.7L1069.6 521.8L1070 623.9L1070.4 470L1070.9 631.5L1071.3 494.4L1071.8 547.7L1072.2 514.2L1072.7 575.1L1073.1 672.7L1073.6 620.8L1074 -66.4L1074.4 438L1074.9 550.7L1075.3 492.8L1075.8 564.5L1076.2 511.1L1076.7 564.5L1077.1 633L1077.6 617.8L1078 631.5L1078.4 619.3L1078.9 598L1079.8 579.7L1080.2 466.9L1080.7 474.5L1081.1 544.6L1081.6 559.9L1082 517.2L1082.4 573.6L1082.9 515.7L1083.3 625.4L1083.8 617.8L1084.2 543.1L1084.7 561.4L1085.1 637.6L1085.6 509.6L1086 672.7L1086.4 616.3L1086.9 596.5L1087.3 537L1087.8 529.4L1088.2 672.7L1088.7 509.6L1089.1 648.3L1089.6 529.4L1090 572.1L1090.4 674.2L1090.9 692.5L1091.3 593.4L1091.8 505L1092.2 662L1092.7 570.6L1093.1 569L1093.6 555.3L1094 573.6L1094.4 556.8L1094.9 523.3L1095.3 712.3L1095.8 654.4L1096.2 689.4L1096.7 569L1097.1 709.2L1097.6 511.1L1098 561.4L1098.4 680.3L1099.3 587.3L1099.8 575.1L1100.2 582.7L1100.7 590.4L1101.1 535.5L1101.6 684.8L1102 591.9L1102.4 735.1L1102.9 663.5L1103.3 575.1L1103.8 538.6L1104.2 704.7L1104.7 674.2L1105.6 729L1106 741.2L1106.4 700.1L1106.9 738.2L1107.3 706.2L1107.8 665L1108.2 715.3L1108.7 631.5L1109.1 687.9L1109.6 729L1110 744.3L1110.4 608.7L1110.9 724.5L1111.3 614.7L1111.8 735.1L1112.2 713.8L1112.7 636.1L1113.1 684.8L1113.6 704.7L1114 759.5L1114.4 739.7L1114.9 623.9L1115.3 692.5L1115.8 669.6L1116.2 729L1116.7 768.7L1117.1 611.7L1117.6 672.7L1118 726L1118.4 687.9L1118.9 767.1L1119.3 544.6L1119.8 547.7L1120.2 732.1L1120.7 611.7L1121.1 712.3L1121.6 602.6L1122 750.4L1122.4 646.7L1122.9 652.8L1123.3 779.3L1123.8 643.7L1124.2 765.6L1124.7 707.7L1125.1 745.8L1125.6 683.3L1126 783.9L1126.4 790L1126.9 643.7L1127.3 741.2L1127.8 666.6L1128.2 794.6L1128.7 782.4L1129.1 756.5L1130 793L1130.4 799.1L1130.9 768.7L1131.3 770.2L1131.8 764.1L1132.2 758L1132.7 799.1L1133.1 678.8L1133.6 715.3L1134 783.9L1134.4 754.9L1134.9 790L1135.3 808.3L1135.8 674.2L1136.2 796.1L1136.7 822L1137.1 785.4L1137.6 780.9L1138 768.7L1138.4 651.3L1138.9 681.8L1139.3 799.1L1139.8 806.8L1140.2 797.6L1140.7 559.9L1141.1 745.8L1141.6 829.6L1142 354.2L1142.4 748.9L1142.9 866.2L1143.3 817.4L1143.8 526.4L1144.2 614.7L1144.7 751.9L1145.1 706.2L1145.6 754.9L1146 713.8L1146.4 742.8L1146.9 668.1L1147.3 671.1L1147.8 706.2L1148.2 782.4L1148.7 736.7L1149.1 662L1149.6 658.9L1150 578.2L1150.4 626.9L1150.9 665L1151.3 578.2L1151.8 669.6L1152.2 630L1152.7 636.1L1153.1 471.5L1153.6 -39L1154 648.3L1154.4 640.7L1154.9 633L1155.3 654.4L1155.8 631.5L1156.2 646.7L1156.7 636.1L1157.1 631.5L1157.6 579.7L1158 655.9L1158.4 566L1158.9 663.5L1159.3 652.8L1159.8 666.6L1160.2 657.4L1160.7 651.3L1161.1 521.8L1161.6 672.7L1162 620.8L1162.4 674.2L1162.9 535.5L1163.3 654.4L1163.8 669.6L1164.2 610.2L1164.7 608.7L1165.1 611.7L1165.6 527.9L1166 619.3L1166.4 514.2L1166.9 581.2L1167.3 640.7L1167.8 614.7L1168.2 590.4L1168.7 613.2L1169.1 537L1169.6 633L1170 652.8L1170.4 662L1170.9 524.8L1171.3 616.3L1171.8 614.7L1172.2 628.5L1172.7 567.5L1173.1 620.8L1173.6 511.1L1174 622.4L1174.4 625.4L1174.9 598L1175.3 617.8L1175.8 640.7L1176.2 633L1176.7 547.7L1177.1 474.5L1177.6 602.6L1178 605.6L1178.4 649.8L1178.9 515.7L1179.3 622.4L1179.8 506.5L1180.2 622.4L1180.7 515.7L1181.1 623.9L1181.6 477.6L1182 524.8L1182.4 406L1182.9 613.2L1183.3 616.3L1183.8 620.8L1184.2 512.6L1184.7 616.3L1185.1 601L1185.6 617.8L1186 610.2L1186.4 581.2L1186.9 534L1187.3 442.5L1187.8 601L1188.2 605.6L1188.7 517.2L1189.1 512.6L1189.6 479.1L1190 517.2L1190.4 518.7L1190.9 630L1191.3 444.1L1191.8 511.1L1192.2 566L1192.7 610.2L1193.1 517.2L1193.6 575.1L1194 470L1194.4 631.5L1194.9 599.5L1195.3 553.8L1195.8 523.3L1196.2 491.3L1196.7 614.7L1197.1 620.8L1197.6 643.7L1198 456.3L1198.4 625.4L1198.9 534L1199.3 558.4L1199.8 491.3L1200.2 639.1L1200.7 506.5L1201.1 508.1L1201.6 581.2L1202 526.4L1202.4 590.4L1202.9 547.7L1203.3 527.9L1203.8 556.8L1204.2 631.5L1204.7 623.9L1205.1 608.7L1205.6 626.9L1206 657.4L1206.4 666.6L1206.9 587.3L1207.3 575.1L1207.8 561.4L1208.2 649.8L1208.7 476.1L1209.1 675.7L1209.6 530.9L1210 678.8L1210.4 666.6L1210.9 701.6L1211.3 570.6L1211.8 575.1L1212.2 686.4L1212.7 611.7L1213.1 625.4L1213.6 623.9L1214 665L1214.4 588.8L1214.9 700.1L1215.3 684.8L1215.8 611.7L1216.2 684.8L1216.7 616.3L1217.1 591.9L1217.6 497.4L1218 672.7L1218.4 610.2L1218.9 724.5L1219.3 633L1219.8 712.3L1220.2 727.5L1220.7 681.8L1221.1 733.6L1221.6 206.3L1222 608.7L1222.4 593.4L1222.9 569L1223.3 736.7L1223.8 575.1L1224.2 651.3L1224.7 721.4L1225.1 712.3L1225.6 698.6L1226 724.5L1226.4 686.4L1226.9 662L1227.3 732.1L1227.8 706.2L1228.2 742.8L1228.7 736.7L1229.1 677.2L1229.6 732.1L1230 722.9L1230.4 716.8L1230.9 732.1L1231.3 738.2L1231.8 715.3L1232.2 750.4L1232.7 726L1233.1 690.9L1233.6 764.1L1234 753.4L1234.4 651.3L1234.9 733.6L1235.3 713.8L1235.8 674.2L1236.2 765.6L1236.7 663.5L1237.1 654.4L1237.6 739.7L1238 546.2L1238.4 707.7L1238.9 770.2L1239.3 765.6L1239.8 706.2L1240.2 218.5L1240.7 779.3L1241.1 771.7L1241.6 785.4L1242 774.8L1242.4 808.3L1242.9 779.3L1243.3 738.2L1243.8 773.2L1244.2 767.1L1244.7 787L1245.1 730.6L1245.6 753.4L1246 241.4L1246.4 783.9L1246.9 665L1247.3 797.6L1247.8 796.1L1248.2 735.1L1248.7 660.5L1249.1 738.2L1249.6 721.4L1250 581.2L1250.4 802.2L1250.9 785.4L1251.3 630L1251.8 671.1L1252.2 791.5L1252.7 780.9L1253.1 777.8L1253.6 614.7L1254 758L1254.4 791.5L1254.9 742.8L1255.3 794.6L1255.8 823.5L1256.2 646.7L1256.7 637.6L1257.1 814.4L1258 742.8L1258.4 864.7L1258.9 800.7L1259.3 607.1L1259.8 736.7L1260.2 704.7L1260.7 758L1261.1 694L1261.6 765.6L1262 695.5L1262.4 733.6L1262.9 680.3L1263.3 733.6L1263.8 716.8L1264.2 637.6L1264.7 640.7L1265.1 642.2L1265.6 625.4L1266 672.7L1266.4 602.6L1266.9 651.3L1267.3 569L1267.8 633L1268.2 660.5L1268.7 663.5L1269.1 601L1269.6 633L1270 651.3L1270.4 654.4L1270.9 648.3L1271.3 622.4L1271.8 505L1272.2 631.5L1272.7 608.7L1273.1 655.9L1273.6 619.3L1274 666.6L1274.4 642.2L1274.9 652.8L1275.3 511.1L1275.8 611.7L1276.2 553.8L1276.7 576.6L1277.1 643.7L1277.6 637.6L1278 636.1L1278.4 640.7L1278.9 628.5L1279.3 642.2L1279.8 526.4L1280.2 611.7L1280.7 541.6L1281.1 500.5L1281.6 610.2L1282 602.6L1282.4 639.1L1282.9 649.8L1283.3 564.5L1283.8 648.3L1284.2 590.4L1284.7 616.3L1285.1 556.8L1285.6 634.6L1286 628.5L1286.4 633L1286.9 637.6L1287.3 651.3L1287.8 514.2L1288.2 646.7L1288.7 523.3L1289.1 3.7L1289.6 616.3L1290 651.3L1290.4 623.9L1290.9 626.9L1291.3 572.1L1291.8 520.3L1292.2 605.6L1292.7 547.7L1293.1 521.8L1293.6 662L1294 611.7L1294.4 482.2L1294.9 567.5L1295.3 634.6L1295.8 555.3L1296.2 633L1296.7 622.4L1297.1 500.5L1297.6 424.3L1298 508.1L1298.4 614.7L1298.9 598L1299.3 584.3L1299.8 630L1300.2 622.4L1300.7 569L1301.1 566L1301.6 438L1302 447.1L1302.4 582.7L1302.9 523.3L1303.3 594.9L1303.8 643.7L1304.2 576.6L1304.7 601L1305.1 622.4L1305.6 613.2L1306 625.4L1306.4 474.5L1306.9 604.1L1307.3 506.5L1307.8 559.9L1308.2 582.7L1308.7 626.9L1309.1 630L1309.6 594.9L1310 654.4L1310.4 567.5L1310.9 631.5L1311.3 485.2L1311.8 518.7L1312.2 634.6L1312.7 535.5L1313.1 553.8L1313.6 524.8L1314 616.3L1314.4 572.1L1314.9 640.7L1315.3 674.2L1315.8 473L1316.2 535.5L1316.7 544.6L1317.1 505L1317.6 637.6L1318 572.1L1318.4 555.3L1318.9 619.3L1319.3 547.7L1319.8 483.7L1320.2 622.4L1320.7 561.4L1321.1 509.6L1321.6 651.3L1322 620.8L1322.4 558.4L1322.9 640.7L1323.3 550.7L1323.8 690.9L1324.2 604.1L1324.7 674.2L1325.1 703.1L1325.6 652.8L1326 687.9L1326.4 608.7L1326.9 514.2L1327.3 547.7L1327.8 672.7L1328.2 607.1L1328.7 658.9L1329.1 564.5L1329.6 529.4L1330 63.1L1330.4 524.8L1330.9 710.8L1331.3 591.9L1331.8 697L1332.2 651.3L1332.7 671.1L1333.1 547.7L1333.6 634.6L1334 672.7L1334.4 690.9L1334.9 695.5L1335.3 716.8L1335.8 672.7L1336.2 700.1L1336.7 727.5L1337.1 703.1L1337.6 706.2L1338 724.5L1338.4 596.5L1338.9 694L1339.3 761L1339.8 698.6L1340.2 718.4L1340.7 601L1341.1 724.5L1341.6 716.8L1342 738.2L1342.4 732.1L1342.9 745.8L1343.3 581.2L1343.8 747.3L1344.2 742.8L1344.7 741.2L1345.1 698.6L1345.6 744.3L1346 735.1L1346.4 224.6L1346.9 756.5L1347.3 747.3L1347.8 745.8L1348.2 666.6L1348.7 631.5L1349.1 695.5L1349.6 753.4L1350 704.7L1350.4 764.1L1350.9 756.5L1351.3 701.6L1351.8 652.8L1352.2 672.7L1352.7 716.8L1353.1 605.6L1353.6 779.3L1354 776.3L1354.4 739.7L1354.9 773.2L1355.3 756.5L1355.8 735.1L1356.2 780.9L1356.7 785.4L1357.1 779.3L1357.6 730.6L1358 649.8L1358.4 608.7L1358.9 614.7L1359.3 521.8L1359.8 633L1360.2 788.5L1360.7 643.7L1361.1 770.2L1361.6 800.7L1362 780.9L1362.4 788.5L1362.9 803.7L1363.3 654.4L1363.8 797.6L1364.2 758L1364.7 814.4L1365.1 566L1365.6 814.4L1366 431.9L1366.4 790L1366.9 726L1367.3 517.2L1367.8 825L1368.2 777.8L1368.7 774.8L1369.1 777.8L1369.6 808.3L1370 672.7L1370.4 759.5L1370.9 805.2L1371.3 817.4L1371.8 777.8L1372.2 797.6L1372.7 730.6L1373.1 744.3L1373.6 889.1L1374 684.8L1374.4 831.1L1374.9 901.2L1375.3 587.3L1375.8 762.6L1376.2 692.5L1376.7 741.2L1377.1 730.6L1377.6 744.3L1378 657.4L1378.4 768.7L1378.9 719.9L1379.3 765.6L1379.8 726L1380.2 642.2L1380.7 652.8L1381.1 640.7L1381.6 636.1L1382 662L1382.9 643.7L1383.3 605.6L1383.8 637.6L1384.2 546.2L1384.7 669.6L1385.1 651.3L1385.6 642.2L1386 613.2L1386.4 672.7L1386.9 498.9L1387.3 649.8L1387.8 655.9L1388.2 665L1388.7 626.9L1389.1 674.2L1389.6 480.6L1390 649.8L1390.4 588.8L1390.9 666.6L1391.3 596.5L1391.8 651.3L1392.2 634.6L1392.7 625.4L1393.1 541.6L1393.6 643.7L1394 639.1L1394.4 607.1L1394.9 462.4L1395.3 658.9L1395.8 500.5L1396.2 626.9L1396.7 620.8L1397.1 613.2L1397.6 85.9L1398 649.8L1398.4 549.2L1398.9 658.9L1399.3 649.8L1399.8 658.9L1400.2 523.3L1400.7 639.1L1401.1 521.8L1401.6 658.9L1402 634.6L1402.4 643.7L1402.9 540.1L1403.3 616.3L1403.8 639.1L1404.2 636.1L1404.7 488.3L1405.1 617.8L1405.6 610.2L1406 620.8L1406.4 530.9L1406.9 645.2L1407.3 654.4L1407.8 529.4L1408.2 581.2L1408.7 562.9L1409.1 576.6L1409.6 105.8L1410 477.6L1410.4 633L1410.9 491.3L1411.3 566L1411.8 515.7L1412.2 616.3L1412.7 476.1L1413.1 637.6L1413.6 515.7L1414 454.7L1414.4 573.6L1414.9 515.7L1415.3 465.4L1415.8 451.7L1416.2 642.2L1416.7 625.4L1417.6 616.3L1418 598L1418.4 623.9L1418.9 648.3L1419.3 521.8L1419.8 532.5L1420.2 642.2L1420.7 578.2L1421.1 87.5L1421.6 465.4L1422 651.3L1422.4 527.9L1422.9 628.5L1423.3 636.1L1423.8 633L1424.2 549.2L1424.7 570.6L1425.1 447.1L1425.6 655.9L1426 593.4L1426.4 457.8L1426.9 503.5L1427.3 517.2L1427.8 613.2L1428.2 631.5L1428.7 502L1429.1 578.2L1429.6 530.9L1430 646.7L1430.4 454.7L1430.9 614.7L1431.3 529.4L1431.8 477.6L1432.2 645.2L1432.7 538.6L1433.1 669.6L1433.6 649.8L1434 633L1434.4 668.1L1434.9 562.9L1435.3 630L1435.8 497.4L1436.2 640.7L1436.7 447.1L1437.1 543.1L1437.6 444.1L1438 564.5L1438.4 505L1438.9 668.1L1439.3 125.6L1439.8 547.7L1440.7 562.9L1441.1 512.6L1441.6 684.8L1442 546.2L1442.4 681.8L1442.9 569L1443.3 547.7L1443.8 631.5L1444.2 604.1L1444.7 541.6L1445.1 630L1445.6 680.3L1446 598L1446.4 552.3L1446.9 700.1L1447.3 660.5L1447.8 611.7L1448.2 690.9L1448.7 611.7L1449.1 553.8L1449.6 695.5L1450 694L1450.4 722.9L1450.9 663.5L1451.3 704.7L1451.8 718.4L1452.2 715.3L1452.7 732.1L1453.1 543.1L1453.6 744.3L1454 599.5L1454.4 704.7L1454.9 722.9L1455.3 748.9L1455.8 687.9L1456.2 616.3L1456.7 745.8L1457.1 684.8L1457.6 721.4L1458 674.2L1458.4 739.7L1458.9 669.6L1459.3 750.4L1459.8 732.1L1460.2 713.8L1460.7 719.9L1461.1 738.2L1462 719.9L1462.4 707.7L1462.9 694L1463.3 657.4L1463.8 753.4L1464.2 707.7L1464.7 765.6L1465.1 793L1465.6 762.6L1466 718.4L1466.4 642.2L1466.9 726L1467.3 694L1467.8 770.2L1468.2 754.9L1468.7 753.4L1469.1 584.3L1469.6 719.9L1470 773.2L1470.4 745.8L1470.9 750.4L1471.3 671.1L1471.8 742.8L1472.2 616.3L1472.7 794.6L1473.1 751.9L1473.6 819L1474 594.9L1474.4 718.4L1474.9 783.9L1475.3 730.6L1475.8 538.6L1476.2 774.8L1476.7 713.8L1477.1 704.7L1477.6 707.7L1478 674.2L1478.4 742.8L1478.9 780.9L1479.3 808.3L1479.8 684.8L1480.2 742.8L1480.7 825L1481.1 809.8L1482 787L1482.4 727.5L1482.9 387.7L1483.3 765.6L1483.8 828.1L1484.2 774.8L1484.7 748.9L1485.1 799.1L1485.6 459.3L1486 800.7L1486.4 799.1L1486.9 601L1487.3 809.8L1487.8 593.4L1488.2 703.1L1488.7 815.9L1489.1 773.2L1489.6 777.8L1490 480.6L1490.4 631.5L1490.9 739.7L1491.3 700.1L1491.8 744.3L1492.2 703.1L1492.7 764.1L1493.1 701.6L1493.6 739.7L1494 633L1494.4 761L1494.9 745.8L1495.3 658.9L1495.8 668.1L1496.2 672.7L1496.7 660.5L1497.1 645.2L1497.6 620.8L1498 684.8L1498.4 660.5L1498.9 648.3L1499.3 657.4L1499.8 639.1L1500.2 626.9L1500.7 655.9L1501.1 634.6L1501.6 665L1502 488.3L1502.4 588.8L1502.9 634.6L1503.3 203.3L1503.8 637.6L1504.2 633L1504.7 550.7L1505.1 160.6L1505.6 665L1506 655.9L1506.4 634.6L1506.9 666.6L1507.3 639.1L1507.8 630L1508.2 655.9L1508.7 633L1509.1 645.2L1509.6 636.1L1510 462.4L1510.4 636.1L1510.9 502L1511.3 530.9L1511.8 626.9L1512.2 668.1L1512.7 555.3L1513.1 655.9L1513.6 634.6L1514 660.5L1514.4 585.8L1514.9 649.8L1515.3 636.1L1515.8 662L1516.2 645.2L1516.7 643.7L1517.1 489.8L1517.6 633L1518 622.4L1518.4 587.3L1518.9 642.2L1519.3 613.2L1519.8 488.3L1520.2 640.7L1520.7 459.3L1521.1 648.3L1521.6 485.2L1522 620.8L1522.4 511.1L1522.9 547.7L1523.3 564.5L1523.8 517.2L1524.2 532.5L1524.7 608.7L1525.1 480.6L1525.6 599.5L1526.4 50.9L1526.9 460.8L1527.3 483.7L1527.8 482.2L1528.2 620.8L1528.7 633L1529.1 598L1529.6 559.9L1530 581.2L1530.4 462.4L1530.9 623.9L1531.3 410.5L1531.8 628.5L1532.2 491.3L1532.7 559.9L1533.1 485.2L1533.6 541.6L1534 637.6L1534.4 588.8L1534.9 642.2L1535.3 517.2L1535.8 512.6L1536.2 620.8L1536.7 608.7L1537.1 527.9L1537.6 601L1538 610.2L1538.4 663.5L1538.9 640.7L1539.3 575.1L1539.8 619.3L1540.2 451.7L1540.7 649.8L1541.1 645.2L1541.6 654.4L1542 645.2L1542.4 625.4L1542.9 680.3L1543.3 665L1543.8 524.8L1544.2 570.6L1544.7 566L1545.1 633L1545.6 515.7L1546 634.6L1546.4 78.3L1546.9 654.4L1547.3 640.7L1547.8 547.7L1548.2 569L1548.7 546.2L1549.1 556.8L1549.6 669.6L1550 549.2L1550.4 546.2L1550.9 582.7L1551.3 652.8L1551.8 561.4L1552.2 677.2L1552.7 657.4L1553.1 662L1553.6 538.6L1554 668.1L1554.4 642.2L1554.9 686.4L1555.3 550.7L1555.8 701.6L1556.2 631.5L1556.7 680.3L1557.1 689.4L1557.6 462.4L1558 681.8L1558.4 518.7L1558.9 690.9L1559.3 559.9L1559.8 660.5L1560.2 594.9L1560.7 617.8L1561.1 686.4L1561.6 553.8L1562 669.6L1562.4 684.8L1562.9 492.8L1563.3 611.7L1563.8 585.8L1564.2 672.7L1564.7 591.9L1565.1 687.9L1565.6 747.3L1566 671.1L1566.4 722.9L1566.9 698.6L1567.3 703.1L1567.8 700.1L1568.2 598L1568.7 730.6L1569.1 643.7L1569.6 750.4L1570 745.8L1570.4 692.5L1570.9 706.2L1571.3 599.5L1571.8 707.7L1572.2 738.2L1572.7 739.7L1573.1 610.2L1573.6 742.8L1574 724.5L1574.4 750.4L1574.9 756.5L1575.3 710.8L1575.8 719.9L1576.2 747.3L1577.1 690.9L1577.6 770.2L1578 698.6L1578.4 765.6L1578.9 700.1L1579.3 753.4L1579.8 747.3L1580.2 722.9L1580.7 724.5L1581.1 761L1581.6 722.9L1582 747.3L1582.4 724.5L1582.9 668.1L1583.3 678.8L1583.8 779.3L1584.2 619.3L1584.7 748.9L1585.1 736.7L1585.6 680.3L1586 674.2L1586.4 636.1L1586.9 712.3L1587.3 777.8L1587.8 762.6L1588.2 780.9L1588.7 773.2L1589.1 756.5L1589.6 779.3L1590 796.1L1590.4 555.3L1590.9 773.2L1591.8 790L1592.2 767.1L1592.7 608.7L1593.1 750.4L1593.6 596.5L1594 797.6L1594.4 744.3L1594.9 666.6L1595.3 753.4L1595.8 319.1L1596.2 782.4L1596.7 812.9L1597.1 791.5L1597.6 812.9L1598 788.5L1598.4 569L1598.9 797.6L1599.3 838.8L1599.8 805.2L1600.2 785.4L1600.7 796.1L1601.1 815.9L1601.6 686.4L1602 829.6L1602.4 771.7L1602.9 594.9L1603.3 812.9L1603.8 748.9L1604.2 776.3L1604.7 863.1L1605.6 604.1L1606 748.9L1606.4 721.4L1606.9 716.8L1607.3 710.8L1607.8 753.4L1608.2 713.8L1608.7 750.4L1609.1 643.7L1609.6 756.5L1610 732.1L1610.4 648.3L1610.9 646.7L1611.3 648.3L1611.8 660.5L1612.2 651.3L1612.7 601L1613.1 698.6L1613.6 594.9L1614 662L1614.4 649.8L1614.9 646.7L1615.3 658.9L1615.8 639.1L1616.2 651.3L1616.7 633L1617.1 168.2L1617.6 660.5L1618 633L1618.4 651.3L1618.9 646.7L1619.3 628.5L1619.8 631.5L1620.2 648.3L1620.7 672.7L1621.1 643.7L1621.6 584.3L1622 637.6L1622.4 639.1L1622.9 626.9L1623.3 601L1623.8 168.2L1624.2 631.5L1624.7 637.6L1625.1 630L1625.6 645.2L1626 643.7L1626.4 619.3L1626.9 598L1627.3 668.1L1627.8 521.8L1628.2 628.5L1628.7 569L1629.1 640.7L1629.6 517.2L1630 523.3L1630.4 521.8L1630.9 637.6L1631.3 613.2L1631.8 534L1632.2 558.4L1632.7 529.4L1633.1 540.1L1633.6 643.7L1634 471.5L1634.4 579.7L1634.9 527.9L1635.3 654.4L1635.8 466.9L1636.2 497.4L1636.7 505L1637.1 594.9L1637.6 514.2L1638 652.8L1638.4 623.9L1638.9 614.7L1639.3 555.3L1639.8 623.9L1640.2 575.1L1640.7 642.2L1641.1 626.9L1641.6 625.4L1642 506.5L1642.4 640.7L1642.9 460.8L1643.3 567.5L1643.8 457.8L1644.2 623.9L1644.7 543.1L1645.1 617.8L1645.6 547.7L1646 585.8L1646.4 540.1L1646.9 576.6L1647.3 573.6L1647.8 453.2L1648.2 430.4L1648.7 451.7L1649.1 409L1649.6 616.3L1650 553.8L1650.4 640.7L1650.9 466.9L1651.3 572.1L1651.8 630L1652.2 636.1L1653.1 562.9L1653.6 559.9L1654 633L1654.4 532.5L1654.9 643.7L1655.3 535.5L1655.8 655.9L1656.2 434.9L1656.7 590.4L1657.1 474.5L1657.6 620.8L1658 575.1L1658.4 590.4L1658.9 628.5L1659.3 602.6L1659.8 541.6L1660.2 642.2L1660.7 602.6L1661.1 581.2L1661.6 573.6L1662 549.2L1662.4 628.5L1662.9 617.8L1663.3 662L1663.8 671.1L1664.2 692.5L1664.7 604.1L1665.1 562.9L1665.6 634.6L1666 518.7L1666.4 550.7L1666.9 520.3L1667.3 674.2L1667.8 663.5L1668.2 611.7L1668.7 578.2L1669.1 631.5L1669.6 549.2L1670 602.6L1670.4 541.6L1670.9 671.1L1671.3 505L1671.8 643.7L1672.2 636.1L1672.7 630L1673.1 681.8L1673.6 637.6L1674 575.1L1674.4 665L1674.9 649.8L1675.3 663.5L1675.8 584.3L1676.2 654.4L1676.7 666.6L1677.1 564.5L1677.6 690.9L1678 660.5L1678.4 616.3L1678.9 546.2L1679.3 555.3L1679.8 674.2L1680.2 576.6L1680.7 671.1L1681.1 716.8L1681.6 671.1L1682 756.5L1682.4 747.3L1682.9 712.3L1683.3 537L1683.8 623.9L1684.2 735.1L1684.7 703.1L1685.1 750.4L1685.6 726L1686 712.3L1686.4 709.2L1686.9 663.5L1687.3 703.1L1687.8 719.9L1688.2 748.9L1688.7 721.4L1689.1 768.7L1689.6 748.9L1690 738.2L1690.4 715.3L1690.9 703.1L1691.3 726L1691.8 735.1L1692.2 724.5L1692.7 758L1693.1 733.6L1693.6 665L1694 713.8L1694.4 741.2L1694.9 754.9L1695.3 742.8L1695.8 774.8L1696.2 715.3L1696.7 646.7L1697.1 758L1697.6 643.7L1698 716.8L1698.4 741.2L1698.9 747.3L1699.3 645.2L1699.8 660.5L1700.2 727.5L1700.7 747.3L1701.1 762.6L1701.6 704.7L1702 787L1702.4 742.8L1702.9 706.2L1703.3 803.7L1703.8 768.7L1704.2 526.4L1704.7 796.1L1705.1 761L1705.6 671.1L1706 777.8L1706.4 628.5L1706.9 748.9L1707.3 785.4L1707.8 764.1L1708.2 591.9L1708.7 805.2L1709.1 774.8L1709.6 819L1710 773.2L1710.4 634.6L1710.9 777.8L1711.3 809.8L1711.8 768.7L1712.7 675.7L1713.1 761L1713.6 812.9L1714 796.1L1714.4 799.1L1714.9 805.2L1715.3 774.8L1715.8 703.1L1716.2 799.1L1716.7 756.5L1717.1 799.1L1717.6 823.5L1718 840.3L1718.4 829.6L1718.9 825L1719.3 791.5L1719.8 838.8L1720.2 756.5L1720.7 564.5L1721.1 739.7L1721.6 701.6L1722 750.4L1722.4 713.8L1722.9 733.6L1723.3 686.4L1723.8 744.3L1724.2 671.1L1724.7 735.1L1725.1 707.7L1725.6 645.2L1726 639.1L1726.4 648.3L1726.9 628.5L1727.3 611.7L1727.8 643.7L1728.2 652.8L1728.7 628.5L1729.1 649.8L1729.6 626.9L1730 630L1730.4 636.1L1730.9 640.7L1731.3 665L1731.8 639.1L1732.7 665L1733.1 631.5L1733.6 651.3L1734 622.4L1734.4 611.7L1734.9 649.8L1735.3 654.4L1735.8 67.7L1736.2 671.1L1736.7 657.4L1737.1 640.7L1737.6 521.8L1738 651.3L1738.4 628.5L1738.9 623.9L1739.3 631.5L1740.2 633L1740.7 648.3L1741.1 509.6L1741.6 611.7L1742 613.2L1742.4 578.2L1742.9 645.2L1743.3 590.4L1743.8 556.8L1744.2 660.5L1744.7 610.2L1745.1 524.8L1745.6 636.1L1746 572.1L1746.4 620.8L1746.9 637.6L1747.3 441L1747.8 626.9L1748.2 636.1L1748.7 637.6L1749.1 649.8L1749.6 645.2L1750 611.7L1750.4 598L1750.9 564.5L1751.3 628.5L1751.8 451.7L1752.2 537L1752.7 483.7L1753.1 643.7L1753.6 494.4L1754 660.5L1754.4 642.2L1754.9 549.2L1755.3 564.5L1755.8 645.2L1756.2 607.1L1756.7 552.3L1757.1 538.6L1757.6 639.1L1758 616.3L1758.4 602.6L1758.9 608.7L1759.3 616.3L1759.8 585.8L1760.2 614.7L1760.7 591.9L1761.1 628.5L1761.6 498.9L1762 607.1L1762.4 508.1L1762.9 634.6L1763.3 598L1763.8 620.8L1764.2 476.1L1764.7 584.3L1765.1 477.6L1765.6 585.8L1766 512.6L1766.4 508.1L1766.9 470L1767.3 593.4L1767.8 465.4L1768.2 643.7L1768.7 133.2L1769.1 486.7L1769.6 617.8L1770 569L1770.4 576.6L1770.9 620.8L1771.3 488.3L1771.8 549.2L1772.2 485.2L1772.7 639.1L1773.1 520.3L1773.6 579.7L1774 620.8L1774.4 610.2L1774.9 485.2L1775.3 555.3L1775.8 509.6L1776.2 666.6L1776.7 671.1L1777.6 652.8L1778 660.5L1778.4 561.4L1778.9 652.8L1779.3 654.4L1779.8 628.5L1780.2 681.8L1780.7 692.5L1781.1 556.8L1781.6 569L1782 534L1782.4 555.3L1782.9 672.7L1783.3 700.1L1783.8 654.4L1784.2 680.3L1784.7 642.2L1785.1 680.3L1785.6 607.1L1786 666.6L1786.4 657.4L1786.9 599.5L1787.3 524.8L1787.8 681.8L1788.2 537L1788.7 601L1789.1 427.3L1789.6 689.4L1790 622.4L1790.4 582.7L1790.9 593.4L1791.3 640.7L1791.8 637.6L1792.2 620.8L1792.7 619.3L1793.1 716.8L1793.6 614.7L1794 591.9L1794.4 569L1794.9 590.4L1795.3 672.7L1795.8 666.6L1796.2 736.7L1796.7 654.4L1797.1 645.2L1797.6 579.7L1798 724.5L1798.9 753.4L1799.3 680.3L1799.8 710.8" fill="transparent" stroke="#3fb1e3" stroke-width="3" stroke-linejoin="bevel" class="zr11-cls-35"></path>
</g>
<path d="M-227.8 -5l455.7 0l0 28l-455.7 0Z" transform="translate(1000 5)" fill="rgb(0,0,0)" fill-opacity="0" stroke="#ccc" stroke-width="0" class="zr11-cls-33"></path>
<text dominant-baseline="central" text-anchor="middle" style="font-size:18px;font-family:sans-serif;font-weight:bold;" xml:space="preserve" y="9" transform="translate(1000 5)" fill="#666666">Min transportLinesUpdate per Tick for benchmark_abuc</text>
<defs >
<clipPath id="zr11-c0">
<path d="M198 58.5l16004 0l0 8703l-16004 0Z" fill="#000" class="zr11-cls-34"></path>
</clipPath>
</defs>
<style ><![CDATA[
.zr11-cls-33:hover {
pointer-events:none;
}
.zr11-cls-34:hover {
cursor:pointer;
fill:rgba(0,0,0,1);
}
.zr11-cls-35:hover {
cursor:pointer;
}

]]>

</style>
</svg>