<svg width="2000" height="1000" xmlns="http://www.w3.org/2000/svg" xmlns:xlink="http://www.w3.org/1999/xlink" version="1.1" baseProfile="full" viewBox="0 0 2000 1000">
<rect width="2000" height="1000" x="0" y="0" fill="rgb(252,252,252)" fill-opacity="0"></rect>
<path d="M200 930.5L1800 930.5" fill="transparent" stroke="#eeeeee" class="zr3-cls-9"></path>
<path d="M200 790.5L1800 790.5" fill="transparent" stroke="#eeeeee" class="zr3-cls-9"></path>
<path d="M200 637.5L1800 637.5" fill="transparent" stroke="#eeeeee" class="zr3-cls-9"></path>
<path d="M200 485.5L1800 485.5" fill="transparent" stroke="#eeeeee" class="zr3-cls-9"></path>
<path d="M200 333.5L1800 333.5" fill="transparent" stroke="#eeeeee" class="zr3-cls-9"></path>
<path d="M200 180.5L1800 180.5" fill="transparent" stroke="#eeeeee" class="zr3-cls-9"></path>
<path d="M200 60.5L1800 60.5" fill="transparent" stroke="#eeeeee" class="zr3-cls-9"></path>
<path d="M200.5 930L200.5 60" fill="transparent" stroke="#cccccc" stroke-linecap="round" class="zr3-cls-9"></path>
<text dominant-baseline="central" text-anchor="middle" style="font-size:12px;font-family:sans-serif;" xml:space="preserve" y="-6" transform="translate(200 45)" fill="#cccccc">Min transportLinesUpdate Time (ms)</text>
<path d="M200 930.5L1800 930.5" fill="transparent" stroke="#cccccc" stroke-linecap="round" class="zr3-cls-9"></path>
<text dominant-baseline="central" text-anchor="end" style="font-size:12px;font-family:sans-serif;" transform="translate(192 930)" fill="#999999">0.011</text>
<text dominant-baseline="central" text-anchor="end" style="font-size:12px;font-family:sans-serif;" transform="translate(192 789.9983)" fill="#999999">0.020</text>
<text dominant-baseline="central" text-anchor="end" style="font-size:12px;font-family:sans-serif;" transform="translate(192 637.6055)" fill="#999999">0.030</text>
<text dominant-baseline="central" text-anchor="end" style="font-size:12px;font-family:sans-serif;" transform="translate(192 485.2126)" fill="#999999">0.040</text>
<text dominant-baseline="central" text-anchor="end" style="font-size:12px;font-family:sans-serif;" transform="translate(192 332.8198)" fill="#999999">0.050</text>
<text dominant-baseline="central" text-anchor="end" style="font-size:12px;font-family:sans-serif;" transform="translate(192 180.4269)" fill="#999999">0.060</text>
<text dominant-baseline="central" text-anchor="end" style="font-size:12px;font-family:sans-serif;" transform="translate(192 60)" fill="#999999">0.068</text>
<text dominant-baseline="central" text-anchor="middle" style="font-size:12px;font-family:sans-serif;" y="6" transform="translate(200.2222 938)" fill="#999999">0</text>
<text dominant-baseline="central" text-anchor="middle" style="font-size:12px;font-family:sans-serif;" y="6" transform="translate(235.3333 938)" fill="#999999">79</text>
<text dominant-baseline="central" text-anchor="middle" style="font-size:12px;font-family:sans-serif;" y="6" transform="translate(270.4444 938)" fill="#999999">158</text>
<text dominant-baseline="central" text-anchor="middle" style="font-size:12px;font-family:sans-serif;" y="6" transform="translate(305.5556 938)" fill="#999999">237</text>
<text dominant-baseline="central" text-anchor="middle" style="font-size:12px;font-family:sans-serif;" y="6" transform="translate(340.6667 938)" fill="#999999">316</text>
<text dominant-baseline="central" text-anchor="middle" style="font-size:12px;font-family:sans-serif;" y="6" transform="translate(375.7778 938)" fill="#999999">395</text>
<text dominant-baseline="central" text-anchor="middle" style="font-size:12px;font-family:sans-serif;" y="6" transform="translate(410.8889 938)" fill="#999999">474</text>
<text dominant-baseline="central" text-anchor="middle" style="font-size:12px;font-family:sans-serif;" y="6" transform="translate(446 938)" fill="#999999">553</text>
<text dominant-baseline="central" text-anchor="middle" style="font-size:12px;font-family:sans-serif;" y="6" transform="translate(481.1111 938)" fill="#999999">632</text>
<text dominant-baseline="central" text-anchor="middle" style="font-size:12px;font-family:sans-serif;" y="6" transform="translate(516.2222 938)" fill="#999999">711</text>
<text dominant-baseline="central" text-anchor="middle" style="font-size:12px;font-family:sans-serif;" y="6" transform="translate(551.3333 938)" fill="#999999">790</text>
<text dominant-baseline="central" text-anchor="middle" style="font-size:12px;font-family:sans-serif;" y="6" transform="translate(586.4444 938)" fill="#999999">869</text>
<text dominant-baseline="central" text-anchor="middle" style="font-size:12px;font-family:sans-serif;" y="6" transform="translate(621.5556 938)" fill="#999999">948</text>
<text dominant-baseline="central" text-anchor="middle" style="font-size:12px;font-family:sans-serif;" y="6" transform="translate(656.6667 938)" fill="#999999">1027</text>
<text dominant-baseline="central" text-anchor="middle" style="font-size:12px;font-family:sans-serif;" y="6" transform="translate(691.7778 938)" fill="#999999">1106</text>
<text dominant-baseline="central" text-anchor="middle" style="font-size:12px;font-family:sans-serif;" y="6" transform="translate(726.8889 938)" fill="#999999">1185</text>
<text dominant-baseline="central" text-anchor="middle" style="font-size:12px;font-family:sans-serif;" y="6" transform="translate(762 938)" fill="#999999">1264</text>
<text dominant-baseline="central" text-anchor="middle" style="font-size:12px;font-family:sans-serif;" y="6" transform="translate(797.1111 938)" fill="#999999">1343</text>
<text dominant-baseline="central" text-anchor="middle" style="font-size:12px;font-family:sans-serif;" y="6" transform="translate(832.2222 938)" fill="#999999">1422</text>
<text dominant-baseline="central" text-anchor="middle" style="font-size:12px;font-family:sans-serif;" y="6" transform="translate(867.3333 938)" fill="#999999">1501</text>
<text dominant-baseline="central" text-anchor="middle" style="font-size:12px;font-family:sans-serif;" y="6" transform="translate(902.4444 938)" fill="#999999">1580</text>
<text dominant-baseline="central" text-anchor="middle" style="font-size:12px;font-family:sans-serif;" y="6" transform="translate(937.5556 938)" fill="#999999">1659</text>
<text dominant-baseline="central" text-anchor="middle" style="font-size:12px;font-family:sans-serif;" y="6" transform="translate(972.6667 938)" fill="#999999">1738</text>
<text dominant-baseline="central" text-anchor="middle" style="font-size:12px;font-family:sans-serif;" y="6" transform="translate(1007.7778 938)" fill="#999999">1817</text>
<text dominant-baseline="central" text-anchor="middle" style="font-size:12px;font-family:sans-serif;" y="6" transform="translate(1042.8889 938)" fill="#999999">1896</text>
<text dominant-baseline="central" text-anchor="middle" style="font-size:12px;font-family:sans-serif;" y="6" transform="translate(1078 938)" fill="#999999">1975</text>
<text dominant-baseline="central" text-anchor="middle" style="font-size:12px;font-family:sans-serif;" y="6" transform="translate(1113.1111 938)" fill="#999999">2054</text>
<text dominant-baseline="central" text-anchor="middle" style="font-size:12px;font-family:sans-serif;" y="6" transform="translate(1148.2222 938)" fill="#999999">2133</text>
<text dominant-baseline="central" text-anchor="middle" style="font-size:12px;font-family:sans-serif;" y="6" transform="translate(1183.3333 938)" fill="#999999">2212</text>
<text dominant-baseline="central" text-anchor="middle" style="font-size:12px;font-family:sans-serif;" y="6" transform="translate(1218.4444 938)" fill="#999999">2291</text>
<text dominant-baseline="central" text-anchor="middle" style="font-size:12px;font-family:sans-serif;" y="6" transform="translate(1253.5556 938)" fill="#999999">2370</text>
<text dominant-baseline="central" text-anchor="middle" style="font-size:12px;font-family:sans-serif;" y="6" transform="translate(1288.6667 938)" fill="#999999">2449</text>
<text dominant-baseline="central" text-anchor="middle" style="font-size:12px;font-family:sans-serif;" y="6" transform="translate(1323.7778 938)" fill="#999999">2528</text>
<text dominant-baseline="central" text-anchor="middle" style="font-size:12px;font-family:sans-serif;" y="6" transform="translate(1358.8889 938)" fill="#999999">2607</text>
<text dominant-baseline="central" text-anchor="middle" style="font-size:12px;font-family:sans-serif;" y="6" transform="translate(1394 938)" fill="#999999">2686</text>
<text dominant-baseline="central" text-anchor="middle" style="font-size:12px;font-family:sans-serif;" y="6" transform="translate(1429.1111 938)" fill="#999999">2765</text>
<text dominant-baseline="central" text-anchor="middle" style="font-size:12px;font-family:sans-serif;" y="6" transform="translate(1464.2222 938)" fill="#999999">2844</text>
<text dominant-baseline="central" text-anchor="middle" style="font-size:12px;font-family:sans-serif;" y="6" transform="translate(1499.3333 938)" fill="#999999">2923</text>
<text dominant-baseline="central" text-anchor="middle" style="font-size:12px;font-family:sans-serif;" y="6" transform="translate(1534.4444 938)" fill="#999999">3002</text>
<text dominant-baseline="central" text-anchor="middle" style="font-size:12px;font-family:sans-serif;" y="6" transform="translate(1569.5556 938)" fill="#999999">3081</text>
<text dominant-baseline="central" text-anchor="middle" style="font-size:12px;font-family:sans-serif;" y="6" transform="translate(1604.6667 938)" fill="#999999">3160</text>
<text dominant-baseline="central" text-anchor="middle" style="font-size:12px;font-family:sans-serif;" y="6" transform="translate(1639.7778 938)" fill="#999999">3239</text>
<text dominant-baseline="central" text-anchor="middle" style="font-size:12px;font-family:sans-serif;" y="6" transform="translate(1674.8889 938)" fill="#999999">3318</text>
<text dominant-baseline="central" text-anchor="middle" style="font-size:12px;font-family:sans-serif;" y="6" transform="translate(1710 938)" fill="#999999">3397</text>
<text dominant-baseline="central" text-anchor="middle" style="font-size:12px;font-family:sans-serif;" y="6" transform="translate(1745.1111 938)" fill="#999999">3476</text>
<text dominant-baseline="central" text-anchor="middle" style="font-size:12px;font-family:sans-serif;" y="6" transform="translate(1780.2222 938)" fill="#999999">3555</text>
<g clip-path="url(#zr3-c0)">
<path d="M200.2 -263L200.7 450.2L201.1 508.1L201.6 569L202 463.9L202.4 613.2L202.9 588.8L203.3 553.8L203.8 622.4L204.2 572.1L204.7 671.1L205.1 433.4L205.6 666.6L206 576.6L206.4 546.2L206.9 474.5L207.3 584.3L207.8 538.6L208.2 576.6L208.7 628.5L209.1 578.2L209.6 631.5L210 657.4L210.4 480.6L210.9 591.9L211.3 506.5L211.8 630L212.2 468.4L212.7 681.8L213.1 498.9L213.6 626.9L214 550.7L214.4 672.7L214.9 538.6L215.3 604.1L215.8 569L216.2 658.9L216.7 550.7L217.1 636.1L217.6 558.4L218 698.6L218.4 482.2L218.9 727.5L219.3 534L219.8 578.2L220.2 456.3L220.7 639.1L221.1 617.8L221.6 668.1L222 581.2L222.4 689.4L222.9 668.1L223.3 707.7L223.8 508.1L224.2 701.6L224.7 584.3L225.1 581.2L225.6 657.4L226 671.1L226.4 436.4L226.9 643.7L227.3 476.1L227.8 658.9L228.2 476.1L228.7 529.4L229.1 572.1L229.6 658.9L230 552.3L230.4 649.8L230.9 620.8L231.3 640.7L231.8 476.1L232.2 678.8L232.7 590.4L233.1 684.8L233.6 552.3L234 636.1L234.4 541.6L234.9 645.2L235.3 553.8L235.8 598L236.2 579.7L236.7 669.6L237.1 596.5L237.6 660.5L238 637.6L238.4 695.5L238.9 663.5L239.3 689.4L239.8 433.4L240.2 686.4L240.7 529.4L241.1 700.1L241.6 549.2L242 687.9L242.4 675.7L242.9 630L243.3 674.2L243.8 687.9L244.2 495.9L244.7 626.9L245.1 630L245.6 729L246 686.4L246.4 701.6L246.9 680.3L247.3 671.1L247.8 695.5L248.2 709.2L248.7 643.7L249.1 700.1L249.6 593.4L250 716.8L250.4 546.2L250.9 640.7L251.3 439.5L251.8 703.1L252.2 430.4L252.7 524.8L253.1 441L253.6 463.9L254 633L254.4 689.4L254.9 668.1L255.3 660.5L255.8 701.6L256.2 716.8L256.7 581.2L257.1 495.9L257.6 517.2L258 419.7L258.4 409L258.9 463.9L259.3 439.5L259.8 441L260.2 387.7L260.7 463.9L261.1 649.8L261.6 389.2L262 442.5L262.4 521.8L262.9 480.6L263.3 640.7L263.8 564.5L264.2 649.8L264.7 628.5L265.1 687.9L265.6 707.7L266 591.9L266.4 730.6L266.9 666.6L267.3 694L267.8 689.4L268.2 690.9L268.7 767.1L269.1 704.7L269.6 744.3L270 715.3L270.4 678.8L270.9 561.4L271.3 727.5L271.8 701.6L272.2 655.9L272.7 576.6L273.1 730.6L273.6 651.3L274 620.8L274.4 529.4L274.9 698.6L275.3 465.4L275.8 590.4L276.2 698.6L276.7 651.3L277.1 722.9L277.6 756.5L278 747.3L278.4 681.8L278.9 709.2L279.3 463.9L279.8 663.5L280.2 637.6L280.7 562.9L281.1 585.8L281.6 645.2L282 553.8L282.4 617.8L282.9 506.5L283.3 495.9L283.8 671.1L284.2 649.8L284.7 695.5L285.1 658.9L285.6 601L286 724.5L286.4 742.8L286.9 625.4L287.3 697L287.8 694L288.2 776.3L288.7 713.8L289.1 742.8L289.6 738.2L290 695.5L290.4 674.2L290.9 770.2L291.3 172.8L291.8 505L292.2 623.9L292.7 555.3L293.1 605.6L293.6 591.9L294 634.6L294.4 605.6L294.9 569L295.3 544.6L295.8 598L296.2 511.1L296.7 619.3L297.1 566L297.6 642.2L298 645.2L298.4 631.5L298.9 544.6L299.3 620.8L299.8 619.3L300.2 486.7L300.7 613.2L301.1 639.1L301.6 485.2L302 608.7L302.4 498.9L302.9 537L303.3 476.1L303.8 668.1L304.2 575.1L304.7 637.6L305.1 559.9L305.6 668.1L306 620.8L306.4 704.7L306.9 498.9L307.3 658.9L307.8 538.6L308.2 649.8L308.7 564.5L309.1 524.8L309.6 419.7L310 633L310.4 591.9L310.9 604.1L311.3 438L311.8 658.9L312.2 546.2L312.7 625.4L313.1 543.1L313.6 683.3L314 578.2L314.4 658.9L314.9 634.6L315.3 672.7L315.8 579.7L316.2 634.6L316.7 608.7L317.1 610.2L317.6 576.6L318 666.6L318.4 604.1L318.9 655.9L319.3 633L319.8 631.5L320.2 477.6L320.7 701.6L321.1 444.1L321.6 555.3L322 521.8L322.4 607.1L322.9 579.7L323.3 648.3L323.8 569L324.2 564.5L324.7 633L325.1 622.4L325.6 555.3L326 582.7L326.4 611.7L326.9 646.7L327.3 550.7L327.8 625.4L328.2 564.5L328.7 605.6L329.1 598L329.6 687.9L330 512.6L330.4 593.4L330.9 518.7L331.3 642.2L331.8 590.4L332.2 715.3L332.7 620.8L333.1 690.9L333.6 604.1L334 712.3L334.4 698.6L334.9 555.3L335.3 620.8L335.8 623.9L336.2 617.8L336.7 660.5L337.1 454.7L337.6 658.9L338 630L338.4 690.9L338.9 651.3L339.3 730.6L339.8 646.7L340.2 436.4L340.7 674.2L341.1 686.4L341.6 567.5L342 585.8L342.4 494.4L342.9 569L343.3 442.5L343.8 485.2L344.2 602.6L344.7 619.3L345.1 546.2L345.6 626.9L346 663.5L346.4 630L346.9 473L347.3 678.8L347.8 608.7L348.2 668.1L348.7 556.8L349.1 658.9L349.6 666.6L350 506.5L350.4 637.6L350.9 648.3L351.3 555.3L351.8 488.3L352.2 633L352.7 588.8L353.1 643.7L353.6 631.5L354 526.4L354.4 610.2L354.9 518.7L355.3 604.1L355.8 648.3L356.2 672.7L356.7 550.7L357.1 663.5L357.6 658.9L358 628.5L358.4 697L358.9 687.9L359.3 698.6L359.8 623.9L360.2 559.9L360.7 681.8L361.1 687.9L361.6 721.4L362 684.8L362.4 662L362.9 681.8L363.3 637.6L363.8 648.3L364.2 713.8L364.7 709.2L365.1 712.3L365.6 546.2L366 665L366.4 692.5L366.9 712.3L367.3 447.1L367.8 485.2L368.2 524.8L368.7 655.9L369.1 523.3L369.6 687.9L370 695.5L370.4 654.4L370.9 508.1L371.3 712.3L371.8 584.3L372.2 561.4L372.7 343.5L373.1 649.8L373.6 601L374 480.6L374.4 514.2L374.9 619.3L375.3 428.8L375.8 421.2L376.2 608.7L376.7 399.9L377.1 497.4L377.6 567.5L378 614.7L378.4 633L379.3 500.5L379.8 712.3L380.2 721.4L380.7 598L381.1 662L381.6 738.2L382 657.4L382.4 694L382.9 707.7L383.8 742.8L384.2 713.8L384.7 744.3L385.1 709.2L385.6 748.9L386 643.7L386.4 704.7L386.9 671.1L387.3 649.8L387.8 736.7L388.2 686.4L388.7 730.6L389.1 626.9L389.6 686.4L390 721.4L390.4 521.8L390.9 694L391.3 646.7L391.8 642.2L392.2 700.1L392.7 713.8L393.1 726L393.6 709.2L394 744.3L394.4 631.5L394.9 663.5L395.3 607.1L395.8 508.1L396.2 535.5L396.7 694L397.1 514.2L397.6 591.9L398 660.5L398.4 697L398.9 473L399.3 613.2L399.8 694L400.2 678.8L400.7 547.7L401.1 695.5L401.6 715.3L402 660.5L402.4 625.4L402.9 695.5L403.3 716.8L403.8 741.2L404.2 759.5L404.7 741.2L405.1 640.7L405.6 683.3L406 601L406.4 416.6L406.9 206.3L407.3 640.7L407.8 626.9L408.2 591.9L408.7 587.3L409.1 658.9L409.6 594.9L410 645.2L410.4 619.3L410.9 509.6L411.3 598L411.8 620.8L412.2 614.7L412.7 634.6L413.1 593.4L413.6 678.8L414 637.6L414.4 640.7L414.9 559.9L415.3 633L415.8 619.3L416.2 590.4L416.7 573.6L417.1 634.6L417.6 611.7L418 570.6L418.4 578.2L418.9 495.9L419.3 643.7L419.8 710.8L420.2 648.3L420.7 645.2L421.1 575.1L421.6 602.6L422 555.3L422.4 648.3L422.9 486.7L423.3 648.3L423.8 567.5L424.2 658.9L424.7 454.7L425.1 671.1L425.6 564.5L426 655.9L426.4 646.7L426.9 698.6L427.3 462.4L427.8 630L428.2 555.3L428.7 619.3L429.1 642.2L429.6 639.1L430 608.7L430.4 651.3L430.9 578.2L431.3 636.1L431.8 625.4L432.2 569L432.7 640.7L433.1 648.3L433.6 640.7L434 654.4L434.4 643.7L434.9 640.7L435.3 588.8L435.8 631.5L436.2 529.4L436.7 538.6L437.1 587.3L437.6 625.4L438 605.6L438.4 614.7L438.9 593.4L439.3 617.8L439.8 584.3L440.2 492.8L440.7 607.1L441.1 681.8L441.6 578.2L442 534L442.4 663.5L442.9 620.8L443.3 683.3L443.8 662L444.2 566L444.7 549.2L445.1 572.1L445.6 483.7L446 596.5L446.4 631.5L446.9 576.6L447.3 649.8L447.8 576.6L448.2 541.6L448.7 631.5L449.1 683.3L449.6 665L450 474.5L450.4 636.1L450.9 633L451.8 527.9L452.2 520.3L452.7 626.9L453.1 636.1L453.6 678.8L454 639.1L454.4 724.5L454.9 614.7L455.3 576.6L455.8 616.3L456.2 643.7L456.7 614.7L457.1 370.9L457.6 538.6L458 610.2L458.4 470L458.9 415.1L459.3 591.9L459.8 476.1L460.2 526.4L460.7 630L461.1 677.2L461.6 611.7L462 591.9L462.4 590.4L462.9 607.1L463.3 648.3L463.8 607.1L464.2 587.3L464.7 590.4L465.1 619.3L465.6 646.7L466 652.8L466.4 576.6L466.9 396.8L467.3 465.4L467.8 468.4L468.2 637.6L468.7 540.1L469.1 619.3L469.6 634.6L470 643.7L470.4 686.4L470.9 709.2L471.3 657.4L471.8 700.1L472.2 704.7L472.7 607.1L473.1 605.6L473.6 660.5L474 687.9L474.4 715.3L474.9 610.2L475.3 636.1L475.8 619.3L476.2 710.8L476.7 732.1L477.1 662L477.6 675.7L478 662L478.4 672.7L478.9 658.9L479.3 680.3L479.8 662L480.2 684.8L480.7 625.4L481.1 698.6L481.6 701.6L482 715.3L482.4 512.6L482.9 675.7L483.3 556.8L483.8 651.3L484.2 611.7L484.7 692.5L485.1 718.4L485.6 608.7L486 669.6L486.4 617.8L486.9 466.9L487.3 626.9L487.8 498.9L488.2 611.7L488.7 564.5L489.1 477.6L489.6 569L490 498.9L490.4 527.9L490.9 396.8L491.3 605.6L491.8 684.8L492.2 438L492.7 616.3L493.1 451.7L493.6 617.8L494 505L494.4 553.8L494.9 643.7L495.3 674.2L495.8 601L496.2 471.5L496.7 619.3L497.1 643.7L497.6 719.9L498 706.2L498.4 715.3L498.9 732.1L499.3 686.4L499.8 587.3L500.2 744.3L500.7 722.9L501.1 617.8L501.6 727.5L502 733.6L502.4 684.8L502.9 748.9L503.3 692.5L503.8 599.5L504.2 619.3L504.7 706.2L505.1 736.7L505.6 607.1L506 652.8L506.4 633L506.9 713.8L507.3 652.8L507.8 719.9L508.2 599.5L508.7 733.6L509.1 726L509.6 538.6L510 643.7L510.4 546.2L510.9 668.1L511.3 655.9L511.8 687.9L512.2 694L512.7 582.7L513.1 652.8L513.6 680.3L514 483.7L514.4 614.7L514.9 712.3L515.3 703.1L515.8 556.8L516.2 689.4L516.7 694L517.1 697L517.6 616.3L518 684.8L518.4 732.1L518.9 733.6L519.3 748.9L519.8 739.7L520.2 669.6L520.7 677.2L521.1 733.6L521.6 713.8L522 99.7L522.4 530.9L522.9 637.6L523.3 572.1L523.8 581.2L524.2 550.7L524.7 619.3L525.1 611.7L525.6 581.2L526 579.7L526.4 642.2L526.9 581.2L527.3 651.3L527.8 495.9L528.2 610.2L528.7 569L529.1 633L529.6 601L530 543.1L530.4 622.4L530.9 640.7L531.3 457.8L531.8 634.6L532.2 547.7L532.7 622.4L533.1 428.8L533.6 686.4L534 547.7L534.4 631.5L534.9 534L535.3 665L535.8 584.3L536.2 634.6L536.7 502L537.1 598L537.6 556.8L538 540.1L538.4 581.2L538.9 652.8L539.3 409L539.8 416.6L540.2 581.2L540.7 625.4L541.1 535.5L541.6 648.3L542 590.4L542.4 564.5L542.9 588.8L543.3 587.3L543.8 581.2L544.2 646.7L544.7 593.4L545.1 642.2L545.6 523.3L546 585.8L546.4 518.7L546.9 651.3L547.3 402.9L547.8 538.6L548.2 579.7L548.7 662L549.1 441L549.6 674.2L550 566L550.4 628.5L550.9 598L551.3 675.7L551.8 442.5L552.2 663.5L552.7 576.6L553.1 578.2L553.6 588.8L554 604.1L554.4 658.9L554.9 617.8L555.3 556.8L555.8 601L556.7 622.4L557.1 607.1L557.6 620.8L558 593.4L558.4 683.3L558.9 572.1L559.3 658.9L559.8 663.5L560.2 572.1L560.7 514.2L561.1 584.3L561.6 604.1L562 669.6L562.4 594.9L562.9 655.9L563.3 648.3L563.8 700.1L564.2 630L564.7 736.7L565.1 616.3L565.6 604.1L566 630L566.4 672.7L566.9 514.2L567.3 593.4L567.8 651.3L568.2 663.5L568.7 547.7L569.1 680.3L569.6 652.8L570 648.3L570.4 570.6L570.9 678.8L571.3 651.3L571.8 687.9L572.2 489.8L572.7 572.1L573.1 537L573.6 602.6L574 505L574.4 511.1L574.9 566L575.3 569L575.8 631.5L576.2 645.2L576.7 608.7L577.1 620.8L577.6 619.3L578 665L578.4 561.4L578.9 652.8L579.3 617.8L579.8 678.8L580.2 649.8L580.7 607.1L581.1 622.4L581.6 578.2L582 668.1L582.4 654.4L582.9 611.7L583.3 503.5L583.8 594.9L584.2 646.7L584.7 503.5L585.1 671.1L585.6 642.2L586 692.5L586.4 625.4L586.9 704.7L587.3 678.8L587.8 698.6L588.2 506.5L588.7 695.5L589.1 697L589.6 710.8L590 553.8L590.4 677.2L590.9 700.1L591.3 706.2L591.8 710.8L592.2 703.1L592.7 581.2L593.1 642.2L593.6 726L594 684.8L594.4 709.2L594.9 715.3L595.3 623.9L595.8 604.1L596.2 622.4L596.7 754.9L597.1 658.9L597.6 556.8L598 607.1L598.4 684.8L598.9 585.8L599.3 639.1L599.8 620.8L600.2 690.9L600.7 683.3L601.1 698.6L601.6 695.5L602 438L602.4 671.1L602.9 364.8L603.3 361.8L603.8 468.4L604.2 549.2L604.7 514.2L605.1 396.8L605.6 636.1L606 453.2L606.4 433.4L606.9 422.7L607.3 363.3L607.8 645.2L608.2 631.5L608.7 470L609.1 591.9L609.6 633L610 712.3L610.4 671.1L610.9 732.1L611.3 564.5L611.8 697L612.2 666.6L612.7 710.8L613.1 703.1L613.6 690.9L614 724.5L614.4 718.4L614.9 604.1L615.3 738.2L615.8 710.8L616.2 631.5L616.7 735.1L617.1 698.6L617.6 620.8L618 712.3L618.4 692.5L618.9 707.7L619.3 549.2L619.8 596.5L620.2 732.1L620.7 634.6L621.1 599.5L621.6 666.6L622 724.5L622.4 602.6L622.9 744.3L623.3 753.4L623.8 732.1L624.2 733.6L624.7 722.9L625.1 524.8L625.6 700.1L626 508.1L626.4 628.5L626.9 505L627.3 671.1L627.8 598L628.2 593.4L628.7 494.4L629.1 555.3L629.6 573.6L630 616.3L630.4 698.6L630.9 620.8L631.3 675.7L631.8 630L632.2 666.6L632.7 631.5L633.1 692.5L633.6 707.7L634 719.9L634.4 745.8L634.9 750.4L635.3 753.4L635.8 654.4L636.2 716.8L636.7 776.3L637.1 140.8L637.6 500.5L638 639.1L638.4 445.6L638.9 556.8L639.3 562.9L639.8 636.1L640.2 604.1L640.7 590.4L641.1 431.9L641.6 564.5L642 584.3L642.4 614.7L642.9 468.4L643.3 550.7L643.8 587.3L644.2 658.9L644.7 549.2L645.1 585.8L645.6 470L646 579.7L646.4 585.8L646.9 602.6L647.3 502L647.8 636.1L648.2 454.7L648.7 649.8L649.1 482.2L649.6 671.1L650 581.2L650.4 623.9L650.9 570.6L651.3 662L651.8 588.8L652.2 665L652.7 543.1L653.1 666.6L653.6 540.1L654 619.3L654.4 444.1L654.9 561.4L655.3 502L655.8 614.7L656.2 450.2L656.7 605.6L657.1 503.5L657.6 654.4L658 479.1L658.4 598L658.9 558.4L659.3 604.1L659.8 549.2L660.2 637.6L660.7 588.8L661.1 628.5L661.6 473L662 625.4L662.4 505L662.9 681.8L663.3 598L663.8 628.5L664.2 596.5L664.7 626.9L665.1 547.7L665.6 646.7L666 497.4L666.4 636.1L666.9 456.3L667.3 671.1L667.8 497.4L668.2 617.8L668.7 534L669.1 613.2L669.6 611.7L670 552.3L670.4 620.8L670.9 671.1L671.3 562.9L671.8 556.8L672.2 567.5L672.7 662L673.1 561.4L673.6 668.1L674 561.4L674.4 646.7L674.9 614.7L675.3 561.4L675.8 523.3L676.2 588.8L676.7 497.4L677.1 668.1L677.6 579.7L678 662L678.4 602.6L678.9 665L679.3 636.1L679.8 663.5L680.2 537L680.7 550.7L681.1 596.5L681.6 622.4L682 608.7L682.4 573.6L682.9 648.3L683.3 684.8L683.8 520.3L684.2 569L684.7 675.7L685.1 745.8L685.6 573.6L686 587.3L686.4 625.4L686.9 654.4L687.3 431.9L687.8 588.8L688.2 544.6L688.7 610.2L689.1 466.9L689.6 512.6L690 602.6L690.4 498.9L690.9 619.3L691.3 643.7L691.8 617.8L692.2 640.7L692.7 637.6L693.1 654.4L693.6 620.8L694 643.7L694.4 532.5L694.9 727.5L695.3 476.1L695.8 505L696.2 572.1L696.7 540.1L697.1 526.4L697.6 622.4L698 596.5L698.4 573.6L698.9 640.7L699.3 663.5L699.8 566L700.2 662L700.7 482.2L701.1 672.7L701.6 648.3L702 697L702.4 660.5L702.9 707.7L703.3 640.7L703.8 625.4L704.2 630L704.7 742.8L705.1 686.4L705.6 578.2L706 683.3L706.4 692.5L706.9 657.4L707.3 666.6L707.8 626.9L708.2 690.9L708.7 680.3L709.1 608.7L709.6 694L710 726L710.4 515.7L710.9 569L711.3 613.2L711.8 709.2L712.2 710.8L712.7 582.7L713.1 540.1L713.6 658.9L714 633L714.4 503.5L714.9 521.8L715.3 726L715.8 669.6L716.2 648.3L716.7 710.8L717.1 716.8L717.6 566L718 556.8L718.4 505L718.9 605.6L719.3 480.6L719.8 518.7L720.2 395.3L720.7 617.8L721.1 579.7L721.6 567.5L722 652.8L722.4 433.4L722.9 570.6L723.3 620.8L723.8 594.9L724.2 596.5L724.7 502L725.1 495.9L725.6 526.4L726 655.9L726.4 611.7L726.9 561.4L727.3 726L727.8 655.9L728.2 724.5L728.7 721.4L729.1 686.4L729.6 733.6L730 686.4L730.4 735.1L730.9 732.1L731.3 716.8L731.8 515.7L732.2 729L732.7 527.9L733.1 680.3L733.6 666.6L734 681.8L734.4 518.7L734.9 663.5L735.3 625.4L735.8 619.3L736.2 669.6L736.7 692.5L737.1 716.8L737.6 623.9L738 721.4L738.4 735.1L738.9 726L739.3 722.9L739.8 701.6L740.2 584.3L740.7 718.4L741.1 626.9L741.6 573.6L742 630L742.4 643.7L742.9 570.6L743.3 575.1L743.8 514.2L744.2 521.8L744.7 556.8L745.1 614.7L745.6 690.9L746 674.2L746.4 422.7L746.9 666.6L747.3 694L747.8 665L748.2 701.6L748.7 716.8L749.1 768.7L749.6 654.4L750 745.8L750.4 732.1L750.9 704.7L751.3 724.5L751.8 715.3L752.2 87.5L752.7 517.2L753.1 608.7L753.6 605.6L754 555.3L754.4 616.3L754.9 645.2L755.3 477.6L755.8 631.5L756.2 415.1L756.7 649.8L757.1 537L757.6 591.9L758 524.8L758.4 642.2L758.9 518.7L759.3 617.8L759.8 582.7L760.2 550.7L760.7 576.6L761.1 630L761.6 559.9L762 619.3L762.4 378.5L762.9 619.3L763.3 553.8L763.8 611.7L764.2 585.8L764.7 646.7L765.1 530.9L765.6 620.8L766 555.3L766.4 633L766.9 569L767.3 633L767.8 588.8L768.2 636.1L768.7 399.9L769.1 655.9L769.6 500.5L770 570.6L770.4 485.2L770.9 626.9L771.3 509.6L771.8 591.9L772.2 564.5L772.7 631.5L773.1 497.4L773.6 620.8L774 506.5L774.4 613.2L774.9 550.7L775.3 611.7L775.8 564.5L776.2 590.4L776.7 578.2L777.1 617.8L777.6 614.7L778 538.6L778.4 572.1L778.9 602.6L779.3 620.8L779.8 634.6L780.2 619.3L780.7 655.9L781.1 428.8L781.6 631.5L782 582.7L782.4 607.1L782.9 543.1L783.3 596.5L783.8 611.7L784.2 584.3L784.7 602.6L785.1 553.8L785.6 578.2L786 672.7L786.4 591.9L786.9 636.1L787.3 552.3L787.8 655.9L788.2 544.6L788.7 607.1L789.1 530.9L789.6 634.6L790 616.3L790.4 520.3L790.9 581.2L791.3 520.3L791.8 584.3L792.2 622.4L792.7 611.7L793.1 663.5L793.6 668.1L794 652.8L794.4 541.6L794.9 718.4L795.3 477.6L795.8 492.8L796.2 582.7L796.7 636.1L797.1 576.6L797.6 666.6L798 556.8L798.4 657.4L798.9 604.1L799.3 666.6L799.8 605.6L800.2 700.1L800.7 575.1L801.1 588.8L801.6 453.2L802 665L802.4 361.8L802.9 617.8L803.3 470L803.8 616.3L804.2 602.6L804.7 477.6L805.1 578.2L805.6 569L806 585.8L806.4 658.9L806.9 564.5L807.3 642.2L807.8 598L808.2 680.3L808.7 585.8L809.1 666.6L809.6 642.2L810 648.3L810.4 634.6L810.9 500.5L811.3 640.7L811.8 578.2L812.2 601L812.7 576.6L813.1 646.7L813.6 616.3L814 665L814.4 645.2L814.9 625.4L815.3 658.9L815.8 523.3L816.2 697L816.7 537L817.1 663.5L817.6 625.4L818 677.2L818.4 474.5L818.9 634.6L819.3 658.9L819.8 669.6L820.2 712.3L820.7 593.4L821.1 692.5L821.6 677.2L822 710.8L822.4 681.8L822.9 692.5L823.3 681.8L823.8 690.9L824.2 669.6L824.7 619.3L825.1 712.3L825.6 674.2L826 677.2L826.4 502L826.9 569L827.3 521.8L827.8 399.9L828.2 587.3L828.7 654.4L829.1 657.4L829.6 631.5L830 645.2L830.4 669.6L830.9 681.8L831.3 683.3L831.8 694L832.2 712.3L832.7 453.2L833.1 422.7L833.6 345L834 553.8L834.4 552.3L834.9 544.6L835.3 360.3L835.8 494.4L836.2 594.9L836.7 546.2L837.1 616.3L837.6 460.8L838 505L838.4 506.5L838.9 466.9L839.3 617.8L839.8 470L840.2 550.7L840.7 692.5L841.1 674.2L841.6 588.8L842 620.8L842.4 704.7L842.9 605.6L843.3 558.4L843.8 684.8L844.2 642.2L844.7 744.3L845.1 674.2L845.6 730.6L846 692.5L846.4 756.5L846.9 639.1L847.3 658.9L847.8 687.9L848.2 642.2L849.1 651.3L849.6 591.9L850 511.1L850.4 695.5L850.9 648.3L851.3 675.7L851.8 562.9L852.2 718.4L852.7 604.1L853.1 715.3L853.6 732.1L854 721.4L854.4 706.2L854.9 697L855.3 619.3L855.8 680.3L856.2 620.8L856.7 608.7L857.1 529.4L857.6 668.1L858 605.6L858.4 570.6L858.9 479.1L859.3 541.6L859.8 622.4L860.2 637.6L860.7 690.9L861.1 652.8L861.6 483.7L862 695.5L862.4 598L862.9 640.7L863.3 718.4L863.8 709.2L864.2 758L864.7 706.2L865.1 754.9L865.6 730.6L866 695.5L866.4 625.4L866.9 524.8L867.3 101.2L867.8 381.6L868.2 623.9L868.7 447.1L869.1 578.2L869.6 594.9L870 639.1L870.4 593.4L870.9 610.2L871.3 562.9L871.8 623.9L872.2 622.4L872.7 619.3L873.1 573.6L873.6 562.9L874 457.8L874.4 587.3L874.9 573.6L875.3 599.5L875.8 527.9L876.2 604.1L876.7 564.5L877.1 599.5L877.6 492.8L878 619.3L878.4 549.2L878.9 625.4L879.3 399.9L879.8 652.8L880.2 572.1L880.7 642.2L881.1 489.8L881.6 626.9L882 576.6L882.4 643.7L882.9 581.2L883.3 671.1L883.8 529.4L884.2 649.8L884.7 558.4L885.1 578.2L885.6 494.4L886 645.2L886.4 569L886.9 599.5L887.3 561.4L887.8 665L888.2 463.9L888.7 622.4L889.1 494.4L889.6 613.2L890 575.1L890.4 608.7L890.9 485.2L891.3 623.9L891.8 587.3L892.2 598L892.7 576.6L893.1 604.1L893.6 649.8L894 633L894.4 611.7L894.9 645.2L895.3 578.2L895.8 654.4L896.2 581.2L896.7 630L897.1 447.1L897.6 614.7L898 526.4L898.4 628.5L898.9 559.9L899.3 633L899.8 590.4L900.2 572.1L900.7 630L901.1 681.8L901.6 509.6L902 648.3L902.4 588.8L902.9 675.7L903.3 562.9L903.8 599.5L904.2 601L904.7 669.6L905.1 613.2L905.6 692.5L906 494.4L906.4 498.9L906.9 451.7L907.3 663.5L907.8 566L908.2 669.6L908.7 579.7L909.1 630L909.6 453.2L910 710.8L910.4 547.7L910.9 566L911.3 578.2L911.8 689.4L912.2 649.8L912.7 620.8L913.1 550.7L913.6 645.2L914 605.6L914.4 681.8L914.9 593.4L915.3 686.4L915.8 497.4L916.2 549.2L916.7 616.3L917.1 671.1L917.6 509.6L918 652.8L918.4 485.2L918.9 643.7L919.3 570.6L919.8 549.2L920.2 570.6L920.7 613.2L921.1 526.4L921.6 633L922 625.4L922.4 666.6L922.9 616.3L923.3 628.5L923.8 546.2L924.2 666.6L924.7 626.9L925.1 648.3L925.6 643.7L926 462.4L926.4 651.3L926.9 634.6L927.3 569L927.8 639.1L928.2 579.7L928.7 530.9L929.1 637.6L929.6 593.4L930 605.6L930.4 683.3L930.9 626.9L931.3 706.2L931.8 639.1L932.2 707.7L932.7 665L933.1 695.5L933.6 663.5L934 626.9L934.4 590.4L934.9 689.4L935.3 675.7L935.8 532.5L936.2 596.5L936.7 689.4L937.1 672.7L937.6 695.5L938 669.6L938.4 658.9L938.9 634.6L939.3 559.9L939.8 626.9L940.2 671.1L940.7 674.2L941.1 709.2L941.6 569L942 660.5L942.4 671.1L942.9 687.9L943.3 433.4L943.8 636.1L944.2 537L944.7 529.4L945.1 492.8L945.6 678.8L946.4 626.9L946.9 663.5L947.3 677.2L947.8 500.5L948.2 561.4L948.7 457.8L949.1 593.4L949.6 622.4L950 398.3L950.4 438L950.9 529.4L951.3 433.4L951.8 555.3L952.2 491.3L952.7 278L953.1 482.2L953.6 573.6L954 547.7L954.4 486.7L954.9 640.7L955.3 556.8L955.8 535.5L956.2 674.2L956.7 613.2L957.1 652.8L957.6 703.1L958 646.7L958.4 681.8L958.9 709.2L959.3 675.7L959.8 742.8L960.2 668.1L960.7 709.2L961.1 713.8L961.6 729L962 555.3L962.4 698.6L962.9 524.8L963.3 630L963.8 549.2L964.2 700.1L964.7 674.2L965.1 604.1L965.6 666.6L966 721.4L966.4 663.5L966.9 630L967.3 680.3L967.8 634.6L968.2 694L968.7 721.4L969.1 701.6L969.6 698.6L970 690.9L970.4 581.2L970.9 588.8L971.3 575.1L971.8 604.1L972.2 611.7L972.7 642.2L973.1 634.6L973.6 599.5L974 559.9L974.4 573.6L974.9 553.8L975.3 569L975.8 686.4L976.2 680.3L976.7 532.5L977.1 655.9L977.6 736.7L978 628.5L978.4 712.3L978.9 684.8L979.3 738.2L979.8 703.1L980.2 722.9L980.7 736.7L981.1 604.1L981.6 579.7L982 793L982.4 81.4L982.9 486.7L983.3 614.7L983.8 601L984.2 581.2L984.7 590.4L985.1 637.6L985.6 567.5L986 534L986.4 582.7L986.9 623.9L987.3 544.6L987.8 622.4L988.2 534L988.7 619.3L989.1 566L989.6 605.6L990 547.7L990.4 587.3L990.9 543.1L991.3 663.5L991.8 566L992.2 630L992.7 593.4L993.1 634.6L993.6 460.8L994 534L994.4 480.6L994.9 646.7L995.3 599.5L995.8 636.1L996.2 582.7L996.7 639.1L997.1 564.5L997.6 646.7L998 546.2L998.4 616.3L998.9 498.9L999.3 646.7L999.8 482.2L1000.2 460.8L1000.7 457.8L1001.1 628.5L1001.6 406L1002 594.9L1002.4 576.6L1002.9 640.7L1003.3 483.7L1003.8 605.6L1004.2 457.8L1004.7 646.7L1005.1 594.9L1005.6 634.6L1006 575.1L1006.4 640.7L1006.9 523.3L1007.3 622.4L1007.8 601L1008.2 559.9L1008.7 620.8L1009.1 634.6L1009.6 505L1010 631.5L1010.4 372.4L1010.9 634.6L1011.3 572.1L1011.8 630L1012.2 538.6L1012.7 523.3L1013.1 520.3L1013.6 602.6L1014 598L1014.4 645.2L1014.9 491.3L1015.3 549.2L1015.8 626.9L1016.2 666.6L1016.7 527.9L1017.1 628.5L1017.6 594.9L1018 663.5L1018.4 547.7L1018.9 662L1019.3 569L1019.8 640.7L1020.2 637.6L1020.7 668.1L1021.1 462.4L1021.6 579.7L1022 442.5L1022.4 655.9L1022.9 473L1023.3 671.1L1023.8 575.1L1024.2 686.4L1024.7 569L1025.1 712.3L1025.6 668.1L1026 552.3L1026.4 623.9L1026.9 662L1027.3 646.7L1027.8 630L1028.2 588.8L1028.7 646.7L1029.1 579.7L1029.6 700.1L1030 483.7L1030.4 668.1L1030.9 596.5L1031.3 569L1031.8 633L1032.2 660.5L1032.7 617.8L1033.1 534L1033.6 459.3L1034 416.6L1034.4 515.7L1034.9 486.7L1035.3 520.3L1035.8 602.6L1036.2 537L1036.7 540.1L1037.1 633L1037.6 657.4L1038 585.8L1038.4 672.7L1038.9 575.1L1039.3 674.2L1039.8 683.3L1040.2 654.4L1040.7 619.3L1041.1 562.9L1041.6 622.4L1042 549.2L1042.4 564.5L1042.9 643.7L1043.3 599.5L1043.8 575.1L1044.2 613.2L1044.7 637.6L1045.1 594.9L1045.6 657.4L1046 658.9L1046.4 646.7L1046.9 633L1047.3 657.4L1047.8 572.1L1048.2 677.2L1048.7 517.2L1049.1 646.7L1049.6 677.2L1050 692.5L1050.4 694L1050.9 570.6L1051.3 599.5L1051.8 668.1L1052.2 721.4L1052.7 698.6L1053.1 671.1L1053.6 658.9L1054 698.6L1054.4 730.6L1054.9 669.6L1055.3 721.4L1055.8 704.7L1056.2 684.8L1056.7 579.7L1057.1 681.8L1057.6 655.9L1058 671.1L1058.4 415.1L1058.9 677.2L1059.3 657.4L1059.8 550.7L1060.2 485.2L1060.7 567.5L1061.1 594.9L1061.6 622.4L1062 552.3L1062.4 706.2L1062.9 569L1063.3 451.7L1063.8 439.5L1064.2 651.3L1064.7 582.7L1065.1 553.8L1065.6 524.8L1066 466.9L1066.4 576.6L1066.9 502L1067.3 607.1L1067.8 459.3L1068.2 486.7L1068.7 427.3L1069.1 459.3L1069.6 613.2L1070 566L1070.4 556.8L1070.9 599.5L1071.3 616.3L1071.8 648.3L1072.2 640.7L1072.7 701.6L1073.1 639.1L1073.6 692.5L1074 712.3L1074.4 640.7L1074.9 736.7L1075.3 678.8L1075.8 716.8L1076.2 712.3L1076.7 742.8L1077.1 590.4L1077.6 689.4L1078 666.6L1078.4 675.7L1079.3 649.8L1080.2 575.1L1080.7 692.5L1081.1 697L1081.6 619.3L1082 643.7L1082.4 633L1082.9 579.7L1083.3 598L1083.8 707.7L1084.2 704.7L1084.7 692.5L1085.1 730.6L1085.6 587.3L1086 669.6L1086.4 604.1L1086.9 620.8L1087.3 628.5L1087.8 642.2L1088.2 541.6L1088.7 626.9L1089.1 654.4L1089.6 626.9L1090 453.2L1090.4 639.1L1090.9 681.8L1091.3 585.8L1091.8 494.4L1092.2 649.8L1092.7 715.3L1093.1 700.1L1093.6 692.5L1094 678.8L1094.4 713.8L1094.9 704.7L1095.3 735.1L1095.8 764.1L1096.2 713.8L1096.7 619.3L1097.1 758L1097.6 358.7L1098 203.3L1098.4 634.6L1098.9 611.7L1099.3 576.6L1099.8 517.2L1100.2 616.3L1100.7 529.4L1101.1 608.7L1101.6 593.4L1102 570.6L1102.4 598L1102.9 649.8L1103.3 623.9L1103.8 622.4L1104.2 540.1L1104.7 628.5L1105.1 607.1L1105.6 576.6L1106 556.8L1106.4 651.3L1106.9 604.1L1107.3 648.3L1107.8 581.2L1108.2 633L1108.7 572.1L1109.1 556.8L1109.6 575.1L1110 630L1110.4 602.6L1110.9 628.5L1111.3 654.4L1111.8 671.1L1112.2 572.1L1112.7 658.9L1113.1 585.8L1113.6 665L1114 517.2L1114.4 623.9L1114.9 587.3L1115.3 608.7L1115.8 424.3L1116.2 633L1116.7 585.8L1117.1 622.4L1117.6 547.7L1118 642.2L1118.4 532.5L1118.9 686.4L1119.3 567.5L1119.8 614.7L1120.2 593.4L1120.7 631.5L1121.1 613.2L1121.6 657.4L1122 562.9L1122.4 633L1122.9 631.5L1123.3 500.5L1123.8 558.4L1124.2 620.8L1124.7 643.7L1125.1 665L1125.6 607.1L1126 657.4L1126.4 576.6L1126.9 678.8L1127.3 594.9L1127.8 611.7L1128.2 549.2L1128.7 594.9L1129.1 566L1129.6 604.1L1130 556.8L1130.4 576.6L1130.9 585.8L1131.3 665L1131.8 588.8L1132.2 630L1132.7 587.3L1133.1 619.3L1133.6 620.8L1134 581.2L1134.4 587.3L1135.3 623.9L1135.8 540.1L1136.2 509.6L1136.7 543.1L1137.1 566L1137.6 642.2L1138 549.2L1138.4 642.2L1138.9 596.5L1139.3 573.6L1139.8 637.6L1140.2 678.8L1140.7 631.5L1141.1 524.8L1141.6 614.7L1142 605.6L1142.4 636.1L1142.9 508.1L1143.3 569L1143.8 640.7L1144.2 578.2L1144.7 535.5L1145.1 652.8L1145.6 736.7L1146 567.5L1146.4 537L1146.9 649.8L1147.3 602.6L1147.8 608.7L1148.2 370.9L1148.7 547.7L1149.1 608.7L1149.6 602.6L1150 357.2L1150.4 613.2L1150.9 520.3L1151.3 549.2L1151.8 489.8L1152.2 617.8L1152.7 619.3L1153.1 601L1153.6 680.3L1154 509.6L1154.4 646.7L1154.9 616.3L1155.3 690.9L1155.8 636.1L1156.2 471.5L1156.7 628.5L1157.1 578.2L1157.6 591.9L1158 613.2L1158.4 675.7L1158.9 587.3L1159.3 622.4L1159.8 544.6L1160.2 652.8L1160.7 689.4L1161.1 658.9L1161.6 677.2L1162 675.7L1162.4 530.9L1162.9 681.8L1163.3 683.3L1163.8 500.5L1164.2 591.9L1164.7 698.6L1165.1 751.9L1165.6 712.3L1166 611.7L1166.4 505L1166.9 678.8L1167.3 677.2L1167.8 704.7L1168.2 643.7L1168.7 674.2L1169.1 681.8L1169.6 698.6L1170 643.7L1170.4 692.5L1170.9 684.8L1171.3 747.3L1171.8 552.3L1172.2 686.4L1172.7 715.3L1173.1 692.5L1173.6 509.6L1174 620.8L1174.4 654.4L1174.9 617.8L1175.3 616.3L1175.8 665L1176.2 566L1176.7 677.2L1177.1 572.1L1177.6 611.7L1178 564.5L1178.4 494.4L1178.9 381.6L1179.3 663.5L1179.8 483.7L1180.2 552.3L1180.7 587.3L1181.1 572.1L1181.6 562.9L1182 480.6L1182.4 532.5L1182.9 508.1L1183.3 317.6L1183.8 628.5L1184.2 579.7L1184.7 515.7L1185.1 594.9L1185.6 529.4L1186 695.5L1186.4 581.2L1186.9 662L1187.3 625.4L1187.8 622.4L1188.2 631.5L1188.7 642.2L1189.1 706.2L1189.6 694L1190 718.4L1190.4 677.2L1190.9 751.9L1191.3 758L1191.8 741.2L1192.2 613.2L1192.7 639.1L1193.1 726L1193.6 677.2L1194 706.2L1194.4 686.4L1194.9 709.2L1195.3 537L1195.8 619.3L1196.2 764.1L1196.7 639.1L1197.1 654.4L1197.6 671.1L1198.4 628.5L1198.9 710.8L1199.8 703.1L1200.2 707.7L1200.7 590.4L1201.1 634.6L1201.6 596.5L1202 655.9L1202.4 579.7L1202.9 672.7L1203.3 660.5L1203.8 497.4L1204.2 637.6L1204.7 695.5L1205.1 527.9L1205.6 652.8L1206 712.3L1206.4 713.8L1206.9 476.1L1207.3 543.1L1207.8 669.6L1208.2 665L1208.7 658.9L1209.1 704.7L1209.6 732.1L1210 700.1L1210.4 741.2L1210.9 751.9L1211.3 686.4L1211.8 662L1212.2 690.9L1212.7 751.9L1213.1 101.2L1213.6 410.5L1214 594.9L1214.4 616.3L1214.9 567.5L1215.3 445.6L1215.8 613.2L1216.2 444.1L1216.7 556.8L1217.1 482.2L1217.6 645.2L1218 652.8L1218.4 643.7L1218.9 604.1L1219.3 639.1L1219.8 598L1220.2 636.1L1220.7 590.4L1221.1 587.3L1221.6 628.5L1222 666.6L1222.4 447.1L1222.9 626.9L1223.3 590.4L1223.8 594.9L1224.2 555.3L1224.7 628.5L1225.1 413.6L1225.6 639.1L1226 611.7L1226.4 605.6L1226.9 532.5L1227.3 616.3L1228.2 622.4L1228.7 598L1229.1 572.1L1229.6 584.3L1230 588.8L1230.4 610.2L1230.9 573.6L1231.3 468.4L1231.8 625.4L1232.2 433.4L1232.7 633L1233.1 628.5L1233.6 590.4L1234 562.9L1234.4 623.9L1234.9 537L1235.3 637.6L1235.8 546.2L1236.2 633L1236.7 564.5L1237.1 628.5L1237.6 494.4L1238 657.4L1238.4 505L1238.9 544.6L1239.3 567.5L1239.8 657.4L1240.2 546.2L1240.7 675.7L1241.1 559.9L1241.6 626.9L1242 524.8L1242.4 654.4L1242.9 498.9L1243.3 643.7L1243.8 505L1244.2 619.3L1244.7 581.2L1245.1 657.4L1245.6 623.9L1246 572.1L1246.4 591.9L1246.9 625.4L1247.3 578.2L1247.8 604.1L1248.2 596.5L1248.7 626.9L1249.1 608.7L1249.6 640.7L1250 602.6L1250.4 704.7L1250.9 617.8L1251.3 535.5L1251.8 486.7L1252.2 619.3L1252.7 610.2L1253.1 648.3L1253.6 602.6L1254 639.1L1254.4 643.7L1254.9 704.7L1255.3 567.5L1255.8 645.2L1256.2 604.1L1256.7 588.8L1257.1 623.9L1257.6 663.5L1258 651.3L1258.4 590.4L1258.9 633L1259.3 655.9L1259.8 523.3L1260.2 690.9L1260.7 614.7L1261.1 652.8L1261.6 534L1262 704.7L1262.4 544.6L1262.9 658.9L1263.3 517.2L1263.8 538.6L1264.2 572.1L1264.7 631.5L1265.1 553.8L1265.6 584.3L1266 570.6L1266.4 607.1L1266.9 648.3L1267.3 674.2L1267.8 622.4L1268.2 605.6L1268.7 552.3L1269.1 677.2L1269.6 614.7L1270 658.9L1270.4 614.7L1270.9 706.2L1271.3 604.1L1271.8 579.7L1272.2 602.6L1272.7 547.7L1273.1 623.9L1273.6 646.7L1274 527.9L1274.4 534L1274.9 473L1275.3 655.9L1275.8 601L1276.2 683.3L1276.7 648.3L1277.1 694L1277.6 599.5L1278 756.5L1278.4 634.6L1278.9 649.8L1279.3 614.7L1279.8 694L1280.2 637.6L1280.7 713.8L1281.1 616.3L1281.6 704.7L1282 694L1282.4 700.1L1282.9 683.3L1283.3 718.4L1283.8 651.3L1284.2 668.1L1284.7 642.2L1285.1 689.4L1285.6 703.1L1286 716.8L1286.4 677.2L1286.9 601L1287.3 497.4L1287.8 684.8L1288.2 657.4L1288.7 578.2L1289.1 575.1L1289.6 684.8L1290 512.6L1290.4 671.1L1290.9 486.7L1291.3 687.9L1291.8 671.1L1292.2 665L1292.7 695.5L1293.1 605.6L1293.6 630L1294 561.4L1294.4 514.2L1294.9 511.1L1295.3 387.7L1295.8 633L1296.2 448.6L1296.7 530.9L1297.1 532.5L1297.6 576.6L1298 630L1298.4 402.9L1298.9 462.4L1299.3 648.3L1299.8 502L1300.2 515.7L1300.7 672.7L1301.1 684.8L1301.6 495.9L1302 721.4L1302.4 637.6L1302.9 724.5L1303.3 616.3L1303.8 709.2L1304.2 703.1L1304.7 733.6L1305.1 684.8L1305.6 704.7L1306.4 747.3L1306.9 689.4L1307.3 660.5L1307.8 709.2L1308.2 706.2L1308.7 622.4L1309.1 695.5L1309.6 665L1310 660.5L1310.4 639.1L1310.9 715.3L1311.3 735.1L1311.8 622.4L1312.2 630L1312.7 636.1L1313.1 704.7L1313.6 633L1314 733.6L1314.4 732.1L1314.9 713.8L1315.3 741.2L1315.8 694L1316.2 601L1316.7 692.5L1317.1 578.2L1317.6 625.4L1318 591.9L1318.4 658.9L1318.9 662L1319.3 630L1319.8 675.7L1320.2 646.7L1320.7 687.9L1321.1 668.1L1321.6 686.4L1322 549.2L1322.4 620.8L1322.9 680.3L1323.3 712.3L1323.8 675.7L1324.2 657.4L1324.7 741.2L1325.1 748.9L1325.6 742.8L1326 758L1326.4 761L1326.9 643.7L1327.3 756.5L1327.8 742.8L1328.2 162.1L1328.7 535.5L1329.1 646.7L1329.6 550.7L1330 543.1L1330.4 590.4L1330.9 631.5L1331.3 587.3L1331.8 620.8L1332.2 515.7L1332.7 630L1333.1 480.6L1333.6 654.4L1334 631.5L1334.4 634.6L1334.9 655.9L1335.3 660.5L1335.8 572.1L1336.2 601L1336.7 626.9L1337.1 613.2L1337.6 390.7L1338 588.8L1338.4 482.2L1338.9 648.3L1339.3 591.9L1339.8 646.7L1340.2 506.5L1340.7 686.4L1341.1 543.1L1341.6 645.2L1342 608.7L1342.4 652.8L1342.9 587.3L1343.3 662L1343.8 601L1344.2 652.8L1344.7 523.3L1345.1 634.6L1345.6 549.2L1346 584.3L1346.4 538.6L1346.9 657.4L1347.3 485.2L1347.8 591.9L1348.2 599.5L1348.7 625.4L1349.1 480.6L1349.6 605.6L1350 465.4L1350.4 651.3L1350.9 614.7L1351.3 640.7L1351.8 558.4L1352.2 649.8L1352.7 581.2L1353.1 665L1353.6 486.7L1354 657.4L1354.4 617.8L1354.9 662L1355.3 500.5L1355.8 658.9L1356.2 564.5L1356.7 645.2L1357.1 441L1357.6 534L1358 476.1L1358.4 684.8L1358.9 553.8L1359.3 626.9L1359.8 569L1360.2 654.4L1360.7 666.6L1361.1 598L1361.6 623.9L1362 698.6L1362.4 604.1L1362.9 639.1L1363.3 651.3L1363.8 700.1L1364.2 573.6L1364.7 671.1L1365.1 587.3L1365.6 633L1366 465.4L1366.4 470L1366.9 529.4L1367.3 619.3L1367.8 642.2L1368.2 639.1L1368.7 622.4L1369.1 675.7L1369.6 625.4L1370 719.9L1370.4 648.3L1370.9 744.3L1371.3 576.6L1371.8 555.3L1372.2 642.2L1372.7 658.9L1373.1 503.5L1373.6 628.5L1374 456.3L1374.4 646.7L1374.9 669.6L1375.3 710.8L1376.2 724.5L1376.7 590.4L1377.1 572.1L1377.6 555.3L1378 675.7L1378.4 454.7L1378.9 585.8L1379.3 529.4L1379.8 649.8L1380.2 599.5L1380.7 559.9L1381.1 585.8L1381.6 579.7L1382 497.4L1382.4 677.2L1382.9 651.3L1383.3 527.9L1383.8 684.8L1384.2 636.1L1384.7 631.5L1385.1 683.3L1385.6 620.8L1386 703.1L1386.4 649.8L1386.9 596.5L1387.3 534L1387.8 587.3L1388.2 657.4L1388.7 628.5L1389.1 611.7L1389.6 541.6L1390 663.5L1390.4 594.9L1390.9 630L1391.3 639.1L1391.8 530.9L1392.2 707.7L1392.7 637.6L1393.1 686.4L1393.6 681.8L1394 698.6L1394.4 526.4L1394.9 604.1L1395.3 576.6L1395.8 707.7L1396.2 669.6L1396.7 581.2L1397.1 692.5L1397.6 689.4L1398 640.7L1398.4 655.9L1398.9 631.5L1399.3 657.4L1399.8 662L1400.2 677.2L1400.7 605.6L1401.1 681.8L1401.6 573.6L1402 590.4L1402.4 625.4L1402.9 744.3L1403.3 668.1L1403.8 599.5L1404.2 517.2L1404.7 666.6L1405.1 576.6L1405.6 646.7L1406 581.2L1406.4 686.4L1406.9 669.6L1407.3 607.1L1407.8 713.8L1408.2 716.8L1408.7 427.3L1409.1 535.5L1409.6 415.1L1410 651.3L1410.4 500.5L1410.9 572.1L1411.3 505L1411.8 639.1L1412.2 567.5L1412.7 524.8L1413.1 640.7L1413.6 380.1L1414 511.1L1414.4 502L1414.9 381.6L1415.3 591.9L1415.8 665L1416.2 637.6L1416.7 567.5L1417.1 698.6L1417.6 677.2L1418 672.7L1418.4 719.9L1418.9 639.1L1419.3 716.8L1419.8 703.1L1420.2 657.4L1420.7 735.1L1421.1 675.7L1421.6 739.7L1422 701.6L1422.4 735.1L1422.9 660.5L1423.3 733.6L1423.8 642.2L1424.2 689.4L1424.7 700.1L1425.1 736.7L1425.6 637.6L1426 652.8L1426.4 697L1426.9 602.6L1427.3 657.4L1427.8 671.1L1428.2 694L1428.7 652.8L1429.1 683.3L1429.6 724.5L1430 715.3L1430.4 712.3L1430.9 704.7L1431.3 616.3L1431.8 652.8L1432.2 509.6L1432.7 643.7L1433.1 526.4L1433.6 630L1434 680.3L1434.4 553.8L1434.9 508.1L1435.3 594.9L1435.8 590.4L1436.2 655.9L1436.7 668.1L1437.1 683.3L1437.6 648.3L1438 570.6L1438.4 715.3L1438.9 626.9L1439.3 684.8L1439.8 698.6L1440.2 722.9L1440.7 665L1441.1 754.9L1441.6 724.5L1442 701.6L1442.4 678.8L1442.9 692.5L1443.3 87.5L1443.8 495.9L1444.2 645.2L1444.7 610.2L1445.1 578.2L1445.6 587.3L1446 610.2L1446.4 599.5L1446.9 593.4L1447.3 578.2L1447.8 619.3L1448.7 614.7L1449.1 594.9L1449.6 620.8L1450 569L1450.4 651.3L1450.9 590.4L1451.3 570.6L1451.8 596.5L1452.2 630L1452.7 633L1453.1 616.3L1453.6 546.2L1454 634.6L1454.4 442.5L1454.9 608.7L1455.3 587.3L1455.8 630L1456.2 505L1456.7 651.3L1457.1 529.4L1457.6 648.3L1458 442.5L1458.4 663.5L1458.9 576.6L1459.3 683.3L1459.8 559.9L1460.2 640.7L1460.7 544.6L1461.1 570.6L1461.6 544.6L1462 628.5L1462.4 573.6L1462.9 602.6L1463.3 567.5L1463.8 665L1464.2 488.3L1464.7 631.5L1465.1 572.1L1465.6 628.5L1466 619.3L1466.4 614.7L1466.9 613.2L1467.3 596.5L1467.8 553.8L1468.2 555.3L1468.7 640.7L1469.1 549.2L1469.6 646.7L1470 645.2L1470.4 620.8L1470.9 643.7L1471.3 588.8L1471.8 660.5L1472.2 537L1472.7 617.8L1473.1 369.4L1473.6 613.2L1474 570.6L1474.4 556.8L1474.9 593.4L1475.3 646.7L1475.8 668.1L1476.2 584.3L1476.7 590.4L1477.1 701.6L1477.6 564.5L1478 648.3L1478.4 636.1L1478.9 662L1479.3 588.8L1479.8 683.3L1480.2 610.2L1480.7 672.7L1481.1 646.7L1481.6 546.2L1482 639.1L1482.4 558.4L1482.9 639.1L1483.3 654.4L1483.8 581.2L1484.2 637.6L1484.7 623.9L1485.1 678.8L1485.6 610.2L1486 709.2L1486.4 669.6L1486.9 575.1L1487.3 672.7L1487.8 677.2L1488.2 692.5L1488.7 646.7L1489.1 393.8L1489.6 681.8L1490 590.4L1490.4 569L1490.9 636.1L1491.3 700.1L1491.8 622.4L1492.2 573.6L1492.7 666.6L1493.1 675.7L1493.6 444.1L1494 588.8L1494.4 491.3L1494.9 652.8L1495.3 601L1495.8 520.3L1496.2 617.8L1496.7 588.8L1497.1 587.3L1497.6 668.1L1498 652.8L1498.4 654.4L1498.9 640.7L1499.3 689.4L1499.8 643.7L1500.2 666.6L1500.7 674.2L1501.1 668.1L1501.6 605.6L1502 524.8L1502.4 466.9L1502.9 578.2L1503.3 628.5L1503.8 556.8L1504.2 588.8L1504.7 642.2L1505.1 541.6L1505.6 495.9L1506 477.6L1506.4 625.4L1506.9 614.7L1507.3 697L1507.8 681.8L1508.2 726L1508.7 619.3L1509.1 686.4L1509.6 633L1510 594.9L1510.4 681.8L1510.9 706.2L1511.3 671.1L1511.8 588.8L1512.2 700.1L1512.7 697L1513.1 700.1L1514 672.7L1514.4 677.2L1514.9 738.2L1515.3 678.8L1515.8 675.7L1516.2 700.1L1516.7 698.6L1517.1 687.9L1517.6 599.5L1518 713.8L1518.4 686.4L1518.9 567.5L1519.3 630L1519.8 601L1520.2 494.4L1520.7 566L1521.1 608.7L1521.6 701.6L1522 652.8L1522.4 579.7L1522.9 710.8L1523.3 709.2L1523.8 582.7L1524.2 623.9L1524.7 562.9L1525.1 584.3L1525.6 483.7L1526 447.1L1526.4 418.2L1526.9 450.2L1527.3 593.4L1527.8 433.4L1528.2 619.3L1528.7 473L1529.1 529.4L1529.6 569L1530 509.6L1530.4 619.3L1530.9 630L1531.3 648.3L1531.8 692.5L1532.2 700.1L1532.7 669.6L1533.1 616.3L1533.6 713.8L1534 660.5L1534.4 701.6L1534.9 709.2L1535.3 677.2L1535.8 759.5L1536.2 668.1L1536.7 718.4L1537.1 745.8L1537.6 706.2L1538 601L1538.4 736.7L1538.9 623.9L1539.3 655.9L1539.8 619.3L1540.2 701.6L1540.7 719.9L1541.1 470L1541.6 739.7L1542 630L1542.4 678.8L1542.9 643.7L1543.3 718.4L1543.8 643.7L1544.2 730.6L1544.7 732.1L1545.6 730.6L1546 716.8L1546.4 610.2L1546.9 692.5L1547.3 579.7L1547.8 683.3L1548.2 663.5L1548.7 651.3L1549.1 669.6L1549.6 634.6L1550 666.6L1550.4 619.3L1550.9 640.7L1551.3 649.8L1551.8 686.4L1552.2 666.6L1552.7 622.4L1553.1 672.7L1553.6 721.4L1554 633L1554.4 684.8L1554.9 689.4L1555.3 722.9L1555.8 695.5L1556.2 751.9L1556.7 750.4L1557.1 683.3L1557.6 674.2L1558 768.7L1558.4 127.1L1558.9 480.6L1559.3 649.8L1559.8 616.3L1560.2 611.7L1560.7 587.3L1561.1 674.2L1561.6 598L1562 619.3L1562.4 559.9L1562.9 648.3L1563.3 637.6L1563.8 582.7L1564.2 607.1L1564.7 608.7L1565.1 558.4L1565.6 651.3L1566 604.1L1566.4 561.4L1566.9 570.6L1567.3 521.8L1567.8 614.7L1568.2 598L1568.7 601L1569.1 695.5L1569.6 494.4L1570 608.7L1570.4 596.5L1570.9 663.5L1571.3 620.8L1571.8 663.5L1572.2 556.8L1572.7 651.3L1573.1 585.8L1573.6 657.4L1574 610.2L1574.4 645.2L1574.9 498.9L1575.3 642.2L1575.8 567.5L1576.2 587.3L1576.7 532.5L1577.1 643.7L1577.6 579.7L1578 631.5L1578.4 625.4L1578.9 680.3L1579.3 367.9L1579.8 626.9L1580.2 607.1L1580.7 646.7L1581.1 570.6L1581.6 651.3L1582 561.4L1582.4 596.5L1582.9 575.1L1583.3 663.5L1583.8 643.7L1584.2 567.5L1584.7 514.2L1585.1 657.4L1585.6 631.5L1586 649.8L1586.4 642.2L1586.9 677.2L1587.3 526.4L1587.8 602.6L1588.2 561.4L1588.7 657.4L1589.1 549.2L1589.6 602.6L1590 491.3L1590.4 655.9L1590.9 514.2L1591.3 578.2L1591.8 614.7L1592.2 672.7L1592.7 553.8L1593.1 631.5L1593.6 479.1L1594 663.5L1594.4 564.5L1594.9 662L1595.3 590.4L1595.8 678.8L1596.2 614.7L1596.7 722.9L1597.1 562.9L1597.6 610.2L1598 526.4L1598.4 671.1L1598.9 623.9L1599.3 626.9L1599.8 486.7L1600.2 668.1L1600.7 456.3L1601.1 715.3L1601.6 581.2L1602 584.3L1602.4 494.4L1602.9 620.8L1603.3 500.5L1603.8 654.4L1604.2 596.5L1604.7 680.3L1605.1 634.6L1605.6 570.6L1606 613.2L1606.4 713.8L1606.9 546.2L1607.3 518.7L1607.8 544.6L1608.2 683.3L1608.7 546.2L1609.1 639.1L1609.6 503.5L1610 668.1L1610.4 540.1L1610.9 512.6L1611.3 598L1611.8 591.9L1612.2 547.7L1612.7 506.5L1613.1 594.9L1613.6 648.3L1614 495.9L1614.4 588.8L1614.9 602.6L1615.3 663.5L1615.8 585.8L1616.2 662L1616.7 610.2L1617.1 591.9L1617.6 672.7L1618 649.8L1618.4 608.7L1618.9 645.2L1619.3 625.4L1619.8 645.2L1620.2 640.7L1620.7 610.2L1621.1 444.1L1621.6 658.9L1622 607.1L1622.4 663.5L1622.9 576.6L1623.3 665L1623.8 616.3L1624.2 713.8L1624.7 514.2L1625.1 620.8L1625.6 665L1626 730.6L1626.4 665L1626.9 633L1627.3 660.5L1627.8 727.5L1628.2 678.8L1628.7 697L1629.1 687.9L1629.6 672.7L1630 646.7L1630.4 697L1630.9 663.5L1631.3 709.2L1631.8 562.9L1632.2 735.1L1632.7 514.2L1633.1 441L1633.6 663.5L1634 726L1634.4 552.3L1634.9 623.9L1635.3 524.8L1635.8 636.1L1636.2 506.5L1636.7 657.4L1637.1 692.5L1637.6 677.2L1638 680.3L1638.4 703.1L1638.9 482.2L1639.3 660.5L1639.8 338.9L1640.2 631.5L1640.7 495.9L1641.1 454.7L1641.6 511.1L1642 457.8L1642.4 549.2L1642.9 418.2L1643.3 636.1L1643.8 319.1L1644.2 438L1644.7 543.1L1645.1 483.7L1645.6 482.2L1646 559.9L1646.4 683.3L1646.9 701.6L1647.3 681.8L1647.8 715.3L1648.2 657.4L1648.7 713.8L1649.1 683.3L1649.6 729L1650 695.5L1650.4 662L1650.9 756.5L1651.3 700.1L1651.8 738.2L1652.2 704.7L1652.7 756.5L1653.1 675.7L1653.6 732.1L1654 681.8L1654.4 669.6L1654.9 480.6L1655.3 540.1L1655.8 549.2L1656.2 561.4L1656.7 663.5L1657.1 735.1L1657.6 640.7L1658 623.9L1658.4 722.9L1658.9 657.4L1659.3 689.4L1659.8 738.2L1660.2 727.5L1660.7 724.5L1661.1 710.8L1661.6 640.7L1662 712.3L1662.4 640.7L1662.9 645.2L1663.3 674.2L1663.8 648.3L1664.2 669.6L1664.7 663.5L1665.1 552.3L1665.6 588.8L1666 706.2L1666.4 690.9L1666.9 698.6L1667.3 675.7L1667.8 634.6L1668.2 663.5L1668.7 687.9L1669.1 623.9L1669.6 735.1L1670 671.1L1670.4 753.4L1670.9 703.1L1671.3 753.4L1671.8 738.2L1672.2 692.5L1672.7 668.1L1673.1 739.7L1673.6 189.6L1674 523.3L1674.4 669.6L1674.9 605.6L1675.3 534L1675.8 543.1L1676.2 651.3L1676.7 591.9L1677.1 648.3L1677.6 608.7L1678 626.9L1678.4 596.5L1678.9 636.1L1679.3 602.6L1679.8 584.3L1680.2 605.6L1680.7 630L1681.1 578.2L1681.6 608.7L1682 506.5L1682.4 645.2L1682.9 630L1683.3 645.2L1683.8 642.2L1684.2 680.3L1684.7 428.8L1685.1 625.4L1686 631.5L1686.4 605.6L1686.9 651.3L1687.3 607.1L1687.8 651.3L1688.2 521.8L1688.7 631.5L1689.1 588.8L1689.6 636.1L1690 544.6L1690.4 658.9L1690.9 555.3L1691.3 567.5L1691.8 498.9L1692.2 663.5L1692.7 505L1693.1 607.1L1693.6 587.3L1694 645.2L1694.4 555.3L1694.9 674.2L1695.3 585.8L1695.8 637.6L1696.2 576.6L1696.7 617.8L1697.1 593.4L1697.6 663.5L1698 623.9L1698.4 628.5L1698.9 607.1L1699.3 596.5L1699.8 616.3L1700.2 628.5L1700.7 524.8L1701.1 681.8L1701.6 605.6L1702 703.1L1702.4 544.6L1702.9 657.4L1703.3 646.7L1703.8 692.5L1704.2 556.8L1704.7 663.5L1705.1 569L1705.6 677.2L1706 485.2L1706.4 617.8L1706.9 569L1707.3 687.9L1707.8 575.1L1708.2 651.3L1708.7 570.6L1709.1 663.5L1709.6 599.5L1710 678.8L1710.4 616.3L1710.9 634.6L1711.3 671.1L1711.8 698.6L1712.2 509.6L1712.7 593.4L1713.1 530.9L1713.6 654.4L1714 622.4L1714.4 671.1L1714.9 633L1715.3 538.6L1715.8 628.5L1716.2 695.5L1716.7 607.1L1717.1 544.6L1717.6 466.9L1718 626.9L1718.4 663.5L1718.9 636.1L1719.3 550.7L1719.8 584.3L1720.2 655.9L1720.7 658.9L1721.1 598L1721.6 692.5L1722 561.4L1722.4 497.4L1722.9 652.8L1723.8 535.5L1724.2 462.4L1724.7 456.3L1725.1 512.6L1725.6 444.1L1726 489.8L1726.4 552.3L1726.9 608.7L1727.3 559.9L1727.8 587.3L1728.2 649.8L1728.7 634.6L1729.1 552.3L1729.6 657.4L1730 643.7L1730.4 652.8L1730.9 587.3L1731.3 655.9L1731.8 630L1732.2 537L1732.7 555.3L1733.1 578.2L1733.6 581.2L1734 634.6L1734.4 643.7L1734.9 620.8L1735.3 639.1L1735.8 662L1736.2 564.5L1736.7 669.6L1737.1 497.4L1737.6 700.1L1738 602.6L1738.4 703.1L1738.9 687.9L1739.3 703.1L1739.8 649.8L1740.2 598L1740.7 672.7L1741.1 736.7L1741.6 712.3L1742 657.4L1742.4 602.6L1742.9 663.5L1743.3 645.2L1743.8 735.1L1744.2 712.3L1744.7 715.3L1745.1 594.9L1745.6 683.3L1746 643.7L1746.4 709.2L1746.9 687.9L1747.3 605.6L1747.8 601L1748.2 684.8L1748.7 649.8L1749.1 703.1L1749.6 489.8L1750 648.3L1750.4 637.6L1750.9 636.1L1751.3 558.4L1751.8 695.5L1752.2 689.4L1752.7 662L1753.1 503.5L1753.6 718.4L1754 555.3L1754.4 534L1754.9 436.4L1755.3 537L1755.8 591.9L1756.2 500.5L1756.7 553.8L1757.1 546.2L1757.6 581.2L1758 482.2L1758.4 474.5L1758.9 427.3L1759.3 377L1759.8 460.8L1760.2 457.8L1760.7 579.7L1761.1 594.9L1761.6 532.5L1762 715.3L1762.4 573.6L1762.9 594.9L1763.3 633L1763.8 724.5L1764.2 678.8L1764.7 677.2L1765.1 690.9L1765.6 707.7L1766 756.5L1766.4 721.4L1766.9 742.8L1767.3 733.6L1767.8 687.9L1768.2 634.6L1768.7 753.4L1769.1 639.1L1769.6 663.5L1770 729L1770.4 683.3L1770.9 562.9L1771.3 643.7L1771.8 692.5L1772.2 709.2L1772.7 655.9L1773.1 660.5L1773.6 695.5L1774 671.1L1774.4 709.2L1774.9 718.4L1775.3 729L1775.8 718.4L1776.2 747.3L1776.7 630L1777.1 721.4L1777.6 626.9L1778.4 605.6L1778.9 704.7L1779.3 639.1L1779.8 648.3L1780.2 628.5L1780.7 672.7L1781.1 587.3L1781.6 466.9L1782 686.4L1782.4 722.9L1782.9 636.1L1783.3 689.4L1783.8 694L1784.2 727.5L1784.7 658.9L1785.1 713.8L1785.6 738.2L1786 735.1L1786.4 748.9L1786.9 747.3L1787.3 724.5L1787.8 625.4L1788.2 721.4L1788.7 739.7L1789.1 214L1789.6 500.5L1790 671.1L1790.4 457.8L1790.9 594.9L1791.3 593.4L1791.8 626.9L1792.2 591.9L1792.7 626.9L1793.1 468.4L1793.6 671.1L1794 594.9L1794.4 625.4L1794.9 599.5L1795.3 651.3L1795.8 628.5L1796.2 649.8L1796.7 628.5L1797.1 564.5L1797.6 608.7L1798 686.4L1798.4 473L1798.9 628.5L1799.3 591.9L1799.8 620.8" fill="transparent" stroke="#3fb1e3" stroke-width="3" stroke-linejoin="bevel" class="zr3-cls-11"></path>
</g>
<path d="M-286.6 -5l573.2 0l0 28l-573.2 0Z" transform="translate(1000 5)" fill="rgb(0,0,0)" fill-opacity="0" stroke="#ccc" stroke-width="0" class="zr3-cls-9"></path>
<text dominant-baseline="central" text-anchor="middle" style="font-size:18px;font-family:sans-serif;font-weight:bold;" xml:space="preserve" y="9" transform="translate(1000 5)" fill="#666666">Min transportLinesUpdate per Tick for benchmark_biolab_uncontrolled</text>
<defs >
<clipPath id="zr3-c0">
<path d="M198 58.5l16004 0l0 8703l-16004 0Z" fill="#000" class="zr3-cls-10"></path>
</clipPath>
</defs>
<style ><![CDATA[
.zr3-cls-9:hover {
pointer-events:none;
}
.zr3-cls-10:hover {
cursor:pointer;
fill:rgba(0,0,0,1);
}
.zr3-cls-11:hover {
cursor:pointer;
}

]]>

</style>
</svg>