<svg width="2000" height="1000" xmlns="http://www.w3.org/2000/svg" xmlns:xlink="http://www.w3.org/1999/xlink" version="1.1" baseProfile="full" viewBox="0 0 2000 1000">
<rect width="2000" height="1000" x="0" y="0" fill="rgb(252,252,252)" fill-opacity="0"></rect>
<path d="M200 930.5L1800 930.5" fill="transparent" stroke="#eeeeee" class="zr17-cls-51"></path>
<path d="M200 794.5L1800 794.5" fill="transparent" stroke="#eeeeee" class="zr17-cls-51"></path>
<path d="M200 613.5L1800 613.5" fill="transparent" stroke="#eeeeee" class="zr17-cls-51"></path>
<path d="M200 432.5L1800 432.5" fill="transparent" stroke="#eeeeee" class="zr17-cls-51"></path>
<path d="M200 250.5L1800 250.5" fill="transparent" stroke="#eeeeee" class="zr17-cls-51"></path>
<path d="M200 69.5L1800 69.5" fill="transparent" stroke="#eeeeee" class="zr17-cls-51"></path>
<path d="M200 60.5L1800 60.5" fill="transparent" stroke="#eeeeee" class="zr17-cls-51"></path>
<path d="M200.5 930L200.5 60" fill="transparent" stroke="#cccccc" stroke-linecap="round" class="zr17-cls-51"></path>
<text dominant-baseline="central" text-anchor="middle" style="font-size:12px;font-family:sans-serif;" xml:space="preserve" y="-6" transform="translate(200 45)" fill="#cccccc">Min wholeUpdate Time (ms)</text>
<path d="M200 930.5L1800 930.5" fill="transparent" stroke="#cccccc" stroke-linecap="round" class="zr17-cls-51"></path>
<text dominant-baseline="central" text-anchor="end" style="font-size:12px;font-family:sans-serif;" transform="translate(192 930)" fill="#999999">0.125</text>
<text dominant-baseline="central" text-anchor="end" style="font-size:12px;font-family:sans-serif;" transform="translate(192 794.6056)" fill="#999999">0.200</text>
<text dominant-baseline="central" text-anchor="end" style="font-size:12px;font-family:sans-serif;" transform="translate(192 613.2729)" fill="#999999">0.300</text>
<text dominant-baseline="central" text-anchor="end" style="font-size:12px;font-family:sans-serif;" transform="translate(192 431.9401)" fill="#999999">0.400</text>
<text dominant-baseline="central" text-anchor="end" style="font-size:12px;font-family:sans-serif;" transform="translate(192 250.6074)" fill="#999999">0.500</text>
<text dominant-baseline="central" text-anchor="end" style="font-size:12px;font-family:sans-serif;" transform="translate(192 69.2746)" fill="#999999">0.600</text>
<text dominant-baseline="central" text-anchor="middle" style="font-size:12px;font-family:sans-serif;" y="6" transform="translate(200.2222 938)" fill="#999999">0</text>
<text dominant-baseline="central" text-anchor="middle" style="font-size:12px;font-family:sans-serif;" y="6" transform="translate(235.3333 938)" fill="#999999">79</text>
<text dominant-baseline="central" text-anchor="middle" style="font-size:12px;font-family:sans-serif;" y="6" transform="translate(270.4444 938)" fill="#999999">158</text>
<text dominant-baseline="central" text-anchor="middle" style="font-size:12px;font-family:sans-serif;" y="6" transform="translate(305.5556 938)" fill="#999999">237</text>
<text dominant-baseline="central" text-anchor="middle" style="font-size:12px;font-family:sans-serif;" y="6" transform="translate(340.6667 938)" fill="#999999">316</text>
<text dominant-baseline="central" text-anchor="middle" style="font-size:12px;font-family:sans-serif;" y="6" transform="translate(375.7778 938)" fill="#999999">395</text>
<text dominant-baseline="central" text-anchor="middle" style="font-size:12px;font-family:sans-serif;" y="6" transform="translate(410.8889 938)" fill="#999999">474</text>
<text dominant-baseline="central" text-anchor="middle" style="font-size:12px;font-family:sans-serif;" y="6" transform="translate(446 938)" fill="#999999">553</text>
<text dominant-baseline="central" text-anchor="middle" style="font-size:12px;font-family:sans-serif;" y="6" transform="translate(481.1111 938)" fill="#999999">632</text>
<text dominant-baseline="central" text-anchor="middle" style="font-size:12px;font-family:sans-serif;" y="6" transform="translate(516.2222 938)" fill="#999999">711</text>
<text dominant-baseline="central" text-anchor="middle" style="font-size:12px;font-family:sans-serif;" y="6" transform="translate(551.3333 938)" fill="#999999">790</text>
<text dominant-baseline="central" text-anchor="middle" style="font-size:12px;font-family:sans-serif;" y="6" transform="translate(586.4444 938)" fill="#999999">869</text>
<text dominant-baseline="central" text-anchor="middle" style="font-size:12px;font-family:sans-serif;" y="6" transform="translate(621.5556 938)" fill="#999999">948</text>
<text dominant-baseline="central" text-anchor="middle" style="font-size:12px;font-family:sans-serif;" y="6" transform="translate(656.6667 938)" fill="#999999">1027</text>
<text dominant-baseline="central" text-anchor="middle" style="font-size:12px;font-family:sans-serif;" y="6" transform="translate(691.7778 938)" fill="#999999">1106</text>
<text dominant-baseline="central" text-anchor="middle" style="font-size:12px;font-family:sans-serif;" y="6" transform="translate(726.8889 938)" fill="#999999">1185</text>
<text dominant-baseline="central" text-anchor="middle" style="font-size:12px;font-family:sans-serif;" y="6" transform="translate(762 938)" fill="#999999">1264</text>
<text dominant-baseline="central" text-anchor="middle" style="font-size:12px;font-family:sans-serif;" y="6" transform="translate(797.1111 938)" fill="#999999">1343</text>
<text dominant-baseline="central" text-anchor="middle" style="font-size:12px;font-family:sans-serif;" y="6" transform="translate(832.2222 938)" fill="#999999">1422</text>
<text dominant-baseline="central" text-anchor="middle" style="font-size:12px;font-family:sans-serif;" y="6" transform="translate(867.3333 938)" fill="#999999">1501</text>
<text dominant-baseline="central" text-anchor="middle" style="font-size:12px;font-family:sans-serif;" y="6" transform="translate(902.4444 938)" fill="#999999">1580</text>
<text dominant-baseline="central" text-anchor="middle" style="font-size:12px;font-family:sans-serif;" y="6" transform="translate(937.5556 938)" fill="#999999">1659</text>
<text dominant-baseline="central" text-anchor="middle" style="font-size:12px;font-family:sans-serif;" y="6" transform="translate(972.6667 938)" fill="#999999">1738</text>
<text dominant-baseline="central" text-anchor="middle" style="font-size:12px;font-family:sans-serif;" y="6" transform="translate(1007.7778 938)" fill="#999999">1817</text>
<text dominant-baseline="central" text-anchor="middle" style="font-size:12px;font-family:sans-serif;" y="6" transform="translate(1042.8889 938)" fill="#999999">1896</text>
<text dominant-baseline="central" text-anchor="middle" style="font-size:12px;font-family:sans-serif;" y="6" transform="translate(1078 938)" fill="#999999">1975</text>
<text dominant-baseline="central" text-anchor="middle" style="font-size:12px;font-family:sans-serif;" y="6" transform="translate(1113.1111 938)" fill="#999999">2054</text>
<text dominant-baseline="central" text-anchor="middle" style="font-size:12px;font-family:sans-serif;" y="6" transform="translate(1148.2222 938)" fill="#999999">2133</text>
<text dominant-baseline="central" text-anchor="middle" style="font-size:12px;font-family:sans-serif;" y="6" transform="translate(1183.3333 938)" fill="#999999">2212</text>
<text dominant-baseline="central" text-anchor="middle" style="font-size:12px;font-family:sans-serif;" y="6" transform="translate(1218.4444 938)" fill="#999999">2291</text>
<text dominant-baseline="central" text-anchor="middle" style="font-size:12px;font-family:sans-serif;" y="6" transform="translate(1253.5556 938)" fill="#999999">2370</text>
<text dominant-baseline="central" text-anchor="middle" style="font-size:12px;font-family:sans-serif;" y="6" transform="translate(1288.6667 938)" fill="#999999">2449</text>
<text dominant-baseline="central" text-anchor="middle" style="font-size:12px;font-family:sans-serif;" y="6" transform="translate(1323.7778 938)" fill="#999999">2528</text>
<text dominant-baseline="central" text-anchor="middle" style="font-size:12px;font-family:sans-serif;" y="6" transform="translate(1358.8889 938)" fill="#999999">2607</text>
<text dominant-baseline="central" text-anchor="middle" style="font-size:12px;font-family:sans-serif;" y="6" transform="translate(1394 938)" fill="#999999">2686</text>
<text dominant-baseline="central" text-anchor="middle" style="font-size:12px;font-family:sans-serif;" y="6" transform="translate(1429.1111 938)" fill="#999999">2765</text>
<text dominant-baseline="central" text-anchor="middle" style="font-size:12px;font-family:sans-serif;" y="6" transform="translate(1464.2222 938)" fill="#999999">2844</text>
<text dominant-baseline="central" text-anchor="middle" style="font-size:12px;font-family:sans-serif;" y="6" transform="translate(1499.3333 938)" fill="#999999">2923</text>
<text dominant-baseline="central" text-anchor="middle" style="font-size:12px;font-family:sans-serif;" y="6" transform="translate(1534.4444 938)" fill="#999999">3002</text>
<text dominant-baseline="central" text-anchor="middle" style="font-size:12px;font-family:sans-serif;" y="6" transform="translate(1569.5556 938)" fill="#999999">3081</text>
<text dominant-baseline="central" text-anchor="middle" style="font-size:12px;font-family:sans-serif;" y="6" transform="translate(1604.6667 938)" fill="#999999">3160</text>
<text dominant-baseline="central" text-anchor="middle" style="font-size:12px;font-family:sans-serif;" y="6" transform="translate(1639.7778 938)" fill="#999999">3239</text>
<text dominant-baseline="central" text-anchor="middle" style="font-size:12px;font-family:sans-serif;" y="6" transform="translate(1674.8889 938)" fill="#999999">3318</text>
<text dominant-baseline="central" text-anchor="middle" style="font-size:12px;font-family:sans-serif;" y="6" transform="translate(1710 938)" fill="#999999">3397</text>
<text dominant-baseline="central" text-anchor="middle" style="font-size:12px;font-family:sans-serif;" y="6" transform="translate(1745.1111 938)" fill="#999999">3476</text>
<text dominant-baseline="central" text-anchor="middle" style="font-size:12px;font-family:sans-serif;" y="6" transform="translate(1780.2222 938)" fill="#999999">3555</text>
<g clip-path="url(#zr17-c0)">
<path d="M200.2 -203.8L200.7 475.1L201.1 563.6L201.6 664.6L202 752.4L202.4 624.9L202.9 699.4L203.3 668.6L203.8 643.9L204.2 677.8L204.7 747.8L205.1 720.6L205.6 706.7L206 720.6L206.4 747.5L206.9 761.6L207.3 692.7L207.8 681.3L208.2 582.4L208.7 610.2L209.1 720.3L209.6 755.3L210 738.4L210.4 733.3L210.9 651.4L211.3 703.6L211.8 753.4L212.2 727.7L212.7 703.9L213.1 715.5L213.6 729.9L214 680.2L214.9 663.7L215.3 608.2L215.8 682.5L216.2 737.5L216.7 643.4L217.1 782.6L217.6 713.9L218 658.8L218.4 712.5L218.9 813.5L219.3 751.6L219.8 743.5L220.7 787.7L221.1 675.8L221.6 672.2L222 725.2L222.4 599.3L222.9 654.1L223.3 787.2L223.8 719.4L224.2 784.3L224.7 722.6L225.1 580.8L225.6 698.9L226 754.9L226.4 707.9L226.9 640.8L227.3 680.7L227.8 786.8L228.2 754.3L228.7 730.1L229.1 755.6L229.6 582.6L230.4 739.1L230.9 708.5L231.3 756L231.8 700.9L232.2 575L232.7 167L233.1 -1170.3L233.6 -474.9L234 -238.8L234.9 229.9L235.3 334.7L235.8 538.6L236.2 296.5L236.7 130.4L237.1 281.3L237.6 456.6L238 636.1L238.4 711.2L238.9 677.3L239.3 624.7L239.8 659L240.2 675.7L240.7 697.8L241.1 776.8L241.6 661.3L242 762.7L242.4 672.8L242.9 700.1L243.3 770.9L243.8 290.5L244.2 564.5L244.7 665.3L245.1 740.7L245.6 762.5L246 695.1L246.4 681.1L246.9 687.3L247.3 711.9L247.8 723L248.7 708.3L249.1 703L249.6 726.1L250 651L250.4 754L250.9 700.3L251.3 592.2L251.8 677.3L252.2 723.9L252.7 715.4L253.1 736.9L253.6 653.5L254 658.4L254.4 670L254.9 724.6L255.3 721.3L255.8 753.4L256.2 757.3L256.7 681.3L257.1 694.3L257.6 730.1L258 704.7L258.4 585L258.9 685.4L259.3 700.5L259.8 770.3L260.2 714.6L260.7 689.8L261.1 654.4L261.6 678.2L262 538L262.4 726.4L262.9 725.2L263.3 677.8L263.8 722.6L264.2 600.4L264.7 718.3L265.1 769.2L265.6 671.3L266 592.2L266.4 680.5L266.9 749.1L267.3 777.6L267.8 718.1L268.2 700.9L268.7 719L269.1 701.4L269.6 755.3L270 762.3L270.4 726.4L270.9 700.7L271.3 665.7L271.8 748.9L272.2 703.8L272.7 647.9L273.1 541.5L273.6 687.1L274 805.3L274.4 704.1L274.9 676.9L275.3 717.4L275.8 721.9L276.2 728.6L276.7 737.3L277.6 740.9L278.4 647.4L278.9 705.9L279.3 729.1L279.8 683.8L280.2 611.1L280.7 644.3L281.1 711L281.6 754.2L282 717L282.4 789.3L282.9 633.4L283.3 691.4L283.8 750.5L284.2 688.3L284.7 748.2L285.1 692.5L285.6 656.2L286 725L286.4 675.5L286.9 744.2L287.3 535.5L287.8 693.6L288.2 767.4L288.7 706.7L289.1 663.1L289.6 754L290 698.7L290.4 693.1L290.9 707.2L291.3 775.9L291.8 777L292.2 744L292.7 704.5L293.1 516.1L293.6 -171.7L294 94.1L294.4 -10.1L294.9 141.4L295.3 493.8L295.8 513.9L296.2 538.6L296.7 494.5L297.1 39.2L297.6 148.9L298 265.7L298.4 279.1L298.9 449.3L299.3 606.2L299.8 496.1L300.2 617.3L300.7 667.7L301.1 687.4L301.6 527.3L302 416L302.4 601.5L302.9 718.4L303.3 676.7L303.8 708.7L304.2 674.6L304.7 695.4L305.1 713L305.6 717.9L306 752.9L306.4 745.8L306.9 704.1L307.3 746.2L307.8 771.9L308.2 761.8L308.7 696.9L309.1 604.4L309.6 707.2L310 733.9L310.4 707.4L310.9 750.7L311.3 721.3L311.8 756.9L312.2 693.4L312.7 706.8L313.1 772.3L313.6 742.9L314 664L314.4 734.2L314.9 727.7L315.3 761.2L315.8 675.7L316.2 596.2L316.7 734.2L317.1 703.8L317.6 681.8L318 750L318.4 747.1L318.9 700.3L319.3 662.2L319.8 741.8L320.2 766.7L320.7 692.7L321.1 680.9L321.6 759.6L322 771.6L322.4 779.2L322.9 686L323.3 590.6L323.8 671.7L324.2 779.7L324.7 719.9L325.1 750L325.6 731.3L326 652.6L326.4 696.5L326.9 744.2L327.3 756.2L327.8 726.6L328.2 637.9L328.7 699.9L329.1 730.4L329.6 786.6L330 706.8L330.4 612.4L330.9 721.7L331.3 736.6L331.8 654.6L332.2 797.3L332.7 757.1L333.1 686.5L333.6 677.1L334 775L334.4 772.7L334.9 752.4L335.3 652.8L335.8 781.2L336.2 605.7L336.7 743.3L337.1 764.7L337.6 703.8L338 593.3L338.4 727.3L338.9 708.7L339.3 723.3L339.8 752.9L340.2 715.5L340.7 699.8L341.1 754L341.6 737.8L342 784.1L342.4 691.6L342.9 745.3L343.3 724.8L343.8 759.8L344.2 723.7L344.7 668.4L345.1 578.1L345.6 696.5L346 712.6L346.4 767L346.9 764L347.3 736.8L347.8 571L348.2 -629.9L348.7 -571.4L349.1 -262.4L349.6 -206.9L350 213.8L350.4 229.2L350.9 580.5L351.3 465.1L351.8 227.6L352.2 245.2L352.7 519.5L353.1 611.8L353.6 621.4L354 699.8L354.4 697.6L354.9 740.6L355.3 656.4L355.8 798.4L356.2 751.6L356.7 695.2L357.1 727.5L357.6 715.2L358 746.9L358.4 713.7L358.9 632.7L359.3 564L359.8 655.9L360.2 659.5L360.7 739.5L361.1 754.9L361.6 723.2L362 688.3L362.4 672L362.9 729.3L363.3 735.5L363.8 672.4L364.2 753.6L364.7 707.9L365.1 688.9L365.6 753.6L366 665.1L366.4 581.2L366.9 710.3L367.8 683.6L368.2 689.3L368.7 656.2L369.1 692.9L369.6 676.4L370 766.5L370.4 759.6L370.9 709.2L371.3 739.1L371.8 731.9L372.2 740L372.7 738.8L373.1 723.5L373.6 664.8L374 574.8L374.4 637.6L374.9 748.4L375.3 774.7L375.8 726.4L376.2 673.7L376.7 636.5L377.1 748.7L377.6 742.2L378 689.8L378.4 749.5L378.9 758.9L379.3 711L379.8 766.9L380.2 745.6L380.7 688.9L381.1 539.1L381.6 654.3L382 715.2L382.4 734.9L382.9 738.6L383.3 698.3L383.8 682.5L384.2 702.7L384.7 685.4L385.1 713.5L385.6 734L386 738L386.4 710.3L386.9 750.5L387.3 730.6L387.8 705.4L388.2 559.1L388.7 645.2L389.1 754.5L389.6 671.3L390 703.6L390.4 649.4L390.9 622L391.3 670L391.8 695.6L392.2 671.8L392.7 748.2L393.1 763.6L393.6 732.8L394 768.3L394.4 752.9L394.9 698L395.3 558.7L395.8 612.9L396.2 745.1L396.7 708.5L397.1 715.7L397.6 738.2L398 669.1L398.4 715.5L398.9 756.9L399.3 701.4L399.8 729.9L400.2 738L400.7 748.5L401.1 742.6L401.6 771.8L402 694.1L402.4 562.3L402.9 655.7L403.3 765.6L403.8 608.2L404.2 787L404.7 769.4L405.1 689.3L405.6 668L406 689.3L406.4 641.9L406.9 736.8L407.3 737.5L407.8 703.9L408.2 548.7L408.7 -68.4L409.1 108.6L409.6 99.6L410 -26.3L410.4 489.8L410.9 569.6L411.3 622.7L411.8 488.5L412.2 253.5L412.7 74.2L413.1 262.2L413.6 263.1L414 373.6L414.4 562.5L414.9 490.9L415.3 651.4L415.8 667.9L416.2 672.4L416.7 431.8L417.1 375.4L417.6 656.1L418 754.5L418.4 717.4L418.9 767.9L419.3 665.5L419.8 757.1L420.2 686L420.7 729.9L421.1 779.4L421.6 759.4L422 731.3L422.9 729.5L423.3 745.3L423.8 683.3L424.2 466.8L424.7 668L425.1 740L425.6 755.8L426 731.9L426.4 720.6L426.9 698.3L427.3 709.6L427.8 731.3L428.2 744.6L428.7 779.9L429.1 722.4L429.6 730.1L430 757.1L430.9 663.3L431.3 553.8L431.8 692.9L432.2 781.2L432.7 727.5L433.1 757.4L433.6 687.6L434 713.9L434.4 683.4L434.9 688.2L435.3 745.1L435.8 769.6L436.2 752L436.7 758.5L437.1 748.4L437.6 771.2L438 666.2L438.4 483.1L438.9 691.4L439.3 756.5L439.8 729.7L440.7 711.6L441.1 693.2L441.6 711.9L442 704.1L442.4 736.8L442.9 698L443.3 736.9L443.8 747.5L444.7 760.2L445.1 734.2L445.6 616.5L446 578.8L446.4 761.1L446.9 749.3L447.3 809.5L447.8 739.3L448.2 708.1L448.7 653.9L449.1 750.4L449.6 764.3L450 771.8L450.4 727.9L450.9 735.7L451.3 664L451.8 697L452.2 743.8L452.7 616.5L453.1 579.5L453.6 730.4L454 707.9L454.4 769.9L454.9 725.3L455.3 736.2L455.8 713.4L456.2 601.5L456.7 720.4L457.1 588.6L457.6 716.5L458 801L458.4 742.9L458.9 789.3L459.3 781.7L459.8 696L460.2 552.9L460.7 685.4L461.1 760L461.6 771L462 751.4L462.4 752.7L462.9 447.2L463.3 -625.8L463.8 -422L464.2 -260.9L464.7 -181.7L465.1 227.9L465.6 393.5L466 616.2L466.4 387.9L466.9 206.7L467.3 253.5L467.8 544.7L468.2 633.4L468.7 676.6L469.1 703.2L469.6 758.3L470 635.8L470.4 596L470.9 665L471.3 700.1L471.8 703.9L472.2 686.2L472.7 698.3L473.1 738.4L473.6 766.7L474 631.8L474.4 568.3L474.9 681.6L475.3 732L475.8 776.8L476.2 762L476.7 753.1L477.1 632.7L477.6 614.7L478 758.9L478.4 720.3L478.9 753.6L479.3 751.4L479.8 710.6L480.2 737.7L480.7 703.4L481.1 712.1L481.6 685.4L482 595.7L482.4 705.2L482.9 760.2L483.3 752.2L483.8 728.8L484.2 681.1L484.7 631.6L485.1 735.3L485.6 704.1L486 726.2L486.4 685.4L486.9 754L487.3 743.1L487.8 749.5L488.2 667.7L488.7 596.6L489.1 538.7L489.6 734.9L490 723.2L490.4 754.2L490.9 750.7L491.3 705.9L491.8 681.6L492.2 723.3L492.7 752L493.1 727.9L493.6 729.9L494 751.8L494.4 731.9L494.9 741.1L495.3 689.8L495.8 688.2L496.2 534.6L496.7 652.4L497.1 725.3L497.6 763.4L498 687.8L498.4 736.4L498.9 652.4L499.3 674.6L499.8 774.3L500.2 725.5L500.7 742.4L501.1 725.5L501.6 711.2L502 753.1L502.4 713.5L502.9 702.5L503.3 566.7L503.8 702.3L504.2 765.6L504.7 704.5L505.1 768.5L505.6 740.7L506 669.3L506.4 720.4L506.9 800.2L507.3 741.7L507.8 700.9L508.2 738L508.7 767.4L509.1 735.1L509.6 686.5L510 699.9L510.4 381.7L510.9 709.4L511.3 775L511.8 717.7L512.2 741.5L512.7 725.3L513.1 632.5L513.6 675.8L514 775.7L514.4 772.3L514.9 734L515.3 707.4L515.8 751.6L516.2 750.9L516.7 701.8L517.1 748.2L517.6 667.9L518 571.7L518.4 707L518.9 735.1L519.3 769.6L519.8 790.1L520.2 655.2L520.7 680.5L521.1 719.2L521.6 746.9L522 781.5L522.4 758.7L522.9 743.3L523.3 744.4L523.8 481.3L524.2 -67.6L524.7 -31.5L525.1 -50.8L525.6 115.5L526 474.4L526.4 560.7L526.9 682.7L527.3 367.9L527.8 348.7L528.2 154.3L528.7 337.6L529.1 459.3L529.6 420.3L530 589.9L530.4 521.5L530.9 592.1L531.3 719.2L531.8 616.7L532.2 477.3L532.7 513.4L533.1 712.1L533.6 726.2L534 717.5L534.4 681.6L534.9 706.7L535.3 699.4L535.8 781L536.2 748.5L536.7 730.8L537.1 733.7L537.6 731.7L538 694.3L538.4 760.5L538.9 708.8L539.3 597L539.8 676.9L540.2 739.5L540.7 710.3L541.1 754.5L541.6 649.7L542 714.1L542.4 717.5L542.9 776.7L543.3 735.9L543.8 733.1L544.2 759.1L544.7 699.6L545.1 638.7L545.6 771.9L546 689.8L546.4 543.6L546.9 631.4L547.3 755.8L547.8 732L548.2 744.6L548.7 681.8L549.1 719.2L549.6 647.4L550 741.1L550.4 692L550.9 735.5L551.3 733.1L551.8 763.8L552.2 673.1L552.7 727.7L553.1 754.3L553.6 681.5L554 529.7L554.4 707.4L554.9 758.3L555.3 764.1L555.8 703L556.2 680.2L556.7 727.3L557.1 705.9L557.6 748.2L558 741.1L558.4 719.2L558.9 729.3L559.3 679.8L559.8 740.9L560.2 702.9L560.7 682.5L561.1 562.9L561.6 721.2L562 731.3L562.4 781.4L562.9 648.6L563.3 735.9L563.8 525.7L564.2 713L564.7 735.5L565.6 739.8L566 731.7L566.4 643.7L566.9 778.3L567.3 809.3L567.8 728.2L568.2 614.9L568.7 630.5L569.1 745.8L569.6 764.9L570 701.9L570.4 738.4L570.9 714.6L571.3 701.8L571.8 716.1L572.2 720.3L572.7 710.6L573.1 755.4L573.6 683.4L574 770.1L574.4 756.5L574.9 717.9L575.3 562.1L575.8 731.3L576.2 796.4L576.7 778.5L577.1 673.7L577.6 744.9L578 512.6L578.4 -613.8L578.9 -299.6L579.3 -186.9L579.8 -174.1L580.2 168.3L580.7 305.2L581.1 536.2L581.6 421.4L582 276.7L582.4 293.8L582.9 508.3L583.3 663.9L583.8 623.8L584.2 649L584.7 688.7L585.1 685.1L585.6 664L586 758.5L586.4 687.3L586.9 742.9L587.3 681.3L587.8 676.7L588.2 687.8L588.7 757.6L589.1 716.1L589.6 691.4L590 540L590.4 719.9L590.9 733.1L591.3 709L591.8 719.2L592.2 622.3L592.7 630.9L593.1 779.9L593.6 724.2L594 787.7L594.4 711.4L594.9 730.2L595.3 715.5L595.8 779.2L596.2 748.4L596.7 688.2L597.1 538.7L597.6 708.5L598 747.6L598.4 702.1L598.9 710.1L599.8 699.8L600.2 654.8L600.7 684.9L601.1 761.2L601.6 734.6L602 727L602.4 724.2L602.9 721.3L603.3 750.4L603.8 713L604.2 562.9L604.7 716.3L605.1 746L605.6 692.3L606 711.6L606.4 767.2L606.9 678.6L607.3 670.8L607.8 712.6L608.2 786.3L608.7 714.1L609.1 707.4L610 816.9L610.4 739.7L610.9 713.2L611.3 522.2L611.8 718.8L612.2 727.3L612.7 711.9L613.1 720.4L613.6 741.1L614 673.3L614.4 731.3L614.9 704.1L615.3 762.1L615.8 713.7L616.2 676.9L616.7 755.8L617.1 642.8L617.6 764.3L618 739.5L618.4 538.6L618.9 705.6L619.3 740.4L619.8 712.5L620.2 723L620.7 746.9L621.1 674.7L621.6 677.1L622 730.1L622.4 733.9L622.9 711.7L623.3 690.7L623.8 710.6L624.2 741.1L624.7 703.6L625.1 702.3L625.6 564.5L626 694.1L626.4 745.6L626.9 703.9L627.3 736.6L627.8 790.3L628.2 658.8L628.7 714.6L629.1 680.4L629.6 761.1L630 713.9L630.4 707.9L630.9 683.6L631.3 713.9L631.8 712.8L632.2 778.6L632.7 622.5L633.1 594.6L633.6 652.8L634 707.6L634.4 714.6L634.9 760.9L635.3 662.6L635.8 730.2L636.2 680.7L636.7 786.4L637.1 701L637.6 662.6L638 719.5L638.4 728.2L638.9 604L639.3 73.3L639.8 67.5L640.2 98.3L640.7 94.3L641.1 540.2L641.6 563L642 609.8L642.4 492.3L642.9 304.6L643.3 124.8L643.8 376.8L644.2 452.2L644.7 388.4L645.1 613.8L645.6 536.8L646 656.4L646.4 677.3L646.9 606.2L647.3 450.8L647.8 503.6L648.2 637.2L648.7 708.8L649.1 765.4L649.6 665.1L650 684.4L650.4 699.4L650.9 777.4L651.3 743.5L651.8 705.4L652.2 769.8L652.7 749.5L653.6 748.7L654 688.9L654.4 614L654.9 639.6L655.3 709L655.8 754L656.2 717.2L657.1 678.2L657.6 683.4L658 771.9L658.4 727.1L658.9 686.3L659.3 762.7L659.8 760.9L660.2 740.2L660.7 782.1L661.1 668.4L661.6 593.1L662 666.4L662.4 694.9L662.9 794.4L663.3 810.4L663.8 737.8L664.2 688.2L664.7 655.7L665.1 768.9L665.6 765.8L666 720.1L666.4 762.1L666.9 767.4L667.3 732L667.8 758.7L668.2 726.1L668.7 730.6L669.1 578.6L669.6 668.2L670 747.8L670.4 610.4L670.9 747.6L671.3 692L671.8 692.9L672.2 740.6L672.7 709L673.1 754.7L673.6 724.2L674 773.9L674.4 726.8L674.9 779L675.3 753.3L675.8 693.1L676.2 569.9L676.7 662.4L677.1 737.1L677.6 756.9L678 741.5L678.4 748.7L678.9 667.9L679.3 706.3L679.8 729.9L680.2 746.7L680.7 729.3L681.1 771L681.6 707.6L682 755.8L682.4 732.8L682.9 705.8L683.3 603.1L683.8 650.3L684.2 734.8L684.7 785.2L685.1 695.6L685.6 780.5L686 677.8L686.4 694.1L686.9 755.1L687.3 708.3L687.8 725.9L688.2 771.2L688.7 735.9L689.1 738.9L689.6 723.7L690 725.3L690.4 553.1L690.9 678.4L691.3 793.2L691.8 813.5L692.2 755.6L692.7 745.1L693.1 408.7L693.6 -546.4L694 -368.5L694.4 -303L694.9 -115.5L695.3 246.1L695.8 283.1L696.2 469.7L696.7 332.6L697.1 299.2L697.6 244.8L698 439L698.4 693.8L698.9 661L699.3 683.4L699.8 649.9L700.2 694.1L700.7 685.1L701.1 676.6L701.6 655.5L702 736.8L702.4 739.3L702.9 745.5L703.3 712.3L703.8 746.2L704.2 722.3L704.7 597.5L705.1 505.6L705.6 701L706 750.9L706.4 747.6L706.9 692.3L707.3 670.2L707.8 668.2L708.2 752.7L708.7 687.8L709.1 771.9L709.6 645.7L710 731.7L710.4 685.1L710.9 707.4L711.3 738.2L711.8 674L712.2 521.7L712.7 687.3L713.1 728.4L713.6 810.7L714 776.3L714.4 759.6L714.9 710.6L715.3 657.5L715.8 675.5L716.2 806.8L716.7 753.3L717.1 762.9L717.6 673.1L718 716.1L718.4 758.9L718.9 668.6L719.3 467.8L719.8 681.6L720.2 743.7L720.7 735.3L721.1 720.8L721.6 747.8L722 687.4L722.4 722.6L722.9 703L723.3 797.3L723.8 543.5L724.2 764.3L724.7 770.3L725.1 729.1L725.6 732.6L726 698.7L726.4 477.8L726.9 723.9L727.3 741.1L727.8 723.9L728.2 765.6L728.7 703L729.1 713.5L729.6 725.2L730 693.4L730.4 794.1L730.9 737.5L731.3 719.5L731.8 721.7L732.2 728.6L732.7 736.8L733.1 659.9L733.6 490.1L734 677.5L734.4 735.9L734.9 722.3L735.3 744.9L736.2 646.8L736.7 693.1L737.1 669.8L737.6 750.5L738 770.9L738.4 719.2L738.9 755.6L739.3 746.2L739.8 716.6L740.2 725.3L740.7 589L741.1 598L741.6 674.6L742 699L742.4 715.2L742.9 735.7L743.3 632.5L743.8 682.2L744.2 694.9L744.7 739.8L745.1 715.7L745.6 775.7L746 725.9L746.4 738.6L746.9 743.8L747.3 767.4L747.8 586.6L748.2 590.1L748.7 709.4L749.1 794.6L749.6 716.5L750 654.1L750.4 668.4L750.9 716.3L751.3 606.9L751.8 746.7L752.2 716.1L752.7 752.4L753.1 754.7L753.6 749.8L754 583.9L754.4 39.7L754.9 -111.2L755.3 111.5L755.8 165L756.2 498.7L756.7 531.9L757.1 670.9L757.6 454.8L758 359.6L758.4 126.9L758.9 357.2L759.3 501.6L759.8 437.9L760.2 610.2L760.7 548.7L761.1 659.7L761.6 672.2L762 575.7L762.4 385.7L762.9 488.3L763.3 711.2L763.8 705.4L764.2 732.2L764.7 730.4L765.1 655.5L765.6 620.5L766 795.1L766.4 732.2L766.9 725.3L767.3 732.8L767.8 747.5L768.7 742.7L769.1 653.9L769.6 589L770 684.2L770.4 763.4L770.9 726.1L771.3 781.7L771.8 719.5L772.2 654.6L772.7 611.5L773.1 751.1L773.6 730.4L774 725.7L774.4 746L774.9 755.6L775.3 691.8L775.8 739.3L776.2 706.3L776.7 677.8L777.1 375.5L777.6 723.9L778 750.5L778.4 762.7L778.9 766.3L779.3 693.4L779.8 611.5L780.2 800.8L780.7 785.2L781.1 773.2L781.6 700.7L782 729.5L782.4 712.3L782.9 760.7L783.3 694.5L783.8 683.1L784.2 582.1L784.7 697.4L785.1 726.8L785.6 748.5L786 740L786.4 752.5L786.9 617.8L787.3 691.2L787.8 701.6L788.2 730.4L788.7 744.9L789.1 705.2L789.6 709.7L790 795.5L790.4 701.8L790.9 715L791.3 573.4L791.8 665.7L792.2 758.3L792.7 719L793.1 776.1L793.6 783.7L794 621.4L794.4 741.5L794.9 765.2L795.3 770.3L795.8 738.9L796.2 786.1L796.7 739.5L797.1 737.3L797.6 687.6L798 725.9L798.4 595.3L798.9 674.9L799.3 737.7L799.8 784.5L800.2 708.3L800.7 716.1L801.1 649.4L801.6 709.4L802 737.8L802.4 735.5L802.9 712.3L803.3 761.2L803.8 790.4L804.2 789.3L804.7 699L805.1 680.5L805.6 590.4L806 707L806.4 756.3L806.9 743.5L807.3 753.1L807.8 784.1L808.2 679.8L808.7 456.2L809.1 -421.6L809.6 -508.1L810 -233.6L810.4 -239.9L810.9 143.8L811.3 385L811.8 508.1L812.2 366.8L812.7 142.9L813.1 290.9L813.6 521.2L814 651.2L814.4 665.7L814.9 648.6L815.3 576.3L815.8 616L816.2 662.6L816.7 745.6L817.1 736.8L817.6 754.7L818 759.6L818.4 728.2L818.9 696L819.3 748.9L819.8 692L820.2 567.6L820.7 645.4L821.1 732.8L821.6 752.9L822 742L822.4 649L822.9 711.6L823.3 697.4L823.8 739.5L824.2 649.7L824.7 697.8L825.1 760.5L825.6 720.8L826 654.6L826.4 746L826.9 696.5L827.3 539.1L827.8 677.3L828.2 751.1L828.7 744.2L829.1 702.3L829.6 641L830 689.6L830.4 530.9L830.9 730.2L831.3 734.2L831.8 743.1L832.2 750.2L832.7 703L833.1 698.3L833.6 789L834 678.4L834.4 524.1L834.9 690.7L835.3 766.1L835.8 767.6L836.2 759.1L836.7 632.1L837.1 655L837.6 682.5L838 744.4L838.4 740L838.9 723.3L839.3 742.4L839.8 697L840.2 710.8L840.7 777.6L841.1 694L841.6 584.1L842 657.5L842.4 767.4L842.9 785.4L843.3 762.9L843.8 666.4L844.2 723.5L844.7 624L845.1 744.7L845.6 703.8L846 755.8L846.4 731.7L846.9 701.6L847.3 681.6L847.8 743.7L848.2 712.3L848.7 629.6L849.1 546.5L849.6 655.2L850 745.6L850.4 720.8L850.9 667.1L851.3 703.8L851.8 682.5L852.2 712.6L852.7 711L853.1 685.4L853.6 697.6L854 753.4L854.4 697L854.9 741.3L855.3 755.8L855.8 684.2L856.2 592.1L856.7 638.1L857.1 736.4L857.6 757.3L858 671.7L858.4 732.6L858.9 717.7L859.3 713.7L859.8 780.8L860.2 747.5L860.7 729.3L861.1 760.7L861.6 686.2L862 685.1L862.4 720.3L862.9 704.8L863.3 534.8L863.8 690.5L864.2 733.5L864.7 738.9L865.1 658.8L865.6 761.8L866 670.6L866.4 715.5L866.9 750.9L867.3 777.2L867.8 728.8L868.2 767.9L868.7 725.7L869.1 603.1L869.6 -11.2L870 21L870.4 66L870.9 172.3L871.3 451.2L871.8 574.6L872.2 517.5L872.7 471.5L873.1 294.7L873.6 151.8L874 284.5L874.4 421.4L874.9 451.5L875.3 633.4L875.8 464.6L876.2 686.7L876.7 677.3L877.1 628L877.6 435.7L878 525.9L878.4 705.6L878.9 736.4L879.3 672.6L879.8 772.1L880.2 617.3L880.7 660.6L881.1 720.3L881.6 740.6L882 702.5L882.4 760.2L882.9 653.9L883.3 758.5L883.8 618L884.2 755.8L884.7 651.2L885.1 576.5L885.6 700.5L886 748L886.4 654.8L886.9 758L887.3 710.1L887.8 696L888.2 744.7L888.7 706.3L889.1 769L889.6 705L890 696.9L890.4 751.3L890.9 758.5L891.3 767.2L891.8 702.9L892.2 616L892.7 690.5L893.1 761.4L893.6 655.5L894 686.5L894.4 711.7L894.9 659.3L895.3 614.4L895.8 721.2L896.2 661.1L896.7 691.8L897.6 717L898 735.7L898.4 758L898.9 618.5L899.3 581.5L899.8 705.4L900.2 760.7L900.7 680.4L901.1 780.5L901.6 729.5L902 728.8L902.4 721.3L902.9 715.9L903.3 789L903.8 741.7L904.2 667.5L904.7 776.7L905.1 768.3L905.6 796.2L906 743.5L906.4 560.5L906.9 683.4L907.3 786.8L907.8 713.7L908.2 766.7L908.7 757.8L909.1 701.9L909.6 680.2L910 713.9L910.4 737.1L910.9 714.3L911.3 666.2L911.8 769.2L912.2 729.7L912.7 763.8L913.1 680.4L913.6 616.9L914 681.8L914.4 781L914.9 713L915.3 791L915.8 737.5L916.2 730.4L916.7 681.1L917.1 754.2L917.6 761.4L918 780.5L918.4 697.6L918.9 783.9L919.3 716.3L919.8 752.7L920.2 696.7L920.7 649.7L921.1 548.2L921.6 730.4L922 691.8L922.4 769.2L922.9 668.2L923.3 717.9L923.8 484.5L924.2 -558L924.7 -336.2L925.1 -263.1L925.6 -294.7L926 204.2L926.4 288.5L926.9 541.5L927.3 352.5L927.8 300.5L928.2 257.9L928.7 456.4L929.1 572.3L929.6 653L930 728.6L930.4 700.9L930.9 705.2L931.3 653.2L931.8 750.2L932.2 729.5L932.7 653.3L933.1 722.1L933.6 701.9L934 706.3L934.4 729.7L934.9 623.8L935.3 593.9L935.8 668.6L936.2 653L936.7 693.2L937.1 608.7L937.6 725L938 690.5L938.4 697.6L938.9 735.5L939.3 715.5L939.8 690.2L940.2 722.1L940.7 746.9L941.1 740.9L941.6 715.9L942 656.2L942.4 568.5L942.9 654.1L943.3 681.6L943.8 754.9L944.2 732.2L944.7 735.9L945.1 710.1L945.6 648.5L946 719.9L946.4 719.2L946.9 701.2L947.3 758.2L947.8 725.2L948.2 723.7L948.7 740.9L949.1 673.5L949.6 577.7L950 697.4L950.4 690L950.9 762.9L951.3 744.7L951.8 746.2L952.2 701.2L952.7 659.9L953.1 729.9L953.6 755.1L954 723.2L954.4 727.9L954.9 774.8L955.3 739.8L955.8 754.2L956.2 679.5L956.7 672.9L957.1 542.9L957.6 610.7L958 719.2L958.4 736.2L958.9 705.4L959.3 667.5L959.8 683.3L960.2 770.9L960.7 744L961.1 701.8L961.6 750.9L962 774.5L962.4 706.1L962.9 733.5L963.3 692.7L963.8 663L964.2 605.8L964.7 665.3L965.1 762L965.6 735.9L966 751.3L966.4 724.2L966.9 674.9L967.3 708.1L967.8 725.3L968.2 679.3L968.7 704.3L969.1 715.7L969.6 742.2L970 745.5L970.4 704.7L970.9 697.2L971.3 574.1L971.8 651L972.2 738.2L972.7 726.8L973.1 723.5L973.6 710.1L974 580.8L974.4 692.3L974.9 709.4L975.3 669.8L975.8 783.5L976.2 680.7L976.7 758.5L977.1 726.1L977.6 678.9L978 705.8L978.4 585.7L978.9 614.9L979.3 766.1L979.8 769.2L980.2 759.2L980.7 748.2L981.1 705.8L981.6 725L982 719.2L982.4 713.2L982.9 716.6L983.3 757.8L983.8 732.2L984.2 576.3L984.7 29.9L985.1 67.1L985.6 84.7L986 156.5L986.4 556L986.9 623.2L987.3 665L987.8 493.6L988.2 266.9L988.7 238.5L989.1 354L989.6 372.1L990 456.4L990.4 463.3L990.9 469.3L991.3 643.2L991.8 660.1L992.2 654.1L992.7 504.5L993.1 390.8L993.6 684.5L994 774.3L994.4 676.6L994.9 731L995.3 638.8L995.8 701.8L996.2 725.7L996.7 670.8L997.1 711.7L997.6 738L998 710.8L998.4 702.3L998.9 726.2L999.3 758.7L999.8 672.8L1000.2 545.1L1000.7 678.2L1001.1 757.8L1001.6 760.3L1002 754.3L1002.4 685.8L1002.9 751.1L1003.3 691.6L1003.8 687.1L1004.2 758.7L1004.7 739.3L1005.1 685.3L1005.6 680.5L1006 721L1006.4 726.8L1006.9 691.2L1007.3 531.3L1007.8 644.1L1008.2 740.9L1008.7 749.5L1009.1 716.1L1009.6 676L1010 725.5L1010.4 667.9L1010.9 721.5L1011.3 718.1L1011.8 755.4L1012.2 747.3L1012.7 746L1013.1 684.4L1013.6 752.9L1014 683.3L1014.4 500.7L1014.9 678.6L1015.3 761.1L1015.8 735.9L1016.2 743.7L1016.7 682.4L1017.1 677.1L1017.6 715.5L1018 716.8L1018.4 717.9L1018.9 752.5L1019.3 787.2L1019.8 821.6L1020.2 715.9L1020.7 764.7L1021.1 678.4L1021.6 525.1L1022 646.3L1022.4 771.9L1022.9 732.8L1023.3 781.5L1023.8 731.7L1024.2 700.3L1024.7 671.8L1025.1 770.1L1025.6 752.9L1026 798.6L1026.4 738.9L1026.9 789.2L1027.3 716.1L1027.8 776.5L1028.2 750.7L1028.7 661L1029.1 599.3L1029.6 720.4L1030 731L1030.4 748.5L1030.9 714.8L1031.3 719.5L1031.8 667.3L1032.2 675.3L1032.7 727L1033.1 715.5L1034 789L1034.4 713.9L1034.9 806.6L1035.3 756L1035.8 655.3L1036.2 618.4L1036.7 752.9L1037.1 749.1L1037.6 735.7L1038 684.2L1038.4 705.8L1038.9 532.8L1039.3 -577.9L1039.8 -326.4L1040.2 -228.3L1040.7 -153.9L1041.1 159.8L1041.6 370.8L1042 580.8L1042.4 437L1042.9 239.7L1043.3 282L1043.8 287.4L1044.2 601.7L1044.7 590.8L1045.1 662.6L1045.6 750.4L1046 624L1046.4 616.5L1046.9 779.6L1047.3 733.7L1047.8 734.8L1048.2 720.4L1048.7 737.3L1049.1 701.4L1049.6 731L1050 652.6L1050.4 596.6L1050.9 676.6L1051.3 768.9L1051.8 774.5L1052.2 745.3L1052.7 738.9L1053.1 653.2L1053.6 611.1L1054 761.2L1054.4 756.3L1054.9 730.8L1055.3 750.5L1055.8 751.4L1056.2 715L1057.1 606.2L1057.6 594.2L1058 660.6L1058.4 754.3L1058.9 700.9L1059.3 751.3L1059.8 742.4L1060.2 688.5L1060.7 645L1061.1 754.9L1061.6 789.5L1062 753.1L1062.4 665L1062.9 770.3L1063.3 732.6L1063.8 713.9L1064.2 686.5L1064.7 637.6L1065.1 587.3L1065.6 678.9L1066 755.1L1066.4 717L1066.9 707L1067.3 688L1067.8 580.8L1068.2 715.2L1068.7 690.5L1069.1 729.3L1069.6 697.4L1070 718.8L1070.4 688.9L1070.9 731.5L1071.3 742.6L1071.8 658.1L1072.2 573.6L1072.7 673.7L1073.1 717.2L1073.6 758L1074 734.8L1074.4 678.7L1074.9 662.1L1075.3 700.7L1075.8 760.7L1076.2 730.2L1076.7 708.8L1077.1 721.5L1077.6 730.2L1078 746.7L1078.4 665.7L1078.9 689.4L1079.3 569.9L1079.8 661.5L1080.2 697.8L1080.7 660.4L1081.1 731.1L1081.6 753.3L1082 649L1082.4 696.5L1082.9 734.2L1083.3 754.3L1083.8 752.2L1084.2 735.5L1084.7 746.4L1085.1 701.6L1085.6 675.5L1086 617.1L1086.4 552.2L1086.9 631.4L1087.3 752L1087.8 766.3L1088.2 723.3L1088.7 707.2L1089.1 647.9L1089.6 712.3L1090 754.9L1090.4 760.5L1090.9 727.5L1091.3 760.9L1091.8 767.9L1092.2 765.2L1092.7 684L1093.1 653.7L1093.6 544.5L1094 624.7L1094.4 742.6L1094.9 779.4L1095.8 749.3L1096.2 573.2L1096.7 625.8L1097.1 612.5L1097.6 763.2L1098 727.7L1098.4 745.3L1099.3 584.6L1099.8 -1.3L1100.2 131.3L1100.7 187.9L1101.1 91.8L1101.6 374.3L1102 520.1L1102.4 596.2L1102.9 450.4L1103.3 253.5L1103.8 174.6L1104.2 288.7L1104.7 406L1105.1 472L1105.6 574.5L1106 507.2L1106.4 639.2L1106.9 613.8L1107.3 718.8L1107.8 543.5L1108.2 503L1108.7 658.8L1109.1 738.6L1109.6 704.1L1110 767.2L1110.4 634.3L1110.9 727.1L1111.3 692.7L1111.8 751.1L1112.2 752.5L1112.7 724.1L1113.1 754.9L1113.6 692.7L1114 676.4L1114.4 785.5L1114.9 716.1L1115.3 605.8L1115.8 681.1L1116.2 755.8L1116.7 733.3L1117.1 717.5L1117.6 618.9L1118 689.1L1118.4 677.3L1118.9 728.8L1119.3 761.8L1119.8 700.5L1120.2 733.5L1120.7 732.4L1121.1 693.4L1121.6 748.5L1122 705.6L1122.4 584.4L1122.9 702.5L1123.3 755.4L1123.8 729L1124.2 774.5L1124.7 682.4L1125.1 712.5L1125.6 730.2L1126 775.4L1126.4 739.5L1126.9 727.7L1127.3 755.1L1127.8 753.8L1128.2 635.9L1128.7 759.2L1129.1 690.5L1129.6 560.9L1130 671.8L1130.4 771.8L1131.3 793.2L1131.8 725.3L1132.2 722.3L1132.7 725.9L1133.1 765.2L1133.6 740.4L1134 734.6L1134.4 750L1134.9 727.3L1135.3 687.1L1135.8 768.1L1136.2 714.3L1136.7 650.6L1137.1 580.6L1137.6 748.7L1138 733.5L1138.4 744.6L1138.9 696.3L1139.3 684L1139.8 708.8L1140.2 791.7L1140.7 771L1141.1 760.3L1141.6 727L1142 736.8L1142.4 665.9L1142.9 772.8L1143.3 747.6L1143.8 681.8L1144.2 516.4L1144.7 666.2L1145.1 754.9L1145.6 776.3L1146 701.2L1146.4 720.8L1146.9 755.8L1147.3 746.6L1147.8 699.2L1148.2 698.1L1148.7 749.1L1149.1 734.8L1149.6 644.3L1150 766.9L1150.4 535.1L1150.9 486.2L1151.3 521.3L1151.8 689.8L1152.2 740.4L1152.7 702.1L1153.1 697L1153.6 798.2L1154 500.1L1154.4 -705.9L1154.9 -468.2L1155.3 -257.7L1155.8 -124.6L1156.2 241L1156.7 318.2L1157.1 528L1157.6 424L1158 254.2L1158.4 287.4L1158.9 463.1L1159.3 638.8L1159.8 633.6L1160.2 661.9L1160.7 704.8L1161.1 618.4L1161.6 681.8L1162 692.3L1162.4 739.1L1162.9 686L1163.3 687.8L1163.8 651L1164.2 720.1L1164.7 772.8L1165.1 675.3L1165.6 541.5L1166 636.8L1166.4 760.9L1166.9 762.7L1167.3 701L1167.8 712.3L1168.2 700.9L1168.7 670L1169.1 707.9L1169.6 760L1170 767.2L1170.4 682.2L1170.9 728.6L1171.3 719.9L1171.8 762L1172.2 730.1L1172.7 670L1173.1 495.4L1173.6 731.1L1174 726.2L1174.4 677.8L1174.9 748L1175.3 689.1L1175.8 703.2L1176.2 694.9L1176.7 721L1177.1 748L1177.6 761.1L1178 719.7L1178.4 771.2L1178.9 744.2L1179.3 764.7L1179.8 674.2L1180.2 577.7L1180.7 683.4L1181.1 745.8L1181.6 659.7L1182 711.4L1182.9 680.5L1183.3 683.8L1183.8 760.2L1184.2 711L1184.7 648.1L1185.1 659.9L1185.6 730.2L1186 774.8L1186.4 768.5L1186.9 698L1187.3 543.6L1187.8 702.1L1188.2 705.8L1188.7 688.9L1189.1 713.2L1189.6 661.7L1190 674L1190.4 648.8L1190.9 714.6L1191.3 741.5L1191.8 720.6L1192.2 686.2L1192.7 722.8L1193.1 774.5L1193.6 785.9L1194 716.8L1194.4 596.8L1194.9 673.7L1195.3 717.2L1195.8 694.9L1196.2 761.1L1196.7 757.3L1197.1 670.6L1197.6 680.2L1198 706.1L1198.4 709L1198.9 707.6L1199.3 657.5L1199.8 757.6L1200.2 742L1200.7 724.1L1201.1 650.8L1201.6 558L1202 707.6L1202.4 775.6L1202.9 728.2L1203.3 746.7L1203.8 578.3L1204.2 705.8L1204.7 724.4L1205.1 732.2L1205.6 782.6L1206 708.8L1206.4 670L1206.9 709.4L1207.3 746.9L1207.8 707.9L1208.2 751.3L1208.7 649.4L1209.1 595.9L1209.6 705.6L1210 702.5L1210.4 735.5L1210.9 746.2L1211.3 664.6L1211.8 668.9L1212.2 744.6L1212.7 752.4L1213.1 682.9L1213.6 690.9L1214 795.7L1214.4 751.8L1214.9 581.5L1215.3 63.5L1215.8 -14.3L1216.2 -42.2L1216.7 80.3L1217.1 473.3L1217.6 503.9L1218 667.9L1218.4 412.2L1218.9 376.6L1219.3 183.3L1219.8 350.2L1220.2 421.1L1220.7 366.3L1221.1 578.5L1221.6 536.2L1222 656.1L1222.4 681.8L1222.9 534.8L1223.3 440.6L1223.8 518.3L1224.2 683.4L1224.7 655.7L1225.1 743.3L1225.6 750.2L1226 703.6L1226.4 672.6L1226.9 766.1L1227.3 764.9L1227.8 717.7L1228.2 742.7L1228.7 763.8L1229.1 766.7L1229.6 744.6L1230 675.1L1230.4 581L1230.9 690L1231.3 729.7L1231.8 715.2L1232.2 756.3L1232.7 662.6L1233.1 694.9L1233.6 656.8L1234 775.6L1234.4 695.8L1234.9 684.7L1235.3 694.7L1235.8 784.3L1236.2 698L1236.7 746.7L1237.1 698.5L1237.6 610.4L1238 669.3L1238.4 697.6L1238.9 739.7L1239.3 766.7L1239.8 735.1L1240.2 681.1L1240.7 666.8L1241.1 745.6L1241.6 731.1L1242 728.1L1242.4 756.2L1242.9 718.6L1243.3 728.1L1243.8 751.4L1244.2 731.3L1244.7 721.7L1245.1 552.7L1245.6 669.7L1246 734.4L1246.4 791.9L1246.9 757.8L1247.3 713.2L1247.8 686.5L1248.2 774.5L1248.7 685.6L1249.1 711.6L1249.6 735.3L1250 762.5L1250.4 731.9L1250.9 786.4L1251.3 732.2L1251.8 720.1L1252.2 566.5L1252.7 671.7L1253.1 771L1253.6 762.5L1254 704.7L1254.4 729.1L1254.9 713L1255.3 746L1255.8 704.3L1256.2 686.5L1256.7 719.4L1257.1 622.3L1257.6 735.9L1258 776.8L1258.4 759.6L1258.9 711L1259.3 510.3L1259.8 709.6L1260.2 758.2L1260.7 778.5L1261.1 729.7L1261.6 726.6L1262 665.9L1262.4 709L1262.9 741.7L1263.3 733.5L1263.8 728.4L1264.2 777.9L1264.7 687.1L1265.1 761.2L1265.6 745.3L1266 700.9L1266.4 550.5L1266.9 604.6L1267.3 746L1267.8 799.7L1268.2 747.8L1268.7 705.4L1269.1 429L1269.6 -522.4L1270 -402.6L1270.4 -421.4L1270.9 -112.2L1271.3 161.6L1271.8 406L1272.2 466.4L1272.7 334.2L1273.1 316.1L1273.6 292.7L1274 439L1274.4 705L1274.9 677.3L1275.3 747.1L1275.8 723.5L1276.2 700.1L1276.7 634.9L1277.1 732.2L1277.6 691.6L1278 757.1L1278.4 680.4L1278.9 745.8L1279.3 726.6L1279.8 718.1L1280.2 714.3L1280.7 655L1281.1 487.4L1281.6 730.4L1282 705.8L1282.4 746L1282.9 731.3L1283.3 679.8L1283.8 684.5L1284.2 749.1L1284.7 640.5L1285.1 781L1285.6 671.3L1286 775.4L1286.4 752.9L1286.9 767.4L1287.3 727L1287.8 683.4L1288.2 517.5L1288.7 749.3L1289.1 778.6L1289.6 783.4L1290 739.8L1290.4 690.5L1290.9 724.2L1291.3 734.4L1291.8 673.3L1292.2 769.4L1292.7 738.6L1293.1 740.2L1293.6 696.7L1294 736.4L1294.4 739.8L1294.9 714.6L1295.3 490.5L1295.8 676.7L1296.2 648.3L1296.7 708.3L1297.1 705.8L1297.6 729.3L1298 666.8L1298.4 653L1298.9 695.4L1299.3 801.1L1299.8 702.3L1300.2 749.3L1300.7 703.8L1301.1 723.2L1301.6 749.5L1302 690.9L1302.4 508.8L1302.9 665.9L1303.3 717.5L1303.8 806.6L1304.2 745.6L1304.7 742.4L1305.1 705.8L1305.6 687.8L1306 674L1306.4 776.8L1306.9 714.5L1307.3 724.1L1307.8 737.7L1308.2 660.1L1308.7 749.6L1309.1 677.1L1309.6 496L1310 590.8L1310.4 548.5L1310.9 746.9L1311.3 745.3L1311.8 749.8L1312.2 651.9L1312.7 671.5L1313.1 672.9L1313.6 778.8L1314 731.1L1314.4 736.2L1314.9 744.2L1315.3 736L1315.8 740L1316.2 795.1L1316.7 610.9L1317.1 570.7L1317.6 722.6L1318 753.8L1318.4 744.4L1318.9 761.2L1319.3 681.1L1319.8 723L1320.2 596.8L1320.7 745.5L1321.1 738.4L1321.6 731.5L1322 772.5L1322.4 725.9L1322.9 745.5L1323.8 618.4L1324.2 562.3L1324.7 728.8L1325.1 798.1L1325.6 756.7L1326 776.7L1326.4 691.2L1326.9 743.8L1327.3 669.8L1327.8 797L1328.2 767.2L1328.7 744.9L1329.1 751.6L1329.6 781.5L1330 564.3L1330.4 25.9L1330.9 -39.3L1331.3 -43.2L1331.8 110.8L1332.2 517.7L1332.7 544.5L1333.1 623.2L1333.6 456.4L1334 311.9L1334.4 93L1334.9 316.4L1335.3 476.4L1335.8 448.8L1336.2 549.8L1336.7 504.1L1337.1 699L1337.6 696.9L1338 576.3L1338.4 470.7L1338.9 540L1339.3 748.2L1339.8 705.6L1340.2 683.8L1340.7 755.6L1341.1 653.2L1341.6 618.9L1342 739.7L1342.4 689.6L1342.9 749.8L1343.3 679.3L1343.8 699.2L1344.2 734.4L1344.7 674.7L1345.1 660.1L1345.6 596.4L1346 668.2L1346.4 758.3L1346.9 710.3L1347.3 772.1L1347.8 697.2L1348.2 710.1L1348.7 681.3L1349.1 799.7L1349.6 699.6L1350 746.4L1350.4 731.7L1350.9 760.7L1351.3 722.6L1351.8 730.6L1352.2 566.1L1352.7 586.8L1353.1 641L1353.6 742.9L1354 723.9L1354.4 753.6L1354.9 744.4L1355.3 615.4L1355.8 661L1356.2 753.6L1356.7 757.4L1357.1 745.6L1357.6 762.7L1358 737.1L1358.4 738.6L1358.9 773.6L1359.3 725.9L1359.8 694.9L1360.2 600.6L1360.7 718.4L1361.1 760.2L1361.6 781L1362 761.6L1362.4 741.5L1362.9 667.1L1363.3 743.7L1363.8 584.4L1364.2 777.2L1364.7 730.4L1365.1 758L1365.6 744.7L1366 758.5L1366.4 690L1366.9 710.5L1367.3 569L1367.8 683.3L1368.2 690.2L1368.7 676.6L1369.1 746.7L1369.6 710.6L1370 634.3L1370.4 691.4L1370.9 758L1371.3 775.9L1371.8 750.7L1372.2 743.3L1372.7 731.9L1373.1 760.3L1373.6 705.2L1374 697.2L1374.4 575.6L1374.9 724.4L1375.3 747.6L1375.8 748.4L1376.2 731.1L1376.7 690.7L1377.1 651.2L1377.6 733.5L1378 747.1L1378.4 769.9L1378.9 745.1L1379.3 754.7L1379.8 756.9L1380.2 715.5L1380.7 696L1381.1 668.2L1381.6 544.4L1382 690.9L1382.4 703.2L1382.9 735.3L1383.3 753.4L1383.8 751.6L1384.2 336.7L1384.7 -482.7L1385.1 -542.4L1385.6 -195.3L1386 -185.9L1386.4 157.8L1386.9 416L1387.3 576.5L1387.8 318.1L1388.2 245.7L1388.7 304.1L1389.1 456.8L1389.6 651.7L1390 646.1L1390.4 724.1L1390.9 673.7L1391.3 597.1L1391.8 675.5L1392.2 748L1392.7 688.9L1393.1 736.2L1393.6 710.3L1394 781.5L1394.4 719.4L1394.9 708.3L1395.3 747.5L1395.8 663.9L1396.2 552.2L1396.7 699L1397.1 696.7L1397.6 775.7L1398 680.4L1398.4 659.3L1398.9 687.6L1399.3 769.4L1399.8 664.8L1400.2 702.1L1400.7 706.8L1401.1 773.6L1401.6 667.1L1402 711L1402.4 715.9L1402.9 660.8L1403.3 571.6L1403.8 690.3L1404.2 731.5L1404.7 751.3L1405.1 691.8L1405.6 682.4L1406 665.5L1406.4 687.1L1406.9 775.2L1407.3 756.5L1407.8 701.8L1408.2 763.6L1408.7 679.3L1409.1 768.3L1409.6 707.2L1410 715.5L1410.4 571.7L1410.9 735.1L1411.3 708.8L1411.8 737.8L1412.2 680.7L1412.7 706.8L1413.1 617.6L1413.6 724.2L1414 729.1L1414.4 711L1414.9 683.8L1415.3 759.4L1415.8 719L1416.7 707.6L1417.1 552.7L1417.6 588.2L1418 694.7L1418.4 723.9L1418.9 774.3L1419.3 727.9L1419.8 716.6L1420.2 672.9L1420.7 709.2L1421.1 744L1421.6 761.2L1422 704.7L1422.4 729L1422.9 708.8L1423.3 677.1L1423.8 764L1424.2 754L1424.7 577.2L1425.1 698.5L1425.6 750.7L1426.4 726.4L1426.9 735.3L1427.3 671.1L1427.8 702.3L1428.2 738L1428.7 751.8L1429.1 738.6L1429.6 771.4L1430 690L1430.4 687.1L1430.9 687.8L1431.3 763.8L1431.8 693.2L1432.2 572.5L1432.7 620.5L1433.1 745.8L1433.6 727.9L1434 716.1L1434.4 683.8L1434.9 752.9L1435.3 785L1435.8 810L1436.2 770.5L1436.7 775L1437.1 709.2L1437.6 680.9L1438 741.8L1438.4 784.3L1438.9 690.9L1439.3 629.4L1439.8 672.9L1440.2 776.5L1440.7 663.5L1441.1 721.2L1441.6 740.4L1442 741.3L1442.4 703.6L1442.9 757.8L1443.3 730.6L1443.8 762.9L1444.2 729.1L1444.7 726.8L1445.1 564.7L1445.6 -32.8L1446 15.6L1446.4 58.2L1446.9 114.2L1447.3 566.3L1447.8 528.2L1448.2 529.3L1448.7 424.7L1449.1 307.2L1449.6 178.6L1450 350L1450.4 442.1L1450.9 459.5L1451.3 572.5L1451.8 510.3L1452.2 650.4L1452.7 673.5L1453.1 595.1L1453.6 432.8L1454 520.4L1454.4 732.4L1454.9 670.2L1455.3 684L1455.8 764.9L1456.2 618.7L1456.7 671.5L1457.1 751.1L1457.6 678.6L1458 761.1L1458.4 731.5L1458.9 707.9L1459.3 748.2L1459.8 787.7L1460.2 647L1460.7 592.4L1461.1 694.1L1461.6 788.3L1462 733.5L1462.4 732.2L1462.9 771L1463.3 684.5L1463.8 679.6L1464.2 749.3L1464.7 737.7L1465.1 771.4L1465.6 741.7L1466 714.8L1466.4 712.8L1466.9 768.1L1467.3 761.8L1467.8 730.4L1468.2 619.1L1468.7 724.1L1469.1 744.4L1469.6 716.6L1470 765.6L1470.4 546.9L1470.9 676.7L1471.3 744.7L1471.8 772.5L1472.2 745.1L1472.7 703.6L1473.1 704.8L1473.6 756.7L1474 806.2L1474.4 760.7L1474.9 718.1L1475.3 532L1475.8 708.5L1476.2 684L1476.7 662.8L1477.1 748.5L1477.6 685.1L1478 700.9L1478.4 690.2L1478.9 699.2L1479.3 769L1479.8 707.2L1480.2 703.4L1480.7 663.7L1481.1 774.8L1481.6 767.4L1482 721.2L1482.4 543.5L1482.9 741.5L1483.3 754.9L1483.8 734.4L1484.2 746.2L1484.7 799.1L1485.1 672.4L1485.6 680.4L1486 733.5L1486.4 783.9L1486.9 674.9L1487.3 728.6L1487.8 752.7L1488.2 716.8L1488.7 726.4L1489.1 711.2L1489.6 562.9L1490 710.1L1490.4 718.6L1490.9 684.2L1491.3 727.1L1491.8 752.7L1492.2 680.5L1492.7 665.3L1493.1 723.2L1493.6 794.6L1494 740.2L1494.4 698.9L1494.9 705.9L1495.3 744L1495.8 776.3L1496.2 734.8L1496.7 552.5L1497.1 710.1L1497.6 748.2L1498 694.7L1498.4 775.2L1498.9 779.7L1499.3 736.9L1499.8 497.4L1500.2 -405.8L1500.7 -325.7L1501.1 -247.7L1501.6 -200.5L1502 237.9L1502.4 356L1502.9 594.8L1503.3 382.8L1503.8 309.5L1504.2 240.3L1504.7 450.3L1505.1 606.9L1505.6 660.8L1506 670.4L1506.9 648.8L1507.3 752.9L1507.8 771.2L1508.2 734.8L1508.7 678L1509.1 770.1L1509.6 677.1L1510 756.7L1510.4 727.1L1510.9 662.6L1511.3 563.8L1511.8 666L1512.2 662.4L1512.7 726.1L1513.1 749.1L1513.6 745.8L1514 706.5L1514.4 687.3L1514.9 783.7L1515.3 733.3L1515.8 692.3L1516.2 772.1L1516.7 701L1517.1 766.7L1518 648.5L1518.4 557.1L1518.9 665.3L1519.3 666.2L1519.8 759.2L1520.2 750.9L1520.7 692.5L1521.1 719L1521.6 702.9L1522 746L1522.4 724.1L1522.9 657.2L1523.3 725.7L1523.8 608.2L1524.2 717.4L1524.7 754.5L1525.1 673.8L1525.6 556L1526 592.8L1526.4 704.1L1526.9 743.7L1527.3 777.6L1527.8 727.5L1528.2 670.4L1528.7 666.8L1529.1 781.2L1529.6 764.7L1530 703.6L1530.4 732L1530.9 767.8L1531.3 731.1L1531.8 728.8L1532.2 667.3L1532.7 514.8L1533.1 647.7L1533.6 701.9L1534 696.7L1534.4 745.1L1534.9 702.5L1535.3 688.7L1535.8 698.3L1536.2 722.1L1536.7 692.2L1537.1 687.6L1537.6 702.9L1538 739.8L1538.4 741.3L1538.9 761.6L1539.3 720.3L1539.8 691.2L1540.2 567.6L1540.7 669.3L1541.1 734.2L1541.6 730.6L1542 738.6L1542.4 716.3L1542.9 693.6L1543.3 802.4L1543.8 696.1L1544.2 716.1L1544.7 674.7L1545.1 774.1L1545.6 748.5L1546 751.3L1546.4 742.9L1546.9 723.3L1547.3 594.6L1547.8 681.1L1548.2 793.7L1548.7 755.3L1549.1 757.8L1549.6 706.8L1550 697.4L1550.4 622.7L1550.9 731.7L1551.3 717.5L1551.8 744.4L1552.2 751.1L1552.7 714.3L1553.1 738L1553.6 763.1L1554 716.1L1554.4 529.7L1554.9 568.8L1555.3 722.6L1555.8 789L1556.2 720.3L1556.7 723L1557.1 683.6L1557.6 754.2L1558 733.1L1558.4 737.1L1558.9 760L1559.3 794.4L1559.8 773.9L1560.2 568.3L1560.7 -33.5L1561.1 58.4L1561.6 34.8L1562 94.7L1562.4 432.8L1562.9 535.3L1563.3 633.9L1563.8 452.8L1564.2 344L1564.7 117.3L1565.1 317L1565.6 433.4L1566 421.1L1566.4 606L1566.9 579.2L1567.3 685.1L1567.8 653.5L1568.2 641.6L1568.7 334L1569.1 482.4L1569.6 706.3L1570 760L1570.4 737.3L1570.9 776.5L1571.3 657.3L1571.8 663.1L1572.2 740.6L1572.7 680.9L1573.1 753.1L1573.6 739.8L1574 754.7L1574.4 764.7L1574.9 757.4L1575.3 727.5L1575.8 627.2L1576.2 546.4L1576.7 661.5L1577.1 600.8L1577.6 748.4L1578 744.7L1578.4 673.3L1578.9 701L1579.3 752.9L1579.8 706.7L1580.2 759.8L1580.7 817.3L1581.1 750.4L1581.6 771.9L1582 736.8L1582.4 728.6L1582.9 664.6L1583.3 539.7L1583.8 716.6L1584.2 752.7L1584.7 687.4L1585.1 744.6L1585.6 689.4L1586 736.2L1586.4 698.9L1586.9 700.9L1587.3 744L1588.2 725.2L1588.7 752.2L1589.1 727.5L1589.6 768.5L1590 690L1590.4 536.2L1590.9 716.3L1591.3 740.7L1591.8 726.4L1592.2 756.2L1592.7 700.1L1593.1 702.3L1593.6 652.1L1594 697.8L1594.4 766.5L1594.9 759.2L1595.3 757.8L1595.8 794.1L1596.2 741.7L1596.7 760.5L1597.1 661L1597.6 428.9L1598 671.1L1598.4 776.3L1598.9 750.4L1599.3 778.3L1599.8 715.2L1600.2 723.3L1600.7 651.2L1601.1 674.7L1601.6 734.6L1602 785L1602.4 738L1602.9 724.1L1603.3 707.6L1603.8 792.8L1604.2 642.1L1604.7 568.7L1605.1 672.4L1605.6 802.2L1606 709.7L1606.4 773.8L1606.9 732.6L1607.3 706.7L1607.8 687.4L1608.2 693.8L1608.7 653.2L1609.1 790.8L1609.6 755.3L1610 739.8L1610.4 719.4L1610.9 772.1L1611.3 741.7L1611.8 638.8L1612.2 570.5L1612.7 722.3L1613.1 759.6L1613.6 752.4L1614 694L1614.4 727.7L1614.9 499.4L1615.3 -554.9L1615.8 -320.4L1616.2 -236.6L1616.7 -184.8L1617.1 227.2L1617.6 363.4L1618 608.7L1618.4 434.8L1618.9 95.6L1619.3 321.5L1619.8 531.5L1620.2 628.9L1620.7 720.1L1621.1 682L1621.6 686.9L1622 669.3L1622.4 615.6L1622.9 787.7L1623.3 771L1623.8 727L1624.2 716.5L1624.7 661L1625.1 760.2L1625.6 742.9L1626 642.5L1626.4 574.6L1626.9 675.8L1627.3 718.1L1627.8 683.3L1628.2 713.2L1628.7 702.7L1629.1 670.4L1629.6 607.5L1630 745.5L1630.4 576.1L1630.9 696.3L1631.3 726.4L1631.8 688.5L1632.2 711.7L1632.7 710.5L1633.1 655.3L1633.6 593L1634 692.3L1634.4 770.1L1634.9 730.2L1635.3 715.7L1635.8 728.6L1636.2 661.1L1636.7 640.7L1637.1 755.4L1637.6 744.4L1638 741.7L1638.4 711L1638.9 727.1L1639.3 740L1639.8 733.5L1640.2 591.9L1640.7 517.3L1641.1 699.4L1641.6 782.3L1642 757.3L1642.4 725L1642.9 735.3L1643.3 641.2L1643.8 593.7L1644.2 710.8L1644.7 722.8L1645.1 716.3L1645.6 643.6L1646 698.5L1646.4 703.8L1646.9 730.4L1647.3 724.2L1647.8 685.8L1648.2 553.1L1648.7 703.2L1649.1 777.7L1649.6 750L1650 733.7L1650.4 658.6L1650.9 614.7L1651.3 742.7L1651.8 744.4L1652.2 745.5L1652.7 720.3L1653.1 737.8L1653.6 706.7L1654 732.8L1654.4 704.5L1654.9 668.9L1655.3 600.8L1655.8 692.2L1656.2 767.2L1656.7 698.5L1657.1 754L1657.6 730.6L1658 687.6L1658.4 747.1L1658.9 767.2L1659.3 748L1659.8 692L1660.2 734.2L1660.7 703.6L1661.1 775.2L1661.6 704.1L1662 703.2L1662.4 587.2L1662.9 680.7L1663.3 716.5L1663.8 691.1L1664.2 748.5L1664.7 728.2L1665.1 645.7L1665.6 691.6L1666 757.1L1666.4 772.7L1666.9 758.2L1667.3 733.9L1667.8 760.7L1668.2 684.9L1668.7 695.2L1669.1 680.5L1669.6 544.9L1670 717.2L1670.4 727.1L1670.9 704.5L1671.3 768.9L1671.8 738.8L1672.2 637.6L1672.7 683.4L1673.1 775.6L1673.6 781.2L1674 754.5L1674.4 752.7L1674.9 766.3L1675.3 553.8L1675.8 -54.2L1676.2 -14.7L1676.7 -61.3L1677.1 104.5L1677.6 476.7L1678 556L1678.4 596.2L1678.9 418.2L1679.3 137.1L1679.8 134.9L1680.2 299.2L1680.7 372.3L1681.1 411.8L1681.6 637.8L1682 552.5L1682.4 574.5L1682.9 587.9L1683.3 690L1683.8 318.2L1684.2 426L1684.7 636.3L1685.1 707.7L1685.6 710.5L1686 730.8L1686.4 587.7L1686.9 681.8L1687.3 749.8L1687.8 764.9L1688.2 745.8L1688.7 701.2L1689.1 748.7L1689.6 711.4L1690 677.3L1690.4 784.6L1690.9 683.1L1691.3 563.4L1691.8 689.3L1692.2 771.8L1692.7 753.1L1693.1 766L1693.6 632.1L1694 733.5L1694.4 689.3L1694.9 760.7L1695.3 754.7L1695.8 735.9L1696.2 737.7L1696.7 643.9L1697.1 641.4L1697.6 756.5L1698 704.7L1698.4 562.5L1698.9 705.9L1699.3 749.1L1699.8 743.1L1700.2 763.6L1700.7 704.5L1701.1 723L1701.6 679.8L1702 758L1702.4 747.3L1702.9 693.2L1703.3 751.3L1703.8 739.1L1704.2 641.6L1704.7 730.6L1705.1 684.5L1705.6 579.2L1706 677.1L1706.4 740.6L1706.9 750.5L1707.3 754.2L1707.8 705.2L1708.2 671.7L1708.7 693.2L1709.1 747.6L1709.6 743.3L1710 753.4L1710.4 737.3L1710.9 746.6L1711.3 654.4L1711.8 731.1L1712.2 649.9L1712.7 574.8L1713.1 638.7L1713.6 748.5L1714 755.8L1714.4 769.8L1714.9 698L1715.3 712.5L1715.8 698.1L1716.2 770.7L1716.7 756.2L1717.1 750.2L1717.6 731.5L1718 740.6L1718.4 625.1L1718.9 766.9L1719.3 733.3L1719.8 670.4L1720.2 567.8L1720.7 692.9L1721.1 727.9L1721.6 761.4L1722 696.3L1722.4 745.8L1722.9 596.6L1723.3 773.2L1723.8 681.3L1724.2 687.8L1724.7 738.9L1725.1 723.5L1725.6 642.8L1726 766.3L1726.4 757.4L1726.9 741.1L1727.3 587L1727.8 716.3L1728.2 725.9L1728.7 734.6L1729.1 630.7L1729.6 693.1L1730 451.9L1730.4 -571.4L1730.9 -442.6L1731.3 -289L1731.8 -163.2L1732.2 161.9L1732.7 287.8L1733.1 590.6L1733.6 357.8L1734 239.9L1734.4 115.5L1734.9 444.6L1735.3 663.7L1735.8 640.8L1736.2 622.7L1736.7 709.6L1737.1 564L1737.6 591L1738 698.1L1738.4 746.4L1738.9 725.7L1739.3 705.4L1739.8 639.7L1740.2 746.2L1740.7 759.1L1741.1 617.4L1741.6 578.8L1742 634.9L1742.4 738.2L1742.9 739.8L1743.3 640.8L1743.8 692.3L1744.2 642.5L1744.7 650.8L1745.1 749.1L1745.6 720.4L1746 737.5L1746.4 691.8L1746.9 698L1747.3 711.4L1747.8 771.6L1748.2 696.5L1748.7 574.3L1749.1 679.8L1749.6 779L1750 710.8L1750.4 698.1L1750.9 721L1751.3 687.3L1751.8 723.5L1752.2 738.2L1752.7 668.8L1753.1 750.4L1753.6 699.4L1754 682.7L1754.4 749.1L1754.9 789.7L1755.3 735.7L1755.8 683.1L1756.2 580.8L1756.7 673.3L1757.1 710.6L1757.6 661.7L1758 662.4L1758.4 652.4L1758.9 644.3L1759.3 755.1L1759.8 770.9L1760.2 748.4L1760.7 699.9L1761.1 721.5L1761.6 743.5L1762 765.8L1762.4 748.5L1762.9 713.5L1763.3 596L1763.8 692.9L1764.2 697.2L1764.7 705.2L1765.1 752.4L1765.6 711.4L1766 720.3L1766.4 695.4L1766.9 740L1767.3 708.5L1767.8 705.4L1768.2 686.5L1768.7 700.3L1769.1 767.8L1769.6 773.2L1770 712.6L1770.4 588.2L1770.9 689.6L1771.3 728.2L1771.8 692L1772.2 752.2L1772.7 713L1773.1 675.1L1773.6 691.8L1774 717.9L1774.4 799.1L1774.9 750L1775.3 715.9L1775.8 743.8L1776.2 709.4L1776.7 714.8L1777.1 711.2L1777.6 510.3L1778 677.6L1778.4 736.8L1778.9 675.5L1779.3 766.1L1779.8 761.8L1780.2 723L1780.7 663L1781.1 728.6L1781.6 746.4L1782 721.9L1782.4 667.5L1782.9 748.2L1783.3 733.9L1783.8 701.8L1784.2 673.3L1784.7 561.8L1785.1 633.2L1785.6 700.3L1786 748L1786.4 767.9L1786.9 788.4L1787.3 646.3L1787.8 673.1L1788.2 736.6L1788.7 785.4L1789.1 699.8L1789.6 685.4L1790 679.1L1790.4 468L1790.9 -6L1791.3 97.4L1791.8 144.7L1792.2 21.4L1792.7 327.1L1793.1 513.5L1793.6 618.5L1794 393.9L1794.4 317L1794.9 67.6L1795.3 283.6L1795.8 501.4L1796.2 407.8L1796.7 608.2L1797.1 535.8L1797.6 664.6L1798 636.3L1798.4 680.9L1798.9 551.1L1799.3 448.3L1799.8 654.6" fill="transparent" stroke="#3fb1e3" stroke-width="3" stroke-linejoin="bevel" class="zr17-cls-53"></path>
</g>
<path d="M-254.9 -5l509.9 0l0 28l-509.9 0Z" transform="translate(1000 5)" fill="rgb(0,0,0)" fill-opacity="0" stroke="#ccc" stroke-width="0" class="zr17-cls-51"></path>
<text dominant-baseline="central" text-anchor="middle" style="font-size:18px;font-family:sans-serif;font-weight:bold;" xml:space="preserve" y="9" transform="translate(1000 5)" fill="#666666">Min wholeUpdate per Tick for benchmark_biolab_synchronous</text>
<defs >
<clipPath id="zr17-c0">
<path d="M198 58.5l16004 0l0 8703l-16004 0Z" fill="#000" class="zr17-cls-52"></path>
</clipPath>
</defs>
<style ><![CDATA[
.zr17-cls-51:hover {
pointer-events:none;
}
.zr17-cls-52:hover {
cursor:pointer;
fill:rgba(0,0,0,1);
}
.zr17-cls-53:hover {
cursor:pointer;
}

]]>

</style>
</svg>