<svg width="2000" height="1000" xmlns="http://www.w3.org/2000/svg" xmlns:xlink="http://www.w3.org/1999/xlink" version="1.1" baseProfile="full" viewBox="0 0 2000 1000">
<rect width="2000" height="1000" x="0" y="0" fill="rgb(252,252,252)" fill-opacity="0"></rect>
<path d="M200 930.5L1800 930.5" fill="transparent" stroke="#eeeeee" class="zr13-cls-39"></path>
<path d="M200 826.5L1800 826.5" fill="transparent" stroke="#eeeeee" class="zr13-cls-39"></path>
<path d="M200 605.5L1800 605.5" fill="transparent" stroke="#eeeeee" class="zr13-cls-39"></path>
<path d="M200 384.5L1800 384.5" fill="transparent" stroke="#eeeeee" class="zr13-cls-39"></path>
<path d="M200 164.5L1800 164.5" fill="transparent" stroke="#eeeeee" class="zr13-cls-39"></path>
<path d="M200 60.5L1800 60.5" fill="transparent" stroke="#eeeeee" class="zr13-cls-39"></path>
<path d="M200.5 930L200.5 60" fill="transparent" stroke="#cccccc" stroke-linecap="round" class="zr13-cls-39"></path>
<text dominant-baseline="central" text-anchor="middle" style="font-size:12px;font-family:sans-serif;" xml:space="preserve" y="-6" transform="translate(200 45)" fill="#cccccc">Min controlBehaviorUpdate Time (ms)</text>
<path d="M200 930.5L1800 930.5" fill="transparent" stroke="#cccccc" stroke-linecap="round" class="zr13-cls-39"></path>
<text dominant-baseline="central" text-anchor="end" style="font-size:12px;font-family:sans-serif;" transform="translate(192 930)" fill="#999999">0.011</text>
<text dominant-baseline="central" text-anchor="end" style="font-size:12px;font-family:sans-serif;" transform="translate(192 826.0185)" fill="#999999">0.020</text>
<text dominant-baseline="central" text-anchor="end" style="font-size:12px;font-family:sans-serif;" transform="translate(192 605.2945)" fill="#999999">0.040</text>
<text dominant-baseline="central" text-anchor="end" style="font-size:12px;font-family:sans-serif;" transform="translate(192 384.5705)" fill="#999999">0.060</text>
<text dominant-baseline="central" text-anchor="end" style="font-size:12px;font-family:sans-serif;" transform="translate(192 163.8464)" fill="#999999">0.080</text>
<text dominant-baseline="central" text-anchor="end" style="font-size:12px;font-family:sans-serif;" transform="translate(192 60)" fill="#999999">0.089</text>
<text dominant-baseline="central" text-anchor="middle" style="font-size:12px;font-family:sans-serif;" y="6" transform="translate(200.2222 938)" fill="#999999">0</text>
<text dominant-baseline="central" text-anchor="middle" style="font-size:12px;font-family:sans-serif;" y="6" transform="translate(235.3333 938)" fill="#999999">79</text>
<text dominant-baseline="central" text-anchor="middle" style="font-size:12px;font-family:sans-serif;" y="6" transform="translate(270.4444 938)" fill="#999999">158</text>
<text dominant-baseline="central" text-anchor="middle" style="font-size:12px;font-family:sans-serif;" y="6" transform="translate(305.5556 938)" fill="#999999">237</text>
<text dominant-baseline="central" text-anchor="middle" style="font-size:12px;font-family:sans-serif;" y="6" transform="translate(340.6667 938)" fill="#999999">316</text>
<text dominant-baseline="central" text-anchor="middle" style="font-size:12px;font-family:sans-serif;" y="6" transform="translate(375.7778 938)" fill="#999999">395</text>
<text dominant-baseline="central" text-anchor="middle" style="font-size:12px;font-family:sans-serif;" y="6" transform="translate(410.8889 938)" fill="#999999">474</text>
<text dominant-baseline="central" text-anchor="middle" style="font-size:12px;font-family:sans-serif;" y="6" transform="translate(446 938)" fill="#999999">553</text>
<text dominant-baseline="central" text-anchor="middle" style="font-size:12px;font-family:sans-serif;" y="6" transform="translate(481.1111 938)" fill="#999999">632</text>
<text dominant-baseline="central" text-anchor="middle" style="font-size:12px;font-family:sans-serif;" y="6" transform="translate(516.2222 938)" fill="#999999">711</text>
<text dominant-baseline="central" text-anchor="middle" style="font-size:12px;font-family:sans-serif;" y="6" transform="translate(551.3333 938)" fill="#999999">790</text>
<text dominant-baseline="central" text-anchor="middle" style="font-size:12px;font-family:sans-serif;" y="6" transform="translate(586.4444 938)" fill="#999999">869</text>
<text dominant-baseline="central" text-anchor="middle" style="font-size:12px;font-family:sans-serif;" y="6" transform="translate(621.5556 938)" fill="#999999">948</text>
<text dominant-baseline="central" text-anchor="middle" style="font-size:12px;font-family:sans-serif;" y="6" transform="translate(656.6667 938)" fill="#999999">1027</text>
<text dominant-baseline="central" text-anchor="middle" style="font-size:12px;font-family:sans-serif;" y="6" transform="translate(691.7778 938)" fill="#999999">1106</text>
<text dominant-baseline="central" text-anchor="middle" style="font-size:12px;font-family:sans-serif;" y="6" transform="translate(726.8889 938)" fill="#999999">1185</text>
<text dominant-baseline="central" text-anchor="middle" style="font-size:12px;font-family:sans-serif;" y="6" transform="translate(762 938)" fill="#999999">1264</text>
<text dominant-baseline="central" text-anchor="middle" style="font-size:12px;font-family:sans-serif;" y="6" transform="translate(797.1111 938)" fill="#999999">1343</text>
<text dominant-baseline="central" text-anchor="middle" style="font-size:12px;font-family:sans-serif;" y="6" transform="translate(832.2222 938)" fill="#999999">1422</text>
<text dominant-baseline="central" text-anchor="middle" style="font-size:12px;font-family:sans-serif;" y="6" transform="translate(867.3333 938)" fill="#999999">1501</text>
<text dominant-baseline="central" text-anchor="middle" style="font-size:12px;font-family:sans-serif;" y="6" transform="translate(902.4444 938)" fill="#999999">1580</text>
<text dominant-baseline="central" text-anchor="middle" style="font-size:12px;font-family:sans-serif;" y="6" transform="translate(937.5556 938)" fill="#999999">1659</text>
<text dominant-baseline="central" text-anchor="middle" style="font-size:12px;font-family:sans-serif;" y="6" transform="translate(972.6667 938)" fill="#999999">1738</text>
<text dominant-baseline="central" text-anchor="middle" style="font-size:12px;font-family:sans-serif;" y="6" transform="translate(1007.7778 938)" fill="#999999">1817</text>
<text dominant-baseline="central" text-anchor="middle" style="font-size:12px;font-family:sans-serif;" y="6" transform="translate(1042.8889 938)" fill="#999999">1896</text>
<text dominant-baseline="central" text-anchor="middle" style="font-size:12px;font-family:sans-serif;" y="6" transform="translate(1078 938)" fill="#999999">1975</text>
<text dominant-baseline="central" text-anchor="middle" style="font-size:12px;font-family:sans-serif;" y="6" transform="translate(1113.1111 938)" fill="#999999">2054</text>
<text dominant-baseline="central" text-anchor="middle" style="font-size:12px;font-family:sans-serif;" y="6" transform="translate(1148.2222 938)" fill="#999999">2133</text>
<text dominant-baseline="central" text-anchor="middle" style="font-size:12px;font-family:sans-serif;" y="6" transform="translate(1183.3333 938)" fill="#999999">2212</text>
<text dominant-baseline="central" text-anchor="middle" style="font-size:12px;font-family:sans-serif;" y="6" transform="translate(1218.4444 938)" fill="#999999">2291</text>
<text dominant-baseline="central" text-anchor="middle" style="font-size:12px;font-family:sans-serif;" y="6" transform="translate(1253.5556 938)" fill="#999999">2370</text>
<text dominant-baseline="central" text-anchor="middle" style="font-size:12px;font-family:sans-serif;" y="6" transform="translate(1288.6667 938)" fill="#999999">2449</text>
<text dominant-baseline="central" text-anchor="middle" style="font-size:12px;font-family:sans-serif;" y="6" transform="translate(1323.7778 938)" fill="#999999">2528</text>
<text dominant-baseline="central" text-anchor="middle" style="font-size:12px;font-family:sans-serif;" y="6" transform="translate(1358.8889 938)" fill="#999999">2607</text>
<text dominant-baseline="central" text-anchor="middle" style="font-size:12px;font-family:sans-serif;" y="6" transform="translate(1394 938)" fill="#999999">2686</text>
<text dominant-baseline="central" text-anchor="middle" style="font-size:12px;font-family:sans-serif;" y="6" transform="translate(1429.1111 938)" fill="#999999">2765</text>
<text dominant-baseline="central" text-anchor="middle" style="font-size:12px;font-family:sans-serif;" y="6" transform="translate(1464.2222 938)" fill="#999999">2844</text>
<text dominant-baseline="central" text-anchor="middle" style="font-size:12px;font-family:sans-serif;" y="6" transform="translate(1499.3333 938)" fill="#999999">2923</text>
<text dominant-baseline="central" text-anchor="middle" style="font-size:12px;font-family:sans-serif;" y="6" transform="translate(1534.4444 938)" fill="#999999">3002</text>
<text dominant-baseline="central" text-anchor="middle" style="font-size:12px;font-family:sans-serif;" y="6" transform="translate(1569.5556 938)" fill="#999999">3081</text>
<text dominant-baseline="central" text-anchor="middle" style="font-size:12px;font-family:sans-serif;" y="6" transform="translate(1604.6667 938)" fill="#999999">3160</text>
<text dominant-baseline="central" text-anchor="middle" style="font-size:12px;font-family:sans-serif;" y="6" transform="translate(1639.7778 938)" fill="#999999">3239</text>
<text dominant-baseline="central" text-anchor="middle" style="font-size:12px;font-family:sans-serif;" y="6" transform="translate(1674.8889 938)" fill="#999999">3318</text>
<text dominant-baseline="central" text-anchor="middle" style="font-size:12px;font-family:sans-serif;" y="6" transform="translate(1710 938)" fill="#999999">3397</text>
<text dominant-baseline="central" text-anchor="middle" style="font-size:12px;font-family:sans-serif;" y="6" transform="translate(1745.1111 938)" fill="#999999">3476</text>
<text dominant-baseline="central" text-anchor="middle" style="font-size:12px;font-family:sans-serif;" y="6" transform="translate(1780.2222 938)" fill="#999999">3555</text>
<g clip-path="url(#zr13-c0)">
<path d="M200.2 -75.6L200.7 426.5L201.1 475.1L201.6 590.9L202 605.3L202.4 587.6L202.9 513.7L203.3 582.1L203.8 605.3L204.2 499.3L204.7 577.7L205.1 570L205.6 535.8L206 704.6L206.4 611.9L206.9 578.8L207.3 626.3L207.8 707.9L208.2 709L208.7 585.4L209.1 608.6L209.6 599.8L210 625.2L210.4 671.5L210.9 582.1L211.3 530.2L211.8 609.7L212.2 701.3L212.7 585.4L213.1 617.4L213.6 710.1L214 620.7L214.4 605.3L214.9 657.2L215.3 576.6L215.8 589.8L216.2 631.8L216.7 595.4L217.1 557.8L217.6 630.7L218 497.1L218.4 -1438.6L218.9 520.3L219.3 544.6L219.8 616.3L220.2 595.4L220.7 610.8L221.1 486.1L221.6 358.1L222 637.3L222.4 529.1L222.9 576.6L223.3 624.1L223.8 561.1L224.2 220.1L224.7 614.1L225.1 709L225.6 554.5L226 448.6L226.4 520.3L226.9 298.5L227.3 552.3L227.8 658.3L228.2 627.4L228.7 671.5L229.1 623L229.6 325L230 520.3L230.4 421L230.9 541.3L231.3 663.8L231.8 561.1L232.2 265.4L232.7 576.6L233.1 400L233.6 602L234 557.8L234.4 532.5L234.9 355.9L235.3 500.5L235.8 434.2L236.2 564.5L236.7 639.5L237.1 630.7L237.6 241.1L238 556.7L238.4 351.5L238.9 565.6L239.3 627.4L239.8 458.5L240.2 274.2L240.7 532.5L241.1 421L241.6 560L242 593.2L242.4 581L242.9 259.9L243.3 653.9L243.8 384.6L244.2 583.2L244.7 623L245.1 624.1L245.6 188.1L246 613L246.4 422.1L246.9 659.4L247.3 610.8L247.8 640.6L248.2 277.5L248.7 480.6L249.1 393.4L249.6 560L250 534.7L250.4 558.9L250.9 329.4L251.3 586.5L251.8 386.8L252.2 606.4L252.7 530.2L253.1 715.7L253.6 208L254 606.4L254.4 489.4L254.9 643.9L255.3 618.5L255.8 497.1L256.2 253.2L256.7 657.2L257.1 423.2L257.6 517L258 579.9L258.4 701.3L258.9 230.1L259.3 592.1L259.8 572.2L260.2 619.6L260.7 526.9L261.1 589.8L261.6 316.1L262 608.6L262.4 529.1L262.9 574.4L263.3 629.6L263.8 616.3L264.2 677L264.7 711.2L265.1 453L265.6 621.8L266 614.1L266.4 440.9L266.9 562.3L267.3 528L267.8 562.3L268.2 624.1L268.7 635.1L269.1 667.1L269.6 642.8L270 623L270.4 520.3L270.9 640.6L271.3 573.3L271.8 607.5L272.2 575.5L272.7 652.8L273.1 625.2L273.6 631.8L274 657.2L274.4 628.5L274.9 689.2L275.3 662.7L275.8 -226.8L276.2 609.7L276.7 724.5L277.1 638.4L277.6 743.2L278 730L278.4 659.4L278.9 608.6L279.3 624.1L279.8 684.8L280.2 763.1L280.7 590.9L281.1 678.1L281.6 715.7L282 624.1L282.4 711.2L282.9 741L283.3 639.5L283.8 610.8L284.2 593.2L284.7 597.6L285.1 645L285.6 660.5L286 593.2L286.4 651.6L286.9 647.2L287.3 623L287.8 590.9L288.2 744.4L288.7 717.9L289.1 658.3L289.6 672.6L290 615.2L290.4 620.7L290.9 643.9L291.3 618.5L291.8 603.1L292.2 582.1L292.7 572.2L293.1 628.5L293.6 664.9L294 646.1L294.4 547.9L294.9 709L295.3 673.7L295.8 599.8L296.2 570L296.7 682.5L297.1 610.8L297.6 714.6L298 660.5L298.4 611.9L298.9 606.4L299.3 704.6L299.8 536.9L300.2 496L300.7 594.3L301.1 494.9L301.6 744.4L302 602L302.4 597.6L302.9 605.3L303.3 627.4L303.8 728.9L304.2 638.4L304.7 618.5L305.1 728.9L305.6 659.4L306 606.4L306.4 645L306.9 566.7L307.3 632.9L307.8 561.1L308.2 637.3L308.7 657.2L309.1 719L309.6 627.4L310 635.1L310.4 703.5L310.9 546.8L311.3 649.4L311.8 640.6L312.2 515.9L312.7 558.9L313.1 610.8L313.6 643.9L314 564.5L314.4 629.6L314.9 600.9L315.3 650.5L315.8 587.6L316.2 647.2L316.7 631.8L317.1 611.9L317.6 658.3L318 670.4L318.4 607.5L318.9 583.2L319.3 595.4L319.8 625.2L320.2 583.2L320.7 547.9L321.1 681.4L321.6 652.8L322 609.7L322.4 634L322.9 658.3L323.3 618.5L323.8 650.5L324.2 627.4L324.7 593.2L325.1 595.4L325.6 574.4L326 694.7L326.4 651.6L326.9 645L327.3 625.2L327.8 579.9L328.2 734.4L328.7 747.7L329.1 639.5L329.6 647.2L330 670.4L330.4 660.5L330.9 567.8L331.3 651.6L331.8 680.3L332.2 641.7L332.7 685.9L333.1 624.1L333.6 -347.1L334 600.9L334.4 625.2L334.9 621.8L335.3 628.5L335.8 652.8L336.2 586.5L336.7 406.6L337.1 596.5L337.6 677L338 652.8L338.4 577.7L338.9 597.6L339.3 355.9L339.8 597.6L340.2 656.1L340.7 555.6L341.1 564.5L341.6 617.4L342 318.4L342.4 579.9L342.9 577.7L343.3 638.4L343.8 606.4L344.2 543.5L344.7 312.8L345.1 520.3L345.6 503.8L346 561.1L346.4 710.1L346.9 606.4L347.3 298.5L347.8 568.9L348.2 392.3L348.7 534.7L349.1 656.1L349.6 550.1L350 371.3L350.4 700.2L350.9 442L351.3 652.8L351.8 611.9L352.2 567.8L352.7 252.1L353.1 679.2L353.6 456.3L354 549L354.4 504.9L354.9 562.3L355.3 330.5L355.8 653.9L356.2 487.2L356.7 540.2L357.1 620.7L357.6 581L358 333.8L358.4 504.9L358.9 455.2L359.3 563.4L359.8 641.7L360.2 704.6L360.7 373.5L361.1 719L361.6 480.6L362 509.3L362.4 574.4L362.9 555.6L363.3 402.2L363.8 544.6L364.2 326.1L364.7 557.8L365.1 543.5L365.6 573.3L366 342.6L366.4 551.2L366.9 443.1L367.3 590.9L367.8 608.6L368.2 611.9L368.7 373.5L369.1 561.1L369.6 370.2L370 610.8L370.4 603.1L370.9 534.7L371.3 254.3L371.8 564.5L372.2 445.3L372.7 629.6L373.1 550.1L373.6 533.6L374 297.4L374.4 576.6L374.9 498.2L375.3 599.8L375.8 579.9L376.2 546.8L376.7 237.8L377.1 565.6L377.6 446.4L378 725.6L378.4 640.6L378.9 721.2L379.3 595.4L379.8 528L380.2 428.7L380.7 538L381.1 485L381.6 673.7L382 705.7L382.4 722.3L382.9 428.7L383.3 638.4L383.8 556.7L384.2 547.9L384.7 630.7L385.1 667.1L385.6 447.5L386 710.1L386.4 656.1L386.9 733.3L387.3 565.6L387.8 608.6L388.2 661.6L388.7 635.1L389.1 603.1L389.6 618.5L390 570L390.4 597.6L390.9 -262.2L391.3 625.2L391.8 585.4L392.2 568.9L392.7 623L393.1 587.6L393.6 608.6L394 628.5L394.4 742.1L394.9 727.8L395.3 542.4L395.8 611.9L396.2 565.6L396.7 668.2L397.6 628.5L398 618.5L398.4 720.1L398.9 637.3L399.3 563.4L399.8 743.2L400.2 562.3L400.7 681.4L401.1 615.2L401.6 572.2L402 586.5L402.4 666L402.9 621.8L403.3 645L403.8 565.6L404.2 610.8L404.7 638.4L405.1 598.7L405.6 571.1L406 599.8L406.4 744.4L406.9 707.9L407.3 583.2L407.8 565.6L408.2 578.8L408.7 592.1L409.1 712.3L409.6 621.8L410 609.7L410.4 679.2L410.9 641.7L411.3 658.3L411.8 608.6L412.2 619.6L412.7 592.1L413.1 542.4L413.6 625.2L414 724.5L414.4 606.4L414.9 611.9L415.3 638.4L415.8 614.1L416.2 638.4L416.7 723.4L417.1 613L417.6 655L418 567.8L418.4 716.8L418.9 702.4L419.3 680.3L419.8 632.9L420.2 542.4L420.7 630.7L421.1 598.7L421.6 566.7L422 640.6L422.4 661.6L422.9 604.2L423.3 634L423.8 635.1L424.2 581L424.7 595.4L425.1 617.4L425.6 636.2L426 603.1L426.4 578.8L426.9 588.7L427.3 726.7L427.8 722.3L428.7 595.4L429.1 720.1L429.6 555.6L430 605.3L430.4 610.8L430.9 643.9L431.3 649.4L431.8 611.9L432.2 642.8L432.7 616.3L433.1 659.4L433.6 575.5L434 571.1L434.4 713.4L434.9 702.4L435.3 725.6L435.8 619.6L436.2 620.7L436.7 579.9L437.1 600.9L437.6 585.4L438 519.2L438.4 648.3L438.9 713.4L439.3 658.3L439.8 618.5L440.2 597.6L440.7 625.2L441.1 590.9L441.6 748.8L442 692.5L442.4 594.3L442.9 556.7L443.3 602L443.8 630.7L444.2 684.8L444.7 576.6L445.1 626.3L445.6 671.5L446 575.5L446.4 565.6L446.9 624.1L447.3 645L447.8 635.1L448.2 562.3L448.7 541.3L449.1 -273.2L449.6 643.9L450 560L450.4 588.7L450.9 572.2L451.3 588.7L451.8 616.3L452.2 285.2L452.7 604.2L453.1 535.8L453.6 598.7L454 620.7L454.4 567.8L454.9 352.6L455.3 660.5L455.8 620.7L456.2 554.5L456.7 578.8L457.1 597.6L457.6 330.5L458 585.4L458.4 630.7L458.9 631.8L459.3 469.5L459.8 546.8L460.2 341.5L460.7 555.6L461.1 396.7L461.6 524.7L462 621.8L462.4 646.1L462.9 396.7L463.3 628.5L463.8 471.8L464.2 702.4L464.7 625.2L465.1 477.3L465.6 279.7L466 541.3L466.4 368L466.9 558.9L467.3 573.3L467.8 617.4L468.2 313.9L468.7 575.5L469.1 398.9L469.6 543.5L470 555.6L470.4 508.2L470.9 347L471.3 576.6L471.8 466.2L472.2 606.4L472.7 624.1L473.1 608.6L473.6 330.5L474 518.1L474.4 487.2L474.9 634L475.3 597.6L475.8 598.7L476.2 338.2L476.7 513.7L477.1 366.9L477.6 587.6L478 690.3L478.4 711.2L478.9 313.9L479.3 547.9L479.8 416.6L480.2 627.4L480.7 619.6L481.1 529.1L481.6 267.6L482 556.7L482.4 361.4L482.9 572.2L483.3 565.6L483.8 589.8L484.2 381.3L484.7 576.6L485.1 391.2L485.6 560L486 586.5L486.4 696.9L486.9 353.7L487.3 608.6L487.8 470.7L488.2 539.1L488.7 623L489.1 590.9L489.6 412.2L490 619.6L490.4 478.4L490.9 687L491.3 600.9L491.8 646.1L492.2 295.2L492.7 598.7L493.1 459.6L493.6 663.8L494 628.5L494.4 677L494.9 536.9L495.3 586.5L495.8 403.3L496.2 700.2L496.7 572.2L497.1 675.9L497.6 608.6L498 634L498.4 489.4L498.9 611.9L499.3 538L499.8 581L500.2 566.7L500.7 546.8L501.1 446.4L501.6 600.9L502 653.9L502.4 641.7L502.9 653.9L503.3 592.1L503.8 593.2L504.2 621.8L504.7 568.9L505.1 604.2L505.6 627.4L506 -218L506.4 566.7L506.9 661.6L507.3 609.7L507.8 604.2L508.2 613L508.7 594.3L509.1 574.4L509.6 695.8L510 565.6L510.4 700.2L510.9 594.3L511.3 602L511.8 620.7L512.2 692.5L512.7 695.8L513.1 596.5L513.6 584.3L514 703.5L514.4 585.4L514.9 713.4L515.3 735.5L515.8 703.5L516.2 606.4L516.7 619.6L517.1 625.2L517.6 618.5L518 549L518.4 667.1L518.9 727.8L519.3 597.6L519.8 587.6L520.2 671.5L520.7 539.1L521.1 550.1L521.6 645L522 600.9L522.4 603.1L522.9 480.6L523.3 579.9L523.8 518.1L524.2 618.5L524.7 634L525.1 639.5L525.6 649.4L526 600.9L526.4 592.1L526.9 643.9L527.3 585.4L527.8 570L528.2 547.9L528.7 609.7L529.1 670.4L529.6 607.5L530 564.5L530.4 620.7L530.9 636.2L531.3 592.1L531.8 628.5L532.2 554.5L532.7 635.1L533.1 634L533.6 627.4L534 534.7L534.9 617.4L535.3 655L535.8 700.2L536.2 711.2L536.7 573.3L537.1 594.3L537.6 606.4L538 617.4L538.4 606.4L538.9 735.5L539.3 734.4L539.8 625.2L540.2 637.3L540.7 543.5L541.1 583.2L541.6 587.6L542 573.3L542.4 571.1L542.9 585.4L543.3 639.5L543.8 673.7L544.2 592.1L544.7 532.5L545.1 625.2L545.6 636.2L546 585.4L546.4 624.1L546.9 610.8L547.3 534.7L547.8 620.7L548.2 593.2L548.7 576.6L549.1 642.8L549.6 556.7L550 566.7L550.4 603.1L550.9 629.6L551.3 582.1L551.8 602L552.2 587.6L552.7 616.3L553.1 605.3L553.6 615.2L554 620.7L554.4 657.2L554.9 579.9L555.3 728.9L555.8 584.3L556.2 578.8L556.7 615.2L557.1 638.4L557.6 572.2L558 625.2L558.4 598.7L558.9 608.6L559.3 584.3L559.8 600.9L560.2 588.7L560.7 642.8L561.1 635.1L561.6 570L562 613L562.4 540.2L562.9 544.6L563.3 581L563.8 491.6L564.2 -385.8L564.7 596.5L565.1 573.3L565.6 687L566 586.5L566.4 604.2L566.9 576.6L567.3 339.3L567.8 598.7L568.2 630.7L568.7 667.1L569.1 600.9L569.6 593.2L570 252.1L570.4 560L570.9 592.1L571.3 577.7L571.8 536.9L572.2 620.7L572.7 302.9L573.1 611.9L573.6 529.1L574 532.5L574.4 562.3L574.9 540.2L575.3 360.3L575.8 581L576.2 469.5L576.7 574.4L577.1 695.8L577.6 560L578 257.7L578.4 500.5L578.9 336L579.3 658.3L579.8 607.5L580.2 656.1L580.7 242.2L581.1 582.1L581.6 444.2L582 657.2L582.4 656.1L582.9 604.2L583.3 288.6L583.8 583.2L584.2 439.8L584.7 642.8L585.1 536.9L585.6 586.5L586 274.2L586.4 566.7L586.9 364.7L587.3 566.7L587.8 652.8L588.2 614.1L588.7 169.4L589.1 506L589.6 410L590 621.8L590.4 512.6L590.9 502.7L591.3 318.4L591.8 566.7L592.2 421L592.7 514.8L593.1 641.7L593.6 528L594 241.1L594.4 550.1L594.9 523.6L595.3 599.8L595.8 694.7L596.2 638.4L596.7 361.4L597.1 598.7L597.6 418.8L598 650.5L598.4 566.7L598.9 572.2L599.3 355.9L599.8 539.1L600.2 394.5L600.7 636.2L601.1 555.6L601.6 628.5L602 338.2L602.4 557.8L602.9 402.2L603.3 519.2L603.8 621.8L604.2 555.6L604.7 278.6L605.1 689.2L605.6 465.1L606 589.8L606.4 714.6L606.9 629.6L607.3 351.5L607.8 572.2L608.2 416.6L608.7 566.7L609.1 629.6L609.6 524.7L610 599.8L610.4 614.1L610.9 395.6L611.3 623L611.8 508.2L612.2 657.2L612.7 638.4L613.1 544.6L613.6 531.4L614 545.7L614.4 586.5L614.9 642.8L615.3 629.6L615.8 621.8L616.2 487.2L616.7 602L617.1 728.9L617.6 672.6L618 555.6L618.4 588.7L618.9 623L619.3 552.3L619.8 553.4L620.2 680.3L620.7 610.8L621.1 -155.1L621.6 648.3L622 642.8L622.4 651.6L622.9 620.7L623.3 707.9L623.8 609.7L624.2 571.1L624.7 599.8L625.1 666L625.6 599.8L626 723.4L626.4 736.6L626.9 699.1L627.3 590.9L627.8 631.8L628.2 653.9L628.7 655L629.1 590.9L629.6 640.6L630 655L630.4 636.2L630.9 648.3L631.3 666L631.8 590.9L632.2 655L632.7 646.1L633.1 588.7L633.6 592.1L634 653.9L634.4 585.4L634.9 611.9L635.3 631.8L635.8 683.7L636.2 600.9L636.7 621.8L637.1 689.2L637.6 631.8L638 671.5L638.4 713.4L638.9 611.9L639.3 720.1L639.8 634L640.2 629.6L640.7 648.3L641.1 578.8L641.6 660.5L642 617.4L642.4 720.1L642.9 702.4L643.3 552.3L643.8 536.9L644.2 600.9L644.7 572.2L645.1 614.1L645.6 522.5L646 615.2L646.4 590.9L646.9 732.2L647.3 617.4L647.8 605.3L648.2 599.8L648.7 734.4L649.1 577.7L649.6 604.2L650 566.7L650.4 584.3L650.9 596.5L651.3 620.7L651.8 621.8L652.2 627.4L652.7 606.4L653.1 579.9L653.6 568.9L654 566.7L654.4 642.8L654.9 714.6L655.3 570L655.8 715.7L656.2 652.8L656.7 692.5L657.1 668.2L657.6 604.2L658 582.1L658.4 567.8L658.9 625.2L659.3 681.4L659.8 641.7L660.2 638.4L660.7 636.2L661.1 605.3L661.6 606.4L662 637.3L662.4 628.5L662.9 625.2L663.3 629.6L663.8 638.4L664.2 735.5L664.7 603.1L665.1 565.6L665.6 631.8L666 668.2L666.4 616.3L666.9 645L667.3 701.3L667.8 583.2L668.2 722.3L668.7 735.5L669.1 680.3L669.6 673.7L670 679.2L670.4 620.7L670.9 662.7L671.3 611.9L671.8 572.2L672.2 623L672.7 655L673.1 540.2L673.6 669.3L674 604.2L674.4 608.6L674.9 561.1L675.3 583.2L675.8 587.6L676.2 605.3L676.7 660.5L677.1 599.8L677.6 552.3L678 641.7L678.4 623L678.9 487.2L679.3 -158.4L679.8 610.8L680.2 611.9L680.7 662.7L681.1 668.2L681.6 739.9L682 670.4L682.4 318.4L682.9 613L683.3 683.7L683.8 741L684.2 634L684.7 563.4L685.1 381.3L685.6 604.2L686 655L686.4 605.3L686.9 688.1L687.3 574.4L687.8 475.1L688.2 604.2L688.7 625.2L689.1 547.9L689.6 567.8L690 572.2L690.4 300.7L690.9 564.5L691.3 418.8L691.8 560L692.2 648.3L692.7 607.5L693.1 436.4L693.6 464L694 427.6L694.4 576.6L694.9 585.4L695.3 572.2L695.8 357L696.2 492.7L696.7 447.5L697.1 607.5L697.6 655L698 510.4L698.4 354.8L698.9 578.8L699.3 405.5L699.8 638.4L700.2 647.2L700.7 616.3L701.1 466.2L701.6 560L702 371.3L702.4 539.1L702.9 603.1L703.3 571.1L703.8 296.3L704.2 553.4L704.7 475.1L705.1 636.2L705.6 626.3L706 624.1L706.4 222.3L706.9 582.1L707.3 453L707.8 589.8L708.2 669.3L708.7 678.1L709.1 341.5L709.6 598.7L710 308.4L710.4 645L710.9 566.7L711.3 698L711.8 311.7L712.2 582.1L712.7 438.6L713.1 734.4L713.6 693.6L714 579.9L714.4 363.6L714.9 646.1L715.3 380.2L715.8 538L716.2 510.4L716.7 572.2L717.1 294.1L717.6 558.9L718 386.8L718.4 647.2L718.9 588.7L719.3 540.2L719.8 451.9L720.2 632.9L720.7 413.3L721.1 581L721.6 550.1L722 620.7L722.4 338.2L722.9 608.6L723.3 564.5L723.8 529.1L724.2 626.3L724.7 544.6L725.1 585.4L725.6 613L726 521.4L726.4 614.1L726.9 610.8L727.3 641.7L727.8 636.2L728.2 528L728.7 496L729.1 619.6L729.6 600.9L730 727.8L730.4 598.7L730.9 714.6L731.3 429.8L731.8 632.9L732.2 603.1L732.7 605.3L733.1 659.4L733.6 650.5L734 610.8L734.4 733.3L734.9 660.5L735.3 571.1L735.8 608.6L736.2 -216.9L736.7 589.8L737.1 670.4L737.6 634L738 650.5L738.4 643.9L738.9 552.3L739.3 636.2L739.8 596.5L740.2 717.9L740.7 536.9L741.1 628.5L741.6 511.5L742 656.1L742.4 691.4L742.9 664.9L743.3 624.1L743.8 705.7L744.2 600.9L744.7 663.8L745.1 733.3L745.6 677L746 587.6L746.4 720.1L746.9 674.8L747.3 655L747.8 698L748.2 660.5L748.7 631.8L749.6 700.2L750 596.5L750.4 645L750.9 600.9L751.3 632.9L751.8 573.3L752.2 607.5L752.7 616.3L753.1 637.3L753.6 626.3L754 614.1L754.4 681.4L754.9 576.6L755.3 659.4L755.8 712.3L756.2 637.3L756.7 635.1L757.1 730L757.6 722.3L758 709L758.4 684.8L758.9 619.6L759.3 629.6L759.8 613L760.2 632.9L760.7 586.5L761.1 705.7L761.6 539.1L762 573.3L762.4 616.3L762.9 613L763.3 626.3L763.8 650.5L764.2 593.2L764.7 627.4L765.1 592.1L765.6 570L766 562.3L766.4 616.3L766.9 650.5L767.3 597.6L767.8 579.9L768.2 634L768.7 624.1L769.6 600.9L770 650.5L770.4 600.9L770.9 638.4L771.3 588.7L771.8 620.7L772.2 589.8L772.7 703.5L773.1 609.7L773.6 646.1L774 531.4L774.4 619.6L774.9 599.8L775.3 625.2L775.8 581L776.2 592.1L776.7 640.6L777.1 694.7L777.6 615.2L778 641.7L778.4 592.1L778.9 570L779.3 563.4L779.8 702.4L780.2 615.2L780.7 629.6L781.1 641.7L781.6 736.6L782 625.2L782.4 593.2L782.9 586.5L783.3 732.2L783.8 710.1L784.2 648.3L784.7 639.5L785.1 735.5L785.6 598.7L786 630.7L786.4 623L786.9 608.6L787.3 620.7L787.8 632.9L788.2 579.9L788.7 615.2L789.1 638.4L789.6 574.4L790 628.5L790.4 553.4L790.9 658.3L791.3 624.1L791.8 643.9L792.2 687L792.7 552.3L793.1 638.4L793.6 592.1L794 540.2L794.4 -276.5L794.9 573.3L795.3 634L795.8 678.1L796.2 573.3L796.7 709L797.1 636.2L797.6 339.3L798 643.9L798.4 630.7L798.9 614.1L799.3 699.1L799.8 607.5L800.2 382.4L800.7 629.6L801.1 625.2L801.6 638.4L802 600.9L802.4 550.1L802.9 247.7L803.3 599.8L803.8 556.7L804.2 525.8L804.7 609.7L805.1 515.9L805.6 305.1L806 568.9L806.4 438.6L806.9 617.4L807.3 652.8L807.8 551.2L808.2 422.1L808.7 592.1L809.1 506L809.6 583.2L810 556.7L810.4 576.6L810.9 308.4L811.3 621.8L811.8 444.2L812.2 557.8L812.7 547.9L813.1 584.3L813.6 328.3L814 679.2L814.4 366.9L814.9 629.6L815.3 547.9L815.8 528L816.2 447.5L816.7 588.7L817.1 379.1L817.6 519.2L818 594.3L818.4 628.5L818.9 400L819.3 584.3L819.8 394.5L820.2 629.6L820.7 652.8L821.1 698L821.6 225.6L822 566.7L822.4 522.5L822.9 616.3L823.3 640.6L823.8 641.7L824.2 304L824.7 510.4L825.1 460.7L825.6 600.9L826 614.1L826.4 607.5L826.9 269.8L827.3 643.9L827.8 490.5L828.2 624.1L828.7 592.1L829.1 562.3L829.6 309.5L830 566.7L830.4 412.2L830.9 656.1L831.3 564.5L831.8 571.1L832.2 309.5L832.7 692.5L833.1 490.5L833.6 578.8L834 586.5L834.4 534.7L834.9 320.6L835.3 594.3L835.8 407.7L836.2 715.7L836.7 695.8L837.1 587.6L837.6 404.4L838 585.4L838.4 478.4L838.9 623L839.3 648.3L839.8 717.9L840.2 681.4L840.7 543.5L841.1 445.3L841.6 658.3L842 578.8L842.4 614.1L842.9 554.5L843.3 694.7L843.8 478.4L844.2 606.4L845.1 636.2L845.6 581L846 573.3L846.4 446.4L846.9 579.9L847.3 550.1L847.8 663.8L848.2 619.6L848.7 625.2L849.1 639.5L849.6 613L850 626.3L850.4 530.2L850.9 663.8L851.3 618.5L851.8 -201.5L852.2 589.8L852.7 679.2L853.1 748.8L853.6 579.9L854 586.5L854.4 691.4L854.9 611.9L855.3 638.4L855.8 542.4L856.2 574.4L856.7 723.4L857.1 585.4L857.6 706.8L858 642.8L858.4 605.3L858.9 574.4L859.3 583.2L859.8 664.9L860.2 596.5L860.7 638.4L861.1 632.9L861.6 747.7L862 628.5L862.4 674.8L862.9 711.2L863.3 599.8L863.8 720.1L864.2 636.2L864.7 653.9L865.1 584.3L865.6 579.9L866 684.8L866.4 651.6L866.9 593.2L867.3 638.4L867.8 573.3L868.2 656.1L868.7 549L869.1 586.5L869.6 641.7L870 623L870.4 614.1L870.9 521.4L871.3 762L871.8 684.8L872.2 623L872.7 596.5L873.1 600.9L873.6 744.4L874 617.4L874.4 646.1L874.9 692.5L875.3 625.2L875.8 635.1L876.2 558.9L876.7 604.2L877.1 737.7L877.6 586.5L878 688.1L878.4 714.6L878.9 713.4L879.3 583.2L879.8 588.7L880.2 747.7L880.7 640.6L881.1 711.2L881.6 635.1L882 610.8L882.4 562.3L882.9 609.7L883.3 594.3L883.8 629.6L884.2 719L884.7 630.7L885.1 634L885.6 647.2L886 634L886.4 734.4L886.9 609.7L887.3 637.3L887.8 603.1L888.2 635.1L888.7 702.4L889.1 590.9L889.6 635.1L890 587.6L890.4 586.5L890.9 663.8L891.3 675.9L891.8 642.8L892.2 637.3L892.7 577.7L893.1 636.2L893.6 652.8L894 657.2L894.4 596.5L894.9 590.9L895.3 624.1L895.8 632.9L896.2 694.7L896.7 636.2L897.1 594.3L897.6 658.3L898 602L898.4 629.6L898.9 643.9L899.3 689.2L899.8 607.5L900.2 587.6L900.7 629.6L901.1 723.4L901.6 584.3L902 733.3L902.4 667.1L902.9 640.6L903.3 606.4L903.8 608.6L904.2 714.6L904.7 599.8L905.1 513.7L905.6 717.9L906 600.9L906.4 577.7L906.9 628.5L907.3 617.4L907.8 611.9L908.2 536.9L908.7 709L909.1 546.8L909.6 -234.6L910 641.7L910.4 681.4L910.9 530.2L911.3 671.5L911.8 590.9L912.2 577.7L912.7 380.2L913.1 565.6L913.6 594.3L914 669.3L914.4 583.2L914.9 574.4L915.3 312.8L915.8 606.4L916.2 693.6L916.7 566.7L917.1 572.2L917.6 649.4L918 327.2L918.4 596.5L918.9 599.8L919.3 536.9L919.8 575.5L920.2 693.6L920.7 268.7L921.1 630.7L921.6 360.3L922 606.4L922.4 645L922.9 614.1L923.3 345.9L923.8 704.6L924.2 465.1L924.7 637.3L925.1 582.1L925.6 551.2L926 365.8L926.4 509.3L926.9 359.2L927.3 603.1L927.8 534.7L928.2 613L928.7 416.6L929.1 582.1L929.6 422.1L930 685.9L930.4 616.3L930.9 568.9L931.3 376.8L931.8 632.9L932.2 435.3L932.7 631.8L933.1 695.8L933.6 574.4L934 355.9L934.4 558.9L934.9 522.5L935.3 587.6L935.8 549L936.2 620.7L936.7 266.5L937.1 549L937.6 371.3L938 536.9L938.4 712.3L938.9 585.4L939.3 323.9L939.8 607.5L940.2 492.7L940.7 631.8L941.1 596.5L941.6 585.4L942 320.6L942.4 572.2L942.9 358.1L943.3 717.9L943.8 666L944.2 583.2L944.7 375.7L945.1 704.6L945.6 483.9L946 635.1L946.4 607.5L946.9 558.9L947.3 315L947.8 616.3L948.2 426.5L948.7 695.8L949.1 578.8L949.6 710.1L950 477.3L950.4 544.6L950.9 485L951.3 587.6L951.8 606.4L952.2 577.7L952.7 330.5L953.1 683.7L953.6 387.9L954 577.7L954.4 523.6L954.9 625.2L955.3 688.1L955.8 587.6L956.2 386.8L956.7 588.7L957.1 594.3L957.6 717.9L958 544.6L958.4 562.3L958.9 445.3L959.3 634L959.8 579.9L960.2 590.9L960.7 628.5L961.1 605.3L961.6 479.5L962 700.2L962.4 723.4L962.9 630.7L963.3 635.1L963.8 595.4L964.2 696.9L964.7 739.9L965.1 602L965.6 631.8L966 590.9L966.4 557.8L966.9 -223.5L967.3 623L967.8 715.7L968.2 627.4L968.7 704.6L969.1 634L969.6 597.6L970 643.9L970.4 723.4L970.9 594.3L971.3 664.9L971.8 619.6L972.2 712.3L972.7 661.6L973.1 743.2L973.6 677L974 645L974.4 626.3L974.9 574.4L975.3 713.4L975.8 666L976.2 657.2L976.7 618.5L977.1 599.8L977.6 645L978 713.4L978.4 618.5L978.9 608.6L979.3 606.4L979.8 614.1L980.2 575.5L980.7 711.2L981.1 671.5L981.6 704.6L982 664.9L982.4 532.5L982.9 703.5L983.3 562.3L983.8 716.8L984.2 586.5L984.7 632.9L985.1 653.9L985.6 585.4L986 736.6L986.4 608.6L986.9 621.8L987.3 742.1L987.8 621.8L988.2 681.4L988.7 716.8L989.1 589.8L989.6 672.6L990 578.8L990.4 585.4L990.9 638.4L991.3 649.4L991.8 556.7L992.2 604.2L992.7 651.6L993.1 631.8L993.6 585.4L994 675.9L994.4 625.2L994.9 647.2L995.3 675.9L995.8 636.2L996.2 623L996.7 583.2L997.1 661.6L997.6 681.4L998 687L998.4 642.8L998.9 647.2L999.3 606.4L999.8 586.5L1000.2 649.4L1000.7 594.3L1001.1 576.6L1001.6 578.8L1002 607.5L1002.4 615.2L1002.9 540.2L1003.3 663.8L1003.8 734.4L1004.2 532.5L1004.7 564.5L1005.1 565.6L1005.6 596.5L1006 621.8L1006.4 663.8L1006.9 706.8L1007.3 598.7L1007.8 668.2L1008.2 581L1008.7 606.4L1009.1 638.4L1009.6 683.7L1010 694.7L1010.4 582.1L1010.9 667.1L1011.3 460.7L1011.8 534.7L1012.2 602L1012.7 733.3L1013.1 682.5L1013.6 581L1014 587.6L1014.4 618.5L1014.9 727.8L1015.3 668.2L1015.8 681.4L1016.2 534.7L1016.7 624.1L1017.1 658.3L1017.6 615.2L1018 592.1L1018.4 733.3L1018.9 626.3L1019.3 611.9L1019.8 738.8L1020.2 661.6L1020.7 621.8L1021.1 658.3L1021.6 624.1L1022 584.3L1022.4 588.7L1022.9 575.5L1023.3 607.5L1023.8 630.7L1024.2 553.4L1024.7 -367L1025.1 605.3L1025.6 600.9L1026 588.7L1026.4 616.3L1026.9 643.9L1027.3 590.9L1027.8 345.9L1028.2 553.4L1028.7 585.4L1029.1 699.1L1029.6 535.8L1030 615.2L1030.4 438.6L1030.9 555.6L1031.3 659.4L1031.8 712.3L1032.2 618.5L1032.7 572.2L1033.1 300.7L1033.6 713.4L1034 512.6L1034.4 608.6L1034.9 543.5L1035.3 688.1L1035.8 243.3L1036.2 563.4L1036.7 456.3L1037.1 712.3L1037.6 597.6L1038 585.4L1038.4 285.2L1038.9 588.7L1039.3 359.2L1039.8 704.6L1040.2 616.3L1040.7 511.5L1041.1 359.2L1041.6 593.2L1042 365.8L1042.4 586.5L1042.9 491.6L1043.3 668.2L1043.8 311.7L1044.2 587.6L1044.7 421L1045.1 572.2L1045.6 587.6L1046 512.6L1046.4 307.3L1046.9 598.7L1047.3 474L1047.8 549L1048.2 508.2L1048.7 547.9L1049.1 338.2L1049.6 448.6L1050 413.3L1050.4 598.7L1050.9 593.2L1051.3 589.8L1051.8 279.7L1052.2 631.8L1052.7 405.5L1053.1 652.8L1053.6 615.2L1054 506L1054.4 270.9L1054.9 618.5L1055.3 519.2L1055.8 713.4L1056.2 552.3L1056.7 593.2L1057.1 265.4L1057.6 618.5L1058 421L1058.4 598.7L1058.9 611.9L1059.3 565.6L1059.8 376.8L1060.2 614.1L1060.7 446.4L1061.1 651.6L1061.6 650.5L1062 585.4L1062.4 288.6L1062.9 599.8L1063.3 433.1L1063.8 648.3L1064.2 595.4L1064.7 617.4L1065.1 307.3L1065.6 677L1066 395.6L1066.4 554.5L1066.9 558.9L1067.3 621.8L1067.8 276.4L1068.2 535.8L1068.7 340.4L1069.1 563.4L1069.6 731.1L1070 600.9L1070.4 594.3L1070.9 603.1L1071.3 448.6L1071.8 719L1072.2 577.7L1072.7 552.3L1073.1 587.6L1073.6 694.7L1074 453L1074.4 723.4L1074.9 673.7L1075.3 717.9L1075.8 726.7L1076.2 655L1076.7 435.3L1077.1 600.9L1077.6 716.8L1078 719L1078.4 632.9L1078.9 626.3L1079.3 632.9L1079.8 621.8L1080.2 689.2L1080.7 728.9L1081.1 603.1L1081.6 588.7L1082 -218L1082.4 541.3L1082.9 556.7L1083.3 673.7L1083.8 615.2L1084.2 626.3L1084.7 699.1L1085.1 648.3L1085.6 598.7L1086 643.9L1086.4 713.4L1086.9 652.8L1087.3 614.1L1087.8 603.1L1088.2 628.5L1088.7 626.3L1089.1 550.1L1089.6 648.3L1090 658.3L1090.4 717.9L1090.9 606.4L1091.3 698L1091.8 564.5L1092.2 656.1L1092.7 655L1093.1 706.8L1093.6 645L1094 642.8L1094.4 636.2L1095.3 584.3L1095.8 727.8L1096.2 589.8L1096.7 588.7L1097.1 615.2L1097.6 630.7L1098 615.2L1098.4 635.1L1098.9 627.4L1099.3 669.3L1099.8 606.4L1100.2 723.4L1100.7 627.4L1101.1 647.2L1101.6 650.5L1102 703.5L1102.4 621.8L1102.9 635.1L1103.8 704.6L1104.2 656.1L1104.7 604.2L1105.1 636.2L1105.6 732.2L1106 624.1L1106.4 691.4L1106.9 597.6L1107.3 705.7L1107.8 653.9L1108.2 616.3L1108.7 727.8L1109.1 634L1109.6 621.8L1110 556.7L1110.4 637.3L1110.9 609.7L1111.3 702.4L1111.8 624.1L1112.2 598.7L1112.7 684.8L1113.1 648.3L1113.6 672.6L1114 572.2L1114.4 577.7L1114.9 618.5L1115.3 554.5L1115.8 677L1116.2 704.6L1116.7 558.9L1117.1 617.4L1117.6 627.4L1118 585.4L1118.4 681.4L1118.9 624.1L1119.8 670.4L1120.2 610.8L1120.7 535.8L1121.1 593.2L1121.6 712.3L1122 636.2L1122.4 526.9L1122.9 656.1L1123.3 613L1123.8 619.6L1124.2 663.8L1124.7 631.8L1125.1 544.6L1125.6 659.4L1126 626.3L1126.4 637.3L1126.9 594.3L1127.3 608.6L1127.8 656.1L1128.2 659.4L1128.7 609.7L1129.1 595.4L1129.6 606.4L1130 648.3L1130.4 607.5L1130.9 603.1L1131.3 679.2L1131.8 745.5L1132.2 636.2L1132.7 609.7L1133.1 586.5L1133.6 603.1L1134 524.7L1134.4 556.7L1134.9 554.5L1135.3 614.1L1135.8 727.8L1136.2 542.4L1136.7 589.8L1137.1 724.5L1137.6 653.9L1138 662.7L1138.4 600.9L1138.9 583.2L1139.3 630.7L1139.8 545.7L1140.2 -325.1L1140.7 624.1L1141.1 704.6L1141.6 536.9L1142 605.3L1142.4 679.2L1142.9 617.4L1143.3 355.9L1143.8 587.6L1144.2 606.4L1144.7 637.3L1145.1 674.8L1145.6 632.9L1146 449.7L1146.4 563.4L1146.9 607.5L1147.3 590.9L1147.8 539.1L1148.2 681.4L1148.7 373.5L1149.1 663.8L1149.6 611.9L1150 567.8L1150.4 614.1L1150.9 613L1151.3 293L1151.8 605.3L1152.2 449.7L1152.7 553.4L1153.1 578.8L1153.6 556.7L1154 274.2L1154.4 536.9L1154.9 430.9L1155.3 711.2L1155.8 596.5L1156.2 588.7L1156.7 240L1157.1 691.4L1157.6 365.8L1158 596.5L1158.4 664.9L1158.9 566.7L1159.3 266.5L1159.8 560L1160.2 446.4L1160.7 554.5L1161.1 643.9L1161.6 577.7L1162 395.6L1162.4 522.5L1162.9 402.2L1163.3 582.1L1163.8 599.8L1164.2 684.8L1164.7 321.7L1165.1 621.8L1165.6 416.6L1166 711.2L1166.4 541.3L1166.9 572.2L1167.3 307.3L1167.8 547.9L1168.2 446.4L1168.7 624.1L1169.1 714.6L1169.6 533.6L1170 258.8L1170.4 523.6L1170.9 448.6L1171.3 475.1L1171.8 624.1L1172.2 613L1172.7 308.4L1173.1 567.8L1173.6 454.1L1174 596.5L1174.4 611.9L1174.9 547.9L1175.3 336L1175.8 613L1176.2 531.4L1176.7 711.2L1177.1 710.1L1177.6 632.9L1178 328.3L1178.4 609.7L1178.9 362.5L1179.3 550.1L1179.8 598.7L1180.2 616.3L1180.7 308.4L1181.1 585.4L1181.6 382.4L1182 549L1182.4 619.6L1182.9 605.3L1183.3 277.5L1183.8 599.8L1184.2 405.5L1184.7 604.2L1185.1 653.9L1185.6 652.8L1186 599.8L1186.4 614.1L1186.9 391.2L1187.3 597.6L1187.8 606.4L1188.2 593.2L1188.7 650.5L1189.1 681.4L1189.6 497.1L1190 576.6L1190.4 694.7L1190.9 703.5L1191.3 642.8L1191.8 618.5L1192.2 466.2L1192.7 610.8L1193.1 638.4L1193.6 619.6L1194 667.1L1194.4 693.6L1194.9 629.6L1195.3 623L1195.8 626.3L1196.2 698L1196.7 609.7L1197.1 -203.7L1197.6 631.8L1198 621.8L1198.4 652.8L1198.9 588.7L1199.3 709L1199.8 604.2L1200.2 625.2L1200.7 663.8L1201.6 608.6L1202 716.8L1202.4 621.8L1202.9 660.5L1203.3 652.8L1203.8 594.3L1204.2 604.2L1204.7 562.3L1205.1 540.2L1205.6 578.8L1206 634L1206.4 572.2L1206.9 733.3L1207.3 602L1207.8 705.7L1208.2 668.2L1208.7 651.6L1209.1 600.9L1209.6 656.1L1210 714.6L1210.4 627.4L1210.9 736.6L1211.3 703.5L1211.8 641.7L1212.2 628.5L1212.7 673.7L1213.1 646.1L1213.6 631.8L1214 586.5L1214.4 704.6L1214.9 646.1L1215.3 557.8L1215.8 594.3L1216.2 590.9L1216.7 680.3L1217.1 636.2L1217.6 635.1L1218 602L1218.4 568.9L1218.9 598.7L1219.3 577.7L1219.8 652.8L1220.2 594.3L1220.7 743.2L1221.1 629.6L1221.6 746.6L1222 645L1222.4 571.1L1222.9 609.7L1223.3 599.8L1223.8 563.4L1224.2 590.9L1225.1 683.7L1225.6 561.1L1226 576.6L1226.4 542.4L1226.9 588.7L1227.3 613L1227.8 714.6L1228.2 621.8L1228.7 584.3L1229.1 599.8L1229.6 603.1L1230 570L1230.4 593.2L1230.9 674.8L1231.3 592.1L1231.8 562.3L1232.2 648.3L1232.7 614.1L1233.1 620.7L1233.6 630.7L1234 638.4L1234.4 667.1L1234.9 643.9L1235.3 705.7L1235.8 626.3L1236.2 615.2L1236.7 589.8L1237.1 597.6L1237.6 614.1L1238 656.1L1238.4 735.5L1238.9 734.4L1239.3 746.6L1239.8 583.2L1240.2 544.6L1240.7 649.4L1241.1 596.5L1241.6 636.2L1242 572.2L1242.4 648.3L1242.9 617.4L1243.3 695.8L1243.8 606.4L1244.2 630.7L1244.7 721.2L1245.1 639.5L1245.6 544.6L1246 673.7L1246.4 666L1246.9 684.8L1247.3 636.2L1247.8 609.7L1248.2 625.2L1248.7 616.3L1249.1 635.1L1249.6 691.4L1250 522.5L1250.4 593.2L1250.9 647.2L1251.3 619.6L1251.8 730L1252.2 623L1252.7 647.2L1253.1 541.3L1253.6 659.4L1254 623L1254.4 606.4L1254.9 482.8L1255.3 -285.3L1255.8 655L1256.2 705.7L1256.7 677L1257.1 656.1L1257.6 590.9L1258 584.3L1258.4 390.1L1258.9 607.5L1259.3 742.1L1259.8 578.8L1260.2 615.2L1260.7 581L1261.1 353.7L1261.6 521.4L1262 643.9L1262.4 534.7L1262.9 524.7L1263.3 672.6L1263.8 375.7L1264.2 571.1L1264.7 602L1265.1 562.3L1265.6 613L1266 593.2L1266.4 291.9L1266.9 546.8L1267.3 313.9L1267.8 577.7L1268.2 585.4L1268.7 564.5L1269.1 320.6L1269.6 549L1270 369.1L1270.4 620.7L1270.9 617.4L1271.3 539.1L1271.8 325L1272.2 687L1272.7 347L1273.1 519.2L1273.6 693.6L1274 663.8L1274.4 302.9L1274.9 682.5L1275.3 330.5L1275.8 491.6L1276.2 602L1276.7 672.6L1277.1 384.6L1277.6 544.6L1278 435.3L1278.4 578.8L1278.9 615.2L1279.3 600.9L1279.8 358.1L1280.2 596.5L1280.7 466.2L1281.1 581L1281.6 607.5L1282 538L1282.4 272L1282.9 624.1L1283.3 366.9L1283.8 715.7L1284.2 595.4L1284.7 597.6L1285.1 311.7L1285.6 618.5L1286 419.9L1286.4 681.4L1286.9 582.1L1287.3 623L1287.8 311.7L1288.2 494.9L1288.7 422.1L1289.1 683.7L1289.6 524.7L1290 711.2L1290.4 263.2L1290.9 630.7L1291.3 358.1L1291.8 583.2L1292.2 696.9L1292.7 575.5L1293.1 267.6L1293.6 597.6L1294 374.6L1294.4 615.2L1294.9 642.8L1295.3 588.7L1295.8 400L1296.2 573.3L1296.7 338.2L1297.1 695.8L1297.6 520.3L1298 562.3L1298.4 398.9L1298.9 518.1L1299.3 371.3L1299.8 664.9L1300.2 602L1300.7 600.9L1301.1 538L1301.6 584.3L1302 428.7L1302.4 611.9L1302.9 712.3L1303.3 587.6L1303.8 557.8L1304.2 620.7L1304.7 412.2L1305.1 603.1L1305.6 625.2L1306 626.3L1306.4 540.2L1306.9 573.3L1307.3 456.3L1307.8 699.1L1308.2 543.5L1308.7 568.9L1309.1 671.5L1309.6 553.4L1310 538L1310.4 615.2L1310.9 639.5L1311.3 593.2L1311.8 630.7L1312.2 583.2L1312.7 555.6L1313.1 -186L1313.6 646.1L1314 730L1314.4 653.9L1314.9 630.7L1315.3 720.1L1315.8 645L1316.2 603.1L1316.7 685.9L1317.1 596.5L1317.6 745.5L1318 597.6L1318.4 681.4L1318.9 535.8L1319.3 623L1319.8 736.6L1320.2 624.1L1320.7 538L1321.1 617.4L1321.6 541.3L1322 657.2L1322.4 710.1L1322.9 721.2L1323.3 653.9L1323.8 604.2L1324.2 606.4L1324.7 741L1325.1 616.3L1325.6 615.2L1326 650.5L1326.4 743.2L1326.9 661.6L1327.3 572.2L1327.8 647.2L1328.2 648.3L1328.7 681.4L1329.1 648.3L1329.6 669.3L1330 653.9L1330.4 627.4L1330.9 659.4L1331.3 710.1L1331.8 625.2L1332.2 638.4L1332.7 692.5L1333.1 540.2L1333.6 596.5L1334 554.5L1334.4 637.3L1334.9 710.1L1335.3 605.3L1335.8 571.1L1336.2 674.8L1336.7 562.3L1337.1 598.7L1337.6 710.1L1338 603.1L1338.4 607.5L1338.9 728.9L1339.3 627.4L1339.8 600.9L1340.2 628.5L1340.7 638.4L1341.1 584.3L1341.6 552.3L1342 600.9L1342.4 671.5L1342.9 703.5L1343.3 620.7L1343.8 567.8L1344.2 650.5L1344.7 627.4L1345.1 670.4L1345.6 536.9L1346 678.1L1346.4 632.9L1346.9 621.8L1347.3 647.2L1347.8 726.7L1348.2 616.3L1348.7 677L1349.1 603.1L1349.6 617.4L1350 611.9L1350.4 701.3L1350.9 588.7L1351.3 690.3L1351.8 620.7L1352.2 643.9L1352.7 615.2L1353.1 649.4L1353.6 603.1L1354 606.4L1354.4 613L1354.9 738.8L1355.3 599.8L1355.8 578.8L1356.2 713.4L1356.7 661.6L1357.1 609.7L1357.6 608.6L1358 616.3L1358.4 684.8L1358.9 613L1359.3 630.7L1359.8 615.2L1360.2 606.4L1360.7 640.6L1361.1 634L1361.6 579.9L1362 614.1L1362.4 679.2L1362.9 661.6L1363.3 558.9L1363.8 613L1364.2 607.5L1364.7 575.5L1365.1 737.7L1365.6 594.3L1366 631.8L1366.4 641.7L1366.9 593.2L1367.3 553.4L1367.8 562.3L1368.2 663.8L1368.7 535.8L1369.1 603.1L1369.6 643.9L1370 590.9L1370.4 700.2L1370.9 529.1L1371.3 -253.3L1371.8 631.8L1372.2 558.9L1372.7 609.7L1373.1 626.3L1373.6 634L1374 663.8L1374.4 408.9L1374.9 542.4L1375.8 602L1376.2 595.4L1376.7 541.3L1377.1 316.1L1377.6 573.3L1378 594.3L1378.4 643.9L1378.9 707.9L1379.3 625.2L1379.8 307.3L1380.2 610.8L1380.7 607.5L1381.1 575.5L1381.6 698L1382 700.2L1382.4 361.4L1382.9 560L1383.3 398.9L1383.8 609.7L1384.2 635.1L1384.7 651.6L1385.1 301.8L1385.6 643.9L1386 500.5L1386.4 608.6L1386.9 605.3L1387.3 538L1387.8 317.2L1388.2 602L1388.7 342.6L1389.1 614.1L1389.6 650.5L1390 621.8L1390.4 371.3L1390.9 565.6L1391.3 345.9L1391.8 653.9L1392.2 642.8L1392.7 690.3L1393.1 379.1L1393.6 552.3L1394 526.9L1394.4 594.3L1394.9 518.1L1395.3 621.8L1395.8 371.3L1396.2 531.4L1396.7 334.9L1397.1 659.4L1397.6 655L1398 620.7L1398.4 360.3L1398.9 542.4L1399.3 433.1L1399.8 568.9L1400.2 621.8L1400.7 594.3L1401.1 339.3L1401.6 598.7L1402 328.3L1402.4 649.4L1402.9 627.4L1403.3 611.9L1403.8 370.2L1404.2 607.5L1404.7 447.5L1405.1 590.9L1405.6 657.2L1406 618.5L1406.4 254.3L1406.9 576.6L1407.3 453L1407.8 732.2L1408.2 625.2L1408.7 556.7L1409.1 433.1L1409.6 598.7L1410 429.8L1410.4 573.3L1410.9 717.9L1411.3 635.1L1411.8 401.1L1412.2 586.5L1412.7 520.3L1413.1 565.6L1413.6 496L1414 695.8L1414.4 291.9L1414.9 530.2L1415.3 459.6L1415.8 611.9L1416.2 572.2L1416.7 611.9L1417.1 582.1L1417.6 562.3L1418 413.3L1418.4 589.8L1418.9 736.6L1419.3 643.9L1419.8 590.9L1420.2 625.2L1420.7 395.6L1421.1 636.2L1421.6 681.4L1422 572.2L1422.4 607.5L1422.9 613L1423.3 531.4L1423.8 577.7L1424.2 693.6L1424.7 636.2L1425.1 735.5L1425.6 672.6L1426 595.4L1426.4 583.2L1426.9 663.8L1427.3 630.7L1427.8 616.3L1428.2 -197L1428.7 735.5L1429.1 603.1L1429.6 647.2L1430 577.7L1430.4 721.2L1430.9 685.9L1431.3 675.9L1431.8 696.9L1432.2 659.4L1432.7 650.5L1433.6 618.5L1434 599.8L1434.4 653.9L1434.9 647.2L1435.3 687L1435.8 619.6L1436.2 574.4L1436.7 714.6L1437.1 603.1L1437.6 694.7L1438 616.3L1438.4 568.9L1438.9 610.8L1439.3 560L1439.8 705.7L1440.2 597.6L1440.7 668.2L1441.1 626.3L1441.6 715.7L1442 613L1442.4 648.3L1442.9 585.4L1443.3 681.4L1443.8 603.1L1444.2 723.4L1444.7 607.5L1445.1 634L1445.6 706.8L1446 673.7L1446.4 641.7L1446.9 630.7L1447.3 703.5L1447.8 687L1448.2 614.1L1448.7 661.6L1449.1 628.5L1449.6 621.8L1450 583.2L1450.4 599.8L1450.9 631.8L1451.3 638.4L1451.8 627.4L1452.2 634L1452.7 629.6L1453.1 560L1453.6 731.1L1454 679.2L1454.4 558.9L1454.9 629.6L1455.3 623L1455.8 636.2L1456.2 727.8L1456.7 588.7L1457.1 681.4L1457.6 641.7L1458 637.3L1458.4 588.7L1458.9 620.7L1459.3 640.6L1459.8 529.1L1460.2 637.3L1460.7 626.3L1461.1 571.1L1461.6 618.5L1462 582.1L1462.4 623L1462.9 533.6L1463.3 692.5L1463.8 663.8L1464.2 615.2L1464.7 647.2L1465.1 588.7L1465.6 617.4L1466 608.6L1466.4 670.4L1466.9 716.8L1467.3 589.8L1467.8 674.8L1468.2 566.7L1468.7 590.9L1469.1 749.9L1469.6 588.7L1470 728.9L1470.4 624.1L1470.9 657.2L1471.3 725.6L1471.8 698L1472.2 609.7L1472.7 619.6L1473.1 673.7L1473.6 618.5L1474 599.8L1474.4 620.7L1474.9 641.7L1475.3 688.1L1475.8 573.3L1476.2 587.6L1476.7 717.9L1477.1 554.5L1477.6 563.4L1478 574.4L1478.4 621.8L1478.9 652.8L1479.3 734.4L1479.8 712.3L1480.2 657.2L1480.7 679.2L1481.1 590.9L1481.6 631.8L1482 599.8L1482.4 582.1L1482.9 712.3L1483.3 714.6L1483.8 677L1484.2 670.4L1484.7 594.3L1485.1 608.6L1485.6 485L1486 567.8L1486.4 -191.5L1486.9 567.8L1487.3 693.6L1487.8 655L1488.2 657.2L1488.7 606.4L1489.1 632.9L1489.6 381.3L1490 526.9L1490.4 613L1490.9 567.8L1491.3 575.5L1491.8 652.8L1492.2 379.1L1492.7 661.6L1493.1 564.5L1493.6 575.5L1494 609.7L1494.4 587.6L1494.9 315L1495.3 614.1L1495.8 631.8L1496.7 694.7L1497.1 713.4L1497.6 302.9L1498 560L1498.4 460.7L1498.9 529.1L1499.3 603.1L1499.8 677L1500.2 381.3L1500.7 443.1L1501.1 449.7L1501.6 710.1L1502 577.7L1502.4 584.3L1502.9 384.6L1503.3 607.5L1503.8 450.8L1504.2 596.5L1504.7 640.6L1505.1 610.8L1505.6 342.6L1506 624.1L1506.4 376.8L1506.9 476.2L1507.3 656.1L1507.8 577.7L1508.2 355.9L1508.7 576.6L1509.1 413.3L1509.6 651.6L1510 706.8L1510.4 631.8L1510.9 288.6L1511.3 577.7L1511.8 450.8L1512.2 614.1L1512.7 725.6L1513.1 552.3L1513.6 425.4L1514 630.7L1514.4 544.6L1514.9 629.6L1515.3 721.2L1515.8 709L1516.2 436.4L1516.7 562.3L1517.1 477.3L1517.6 595.4L1518 609.7L1518.4 623L1518.9 462.9L1519.3 571.1L1519.8 408.9L1520.2 606.4L1520.7 567.8L1521.1 482.8L1521.6 312.8L1522 482.8L1522.4 394.5L1522.9 493.8L1523.3 570L1524.2 320.6L1524.7 613L1525.1 430.9L1525.6 652.8L1526 490.5L1526.4 691.4L1526.9 340.4L1527.3 607.5L1527.8 350.4L1528.2 705.7L1528.7 592.1L1529.1 594.3L1529.6 365.8L1530 626.3L1530.4 453L1530.9 562.3L1531.3 643.9L1531.8 630.7L1532.2 649.4L1532.7 640.6L1533.1 482.8L1533.6 617.4L1534 655L1534.4 556.7L1534.9 615.2L1535.3 724.5L1535.8 423.2L1536.2 573.3L1536.7 517L1537.1 630.7L1537.6 538L1538 600.9L1538.4 417.7L1538.9 692.5L1539.3 706.8L1539.8 552.3L1540.2 632.9L1540.7 613L1541.1 636.2L1541.6 667.1L1542 628.5L1542.4 743.2L1542.9 629.6L1543.3 -214.7L1543.8 655L1544.2 743.2L1544.7 568.9L1545.1 694.7L1545.6 638.4L1546 651.6L1546.4 663.8L1546.9 587.6L1547.3 641.7L1547.8 583.2L1548.2 539.1L1548.7 638.4L1549.1 667.1L1549.6 709L1550 689.2L1550.4 607.5L1550.9 719L1551.3 706.8L1551.8 592.1L1552.2 534.7L1552.7 698L1553.1 605.3L1553.6 625.2L1554 611.9L1554.4 679.2L1554.9 669.3L1555.3 679.2L1555.8 631.8L1556.2 663.8L1556.7 582.1L1557.1 660.5L1557.6 629.6L1558 616.3L1558.4 590.9L1558.9 618.5L1559.3 657.2L1559.8 590.9L1560.2 629.6L1560.7 615.2L1561.1 646.1L1561.6 651.6L1562 599.8L1562.4 719L1562.9 630.7L1563.3 671.5L1563.8 575.5L1564.2 568.9L1564.7 698L1565.1 594.3L1565.6 553.4L1566 575.5L1566.4 602L1566.9 652.8L1567.3 554.5L1567.8 609.7L1568.2 621.8L1568.7 713.4L1569.1 573.3L1569.6 623L1570 682.5L1570.4 594.3L1570.9 703.5L1571.3 620.7L1571.8 524.7L1572.2 582.1L1572.7 635.1L1573.1 663.8L1573.6 613L1574 528L1574.4 727.8L1574.9 690.3L1575.3 661.6L1575.8 625.2L1576.2 658.3L1576.7 605.3L1577.1 617.4L1578 572.2L1578.4 611.9L1578.9 597.6L1579.3 709L1579.8 611.9L1580.2 613L1580.7 563.4L1581.1 566.7L1581.6 588.7L1582 615.2L1582.4 552.3L1582.9 637.3L1583.3 651.6L1583.8 585.4L1584.2 617.4L1584.7 596.5L1585.1 600.9L1585.6 594.3L1586 529.1L1586.4 621.8L1586.9 632.9L1587.3 705.7L1587.8 606.4L1588.2 657.2L1588.7 592.1L1589.1 568.9L1589.6 702.4L1590 608.6L1590.4 649.4L1590.9 637.3L1591.3 582.1L1591.8 675.9L1592.2 602L1592.7 587.6L1593.1 589.8L1593.6 643.9L1594 639.5L1594.4 643.9L1594.9 570L1595.3 561.1L1595.8 615.2L1596.2 587.6L1596.7 745.5L1597.1 648.3L1597.6 647.2L1598 619.6L1598.4 625.2L1598.9 604.2L1599.3 694.7L1599.8 656.1L1600.2 544.6L1600.7 571.1L1601.1 556.7L1601.6 -437.6L1602 716.8L1602.4 526.9L1602.9 624.1L1603.3 641.7L1603.8 720.1L1604.2 717.9L1604.7 368L1605.1 624.1L1605.6 623L1606 671.5L1606.4 556.7L1606.9 546.8L1607.3 287.5L1607.8 598.7L1608.2 574.4L1608.7 631.8L1609.1 695.8L1609.6 673.7L1610 322.8L1610.4 632.9L1610.9 561.1L1611.3 650.5L1611.8 731.1L1612.2 610.8L1612.7 398.9L1613.1 553.4L1613.6 395.6L1614 647.2L1614.4 626.3L1614.9 583.2L1615.3 329.4L1615.8 602L1616.2 480.6L1616.7 550.1L1617.6 583.2L1618 419.9L1618.4 570L1618.9 476.2L1619.3 557.8L1619.8 623L1620.2 606.4L1620.7 369.1L1621.1 607.5L1621.6 440.9L1622 481.7L1622.4 509.3L1622.9 629.6L1623.3 344.8L1623.8 598.7L1624.2 449.7L1624.7 713.4L1625.1 498.2L1625.6 474L1626 261L1626.4 493.8L1626.9 394.5L1627.3 556.7L1627.8 526.9L1628.2 529.1L1628.7 406.6L1629.1 522.5L1629.6 449.7L1630 609.7L1630.4 705.7L1630.9 577.7L1631.3 331.6L1631.8 552.3L1632.2 329.4L1632.7 723.4L1633.1 589.8L1633.6 583.2L1634 389L1634.4 679.2L1634.9 361.4L1635.3 546.8L1635.8 600.9L1636.2 557.8L1636.7 307.3L1637.1 561.1L1637.6 454.1L1638 518.1L1638.4 632.9L1638.9 521.4L1639.3 328.3L1639.8 567.8L1640.2 526.9L1640.7 561.1L1641.1 568.9L1641.6 539.1L1642 368L1642.4 549L1642.9 306.2L1643.3 570L1643.8 592.1L1644.2 632.9L1644.7 272L1645.1 652.8L1645.6 455.2L1646 566.7L1646.4 500.5L1646.9 525.8L1647.3 695.8L1647.8 585.4L1648.2 395.6L1648.7 709L1649.1 679.2L1649.6 563.4L1650 572.2L1650.4 523.6L1650.9 472.9L1651.3 656.1L1651.8 608.6L1652.2 584.3L1652.7 566.7L1653.1 528L1653.6 464L1654 636.2L1654.4 639.5L1654.9 629.6L1655.3 712.3L1655.8 695.8L1656.2 572.2L1656.7 634L1657.1 720.1L1657.6 629.6L1658 695.8L1658.4 609.7L1658.9 -297.5L1659.3 561.1L1659.8 594.3L1660.2 702.4L1660.7 577.7L1661.1 666L1661.6 668.2L1662 672.6L1662.4 628.5L1662.9 657.2L1663.3 715.7L1663.8 586.5L1664.2 609.7L1664.7 615.2L1665.1 602L1665.6 647.2L1666 585.4L1666.4 679.2L1666.9 607.5L1667.3 675.9L1667.8 616.3L1668.2 647.2L1668.7 635.1L1669.1 636.2L1669.6 699.1L1670 602L1670.4 571.1L1670.9 637.3L1671.3 572.2L1671.8 672.6L1672.2 652.8L1672.7 616.3L1673.1 585.4L1673.6 645L1674 588.7L1674.4 614.1L1674.9 648.3L1675.3 646.1L1675.8 618.5L1676.2 648.3L1676.7 695.8L1677.1 662.7L1677.6 730L1678 598.7L1678.4 656.1L1678.9 474L1679.3 606.4L1679.8 609.7L1680.2 643.9L1680.7 627.4L1681.1 643.9L1681.6 650.5L1682 638.4L1682.4 571.1L1682.9 579.9L1683.3 664.9L1683.8 649.4L1684.2 558.9L1684.7 668.2L1685.1 611.9L1685.6 579.9L1686 690.3L1686.4 637.3L1686.9 566.7L1687.3 554.5L1687.8 635.1L1688.2 609.7L1688.7 662.7L1689.1 616.3L1689.6 596.5L1690 546.8L1690.4 593.2L1690.9 632.9L1691.3 620.7L1691.8 545.7L1692.2 572.2L1692.7 725.6L1693.1 583.2L1693.6 573.3L1694 610.8L1694.4 576.6L1694.9 567.8L1695.3 597.6L1695.8 625.2L1696.2 693.6L1696.7 620.7L1697.1 661.6L1697.6 560L1698 596.5L1698.4 577.7L1698.9 543.5L1699.3 540.2L1699.8 685.9L1700.2 643.9L1700.7 637.3L1701.1 523.6L1701.6 677L1702 611.9L1702.4 638.4L1702.9 655L1703.3 681.4L1703.8 690.3L1704.2 629.6L1704.7 626.3L1705.1 655L1705.6 606.4L1706 565.6L1706.4 620.7L1706.9 614.1L1707.3 627.4L1707.8 570L1708.2 698L1708.7 668.2L1709.1 621.8L1709.6 717.9L1710 620.7L1710.4 584.3L1710.9 668.2L1711.3 646.1L1711.8 544.6L1712.2 618.5L1712.7 542.4L1713.1 716.8L1713.6 634L1714 572.2L1714.4 626.3L1714.9 629.6L1715.3 542.4L1715.8 608.6L1716.2 503.8L1716.7 -288.6L1717.1 598.7L1717.6 639.5L1718 690.3L1718.4 639.5L1718.9 594.3L1719.3 581L1719.8 327.2L1720.2 575.5L1720.7 542.4L1721.1 560L1721.6 640.6L1722 607.5L1722.4 350.4L1722.9 722.3L1723.3 585.4L1723.8 562.3L1724.2 650.5L1724.7 621.8L1725.1 265.4L1725.6 608.6L1726 693.6L1726.4 627.4L1726.9 608.6L1727.3 625.2L1727.8 308.4L1728.2 558.9L1728.7 418.8L1729.1 585.4L1729.6 719L1730 673.7L1730.4 291.9L1730.9 629.6L1731.3 419.9L1731.8 616.3L1732.2 590.9L1732.7 640.6L1733.1 281.9L1733.6 614.1L1734 428.7L1734.4 602L1734.9 577.7L1735.3 623L1735.8 309.5L1736.2 540.2L1736.7 511.5L1737.1 611.9L1737.6 552.3L1738 600.9L1738.4 404.4L1738.9 562.3L1739.3 376.8L1739.8 581L1740.2 560L1740.7 572.2L1741.1 354.8L1741.6 685.9L1742 482.8L1742.4 535.8L1742.9 592.1L1743.3 583.2L1743.8 261L1744.2 610.8L1744.7 454.1L1745.1 576.6L1745.6 624.1L1746 711.2L1746.4 338.2L1746.9 546.8L1747.3 454.1L1747.8 583.2L1748.2 558.9L1748.7 692.5L1749.1 222.3L1749.6 553.4L1750 385.7L1750.4 630.7L1750.9 646.1L1751.3 486.1L1751.8 412.2L1752.2 596.5L1752.7 482.8L1753.1 603.1L1753.6 634L1754 646.1L1754.4 268.7L1754.9 572.2L1755.3 447.5L1755.8 666L1756.2 575.5L1756.7 593.2L1757.1 284.1L1757.6 586.5L1758 447.5L1758.4 531.4L1758.9 677L1759.3 581L1759.8 288.6L1760.2 652.8L1760.7 454.1L1761.1 599.8L1761.6 675.9L1762 707.9L1762.4 533.6L1762.9 568.9L1763.3 455.2L1763.8 696.9L1764.2 593.2L1764.7 664.9L1765.1 590.9L1765.6 600.9L1766 564.5L1766.4 588.7L1766.9 554.5L1767.3 655L1767.8 666L1768.2 614.1L1768.7 462.9L1769.1 652.8L1769.6 555.6L1770 619.6L1770.4 631.8L1770.9 620.7L1771.3 562.3L1771.8 713.4L1772.2 667.1L1772.7 687L1773.1 683.7L1773.6 637.3L1774 -101L1774.4 572.2L1774.9 602L1775.3 630.7L1775.8 639.5L1776.2 607.5L1776.7 653.9L1777.1 623L1777.6 597.6L1778 630.7L1778.4 578.8L1778.9 646.1L1779.3 582.1L1779.8 618.5L1780.2 585.4L1780.7 618.5L1781.1 588.7L1781.6 659.4L1782 620.7L1782.4 634L1782.9 737.7L1783.3 700.2L1783.8 662.7L1784.2 604.2L1784.7 658.3L1785.1 624.1L1785.6 610.8L1786 728.9L1786.4 655L1786.9 653.9L1787.3 694.7L1787.8 640.6L1788.2 664.9L1788.7 625.2L1789.1 678.1L1789.6 620.7L1790 597.6L1790.4 660.5L1790.9 582.1L1791.3 615.2L1791.8 561.1L1792.2 570L1792.7 571.1L1793.1 682.5L1793.6 681.4L1794 624.1L1794.4 658.3L1794.9 567.8L1795.3 526.9L1795.8 571.1L1796.2 681.4L1796.7 531.4L1797.1 610.8L1797.6 634L1798 593.2L1798.4 610.8L1798.9 629.6L1799.3 619.6L1799.8 606.4" fill="transparent" stroke="#3fb1e3" stroke-width="3" stroke-linejoin="bevel" class="zr13-cls-41"></path>
</g>
<path d="M-233.3 -5l466.7 0l0 28l-466.7 0Z" transform="translate(1000 5)" fill="rgb(0,0,0)" fill-opacity="0" stroke="#ccc" stroke-width="0" class="zr13-cls-39"></path>
<text dominant-baseline="central" text-anchor="middle" style="font-size:18px;font-family:sans-serif;font-weight:bold;" xml:space="preserve" y="9" transform="translate(1000 5)" fill="#666666">Min controlBehaviorUpdate per Tick for benchmark_abuc</text>
<defs >
<clipPath id="zr13-c0">
<path d="M198 58.5l16004 0l0 8703l-16004 0Z" fill="#000" class="zr13-cls-40"></path>
</clipPath>
</defs>
<style ><![CDATA[
.zr13-cls-39:hover {
pointer-events:none;
}
.zr13-cls-40:hover {
cursor:pointer;
fill:rgba(0,0,0,1);
}
.zr13-cls-41:hover {
cursor:pointer;
}

]]>

</style>
</svg>