<svg width="2000" height="1000" xmlns="http://www.w3.org/2000/svg" xmlns:xlink="http://www.w3.org/1999/xlink" version="1.1" baseProfile="full" viewBox="0 0 2000 1000">
<rect width="2000" height="1000" x="0" y="0" fill="rgb(252,252,252)" fill-opacity="0"></rect>
<path d="M200 930.5L1800 930.5" fill="transparent" stroke="#eeeeee" class="zr7-cls-21"></path>
<path d="M200 732.5L1800 732.5" fill="transparent" stroke="#eeeeee" class="zr7-cls-21"></path>
<path d="M200 534.5L1800 534.5" fill="transparent" stroke="#eeeeee" class="zr7-cls-21"></path>
<path d="M200 337.5L1800 337.5" fill="transparent" stroke="#eeeeee" class="zr7-cls-21"></path>
<path d="M200 139.5L1800 139.5" fill="transparent" stroke="#eeeeee" class="zr7-cls-21"></path>
<path d="M200 60.5L1800 60.5" fill="transparent" stroke="#eeeeee" class="zr7-cls-21"></path>
<path d="M200.5 930L200.5 60" fill="transparent" stroke="#cccccc" stroke-linecap="round" class="zr7-cls-21"></path>
<text dominant-baseline="central" text-anchor="middle" style="font-size:12px;font-family:sans-serif;" xml:space="preserve" y="-6" transform="translate(200 45)" fill="#cccccc">Min entityUpdate Time (ms)</text>
<path d="M200 930.5L1800 930.5" fill="transparent" stroke="#cccccc" stroke-linecap="round" class="zr7-cls-21"></path>
<text dominant-baseline="central" text-anchor="end" style="font-size:12px;font-family:sans-serif;" transform="translate(192 930)" fill="#999999">0.000</text>
<text dominant-baseline="central" text-anchor="end" style="font-size:12px;font-family:sans-serif;" transform="translate(192 732.3095)" fill="#999999">0.100</text>
<text dominant-baseline="central" text-anchor="end" style="font-size:12px;font-family:sans-serif;" transform="translate(192 534.6189)" fill="#999999">0.200</text>
<text dominant-baseline="central" text-anchor="end" style="font-size:12px;font-family:sans-serif;" transform="translate(192 336.9284)" fill="#999999">0.300</text>
<text dominant-baseline="central" text-anchor="end" style="font-size:12px;font-family:sans-serif;" transform="translate(192 139.2378)" fill="#999999">0.400</text>
<text dominant-baseline="central" text-anchor="end" style="font-size:12px;font-family:sans-serif;" transform="translate(192 60)" fill="#999999">0.440</text>
<text dominant-baseline="central" text-anchor="middle" style="font-size:12px;font-family:sans-serif;" y="6" transform="translate(200.2222 938)" fill="#999999">0</text>
<text dominant-baseline="central" text-anchor="middle" style="font-size:12px;font-family:sans-serif;" y="6" transform="translate(235.3333 938)" fill="#999999">79</text>
<text dominant-baseline="central" text-anchor="middle" style="font-size:12px;font-family:sans-serif;" y="6" transform="translate(270.4444 938)" fill="#999999">158</text>
<text dominant-baseline="central" text-anchor="middle" style="font-size:12px;font-family:sans-serif;" y="6" transform="translate(305.5556 938)" fill="#999999">237</text>
<text dominant-baseline="central" text-anchor="middle" style="font-size:12px;font-family:sans-serif;" y="6" transform="translate(340.6667 938)" fill="#999999">316</text>
<text dominant-baseline="central" text-anchor="middle" style="font-size:12px;font-family:sans-serif;" y="6" transform="translate(375.7778 938)" fill="#999999">395</text>
<text dominant-baseline="central" text-anchor="middle" style="font-size:12px;font-family:sans-serif;" y="6" transform="translate(410.8889 938)" fill="#999999">474</text>
<text dominant-baseline="central" text-anchor="middle" style="font-size:12px;font-family:sans-serif;" y="6" transform="translate(446 938)" fill="#999999">553</text>
<text dominant-baseline="central" text-anchor="middle" style="font-size:12px;font-family:sans-serif;" y="6" transform="translate(481.1111 938)" fill="#999999">632</text>
<text dominant-baseline="central" text-anchor="middle" style="font-size:12px;font-family:sans-serif;" y="6" transform="translate(516.2222 938)" fill="#999999">711</text>
<text dominant-baseline="central" text-anchor="middle" style="font-size:12px;font-family:sans-serif;" y="6" transform="translate(551.3333 938)" fill="#999999">790</text>
<text dominant-baseline="central" text-anchor="middle" style="font-size:12px;font-family:sans-serif;" y="6" transform="translate(586.4444 938)" fill="#999999">869</text>
<text dominant-baseline="central" text-anchor="middle" style="font-size:12px;font-family:sans-serif;" y="6" transform="translate(621.5556 938)" fill="#999999">948</text>
<text dominant-baseline="central" text-anchor="middle" style="font-size:12px;font-family:sans-serif;" y="6" transform="translate(656.6667 938)" fill="#999999">1027</text>
<text dominant-baseline="central" text-anchor="middle" style="font-size:12px;font-family:sans-serif;" y="6" transform="translate(691.7778 938)" fill="#999999">1106</text>
<text dominant-baseline="central" text-anchor="middle" style="font-size:12px;font-family:sans-serif;" y="6" transform="translate(726.8889 938)" fill="#999999">1185</text>
<text dominant-baseline="central" text-anchor="middle" style="font-size:12px;font-family:sans-serif;" y="6" transform="translate(762 938)" fill="#999999">1264</text>
<text dominant-baseline="central" text-anchor="middle" style="font-size:12px;font-family:sans-serif;" y="6" transform="translate(797.1111 938)" fill="#999999">1343</text>
<text dominant-baseline="central" text-anchor="middle" style="font-size:12px;font-family:sans-serif;" y="6" transform="translate(832.2222 938)" fill="#999999">1422</text>
<text dominant-baseline="central" text-anchor="middle" style="font-size:12px;font-family:sans-serif;" y="6" transform="translate(867.3333 938)" fill="#999999">1501</text>
<text dominant-baseline="central" text-anchor="middle" style="font-size:12px;font-family:sans-serif;" y="6" transform="translate(902.4444 938)" fill="#999999">1580</text>
<text dominant-baseline="central" text-anchor="middle" style="font-size:12px;font-family:sans-serif;" y="6" transform="translate(937.5556 938)" fill="#999999">1659</text>
<text dominant-baseline="central" text-anchor="middle" style="font-size:12px;font-family:sans-serif;" y="6" transform="translate(972.6667 938)" fill="#999999">1738</text>
<text dominant-baseline="central" text-anchor="middle" style="font-size:12px;font-family:sans-serif;" y="6" transform="translate(1007.7778 938)" fill="#999999">1817</text>
<text dominant-baseline="central" text-anchor="middle" style="font-size:12px;font-family:sans-serif;" y="6" transform="translate(1042.8889 938)" fill="#999999">1896</text>
<text dominant-baseline="central" text-anchor="middle" style="font-size:12px;font-family:sans-serif;" y="6" transform="translate(1078 938)" fill="#999999">1975</text>
<text dominant-baseline="central" text-anchor="middle" style="font-size:12px;font-family:sans-serif;" y="6" transform="translate(1113.1111 938)" fill="#999999">2054</text>
<text dominant-baseline="central" text-anchor="middle" style="font-size:12px;font-family:sans-serif;" y="6" transform="translate(1148.2222 938)" fill="#999999">2133</text>
<text dominant-baseline="central" text-anchor="middle" style="font-size:12px;font-family:sans-serif;" y="6" transform="translate(1183.3333 938)" fill="#999999">2212</text>
<text dominant-baseline="central" text-anchor="middle" style="font-size:12px;font-family:sans-serif;" y="6" transform="translate(1218.4444 938)" fill="#999999">2291</text>
<text dominant-baseline="central" text-anchor="middle" style="font-size:12px;font-family:sans-serif;" y="6" transform="translate(1253.5556 938)" fill="#999999">2370</text>
<text dominant-baseline="central" text-anchor="middle" style="font-size:12px;font-family:sans-serif;" y="6" transform="translate(1288.6667 938)" fill="#999999">2449</text>
<text dominant-baseline="central" text-anchor="middle" style="font-size:12px;font-family:sans-serif;" y="6" transform="translate(1323.7778 938)" fill="#999999">2528</text>
<text dominant-baseline="central" text-anchor="middle" style="font-size:12px;font-family:sans-serif;" y="6" transform="translate(1358.8889 938)" fill="#999999">2607</text>
<text dominant-baseline="central" text-anchor="middle" style="font-size:12px;font-family:sans-serif;" y="6" transform="translate(1394 938)" fill="#999999">2686</text>
<text dominant-baseline="central" text-anchor="middle" style="font-size:12px;font-family:sans-serif;" y="6" transform="translate(1429.1111 938)" fill="#999999">2765</text>
<text dominant-baseline="central" text-anchor="middle" style="font-size:12px;font-family:sans-serif;" y="6" transform="translate(1464.2222 938)" fill="#999999">2844</text>
<text dominant-baseline="central" text-anchor="middle" style="font-size:12px;font-family:sans-serif;" y="6" transform="translate(1499.3333 938)" fill="#999999">2923</text>
<text dominant-baseline="central" text-anchor="middle" style="font-size:12px;font-family:sans-serif;" y="6" transform="translate(1534.4444 938)" fill="#999999">3002</text>
<text dominant-baseline="central" text-anchor="middle" style="font-size:12px;font-family:sans-serif;" y="6" transform="translate(1569.5556 938)" fill="#999999">3081</text>
<text dominant-baseline="central" text-anchor="middle" style="font-size:12px;font-family:sans-serif;" y="6" transform="translate(1604.6667 938)" fill="#999999">3160</text>
<text dominant-baseline="central" text-anchor="middle" style="font-size:12px;font-family:sans-serif;" y="6" transform="translate(1639.7778 938)" fill="#999999">3239</text>
<text dominant-baseline="central" text-anchor="middle" style="font-size:12px;font-family:sans-serif;" y="6" transform="translate(1674.8889 938)" fill="#999999">3318</text>
<text dominant-baseline="central" text-anchor="middle" style="font-size:12px;font-family:sans-serif;" y="6" transform="translate(1710 938)" fill="#999999">3397</text>
<text dominant-baseline="central" text-anchor="middle" style="font-size:12px;font-family:sans-serif;" y="6" transform="translate(1745.1111 938)" fill="#999999">3476</text>
<text dominant-baseline="central" text-anchor="middle" style="font-size:12px;font-family:sans-serif;" y="6" transform="translate(1780.2222 938)" fill="#999999">3555</text>
<g clip-path="url(#zr7-c0)">
<path d="M200.2 -365.1L200.7 207.8L201.1 255.3L201.6 382L202 422.3L202.4 347.8L202.9 408.3L203.3 426.7L203.8 461.5L204.2 -91.7L204.7 186.3L205.1 393.9L205.6 258L206 224.4L206.4 133.9L206.9 230.8L207.3 343.5L207.8 295.8L208.2 315.2L208.7 307.7L209.1 325.3L209.6 265.4L210 220.9L210.4 383.4L210.9 301.3L211.3 178.6L211.8 135.9L212.2 382.2L212.7 312.4L213.1 376.9L213.6 335.9L214 197.4L214.4 275.6L214.9 357.1L215.3 273.5L215.8 405.5L216.2 484.8L216.7 449L217.1 479.3L217.6 466.8L218 419.2L218.4 318L218.9 315.2L219.3 412.4L219.8 403.6L220.2 329.4L220.7 10.3L221.1 399.4L221.6 461.7L222 485.2L222.4 460.3L222.9 438.3L223.3 560.9L223.8 535.8L224.2 329L224.7 483.4L225.1 458.1L225.6 431.6L226 184.7L226.4 244.8L226.9 315.6L227.3 266.4L227.8 320.1L228.2 151.5L228.7 354.9L229.1 372.3L229.6 320.1L230 318.3L230.4 428.1L230.9 452L231.3 438.1L231.8 470.8L232.2 326.1L232.7 510.9L233.1 299.2L233.6 281.4L234 379L234.4 401.4L234.9 413.8L235.3 383.2L235.8 406.9L236.2 470.6L236.7 380.2L237.1 454.6L237.6 459.5L238 517.6L238.4 507.5L238.9 513.3L239.3 482.6L239.8 501.4L240.2 306.9L240.7 217.7L241.1 444.9L241.6 422.7L242 433.6L242.4 362.2L242.9 446.3L243.3 499.6L243.8 487.2L244.2 470.6L244.7 499.6L245.1 559.3L245.6 517.6L246 502.4L246.4 527.9L246.9 526.7L247.3 343.3L247.8 238.1L248.2 310.8L248.7 377.1L249.1 411.1L249.6 360.1L250 374.1L250.4 348.4L250.9 431.4L251.3 414.8L251.8 454.8L252.2 402.2L252.7 381L253.1 386.2L253.6 492.1L254 427.1L254.4 334.6L254.9 199.5L255.3 378.6L255.8 423.3L256.2 428.1L256.7 413.2L257.1 248.2L257.6 426.5L258 310.6L258.4 344.2L258.9 429.1L259.3 462.3L259.8 470L260.2 436.8L260.7 502.6L261.1 408.5L261.6 439.5L262 266.2L262.4 296.6L262.9 399.6L263.3 382.2L263.8 377.9L264.2 413.6L264.7 476.3L265.1 483.4L265.6 458.9L266 423.7L266.4 494.1L266.9 495.9L267.3 397.4L267.8 452.4L268.2 457.7L268.7 486.2L269.1 257.7L269.6 269.9L270 349.8L270.4 299L270.9 447.6L271.3 401.2L271.8 472.3L272.2 458.7L272.7 483.2L273.1 465.6L273.6 479.9L274 279.2L274.4 519.8L274.9 512.1L275.3 416.8L275.8 491.5L276.2 243.8L276.7 277L277.1 464.6L277.6 409.9L278 431.6L278.4 411.7L278.9 421.9L279.3 501.2L279.8 336.5L280.2 465.2L280.7 493.5L281.1 550.6L281.6 490.3L282 506.9L282.4 461.1L282.9 407.9L283.3 290.5L283.8 276L284.2 450.8L284.7 356.7L285.1 371.3L285.6 364L286 385.2L286.4 406.3L286.9 411.9L287.3 381.6L287.8 411.9L288.2 496.5L288.7 489.9L289.1 497.3L289.6 529.5L290 479.5L290.4 342.1L290.9 -812.8L291.3 -312.5L291.8 -191.7L292.2 -246.3L292.7 -7.4L293.1 99.1L293.6 337.9L294 167.3L294.4 82.3L294.9 34.9L295.3 330.8L295.8 375.9L296.2 436L296.7 513.1L297.1 518L297.6 524.5L298 279.4L298.4 374.9L298.9 490.3L299.3 438.7L299.8 450.2L300.2 375.5L300.7 540.2L301.1 517L301.6 485.4L302 476.7L302.4 539L302.9 552L303.3 487.4L303.8 527.1L304.2 520.8L304.7 383.6L305.1 233.7L305.6 224.6L306 346.6L306.4 376.1L306.9 380.4L307.3 319.3L307.8 419.8L308.2 416.8L308.7 361.8L309.1 386.4L309.6 405.3L310 460.7L310.4 450.4L310.9 449L311.3 489.7L311.8 449.6L312.2 243.6L312.7 256.1L313.1 389.7L313.6 406.9L314 356.3L314.4 291.9L314.9 416.4L315.3 462.1L315.8 467.2L316.2 491.7L316.7 412.4L317.1 520.8L317.6 456.7L318 502.2L318.4 505L318.9 493.1L319.3 263.4L319.8 113.9L320.2 412.8L320.7 327.6L321.1 402.4L321.6 185.1L322 245L322.4 378.8L322.9 321.7L323.3 246.2L323.8 289.7L324.2 389.5L324.7 241.2L325.1 300.2L325.6 334.2L326 384.4L326.4 215.9L326.9 211.4L327.3 48.1L327.8 370.1L328.2 305.5L328.7 392.7L329.1 275.4L329.6 390.3L330 312.2L330.4 313.6L330.9 427.7L331.3 474.9L331.8 449.2L332.2 469.6L332.7 515.4L333.1 474.1L334 302.5L334.4 292.1L334.9 444.9L335.3 415.6L335.8 380L336.2 425.9L336.7 378.8L337.1 468.6L337.6 460.7L338 481.8L338.4 537.4L338.9 534.8L339.3 445.7L339.8 487.6L340.2 465.6L340.7 459.7L341.1 272.9L341.6 199.1L342 333.2L342.4 337.5L342.9 328.4L343.3 213L343.8 345.4L344.2 351.4L344.7 319.9L345.1 390.3L345.6 439.1L346 473.1L346.4 452L346.9 491.1L347.3 432.6L347.8 479.3L348.2 287.1L348.7 280.4L349.1 424.5L349.6 367L350 410.7L350.4 394.3L350.9 250.3L351.3 435.8L351.8 407.7L352.2 444.9L352.7 442.9L353.1 504.6L353.6 488.6L354 510.7L354.4 489.9L354.9 493.1L355.3 318.1L355.8 172.4L356.2 422.7L356.7 439.9L357.1 435.4L357.6 259L358 386.7L358.4 484L358.9 486.6L359.3 376.9L359.8 489.2L360.2 559.3L360.7 518.6L361.1 502.4L361.6 531.3L362 433.6L362.4 318.7L362.9 309.3L363.3 300.9L363.8 387.7L364.2 404.5L364.7 361.8L365.1 296.8L365.6 430.4L366 400.2L366.4 402L366.9 458.3L367.3 461.5L367.8 470.2L368.2 463.6L368.7 499.6L369.1 468.8L369.6 490.7L370 241.8L370.4 328.2L370.9 428.3L371.3 335.1L371.8 361.4L372.2 260.4L372.7 413.4L373.1 409.7L373.6 316.6L374 348.4L374.4 407.5L374.9 405.3L375.3 382.4L375.8 474.5L376.2 312.4L376.7 409.7L377.1 269.3L377.6 235.7L378 386.9L378.4 409.7L378.9 395.6L379.3 355.9L379.8 439.1L380.2 421.9L380.7 193.2L381.1 452L381.6 488L382 492.9L382.4 474.3L382.9 497.1L383.3 507.3L383.8 383.6L384.2 315.2L384.7 321.5L385.1 454.4L385.6 395.6L386 447.8L386.4 431.8L386.9 410.9L387.3 469.4L387.8 498.2L388.2 473.1L388.7 504.6L389.1 490.7L389.6 517.6L390 470.4L390.4 505.2L390.9 496.9L391.3 246.8L391.8 297.2L392.2 441.7L392.7 439.9L393.1 343.5L393.6 434L394 331.8L394.4 485.8L394.9 413L395.3 339.9L395.8 488L396.2 490.1L396.7 506.5L397.1 490.3L397.6 502L398 439.1L398.4 307.5L398.9 267.5L399.3 436.2L399.8 396.2L400.2 394.7L400.7 413L401.1 386L401.6 413.6L402 300.4L402.4 336.1L402.9 377.3L403.3 447.8L403.8 457.9L404.2 472L404.7 509.9L405.1 444.7L405.6 429.6L406 143.2L406.4 -797.6L406.9 -359.1L407.3 -114.6L407.8 -65.2L408.2 111.8L408.7 174.6L409.1 300.8L409.6 187.5L410 116.3L410.4 245.8L410.9 344.6L411.3 375.9L411.8 460.1L412.2 495.9L412.7 437L413.1 309.6L413.6 352L414 475.3L414.4 469L414.9 473.5L415.3 448L415.8 518L416.2 497.7L416.7 509.5L417.1 548.3L417.6 514.7L418 562.5L418.4 466.6L418.9 537.4L419.3 531.1L419.8 467.6L420.2 288.9L420.7 262.8L421.1 394.1L421.6 372.1L422 343.1L422.4 313.2L422.9 371.9L423.3 423.7L423.8 431.4L424.2 375.1L424.7 438.3L425.1 503.2L425.6 465L426 507.1L426.4 505.2L426.9 448.6L427.3 279.4L427.8 239.1L428.2 413.6L428.7 451.8L429.1 343.5L429.6 377.7L430 390.1L430.4 472.3L430.9 459.5L431.3 462.7L431.8 471.4L432.2 517L432.7 434.4L433.1 517.4L433.6 514.7L434 321.9L434.4 225.4L434.9 255.9L435.3 409.5L435.8 331.4L436.2 345L436.7 193L437.1 209.6L437.6 372.7L438 300L438.4 230.2L438.9 316.8L439.3 385.2L439.8 372.7L440.2 310.2L440.7 371.3L441.1 412.8L441.6 357.9L442 188.3L442.4 274.1L442.9 391.1L443.3 277L443.8 336.3L444.2 277L444.7 403.9L445.1 375.5L445.6 318L446 425.5L446.4 496.1L446.9 481.8L447.3 466.2L447.8 506.5L448.2 502.4L448.7 449.4L449.1 309.8L449.6 270.7L450 445.9L450.4 428.3L450.9 418.2L451.3 420.6L451.8 460.3L452.2 483.6L452.7 482.8L453.1 519.2L453.6 505L454 535.6L454.4 383L454.9 492.9L455.3 474.9L455.8 450L456.2 266.4L456.7 194L457.1 357.5L457.6 284.9L458 198L458.4 200.1L458.9 298.4L459.3 341.9L459.8 374.3L460.2 387.7L460.7 454.9L461.1 445.7L461.6 431.4L462 463.8L462.4 433.6L462.9 453.8L463.3 300L463.8 244.8L464.2 431.2L464.7 395L465.1 432.4L465.6 370.5L466 217.9L466.4 447.4L466.9 384L467.3 394.5L467.8 437.4L468.2 515.4L468.7 525.3L469.1 493.1L469.6 500L470 486.2L470.4 321.3L470.9 226.6L471.3 429.1L471.8 404.3L472.2 439.3L472.7 316L473.1 401.8L473.6 452.8L474 480.1L474.4 426.1L474.9 502.2L475.3 539.8L475.8 514.8L476.2 463.3L476.7 538.6L477.1 515L477.6 460.7L478 253.3L478.4 332.4L478.9 368.4L479.3 287.7L479.8 372.1L480.2 386.7L480.7 483.6L481.1 409.3L481.6 400.4L482 422.9L482.4 387.9L482.9 467.4L483.3 461.7L483.8 488.6L484.2 452.2L484.7 499.4L485.1 309.3L486 451.6L486.4 421.3L486.9 415.8L487.3 27.1L487.8 375.1L488.2 431.2L488.7 357.1L489.1 411.3L489.6 396.6L490 483L490.4 437.9L490.9 490.5L491.3 481.4L491.8 435.8L492.2 266.4L492.7 249.4L493.1 405.1L493.6 375.9L494 403.9L494.4 412.4L494.9 414L495.3 503.4L495.8 473.7L496.2 519.4L496.7 376.5L497.1 524.3L497.6 390.7L498 528.9L498.4 506.7L498.9 478.7L499.3 322.1L499.8 310.4L500.2 422.1L500.7 417L501.1 456.1L501.6 452.2L502 354.9L502.4 466.6L502.9 460.9L503.3 481.8L503.8 482.8L504.2 569.2L504.7 551.4L505.1 455.9L505.6 487.4L506.4 286.9L506.9 326.1L507.3 444.1L507.8 474.5L508.2 440.9L508.7 432.4L509.1 342.1L509.6 499L510 413.6L510.4 412.6L510.9 483.6L511.3 552.6L511.8 509.3L512.2 502L512.7 538L513.1 459.7L513.6 444.5L514 281.6L514.4 376.5L514.9 463.1L515.3 318.3L515.8 344.4L516.2 359.5L516.7 413.2L517.1 283.4L517.6 319.1L518 423.3L518.4 458.9L518.9 481.4L519.3 401.6L519.8 450L520.2 487.6L520.7 495.1L521.1 320.9L521.6 -653.1L522 -211.5L522.4 -85.5L522.9 -212.7L523.3 98.3L523.8 153.3L524.2 293.2L524.7 203.1L525.1 3.2L525.6 -31.2L526 316.4L526.4 390.5L526.9 465.2L527.3 504L527.8 497.1L528.2 327.4L528.7 340.9L529.1 529.3L529.6 432L530 473.1L530.4 445.5L530.9 480.8L531.3 499.2L531.8 527.5L532.2 522.8L532.7 527.1L533.1 558.1L533.6 501.4L534 524.7L534.4 526.1L534.9 425.7L535.3 320.7L535.8 195.6L536.2 373.5L536.7 380.6L537.1 451L537.6 322.5L538 378L538.4 454.6L538.9 407.5L539.3 364.4L539.8 438.5L540.2 521.4L540.7 241.6L541.1 492.9L541.6 505.2L542 476.5L542.4 150.3L542.9 246L543.3 419L543.8 422.3L544.2 374.9L544.7 361.6L545.1 383L545.6 484.4L546 480.1L546.4 461.5L546.9 454.8L547.3 521.8L547.8 480.1L548.2 464.4L548.7 522L549.1 474.9L549.6 423.3L550 198.5L550.4 355.7L550.9 393.3L551.3 316.4L551.8 264.6L552.2 185.7L552.7 348.2L553.1 300.2L553.6 262.2L554 327L554.4 329.2L554.9 361.8L555.3 275.1L555.8 366.8L556.2 347L556.7 417.2L557.1 70.2L557.6 236.3L558 358.1L558.4 362.2L558.9 360.3L559.3 237.5L559.8 365.4L560.2 394.7L560.7 330.8L561.1 435.8L561.6 494.1L562 495.7L562.4 394.3L562.9 496.7L563.3 489L563.8 512.5L564.2 305.3L564.7 325.5L565.1 434.6L565.6 424.3L566 399.4L566.4 426.9L566.9 408.7L567.3 500.4L567.8 474.1L568.2 511.3L568.7 507.1L569.1 584L569.6 450.8L570 481.4L570.4 473.3L570.9 371.3L571.3 283.2L571.8 214.2L572.2 285.1L572.7 262.8L573.1 305.5L573.6 322.7L574 218.3L574.4 338.9L574.9 327L575.3 324.7L575.8 422.5L576.2 494.5L576.7 474.5L577.1 479.3L577.6 435.8L578 436.4L578.4 303.9L578.9 282.2L579.3 459.5L579.8 440.1L580.2 408.7L580.7 394.5L581.1 339.3L581.6 455.1L582 418.4L582.4 444.1L582.9 453.4L583.3 511.7L583.8 396.2L584.2 470.8L584.7 500.2L585.1 473.9L586 189.1L586.4 315L586.9 434.6L587.3 440.9L587.8 364.2L588.2 373.9L588.7 502.2L589.1 466.4L589.6 434.4L590 452.8L590.4 526.7L590.9 498L591.3 476.9L591.8 529.5L592.2 497.1L592.7 485.8L593.1 322.7L593.6 249.2L594 232.2L594.4 401.6L594.9 423.7L595.3 369.7L595.8 449.2L596.2 403.7L596.7 412.1L597.1 448.6L597.6 458.7L598 464.4L598.4 448.2L598.9 483.6L599.3 501.8L599.8 510.9L600.2 328.2L600.7 300.9L601.1 443.7L601.6 383.6L602 327.6L602.4 351.6L602.9 323.1L603.3 398.6L603.8 353.1L604.2 412.6L604.7 430.4L605.1 484.4L605.6 468.6L606 498.2L606.4 499L606.9 435L607.3 284.5L607.8 233.3L608.2 399.2L608.7 380.2L609.1 453.2L609.6 402.8L610 422.7L610.4 477.9L610.9 421.9L611.3 475.5L611.8 500.2L612.2 519.8L612.7 494.5L613.1 524.9L614 490.5L614.4 349.2L614.9 276.8L615.3 444.9L615.8 381.2L616.2 440.5L616.7 402.8L617.1 385.6L617.6 478.3L618 466.8L618.4 489L618.9 502.2L619.3 545.9L619.8 548.5L620.2 487.6L620.7 518.8L621.1 481.6L621.6 449.8L622 290.5L622.4 339.1L622.9 468.4L623.3 415.4L623.8 410.1L624.2 439.7L624.7 491.9L625.1 472.9L625.6 407.5L626 433L626.4 536L626.9 520.4L627.3 481.2L627.8 528.7L628.2 460.5L628.7 455.5L629.1 283.6L629.6 309.1L630 440.3L630.4 301.9L630.9 402.2L631.3 337.3L631.8 422.1L632.2 391.9L632.7 295L633.1 430.2L633.6 451.4L634 437.8L634.4 476.7L634.9 519.8L635.3 487.6L635.8 503.8L636.2 266.6L636.7 -729.6L637.1 -176.3L637.6 -66.2L638 -108.5L638.4 40.4L638.9 117.5L639.3 320.7L639.8 224.8L640.2 77.8L640.7 67.1L641.1 341.5L641.6 404.9L642 465.6L642.4 497.8L642.9 509.3L643.3 304.9L643.8 336.7L644.2 490.1L644.7 443.5L645.1 477.3L645.6 474.7L646 473.5L646.4 528.9L646.9 499.6L647.3 323.1L647.8 537L648.7 498.8L649.1 521.6L649.6 504.8L650 414.4L650.4 315.2L650.9 234.5L651.3 407.7L651.8 384.2L652.2 382.2L652.7 343.6L653.1 321.9L653.6 454.8L654 450.2L654.4 397.4L654.9 458.1L655.3 498.8L655.8 481.6L656.2 464.8L656.7 481L657.1 489.2L657.6 404.5L658 255.5L658.4 310.2L658.9 399.4L659.3 378.4L659.8 368.2L660.2 360.7L660.7 482.6L661.1 429.6L661.6 421.7L662 453.4L662.4 521.2L662.9 505.6L663.3 453.4L663.8 507.5L664.2 474.5L664.7 439.9L665.1 281.2L665.6 294.8L666 383L666.4 338.1L666.9 230.2L667.3 240.1L667.8 319.9L668.2 343.3L668.7 265.2L669.1 340.7L669.6 317.4L670 253.1L670.4 322.9L670.9 345.6L671.3 342.3L671.8 422.7L672.2 138.4L672.7 197.8L673.1 381.4L673.6 343.3L674 313.8L674.4 259L674.9 346.8L675.3 403.6L675.8 187.3L676.2 383L676.7 454L677.1 489.5L677.6 438.3L678 486.6L678.4 489.2L678.9 509.7L679.3 292.1L679.8 328L680.2 425.5L680.7 328.8L681.1 428.9L681.6 423.5L682 400L682.4 494.9L682.9 473.5L683.3 472.9L683.8 477.9L684.2 570.4L684.7 539.4L685.1 491.1L685.6 469.6L686 454L686.4 278.4L686.9 232L687.3 316.2L687.8 329.2L688.2 319.5L688.7 311.4L689.1 178.4L689.6 362.2L690 346.8L690.4 343.6L690.9 414L691.3 409.7L691.8 452L692.2 454.6L692.7 462.9L693.1 434.2L693.6 323.9L694 250.1L694.4 325.5L694.9 435L695.3 360.1L695.8 407.9L696.2 322.9L696.7 465.6L697.1 383.6L697.6 351L698 460.9L698.4 499.8L698.9 507.7L699.3 491.7L699.8 544.1L700.2 463.8L700.7 296.4L701.1 289.1L701.6 236.1L702 440.9L702.4 433.6L702.9 444.3L703.3 371.5L703.8 475.9L704.2 488.6L704.7 479.9L705.1 462.1L705.6 534.8L706 520.4L706.4 450L706.9 493.7L707.3 445.5L707.8 491.5L708.2 303.7L708.7 214.8L709.1 399.8L709.6 415.8L710 374.9L710.4 340.7L710.9 445.9L711.3 403L711.8 381.2L712.2 411.5L712.7 470.6L713.1 458.7L713.6 441.1L714 486L714.4 480.1L714.9 483.2L715.3 313.6L715.8 305.9L716.2 440.1L716.7 381.4L717.1 456.3L717.6 390.3L718 302.5L718.4 385.4L718.9 379.4L719.8 432.8L720.2 451.4L720.7 471.4L721.1 460.3L721.6 487.2L722 374.7L722.4 279.4L722.9 258.8L723.3 394.5L723.8 382L724.2 421.1L724.7 354.1L725.1 439.5L725.6 477.5L726 486.4L726.4 455.7L726.9 528.3L727.3 511.7L727.8 502.2L728.2 487.2L728.7 536.8L729.1 459.5L729.6 464.2L730 299.4L730.4 358.9L730.9 426.5L731.3 422.9L731.8 440.3L732.2 407.9L732.7 416.6L733.1 445.9L733.6 438.1L734 466L734.4 518.6L734.9 551L735.3 473.9L735.8 534.2L736.2 480.1L736.7 507.7L737.1 300.8L737.6 329.6L738 456.5L738.4 427.3L738.9 457.7L739.3 356.3L739.8 424.7L740.2 478.1L740.7 320.1L741.1 460.3L741.6 517L742 521.6L742.4 489.2L742.9 510.7L743.3 413.2L743.8 452.6L744.2 276.4L744.7 269.7L745.1 393.9L745.6 345.2L746 335.1L746.4 346.8L746.9 411.1L747.3 340.9L747.8 303.7L748.2 416.2L748.7 376.9L749.1 467L749.6 461.3L750 532.8L750.4 501L750.9 460.5L751.3 292.1L751.8 -990.2L752.2 -309.7L752.7 -187.3L753.1 -150.2L753.6 118.3L754 -137.3L754.4 302.5L754.9 176.2L755.3 39.4L755.8 43.8L756.2 339.1L756.7 382.8L757.1 395.8L757.6 496.3L758 534.2L758.4 293.8L758.9 263.6L759.3 465.2L759.8 471.4L760.2 467.6L760.7 426.1L761.1 466.4L761.6 535.2L762 504.6L762.4 527.1L762.9 514.8L763.3 431.6L763.8 487.4L764.2 517L764.7 508.1L765.1 406.1L765.6 452.2L766 197L766.4 212.4L766.9 336.3L767.3 358.1L767.8 278.4L768.2 305.5L768.7 458.1L769.1 399L769.6 321.3L770 439.3L770.4 516.2L770.9 489.3L771.3 471.8L771.8 543.5L772.2 495.9L772.7 398.2L773.1 262L773.6 308.1L774 423.5L774.4 401.4L774.9 343.1L775.3 360.5L775.8 440.7L776.2 450.2L776.7 417.6L777.1 497.7L777.6 483.2L778 485.8L778.4 394.9L778.9 468.2L779.3 475.7L779.8 390.1L780.2 247.2L780.7 225L781.1 356.3L781.6 321.7L782 268.7L782.4 155.3L782.9 304.3L783.3 355.1L783.8 296.2L784.2 310.2L784.7 240.3L785.1 323.7L785.6 309.6L786 288.7L786.4 355.5L786.9 397.2L787.3 169.7L787.8 134.1L788.2 392.1L788.7 332.4L789.1 352.9L789.6 265.4L790 207.2L790.4 348.2L790.9 323.7L791.3 333L791.8 439.9L792.2 483.4L792.7 441.7L793.1 467L793.6 506.2L794 486.8L794.4 344.8L794.9 326.6L795.3 442.9L795.8 392.5L796.2 391.9L796.7 386.5L797.1 411.3L797.6 465.6L798 433.4L798.4 438.3L798.9 462.9L799.3 541.1L799.8 513.3L800.2 447.4L800.7 462.7L801.1 436.8L801.6 256.7L802 201.3L802.4 336.3L802.9 266L803.3 217.3L803.8 318.1L804.2 185.9L804.7 333L805.1 308.1L805.6 285.9L806 400L806.4 437.2L806.9 449.8L807.3 226.4L807.8 449.6L808.2 389.1L808.7 439.9L809.1 265L809.6 307.3L810 435.4L810.4 376.1L810.9 361L811.3 340.5L811.8 445.5L812.2 442.3L812.7 361L813.1 478.3L813.6 429.4L814 457.5L814.4 471L814.9 502.6L815.3 491.5L815.8 507.9L816.2 221.5L816.7 168.5L817.1 414.4L817.6 421.5L818 412.2L818.4 330L818.9 460.9L819.3 501.8L819.8 462.1L820.2 426.1L820.7 492.1L821.1 545.3L821.6 473.7L822 516.4L822.4 507.3L822.9 508.5L823.3 305.9L823.8 245.6L824.2 378L824.7 409.3L825.1 414.2L825.6 371.1L826 408.3L826.4 384.6L826.9 395.4L827.3 396.2L827.8 446.8L828.2 471.6L828.7 435.4L829.1 468L829.6 475.9L830 481.8L830.4 333L830.9 304.1L831.3 433.4L831.8 415.2L832.2 440.3L832.7 373.7L833.1 166.7L833.6 411.5L834 422.5L834.4 315L834.9 387.7L835.3 442.3L835.8 426.9L836.2 441.9L836.7 475.1L837.1 375.3L837.6 273.3L838 274.9L838.4 384.4L838.9 357.9L839.3 335.7L839.8 389.9L840.2 411.5L840.7 464.4L841.1 454.8L841.6 443.3L842 430.8L842.4 454.6L842.9 476.9L843.3 470L843.8 516.4L844.2 506.9L844.7 430L845.1 288.3L845.6 329.4L846 442.1L846.4 351L846.9 414L847.3 404.9L847.8 452.4L848.2 432.6L848.7 419.2L849.1 375.3L849.6 520.4L850 505.8L850.4 432.8L850.9 498.2L851.3 442.1L851.8 506.7L852.2 282.4L852.7 293.6L853.1 449L853.6 439.7L854 433.8L854.4 388.7L854.9 368.4L855.3 475.9L855.8 296.4L856.2 448L856.7 488.8L857.1 536.8L857.6 487.8L858 508.1L858.4 476.3L858.9 446.3L859.3 278.8L859.8 291.5L860.2 443.5L860.7 136.9L861.1 244.8L861.6 358.9L862 358.3L862.4 275.4L862.9 389.9L863.3 366.2L863.8 416.2L864.2 505.2L864.7 476.3L865.1 493.5L865.6 434.2L866 470.8L866.4 271.1L866.9 -898.2L867.3 -409.4L867.8 -291.5L868.2 -205.1L868.7 59.6L869.1 77.4L869.6 321.7L870 138.2L870.4 60L870.9 7.8L871.3 335.5L871.8 386.9L872.2 437.6L872.7 497.5L873.1 530.7L873.6 331L874 314.2L874.4 471.6L874.9 378.2L875.3 460.1L875.8 459.3L876.2 462.9L876.7 521.6L877.1 506.9L877.6 493.5L878 533.6L878.4 537.2L878.9 536.4L879.3 483.4L879.8 528.1L880.2 509.3L880.7 427.3L881.1 221.5L881.6 259.6L882 387.7L882.4 354.1L882.9 347.6L883.3 339.7L883.8 446.3L884.2 414.4L884.7 297.2L885.1 449.6L885.6 462.5L886 487.6L886.4 456.3L886.9 533.8L887.3 490.5L887.8 440.5L888.2 238.3L888.7 220.3L889.1 385.4L889.6 416L890 345.6L890.4 349.6L890.9 455.7L891.3 483.4L891.8 411.3L892.2 454.4L892.7 397.6L893.1 482.8L893.6 427.9L894 497.3L894.4 495.1L894.9 451.8L895.3 112.9L895.8 233.5L896.2 393.7L896.7 296.8L897.1 292.8L897.6 189.3L898 234.7L898.4 345.6L898.9 288.3L899.3 249.2L899.8 323.9L900.2 325.7L900.7 334.4L901.1 324.9L901.6 378.8L902 414.8L902.4 182.7L902.9 201.5L903.3 388.7L903.8 304.5L904.2 385.4L904.7 338.3L905.1 267.3L905.6 371.5L906 310.6L906.4 270.9L906.9 391.3L907.3 500L907.8 405.5L908.2 473.7L908.7 409.1L909.1 440.3L909.6 337.3L910 310L910.4 404.9L910.9 396.8L911.3 409.9L911.8 408.1L912.2 427.9L912.7 500.6L913.1 476.9L913.6 449.2L914 227.6L914.4 564.7L914.9 522L915.3 411.5L915.8 485.6L916.2 449.8L916.7 408.5L917.1 198.9L917.6 270.7L918 278.2L918.4 242.4L918.9 267.3L919.3 185.1L919.8 320.5L920.2 347.6L920.7 308.1L921.1 382L921.6 447.2L922 464.8L922.4 449.4L922.9 459.9L923.3 347.6L923.8 491.1L924.2 287.7L924.7 279.8L925.1 441.3L925.6 395.8L926 409.7L926.4 377.9L926.9 387.9L927.3 472.1L927.8 371.3L928.2 435.4L928.7 457.9L929.1 512.5L929.6 492.1L930 522L930.4 480.5L930.9 499L931.3 292.6L931.8 237.5L932.2 434L932.7 429.8L933.1 410.9L933.6 369L934 419.4L934.4 494.7L934.9 488L935.3 470.4L935.8 483.4L936.2 528.9L936.7 484L937.1 499.4L937.6 496.5L938 512.1L938.4 318.1L938.9 212.2L939.3 394.9L939.8 364.4L940.2 392.7L940.7 355.9L941.1 399L941.6 406.5L942 408.9L942.4 422.1L942.9 407.7L943.3 443.9L943.8 451.6L944.2 453.8L944.7 492.7L945.1 425.3L945.6 279L946 217.3L946.4 464.6L946.9 420.4L947.3 342.5L947.8 353.9L948.2 231.4L948.7 421.5L949.1 382L949.6 289.5L950 386.2L950.4 419.2L950.9 451.8L951.3 442.9L951.8 500L952.2 371.7L952.7 404.9L953.1 225.2L953.6 279.6L954 376.7L954.4 300.6L954.9 383.4L955.3 395.4L955.8 483.8L956.2 441.1L956.7 437.8L957.1 510.7L957.6 457.3L958 486L958.4 459.7L958.9 523.2L959.3 499.4L959.8 486.6L960.2 293.2L960.7 305.3L961.1 439.1L961.6 393.7L962 438.7L962.4 387.3L962.9 441.9L963.3 385.4L963.8 447.8L964.2 426.5L964.7 484.2L965.1 533L965.6 509.1L966 488.4L966.4 496.3L966.9 477.5L967.3 46.1L967.8 301.7L968.2 454.4L968.7 346.4L969.1 436L969.6 359.3L970 360.5L970.4 468.6L970.9 288.9L971.3 471.4L971.8 409.9L972.2 541.9L972.7 476.5L973.1 493.9L973.6 441.9L974 451.8L974.4 308.7L974.9 296L975.3 445.7L975.8 339.9L976.2 273.1L976.7 277.2L977.1 345.4L977.6 380L978 425.5L978.4 349.2L978.9 371.1L979.3 435.6L979.8 439.3L980.2 479.3L980.7 517.4L981.1 488.2L981.6 313.8L982 -734.4L982.4 -386.6L982.9 -160.1L983.3 -156.7L983.8 57.8L984.2 54.8L984.7 332.4L985.1 156.2L985.6 5.4L986 -8.8L986.4 320.7L986.9 371.1L987.3 438.7L987.8 502.8L988.2 503.6L988.7 524.3L989.1 294.6L989.6 394.1L990 482L990.4 442.9L990.9 429.6L991.3 445.5L991.8 500L992.2 503.2L992.7 478.5L993.1 518L993.6 502.6L994 524.5L994.4 488.2L994.9 514.7L995.3 502.4L995.8 471.2L996.2 280.4L996.7 217.5L997.1 363.2L997.6 367.2L998 359.5L998.4 330.2L998.9 405.9L999.3 361.6L999.8 350.6L1000.2 409.3L1000.7 434.2L1001.1 488.6L1001.6 450.8L1002 521.4L1002.4 502.8L1002.9 451.2L1003.3 247.8L1003.8 254.1L1004.2 413.4L1004.7 399.6L1005.1 366L1005.6 359.5L1006 391.1L1006.4 451.8L1006.9 408.9L1007.3 496.1L1007.8 454.2L1008.2 496.9L1008.7 394.5L1009.1 484.2L1009.6 502.4L1010 479.9L1010.4 227.6L1010.9 261.8L1011.3 396.6L1011.8 344.6L1012.2 371.3L1012.7 89.2L1013.1 268.7L1013.6 350.2L1014 329.4L1014.4 221.3L1014.9 280.6L1015.3 395.2L1015.8 358.3L1016.2 352.3L1016.7 332L1017.1 370.3L1017.6 228L1018 175.2L1018.4 302.1L1018.9 336.3L1019.3 343.8L1019.8 384.6L1020.2 216.7L1020.7 158.6L1021.1 339.7L1021.6 284.9L1022 428.1L1022.4 464.8L1022.9 453.2L1023.3 446.8L1023.8 504.8L1024.2 414.8L1024.7 486.8L1025.1 287.5L1025.6 324.3L1026 418L1026.4 376.1L1026.9 363.8L1027.3 424.1L1027.8 466.4L1028.2 482.8L1028.7 462.7L1029.1 458.3L1029.6 543.1L1030 474.9L1030.4 427.1L1030.9 481.8L1031.3 464L1031.8 468L1032.2 257.1L1032.7 156.2L1033.1 303.9L1033.6 324.7L1034 299.2L1034.4 186.5L1034.9 324.1L1035.3 347.2L1035.8 338.7L1036.2 373.3L1036.7 422.5L1037.1 460.9L1037.6 425.5L1038 476.5L1038.4 428.5L1038.9 468.6L1039.3 267.7L1039.8 283L1040.2 445.9L1040.7 375.1L1041.1 399.6L1042 324.7L1042.4 434.8L1042.9 380.8L1043.3 444.7L1043.8 453L1044.2 487.4L1044.7 482.4L1045.1 519.6L1045.6 503.2L1046 485.2L1046.4 319.9L1046.9 144.6L1047.3 408.7L1047.8 435.8L1048.2 440.1L1048.7 346.8L1049.1 412.4L1049.6 495.9L1050 496.9L1050.4 424.9L1050.9 475.5L1051.3 558.9L1051.8 525.3L1052.2 479.9L1052.7 447.8L1053.1 463.5L1053.6 331.4L1054 303.5L1054.4 382.8L1054.9 357.7L1055.3 407.5L1055.8 396.6L1056.2 347.8L1056.7 445.5L1057.1 372.5L1057.6 423.9L1058 469.6L1058.4 459.1L1058.9 468.6L1059.3 444.1L1059.8 504L1060.2 456.1L1060.7 492.5L1061.1 287.9L1061.6 358.5L1062 426.5L1062.4 383.6L1062.9 360.8L1063.3 234.5L1063.8 406.7L1064.2 411.9L1064.7 313.4L1065.1 397L1065.6 430.6L1066 458.9L1066.4 426.9L1066.9 494.5L1067.3 388.5L1067.8 419.2L1068.2 250.7L1068.7 223.8L1069.1 386.7L1069.6 422.9L1070 405.9L1070.4 405.1L1070.9 480.3L1071.3 479.1L1071.8 433.2L1072.2 482.6L1072.7 427.3L1073.1 477.1L1073.6 448.4L1074 231.4L1074.4 518L1074.9 466.6L1075.3 286.9L1075.8 249.9L1076.2 415.6L1076.7 361L1077.1 421.1L1078 410.1L1078.4 467.8L1079.3 441.3L1079.8 498L1080.2 542.7L1080.7 470.2L1081.1 400.6L1081.6 489.5L1082 481.6L1082.4 326.5L1082.9 261.4L1083.3 406.7L1083.8 419.6L1084.2 380.2L1084.7 375.1L1085.1 381.4L1085.6 450.6L1086 377.9L1086.4 423.7L1086.9 460.5L1087.3 555L1087.8 500.8L1088.2 499.6L1088.7 518L1089.1 451L1089.6 298.8L1090 254.5L1090.4 364.2L1090.9 343.8L1091.3 350.2L1091.8 397.8L1092.2 376.9L1092.7 414.6L1093.1 329.6L1093.6 301.9L1094 340.3L1094.4 378.8L1094.9 434L1095.3 466.8L1095.8 527.9L1096.2 488L1096.7 450.2L1097.1 188.1L1097.6 -918.2L1098 -436.8L1098.4 -244.5L1098.9 -170.9L1099.3 85.9L1099.8 226.8L1100.2 288.5L1100.7 148.9L1101.1 71.8L1101.6 143.2L1102 264L1102.4 379L1102.9 484L1103.3 488.6L1103.8 532L1104.2 293.6L1104.7 337.1L1105.1 482.8L1105.6 461.7L1106 402L1106.4 429.4L1106.9 511.9L1107.3 509.1L1107.8 501.2L1108.2 529.9L1108.7 498.8L1109.1 550.6L1109.6 459.9L1110 525.3L1110.4 521.2L1110.9 443.9L1111.3 283.9L1111.8 212.4L1112.2 372.7L1112.7 383.2L1113.1 348.8L1113.6 335L1114 379.4L1114.4 447.8L1114.9 411.5L1115.3 399.8L1115.8 449L1116.2 505.8L1116.7 419L1117.1 432.2L1117.6 507.9L1118 454.9L1118.4 258.8L1119.3 423.7L1119.8 440.5L1120.2 335.9L1120.7 370.7L1121.1 395.8L1121.6 485.6L1122 446.6L1122.4 422.3L1122.9 449L1123.3 526.9L1123.8 468.8L1124.2 501.4L1124.7 515L1125.1 474.9L1125.6 266L1126 257.7L1126.4 410.5L1126.9 320.7L1127.3 189.1L1127.8 191.2L1128.2 214.2L1128.7 308.5L1129.1 291.3L1129.6 228.8L1130 300.4L1130.4 341.9L1130.9 353.5L1131.3 295.2L1131.8 359.5L1132.2 410.3L1132.7 354.5L1133.1 149.9L1133.6 262.2L1134 399L1134.4 207L1134.9 332.4L1135.3 271.5L1135.8 403.2L1136.2 346.4L1136.7 237.9L1137.1 408.5L1137.6 482L1138 493.3L1138.4 442.3L1138.9 498.6L1139.3 506.3L1140.2 323.1L1140.7 259.6L1141.1 430.8L1141.6 428.1L1142 439.1L1142.4 423.7L1142.9 461.1L1143.3 448.8L1143.8 471.8L1144.2 522.4L1144.7 500.4L1145.1 541.7L1145.6 441.3L1146 477.5L1146.4 467L1146.9 442.7L1147.3 265L1147.8 223.7L1148.2 323.7L1148.7 303.9L1149.1 309.6L1149.6 158.8L1150 290.7L1150.4 350.2L1150.9 347.8L1151.3 357.3L1151.8 445.7L1152.2 478.9L1152.7 413.4L1153.1 458.1L1153.6 428.7L1154 391.7L1154.4 286.1L1154.9 259.4L1155.3 427.5L1155.8 370.3L1156.2 449.8L1156.7 403.6L1157.1 353.7L1157.6 426.9L1158 404.7L1158.4 420.7L1158.9 417.6L1159.3 440.1L1159.8 518.8L1160.2 517.6L1160.7 501L1161.1 497.5L1161.6 320.9L1162 195.6L1162.4 421.3L1162.9 411.9L1163.3 442.9L1163.8 336.3L1164.2 389.3L1164.7 495.9L1165.1 490.3L1165.6 422.9L1166 480.5L1166.4 537.6L1166.9 530.3L1167.3 479.5L1167.8 465.4L1168.2 496.5L1168.7 469L1169.1 293.6L1169.6 328.4L1170 402.4L1170.4 360.3L1170.9 363.4L1171.3 369.9L1171.8 453.4L1172.2 377.3L1172.7 371.9L1173.1 441.7L1173.6 451.8L1174 468.6L1174.4 427.5L1174.9 498.6L1175.3 470.4L1175.8 497.3L1176.2 284.5L1176.7 325.7L1177.1 443.3L1177.6 419L1178 435.6L1178.4 316.8L1178.9 382.8L1179.3 426.9L1179.8 334.4L1180.2 349.8L1180.7 192.4L1181.1 472.3L1181.6 439.7L1182 498.6L1182.4 484.6L1182.9 413.4L1183.3 248.2L1183.8 229.4L1184.2 404.1L1184.7 371.7L1185.1 342.9L1185.6 397.4L1186 423.7L1186.4 500.8L1186.9 466L1187.3 431.8L1187.8 465.4L1188.2 511.7L1188.7 465.8L1189.1 533.8L1189.6 514.7L1190 439.5L1190.4 314.2L1190.9 310L1191.3 434L1191.8 399.6L1192.2 457.1L1192.7 448.8L1193.1 394.3L1193.6 493.3L1194 458.9L1194.4 404.9L1194.9 446.4L1195.3 554.6L1195.8 533.4L1196.2 508.1L1196.7 489.5L1197.1 507.5L1197.6 317.6L1198 326.3L1198.4 450L1198.9 463.1L1199.3 409.1L1199.8 405.7L1200.2 349.4L1200.7 506.3L1201.1 399.2L1201.6 430.2L1202 486L1202.4 548.7L1202.9 516L1203.3 507.9L1203.8 546.3L1204.2 468.8L1204.7 433.2L1205.1 279.2L1205.6 352.3L1206 439.5L1206.4 287.5L1206.9 380.4L1207.3 367.2L1207.8 433.2L1208.2 333.6L1208.7 328.8L1209.1 424.3L1209.6 445.5L1210 476.3L1210.4 497.5L1210.9 533.6L1211.3 501.8L1211.8 493.7L1212.2 303.5L1212.7 -774.9L1213.1 -255.4L1213.6 -117.4L1214 -305.8L1214.4 41.4L1214.9 158.2L1215.3 305.3L1215.8 237.5L1216.2 -14.6L1216.7 83.5L1217.1 229.8L1217.6 380L1218 478.3L1218.4 510.7L1218.9 522.2L1219.3 320.7L1219.8 355.1L1220.2 509.5L1220.7 457.3L1221.1 475.7L1221.6 432.8L1222 474.5L1222.4 515.6L1222.9 542.7L1223.3 518.8L1223.8 536.8L1224.2 554.2L1224.7 424.5L1225.1 505.2L1225.6 515.6L1226 427.1L1226.4 295.6L1226.9 197.6L1227.3 380.4L1227.8 326.5L1228.2 435.8L1228.7 295.2L1229.1 352L1229.6 418.8L1230 403L1230.4 343.1L1230.9 433.6L1231.3 511.5L1231.8 485.4L1232.2 477.7L1232.7 486.4L1233.1 450.4L1233.6 255.9L1234 79.7L1234.4 418.2L1234.9 430.2L1235.3 375.9L1235.8 365.6L1236.2 386.4L1236.7 485.2L1237.1 486.4L1237.6 439.9L1238 469L1238.4 532.8L1238.9 516.2L1239.3 460.5L1239.8 532.8L1240.2 472.5L1240.7 403.6L1241.1 259.6L1241.6 317L1242 368L1242.4 311.8L1242.9 208.2L1243.3 116.3L1243.8 293.4L1244.2 356.1L1244.7 247.6L1245.1 341.1L1245.6 349L1246 323.3L1246.4 182.5L1246.9 386L1247.3 337.3L1247.8 406.1L1248.2 145.4L1248.7 233.7L1249.1 364.4L1249.6 367.2L1250 371.3L1250.4 165.5L1250.9 335L1251.3 387.3L1251.8 287.9L1252.2 339.5L1252.7 478.3L1253.1 473.3L1253.6 419.4L1254 486.6L1254.4 480.5L1254.9 526.3L1255.3 316.8L1255.8 335.9L1256.2 446.4L1256.7 396.2L1257.1 401.6L1257.6 432.2L1258 428.7L1258.4 488.2L1258.9 479.1L1259.3 515.4L1259.8 509.5L1260.2 576.7L1260.7 484.4L1261.1 506.7L1261.6 473.9L1262 463.6L1262.4 265.4L1262.9 193.6L1263.3 246L1263.8 319.3L1264.2 337.7L1265.1 205.7L1265.6 356.9L1266 271.5L1266.4 335.1L1266.9 397.8L1267.3 473.5L1267.8 459.5L1268.2 470.6L1268.7 442.1L1269.1 427.9L1269.6 281.6L1270 275.1L1270.4 446.3L1270.9 425.5L1271.3 409.7L1271.8 396.2L1272.2 339.1L1272.7 440.9L1273.1 424.5L1273.6 442.5L1274 453L1274.4 515L1274.9 485.8L1275.3 486.6L1275.8 516L1276.2 485.4L1276.7 455.9L1277.1 207.6L1277.6 319.7L1278 406.7L1278.4 437L1278.9 335.5L1279.3 378L1279.8 502.6L1280.2 456.9L1280.7 443.5L1281.1 455.3L1281.6 526.9L1282 444.7L1282.4 452.6L1282.9 523.7L1283.3 505.8L1283.8 492.7L1284.2 311.4L1284.7 271.7L1285.1 422.7L1285.6 411.5L1286 427.5L1286.4 342.5L1286.9 438.9L1287.3 126.8L1287.8 403.2L1288.2 441.9L1288.7 494.3L1289.1 461.3L1289.6 449.8L1290 484.2L1290.4 493.5L1290.9 435.4L1291.3 298.6L1291.8 303.1L1292.2 437.8L1292.7 383.4L1293.1 413L1293.6 225L1294 337.5L1294.4 416.8L1294.9 376.9L1295.3 407.7L1295.8 394.9L1296.2 486.2L1296.7 403.6L1297.1 482.4L1297.6 465L1298 426.3L1298.4 280L1298.9 231.4L1299.3 397.2L1299.8 367.8L1300.2 452.4L1300.7 403.2L1301.1 434.4L1301.6 483.6L1302 473.5L1302.4 478.5L1302.9 484.2L1303.3 510.9L1303.8 494.5L1304.2 468.4L1304.7 517.8L1305.1 376.9L1305.6 323.3L1306 288.1L1306.4 448L1306.9 377.3L1307.3 457.7L1307.8 428.1L1308.2 265.6L1308.7 394.7L1309.1 465.4L1309.6 468.8L1310 481.2L1310.4 531.7L1310.9 546.5L1311.3 448.8L1311.8 511.9L1312.2 496.3L1312.7 462.9L1313.1 307.1L1313.6 351.4L1314 466.4L1314.4 438.5L1314.9 388.7L1315.3 405.3L1315.8 452.8L1316.2 463.5L1316.7 398.6L1317.1 383.6L1317.6 500.2L1318 515L1318.4 477.5L1318.9 544.1L1319.3 438.7L1319.8 452.4L1320.2 294.2L1320.7 297L1321.1 427.9L1321.6 335.1L1322 429.8L1322.4 355.7L1322.9 407.3L1323.3 311.6L1323.8 310.2L1324.2 422.9L1324.7 449.6L1325.1 457.7L1325.6 466.6L1326 520.2L1326.4 479.7L1326.9 513.9L1327.3 320.3L1327.8 -786.2L1328.2 -229.7L1328.7 -226.3L1329.1 -147.8L1329.6 15.9L1330 159.2L1330.4 322.1L1330.9 216.5L1331.3 118.7L1331.8 6L1332.2 335.3L1332.7 386.2L1333.1 473.5L1333.6 445.1L1334 521.4L1334.4 332.2L1334.9 327.4L1335.3 472.3L1335.8 458.5L1336.2 511.7L1336.7 473.9L1337.1 470.2L1337.6 517.6L1338 508.7L1338.4 499.4L1338.9 544.5L1339.3 539.6L1339.8 522.8L1340.2 512.5L1340.7 379.2L1341.1 475.3L1341.6 333.8L1342 225.2L1342.4 379.4L1342.9 390.9L1343.3 405.3L1343.8 352.7L1344.2 347.2L1344.7 455.7L1345.1 454.6L1345.6 372.7L1346 450.2L1346.4 498.6L1346.9 483.4L1347.3 475.5L1347.8 459.5L1348.2 482.4L1348.7 402.2L1349.1 237.9L1349.6 232.7L1350 354.3L1350.4 350.4L1350.9 369.2L1351.3 388.3L1351.8 469.2L1352.2 454.2L1352.7 431.2L1353.1 477.1L1353.6 538.8L1354 493.3L1354.4 420.6L1354.9 468.6L1355.3 487.2L1355.8 420.9L1356.2 226.4L1356.7 304.3L1357.1 385.4L1357.6 352.9L1358 286.7L1358.4 233.3L1358.9 297.6L1359.3 344.4L1359.8 258.4L1360.2 329.4L1360.7 341.3L1361.1 373.5L1361.6 291.9L1362 353.7L1362.4 352.3L1362.9 406.3L1363.3 167.5L1363.8 185.9L1364.2 364.8L1364.7 326.3L1365.1 329L1365.6 282.4L1366 347.8L1366.4 374.1L1366.9 285.3L1367.3 406.5L1367.8 461.9L1368.2 509.3L1368.7 462.1L1369.1 509.9L1369.6 486L1370 527.1L1370.4 346.8L1370.9 344.2L1371.3 403.4L1371.8 419.6L1372.2 452.4L1372.7 397L1373.1 407.3L1373.6 497.7L1374 477.9L1374.4 495.1L1374.9 409.9L1375.3 570.2L1375.8 538.4L1376.2 415L1376.7 480.5L1377.1 442.1L1377.6 265.2L1378 245L1378.4 296L1378.9 311.4L1379.3 310.4L1379.8 323.5L1380.2 215.7L1380.7 352.2L1381.1 348.4L1381.6 338.5L1382 394.7L1382.4 459.3L1382.9 454.8L1383.3 484L1383.8 467.2L1384.2 418L1384.7 454.8L1385.1 290.3L1385.6 345.8L1386 423.3L1386.4 402.8L1386.9 418.4L1387.3 254.9L1387.8 457.5L1388.2 420.7L1388.7 354.3L1389.1 457.5L1389.6 488L1390 497.8L1390.4 477.3L1390.9 542.3L1391.3 504.6L1391.8 492.7L1392.2 290.9L1392.7 223.5L1393.1 411.5L1393.6 424.9L1394 286.1L1394.4 348.2L1394.9 479.7L1395.3 482.6L1395.8 461.7L1396.2 464.8L1396.7 525.7L1397.1 527.1L1397.6 453.2L1398 498L1398.4 491.3L1398.9 514.1L1399.3 302.5L1399.8 234.3L1400.2 391.9L1400.7 404.5L1401.1 354.3L1401.6 332.2L1402 369.3L1402.4 385.4L1402.9 407.5L1403.3 353.5L1403.8 450.8L1404.2 438.1L1404.7 378.4L1405.1 467L1405.6 403.7L1406 486.8L1406.4 184.3L1406.9 293.6L1407.3 469.6L1407.8 415.8L1408.2 375.5L1408.7 388.9L1409.1 241.4L1409.6 398.2L1410 334.2L1410.4 368.6L1410.9 430.8L1411.3 460.3L1411.8 469.2L1412.2 450L1412.7 484.6L1413.1 400.6L1413.6 269.3L1414 256.5L1414.4 416L1414.9 376.1L1415.3 432.4L1415.8 377.7L1416.2 417.6L1416.7 486.4L1417.1 484.6L1417.6 434.6L1418 518.8L1418.4 494.5L1418.9 481.6L1419.3 480.1L1419.8 533.8L1420.2 467.8L1420.7 459.1L1421.1 294L1421.6 342.5L1422 441.1L1422.4 403.9L1422.9 434.8L1423.3 394.7L1423.8 491.7L1424.2 458.5L1424.7 451.8L1425.1 476.5L1425.6 529.1L1426 510.1L1426.4 408.9L1426.9 516.2L1427.3 482.8L1427.8 457.3L1428.2 305.5L1428.7 321.3L1429.1 448.4L1429.6 413.4L1430 440.3L1430.4 396.6L1430.9 461.7L1431.3 463.8L1431.8 396.4L1432.2 464.8L1432.7 518.8L1433.1 523.7L1433.6 480.3L1434 497.8L1434.4 457.7L1434.9 473.3L1435.3 259L1435.8 286.1L1436.2 436.4L1436.7 352L1437.1 300.4L1437.6 320.7L1438 403L1438.4 354.7L1438.9 269.7L1439.3 411.7L1439.8 401.6L1440.2 506.2L1440.7 444.7L1441.1 455.5L1441.6 474.3L1442 502.4L1442.4 313.2L1442.9 -709.4L1443.3 -238.2L1443.8 -80.2L1444.2 -139.3L1444.7 130.1L1445.1 65.1L1445.6 319.3L1446 215.9L1446.4 75.2L1446.9 19L1447.3 167.7L1447.8 373.3L1448.2 467L1448.7 424.1L1449.1 519.4L1449.6 307.9L1450 351.6L1450.4 483.2L1450.9 428.3L1451.3 480.6L1451.8 453L1452.2 460.1L1452.7 543.7L1453.1 514.8L1453.6 515.6L1454 537.8L1454.4 555L1454.9 472.7L1455.3 492.5L1455.8 511.1L1456.2 460.9L1456.7 420.9L1457.1 227.8L1457.6 255.3L1458 373.3L1458.4 379.4L1458.9 368.6L1459.3 347L1459.8 450.6L1460.2 416.6L1460.7 355.7L1461.1 453.4L1461.6 511.3L1462 479.3L1462.4 457.1L1462.9 520.8L1463.3 505.8L1463.8 394.7L1464.2 265.4L1464.7 303.5L1465.1 433.6L1465.6 405.1L1466 342.7L1466.4 392.7L1466.9 461.7L1467.3 469.8L1467.8 456.3L1468.2 513.1L1468.7 470.8L1469.1 500.6L1469.6 420.2L1470 497.8L1470.9 429.8L1471.3 279.6L1471.8 250.7L1472.2 409.9L1472.7 361.4L1473.1 279.2L1473.6 241.4L1474 261.8L1474.4 355.5L1474.9 253.5L1475.3 309.3L1475.8 344.8L1476.2 367.4L1476.7 372.9L1477.1 368.6L1477.6 365.6L1478 412.6L1478.4 192L1478.9 148.7L1479.3 355.7L1479.8 359.5L1480.2 395L1480.7 262.8L1481.1 266.7L1481.6 390.5L1482 361.6L1482.4 375.5L1482.9 472.9L1483.3 486.2L1483.8 465.6L1484.2 478.9L1484.7 515.8L1485.1 425.7L1485.6 354.9L1486 331.8L1486.4 444.3L1486.9 431L1487.3 435.4L1487.8 366.6L1488.2 421.9L1488.7 487.4L1489.1 491.7L1489.6 478.9L1490 503.2L1490.4 551.8L1490.9 533.8L1491.3 470.8L1491.8 485.4L1492.2 458.9L1492.7 421.1L1493.1 215.9L1493.6 255.9L1494 239.5L1494.4 285.5L1494.9 307.5L1495.3 205.5L1495.8 342.1L1496.7 292.6L1497.1 419.6L1497.6 346.6L1498 458.7L1498.4 448L1498.9 473.9L1499.3 413.4L1499.8 461.3L1500.2 273.9L1500.7 177.4L1501.1 448.6L1501.6 376.1L1502 396.8L1502.4 319.5L1502.9 457.3L1503.3 463.6L1503.8 369.2L1504.2 471.8L1504.7 473.5L1505.1 500.4L1505.6 463.1L1506 499.6L1506.4 495.1L1506.9 510.1L1507.3 255.3L1507.8 134.1L1508.2 401L1508.7 431.2L1509.1 440.9L1509.6 364.4L1510 406.7L1510.4 515.4L1510.9 382.2L1511.3 443.3L1511.8 490.7L1512.2 549.1L1512.7 489.2L1513.1 527.3L1513.6 493.9L1514 471L1514.4 307.3L1514.9 241L1515.3 386.9L1515.8 409.7L1516.2 415.4L1516.7 398L1517.1 400.6L1517.6 409.1L1518 303.5L1518.4 399L1518.9 458.7L1519.3 474.9L1519.8 467.8L1520.2 485.8L1520.7 492.7L1521.1 501.2L1521.6 358.1L1522 292.8L1522.4 465.4L1522.9 446.4L1523.3 420.7L1523.8 379.8L1524.2 269.1L1524.7 411.7L1525.1 415.6L1525.6 344.8L1526 415.6L1526.4 452.4L1526.9 461.1L1527.3 444.7L1527.8 485.4L1528.2 393.1L1528.7 269.3L1529.1 295L1529.6 391.7L1530 364.6L1530.4 395.6L1530.9 384.8L1531.3 404.9L1531.8 492.9L1532.2 454.8L1532.7 335.9L1533.1 509.5L1533.6 489.7L1534 497.8L1534.4 480.1L1534.9 530.1L1535.3 510.9L1535.8 439.7L1536.2 291.3L1536.7 321.7L1537.1 449.6L1537.6 349.6L1538 430.4L1538.4 407.9L1538.9 488.2L1539.3 449.4L1539.8 424.9L1540.2 467.6L1540.7 538.8L1541.1 542.3L1541.6 458.7L1542 518.2L1542.4 505.8L1542.9 493.5L1543.3 312.8L1543.8 161.6L1544.2 471L1544.7 427.9L1545.1 449.6L1545.6 377.3L1546 446.8L1546.4 399L1546.9 371.7L1547.3 455.3L1547.8 515.8L1548.2 531.9L1548.7 491.1L1549.1 515.4L1549.6 478.7L1550 481L1550.4 285.3L1550.9 279.4L1551.3 443.7L1551.8 266.7L1552.2 235.1L1552.7 349.8L1553.1 376.1L1553.6 354.9L1554 147.9L1554.4 344.4L1554.9 399.2L1555.3 447.2L1555.8 456.9L1556.2 508.9L1556.7 499.6L1557.1 496.5L1557.6 356.1L1558 -719.7L1558.4 -468.5L1558.9 -135.6L1559.3 -130.4L1559.8 51.3L1560.2 113.7L1560.7 339.1L1561.1 128.6L1561.6 93.6L1562 4L1562.4 373.7L1562.9 401.2L1563.3 405.7L1563.8 418.2L1564.2 513.7L1564.7 352.5L1565.1 349L1565.6 483.6L1566 449.6L1566.4 468.8L1566.9 472.5L1567.3 451.8L1567.8 535.2L1568.2 478.7L1568.7 494.7L1569.1 502.6L1569.6 559.7L1570 545.9L1570.4 500.8L1570.9 550.6L1571.3 496.9L1571.8 409.1L1572.2 209.8L1572.7 254.3L1573.1 404.3L1573.6 378.8L1574 343.6L1574.4 351.8L1574.9 448.2L1575.3 435.4L1575.8 314.6L1576.2 433.6L1576.7 485.4L1577.1 503.4L1577.6 442.5L1578 535.4L1578.4 507.7L1578.9 435.4L1579.3 223.8L1579.8 227.6L1580.2 418L1580.7 413.8L1581.1 335.1L1581.6 358.1L1582 447.2L1582.4 488.6L1582.9 462.1L1583.3 476.3L1583.8 484L1584.2 469.6L1584.7 425.3L1585.1 511.9L1585.6 478.1L1586 455.7L1586.4 257.9L1586.9 231L1587.3 368.4L1587.8 216.7L1588.2 312.8L1588.7 222.7L1589.1 273.7L1589.6 369L1590 236.1L1590.4 305.9L1590.9 339.9L1591.3 369.3L1591.8 324.3L1592.2 289.3L1592.7 344.8L1593.1 414L1593.6 222.5L1594 209.2L1594.4 381.4L1594.9 354.3L1595.3 383.2L1595.8 363.2L1596.2 296.4L1596.7 369.2L1597.1 363.2L1597.6 328.2L1598 430.4L1598.4 490.5L1598.9 483.6L1599.3 381.6L1599.8 495.1L1600.2 469.8L1600.7 349.6L1601.1 320.7L1601.6 438.5L1602 384.8L1602.4 415L1602.9 433L1603.3 418.6L1603.8 473.5L1604.7 440.3L1605.1 496.1L1605.6 540.5L1606 522.4L1606.4 461.5L1606.9 499.6L1607.3 266.4L1607.8 420.9L1608.2 216.1L1608.7 265.8L1609.1 335.9L1609.6 268.9L1610 194.8L1610.4 151.7L1610.9 338.3L1611.3 354.9L1611.8 290.3L1612.2 389.5L1612.7 426.5L1613.1 460.3L1613.6 443.5L1614 471.8L1614.4 434.2L1614.9 482.4L1615.3 291.1L1615.8 278.2L1616.2 448.2L1616.7 353.7L1617.1 386.9L1617.6 367.8L1618 420.4L1618.4 464.8L1618.9 389.1L1619.3 449.2L1619.8 461.3L1620.2 517L1620.7 490.9L1621.1 512.1L1621.6 484.8L1622 489.2L1622.4 275.8L1622.9 215.2L1623.3 413.2L1623.8 407.9L1624.2 425.1L1624.7 351L1625.1 433.4L1625.6 494.3L1626 495.1L1626.4 471.2L1626.9 491.1L1627.3 545.3L1627.8 496.3L1628.7 518.6L1629.1 515.4L1629.6 309.6L1630 267.5L1630.4 416.8L1630.9 395L1631.3 394.5L1631.8 333.6L1632.2 372.1L1632.7 396L1633.6 410.9L1634 472.1L1634.4 443.3L1634.9 476.7L1635.3 458.9L1635.8 466.6L1636.2 472.7L1636.7 347.6L1637.1 310.8L1637.6 442.7L1638 418.2L1638.4 414.2L1638.9 393.9L1639.3 223.1L1639.8 422.5L1640.2 417.8L1640.7 336.7L1641.1 415.8L1641.6 465.8L1642 469L1642.4 430.4L1642.9 505.4L1643.3 397L1643.8 427.5L1644.2 169.1L1644.7 295L1645.1 388.9L1645.6 344.8L1646 382L1646.4 392.5L1646.9 497.8L1647.3 469L1647.8 441.7L1648.2 489L1648.7 493.9L1649.1 504.6L1649.6 485.6L1650 513.5L1650.4 522.2L1650.9 505.6L1651.3 321.3L1651.8 276.4L1652.2 446.3L1652.7 399.4L1653.1 422.9L1653.6 392.3L1654 460.5L1654.4 464.8L1654.9 472.7L1655.3 450L1655.8 527.5L1656.2 563.5L1656.7 505L1657.1 499.8L1657.6 476.9L1658 491.5L1658.4 285.9L1658.9 280.6L1659.3 443.9L1659.8 404.7L1660.2 427.5L1660.7 123.8L1661.1 405.7L1661.6 474.1L1662 416L1662.4 477.1L1662.9 500.6L1663.3 554.2L1663.8 469L1664.2 500.2L1664.7 485L1665.6 310.4L1666 290.9L1666.4 448.6L1666.9 394.3L1667.3 377.9L1667.8 371.7L1668.2 333.2L1668.7 400.4L1669.1 441.1L1669.6 335.7L1670 344.6L1670.4 501.4L1670.9 486L1671.3 489L1671.8 531.3L1672.2 481.8L1672.7 343.3L1673.1 -508.4L1673.6 -301.2L1674 -156.7L1674.4 -148L1674.9 79.9L1675.3 106.8L1675.8 310.8L1676.2 123.8L1676.7 79.9L1677.1 -71.1L1677.6 337.3L1678 398.8L1678.4 450.4L1678.9 481.8L1679.3 523.9L1679.8 508.1L1680.2 314.2L1680.7 354.3L1681.1 494.5L1681.6 395L1682 447.4L1682.4 437.8L1682.9 543.5L1683.3 518.6L1683.8 489.2L1684.2 504.8L1684.7 548.3L1685.1 554.8L1685.6 492.9L1686 532L1686.4 520L1686.9 421.1L1687.3 280.2L1687.8 244L1688.2 336.7L1688.7 324.5L1689.1 352.3L1689.6 320.3L1690 401.2L1690.4 452.2L1690.9 360.7L1691.3 373.9L1691.8 439.9L1692.2 495.1L1692.7 329.8L1693.1 523.9L1693.6 481.6L1694 456.1L1694.4 272.5L1694.9 263.6L1695.3 417.4L1695.8 420.4L1696.2 365.6L1696.7 345.4L1697.1 409.1L1697.6 460.7L1698 477.9L1698.4 508.7L1698.9 452.2L1699.3 533.6L1699.8 369.9L1700.2 502.8L1700.7 518.6L1701.1 516.2L1701.6 305.5L1702 230.8L1702.4 409.1L1702.9 359.5L1703.3 384L1703.8 186.9L1704.2 272.1L1704.7 383L1705.1 355.9L1705.6 293.6L1706 333.4L1706.4 397.2L1706.9 370.9L1707.3 340.9L1707.8 346.2L1708.2 394.1L1708.7 230.6L1709.1 210.8L1709.6 357.1L1710 375.1L1710.4 277.4L1710.9 344.2L1711.3 310.2L1711.8 377.1L1712.2 304.5L1712.7 333.6L1713.6 475.3L1714 332.6L1714.4 477.7L1714.9 513.9L1715.3 493.7L1715.8 468.4L1716.2 318.9L1716.7 226.6L1717.1 339.1L1717.6 414.6L1718 393.9L1718.4 385.8L1718.9 424.3L1719.3 478.7L1719.8 448.8L1720.2 485.6L1720.7 517L1721.1 541.9L1721.6 464.2L1722 484.6L1722.4 442.9L1722.9 472.7L1723.3 250.5L1723.8 150.5L1724.2 336.7L1724.7 323.1L1725.1 229.8L1725.6 174.4L1726 322.5L1726.4 360.1L1726.9 339.3L1727.3 280.4L1727.8 359.7L1728.2 455.5L1728.7 436.8L1729.1 480.3L1729.6 443.9L1730 446.3L1730.4 285.3L1730.9 278.8L1731.3 446.4L1731.8 351L1732.2 411.9L1732.7 383L1733.1 367.2L1733.6 444.1L1734 400.6L1734.4 430.2L1734.9 471.2L1735.3 496.5L1735.8 501.8L1736.2 486.8L1736.7 444.7L1737.1 467.4L1737.6 233.7L1738 178.2L1738.4 425.9L1738.9 423.7L1739.3 416.4L1739.8 268.1L1740.2 399.2L1740.7 464.4L1741.1 468.6L1741.6 423.3L1742 437.2L1742.4 511.9L1742.9 529.7L1743.3 498.8L1743.8 495.1L1744.2 492.7L1744.7 353.9L1745.1 313.2L1745.6 419.2L1746 235.9L1746.4 407.7L1746.9 405.9L1747.3 387.3L1747.8 460.5L1748.2 386.2L1748.7 400.2L1749.1 366.4L1749.6 454.8L1750 459.3L1750.4 469L1750.9 431L1751.3 470.2L1751.8 495.3L1752.2 305.3L1752.7 364.4L1753.1 383.4L1753.6 351.2L1754 398.4L1754.4 322.1L1754.9 426.7L1755.3 377.1L1755.8 340.3L1756.2 405.1L1756.7 414.8L1757.1 421.5L1757.6 446.8L1758 467.2L1758.4 421.5L1758.9 412.4L1759.3 261.2L1759.8 252.5L1760.2 384.6L1760.7 407.9L1761.1 428.5L1761.6 337.9L1762 477.7L1762.4 493.1L1762.9 456.9L1763.3 430.6L1763.8 476.1L1764.2 516.4L1764.7 439.9L1765.1 534.2L1765.6 487.8L1766 468.2L1766.4 316.8L1766.9 315L1767.3 228.4L1767.8 380L1768.2 435L1768.7 375.1L1769.1 364.6L1769.6 452.4L1770 491.7L1770.4 389.1L1770.9 502.2L1771.3 555.2L1771.8 428.5L1772.2 497.5L1772.7 489.5L1773.1 500L1773.6 324.7L1774 298.8L1774.4 451.4L1774.9 465L1775.3 437.4L1775.8 432L1776.2 390.3L1776.7 456.5L1777.1 358.5L1777.6 441.9L1778 503.2L1778.4 567.2L1778.9 524.5L1779.3 513.3L1779.8 530.3L1780.2 470.4L1780.7 311L1781.1 251.3L1781.6 421.7L1782 360.8L1782.4 385.8L1782.9 410.9L1783.3 339.9L1783.8 417.6L1784.2 353.3L1784.7 252.7L1785.1 433.6L1785.6 456.3L1786 478.5L1786.4 496.3L1786.9 536.6L1787.3 493.5L1787.8 488.2L1788.2 342.3L1788.7 -698L1789.1 -166L1789.6 -112.2L1790 -135.2L1790.4 112.9L1790.9 236.5L1791.3 320.5L1791.8 206.7L1792.2 96.5L1792.7 46.3L1793.1 336.5L1793.6 384L1794 448.6L1794.4 495.7L1794.9 538.2L1795.3 344L1795.8 370.9L1796.2 480.5L1796.7 460.9L1797.1 486L1797.6 436.4L1798 537.4L1798.4 485.6L1798.9 494.3L1799.3 483L1799.8 540.9" fill="transparent" stroke="#3fb1e3" stroke-width="3" stroke-linejoin="bevel" class="zr7-cls-23"></path>
</g>
<path d="M-251 -5l501.9 0l0 28l-501.9 0Z" transform="translate(1000 5)" fill="rgb(0,0,0)" fill-opacity="0" stroke="#ccc" stroke-width="0" class="zr7-cls-21"></path>
<text dominant-baseline="central" text-anchor="middle" style="font-size:18px;font-family:sans-serif;font-weight:bold;" xml:space="preserve" y="9" transform="translate(1000 5)" fill="#666666">Min entityUpdate per Tick for benchmark_biolab_uncontrolled</text>
<defs >
<clipPath id="zr7-c0">
<path d="M198 58.5l16004 0l0 8703l-16004 0Z" fill="#000" class="zr7-cls-22"></path>
</clipPath>
</defs>
<style ><![CDATA[
.zr7-cls-21:hover {
pointer-events:none;
}
.zr7-cls-22:hover {
cursor:pointer;
fill:rgba(0,0,0,1);
}
.zr7-cls-23:hover {
cursor:pointer;
}

]]>

</style>
</svg>