<svg width="2000" height="1000" xmlns="http://www.w3.org/2000/svg" xmlns:xlink="http://www.w3.org/1999/xlink" version="1.1" baseProfile="full" viewBox="0 0 2000 1000">
<rect width="2000" height="1000" x="0" y="0" fill="rgb(252,252,252)" fill-opacity="0"></rect>
<path d="M200 930.5L1800 930.5" fill="transparent" stroke="#eeeeee" class="zr15-cls-45"></path>
<path d="M200 732.5L1800 732.5" fill="transparent" stroke="#eeeeee" class="zr15-cls-45"></path>
<path d="M200 534.5L1800 534.5" fill="transparent" stroke="#eeeeee" class="zr15-cls-45"></path>
<path d="M200 337.5L1800 337.5" fill="transparent" stroke="#eeeeee" class="zr15-cls-45"></path>
<path d="M200 139.5L1800 139.5" fill="transparent" stroke="#eeeeee" class="zr15-cls-45"></path>
<path d="M200 60.5L1800 60.5" fill="transparent" stroke="#eeeeee" class="zr15-cls-45"></path>
<path d="M200.5 930L200.5 60" fill="transparent" stroke="#cccccc" stroke-linecap="round" class="zr15-cls-45"></path>
<text dominant-baseline="central" text-anchor="middle" style="font-size:12px;font-family:sans-serif;" xml:space="preserve" y="-6" transform="translate(200 45)" fill="#cccccc">Min entityUpdate Time (ms)</text>
<path d="M200 930.5L1800 930.5" fill="transparent" stroke="#cccccc" stroke-linecap="round" class="zr15-cls-45"></path>
<text dominant-baseline="central" text-anchor="end" style="font-size:12px;font-family:sans-serif;" transform="translate(192 930)" fill="#999999">0.000</text>
<text dominant-baseline="central" text-anchor="end" style="font-size:12px;font-family:sans-serif;" transform="translate(192 732.3095)" fill="#999999">0.100</text>
<text dominant-baseline="central" text-anchor="end" style="font-size:12px;font-family:sans-serif;" transform="translate(192 534.6189)" fill="#999999">0.200</text>
<text dominant-baseline="central" text-anchor="end" style="font-size:12px;font-family:sans-serif;" transform="translate(192 336.9284)" fill="#999999">0.300</text>
<text dominant-baseline="central" text-anchor="end" style="font-size:12px;font-family:sans-serif;" transform="translate(192 139.2378)" fill="#999999">0.400</text>
<text dominant-baseline="central" text-anchor="end" style="font-size:12px;font-family:sans-serif;" transform="translate(192 60)" fill="#999999">0.440</text>
<text dominant-baseline="central" text-anchor="middle" style="font-size:12px;font-family:sans-serif;" y="6" transform="translate(200.2222 938)" fill="#999999">0</text>
<text dominant-baseline="central" text-anchor="middle" style="font-size:12px;font-family:sans-serif;" y="6" transform="translate(235.3333 938)" fill="#999999">79</text>
<text dominant-baseline="central" text-anchor="middle" style="font-size:12px;font-family:sans-serif;" y="6" transform="translate(270.4444 938)" fill="#999999">158</text>
<text dominant-baseline="central" text-anchor="middle" style="font-size:12px;font-family:sans-serif;" y="6" transform="translate(305.5556 938)" fill="#999999">237</text>
<text dominant-baseline="central" text-anchor="middle" style="font-size:12px;font-family:sans-serif;" y="6" transform="translate(340.6667 938)" fill="#999999">316</text>
<text dominant-baseline="central" text-anchor="middle" style="font-size:12px;font-family:sans-serif;" y="6" transform="translate(375.7778 938)" fill="#999999">395</text>
<text dominant-baseline="central" text-anchor="middle" style="font-size:12px;font-family:sans-serif;" y="6" transform="translate(410.8889 938)" fill="#999999">474</text>
<text dominant-baseline="central" text-anchor="middle" style="font-size:12px;font-family:sans-serif;" y="6" transform="translate(446 938)" fill="#999999">553</text>
<text dominant-baseline="central" text-anchor="middle" style="font-size:12px;font-family:sans-serif;" y="6" transform="translate(481.1111 938)" fill="#999999">632</text>
<text dominant-baseline="central" text-anchor="middle" style="font-size:12px;font-family:sans-serif;" y="6" transform="translate(516.2222 938)" fill="#999999">711</text>
<text dominant-baseline="central" text-anchor="middle" style="font-size:12px;font-family:sans-serif;" y="6" transform="translate(551.3333 938)" fill="#999999">790</text>
<text dominant-baseline="central" text-anchor="middle" style="font-size:12px;font-family:sans-serif;" y="6" transform="translate(586.4444 938)" fill="#999999">869</text>
<text dominant-baseline="central" text-anchor="middle" style="font-size:12px;font-family:sans-serif;" y="6" transform="translate(621.5556 938)" fill="#999999">948</text>
<text dominant-baseline="central" text-anchor="middle" style="font-size:12px;font-family:sans-serif;" y="6" transform="translate(656.6667 938)" fill="#999999">1027</text>
<text dominant-baseline="central" text-anchor="middle" style="font-size:12px;font-family:sans-serif;" y="6" transform="translate(691.7778 938)" fill="#999999">1106</text>
<text dominant-baseline="central" text-anchor="middle" style="font-size:12px;font-family:sans-serif;" y="6" transform="translate(726.8889 938)" fill="#999999">1185</text>
<text dominant-baseline="central" text-anchor="middle" style="font-size:12px;font-family:sans-serif;" y="6" transform="translate(762 938)" fill="#999999">1264</text>
<text dominant-baseline="central" text-anchor="middle" style="font-size:12px;font-family:sans-serif;" y="6" transform="translate(797.1111 938)" fill="#999999">1343</text>
<text dominant-baseline="central" text-anchor="middle" style="font-size:12px;font-family:sans-serif;" y="6" transform="translate(832.2222 938)" fill="#999999">1422</text>
<text dominant-baseline="central" text-anchor="middle" style="font-size:12px;font-family:sans-serif;" y="6" transform="translate(867.3333 938)" fill="#999999">1501</text>
<text dominant-baseline="central" text-anchor="middle" style="font-size:12px;font-family:sans-serif;" y="6" transform="translate(902.4444 938)" fill="#999999">1580</text>
<text dominant-baseline="central" text-anchor="middle" style="font-size:12px;font-family:sans-serif;" y="6" transform="translate(937.5556 938)" fill="#999999">1659</text>
<text dominant-baseline="central" text-anchor="middle" style="font-size:12px;font-family:sans-serif;" y="6" transform="translate(972.6667 938)" fill="#999999">1738</text>
<text dominant-baseline="central" text-anchor="middle" style="font-size:12px;font-family:sans-serif;" y="6" transform="translate(1007.7778 938)" fill="#999999">1817</text>
<text dominant-baseline="central" text-anchor="middle" style="font-size:12px;font-family:sans-serif;" y="6" transform="translate(1042.8889 938)" fill="#999999">1896</text>
<text dominant-baseline="central" text-anchor="middle" style="font-size:12px;font-family:sans-serif;" y="6" transform="translate(1078 938)" fill="#999999">1975</text>
<text dominant-baseline="central" text-anchor="middle" style="font-size:12px;font-family:sans-serif;" y="6" transform="translate(1113.1111 938)" fill="#999999">2054</text>
<text dominant-baseline="central" text-anchor="middle" style="font-size:12px;font-family:sans-serif;" y="6" transform="translate(1148.2222 938)" fill="#999999">2133</text>
<text dominant-baseline="central" text-anchor="middle" style="font-size:12px;font-family:sans-serif;" y="6" transform="translate(1183.3333 938)" fill="#999999">2212</text>
<text dominant-baseline="central" text-anchor="middle" style="font-size:12px;font-family:sans-serif;" y="6" transform="translate(1218.4444 938)" fill="#999999">2291</text>
<text dominant-baseline="central" text-anchor="middle" style="font-size:12px;font-family:sans-serif;" y="6" transform="translate(1253.5556 938)" fill="#999999">2370</text>
<text dominant-baseline="central" text-anchor="middle" style="font-size:12px;font-family:sans-serif;" y="6" transform="translate(1288.6667 938)" fill="#999999">2449</text>
<text dominant-baseline="central" text-anchor="middle" style="font-size:12px;font-family:sans-serif;" y="6" transform="translate(1323.7778 938)" fill="#999999">2528</text>
<text dominant-baseline="central" text-anchor="middle" style="font-size:12px;font-family:sans-serif;" y="6" transform="translate(1358.8889 938)" fill="#999999">2607</text>
<text dominant-baseline="central" text-anchor="middle" style="font-size:12px;font-family:sans-serif;" y="6" transform="translate(1394 938)" fill="#999999">2686</text>
<text dominant-baseline="central" text-anchor="middle" style="font-size:12px;font-family:sans-serif;" y="6" transform="translate(1429.1111 938)" fill="#999999">2765</text>
<text dominant-baseline="central" text-anchor="middle" style="font-size:12px;font-family:sans-serif;" y="6" transform="translate(1464.2222 938)" fill="#999999">2844</text>
<text dominant-baseline="central" text-anchor="middle" style="font-size:12px;font-family:sans-serif;" y="6" transform="translate(1499.3333 938)" fill="#999999">2923</text>
<text dominant-baseline="central" text-anchor="middle" style="font-size:12px;font-family:sans-serif;" y="6" transform="translate(1534.4444 938)" fill="#999999">3002</text>
<text dominant-baseline="central" text-anchor="middle" style="font-size:12px;font-family:sans-serif;" y="6" transform="translate(1569.5556 938)" fill="#999999">3081</text>
<text dominant-baseline="central" text-anchor="middle" style="font-size:12px;font-family:sans-serif;" y="6" transform="translate(1604.6667 938)" fill="#999999">3160</text>
<text dominant-baseline="central" text-anchor="middle" style="font-size:12px;font-family:sans-serif;" y="6" transform="translate(1639.7778 938)" fill="#999999">3239</text>
<text dominant-baseline="central" text-anchor="middle" style="font-size:12px;font-family:sans-serif;" y="6" transform="translate(1674.8889 938)" fill="#999999">3318</text>
<text dominant-baseline="central" text-anchor="middle" style="font-size:12px;font-family:sans-serif;" y="6" transform="translate(1710 938)" fill="#999999">3397</text>
<text dominant-baseline="central" text-anchor="middle" style="font-size:12px;font-family:sans-serif;" y="6" transform="translate(1745.1111 938)" fill="#999999">3476</text>
<text dominant-baseline="central" text-anchor="middle" style="font-size:12px;font-family:sans-serif;" y="6" transform="translate(1780.2222 938)" fill="#999999">3555</text>
<g clip-path="url(#zr15-c0)">
<path d="M200.2 351.2L200.7 629.5L201.1 732.9L201.6 620.2L202 712.1L202.4 679.1L202.9 717.9L203.3 682.9L203.8 731.5L204.2 664.7L204.7 716.7L205.1 686.8L205.6 726L206 676.6L206.4 743.6L206.9 690.8L207.3 686.2L207.8 711.6L208.2 731.7L208.7 620.8L209.1 735.9L209.6 147.3L210 726.8L210.4 712.7L210.9 707.6L211.3 669.6L211.8 730.9L212.2 685.9L212.7 720.6L213.1 675.4L213.6 737.4L214 690.4L214.4 730.7L214.9 685.7L215.3 743.8L215.8 615.5L216.2 744L216.7 660.9L217.1 734.5L217.6 691.6L218 717.7L218.4 671L218.9 723.4L219.3 681.3L219.8 731.5L220.2 670.2L220.7 726.6L221.1 757.2L221.6 763.1L222 567.4L222.4 580.3L222.9 571L223.3 593.5L223.8 729.1L224.2 669.4L224.7 558.5L225.1 534.2L225.6 534.8L226 566.8L226.4 677L226.9 600.3L227.3 407.3L227.8 491.3L228.2 458.3L228.7 494.7L229.1 609.9L229.6 605.4L230 327L230.4 396.6L230.9 442.9L231.3 460.3L231.8 611.1L232.2 568.6L232.7 396.4L233.1 405.1L233.6 389.1L234 481L234.4 600.6L234.9 570.4L235.3 402.2L235.8 380.8L236.2 440.9L236.7 486.8L237.1 626.7L237.6 432L238 393.7L238.4 397.4L238.9 451.6L239.3 426.5L239.8 625L240.2 556L240.7 380.8L241.1 384L241.6 445.7L242 464.4L242.4 609.1L242.9 563.5L243.3 370.1L243.8 411.9L244.2 482L244.7 392.9L245.1 635.8L245.6 559.1L246 414.4L246.4 423.5L246.9 438.7L247.3 469.2L247.8 648.7L248.2 568L248.7 392.9L249.1 357.7L249.6 455.7L250.4 624.4L250.9 581.3L251.3 434L251.8 336.9L252.2 472.5L252.7 425.3L253.1 630.3L253.6 576.3L254 385.8L254.4 393.3L254.9 459.7L255.3 463.5L255.8 627.3L256.2 562.7L256.7 438.3L257.1 416.8L257.6 475.9L258 491.1L258.4 627.1L258.9 485.6L259.3 431.6L259.8 420.4L260.2 474.1L260.7 470.8L261.1 614.5L261.6 581.7L262 428.1L262.4 431L262.9 167.3L263.3 437.6L263.8 635L264.2 575.3L264.7 596.3L265.1 506L265.6 577.3L266 506.5L266.4 660.4L266.9 579.9L267.3 618.8L267.8 569.2L268.2 653.2L268.7 621.6L269.1 686.6L269.6 646.7L270 710.6L270.4 645.3L270.9 711.2L271.3 696.3L271.8 740.2L272.2 684.5L272.7 745.6L273.1 708L273.6 637.2L274 688.2L274.4 730.3L274.9 696.9L275.3 725.2L275.8 701.7L276.2 705.8L276.7 698.1L277.1 727.6L277.6 680.9L278 712.3L278.4 716.7L278.9 724.8L279.3 693.2L279.8 742.6L280.2 717.1L280.7 655.4L281.1 705L281.6 710.8L282 701.9L282.4 742.8L282.9 689.6L283.3 706.2L283.8 714.9L284.2 711.4L284.7 690.4L285.1 715.3L285.6 713.9L286 729.9L286.4 710.8L286.9 727.4L287.3 710L287.8 646.5L288.2 718.7L288.7 706.8L289.1 712.3L289.6 726.4L290 684.3L290.4 706.4L291.3 714.3L291.8 709.2L292.2 703.1L292.7 714.9L293.1 730.5L293.6 708.4L294 716.7L294.4 703.1L294.9 644.3L295.3 708.2L295.8 717.9L296.2 704.8L296.7 722.8L297.1 682.3L297.6 703.2L298 696.9L298.4 715.5L298.9 702.3L299.3 691.6L299.8 700.3L300.2 721.8L300.7 694.4L301.1 709L301.6 697.3L302 645.9L302.4 710L302.9 718.3L303.3 699.7L303.8 717.5L304.2 695.3L304.7 709L305.1 686.4L305.6 715.7L306 676L306.4 714.5L306.9 687L307.3 717.1L307.8 702.3L308.2 711.2L308.7 714.7L309.1 734.1L309.6 613.3L310 719.5L310.4 695.7L310.9 724.6L311.3 695.9L311.8 735.9L312.2 678.7L312.7 715.9L313.1 689.4L313.6 719.3L314 684.1L314.4 736.7L314.9 694.6L315.3 716.5L315.8 711.4L316.2 461.9L316.7 624.8L317.1 738.2L317.6 672.6L318 727L318.4 713.1L318.9 662.5L319.3 664.5L319.8 741.6L320.2 680.9L320.7 714.5L321.1 677.7L321.6 738.2L322 687.6L322.4 724L322.9 687.6L323.3 735.5L323.8 605L324.2 741.2L324.7 662.1L325.1 744L325.6 691L326 709.6L326.4 682.5L326.9 714.7L327.3 666.5L327.8 723L328.2 673L328.7 737.6L329.1 687.8L329.6 727L330 678.3L330.4 742.8L330.9 611.3L331.3 736.5L331.8 691.8L332.2 727.8L332.7 679.5L333.1 717.1L333.6 663.1L334 732.1L334.4 688L334.9 726.6L335.3 664.7L335.8 739L336.2 763.5L336.7 763L337.1 606.6L337.6 603.8L338 563.1L338.4 543.3L338.9 723L339.3 677.7L339.8 548.7L340.2 520.6L340.7 549.1L341.1 542.5L341.6 679.9L342 601.4L342.4 436.8L342.9 448.8L343.3 471.2L343.8 533.6L344.2 622L344.7 618.4L345.1 467.8L345.6 323.3L346 429.4L346.4 477.9L346.9 625.8L347.3 583.4L347.8 472.5L348.2 349L348.7 457.7L349.1 469.6L349.6 618.4L350 572.2L350.4 467.8L350.9 413.2L351.3 462.7L351.8 496.5L352.2 640.6L352.7 515.6L353.1 488.2L353.6 387.3L354 464L354.4 489.3L354.9 606.6L355.3 559.7L355.8 478.1L356.2 409.1L356.7 462.1L357.1 470L357.6 625.8L358 579.9L358.4 474.5L358.9 408.7L359.3 462.5L359.8 412.1L360.2 647.5L360.7 575.7L361.1 482.2L361.6 403.4L362 463.6L362.4 471.6L362.9 611.5L363.3 573L363.8 462.1L364.2 389.7L364.7 422.7L365.1 461.5L365.6 632.3L366 577.7L366.4 480.5L366.9 340.7L367.3 489.5L367.8 476.3L368.2 633.3L368.7 571.8L369.1 456.7L369.6 182.1L370 477.9L370.4 452.8L370.9 599.1L371.3 532.6L371.8 480.6L372.2 412.4L372.7 481.8L373.1 445.3L373.6 617.8L374 504.6L374.4 473.9L374.9 401L375.3 466.8L375.8 486.6L376.2 617.5L376.7 568.4L377.1 467.6L377.6 441.9L378 487.6L378.4 481L378.9 613.3L379.3 585.2L379.8 599.3L380.2 507.1L380.7 575.1L381.1 579.7L381.6 539.6L382 573.4L382.4 597.1L382.9 535.6L383.3 634.5L383.8 627.7L384.2 668.5L384.7 665.1L385.1 706L385.6 647.7L386 702.3L386.4 707L386.9 720.3L387.3 682.7L387.8 734.1L388.2 706.2L388.7 648.3L389.1 708.4L389.6 710.2L390 694L390.4 742.4L390.9 687.8L391.3 701.1L391.8 716.9L392.2 698.9L392.7 677.5L393.1 714.1L393.6 718.1L394 730.9L394.4 706.8L394.9 717.5L395.8 647.3L396.2 714.7L396.7 702.3L397.1 710.4L397.6 724.2L398 690.2L398.4 713.9L398.9 708.2L399.3 714.1L399.8 696.1L400.2 704.2L400.7 710.8L401.1 725L401.6 711.4L402 717.9L402.4 714.9L402.9 649.1L403.3 713.7L403.8 721.8L404.2 704.4L404.7 721L405.1 690.6L405.6 715.7L406 701.5L406.4 714.5L406.9 700.3L407.3 691L407.8 709L408.2 720.4L408.7 701.3L409.1 718.3L409.6 715.7L410 651.7L410.4 717.9L410.9 712.3L411.3 695.9L411.8 721.8L412.2 694.9L412.7 685.3L413.1 692.2L413.6 710.2L414 693L414.4 701.7L414.9 679.3L415.3 722L415.8 709.8L416.2 716.1L416.7 706.4L417.1 729.9L417.6 610.5L418 716.3L418.4 696.3L418.9 720.4L419.3 695.9L419.8 733.5L420.2 678.5L420.7 725.4L421.1 703.1L421.6 725.2L422 677.4L422.4 742.8L422.9 514.7L423.3 710L423.8 705.6L424.2 730.7L424.7 613.1L425.1 730.9L425.6 673.4L426 715.9L426.4 710L426.9 712.9L427.3 673L427.8 744L428.2 670.2L428.7 708.8L429.1 683.9L429.6 743L430 685.5L430.4 732.5L430.9 689.6L431.3 744L431.8 618L432.2 737.3L432.7 679.7L433.1 735.1L433.6 682.7L434 716.3L434.4 682.5L434.9 726.8L435.3 624.6L435.8 727.4L436.2 663.3L436.7 736.5L437.1 697.5L437.6 739L438 676.8L438.4 740L438.9 609.1L439.3 734.1L439.8 671L440.2 721.6L440.7 680.9L441.1 707L441.6 681.1L442 711L442.4 687.8L442.9 724.6L443.3 656.6L443.8 742L444.2 697.1L444.7 735.1L445.1 688.4L445.6 733.1L446 615.7L446.4 744.2L446.9 688L447.3 719.1L447.8 684.9L448.2 716.9L448.7 686.2L449.1 731.3L449.6 693.8L450 680.3L450.4 676.8L450.9 718.5L451.3 766.7L451.8 773.4L452.2 766.7L452.7 632.7L453.1 522.8L453.6 611.9L454 587.4L454.4 714.1L454.9 684.9L455.3 547.9L455.8 566.6L456.2 517L456.7 539.6L457.1 684.7L457.6 584L458 493.1L458.9 439.3L459.3 504.8L459.8 641.6L460.2 597.1L460.7 379L461.1 404.3L461.6 438.7L462 480.6L462.4 636.2L462.9 574.4L463.3 443.9L463.8 376.5L464.2 447.6L464.7 467.4L465.1 605.2L465.6 599.3L466 389.3L466.4 412.1L466.9 471L467.3 488.2L467.8 545.3L468.2 592.7L468.7 434.2L469.1 430.4L469.6 395.4L470 465.2L470.4 610.9L470.9 583.1L471.3 444.9L471.8 442.9L472.2 439.3L472.7 493.1L473.1 601.2L473.6 565.5L474 394.3L474.4 418.6L474.9 396.2L475.3 491.3L475.8 619L476.2 364.6L476.7 469L477.1 373.3L477.6 434.2L478 475.9L478.4 613.7L478.9 587.6L479.3 437.6L479.8 394.5L480.2 476.9L480.7 487L481.1 613.1L481.6 597.3L482 390.5L482.4 438.7L482.9 443.3L483.3 467L483.8 620.2L484.2 574.9L484.7 466.4L485.1 365L485.6 452.2L486 493.3L486.4 613.3L486.9 567.8L487.3 456.1L487.8 425.3L488.2 470L488.7 489.9L489.1 553.2L489.6 580.5L490 463.3L490.4 426.9L490.9 470.2L491.8 610.9L492.2 555.6L492.7 462.3L493.1 429.4L493.6 466.4L494 471.8L494.4 624.6L494.9 578.9L495.3 575.3L495.8 538.6L496.2 568.4L496.7 499.8L497.1 635.8L497.6 563.3L498 609.1L498.4 582.1L498.9 626.5L499.3 602.6L499.8 703.1L500.2 640L500.7 685.7L501.1 632.5L501.6 730.3L502 680.5L502.4 717.7L502.9 673L503.3 727.8L503.8 607.2L504.2 733.5L504.7 604.8L505.1 734.9L505.6 685.7L506 706L506.4 680.9L506.9 727L507.3 669.2L507.8 720.6L508.2 663.1L508.7 737.1L509.1 690.6L509.6 726L510 681.1L510.4 736.9L510.9 618.8L511.3 739.4L511.8 691L512.2 728.4L512.7 684.3L513.1 712.3L513.6 667.1L514 721.4L514.4 686.8L514.9 721.4L515.3 664.7L515.8 728L516.2 691.4L516.7 732.3L517.1 688L517.6 731.7L518 616.5L518.4 737.4L518.9 688.8L519.3 703.2L519.8 698.1L520.2 708.6L520.7 675.6L521.1 724.6L521.6 695.3L522 720.4L522.4 681.5L522.9 714.7L523.3 694.4L523.8 732.3L524.2 690.2L524.7 744.2L525.1 625.8L525.6 711.4L526 672.8L526.4 723.6L526.9 687.4L527.3 716.9L527.8 689.8L528.2 679.7L528.7 678.9L529.1 712.3L529.6 446.6L530 695.9L530.4 649.5L530.9 708.6L531.3 673L531.8 730.9L532.2 698.5L532.7 643.7L533.1 704.6L533.6 696.7L534 690L534.4 728.8L534.9 677.4L535.3 695.3L535.8 706.6L536.2 688L536.7 677.2L537.1 713.5L537.6 684.5L538 718.7L538.4 705.6L538.9 719.3L539.3 701.7L539.8 640.8L540.2 711.6L540.7 697.3L541.1 711.9L541.6 705.4L542 681.1L542.4 708.6L542.9 699.3L543.3 700.7L543.8 686L544.2 695.1L544.7 696.3L545.1 714.7L545.6 698.1L546 711.2L546.4 709.6L546.9 630.9L547.3 707.8L547.8 709.4L548.2 696.5L548.7 703.1L549.1 677.2L549.6 713.3L550 703.1L550.4 717.5L550.9 699.5L551.3 690L551.8 694L552.2 714.1L552.7 699.7L553.1 716.5L553.6 707.6L554 644.3L554.4 710.6L554.9 709.6L555.3 692L555.8 721.4L556.2 678.5L556.7 708.8L557.1 678.3L557.6 709.6L558 686.4L558.4 698.5L558.9 660L559.3 709.2L559.8 693.6L560.2 703.8L561.1 653.6L561.6 689.8L562 708L562.4 689.4L562.9 709.8L563.3 683.9L563.8 722.2L564.2 663.3L564.7 712.1L565.1 693.4L565.6 714.1L566 667.3L566.4 732.7L566.9 754.8L567.3 744.2L567.8 643.5L568.2 590.4L568.7 563.1L569.1 569.4L569.6 711.4L570 668.7L570.4 598.1L570.9 531.7L571.3 523.7L571.8 572L572.2 665.3L572.7 551.4L573.1 491.1L573.6 468L574 461.5L574.4 522L574.9 610.1L575.3 603.2L575.8 377.5L576.2 389.1L576.7 395.2L577.1 452L577.6 606.4L578 566.4L578.4 418.6L578.9 357.7L579.3 444.1L579.8 457.9L580.2 581.7L580.7 580.7L581.1 439.3L581.6 404.9L582 450.6L582.4 488L582.9 276.6L583.3 597.1L583.8 428.9L584.2 399.2L584.7 451.2L585.1 454L585.6 597.1L586 574.9L586.4 363L586.9 401L587.3 436.4L587.8 489.2L588.2 593.1L588.7 576.9L589.1 411.5L589.6 421.9L590 384.8L590.4 484.2L590.9 610.1L591.3 584L591.8 404.5L592.2 384.4L592.7 453.6L593.1 472.1L593.6 569.4L594 579.1L594.4 431.8L594.9 386.4L595.3 463.5L595.8 479.1L596.2 612.3L596.7 602.8L597.1 392.5L597.6 409.5L598 448.6L598.4 482.6L598.9 609.5L599.3 577.7L599.8 449.4L600.2 385.2L600.7 472.7L601.1 461.5L601.6 609L602 564.7L602.4 472.1L602.9 397.4L603.3 462.7L603.8 477.9L604.2 631.9L604.7 506.3L605.1 449.8L605.6 393.9L606 464.2L606.4 489.3L606.9 612.9L607.3 555.6L607.8 436.8L608.2 387.1L608.7 451.4L609.1 449.2L609.6 626.5L610 570.2L610.4 592.7L610.9 505L611.3 579.3L611.8 489.2L612.2 631.5L612.7 556.8L613.1 617.5L613.6 547.1L614 636.8L614.4 615.5L614.9 695.7L615.3 633.1L615.8 702.1L616.2 621.2L616.7 730.1L617.1 691.6L617.6 727L618 676.2L618.4 724.8L618.9 604.2L619.3 737.4L619.8 682.3L620.2 728.6L620.7 688.6L621.1 712.1L621.6 678.5L622 725L622.4 689L622.9 726.4L623.3 660.7L623.8 728.8L624.2 683.3L624.7 723.2L625.1 684.3L625.6 732.1L626 590.2L626.4 738.4L626.9 683.3L627.3 712.7L627.8 686.8L628.2 710.2L628.7 679.9L629.1 726.8L629.6 691.8L630 729.3L630.4 682.5L630.9 708.2L631.3 692.2L631.8 733.3L632.2 682.7L632.7 743.4L633.1 632.3L633.6 716.5L634 684.5L634.4 724.6L634.9 686.6L635.3 716.3L635.8 697.3L636.2 527.1L636.7 692.2L637.1 722L637.6 692.8L638 715.5L638.4 707L638.9 718.3L639.3 681.5L639.8 732.3L640.2 708.4L640.7 648.3L641.1 700.5L641.6 692.4L642 683.3L642.4 730.1L642.9 679.3L643.3 691.8L643.8 687L644.2 695.7L644.7 666.1L645.1 690.6L645.6 706.8L646 711.7L646.4 687.4L646.9 709.4L647.3 708L647.8 641.4L648.2 691.6L648.7 696.5L649.1 694.6L649.6 708.2L650 680.3L650.4 698.9L650.9 695.9L651.3 708L651.8 699.3L652.2 687.6L652.7 706.2L653.1 721.8L653.6 698.1L654 707.2L654.4 704.4L654.9 644.3L655.3 702.3L655.8 714.3L656.2 698.5L656.7 710.6L657.1 681.5L657.6 701.1L658 696.3L658.4 712.7L658.9 695.5L659.3 688.6L659.8 704L660.2 724.6L660.7 692.2L661.1 714.5L661.6 706.8L662 642L662.4 712.3L662.9 706.8L663.3 692.8L663.8 721.4L664.2 668.9L664.7 707.8L665.1 697.3L665.6 713.5L666 675.8L666.4 706.8L666.9 677.9L667.3 716.1L667.8 702.7L668.2 714.9L668.7 709.2L669.1 654.2L669.6 695.1L670.4 681.5L670.9 706.2L671.3 682.7L671.8 726.4L672.2 658.2L672.7 713.7L673.1 684.5L673.6 709.8L674 678.7L674.4 725.6L674.9 683.3L675.3 710.4L675.8 677.9L676.2 721.4L676.7 609.9L677.1 726L677.6 669.2L678 714.9L678.4 702.5L678.9 703.8L679.3 641.8L679.8 726.2L680.2 671.4L680.7 711.4L681.1 666.1L681.6 737.3L682 755.2L682.4 756.6L682.9 610.1L683.3 584.4L683.8 557.7L684.2 589L684.7 702.7L685.1 680.9L685.6 590L686 513.1L686.4 504L686.9 534.4L687.3 662.3L687.8 594.3L688.2 457.7L688.7 487L689.1 480.5L689.6 334.4L690 621.2L690.4 609.3L690.9 388.7L691.3 371.7L691.8 427.3L692.2 453.2L692.7 600.3L693.1 569.8L693.6 444.9L694 401L694.4 400.4L694.9 445.7L695.3 579.5L695.8 521L696.2 441.9L696.7 396.2L697.1 455.1L697.6 452.6L698 544.5L698.4 612.5L698.9 462.3L699.3 398.2L699.8 454.2L700.2 465.6L700.7 603.2L701.1 582.5L701.6 475.9L702 429.1L702.4 455.1L702.9 443.3L703.3 602L703.8 579.9L704.2 468.8L704.7 438.7L705.1 395.2L705.6 464L706 605.2L706.4 581.5L706.9 455.5L707.3 412.8L707.8 482.8L708.2 442.1L708.7 597.7L709.1 573.2L709.6 435.4L710 386.2L710.4 496.7L710.9 490.3L711.3 606.2L711.8 599.5L712.2 434L712.7 316.2L713.1 473.5L713.6 470L714 630.9L714.4 586.6L714.9 470.6L715.3 405.7L715.8 466L716.2 451.8L716.7 585L717.1 576.5L717.6 499.4L718 419.6L718.4 453.8L718.9 444.9L719.3 621.8L719.8 495.1L720.2 467.6L720.7 381.4L721.1 480.8L721.6 463.1L722 602L722.4 574.4L722.9 492.7L723.3 377.1L723.8 462.5L724.2 442.7L724.7 617.8L725.1 564.7L725.6 589.2L726 522.8L726.4 578.9L726.9 498.8L727.3 590.4L727.8 560.1L728.2 616.3L728.7 550.6L729.1 635.4L729.6 616.7L730 696.9L730.4 650.5L730.9 702.3L731.3 621.2L731.8 720.4L732.2 681.7L732.7 707.4L733.1 679.7L733.6 728.6L734 609.3L734.4 732.3L734.9 685.9L735.3 723.6L735.8 683.7L736.2 706.4L736.7 680.9L737.1 731.1L737.6 689.2L738 725.4L738.4 683.5L738.9 706.6L739.3 687.4L739.8 730.5L740.2 685.3L740.7 735.7L741.1 626.3L741.6 714.7L742 685.7L742.4 723L742.9 534.6L743.3 720.4L743.8 694.6L744.2 703.8L744.7 685.9L745.1 720.1L745.6 679.1L746 709.4L746.4 703.2L746.9 720.4L747.3 689.4L747.8 738.6L748.2 710L748.7 636.2L749.1 708.4L749.6 698.7L750 689.8L750.4 739.6L750.9 684.7L751.3 702.7L751.8 713.1L752.2 704.6L752.7 679.3L753.1 711.6L753.6 706.6L754 724.6L754.4 700.1L754.9 716.7L755.3 697.3L755.8 637.8L756.2 704.8L756.7 689L757.1 700.7L757.6 712.1L758 685.5L758.4 711.6L758.9 692.6L759.3 703.2L759.8 693.8L760.2 679.3L760.7 705.6L761.1 727.4L761.6 686.2L762 711.9L762.4 695.5L762.9 641.6L763.3 702.7L763.8 716.9L764.2 694L764.7 716.1L765.1 665.5L765.6 703.1L766 694.9L766.4 716.7L766.9 690L767.3 692L767.8 703.1L768.2 715.3L768.7 689.6L769.1 715.7L769.6 695.9L770 633.5L770.4 698.9L770.9 709.4L771.3 691.8L771.8 720.8L772.2 677.7L772.7 710.6L773.1 701.5L773.6 707.4L774 671.4L774.4 708.2L774.9 687.6L775.3 720.3L775.8 704.4L776.2 715.3L776.7 696.5L777.1 658.4L777.6 694.6L778 709.8L778.4 681.5L778.9 721.2L779.3 694.2L779.8 723.2L780.2 653.8L780.7 713.5L781.1 692.8L781.6 709L782 680.9L782.4 737.3L782.9 691.4L783.3 711.4L783.8 700.5L784.2 733.5L784.7 609.3L785.1 726.6L785.6 666.1L786 695.7L786.4 706.6L786.9 711L787.3 662.9L787.8 727L788.2 670.8L788.7 668.9L789.1 669.4L789.6 734.9L790 682.5L790.4 720.8L790.9 678.5L791.3 735.3L791.8 610.3L792.2 738L792.7 673L793.1 735.7L793.6 686.4L794 703.6L794.4 673.4L794.9 705.2L795.3 669L795.8 728.4L796.2 526.5L796.7 736.1L797.1 762.8L797.6 759.2L798 638.4L798.4 596.7L798.9 563.7L799.3 608.4L799.8 726.2L800.2 637.6L800.7 594.7L801.1 534.2L801.6 529.7L802 550.2L802.4 665.7L802.9 594.9L803.3 448.2L803.8 469.4L804.2 460.7L804.7 508.3L805.1 619L805.6 602.8L806 332.8L806.4 421.5L806.9 440.1L807.3 488.2L807.8 611.5L808.2 574.4L808.7 458.7L809.1 415L809.6 449.6L810 481.2L810.4 580.3L810.9 564.7L811.3 447.4L811.8 310.6L812.2 462.5L812.7 471.2L813.1 557.7L813.6 554.6L814 414.6L814.4 367.4L814.9 463.3L815.3 472.3L815.8 609.3L816.2 552.8L816.7 461.1L817.1 401.8L817.6 455.3L818 448L818.4 611.1L818.9 560.3L819.3 480.5L819.8 423.9L820.2 487.2L820.7 393.1L821.1 626.7L821.6 565.9L822 466.8L822.4 423.9L822.9 371.5L823.3 449L823.8 636.2L824.2 559.9L824.7 437.8L825.1 401.4L825.6 493.3L826 485.6L826.4 634.8L826.9 581.5L827.3 460.3L827.8 329L828.2 489.9L828.7 451.8L829.1 637.6L829.6 564.1L830 454.4L830.4 397.8L830.9 479.7L831.3 465.4L831.8 626L832.2 562.9L832.7 498.4L833.1 406.3L833.6 467.8L834 484.4L834.4 634.7L834.9 504.6L835.3 491.9L835.8 361L836.2 463.8L836.7 468L837.1 613.5L837.6 582.9L838 484L838.4 413.6L838.9 463.6L839.3 417L839.8 622.4L840.2 570.2L840.7 600.3L841.1 521L841.6 574.8L842 498.6L842.4 654.2L842.9 570.8L843.3 602.4L843.8 563.1L844.2 636L844.7 613.5L845.1 693.2L845.6 657.4L846 703.1L846.4 628.1L846.9 701.5L847.3 682.5L847.8 731.1L848.2 680.1L848.7 737.3L849.1 622.2L849.6 563.1L850 684.5L850.4 722.8L850.9 696.9L851.3 722.8L851.8 705.4L852.2 701.7L852.7 690.4L853.1 729.1L853.6 686.6L854 718.3L854.4 711.2L854.9 725.2L855.3 682.5L855.8 735.3L856.2 703.8L856.7 645.1L857.1 706L857.6 699.1L858 696.5L858.4 731.9L858.9 685.5L859.3 702.1L859.8 708L860.2 706.6L860.7 686.8L861.1 709.6L861.6 705L862 716.1L862.4 703.2L862.9 720.3L863.3 707.6L863.8 639.4L864.2 709.4L864.7 701.1L865.1 708.6L865.6 720.4L866 679.1L866.4 711.4L866.9 698.5L867.3 697.7L867.8 699.9L868.2 701.5L868.7 705.8L869.1 716.9L869.6 694.4L870 715.1L870.4 707.6L870.9 641.2L871.3 704.8L871.8 710.8L872.2 693L872.7 719.7L873.1 676.2L873.6 702.9L874 690.4L874.4 712.5L874.9 682.5L875.3 689.8L875.8 706.2L876.2 716.1L876.7 700.5L877.1 704.4L877.6 702.7L878 641.6L878.4 704.8L878.9 715.1L879.3 699.1L879.8 715.1L880.2 678.5L880.7 710.6L881.1 699.7L881.6 717.9L882 698.1L882.4 703.6L882.9 682.9L883.3 724.8L883.8 708.8L884.2 711.9L884.7 708.6L885.1 651.1L885.6 693L886 721L886.4 690.2L886.9 718.7L887.3 692L887.8 728.4L888.2 673L888.7 719.9L889.1 689.8L889.6 709.4L890 685.5L890.4 737.8L890.9 690L891.3 709.6L891.8 706.2L892.2 739.8L892.7 574.2L893.1 730.7L893.6 646.5L894 722.6L894.4 708.8L894.9 711.6L895.3 671.6L895.8 739.4L896.2 683.3L896.7 714.5L897.1 670.8L897.6 737.4L898 681.9L898.4 730.9L898.9 678.5L899.3 725.4L899.8 613.7L900.2 733.1L900.7 665.7L901.1 733.5L901.6 683.3L902 712.1L902.4 678.1L902.9 561.7L903.3 670.4L903.8 710.2L904.2 655.2L904.7 721.2L905.1 680.7L905.6 725.8L906 688L906.4 729.9L906.9 604.6L907.3 734.3L907.8 672.8L908.2 726.8L908.7 683.9L909.1 714.7L909.6 681.5L910 731.5L910.4 686.6L910.9 717.3L911.3 668.7L911.8 738.2L912.2 762.6L912.7 756.8L913.1 626L913.6 580.7L914 567.6L914.4 588L914.9 723L915.3 618.8L915.8 598.5L916.2 535L916.7 530.5L917.1 546.7L917.6 673.8L918 602.8L918.4 480.8L918.9 460.9L919.3 468.2L919.8 510.9L920.2 625.2L920.7 601L921.1 356.9L921.6 386.9L922 431.8L922.4 465.8L922.9 620.4L923.3 579.3L923.8 454.4L924.2 386.2L924.7 430.4L925.1 474.7L925.6 619.8L926 581.1L926.4 465.4L926.9 403L927.3 453L927.8 487.8L928.2 623L928.7 500.8L929.1 476.3L929.6 355.3L930 446.3L930.4 481L930.9 597.1L931.3 560.7L931.8 469.6L932.2 399L932.7 444.5L933.1 466.6L933.6 616.9L934 552.6L934.4 476.5L934.9 393.7L935.3 487.4L935.8 401.6L936.2 631.9L936.7 556.6L937.1 495.1L937.6 395.2L938 460.9L938.4 466.4L938.9 625.6L939.3 570L939.8 487L940.2 397.4L940.7 490.5L941.1 493.7L941.6 630.3L942 574.6L942.4 488.2L942.9 336.1L943.3 496.7L943.8 435.2L944.2 620.2L944.7 580.7L945.1 467.4L945.6 414.4L946 475.7L946.9 605.6L947.3 540.7L947.8 480.5L948.2 416.6L948.7 465.8L949.1 455.5L949.6 627.1L950 506.7L950.4 470.4L950.9 418.2L951.3 465.8L951.8 475.3L952.2 610.9L952.7 568L953.1 497.5L953.6 426.5L954 489.3L954.4 477.5L954.9 615.7L955.3 569.8L955.8 596.5L956.2 375.9L956.7 587.6L957.1 519.8L957.6 623L958 573L958.4 620L958.9 567.6L959.3 650.1L959.8 634.8L960.2 665.3L960.7 652L961.1 701.1L961.6 634.5L962 704.6L962.4 698.3L962.9 718.7L963.3 680.5L963.8 733.3L964.2 706.4L964.7 644.1L965.1 703.6L965.6 704.8L966 690.2L966.4 734.9L966.9 684.9L967.3 703.1L967.8 696.3L968.2 707.4L968.7 686.6L969.1 702.1L969.6 708.4L970.4 700.5L970.9 714.3L971.3 709.4L971.8 642.4L972.2 705L972.7 698.5L973.1 706.2L973.6 713.1L974 677.9L974.4 709.8L974.9 699.3L975.3 706.2L975.8 699.9L976.2 698.7L976.7 702.7L977.1 719.9L977.6 691.6L978 718.3L978.4 710L978.9 643.5L979.3 710.6L979.8 711.2L980.2 696.9L980.7 718.5L981.1 679.3L981.6 704.2L982 696.9L982.4 701.1L982.9 686.6L983.3 694.7L983.8 700.3L984.2 713.1L984.7 694.4L985.1 716.3L985.6 706L986 637L986.4 707L986.9 708.4L987.3 696.7L987.8 722.8L988.2 683.3L988.7 703.8L989.1 686L989.6 710.4L990 692.6L990.4 703.8L990.9 676.8L991.3 718.5L991.8 689L992.2 706.2L992.7 694.7L993.1 645.7L993.6 687.6L994 709.6L994.4 686.4L994.9 711.2L995.3 680.7L995.8 726L996.2 668.5L996.7 715.3L997.1 689.4L997.6 708.6L998 676.2L998.4 734.3L998.9 683.9L999.3 682.3L999.8 699.7L1000.2 729.7L1000.7 600.8L1001.1 725.6L1001.6 670.2L1002 723.4L1002.4 705.4L1003.3 676.2L1003.8 731.1L1004.2 676.2L1004.7 708.2L1005.1 675L1005.6 740.4L1006 689.4L1006.4 730.7L1006.9 678.1L1007.3 737.3L1007.8 602.8L1008.2 727.4L1008.7 670.4L1009.1 737.1L1009.6 448.6L1010 709.6L1010.4 677.5L1010.9 727.8L1011.3 663.5L1011.8 726L1012.2 668.7L1012.7 720.1L1013.1 679.5L1013.6 716.5L1014 680.3L1014.4 734.5L1014.9 607.6L1015.3 732.7L1015.8 673.6L1016.2 722.8L1016.7 691.2L1017.1 707L1017.6 670L1018 711.6L1018.4 665.7L1018.9 723.4L1019.3 654.6L1019.8 734.7L1020.2 688L1020.7 727L1021.1 683.3L1021.6 727L1022 611.1L1022.4 728.9L1022.9 678.5L1023.3 711.4L1023.8 690.6L1024.2 711.2L1024.7 680.7L1025.1 730.7L1025.6 680.7L1026 729.9L1026.4 680.3L1026.9 703.2L1027.3 758.4L1027.8 762L1028.2 620L1028.7 523.4L1029.1 556.4L1029.6 580.9L1030 721.8L1030.4 670.2L1030.9 570L1031.3 519L1031.8 535.8L1032.2 516L1032.7 676.2L1033.1 583.3L1033.6 475.1L1034 469.8L1034.4 477.3L1034.9 494.5L1035.3 616.3L1035.8 604.6L1036.2 450.2L1036.7 311.6L1037.1 475.3L1037.6 436L1038 624.8L1038.4 594.3L1038.9 445.1L1039.3 379L1039.8 458.1L1040.2 454.9L1040.7 610.3L1041.1 556.4L1041.6 436.4L1042 404.1L1042.4 444.9L1043.3 636.4L1043.8 502.8L1044.2 473.5L1044.7 348.4L1045.1 460.9L1045.6 460.3L1046 613.7L1046.4 553.6L1046.9 469.6L1047.3 385.2L1047.8 454.4L1048.2 446.1L1048.7 621.2L1049.1 569.8L1049.6 452.2L1050 361.2L1050.4 440.9L1050.9 382L1051.3 642L1051.8 564.5L1052.2 476.7L1052.7 382.4L1053.1 442.7L1053.6 450.6L1054 621.4L1054.4 566.1L1054.9 459.3L1055.3 384L1055.8 475.7L1056.2 458.3L1056.7 624.8L1057.1 577.7L1057.6 445.1L1058 295.8L1058.4 467.2L1058.9 459.9L1059.3 604.8L1059.8 579.1L1060.2 429.2L1060.7 377.3L1061.1 468.2L1061.6 463.5L1062 626.3L1062.4 557.6L1062.9 167.1L1063.3 401.8L1063.8 470.2L1064.2 467.6L1064.7 631.3L1065.1 521.2L1065.6 419L1066 398L1066.4 459.9L1066.9 473.5L1067.3 620.4L1067.8 584.2L1068.2 413L1068.7 416L1069.1 448L1069.6 456.5L1070 608.2L1070.4 596.5L1070.9 592.1L1071.3 507.7L1071.8 567.6L1072.2 580.1L1072.7 553.6L1073.1 587L1073.6 583.3L1074 564.7L1074.4 655.4L1074.9 614.9L1075.3 667.9L1075.8 673.6L1076.2 685.5L1076.7 642.2L1077.1 694.9L1077.6 702.5L1078 717.7L1078.4 691.8L1078.9 712.3L1079.3 705.2L1079.8 638.4L1080.2 702.9L1080.7 700.3L1081.1 706.8L1081.6 715.5L1082 680.3L1082.4 715.7L1082.9 698.5L1083.3 704L1083.8 703.1L1084.2 697.3L1084.7 710L1085.1 722.4L1085.6 700.5L1086 714.1L1086.4 706.6L1086.9 644.3L1087.3 710.6L1087.8 712.5L1088.2 699.7L1088.7 712.5L1089.1 683.3L1089.6 712.3L1090 699.3L1090.4 713.3L1090.9 688.4L1091.3 697.9L1091.8 707L1092.2 723.8L1092.7 704.6L1093.1 713.5L1093.6 705.4L1094 638.6L1094.4 698.5L1094.9 711.2L1095.3 696.1L1095.8 710.2L1096.2 672.4L1096.7 707.6L1097.1 689.6L1097.6 710.8L1098 699.1L1098.4 711.9L1098.9 686.4L1099.3 715.1L1099.8 693.8L1100.2 711.4L1100.7 712.1L1101.1 656.2L1101.6 694.6L1102 707.6L1102.4 691.4L1102.9 720.1L1103.3 681.9L1103.8 723.4L1104.2 662.1L1104.7 707.8L1105.1 691.8L1105.6 702.1L1106 614.3L1106.4 726.8L1106.9 680.7L1107.3 706.4L1107.8 708.8L1108.2 732.3L1108.7 613.7L1109.1 718.9L1109.6 661.5L1110 709.2L1110.4 697.1L1110.9 701.3L1111.3 670.8L1111.8 726.4L1112.2 667.3L1112.7 711.2L1113.1 679.7L1113.6 735.3L1114 693.2L1114.4 712.3L1114.9 675.2L1115.3 731.1L1115.8 601.2L1116.2 560.7L1116.7 678.3L1117.1 738.8L1117.6 689.4L1118 713.7L1118.4 672.6L1118.9 727.6L1119.3 666.9L1119.8 723.6L1120.2 661.9L1120.7 724.4L1121.1 681.9L1121.6 727.4L1122 687.8L1122.4 730.9L1122.9 601.4L1123.3 732.3L1123.8 669.2L1124.2 722.6L1124.7 641.4L1125.1 711.7L1125.6 678.9L1126 714.9L1126.4 684.7L1126.9 710.4L1127.3 652.8L1127.8 726L1128.2 685.3L1128.7 730.3L1129.1 680.9L1129.6 724.6L1130 597.5L1130.4 724.4L1130.9 619.6L1131.3 728.8L1131.8 684.5L1132.2 708L1132.7 669.6L1133.1 720.8L1133.6 679.3L1134 712.1L1134.4 669.8L1134.9 701.7L1135.3 677.9L1135.8 734.1L1136.2 675.2L1136.7 731.9L1137.1 607.8L1137.6 709L1138 666.5L1138.4 721.4L1138.9 692L1139.3 705.4L1139.8 698.1L1140.2 708.2L1140.7 687L1141.1 708.6L1141.6 668.9L1142 695.1L1142.4 773.4L1142.9 745.2L1143.3 761.6L1143.8 610.5L1144.2 507.1L1144.7 607.4L1145.1 594.3L1145.6 687.4L1146 673.8L1146.4 587.6L1146.9 514.8L1147.3 518.2L1147.8 552.2L1148.2 668.9L1148.7 587.4L1149.1 492.1L1149.6 491.5L1150 471.6L1150.4 516.6L1150.9 628.5L1151.3 601.2L1151.8 334.6L1152.2 387.7L1152.7 424.9L1153.1 475.5L1153.6 606.6L1154 553.4L1154.4 418.2L1154.9 389.9L1155.3 442.3L1155.8 457.5L1156.2 529.1L1156.7 580.1L1157.1 431.4L1157.6 396.8L1158 451.4L1158.4 476.9L1158.9 543.1L1159.3 572.4L1159.8 451.8L1160.2 406.9L1160.7 434.8L1161.1 447.2L1161.6 608.6L1162 563.9L1162.4 434.4L1162.9 413.8L1163.3 423.5L1163.8 474.9L1164.2 540.4L1164.7 576.1L1165.1 438.3L1165.6 422.7L1166 377.9L1166.4 479.1L1166.9 612.9L1167.3 581.1L1167.8 438.3L1168.2 380.2L1168.7 444.7L1169.1 476.5L1169.6 360.5L1170 572L1170.4 418L1170.9 371.5L1171.3 451L1171.8 488.6L1172.2 607L1172.7 581.9L1173.1 360.7L1173.6 385.4L1174 455.7L1174.4 475.7L1174.9 614.1L1175.3 557L1175.8 432.8L1176.2 399L1176.7 448.8L1177.1 478.1L1177.6 605.2L1178 573.2L1178.4 470L1178.9 407.9L1179.3 381L1179.8 491.7L1180.2 556.6L1180.7 577.7L1181.1 477.7L1181.6 396.4L1182 466.4L1182.4 472.7L1182.9 624.4L1183.3 556L1183.8 479.3L1184.2 387.1L1184.7 456.7L1185.1 445.3L1185.6 628.1L1186 587.6L1186.4 595.3L1186.9 504.6L1187.3 571.2L1187.8 492.7L1188.2 633.5L1188.7 560.7L1189.1 610.7L1189.6 548.1L1190 637.2L1190.4 600.8L1190.9 706.2L1191.3 635.6L1191.8 701.5L1192.2 619L1192.7 725.4L1193.1 679.9L1193.6 725.6L1194 679.9L1194.4 736.5L1194.9 613.1L1195.3 731.9L1195.8 671.2L1196.2 738.8L1196.7 683.1L1197.1 712.1L1197.6 681.5L1198 727.2L1198.4 675.4L1198.9 730.3L1199.3 660.2L1199.8 732.5L1200.2 690L1200.7 733.1L1201.1 685.7L1201.6 737.8L1202 610.5L1202.4 736.5L1202.9 682.7L1203.3 717.7L1203.8 682.9L1204.2 709.6L1204.7 678.7L1205.1 733.7L1205.6 675.6L1206 717.3L1206.4 660.7L1206.9 727.2L1207.3 691L1207.8 729.1L1208.2 687.4L1208.7 733.3L1209.1 610.7L1209.6 741.8L1210 690.2L1210.4 727.6L1210.9 683.3L1211.3 703.1L1211.8 673.4L1212.2 724.2L1212.7 662.1L1213.1 726.2L1213.6 684.3L1214 709.8L1214.4 685.9L1214.9 728.8L1215.3 674.4L1215.8 741.4L1216.2 622L1216.7 720.4L1217.1 672.4L1217.6 723L1218 683.7L1218.4 715.7L1218.9 691.4L1219.3 689.8L1219.8 661.9L1220.2 714.9L1220.7 677.2L1221.1 690.8L1221.6 694.7L1222 711L1222.4 674.2L1222.9 573.4L1223.3 701.3L1223.8 647.1L1224.2 703.4L1224.7 692.8L1225.1 684.5L1225.6 722.4L1226 676.6L1226.4 695.1L1226.9 701.9L1227.3 695.5L1227.8 686L1228.2 720.1L1228.7 701.7L1229.1 709L1229.6 692.8L1230 719.1L1230.4 707.4L1230.9 646.3L1231.3 713.3L1231.8 698.5L1232.2 710.2L1232.7 712.9L1233.1 683.9L1233.6 705.6L1234 691.6L1234.4 690.6L1234.9 689L1235.3 694.4L1235.8 703.2L1236.2 718.1L1236.7 698.5L1237.1 713.7L1237.6 706.2L1238 646.3L1238.4 705.2L1238.9 701.5L1239.3 692.4L1239.8 717.5L1240.2 680.3L1240.7 704.2L1241.1 695.7L1241.6 718.5L1242 695.7L1242.4 692.2L1242.9 702.9L1243.3 705.2L1243.8 694.4L1244.2 716.1L1244.7 685.1L1245.1 636.6L1245.6 708.2L1246 705L1246.4 675L1246.9 714.9L1247.3 675.6L1247.8 689.2L1248.2 695.3L1248.7 710.2L1249.1 694.9L1249.6 693.8L1250 675.6L1250.4 714.5L1250.9 676.4L1251.3 702.1L1251.8 703.1L1252.2 645.3L1252.7 681.7L1253.1 708.2L1253.6 695.7L1254 710.6L1254.4 685.5L1254.9 723.6L1255.3 660.2L1255.8 717.3L1256.2 683.7L1256.7 705.4L1257.1 662.3L1257.6 735.5L1258 750.7L1258.4 740.4L1258.9 659.4L1259.3 575.3L1259.8 553.2L1260.2 598.5L1260.7 705.4L1261.1 661.5L1261.6 572.4L1262 523.4L1262.4 486.8L1262.9 553L1263.3 652.2L1263.8 574.4L1264.2 442.5L1264.7 463.1L1265.1 459.5L1265.6 527.1L1266 603.6L1266.4 608.4L1266.9 390.5L1267.3 371.7L1267.8 437.2L1268.2 485.4L1268.7 603.4L1269.1 568L1269.6 440.9L1270 397.4L1270.4 417.2L1270.9 461.3L1271.3 572L1271.8 585.8L1272.2 465L1272.7 407.7L1273.1 459.9L1273.6 494.1L1274 533.8L1274.4 589.8L1274.9 470.8L1275.3 426.7L1275.8 438.9L1276.2 313.8L1276.7 603.8L1277.1 577.1L1277.6 454L1278 375.7L1278.4 431.2L1278.9 460.5L1279.3 603L1279.8 584.2L1280.2 445.5L1280.7 388.5L1281.1 384.6L1281.6 492.3L1282 606L1282.4 576.1L1282.9 425.9L1283.3 386L1283.8 443.1L1284.2 482L1284.7 603.2L1285.1 581.9L1285.6 470L1286 379L1286.4 472.3L1286.9 462.3L1287.3 612.9L1287.8 601.4L1288.2 404.3L1288.7 419L1289.1 432.2L1289.6 456.1L1290 613.9L1290.4 547.5L1290.9 415L1291.3 389.1L1291.8 469.6L1292.2 472L1292.7 605.2L1293.1 564.9L1293.6 480.1L1294 405.9L1294.4 423.7L1294.9 440.7L1295.3 620.6L1295.8 510.3L1296.2 489.9L1296.7 376.3L1297.1 439.3L1297.6 487.2L1298 606L1298.4 555L1298.9 493.9L1299.3 388.1L1299.8 461.3L1300.2 466.4L1300.7 624.8L1301.1 571.8L1301.6 599.3L1302 510.3L1302.4 549.1L1302.9 472.9L1303.3 640.6L1303.8 556.4L1304.2 603.4L1304.7 555.4L1305.1 635.2L1305.6 621.6L1306 692.6L1306.4 641.4L1306.9 701.7L1307.3 609.7L1307.8 723.8L1308.2 674L1308.7 720.3L1309.1 682.3L1309.6 735.3L1310 608.6L1310.4 737.1L1310.9 685.5L1311.3 730.5L1311.8 685.5L1312.2 710.4L1312.7 676.8L1313.1 725.4L1313.6 686.4L1314 723.6L1314.4 657.4L1314.9 737.3L1315.3 692.4L1315.8 734.1L1316.2 688.2L1316.7 731.5L1317.1 614.7L1317.6 737.1L1318 681.9L1318.4 720.6L1318.9 679.3L1319.3 688.8L1319.8 681.5L1320.2 733.5L1320.7 689.4L1321.1 724.6L1321.6 682.7L1322 708.2L1322.4 681.3L1322.9 728L1323.3 683.7L1323.8 738.6L1324.2 623.6L1324.7 719.7L1325.1 674L1325.6 721.2L1326 688.4L1326.4 714.3L1326.9 696.5L1327.3 701.3L1327.8 686.4L1328.2 715.7L1328.7 688.4L1329.1 708L1329.6 556.8L1330 713.9L1330.4 684.7L1330.9 726.2L1331.3 699.9L1331.8 646.1L1332.2 697.1L1332.7 698.7L1333.1 678.9L1333.6 733.5L1334 681.7L1334.4 692.6L1334.9 700.7L1335.3 695.3L1335.8 664.1L1336.2 698.1L1336.7 696.1L1337.1 704.8L1337.6 691.6L1338 695.3L1338.4 698.5L1338.9 637.6L1339.3 702.9L1339.8 698.7L1340.2 704.8L1340.7 706.2L1341.1 678.1L1341.6 708.8L1342 695.7L1342.4 705.2L1342.9 702.1L1343.3 700.3L1343.8 704.2L1344.2 720.6L1344.7 701.3L1345.1 710.2L1345.6 708.4L1346 640L1346.4 698.1L1346.9 711L1347.3 686.8L1347.8 716.1L1348.2 677.4L1348.7 710L1349.1 696.3L1349.6 708L1350 687.6L1350.4 695.1L1350.9 704.2L1351.3 716.9L1351.8 692.2L1352.2 715.7L1352.7 709.2L1353.1 645.5L1353.6 707.2L1354.4 692.8L1354.9 717.1L1355.3 676.4L1355.8 710.4L1356.2 698.3L1356.7 718.9L1357.1 693L1357.6 703.8L1358 675.6L1358.4 718.7L1358.9 703.8L1359.3 712.9L1359.8 711.6L1360.2 646.3L1360.7 690.8L1361.1 700.1L1361.6 687L1362 722.4L1362.4 687.8L1362.9 717.1L1363.3 658.8L1363.8 699.1L1364.2 686.2L1364.7 713.5L1365.1 667.7L1365.6 725.2L1366 679.9L1366.4 712.3L1366.9 698.5L1367.3 730.3L1367.8 617.3L1368.2 727.4L1368.7 671.6L1369.1 717.3L1369.6 702.5L1370 710.8L1370.4 659L1370.9 736.7L1371.3 672.2L1371.8 712.1L1372.2 683.5L1372.7 716.7L1373.1 760L1373.6 756.4L1374 761.8L1374.4 766.7L1374.9 567.6L1375.3 572.6L1375.8 616.7L1376.2 591.4L1376.7 718.1L1377.1 652.2L1377.6 565.9L1378 561.3L1378.4 541.3L1378.9 553L1379.3 647.7L1379.8 616.1L1380.2 473.3L1380.7 479.3L1381.1 472.7L1381.6 533.4L1382 544.9L1382.4 604L1382.9 345.8L1383.3 404.5L1383.8 454.6L1384.2 471.2L1384.7 605.2L1385.1 569.2L1385.6 475.1L1386 403.9L1386.4 436.4L1386.9 460.1L1387.3 617.3L1387.8 569L1388.2 447.4L1388.7 421.7L1389.1 377.7L1389.6 494.7L1390 606.2L1390.4 584.6L1390.9 471.8L1391.3 376.3L1391.8 436.6L1392.2 476.7L1392.7 613.3L1393.1 560.3L1393.6 468.4L1394 404.9L1394.4 384.8L1394.9 474.7L1395.3 606.8L1395.8 594.7L1396.2 418.4L1396.7 396.6L1397.1 452.6L1397.6 483.4L1398 617.8L1398.4 593.7L1398.9 477.5L1399.3 397.2L1399.8 466L1400.2 467.8L1400.7 614.5L1401.1 562.3L1401.6 489L1402 402.8L1402.4 452.6L1402.9 488.8L1403.3 630.3L1403.8 494.5L1404.2 473.7L1404.7 392.7L1405.1 464.4L1405.6 475.9L1406 619.6L1406.4 550.8L1406.9 489.9L1407.3 397.6L1407.8 466.6L1408.2 482L1408.7 638.6L1409.1 562.9L1409.6 466.6L1410 408.9L1410.4 488.6L1410.9 417.4L1411.3 635.6L1411.8 560.3L1412.2 496.1L1412.7 409.5L1413.1 480.1L1413.6 453.4L1414 631.7L1414.4 543.7L1414.9 495.9L1415.3 394.5L1415.8 486L1416.2 466.2L1416.7 614.7L1417.1 548.5L1417.6 602.6L1418 467.6L1418.4 576.1L1418.9 563.1L1419.3 641.8L1419.8 550L1420.2 617.3L1420.7 580.3L1421.1 654L1421.6 621.2L1422 700.5L1422.4 611.7L1422.9 702.1L1423.3 660.2L1423.8 722L1424.2 679.3L1424.7 736.9L1425.1 615.9L1425.6 741L1426 664.7L1426.4 740.2L1426.9 677.9L1427.3 723.4L1427.8 674.2L1428.2 727.4L1428.7 686L1429.1 726.6L1429.6 672.2L1430 737.6L1430.4 661.7L1430.9 726.4L1431.3 687.6L1431.8 737.1L1432.2 609L1432.7 743L1433.1 691.4L1433.6 739.6L1434 690.6L1434.4 732.3L1434.9 679.3L1435.3 718.5L1435.8 690.8L1436.2 570.4L1436.7 680.7L1437.1 725.2L1437.6 669.8L1438 740L1438.4 682.3L1438.9 735.3L1439.3 683.7L1439.8 661.5L1440.2 677.9L1440.7 735.7L1441.1 687L1441.6 727.6L1442 681.3L1442.4 708.6L1442.9 695.7L1443.3 725L1443.8 685.3L1444.2 724.6L1444.7 695.3L1445.1 713.5L1445.6 676.6L1446 740L1446.4 695.9L1446.9 666.1L1447.3 702.3L1447.8 709.4L1448.2 694.2L1448.7 730.5L1449.1 682.1L1449.6 711.4L1450 701.9L1450.4 709.2L1450.9 677.5L1451.3 710.4L1451.8 679.1L1452.2 714.7L1452.7 699.7L1453.1 706.4L1453.6 694L1454 664.5L1454.4 693.2L1454.9 721.6L1455.3 706L1455.8 704.6L1456.2 671.8L1456.7 725.6L1457.1 692.4L1457.6 700.3L1458 701.1L1458.4 696.5L1458.9 692.8L1459.3 722.2L1459.8 693.2L1460.2 714.5L1460.7 708.2L1461.1 650.3L1461.6 701.1L1462 707.4L1462.4 703.6L1462.9 711.4L1463.3 698.3L1463.8 674.2L1464.2 688.8L1464.7 720.6L1465.1 701.1L1465.6 702.5L1466 710.8L1466.4 701.7L1466.9 689L1467.3 718.5L1467.8 704.2L1468.2 645.9L1468.7 714.1L1469.1 707.6L1469.6 685.1L1470 714.7L1470.4 702.1L1470.9 708.6L1471.3 682.3L1471.8 722.6L1472.2 689L1472.7 715.7L1473.1 692.8L1473.6 701.1L1474 711.2L1474.4 710.2L1474.9 707L1475.3 714.1L1475.8 568.8L1476.2 714.9L1476.7 700.1L1477.1 719.7L1477.6 689.6L1478 698.1L1478.4 673.6L1478.9 710.8L1479.3 664.9L1479.8 719.7L1480.2 688.2L1480.7 718.1L1481.1 681.9L1481.6 707.6L1482 705L1482.4 708.6L1482.9 620.2L1483.3 723L1483.8 678.9L1484.2 714.7L1484.7 704.2L1485.1 707.6L1485.6 677L1486 733.5L1486.4 683.5L1486.9 716.3L1487.3 646.7L1487.8 704.4L1488.2 677L1488.7 717.5L1489.1 759.8L1489.6 620.6L1490 524.3L1490.4 586.8L1490.9 631.3L1491.3 590.6L1491.8 711.9L1492.2 648.9L1492.7 609.1L1493.1 538.4L1493.6 544.7L1494 551.8L1494.4 656.8L1494.9 593.7L1495.3 497.1L1495.8 475.5L1496.2 456.7L1496.7 527.1L1497.1 552.8L1497.6 607.8L1498 450.2L1498.4 392.1L1498.9 452.6L1499.3 484.4L1499.8 606L1500.2 583.6L1500.7 450.8L1501.1 408.9L1501.6 439.7L1502 487.2L1502.4 606.8L1502.9 589.6L1503.3 472.1L1503.8 416.4L1504.2 375.9L1504.7 489.3L1505.1 614.1L1505.6 602.2L1506 463.6L1506.4 423.9L1506.9 450.4L1507.3 464.8L1507.8 614.7L1508.2 580.9L1508.7 469.2L1509.1 409.3L1509.6 448.8L1510 480.6L1510.4 605.4L1510.9 586.2L1511.3 462.3L1511.8 357.9L1512.2 460.5L1512.7 491.1L1513.1 620.6L1513.6 584.8L1514 455.5L1514.4 406.9L1514.9 474.3L1515.3 450.2L1515.8 616.1L1516.2 547.9L1516.7 453.2L1517.1 400.2L1517.6 455.9L1518 483.4L1518.4 622.4L1518.9 518.2L1519.3 473.3L1519.8 400.4L1520.2 448.6L1520.7 479.5L1521.1 617.6L1521.6 564.5L1522 496.9L1522.4 392.5L1522.9 465.4L1523.3 468.4L1523.8 618.2L1524.2 577.7L1524.7 482L1525.1 410.3L1525.6 453L1526 415.6L1526.4 627.5L1526.9 579.3L1527.3 489L1527.8 405.3L1528.2 459.5L1528.7 491.1L1529.1 626.9L1529.6 570.2L1530 494.1L1530.4 406.3L1530.9 466.4L1531.3 473.3L1531.8 627.7L1532.2 574.6L1532.7 599.1L1533.1 436.4L1533.6 565.1L1534 547.7L1534.4 632.9L1534.9 581.1L1535.3 620.6L1535.8 550.6L1536.2 645.3L1536.7 628.7L1537.1 698.5L1537.6 639.6L1538 715.3L1538.4 636.6L1538.9 719.1L1539.3 671.8L1539.8 728.6L1540.2 609.9L1540.7 737.4L1541.1 691.6L1541.6 738.4L1542 696.7L1542.4 737.4L1542.9 500.6L1543.3 716.3L1543.8 691.4L1544.2 730.9L1544.7 679.5L1545.1 730.1L1545.6 677.9L1546 740.6L1546.4 673.8L1546.9 740L1547.3 679.7L1547.8 668.7L1548.2 687.2L1548.7 735.1L1549.1 689.8L1549.6 732.5L1550 681.7L1550.4 714.3L1550.9 691.4L1551.3 726.6L1551.8 688.8L1552.2 718.5L1552.7 690.6L1553.1 715.3L1553.6 683.3L1554 734.9L1554.4 691.6L1554.9 666.9L1555.3 708.4L1555.8 719.7L1556.2 689L1556.7 730.3L1557.1 686.8L1557.6 713.7L1558 711.4L1558.4 707.4L1558.9 682.3L1559.3 713.9L1559.8 689L1560.2 710L1560.7 695.7L1561.1 721.4L1561.6 688.4L1562 661.9L1562.4 711L1562.9 705.8L1563.3 697.1L1563.8 711.6L1564.2 676.2L1564.7 719.7L1565.1 686L1565.6 692.2L1566 693.8L1566.4 649.9L1566.9 684.5L1567.3 697.3L1567.8 690.2L1568.2 707.6L1568.7 705L1569.1 633.5L1569.6 706.4L1570 712.9L1570.4 702.1L1570.9 709L1571.3 698.3L1571.8 696.3L1572.2 694.2L1572.7 715.5L1573.1 693.8L1573.6 703.8L1574 704.6L1574.4 694.2L1574.9 697.5L1575.3 718.3L1575.8 704.6L1576.2 638L1576.7 708.8L1577.1 705.8L1577.6 701.9L1578 717.3L1578.4 704.6L1578.9 701.3L1579.3 682.5L1579.8 724.2L1580.2 700.1L1580.7 707.8L1581.1 696.5L1581.6 704L1582 707.6L1582.4 715.1L1582.9 706.4L1583.3 721.6L1583.8 635.6L1584.2 725.4L1584.7 710L1585.1 720.4L1585.6 702.9L1586 696.1L1586.4 687.4L1586.9 721.8L1587.3 690.6L1587.8 713.5L1588.2 682.5L1588.7 721.2L1589.1 683.7L1589.6 711.2L1590 702.3L1590.4 705.2L1590.9 630.9L1591.3 724L1591.8 677.9L1592.2 721.6L1592.7 695.7L1593.1 713.1L1593.6 677.7L1594 728.6L1594.4 679.3L1594.9 709.4L1595.3 669.4L1595.8 722.4L1596.2 539L1596.7 721.4L1597.1 686.4L1597.6 717.5L1598 622.6L1598.4 738.6L1598.9 686.2L1599.3 733.5L1599.8 678.5L1600.2 712.5L1600.7 694.2L1601.1 722.4L1601.6 679.7L1602 725.4L1602.4 677.2L1602.9 720.6L1603.3 672.2L1603.8 723.2L1604.2 754.1L1604.7 769.1L1605.1 524.3L1605.6 585.4L1606 641.6L1606.4 587.2L1606.9 717.5L1607.3 668.3L1607.8 566.8L1608.2 539L1608.7 542.7L1609.1 555.6L1609.6 653.6L1610 602L1610.4 469.4L1610.9 493.1L1611.3 458.1L1611.8 528.5L1612.2 553.8L1612.7 604L1613.1 446.6L1613.6 375.7L1614 452.4L1614.4 464.4L1614.9 551.8L1615.3 509.3L1615.8 433.4L1616.2 405.5L1616.7 357.5L1617.1 483.8L1617.6 583.4L1618 592.7L1618.4 430.2L1618.9 408.9L1619.3 446.1L1619.8 407.9L1620.2 610.9L1620.7 582.7L1621.1 465.8L1621.6 417.4L1622 444.5L1622.4 453.2L1622.9 613.3L1623.3 586.6L1623.8 436.2L1624.2 400.6L1624.7 463.5L1625.1 443.3L1625.6 598.5L1626 584.4L1626.4 463.6L1626.9 348.6L1627.3 476.3L1627.8 463.8L1628.2 614.9L1628.7 593.5L1629.1 459.1L1629.6 402L1630 484L1630.4 456.5L1630.9 600.3L1631.3 563.5L1631.8 459.3L1632.2 399.6L1632.7 464L1633.1 455.7L1633.6 628.3L1634 521.2L1634.4 481.2L1634.9 363.8L1635.3 417.6L1635.8 452.4L1636.2 604.8L1636.7 580.9L1637.1 403.7L1637.6 376.3L1638 390.7L1638.4 435.2L1638.9 615.1L1639.3 543.7L1639.8 459.9L1640.2 373.5L1640.7 465L1641.1 390.3L1641.6 637.4L1642 579.1L1642.4 473.5L1642.9 390.3L1643.3 461.3L1643.8 467.8L1644.2 621.8L1644.7 580.1L1645.1 481.2L1645.6 400.8L1646 488L1646.4 454.2L1646.9 616.7L1647.3 533.2L1647.8 597.7L1648.2 441.1L1648.7 566.1L1649.1 559.7L1649.6 450.4L1650 582.5L1650.4 612.1L1650.9 540.9L1651.3 638.8L1651.8 596.1L1652.2 687.8L1652.7 642L1653.1 705L1653.6 627.5L1654 733.5L1654.4 666.7L1654.9 727.8L1655.3 685.5L1655.8 665.5L1656.2 687.4L1656.7 738.4L1657.1 686.2L1657.6 727.2L1658 679.1L1658.4 711.7L1658.9 681.1L1659.3 727.4L1659.8 682.5L1660.2 715.7L1660.7 686.8L1661.1 707L1661.6 673.6L1662 738.6L1662.4 689.8L1662.9 666.9L1663.3 706.2L1663.8 716.5L1664.2 683.7L1664.7 728L1665.1 660.9L1665.6 704.8L1666 712.1L1666.9 681.1L1667.3 719.3L1667.8 684.1L1668.2 715.3L1668.7 692.6L1669.1 723L1669.6 688.8L1670 660.4L1670.4 704L1670.9 721.8L1671.3 702.1L1671.8 711L1672.2 684.9L1672.7 725.6L1673.1 693.6L1673.6 706.4L1674 705.2L1674.4 697.9L1674.9 685.1L1675.3 717.9L1675.8 700.5L1676.2 713.5L1677.1 632.7L1677.6 706.2L1678 711.6L1678.4 706.4L1678.9 714.3L1679.3 697.1L1679.8 706.2L1680.2 686.6L1680.7 713.9L1681.1 685.1L1681.6 687.2L1682 699.9L1682.4 702.3L1682.9 698.5L1683.3 700.7L1683.8 694.9L1684.2 629.9L1684.7 707.6L1685.1 718.3L1685.6 712.5L1686 724.6L1686.4 694.4L1686.9 698.5L1687.3 677.2L1687.8 714.7L1688.2 699.7L1688.7 709.6L1689.1 700.1L1689.6 702.1L1690 711.9L1690.4 712.9L1690.9 711.6L1691.3 723L1691.8 624.6L1692.2 709.8L1692.7 672.2L1693.1 718.9L1693.6 692L1694 710.6L1694.4 686.2L1694.9 717.9L1695.3 688.4L1695.8 716.7L1696.2 681.5L1696.7 713.5L1697.1 677.5L1697.6 707.4L1698 710.8L1698.4 721.6L1698.9 629.5L1699.3 734.9L1699.8 684.9L1700.2 711.9L1700.7 678.3L1701.1 707.8L1701.6 674.6L1702 737.3L1702.4 675L1702.9 562.1L1703.3 697.9L1703.8 722L1704.2 677.2L1704.7 721.2L1705.1 687.4L1705.6 727L1706 631.5L1706.4 734.7L1706.9 683.5L1707.3 733.5L1707.8 671.4L1708.2 702.9L1708.7 676.6L1709.1 710.4L1709.6 671.6L1710 728.9L1710.4 671.4L1710.9 724.2L1711.3 678.3L1711.8 733.1L1712.2 678.7L1712.7 735.3L1713.1 597.9L1713.6 734.3L1714 687.2L1714.4 725.8L1714.9 667.9L1715.3 724L1715.8 684.3L1716.2 716.9L1716.7 674.2L1717.1 717.3L1717.6 672.4L1718 736.5L1718.4 674.8L1718.9 727.2L1719.3 763L1719.8 757.4L1720.2 533.8L1721.1 619.8L1721.6 599.5L1722 731.9L1722.4 661.3L1722.9 516.6L1723.3 507.7L1723.8 539.2L1724.2 540.9L1724.7 659L1725.1 599.9L1725.6 476.3L1726 473.3L1726.4 449.4L1726.9 531.7L1727.3 622.8L1727.8 524.5L1728.2 462.9L1728.7 379L1729.1 448.2L1729.6 462.5L1730 607.2L1730.4 566.1L1730.9 433.4L1731.3 402.6L1731.8 456.9L1732.2 459.9L1732.7 617.5L1733.1 577.9L1733.6 450.8L1734 418.2L1734.4 464.8L1734.9 406.9L1735.3 632.9L1735.8 559.3L1736.2 423.5L1736.7 380.2L1737.1 440.5L1737.6 466L1738 623L1738.4 558.3L1738.9 433.2L1739.3 401.6L1739.8 458.9L1740.2 446.6L1740.7 609L1741.1 567L1741.6 462.5L1742 354.3L1742.4 490.5L1742.9 470.2L1743.3 635.6L1743.8 571.6L1744.2 406.7L1744.7 421.9L1745.1 481.6L1745.6 445.3L1746 617.3L1746.4 568.6L1746.9 473.5L1747.3 394.5L1747.8 472.3L1748.2 469.6L1748.7 636L1749.1 498.4L1749.6 486.6L1750 410.5L1750.4 464.6L1750.9 458.7L1751.3 626.1L1751.8 570.2L1752.2 460.9L1752.7 414.8L1753.1 462.9L1753.6 449.2L1754 639.8L1754.4 565.9L1754.9 479.1L1755.3 405.9L1755.8 478.3L1756.2 223.1L1756.7 639.6L1757.1 573.2L1757.6 497.7L1758 414.8L1758.4 482.6L1758.9 460.1L1759.3 603.8L1759.8 574.8L1760.2 471L1760.7 400.2L1761.1 479.9L1761.6 456.7L1762 613.9L1762.4 562.7L1762.9 612.7L1763.3 511.9L1763.8 507.9L1764.2 550.6L1764.7 636.8L1765.1 590L1765.6 609.3L1766 554.8L1766.4 637.2L1766.9 620.8L1767.3 695.1L1767.8 648.9L1768.2 702.5L1768.7 650.3L1769.1 710L1769.6 673.2L1770 729.3L1770.4 688.8L1770.9 668.9L1771.3 714.3L1771.8 710.6L1772.2 688L1772.7 726.2L1773.1 683.9L1773.6 710.4L1774 715.3L1774.4 710.2L1774.9 685.7L1775.3 718.1L1775.8 689L1776.2 710L1776.7 697.1L1777.1 720.6L1777.6 693L1778 665.9L1778.4 709.6L1778.9 712.1L1779.3 706.8L1779.8 711.7L1780.2 683.3L1780.7 722.6L1781.1 694L1781.6 708.6L1782 699.3L1782.4 697.5L1782.9 685.3L1783.3 714.7L1783.8 692L1784.2 715.5L1784.7 707.4L1785.1 640.2L1785.6 706.2L1786 718.9L1786.4 707.2L1787.3 693.4L1787.8 710.4L1788.2 693.6L1788.7 718.1L1789.1 697.5L1790 707.4L1790.4 703.6L1790.9 696.7L1791.3 713.9L1791.8 709.6L1792.2 647.3L1792.7 706.6L1793.1 707.4L1793.6 700.1L1794 715.9L1794.4 698.5L1794.9 700.1L1795.3 671L1795.8 715.5L1796.2 692L1796.7 694.4L1797.6 694.7L1798 706.4L1798.4 698.7L1798.9 696.1L1799.3 692.6L1799.8 634.8" fill="transparent" stroke="#3fb1e3" stroke-width="3" stroke-linejoin="bevel" class="zr15-cls-47"></path>
</g>
<path d="M-192.2 -5l384.4 0l0 28l-384.4 0Z" transform="translate(1000 5)" fill="rgb(0,0,0)" fill-opacity="0" stroke="#ccc" stroke-width="0" class="zr15-cls-45"></path>
<text dominant-baseline="central" text-anchor="middle" style="font-size:18px;font-family:sans-serif;font-weight:bold;" xml:space="preserve" y="9" transform="translate(1000 5)" fill="#666666">Min entityUpdate per Tick for benchmark_abuc</text>
<defs >
<clipPath id="zr15-c0">
<path d="M198 58.5l16004 0l0 8703l-16004 0Z" fill="#000" class="zr15-cls-46"></path>
</clipPath>
</defs>
<style ><![CDATA[
.zr15-cls-45:hover {
pointer-events:none;
}
.zr15-cls-46:hover {
cursor:pointer;
fill:rgba(0,0,0,1);
}
.zr15-cls-47:hover {
cursor:pointer;
}

]]>

</style>
</svg>