<svg width="2000" height="1000" xmlns="http://www.w3.org/2000/svg" xmlns:xlink="http://www.w3.org/1999/xlink" version="1.1" baseProfile="full" viewBox="0 0 2000 1000">
<rect width="2000" height="1000" x="0" y="0" fill="rgb(252,252,252)" fill-opacity="0"></rect>
<path d="M200 930.5L1800 930.5" fill="transparent" stroke="#eeeeee" class="zr23-cls-69"></path>
<path d="M200 732.5L1800 732.5" fill="transparent" stroke="#eeeeee" class="zr23-cls-69"></path>
<path d="M200 534.5L1800 534.5" fill="transparent" stroke="#eeeeee" class="zr23-cls-69"></path>
<path d="M200 337.5L1800 337.5" fill="transparent" stroke="#eeeeee" class="zr23-cls-69"></path>
<path d="M200 139.5L1800 139.5" fill="transparent" stroke="#eeeeee" class="zr23-cls-69"></path>
<path d="M200 60.5L1800 60.5" fill="transparent" stroke="#eeeeee" class="zr23-cls-69"></path>
<path d="M200.5 930L200.5 60" fill="transparent" stroke="#cccccc" stroke-linecap="round" class="zr23-cls-69"></path>
<text dominant-baseline="central" text-anchor="middle" style="font-size:12px;font-family:sans-serif;" xml:space="preserve" y="-6" transform="translate(200 45)" fill="#cccccc">Min entityUpdate Time (ms)</text>
<path d="M200 930.5L1800 930.5" fill="transparent" stroke="#cccccc" stroke-linecap="round" class="zr23-cls-69"></path>
<text dominant-baseline="central" text-anchor="end" style="font-size:12px;font-family:sans-serif;" transform="translate(192 930)" fill="#999999">0.000</text>
<text dominant-baseline="central" text-anchor="end" style="font-size:12px;font-family:sans-serif;" transform="translate(192 732.3095)" fill="#999999">0.100</text>
<text dominant-baseline="central" text-anchor="end" style="font-size:12px;font-family:sans-serif;" transform="translate(192 534.6189)" fill="#999999">0.200</text>
<text dominant-baseline="central" text-anchor="end" style="font-size:12px;font-family:sans-serif;" transform="translate(192 336.9284)" fill="#999999">0.300</text>
<text dominant-baseline="central" text-anchor="end" style="font-size:12px;font-family:sans-serif;" transform="translate(192 139.2378)" fill="#999999">0.400</text>
<text dominant-baseline="central" text-anchor="end" style="font-size:12px;font-family:sans-serif;" transform="translate(192 60)" fill="#999999">0.440</text>
<text dominant-baseline="central" text-anchor="middle" style="font-size:12px;font-family:sans-serif;" y="6" transform="translate(200.2222 938)" fill="#999999">0</text>
<text dominant-baseline="central" text-anchor="middle" style="font-size:12px;font-family:sans-serif;" y="6" transform="translate(235.3333 938)" fill="#999999">79</text>
<text dominant-baseline="central" text-anchor="middle" style="font-size:12px;font-family:sans-serif;" y="6" transform="translate(270.4444 938)" fill="#999999">158</text>
<text dominant-baseline="central" text-anchor="middle" style="font-size:12px;font-family:sans-serif;" y="6" transform="translate(305.5556 938)" fill="#999999">237</text>
<text dominant-baseline="central" text-anchor="middle" style="font-size:12px;font-family:sans-serif;" y="6" transform="translate(340.6667 938)" fill="#999999">316</text>
<text dominant-baseline="central" text-anchor="middle" style="font-size:12px;font-family:sans-serif;" y="6" transform="translate(375.7778 938)" fill="#999999">395</text>
<text dominant-baseline="central" text-anchor="middle" style="font-size:12px;font-family:sans-serif;" y="6" transform="translate(410.8889 938)" fill="#999999">474</text>
<text dominant-baseline="central" text-anchor="middle" style="font-size:12px;font-family:sans-serif;" y="6" transform="translate(446 938)" fill="#999999">553</text>
<text dominant-baseline="central" text-anchor="middle" style="font-size:12px;font-family:sans-serif;" y="6" transform="translate(481.1111 938)" fill="#999999">632</text>
<text dominant-baseline="central" text-anchor="middle" style="font-size:12px;font-family:sans-serif;" y="6" transform="translate(516.2222 938)" fill="#999999">711</text>
<text dominant-baseline="central" text-anchor="middle" style="font-size:12px;font-family:sans-serif;" y="6" transform="translate(551.3333 938)" fill="#999999">790</text>
<text dominant-baseline="central" text-anchor="middle" style="font-size:12px;font-family:sans-serif;" y="6" transform="translate(586.4444 938)" fill="#999999">869</text>
<text dominant-baseline="central" text-anchor="middle" style="font-size:12px;font-family:sans-serif;" y="6" transform="translate(621.5556 938)" fill="#999999">948</text>
<text dominant-baseline="central" text-anchor="middle" style="font-size:12px;font-family:sans-serif;" y="6" transform="translate(656.6667 938)" fill="#999999">1027</text>
<text dominant-baseline="central" text-anchor="middle" style="font-size:12px;font-family:sans-serif;" y="6" transform="translate(691.7778 938)" fill="#999999">1106</text>
<text dominant-baseline="central" text-anchor="middle" style="font-size:12px;font-family:sans-serif;" y="6" transform="translate(726.8889 938)" fill="#999999">1185</text>
<text dominant-baseline="central" text-anchor="middle" style="font-size:12px;font-family:sans-serif;" y="6" transform="translate(762 938)" fill="#999999">1264</text>
<text dominant-baseline="central" text-anchor="middle" style="font-size:12px;font-family:sans-serif;" y="6" transform="translate(797.1111 938)" fill="#999999">1343</text>
<text dominant-baseline="central" text-anchor="middle" style="font-size:12px;font-family:sans-serif;" y="6" transform="translate(832.2222 938)" fill="#999999">1422</text>
<text dominant-baseline="central" text-anchor="middle" style="font-size:12px;font-family:sans-serif;" y="6" transform="translate(867.3333 938)" fill="#999999">1501</text>
<text dominant-baseline="central" text-anchor="middle" style="font-size:12px;font-family:sans-serif;" y="6" transform="translate(902.4444 938)" fill="#999999">1580</text>
<text dominant-baseline="central" text-anchor="middle" style="font-size:12px;font-family:sans-serif;" y="6" transform="translate(937.5556 938)" fill="#999999">1659</text>
<text dominant-baseline="central" text-anchor="middle" style="font-size:12px;font-family:sans-serif;" y="6" transform="translate(972.6667 938)" fill="#999999">1738</text>
<text dominant-baseline="central" text-anchor="middle" style="font-size:12px;font-family:sans-serif;" y="6" transform="translate(1007.7778 938)" fill="#999999">1817</text>
<text dominant-baseline="central" text-anchor="middle" style="font-size:12px;font-family:sans-serif;" y="6" transform="translate(1042.8889 938)" fill="#999999">1896</text>
<text dominant-baseline="central" text-anchor="middle" style="font-size:12px;font-family:sans-serif;" y="6" transform="translate(1078 938)" fill="#999999">1975</text>
<text dominant-baseline="central" text-anchor="middle" style="font-size:12px;font-family:sans-serif;" y="6" transform="translate(1113.1111 938)" fill="#999999">2054</text>
<text dominant-baseline="central" text-anchor="middle" style="font-size:12px;font-family:sans-serif;" y="6" transform="translate(1148.2222 938)" fill="#999999">2133</text>
<text dominant-baseline="central" text-anchor="middle" style="font-size:12px;font-family:sans-serif;" y="6" transform="translate(1183.3333 938)" fill="#999999">2212</text>
<text dominant-baseline="central" text-anchor="middle" style="font-size:12px;font-family:sans-serif;" y="6" transform="translate(1218.4444 938)" fill="#999999">2291</text>
<text dominant-baseline="central" text-anchor="middle" style="font-size:12px;font-family:sans-serif;" y="6" transform="translate(1253.5556 938)" fill="#999999">2370</text>
<text dominant-baseline="central" text-anchor="middle" style="font-size:12px;font-family:sans-serif;" y="6" transform="translate(1288.6667 938)" fill="#999999">2449</text>
<text dominant-baseline="central" text-anchor="middle" style="font-size:12px;font-family:sans-serif;" y="6" transform="translate(1323.7778 938)" fill="#999999">2528</text>
<text dominant-baseline="central" text-anchor="middle" style="font-size:12px;font-family:sans-serif;" y="6" transform="translate(1358.8889 938)" fill="#999999">2607</text>
<text dominant-baseline="central" text-anchor="middle" style="font-size:12px;font-family:sans-serif;" y="6" transform="translate(1394 938)" fill="#999999">2686</text>
<text dominant-baseline="central" text-anchor="middle" style="font-size:12px;font-family:sans-serif;" y="6" transform="translate(1429.1111 938)" fill="#999999">2765</text>
<text dominant-baseline="central" text-anchor="middle" style="font-size:12px;font-family:sans-serif;" y="6" transform="translate(1464.2222 938)" fill="#999999">2844</text>
<text dominant-baseline="central" text-anchor="middle" style="font-size:12px;font-family:sans-serif;" y="6" transform="translate(1499.3333 938)" fill="#999999">2923</text>
<text dominant-baseline="central" text-anchor="middle" style="font-size:12px;font-family:sans-serif;" y="6" transform="translate(1534.4444 938)" fill="#999999">3002</text>
<text dominant-baseline="central" text-anchor="middle" style="font-size:12px;font-family:sans-serif;" y="6" transform="translate(1569.5556 938)" fill="#999999">3081</text>
<text dominant-baseline="central" text-anchor="middle" style="font-size:12px;font-family:sans-serif;" y="6" transform="translate(1604.6667 938)" fill="#999999">3160</text>
<text dominant-baseline="central" text-anchor="middle" style="font-size:12px;font-family:sans-serif;" y="6" transform="translate(1639.7778 938)" fill="#999999">3239</text>
<text dominant-baseline="central" text-anchor="middle" style="font-size:12px;font-family:sans-serif;" y="6" transform="translate(1674.8889 938)" fill="#999999">3318</text>
<text dominant-baseline="central" text-anchor="middle" style="font-size:12px;font-family:sans-serif;" y="6" transform="translate(1710 938)" fill="#999999">3397</text>
<text dominant-baseline="central" text-anchor="middle" style="font-size:12px;font-family:sans-serif;" y="6" transform="translate(1745.1111 938)" fill="#999999">3476</text>
<text dominant-baseline="central" text-anchor="middle" style="font-size:12px;font-family:sans-serif;" y="6" transform="translate(1780.2222 938)" fill="#999999">3555</text>
<g clip-path="url(#zr23-c0)">
<path d="M200.2 304.1L200.7 639.2L201.1 584.6L201.6 662.1L202 752.9L202.4 681.5L202.9 702.1L203.3 710.4L203.8 643.9L204.2 665.9L204.7 756.6L205.1 727.6L205.6 739.8L206 713.9L206.4 725.2L206.9 729.5L207.3 701.9L207.8 666.3L208.2 564.7L208.7 653.2L209.1 756L209.6 715.9L210 753.3L210.4 726.4L210.9 648.9L211.3 667.5L211.8 753.7L212.2 727.4L212.7 739.2L213.1 711.9L213.6 755.4L214 715.3L214.4 704.6L214.9 670.8L215.3 569.4L215.8 658.6L216.2 758.4L216.7 715.3L217.1 756.6L217.6 729.5L218 637.6L218.4 672.6L218.9 754.1L219.3 729.1L219.8 746L220.2 716.9L220.7 754.1L221.1 709.8L221.6 694.2L222 670.6L222.4 566.4L222.9 651.3L223.3 762L223.8 720.8L224.2 755.2L224.7 729.9L225.1 633.9L225.6 664.3L226 753.7L226.4 717.9L226.9 753.7L227.3 695.3L227.8 748.9L228.2 713.7L228.7 701.9L229.1 731.3L229.6 541.1L230 556.8L230.4 704L230.9 721.6L231.3 756.6L231.8 728.2L232.2 617.8L232.7 696.3L233.1 -1267.1L233.6 -520.9L234 -276.5L234.4 -230.4L234.9 170.1L235.3 353.1L235.8 583.6L236.2 295.2L236.7 113.7L237.1 248.6L237.6 507.7L238 636.6L238.4 673.6L238.9 703.2L239.3 665.9L239.8 680.9L240.2 668.5L240.7 737.1L241.1 736.1L241.6 716.9L242 730.1L242.4 721.6L242.9 682.3L243.3 743.6L243.8 257.3L244.2 544.5L244.7 669.6L245.1 736.3L245.6 732.9L246 744.4L246.4 674L246.9 677.9L247.3 674.8L247.8 737.6L248.2 735.1L248.7 719.3L249.1 728.4L249.6 747.9L250 669.8L250.4 740.2L250.9 677.9L251.3 539.2L251.8 665.1L252.2 726L252.7 729.9L253.1 743.8L253.6 677.7L254 673.6L254.4 681.7L254.9 733.5L255.3 738.6L255.8 718.9L256.2 730.3L256.7 739.2L257.1 667.9L257.6 741.4L258 677.5L258.4 548.7L258.9 668.9L259.3 732.1L259.8 737.1L260.2 743.8L260.7 674.8L261.1 673.6L261.6 680.5L262 507.5L262.4 727.2L262.9 730.1L263.3 714.9L263.8 741.4L264.2 659.6L264.7 737.6L265.1 740.2L265.6 656.4L266 567.4L266.4 678.5L266.9 736.5L267.3 750.3L267.8 677L268.2 676.4L268.7 682.1L269.1 735.7L269.6 729.1L270 734.1L270.4 726.2L270.9 743.4L271.3 651.8L271.8 743.6L272.2 736.5L272.7 660.7L273.1 563.5L273.6 679.9L274 737.3L274.4 746.7L274.9 677.9L275.3 682.3L275.8 718.1L276.2 674.2L276.7 732.3L277.6 720.3L278 745L278.4 659.4L278.9 733.3L279.3 727.4L279.8 676L280.2 546.1L280.7 665.9L281.1 734.7L281.6 746.1L282 677.7L282.4 736.3L282.9 608.4L283.3 676.4L283.8 735.1L284.2 732.3L284.7 715.1L285.1 745.2L285.6 676.4L286 716.3L286.4 738.2L286.9 677L287.3 546.5L287.8 665.1L288.2 739.2L288.7 748.9L289.1 685.5L289.6 736.5L290 670.6L290.4 677L290.9 730.7L291.3 729.1L291.8 725.2L292.2 742.4L292.7 680.3L293.1 724L293.6 -164.8L294 39.2L294.4 -18.9L294.9 120.1L295.3 490.1L295.8 549.4L296.2 624.2L296.7 539.2L297.1 182.5L297.6 77.8L298 294L298.4 287.7L298.9 404.7L299.3 619.2L299.8 466.8L300.2 705.4L300.7 655.8L301.1 679.9L301.6 515.8L302 425.7L302.4 648.7L302.9 741.4L303.3 655.8L303.8 733.5L304.2 662.3L304.7 689.4L305.1 732.3L305.6 735.1L306 728.6L306.4 739L306.9 680.7L307.3 727L307.8 732.1L308.2 746.5L308.7 657L309.1 565.9L309.6 677.7L310 749.3L310.4 682.3L310.9 748.7L311.3 681.9L311.8 731.3L312.2 662.3L312.7 739L313.1 732.7L313.6 741L314 678.1L314.4 722.4L314.9 730.9L315.3 749.1L315.8 673.4L316.2 546.1L316.7 663.7L317.1 753.7L317.6 679.7L318 740.4L318.4 717.7L318.9 687.8L319.3 673.4L319.8 737.1L320.2 731.7L320.7 740.8L321.1 675.4L321.6 729.1L322 726.6L322.4 743.2L322.9 669L323.3 546.9L323.8 661.7L324.2 757.6L324.7 681.3L325.1 747.9L325.6 720.1L326 681.5L326.4 668.5L326.9 734.9L327.3 727L327.8 742.4L328.2 672.2L328.7 746L329.1 707.6L329.6 747.1L330 672.2L330.4 550.8L330.9 656.8L331.3 756.4L331.8 676.6L332.2 744.8L332.7 726.2L333.1 676.4L333.6 668.1L334 737.8L334.4 727.2L334.9 751.7L335.3 663.9L335.8 743.6L336.2 649.1L336.7 746.3L337.1 737.1L337.6 659.4L338 552.6L338.4 701.9L338.9 680.5L339.3 747.1L339.8 716.3L340.2 674.4L340.7 665.9L341.1 738L341.6 728.9L342 755.8L342.4 662.3L342.9 748.5L343.3 708.4L343.8 741.8L344.2 722L344.7 666.9L345.1 555.4L345.6 698.7L346 674.6L346.4 750.7L346.9 728.9L347.3 705.8L347.8 753.7L348.2 -712.8L348.7 -539.2L349.1 -307.1L349.6 -175.7L350 204.5L350.4 173.4L350.9 642L351.3 474.9L351.8 221.1L352.2 240.7L352.7 508.3L353.1 594.3L353.6 643.7L354 707.6L354.4 673L354.9 682.1L355.3 653.6L355.8 746L356.2 742.2L356.7 677L357.1 730.1L357.6 725.4L358 727.6L358.4 747.5L358.9 661.7L359.3 549.4L359.8 667.3L360.2 693L360.7 724L361.1 741L361.6 716.1L362 692.4L362.4 664.1L362.9 742.4L363.3 736.3L363.8 680.3L364.2 723L364.7 736.3L365.1 698.9L365.6 750.1L366 665.7L366.4 556.2L366.9 672.4L367.3 697.3L367.8 726L368.2 741.2L368.7 710.2L369.1 678.5L369.6 659.4L370 746.3L370.4 736.1L370.9 689.2L371.3 719.1L371.8 748.1L372.2 713.5L372.7 747.7L373.1 724.2L373.6 670.6L374 546.9L374.4 659.8L374.9 722.2L375.3 742.4L375.8 719.9L376.2 679.9L376.7 666.1L377.1 744.2L377.6 735.3L378 692.4L378.4 717.5L378.9 743.6L379.3 706.8L379.8 746.1L380.2 721.6L380.7 669L381.1 560.5L381.6 642.4L382 725L382.4 737.6L382.9 721.6L383.3 693.6L383.8 700.1L384.2 683.9L384.7 739.4L385.1 691.2L385.6 718.7L386 739L386.4 704.8L386.9 748.5L387.3 723L387.8 687.8L388.2 548.1L388.7 627.5L389.1 730.3L389.6 679.7L390 720.3L390.4 730.1L390.9 657L391.3 677L391.8 736.1L392.2 692.4L392.7 715.3L393.1 739.2L393.6 706.4L394 747.3L394.4 722L394.9 689.6L395.3 551.6L395.8 622.8L396.2 732.5L396.7 746L397.1 725.6L397.6 736.9L398 664.7L398.4 686L398.9 736.9L399.3 697.1L399.8 717.3L400.2 741.8L400.7 727.6L401.1 723.2L401.6 720.6L402 687.2L402.4 537.6L402.9 626.7L403.3 734.7L403.8 567.8L404.2 727L404.7 734.7L405.1 644.1L405.6 690.2L406 731.5L406.4 693.8L406.9 727L407.3 736.7L407.8 725.8L408.2 735.5L408.7 -72.9L409.1 56.4L409.6 109L410 -49.2L410.4 454L410.9 563.7L411.3 679.7L411.8 544.7L412.2 331.2L412.7 167.5L413.1 296.8L413.6 397.2L414 414.2L414.4 596.5L414.9 514.8L415.3 708.6L415.8 640.6L416.2 688L416.7 515L417.1 372.7L417.6 644.5L418 740.4L418.4 701.7L418.9 750.9L419.3 659.6L419.8 724.8L420.2 677.9L420.7 704.2L421.1 728.8L421.6 743.4L422 717.9L422.4 734.9L422.9 715.3L423.3 755.6L423.8 668.3L424.2 508.1L424.7 664.7L425.1 757.8L425.6 720.8L426 744.4L426.4 700.5L426.9 692L427.3 674L427.8 703.4L428.2 724.8L428.7 738.6L429.1 717.7L429.6 737.1L430 715.3L430.4 752.9L430.9 673L431.3 513.9L431.8 659.2L432.2 759.2L432.7 721.2L433.1 755L433.6 705.2L434 695.9L434.4 670L434.9 703.4L435.3 728.4L435.8 746.1L436.2 719.1L436.7 752.5L437.1 698.1L437.6 756.2L438 676.2L438.4 512.3L438.9 656L439.3 751.5L439.8 725.2L440.2 747.7L440.7 707.8L441.1 685.9L441.6 670.4L442 700.1L442.4 726.8L442.9 684.1L443.3 708.2L443.8 752.3L444.2 698.7L444.7 756.2L445.1 732.9L445.6 622.4L446 538.2L446.4 719.7L446.9 721.4L447.3 754.5L447.8 712.9L448.2 681.3L448.7 672.8L449.1 705.8L449.6 725.8L450 753.7L450.4 709.8L450.9 751.5L451.3 690.4L451.8 753.5L452.2 732.7L452.7 624.8L453.1 546.3L453.6 702.9L454 722.6L454.4 758.4L454.9 709.6L455.3 703.1L455.8 699.9L456.2 589.2L456.7 722.2L457.1 577.9L457.6 710.2L458 749.3L458.4 692.2L458.9 752.7L459.3 739L459.8 643.7L460.2 535.8L460.7 695.7L461.1 724L461.6 760.2L462 720.4L462.4 755.6L462.9 700.7L463.3 -746.8L463.8 -496.7L464.2 -254.4L464.7 -160.9L465.1 211L465.6 353.9L466 648.7L466.4 452.8L466.9 201.5L467.3 248.8L467.8 505L468.2 644.1L468.7 667.5L469.1 696.9L469.6 721L470 691L470.4 618.4L470.9 735.7L471.8 718.5L472.2 731.5L472.7 728L473.1 720.8L473.6 753.3L474 619.6L474.4 551L474.9 671.6L475.3 740.4L475.8 737.6L476.2 729.5L476.7 725.8L477.1 677L477.6 630.1L478 742.4L478.4 740.2L478.9 736.5L479.3 718.7L479.8 727.6L480.2 717.9L480.7 748.7L481.1 688L481.6 662.3L482 543.5L482.4 703.8L482.9 738.6L483.3 731.3L483.8 726.4L484.2 676.6L484.7 629.1L485.1 742.4L485.6 736.9L486 733.7L486.4 721L486.9 731.7L487.3 716.9L487.8 747.3L488.2 689.4L488.7 667.5L489.1 553.8L489.6 678.1L490 739.8L490.4 732.3L490.9 725.4L491.3 695.5L491.8 657L492.2 693.2L492.7 739.2L493.6 722.4L494 731.3L494.4 715.3L494.9 748.9L495.3 686.4L495.8 680.9L496.2 493.1L496.7 673.8L497.1 739.6L497.6 735.1L498 730.7L498.4 743.4L498.9 627.7L499.3 677.5L499.8 733.5L500.2 734.9L500.7 717.9L501.1 728.8L501.6 713.5L502 747.9L502.4 683.1L503.3 545.1L503.8 667.1L504.2 739.6L504.7 738.8L505.1 734.1L505.6 733.1L506 628.7L506.4 685.3L506.9 737.6L507.3 735.9L507.8 725L508.2 728L508.7 734.5L509.1 732.5L509.6 683.7L510 685.7L510.4 381L510.9 666.5L511.3 743.2L511.8 733.3L512.2 736.7L512.7 738.8L513.1 616.5L513.6 680.1L514 736.1L514.9 736.5L515.3 704L515.8 730.3L516.2 725.4L516.7 688.6L517.1 744.4L517.6 652.6L518 537.6L518.4 698.5L518.9 733.1L519.3 737.3L519.8 743.6L520.2 617.5L520.7 679.9L521.1 738.4L521.6 727.2L522 734.9L522.4 717.3L522.9 753.7L523.3 724.8L523.8 682.5L524.2 -70.3L524.7 -48.4L525.1 4.2L525.6 126.8L526 494.1L526.4 546.3L526.9 714.1L527.3 407.5L527.8 426.7L528.2 147.1L528.7 301.5L529.1 458.3L529.6 410.7L530 594.5L530.4 521.8L530.9 651.7L531.3 671.8L531.8 604L532.2 407.3L532.7 525.3L533.1 703.6L533.6 719.9L534 721.2L534.4 673.8L534.9 685.9L535.3 680.3L535.8 740.8L536.2 744.2L536.7 720.6L537.1 737.3L537.6 728.8L538 689.8L538.4 744L538.9 682.3L539.3 546.1L539.8 672.8L540.2 725.8L540.7 738.2L541.1 745.2L541.6 678.3L542 687.6L542.4 681.5L542.9 737.3L543.3 735.5L543.8 718.9L544.2 733.1L544.7 750.1L545.1 666.7L545.6 744.8L546 681.9L546.4 543.7L546.9 669.4L547.3 729.7L547.8 739.4L548.2 746.7L548.7 682.5L549.1 676.8L549.6 616.1L550 739L550.4 733.7L550.9 729.7L551.3 727L551.8 746.3L552.2 663.7L552.7 743.4L553.1 740.4L553.6 658.8L554 540.5L554.4 696.3L554.9 740L555.3 737.3L555.8 675.8L556.2 676.4L556.7 682.7L557.1 739L557.6 738L558 731.3L558.4 722.8L558.9 744.8L559.3 666.1L559.8 739.6L560.2 740.4L560.7 663.7L561.1 558.7L561.6 679.5L562 738.2L562.4 749.5L562.9 664.9L563.3 691.4L563.8 543.3L564.2 682.3L564.7 734.7L565.1 727L565.6 722.2L566 740.2L566.4 635.4L566.9 744.4L567.3 736.1L567.8 677L568.2 544.3L568.7 655.4L569.1 739L569.6 744.4L570 683.7L570.4 721.4L570.9 678.9L571.3 669.6L571.8 731.3L572.2 729.9L572.7 722.2L573.1 742.6L573.6 658L574 744.2L574.4 740.8L574.9 681.1L575.3 549.8L575.8 668.1L576.2 740.2L576.7 751.9L577.1 680.3L577.6 734.9L578 712.5L578.4 -706.5L578.9 -389.6L579.3 -253.4L579.8 -241.1L580.2 158L580.7 337.7L581.1 620.4L581.6 458.9L582 251.1L582.4 252.9L582.9 485.2L583.3 662.1L583.8 661.5L584.2 667.1L584.7 712.1L585.1 684.5L585.6 662.9L586 751.1L586.4 715.3L586.9 741.4L587.3 726.8L587.8 690.4L588.2 706.6L588.7 749.3L589.1 713.9L589.6 674.4L590 523.9L590.4 719.7L590.9 733.7L591.3 700.3L591.8 708L592.2 673.8L592.7 653.8L593.1 749.9L593.6 717.1L594 751.7L594.4 715.1L594.9 700.9L595.3 703.6L595.8 753.7L596.2 722.6L596.7 677.4L597.1 542.3L597.6 701.7L598 731.1L598.4 698.9L598.9 722.8L599.3 701.7L599.8 695.9L600.2 702.7L600.7 719.5L601.1 757.2L601.6 715.5L602 695.1L602.4 700.7L602.9 708.2L603.3 724L603.8 694.2L604.2 522L604.7 696.3L605.1 733.3L605.6 700.3L606 719.1L606.4 742.4L606.9 664.5L607.3 695.5L607.8 708.4L608.2 760.8L608.7 709.2L609.1 698.3L609.6 705.8L610 746L610.4 717.7L610.9 691.6L611.3 522.2L611.8 691.4L612.2 732.7L612.7 700.7L613.1 718.3L613.6 733.9L614 659.4L614.4 694.7L614.9 711.7L615.3 746.1L615.8 715.5L616.2 698.1L616.7 723L617.1 591.6L617.6 720.4L618 694.7L618.4 529.1L618.9 686.6L619.3 732.5L619.8 700.7L620.2 722.2L620.7 749.3L621.1 655.6L621.6 700.5L622 714.1L622.4 747.5L622.9 721.2L623.3 693.2L623.8 722.6L624.2 733.9L624.7 720.1L625.1 696.9L625.6 522.6L626 684.9L626.4 732.3L626.9 699.5L627.3 716.9L627.8 746.1L628.2 646.5L628.7 692.4L629.1 716.1L629.6 756.8L630 732.3L630.4 690.2L630.9 716.3L631.3 735.7L631.8 709.2L632.2 752.5L632.7 635.6L633.1 582.1L633.6 682.1L634 703.4L634.4 726.4L634.9 749.5L635.3 661.5L635.8 726.6L636.2 664.5L636.7 757.8L637.1 728L637.6 690.2L638 728.2L638.4 739.8L638.9 729.7L639.3 49.5L639.8 -12.2L640.2 39.2L640.7 136.9L641.1 478.1L641.6 544.9L642 650.7L642.4 507.9L642.9 390.7L643.3 116.7L643.8 308.7L644.2 453L644.7 368.8L645.1 606.4L645.6 529.3L646 702.5L646.4 679.9L646.9 596.3L647.3 422.9L647.8 523.4L648.2 667.5L648.7 716.1L649.1 726.2L649.6 709.2L650 683.9L650.4 660.9L650.9 747.5L651.3 743L651.8 686L652.2 730.3L652.7 745L653.1 710.8L653.6 743.4L654 664.7L654.4 559.9L654.9 662.9L655.3 695.7L655.8 735.3L656.2 702.7L656.7 722.8L657.1 679.7L657.6 661.3L658 746L658.4 740L658.9 684.3L659.3 730.7L659.8 745.4L660.2 711.6L660.7 745.6L661.1 662.5L661.6 554.8L662 669.2L662.4 701.3L662.9 735.9L663.3 749.7L663.8 723.2L664.2 682.1L664.7 667.1L665.1 753.7L665.6 741.2L666 693.8L666.4 720.8L666.9 751.9L667.3 717.3L667.8 749.1L668.2 721.8L668.7 667.1L669.1 565.3L669.6 640.6L670 733.9L670.4 621L670.9 719.1L671.3 676.4L671.8 663.9L672.2 747.3L672.7 735.9L673.1 694L673.6 722L674 745.8L674.4 704.8L674.9 751.9L675.3 720.6L675.8 678.3L676.2 561.7L676.7 644.5L677.1 735.3L677.6 745.8L678 726L678.4 738.2L678.9 665.7L679.3 688L679.8 741.6L680.2 694.9L680.7 716.7L681.1 744.6L681.6 707.8L682 746.3L682.4 721.4L682.9 688.2L683.3 546.1L683.8 624.6L684.2 733.7L684.7 748.9L685.1 725.8L685.6 741.2L686 667.7L686.4 686.8L686.9 740L687.3 691L687.8 709.8L688.2 738.4L688.7 728L689.1 728.6L689.6 722.4L690 690.2L690.4 550L690.9 621.8L691.3 722.8L691.8 749.7L692.2 725.4L692.7 747.5L693.1 689L693.6 -632L694 -369.6L694.4 -324.5L694.9 -157.7L695.3 206.1L695.8 298.4L696.2 562.5L696.7 440.7L697.1 250.5L698 442.9L698.4 658.2L698.9 654.4L699.3 704.6L699.8 694.6L700.2 670.4L700.7 675.2L701.1 755.4L701.6 674.8L702 745.4L702.4 715.9L702.9 740L703.3 709.2L703.8 736.1L704.2 729.5L704.7 676L705.1 502L705.6 698.5L706 727.8L706.4 736.1L706.9 721.2L707.3 669.8L707.8 672L708.2 754.8L708.7 679.3L709.1 747.9L709.6 666.3L710 744.2L710.4 711.2L710.9 741.6L711.3 733.7L711.8 681.3L712.2 502.4L712.7 694.7L713.1 732.7L713.6 742.6L714 723.8L714.4 727.4L714.9 671.4L715.3 694.2L715.8 679.9L716.2 754.1L716.7 713.9L717.1 738.8L717.6 707.8L718 732.3L718.4 728.8L718.9 694.4L719.3 479.3L719.8 680.9L720.2 732.5L720.7 742.8L721.1 726L721.6 729.9L722 670.2L722.4 698.7L722.9 673.2L723.3 749.5L723.8 546.3L724.2 739.2L724.7 726.6L725.1 720.6L725.6 731.9L726 690.8L726.4 479.3L726.9 679.3L727.3 724.6L727.8 741.2L728.2 723.6L728.7 731.7L729.1 664.1L729.6 694.2L730 678.7L730.4 749.7L730.9 719.5L731.3 729.1L731.8 722.4L732.2 715.3L732.7 735.7L733.1 685.7L733.6 483.4L734 676.6L734.4 729.1L734.9 739.2L735.3 725.8L735.8 733.3L736.2 660.9L736.7 696.7L737.1 673.4L737.6 743.6L738 732.3L738.4 724.4L738.9 727.6L739.3 722.2L739.8 733.5L740.2 748.7L740.7 600.6L741.1 582.3L741.6 677.2L742 743L742.4 728L742.9 729.3L743.3 644.3L743.8 691.2L744.2 674.8L744.7 752.1L745.1 730.3L745.6 733.9L746 712.1L746.4 715.7L746.9 722.6L747.3 758.8L747.8 602.2L748.2 571.2L748.7 675L749.1 749.5L749.6 723.6L750 734.3L750.4 719.1L750.9 693.8L751.3 617.1L751.8 748.7L752.2 728.4L752.7 726.4L753.1 724.6L753.6 721L754 741.4L754.4 35.8L754.9 -92.3L755.3 30.7L755.8 125.2L756.2 520.2L756.7 521.4L757.1 684.5L757.6 526.1L758 415L758.4 86.8L758.9 323.1L759.3 459.3L759.8 421.9L760.2 613.5L760.7 526.9L761.1 695.5L761.6 665.3L762 549.8L762.4 409.5L762.9 466.6L763.3 706L763.8 717.5L764.2 704.2L764.7 724L765.1 679.5L765.6 611.1L766 743.2L766.4 740.2L766.9 727.8L767.3 734.5L767.8 731.5L768.2 720.8L768.7 750.3L769.1 631.5L769.6 554.4L770 669.8L770.4 738.6L771.3 734.5L771.8 732.9L772.2 675.8L772.7 627.7L773.1 740.2L774 738.6L774.4 723.8L774.9 729.9L775.3 717.9L775.8 751.3L776.2 686.8L776.7 669L777.1 389.7L777.6 685.5L778 737.6L778.4 735.3L778.9 732.3L779.3 682.5L779.8 621.6L780.2 742.4L780.7 738.4L781.6 726.4L782 728.4L782.4 712.3L782.9 747.7L783.3 689.2L783.8 674.4L784.2 564.9L784.7 683.7L785.1 737.8L785.6 734.7L786 734.1L786.4 740L786.9 626.7L787.3 681.1L787.8 737.8L788.2 740.2L788.7 721.6L789.1 734.1L789.6 720.4L790 752.9L790.4 681.7L790.9 682.5L791.3 546.3L791.8 663.7L792.2 732.5L792.7 731.7L793.6 739.4L794 615.7L794.4 681.3L794.9 737.4L795.3 736.3L795.8 725.6L796.2 728.6L796.7 733.9L797.1 726L797.6 685.1L798 681.1L798.4 548.7L798.9 668.3L799.3 738.8L799.8 731.1L800.2 724.2L800.7 735.3L801.1 619L801.6 684.5L802 732.1L802.4 738.6L802.9 712.3L803.3 725.8L803.8 731.1L804.2 729.5L804.7 685.5L805.1 683.1L805.6 551.2L806 670.2L806.4 742.6L806.9 736.5L807.3 740.4L807.8 763.5L808.2 657.2L808.7 695.3L809.1 -545.6L809.6 -614L810 -281.8L810.4 -249.4L810.9 102.5L811.3 370.1L811.8 594.3L812.2 471.8L812.7 172.6L813.1 246.4L813.6 519.4L814 634.7L814.4 672.2L814.9 713.1L815.3 614.7L815.8 678.9L816.2 658.8L816.7 738.6L817.1 732.5L817.6 712.9L818 729.1L818.4 729.9L818.9 683.7L819.3 745.4L819.8 662.9L820.2 563.5L820.7 684.9L821.1 735.7L821.6 741.8L822 735.1L822.4 674.6L822.9 683.3L823.3 678.5L823.8 734.5L824.2 733.5L824.7 712.1L825.1 736.1L825.6 724.2L826 682.9L826.4 742.6L826.9 678.3L827.3 547.7L827.8 669.4L828.2 733.9L828.7 736.5L829.1 739.4L829.6 672.2L830 684.3L830.4 514.3L830.9 737.1L831.3 736.3L831.8 714.7L832.2 735.9L832.7 746.1L833.1 660.7L833.6 742.4L834 676.4L834.4 535.8L834.9 669L835.3 734.9L836.2 743.4L836.7 655.6L837.1 673.4L837.6 674.2L838 733.5L838.4 736.5L838.9 718.9L839.3 730.7L839.8 742.4L840.2 666.3L840.7 741.6L841.1 677.4L841.6 539.4L842 666.7L842.4 731.9L842.9 733.3L843.3 745.6L843.8 675.8L844.2 674L844.7 620L845.1 736.9L845.6 731.7L846 727.8L846.4 723.4L846.9 743L847.3 658L847.8 739L848.2 737.1L848.7 651.5L849.1 561.3L849.6 675.2L850 729.7L850.4 747.7L850.9 669.8L851.8 674.2L852.2 735.9L852.7 731.3L853.1 725L853.6 724.4L854 749.3L854.4 663.7L854.9 736.5L855.3 730.9L855.8 658L856.2 562.5L856.7 677.7L857.1 741.4L857.6 744.2L858 681.1L858.4 729.3L858.9 676.2L859.8 737.6L860.2 729.9L860.7 722.8L861.1 745.8L861.6 662.7L862 736.1L862.4 733.7L862.9 676.2L863.3 543.9L863.8 662.5L864.2 735.7L864.7 743.6L865.1 676L865.6 727.2L866 678.3L866.4 677L866.9 741L867.3 731.1L867.8 721.2L868.2 742L868.7 690.2L869.1 729.7L869.6 -54.7L870 -69.7L870.4 23L870.9 113.9L871.3 460.1L871.8 567.6L872.2 599.1L872.7 524.1L873.1 380.6L873.6 156L874 297.6L874.4 419.2L874.9 407.1L875.3 637L875.8 478.3L876.2 698.5L876.7 651.5L877.1 614.9L877.6 405.7L878 518.2L878.4 705.2L878.9 737.3L879.3 657.4L879.8 743L880.2 658.2L880.7 686.6L881.1 725.6L881.6 737.1L882 728.4L882.4 735.9L882.9 680.7L883.3 734.5L883.8 593.7L884.2 746.5L884.7 654L885.1 571.8L885.6 676.4L886 753.9L886.4 676L886.9 742.8L887.3 663.7L887.8 690L888.2 729.3L888.7 740.2L889.1 730.7L889.6 744L890 678.5L890.4 730.3L890.9 733.5L891.3 749.7L891.8 660.5L892.2 568.6L892.7 676.4L893.1 756L893.6 681.9L894 711L894.4 721L894.9 678.9L895.3 665.9L895.8 741L896.2 721L896.7 742.2L897.1 681.3L897.6 724L898 728.9L898.4 744.2L898.9 661.7L899.3 549.1L899.8 660L900.2 756.6L900.7 665.7L901.1 739.4L901.6 719.9L902 687.8L902.4 670.6L902.9 742.2L903.3 732.9L903.8 743.2L904.2 675.8L904.7 750.3L905.1 716.3L905.6 748.9L906 668.7L906.4 550.6L906.9 659.8L907.3 762.8L907.8 679.7L908.2 745L908.7 726.2L909.1 677.5L909.6 672.2L910 727.2L910.4 731.5L910.9 740.6L911.3 672.4L911.8 749.9L912.2 713.1L912.7 746.1L913.1 668.7L913.6 552.6L914 654.4L914.4 757.4L914.9 677.7L915.3 746.3L915.8 725.2L916.2 675.2L916.7 665.5L917.1 741.4L917.6 733.7L918 752.9L918.4 666.3L918.9 750.9L919.3 711.4L919.8 738.2L920.2 730.7L920.7 657.8L921.1 563.3L921.6 697.1L922 679.9L922.4 751.5L922.9 671.6L923.3 685.3L923.8 706.4L924.2 -569.3L924.7 -349.7L925.1 -246.1L925.6 -306.2L926 182.1L926.4 336.7L926.9 638L927.3 450.6L927.8 235.3L928.2 269.9L928.7 517.4L929.1 593.7L929.6 658.6L930 713.3L930.4 719.7L930.9 693.4L931.3 659.2L931.8 746.9L932.2 726.8L932.7 676.8L933.1 728.8L933.6 724.6L934 730.5L934.4 741.8L934.9 653.8L935.3 548.5L935.8 667.5L936.2 694.4L936.7 731.5L937.1 587.6L937.6 715.3L938 691L938.4 666.9L938.9 736.3L939.3 735.1L939.8 675.8L940.2 725.6L940.7 743.6L941.1 706.8L941.6 747.7L942 657.8L942.4 549.1L942.9 662.9L943.3 695.9L943.8 730.3L944.2 745L944.7 723.2L945.1 680.9L945.6 662.9L946 744.6L946.4 737.8L946.9 682.5L947.3 725.8L947.8 747.1L948.2 700.3L948.7 739.4L949.1 659.4L949.6 555.2L950 666.7L950.4 697.5L950.9 733.9L951.3 746.7L951.8 722.6L952.2 680.3L952.7 664.1L953.1 745.2L953.6 738L954 692.8L954.4 718.5L954.9 740L955.3 704.4L955.8 744L956.2 712.9L956.7 660.9L957.1 559.9L957.6 641.2L958 730.7L958.4 743.2L958.9 720.8L959.3 681.9L959.8 660.5L960.2 748.9L960.7 738L961.1 693.2L961.6 715.7L962 745L962.4 703.2L962.9 738.8L963.3 716.3L963.8 666.9L964.2 564.9L964.7 640L965.1 731.9L965.6 749.5L966 726.2L966.4 733.5L966.9 658.8L967.3 687.4L967.8 735.3L968.2 692.4L968.7 719.1L969.1 748.1L969.6 707.2L970 748.5L970.4 720.8L970.9 689.2L971.3 548.5L971.8 629.7L972.2 730.5L972.7 743.8L973.1 720.6L973.6 735.7L974 655.4L974.4 684.5L974.9 729.3L975.3 672.8L975.8 723.2L976.2 690.4L976.7 725.8L977.1 728.8L977.6 708.8L978 679.5L978.4 548.3L978.9 624L979.3 732.5L979.8 747.1L980.2 719.5L980.7 742.6L981.1 650.7L981.6 687.4L982 734.7L982.4 691.6L982.9 722.6L983.3 746.9L983.8 727L984.2 731.3L984.7 -27.2L985.1 10.7L986 101.7L986.4 503.8L986.9 565.5L987.3 675.2L987.8 546.9L988.2 355.7L988.7 190.6L989.1 312.6L989.6 408.7L990 419.4L990.4 474.3L990.9 513.7L991.3 710.6L991.8 642.2L992.2 682.1L992.7 511.5L993.1 381.2L993.6 649.9L994 735.5L994.4 694.7L994.9 748.7L995.3 646.7L995.8 697.3L996.2 732.7L996.7 704.8L997.1 723.2L997.6 743.2L998 713.5L998.4 735.5L998.9 715.1L999.3 756.8L999.8 658L1000.2 526.1L1000.7 676.6L1001.1 754.6L1001.6 724.8L1002 753.9L1002.4 660.7L1002.9 740.4L1003.3 674L1003.8 704.2L1004.2 727.4L1004.7 731.1L1005.1 710L1005.6 732.9L1006 712.1L1006.4 757.2L1006.9 671.6L1007.3 503.8L1007.8 646.9L1008.2 756L1008.7 719.7L1009.1 753.9L1009.6 699.9L1010 695.9L1010.4 669.2L1010.9 698.3L1011.3 730.3L1011.8 741.8L1012.2 717.3L1012.7 753.9L1013.1 694.9L1013.6 754.8L1014 670.8L1014.4 511.5L1014.9 658.4L1015.3 755.8L1015.8 720.3L1016.2 749.9L1016.7 711L1017.1 688.2L1017.6 674L1018 697.5L1018.4 728.4L1018.9 743.6L1019.3 711.6L1019.8 753.7L1020.2 689.4L1020.7 753.5L1021.1 670.6L1021.6 511.5L1022 649.5L1022.4 756.4L1022.9 718.3L1023.3 753.5L1023.8 698.3L1024.2 679.1L1024.7 673.2L1025.1 702.5L1025.6 726.2L1026 748.9L1026.4 702.3L1026.9 756.6L1027.3 697.7L1027.8 752.7L1028.2 735.3L1028.7 625.6L1029.1 551.6L1029.6 649.7L1030 719.1L1030.4 751.1L1030.9 707.2L1031.3 687L1031.8 672.2L1032.2 697.7L1032.7 725.4L1033.1 753.5L1033.6 708L1034 755.8L1034.4 690.2L1034.9 755.8L1035.3 725.2L1035.8 633.5L1036.2 541.7L1036.7 700.1L1037.1 721L1037.6 759.4L1038 709.8L1038.4 708.2L1038.9 749.1L1039.3 -638.9L1039.8 -381.1L1040.2 -235.2L1040.7 -135.7L1041.1 223.8L1041.6 357.5L1042 648.5L1042.4 477.5L1042.9 216.7L1043.3 249.7L1043.8 335.9L1044.2 602.8L1044.7 659.8L1045.1 694L1045.6 726.6L1046 683.3L1046.4 622.6L1046.9 745.6L1047.3 739.2L1047.8 723.6L1048.2 736.5L1048.7 710.6L1049.1 730.9L1049.6 746.5L1050 620.8L1050.4 554.6L1050.9 668.1L1051.3 738L1051.8 740L1052.2 727L1052.7 723.6L1053.1 687.2L1053.6 614.3L1054 744L1054.4 737.6L1054.9 723.4L1055.3 731.3L1055.8 734.7L1056.2 715.3L1056.7 750.3L1057.1 625.4L1057.6 552L1058 666.9L1058.4 740.8L1058.9 723.8L1059.3 725L1059.8 723.8L1060.2 680.5L1060.7 622.4L1061.1 736.9L1061.6 739.2L1062 730.3L1062.4 720.1L1062.9 728.2L1063.3 717.1L1063.8 750.3L1064.2 687.4L1064.7 656.6L1065.1 567.4L1065.6 681.7L1066 731.3L1066.4 725.6L1066.9 715.3L1067.3 678.9L1067.8 623.8L1068.2 739.2L1068.7 735.1L1069.1 734.1L1069.6 720.4L1070 728.2L1070.4 718.7L1070.9 750.7L1071.3 683.9L1071.8 668.7L1072.2 565.1L1072.7 682.5L1073.1 728.4L1073.6 730.7L1074 732.9L1074.4 697.9L1074.9 665.1L1075.3 679.9L1075.8 737.8L1076.2 727.8L1076.7 713.7L1077.1 724L1077.6 716.5L1078 750.5L1078.4 682.7L1078.9 681.5L1079.3 541.1L1079.8 669.4L1080.2 735.1L1080.7 719.1L1081.1 731.5L1081.6 738.8L1082 624L1082.4 680.7L1082.9 687.4L1083.3 738.4L1083.8 724L1084.2 728.8L1084.7 715.7L1085.1 749.5L1085.6 682.1L1086 624.8L1086.4 541.7L1086.9 660.5L1087.3 734.5L1087.8 725.6L1088.2 740.4L1088.7 733.7L1089.1 626.1L1089.6 686.2L1090 735.5L1090.4 739.4L1090.9 722.8L1091.3 721.6L1091.8 734.1L1092.2 731.3L1092.7 685.7L1093.1 671.6L1093.6 540L1094 667.5L1094.4 731.3L1094.9 727.8L1095.3 726L1095.8 733.7L1096.2 610.9L1096.7 682.9L1097.1 602.8L1097.6 741.6L1098 727L1098.4 711.4L1098.9 737.8L1099.3 736.1L1099.8 -68.9L1100.2 96.5L1100.7 128.6L1101.1 25.8L1101.6 410.5L1102 547.1L1102.4 685.3L1102.9 530.5L1103.3 329.6L1103.8 137.3L1104.2 310.8L1104.7 476.1L1105.1 429.6L1105.6 599.1L1106 529.7L1106.4 711.7L1106.9 605L1107.3 680.9L1107.8 519.8L1108.2 421.9L1108.7 651.5L1109.1 719.1L1109.6 710.8L1110 752.9L1110.4 624.8L1110.9 731.5L1111.3 676.4L1111.8 736.1L1112.2 730.1L1112.7 725.8L1113.1 727.6L1113.6 735.3L1114 680.5L1114.4 750.5L1114.9 674.4L1115.3 559.5L1115.8 667.5L1116.2 741.2L1116.7 731.1L1117.1 753.9L1117.6 666.1L1118 694.6L1118.4 673.6L1118.9 745.4L1119.3 734.1L1119.8 724.2L1120.2 730.3L1120.7 734.7L1121.1 680.3L1121.6 753.3L1122 673.2L1122.4 556L1122.9 662.5L1123.3 738.2L1123.8 725.8L1124.2 753.5L1124.7 667.5L1125.1 695.3L1125.6 669.4L1126 746L1126.4 736.7L1126.9 727.8L1127.3 728.4L1127.8 755.4L1128.2 653.2L1128.7 746.1L1129.1 674.4L1129.6 557.2L1130 661.5L1130.4 742.8L1130.9 730.3L1131.3 757.4L1131.8 669.4L1132.2 685.7L1132.7 671L1133.1 743.8L1133.6 728.6L1134 737.1L1134.4 713.9L1134.9 753.1L1135.3 657.2L1135.8 751.3L1136.2 678.9L1136.7 657L1137.1 537.2L1137.6 701.5L1138 726.8L1138.4 756L1138.9 672.6L1139.3 681.3L1139.8 666.5L1140.2 744.6L1140.7 733.3L1141.1 737.6L1141.6 719.1L1142 758L1142.4 654.2L1142.9 748.1L1143.3 723.8L1143.8 667.3L1144.2 552L1144.7 684.9L1145.1 732.3L1145.6 756.6L1146 673L1146.4 696.1L1146.9 702.3L1147.3 691.2L1147.8 729.1L1148.2 735.5L1148.7 704L1149.1 752.7L1149.6 654.8L1150 747.5L1150.4 552L1150.9 462.9L1151.3 529.5L1151.8 674.4L1152.2 733.7L1152.7 747.1L1153.1 670.2L1153.6 747.5L1154 707.6L1154.4 -803.2L1154.9 -533.7L1155.3 -342.7L1155.8 -125.7L1156.2 228.4L1156.7 287.3L1157.1 650.5L1157.6 474.5L1158 258L1158.4 239.5L1158.9 477.7L1159.3 652.4L1159.8 659L1160.2 661.1L1160.7 724.2L1161.1 679.7L1161.6 662.7L1162 735.3L1162.4 720.1L1162.9 730.3L1163.3 726.2L1163.8 689L1164.2 709L1164.7 743.2L1165.1 657L1165.6 555.2L1166 651.3L1166.4 750.1L1166.9 737.3L1167.3 694.2L1167.8 717.3L1168.2 678.7L1168.7 663.3L1169.1 741L1169.6 727.2L1170 740L1170.4 724.8L1170.9 690L1171.3 714.9L1171.8 747.9L1172.2 728.9L1172.7 667.9L1173.1 519.4L1173.6 704.4L1174 739.2L1174.4 695.5L1174.9 725.4L1175.3 682.5L1175.8 671.6L1176.2 749.7L1176.7 715.9L1177.1 741.2L1177.6 717.7L1178 690L1178.4 708.8L1178.9 746L1179.3 727.2L1179.8 665.5L1180.2 546.9L1180.7 691.4L1181.1 735.1L1181.6 686.8L1182 713.9L1182.4 694.6L1182.9 691.6L1183.3 693.8L1183.8 717.1L1184.2 736.5L1184.7 718.3L1185.1 682.9L1185.6 703.1L1186 747.9L1186.4 726.2L1186.9 685.5L1187.3 527.1L1187.8 685.9L1188.2 729.7L1188.7 689.8L1189.1 728.9L1189.6 673.8L1190 664.3L1190.4 690.2L1190.9 725.2L1191.3 742.2L1191.8 722.6L1192.2 682.1L1192.7 708.2L1193.1 743.2L1193.6 727.8L1194 686.4L1194.4 528.1L1194.9 679.1L1195.3 739.4L1195.8 694.6L1196.2 728.4L1196.7 738.6L1197.1 661.5L1197.6 680.1L1198 716.3L1198.4 744L1198.9 719.3L1199.3 688.8L1199.8 727.8L1200.2 727L1200.7 724.8L1201.1 679.9L1201.6 528.1L1202 675.8L1202.4 734.7L1202.9 693.8L1203.3 728.9L1203.8 590.6L1204.2 651.3L1204.7 689.8L1205.1 720.6L1205.6 746.7L1206 728.6L1206.4 673.6L1206.9 723.4L1207.3 718.1L1207.8 723.6L1208.2 748.3L1208.7 638.4L1209.1 552.8L1209.6 703.4L1210 692.2L1210.4 731.7L1210.9 738.2L1211.3 653.2L1211.8 690.8L1212.2 715.3L1212.7 745.2L1213.1 739L1213.6 675.8L1214 748.1L1214.4 732.9L1214.9 732.3L1215.3 19L1215.8 -44.2L1216.2 -56.7L1216.7 148.1L1217.1 446.3L1217.6 541.9L1218 715.1L1218.4 469.4L1218.9 446.3L1219.3 148.7L1219.8 328.4L1220.2 471L1220.7 371.7L1221.1 606.8L1221.6 515.6L1222 696.7L1222.4 680.1L1222.9 584.6L1223.3 417.4L1223.8 528.1L1224.2 670L1224.7 697.3L1225.1 720.8L1226 689.2L1226.4 661.3L1226.9 752.1L1227.3 737.6L1227.8 680.7L1228.2 729.3L1228.7 727.4L1229.1 732.3L1229.6 749.5L1230 659.8L1230.4 554.2L1230.9 675.2L1231.3 701.9L1231.8 732.3L1232.2 747.3L1232.7 718.7L1233.1 688.2L1233.6 659.2L1234 748.3L1234.4 739L1234.9 685.9L1235.3 725.4L1235.8 746.9L1236.2 708.2L1236.7 748.1L1237.1 661.9L1237.6 557.7L1238 671.8L1238.4 700.7L1238.9 735.7L1239.3 745.8L1239.8 720.4L1240.2 675.2L1240.7 662.5L1241.1 744L1241.6 745L1242 691.8L1242.4 714.5L1242.9 698.5L1243.3 705.8L1243.8 746L1244.2 723.8L1244.7 664.7L1245.1 549.8L1245.6 659.6L1246 733.3L1246.4 747.5L1246.9 717.5L1247.3 680.1L1247.8 665.1L1248.2 750.1L1248.7 738.6L1249.1 694.9L1249.6 719.7L1250 746.1L1250.4 709L1250.9 745L1251.3 725.4L1251.8 665.5L1252.2 556.4L1252.7 638.6L1253.1 732.5L1253.6 746.7L1254 724L1254.4 693.6L1255.3 696.5L1255.8 739.2L1256.2 698.3L1256.7 716.5L1257.1 577.5L1257.6 706.2L1258 752.9L1258.4 725.2L1258.9 687.2L1259.3 544.1L1259.8 632.5L1260.2 739L1260.7 748.3L1261.1 726L1261.6 734.3L1262 664.9L1262.4 689L1262.9 735.3L1263.3 695.7L1263.8 715.7L1264.2 743.8L1264.7 699.9L1265.1 743.2L1265.6 722.6L1266 680.5L1266.4 544.3L1266.9 614.9L1267.3 712.1L1267.8 749.7L1268.2 727.8L1268.7 742.2L1269.1 696.3L1269.6 -608.8L1270 -397.3L1270.4 -437.4L1270.9 -140.3L1271.3 133.3L1271.8 384.2L1272.2 621L1272.7 452.8L1273.1 262.4L1273.6 253.5L1274 438.1L1274.4 661.9L1274.9 666.9L1275.3 708.8L1275.8 723.2L1276.2 669L1276.7 665.1L1277.1 751.9L1277.6 676L1278 746.7L1278.4 687.2L1278.9 740.8L1279.3 713.5L1279.8 733.3L1280.2 730.3L1280.7 675.8L1281.1 469.2L1281.6 715.1L1282 728.8L1282.4 743.6L1282.9 713.1L1283.3 670L1283.8 668.1L1284.2 753.5L1284.7 668.1L1285.1 744.8L1285.6 712.3L1286 738.2L1286.4 709.8L1286.9 735.9L1287.3 734.9L1287.8 676.4L1288.2 498.4L1288.7 694.4L1289.1 731.5L1289.6 745.2L1290 724.6L1290.4 684.5L1290.9 699.5L1291.3 704.2L1291.8 676.2L1292.2 749.1L1292.7 715.5L1293.1 738.4L1293.6 707.2L1294 737.8L1294.4 729.7L1294.9 697.7L1295.3 479.1L1295.8 687.2L1296.2 675.8L1296.7 741.2L1297.1 725.2L1297.6 727.6L1298 671.4L1298.4 693.8L1298.9 671L1299.3 747.7L1299.8 710L1300.2 742.8L1300.7 708L1301.1 738.4L1301.6 731.3L1302 696.7L1302.4 488.4L1302.9 683.5L1303.3 730.1L1303.8 747.5L1304.2 729.5L1304.7 731.1L1305.1 675.8L1305.6 691L1306 676.4L1306.4 747.1L1306.9 719.9L1307.3 737.4L1307.8 719.9L1308.2 710.8L1308.7 728.2L1309.1 688.4L1309.6 486L1310 670.8L1310.4 576.1L1310.9 741.8L1311.3 726.4L1311.8 729.7L1312.2 656L1312.7 698.7L1313.1 670L1313.6 750.1L1314 702.5L1314.4 729.3L1314.9 727.8L1315.3 719.1L1315.8 724.6L1316.2 751.1L1316.7 596.1L1317.1 555L1317.6 690.6L1318 747.3L1318.4 728.4L1318.9 734.3L1319.3 661.7L1319.8 694L1320.2 668.1L1320.7 747.1L1321.1 723.2L1321.6 728.8L1322 726.4L1322.4 718.5L1322.9 729.5L1323.3 756.2L1323.8 600.4L1324.2 577.7L1324.7 674.2L1325.1 746.1L1325.6 728.4L1326 736.5L1326.4 677.9L1326.9 734.5L1327.3 624L1327.8 751.5L1328.2 730.1L1328.7 731.1L1329.1 732.5L1329.6 720.8L1330 734.3L1330.4 34.5L1330.9 -83L1331.3 -58.7L1331.8 106.4L1332.2 516.4L1332.7 546.9L1333.1 689.8L1333.6 518L1334 393.7L1334.4 113.9L1334.9 325.7L1335.3 463.6L1335.8 418.2L1336.2 609L1336.7 516.6L1337.1 715.1L1337.6 680.3L1338 557.9L1338.4 416.4L1338.9 520.4L1339.3 714.3L1339.8 717.9L1340.2 710.8L1340.7 731.1L1341.1 694.6L1341.6 629.3L1342 745.2L1342.4 736.5L1342.9 721.2L1343.3 737.3L1343.8 732.3L1344.2 719.5L1344.7 749.5L1345.1 627.1L1345.6 552.4L1346 668.3L1346.4 739.2L1347.3 732.9L1348.2 680.3L1348.7 624L1349.1 739.4L1349.6 694.6L1350 729.1L1350.4 731.3L1350.9 734.5L1351.3 721.6L1351.8 753.1L1352.2 613.7L1352.7 555L1353.1 670.4L1353.6 731.7L1354 737.8L1354.4 728.2L1354.9 735.9L1355.3 624.2L1355.8 615.7L1356.2 734.5L1356.7 735.3L1357.1 736.7L1357.6 722.8L1358 723.8L1358.4 712.9L1358.9 747.5L1359.3 685.9L1359.8 663.9L1360.2 568L1360.7 689.2L1361.1 741L1361.6 733.9L1362 736.3L1362.4 695.3L1362.9 654.6L1363.3 691.2L1363.8 561.1L1364.2 737.1L1364.7 724.8L1365.1 728.8L1365.6 718.9L1366 749.7L1366.4 688L1366.9 682.7L1367.3 542.9L1367.8 673.8L1368.2 738.2L1368.7 721.6L1369.1 731.9L1369.6 739.2L1370 621.8L1370.4 678.5L1370.9 734.9L1371.3 740.6L1371.8 721.6L1372.2 727.2L1372.7 711.7L1373.1 747.1L1373.6 687.8L1374 684.3L1374.4 553.6L1374.9 667.9L1375.3 735.3L1375.8 729.5L1376.2 731.5L1376.7 738L1377.1 627.9L1377.6 684.7L1378 737.6L1378.4 739.2L1378.9 725.2L1379.3 726.2L1379.8 734.7L1380.2 726.2L1380.7 684.3L1381.6 545.9L1382 669.6L1382.4 727.4L1382.9 733.5L1383.3 734.3L1383.8 753.9L1384.2 656.4L1384.7 -539.6L1385.1 -598.7L1385.6 -274.5L1386 -200.8L1386.4 208.8L1386.9 404.3L1387.3 627.9L1387.8 419L1388.2 255.7L1388.7 245L1389.1 468.4L1389.6 661.1L1390 646.5L1390.4 722.6L1390.9 719.9L1391.3 624.8L1391.8 666.3L1392.2 747.9L1392.7 721.8L1393.1 752.3L1393.6 701.1L1394 754.6L1394.4 709.4L1394.9 701.9L1395.3 723.6L1395.8 675.8L1396.2 546.9L1396.7 700.9L1397.1 711.7L1397.6 752.7L1398 724.6L1398.4 628.9L1398.9 659.2L1399.3 753.7L1399.8 714.9L1400.2 749.9L1400.7 701.3L1401.1 752.9L1401.6 709.2L1402 696.3L1402.4 724.6L1402.9 626.1L1403.3 547.5L1403.8 695.7L1404.2 720.6L1404.7 756L1405.1 718.1L1405.6 689.4L1406 668.1L1406.4 681.9L1406.9 719.1L1407.3 754.1L1407.8 697.9L1408.2 755.4L1408.7 711L1409.1 700.7L1409.6 723.8L1410 697.3L1410.4 526.1L1410.9 684.5L1411.3 715.3L1411.8 748.5L1412.2 718.7L1412.7 687.4L1413.1 661.7L1413.6 695.1L1414 721.6L1414.4 757.6L1414.9 699.5L1415.3 747.1L1415.8 730.5L1416.2 680.9L1416.7 727.4L1417.1 546.3L1417.6 525.9L1418 679.9L1418.4 717.5L1418.9 757L1419.3 733.5L1419.8 696.7L1420.2 644.9L1420.7 689.2L1421.1 717.9L1421.6 752.5L1422 700.1L1422.4 750.1L1422.9 726L1423.3 674L1423.8 724.8L1424.2 687.8L1424.7 528.5L1425.1 685.5L1425.6 716.1L1426 756.6L1426.4 728.9L1426.9 692L1427.3 648.1L1427.8 689L1428.2 717.9L1428.7 749.7L1429.1 713.7L1429.6 737.1L1430 726L1430.4 675.2L1430.9 721.4L1431.3 751.5L1431.8 643.7L1432.2 578.5L1432.7 660.2L1433.1 751.5L1433.6 726.4L1434 696.1L1434.4 659.2L1434.9 696.3L1435.3 722L1435.8 748.3L1436.2 711.2L1436.7 741.4L1437.1 722.8L1437.6 673.6L1438 724.8L1438.4 756.8L1438.9 644.1L1439.3 580.7L1439.8 661.1L1440.2 754.8L1440.7 730.1L1441.1 698.9L1441.6 716.7L1442 686.6L1442.4 659.2L1442.9 754.1L1443.3 713.9L1443.8 739.6L1444.2 729.9L1444.7 685.5L1445.1 730.5L1445.6 -70.3L1446 -15.6L1446.4 26.8L1446.9 88.4L1447.3 503.6L1447.8 541.7L1448.2 592.3L1448.7 511.5L1449.1 409.5L1449.6 170.1L1450 326.3L1450.4 457.7L1450.9 411.5L1451.3 616.3L1451.8 482.2L1452.2 688L1452.7 677.4L1453.1 593.5L1453.6 427.5L1454 509.5L1454.4 728.2L1454.9 714.9L1455.3 669.2L1455.8 731.5L1456.2 637L1456.7 672.6L1457.1 748.5L1457.6 723L1458 736.1L1458.4 738.4L1458.9 693.2L1459.3 713.9L1459.8 750.7L1460.2 666.9L1460.7 563.9L1461.1 653.4L1461.6 748.1L1462 739.6L1462.4 697.3L1462.9 728.6L1463.3 681.3L1463.8 670.2L1464.2 748.5L1464.7 717.3L1465.1 745.2L1465.6 725.8L1466 694.7L1466.4 713.3L1466.9 749.5L1467.3 732.1L1467.8 671.6L1468.2 553L1468.7 698.1L1469.1 742.2L1469.6 692.6L1470 727.8L1470.4 548.1L1470.9 674L1471.3 747.7L1471.8 725.2L1472.2 744.2L1472.7 724.8L1473.1 693.2L1473.6 714.9L1474 750.3L1474.4 729.9L1474.9 676.8L1475.3 545.1L1475.8 692L1476.2 739.2L1476.7 686.8L1477.1 724.2L1477.6 730.3L1478 672L1478.4 689.8L1478.9 724.4L1479.3 748.3L1479.8 722.6L1480.2 694L1480.7 713.3L1481.1 748.1L1481.6 726.8L1482 689.4L1482.4 529.3L1482.9 680.3L1483.3 740.6L1483.8 695.7L1484.2 728.6L1484.7 735.1L1485.1 660.4L1485.6 690.6L1486 722.8L1486.4 746.5L1486.9 727L1487.3 688L1487.8 731.7L1488.2 721.8L1488.7 728.9L1489.1 689.8L1489.6 530.3L1490 677L1490.4 740.2L1490.9 689.2L1491.3 727.6L1491.8 737.6L1492.2 660.2L1492.7 681.9L1493.1 719.9L1493.6 750.3L1494 727.4L1494.4 691.4L1494.9 730.5L1495.3 728L1495.8 725.4L1496.2 687.8L1496.7 537.6L1497.1 680.1L1497.6 740.6L1498 693L1498.4 729.1L1498.9 758L1499.3 695.9L1499.8 710L1500.2 -529.7L1500.7 -423L1501.1 -256.1L1501.6 -183.4L1502 199.9L1502.4 376.1L1502.9 644.5L1503.3 449.2L1503.8 240.1L1504.2 253.3L1504.7 517.2L1505.1 597.7L1505.6 666.7L1506 679.1L1506.4 656.4L1506.9 681.1L1507.3 718.7L1507.8 748.5L1508.2 740.4L1508.7 679.1L1509.1 732.9L1509.6 691.2L1510 726.4L1510.4 747.5L1510.9 648.1L1511.3 570.6L1511.8 679.7L1512.2 689.2L1512.7 730.7L1513.1 741.4L1513.6 715.5L1514 690.8L1514.4 661.9L1514.9 745.4L1515.3 740.8L1515.8 676L1516.2 731.7L1516.7 723.4L1517.1 727.4L1517.6 747.7L1518 658.6L1518.4 551.6L1518.9 666.7L1519.3 692.6L1519.8 732.3L1520.2 745.2L1520.7 716.1L1521.1 690L1521.6 662.5L1522 743.4L1522.4 744L1522.9 668.1L1523.3 726L1523.8 604.6L1524.2 711.2L1524.7 746.9L1525.1 658.4L1525.6 553.8L1526 658.8L1526.4 693.4L1526.9 731.3L1527.3 742.4L1527.8 719.9L1528.2 680.1L1528.7 662.1L1529.1 748.1L1529.6 745.6L1530 680.3L1530.4 725.8L1530.9 742L1531.3 708L1531.8 746.7L1532.2 661.3L1532.7 557.9L1533.1 663.7L1533.6 696.5L1534 733.1L1534.4 743.8L1534.9 718.1L1535.3 677.7L1535.8 659L1536.2 739L1536.7 730.7L1537.1 696.3L1537.6 713.7L1538 744.8L1538.4 708.2L1538.9 748.3L1539.3 725L1539.8 668.3L1540.2 571.2L1540.7 638.6L1541.1 729.9L1541.6 745.4L1542 717.5L1542.4 678.5L1542.9 662.3L1543.3 749.5L1543.8 742.4L1544.2 691.8L1544.7 717.5L1545.1 739L1545.6 707L1546 737.1L1546.4 720.1L1546.9 672.8L1547.3 562.9L1547.8 640.2L1548.2 731.9L1548.7 741.6L1549.1 722.6L1549.6 729.5L1550 665.5L1550.4 683.7L1550.9 738.6L1551.3 697.5L1551.8 720.1L1552.2 747.5L1552.7 704L1553.1 744.4L1553.6 723.2L1554 690.2L1554.4 547.1L1554.9 621.8L1555.3 735.9L1555.8 747.3L1556.2 685.1L1556.7 736.3L1557.1 661.5L1557.6 690.2L1558 746.1L1558.4 700.5L1558.9 723L1559.3 744.2L1559.8 732.7L1560.2 728.8L1560.7 -11.6L1561.1 22.8L1561.6 19L1562 86.8L1562.4 417.2L1562.9 520.8L1563.3 671.6L1563.8 520.8L1564.2 380.2L1564.7 131.1L1565.1 319.7L1565.6 445.3L1566 412.6L1566.4 628.1L1566.9 524.1L1567.3 712.7L1567.8 648.5L1568.2 616.7L1568.7 404.5L1569.1 486.8L1569.6 701.1L1570 739.6L1570.4 698.7L1570.9 747.5L1571.3 643.3L1571.8 693.4L1572.2 730.1L1572.7 703.1L1573.1 725.6L1573.6 740L1574 722.8L1574.4 738.2L1574.9 718.7L1575.3 750.9L1575.8 651.3L1576.2 526.7L1576.7 675.2L1577.1 597.7L1577.6 720.8L1578 747.7L1578.4 636.6L1578.9 698.5L1579.3 739L1579.8 702.3L1580.2 729.5L1580.7 745L1581.1 721.4L1581.6 735.7L1582 716.9L1582.4 746.3L1582.9 653.2L1583.3 530.1L1583.8 677L1584.2 756.2L1584.7 719.1L1585.1 752.5L1585.6 708L1586 699.1L1586.4 677L1586.9 705.2L1587.3 728.2L1587.8 737.1L1588.2 713.1L1588.7 731.1L1589.1 716.3L1589.6 753.3L1590 672.4L1590.4 507.7L1590.9 660L1591.3 760.6L1591.8 722.8L1592.2 753.7L1592.7 704.4L1593.1 693.4L1593.6 672.4L1594 702.5L1594.4 732.3L1594.9 744.8L1595.3 718.5L1595.8 752.7L1596.2 699.9L1596.7 753.3L1597.1 674.6L1597.6 508.9L1598 659.6L1598.4 761.4L1598.9 718.5L1599.3 750.1L1599.8 712.5L1600.2 687.8L1600.7 675.2L1601.1 697.9L1601.6 722.6L1602 739.6L1602.4 712.9L1602.9 752.5L1603.3 692.4L1603.8 750.7L1604.2 669L1604.7 515L1605.1 655.8L1605.6 756.4L1606 714.5L1606.4 752.9L1606.9 708.4L1607.3 685.3L1607.8 674.6L1608.2 705L1608.7 727.2L1609.1 754.6L1609.6 705.8L1610 753.1L1610.4 694L1610.9 755.2L1611.3 733.9L1611.8 625.6L1612.2 554.6L1612.7 704L1613.1 719.7L1613.6 752.9L1614 700.5L1614.4 693.2L1614.9 712.7L1615.3 -621.1L1615.8 -356.8L1616.2 -229.7L1616.7 -149.6L1617.1 229.4L1617.6 340.7L1618 645.1L1618.4 474.1L1618.9 59.4L1619.3 257.1L1619.8 514.5L1620.2 631.9L1620.7 667.1L1621.1 695.1L1621.6 726L1622 687.6L1622.4 627.3L1622.9 745.2L1623.3 743.6L1623.8 725.8L1624.2 723L1624.7 700.5L1625.1 739.4L1625.6 751.3L1626 623.8L1626.4 555.2L1626.9 665.9L1627.3 736.9L1628.2 726.8L1628.7 726L1629.1 692.8L1629.6 625.2L1630 740.4L1630.4 553.4L1630.9 721.6L1631.3 732.5L1631.8 721.8L1632.2 716.1L1632.7 750.9L1633.1 619.2L1633.6 553.4L1634 668.5L1634.4 736.5L1635.3 725.6L1635.8 731.3L1636.2 679.3L1636.7 625.2L1637.1 742L1637.6 738L1638 724.2L1638.4 728.2L1638.9 727L1639.3 717.3L1639.8 743.4L1640.2 620.8L1640.7 548.5L1641.1 662.1L1641.6 738.2L1642.4 729.9L1642.9 726.8L1643.3 676.2L1643.8 623.6L1644.2 734.1L1644.7 736.3L1645.1 730.5L1645.6 719.9L1646 729.5L1646.4 716.3L1646.9 747.1L1647.3 686.8L1647.8 658.8L1648.2 564.3L1648.7 681.9L1649.1 730.3L1649.6 720.1L1650 726.8L1650.4 677.4L1650.9 623L1651.3 738.8L1651.8 736.9L1652.2 737.8L1652.7 724L1653.1 728L1653.6 720.1L1654 739.2L1654.4 683.5L1654.9 667.3L1655.3 557.4L1655.8 684.5L1656.2 732.7L1656.7 728.9L1657.1 733.5L1657.6 741.2L1658 628.1L1658.4 681.9L1658.9 742L1659.3 729.1L1659.8 711.7L1660.2 714.3L1660.7 710.2L1661.1 748.1L1661.6 685.5L1662 680.7L1662.4 544.5L1662.9 662.5L1663.3 732.3L1663.8 723L1664.2 731.9L1664.7 736.1L1665.1 624.6L1665.6 684.1L1666 735.7L1666.4 737.1L1666.9 725.8L1667.8 736.3L1668.2 725.2L1668.7 678.7L1669.1 673.2L1669.6 499.4L1670 668.9L1670.4 739.8L1670.9 725.8L1671.3 735.7L1671.8 729.1L1672.2 608.2L1672.7 675.4L1673.1 739.2L1673.6 742L1674 719.7L1674.4 727.8L1674.9 738.2L1675.3 733.3L1675.8 -82.6L1676.2 13.1L1676.7 -99.4L1677.1 98.5L1677.6 486.8L1678 538.4L1678.4 637.6L1678.9 517.2L1679.3 323.5L1679.8 164.7L1680.2 317.8L1680.7 396L1681.1 426.5L1681.6 595.1L1682 521.6L1682.4 714.1L1682.9 612.7L1683.3 683.3L1683.8 352L1684.2 424.3L1684.7 651.5L1685.1 720.1L1685.6 704.4L1686 748.5L1686.4 605.4L1686.9 690.6L1687.3 728.6L1687.8 744.2L1688.2 728.8L1688.7 730.5L1689.1 733.5L1690 676.4L1690.4 752.1L1690.9 656.6L1691.3 568L1691.8 680.9L1692.2 738.2L1692.7 736.7L1693.1 751.9L1693.6 627.3L1694 734.1L1694.4 669.8L1694.9 744.8L1695.3 734.1L1695.8 724.4L1696.2 729.1L1696.7 734.5L1697.1 677L1697.6 748.7L1698 668.5L1698.4 553.2L1698.9 667.3L1699.3 743.8L1699.8 722.6L1700.2 747.7L1700.7 669.2L1701.1 695.5L1701.6 669.2L1702 746L1702.4 732.7L1702.9 722.6L1703.3 723.6L1703.8 758L1704.2 661.1L1704.7 751.3L1705.1 673.4L1705.6 554.6L1706 660.7L1706.4 740.2L1706.9 734.3L1707.3 758.4L1707.8 679.1L1708.2 682.1L1708.7 666.3L1709.1 740.6L1709.6 736.5L1710 726.4L1710.4 724.4L1710.9 753.1L1711.3 659.6L1711.8 746.3L1712.2 668.9L1712.7 550.4L1713.1 663.7L1713.6 742.4L1714 731.5L1714.4 759L1714.9 669.4L1715.3 674L1715.8 674.6L1716.2 750.5L1716.7 731.1L1717.1 739L1717.6 717.1L1718 755L1718.4 655.2L1718.9 749.9L1719.3 730.9L1719.8 664.3L1720.2 549.8L1720.7 686.8L1721.1 723.8L1721.6 754.3L1722 666.5L1722.4 682.3L1722.9 617.8L1723.3 740.8L1723.8 721.2L1724.2 728.6L1724.7 717.5L1725.1 750.1L1725.6 661.5L1726 738.8L1726.4 731.3L1726.9 671L1727.3 554L1727.8 687.2L1728.2 727.8L1728.7 759.4L1729.1 664.7L1729.6 696.7L1730 743.8L1730.4 -614.8L1730.9 -517.5L1731.3 -307.1L1731.8 -158.9L1732.2 96.3L1732.7 302.5L1733.1 653.8L1733.6 403L1734 250.3L1734.4 94.4L1734.9 467.2L1735.3 653.4L1735.8 676.6L1736.2 663.1L1736.7 727L1737.1 522.8L1737.6 621.2L1738 744.2L1738.4 724.6L1738.9 727.2L1739.3 731.9L1739.8 672.2L1740.2 733.1L1740.7 746.1L1741.1 650.3L1741.6 555.8L1742 651.1L1742.4 749.1L1742.9 736.1L1743.3 693.6L1743.8 724L1744.2 685.5L1744.7 669.2L1745.1 740.8L1745.6 720.3L1746 732.3L1746.4 729.3L1746.9 681.7L1747.3 708.6L1747.8 744.4L1748.2 664.9L1748.7 558.1L1749.1 654.2L1749.6 747.9L1750 734.5L1750.4 690.2L1750.9 722.6L1751.3 672.4L1751.8 670L1752.2 748.3L1752.7 723.2L1753.1 743.6L1753.6 722.8L1754 689.4L1754.4 709.4L1754.9 748.3L1755.3 729.7L1755.8 666.1L1756.2 544.3L1756.7 693.4L1757.1 731.9L1757.6 685.9L1758 715.5L1758.4 674L1758.9 663.9L1759.3 748.7L1759.8 721.6L1760.2 745.4L1760.7 727.4L1761.1 691.2L1761.6 711.4L1762 745.8L1762.4 727.2L1762.9 671L1763.3 541.9L1763.8 688.2L1764.2 734.9L1764.7 692.4L1765.1 727L1765.6 693L1766 711.7L1766.4 683.5L1766.9 720.4L1767.3 746.1L1767.8 708.8L1768.2 687L1768.7 703.1L1769.1 743.8L1769.6 725.6L1770 688L1770.4 531.5L1770.9 668.3L1771.3 725.2L1771.8 694L1772.2 730.3L1772.7 735.7L1773.1 661.5L1773.6 682.5L1774 721.4L1774.4 748.3L1774.9 720.8L1775.3 692L1775.8 711L1776.2 709.6L1776.7 723L1777.1 686.4L1777.6 523.5L1778 679.7L1778.4 739L1778.9 688.6L1779.3 732.9L1779.8 731.7L1780.2 669L1780.7 674.4L1781.1 716.7L1781.6 747.7L1782 721.8L1782.4 688.4L1782.9 727.2L1783.3 722.8L1783.8 715.7L1784.2 686.8L1784.7 527.3L1785.1 662.5L1785.6 734.9L1786 687.8L1786.4 728.9L1786.9 733.3L1787.3 650.9L1787.8 682.7L1788.2 720.4L1788.7 751.3L1789.1 734.1L1789.6 678.3L1790 727.6L1790.4 565.3L1790.9 -16.7L1791.3 83.9L1791.8 116.5L1792.2 18.4L1792.7 442.5L1793.1 505.6L1793.6 660.5L1794 478.3L1794.4 355.5L1794.9 117.5L1795.3 316.2L1795.8 493.5L1796.2 419.8L1796.7 562.7L1797.1 521.8L1797.6 715.7L1798 653.8L1798.4 688.6L1798.9 513.9L1799.3 431.8L1799.8 654.4" fill="transparent" stroke="#3fb1e3" stroke-width="3" stroke-linejoin="bevel" class="zr23-cls-71"></path>
</g>
<path d="M-252.9 -5l505.9 0l0 28l-505.9 0Z" transform="translate(1000 5)" fill="rgb(0,0,0)" fill-opacity="0" stroke="#ccc" stroke-width="0" class="zr23-cls-69"></path>
<text dominant-baseline="central" text-anchor="middle" style="font-size:18px;font-family:sans-serif;font-weight:bold;" xml:space="preserve" y="9" transform="translate(1000 5)" fill="#666666">Min entityUpdate per Tick for benchmark_biolab_synchronous</text>
<defs >
<clipPath id="zr23-c0">
<path d="M198 58.5l16004 0l0 8703l-16004 0Z" fill="#000" class="zr23-cls-70"></path>
</clipPath>
</defs>
<style ><![CDATA[
.zr23-cls-69:hover {
pointer-events:none;
}
.zr23-cls-70:hover {
cursor:pointer;
fill:rgba(0,0,0,1);
}
.zr23-cls-71:hover {
cursor:pointer;
}

]]>

</style>
</svg>