<svg width="1000" height="1000" xmlns="http://www.w3.org/2000/svg" xmlns:xlink="http://www.w3.org/1999/xlink" version="1.1" baseProfile="full" viewBox="0 0 1000 1000">
<rect width="1000" height="1000" x="0" y="0" fill="rgb(252,252,252)" fill-opacity="0"></rect>
<path d="M148.5 60L148.5 783.4" fill="transparent" stroke="#eeeeee" class="zr1-cls-2"></path>
<path d="M524.5 60L524.5 783.4" fill="transparent" stroke="#eeeeee" class="zr1-cls-2"></path>
<path d="M900.5 60L900.5 783.4" fill="transparent" stroke="#eeeeee" class="zr1-cls-2"></path>
<path d="M148.5 783.4L148.5 60" fill="transparent" stroke="#cccccc" stroke-linecap="round" class="zr1-cls-2"></path>
<text dominant-baseline="central" text-anchor="middle" style="font-size:12px;font-family:sans-serif;" y="-6" transform="translate(148.32 45)" fill="#cccccc">UPS</text>
<path d="M148.3 783.5L900 783.5" fill="transparent" stroke="#cccccc" stroke-linecap="round" class="zr1-cls-2"></path>
<text dominant-baseline="central" text-anchor="end" style="font-size:12px;font-family:sans-serif;" transform="translate(140.32 783.3568)" fill="#999999">2,526</text>
<text dominant-baseline="central" text-anchor="end" style="font-size:12px;font-family:sans-serif;" transform="translate(140.32 638.6855)" fill="#999999">2,638.4</text>
<text dominant-baseline="central" text-anchor="end" style="font-size:12px;font-family:sans-serif;" transform="translate(140.32 494.0141)" fill="#999999">2,750.8</text>
<text dominant-baseline="central" text-anchor="end" style="font-size:12px;font-family:sans-serif;" transform="translate(140.32 349.3427)" fill="#999999">2,863.2</text>
<text dominant-baseline="central" text-anchor="end" style="font-size:12px;font-family:sans-serif;" transform="translate(140.32 204.6714)" fill="#999999">2,975.6</text>
<text dominant-baseline="central" text-anchor="end" style="font-size:12px;font-family:sans-serif;" transform="translate(140.32 60)" fill="#999999">3,088</text>
<text dominant-baseline="central" text-anchor="end" style="font-size:12px;font-family:sans-serif;" transform="matrix(0.707,-0.707,0.707,0.707,336.24,791.3568)" fill="#999999">q2_red_2048_no_labs_with_ship</text>
<text dominant-baseline="central" text-anchor="end" style="font-size:12px;font-family:sans-serif;" transform="matrix(0.707,-0.707,0.707,0.707,712.08,791.3568)" fill="#999999">q1_red_2048_no_labs_with_ship</text>
<path d="M311.2 611.8L361.2 611.8L361.2 577.1L311.2 577.1ZM336.2 611.8M336.2 577.1M311.2 611.8L361.2 611.8M311.2 577.1L361.2 577.1M311.2 588.3L361.2 588.3" fill="#fff" stroke="#3FB1E3" ecmeta_series_index="0" ecmeta_data_index="0" ecmeta_ssr_type="chart" class="zr1-cls-3"></path>
<path d="M687.1 302.2L737.1 302.2L737.1 250.2L687.1 250.2ZM712.1 302.2M712.1 250.2M687.1 302.2L737.1 302.2M687.1 250.2L737.1 250.2M687.1 266.9L737.1 266.9" fill="#fff" stroke="#3FB1E3" ecmeta_series_index="0" ecmeta_data_index="1" ecmeta_ssr_type="chart" class="zr1-cls-3"></path>
<path d="M-194.5 -5l389.1 0l0 28l-389.1 0Z" transform="translate(500 5)" fill="rgb(0,0,0)" fill-opacity="0" stroke="#ccc" stroke-width="0" class="zr1-cls-2"></path>
<text dominant-baseline="central" text-anchor="middle" style="font-size:18px;font-family:sans-serif;font-weight:bold;" xml:space="preserve" y="9" transform="translate(500 5)" fill="#666666">Benchmark Results - Effective UPS Distribution</text>
<style ><![CDATA[
.zr1-cls-2:hover {
pointer-events:none;
}
.zr1-cls-3:hover {
cursor:pointer;
fill:rgba(255,255,255,1);
stroke-width:2;
}

]]>

</style>
</svg>