<svg width="1000" height="1000" xmlns="http://www.w3.org/2000/svg" xmlns:xlink="http://www.w3.org/1999/xlink" version="1.1" baseProfile="full" viewBox="0 0 1000 1000">
<rect width="1000" height="1000" x="0" y="0" fill="rgb(252,252,252)" fill-opacity="0"></rect>
<path d="M138.5 60L138.5 775" fill="transparent" stroke="#eeeeee" class="zr1-cls-2"></path>
<path d="M247.5 60L247.5 775" fill="transparent" stroke="#eeeeee" class="zr1-cls-2"></path>
<path d="M356.5 60L356.5 775" fill="transparent" stroke="#eeeeee" class="zr1-cls-2"></path>
<path d="M464.5 60L464.5 775" fill="transparent" stroke="#eeeeee" class="zr1-cls-2"></path>
<path d="M573.5 60L573.5 775" fill="transparent" stroke="#eeeeee" class="zr1-cls-2"></path>
<path d="M682.5 60L682.5 775" fill="transparent" stroke="#eeeeee" class="zr1-cls-2"></path>
<path d="M791.5 60L791.5 775" fill="transparent" stroke="#eeeeee" class="zr1-cls-2"></path>
<path d="M900.5 60L900.5 775" fill="transparent" stroke="#eeeeee" class="zr1-cls-2"></path>
<path d="M138.5 775L138.5 60" fill="transparent" stroke="#cccccc" stroke-linecap="round" class="zr1-cls-2"></path>
<text dominant-baseline="central" text-anchor="middle" style="font-size:12px;font-family:sans-serif;" y="-6" transform="translate(138.24 45)" fill="#cccccc">UPS</text>
<path d="M138.2 775.5L900 775.5" fill="transparent" stroke="#cccccc" stroke-linecap="round" class="zr1-cls-2"></path>
<text dominant-baseline="central" text-anchor="end" style="font-size:12px;font-family:sans-serif;" transform="translate(130.24 774.9564)" fill="#999999">226</text>
<text dominant-baseline="central" text-anchor="end" style="font-size:12px;font-family:sans-serif;" transform="translate(130.24 631.9651)" fill="#999999">301.8</text>
<text dominant-baseline="central" text-anchor="end" style="font-size:12px;font-family:sans-serif;" transform="translate(130.24 488.9738)" fill="#999999">377.6</text>
<text dominant-baseline="central" text-anchor="end" style="font-size:12px;font-family:sans-serif;" transform="translate(130.24 345.9826)" fill="#999999">453.4</text>
<text dominant-baseline="central" text-anchor="end" style="font-size:12px;font-family:sans-serif;" transform="translate(130.24 202.9913)" fill="#999999">529.2</text>
<text dominant-baseline="central" text-anchor="end" style="font-size:12px;font-family:sans-serif;" transform="translate(130.24 60)" fill="#999999">605</text>
<text dominant-baseline="central" text-anchor="end" style="font-size:12px;font-family:sans-serif;" transform="matrix(0.707,-0.707,0.707,0.707,192.6514,782.9564)" fill="#999999">q1_stack_wake_explosives</text>
<text dominant-baseline="central" text-anchor="end" style="font-size:12px;font-family:sans-serif;" transform="matrix(0.707,-0.707,0.707,0.707,301.4743,782.9564)" fill="#999999">q1_stack_sync_explosives</text>
<text dominant-baseline="central" text-anchor="end" style="font-size:12px;font-family:sans-serif;" transform="matrix(0.707,-0.707,0.707,0.707,410.2971,782.9564)" fill="#999999">q1_bulk_explosives</text>
<text dominant-baseline="central" text-anchor="end" style="font-size:12px;font-family:sans-serif;" transform="matrix(0.707,-0.707,0.707,0.707,519.12,782.9564)" fill="#999999">q1_stack_desync_explosives</text>
<text dominant-baseline="central" text-anchor="end" style="font-size:12px;font-family:sans-serif;" transform="matrix(0.707,-0.707,0.707,0.707,627.9429,782.9564)" fill="#999999">q1_stack_desync_v1_9_explosives</text>
<text dominant-baseline="central" text-anchor="end" style="font-size:12px;font-family:sans-serif;" transform="matrix(0.707,-0.707,0.707,0.707,736.7657,782.9564)" fill="#999999">q2_stack_desync_explosives</text>
<text dominant-baseline="central" text-anchor="end" style="font-size:12px;font-family:sans-serif;" transform="matrix(0.707,-0.707,0.707,0.707,845.5886,782.9564)" fill="#999999">q2_stack_desync_v1_9_explosives</text>
<path d="M167.7 750.9L217.7 750.9L217.7 739.6L167.7 739.6ZM192.7 750.9M192.7 739.6M167.7 750.9L217.7 750.9M167.7 739.6L217.7 739.6M167.7 742.9L217.7 742.9" fill="#fff" stroke="#3FB1E3" ecmeta_series_index="0" ecmeta_data_index="0" ecmeta_ssr_type="chart" class="zr1-cls-3"></path>
<path d="M276.5 506.5L326.5 506.5L326.5 498L276.5 498ZM301.5 506.5M301.5 498M276.5 506.5L326.5 506.5M276.5 498L326.5 498M276.5 504.5L326.5 504.5" fill="#fff" stroke="#3FB1E3" ecmeta_series_index="0" ecmeta_data_index="1" ecmeta_ssr_type="chart" class="zr1-cls-3"></path>
<path d="M385.3 493.2L435.3 493.2L435.3 490.8L385.3 490.8ZM410.3 493.2M410.3 490.8M385.3 493.2L435.3 493.2M385.3 490.8L435.3 490.8M385.3 491.9L435.3 491.9" fill="#fff" stroke="#3FB1E3" ecmeta_series_index="0" ecmeta_data_index="2" ecmeta_ssr_type="chart" class="zr1-cls-3"></path>
<path d="M494.1 444.7L544.1 444.7L544.1 431.1L494.1 431.1ZM519.1 444.7M519.1 431.1M494.1 444.7L544.1 444.7M494.1 431.1L544.1 431.1M494.1 434.6L544.1 434.6" fill="#fff" stroke="#3FB1E3" ecmeta_series_index="0" ecmeta_data_index="3" ecmeta_ssr_type="chart" class="zr1-cls-3"></path>
<path d="M602.9 354.3L652.9 354.3L652.9 348.8L602.9 348.8ZM627.9 354.3M627.9 348.8M602.9 354.3L652.9 354.3M602.9 348.8L652.9 348.8M602.9 351L652.9 351" fill="#fff" stroke="#3FB1E3" ecmeta_series_index="0" ecmeta_data_index="4" ecmeta_ssr_type="chart" class="zr1-cls-3"></path>
<path d="M711.8 200.1L761.8 200.1L761.8 176.4L711.8 176.4ZM736.8 200.1M736.8 176.4M711.8 200.1L761.8 200.1M711.8 176.4L761.8 176.4M711.8 180.6L761.8 180.6" fill="#fff" stroke="#3FB1E3" ecmeta_series_index="0" ecmeta_data_index="5" ecmeta_ssr_type="chart" class="zr1-cls-3"></path>
<path d="M820.6 125.1L870.6 125.1L870.6 116L820.6 116ZM845.6 125.1M845.6 116M820.6 125.1L870.6 125.1M820.6 116L870.6 116M820.6 124.6L870.6 124.6" fill="#fff" stroke="#3FB1E3" ecmeta_series_index="0" ecmeta_data_index="6" ecmeta_ssr_type="chart" class="zr1-cls-3"></path>
<path d="M-194.5 -5l389.1 0l0 28l-389.1 0Z" transform="translate(500 5)" fill="rgb(0,0,0)" fill-opacity="0" stroke="#ccc" stroke-width="0" class="zr1-cls-2"></path>
<text dominant-baseline="central" text-anchor="middle" style="font-size:18px;font-family:sans-serif;font-weight:bold;" xml:space="preserve" y="9" transform="translate(500 5)" fill="#666666">Benchmark Results - Effective UPS Distribution</text>
<style ><![CDATA[
.zr1-cls-2:hover {
pointer-events:none;
}
.zr1-cls-3:hover {
cursor:pointer;
fill:rgba(255,255,255,1);
stroke-width:2;
}

]]>

</style>
</svg>